<?xml version="1.0" encoding="UTF-8" standalone="no"?>
<!DOCTYPE svg PUBLIC "-//W3C//DTD SVG 1.1//EN"
 "http://www.w3.org/Graphics/SVG/1.1/DTD/svg11.dtd">
<!-- Generated by graphviz version 2.38.0 (20140413.2041)
 -->
<!-- Title: Tomographer::UniformBinsHistogramWithErrorBars&lt; Scalar_, CountType_ &gt; Pages: 1 -->
<svg width="1407pt" height="233pt"
 viewBox="0.00 0.00 1406.91 233.00" xmlns="http://www.w3.org/2000/svg" xmlns:xlink="http://www.w3.org/1999/xlink">
<g id="graph0" class="graph" transform="scale(1 1) rotate(0) translate(4 229)">
<title>Tomographer::UniformBinsHistogramWithErrorBars&lt; Scalar_, CountType_ &gt;</title>
<!-- Node0 -->
<g id="node1" class="node"><title>Node0</title>
<polygon fill="#bfbfbf" stroke="black" points="209.196,-85.5 209.196,-123.5 344.132,-123.5 344.132,-85.5 209.196,-85.5"/>
<text text-anchor="start" x="217.196" y="-111.5" font-family="Helvetica,sans-Serif" font-size="10.00">Tomographer::UniformBins</text>
<text text-anchor="start" x="217.196" y="-101.5" font-family="Helvetica,sans-Serif" font-size="10.00">HistogramWithErrorBars</text>
<text text-anchor="middle" x="276.664" y="-91.5" font-family="Helvetica,sans-Serif" font-size="10.00">&lt; Scalar_, CountType_ &gt;</text>
</g>
<!-- Node2 -->
<g id="node3" class="node"><title>Node2</title>
<g id="a_node3"><a xlink:href="class_tomographer_1_1_uniform_bins_histogram_with_error_bars.html" target="_top" xlink:title="Tomographer::UniformBins\lHistogramWithErrorBars\l\&lt; HistogramType_::Scalar,\l RealAvgType \&gt;">
<polygon fill="none" stroke="black" points="519.922,-113.5 519.922,-161.5 654.857,-161.5 654.857,-113.5 519.922,-113.5"/>
<text text-anchor="start" x="527.922" y="-149.5" font-family="Helvetica,sans-Serif" font-size="10.00">Tomographer::UniformBins</text>
<text text-anchor="start" x="527.922" y="-139.5" font-family="Helvetica,sans-Serif" font-size="10.00">HistogramWithErrorBars</text>
<text text-anchor="start" x="527.922" y="-129.5" font-family="Helvetica,sans-Serif" font-size="10.00">&lt; HistogramType_::Scalar,</text>
<text text-anchor="middle" x="587.39" y="-119.5" font-family="Helvetica,sans-Serif" font-size="10.00"> RealAvgType &gt;</text>
</a>
</g>
</g>
<!-- Node0&#45;&gt;Node2 -->
<g id="edge2" class="edge"><title>Node0&#45;&gt;Node2</title>
<path fill="none" stroke="orange" stroke-dasharray="5,2" d="M354.234,-112.685C405.105,-118.122 471.238,-125.191 519.9,-130.393"/>
<polygon fill="orange" stroke="orange" points="354.588,-109.203 344.273,-111.62 353.844,-116.163 354.588,-109.203"/>
<text text-anchor="start" x="371.856" y="-140.5" font-family="Helvetica,sans-Serif" font-size="10.00"> &lt; HistogramType_::Scalar,</text>
<text text-anchor="middle" x="432.027" y="-130.5" font-family="Helvetica,sans-Serif" font-size="10.00"> RealAvgType &gt;</text>
</g>
<!-- Node7 -->
<g id="node8" class="node"><title>Node7</title>
<g id="a_node8"><a xlink:href="class_tomographer_1_1_uniform_bins_histogram_with_error_bars.html" target="_top" xlink:title="Tomographer::UniformBins\lHistogramWithErrorBars\l\&lt; ScaledHistogramType \l::Scalar, CountRealType \&gt;">
<polygon fill="none" stroke="black" points="681.896,-176.5 681.896,-224.5 816.831,-224.5 816.831,-176.5 681.896,-176.5"/>
<text text-anchor="start" x="689.896" y="-212.5" font-family="Helvetica,sans-Serif" font-size="10.00">Tomographer::UniformBins</text>
<text text-anchor="start" x="689.896" y="-202.5" font-family="Helvetica,sans-Serif" font-size="10.00">HistogramWithErrorBars</text>
<text text-anchor="start" x="689.896" y="-192.5" font-family="Helvetica,sans-Serif" font-size="10.00">&lt; ScaledHistogramType </text>
<text text-anchor="middle" x="749.363" y="-182.5" font-family="Helvetica,sans-Serif" font-size="10.00">::Scalar, CountRealType &gt;</text>
</a>
</g>
</g>
<!-- Node0&#45;&gt;Node7 -->
<g id="edge7" class="edge"><title>Node0&#45;&gt;Node7</title>
<path fill="none" stroke="orange" stroke-dasharray="5,2" d="M313.542,-129.038C328.035,-137.819 345.294,-146.916 362.132,-152.5 470.2,-188.337 603.334,-197.793 681.719,-200.07"/>
<polygon fill="orange" stroke="orange" points="315.241,-125.972 304.905,-123.645 311.534,-131.91 315.241,-125.972"/>
<text text-anchor="start" x="372.405" y="-196.5" font-family="Helvetica,sans-Serif" font-size="10.00"> &lt; ScaledHistogramType</text>
<text text-anchor="middle" x="432.027" y="-186.5" font-family="Helvetica,sans-Serif" font-size="10.00"> ::Scalar, CountRealType &gt;</text>
</g>
<!-- Node8 -->
<g id="node9" class="node"><title>Node8</title>
<g id="a_node9"><a xlink:href="class_tomographer_1_1_uniform_bins_histogram_with_error_bars.html" target="_top" xlink:title="Tomographer::UniformBins\lHistogramWithErrorBars\l\&lt; HistogramType ::Scalar,\l CountRealType \&gt;">
<polygon fill="none" stroke="black" points="861.857,-0.5 861.857,-48.5 996.793,-48.5 996.793,-0.5 861.857,-0.5"/>
<text text-anchor="start" x="869.857" y="-36.5" font-family="Helvetica,sans-Serif" font-size="10.00">Tomographer::UniformBins</text>
<text text-anchor="start" x="869.857" y="-26.5" font-family="Helvetica,sans-Serif" font-size="10.00">HistogramWithErrorBars</text>
<text text-anchor="start" x="869.857" y="-16.5" font-family="Helvetica,sans-Serif" font-size="10.00">&lt; HistogramType ::Scalar,</text>
<text text-anchor="middle" x="929.325" y="-6.5" font-family="Helvetica,sans-Serif" font-size="10.00"> CountRealType &gt;</text>
</a>
</g>
</g>
<!-- Node0&#45;&gt;Node8 -->
<g id="edge9" class="edge"><title>Node0&#45;&gt;Node8</title>
<path fill="none" stroke="orange" stroke-dasharray="5,2" d="M345.536,-82.6196C351.123,-81.1208 356.706,-79.7229 362.132,-78.5 539.615,-38.4991 754.911,-28.1053 861.653,-25.4212"/>
<polygon fill="orange" stroke="orange" points="344.204,-79.3571 335.509,-85.4104 346.082,-86.1008 344.204,-79.3571"/>
<text text-anchor="start" x="528.61" y="-62.5" font-family="Helvetica,sans-Serif" font-size="10.00"> &lt; HistogramType ::Scalar,</text>
<text text-anchor="middle" x="587.39" y="-52.5" font-family="Helvetica,sans-Serif" font-size="10.00"> CountRealType &gt;</text>
</g>
<!-- Node9 -->
<g id="node10" class="node"><title>Node9</title>
<g id="a_node10"><a xlink:href="class_tomographer_1_1_uniform_bins_histogram_with_error_bars.html" target="_top" xlink:title="Tomographer::UniformBins\lHistogramWithErrorBars\l\&lt; SimpleScaledHistogramType\l ::Scalar, double \&gt;">
<polygon fill="none" stroke="black" points="672.857,-56.5 672.857,-104.5 825.869,-104.5 825.869,-56.5 672.857,-56.5"/>
<text text-anchor="start" x="680.857" y="-92.5" font-family="Helvetica,sans-Serif" font-size="10.00">Tomographer::UniformBins</text>
<text text-anchor="start" x="680.857" y="-82.5" font-family="Helvetica,sans-Serif" font-size="10.00">HistogramWithErrorBars</text>
<text text-anchor="start" x="680.857" y="-72.5" font-family="Helvetica,sans-Serif" font-size="10.00">&lt; SimpleScaledHistogramType</text>
<text text-anchor="middle" x="749.363" y="-62.5" font-family="Helvetica,sans-Serif" font-size="10.00"> ::Scalar, double &gt;</text>
</a>
</g>
</g>
<!-- Node0&#45;&gt;Node9 -->
<g id="edge11" class="edge"><title>Node0&#45;&gt;Node9</title>
<path fill="none" stroke="orange" stroke-dasharray="5,2" d="M354.458,-91.3075C357.044,-91.0116 359.607,-90.7408 362.132,-90.5 469.637,-80.2488 594.685,-78.9364 672.688,-79.3741"/>
<polygon fill="orange" stroke="orange" points="353.898,-87.8501 344.408,-92.562 354.765,-94.7962 353.898,-87.8501"/>
<text text-anchor="start" x="362.132" y="-102.5" font-family="Helvetica,sans-Serif" font-size="10.00"> &lt; SimpleScaledHistogramType</text>
<text text-anchor="middle" x="432.027" y="-92.5" font-family="Helvetica,sans-Serif" font-size="10.00"> ::Scalar, double &gt;</text>
</g>
<!-- Node1 -->
<g id="node2" class="node"><title>Node1</title>
<g id="a_node2"><a xlink:href="class_tomographer_1_1_uniform_bins_histogram.html" target="_top" xlink:title="Stores a histogram. ">
<polygon fill="none" stroke="black" points="0,-90.5 0,-118.5 172.196,-118.5 172.196,-90.5 0,-90.5"/>
<text text-anchor="start" x="8" y="-106.5" font-family="Helvetica,sans-Serif" font-size="10.00">Tomographer::UniformBins</text>
<text text-anchor="middle" x="86.0981" y="-96.5" font-family="Helvetica,sans-Serif" font-size="10.00">Histogram&lt; Scalar_, CountType_ &gt;</text>
</a>
</g>
</g>
<!-- Node1&#45;&gt;Node0 -->
<g id="edge1" class="edge"><title>Node1&#45;&gt;Node0</title>
<path fill="none" stroke="midnightblue" d="M182.396,-104.5C191.368,-104.5 200.327,-104.5 208.95,-104.5"/>
<polygon fill="midnightblue" stroke="midnightblue" points="182.279,-101 172.278,-104.5 182.278,-108 182.279,-101"/>
</g>
<!-- Node3 -->
<g id="node4" class="node"><title>Node3</title>
<g id="a_node4"><a xlink:href="class_tomographer_1_1_averaged_histogram.html" target="_top" xlink:title="Combines several histograms (with same parameters) into an averaged histogram. ">
<polygon fill="none" stroke="black" points="843.869,-138.5 843.869,-166.5 1014.78,-166.5 1014.78,-138.5 843.869,-138.5"/>
<text text-anchor="start" x="851.869" y="-154.5" font-family="Helvetica,sans-Serif" font-size="10.00">Tomographer::AveragedHistogram</text>
<text text-anchor="middle" x="929.325" y="-144.5" font-family="Helvetica,sans-Serif" font-size="10.00">&lt; HistogramType_, RealAvgType &gt;</text>
</a>
</g>
</g>
<!-- Node2&#45;&gt;Node3 -->
<g id="edge3" class="edge"><title>Node2&#45;&gt;Node3</title>
<path fill="none" stroke="midnightblue" d="M665.18,-140.888C718.261,-143.231 788.889,-146.347 843.609,-148.762"/>
<polygon fill="midnightblue" stroke="midnightblue" points="665.289,-137.39 655.144,-140.446 664.98,-144.383 665.289,-137.39"/>
</g>
<!-- Node4 -->
<g id="node5" class="node"><title>Node4</title>
<g id="a_node5"><a xlink:href="class_tomographer_1_1_averaged_histogram.html" target="_top" xlink:title="Tomographer::AveragedHistogram\l\&lt; ScaledHistogramType, CountRealType \&gt;">
<polygon fill="none" stroke="black" points="1193.35,-193.5 1193.35,-221.5 1398.91,-221.5 1398.91,-193.5 1193.35,-193.5"/>
<text text-anchor="start" x="1201.35" y="-209.5" font-family="Helvetica,sans-Serif" font-size="10.00">Tomographer::AveragedHistogram</text>
<text text-anchor="middle" x="1296.13" y="-199.5" font-family="Helvetica,sans-Serif" font-size="10.00">&lt; ScaledHistogramType, CountRealType &gt;</text>
</a>
</g>
</g>
<!-- Node3&#45;&gt;Node4 -->
<g id="edge4" class="edge"><title>Node3&#45;&gt;Node4</title>
<path fill="none" stroke="orange" stroke-dasharray="5,2" d="M1001.36,-168.583C1011.87,-170.72 1022.59,-172.768 1032.78,-174.5 1085.5,-183.459 1144.57,-191.098 1193.29,-196.764"/>
<polygon fill="orange" stroke="orange" points="1001.88,-165.116 991.379,-166.513 1000.46,-171.97 1001.88,-165.116"/>
<text text-anchor="start" x="1048.06" y="-207.5" font-family="Helvetica,sans-Serif" font-size="10.00"> &lt; ScaledHistogramType,</text>
<text text-anchor="middle" x="1104.07" y="-197.5" font-family="Helvetica,sans-Serif" font-size="10.00"> CountRealType &gt;</text>
</g>
<!-- Node5 -->
<g id="node6" class="node"><title>Node5</title>
<g id="a_node6"><a xlink:href="class_tomographer_1_1_averaged_histogram.html" target="_top" xlink:title="Tomographer::AveragedHistogram\l\&lt; SimpleScaledHistogramType,\l double \&gt;">
<polygon fill="none" stroke="black" points="1211.79,-123.5 1211.79,-161.5 1380.47,-161.5 1380.47,-123.5 1211.79,-123.5"/>
<text text-anchor="start" x="1219.79" y="-149.5" font-family="Helvetica,sans-Serif" font-size="10.00">Tomographer::AveragedHistogram</text>
<text text-anchor="start" x="1219.79" y="-139.5" font-family="Helvetica,sans-Serif" font-size="10.00">&lt; SimpleScaledHistogramType,</text>
<text text-anchor="middle" x="1296.13" y="-129.5" font-family="Helvetica,sans-Serif" font-size="10.00"> double &gt;</text>
</a>
</g>
</g>
<!-- Node3&#45;&gt;Node5 -->
<g id="edge5" class="edge"><title>Node3&#45;&gt;Node5</title>
<path fill="none" stroke="orange" stroke-dasharray="5,2" d="M1025.17,-149.9C1082.92,-148.317 1156.04,-146.313 1211.61,-144.789"/>
<polygon fill="orange" stroke="orange" points="1024.84,-146.408 1014.94,-150.181 1025.03,-153.405 1024.84,-146.408"/>
<text text-anchor="start" x="1032.78" y="-162.5" font-family="Helvetica,sans-Serif" font-size="10.00"> &lt; SimpleScaledHistogramType,</text>
<text text-anchor="middle" x="1104.07" y="-152.5" font-family="Helvetica,sans-Serif" font-size="10.00"> double &gt;</text>
</g>
<!-- Node6 -->
<g id="node7" class="node"><title>Node6</title>
<g id="a_node7"><a xlink:href="class_tomographer_1_1_averaged_histogram.html" target="_top" xlink:title="Tomographer::AveragedHistogram\l\&lt; HistogramType, CountRealType \&gt;">
<polygon fill="none" stroke="black" points="1208.64,-49.5 1208.64,-77.5 1383.62,-77.5 1383.62,-49.5 1208.64,-49.5"/>
<text text-anchor="start" x="1216.64" y="-65.5" font-family="Helvetica,sans-Serif" font-size="10.00">Tomographer::AveragedHistogram</text>
<text text-anchor="middle" x="1296.13" y="-55.5" font-family="Helvetica,sans-Serif" font-size="10.00">&lt; HistogramType, CountRealType &gt;</text>
</a>
</g>
</g>
<!-- Node3&#45;&gt;Node6 -->
<g id="edge6" class="edge"><title>Node3&#45;&gt;Node6</title>
<path fill="none" stroke="orange" stroke-dasharray="5,2" d="M985.813,-135.554C1000.99,-131.11 1017.47,-126.458 1032.78,-122.5 1098.43,-105.525 1174.04,-88.8192 1227.17,-77.5417"/>
<polygon fill="orange" stroke="orange" points="984.655,-132.246 976.055,-138.434 986.637,-138.96 984.655,-132.246"/>
<text text-anchor="start" x="1038.34" y="-134.5" font-family="Helvetica,sans-Serif" font-size="10.00"> &lt; HistogramType, CountReal</text>
<text text-anchor="middle" x="1104.07" y="-124.5" font-family="Helvetica,sans-Serif" font-size="10.00">Type &gt;</text>
</g>
<!-- Node7&#45;&gt;Node4 -->
<g id="edge8" class="edge"><title>Node7&#45;&gt;Node4</title>
<path fill="none" stroke="midnightblue" d="M827.078,-207.335C912.187,-214.04 1053.59,-222.574 1175.35,-217.5 1181.19,-217.257 1187.18,-216.947 1193.23,-216.588"/>
<polygon fill="midnightblue" stroke="midnightblue" points="827.23,-203.836 816.983,-206.527 826.672,-210.814 827.23,-203.836"/>
</g>
<!-- Node8&#45;&gt;Node6 -->
<g id="edge10" class="edge"><title>Node8&#45;&gt;Node6</title>
<path fill="none" stroke="midnightblue" d="M1006.8,-32.6755C1065.69,-38.972 1147.14,-47.6791 1208.45,-54.2337"/>
<polygon fill="midnightblue" stroke="midnightblue" points="1007.13,-29.1908 996.811,-31.6079 1006.38,-36.1511 1007.13,-29.1908"/>
</g>
<!-- Node9&#45;&gt;Node5 -->
<g id="edge12" class="edge"><title>Node9&#45;&gt;Node5</title>
<path fill="none" stroke="midnightblue" d="M836.283,-73.3824C922.935,-68.3738 1060.02,-66.4098 1175.35,-91.5 1205.16,-97.986 1236.84,-111.814 1260.13,-123.437"/>
<polygon fill="midnightblue" stroke="midnightblue" points="836.003,-69.8929 826.232,-73.9902 836.425,-76.8801 836.003,-69.8929"/>
</g>
</g>
</svg>
