<?xml version="1.0" encoding="UTF-8" standalone="no"?>
<!DOCTYPE svg PUBLIC "-//W3C//DTD SVG 1.1//EN"
 "http://www.w3.org/Graphics/SVG/1.1/DTD/svg11.dtd">
<!-- Generated by graphviz version 2.38.0 (20140413.2041)
 -->
<!-- Title: Tomographer::Logger::LoggerBase&lt; Derived &gt; Pages: 1 -->
<svg width="1090pt" height="492pt"
 viewBox="0.00 0.00 1089.73 492.00" xmlns="http://www.w3.org/2000/svg" xmlns:xlink="http://www.w3.org/1999/xlink">
<g id="graph0" class="graph" transform="scale(1 1) rotate(0) translate(4 488)">
<title>Tomographer::Logger::LoggerBase&lt; Derived &gt;</title>
<!-- Node0 -->
<g id="node1" class="node"><title>Node0</title>
<polygon fill="#bfbfbf" stroke="black" points="0,-203.5 0,-231.5 127.182,-231.5 127.182,-203.5 0,-203.5"/>
<text text-anchor="start" x="8" y="-219.5" font-family="Helvetica,sans-Serif" font-size="10.00">Tomographer::Logger</text>
<text text-anchor="middle" x="63.5908" y="-209.5" font-family="Helvetica,sans-Serif" font-size="10.00">::LoggerBase&lt; Derived &gt;</text>
</g>
<!-- Node1 -->
<g id="node2" class="node"><title>Node1</title>
<g id="a_node2"><a xlink:href="class_tomographer_1_1_logger_1_1_logger_base.html" target="_top" xlink:title="Tomographer::Logger\l::LoggerBase\&lt; BoostTestLogger \&gt;">
<polygon fill="none" stroke="black" points="308.299,-431.5 308.299,-459.5 476.071,-459.5 476.071,-431.5 308.299,-431.5"/>
<text text-anchor="start" x="316.299" y="-447.5" font-family="Helvetica,sans-Serif" font-size="10.00">Tomographer::Logger</text>
<text text-anchor="middle" x="392.185" y="-437.5" font-family="Helvetica,sans-Serif" font-size="10.00">::LoggerBase&lt; BoostTestLogger &gt;</text>
</a>
</g>
</g>
<!-- Node0&#45;&gt;Node1 -->
<g id="edge1" class="edge"><title>Node0&#45;&gt;Node1</title>
<path fill="none" stroke="orange" stroke-dasharray="5,2" d="M68.1856,-241.623C75.3645,-280.807 95.311,-357.887 145.182,-397.5 190.925,-433.835 256.345,-445.261 308.224,-447.911"/>
<polygon fill="orange" stroke="orange" points="71.6144,-240.908 66.4851,-231.638 64.7138,-242.084 71.6144,-240.908"/>
<text text-anchor="middle" x="217.74" y="-448.5" font-family="Helvetica,sans-Serif" font-size="10.00"> &lt; BoostTestLogger &gt;</text>
</g>
<!-- Node3 -->
<g id="node4" class="node"><title>Node3</title>
<g id="a_node4"><a xlink:href="class_tomographer_1_1_logger_1_1_logger_base.html" target="_top" xlink:title="Tomographer::Logger\l::LoggerBase\&lt; ThreadSanitizer\lLogger\&lt; BaseLogger \&gt; \&gt;">
<polygon fill="none" stroke="black" points="314.925,-351.5 314.925,-389.5 469.445,-389.5 469.445,-351.5 314.925,-351.5"/>
<text text-anchor="start" x="322.925" y="-377.5" font-family="Helvetica,sans-Serif" font-size="10.00">Tomographer::Logger</text>
<text text-anchor="start" x="322.925" y="-367.5" font-family="Helvetica,sans-Serif" font-size="10.00">::LoggerBase&lt; ThreadSanitizer</text>
<text text-anchor="middle" x="392.185" y="-357.5" font-family="Helvetica,sans-Serif" font-size="10.00">Logger&lt; BaseLogger &gt; &gt;</text>
</a>
</g>
</g>
<!-- Node0&#45;&gt;Node3 -->
<g id="edge3" class="edge"><title>Node0&#45;&gt;Node3</title>
<path fill="none" stroke="orange" stroke-dasharray="5,2" d="M73.6178,-240.908C85.5516,-268.441 109.348,-313.21 145.182,-335.5 195.732,-366.944 263.268,-374.658 314.789,-375.088"/>
<polygon fill="orange" stroke="orange" points="76.8269,-239.51 69.7575,-231.618 70.3627,-242.196 76.8269,-239.51"/>
<text text-anchor="start" x="161.266" y="-385.5" font-family="Helvetica,sans-Serif" font-size="10.00"> &lt; ThreadSanitizerLogger</text>
<text text-anchor="middle" x="217.74" y="-375.5" font-family="Helvetica,sans-Serif" font-size="10.00">&lt; BaseLogger &gt; &gt;</text>
</g>
<!-- Node6 -->
<g id="node7" class="node"><title>Node6</title>
<g id="a_node7"><a xlink:href="class_tomographer_1_1_logger_1_1_logger_base.html" target="_top" xlink:title="Tomographer::Logger\l::LoggerBase\&lt; LocalLogger\l\&lt; BaseLoggerType_ \&gt; \&gt;">
<polygon fill="none" stroke="black" points="322.61,-294.5 322.61,-332.5 461.76,-332.5 461.76,-294.5 322.61,-294.5"/>
<text text-anchor="start" x="330.61" y="-320.5" font-family="Helvetica,sans-Serif" font-size="10.00">Tomographer::Logger</text>
<text text-anchor="start" x="330.61" y="-310.5" font-family="Helvetica,sans-Serif" font-size="10.00">::LoggerBase&lt; LocalLogger</text>
<text text-anchor="middle" x="392.185" y="-300.5" font-family="Helvetica,sans-Serif" font-size="10.00">&lt; BaseLoggerType_ &gt; &gt;</text>
</a>
</g>
</g>
<!-- Node0&#45;&gt;Node6 -->
<g id="edge6" class="edge"><title>Node0&#45;&gt;Node6</title>
<path fill="none" stroke="orange" stroke-dasharray="5,2" d="M85.5861,-238.634C100.795,-252.608 122.58,-270.036 145.182,-279.5 201.853,-303.23 271.657,-311.076 322.414,-313.37"/>
<polygon fill="orange" stroke="orange" points="87.9311,-236.034 78.2625,-231.702 83.1191,-241.118 87.9311,-236.034"/>
<text text-anchor="start" x="153.246" y="-323.5" font-family="Helvetica,sans-Serif" font-size="10.00"> &lt; LocalLogger&lt; BaseLogger</text>
<text text-anchor="middle" x="217.74" y="-313.5" font-family="Helvetica,sans-Serif" font-size="10.00">Type_ &gt; &gt;</text>
</g>
<!-- Node9 -->
<g id="node10" class="node"><title>Node9</title>
<g id="a_node10"><a xlink:href="class_tomographer_1_1_logger_1_1_logger_base.html" target="_top" xlink:title="Tomographer::Logger\l::LoggerBase\&lt; LocalLogger\l\&lt; LoggerType \&gt; \&gt;">
<polygon fill="none" stroke="black" points="494.071,-246.5 494.071,-284.5 633.221,-284.5 633.221,-246.5 494.071,-246.5"/>
<text text-anchor="start" x="502.071" y="-272.5" font-family="Helvetica,sans-Serif" font-size="10.00">Tomographer::Logger</text>
<text text-anchor="start" x="502.071" y="-262.5" font-family="Helvetica,sans-Serif" font-size="10.00">::LoggerBase&lt; LocalLogger</text>
<text text-anchor="middle" x="563.646" y="-252.5" font-family="Helvetica,sans-Serif" font-size="10.00">&lt; LoggerType &gt; &gt;</text>
</a>
</g>
</g>
<!-- Node0&#45;&gt;Node9 -->
<g id="edge9" class="edge"><title>Node0&#45;&gt;Node9</title>
<path fill="none" stroke="orange" stroke-dasharray="5,2" d="M114.891,-234.427C124.832,-237.217 135.26,-239.762 145.182,-241.5 266.565,-262.765 410.525,-266.382 493.751,-266.404"/>
<polygon fill="orange" stroke="orange" points="115.73,-231.026 105.15,-231.575 113.764,-237.744 115.73,-231.026"/>
<text text-anchor="middle" x="217.74" y="-260.5" font-family="Helvetica,sans-Serif" font-size="10.00"> &lt; LocalLogger&lt; LoggerType &gt; &gt;</text>
</g>
<!-- Node10 -->
<g id="node11" class="node"><title>Node10</title>
<g id="a_node11"><a xlink:href="class_tomographer_1_1_logger_1_1_logger_base.html" target="_top" xlink:title="Tomographer::Logger\l::LoggerBase\&lt; MinimumSeverity\lLogger\&lt; BaseLogger, Level \&gt; \&gt;">
<polygon fill="none" stroke="black" points="311.792,-198.5 311.792,-236.5 472.578,-236.5 472.578,-198.5 311.792,-198.5"/>
<text text-anchor="start" x="319.792" y="-224.5" font-family="Helvetica,sans-Serif" font-size="10.00">Tomographer::Logger</text>
<text text-anchor="start" x="319.792" y="-214.5" font-family="Helvetica,sans-Serif" font-size="10.00">::LoggerBase&lt; MinimumSeverity</text>
<text text-anchor="middle" x="392.185" y="-204.5" font-family="Helvetica,sans-Serif" font-size="10.00">Logger&lt; BaseLogger, Level &gt; &gt;</text>
</a>
</g>
</g>
<!-- Node0&#45;&gt;Node10 -->
<g id="edge11" class="edge"><title>Node0&#45;&gt;Node10</title>
<path fill="none" stroke="orange" stroke-dasharray="5,2" d="M137.651,-217.5C189.323,-217.5 258.565,-217.5 311.63,-217.5"/>
<polygon fill="orange" stroke="orange" points="137.562,-214 127.561,-217.5 137.561,-221 137.562,-214"/>
<text text-anchor="start" x="158.133" y="-229.5" font-family="Helvetica,sans-Serif" font-size="10.00"> &lt; MinimumSeverityLogger</text>
<text text-anchor="middle" x="217.74" y="-219.5" font-family="Helvetica,sans-Serif" font-size="10.00">&lt; BaseLogger, Level &gt; &gt;</text>
</g>
<!-- Node12 -->
<g id="node13" class="node"><title>Node12</title>
<g id="a_node13"><a xlink:href="class_tomographer_1_1_logger_1_1_logger_base.html" target="_top" xlink:title="Tomographer::Logger\l::LoggerBase\&lt; VacuumLogger \&gt;">
<polygon fill="none" stroke="black" points="312.281,-151.5 312.281,-179.5 472.089,-179.5 472.089,-151.5 312.281,-151.5"/>
<text text-anchor="start" x="320.281" y="-167.5" font-family="Helvetica,sans-Serif" font-size="10.00">Tomographer::Logger</text>
<text text-anchor="middle" x="392.185" y="-157.5" font-family="Helvetica,sans-Serif" font-size="10.00">::LoggerBase&lt; VacuumLogger &gt;</text>
</a>
</g>
</g>
<!-- Node0&#45;&gt;Node12 -->
<g id="edge13" class="edge"><title>Node0&#45;&gt;Node12</title>
<path fill="none" stroke="orange" stroke-dasharray="5,2" d="M137.529,-204.767C140.111,-204.336 142.668,-203.912 145.182,-203.5 200.94,-194.351 263.914,-184.635 312.188,-177.318"/>
<polygon fill="orange" stroke="orange" points="136.765,-201.346 127.485,-206.457 137.927,-208.249 136.765,-201.346"/>
<text text-anchor="middle" x="217.74" y="-205.5" font-family="Helvetica,sans-Serif" font-size="10.00"> &lt; VacuumLogger &gt;</text>
</g>
<!-- Node14 -->
<g id="node15" class="node"><title>Node14</title>
<g id="a_node15"><a xlink:href="class_tomographer_1_1_logger_1_1_logger_base.html" target="_top" xlink:title="Tomographer::Logger\l::LoggerBase\&lt; BufferLogger \&gt;">
<polygon fill="none" stroke="black" points="317.002,-104.5 317.002,-132.5 467.368,-132.5 467.368,-104.5 317.002,-104.5"/>
<text text-anchor="start" x="325.002" y="-120.5" font-family="Helvetica,sans-Serif" font-size="10.00">Tomographer::Logger</text>
<text text-anchor="middle" x="392.185" y="-110.5" font-family="Helvetica,sans-Serif" font-size="10.00">::LoggerBase&lt; BufferLogger &gt;</text>
</a>
</g>
</g>
<!-- Node0&#45;&gt;Node14 -->
<g id="edge15" class="edge"><title>Node0&#45;&gt;Node14</title>
<path fill="none" stroke="orange" stroke-dasharray="5,2" d="M91.425,-197.446C106.514,-187.069 126.105,-175.03 145.182,-167.5 200.574,-145.635 266.984,-133.148 316.835,-126.258"/>
<polygon fill="orange" stroke="orange" points="89.2541,-194.695 83.0989,-203.318 93.2883,-200.415 89.2541,-194.695"/>
<text text-anchor="middle" x="217.74" y="-169.5" font-family="Helvetica,sans-Serif" font-size="10.00"> &lt; BufferLogger &gt;</text>
</g>
<!-- Node16 -->
<g id="node17" class="node"><title>Node16</title>
<g id="a_node17"><a xlink:href="class_tomographer_1_1_logger_1_1_logger_base.html" target="_top" xlink:title="Tomographer::Logger\l::LoggerBase\&lt; OriginFiltered\lLogger\&lt; BaseLogger \&gt; \&gt;">
<polygon fill="none" stroke="black" points="320.123,-47.5 320.123,-85.5 464.248,-85.5 464.248,-47.5 320.123,-47.5"/>
<text text-anchor="start" x="328.123" y="-73.5" font-family="Helvetica,sans-Serif" font-size="10.00">Tomographer::Logger</text>
<text text-anchor="start" x="328.123" y="-63.5" font-family="Helvetica,sans-Serif" font-size="10.00">::LoggerBase&lt; OriginFiltered</text>
<text text-anchor="middle" x="392.185" y="-53.5" font-family="Helvetica,sans-Serif" font-size="10.00">Logger&lt; BaseLogger &gt; &gt;</text>
</a>
</g>
</g>
<!-- Node0&#45;&gt;Node16 -->
<g id="edge17" class="edge"><title>Node0&#45;&gt;Node16</title>
<path fill="none" stroke="orange" stroke-dasharray="5,2" d="M74.8284,-194.004C87.4257,-168.092 111.378,-127.318 145.182,-106.5 197.683,-74.1665 267.96,-65.4353 319.955,-64.0489"/>
<polygon fill="orange" stroke="orange" points="71.6242,-192.594 70.5595,-203.135 77.9654,-195.558 71.6242,-192.594"/>
<text text-anchor="start" x="166.463" y="-118.5" font-family="Helvetica,sans-Serif" font-size="10.00"> &lt; OriginFilteredLogger</text>
<text text-anchor="middle" x="217.74" y="-108.5" font-family="Helvetica,sans-Serif" font-size="10.00">&lt; BaseLogger &gt; &gt;</text>
</g>
<!-- Node18 -->
<g id="node19" class="node"><title>Node18</title>
<g id="a_node19"><a xlink:href="class_tomographer_1_1_logger_1_1_logger_base.html" target="_top" xlink:title="Tomographer::Logger\l::LoggerBase\&lt; FileLogger \&gt;">
<polygon fill="none" stroke="black" points="322.198,-0.5 322.198,-28.5 462.172,-28.5 462.172,-0.5 322.198,-0.5"/>
<text text-anchor="start" x="330.198" y="-16.5" font-family="Helvetica,sans-Serif" font-size="10.00">Tomographer::Logger</text>
<text text-anchor="middle" x="392.185" y="-6.5" font-family="Helvetica,sans-Serif" font-size="10.00">::LoggerBase&lt; FileLogger &gt;</text>
</a>
</g>
</g>
<!-- Node0&#45;&gt;Node18 -->
<g id="edge19" class="edge"><title>Node0&#45;&gt;Node18</title>
<path fill="none" stroke="orange" stroke-dasharray="5,2" d="M69.062,-193.306C77.2235,-156.503 98.2232,-87.0884 145.182,-52.5 195.983,-15.0812 268.853,-7.98346 322.096,-8.79255"/>
<polygon fill="orange" stroke="orange" points="65.6167,-192.684 67.0077,-203.187 72.4701,-194.109 65.6167,-192.684"/>
<text text-anchor="middle" x="217.74" y="-54.5" font-family="Helvetica,sans-Serif" font-size="10.00"> &lt; FileLogger &gt;</text>
</g>
<!-- Node2 -->
<g id="node3" class="node"><title>Node2</title>
<g id="a_node3"><a xlink:href="class_tomographer_1_1_logger_1_1_boost_test_logger.html" target="_top" xlink:title="A logger we can use in tests, which calls BOOST_TEST_MESSAGE() ">
<polygon fill="none" stroke="black" points="682.92,-455.5 682.92,-483.5 794.535,-483.5 794.535,-455.5 682.92,-455.5"/>
<text text-anchor="start" x="690.92" y="-471.5" font-family="Helvetica,sans-Serif" font-size="10.00">Tomographer::Logger</text>
<text text-anchor="middle" x="738.728" y="-461.5" font-family="Helvetica,sans-Serif" font-size="10.00">::BoostTestLogger</text>
</a>
</g>
</g>
<!-- Node1&#45;&gt;Node2 -->
<g id="edge2" class="edge"><title>Node1&#45;&gt;Node2</title>
<path fill="none" stroke="midnightblue" d="M486.476,-451.998C549.348,-456.378 630.133,-462.005 682.885,-465.68"/>
<polygon fill="midnightblue" stroke="midnightblue" points="486.369,-448.483 476.15,-451.279 485.883,-455.466 486.369,-448.483"/>
</g>
<!-- Node4 -->
<g id="node5" class="node"><title>Node4</title>
<g id="a_node5"><a xlink:href="class_tomographer_1_1_multi_proc_1_1_cxx_threads_1_1_thread_sanitizer_logger.html" target="_top" xlink:title="Wrapper logger to call non&#45;thread&#45;safe loggers from a multithreaded environment. ">
<polygon fill="none" stroke="black" points="662.922,-398.5 662.922,-436.5 814.533,-436.5 814.533,-398.5 662.922,-398.5"/>
<text text-anchor="start" x="670.922" y="-424.5" font-family="Helvetica,sans-Serif" font-size="10.00">Tomographer::MultiProc</text>
<text text-anchor="start" x="670.922" y="-414.5" font-family="Helvetica,sans-Serif" font-size="10.00">::CxxThreads::ThreadSanitizer</text>
<text text-anchor="middle" x="738.728" y="-404.5" font-family="Helvetica,sans-Serif" font-size="10.00">Logger&lt; BaseLogger &gt;</text>
</a>
</g>
</g>
<!-- Node3&#45;&gt;Node4 -->
<g id="edge4" class="edge"><title>Node3&#45;&gt;Node4</title>
<path fill="none" stroke="midnightblue" d="M479.613,-382.29C535.953,-389.975 608.748,-399.906 662.662,-407.26"/>
<polygon fill="midnightblue" stroke="midnightblue" points="480.032,-378.815 469.65,-380.931 479.085,-385.75 480.032,-378.815"/>
</g>
<!-- Node5 -->
<g id="node6" class="node"><title>Node5</title>
<g id="a_node6"><a xlink:href="class_tomographer_1_1_multi_proc_1_1_o_m_p_1_1_thread_sanitizer_logger.html" target="_top" xlink:title="Wrapper logger to call non&#45;thread&#45;safe loggers from a multithreaded environment. ">
<polygon fill="none" stroke="black" points="662.917,-341.5 662.917,-379.5 814.538,-379.5 814.538,-341.5 662.917,-341.5"/>
<text text-anchor="start" x="670.917" y="-367.5" font-family="Helvetica,sans-Serif" font-size="10.00">Tomographer::MultiProc</text>
<text text-anchor="start" x="670.917" y="-357.5" font-family="Helvetica,sans-Serif" font-size="10.00">::OMP::ThreadSanitizerLogger</text>
<text text-anchor="middle" x="738.728" y="-347.5" font-family="Helvetica,sans-Serif" font-size="10.00">&lt; BaseLogger &gt;</text>
</a>
</g>
</g>
<!-- Node3&#45;&gt;Node5 -->
<g id="edge5" class="edge"><title>Node3&#45;&gt;Node5</title>
<path fill="none" stroke="midnightblue" d="M479.963,-367.981C536.254,-366.348 608.86,-364.24 662.662,-362.679"/>
<polygon fill="midnightblue" stroke="midnightblue" points="479.544,-364.492 469.65,-368.281 479.748,-371.489 479.544,-364.492"/>
</g>
<!-- Node7 -->
<g id="node8" class="node"><title>Node7</title>
<g id="a_node8"><a xlink:href="class_tomographer_1_1_logger_1_1_local_logger.html" target="_top" xlink:title="Local logger: avoid having to repeat origin at each emitted message. ">
<polygon fill="none" stroke="black" points="651.221,-294.5 651.221,-322.5 826.234,-322.5 826.234,-294.5 651.221,-294.5"/>
<text text-anchor="start" x="659.221" y="-310.5" font-family="Helvetica,sans-Serif" font-size="10.00">Tomographer::Logger</text>
<text text-anchor="middle" x="738.728" y="-300.5" font-family="Helvetica,sans-Serif" font-size="10.00">::LocalLogger&lt; BaseLoggerType_ &gt;</text>
</a>
</g>
</g>
<!-- Node6&#45;&gt;Node7 -->
<g id="edge7" class="edge"><title>Node6&#45;&gt;Node7</title>
<path fill="none" stroke="midnightblue" d="M472.192,-312.353C525.642,-311.578 596.239,-310.553 651.204,-309.756"/>
<polygon fill="midnightblue" stroke="midnightblue" points="472.028,-308.855 462.08,-312.5 472.13,-315.855 472.028,-308.855"/>
</g>
<!-- Node8 -->
<g id="node9" class="node"><title>Node8</title>
<g id="a_node9"><a xlink:href="class_tomographer_1_1_logger_1_1_local_logger.html" target="_top" xlink:title="Tomographer::Logger\l::LocalLogger\&lt; LoggerType \&gt;">
<polygon fill="none" stroke="black" points="935.071,-270.5 935.071,-298.5 1081.73,-298.5 1081.73,-270.5 935.071,-270.5"/>
<text text-anchor="start" x="943.071" y="-286.5" font-family="Helvetica,sans-Serif" font-size="10.00">Tomographer::Logger</text>
<text text-anchor="middle" x="1008.4" y="-276.5" font-family="Helvetica,sans-Serif" font-size="10.00">::LocalLogger&lt; LoggerType &gt;</text>
</a>
</g>
</g>
<!-- Node7&#45;&gt;Node8 -->
<g id="edge8" class="edge"><title>Node7&#45;&gt;Node8</title>
<path fill="none" stroke="orange" stroke-dasharray="5,2" d="M836.266,-299.844C868.86,-296.922 904.66,-293.712 935.054,-290.987"/>
<polygon fill="orange" stroke="orange" points="835.911,-296.362 826.264,-300.741 836.536,-303.334 835.911,-296.362"/>
<text text-anchor="middle" x="880.653" y="-301.5" font-family="Helvetica,sans-Serif" font-size="10.00"> &lt; LoggerType &gt;</text>
</g>
<!-- Node9&#45;&gt;Node8 -->
<g id="edge10" class="edge"><title>Node9&#45;&gt;Node8</title>
<path fill="none" stroke="midnightblue" d="M643.427,-268.881C726.015,-272.425 854.695,-277.947 934.863,-281.387"/>
<polygon fill="midnightblue" stroke="midnightblue" points="643.482,-265.38 633.341,-268.448 643.181,-272.374 643.482,-265.38"/>
</g>
<!-- Node11 -->
<g id="node12" class="node"><title>Node11</title>
<g id="a_node12"><a xlink:href="class_tomographer_1_1_logger_1_1_minimum_severity_logger.html" target="_top" xlink:title="Logger which statically discards any messages less important than a fixed severity. ">
<polygon fill="none" stroke="black" points="674.041,-198.5 674.041,-236.5 803.415,-236.5 803.415,-198.5 674.041,-198.5"/>
<text text-anchor="start" x="682.041" y="-224.5" font-family="Helvetica,sans-Serif" font-size="10.00">Tomographer::Logger</text>
<text text-anchor="start" x="682.041" y="-214.5" font-family="Helvetica,sans-Serif" font-size="10.00">::MinimumSeverityLogger</text>
<text text-anchor="middle" x="738.728" y="-204.5" font-family="Helvetica,sans-Serif" font-size="10.00">&lt; BaseLogger, Level &gt;</text>
</a>
</g>
</g>
<!-- Node10&#45;&gt;Node11 -->
<g id="edge12" class="edge"><title>Node10&#45;&gt;Node11</title>
<path fill="none" stroke="midnightblue" d="M482.88,-217.5C542.807,-217.5 620.196,-217.5 673.896,-217.5"/>
<polygon fill="midnightblue" stroke="midnightblue" points="482.663,-214 472.663,-217.5 482.663,-221 482.663,-214"/>
</g>
<!-- Node13 -->
<g id="node14" class="node"><title>Node13</title>
<g id="a_node14"><a xlink:href="class_tomographer_1_1_logger_1_1_vacuum_logger.html" target="_top" xlink:title="Logger that discards all messages. ">
<polygon fill="none" stroke="black" points="682.92,-151.5 682.92,-179.5 794.535,-179.5 794.535,-151.5 682.92,-151.5"/>
<text text-anchor="start" x="690.92" y="-167.5" font-family="Helvetica,sans-Serif" font-size="10.00">Tomographer::Logger</text>
<text text-anchor="middle" x="738.728" y="-157.5" font-family="Helvetica,sans-Serif" font-size="10.00">::VacuumLogger</text>
</a>
</g>
</g>
<!-- Node12&#45;&gt;Node13 -->
<g id="edge14" class="edge"><title>Node12&#45;&gt;Node13</title>
<path fill="none" stroke="midnightblue" d="M482.613,-165.5C545.92,-165.5 628.818,-165.5 682.663,-165.5"/>
<polygon fill="midnightblue" stroke="midnightblue" points="482.23,-162 472.23,-165.5 482.23,-169 482.23,-162"/>
</g>
<!-- Node15 -->
<g id="node16" class="node"><title>Node15</title>
<g id="a_node16"><a xlink:href="class_tomographer_1_1_logger_1_1_buffer_logger.html" target="_top" xlink:title="Log messages into an internal memory buffer. ">
<polygon fill="none" stroke="black" points="682.92,-104.5 682.92,-132.5 794.535,-132.5 794.535,-104.5 682.92,-104.5"/>
<text text-anchor="start" x="690.92" y="-120.5" font-family="Helvetica,sans-Serif" font-size="10.00">Tomographer::Logger</text>
<text text-anchor="middle" x="738.728" y="-110.5" font-family="Helvetica,sans-Serif" font-size="10.00">::BufferLogger</text>
</a>
</g>
</g>
<!-- Node14&#45;&gt;Node15 -->
<g id="edge16" class="edge"><title>Node14&#45;&gt;Node15</title>
<path fill="none" stroke="midnightblue" d="M477.582,-118.5C541.494,-118.5 627.444,-118.5 682.725,-118.5"/>
<polygon fill="midnightblue" stroke="midnightblue" points="477.521,-115 467.521,-118.5 477.521,-122 477.521,-115"/>
</g>
<!-- Node17 -->
<g id="node18" class="node"><title>Node17</title>
<g id="a_node18"><a xlink:href="class_tomographer_1_1_logger_1_1_origin_filtered_logger.html" target="_top" xlink:title="A logger which filters entries according to where they originated from. ">
<polygon fill="none" stroke="black" points="682.371,-47.5 682.371,-85.5 795.084,-85.5 795.084,-47.5 682.371,-47.5"/>
<text text-anchor="start" x="690.371" y="-73.5" font-family="Helvetica,sans-Serif" font-size="10.00">Tomographer::Logger</text>
<text text-anchor="start" x="690.371" y="-63.5" font-family="Helvetica,sans-Serif" font-size="10.00">::OriginFilteredLogger</text>
<text text-anchor="middle" x="738.728" y="-53.5" font-family="Helvetica,sans-Serif" font-size="10.00">&lt; BaseLogger &gt;</text>
</a>
</g>
</g>
<!-- Node16&#45;&gt;Node17 -->
<g id="edge18" class="edge"><title>Node16&#45;&gt;Node17</title>
<path fill="none" stroke="midnightblue" d="M474.642,-66.5C538.674,-66.5 626.148,-66.5 682.299,-66.5"/>
<polygon fill="midnightblue" stroke="midnightblue" points="474.575,-63.0001 464.574,-66.5 474.574,-70.0001 474.575,-63.0001"/>
</g>
<!-- Node19 -->
<g id="node20" class="node"><title>Node19</title>
<g id="a_node20"><a xlink:href="class_tomographer_1_1_logger_1_1_file_logger.html" target="_top" xlink:title="Simple logger class which logs everything into a given FILE pointer. ">
<polygon fill="none" stroke="black" points="682.92,-0.5 682.92,-28.5 794.535,-28.5 794.535,-0.5 682.92,-0.5"/>
<text text-anchor="start" x="690.92" y="-16.5" font-family="Helvetica,sans-Serif" font-size="10.00">Tomographer::Logger</text>
<text text-anchor="middle" x="738.728" y="-6.5" font-family="Helvetica,sans-Serif" font-size="10.00">::FileLogger</text>
</a>
</g>
</g>
<!-- Node18&#45;&gt;Node19 -->
<g id="edge20" class="edge"><title>Node18&#45;&gt;Node19</title>
<path fill="none" stroke="midnightblue" d="M472.602,-14.5C536.958,-14.5 625.969,-14.5 682.701,-14.5"/>
<polygon fill="midnightblue" stroke="midnightblue" points="472.494,-11.0001 462.494,-14.5 472.494,-18.0001 472.494,-11.0001"/>
</g>
</g>
</svg>
