<?xml version="1.0" encoding="UTF-8" standalone="no"?>
<!DOCTYPE svg PUBLIC "-//W3C//DTD SVG 1.1//EN"
 "http://www.w3.org/Graphics/SVG/1.1/DTD/svg11.dtd">
<!-- Generated by graphviz version 2.38.0 (20140413.2041)
 -->
<!-- Title: Tomographer::UniformBinsHistogram&lt; Scalar_, CountType_ &gt; Pages: 1 -->
<svg width="1454pt" height="292pt"
 viewBox="0.00 0.00 1453.72 292.00" xmlns="http://www.w3.org/2000/svg" xmlns:xlink="http://www.w3.org/1999/xlink">
<g id="graph0" class="graph" transform="scale(1 1) rotate(0) translate(4 288)">
<title>Tomographer::UniformBinsHistogram&lt; Scalar_, CountType_ &gt;</title>
<!-- Node0 -->
<g id="node1" class="node"><title>Node0</title>
<polygon fill="#bfbfbf" stroke="black" points="0,-133.5 0,-161.5 172.196,-161.5 172.196,-133.5 0,-133.5"/>
<text text-anchor="start" x="8" y="-149.5" font-family="Helvetica,sans-Serif" font-size="10.00">Tomographer::UniformBins</text>
<text text-anchor="middle" x="86.0981" y="-139.5" font-family="Helvetica,sans-Serif" font-size="10.00">Histogram&lt; Scalar_, CountType_ &gt;</text>
</g>
<!-- Node1 -->
<g id="node2" class="node"><title>Node1</title>
<g id="a_node2"><a xlink:href="class_tomographer_1_1_uniform_bins_histogram_with_error_bars.html" target="_top" xlink:title="Stores a histogram along with error bars. ">
<polygon fill="none" stroke="black" points="368.965,-128.5 368.965,-166.5 503.901,-166.5 503.901,-128.5 368.965,-128.5"/>
<text text-anchor="start" x="376.965" y="-154.5" font-family="Helvetica,sans-Serif" font-size="10.00">Tomographer::UniformBins</text>
<text text-anchor="start" x="376.965" y="-144.5" font-family="Helvetica,sans-Serif" font-size="10.00">HistogramWithErrorBars</text>
<text text-anchor="middle" x="436.433" y="-134.5" font-family="Helvetica,sans-Serif" font-size="10.00">&lt; Scalar_, CountType_ &gt;</text>
</a>
</g>
</g>
<!-- Node0&#45;&gt;Node1 -->
<g id="edge1" class="edge"><title>Node0&#45;&gt;Node1</title>
<path fill="none" stroke="midnightblue" d="M182.409,-147.5C241.526,-147.5 316.007,-147.5 368.814,-147.5"/>
<polygon fill="midnightblue" stroke="midnightblue" points="182.31,-144 172.31,-147.5 182.31,-151 182.31,-144"/>
</g>
<!-- Node10 -->
<g id="node11" class="node"><title>Node10</title>
<g id="a_node11"><a xlink:href="class_tomographer_1_1_uniform_bins_histogram.html" target="_top" xlink:title="Tomographer::UniformBins\lHistogram\&lt; HistogramType\l_::Scalar, RealAvgType \&gt;">
<polygon fill="none" stroke="black" points="367.715,-187.5 367.715,-225.5 505.151,-225.5 505.151,-187.5 367.715,-187.5"/>
<text text-anchor="start" x="375.715" y="-213.5" font-family="Helvetica,sans-Serif" font-size="10.00">Tomographer::UniformBins</text>
<text text-anchor="start" x="375.715" y="-203.5" font-family="Helvetica,sans-Serif" font-size="10.00">Histogram&lt; HistogramType</text>
<text text-anchor="middle" x="436.433" y="-193.5" font-family="Helvetica,sans-Serif" font-size="10.00">_::Scalar, RealAvgType &gt;</text>
</a>
</g>
</g>
<!-- Node0&#45;&gt;Node10 -->
<g id="edge13" class="edge"><title>Node0&#45;&gt;Node10</title>
<path fill="none" stroke="orange" stroke-dasharray="5,2" d="M180.17,-163.264C239.216,-173.265 314.272,-185.978 367.68,-195.024"/>
<polygon fill="orange" stroke="orange" points="180.535,-159.776 170.09,-161.557 179.366,-166.678 180.535,-159.776"/>
<text text-anchor="start" x="199.92" y="-199.5" font-family="Helvetica,sans-Serif" font-size="10.00"> &lt; HistogramType_::Scalar,</text>
<text text-anchor="middle" x="260.091" y="-189.5" font-family="Helvetica,sans-Serif" font-size="10.00"> RealAvgType &gt;</text>
</g>
<!-- Node11 -->
<g id="node12" class="node"><title>Node11</title>
<g id="a_node12"><a xlink:href="class_tomographer_1_1_uniform_bins_histogram.html" target="_top" xlink:title="Tomographer::UniformBins\lHistogram\&lt; ScaledHistogramType\l ::Scalar, CountRealType \&gt;">
<polygon fill="none" stroke="black" points="352.427,-245.5 352.427,-283.5 520.439,-283.5 520.439,-245.5 352.427,-245.5"/>
<text text-anchor="start" x="360.427" y="-271.5" font-family="Helvetica,sans-Serif" font-size="10.00">Tomographer::UniformBins</text>
<text text-anchor="start" x="360.427" y="-261.5" font-family="Helvetica,sans-Serif" font-size="10.00">Histogram&lt; ScaledHistogramType</text>
<text text-anchor="middle" x="436.433" y="-251.5" font-family="Helvetica,sans-Serif" font-size="10.00"> ::Scalar, CountRealType &gt;</text>
</a>
</g>
</g>
<!-- Node0&#45;&gt;Node11 -->
<g id="edge15" class="edge"><title>Node0&#45;&gt;Node11</title>
<path fill="none" stroke="orange" stroke-dasharray="5,2" d="M113.729,-167.604C133.779,-181.825 162.464,-200.288 190.196,-211.5 242.089,-232.48 303.675,-245.751 352.149,-253.767"/>
<polygon fill="orange" stroke="orange" points="115.582,-164.625 105.426,-161.606 111.483,-170.299 115.582,-164.625"/>
<text text-anchor="start" x="200.47" y="-261.5" font-family="Helvetica,sans-Serif" font-size="10.00"> &lt; ScaledHistogramType</text>
<text text-anchor="middle" x="260.091" y="-251.5" font-family="Helvetica,sans-Serif" font-size="10.00"> ::Scalar, CountRealType &gt;</text>
</g>
<!-- Node12 -->
<g id="node13" class="node"><title>Node12</title>
<g id="a_node13"><a xlink:href="class_tomographer_1_1_uniform_bins_histogram.html" target="_top" xlink:title="Tomographer::UniformBins\lHistogram\&lt; HistogramType\l ::Scalar, CountRealType \&gt;">
<polygon fill="none" stroke="black" points="367.715,-66.5 367.715,-104.5 505.151,-104.5 505.151,-66.5 367.715,-66.5"/>
<text text-anchor="start" x="375.715" y="-92.5" font-family="Helvetica,sans-Serif" font-size="10.00">Tomographer::UniformBins</text>
<text text-anchor="start" x="375.715" y="-82.5" font-family="Helvetica,sans-Serif" font-size="10.00">Histogram&lt; HistogramType</text>
<text text-anchor="middle" x="436.433" y="-72.5" font-family="Helvetica,sans-Serif" font-size="10.00"> ::Scalar, CountRealType &gt;</text>
</a>
</g>
</g>
<!-- Node0&#45;&gt;Node12 -->
<g id="edge17" class="edge"><title>Node0&#45;&gt;Node12</title>
<path fill="none" stroke="orange" stroke-dasharray="5,2" d="M153.917,-131.177C165.96,-128.454 178.426,-125.779 190.196,-123.5 249.837,-111.954 318.175,-101.599 367.537,-94.6257"/>
<polygon fill="orange" stroke="orange" points="152.89,-127.821 143.925,-133.467 154.454,-134.644 152.89,-127.821"/>
<text text-anchor="start" x="201.312" y="-135.5" font-family="Helvetica,sans-Serif" font-size="10.00"> &lt; HistogramType ::Scalar,</text>
<text text-anchor="middle" x="260.091" y="-125.5" font-family="Helvetica,sans-Serif" font-size="10.00"> CountRealType &gt;</text>
</g>
<!-- Node13 -->
<g id="node14" class="node"><title>Node13</title>
<g id="a_node14"><a xlink:href="class_tomographer_1_1_uniform_bins_histogram.html" target="_top" xlink:title="Tomographer::UniformBins\lHistogram\&lt; SimpleScaledHistogram\lType ::Scalar, double \&gt;">
<polygon fill="none" stroke="black" points="347.986,-0.5 347.986,-38.5 524.88,-38.5 524.88,-0.5 347.986,-0.5"/>
<text text-anchor="start" x="355.986" y="-26.5" font-family="Helvetica,sans-Serif" font-size="10.00">Tomographer::UniformBins</text>
<text text-anchor="start" x="355.986" y="-16.5" font-family="Helvetica,sans-Serif" font-size="10.00">Histogram&lt; SimpleScaledHistogram</text>
<text text-anchor="middle" x="436.433" y="-6.5" font-family="Helvetica,sans-Serif" font-size="10.00">Type ::Scalar, double &gt;</text>
</a>
</g>
</g>
<!-- Node0&#45;&gt;Node13 -->
<g id="edge19" class="edge"><title>Node0&#45;&gt;Node13</title>
<path fill="none" stroke="orange" stroke-dasharray="5,2" d="M111.359,-126.863C131.314,-110.897 160.97,-89.402 190.196,-76.5 240.181,-54.4341 299.821,-40.327 347.771,-31.6675"/>
<polygon fill="orange" stroke="orange" points="108.97,-124.295 103.43,-133.326 113.392,-129.721 108.97,-124.295"/>
<text text-anchor="start" x="190.196" y="-88.5" font-family="Helvetica,sans-Serif" font-size="10.00"> &lt; SimpleScaledHistogramType</text>
<text text-anchor="middle" x="260.091" y="-78.5" font-family="Helvetica,sans-Serif" font-size="10.00"> ::Scalar, double &gt;</text>
</g>
<!-- Node2 -->
<g id="node3" class="node"><title>Node2</title>
<g id="a_node3"><a xlink:href="class_tomographer_1_1_uniform_bins_histogram_with_error_bars.html" target="_top" xlink:title="Tomographer::UniformBins\lHistogramWithErrorBars\l\&lt; HistogramType_::Scalar,\l RealAvgType \&gt;">
<polygon fill="none" stroke="black" points="709.708,-150.5 709.708,-198.5 844.644,-198.5 844.644,-150.5 709.708,-150.5"/>
<text text-anchor="start" x="717.708" y="-186.5" font-family="Helvetica,sans-Serif" font-size="10.00">Tomographer::UniformBins</text>
<text text-anchor="start" x="717.708" y="-176.5" font-family="Helvetica,sans-Serif" font-size="10.00">HistogramWithErrorBars</text>
<text text-anchor="start" x="717.708" y="-166.5" font-family="Helvetica,sans-Serif" font-size="10.00">&lt; HistogramType_::Scalar,</text>
<text text-anchor="middle" x="777.176" y="-156.5" font-family="Helvetica,sans-Serif" font-size="10.00"> RealAvgType &gt;</text>
</a>
</g>
</g>
<!-- Node1&#45;&gt;Node2 -->
<g id="edge2" class="edge"><title>Node1&#45;&gt;Node2</title>
<path fill="none" stroke="orange" stroke-dasharray="5,2" d="M514.204,-151.482C562.587,-154.246 626.342,-158.353 682.67,-163.5 691.379,-164.296 700.531,-165.239 709.562,-166.234"/>
<polygon fill="orange" stroke="orange" points="514.302,-147.982 504.121,-150.913 513.908,-154.971 514.302,-147.982"/>
<text text-anchor="start" x="552.604" y="-175.5" font-family="Helvetica,sans-Serif" font-size="10.00"> &lt; HistogramType_::Scalar,</text>
<text text-anchor="middle" x="612.775" y="-165.5" font-family="Helvetica,sans-Serif" font-size="10.00"> RealAvgType &gt;</text>
</g>
<!-- Node7 -->
<g id="node8" class="node"><title>Node7</title>
<g id="a_node8"><a xlink:href="class_tomographer_1_1_uniform_bins_histogram_with_error_bars.html" target="_top" xlink:title="Tomographer::UniformBins\lHistogramWithErrorBars\l\&lt; ScaledHistogramType \l::Scalar, CountRealType \&gt;">
<polygon fill="none" stroke="black" points="709.708,-228.5 709.708,-276.5 844.644,-276.5 844.644,-228.5 709.708,-228.5"/>
<text text-anchor="start" x="717.708" y="-264.5" font-family="Helvetica,sans-Serif" font-size="10.00">Tomographer::UniformBins</text>
<text text-anchor="start" x="717.708" y="-254.5" font-family="Helvetica,sans-Serif" font-size="10.00">HistogramWithErrorBars</text>
<text text-anchor="start" x="717.708" y="-244.5" font-family="Helvetica,sans-Serif" font-size="10.00">&lt; ScaledHistogramType </text>
<text text-anchor="middle" x="777.176" y="-234.5" font-family="Helvetica,sans-Serif" font-size="10.00">::Scalar, CountRealType &gt;</text>
</a>
</g>
</g>
<!-- Node1&#45;&gt;Node7 -->
<g id="edge7" class="edge"><title>Node1&#45;&gt;Node7</title>
<path fill="none" stroke="orange" stroke-dasharray="5,2" d="M502.731,-169.911C521.58,-176.357 538.327,-182.05 542.88,-183.5 598.822,-201.314 662.793,-220.125 709.582,-233.599"/>
<polygon fill="orange" stroke="orange" points="503.64,-166.523 493.046,-166.597 501.374,-173.146 503.64,-166.523"/>
<text text-anchor="start" x="553.153" y="-237.5" font-family="Helvetica,sans-Serif" font-size="10.00"> &lt; ScaledHistogramType</text>
<text text-anchor="middle" x="612.775" y="-227.5" font-family="Helvetica,sans-Serif" font-size="10.00"> ::Scalar, CountRealType &gt;</text>
</g>
<!-- Node8 -->
<g id="node9" class="node"><title>Node8</title>
<g id="a_node9"><a xlink:href="class_tomographer_1_1_uniform_bins_histogram_with_error_bars.html" target="_top" xlink:title="Tomographer::UniformBins\lHistogramWithErrorBars\l\&lt; HistogramType ::Scalar,\l CountRealType \&gt;">
<polygon fill="none" stroke="black" points="709.708,-79.5 709.708,-127.5 844.644,-127.5 844.644,-79.5 709.708,-79.5"/>
<text text-anchor="start" x="717.708" y="-115.5" font-family="Helvetica,sans-Serif" font-size="10.00">Tomographer::UniformBins</text>
<text text-anchor="start" x="717.708" y="-105.5" font-family="Helvetica,sans-Serif" font-size="10.00">HistogramWithErrorBars</text>
<text text-anchor="start" x="717.708" y="-95.5" font-family="Helvetica,sans-Serif" font-size="10.00">&lt; HistogramType ::Scalar,</text>
<text text-anchor="middle" x="777.176" y="-85.5" font-family="Helvetica,sans-Serif" font-size="10.00"> CountRealType &gt;</text>
</a>
</g>
</g>
<!-- Node1&#45;&gt;Node8 -->
<g id="edge9" class="edge"><title>Node1&#45;&gt;Node8</title>
<path fill="none" stroke="orange" stroke-dasharray="5,2" d="M514.042,-133.887C523.736,-132.322 533.531,-130.818 542.88,-129.5 598.973,-121.594 662.931,-114.608 709.677,-109.874"/>
<polygon fill="orange" stroke="orange" points="513.3,-130.462 503.998,-135.534 514.433,-137.369 513.3,-130.462"/>
<text text-anchor="start" x="553.996" y="-141.5" font-family="Helvetica,sans-Serif" font-size="10.00"> &lt; HistogramType ::Scalar,</text>
<text text-anchor="middle" x="612.775" y="-131.5" font-family="Helvetica,sans-Serif" font-size="10.00"> CountRealType &gt;</text>
</g>
<!-- Node9 -->
<g id="node10" class="node"><title>Node9</title>
<g id="a_node10"><a xlink:href="class_tomographer_1_1_uniform_bins_histogram_with_error_bars.html" target="_top" xlink:title="Tomographer::UniformBins\lHistogramWithErrorBars\l\&lt; SimpleScaledHistogramType\l ::Scalar, double \&gt;">
<polygon fill="none" stroke="black" points="700.67,-12.5 700.67,-60.5 853.682,-60.5 853.682,-12.5 700.67,-12.5"/>
<text text-anchor="start" x="708.67" y="-48.5" font-family="Helvetica,sans-Serif" font-size="10.00">Tomographer::UniformBins</text>
<text text-anchor="start" x="708.67" y="-38.5" font-family="Helvetica,sans-Serif" font-size="10.00">HistogramWithErrorBars</text>
<text text-anchor="start" x="708.67" y="-28.5" font-family="Helvetica,sans-Serif" font-size="10.00">&lt; SimpleScaledHistogramType</text>
<text text-anchor="middle" x="777.176" y="-18.5" font-family="Helvetica,sans-Serif" font-size="10.00"> ::Scalar, double &gt;</text>
</a>
</g>
</g>
<!-- Node1&#45;&gt;Node9 -->
<g id="edge11" class="edge"><title>Node1&#45;&gt;Node9</title>
<path fill="none" stroke="orange" stroke-dasharray="5,2" d="M508.625,-123.837C514.351,-120.749 519.856,-117.312 524.88,-113.5 535.502,-105.441 531.693,-96.755 542.88,-89.5 589.925,-58.99 652.229,-45.9197 700.617,-40.3802"/>
<polygon fill="orange" stroke="orange" points="506.865,-120.803 499.485,-128.405 509.995,-127.065 506.865,-120.803"/>
<text text-anchor="start" x="542.88" y="-101.5" font-family="Helvetica,sans-Serif" font-size="10.00"> &lt; SimpleScaledHistogramType</text>
<text text-anchor="middle" x="612.775" y="-91.5" font-family="Helvetica,sans-Serif" font-size="10.00"> ::Scalar, double &gt;</text>
</g>
<!-- Node3 -->
<g id="node4" class="node"><title>Node3</title>
<g id="a_node4"><a xlink:href="class_tomographer_1_1_averaged_histogram.html" target="_top" xlink:title="Combines several histograms (with same parameters) into an averaged histogram. ">
<polygon fill="none" stroke="black" points="890.682,-160.5 890.682,-188.5 1061.59,-188.5 1061.59,-160.5 890.682,-160.5"/>
<text text-anchor="start" x="898.682" y="-176.5" font-family="Helvetica,sans-Serif" font-size="10.00">Tomographer::AveragedHistogram</text>
<text text-anchor="middle" x="976.138" y="-166.5" font-family="Helvetica,sans-Serif" font-size="10.00">&lt; HistogramType_, RealAvgType &gt;</text>
</a>
</g>
</g>
<!-- Node2&#45;&gt;Node3 -->
<g id="edge3" class="edge"><title>Node2&#45;&gt;Node3</title>
<path fill="none" stroke="midnightblue" d="M854.939,-174.5C866.554,-174.5 878.594,-174.5 890.367,-174.5"/>
<polygon fill="midnightblue" stroke="midnightblue" points="854.858,-171 844.858,-174.5 854.858,-178 854.858,-171"/>
</g>
<!-- Node4 -->
<g id="node5" class="node"><title>Node4</title>
<g id="a_node5"><a xlink:href="class_tomographer_1_1_averaged_histogram.html" target="_top" xlink:title="Tomographer::AveragedHistogram\l\&lt; ScaledHistogramType, CountRealType \&gt;">
<polygon fill="none" stroke="black" points="1240.16,-213.5 1240.16,-241.5 1445.72,-241.5 1445.72,-213.5 1240.16,-213.5"/>
<text text-anchor="start" x="1248.16" y="-229.5" font-family="Helvetica,sans-Serif" font-size="10.00">Tomographer::AveragedHistogram</text>
<text text-anchor="middle" x="1342.94" y="-219.5" font-family="Helvetica,sans-Serif" font-size="10.00">&lt; ScaledHistogramType, CountRealType &gt;</text>
</a>
</g>
</g>
<!-- Node3&#45;&gt;Node4 -->
<g id="edge4" class="edge"><title>Node3&#45;&gt;Node4</title>
<path fill="none" stroke="orange" stroke-dasharray="5,2" d="M1051.32,-190.44C1060.81,-192.263 1070.42,-194.002 1079.59,-195.5 1132.35,-204.11 1191.42,-211.51 1240.13,-217.019"/>
<polygon fill="orange" stroke="orange" points="1051.97,-187.001 1041.48,-188.515 1050.62,-193.871 1051.97,-187.001"/>
<text text-anchor="start" x="1094.88" y="-227.5" font-family="Helvetica,sans-Serif" font-size="10.00"> &lt; ScaledHistogramType,</text>
<text text-anchor="middle" x="1150.88" y="-217.5" font-family="Helvetica,sans-Serif" font-size="10.00"> CountRealType &gt;</text>
</g>
<!-- Node5 -->
<g id="node6" class="node"><title>Node5</title>
<g id="a_node6"><a xlink:href="class_tomographer_1_1_averaged_histogram.html" target="_top" xlink:title="Tomographer::AveragedHistogram\l\&lt; SimpleScaledHistogramType,\l double \&gt;">
<polygon fill="none" stroke="black" points="1258.6,-57.5 1258.6,-95.5 1427.28,-95.5 1427.28,-57.5 1258.6,-57.5"/>
<text text-anchor="start" x="1266.6" y="-83.5" font-family="Helvetica,sans-Serif" font-size="10.00">Tomographer::AveragedHistogram</text>
<text text-anchor="start" x="1266.6" y="-73.5" font-family="Helvetica,sans-Serif" font-size="10.00">&lt; SimpleScaledHistogramType,</text>
<text text-anchor="middle" x="1342.94" y="-63.5" font-family="Helvetica,sans-Serif" font-size="10.00"> double &gt;</text>
</a>
</g>
</g>
<!-- Node3&#45;&gt;Node5 -->
<g id="edge5" class="edge"><title>Node3&#45;&gt;Node5</title>
<path fill="none" stroke="orange" stroke-dasharray="5,2" d="M1031.8,-157.477C1047.22,-152.808 1064.03,-147.84 1079.59,-143.5 1141.18,-126.329 1211.37,-108.493 1263.64,-95.5446"/>
<polygon fill="orange" stroke="orange" points="1030.45,-154.231 1021.9,-160.493 1032.49,-160.928 1030.45,-154.231"/>
<text text-anchor="start" x="1079.59" y="-155.5" font-family="Helvetica,sans-Serif" font-size="10.00"> &lt; SimpleScaledHistogramType,</text>
<text text-anchor="middle" x="1150.88" y="-145.5" font-family="Helvetica,sans-Serif" font-size="10.00"> double &gt;</text>
</g>
<!-- Node6 -->
<g id="node7" class="node"><title>Node6</title>
<g id="a_node7"><a xlink:href="class_tomographer_1_1_averaged_histogram.html" target="_top" xlink:title="Tomographer::AveragedHistogram\l\&lt; HistogramType, CountRealType \&gt;">
<polygon fill="none" stroke="black" points="1255.45,-149.5 1255.45,-177.5 1430.43,-177.5 1430.43,-149.5 1255.45,-149.5"/>
<text text-anchor="start" x="1263.45" y="-165.5" font-family="Helvetica,sans-Serif" font-size="10.00">Tomographer::AveragedHistogram</text>
<text text-anchor="middle" x="1342.94" y="-155.5" font-family="Helvetica,sans-Serif" font-size="10.00">&lt; HistogramType, CountRealType &gt;</text>
</a>
</g>
</g>
<!-- Node3&#45;&gt;Node6 -->
<g id="edge6" class="edge"><title>Node3&#45;&gt;Node6</title>
<path fill="none" stroke="orange" stroke-dasharray="5,2" d="M1071.79,-171.646C1128.49,-169.936 1200.04,-167.779 1255.26,-166.114"/>
<polygon fill="orange" stroke="orange" points="1071.64,-168.149 1061.75,-171.949 1071.85,-175.146 1071.64,-168.149"/>
<text text-anchor="start" x="1085.15" y="-183.5" font-family="Helvetica,sans-Serif" font-size="10.00"> &lt; HistogramType, CountReal</text>
<text text-anchor="middle" x="1150.88" y="-173.5" font-family="Helvetica,sans-Serif" font-size="10.00">Type &gt;</text>
</g>
<!-- Node7&#45;&gt;Node4 -->
<g id="edge8" class="edge"><title>Node7&#45;&gt;Node4</title>
<path fill="none" stroke="midnightblue" d="M855.03,-251.476C943.606,-249.972 1093.51,-246.428 1222.16,-238.5 1228,-238.14 1233.99,-237.728 1240.03,-237.278"/>
<polygon fill="midnightblue" stroke="midnightblue" points="854.743,-247.98 844.802,-251.646 854.859,-254.98 854.743,-247.98"/>
</g>
<!-- Node8&#45;&gt;Node6 -->
<g id="edge10" class="edge"><title>Node8&#45;&gt;Node6</title>
<path fill="none" stroke="midnightblue" d="M854.95,-96.3002C944.279,-89.9273 1095.69,-85.357 1222.16,-112.5 1256.41,-119.851 1293.1,-136.996 1316.71,-149.381"/>
<polygon fill="midnightblue" stroke="midnightblue" points="854.618,-92.8152 844.903,-97.0434 855.134,-99.7961 854.618,-92.8152"/>
</g>
<!-- Node9&#45;&gt;Node5 -->
<g id="edge12" class="edge"><title>Node9&#45;&gt;Node5</title>
<path fill="none" stroke="midnightblue" d="M864.025,-42.5912C970.956,-50.1781 1152.44,-63.0545 1258.32,-70.567"/>
<polygon fill="midnightblue" stroke="midnightblue" points="864.137,-39.0904 853.915,-41.8738 863.642,-46.0729 864.137,-39.0904"/>
</g>
<!-- Node10&#45;&gt;Node2 -->
<g id="edge14" class="edge"><title>Node10&#45;&gt;Node2</title>
<path fill="none" stroke="midnightblue" d="M515.21,-225.871C564.003,-234.842 627.835,-240.722 682.67,-226.5 688.536,-224.979 712.72,-211.496 735.022,-198.641"/>
<polygon fill="midnightblue" stroke="midnightblue" points="515.828,-222.425 505.347,-223.978 514.509,-229.3 515.828,-222.425"/>
</g>
<!-- Node11&#45;&gt;Node7 -->
<g id="edge16" class="edge"><title>Node11&#45;&gt;Node7</title>
<path fill="none" stroke="midnightblue" d="M530.789,-261.193C587.523,-259.183 658.614,-256.665 709.653,-254.857"/>
<polygon fill="midnightblue" stroke="midnightblue" points="530.603,-257.697 520.733,-261.549 530.85,-264.693 530.603,-257.697"/>
</g>
<!-- Node12&#45;&gt;Node8 -->
<g id="edge18" class="edge"><title>Node12&#45;&gt;Node8</title>
<path fill="none" stroke="midnightblue" d="M503.365,-63.8176C553.49,-50.6983 623.649,-39.6298 682.67,-57.5 691.872,-60.2862 692.258,-64.8436 700.67,-69.5 706.833,-72.9115 713.403,-76.2627 719.999,-79.4517"/>
<polygon fill="midnightblue" stroke="midnightblue" points="502.352,-60.4658 493.616,-66.4608 504.184,-67.2219 502.352,-60.4658"/>
</g>
<!-- Node13&#45;&gt;Node9 -->
<g id="edge20" class="edge"><title>Node13&#45;&gt;Node9</title>
<path fill="none" stroke="midnightblue" d="M535.145,-24.4037C587.822,-27.0473 651.837,-30.26 700.653,-32.7098"/>
<polygon fill="midnightblue" stroke="midnightblue" points="535.271,-20.9057 525.108,-23.9 534.92,-27.897 535.271,-20.9057"/>
</g>
</g>
</svg>
