<?xml version="1.0" encoding="UTF-8" standalone="no"?>
<!DOCTYPE svg PUBLIC "-//W3C//DTD SVG 1.1//EN"
 "http://www.w3.org/Graphics/SVG/1.1/DTD/svg11.dtd">
<!-- Generated by graphviz version 2.38.0 (20140413.2041)
 -->
<!-- Title: tomographer/tools/cxxutil.h Pages: 1 -->
<!--zoomable 407 -->
<svg id="main" version="1.1" xmlns="http://www.w3.org/2000/svg" xmlns:xlink="http://www.w3.org/1999/xlink" xml:space="preserve" onload="init(evt)">
<style type="text/css"><![CDATA[
.edge:hover path { stroke: red; }
.edge:hover polygon { stroke: red; fill: red; }
]]></style>
<script type="text/javascript"><![CDATA[
var edges = document.getElementsByTagName('g');
if (edges && edges.length) {
  for (var i=0;i<edges.length;i++) {
    if (edges[i].id.substr(0,4)=='edge') {
      edges[i].setAttribute('class','edge');
    }
  }
}
]]></script>
        <defs>
                <circle id="rim" cx="0" cy="0" r="7"/>
                <circle id="rim2" cx="0" cy="0" r="3.5"/>
                <g id="zoomPlus">
                        <use xlink:href="#rim" fill="#404040">
                                <set attributeName="fill" to="#808080" begin="zoomplus.mouseover" end="zoomplus.mouseout"/>
                        </use>
                        <path d="M-4,0h8M0,-4v8" fill="none" stroke="white" stroke-width="1.5" pointer-events="none"/>
                </g>
                <g id="zoomMin">
                        <use xlink:href="#rim" fill="#404040">
                                <set attributeName="fill" to="#808080" begin="zoomminus.mouseover" end="zoomminus.mouseout"/>
                        </use>
                        <path d="M-4,0h8" fill="none" stroke="white" stroke-width="1.5" pointer-events="none"/>
                </g>
                <g id="dirArrow">
                        <path fill="none" stroke="white" stroke-width="1.5" d="M0,-3.0v7 M-2.5,-0.5L0,-3.0L2.5,-0.5"/>
                </g>
               <g id="resetDef">
                       <use xlink:href="#rim2" fill="#404040">
                               <set attributeName="fill" to="#808080" begin="reset.mouseover" end="reset.mouseout"/>
                       </use>
               </g>
        </defs>

<script type="text/javascript">
var viewWidth = 1970;
var viewHeight = 407;
var sectionId = 'dynsection-1';
</script>
<script xlink:href="svgpan.js"/>
<svg id="graph" class="graph">
<g id="viewport">
<title>tomographer/tools/cxxutil.h</title>
<!-- Node13 -->
<g id="node1" class="node"><title>Node13</title>
<polygon fill="#bfbfbf" stroke="black" points="842.793,-380.5 842.793,-398.5 978.294,-398.5 978.294,-380.5 842.793,-380.5"/>
<text text-anchor="middle" x="910.543" y="-386.5" font-family="Helvetica,sans-Serif" font-size="10.00">tomographer/tools/cxxutil.h</text>
</g>
<!-- Node14 -->
<g id="node2" class="node"><title>Node14</title>
<g id="a_node2"><a xlink:href="dmtypes_8h.html" target="_top" xlink:title="C++ types for describing dense density matrices in various parameterizations. ">
<polygon fill="none" stroke="black" points="149.236,-315.5 149.236,-343.5 265.851,-343.5 265.851,-315.5 149.236,-315.5"/>
<text text-anchor="start" x="157.236" y="-331.5" font-family="Helvetica,sans-Serif" font-size="10.00">tomographer/densedm</text>
<text text-anchor="middle" x="207.543" y="-321.5" font-family="Helvetica,sans-Serif" font-size="10.00">/dmtypes.h</text>
</a>
</g>
</g>
<!-- Node13&#45;&gt;Node14 -->
<g id="edge1" class="edge"><title>Node13&#45;&gt;Node14</title>
<path fill="none" stroke="midnightblue" d="M832.391,-386.193C712.242,-381.932 475.11,-370.694 275.543,-344 272.442,-343.585 269.269,-343.115 266.071,-342.606"/>
<polygon fill="midnightblue" stroke="midnightblue" points="832.479,-389.698 842.595,-386.548 832.723,-382.702 832.479,-389.698"/>
</g>
<!-- Node15 -->
<g id="node3" class="node"><title>Node15</title>
<g id="a_node3"><a xlink:href="indepmeasllh_8h.html" target="_top" xlink:title="C++ types and functions for calculating the log&#45;likelihood for independent measurements. ">
<polygon fill="none" stroke="black" points="358.236,-250.5 358.236,-278.5 474.851,-278.5 474.851,-250.5 358.236,-250.5"/>
<text text-anchor="start" x="366.236" y="-266.5" font-family="Helvetica,sans-Serif" font-size="10.00">tomographer/densedm</text>
<text text-anchor="middle" x="416.543" y="-256.5" font-family="Helvetica,sans-Serif" font-size="10.00">/indepmeasllh.h</text>
</a>
</g>
</g>
<!-- Node13&#45;&gt;Node15 -->
<g id="edge6" class="edge"><title>Node13&#45;&gt;Node15</title>
<path fill="none" stroke="midnightblue" d="M832.169,-387.912C723.757,-385.854 534.697,-377.408 475.543,-344 449.12,-329.077 430.917,-296.955 422.278,-278.766"/>
<polygon fill="midnightblue" stroke="midnightblue" points="832.342,-391.415 842.402,-388.092 832.465,-384.416 832.342,-391.415"/>
</g>
<!-- Node16 -->
<g id="node4" class="node"><title>Node16</title>
<g id="a_node4"><a xlink:href="param__rho__a_8h.html" target="_top" xlink:title="Tools for parameterizing density matrices with the A Parameterization. ">
<polygon fill="none" stroke="black" points="14.2359,-250.5 14.2359,-278.5 130.851,-278.5 130.851,-250.5 14.2359,-250.5"/>
<text text-anchor="start" x="22.2359" y="-266.5" font-family="Helvetica,sans-Serif" font-size="10.00">tomographer/densedm</text>
<text text-anchor="middle" x="72.5435" y="-256.5" font-family="Helvetica,sans-Serif" font-size="10.00">/param_rho_a.h</text>
</a>
</g>
</g>
<!-- Node13&#45;&gt;Node16 -->
<g id="edge11" class="edge"><title>Node13&#45;&gt;Node16</title>
<path fill="none" stroke="midnightblue" d="M832.472,-387.417C649.043,-384.385 201.453,-373.976 140.543,-344 111.585,-329.749 89.8777,-297.048 79.439,-278.665"/>
<polygon fill="midnightblue" stroke="midnightblue" points="832.533,-390.918 842.588,-387.581 832.646,-383.919 832.533,-390.918"/>
</g>
<!-- Node19 -->
<g id="node7" class="node"><title>Node19</title>
<g id="a_node7"><a xlink:href="param__herm__x_8h.html" target="_top" xlink:title="Tools for parameterizing hermitian matrices with the X Parameterization. ">
<polygon fill="none" stroke="black" points="284.236,-315.5 284.236,-343.5 400.851,-343.5 400.851,-315.5 284.236,-315.5"/>
<text text-anchor="start" x="292.236" y="-331.5" font-family="Helvetica,sans-Serif" font-size="10.00">tomographer/densedm</text>
<text text-anchor="middle" x="342.543" y="-321.5" font-family="Helvetica,sans-Serif" font-size="10.00">/param_herm_x.h</text>
</a>
</g>
</g>
<!-- Node13&#45;&gt;Node19 -->
<g id="edge7" class="edge"><title>Node13&#45;&gt;Node19</title>
<path fill="none" stroke="midnightblue" d="M832.405,-383.814C734.459,-377.406 561.569,-364.331 414.543,-344 410.134,-343.39 405.585,-342.695 401.016,-341.949"/>
<polygon fill="midnightblue" stroke="midnightblue" points="832.312,-387.315 842.517,-384.469 832.764,-380.33 832.312,-387.315"/>
</g>
<!-- Node20 -->
<g id="node8" class="node"><title>Node20</title>
<g id="a_node8"><a xlink:href="histogram_8h.html" target="_top" xlink:title="Definitions for Histogram Types. ">
<polygon fill="none" stroke="black" points="1447.68,-255.5 1447.68,-273.5 1575.41,-273.5 1575.41,-255.5 1447.68,-255.5"/>
<text text-anchor="middle" x="1511.54" y="-261.5" font-family="Helvetica,sans-Serif" font-size="10.00">tomographer/histogram.h</text>
</a>
</g>
</g>
<!-- Node13&#45;&gt;Node20 -->
<g id="edge12" class="edge"><title>Node13&#45;&gt;Node20</title>
<path fill="none" stroke="midnightblue" d="M988.591,-386.406C1132.87,-381.937 1430.26,-369.705 1469.54,-344 1494.89,-327.411 1506.05,-290.209 1509.88,-273.681"/>
<polygon fill="midnightblue" stroke="midnightblue" points="988.362,-382.911 978.473,-386.714 988.575,-389.908 988.362,-382.911"/>
</g>
<!-- Node21 -->
<g id="node9" class="node"><title>Node21</title>
<g id="a_node9"><a xlink:href="mhrwstatscollectors_8h.html" target="_top" xlink:title="Definitions for MHRWStatsCollector Interface&#39;s. ">
<polygon fill="none" stroke="black" points="1281.74,-130.5 1281.74,-148.5 1453.35,-148.5 1453.35,-130.5 1281.74,-130.5"/>
<text text-anchor="middle" x="1367.54" y="-136.5" font-family="Helvetica,sans-Serif" font-size="10.00">tomographer/mhrwstatscollectors.h</text>
</a>
</g>
</g>
<!-- Node13&#45;&gt;Node21 -->
<g id="edge30" class="edge"><title>Node13&#45;&gt;Node21</title>
<path fill="none" stroke="midnightblue" d="M988.593,-386.694C1186.94,-381.789 1699.87,-367.025 1773.54,-344 1825.93,-327.628 1851.83,-326.947 1878.54,-279 1884.82,-267.74 1886.25,-260.334 1878.54,-250 1828.56,-182.937 1585.51,-155.675 1453.42,-145.67"/>
<polygon fill="midnightblue" stroke="midnightblue" points="988.448,-383.196 978.537,-386.94 988.62,-390.194 988.448,-383.196"/>
</g>
<!-- Node22 -->
<g id="node10" class="node"><title>Node22</title>
<g id="a_node10"><a xlink:href="mhrw__valuehist__tasks_8h.html" target="_top" xlink:title="Tasks for collecting a histogram of values during a Metropolis&#45;Hastings random walk. ">
<polygon fill="none" stroke="black" points="1295.07,-0.5 1295.07,-28.5 1440.02,-28.5 1440.02,-0.5 1295.07,-0.5"/>
<text text-anchor="start" x="1303.07" y="-16.5" font-family="Helvetica,sans-Serif" font-size="10.00">tomographer/mhrw_valuehist</text>
<text text-anchor="middle" x="1367.54" y="-6.5" font-family="Helvetica,sans-Serif" font-size="10.00">_tasks.h</text>
</a>
</g>
</g>
<!-- Node13&#45;&gt;Node22 -->
<g id="edge29" class="edge"><title>Node13&#45;&gt;Node22</title>
<path fill="none" stroke="midnightblue" d="M988.756,-386.787C1195.41,-381.964 1745.54,-367.103 1824.54,-344 1891.9,-324.304 1961.54,-335.676 1961.54,-265.5 1961.54,-265.5 1961.54,-265.5 1961.54,-138.5 1961.54,-33.1215 1598.54,-17.3327 1440.08,-15.4606"/>
<polygon fill="midnightblue" stroke="midnightblue" points="988.504,-383.292 978.587,-387.022 988.666,-390.29 988.504,-383.292"/>
</g>
<!-- Node24 -->
<g id="node12" class="node"><title>Node24</title>
<g id="a_node12"><a xlink:href="check__derivatives_8h.html" target="_top" xlink:title="Tools to check numerical derivatives. ">
<polygon fill="none" stroke="black" points="631.127,-315.5 631.127,-343.5 749.96,-343.5 749.96,-315.5 631.127,-315.5"/>
<text text-anchor="start" x="639.127" y="-331.5" font-family="Helvetica,sans-Serif" font-size="10.00">tomographer/mathtools</text>
<text text-anchor="middle" x="690.543" y="-321.5" font-family="Helvetica,sans-Serif" font-size="10.00">/check_derivatives.h</text>
</a>
</g>
</g>
<!-- Node13&#45;&gt;Node24 -->
<g id="edge17" class="edge"><title>Node13&#45;&gt;Node24</title>
<path fill="none" stroke="midnightblue" d="M870.09,-377.835C833.376,-368.156 779.139,-353.857 739.89,-343.51"/>
<polygon fill="midnightblue" stroke="midnightblue" points="869.392,-381.27 879.953,-380.435 871.176,-374.502 869.392,-381.27"/>
</g>
<!-- Node25 -->
<g id="node13" class="node"><title>Node25</title>
<g id="a_node13"><a xlink:href="pos__semidef__util_8h.html" target="_top" xlink:title="Tools for dealing with positive semidefinite matrices. ">
<polygon fill="none" stroke="black" points="494.127,-315.5 494.127,-343.5 612.96,-343.5 612.96,-315.5 494.127,-315.5"/>
<text text-anchor="start" x="502.127" y="-331.5" font-family="Helvetica,sans-Serif" font-size="10.00">tomographer/mathtools</text>
<text text-anchor="middle" x="553.543" y="-321.5" font-family="Helvetica,sans-Serif" font-size="10.00">/pos_semidef_util.h</text>
</a>
</g>
</g>
<!-- Node13&#45;&gt;Node25 -->
<g id="edge18" class="edge"><title>Node13&#45;&gt;Node25</title>
<path fill="none" stroke="midnightblue" d="M843.937,-378.978C785.485,-370.439 698.235,-357.247 622.543,-344 619.417,-343.453 616.215,-342.878 612.983,-342.286"/>
<polygon fill="midnightblue" stroke="midnightblue" points="843.745,-382.487 854.145,-380.465 844.754,-375.56 843.745,-382.487"/>
</g>
<!-- Node26 -->
<g id="node14" class="node"><title>Node26</title>
<g id="a_node14"><a xlink:href="ezmatio_8h.html" target="_top" xlink:title="Utilities for reading MATLAB &quot;*.mat&quot; data files. See Tomographer::MAT. ">
<polygon fill="none" stroke="black" points="493.177,-255.5 493.177,-273.5 635.91,-273.5 635.91,-255.5 493.177,-255.5"/>
<text text-anchor="middle" x="564.543" y="-261.5" font-family="Helvetica,sans-Serif" font-size="10.00">tomographer/tools/ezmatio.h</text>
</a>
</g>
</g>
<!-- Node13&#45;&gt;Node26 -->
<g id="edge33" class="edge"><title>Node13&#45;&gt;Node26</title>
<path fill="none" stroke="midnightblue" d="M832.076,-385.858C715.623,-381.119 508.257,-369.216 485.543,-344 461.345,-317.135 514.652,-287.632 545.146,-273.679"/>
<polygon fill="midnightblue" stroke="midnightblue" points="832.232,-389.367 842.364,-386.268 832.511,-382.373 832.232,-389.367"/>
</g>
<!-- Node27 -->
<g id="node15" class="node"><title>Node27</title>
<g id="a_node15"><a xlink:href="random__unitary_8h.html" target="_top" xlink:title="Produce a random unitary according to the Haar measure. ">
<polygon fill="none" stroke="black" points="245.127,-185.5 245.127,-213.5 363.96,-213.5 363.96,-185.5 245.127,-185.5"/>
<text text-anchor="start" x="253.127" y="-201.5" font-family="Helvetica,sans-Serif" font-size="10.00">tomographer/mathtools</text>
<text text-anchor="middle" x="304.543" y="-191.5" font-family="Helvetica,sans-Serif" font-size="10.00">/random_unitary.h</text>
</a>
</g>
</g>
<!-- Node13&#45;&gt;Node27 -->
<g id="edge20" class="edge"><title>Node13&#45;&gt;Node27</title>
<path fill="none" stroke="midnightblue" d="M832.475,-386.55C643.221,-381.488 170.494,-366.722 102.543,-344 53.3267,-327.543 29.9764,-324.784 5.54349,-279 -0.524734,-267.629 -2.7929,-259.83 5.54349,-250 35.6189,-214.536 166.696,-204.447 244.968,-201.598"/>
<polygon fill="midnightblue" stroke="midnightblue" points="832.54,-390.053 842.629,-386.82 832.726,-383.055 832.54,-390.053"/>
</g>
<!-- Node28 -->
<g id="node16" class="node"><title>Node28</title>
<g id="a_node16"><a xlink:href="solveclyap_8h.html" target="_top" xlink:title="Routine for solving a complex Lyapunov equation. See Tomographer::SolveCLyap::solve(). ">
<polygon fill="none" stroke="black" points="983.127,-315.5 983.127,-343.5 1101.96,-343.5 1101.96,-315.5 983.127,-315.5"/>
<text text-anchor="start" x="991.127" y="-331.5" font-family="Helvetica,sans-Serif" font-size="10.00">tomographer/mathtools</text>
<text text-anchor="middle" x="1042.54" y="-321.5" font-family="Helvetica,sans-Serif" font-size="10.00">/solveclyap.h</text>
</a>
</g>
</g>
<!-- Node13&#45;&gt;Node28 -->
<g id="edge21" class="edge"><title>Node13&#45;&gt;Node28</title>
<path fill="none" stroke="midnightblue" d="M938.285,-376.311C960.158,-366.7 990.594,-353.326 1012.94,-343.51"/>
<polygon fill="midnightblue" stroke="midnightblue" points="936.645,-373.208 928.898,-380.435 939.461,-379.617 936.645,-373.208"/>
</g>
<!-- Node29 -->
<g id="node17" class="node"><title>Node29</title>
<g id="a_node17"><a xlink:href="sphcoords_8h.html" target="_top" xlink:title="spherical coordinates conversion routines, with jacobian etc. See Hyperspherical Coordinates. ">
<polygon fill="none" stroke="black" points="1120.13,-315.5 1120.13,-343.5 1238.96,-343.5 1238.96,-315.5 1120.13,-315.5"/>
<text text-anchor="start" x="1128.13" y="-331.5" font-family="Helvetica,sans-Serif" font-size="10.00">tomographer/mathtools</text>
<text text-anchor="middle" x="1179.54" y="-321.5" font-family="Helvetica,sans-Serif" font-size="10.00">/sphcoords.h</text>
</a>
</g>
</g>
<!-- Node13&#45;&gt;Node29 -->
<g id="edge22" class="edge"><title>Node13&#45;&gt;Node29</title>
<path fill="none" stroke="midnightblue" d="M957.495,-378.377C1002.67,-368.637 1071.14,-353.873 1120.1,-343.317"/>
<polygon fill="midnightblue" stroke="midnightblue" points="956.702,-374.967 947.664,-380.496 958.177,-381.81 956.702,-374.967"/>
</g>
<!-- Node30 -->
<g id="node18" class="node"><title>Node30</title>
<g id="a_node18"><a xlink:href="mhrw_8h.html" target="_top" xlink:title="Routines for performing a Metropolis&#45;Hastings random walk. ">
<polygon fill="none" stroke="black" points="685.687,-130.5 685.687,-148.5 793.4,-148.5 793.4,-130.5 685.687,-130.5"/>
<text text-anchor="middle" x="739.543" y="-136.5" font-family="Helvetica,sans-Serif" font-size="10.00">tomographer/mhrw.h</text>
</a>
</g>
</g>
<!-- Node13&#45;&gt;Node30 -->
<g id="edge23" class="edge"><title>Node13&#45;&gt;Node30</title>
<path fill="none" stroke="midnightblue" d="M874.085,-377.19C851.109,-369.362 821.228,-357.873 796.543,-344 778.023,-333.591 776.82,-325.833 758.543,-315 724.654,-294.913 710.719,-300.246 677.543,-279 661.101,-268.47 661.987,-258.774 644.543,-250 576.325,-215.687 524.55,-273.384 476.543,-214 468.441,-203.977 468.225,-194.845 476.543,-185 502.771,-153.962 616.642,-144.566 685.662,-141.726"/>
<polygon fill="midnightblue" stroke="midnightblue" points="873.199,-380.583 883.792,-380.42 875.409,-373.942 873.199,-380.583"/>
</g>
<!-- Node31 -->
<g id="node19" class="node"><title>Node31</title>
<g id="a_node19"><a xlink:href="mhrw__bin__err_8h.html" target="_top" xlink:title="Binning Analysis in a Metropolis&#45;Hastings random walk. ">
<polygon fill="none" stroke="black" points="925.13,-185.5 925.13,-213.5 1043.96,-213.5 1043.96,-185.5 925.13,-185.5"/>
<text text-anchor="start" x="933.13" y="-201.5" font-family="Helvetica,sans-Serif" font-size="10.00">tomographer/mhrw_bin</text>
<text text-anchor="middle" x="984.543" y="-191.5" font-family="Helvetica,sans-Serif" font-size="10.00">_err.h</text>
</a>
</g>
</g>
<!-- Node13&#45;&gt;Node31 -->
<g id="edge26" class="edge"><title>Node13&#45;&gt;Node31</title>
<path fill="none" stroke="midnightblue" d="M921.463,-371.703C926.473,-363.551 932.24,-353.488 936.543,-344 957.593,-297.587 974.305,-239.109 981.165,-213.507"/>
<polygon fill="midnightblue" stroke="midnightblue" points="918.448,-369.923 916.064,-380.246 924.365,-373.663 918.448,-369.923"/>
</g>
<!-- Node32 -->
<g id="node20" class="node"><title>Node32</title>
<g id="a_node20"><a xlink:href="multiprocomp_8h.html" target="_top" xlink:title="Multiprocessing with OpenMP parallel multithreading. ">
<polygon fill="none" stroke="black" points="1457.63,-190.5 1457.63,-208.5 1601.46,-208.5 1601.46,-190.5 1457.63,-190.5"/>
<text text-anchor="middle" x="1529.54" y="-196.5" font-family="Helvetica,sans-Serif" font-size="10.00">tomographer/multiprocomp.h</text>
</a>
</g>
</g>
<!-- Node13&#45;&gt;Node32 -->
<g id="edge31" class="edge"><title>Node13&#45;&gt;Node32</title>
<path fill="none" stroke="midnightblue" d="M988.497,-387.108C1158.89,-383.572 1559.88,-372.419 1692.54,-344 1771.64,-327.057 1816.68,-345.633 1862.54,-279 1869.85,-268.383 1870.96,-259.761 1862.54,-250 1829.57,-211.768 1689.47,-202.594 1601.83,-200.67"/>
<polygon fill="midnightblue" stroke="midnightblue" points="988.274,-383.612 978.347,-387.316 988.417,-390.611 988.274,-383.612"/>
</g>
<!-- Node33 -->
<g id="node21" class="node"><title>Node33</title>
<g id="a_node21"><a xlink:href="multiprocthreads_8h.html" target="_top" xlink:title="Multiprocessing with native C++11 threads. ">
<polygon fill="none" stroke="black" points="1281.67,-190.5 1281.67,-208.5 1439.41,-208.5 1439.41,-190.5 1281.67,-190.5"/>
<text text-anchor="middle" x="1360.54" y="-196.5" font-family="Helvetica,sans-Serif" font-size="10.00">tomographer/multiprocthreads.h</text>
</a>
</g>
</g>
<!-- Node13&#45;&gt;Node33 -->
<g id="edge32" class="edge"><title>Node13&#45;&gt;Node33</title>
<path fill="none" stroke="midnightblue" d="M988.612,-387.621C1112.04,-385.242 1359.5,-376.448 1566.54,-344 1685.07,-325.424 1754.62,-373.498 1828.54,-279 1903.23,-183.525 2171.77,-303.657 1448.54,-214 1435.81,-212.422 1422.09,-210.448 1409.35,-208.501"/>
<polygon fill="midnightblue" stroke="midnightblue" points="988.435,-384.124 978.501,-387.807 988.563,-391.123 988.435,-384.124"/>
</g>
<!-- Node34 -->
<g id="node22" class="node"><title>Node34</title>
<g id="a_node22"><a xlink:href="fmt_8h.html" target="_top" xlink:title="Utilities for formatting strings. ">
<polygon fill="none" stroke="black" points="805.741,-320.5 805.741,-338.5 927.346,-338.5 927.346,-320.5 805.741,-320.5"/>
<text text-anchor="middle" x="866.543" y="-326.5" font-family="Helvetica,sans-Serif" font-size="10.00">tomographer/tools/fmt.h</text>
</a>
</g>
</g>
<!-- Node13&#45;&gt;Node34 -->
<g id="edge34" class="edge"><title>Node13&#45;&gt;Node34</title>
<path fill="none" stroke="midnightblue" d="M898.175,-372.197C889.948,-361.351 879.481,-347.554 872.894,-338.872"/>
<polygon fill="midnightblue" stroke="midnightblue" points="895.593,-374.584 904.425,-380.435 901.17,-370.353 895.593,-374.584"/>
</g>
<!-- Node40 -->
<g id="node28" class="node"><title>Node40</title>
<g id="a_node28"><a xlink:href="needownoperatornew_8h.html" target="_top" xlink:title="Managing the need for specific overrides to operator new() for some types (especially Eigen types) ...">
<polygon fill="none" stroke="black" points="1256.87,-320.5 1256.87,-338.5 1460.22,-338.5 1460.22,-320.5 1256.87,-320.5"/>
<text text-anchor="middle" x="1358.54" y="-326.5" font-family="Helvetica,sans-Serif" font-size="10.00">tomographer/tools/needownoperatornew.h</text>
</a>
</g>
</g>
<!-- Node13&#45;&gt;Node40 -->
<g id="edge56" class="edge"><title>Node13&#45;&gt;Node40</title>
<path fill="none" stroke="midnightblue" d="M982.417,-379.195C1069.4,-367.934 1214.4,-349.162 1296.64,-338.515"/>
<polygon fill="midnightblue" stroke="midnightblue" points="981.833,-375.741 972.366,-380.496 982.732,-382.683 981.833,-375.741"/>
</g>
<!-- Node41 -->
<g id="node29" class="node"><title>Node41</title>
<g id="a_node29"><a xlink:href="valuecalculator_8h.html" target="_top" xlink:title="Some elementary definitions which relate to the ValueCalculator Interface. ">
<polygon fill="none" stroke="black" points="1669.56,-255.5 1669.56,-273.5 1819.53,-273.5 1819.53,-255.5 1669.56,-255.5"/>
<text text-anchor="middle" x="1744.54" y="-261.5" font-family="Helvetica,sans-Serif" font-size="10.00">tomographer/valuecalculator.h</text>
</a>
</g>
</g>
<!-- Node13&#45;&gt;Node41 -->
<g id="edge69" class="edge"><title>Node13&#45;&gt;Node41</title>
<path fill="none" stroke="midnightblue" d="M988.735,-388.267C1101.8,-386.646 1317.08,-378.733 1496.54,-344 1583.67,-327.138 1683.16,-289.912 1724.7,-273.518"/>
<polygon fill="midnightblue" stroke="midnightblue" points="988.402,-384.771 978.448,-388.401 988.493,-391.77 988.402,-384.771"/>
</g>
<!-- Node14&#45;&gt;Node15 -->
<g id="edge2" class="edge"><title>Node14&#45;&gt;Node15</title>
<path fill="none" stroke="midnightblue" d="M260.854,-312.43C295.712,-301.923 340.661,-288.374 373.294,-278.537"/>
<polygon fill="midnightblue" stroke="midnightblue" points="259.413,-309.209 250.848,-315.446 261.433,-315.911 259.413,-309.209"/>
</g>
<!-- Node14&#45;&gt;Node16 -->
<g id="edge3" class="edge"><title>Node14&#45;&gt;Node16</title>
<path fill="none" stroke="midnightblue" d="M170.471,-311.199C148.361,-300.882 120.744,-287.994 100.48,-278.537"/>
<polygon fill="midnightblue" stroke="midnightblue" points="169.029,-314.389 179.571,-315.446 171.99,-308.046 169.029,-314.389"/>
</g>
<!-- Node17 -->
<g id="node5" class="node"><title>Node17</title>
<g id="a_node5"><a xlink:href="tspacefigofmerit_8h.html" target="_top" xlink:title="Implement some standard figures of merit for when integrating in T space densely represented density ...">
<polygon fill="none" stroke="black" points="186.236,-250.5 186.236,-278.5 302.851,-278.5 302.851,-250.5 186.236,-250.5"/>
<text text-anchor="start" x="194.236" y="-266.5" font-family="Helvetica,sans-Serif" font-size="10.00">tomographer/densedm</text>
<text text-anchor="middle" x="244.543" y="-256.5" font-family="Helvetica,sans-Serif" font-size="10.00">/tspacefigofmerit.h</text>
</a>
</g>
</g>
<!-- Node14&#45;&gt;Node17 -->
<g id="edge4" class="edge"><title>Node14&#45;&gt;Node17</title>
<path fill="none" stroke="midnightblue" d="M220.383,-306.638C225.885,-297.269 232.126,-286.643 236.887,-278.537"/>
<polygon fill="midnightblue" stroke="midnightblue" points="217.256,-305.051 215.21,-315.446 223.292,-308.596 217.256,-305.051"/>
</g>
<!-- Node18 -->
<g id="node6" class="node"><title>Node18</title>
<g id="a_node6"><a xlink:href="tspacellhwalker_8h.html" target="_top" xlink:title="Definitions for a Metropolis&#45;Hastings random walk on a quantum state space with dense matrix type...">
<polygon fill="none" stroke="black" points="409.236,-65.5 409.236,-93.5 525.851,-93.5 525.851,-65.5 409.236,-65.5"/>
<text text-anchor="start" x="417.236" y="-81.5" font-family="Helvetica,sans-Serif" font-size="10.00">tomographer/densedm</text>
<text text-anchor="middle" x="467.543" y="-71.5" font-family="Helvetica,sans-Serif" font-size="10.00">/tspacellhwalker.h</text>
</a>
</g>
</g>
<!-- Node14&#45;&gt;Node18 -->
<g id="edge5" class="edge"><title>Node14&#45;&gt;Node18</title>
<path fill="none" stroke="midnightblue" d="M190.926,-306.87C185.556,-298.608 180.284,-288.808 177.543,-279 174.075,-266.586 173.435,-262.217 177.543,-250 198.879,-186.557 212.662,-166.843 268.543,-130 310.601,-102.271 366.963,-90.0726 408.967,-84.7078"/>
<polygon fill="midnightblue" stroke="midnightblue" points="188.1,-308.936 196.676,-315.157 193.851,-304.946 188.1,-308.936"/>
</g>
<!-- Node19&#45;&gt;Node15 -->
<g id="edge8" class="edge"><title>Node19&#45;&gt;Node15</title>
<path fill="none" stroke="midnightblue" d="M365.505,-308.951C377.126,-299.058 390.916,-287.318 401.23,-278.537"/>
<polygon fill="midnightblue" stroke="midnightblue" points="363.222,-306.299 357.876,-315.446 367.76,-311.629 363.222,-306.299"/>
</g>
<!-- Node19&#45;&gt;Node17 -->
<g id="edge9" class="edge"><title>Node19&#45;&gt;Node17</title>
<path fill="none" stroke="midnightblue" d="M313.459,-309.803C297.802,-299.738 278.877,-287.572 264.823,-278.537"/>
<polygon fill="midnightblue" stroke="midnightblue" points="311.933,-312.983 322.238,-315.446 315.719,-307.095 311.933,-312.983"/>
</g>
<!-- Node19&#45;&gt;Node18 -->
<g id="edge10" class="edge"><title>Node19&#45;&gt;Node18</title>
<path fill="none" stroke="midnightblue" d="M338.199,-305.472C333.943,-288.38 325.931,-265.453 311.543,-250 286.349,-222.938 256.235,-245.295 236.543,-214 229.679,-203.091 229.556,-195.83 236.543,-185 274.367,-126.376 353.905,-100.286 409.004,-88.9171"/>
<polygon fill="midnightblue" stroke="midnightblue" points="334.786,-306.248 340.387,-315.241 341.617,-304.718 334.786,-306.248"/>
</g>
<!-- Node20&#45;&gt;Node21 -->
<g id="edge13" class="edge"><title>Node20&#45;&gt;Node21</title>
<path fill="none" stroke="midnightblue" d="M1562.08,-253.104C1610.31,-240.935 1671.77,-218.138 1643.54,-185 1619.43,-156.687 1525.28,-146.325 1453.59,-142.568"/>
<polygon fill="midnightblue" stroke="midnightblue" points="1561.23,-249.709 1552.33,-255.467 1562.88,-256.512 1561.23,-249.709"/>
</g>
<!-- Node21&#45;&gt;Node22 -->
<g id="edge14" class="edge"><title>Node21&#45;&gt;Node22</title>
<path fill="none" stroke="midnightblue" d="M1367.54,-120.15C1367.54,-95.1249 1367.54,-50.887 1367.54,-28.8093"/>
<polygon fill="midnightblue" stroke="midnightblue" points="1364.04,-120.43 1367.54,-130.43 1371.04,-120.43 1364.04,-120.43"/>
</g>
<!-- Node23 -->
<g id="node11" class="node"><title>Node23</title>
<g id="a_node11"><a xlink:href="mhrwtasks_8h.html" target="_top" xlink:title="Multiprocessing tasks interface (see Multiprocessing Task Interfaces) for parallel Metropolis&#45;Hasting...">
<polygon fill="none" stroke="black" points="1197.74,-70.5 1197.74,-88.5 1329.34,-88.5 1329.34,-70.5 1197.74,-70.5"/>
<text text-anchor="middle" x="1263.54" y="-76.5" font-family="Helvetica,sans-Serif" font-size="10.00">tomographer/mhrwtasks.h</text>
</a>
</g>
</g>
<!-- Node21&#45;&gt;Node23 -->
<g id="edge15" class="edge"><title>Node21&#45;&gt;Node23</title>
<path fill="none" stroke="midnightblue" d="M1344.19,-125.476C1323.98,-114.203 1295.37,-98.2486 1278.22,-88.6831"/>
<polygon fill="midnightblue" stroke="midnightblue" points="1342.64,-128.621 1353.08,-130.435 1346.05,-122.508 1342.64,-128.621"/>
</g>
<!-- Node23&#45;&gt;Node22 -->
<g id="edge16" class="edge"><title>Node23&#45;&gt;Node22</title>
<path fill="none" stroke="midnightblue" d="M1285.73,-65.0609C1303.52,-54.281 1328.35,-39.2393 1345.98,-28.5608"/>
<polygon fill="midnightblue" stroke="midnightblue" points="1283.88,-62.089 1277.14,-70.2639 1287.51,-68.0762 1283.88,-62.089"/>
</g>
<!-- Node25&#45;&gt;Node26 -->
<g id="edge19" class="edge"><title>Node25&#45;&gt;Node26</title>
<path fill="none" stroke="midnightblue" d="M557.564,-305.472C559.501,-294.378 561.703,-281.768 563.106,-273.73"/>
<polygon fill="midnightblue" stroke="midnightblue" points="554.095,-304.993 555.823,-315.446 560.991,-306.197 554.095,-304.993"/>
</g>
<!-- Node30&#45;&gt;Node18 -->
<g id="edge24" class="edge"><title>Node30&#45;&gt;Node18</title>
<path fill="none" stroke="midnightblue" d="M691.95,-128.351C645.715,-118.493 575.423,-103.504 525.852,-92.9335"/>
<polygon fill="midnightblue" stroke="midnightblue" points="691.499,-131.834 702.009,-130.496 692.958,-124.988 691.499,-131.834"/>
</g>
<!-- Node30&#45;&gt;Node23 -->
<g id="edge25" class="edge"><title>Node30&#45;&gt;Node23</title>
<path fill="none" stroke="midnightblue" d="M803.626,-131.407C903.724,-120.327 1096.19,-99.0242 1197.49,-87.8118"/>
<polygon fill="midnightblue" stroke="midnightblue" points="803.201,-127.932 793.647,-132.511 803.971,-134.89 803.201,-127.932"/>
</g>
<!-- Node31&#45;&gt;Node21 -->
<g id="edge28" class="edge"><title>Node31&#45;&gt;Node21</title>
<path fill="none" stroke="midnightblue" d="M1054.25,-187.944C1129.19,-176.595 1246.68,-158.804 1314.47,-148.538"/>
<polygon fill="midnightblue" stroke="midnightblue" points="1053.33,-184.543 1043.97,-189.501 1054.38,-191.464 1053.33,-184.543"/>
</g>
<!-- Node31&#45;&gt;Node30 -->
<g id="edge27" class="edge"><title>Node31&#45;&gt;Node30</title>
<path fill="none" stroke="midnightblue" d="M919.782,-183.169C872.851,-172.058 811.259,-157.478 773.585,-148.559"/>
<polygon fill="midnightblue" stroke="midnightblue" points="919.023,-186.586 929.561,-185.484 920.636,-179.774 919.023,-186.586"/>
</g>
<!-- Node34&#45;&gt;Node15 -->
<g id="edge35" class="edge"><title>Node34&#45;&gt;Node15</title>
<path fill="none" stroke="midnightblue" d="M795.447,-319.55C693.426,-306.666 514.441,-283.899 484.543,-279 481.455,-278.494 478.293,-277.951 475.104,-277.385"/>
<polygon fill="midnightblue" stroke="midnightblue" points="795.014,-323.023 805.374,-320.803 795.891,-316.078 795.014,-323.023"/>
</g>
<!-- Node34&#45;&gt;Node20 -->
<g id="edge36" class="edge"><title>Node34&#45;&gt;Node20</title>
<path fill="none" stroke="midnightblue" d="M937.797,-319.261C950.046,-317.768 962.656,-316.291 974.543,-315 1145.11,-296.483 1346.64,-279.112 1447.41,-270.734"/>
<polygon fill="midnightblue" stroke="midnightblue" points="937.114,-315.819 927.617,-320.515 937.97,-322.766 937.114,-315.819"/>
</g>
<!-- Node34&#45;&gt;Node23 -->
<g id="edge38" class="edge"><title>Node34&#45;&gt;Node23</title>
<path fill="none" stroke="midnightblue" d="M870.776,-309.994C879.044,-275.354 898.145,-202.628 916.543,-185 993.432,-111.331 1120.33,-89.3954 1197.5,-82.9884"/>
<polygon fill="midnightblue" stroke="midnightblue" points="867.271,-309.612 868.404,-320.146 874.088,-311.205 867.271,-309.612"/>
</g>
<!-- Node34&#45;&gt;Node26 -->
<g id="edge44" class="edge"><title>Node34&#45;&gt;Node26</title>
<path fill="none" stroke="midnightblue" d="M818.052,-318.384C758.366,-305.933 658.199,-285.037 603.346,-273.595"/>
<polygon fill="midnightblue" stroke="midnightblue" points="817.484,-321.841 827.988,-320.457 818.914,-314.989 817.484,-321.841"/>
</g>
<!-- Node34&#45;&gt;Node30 -->
<g id="edge37" class="edge"><title>Node34&#45;&gt;Node30</title>
<path fill="none" stroke="midnightblue" d="M825.417,-317.744C795.505,-309.167 754.477,-295.817 720.543,-279 699.89,-268.764 698.865,-258.76 677.543,-250 597.641,-217.172 541.68,-280.499 486.543,-214 478.317,-204.078 478.257,-194.872 486.543,-185 511.418,-155.368 618.785,-145.461 685.403,-142.154"/>
<polygon fill="midnightblue" stroke="midnightblue" points="824.534,-321.132 835.108,-320.468 826.428,-314.393 824.534,-321.132"/>
</g>
<!-- Node35 -->
<g id="node23" class="node"><title>Node35</title>
<g id="a_node23"><a xlink:href="multiproc_8h.html" target="_top" xlink:title="Some common definitions for multiprocessing interfaces. ">
<polygon fill="none" stroke="black" points="1191.35,-255.5 1191.35,-273.5 1315.74,-273.5 1315.74,-255.5 1191.35,-255.5"/>
<text text-anchor="middle" x="1253.54" y="-261.5" font-family="Helvetica,sans-Serif" font-size="10.00">tomographer/multiproc.h</text>
</a>
</g>
</g>
<!-- Node34&#45;&gt;Node35 -->
<g id="edge39" class="edge"><title>Node34&#45;&gt;Node35</title>
<path fill="none" stroke="midnightblue" d="M925.876,-318.841C1002.1,-306.432 1133.04,-285.117 1204.13,-273.545"/>
<polygon fill="midnightblue" stroke="midnightblue" points="925.258,-315.396 915.95,-320.457 926.383,-322.305 925.258,-315.396"/>
</g>
<!-- Node37 -->
<g id="node25" class="node"><title>Node37</title>
<g id="a_node25"><a xlink:href="loggers_8h.html" target="_top" xlink:title="Utilities for logging messages. ">
<polygon fill="none" stroke="black" points="729.285,-255.5 729.285,-273.5 869.802,-273.5 869.802,-255.5 729.285,-255.5"/>
<text text-anchor="middle" x="799.543" y="-261.5" font-family="Helvetica,sans-Serif" font-size="10.00">tomographer/tools/loggers.h</text>
</a>
</g>
</g>
<!-- Node34&#45;&gt;Node37 -->
<g id="edge45" class="edge"><title>Node34&#45;&gt;Node37</title>
<path fill="none" stroke="midnightblue" d="M850.258,-313.187C836.957,-300.68 818.685,-283.499 808.093,-273.539"/>
<polygon fill="midnightblue" stroke="midnightblue" points="848.102,-315.963 857.784,-320.264 852.897,-310.864 848.102,-315.963"/>
</g>
<!-- Node35&#45;&gt;Node23 -->
<g id="edge40" class="edge"><title>Node35&#45;&gt;Node23</title>
<path fill="none" stroke="midnightblue" d="M1254.57,-244.74C1256.71,-205.602 1261.57,-116.588 1263.09,-88.8876"/>
<polygon fill="midnightblue" stroke="midnightblue" points="1251.05,-244.985 1254,-255.161 1258.04,-245.367 1251.05,-244.985"/>
</g>
<!-- Node35&#45;&gt;Node32 -->
<g id="edge41" class="edge"><title>Node35&#45;&gt;Node32</title>
<path fill="none" stroke="midnightblue" d="M1298.54,-253.23C1353.16,-240.761 1444.16,-219.99 1494.08,-208.595"/>
<polygon fill="midnightblue" stroke="midnightblue" points="1297.75,-249.819 1288.78,-255.457 1299.31,-256.644 1297.75,-249.819"/>
</g>
<!-- Node35&#45;&gt;Node33 -->
<g id="edge42" class="edge"><title>Node35&#45;&gt;Node33</title>
<path fill="none" stroke="midnightblue" d="M1276.31,-250.094C1297.73,-237.483 1329.1,-219.015 1346.89,-208.539"/>
<polygon fill="midnightblue" stroke="midnightblue" points="1274.37,-247.174 1267.53,-255.264 1277.92,-253.206 1274.37,-247.174"/>
</g>
<!-- Node36 -->
<g id="node24" class="node"><title>Node36</title>
<g id="a_node24"><a xlink:href="signal__status__report_8h.html" target="_top" xlink:title="Basic common code for intercepting a signal to print status information of a task manager...">
<polygon fill="none" stroke="black" points="1099.79,-185.5 1099.79,-213.5 1225.3,-213.5 1225.3,-185.5 1099.79,-185.5"/>
<text text-anchor="start" x="1107.79" y="-201.5" font-family="Helvetica,sans-Serif" font-size="10.00">tomographer/tools/signal</text>
<text text-anchor="middle" x="1162.54" y="-191.5" font-family="Helvetica,sans-Serif" font-size="10.00">_status_report.h</text>
</a>
</g>
</g>
<!-- Node35&#45;&gt;Node36 -->
<g id="edge43" class="edge"><title>Node35&#45;&gt;Node36</title>
<path fill="none" stroke="midnightblue" d="M1233.27,-249.463C1217.77,-238.73 1196.55,-224.043 1181.41,-213.561"/>
<polygon fill="midnightblue" stroke="midnightblue" points="1231.43,-252.449 1241.65,-255.264 1235.42,-246.694 1231.43,-252.449"/>
</g>
<!-- Node37&#45;&gt;Node18 -->
<g id="edge46" class="edge"><title>Node37&#45;&gt;Node18</title>
<path fill="none" stroke="midnightblue" d="M718.783,-255.708C631.52,-246.517 502.695,-230.403 486.543,-214 454.35,-181.304 460.315,-120.419 464.88,-93.6745"/>
<polygon fill="midnightblue" stroke="midnightblue" points="718.634,-259.211 728.943,-256.766 719.36,-252.249 718.634,-259.211"/>
</g>
<!-- Node37&#45;&gt;Node21 -->
<g id="edge52" class="edge"><title>Node37&#45;&gt;Node21</title>
<path fill="none" stroke="midnightblue" d="M815.893,-248.614C837.271,-230.132 876.708,-199.3 916.543,-185 981.617,-161.64 1169.9,-149.381 1281.56,-143.991"/>
<polygon fill="midnightblue" stroke="midnightblue" points="813.554,-246.011 808.376,-255.254 818.188,-251.257 813.554,-246.011"/>
</g>
<!-- Node37&#45;&gt;Node22 -->
<g id="edge51" class="edge"><title>Node37&#45;&gt;Node22</title>
<path fill="none" stroke="midnightblue" d="M809.33,-246.258C819.77,-229.046 837.658,-202.679 858.543,-185 899.054,-150.709 915.265,-149.713 964.543,-130 1082.56,-82.7928 1227.24,-46.6814 1307.19,-28.5143"/>
<polygon fill="midnightblue" stroke="midnightblue" points="806.125,-244.805 804.078,-255.2 812.161,-248.35 806.125,-244.805"/>
</g>
<!-- Node37&#45;&gt;Node27 -->
<g id="edge47" class="edge"><title>Node37&#45;&gt;Node27</title>
<path fill="none" stroke="midnightblue" d="M726.453,-254.198C628.176,-241.69 455.293,-219.686 364.341,-208.111"/>
<polygon fill="midnightblue" stroke="midnightblue" points="726.238,-257.698 736.6,-255.489 727.122,-250.754 726.238,-257.698"/>
</g>
<!-- Node37&#45;&gt;Node30 -->
<g id="edge49" class="edge"><title>Node37&#45;&gt;Node30</title>
<path fill="none" stroke="midnightblue" d="M792.245,-245.892C785.461,-229.838 774.876,-205.562 764.543,-185 758.019,-172.014 749.594,-157.404 744.381,-148.58"/>
<polygon fill="midnightblue" stroke="midnightblue" points="789.023,-247.259 796.113,-255.132 795.48,-244.556 789.023,-247.259"/>
</g>
<!-- Node37&#45;&gt;Node31 -->
<g id="edge50" class="edge"><title>Node37&#45;&gt;Node31</title>
<path fill="none" stroke="midnightblue" d="M833.112,-252.069C865.035,-241.197 913.004,-224.862 946.368,-213.5"/>
<polygon fill="midnightblue" stroke="midnightblue" points="831.688,-248.856 823.35,-255.393 833.945,-255.482 831.688,-248.856"/>
</g>
<!-- Node37&#45;&gt;Node32 -->
<g id="edge53" class="edge"><title>Node37&#45;&gt;Node32</title>
<path fill="none" stroke="midnightblue" d="M879.929,-259.675C1002.79,-253.309 1244.5,-238.735 1448.54,-214 1460.71,-212.525 1473.85,-210.517 1485.93,-208.501"/>
<polygon fill="midnightblue" stroke="midnightblue" points="879.66,-256.184 869.853,-260.193 880.019,-263.175 879.66,-256.184"/>
</g>
<!-- Node37&#45;&gt;Node33 -->
<g id="edge54" class="edge"><title>Node37&#45;&gt;Node33</title>
<path fill="none" stroke="midnightblue" d="M880.041,-254.46C989.677,-242.148 1184.26,-220.296 1289.02,-208.532"/>
<polygon fill="midnightblue" stroke="midnightblue" points="879.573,-250.991 870.026,-255.585 880.355,-257.947 879.573,-250.991"/>
</g>
<!-- Node38 -->
<g id="node26" class="node"><title>Node38</title>
<g id="a_node26"><a xlink:href="simple__find__zero_8h.html" target="_top" xlink:title="A very simplistic tool for finding a relatively straightforward zero with few iterations. ">
<polygon fill="none" stroke="black" points="637.127,-185.5 637.127,-213.5 755.96,-213.5 755.96,-185.5 637.127,-185.5"/>
<text text-anchor="start" x="645.127" y="-201.5" font-family="Helvetica,sans-Serif" font-size="10.00">tomographer/mathtools</text>
<text text-anchor="middle" x="696.543" y="-191.5" font-family="Helvetica,sans-Serif" font-size="10.00">/simple_find_zero.h</text>
</a>
</g>
</g>
<!-- Node37&#45;&gt;Node38 -->
<g id="edge48" class="edge"><title>Node37&#45;&gt;Node38</title>
<path fill="none" stroke="midnightblue" d="M777.085,-249.763C759.497,-239.005 735.195,-224.141 717.897,-213.561"/>
<polygon fill="midnightblue" stroke="midnightblue" points="775.721,-253.032 786.078,-255.264 779.374,-247.06 775.721,-253.032"/>
</g>
<!-- Node39 -->
<g id="node27" class="node"><title>Node39</title>
<g id="a_node27"><a xlink:href="boost__test__logger_8h.html" target="_top" xlink:title="Provide a logger class for when using the Boost Unit Test Framework (see Tomographer::Logger::BoostTe...">
<polygon fill="none" stroke="black" points="495.623,-185.5 495.623,-213.5 619.464,-213.5 619.464,-185.5 495.623,-185.5"/>
<text text-anchor="start" x="503.623" y="-201.5" font-family="Helvetica,sans-Serif" font-size="10.00">tomographer/tools/boost</text>
<text text-anchor="middle" x="557.543" y="-191.5" font-family="Helvetica,sans-Serif" font-size="10.00">_test_logger.h</text>
</a>
</g>
</g>
<!-- Node37&#45;&gt;Node39 -->
<g id="edge55" class="edge"><title>Node37&#45;&gt;Node39</title>
<path fill="none" stroke="midnightblue" d="M758.579,-252.836C716.872,-241.978 652.164,-225.133 607.481,-213.5"/>
<polygon fill="midnightblue" stroke="midnightblue" points="757.842,-256.261 768.402,-255.393 759.606,-249.486 757.842,-256.261"/>
</g>
<!-- Node40&#45;&gt;Node15 -->
<g id="edge57" class="edge"><title>Node40&#45;&gt;Node15</title>
<path fill="none" stroke="midnightblue" d="M1289.35,-319.284C1275.52,-317.668 1261.09,-316.141 1247.54,-315 909.255,-286.487 821.526,-320.168 484.543,-279 481.437,-278.621 478.261,-278.179 475.06,-277.692"/>
<polygon fill="midnightblue" stroke="midnightblue" points="1288.95,-322.761 1299.29,-320.472 1289.78,-315.81 1288.95,-322.761"/>
</g>
<!-- Node40&#45;&gt;Node17 -->
<g id="edge58" class="edge"><title>Node40&#45;&gt;Node17</title>
<path fill="none" stroke="midnightblue" d="M1289.83,-319.264C1275.86,-317.633 1261.25,-316.106 1247.54,-315 849.407,-282.862 747.568,-312.5 349.543,-279 334.434,-277.728 318.158,-275.874 303.037,-273.945"/>
<polygon fill="midnightblue" stroke="midnightblue" points="1289.53,-322.752 1299.87,-320.465 1290.36,-315.802 1289.53,-322.752"/>
</g>
<!-- Node40&#45;&gt;Node18 -->
<g id="edge59" class="edge"><title>Node40&#45;&gt;Node18</title>
<path fill="none" stroke="midnightblue" d="M1373.47,-312.945C1394.41,-291.263 1430.82,-254.13 1438.54,-250 1510.61,-211.459 1665.64,-245.359 1610.54,-185 1601.28,-174.847 758.092,-104.501 526.062,-85.3208"/>
<polygon fill="midnightblue" stroke="midnightblue" points="1370.71,-310.767 1366.29,-320.398 1375.75,-315.622 1370.71,-310.767"/>
</g>
<!-- Node40&#45;&gt;Node20 -->
<g id="edge60" class="edge"><title>Node40&#45;&gt;Node20</title>
<path fill="none" stroke="midnightblue" d="M1387.52,-316.567C1418.11,-303.975 1465.46,-284.475 1491.93,-273.576"/>
<polygon fill="midnightblue" stroke="midnightblue" points="1386.15,-313.349 1378.23,-320.393 1388.81,-319.822 1386.15,-313.349"/>
</g>
<!-- Node40&#45;&gt;Node22 -->
<g id="edge63" class="edge"><title>Node40&#45;&gt;Node22</title>
<path fill="none" stroke="midnightblue" d="M1438.47,-319.137C1503.48,-310.469 1589.23,-296.322 1619.54,-279 1652.9,-259.936 1663.01,-249.961 1676.54,-214 1717.42,-105.392 1544,-50.8826 1440.32,-28.4445"/>
<polygon fill="midnightblue" stroke="midnightblue" points="1437.69,-315.71 1428.23,-320.481 1438.6,-322.65 1437.69,-315.71"/>
</g>
<!-- Node40&#45;&gt;Node23 -->
<g id="edge64" class="edge"><title>Node40&#45;&gt;Node23</title>
<path fill="none" stroke="midnightblue" d="M1450.01,-318.889C1492.55,-311.85 1542.84,-299.743 1584.54,-279 1604.44,-269.103 1651.25,-234.185 1660.54,-214 1665.94,-202.293 1668.34,-195.261 1660.54,-185 1620.7,-132.585 1431.6,-101.398 1329.42,-88.098"/>
<polygon fill="midnightblue" stroke="midnightblue" points="1449.26,-315.464 1439.93,-320.486 1450.36,-322.377 1449.26,-315.464"/>
</g>
<!-- Node40&#45;&gt;Node30 -->
<g id="edge61" class="edge"><title>Node40&#45;&gt;Node30</title>
<path fill="none" stroke="midnightblue" d="M1304.17,-318.239C1268.48,-310.304 1221.4,-297.515 1182.54,-279 1137.35,-257.466 1130.89,-243.636 1090.54,-214 1073.42,-201.424 1072.14,-193.206 1052.54,-185 966.856,-149.12 857.659,-141.232 793.492,-140.006"/>
<polygon fill="midnightblue" stroke="midnightblue" points="1303.87,-321.755 1314.38,-320.447 1305.35,-314.913 1303.87,-321.755"/>
</g>
<!-- Node40&#45;&gt;Node31 -->
<g id="edge62" class="edge"><title>Node40&#45;&gt;Node31</title>
<path fill="none" stroke="midnightblue" d="M1286.4,-319.126C1203.83,-308.01 1077.4,-289.649 1057.54,-279 1028.35,-263.341 1004.46,-231.506 992.614,-213.561"/>
<polygon fill="midnightblue" stroke="midnightblue" points="1286.11,-322.619 1296.49,-320.479 1287.04,-315.681 1286.11,-322.619"/>
</g>
<!-- Node40&#45;&gt;Node32 -->
<g id="edge66" class="edge"><title>Node40&#45;&gt;Node32</title>
<path fill="none" stroke="midnightblue" d="M1365.16,-310.831C1372.56,-293.243 1386.12,-266.548 1405.54,-250 1430.6,-228.656 1466.01,-215.76 1492.58,-208.508"/>
<polygon fill="midnightblue" stroke="midnightblue" points="1361.79,-309.847 1361.35,-320.433 1368.29,-312.43 1361.79,-309.847"/>
</g>
<!-- Node40&#45;&gt;Node33 -->
<g id="edge67" class="edge"><title>Node40&#45;&gt;Node33</title>
<path fill="none" stroke="midnightblue" d="M1358.83,-310.402C1359.27,-282.148 1360.1,-228.704 1360.42,-208.504"/>
<polygon fill="midnightblue" stroke="midnightblue" points="1355.33,-310.44 1358.67,-320.493 1362.32,-310.549 1355.33,-310.44"/>
</g>
<!-- Node40&#45;&gt;Node35 -->
<g id="edge65" class="edge"><title>Node40&#45;&gt;Node35</title>
<path fill="none" stroke="midnightblue" d="M1336.2,-315.094C1315.18,-302.483 1284.4,-284.015 1266.94,-273.539"/>
<polygon fill="midnightblue" stroke="midnightblue" points="1334.44,-318.12 1344.82,-320.264 1338.04,-312.118 1334.44,-318.12"/>
</g>
<!-- Node40&#45;&gt;Node41 -->
<g id="edge68" class="edge"><title>Node40&#45;&gt;Node41</title>
<path fill="none" stroke="midnightblue" d="M1417.72,-318.841C1493.75,-306.432 1624.35,-285.117 1695.25,-273.545"/>
<polygon fill="midnightblue" stroke="midnightblue" points="1417.13,-315.392 1407.82,-320.457 1418.26,-322.3 1417.13,-315.392"/>
</g>
</g>
</svg>
        <g id="navigator" transform="translate(0 0)" fill="#404254">
                <rect fill="#f2f5e9" fill-opacity="0.5" stroke="#606060" stroke-width=".5" x="0" y="0" width="60" height="60"/>
                <use id="zoomplus" xlink:href="#zoomPlus" x="17" y="9" onmousedown="handleZoom(evt,'in')"/>
                <use id="zoomminus" xlink:href="#zoomMin" x="42" y="9" onmousedown="handleZoom(evt,'out')"/>
                <use id="reset" xlink:href="#resetDef" x="30" y="36" onmousedown="handleReset()"/>
                <g id="arrowUp" xlink:href="#dirArrow" transform="translate(30 24)" onmousedown="handlePan(0,-1)">
                  <use xlink:href="#rim" fill="#404040">
                        <set attributeName="fill" to="#808080" begin="arrowUp.mouseover" end="arrowUp.mouseout"/>
                  </use>
                  <path fill="none" stroke="white" stroke-width="1.5" d="M0,-3.0v7 M-2.5,-0.5L0,-3.0L2.5,-0.5"/>
                </g>
                <g id="arrowRight" xlink:href="#dirArrow" transform="rotate(90) translate(36 -43)" onmousedown="handlePan(1,0)">
                  <use xlink:href="#rim" fill="#404040">
                        <set attributeName="fill" to="#808080" begin="arrowRight.mouseover" end="arrowRight.mouseout"/>
                  </use>
                  <path fill="none" stroke="white" stroke-width="1.5" d="M0,-3.0v7 M-2.5,-0.5L0,-3.0L2.5,-0.5"/>
                </g>
                <g id="arrowDown" xlink:href="#dirArrow" transform="rotate(180) translate(-30 -48)" onmousedown="handlePan(0,1)">
                  <use xlink:href="#rim" fill="#404040">
                        <set attributeName="fill" to="#808080" begin="arrowDown.mouseover" end="arrowDown.mouseout"/>
                  </use>
                  <path fill="none" stroke="white" stroke-width="1.5" d="M0,-3.0v7 M-2.5,-0.5L0,-3.0L2.5,-0.5"/>
                </g>
                <g id="arrowLeft" xlink:href="#dirArrow" transform="rotate(270) translate(-36 17)" onmousedown="handlePan(-1,0)">
                  <use xlink:href="#rim" fill="#404040">
                        <set attributeName="fill" to="#808080" begin="arrowLeft.mouseover" end="arrowLeft.mouseout"/>
                  </use>
                  <path fill="none" stroke="white" stroke-width="1.5" d="M0,-3.0v7 M-2.5,-0.5L0,-3.0L2.5,-0.5"/>
                </g>
        </g>
        <svg viewBox="0 0 15 15" width="100%" height="30px" preserveAspectRatio="xMaxYMin meet">
         <g id="arrow_out" transform="scale(0.3 0.3)">
          <a xlink:href="cxxutil_8h__dep__incl_org.svg" target="_base">
           <rect id="button" ry="5" rx="5" y="6" x="6" height="38" width="38"
                fill="#f2f5e9" fill-opacity="0.5" stroke="#606060" stroke-width="1.0"/>
           <path id="arrow"
             d="M 11.500037,31.436501 C 11.940474,20.09759 22.043105,11.32322 32.158766,21.979434 L 37.068811,17.246167 C 37.068811,17.246167 37.088388,32 37.088388,32 L 22.160133,31.978069 C 22.160133,31.978069 26.997745,27.140456 26.997745,27.140456 C 18.528582,18.264221 13.291696,25.230495 11.500037,31.436501 z"
             style="fill:#404040;"/>
          </a>
         </g>
        </svg>
</svg>
