<?xml version="1.0" encoding="UTF-8" standalone="no"?>
<!DOCTYPE svg PUBLIC "-//W3C//DTD SVG 1.1//EN"
 "http://www.w3.org/Graphics/SVG/1.1/DTD/svg11.dtd">
<!-- Generated by graphviz version 2.38.0 (20140413.2041)
 -->
<!-- Title: tomographer/densedm/dmtypes.h Pages: 1 -->
<!--zoomable 202 -->
<svg id="main" version="1.1" xmlns="http://www.w3.org/2000/svg" xmlns:xlink="http://www.w3.org/1999/xlink" xml:space="preserve" onload="init(evt)">
<style type="text/css"><![CDATA[
.edge:hover path { stroke: red; }
.edge:hover polygon { stroke: red; fill: red; }
]]></style>
<script type="text/javascript"><![CDATA[
var edges = document.getElementsByTagName('g');
if (edges && edges.length) {
  for (var i=0;i<edges.length;i++) {
    if (edges[i].id.substr(0,4)=='edge') {
      edges[i].setAttribute('class','edge');
    }
  }
}
]]></script>
        <defs>
                <circle id="rim" cx="0" cy="0" r="7"/>
                <circle id="rim2" cx="0" cy="0" r="3.5"/>
                <g id="zoomPlus">
                        <use xlink:href="#rim" fill="#404040">
                                <set attributeName="fill" to="#808080" begin="zoomplus.mouseover" end="zoomplus.mouseout"/>
                        </use>
                        <path d="M-4,0h8M0,-4v8" fill="none" stroke="white" stroke-width="1.5" pointer-events="none"/>
                </g>
                <g id="zoomMin">
                        <use xlink:href="#rim" fill="#404040">
                                <set attributeName="fill" to="#808080" begin="zoomminus.mouseover" end="zoomminus.mouseout"/>
                        </use>
                        <path d="M-4,0h8" fill="none" stroke="white" stroke-width="1.5" pointer-events="none"/>
                </g>
                <g id="dirArrow">
                        <path fill="none" stroke="white" stroke-width="1.5" d="M0,-3.0v7 M-2.5,-0.5L0,-3.0L2.5,-0.5"/>
                </g>
               <g id="resetDef">
                       <use xlink:href="#rim2" fill="#404040">
                               <set attributeName="fill" to="#808080" begin="reset.mouseover" end="reset.mouseout"/>
                       </use>
               </g>
        </defs>

<script type="text/javascript">
var viewWidth = 1024;
var viewHeight = 202;
var sectionId = 'dynsection-0';
</script>
<script xlink:href="svgpan.js"/>
<svg id="graph" class="graph">
<g id="viewport">
<title>tomographer/densedm/dmtypes.h</title>
<!-- Node0 -->
<g id="node1" class="node"><title>Node0</title>
<polygon fill="#bfbfbf" stroke="black" points="626.912,-165.5 626.912,-193.5 743.527,-193.5 743.527,-165.5 626.912,-165.5"/>
<text text-anchor="start" x="634.912" y="-181.5" font-family="Helvetica,sans-Serif" font-size="10.00">tomographer/densedm</text>
<text text-anchor="middle" x="685.219" y="-171.5" font-family="Helvetica,sans-Serif" font-size="10.00">/dmtypes.h</text>
</g>
<!-- Node1 -->
<g id="node2" class="node"><title>Node1</title>
<polygon fill="none" stroke="#bfbfbf" points="696.099,-0.5 696.099,-18.5 744.34,-18.5 744.34,-0.5 696.099,-0.5"/>
<text text-anchor="middle" x="720.219" y="-6.5" font-family="Helvetica,sans-Serif" font-size="10.00">cstddef</text>
</g>
<!-- Node0&#45;&gt;Node1 -->
<g id="edge1" class="edge"><title>Node0&#45;&gt;Node1</title>
<path fill="none" stroke="midnightblue" d="M744.003,-167.671C794.9,-154.852 865.491,-128.005 899.219,-74 903.693,-66.8376 904.421,-61.6525 899.219,-55 881.616,-32.4847 801.535,-19.7327 754.662,-14.0753"/>
<polygon fill="midnightblue" stroke="midnightblue" points="754.975,-10.5882 744.638,-12.9122 754.168,-17.5415 754.975,-10.5882"/>
</g>
<!-- Node2 -->
<g id="node3" class="node"><title>Node2</title>
<polygon fill="none" stroke="#bfbfbf" points="460.104,-0.5 460.104,-18.5 508.335,-18.5 508.335,-0.5 460.104,-0.5"/>
<text text-anchor="middle" x="484.219" y="-6.5" font-family="Helvetica,sans-Serif" font-size="10.00">cassert</text>
</g>
<!-- Node0&#45;&gt;Node2 -->
<g id="edge2" class="edge"><title>Node0&#45;&gt;Node2</title>
<path fill="none" stroke="midnightblue" d="M626.888,-178.798C477.001,-178.199 84.5063,-167.547 4.21934,-74 -1.28033,-67.592 -1.4695,-61.2406 4.21934,-55 34.165,-22.1497 344.997,-13.1757 449.877,-11.0732"/>
<polygon fill="midnightblue" stroke="midnightblue" points="450.004,-14.5715 459.935,-10.8802 449.869,-7.5728 450.004,-14.5715"/>
</g>
<!-- Node3 -->
<g id="node4" class="node"><title>Node3</title>
<polygon fill="none" stroke="#bfbfbf" points="946.254,-110.5 946.254,-128.5 1016.18,-128.5 1016.18,-110.5 946.254,-110.5"/>
<text text-anchor="middle" x="981.219" y="-116.5" font-family="Helvetica,sans-Serif" font-size="10.00">Eigen/Eigen</text>
</g>
<!-- Node0&#45;&gt;Node3 -->
<g id="edge3" class="edge"><title>Node0&#45;&gt;Node3</title>
<path fill="none" stroke="midnightblue" d="M743.699,-167.041C800.247,-155.961 884.722,-139.408 936.211,-129.319"/>
<polygon fill="midnightblue" stroke="midnightblue" points="936.911,-132.749 946.052,-127.391 935.565,-125.879 936.911,-132.749"/>
</g>
<!-- Node4 -->
<g id="node5" class="node"><title>Node4</title>
<g id="a_node5"><a xlink:href="cxxutil_8h.html" target="_top" xlink:title="Some C++ utilities, with a tad of C++11 tricks. ">
<polygon fill="none" stroke="black" points="385.468,-110.5 385.468,-128.5 520.97,-128.5 520.97,-110.5 385.468,-110.5"/>
<text text-anchor="middle" x="453.219" y="-116.5" font-family="Helvetica,sans-Serif" font-size="10.00">tomographer/tools/cxxutil.h</text>
</a>
</g>
</g>
<!-- Node0&#45;&gt;Node4 -->
<g id="edge4" class="edge"><title>Node0&#45;&gt;Node4</title>
<path fill="none" stroke="midnightblue" d="M633.154,-165.484C591.58,-155.09 534.072,-140.713 495.358,-131.035"/>
<polygon fill="midnightblue" stroke="midnightblue" points="496.004,-127.589 485.454,-128.559 494.307,-134.38 496.004,-127.589"/>
</g>
<!-- Node4&#45;&gt;Node1 -->
<g id="edge6" class="edge"><title>Node4&#45;&gt;Node1</title>
<path fill="none" stroke="midnightblue" d="M520.976,-114.227C585.048,-108.826 675.155,-97.2692 701.219,-74 713.953,-62.6316 718.309,-43.1162 719.721,-28.713"/>
<polygon fill="midnightblue" stroke="midnightblue" points="723.228,-28.7008 720.326,-18.5112 716.24,-28.2866 723.228,-28.7008"/>
</g>
<!-- Node4&#45;&gt;Node2 -->
<g id="edge5" class="edge"><title>Node4&#45;&gt;Node2</title>
<path fill="none" stroke="midnightblue" d="M455.549,-110.382C460.509,-93.104 472.213,-52.3294 479.035,-28.5629"/>
<polygon fill="midnightblue" stroke="midnightblue" points="482.467,-29.2893 481.862,-18.7118 475.739,-27.358 482.467,-29.2893"/>
</g>
<!-- Node5 -->
<g id="node6" class="node"><title>Node5</title>
<polygon fill="none" stroke="#bfbfbf" points="562.047,-0.5 562.047,-18.5 606.392,-18.5 606.392,-0.5 562.047,-0.5"/>
<text text-anchor="middle" x="584.219" y="-6.5" font-family="Helvetica,sans-Serif" font-size="10.00">cstdlib</text>
</g>
<!-- Node4&#45;&gt;Node5 -->
<g id="edge7" class="edge"><title>Node4&#45;&gt;Node5</title>
<path fill="none" stroke="midnightblue" d="M463.066,-110.382C485.067,-92.244 538.476,-48.2122 566.455,-25.1455"/>
<polygon fill="midnightblue" stroke="midnightblue" points="568.769,-27.7736 574.259,-18.7118 564.316,-22.3724 568.769,-27.7736"/>
</g>
<!-- Node6 -->
<g id="node7" class="node"><title>Node6</title>
<polygon fill="none" stroke="#bfbfbf" points="13.047,-55.5 13.047,-73.5 67.3917,-73.5 67.3917,-55.5 13.047,-55.5"/>
<text text-anchor="middle" x="40.2193" y="-61.5" font-family="Helvetica,sans-Serif" font-size="10.00">iostream</text>
</g>
<!-- Node4&#45;&gt;Node6 -->
<g id="edge8" class="edge"><title>Node4&#45;&gt;Node6</title>
<path fill="none" stroke="midnightblue" d="M385.458,-112.855C311.873,-106.195 190.735,-93.6901 77.545,-74.0575"/>
<polygon fill="midnightblue" stroke="midnightblue" points="78.1244,-70.6058 67.6696,-72.3227 76.9132,-77.5002 78.1244,-70.6058"/>
</g>
<!-- Node7 -->
<g id="node8" class="node"><title>Node7</title>
<polygon fill="none" stroke="#bfbfbf" points="85.6012,-55.5 85.6012,-73.5 138.838,-73.5 138.838,-55.5 85.6012,-55.5"/>
<text text-anchor="middle" x="112.219" y="-61.5" font-family="Helvetica,sans-Serif" font-size="10.00">complex</text>
</g>
<!-- Node4&#45;&gt;Node7 -->
<g id="edge9" class="edge"><title>Node4&#45;&gt;Node7</title>
<path fill="none" stroke="midnightblue" d="M386.602,-110.477C326.865,-102.895 236.635,-90.4937 148.77,-73.9503"/>
<polygon fill="midnightblue" stroke="midnightblue" points="149.378,-70.5033 138.9,-72.0724 148.07,-77.38 149.378,-70.5033"/>
</g>
<!-- Node8 -->
<g id="node9" class="node"><title>Node8</title>
<polygon fill="none" stroke="#bfbfbf" points="157.153,-55.5 157.153,-73.5 219.286,-73.5 219.286,-55.5 157.153,-55.5"/>
<text text-anchor="middle" x="188.219" y="-61.5" font-family="Helvetica,sans-Serif" font-size="10.00">type_traits</text>
</g>
<!-- Node4&#45;&gt;Node8 -->
<g id="edge10" class="edge"><title>Node4&#45;&gt;Node8</title>
<path fill="none" stroke="midnightblue" d="M411.715,-110.473C368.656,-102.106 299.097,-88.4758 229.863,-74.316"/>
<polygon fill="midnightblue" stroke="midnightblue" points="230.153,-70.8027 219.653,-72.2235 228.747,-77.6601 230.153,-70.8027"/>
</g>
<!-- Node9 -->
<g id="node10" class="node"><title>Node9</title>
<polygon fill="none" stroke="#bfbfbf" points="236.816,-55.5 236.816,-73.5 295.623,-73.5 295.623,-55.5 236.816,-55.5"/>
<text text-anchor="middle" x="266.219" y="-61.5" font-family="Helvetica,sans-Serif" font-size="10.00">exception</text>
</g>
<!-- Node4&#45;&gt;Node9 -->
<g id="edge11" class="edge"><title>Node4&#45;&gt;Node9</title>
<path fill="none" stroke="midnightblue" d="M424.818,-110.45C392.735,-101.357 340.352,-86.5108 304.635,-76.3879"/>
<polygon fill="midnightblue" stroke="midnightblue" points="305.156,-72.8978 294.581,-73.5383 303.248,-79.6326 305.156,-72.8978"/>
</g>
<!-- Node10 -->
<g id="node11" class="node"><title>Node10</title>
<polygon fill="none" stroke="#bfbfbf" points="313.818,-55.5 313.818,-73.5 372.621,-73.5 372.621,-55.5 313.818,-55.5"/>
<text text-anchor="middle" x="343.219" y="-61.5" font-family="Helvetica,sans-Serif" font-size="10.00">stdexcept</text>
</g>
<!-- Node4&#45;&gt;Node10 -->
<g id="edge12" class="edge"><title>Node4&#45;&gt;Node10</title>
<path fill="none" stroke="midnightblue" d="M436.513,-110.45C418.664,-101.851 390.135,-88.1048 369.319,-78.0755"/>
<polygon fill="midnightblue" stroke="midnightblue" points="370.611,-74.8129 360.083,-73.6253 367.573,-81.1191 370.611,-74.8129"/>
</g>
<!-- Node11 -->
<g id="node12" class="node"><title>Node11</title>
<g id="a_node12"><a xlink:href="cxxdefs_8h.html" target="_top" xlink:title="Basic definitions, which may have to be defined before any Eigen headers or further utilities are inc...">
<polygon fill="none" stroke="black" points="550.409,-55.5 550.409,-73.5 692.029,-73.5 692.029,-55.5 550.409,-55.5"/>
<text text-anchor="middle" x="621.219" y="-61.5" font-family="Helvetica,sans-Serif" font-size="10.00">tomographer/tools/cxxdefs.h</text>
</a>
</g>
</g>
<!-- Node4&#45;&gt;Node11 -->
<g id="edge13" class="edge"><title>Node4&#45;&gt;Node11</title>
<path fill="none" stroke="midnightblue" d="M478.735,-110.45C507.311,-101.436 553.812,-86.7653 585.877,-76.6496"/>
<polygon fill="midnightblue" stroke="midnightblue" points="587.256,-79.8848 595.739,-73.5383 585.15,-73.2091 587.256,-79.8848"/>
</g>
<!-- Node12 -->
<g id="node13" class="node"><title>Node12</title>
<g id="a_node13"><a xlink:href="conststr_8h.html" target="_top" xlink:title="A constexpr string type, suitable for basic compile&#45;time string processing. ">
<polygon fill="none" stroke="black" points="748.129,-55.5 748.129,-73.5 890.31,-73.5 890.31,-55.5 748.129,-55.5"/>
<text text-anchor="middle" x="819.219" y="-61.5" font-family="Helvetica,sans-Serif" font-size="10.00">tomographer/tools/conststr.h</text>
</a>
</g>
</g>
<!-- Node4&#45;&gt;Node12 -->
<g id="edge17" class="edge"><title>Node4&#45;&gt;Node12</title>
<path fill="none" stroke="midnightblue" d="M508.807,-110.45C574.564,-100.928 683.895,-85.0962 753.706,-74.9869"/>
<polygon fill="midnightblue" stroke="midnightblue" points="754.314,-78.4354 763.71,-73.5383 753.311,-71.5077 754.314,-78.4354"/>
</g>
<!-- Node14 -->
<g id="node15" class="node"><title>Node14</title>
<polygon fill="none" stroke="#bfbfbf" points="390.205,-55.5 390.205,-73.5 456.234,-73.5 456.234,-55.5 390.205,-55.5"/>
<text text-anchor="middle" x="423.219" y="-61.5" font-family="Helvetica,sans-Serif" font-size="10.00">Eigen/Core</text>
</g>
<!-- Node4&#45;&gt;Node14 -->
<g id="edge19" class="edge"><title>Node4&#45;&gt;Node14</title>
<path fill="none" stroke="midnightblue" d="M448.532,-110.219C444.324,-102.786 438.019,-91.646 432.754,-82.3446"/>
<polygon fill="midnightblue" stroke="midnightblue" points="435.748,-80.528 427.776,-73.5496 429.656,-83.9763 435.748,-80.528"/>
</g>
<!-- Node11&#45;&gt;Node1 -->
<g id="edge15" class="edge"><title>Node11&#45;&gt;Node1</title>
<path fill="none" stroke="midnightblue" d="M636.255,-55.4504C652.173,-46.9286 677.531,-33.3532 696.219,-23.3487"/>
<polygon fill="midnightblue" stroke="midnightblue" points="697.878,-26.4308 705.042,-18.6253 694.574,-20.2595 697.878,-26.4308"/>
</g>
<!-- Node11&#45;&gt;Node2 -->
<g id="edge14" class="edge"><title>Node11&#45;&gt;Node2</title>
<path fill="none" stroke="midnightblue" d="M600.412,-55.4504C577.579,-46.6173 540.711,-32.3546 514.636,-22.267"/>
<polygon fill="midnightblue" stroke="midnightblue" points="515.812,-18.9692 505.223,-18.6253 513.286,-25.4977 515.812,-18.9692"/>
</g>
<!-- Node11&#45;&gt;Node5 -->
<g id="edge16" class="edge"><title>Node11&#45;&gt;Node5</title>
<path fill="none" stroke="midnightblue" d="M615.438,-55.2188C610.14,-47.6292 602.144,-36.1753 595.57,-26.7597"/>
<polygon fill="midnightblue" stroke="midnightblue" points="598.433,-24.7457 589.839,-18.5496 592.693,-28.7527 598.433,-24.7457"/>
</g>
<!-- Node13 -->
<g id="node14" class="node"><title>Node13</title>
<polygon fill="none" stroke="#bfbfbf" points="798.993,-0.5 798.993,-18.5 839.446,-18.5 839.446,-0.5 798.993,-0.5"/>
<text text-anchor="middle" x="819.219" y="-6.5" font-family="Helvetica,sans-Serif" font-size="10.00">string</text>
</g>
<!-- Node12&#45;&gt;Node13 -->
<g id="edge18" class="edge"><title>Node12&#45;&gt;Node13</title>
<path fill="none" stroke="midnightblue" d="M819.219,-55.2188C819.219,-48.1769 819.219,-37.8083 819.219,-28.8277"/>
<polygon fill="midnightblue" stroke="midnightblue" points="822.719,-28.5495 819.219,-18.5496 815.719,-28.5496 822.719,-28.5495"/>
</g>
</g>
</svg>
        <g id="navigator" transform="translate(0 0)" fill="#404254">
                <rect fill="#f2f5e9" fill-opacity="0.5" stroke="#606060" stroke-width=".5" x="0" y="0" width="60" height="60"/>
                <use id="zoomplus" xlink:href="#zoomPlus" x="17" y="9" onmousedown="handleZoom(evt,'in')"/>
                <use id="zoomminus" xlink:href="#zoomMin" x="42" y="9" onmousedown="handleZoom(evt,'out')"/>
                <use id="reset" xlink:href="#resetDef" x="30" y="36" onmousedown="handleReset()"/>
                <g id="arrowUp" xlink:href="#dirArrow" transform="translate(30 24)" onmousedown="handlePan(0,-1)">
                  <use xlink:href="#rim" fill="#404040">
                        <set attributeName="fill" to="#808080" begin="arrowUp.mouseover" end="arrowUp.mouseout"/>
                  </use>
                  <path fill="none" stroke="white" stroke-width="1.5" d="M0,-3.0v7 M-2.5,-0.5L0,-3.0L2.5,-0.5"/>
                </g>
                <g id="arrowRight" xlink:href="#dirArrow" transform="rotate(90) translate(36 -43)" onmousedown="handlePan(1,0)">
                  <use xlink:href="#rim" fill="#404040">
                        <set attributeName="fill" to="#808080" begin="arrowRight.mouseover" end="arrowRight.mouseout"/>
                  </use>
                  <path fill="none" stroke="white" stroke-width="1.5" d="M0,-3.0v7 M-2.5,-0.5L0,-3.0L2.5,-0.5"/>
                </g>
                <g id="arrowDown" xlink:href="#dirArrow" transform="rotate(180) translate(-30 -48)" onmousedown="handlePan(0,1)">
                  <use xlink:href="#rim" fill="#404040">
                        <set attributeName="fill" to="#808080" begin="arrowDown.mouseover" end="arrowDown.mouseout"/>
                  </use>
                  <path fill="none" stroke="white" stroke-width="1.5" d="M0,-3.0v7 M-2.5,-0.5L0,-3.0L2.5,-0.5"/>
                </g>
                <g id="arrowLeft" xlink:href="#dirArrow" transform="rotate(270) translate(-36 17)" onmousedown="handlePan(-1,0)">
                  <use xlink:href="#rim" fill="#404040">
                        <set attributeName="fill" to="#808080" begin="arrowLeft.mouseover" end="arrowLeft.mouseout"/>
                  </use>
                  <path fill="none" stroke="white" stroke-width="1.5" d="M0,-3.0v7 M-2.5,-0.5L0,-3.0L2.5,-0.5"/>
                </g>
        </g>
        <svg viewBox="0 0 15 15" width="100%" height="30px" preserveAspectRatio="xMaxYMin meet">
         <g id="arrow_out" transform="scale(0.3 0.3)">
          <a xlink:href="dmtypes_8h__incl_org.svg" target="_base">
           <rect id="button" ry="5" rx="5" y="6" x="6" height="38" width="38"
                fill="#f2f5e9" fill-opacity="0.5" stroke="#606060" stroke-width="1.0"/>
           <path id="arrow"
             d="M 11.500037,31.436501 C 11.940474,20.09759 22.043105,11.32322 32.158766,21.979434 L 37.068811,17.246167 C 37.068811,17.246167 37.088388,32 37.088388,32 L 22.160133,31.978069 C 22.160133,31.978069 26.997745,27.140456 26.997745,27.140456 C 18.528582,18.264221 13.291696,25.230495 11.500037,31.436501 z"
             style="fill:#404040;"/>
          </a>
         </g>
        </svg>
</svg>
