<?xml version="1.0" encoding="UTF-8" standalone="no"?>
<!DOCTYPE svg PUBLIC "-//W3C//DTD SVG 1.1//EN"
 "http://www.w3.org/Graphics/SVG/1.1/DTD/svg11.dtd">
<!-- Generated by graphviz version 2.38.0 (20140413.2041)
 -->
<!-- Title: tomographer/tools/ezmatio.h Pages: 1 -->
<svg width="1431pt" height="257pt"
 viewBox="0.00 0.00 1430.85 257.00" xmlns="http://www.w3.org/2000/svg" xmlns:xlink="http://www.w3.org/1999/xlink">
<g id="graph0" class="graph" transform="scale(1 1) rotate(0) translate(4 253)">
<title>tomographer/tools/ezmatio.h</title>
<!-- Node0 -->
<g id="node1" class="node"><title>Node0</title>
<polygon fill="#bfbfbf" stroke="black" points="687.084,-230.5 687.084,-248.5 829.817,-248.5 829.817,-230.5 687.084,-230.5"/>
<text text-anchor="middle" x="758.451" y="-236.5" font-family="Helvetica,sans-Serif" font-size="10.00">tomographer/tools/ezmatio.h</text>
</g>
<!-- Node1 -->
<g id="node2" class="node"><title>Node1</title>
<polygon fill="none" stroke="#bfbfbf" points="0,-170.5 0,-188.5 44.9014,-188.5 44.9014,-170.5 0,-170.5"/>
<text text-anchor="middle" x="22.4507" y="-176.5" font-family="Helvetica,sans-Serif" font-size="10.00">cstdint</text>
</g>
<!-- Node0&#45;&gt;Node1 -->
<g id="edge1" class="edge"><title>Node0&#45;&gt;Node1</title>
<path fill="none" stroke="midnightblue" d="M686.929,-237.016C532.672,-233.322 173.063,-221.919 54.4507,-194 52.3873,-193.514 50.2871,-192.907 48.1991,-192.222"/>
<polygon fill="midnightblue" stroke="midnightblue" points="49.2939,-188.893 38.7031,-188.599 46.7988,-195.434 49.2939,-188.893"/>
</g>
<!-- Node2 -->
<g id="node3" class="node"><title>Node2</title>
<polygon fill="none" stroke="#bfbfbf" points="63.2783,-170.5 63.2783,-188.5 107.623,-188.5 107.623,-170.5 63.2783,-170.5"/>
<text text-anchor="middle" x="85.4507" y="-176.5" font-family="Helvetica,sans-Serif" font-size="10.00">cerrno</text>
</g>
<!-- Node0&#45;&gt;Node2 -->
<g id="edge2" class="edge"><title>Node0&#45;&gt;Node2</title>
<path fill="none" stroke="midnightblue" d="M686.826,-236.099C543.802,-230.878 227.474,-217.07 121.451,-194 118.791,-193.421 116.065,-192.684 113.361,-191.854"/>
<polygon fill="midnightblue" stroke="midnightblue" points="114.421,-188.517 103.826,-188.556 112.133,-195.133 114.421,-188.517"/>
</g>
<!-- Node3 -->
<g id="node4" class="node"><title>Node3</title>
<polygon fill="none" stroke="#bfbfbf" points="1023.83,-55.5 1023.83,-73.5 1077.07,-73.5 1077.07,-55.5 1023.83,-55.5"/>
<text text-anchor="middle" x="1050.45" y="-61.5" font-family="Helvetica,sans-Serif" font-size="10.00">complex</text>
</g>
<!-- Node0&#45;&gt;Node3 -->
<g id="edge3" class="edge"><title>Node0&#45;&gt;Node3</title>
<path fill="none" stroke="midnightblue" d="M829.924,-233.703C868.412,-228.366 915.275,-217.212 951.451,-194 995.57,-165.691 1027.87,-110.613 1042.21,-82.6604"/>
<polygon fill="midnightblue" stroke="midnightblue" points="1045.36,-84.2019 1046.67,-73.6893 1039.09,-81.0853 1045.36,-84.2019"/>
</g>
<!-- Node4 -->
<g id="node5" class="node"><title>Node4</title>
<polygon fill="none" stroke="#bfbfbf" points="225.224,-0.5 225.224,-18.5 265.677,-18.5 265.677,-0.5 225.224,-0.5"/>
<text text-anchor="middle" x="245.451" y="-6.5" font-family="Helvetica,sans-Serif" font-size="10.00">string</text>
</g>
<!-- Node0&#45;&gt;Node4 -->
<g id="edge4" class="edge"><title>Node0&#45;&gt;Node4</title>
<path fill="none" stroke="midnightblue" d="M686.611,-238.786C565.039,-238.193 324.712,-232.05 250.451,-194 183.632,-159.763 114.697,-118.692 154.451,-55 167.654,-33.8454 194.15,-22.4731 215.162,-16.5365"/>
<polygon fill="midnightblue" stroke="midnightblue" points="216.129,-19.9021 224.954,-14.0399 214.399,-13.1191 216.129,-19.9021"/>
</g>
<!-- Node5 -->
<g id="node6" class="node"><title>Node5</title>
<polygon fill="none" stroke="#bfbfbf" points="1288.83,-110.5 1288.83,-128.5 1332.07,-128.5 1332.07,-110.5 1288.83,-110.5"/>
<text text-anchor="middle" x="1310.45" y="-116.5" font-family="Helvetica,sans-Serif" font-size="10.00">vector</text>
</g>
<!-- Node0&#45;&gt;Node5 -->
<g id="edge5" class="edge"><title>Node0&#45;&gt;Node5</title>
<path fill="none" stroke="midnightblue" d="M829.845,-235.188C928.817,-229.816 1102.11,-217.372 1160.45,-194 1180.17,-186.099 1179.96,-175.465 1198.45,-165 1224.31,-150.367 1255.93,-138.277 1278.98,-130.41"/>
<polygon fill="midnightblue" stroke="midnightblue" points="1280.22,-133.685 1288.6,-127.201 1278,-127.045 1280.22,-133.685"/>
</g>
<!-- Node6 -->
<g id="node7" class="node"><title>Node6</title>
<polygon fill="none" stroke="#bfbfbf" points="1207.89,-170.5 1207.89,-188.5 1265.01,-188.5 1265.01,-170.5 1207.89,-170.5"/>
<text text-anchor="middle" x="1236.45" y="-176.5" font-family="Helvetica,sans-Serif" font-size="10.00">algorithm</text>
</g>
<!-- Node0&#45;&gt;Node6 -->
<g id="edge6" class="edge"><title>Node0&#45;&gt;Node6</title>
<path fill="none" stroke="midnightblue" d="M829.946,-235.62C916.697,-231.111 1067.05,-220.028 1193.45,-194 1196.93,-193.284 1200.52,-192.398 1204.09,-191.424"/>
<polygon fill="midnightblue" stroke="midnightblue" points="1205.32,-194.71 1213.91,-188.517 1203.33,-187.997 1205.32,-194.71"/>
</g>
<!-- Node7 -->
<g id="node8" class="node"><title>Node7</title>
<polygon fill="none" stroke="#bfbfbf" points="163.278,-55.5 163.278,-73.5 217.623,-73.5 217.623,-55.5 163.278,-55.5"/>
<text text-anchor="middle" x="190.451" y="-61.5" font-family="Helvetica,sans-Serif" font-size="10.00">iostream</text>
</g>
<!-- Node0&#45;&gt;Node7 -->
<g id="edge7" class="edge"><title>Node0&#45;&gt;Node7</title>
<path fill="none" stroke="midnightblue" d="M686.98,-236.015C608.345,-231.968 478.741,-221.407 370.451,-194 295.243,-174.966 260.343,-186.669 208.451,-129 197.313,-116.622 193.02,-97.8369 191.389,-83.906"/>
<polygon fill="midnightblue" stroke="midnightblue" points="194.85,-83.2781 190.554,-73.5932 187.873,-83.8431 194.85,-83.2781"/>
</g>
<!-- Node8 -->
<g id="node9" class="node"><title>Node8</title>
<polygon fill="none" stroke="#bfbfbf" points="863.049,-55.5 863.049,-73.5 921.852,-73.5 921.852,-55.5 863.049,-55.5"/>
<text text-anchor="middle" x="892.451" y="-61.5" font-family="Helvetica,sans-Serif" font-size="10.00">stdexcept</text>
</g>
<!-- Node0&#45;&gt;Node8 -->
<g id="edge8" class="edge"><title>Node0&#45;&gt;Node8</title>
<path fill="none" stroke="midnightblue" d="M757.514,-230.495C755.4,-208.533 752.567,-146.541 782.451,-110 799.796,-88.7906 828.809,-77.6079 852.684,-71.7583"/>
<polygon fill="midnightblue" stroke="midnightblue" points="853.551,-75.1512 862.553,-69.5642 852.032,-68.318 853.551,-75.1512"/>
</g>
<!-- Node9 -->
<g id="node10" class="node"><title>Node9</title>
<polygon fill="none" stroke="#bfbfbf" points="468.67,-110.5 468.67,-128.5 520.231,-128.5 520.231,-110.5 468.67,-110.5"/>
<text text-anchor="middle" x="494.451" y="-116.5" font-family="Helvetica,sans-Serif" font-size="10.00">sstream</text>
</g>
<!-- Node0&#45;&gt;Node9 -->
<g id="edge9" class="edge"><title>Node0&#45;&gt;Node9</title>
<path fill="none" stroke="midnightblue" d="M731.017,-230.493C704.551,-222.431 663.591,-209.057 629.451,-194 588.133,-175.777 542.452,-149.531 516.229,-133.83"/>
<polygon fill="midnightblue" stroke="midnightblue" points="517.863,-130.728 507.493,-128.557 514.246,-136.721 517.863,-130.728"/>
</g>
<!-- Node10 -->
<g id="node11" class="node"><title>Node10</title>
<polygon fill="none" stroke="#bfbfbf" points="1283.11,-170.5 1283.11,-188.5 1355.79,-188.5 1355.79,-170.5 1283.11,-170.5"/>
<text text-anchor="middle" x="1319.45" y="-176.5" font-family="Helvetica,sans-Serif" font-size="10.00">initializer_list</text>
</g>
<!-- Node0&#45;&gt;Node10 -->
<g id="edge10" class="edge"><title>Node0&#45;&gt;Node10</title>
<path fill="none" stroke="midnightblue" d="M830.03,-236.96C930.243,-233.758 1117.68,-223.945 1274.45,-194 1278.2,-193.285 1282.07,-192.38 1285.91,-191.38"/>
<polygon fill="midnightblue" stroke="midnightblue" points="1287.18,-194.658 1295.86,-188.571 1285.28,-187.921 1287.18,-194.658"/>
</g>
<!-- Node11 -->
<g id="node12" class="node"><title>Node11</title>
<polygon fill="none" stroke="#bfbfbf" points="538.059,-110.5 538.059,-128.5 576.842,-128.5 576.842,-110.5 538.059,-110.5"/>
<text text-anchor="middle" x="557.451" y="-116.5" font-family="Helvetica,sans-Serif" font-size="10.00">utility</text>
</g>
<!-- Node0&#45;&gt;Node11 -->
<g id="edge11" class="edge"><title>Node0&#45;&gt;Node11</title>
<path fill="none" stroke="midnightblue" d="M744.635,-230.389C710.487,-210.342 621.85,-158.307 579.982,-133.727"/>
<polygon fill="midnightblue" stroke="midnightblue" points="581.493,-130.556 571.097,-128.511 577.949,-136.592 581.493,-130.556"/>
</g>
<!-- Node12 -->
<g id="node13" class="node"><title>Node12</title>
<polygon fill="none" stroke="#bfbfbf" points="1374.05,-170.5 1374.05,-188.5 1422.85,-188.5 1422.85,-170.5 1374.05,-170.5"/>
<text text-anchor="middle" x="1398.45" y="-176.5" font-family="Helvetica,sans-Serif" font-size="10.00">matio.h</text>
</g>
<!-- Node0&#45;&gt;Node12 -->
<g id="edge12" class="edge"><title>Node0&#45;&gt;Node12</title>
<path fill="none" stroke="midnightblue" d="M830.052,-235.973C967.747,-230.662 1264.65,-216.908 1364.45,-194 1366.8,-193.461 1369.2,-192.784 1371.59,-192.023"/>
<polygon fill="midnightblue" stroke="midnightblue" points="1372.93,-195.26 1381.13,-188.554 1370.54,-188.681 1372.93,-195.26"/>
</g>
<!-- Node13 -->
<g id="node14" class="node"><title>Node13</title>
<polygon fill="none" stroke="#bfbfbf" points="939.436,-55.5 939.436,-73.5 1005.47,-73.5 1005.47,-55.5 939.436,-55.5"/>
<text text-anchor="middle" x="972.451" y="-61.5" font-family="Helvetica,sans-Serif" font-size="10.00">Eigen/Core</text>
</g>
<!-- Node0&#45;&gt;Node13 -->
<g id="edge13" class="edge"><title>Node0&#45;&gt;Node13</title>
<path fill="none" stroke="midnightblue" d="M761.073,-230.284C769.396,-204.68 795.82,-127.036 815.451,-110 824.21,-102.399 885.997,-86.3153 929.391,-75.7105"/>
<polygon fill="midnightblue" stroke="midnightblue" points="930.271,-79.0987 939.163,-73.3387 928.62,-72.2962 930.271,-79.0987"/>
</g>
<!-- Node14 -->
<g id="node15" class="node"><title>Node14</title>
<g id="a_node15"><a xlink:href="cxxutil_8h.html" target="_top" xlink:title="Some C++ utilities, with a tad of C++11 tricks. ">
<polygon fill="none" stroke="black" points="594.7,-110.5 594.7,-128.5 730.202,-128.5 730.202,-110.5 594.7,-110.5"/>
<text text-anchor="middle" x="662.451" y="-116.5" font-family="Helvetica,sans-Serif" font-size="10.00">tomographer/tools/cxxutil.h</text>
</a>
</g>
</g>
<!-- Node0&#45;&gt;Node14 -->
<g id="edge14" class="edge"><title>Node0&#45;&gt;Node14</title>
<path fill="none" stroke="midnightblue" d="M751.852,-230.389C736.164,-211.106 696.398,-162.227 675.593,-136.654"/>
<polygon fill="midnightblue" stroke="midnightblue" points="678.121,-134.216 669.095,-128.667 672.691,-138.633 678.121,-134.216"/>
</g>
<!-- Node22 -->
<g id="node23" class="node"><title>Node22</title>
<g id="a_node23"><a xlink:href="eigenutil_8h.html" target="_top" xlink:title="Basic utilities for dealing with Eigen matrices and other types. ">
<polygon fill="none" stroke="black" points="1006.97,-170.5 1006.97,-188.5 1151.94,-188.5 1151.94,-170.5 1006.97,-170.5"/>
<text text-anchor="middle" x="1079.45" y="-176.5" font-family="Helvetica,sans-Serif" font-size="10.00">tomographer/tools/eigenutil.h</text>
</a>
</g>
</g>
<!-- Node0&#45;&gt;Node22 -->
<g id="edge30" class="edge"><title>Node0&#45;&gt;Node22</title>
<path fill="none" stroke="midnightblue" d="M802.747,-230.496C860.747,-220.017 962.382,-201.653 1025.01,-190.336"/>
<polygon fill="midnightblue" stroke="midnightblue" points="1025.88,-193.737 1035.09,-188.515 1024.63,-186.849 1025.88,-193.737"/>
</g>
<!-- Node25 -->
<g id="node26" class="node"><title>Node25</title>
<g id="a_node26"><a xlink:href="fmt_8h.html" target="_top" xlink:title="Utilities for formatting strings. ">
<polygon fill="none" stroke="black" points="379.648,-170.5 379.648,-188.5 501.253,-188.5 501.253,-170.5 379.648,-170.5"/>
<text text-anchor="middle" x="440.451" y="-176.5" font-family="Helvetica,sans-Serif" font-size="10.00">tomographer/tools/fmt.h</text>
</a>
</g>
</g>
<!-- Node0&#45;&gt;Node25 -->
<g id="edge36" class="edge"><title>Node0&#45;&gt;Node25</title>
<path fill="none" stroke="midnightblue" d="M714.568,-230.496C657.111,-220.017 556.425,-201.653 494.382,-190.336"/>
<polygon fill="midnightblue" stroke="midnightblue" points="494.859,-186.866 484.393,-188.515 493.603,-193.752 494.859,-186.866"/>
</g>
<!-- Node29 -->
<g id="node30" class="node"><title>Node29</title>
<g id="a_node30"><a xlink:href="pos__semidef__util_8h.html" target="_top" xlink:title="Tools for dealing with positive semidefinite matrices. ">
<polygon fill="none" stroke="black" points="824.035,-165.5 824.035,-193.5 942.867,-193.5 942.867,-165.5 824.035,-165.5"/>
<text text-anchor="start" x="832.035" y="-181.5" font-family="Helvetica,sans-Serif" font-size="10.00">tomographer/mathtools</text>
<text text-anchor="middle" x="883.451" y="-171.5" font-family="Helvetica,sans-Serif" font-size="10.00">/pos_semidef_util.h</text>
</a>
</g>
</g>
<!-- Node0&#45;&gt;Node29 -->
<g id="edge45" class="edge"><title>Node0&#45;&gt;Node29</title>
<path fill="none" stroke="midnightblue" d="M775.831,-230.435C793.873,-222.064 822.655,-208.709 845.916,-197.916"/>
<polygon fill="midnightblue" stroke="midnightblue" points="847.576,-201.004 855.174,-193.62 844.63,-194.654 847.576,-201.004"/>
</g>
<!-- Node14&#45;&gt;Node3 -->
<g id="edge19" class="edge"><title>Node14&#45;&gt;Node3</title>
<path fill="none" stroke="midnightblue" d="M730.256,-112.085C799.156,-105.08 909.117,-92.5614 1013.68,-73.9499"/>
<polygon fill="midnightblue" stroke="midnightblue" points="1014.56,-77.3479 1023.78,-72.1298 1013.32,-70.4588 1014.56,-77.3479"/>
</g>
<!-- Node14&#45;&gt;Node7 -->
<g id="edge18" class="edge"><title>Node14&#45;&gt;Node7</title>
<path fill="none" stroke="midnightblue" d="M594.485,-110.964C515.247,-102.163 380.342,-87.1347 264.451,-74 252.645,-72.662 239.782,-71.1896 228.141,-69.8516"/>
<polygon fill="midnightblue" stroke="midnightblue" points="228.194,-66.3347 217.86,-68.6683 227.394,-73.2888 228.194,-66.3347"/>
</g>
<!-- Node14&#45;&gt;Node8 -->
<g id="edge22" class="edge"><title>Node14&#45;&gt;Node8</title>
<path fill="none" stroke="midnightblue" d="M697.383,-110.45C739.265,-100.799 809.277,-84.6662 853.05,-74.5794"/>
<polygon fill="midnightblue" stroke="midnightblue" points="854.085,-77.9326 863.044,-72.2764 852.513,-71.1114 854.085,-77.9326"/>
</g>
<!-- Node14&#45;&gt;Node13 -->
<g id="edge29" class="edge"><title>Node14&#45;&gt;Node13</title>
<path fill="none" stroke="midnightblue" d="M714.172,-110.464C765.999,-102.288 848.325,-88.9657 928.701,-74.2724"/>
<polygon fill="midnightblue" stroke="midnightblue" points="929.798,-77.6295 939.001,-72.3799 928.533,-70.7448 929.798,-77.6295"/>
</g>
<!-- Node15 -->
<g id="node16" class="node"><title>Node15</title>
<polygon fill="none" stroke="#bfbfbf" points="753.335,-0.5 753.335,-18.5 801.566,-18.5 801.566,-0.5 753.335,-0.5"/>
<text text-anchor="middle" x="777.451" y="-6.5" font-family="Helvetica,sans-Serif" font-size="10.00">cassert</text>
</g>
<!-- Node14&#45;&gt;Node15 -->
<g id="edge15" class="edge"><title>Node14&#45;&gt;Node15</title>
<path fill="none" stroke="midnightblue" d="M730.242,-111.931C754.533,-105.924 779.568,-94.7234 794.451,-74 804.308,-60.2751 797.076,-41.1849 789.225,-27.5267"/>
<polygon fill="midnightblue" stroke="midnightblue" points="791.941,-25.2732 783.635,-18.6959 786.027,-29.0173 791.941,-25.2732"/>
</g>
<!-- Node16 -->
<g id="node17" class="node"><title>Node16</title>
<polygon fill="none" stroke="#bfbfbf" points="465.33,-0.5 465.33,-18.5 513.571,-18.5 513.571,-0.5 465.33,-0.5"/>
<text text-anchor="middle" x="489.451" y="-6.5" font-family="Helvetica,sans-Serif" font-size="10.00">cstddef</text>
</g>
<!-- Node14&#45;&gt;Node16 -->
<g id="edge16" class="edge"><title>Node14&#45;&gt;Node16</title>
<path fill="none" stroke="midnightblue" d="M611.113,-110.472C555.009,-101.177 471.797,-85.655 462.451,-74 451.031,-59.7598 462.771,-39.9747 474.147,-26.2906"/>
<polygon fill="midnightblue" stroke="midnightblue" points="476.912,-28.4488 480.972,-18.6628 471.696,-23.781 476.912,-28.4488"/>
</g>
<!-- Node17 -->
<g id="node18" class="node"><title>Node17</title>
<polygon fill="none" stroke="#bfbfbf" points="577.278,-0.5 577.278,-18.5 621.623,-18.5 621.623,-0.5 577.278,-0.5"/>
<text text-anchor="middle" x="599.451" y="-6.5" font-family="Helvetica,sans-Serif" font-size="10.00">cstdlib</text>
</g>
<!-- Node14&#45;&gt;Node17 -->
<g id="edge17" class="edge"><title>Node14&#45;&gt;Node17</title>
<path fill="none" stroke="midnightblue" d="M709.477,-110.445C750.742,-101.289 800.935,-83.7584 778.451,-55 760.61,-32.181 678.594,-19.3904 632.014,-13.8502"/>
<polygon fill="midnightblue" stroke="midnightblue" points="632.154,-10.3434 621.821,-12.6861 631.36,-17.2982 632.154,-10.3434"/>
</g>
<!-- Node18 -->
<g id="node19" class="node"><title>Node18</title>
<polygon fill="none" stroke="#bfbfbf" points="631.384,-55.5 631.384,-73.5 693.517,-73.5 693.517,-55.5 631.384,-55.5"/>
<text text-anchor="middle" x="662.451" y="-61.5" font-family="Helvetica,sans-Serif" font-size="10.00">type_traits</text>
</g>
<!-- Node14&#45;&gt;Node18 -->
<g id="edge20" class="edge"><title>Node14&#45;&gt;Node18</title>
<path fill="none" stroke="midnightblue" d="M662.451,-110.219C662.451,-103.177 662.451,-92.8083 662.451,-83.8277"/>
<polygon fill="midnightblue" stroke="midnightblue" points="665.951,-83.5495 662.451,-73.5496 658.951,-83.5496 665.951,-83.5495"/>
</g>
<!-- Node19 -->
<g id="node20" class="node"><title>Node19</title>
<polygon fill="none" stroke="#bfbfbf" points="711.047,-55.5 711.047,-73.5 769.854,-73.5 769.854,-55.5 711.047,-55.5"/>
<text text-anchor="middle" x="740.451" y="-61.5" font-family="Helvetica,sans-Serif" font-size="10.00">exception</text>
</g>
<!-- Node14&#45;&gt;Node19 -->
<g id="edge21" class="edge"><title>Node14&#45;&gt;Node19</title>
<path fill="none" stroke="midnightblue" d="M674.297,-110.45C686.438,-102.201 705.548,-89.2158 720.114,-79.3187"/>
<polygon fill="midnightblue" stroke="midnightblue" points="722.189,-82.1405 728.493,-73.6253 718.254,-76.3506 722.189,-82.1405"/>
</g>
<!-- Node20 -->
<g id="node21" class="node"><title>Node20</title>
<g id="a_node21"><a xlink:href="cxxdefs_8h.html" target="_top" xlink:title="Basic definitions, which may have to be defined before any Eigen headers or further utilities are inc...">
<polygon fill="none" stroke="black" points="471.641,-55.5 471.641,-73.5 613.261,-73.5 613.261,-55.5 471.641,-55.5"/>
<text text-anchor="middle" x="542.451" y="-61.5" font-family="Helvetica,sans-Serif" font-size="10.00">tomographer/tools/cxxdefs.h</text>
</a>
</g>
</g>
<!-- Node14&#45;&gt;Node20 -->
<g id="edge23" class="edge"><title>Node14&#45;&gt;Node20</title>
<path fill="none" stroke="midnightblue" d="M644.225,-110.45C624.49,-101.734 592.784,-87.7306 570.003,-77.6691"/>
<polygon fill="midnightblue" stroke="midnightblue" points="571.409,-74.4639 560.848,-73.6253 568.581,-80.8672 571.409,-74.4639"/>
</g>
<!-- Node21 -->
<g id="node22" class="node"><title>Node21</title>
<g id="a_node22"><a xlink:href="conststr_8h.html" target="_top" xlink:title="A constexpr string type, suitable for basic compile&#45;time string processing. ">
<polygon fill="none" stroke="black" points="273.36,-55.5 273.36,-73.5 415.542,-73.5 415.542,-55.5 273.36,-55.5"/>
<text text-anchor="middle" x="344.451" y="-61.5" font-family="Helvetica,sans-Serif" font-size="10.00">tomographer/tools/conststr.h</text>
</a>
</g>
</g>
<!-- Node14&#45;&gt;Node21 -->
<g id="edge27" class="edge"><title>Node14&#45;&gt;Node21</title>
<path fill="none" stroke="midnightblue" d="M614.153,-110.45C557.488,-101.006 463.582,-85.3553 402.87,-75.2366"/>
<polygon fill="midnightblue" stroke="midnightblue" points="403.12,-71.73 392.681,-73.5383 401.969,-78.6348 403.12,-71.73"/>
</g>
<!-- Node20&#45;&gt;Node15 -->
<g id="edge24" class="edge"><title>Node20&#45;&gt;Node15</title>
<path fill="none" stroke="midnightblue" d="M578.142,-55.4504C622.956,-45.3435 699.288,-28.1281 743.344,-18.1921"/>
<polygon fill="midnightblue" stroke="midnightblue" points="744.299,-21.5646 753.284,-15.9503 742.759,-14.7362 744.299,-21.5646"/>
</g>
<!-- Node20&#45;&gt;Node16 -->
<g id="edge25" class="edge"><title>Node20&#45;&gt;Node16</title>
<path fill="none" stroke="midnightblue" d="M534.169,-55.2188C526.345,-47.3944 514.414,-35.4631 504.843,-25.8921"/>
<polygon fill="midnightblue" stroke="midnightblue" points="507.046,-23.1458 497.5,-18.5496 502.096,-28.0955 507.046,-23.1458"/>
</g>
<!-- Node20&#45;&gt;Node17 -->
<g id="edge26" class="edge"><title>Node20&#45;&gt;Node17</title>
<path fill="none" stroke="midnightblue" d="M551.357,-55.2188C559.856,-47.3162 572.861,-35.2241 583.205,-25.6057"/>
<polygon fill="midnightblue" stroke="midnightblue" points="585.854,-27.9222 590.794,-18.5496 581.087,-22.7958 585.854,-27.9222"/>
</g>
<!-- Node21&#45;&gt;Node4 -->
<g id="edge28" class="edge"><title>Node21&#45;&gt;Node4</title>
<path fill="none" stroke="midnightblue" d="M329.415,-55.4504C313.497,-46.9286 288.139,-33.3532 269.451,-23.3487"/>
<polygon fill="midnightblue" stroke="midnightblue" points="271.096,-20.2595 260.628,-18.6253 267.792,-26.4308 271.096,-20.2595"/>
</g>
<!-- Node22&#45;&gt;Node3 -->
<g id="edge31" class="edge"><title>Node22&#45;&gt;Node3</title>
<path fill="none" stroke="midnightblue" d="M1077.37,-170.373C1072.72,-152.293 1061.45,-108.379 1055.07,-83.4889"/>
<polygon fill="midnightblue" stroke="midnightblue" points="1058.39,-82.3691 1052.52,-73.553 1051.61,-84.1092 1058.39,-82.3691"/>
</g>
<!-- Node22&#45;&gt;Node5 -->
<g id="edge32" class="edge"><title>Node22&#45;&gt;Node5</title>
<path fill="none" stroke="midnightblue" d="M1113.68,-170.451C1151.8,-161.404 1215.48,-146.044 1278.78,-129.384"/>
<polygon fill="midnightblue" stroke="midnightblue" points="1279.75,-132.748 1288.52,-126.808 1277.96,-125.981 1279.75,-132.748"/>
</g>
<!-- Node22&#45;&gt;Node13 -->
<g id="edge33" class="edge"><title>Node22&#45;&gt;Node13</title>
<path fill="none" stroke="midnightblue" d="M1071.76,-170.373C1054.02,-151.641 1010.02,-105.18 987.009,-80.8744"/>
<polygon fill="midnightblue" stroke="midnightblue" points="989.493,-78.4078 980.076,-73.553 984.41,-83.2208 989.493,-78.4078"/>
</g>
<!-- Node23 -->
<g id="node24" class="node"><title>Node23</title>
<polygon fill="none" stroke="#bfbfbf" points="1092.82,-110.5 1092.82,-128.5 1166.08,-128.5 1166.08,-110.5 1092.82,-110.5"/>
<text text-anchor="middle" x="1129.45" y="-116.5" font-family="Helvetica,sans-Serif" font-size="10.00">Eigen/Dense</text>
</g>
<!-- Node22&#45;&gt;Node23 -->
<g id="edge34" class="edge"><title>Node22&#45;&gt;Node23</title>
<path fill="none" stroke="midnightblue" d="M1086.4,-170.435C1093.93,-161.704 1106.13,-147.552 1115.62,-136.54"/>
<polygon fill="midnightblue" stroke="midnightblue" points="1118.36,-138.731 1122.23,-128.872 1113.05,-134.161 1118.36,-138.731"/>
</g>
<!-- Node24 -->
<g id="node25" class="node"><title>Node24</title>
<polygon fill="none" stroke="#bfbfbf" points="1183.59,-110.5 1183.59,-128.5 1271.31,-128.5 1271.31,-110.5 1183.59,-110.5"/>
<text text-anchor="middle" x="1227.45" y="-116.5" font-family="Helvetica,sans-Serif" font-size="10.00">Eigen/StdVector</text>
</g>
<!-- Node22&#45;&gt;Node24 -->
<g id="edge35" class="edge"><title>Node22&#45;&gt;Node24</title>
<path fill="none" stroke="midnightblue" d="M1100.03,-170.435C1125.18,-160.579 1167.96,-143.813 1196.95,-132.455"/>
<polygon fill="midnightblue" stroke="midnightblue" points="1198.54,-135.591 1206.57,-128.683 1195.98,-129.073 1198.54,-135.591"/>
</g>
<!-- Node25&#45;&gt;Node4 -->
<g id="edge40" class="edge"><title>Node25&#45;&gt;Node4</title>
<path fill="none" stroke="midnightblue" d="M440.693,-170.419C440.657,-156.087 438.402,-126.202 421.451,-110 369.7,-60.5352 316.698,-122.941 264.451,-74 252.125,-62.4543 247.687,-43.276 246.144,-29.0115"/>
<polygon fill="midnightblue" stroke="midnightblue" points="249.624,-28.5952 245.432,-18.8648 242.641,-29.0854 249.624,-28.5952"/>
</g>
<!-- Node25&#45;&gt;Node7 -->
<g id="edge42" class="edge"><title>Node25&#45;&gt;Node7</title>
<path fill="none" stroke="midnightblue" d="M379.304,-176.274C334.46,-171.924 274.043,-160.126 230.451,-129 214.409,-117.546 203.359,-97.4544 197.002,-82.9336"/>
<polygon fill="midnightblue" stroke="midnightblue" points="200.198,-81.5015 193.199,-73.548 193.71,-84.1304 200.198,-81.5015"/>
</g>
<!-- Node25&#45;&gt;Node9 -->
<g id="edge41" class="edge"><title>Node25&#45;&gt;Node9</title>
<path fill="none" stroke="midnightblue" d="M447.959,-170.435C456.168,-161.619 469.523,-147.274 479.818,-136.217"/>
<polygon fill="midnightblue" stroke="midnightblue" points="482.404,-138.576 486.656,-128.872 477.28,-133.806 482.404,-138.576"/>
</g>
<!-- Node25&#45;&gt;Node11 -->
<g id="edge43" class="edge"><title>Node25&#45;&gt;Node11</title>
<path fill="none" stroke="midnightblue" d="M456.719,-170.435C476.168,-160.794 508.953,-144.542 531.819,-133.206"/>
<polygon fill="midnightblue" stroke="midnightblue" points="533.538,-136.261 540.943,-128.683 530.429,-129.989 533.538,-136.261"/>
</g>
<!-- Node25&#45;&gt;Node14 -->
<g id="edge44" class="edge"><title>Node25&#45;&gt;Node14</title>
<path fill="none" stroke="midnightblue" d="M471.319,-170.435C510.474,-160.206 578.115,-142.534 621.538,-131.189"/>
<polygon fill="midnightblue" stroke="midnightblue" points="622.697,-134.504 631.488,-128.589 620.928,-127.731 622.697,-134.504"/>
</g>
<!-- Node26 -->
<g id="node27" class="node"><title>Node26</title>
<polygon fill="none" stroke="#bfbfbf" points="239.389,-110.5 239.389,-128.5 281.512,-128.5 281.512,-110.5 239.389,-110.5"/>
<text text-anchor="middle" x="260.451" y="-116.5" font-family="Helvetica,sans-Serif" font-size="10.00">cstdio</text>
</g>
<!-- Node25&#45;&gt;Node26 -->
<g id="edge37" class="edge"><title>Node25&#45;&gt;Node26</title>
<path fill="none" stroke="midnightblue" d="M415.422,-170.435C382.98,-159.982 326.418,-141.756 291.339,-130.453"/>
<polygon fill="midnightblue" stroke="midnightblue" points="292.214,-127.058 281.623,-127.322 290.067,-133.72 292.214,-127.058"/>
</g>
<!-- Node27 -->
<g id="node28" class="node"><title>Node27</title>
<polygon fill="none" stroke="#bfbfbf" points="299.054,-110.5 299.054,-128.5 347.847,-128.5 347.847,-110.5 299.054,-110.5"/>
<text text-anchor="middle" x="323.451" y="-116.5" font-family="Helvetica,sans-Serif" font-size="10.00">cstdarg</text>
</g>
<!-- Node25&#45;&gt;Node27 -->
<g id="edge38" class="edge"><title>Node25&#45;&gt;Node27</title>
<path fill="none" stroke="midnightblue" d="M424.182,-170.435C404.733,-160.794 371.949,-144.542 349.083,-133.206"/>
<polygon fill="midnightblue" stroke="midnightblue" points="350.472,-129.989 339.958,-128.683 347.363,-136.261 350.472,-129.989"/>
</g>
<!-- Node28 -->
<g id="node29" class="node"><title>Node28</title>
<polygon fill="none" stroke="#bfbfbf" points="366.163,-110.5 366.163,-128.5 412.739,-128.5 412.739,-110.5 366.163,-110.5"/>
<text text-anchor="middle" x="389.451" y="-116.5" font-family="Helvetica,sans-Serif" font-size="10.00">chrono</text>
</g>
<!-- Node25&#45;&gt;Node28 -->
<g id="edge39" class="edge"><title>Node25&#45;&gt;Node28</title>
<path fill="none" stroke="midnightblue" d="M433.359,-170.435C425.682,-161.704 413.238,-147.552 403.554,-136.54"/>
<polygon fill="midnightblue" stroke="midnightblue" points="406.044,-134.07 396.812,-128.872 400.787,-138.693 406.044,-134.07"/>
</g>
<!-- Node29&#45;&gt;Node13 -->
<g id="edge46" class="edge"><title>Node29&#45;&gt;Node13</title>
<path fill="none" stroke="midnightblue" d="M897.662,-165.301C907.644,-155.693 921.022,-142.119 931.451,-129 943.294,-114.102 954.877,-95.7038 962.694,-82.5528"/>
<polygon fill="midnightblue" stroke="midnightblue" points="965.864,-84.0652 967.879,-73.6638 959.817,-80.5381 965.864,-84.0652"/>
</g>
<!-- Node29&#45;&gt;Node14 -->
<g id="edge48" class="edge"><title>Node29&#45;&gt;Node14</title>
<path fill="none" stroke="midnightblue" d="M833.854,-165.484C794.42,-155.134 739.936,-140.836 703.063,-131.158"/>
<polygon fill="midnightblue" stroke="midnightblue" points="703.718,-127.712 693.157,-128.559 701.941,-134.483 703.718,-127.712"/>
</g>
<!-- Node30 -->
<g id="node31" class="node"><title>Node30</title>
<polygon fill="none" stroke="#bfbfbf" points="824.032,-110.5 824.032,-128.5 922.869,-128.5 922.869,-110.5 824.032,-110.5"/>
<text text-anchor="middle" x="873.451" y="-116.5" font-family="Helvetica,sans-Serif" font-size="10.00">Eigen/Eigenvalues</text>
</g>
<!-- Node29&#45;&gt;Node30 -->
<g id="edge47" class="edge"><title>Node29&#45;&gt;Node30</title>
<path fill="none" stroke="midnightblue" d="M881.182,-165.339C879.82,-157.443 878.069,-147.287 876.578,-138.638"/>
<polygon fill="midnightblue" stroke="midnightblue" points="880.025,-138.031 874.877,-128.771 873.127,-139.221 880.025,-138.031"/>
</g>
</g>
</svg>
