<?xml version="1.0" encoding="UTF-8" standalone="no"?>
<!DOCTYPE svg PUBLIC "-//W3C//DTD SVG 1.1//EN"
 "http://www.w3.org/Graphics/SVG/1.1/DTD/svg11.dtd">
<!-- Generated by graphviz version 2.38.0 (20140413.2041)
 -->
<!-- Title: tomographer/tools/fmt.h Pages: 1 -->
<svg width="1622pt" height="342pt"
 viewBox="0.00 0.00 1621.67 342.00" xmlns="http://www.w3.org/2000/svg" xmlns:xlink="http://www.w3.org/1999/xlink">
<g id="graph0" class="graph" transform="scale(1 1) rotate(0) translate(4 338)">
<title>tomographer/tools/fmt.h</title>
<!-- Node19 -->
<g id="node1" class="node"><title>Node19</title>
<polygon fill="#bfbfbf" stroke="black" points="631.505,-315.5 631.505,-333.5 753.11,-333.5 753.11,-315.5 631.505,-315.5"/>
<text text-anchor="middle" x="692.308" y="-321.5" font-family="Helvetica,sans-Serif" font-size="10.00">tomographer/tools/fmt.h</text>
</g>
<!-- Node20 -->
<g id="node2" class="node"><title>Node20</title>
<g id="a_node2"><a xlink:href="indepmeasllh_8h.html" target="_top" xlink:title="C++ types and functions for calculating the log&#45;likelihood for independent measurements. ">
<polygon fill="none" stroke="black" points="0,-250.5 0,-278.5 116.615,-278.5 116.615,-250.5 0,-250.5"/>
<text text-anchor="start" x="8" y="-266.5" font-family="Helvetica,sans-Serif" font-size="10.00">tomographer/densedm</text>
<text text-anchor="middle" x="58.3076" y="-256.5" font-family="Helvetica,sans-Serif" font-size="10.00">/indepmeasllh.h</text>
</a>
</g>
</g>
<!-- Node19&#45;&gt;Node20 -->
<g id="edge1" class="edge"><title>Node19&#45;&gt;Node20</title>
<path fill="none" stroke="midnightblue" d="M621.355,-320.305C514.502,-314.948 306.067,-302.369 130.308,-279 125.895,-278.413 121.343,-277.735 116.773,-277"/>
<polygon fill="midnightblue" stroke="midnightblue" points="621.213,-323.803 631.374,-320.802 621.56,-316.811 621.213,-323.803"/>
</g>
<!-- Node21 -->
<g id="node3" class="node"><title>Node21</title>
<g id="a_node3"><a xlink:href="histogram_8h.html" target="_top" xlink:title="Definitions for Histogram Types. ">
<polygon fill="none" stroke="black" points="290.446,-255.5 290.446,-273.5 418.169,-273.5 418.169,-255.5 290.446,-255.5"/>
<text text-anchor="middle" x="354.308" y="-261.5" font-family="Helvetica,sans-Serif" font-size="10.00">tomographer/histogram.h</text>
</a>
</g>
</g>
<!-- Node19&#45;&gt;Node21 -->
<g id="edge2" class="edge"><title>Node19&#45;&gt;Node21</title>
<path fill="none" stroke="midnightblue" d="M635.461,-313.745C569.578,-302.44 462.243,-284.021 401.014,-273.515"/>
<polygon fill="midnightblue" stroke="midnightblue" points="635.217,-317.254 645.665,-315.496 636.401,-310.355 635.217,-317.254"/>
</g>
<!-- Node24 -->
<g id="node6" class="node"><title>Node24</title>
<g id="a_node6"><a xlink:href="mhrwtasks_8h.html" target="_top" xlink:title="Multiprocessing tasks interface (see Multiprocessing Task Interfaces) for parallel Metropolis&#45;Hasting...">
<polygon fill="none" stroke="black" points="315.507,-70.5 315.507,-88.5 447.108,-88.5 447.108,-70.5 315.507,-70.5"/>
<text text-anchor="middle" x="381.308" y="-76.5" font-family="Helvetica,sans-Serif" font-size="10.00">tomographer/mhrwtasks.h</text>
</a>
</g>
</g>
<!-- Node19&#45;&gt;Node24 -->
<g id="edge10" class="edge"><title>Node19&#45;&gt;Node24</title>
<path fill="none" stroke="midnightblue" d="M621.213,-322.747C519.153,-320.511 337.239,-311.876 281.308,-279 221.992,-244.135 197.451,-184.606 239.308,-130 257.414,-106.378 287.553,-93.9787 315.418,-87.4908"/>
<polygon fill="midnightblue" stroke="midnightblue" points="621.368,-326.251 631.437,-322.955 621.511,-319.252 621.368,-326.251"/>
</g>
<!-- Node25 -->
<g id="node7" class="node"><title>Node25</title>
<g id="a_node7"><a xlink:href="mhrw_8h.html" target="_top" xlink:title="Routines for performing a Metropolis&#45;Hastings random walk. ">
<polygon fill="none" stroke="black" points="749.451,-130.5 749.451,-148.5 857.165,-148.5 857.165,-130.5 749.451,-130.5"/>
<text text-anchor="middle" x="803.308" y="-136.5" font-family="Helvetica,sans-Serif" font-size="10.00">tomographer/mhrw.h</text>
</a>
</g>
</g>
<!-- Node19&#45;&gt;Node25 -->
<g id="edge7" class="edge"><title>Node19&#45;&gt;Node25</title>
<path fill="none" stroke="midnightblue" d="M763.399,-323.14C867.42,-321.378 1066.73,-313.312 1232.31,-279 1320.52,-260.72 1371.8,-287.208 1424.31,-214 1431.82,-203.526 1433.09,-194.434 1424.31,-185 1386.08,-143.935 1001.38,-140.209 857.356,-140.267"/>
<polygon fill="midnightblue" stroke="midnightblue" points="763.274,-319.641 753.329,-323.296 763.382,-326.64 763.274,-319.641"/>
</g>
<!-- Node27 -->
<g id="node9" class="node"><title>Node27</title>
<g id="a_node9"><a xlink:href="multiproc_8h.html" target="_top" xlink:title="Some common definitions for multiprocessing interfaces. ">
<polygon fill="none" stroke="black" points="1099.12,-255.5 1099.12,-273.5 1223.5,-273.5 1223.5,-255.5 1099.12,-255.5"/>
<text text-anchor="middle" x="1161.31" y="-261.5" font-family="Helvetica,sans-Serif" font-size="10.00">tomographer/multiproc.h</text>
</a>
</g>
</g>
<!-- Node19&#45;&gt;Node27 -->
<g id="edge11" class="edge"><title>Node19&#45;&gt;Node27</title>
<path fill="none" stroke="midnightblue" d="M763.133,-314.741C854.527,-303.439 1012.09,-283.953 1099.09,-273.194"/>
<polygon fill="midnightblue" stroke="midnightblue" points="762.635,-311.276 753.14,-315.977 763.494,-318.223 762.635,-311.276"/>
</g>
<!-- Node31 -->
<g id="node13" class="node"><title>Node31</title>
<g id="a_node13"><a xlink:href="ezmatio_8h.html" target="_top" xlink:title="Utilities for reading MATLAB &quot;*.mat&quot; data files. See Tomographer::MAT. ">
<polygon fill="none" stroke="black" points="1470.94,-255.5 1470.94,-273.5 1613.67,-273.5 1613.67,-255.5 1470.94,-255.5"/>
<text text-anchor="middle" x="1542.31" y="-261.5" font-family="Helvetica,sans-Serif" font-size="10.00">tomographer/tools/ezmatio.h</text>
</a>
</g>
</g>
<!-- Node19&#45;&gt;Node31 -->
<g id="edge16" class="edge"><title>Node19&#45;&gt;Node31</title>
<path fill="none" stroke="midnightblue" d="M763.712,-321.715C899.257,-317.802 1203.04,-306.518 1457.31,-279 1470.23,-277.601 1484.19,-275.594 1496.98,-273.554"/>
<polygon fill="midnightblue" stroke="midnightblue" points="763.361,-318.223 753.464,-322.006 763.56,-325.221 763.361,-318.223"/>
</g>
<!-- Node32 -->
<g id="node14" class="node"><title>Node32</title>
<g id="a_node14"><a xlink:href="loggers_8h.html" target="_top" xlink:title="Utilities for logging messages. ">
<polygon fill="none" stroke="black" points="622.049,-255.5 622.049,-273.5 762.566,-273.5 762.566,-255.5 622.049,-255.5"/>
<text text-anchor="middle" x="692.308" y="-261.5" font-family="Helvetica,sans-Serif" font-size="10.00">tomographer/tools/loggers.h</text>
</a>
</g>
</g>
<!-- Node19&#45;&gt;Node32 -->
<g id="edge17" class="edge"><title>Node19&#45;&gt;Node32</title>
<path fill="none" stroke="midnightblue" d="M692.308,-305.214C692.308,-294.714 692.308,-282.033 692.308,-273.872"/>
<polygon fill="midnightblue" stroke="midnightblue" points="688.808,-305.435 692.308,-315.435 695.808,-305.435 688.808,-305.435"/>
</g>
<!-- Node22 -->
<g id="node4" class="node"><title>Node22</title>
<g id="a_node4"><a xlink:href="mhrwstatscollectors_8h.html" target="_top" xlink:title="Definitions for MHRWStatsCollector Interface&#39;s. ">
<polygon fill="none" stroke="black" points="248.5,-130.5 248.5,-148.5 420.115,-148.5 420.115,-130.5 248.5,-130.5"/>
<text text-anchor="middle" x="334.308" y="-136.5" font-family="Helvetica,sans-Serif" font-size="10.00">tomographer/mhrwstatscollectors.h</text>
</a>
</g>
</g>
<!-- Node21&#45;&gt;Node22 -->
<g id="edge3" class="edge"><title>Node21&#45;&gt;Node22</title>
<path fill="none" stroke="midnightblue" d="M300.064,-252.466C278.937,-245.233 256.831,-233.368 244.308,-214 237.309,-203.177 237.507,-195.949 244.308,-185 256.08,-166.047 278.58,-154.922 298.137,-148.535"/>
<polygon fill="midnightblue" stroke="midnightblue" points="299.075,-255.823 309.664,-255.473 301.167,-249.144 299.075,-255.823"/>
</g>
<!-- Node23 -->
<g id="node5" class="node"><title>Node23</title>
<g id="a_node5"><a xlink:href="mhrw__valuehist__tasks_8h.html" target="_top" xlink:title="Tasks for collecting a histogram of values during a Metropolis&#45;Hastings random walk. ">
<polygon fill="none" stroke="black" points="214.833,-0.5 214.833,-28.5 359.783,-28.5 359.783,-0.5 214.833,-0.5"/>
<text text-anchor="start" x="222.833" y="-16.5" font-family="Helvetica,sans-Serif" font-size="10.00">tomographer/mhrw_valuehist</text>
<text text-anchor="middle" x="287.308" y="-6.5" font-family="Helvetica,sans-Serif" font-size="10.00">_tasks.h</text>
</a>
</g>
</g>
<!-- Node22&#45;&gt;Node23 -->
<g id="edge4" class="edge"><title>Node22&#45;&gt;Node23</title>
<path fill="none" stroke="midnightblue" d="M322.281,-122.236C316.742,-114.101 310.487,-103.898 306.308,-94 297.035,-72.0401 291.699,-44.6289 289.16,-28.6902"/>
<polygon fill="midnightblue" stroke="midnightblue" points="319.442,-124.284 328.081,-130.417 325.152,-120.235 319.442,-124.284"/>
</g>
<!-- Node22&#45;&gt;Node24 -->
<g id="edge5" class="edge"><title>Node22&#45;&gt;Node24</title>
<path fill="none" stroke="midnightblue" d="M347.256,-122.521C356.083,-111.628 367.418,-97.641 374.524,-88.8718"/>
<polygon fill="midnightblue" stroke="midnightblue" points="344.419,-120.462 340.843,-130.435 349.858,-124.87 344.419,-120.462"/>
</g>
<!-- Node24&#45;&gt;Node23 -->
<g id="edge6" class="edge"><title>Node24&#45;&gt;Node23</title>
<path fill="none" stroke="midnightblue" d="M360.364,-64.4632C344.35,-53.7305 322.436,-39.0433 306.795,-28.5608"/>
<polygon fill="midnightblue" stroke="midnightblue" points="358.763,-67.6038 369.019,-70.2639 362.66,-61.789 358.763,-67.6038"/>
</g>
<!-- Node25&#45;&gt;Node24 -->
<g id="edge9" class="edge"><title>Node25&#45;&gt;Node24</title>
<path fill="none" stroke="midnightblue" d="M739.307,-129.704C657.833,-118.506 518.237,-99.3197 439.595,-88.5111"/>
<polygon fill="midnightblue" stroke="midnightblue" points="739.049,-133.201 749.432,-131.095 740.002,-126.266 739.049,-133.201"/>
</g>
<!-- Node26 -->
<g id="node8" class="node"><title>Node26</title>
<g id="a_node8"><a xlink:href="tspacellhwalker_8h.html" target="_top" xlink:title="Definitions for a Metropolis&#45;Hastings random walk on a quantum state space with dense matrix type...">
<polygon fill="none" stroke="black" points="786,-65.5 786,-93.5 902.615,-93.5 902.615,-65.5 786,-65.5"/>
<text text-anchor="start" x="794" y="-81.5" font-family="Helvetica,sans-Serif" font-size="10.00">tomographer/densedm</text>
<text text-anchor="middle" x="844.308" y="-71.5" font-family="Helvetica,sans-Serif" font-size="10.00">/tspacellhwalker.h</text>
</a>
</g>
</g>
<!-- Node25&#45;&gt;Node26 -->
<g id="edge8" class="edge"><title>Node25&#45;&gt;Node26</title>
<path fill="none" stroke="midnightblue" d="M814.948,-122.034C821.255,-113.112 828.947,-102.23 834.876,-93.8428"/>
<polygon fill="midnightblue" stroke="midnightblue" points="811.923,-120.249 809.008,-130.435 817.639,-124.29 811.923,-120.249"/>
</g>
<!-- Node27&#45;&gt;Node24 -->
<g id="edge12" class="edge"><title>Node27&#45;&gt;Node24</title>
<path fill="none" stroke="midnightblue" d="M1190.31,-251.104C1221.87,-235.964 1264.98,-209.356 1242.31,-185 1204.21,-144.068 795.756,-156.253 740.308,-149 620.297,-133.302 479.814,-102.967 415.997,-88.5224"/>
<polygon fill="midnightblue" stroke="midnightblue" points="1188.58,-248.047 1180.98,-255.419 1191.52,-254.401 1188.58,-248.047"/>
</g>
<!-- Node28 -->
<g id="node10" class="node"><title>Node28</title>
<g id="a_node10"><a xlink:href="multiprocomp_8h.html" target="_top" xlink:title="Multiprocessing with OpenMP parallel multithreading. ">
<polygon fill="none" stroke="black" points="1089.39,-190.5 1089.39,-208.5 1233.23,-208.5 1233.23,-190.5 1089.39,-190.5"/>
<text text-anchor="middle" x="1161.31" y="-196.5" font-family="Helvetica,sans-Serif" font-size="10.00">tomographer/multiprocomp.h</text>
</a>
</g>
</g>
<!-- Node27&#45;&gt;Node28 -->
<g id="edge13" class="edge"><title>Node27&#45;&gt;Node28</title>
<path fill="none" stroke="midnightblue" d="M1161.31,-244.907C1161.31,-232.815 1161.31,-217.653 1161.31,-208.539"/>
<polygon fill="midnightblue" stroke="midnightblue" points="1157.81,-245.264 1161.31,-255.264 1164.81,-245.264 1157.81,-245.264"/>
</g>
<!-- Node29 -->
<g id="node11" class="node"><title>Node29</title>
<g id="a_node11"><a xlink:href="multiprocthreads_8h.html" target="_top" xlink:title="Multiprocessing with native C++11 threads. ">
<polygon fill="none" stroke="black" points="913.438,-190.5 913.438,-208.5 1071.18,-208.5 1071.18,-190.5 913.438,-190.5"/>
<text text-anchor="middle" x="992.308" y="-196.5" font-family="Helvetica,sans-Serif" font-size="10.00">tomographer/multiprocthreads.h</text>
</a>
</g>
</g>
<!-- Node27&#45;&gt;Node29 -->
<g id="edge14" class="edge"><title>Node27&#45;&gt;Node29</title>
<path fill="none" stroke="midnightblue" d="M1130.17,-251.892C1096.42,-239.313 1043.46,-219.57 1013.97,-208.576"/>
<polygon fill="midnightblue" stroke="midnightblue" points="1128.97,-255.179 1139.56,-255.393 1131.41,-248.62 1128.97,-255.179"/>
</g>
<!-- Node30 -->
<g id="node12" class="node"><title>Node30</title>
<g id="a_node12"><a xlink:href="signal__status__report_8h.html" target="_top" xlink:title="Basic common code for intercepting a signal to print status information of a task manager...">
<polygon fill="none" stroke="black" points="1289.55,-185.5 1289.55,-213.5 1415.06,-213.5 1415.06,-185.5 1289.55,-185.5"/>
<text text-anchor="start" x="1297.55" y="-201.5" font-family="Helvetica,sans-Serif" font-size="10.00">tomographer/tools/signal</text>
<text text-anchor="middle" x="1352.31" y="-191.5" font-family="Helvetica,sans-Serif" font-size="10.00">_status_report.h</text>
</a>
</g>
</g>
<!-- Node27&#45;&gt;Node30 -->
<g id="edge15" class="edge"><title>Node27&#45;&gt;Node30</title>
<path fill="none" stroke="midnightblue" d="M1195.54,-252.209C1228.49,-241.339 1278.3,-224.911 1312.89,-213.5"/>
<polygon fill="midnightblue" stroke="midnightblue" points="1194.29,-248.936 1185.89,-255.393 1196.48,-255.584 1194.29,-248.936"/>
</g>
<!-- Node32&#45;&gt;Node22 -->
<g id="edge26" class="edge"><title>Node32&#45;&gt;Node22</title>
<path fill="none" stroke="midnightblue" d="M611.54,-259.544C497.083,-253.098 299.081,-238.525 277.308,-214 257.26,-191.419 296.915,-162.609 319.748,-148.719"/>
<polygon fill="midnightblue" stroke="midnightblue" points="611.49,-263.046 621.668,-260.105 611.877,-256.057 611.49,-263.046"/>
</g>
<!-- Node32&#45;&gt;Node23 -->
<g id="edge25" class="edge"><title>Node32&#45;&gt;Node23</title>
<path fill="none" stroke="midnightblue" d="M611.482,-258.361C496.177,-250.386 295.337,-233.861 268.308,-214 236.48,-190.614 231.52,-168.72 239.308,-130 247.085,-91.3296 268.271,-49.4361 279.722,-28.6882"/>
<polygon fill="midnightblue" stroke="midnightblue" points="611.466,-261.868 621.681,-259.06 611.944,-254.885 611.466,-261.868"/>
</g>
<!-- Node32&#45;&gt;Node25 -->
<g id="edge21" class="edge"><title>Node32&#45;&gt;Node25</title>
<path fill="none" stroke="midnightblue" d="M769.509,-252.677C792.182,-245.504 814.562,-233.63 828.308,-214 842.842,-193.243 822.546,-163.334 810.739,-148.909"/>
<polygon fill="midnightblue" stroke="midnightblue" points="768.44,-249.342 759.798,-255.472 770.376,-256.069 768.44,-249.342"/>
</g>
<!-- Node32&#45;&gt;Node26 -->
<g id="edge18" class="edge"><title>Node32&#45;&gt;Node26</title>
<path fill="none" stroke="midnightblue" d="M770.31,-253.079C797.058,-245.979 825.268,-234.047 845.308,-214 872.513,-186.783 874.296,-167.644 866.308,-130 863.574,-117.121 857.251,-103.524 852.082,-93.8466"/>
<polygon fill="midnightblue" stroke="midnightblue" points="769.414,-249.695 760.54,-255.483 771.086,-256.493 769.414,-249.695"/>
</g>
<!-- Node32&#45;&gt;Node28 -->
<g id="edge27" class="edge"><title>Node32&#45;&gt;Node28</title>
<path fill="none" stroke="midnightblue" d="M771.751,-254.266C850.261,-244.929 973.734,-229.673 1080.31,-214 1091.59,-212.341 1103.73,-210.4 1115.09,-208.516"/>
<polygon fill="midnightblue" stroke="midnightblue" points="770.972,-250.834 761.454,-255.488 771.796,-257.785 770.972,-250.834"/>
</g>
<!-- Node32&#45;&gt;Node29 -->
<g id="edge28" class="edge"><title>Node32&#45;&gt;Node29</title>
<path fill="none" stroke="midnightblue" d="M740.478,-253.384C799.769,-240.933 899.272,-220.037 953.762,-208.595"/>
<polygon fill="midnightblue" stroke="midnightblue" points="739.675,-249.976 730.608,-255.457 741.113,-256.827 739.675,-249.976"/>
</g>
<!-- Node33 -->
<g id="node15" class="node"><title>Node33</title>
<g id="a_node15"><a xlink:href="random__unitary_8h.html" target="_top" xlink:title="Produce a random unitary according to the Haar measure. ">
<polygon fill="none" stroke="black" points="700.892,-185.5 700.892,-213.5 819.724,-213.5 819.724,-185.5 700.892,-185.5"/>
<text text-anchor="start" x="708.892" y="-201.5" font-family="Helvetica,sans-Serif" font-size="10.00">tomographer/mathtools</text>
<text text-anchor="middle" x="760.308" y="-191.5" font-family="Helvetica,sans-Serif" font-size="10.00">/random_unitary.h</text>
</a>
</g>
</g>
<!-- Node32&#45;&gt;Node33 -->
<g id="edge19" class="edge"><title>Node32&#45;&gt;Node33</title>
<path fill="none" stroke="midnightblue" d="M708.775,-248.243C720.222,-237.638 735.319,-223.651 746.21,-213.561"/>
<polygon fill="midnightblue" stroke="midnightblue" points="706.154,-245.9 701.197,-255.264 710.912,-251.035 706.154,-245.9"/>
</g>
<!-- Node34 -->
<g id="node16" class="node"><title>Node34</title>
<g id="a_node16"><a xlink:href="simple__find__zero_8h.html" target="_top" xlink:title="A very simplistic tool for finding a relatively straightforward zero with few iterations. ">
<polygon fill="none" stroke="black" points="285.892,-185.5 285.892,-213.5 404.724,-213.5 404.724,-185.5 285.892,-185.5"/>
<text text-anchor="start" x="293.892" y="-201.5" font-family="Helvetica,sans-Serif" font-size="10.00">tomographer/mathtools</text>
<text text-anchor="middle" x="345.308" y="-191.5" font-family="Helvetica,sans-Serif" font-size="10.00">/simple_find_zero.h</text>
</a>
</g>
</g>
<!-- Node32&#45;&gt;Node34 -->
<g id="edge20" class="edge"><title>Node32&#45;&gt;Node34</title>
<path fill="none" stroke="midnightblue" d="M635.207,-253.72C578.771,-243.971 490,-228.415 413.308,-214 410.587,-213.489 407.806,-212.96 404.998,-212.422"/>
<polygon fill="midnightblue" stroke="midnightblue" points="634.908,-257.22 645.358,-255.471 636.098,-250.322 634.908,-257.22"/>
</g>
<!-- Node35 -->
<g id="node17" class="node"><title>Node35</title>
<g id="a_node17"><a xlink:href="mhrw__bin__err_8h.html" target="_top" xlink:title="Binning Analysis in a Metropolis&#45;Hastings random walk. ">
<polygon fill="none" stroke="black" points="563.894,-185.5 563.894,-213.5 682.721,-213.5 682.721,-185.5 563.894,-185.5"/>
<text text-anchor="start" x="571.894" y="-201.5" font-family="Helvetica,sans-Serif" font-size="10.00">tomographer/mhrw_bin</text>
<text text-anchor="middle" x="623.308" y="-191.5" font-family="Helvetica,sans-Serif" font-size="10.00">_err.h</text>
</a>
</g>
</g>
<!-- Node32&#45;&gt;Node35 -->
<g id="edge22" class="edge"><title>Node32&#45;&gt;Node35</title>
<path fill="none" stroke="midnightblue" d="M675.598,-248.243C663.983,-237.638 648.664,-223.651 637.612,-213.561"/>
<polygon fill="midnightblue" stroke="midnightblue" points="673.542,-251.106 683.287,-255.264 678.262,-245.936 673.542,-251.106"/>
</g>
<!-- Node36 -->
<g id="node18" class="node"><title>Node36</title>
<g id="a_node18"><a xlink:href="boost__test__logger_8h.html" target="_top" xlink:title="Provide a logger class for when using the Boost Unit Test Framework (see Tomographer::Logger::BoostTe...">
<polygon fill="none" stroke="black" points="422.387,-185.5 422.387,-213.5 546.229,-213.5 546.229,-185.5 422.387,-185.5"/>
<text text-anchor="start" x="430.387" y="-201.5" font-family="Helvetica,sans-Serif" font-size="10.00">tomographer/tools/boost</text>
<text text-anchor="middle" x="484.308" y="-191.5" font-family="Helvetica,sans-Serif" font-size="10.00">_test_logger.h</text>
</a>
</g>
</g>
<!-- Node32&#45;&gt;Node36 -->
<g id="edge29" class="edge"><title>Node32&#45;&gt;Node36</title>
<path fill="none" stroke="midnightblue" d="M655.955,-252.489C620.077,-241.623 565.228,-225.01 527.229,-213.5"/>
<polygon fill="midnightblue" stroke="midnightblue" points="654.956,-255.844 665.541,-255.393 656.985,-249.144 654.956,-255.844"/>
</g>
<!-- Node35&#45;&gt;Node22 -->
<g id="edge24" class="edge"><title>Node35&#45;&gt;Node22</title>
<path fill="none" stroke="midnightblue" d="M553.897,-184.57C497.728,-173.297 420.596,-157.817 374.281,-148.522"/>
<polygon fill="midnightblue" stroke="midnightblue" points="553.284,-188.016 563.777,-186.553 554.661,-181.153 553.284,-188.016"/>
</g>
<!-- Node35&#45;&gt;Node25 -->
<g id="edge23" class="edge"><title>Node35&#45;&gt;Node25</title>
<path fill="none" stroke="midnightblue" d="M673.504,-182.326C707.629,-171.33 751.314,-157.254 778.298,-148.559"/>
<polygon fill="midnightblue" stroke="midnightblue" points="672.148,-179.085 663.703,-185.484 674.295,-185.748 672.148,-179.085"/>
</g>
</g>
</svg>
