<?xml version="1.0" encoding="UTF-8" standalone="no"?>
<!DOCTYPE svg PUBLIC "-//W3C//DTD SVG 1.1//EN"
 "http://www.w3.org/Graphics/SVG/1.1/DTD/svg11.dtd">
<!-- Generated by graphviz version 2.38.0 (20140413.2041)
 -->
<!-- Title: tomographer/histogram.h Pages: 1 -->
<!--zoomable 257 -->
<svg id="main" version="1.1" xmlns="http://www.w3.org/2000/svg" xmlns:xlink="http://www.w3.org/1999/xlink" xml:space="preserve" onload="init(evt)">
<style type="text/css"><![CDATA[
.edge:hover path { stroke: red; }
.edge:hover polygon { stroke: red; fill: red; }
]]></style>
<script type="text/javascript"><![CDATA[
var edges = document.getElementsByTagName('g');
if (edges && edges.length) {
  for (var i=0;i<edges.length;i++) {
    if (edges[i].id.substr(0,4)=='edge') {
      edges[i].setAttribute('class','edge');
    }
  }
}
]]></script>
        <defs>
                <circle id="rim" cx="0" cy="0" r="7"/>
                <circle id="rim2" cx="0" cy="0" r="3.5"/>
                <g id="zoomPlus">
                        <use xlink:href="#rim" fill="#404040">
                                <set attributeName="fill" to="#808080" begin="zoomplus.mouseover" end="zoomplus.mouseout"/>
                        </use>
                        <path d="M-4,0h8M0,-4v8" fill="none" stroke="white" stroke-width="1.5" pointer-events="none"/>
                </g>
                <g id="zoomMin">
                        <use xlink:href="#rim" fill="#404040">
                                <set attributeName="fill" to="#808080" begin="zoomminus.mouseover" end="zoomminus.mouseout"/>
                        </use>
                        <path d="M-4,0h8" fill="none" stroke="white" stroke-width="1.5" pointer-events="none"/>
                </g>
                <g id="dirArrow">
                        <path fill="none" stroke="white" stroke-width="1.5" d="M0,-3.0v7 M-2.5,-0.5L0,-3.0L2.5,-0.5"/>
                </g>
               <g id="resetDef">
                       <use xlink:href="#rim2" fill="#404040">
                               <set attributeName="fill" to="#808080" begin="reset.mouseover" end="reset.mouseout"/>
                       </use>
               </g>
        </defs>

<script type="text/javascript">
var viewWidth = 1274;
var viewHeight = 257;
var sectionId = 'dynsection-0';
</script>
<script xlink:href="svgpan.js"/>
<svg id="graph" class="graph">
<g id="viewport">
<title>tomographer/histogram.h</title>
<!-- Node0 -->
<g id="node1" class="node"><title>Node0</title>
<polygon fill="#bfbfbf" stroke="black" points="568.53,-230.5 568.53,-248.5 696.253,-248.5 696.253,-230.5 568.53,-230.5"/>
<text text-anchor="middle" x="632.392" y="-236.5" font-family="Helvetica,sans-Serif" font-size="10.00">tomographer/histogram.h</text>
</g>
<!-- Node1 -->
<g id="node2" class="node"><title>Node1</title>
<polygon fill="none" stroke="#bfbfbf" points="90.7759,-170.5 90.7759,-188.5 134.007,-188.5 134.007,-170.5 90.7759,-170.5"/>
<text text-anchor="middle" x="112.392" y="-176.5" font-family="Helvetica,sans-Serif" font-size="10.00">cmath</text>
</g>
<!-- Node0&#45;&gt;Node1 -->
<g id="edge1" class="edge"><title>Node0&#45;&gt;Node1</title>
<path fill="none" stroke="midnightblue" d="M568.504,-238.024C475.082,-236.118 296.238,-227.874 148.392,-194 145.887,-193.426 143.321,-192.719 140.769,-191.933"/>
<polygon fill="midnightblue" stroke="midnightblue" points="141.752,-188.57 131.157,-188.616 139.468,-195.187 141.752,-188.57"/>
</g>
<!-- Node2 -->
<g id="node3" class="node"><title>Node2</title>
<polygon fill="none" stroke="#bfbfbf" points="428.219,-0.5 428.219,-18.5 472.564,-18.5 472.564,-0.5 428.219,-0.5"/>
<text text-anchor="middle" x="450.392" y="-6.5" font-family="Helvetica,sans-Serif" font-size="10.00">cstdlib</text>
</g>
<!-- Node0&#45;&gt;Node2 -->
<g id="edge2" class="edge"><title>Node0&#45;&gt;Node2</title>
<path fill="none" stroke="midnightblue" d="M621.262,-230.31C589.427,-207.317 494.544,-141.782 405.392,-110 316.195,-78.2026 256.433,-146.396 195.392,-74 189.948,-67.5441 189.958,-61.464 195.392,-55 223.479,-21.5865 355.776,-13.2592 417.953,-11.1861"/>
<polygon fill="midnightblue" stroke="midnightblue" points="418.115,-14.6829 428.006,-10.8854 417.906,-7.68599 418.115,-14.6829"/>
</g>
<!-- Node3 -->
<g id="node4" class="node"><title>Node3</title>
<polygon fill="none" stroke="#bfbfbf" points="0,-110.5 0,-128.5 38.7832,-128.5 38.7832,-110.5 0,-110.5"/>
<text text-anchor="middle" x="19.3916" y="-116.5" font-family="Helvetica,sans-Serif" font-size="10.00">utility</text>
</g>
<!-- Node0&#45;&gt;Node3 -->
<g id="edge3" class="edge"><title>Node0&#45;&gt;Node3</title>
<path fill="none" stroke="midnightblue" d="M568.4,-236.484C461.177,-232.394 250.207,-221.096 181.392,-194 161.624,-186.216 162.054,-175.152 143.392,-165 112.842,-148.382 74.8381,-135.806 49.012,-128.333"/>
<polygon fill="midnightblue" stroke="midnightblue" points="49.6563,-124.878 39.082,-125.537 47.7594,-131.616 49.6563,-124.878"/>
</g>
<!-- Node4 -->
<g id="node5" class="node"><title>Node4</title>
<polygon fill="none" stroke="#bfbfbf" points="94.2192,-55.5 94.2192,-73.5 148.564,-73.5 148.564,-55.5 94.2192,-55.5"/>
<text text-anchor="middle" x="121.392" y="-61.5" font-family="Helvetica,sans-Serif" font-size="10.00">iostream</text>
</g>
<!-- Node0&#45;&gt;Node4 -->
<g id="edge4" class="edge"><title>Node0&#45;&gt;Node4</title>
<path fill="none" stroke="midnightblue" d="M568.424,-230.751C516.479,-223.372 448.368,-210.888 426.392,-194 393.136,-168.445 417.291,-134.695 383.392,-110 302.954,-51.4044 260.248,-92.1052 162.392,-74 161.145,-73.7694 159.878,-73.5307 158.6,-73.2863"/>
<polygon fill="midnightblue" stroke="midnightblue" points="159.195,-69.8364 148.707,-71.3331 157.839,-76.7038 159.195,-69.8364"/>
</g>
<!-- Node5 -->
<g id="node6" class="node"><title>Node5</title>
<polygon fill="none" stroke="#bfbfbf" points="996.882,-170.5 996.882,-188.5 1047.9,-188.5 1047.9,-170.5 996.882,-170.5"/>
<text text-anchor="middle" x="1022.39" y="-176.5" font-family="Helvetica,sans-Serif" font-size="10.00">iomanip</text>
</g>
<!-- Node0&#45;&gt;Node5 -->
<g id="edge5" class="edge"><title>Node0&#45;&gt;Node5</title>
<path fill="none" stroke="midnightblue" d="M696.288,-234.213C766.969,-228.586 883.894,-216.645 982.392,-194 985.367,-193.316 988.433,-192.497 991.482,-191.605"/>
<polygon fill="midnightblue" stroke="midnightblue" points="992.55,-194.939 1001.03,-188.585 990.438,-188.265 992.55,-194.939"/>
</g>
<!-- Node6 -->
<g id="node7" class="node"><title>Node6</title>
<polygon fill="none" stroke="#bfbfbf" points="322.611,-110.5 322.611,-128.5 374.172,-128.5 374.172,-110.5 322.611,-110.5"/>
<text text-anchor="middle" x="348.392" y="-116.5" font-family="Helvetica,sans-Serif" font-size="10.00">sstream</text>
</g>
<!-- Node0&#45;&gt;Node6 -->
<g id="edge6" class="edge"><title>Node0&#45;&gt;Node6</title>
<path fill="none" stroke="midnightblue" d="M568.418,-233.089C506.019,-226.721 416.517,-214.352 388.392,-194 369.855,-180.586 358.986,-155.857 353.367,-138.813"/>
<polygon fill="midnightblue" stroke="midnightblue" points="356.626,-137.494 350.405,-128.918 349.92,-139.502 356.626,-137.494"/>
</g>
<!-- Node7 -->
<g id="node8" class="node"><title>Node7</title>
<polygon fill="none" stroke="#bfbfbf" points="713.99,-55.5 713.99,-73.5 772.793,-73.5 772.793,-55.5 713.99,-55.5"/>
<text text-anchor="middle" x="743.392" y="-61.5" font-family="Helvetica,sans-Serif" font-size="10.00">stdexcept</text>
</g>
<!-- Node0&#45;&gt;Node7 -->
<g id="edge7" class="edge"><title>Node0&#45;&gt;Node7</title>
<path fill="none" stroke="midnightblue" d="M631.604,-230.316C629.941,-208.427 628.287,-147.644 656.392,-110 668.1,-94.3175 686.923,-83.7326 704.07,-76.8356"/>
<polygon fill="midnightblue" stroke="midnightblue" points="705.746,-79.9473 713.906,-73.1902 703.313,-73.3835 705.746,-79.9473"/>
</g>
<!-- Node8 -->
<g id="node9" class="node"><title>Node8</title>
<polygon fill="none" stroke="#bfbfbf" points="790.325,-55.5 790.325,-73.5 852.458,-73.5 852.458,-55.5 790.325,-55.5"/>
<text text-anchor="middle" x="821.392" y="-61.5" font-family="Helvetica,sans-Serif" font-size="10.00">type_traits</text>
</g>
<!-- Node0&#45;&gt;Node8 -->
<g id="edge8" class="edge"><title>Node0&#45;&gt;Node8</title>
<path fill="none" stroke="midnightblue" d="M637.745,-230.21C647.169,-215.965 667.779,-186.319 689.392,-165 724.819,-130.055 772.814,-96.7999 800.097,-78.9777"/>
<polygon fill="midnightblue" stroke="midnightblue" points="802.007,-81.911 808.508,-73.5452 798.209,-76.0309 802.007,-81.911"/>
</g>
<!-- Node9 -->
<g id="node10" class="node"><title>Node9</title>
<polygon fill="none" stroke="#bfbfbf" points="1065.83,-170.5 1065.83,-188.5 1122.96,-188.5 1122.96,-170.5 1065.83,-170.5"/>
<text text-anchor="middle" x="1094.39" y="-176.5" font-family="Helvetica,sans-Serif" font-size="10.00">algorithm</text>
</g>
<!-- Node0&#45;&gt;Node9 -->
<g id="edge9" class="edge"><title>Node0&#45;&gt;Node9</title>
<path fill="none" stroke="midnightblue" d="M696.559,-236.673C780.479,-233.177 931.619,-223.063 1057.39,-194 1060.05,-193.386 1062.77,-192.636 1065.49,-191.807"/>
<polygon fill="midnightblue" stroke="midnightblue" points="1066.73,-195.082 1075.08,-188.561 1064.48,-188.451 1066.73,-195.082"/>
</g>
<!-- Node10 -->
<g id="node11" class="node"><title>Node10</title>
<polygon fill="none" stroke="#bfbfbf" points="1140.86,-165.5 1140.86,-193.5 1251.92,-193.5 1251.92,-165.5 1140.86,-165.5"/>
<text text-anchor="start" x="1148.86" y="-181.5" font-family="Helvetica,sans-Serif" font-size="10.00">boost/math/constants</text>
<text text-anchor="middle" x="1196.39" y="-171.5" font-family="Helvetica,sans-Serif" font-size="10.00">/constants.hpp</text>
</g>
<!-- Node0&#45;&gt;Node10 -->
<g id="edge10" class="edge"><title>Node0&#45;&gt;Node10</title>
<path fill="none" stroke="midnightblue" d="M696.612,-235.237C790.101,-229.945 969.275,-217.76 1130.51,-194.171"/>
<polygon fill="midnightblue" stroke="midnightblue" points="1131.24,-197.602 1140.61,-192.674 1130.21,-190.677 1131.24,-197.602"/>
</g>
<!-- Node11 -->
<g id="node12" class="node"><title>Node11</title>
<polygon fill="none" stroke="#bfbfbf" points="942.377,-55.5 942.377,-73.5 1008.41,-73.5 1008.41,-55.5 942.377,-55.5"/>
<text text-anchor="middle" x="975.392" y="-61.5" font-family="Helvetica,sans-Serif" font-size="10.00">Eigen/Core</text>
</g>
<!-- Node0&#45;&gt;Node11 -->
<g id="edge11" class="edge"><title>Node0&#45;&gt;Node11</title>
<path fill="none" stroke="midnightblue" d="M696.538,-235.008C768.079,-229.966 878.134,-218.424 911.392,-194 930.612,-179.884 956.86,-115.067 968.889,-83.2374"/>
<polygon fill="midnightblue" stroke="midnightblue" points="972.182,-84.4213 972.392,-73.8286 965.622,-81.9787 972.182,-84.4213"/>
</g>
<!-- Node12 -->
<g id="node13" class="node"><title>Node12</title>
<g id="a_node13"><a xlink:href="fmt_8h.html" target="_top" xlink:title="Utilities for formatting strings. ">
<polygon fill="none" stroke="black" points="190.589,-170.5 190.589,-188.5 312.194,-188.5 312.194,-170.5 190.589,-170.5"/>
<text text-anchor="middle" x="251.392" y="-176.5" font-family="Helvetica,sans-Serif" font-size="10.00">tomographer/tools/fmt.h</text>
</a>
</g>
</g>
<!-- Node0&#45;&gt;Node12 -->
<g id="edge12" class="edge"><title>Node0&#45;&gt;Node12</title>
<path fill="none" stroke="midnightblue" d="M579.815,-230.496C510.407,-219.93 388.349,-201.349 314.177,-190.058"/>
<polygon fill="midnightblue" stroke="midnightblue" points="314.453,-186.56 304.04,-188.515 313.399,-193.48 314.453,-186.56"/>
</g>
<!-- Node17 -->
<g id="node18" class="node"><title>Node17</title>
<g id="a_node18"><a xlink:href="cxxutil_8h.html" target="_top" xlink:title="Some C++ utilities, with a tad of C++11 tricks. ">
<polygon fill="none" stroke="black" points="468.641,-110.5 468.641,-128.5 604.143,-128.5 604.143,-110.5 468.641,-110.5"/>
<text text-anchor="middle" x="536.392" y="-116.5" font-family="Helvetica,sans-Serif" font-size="10.00">tomographer/tools/cxxutil.h</text>
</a>
</g>
</g>
<!-- Node0&#45;&gt;Node17 -->
<g id="edge42" class="edge"><title>Node0&#45;&gt;Node17</title>
<path fill="none" stroke="midnightblue" d="M625.793,-230.389C610.105,-211.106 570.339,-162.227 549.534,-136.654"/>
<polygon fill="midnightblue" stroke="midnightblue" points="552.062,-134.216 543.036,-128.667 546.632,-138.633 552.062,-134.216"/>
</g>
<!-- Node24 -->
<g id="node25" class="node"><title>Node24</title>
<g id="a_node25"><a xlink:href="eigenutil_8h.html" target="_top" xlink:title="Basic utilities for dealing with Eigen matrices and other types. ">
<polygon fill="none" stroke="black" points="966.907,-110.5 966.907,-128.5 1111.88,-128.5 1111.88,-110.5 966.907,-110.5"/>
<text text-anchor="middle" x="1039.39" y="-116.5" font-family="Helvetica,sans-Serif" font-size="10.00">tomographer/tools/eigenutil.h</text>
</a>
</g>
</g>
<!-- Node0&#45;&gt;Node24 -->
<g id="edge36" class="edge"><title>Node0&#45;&gt;Node24</title>
<path fill="none" stroke="midnightblue" d="M696.487,-238.822C761.408,-237.011 863.509,-228.204 944.392,-194 961.337,-186.834 1000.06,-154.626 1022.48,-135.303"/>
<polygon fill="midnightblue" stroke="midnightblue" points="1024.94,-137.804 1030.2,-128.607 1020.35,-132.516 1024.94,-137.804"/>
</g>
<!-- Node28 -->
<g id="node29" class="node"><title>Node28</title>
<g id="a_node29"><a xlink:href="needownoperatornew_8h.html" target="_top" xlink:title="Managing the need for specific overrides to operator new() for some types (especially Eigen types) ...">
<polygon fill="none" stroke="black" points="698.715,-170.5 698.715,-188.5 902.068,-188.5 902.068,-170.5 698.715,-170.5"/>
<text text-anchor="middle" x="800.392" y="-176.5" font-family="Helvetica,sans-Serif" font-size="10.00">tomographer/tools/needownoperatornew.h</text>
</a>
</g>
</g>
<!-- Node0&#45;&gt;Node28 -->
<g id="edge43" class="edge"><title>Node0&#45;&gt;Node28</title>
<path fill="none" stroke="midnightblue" d="M655.751,-230.435C684.757,-220.421 734.42,-203.276 767.327,-191.915"/>
<polygon fill="midnightblue" stroke="midnightblue" points="768.65,-195.161 776.96,-188.589 766.365,-188.544 768.65,-195.161"/>
</g>
<!-- Node12&#45;&gt;Node3 -->
<g id="edge19" class="edge"><title>Node12&#45;&gt;Node3</title>
<path fill="none" stroke="midnightblue" d="M218.622,-170.437C179.163,-160.708 110.891,-143.809 52.3916,-129 51.1657,-128.69 49.9144,-128.372 48.6506,-128.05"/>
<polygon fill="midnightblue" stroke="midnightblue" points="49.4841,-124.651 38.9284,-125.561 47.7477,-131.432 49.4841,-124.651"/>
</g>
<!-- Node12&#45;&gt;Node4 -->
<g id="edge18" class="edge"><title>Node12&#45;&gt;Node4</title>
<path fill="none" stroke="midnightblue" d="M258.953,-170.138C270.426,-156.405 289.478,-128.733 275.392,-110 268.23,-100.476 201.722,-83.7778 158.481,-73.7676"/>
<polygon fill="midnightblue" stroke="midnightblue" points="159.102,-70.3192 148.573,-71.4962 157.538,-77.1422 159.102,-70.3192"/>
</g>
<!-- Node12&#45;&gt;Node6 -->
<g id="edge17" class="edge"><title>Node12&#45;&gt;Node6</title>
<path fill="none" stroke="midnightblue" d="M264.879,-170.435C280.716,-160.966 307.217,-145.12 326.118,-133.818"/>
<polygon fill="midnightblue" stroke="midnightblue" points="327.919,-136.819 334.706,-128.683 324.327,-130.811 327.919,-136.819"/>
</g>
<!-- Node13 -->
<g id="node14" class="node"><title>Node13</title>
<polygon fill="none" stroke="#bfbfbf" points="158.33,-110.5 158.33,-128.5 200.453,-128.5 200.453,-110.5 158.33,-110.5"/>
<text text-anchor="middle" x="179.392" y="-116.5" font-family="Helvetica,sans-Serif" font-size="10.00">cstdio</text>
</g>
<!-- Node12&#45;&gt;Node13 -->
<g id="edge13" class="edge"><title>Node12&#45;&gt;Node13</title>
<path fill="none" stroke="midnightblue" d="M241.38,-170.435C230.117,-161.362 211.585,-146.434 197.713,-135.259"/>
<polygon fill="midnightblue" stroke="midnightblue" points="199.767,-132.419 189.784,-128.872 195.376,-137.871 199.767,-132.419"/>
</g>
<!-- Node14 -->
<g id="node15" class="node"><title>Node14</title>
<polygon fill="none" stroke="#bfbfbf" points="217.995,-110.5 217.995,-128.5 266.788,-128.5 266.788,-110.5 217.995,-110.5"/>
<text text-anchor="middle" x="242.392" y="-116.5" font-family="Helvetica,sans-Serif" font-size="10.00">cstdarg</text>
</g>
<!-- Node12&#45;&gt;Node14 -->
<g id="edge14" class="edge"><title>Node12&#45;&gt;Node14</title>
<path fill="none" stroke="midnightblue" d="M250.14,-170.435C248.878,-162.304 246.887,-149.469 245.239,-138.848"/>
<polygon fill="midnightblue" stroke="midnightblue" points="248.683,-138.217 243.691,-128.872 241.766,-139.29 248.683,-138.217"/>
</g>
<!-- Node15 -->
<g id="node16" class="node"><title>Node15</title>
<polygon fill="none" stroke="#bfbfbf" points="94.1035,-110.5 94.1035,-128.5 140.68,-128.5 140.68,-110.5 94.1035,-110.5"/>
<text text-anchor="middle" x="117.392" y="-116.5" font-family="Helvetica,sans-Serif" font-size="10.00">chrono</text>
</g>
<!-- Node12&#45;&gt;Node15 -->
<g id="edge15" class="edge"><title>Node12&#45;&gt;Node15</title>
<path fill="none" stroke="midnightblue" d="M232.759,-170.435C210.186,-160.665 171.928,-144.105 145.702,-132.754"/>
<polygon fill="midnightblue" stroke="midnightblue" points="146.865,-129.443 136.297,-128.683 144.084,-135.867 146.865,-129.443"/>
</g>
<!-- Node16 -->
<g id="node17" class="node"><title>Node16</title>
<polygon fill="none" stroke="#bfbfbf" points="151.165,-0.5 151.165,-18.5 191.618,-18.5 191.618,-0.5 151.165,-0.5"/>
<text text-anchor="middle" x="171.392" y="-6.5" font-family="Helvetica,sans-Serif" font-size="10.00">string</text>
</g>
<!-- Node12&#45;&gt;Node16 -->
<g id="edge16" class="edge"><title>Node12&#45;&gt;Node16</title>
<path fill="none" stroke="midnightblue" d="M216.388,-170.41C170.087,-159.359 93.3666,-139.7 85.3916,-129 65.7373,-102.63 68.2951,-83.0961 85.3916,-55 97.447,-35.1884 121.483,-23.8065 141.087,-17.5223"/>
<polygon fill="midnightblue" stroke="midnightblue" points="142.223,-20.8369 150.848,-14.683 140.268,-14.1155 142.223,-20.8369"/>
</g>
<!-- Node12&#45;&gt;Node17 -->
<g id="edge20" class="edge"><title>Node12&#45;&gt;Node17</title>
<path fill="none" stroke="midnightblue" d="M290.72,-170.496C341.897,-160.081 431.337,-141.879 487.021,-130.547"/>
<polygon fill="midnightblue" stroke="midnightblue" points="487.908,-133.939 497.009,-128.515 486.512,-127.079 487.908,-133.939"/>
</g>
<!-- Node17&#45;&gt;Node2 -->
<g id="edge23" class="edge"><title>Node17&#45;&gt;Node2</title>
<path fill="none" stroke="midnightblue" d="M529.724,-110.324C522.473,-101.418 510.558,-86.7374 500.392,-74 487.59,-57.961 473.097,-39.5232 463.023,-26.6622"/>
<polygon fill="midnightblue" stroke="midnightblue" points="465.748,-24.466 456.829,-18.7473 460.236,-28.7797 465.748,-24.466"/>
</g>
<!-- Node17&#45;&gt;Node4 -->
<g id="edge24" class="edge"><title>Node17&#45;&gt;Node4</title>
<path fill="none" stroke="midnightblue" d="M473.362,-110.45C385.797,-99.2675 230.091,-79.382 158.849,-70.2837"/>
<polygon fill="midnightblue" stroke="midnightblue" points="158.929,-66.7655 148.566,-68.9704 158.042,-73.7091 158.929,-66.7655"/>
</g>
<!-- Node17&#45;&gt;Node7 -->
<g id="edge28" class="edge"><title>Node17&#45;&gt;Node7</title>
<path fill="none" stroke="midnightblue" d="M567.83,-110.45C604.246,-101.127 664.288,-85.7536 703.841,-75.6265"/>
<polygon fill="midnightblue" stroke="midnightblue" points="704.856,-78.9797 713.675,-73.1086 703.119,-72.1984 704.856,-78.9797"/>
</g>
<!-- Node17&#45;&gt;Node8 -->
<g id="edge26" class="edge"><title>Node17&#45;&gt;Node8</title>
<path fill="none" stroke="midnightblue" d="M582.982,-110.462C630.207,-102.22 705.637,-88.7955 779.965,-74.2373"/>
<polygon fill="midnightblue" stroke="midnightblue" points="780.83,-77.6341 789.967,-72.2699 779.479,-70.7657 780.83,-77.6341"/>
</g>
<!-- Node17&#45;&gt;Node11 -->
<g id="edge35" class="edge"><title>Node17&#45;&gt;Node11</title>
<path fill="none" stroke="midnightblue" d="M604.423,-112.711C681.516,-105.739 811.126,-92.7702 931.813,-74.1262"/>
<polygon fill="midnightblue" stroke="midnightblue" points="932.629,-77.5413 941.969,-72.5403 931.549,-70.6251 932.629,-77.5413"/>
</g>
<!-- Node18 -->
<g id="node19" class="node"><title>Node18</title>
<polygon fill="none" stroke="#bfbfbf" points="528.276,-0.5 528.276,-18.5 576.507,-18.5 576.507,-0.5 528.276,-0.5"/>
<text text-anchor="middle" x="552.392" y="-6.5" font-family="Helvetica,sans-Serif" font-size="10.00">cassert</text>
</g>
<!-- Node17&#45;&gt;Node18 -->
<g id="edge21" class="edge"><title>Node17&#45;&gt;Node18</title>
<path fill="none" stroke="midnightblue" d="M528.019,-110.356C516.739,-98.3463 498.987,-75.1312 507.392,-55 512.383,-43.0453 522.322,-32.6629 531.593,-24.9405"/>
<polygon fill="midnightblue" stroke="midnightblue" points="533.987,-27.5132 539.757,-18.6275 529.705,-21.9754 533.987,-27.5132"/>
</g>
<!-- Node19 -->
<g id="node20" class="node"><title>Node19</title>
<polygon fill="none" stroke="#bfbfbf" points="597.271,-0.5 597.271,-18.5 645.512,-18.5 645.512,-0.5 597.271,-0.5"/>
<text text-anchor="middle" x="621.392" y="-6.5" font-family="Helvetica,sans-Serif" font-size="10.00">cstddef</text>
</g>
<!-- Node17&#45;&gt;Node19 -->
<g id="edge22" class="edge"><title>Node17&#45;&gt;Node19</title>
<path fill="none" stroke="midnightblue" d="M604.368,-111.63C628.261,-105.565 652.773,-94.4043 667.392,-74 679.544,-57.0377 660.652,-37.6227 643.536,-24.7732"/>
<polygon fill="midnightblue" stroke="midnightblue" points="645.11,-21.601 634.92,-18.7 641.077,-27.3224 645.11,-21.601"/>
</g>
<!-- Node20 -->
<g id="node21" class="node"><title>Node20</title>
<polygon fill="none" stroke="#bfbfbf" points="870.773,-55.5 870.773,-73.5 924.01,-73.5 924.01,-55.5 870.773,-55.5"/>
<text text-anchor="middle" x="897.392" y="-61.5" font-family="Helvetica,sans-Serif" font-size="10.00">complex</text>
</g>
<!-- Node17&#45;&gt;Node20 -->
<g id="edge25" class="edge"><title>Node17&#45;&gt;Node20</title>
<path fill="none" stroke="midnightblue" d="M604.231,-111.13C667.935,-103.773 766.079,-91.3222 860.686,-73.9605"/>
<polygon fill="midnightblue" stroke="midnightblue" points="861.522,-77.3652 870.716,-72.0988 860.245,-70.4828 861.522,-77.3652"/>
</g>
<!-- Node21 -->
<g id="node22" class="node"><title>Node21</title>
<polygon fill="none" stroke="#bfbfbf" points="363.988,-55.5 363.988,-73.5 422.795,-73.5 422.795,-55.5 363.988,-55.5"/>
<text text-anchor="middle" x="393.392" y="-61.5" font-family="Helvetica,sans-Serif" font-size="10.00">exception</text>
</g>
<!-- Node17&#45;&gt;Node21 -->
<g id="edge27" class="edge"><title>Node17&#45;&gt;Node21</title>
<path fill="none" stroke="midnightblue" d="M514.673,-110.45C490.735,-101.578 452.018,-87.2288 424.781,-77.134"/>
<polygon fill="midnightblue" stroke="midnightblue" points="425.908,-73.8188 415.315,-73.6253 423.475,-80.3825 425.908,-73.8188"/>
</g>
<!-- Node22 -->
<g id="node23" class="node"><title>Node22</title>
<g id="a_node23"><a xlink:href="cxxdefs_8h.html" target="_top" xlink:title="Basic definitions, which may have to be defined before any Eigen headers or further utilities are inc...">
<polygon fill="none" stroke="black" points="516.582,-55.5 516.582,-73.5 658.202,-73.5 658.202,-55.5 516.582,-55.5"/>
<text text-anchor="middle" x="587.392" y="-61.5" font-family="Helvetica,sans-Serif" font-size="10.00">tomographer/tools/cxxdefs.h</text>
</a>
</g>
</g>
<!-- Node17&#45;&gt;Node22 -->
<g id="edge29" class="edge"><title>Node17&#45;&gt;Node22</title>
<path fill="none" stroke="midnightblue" d="M544.36,-110.219C551.889,-102.394 563.371,-90.4631 572.58,-80.8921"/>
<polygon fill="midnightblue" stroke="midnightblue" points="575.234,-83.1821 579.646,-73.5496 570.19,-78.3285 575.234,-83.1821"/>
</g>
<!-- Node23 -->
<g id="node24" class="node"><title>Node23</title>
<g id="a_node24"><a xlink:href="conststr_8h.html" target="_top" xlink:title="A constexpr string type, suitable for basic compile&#45;time string processing. ">
<polygon fill="none" stroke="black" points="204.301,-55.5 204.301,-73.5 346.482,-73.5 346.482,-55.5 204.301,-55.5"/>
<text text-anchor="middle" x="275.392" y="-61.5" font-family="Helvetica,sans-Serif" font-size="10.00">tomographer/tools/conststr.h</text>
</a>
</g>
</g>
<!-- Node17&#45;&gt;Node23 -->
<g id="edge33" class="edge"><title>Node17&#45;&gt;Node23</title>
<path fill="none" stroke="midnightblue" d="M496.751,-110.45C450.723,-101.104 374.759,-85.678 324.893,-75.552"/>
<polygon fill="midnightblue" stroke="midnightblue" points="325.473,-72.0984 314.976,-73.5383 324.08,-78.9584 325.473,-72.0984"/>
</g>
<!-- Node22&#45;&gt;Node2 -->
<g id="edge32" class="edge"><title>Node22&#45;&gt;Node2</title>
<path fill="none" stroke="midnightblue" d="M566.584,-55.4504C543.751,-46.6173 506.884,-32.3546 480.808,-22.267"/>
<polygon fill="midnightblue" stroke="midnightblue" points="481.984,-18.9692 471.395,-18.6253 479.458,-25.4977 481.984,-18.9692"/>
</g>
<!-- Node22&#45;&gt;Node18 -->
<g id="edge30" class="edge"><title>Node22&#45;&gt;Node18</title>
<path fill="none" stroke="midnightblue" d="M581.923,-55.2188C576.963,-47.7074 569.503,-36.411 563.322,-27.0515"/>
<polygon fill="midnightblue" stroke="midnightblue" points="566.139,-24.9655 557.707,-18.5496 560.297,-28.823 566.139,-24.9655"/>
</g>
<!-- Node22&#45;&gt;Node19 -->
<g id="edge31" class="edge"><title>Node22&#45;&gt;Node19</title>
<path fill="none" stroke="midnightblue" d="M592.704,-55.2188C597.523,-47.7074 604.769,-36.411 610.774,-27.0515"/>
<polygon fill="midnightblue" stroke="midnightblue" points="613.774,-28.8564 616.228,-18.5496 607.882,-25.0767 613.774,-28.8564"/>
</g>
<!-- Node23&#45;&gt;Node16 -->
<g id="edge34" class="edge"><title>Node23&#45;&gt;Node16</title>
<path fill="none" stroke="midnightblue" d="M259.596,-55.4504C242.798,-46.8897 215.992,-33.2291 196.336,-23.2119"/>
<polygon fill="midnightblue" stroke="midnightblue" points="197.835,-20.0475 187.336,-18.6253 194.656,-26.2843 197.835,-20.0475"/>
</g>
<!-- Node24&#45;&gt;Node11 -->
<g id="edge39" class="edge"><title>Node24&#45;&gt;Node11</title>
<path fill="none" stroke="midnightblue" d="M1029.67,-110.45C1019.99,-102.434 1004.91,-89.9471 993.102,-80.1663"/>
<polygon fill="midnightblue" stroke="midnightblue" points="995.138,-77.3078 985.203,-73.6253 990.673,-82.6992 995.138,-77.3078"/>
</g>
<!-- Node24&#45;&gt;Node20 -->
<g id="edge37" class="edge"><title>Node24&#45;&gt;Node20</title>
<path fill="none" stroke="midnightblue" d="M1017.82,-110.45C994.054,-101.578 955.608,-87.2288 928.562,-77.134"/>
<polygon fill="midnightblue" stroke="midnightblue" points="929.754,-73.8431 919.161,-73.6253 927.306,-80.4012 929.754,-73.8431"/>
</g>
<!-- Node25 -->
<g id="node26" class="node"><title>Node25</title>
<polygon fill="none" stroke="#bfbfbf" points="1026.78,-55.5 1026.78,-73.5 1070.01,-73.5 1070.01,-55.5 1026.78,-55.5"/>
<text text-anchor="middle" x="1048.39" y="-61.5" font-family="Helvetica,sans-Serif" font-size="10.00">vector</text>
</g>
<!-- Node24&#45;&gt;Node25 -->
<g id="edge38" class="edge"><title>Node24&#45;&gt;Node25</title>
<path fill="none" stroke="midnightblue" d="M1040.8,-110.219C1042.01,-103.099 1043.79,-92.5775 1045.33,-83.5289"/>
<polygon fill="midnightblue" stroke="midnightblue" points="1048.8,-83.9944 1047.02,-73.5496 1041.9,-82.8224 1048.8,-83.9944"/>
</g>
<!-- Node26 -->
<g id="node27" class="node"><title>Node26</title>
<polygon fill="none" stroke="#bfbfbf" points="1087.76,-55.5 1087.76,-73.5 1161.02,-73.5 1161.02,-55.5 1087.76,-55.5"/>
<text text-anchor="middle" x="1124.39" y="-61.5" font-family="Helvetica,sans-Serif" font-size="10.00">Eigen/Dense</text>
</g>
<!-- Node24&#45;&gt;Node26 -->
<g id="edge40" class="edge"><title>Node24&#45;&gt;Node26</title>
<path fill="none" stroke="midnightblue" d="M1052.3,-110.45C1065.66,-102.123 1086.75,-88.9704 1102.68,-79.0394"/>
<polygon fill="midnightblue" stroke="midnightblue" points="1104.73,-81.8863 1111.36,-73.6253 1101.02,-75.9464 1104.73,-81.8863"/>
</g>
<!-- Node27 -->
<g id="node28" class="node"><title>Node27</title>
<polygon fill="none" stroke="#bfbfbf" points="1178.53,-55.5 1178.53,-73.5 1266.25,-73.5 1266.25,-55.5 1178.53,-55.5"/>
<text text-anchor="middle" x="1222.39" y="-61.5" font-family="Helvetica,sans-Serif" font-size="10.00">Eigen/StdVector</text>
</g>
<!-- Node24&#45;&gt;Node27 -->
<g id="edge41" class="edge"><title>Node24&#45;&gt;Node27</title>
<path fill="none" stroke="midnightblue" d="M1067.19,-110.45C1098.58,-101.357 1149.84,-86.5108 1184.8,-76.3879"/>
<polygon fill="midnightblue" stroke="midnightblue" points="1186.01,-79.6821 1194.64,-73.5383 1184.06,-72.9584 1186.01,-79.6821"/>
</g>
<!-- Node28&#45;&gt;Node8 -->
<g id="edge44" class="edge"><title>Node28&#45;&gt;Node8</title>
<path fill="none" stroke="midnightblue" d="M801.902,-170.373C805.262,-152.293 813.423,-108.379 818.049,-83.4889"/>
<polygon fill="midnightblue" stroke="midnightblue" points="821.509,-84.0242 819.895,-73.553 814.627,-82.7452 821.509,-84.0242"/>
</g>
<!-- Node28&#45;&gt;Node17 -->
<g id="edge46" class="edge"><title>Node28&#45;&gt;Node17</title>
<path fill="none" stroke="midnightblue" d="M763.961,-170.496C716.752,-160.125 634.392,-142.03 582.768,-130.689"/>
<polygon fill="midnightblue" stroke="midnightblue" points="583.39,-127.242 572.872,-128.515 581.888,-134.079 583.39,-127.242"/>
</g>
<!-- Node29 -->
<g id="node30" class="node"><title>Node29</title>
<polygon fill="none" stroke="#bfbfbf" points="828.426,-110.5 828.426,-128.5 898.357,-128.5 898.357,-110.5 828.426,-110.5"/>
<text text-anchor="middle" x="863.392" y="-116.5" font-family="Helvetica,sans-Serif" font-size="10.00">Eigen/Eigen</text>
</g>
<!-- Node28&#45;&gt;Node29 -->
<g id="edge45" class="edge"><title>Node28&#45;&gt;Node29</title>
<path fill="none" stroke="midnightblue" d="M809.151,-170.435C818.821,-161.533 834.612,-146.995 846.669,-135.895"/>
<polygon fill="midnightblue" stroke="midnightblue" points="849.312,-138.22 854.298,-128.872 844.571,-133.07 849.312,-138.22"/>
</g>
</g>
</svg>
        <g id="navigator" transform="translate(0 0)" fill="#404254">
                <rect fill="#f2f5e9" fill-opacity="0.5" stroke="#606060" stroke-width=".5" x="0" y="0" width="60" height="60"/>
                <use id="zoomplus" xlink:href="#zoomPlus" x="17" y="9" onmousedown="handleZoom(evt,'in')"/>
                <use id="zoomminus" xlink:href="#zoomMin" x="42" y="9" onmousedown="handleZoom(evt,'out')"/>
                <use id="reset" xlink:href="#resetDef" x="30" y="36" onmousedown="handleReset()"/>
                <g id="arrowUp" xlink:href="#dirArrow" transform="translate(30 24)" onmousedown="handlePan(0,-1)">
                  <use xlink:href="#rim" fill="#404040">
                        <set attributeName="fill" to="#808080" begin="arrowUp.mouseover" end="arrowUp.mouseout"/>
                  </use>
                  <path fill="none" stroke="white" stroke-width="1.5" d="M0,-3.0v7 M-2.5,-0.5L0,-3.0L2.5,-0.5"/>
                </g>
                <g id="arrowRight" xlink:href="#dirArrow" transform="rotate(90) translate(36 -43)" onmousedown="handlePan(1,0)">
                  <use xlink:href="#rim" fill="#404040">
                        <set attributeName="fill" to="#808080" begin="arrowRight.mouseover" end="arrowRight.mouseout"/>
                  </use>
                  <path fill="none" stroke="white" stroke-width="1.5" d="M0,-3.0v7 M-2.5,-0.5L0,-3.0L2.5,-0.5"/>
                </g>
                <g id="arrowDown" xlink:href="#dirArrow" transform="rotate(180) translate(-30 -48)" onmousedown="handlePan(0,1)">
                  <use xlink:href="#rim" fill="#404040">
                        <set attributeName="fill" to="#808080" begin="arrowDown.mouseover" end="arrowDown.mouseout"/>
                  </use>
                  <path fill="none" stroke="white" stroke-width="1.5" d="M0,-3.0v7 M-2.5,-0.5L0,-3.0L2.5,-0.5"/>
                </g>
                <g id="arrowLeft" xlink:href="#dirArrow" transform="rotate(270) translate(-36 17)" onmousedown="handlePan(-1,0)">
                  <use xlink:href="#rim" fill="#404040">
                        <set attributeName="fill" to="#808080" begin="arrowLeft.mouseover" end="arrowLeft.mouseout"/>
                  </use>
                  <path fill="none" stroke="white" stroke-width="1.5" d="M0,-3.0v7 M-2.5,-0.5L0,-3.0L2.5,-0.5"/>
                </g>
        </g>
        <svg viewBox="0 0 15 15" width="100%" height="30px" preserveAspectRatio="xMaxYMin meet">
         <g id="arrow_out" transform="scale(0.3 0.3)">
          <a xlink:href="histogram_8h__incl_org.svg" target="_base">
           <rect id="button" ry="5" rx="5" y="6" x="6" height="38" width="38"
                fill="#f2f5e9" fill-opacity="0.5" stroke="#606060" stroke-width="1.0"/>
           <path id="arrow"
             d="M 11.500037,31.436501 C 11.940474,20.09759 22.043105,11.32322 32.158766,21.979434 L 37.068811,17.246167 C 37.068811,17.246167 37.088388,32 37.088388,32 L 22.160133,31.978069 C 22.160133,31.978069 26.997745,27.140456 26.997745,27.140456 C 18.528582,18.264221 13.291696,25.230495 11.500037,31.436501 z"
             style="fill:#404040;"/>
          </a>
         </g>
        </svg>
</svg>
