<?xml version="1.0" encoding="UTF-8" standalone="no"?>
<!DOCTYPE svg PUBLIC "-//W3C//DTD SVG 1.1//EN"
 "http://www.w3.org/Graphics/SVG/1.1/DTD/svg11.dtd">
<!-- Generated by graphviz version 2.38.0 (20140413.2041)
 -->
<!-- Title: tomographer/tools/loggers.h Pages: 1 -->
<!--zoomable 277 -->
<svg id="main" version="1.1" xmlns="http://www.w3.org/2000/svg" xmlns:xlink="http://www.w3.org/1999/xlink" xml:space="preserve" onload="init(evt)">
<style type="text/css"><![CDATA[
.edge:hover path { stroke: red; }
.edge:hover polygon { stroke: red; fill: red; }
]]></style>
<script type="text/javascript"><![CDATA[
var edges = document.getElementsByTagName('g');
if (edges && edges.length) {
  for (var i=0;i<edges.length;i++) {
    if (edges[i].id.substr(0,4)=='edge') {
      edges[i].setAttribute('class','edge');
    }
  }
}
]]></script>
        <defs>
                <circle id="rim" cx="0" cy="0" r="7"/>
                <circle id="rim2" cx="0" cy="0" r="3.5"/>
                <g id="zoomPlus">
                        <use xlink:href="#rim" fill="#404040">
                                <set attributeName="fill" to="#808080" begin="zoomplus.mouseover" end="zoomplus.mouseout"/>
                        </use>
                        <path d="M-4,0h8M0,-4v8" fill="none" stroke="white" stroke-width="1.5" pointer-events="none"/>
                </g>
                <g id="zoomMin">
                        <use xlink:href="#rim" fill="#404040">
                                <set attributeName="fill" to="#808080" begin="zoomminus.mouseover" end="zoomminus.mouseout"/>
                        </use>
                        <path d="M-4,0h8" fill="none" stroke="white" stroke-width="1.5" pointer-events="none"/>
                </g>
                <g id="dirArrow">
                        <path fill="none" stroke="white" stroke-width="1.5" d="M0,-3.0v7 M-2.5,-0.5L0,-3.0L2.5,-0.5"/>
                </g>
               <g id="resetDef">
                       <use xlink:href="#rim2" fill="#404040">
                               <set attributeName="fill" to="#808080" begin="reset.mouseover" end="reset.mouseout"/>
                       </use>
               </g>
        </defs>

<script type="text/javascript">
var viewWidth = 1008;
var viewHeight = 277;
var sectionId = 'dynsection-1';
</script>
<script xlink:href="svgpan.js"/>
<svg id="graph" class="graph">
<g id="viewport">
<title>tomographer/tools/loggers.h</title>
<!-- Node23 -->
<g id="node1" class="node"><title>Node23</title>
<polygon fill="#bfbfbf" stroke="black" points="308.564,-250.5 308.564,-268.5 449.081,-268.5 449.081,-250.5 308.564,-250.5"/>
<text text-anchor="middle" x="378.822" y="-256.5" font-family="Helvetica,sans-Serif" font-size="10.00">tomographer/tools/loggers.h</text>
</g>
<!-- Node24 -->
<g id="node2" class="node"><title>Node24</title>
<g id="a_node2"><a xlink:href="tspacellhwalker_8h.html" target="_top" xlink:title="Definitions for a Metropolis&#45;Hastings random walk on a quantum state space with dense matrix type...">
<polygon fill="none" stroke="black" points="241.515,-65.5 241.515,-93.5 358.13,-93.5 358.13,-65.5 241.515,-65.5"/>
<text text-anchor="start" x="249.515" y="-81.5" font-family="Helvetica,sans-Serif" font-size="10.00">tomographer/densedm</text>
<text text-anchor="middle" x="299.822" y="-71.5" font-family="Helvetica,sans-Serif" font-size="10.00">/tspacellhwalker.h</text>
</a>
</g>
</g>
<!-- Node23&#45;&gt;Node24 -->
<g id="edge1" class="edge"><title>Node23&#45;&gt;Node24</title>
<path fill="none" stroke="midnightblue" d="M366.831,-241.878C361.106,-233.658 354.322,-223.488 348.822,-214 332.674,-186.142 327.875,-179.244 316.822,-149 309.967,-130.241 304.949,-107.6 302.209,-93.6251"/>
<polygon fill="midnightblue" stroke="midnightblue" points="364.083,-244.053 372.72,-250.189 369.794,-240.006 364.083,-244.053"/>
</g>
<!-- Node25 -->
<g id="node3" class="node"><title>Node25</title>
<g id="a_node3"><a xlink:href="random__unitary_8h.html" target="_top" xlink:title="Produce a random unitary according to the Haar measure. ">
<polygon fill="none" stroke="black" points="14.4063,-185.5 14.4063,-213.5 133.238,-213.5 133.238,-185.5 14.4063,-185.5"/>
<text text-anchor="start" x="22.4063" y="-201.5" font-family="Helvetica,sans-Serif" font-size="10.00">tomographer/mathtools</text>
<text text-anchor="middle" x="73.8223" y="-191.5" font-family="Helvetica,sans-Serif" font-size="10.00">/random_unitary.h</text>
</a>
</g>
</g>
<!-- Node23&#45;&gt;Node25 -->
<g id="edge2" class="edge"><title>Node23&#45;&gt;Node25</title>
<path fill="none" stroke="midnightblue" d="M325.616,-248.575C277.771,-239.624 205.573,-226.055 142.822,-214 139.706,-213.401 136.51,-212.785 133.284,-212.161"/>
<polygon fill="midnightblue" stroke="midnightblue" points="325.268,-252.07 335.741,-250.468 326.555,-245.19 325.268,-252.07"/>
</g>
<!-- Node26 -->
<g id="node4" class="node"><title>Node26</title>
<g id="a_node4"><a xlink:href="simple__find__zero_8h.html" target="_top" xlink:title="A very simplistic tool for finding a relatively straightforward zero with few iterations. ">
<polygon fill="none" stroke="black" points="151.406,-185.5 151.406,-213.5 270.238,-213.5 270.238,-185.5 151.406,-185.5"/>
<text text-anchor="start" x="159.406" y="-201.5" font-family="Helvetica,sans-Serif" font-size="10.00">tomographer/mathtools</text>
<text text-anchor="middle" x="210.822" y="-191.5" font-family="Helvetica,sans-Serif" font-size="10.00">/simple_find_zero.h</text>
</a>
</g>
</g>
<!-- Node23&#45;&gt;Node26 -->
<g id="edge3" class="edge"><title>Node23&#45;&gt;Node26</title>
<path fill="none" stroke="midnightblue" d="M345.748,-247.081C317.778,-237.425 277.709,-223.592 248.505,-213.51"/>
<polygon fill="midnightblue" stroke="midnightblue" points="344.868,-250.48 355.463,-250.435 347.152,-243.864 344.868,-250.48"/>
</g>
<!-- Node27 -->
<g id="node5" class="node"><title>Node27</title>
<g id="a_node5"><a xlink:href="mhrw_8h.html" target="_top" xlink:title="Routines for performing a Metropolis&#45;Hastings random walk. ">
<polygon fill="none" stroke="black" points="325.965,-130.5 325.965,-148.5 433.679,-148.5 433.679,-130.5 325.965,-130.5"/>
<text text-anchor="middle" x="379.822" y="-136.5" font-family="Helvetica,sans-Serif" font-size="10.00">tomographer/mhrw.h</text>
</a>
</g>
</g>
<!-- Node23&#45;&gt;Node27 -->
<g id="edge4" class="edge"><title>Node23&#45;&gt;Node27</title>
<path fill="none" stroke="midnightblue" d="M367.431,-242.079C362.515,-234.011 357.324,-223.91 354.822,-214 351.667,-201.503 351.56,-197.469 354.822,-185 358.411,-171.284 367.28,-157.33 373.426,-148.793"/>
<polygon fill="midnightblue" stroke="midnightblue" points="364.512,-244.01 372.899,-250.483 370.38,-240.192 364.512,-244.01"/>
</g>
<!-- Node29 -->
<g id="node7" class="node"><title>Node29</title>
<g id="a_node7"><a xlink:href="mhrw__valuehist__tasks_8h.html" target="_top" xlink:title="Tasks for collecting a histogram of values during a Metropolis&#45;Hastings random walk. ">
<polygon fill="none" stroke="black" points="370.347,-0.5 370.347,-28.5 515.297,-28.5 515.297,-0.5 370.347,-0.5"/>
<text text-anchor="start" x="378.347" y="-16.5" font-family="Helvetica,sans-Serif" font-size="10.00">tomographer/mhrw_valuehist</text>
<text text-anchor="middle" x="442.822" y="-6.5" font-family="Helvetica,sans-Serif" font-size="10.00">_tasks.h</text>
</a>
</g>
</g>
<!-- Node23&#45;&gt;Node29 -->
<g id="edge13" class="edge"><title>Node23&#45;&gt;Node29</title>
<path fill="none" stroke="midnightblue" d="M298.131,-254.48C194.289,-248.465 24.8877,-235.475 5.82228,-214 -2.7347,-204.361 -0.829241,-196.04 5.82228,-185 81.4133,-59.5368 266.751,-26.708 370.132,-18.2736"/>
<polygon fill="midnightblue" stroke="midnightblue" points="298.096,-257.983 308.278,-255.057 298.494,-250.994 298.096,-257.983"/>
</g>
<!-- Node30 -->
<g id="node8" class="node"><title>Node30</title>
<g id="a_node8"><a xlink:href="mhrw__bin__err_8h.html" target="_top" xlink:title="Binning Analysis in a Metropolis&#45;Hastings random walk. ">
<polygon fill="none" stroke="black" points="363.409,-185.5 363.409,-213.5 482.236,-213.5 482.236,-185.5 363.409,-185.5"/>
<text text-anchor="start" x="371.409" y="-201.5" font-family="Helvetica,sans-Serif" font-size="10.00">tomographer/mhrw_bin</text>
<text text-anchor="middle" x="422.822" y="-191.5" font-family="Helvetica,sans-Serif" font-size="10.00">_err.h</text>
</a>
</g>
</g>
<!-- Node23&#45;&gt;Node30 -->
<g id="edge8" class="edge"><title>Node23&#45;&gt;Node30</title>
<path fill="none" stroke="midnightblue" d="M391.101,-242.315C397.908,-233.341 406.271,-222.318 412.7,-213.843"/>
<polygon fill="midnightblue" stroke="midnightblue" points="388.196,-240.353 384.94,-250.435 393.773,-244.584 388.196,-240.353"/>
</g>
<!-- Node31 -->
<g id="node9" class="node"><title>Node31</title>
<g id="a_node9"><a xlink:href="mhrwstatscollectors_8h.html" target="_top" xlink:title="Definitions for MHRWStatsCollector Interface&#39;s. ">
<polygon fill="none" stroke="black" points="452.015,-130.5 452.015,-148.5 623.63,-148.5 623.63,-130.5 452.015,-130.5"/>
<text text-anchor="middle" x="537.822" y="-136.5" font-family="Helvetica,sans-Serif" font-size="10.00">tomographer/mhrwstatscollectors.h</text>
</a>
</g>
</g>
<!-- Node23&#45;&gt;Node31 -->
<g id="edge14" class="edge"><title>Node23&#45;&gt;Node31</title>
<path fill="none" stroke="midnightblue" d="M424.089,-247.566C445.967,-240.622 471.582,-229.881 490.822,-214 513.25,-195.488 528.474,-163.4 534.684,-148.513"/>
<polygon fill="midnightblue" stroke="midnightblue" points="422.908,-244.266 414.337,-250.494 424.921,-250.971 422.908,-244.266"/>
</g>
<!-- Node32 -->
<g id="node10" class="node"><title>Node32</title>
<g id="a_node10"><a xlink:href="multiprocomp_8h.html" target="_top" xlink:title="Multiprocessing with OpenMP parallel multithreading. ">
<polygon fill="none" stroke="black" points="537.904,-190.5 537.904,-208.5 681.741,-208.5 681.741,-190.5 537.904,-190.5"/>
<text text-anchor="middle" x="609.822" y="-196.5" font-family="Helvetica,sans-Serif" font-size="10.00">tomographer/multiprocomp.h</text>
</a>
</g>
</g>
<!-- Node23&#45;&gt;Node32 -->
<g id="edge15" class="edge"><title>Node23&#45;&gt;Node32</title>
<path fill="none" stroke="midnightblue" d="M420.714,-247.982C465.832,-236.653 536.641,-218.874 577.604,-208.589"/>
<polygon fill="midnightblue" stroke="midnightblue" points="419.788,-244.605 410.942,-250.435 421.493,-251.395 419.788,-244.605"/>
</g>
<!-- Node33 -->
<g id="node11" class="node"><title>Node33</title>
<g id="a_node11"><a xlink:href="multiprocthreads_8h.html" target="_top" xlink:title="Multiprocessing with native C++11 threads. ">
<polygon fill="none" stroke="black" points="699.953,-190.5 699.953,-208.5 857.691,-208.5 857.691,-190.5 699.953,-190.5"/>
<text text-anchor="middle" x="778.822" y="-196.5" font-family="Helvetica,sans-Serif" font-size="10.00">tomographer/multiprocthreads.h</text>
</a>
</g>
</g>
<!-- Node23&#45;&gt;Node33 -->
<g id="edge16" class="edge"><title>Node23&#45;&gt;Node33</title>
<path fill="none" stroke="midnightblue" d="M446.59,-249.044C509.809,-240.174 606.738,-226.446 690.822,-214 702.596,-212.257 715.248,-210.342 727.185,-208.515"/>
<polygon fill="midnightblue" stroke="midnightblue" points="445.77,-245.625 436.353,-250.48 446.742,-252.557 445.77,-245.625"/>
</g>
<!-- Node34 -->
<g id="node12" class="node"><title>Node34</title>
<g id="a_node12"><a xlink:href="boost__test__logger_8h.html" target="_top" xlink:title="Provide a logger class for when using the Boost Unit Test Framework (see Tomographer::Logger::BoostTe...">
<polygon fill="none" stroke="black" points="875.901,-185.5 875.901,-213.5 999.743,-213.5 999.743,-185.5 875.901,-185.5"/>
<text text-anchor="start" x="883.901" y="-201.5" font-family="Helvetica,sans-Serif" font-size="10.00">tomographer/tools/boost</text>
<text text-anchor="middle" x="937.822" y="-191.5" font-family="Helvetica,sans-Serif" font-size="10.00">_test_logger.h</text>
</a>
</g>
</g>
<!-- Node23&#45;&gt;Node34 -->
<g id="edge17" class="edge"><title>Node23&#45;&gt;Node34</title>
<path fill="none" stroke="midnightblue" d="M459.403,-253.555C556.384,-247.05 724.02,-234.039 866.822,-214 869.68,-213.599 872.598,-213.161 875.541,-212.696"/>
<polygon fill="midnightblue" stroke="midnightblue" points="459.122,-250.066 449.376,-254.222 459.586,-257.051 459.122,-250.066"/>
</g>
<!-- Node27&#45;&gt;Node24 -->
<g id="edge5" class="edge"><title>Node27&#45;&gt;Node24</title>
<path fill="none" stroke="midnightblue" d="M360.471,-124.471C347.524,-115.083 330.599,-102.813 317.919,-93.6203"/>
<polygon fill="midnightblue" stroke="midnightblue" points="358.548,-127.399 368.699,-130.435 362.657,-121.732 358.548,-127.399"/>
</g>
<!-- Node28 -->
<g id="node6" class="node"><title>Node28</title>
<g id="a_node6"><a xlink:href="mhrwtasks_8h.html" target="_top" xlink:title="Multiprocessing tasks interface (see Multiprocessing Task Interfaces) for parallel Metropolis&#45;Hasting...">
<polygon fill="none" stroke="black" points="377.022,-70.5 377.022,-88.5 508.623,-88.5 508.623,-70.5 377.022,-70.5"/>
<text text-anchor="middle" x="442.822" y="-76.5" font-family="Helvetica,sans-Serif" font-size="10.00">tomographer/mhrwtasks.h</text>
</a>
</g>
</g>
<!-- Node27&#45;&gt;Node28 -->
<g id="edge6" class="edge"><title>Node27&#45;&gt;Node28</title>
<path fill="none" stroke="midnightblue" d="M396.133,-123.483C408.104,-112.463 423.921,-97.9015 433.729,-88.8718"/>
<polygon fill="midnightblue" stroke="midnightblue" points="393.569,-121.087 388.582,-130.435 398.31,-126.237 393.569,-121.087"/>
</g>
<!-- Node28&#45;&gt;Node29 -->
<g id="edge7" class="edge"><title>Node28&#45;&gt;Node29</title>
<path fill="none" stroke="midnightblue" d="M442.822,-60.1373C442.822,-50.1047 442.822,-37.906 442.822,-28.7981"/>
<polygon fill="midnightblue" stroke="midnightblue" points="439.322,-60.2638 442.822,-70.2639 446.322,-60.2639 439.322,-60.2638"/>
</g>
<!-- Node30&#45;&gt;Node27 -->
<g id="edge9" class="edge"><title>Node30&#45;&gt;Node27</title>
<path fill="none" stroke="midnightblue" d="M406.978,-177.128C399.669,-167.271 391.423,-156.147 385.955,-148.771"/>
<polygon fill="midnightblue" stroke="midnightblue" points="404.298,-179.39 413.065,-185.339 409.921,-175.221 404.298,-179.39"/>
</g>
<!-- Node30&#45;&gt;Node31 -->
<g id="edge10" class="edge"><title>Node30&#45;&gt;Node31</title>
<path fill="none" stroke="midnightblue" d="M457.704,-180.908C478.975,-170.18 505.159,-156.974 521.676,-148.643"/>
<polygon fill="midnightblue" stroke="midnightblue" points="455.983,-177.855 448.631,-185.484 459.135,-184.105 455.983,-177.855"/>
</g>
<!-- Node31&#45;&gt;Node28 -->
<g id="edge12" class="edge"><title>Node31&#45;&gt;Node28</title>
<path fill="none" stroke="midnightblue" d="M515.986,-125.169C497.553,-113.915 471.751,-98.162 456.226,-88.6831"/>
<polygon fill="midnightblue" stroke="midnightblue" points="514.254,-128.212 524.613,-130.435 517.902,-122.237 514.254,-128.212"/>
</g>
<!-- Node31&#45;&gt;Node29 -->
<g id="edge11" class="edge"><title>Node31&#45;&gt;Node29</title>
<path fill="none" stroke="midnightblue" d="M536.472,-120.305C534.506,-104.41 529.678,-81.3784 517.822,-65 506.296,-49.0764 487.947,-36.8363 472.284,-28.5112"/>
<polygon fill="midnightblue" stroke="midnightblue" points="533.004,-120.808 537.457,-130.422 539.971,-120.129 533.004,-120.808"/>
</g>
</g>
</svg>
        <g id="navigator" transform="translate(0 0)" fill="#404254">
                <rect fill="#f2f5e9" fill-opacity="0.5" stroke="#606060" stroke-width=".5" x="0" y="0" width="60" height="60"/>
                <use id="zoomplus" xlink:href="#zoomPlus" x="17" y="9" onmousedown="handleZoom(evt,'in')"/>
                <use id="zoomminus" xlink:href="#zoomMin" x="42" y="9" onmousedown="handleZoom(evt,'out')"/>
                <use id="reset" xlink:href="#resetDef" x="30" y="36" onmousedown="handleReset()"/>
                <g id="arrowUp" xlink:href="#dirArrow" transform="translate(30 24)" onmousedown="handlePan(0,-1)">
                  <use xlink:href="#rim" fill="#404040">
                        <set attributeName="fill" to="#808080" begin="arrowUp.mouseover" end="arrowUp.mouseout"/>
                  </use>
                  <path fill="none" stroke="white" stroke-width="1.5" d="M0,-3.0v7 M-2.5,-0.5L0,-3.0L2.5,-0.5"/>
                </g>
                <g id="arrowRight" xlink:href="#dirArrow" transform="rotate(90) translate(36 -43)" onmousedown="handlePan(1,0)">
                  <use xlink:href="#rim" fill="#404040">
                        <set attributeName="fill" to="#808080" begin="arrowRight.mouseover" end="arrowRight.mouseout"/>
                  </use>
                  <path fill="none" stroke="white" stroke-width="1.5" d="M0,-3.0v7 M-2.5,-0.5L0,-3.0L2.5,-0.5"/>
                </g>
                <g id="arrowDown" xlink:href="#dirArrow" transform="rotate(180) translate(-30 -48)" onmousedown="handlePan(0,1)">
                  <use xlink:href="#rim" fill="#404040">
                        <set attributeName="fill" to="#808080" begin="arrowDown.mouseover" end="arrowDown.mouseout"/>
                  </use>
                  <path fill="none" stroke="white" stroke-width="1.5" d="M0,-3.0v7 M-2.5,-0.5L0,-3.0L2.5,-0.5"/>
                </g>
                <g id="arrowLeft" xlink:href="#dirArrow" transform="rotate(270) translate(-36 17)" onmousedown="handlePan(-1,0)">
                  <use xlink:href="#rim" fill="#404040">
                        <set attributeName="fill" to="#808080" begin="arrowLeft.mouseover" end="arrowLeft.mouseout"/>
                  </use>
                  <path fill="none" stroke="white" stroke-width="1.5" d="M0,-3.0v7 M-2.5,-0.5L0,-3.0L2.5,-0.5"/>
                </g>
        </g>
        <svg viewBox="0 0 15 15" width="100%" height="30px" preserveAspectRatio="xMaxYMin meet">
         <g id="arrow_out" transform="scale(0.3 0.3)">
          <a xlink:href="loggers_8h__dep__incl_org.svg" target="_base">
           <rect id="button" ry="5" rx="5" y="6" x="6" height="38" width="38"
                fill="#f2f5e9" fill-opacity="0.5" stroke="#606060" stroke-width="1.0"/>
           <path id="arrow"
             d="M 11.500037,31.436501 C 11.940474,20.09759 22.043105,11.32322 32.158766,21.979434 L 37.068811,17.246167 C 37.068811,17.246167 37.088388,32 37.088388,32 L 22.160133,31.978069 C 22.160133,31.978069 26.997745,27.140456 26.997745,27.140456 C 18.528582,18.264221 13.291696,25.230495 11.500037,31.436501 z"
             style="fill:#404040;"/>
          </a>
         </g>
        </svg>
</svg>
