<?xml version="1.0" encoding="UTF-8" standalone="no"?>
<!DOCTYPE svg PUBLIC "-//W3C//DTD SVG 1.1//EN"
 "http://www.w3.org/Graphics/SVG/1.1/DTD/svg11.dtd">
<!-- Generated by graphviz version 2.38.0 (20140413.2041)
 -->
<!-- Title: tomographer/mhrwstatscollectors.h Pages: 1 -->
<svg width="207pt" height="147pt"
 viewBox="0.00 0.00 206.61 147.00" xmlns="http://www.w3.org/2000/svg" xmlns:xlink="http://www.w3.org/1999/xlink">
<g id="graph0" class="graph" transform="scale(1 1) rotate(0) translate(4 143)">
<title>tomographer/mhrwstatscollectors.h</title>
<!-- Node39 -->
<g id="node1" class="node"><title>Node39</title>
<polygon fill="#bfbfbf" stroke="black" points="0,-120.5 0,-138.5 171.615,-138.5 171.615,-120.5 0,-120.5"/>
<text text-anchor="middle" x="85.8076" y="-126.5" font-family="Helvetica,sans-Serif" font-size="10.00">tomographer/mhrwstatscollectors.h</text>
</g>
<!-- Node40 -->
<g id="node2" class="node"><title>Node40</title>
<g id="a_node2"><a xlink:href="mhrw__valuehist__tasks_8h.html" target="_top" xlink:title="Tasks for collecting a histogram of values during a Metropolis&#45;Hastings random walk. ">
<polygon fill="none" stroke="black" points="13.3325,-0.5 13.3325,-28.5 158.283,-28.5 158.283,-0.5 13.3325,-0.5"/>
<text text-anchor="start" x="21.3325" y="-16.5" font-family="Helvetica,sans-Serif" font-size="10.00">tomographer/mhrw_valuehist</text>
<text text-anchor="middle" x="85.8076" y="-6.5" font-family="Helvetica,sans-Serif" font-size="10.00">_tasks.h</text>
</a>
</g>
</g>
<!-- Node39&#45;&gt;Node40 -->
<g id="edge1" class="edge"><title>Node39&#45;&gt;Node40</title>
<path fill="none" stroke="midnightblue" d="M72.5143,-112.31C66.7921,-104.308 60.7483,-94.1954 57.8076,-84 52.1108,-64.2491 64.4725,-42.429 74.5449,-28.8414"/>
<polygon fill="midnightblue" stroke="midnightblue" points="69.8006,-114.523 78.6557,-120.34 75.3609,-110.27 69.8006,-114.523"/>
</g>
<!-- Node41 -->
<g id="node3" class="node"><title>Node41</title>
<g id="a_node3"><a xlink:href="mhrwtasks_8h.html" target="_top" xlink:title="Multiprocessing tasks interface (see Multiprocessing Task Interfaces) for parallel Metropolis&#45;Hasting...">
<polygon fill="none" stroke="black" points="67.0073,-65.5 67.0073,-83.5 198.608,-83.5 198.608,-65.5 67.0073,-65.5"/>
<text text-anchor="middle" x="132.808" y="-71.5" font-family="Helvetica,sans-Serif" font-size="10.00">tomographer/mhrwtasks.h</text>
</a>
</g>
</g>
<!-- Node39&#45;&gt;Node41 -->
<g id="edge2" class="edge"><title>Node39&#45;&gt;Node41</title>
<path fill="none" stroke="midnightblue" d="M99.9669,-112.533C108.45,-102.967 118.872,-91.2143 125.669,-83.5496"/>
<polygon fill="midnightblue" stroke="midnightblue" points="97.1676,-110.415 93.1514,-120.219 102.405,-115.059 97.1676,-110.415"/>
</g>
<!-- Node41&#45;&gt;Node40 -->
<g id="edge3" class="edge"><title>Node41&#45;&gt;Node40</title>
<path fill="none" stroke="midnightblue" d="M119.919,-57.5946C112.606,-48.5709 103.559,-37.4062 96.6199,-28.8428"/>
<polygon fill="midnightblue" stroke="midnightblue" points="117.257,-59.8696 126.272,-65.4353 122.696,-55.4624 117.257,-59.8696"/>
</g>
</g>
</svg>
