<?xml version="1.0" encoding="UTF-8" standalone="no"?>
<!DOCTYPE svg PUBLIC "-//W3C//DTD SVG 1.1//EN"
 "http://www.w3.org/Graphics/SVG/1.1/DTD/svg11.dtd">
<!-- Generated by graphviz version 2.38.0 (20140413.2041)
 -->
<!-- Title: tomographer/mhrwstatscollectors.h Pages: 1 -->
<svg width="1881pt" height="377pt"
 viewBox="0.00 0.00 1881.13 377.00" xmlns="http://www.w3.org/2000/svg" xmlns:xlink="http://www.w3.org/1999/xlink">
<g id="graph0" class="graph" transform="scale(1 1) rotate(0) translate(4 373)">
<title>tomographer/mhrwstatscollectors.h</title>
<!-- Node0 -->
<g id="node1" class="node"><title>Node0</title>
<polygon fill="#bfbfbf" stroke="black" points="364.837,-350.5 364.837,-368.5 536.452,-368.5 536.452,-350.5 364.837,-350.5"/>
<text text-anchor="middle" x="450.644" y="-356.5" font-family="Helvetica,sans-Serif" font-size="10.00">tomographer/mhrwstatscollectors.h</text>
</g>
<!-- Node1 -->
<g id="node2" class="node"><title>Node1</title>
<polygon fill="none" stroke="#bfbfbf" points="1112.52,-0.5 1112.52,-18.5 1160.76,-18.5 1160.76,-0.5 1112.52,-0.5"/>
<text text-anchor="middle" x="1136.64" y="-6.5" font-family="Helvetica,sans-Serif" font-size="10.00">cstddef</text>
</g>
<!-- Node0&#45;&gt;Node1 -->
<g id="edge1" class="edge"><title>Node0&#45;&gt;Node1</title>
<path fill="none" stroke="midnightblue" d="M364.745,-354.814C246.749,-348.97 46.1394,-335.935 20.6443,-314 -4.93277,-291.995 1.64426,-274.24 1.64426,-240.5 1.64426,-240.5 1.64426,-240.5 1.64426,-178.5 1.64426,-53.3739 132.681,-82.9562 254.644,-55 420.139,-17.0657 959.449,-11.4615 1101.88,-10.6399"/>
<polygon fill="midnightblue" stroke="midnightblue" points="1102.21,-14.1383 1112.2,-10.585 1102.18,-7.13842 1102.21,-14.1383"/>
</g>
<!-- Node2 -->
<g id="node3" class="node"><title>Node2</title>
<polygon fill="none" stroke="#bfbfbf" points="29.2575,-290.5 29.2575,-308.5 68.031,-308.5 68.031,-290.5 29.2575,-290.5"/>
<text text-anchor="middle" x="48.6443" y="-296.5" font-family="Helvetica,sans-Serif" font-size="10.00">limits</text>
</g>
<!-- Node0&#45;&gt;Node2 -->
<g id="edge2" class="edge"><title>Node0&#45;&gt;Node2</title>
<path fill="none" stroke="midnightblue" d="M364.751,-356.311C287.893,-352.474 172.843,-342.063 76.6443,-314 75.2196,-313.584 73.7779,-313.102 72.3392,-312.573"/>
<polygon fill="midnightblue" stroke="midnightblue" points="73.6717,-309.336 63.1029,-308.593 70.9015,-315.764 73.6717,-309.336"/>
</g>
<!-- Node3 -->
<g id="node4" class="node"><title>Node3</title>
<polygon fill="none" stroke="#bfbfbf" points="85.802,-290.5 85.802,-308.5 123.487,-308.5 123.487,-290.5 85.802,-290.5"/>
<text text-anchor="middle" x="104.644" y="-296.5" font-family="Helvetica,sans-Serif" font-size="10.00">tuple</text>
</g>
<!-- Node0&#45;&gt;Node3 -->
<g id="edge3" class="edge"><title>Node0&#45;&gt;Node3</title>
<path fill="none" stroke="midnightblue" d="M364.804,-352.052C301.253,-345.897 213,-334.432 137.644,-314 135.718,-313.478 133.753,-312.873 131.79,-312.214"/>
<polygon fill="midnightblue" stroke="midnightblue" points="132.769,-308.843 122.177,-308.61 130.312,-315.398 132.769,-308.843"/>
</g>
<!-- Node4 -->
<g id="node5" class="node"><title>Node4</title>
<polygon fill="none" stroke="#bfbfbf" points="398.253,-110.5 398.253,-128.5 437.036,-128.5 437.036,-110.5 398.253,-110.5"/>
<text text-anchor="middle" x="417.644" y="-116.5" font-family="Helvetica,sans-Serif" font-size="10.00">utility</text>
</g>
<!-- Node0&#45;&gt;Node4 -->
<g id="edge4" class="edge"><title>Node0&#45;&gt;Node4</title>
<path fill="none" stroke="midnightblue" d="M417.687,-350.467C356.364,-333.537 226.12,-287.78 172.644,-194 166.26,-182.804 164.385,-174.895 172.644,-165 199.767,-132.507 328.738,-123.686 387.882,-121.334"/>
<polygon fill="midnightblue" stroke="midnightblue" points="388.206,-124.825 398.073,-120.966 387.953,-117.83 388.206,-124.825"/>
</g>
<!-- Node5 -->
<g id="node6" class="node"><title>Node5</title>
<polygon fill="none" stroke="#bfbfbf" points="883.578,-55.5 883.578,-73.5 945.711,-73.5 945.711,-55.5 883.578,-55.5"/>
<text text-anchor="middle" x="914.644" y="-61.5" font-family="Helvetica,sans-Serif" font-size="10.00">type_traits</text>
</g>
<!-- Node0&#45;&gt;Node5 -->
<g id="edge5" class="edge"><title>Node0&#45;&gt;Node5</title>
<path fill="none" stroke="midnightblue" d="M536.595,-352.151C661.034,-340.557 876.644,-310.384 876.644,-240.5 876.644,-240.5 876.644,-240.5 876.644,-178.5 876.644,-142.943 893.757,-104.221 905.015,-82.5941"/>
<polygon fill="midnightblue" stroke="midnightblue" points="908.154,-84.1469 909.832,-73.6857 901.996,-80.8174 908.154,-84.1469"/>
</g>
<!-- Node6 -->
<g id="node7" class="node"><title>Node6</title>
<polygon fill="none" stroke="#bfbfbf" points="452.132,-290.5 452.132,-308.5 503.156,-308.5 503.156,-290.5 452.132,-290.5"/>
<text text-anchor="middle" x="477.644" y="-296.5" font-family="Helvetica,sans-Serif" font-size="10.00">typeinfo</text>
</g>
<!-- Node0&#45;&gt;Node6 -->
<g id="edge6" class="edge"><title>Node0&#45;&gt;Node6</title>
<path fill="none" stroke="midnightblue" d="M454.398,-350.435C458.264,-342.132 464.411,-328.927 469.414,-318.181"/>
<polygon fill="midnightblue" stroke="midnightblue" points="472.7,-319.415 473.747,-308.872 466.354,-316.46 472.7,-319.415"/>
</g>
<!-- Node7 -->
<g id="node8" class="node"><title>Node7</title>
<g id="a_node8"><a xlink:href="cxxutil_8h.html" target="_top" xlink:title="Some C++ utilities, with a tad of C++11 tricks. ">
<polygon fill="none" stroke="black" points="1258.89,-110.5 1258.89,-128.5 1394.4,-128.5 1394.4,-110.5 1258.89,-110.5"/>
<text text-anchor="middle" x="1326.64" y="-116.5" font-family="Helvetica,sans-Serif" font-size="10.00">tomographer/tools/cxxutil.h</text>
</a>
</g>
</g>
<!-- Node0&#45;&gt;Node7 -->
<g id="edge7" class="edge"><title>Node0&#45;&gt;Node7</title>
<path fill="none" stroke="midnightblue" d="M536.492,-358.405C748.233,-357.584 1291.03,-351.742 1467.64,-314 1544.32,-297.614 1571.87,-299.741 1631.64,-249 1662.22,-223.042 1691.09,-195.157 1664.64,-165 1647.75,-145.733 1499.02,-132.168 1404.56,-125.409"/>
<polygon fill="midnightblue" stroke="midnightblue" points="1404.68,-121.909 1394.46,-124.697 1404.19,-128.891 1404.68,-121.909"/>
</g>
<!-- Node18 -->
<g id="node19" class="node"><title>Node18</title>
<g id="a_node19"><a xlink:href="loggers_8h.html" target="_top" xlink:title="Utilities for logging messages. ">
<polygon fill="none" stroke="black" points="353.386,-230.5 353.386,-248.5 493.903,-248.5 493.903,-230.5 353.386,-230.5"/>
<text text-anchor="middle" x="423.644" y="-236.5" font-family="Helvetica,sans-Serif" font-size="10.00">tomographer/tools/loggers.h</text>
</a>
</g>
</g>
<!-- Node0&#45;&gt;Node18 -->
<g id="edge23" class="edge"><title>Node0&#45;&gt;Node18</title>
<path fill="none" stroke="midnightblue" d="M448.788,-350.389C444.492,-331.611 433.773,-284.768 427.811,-258.711"/>
<polygon fill="midnightblue" stroke="midnightblue" points="431.155,-257.635 425.513,-248.667 424.332,-259.196 431.155,-257.635"/>
</g>
<!-- Node27 -->
<g id="node28" class="node"><title>Node27</title>
<g id="a_node28"><a xlink:href="histogram_8h.html" target="_top" xlink:title="Definitions for Histogram Types. ">
<polygon fill="none" stroke="black" points="971.782,-230.5 971.782,-248.5 1099.51,-248.5 1099.51,-230.5 971.782,-230.5"/>
<text text-anchor="middle" x="1035.64" y="-236.5" font-family="Helvetica,sans-Serif" font-size="10.00">tomographer/histogram.h</text>
</a>
</g>
</g>
<!-- Node0&#45;&gt;Node27 -->
<g id="edge43" class="edge"><title>Node0&#45;&gt;Node27</title>
<path fill="none" stroke="midnightblue" d="M536.769,-359.05C626.787,-357.499 771.279,-348.967 890.644,-314 937.647,-300.231 987.557,-271.354 1014.83,-254.179"/>
<polygon fill="midnightblue" stroke="midnightblue" points="1016.96,-256.975 1023.49,-248.637 1013.19,-251.078 1016.96,-256.975"/>
</g>
<!-- Node38 -->
<g id="node39" class="node"><title>Node38</title>
<g id="a_node39"><a xlink:href="mhrw__bin__err_8h.html" target="_top" xlink:title="Binning Analysis in a Metropolis&#45;Hastings random walk. ">
<polygon fill="none" stroke="black" points="1340.23,-285.5 1340.23,-313.5 1459.06,-313.5 1459.06,-285.5 1340.23,-285.5"/>
<text text-anchor="start" x="1348.23" y="-301.5" font-family="Helvetica,sans-Serif" font-size="10.00">tomographer/mhrw_bin</text>
<text text-anchor="middle" x="1399.64" y="-291.5" font-family="Helvetica,sans-Serif" font-size="10.00">_err.h</text>
</a>
</g>
</g>
<!-- Node0&#45;&gt;Node38 -->
<g id="edge67" class="edge"><title>Node0&#45;&gt;Node38</title>
<path fill="none" stroke="midnightblue" d="M536.535,-353.251C722.54,-341.883 1159.54,-315.174 1329.91,-304.762"/>
<polygon fill="midnightblue" stroke="midnightblue" points="1330.24,-308.248 1340.01,-304.145 1329.82,-301.261 1330.24,-308.248"/>
</g>
<!-- Node7&#45;&gt;Node1 -->
<g id="edge9" class="edge"><title>Node7&#45;&gt;Node1</title>
<path fill="none" stroke="midnightblue" d="M1273.22,-110.448C1229.56,-102.838 1172.42,-90.1848 1155.64,-74 1143.49,-62.2757 1139.03,-43.1236 1137.43,-28.914"/>
<polygon fill="midnightblue" stroke="midnightblue" points="1140.91,-28.5246 1136.67,-18.8141 1133.93,-29.0476 1140.91,-28.5246"/>
</g>
<!-- Node7&#45;&gt;Node5 -->
<g id="edge13" class="edge"><title>Node7&#45;&gt;Node5</title>
<path fill="none" stroke="midnightblue" d="M1264.07,-110.45C1178.78,-99.4791 1028.38,-80.1316 955.936,-70.8117"/>
<polygon fill="midnightblue" stroke="midnightblue" points="956.194,-67.3162 945.829,-69.5116 955.301,-74.259 956.194,-67.3162"/>
</g>
<!-- Node8 -->
<g id="node9" class="node"><title>Node8</title>
<polygon fill="none" stroke="#bfbfbf" points="1387.53,-0.5 1387.53,-18.5 1435.76,-18.5 1435.76,-0.5 1387.53,-0.5"/>
<text text-anchor="middle" x="1411.64" y="-6.5" font-family="Helvetica,sans-Serif" font-size="10.00">cassert</text>
</g>
<!-- Node7&#45;&gt;Node8 -->
<g id="edge8" class="edge"><title>Node7&#45;&gt;Node8</title>
<path fill="none" stroke="midnightblue" d="M1355.64,-110.477C1373.82,-103.83 1395.95,-92.4221 1407.64,-74 1416.16,-60.5946 1416.37,-42.222 1414.92,-28.6874"/>
<polygon fill="midnightblue" stroke="midnightblue" points="1418.37,-28.061 1413.46,-18.6715 1411.44,-29.0723 1418.37,-28.061"/>
</g>
<!-- Node9 -->
<g id="node10" class="node"><title>Node9</title>
<polygon fill="none" stroke="#bfbfbf" points="1289.47,-0.5 1289.47,-18.5 1333.82,-18.5 1333.82,-0.5 1289.47,-0.5"/>
<text text-anchor="middle" x="1311.64" y="-6.5" font-family="Helvetica,sans-Serif" font-size="10.00">cstdlib</text>
</g>
<!-- Node7&#45;&gt;Node9 -->
<g id="edge10" class="edge"><title>Node7&#45;&gt;Node9</title>
<path fill="none" stroke="midnightblue" d="M1346.66,-110.412C1370.53,-99.494 1405.56,-78.6622 1391.64,-55 1381.34,-37.4781 1361.36,-26.3568 1343.95,-19.6142"/>
<polygon fill="midnightblue" stroke="midnightblue" points="1344.68,-16.1609 1334.09,-16.1349 1342.35,-22.7622 1344.68,-16.1609"/>
</g>
<!-- Node10 -->
<g id="node11" class="node"><title>Node10</title>
<polygon fill="none" stroke="#bfbfbf" points="696.472,-55.5 696.472,-73.5 750.817,-73.5 750.817,-55.5 696.472,-55.5"/>
<text text-anchor="middle" x="723.644" y="-61.5" font-family="Helvetica,sans-Serif" font-size="10.00">iostream</text>
</g>
<!-- Node7&#45;&gt;Node10 -->
<g id="edge11" class="edge"><title>Node7&#45;&gt;Node10</title>
<path fill="none" stroke="midnightblue" d="M1258.63,-110.897C1255.6,-110.588 1252.59,-110.287 1249.64,-110 1066.64,-92.161 847.407,-74.951 761.135,-68.341"/>
<polygon fill="midnightblue" stroke="midnightblue" points="761.284,-64.8423 751.046,-67.57 760.75,-71.8219 761.284,-64.8423"/>
</g>
<!-- Node11 -->
<g id="node12" class="node"><title>Node11</title>
<polygon fill="none" stroke="#bfbfbf" points="1707.03,-55.5 1707.03,-73.5 1760.26,-73.5 1760.26,-55.5 1707.03,-55.5"/>
<text text-anchor="middle" x="1733.64" y="-61.5" font-family="Helvetica,sans-Serif" font-size="10.00">complex</text>
</g>
<!-- Node7&#45;&gt;Node11 -->
<g id="edge12" class="edge"><title>Node7&#45;&gt;Node11</title>
<path fill="none" stroke="midnightblue" d="M1388.46,-110.45C1474.34,-99.2675 1627.04,-79.382 1696.91,-70.2837"/>
<polygon fill="midnightblue" stroke="midnightblue" points="1697.53,-73.7325 1706.99,-68.9704 1696.63,-66.7911 1697.53,-73.7325"/>
</g>
<!-- Node12 -->
<g id="node13" class="node"><title>Node12</title>
<polygon fill="none" stroke="#bfbfbf" points="1164.24,-55.5 1164.24,-73.5 1223.05,-73.5 1223.05,-55.5 1164.24,-55.5"/>
<text text-anchor="middle" x="1193.64" y="-61.5" font-family="Helvetica,sans-Serif" font-size="10.00">exception</text>
</g>
<!-- Node7&#45;&gt;Node12 -->
<g id="edge14" class="edge"><title>Node7&#45;&gt;Node12</title>
<path fill="none" stroke="midnightblue" d="M1306.44,-110.45C1284.38,-101.656 1248.8,-87.4802 1223.51,-77.4006"/>
<polygon fill="midnightblue" stroke="midnightblue" points="1224.62,-74.0759 1214.03,-73.6253 1222.03,-80.5786 1224.62,-74.0759"/>
</g>
<!-- Node13 -->
<g id="node14" class="node"><title>Node13</title>
<polygon fill="none" stroke="#bfbfbf" points="1050.24,-55.5 1050.24,-73.5 1109.05,-73.5 1109.05,-55.5 1050.24,-55.5"/>
<text text-anchor="middle" x="1079.64" y="-61.5" font-family="Helvetica,sans-Serif" font-size="10.00">stdexcept</text>
</g>
<!-- Node7&#45;&gt;Node13 -->
<g id="edge15" class="edge"><title>Node7&#45;&gt;Node13</title>
<path fill="none" stroke="midnightblue" d="M1289.13,-110.45C1243.33,-100.624 1166.22,-84.0779 1119.42,-74.0357"/>
<polygon fill="midnightblue" stroke="midnightblue" points="1119.86,-70.5505 1109.35,-71.8745 1118.4,-77.3947 1119.86,-70.5505"/>
</g>
<!-- Node14 -->
<g id="node15" class="node"><title>Node14</title>
<g id="a_node15"><a xlink:href="cxxdefs_8h.html" target="_top" xlink:title="Basic definitions, which may have to be defined before any Eigen headers or further utilities are inc...">
<polygon fill="none" stroke="black" points="1240.83,-55.5 1240.83,-73.5 1382.45,-73.5 1382.45,-55.5 1240.83,-55.5"/>
<text text-anchor="middle" x="1311.64" y="-61.5" font-family="Helvetica,sans-Serif" font-size="10.00">tomographer/tools/cxxdefs.h</text>
</a>
</g>
</g>
<!-- Node7&#45;&gt;Node14 -->
<g id="edge16" class="edge"><title>Node7&#45;&gt;Node14</title>
<path fill="none" stroke="midnightblue" d="M1324.3,-110.219C1322.26,-103.02 1319.24,-92.3458 1316.66,-83.2311"/>
<polygon fill="midnightblue" stroke="midnightblue" points="1320.01,-82.2185 1313.92,-73.5496 1313.28,-84.1248 1320.01,-82.2185"/>
</g>
<!-- Node15 -->
<g id="node16" class="node"><title>Node15</title>
<g id="a_node16"><a xlink:href="conststr_8h.html" target="_top" xlink:title="A constexpr string type, suitable for basic compile&#45;time string processing. ">
<polygon fill="none" stroke="black" points="263.553,-55.5 263.553,-73.5 405.735,-73.5 405.735,-55.5 263.553,-55.5"/>
<text text-anchor="middle" x="334.644" y="-61.5" font-family="Helvetica,sans-Serif" font-size="10.00">tomographer/tools/conststr.h</text>
</a>
</g>
</g>
<!-- Node7&#45;&gt;Node15 -->
<g id="edge20" class="edge"><title>Node7&#45;&gt;Node15</title>
<path fill="none" stroke="midnightblue" d="M1258.65,-110.765C1255.61,-110.491 1252.59,-110.234 1249.64,-110 942.474,-85.5995 576.158,-72.644 416.162,-67.7859"/>
<polygon fill="midnightblue" stroke="midnightblue" points="416.025,-64.2803 405.924,-67.4776 415.814,-71.2772 416.025,-64.2803"/>
</g>
<!-- Node17 -->
<g id="node18" class="node"><title>Node17</title>
<polygon fill="none" stroke="#bfbfbf" points="1476.63,-55.5 1476.63,-73.5 1542.66,-73.5 1542.66,-55.5 1476.63,-55.5"/>
<text text-anchor="middle" x="1509.64" y="-61.5" font-family="Helvetica,sans-Serif" font-size="10.00">Eigen/Core</text>
</g>
<!-- Node7&#45;&gt;Node17 -->
<g id="edge22" class="edge"><title>Node7&#45;&gt;Node17</title>
<path fill="none" stroke="midnightblue" d="M1354.44,-110.45C1385.83,-101.357 1437.1,-86.5108 1472.05,-76.3879"/>
<polygon fill="midnightblue" stroke="midnightblue" points="1473.26,-79.6821 1481.89,-73.5383 1471.31,-72.9584 1473.26,-79.6821"/>
</g>
<!-- Node14&#45;&gt;Node1 -->
<g id="edge18" class="edge"><title>Node14&#45;&gt;Node1</title>
<path fill="none" stroke="midnightblue" d="M1285.07,-55.4504C1254.48,-46.1865 1204.17,-30.9506 1170.73,-20.8222"/>
<polygon fill="midnightblue" stroke="midnightblue" points="1171.52,-17.4039 1160.93,-17.8551 1169.49,-24.1034 1171.52,-17.4039"/>
</g>
<!-- Node14&#45;&gt;Node8 -->
<g id="edge17" class="edge"><title>Node14&#45;&gt;Node8</title>
<path fill="none" stroke="midnightblue" d="M1326.83,-55.4504C1342.91,-46.9286 1368.53,-33.3532 1387.4,-23.3487"/>
<polygon fill="midnightblue" stroke="midnightblue" points="1389.12,-26.4008 1396.31,-18.6253 1385.84,-20.2158 1389.12,-26.4008"/>
</g>
<!-- Node14&#45;&gt;Node9 -->
<g id="edge19" class="edge"><title>Node14&#45;&gt;Node9</title>
<path fill="none" stroke="midnightblue" d="M1311.64,-55.2188C1311.64,-48.1769 1311.64,-37.8083 1311.64,-28.8277"/>
<polygon fill="midnightblue" stroke="midnightblue" points="1315.14,-28.5495 1311.64,-18.5496 1308.14,-28.5496 1315.14,-28.5495"/>
</g>
<!-- Node16 -->
<g id="node17" class="node"><title>Node16</title>
<polygon fill="none" stroke="#bfbfbf" points="314.418,-0.5 314.418,-18.5 354.871,-18.5 354.871,-0.5 314.418,-0.5"/>
<text text-anchor="middle" x="334.644" y="-6.5" font-family="Helvetica,sans-Serif" font-size="10.00">string</text>
</g>
<!-- Node15&#45;&gt;Node16 -->
<g id="edge21" class="edge"><title>Node15&#45;&gt;Node16</title>
<path fill="none" stroke="midnightblue" d="M334.644,-55.2188C334.644,-48.1769 334.644,-37.8083 334.644,-28.8277"/>
<polygon fill="midnightblue" stroke="midnightblue" points="338.144,-28.5495 334.644,-18.5496 331.144,-28.5496 338.144,-28.5495"/>
</g>
<!-- Node18&#45;&gt;Node5 -->
<g id="edge30" class="edge"><title>Node18&#45;&gt;Node5</title>
<path fill="none" stroke="midnightblue" d="M493.914,-237.583C557.939,-234.627 654.06,-224.794 731.644,-194 767.387,-179.813 857.409,-110.624 896.29,-80.0615"/>
<polygon fill="midnightblue" stroke="midnightblue" points="898.918,-82.446 904.601,-73.504 894.582,-76.9506 898.918,-82.446"/>
</g>
<!-- Node18&#45;&gt;Node10 -->
<g id="edge28" class="edge"><title>Node18&#45;&gt;Node10</title>
<path fill="none" stroke="midnightblue" d="M353.202,-235.827C287.173,-231.666 195.318,-221.047 172.644,-194 164.364,-184.123 164.729,-175.172 172.644,-165 235.898,-83.7139 571.995,-68.8224 685.878,-66.1042"/>
<polygon fill="midnightblue" stroke="midnightblue" points="686.268,-69.5965 696.188,-65.8773 686.114,-62.5982 686.268,-69.5965"/>
</g>
<!-- Node18&#45;&gt;Node15 -->
<g id="edge42" class="edge"><title>Node18&#45;&gt;Node15</title>
<path fill="none" stroke="midnightblue" d="M353.344,-237.55C278.328,-234.871 166.613,-225.523 139.644,-194 115.375,-165.632 116.367,-139.188 139.644,-110 154.122,-91.8463 206.691,-80.5153 253.602,-73.833"/>
<polygon fill="midnightblue" stroke="midnightblue" points="254.077,-77.3006 263.51,-72.4768 253.128,-70.3652 254.077,-77.3006"/>
</g>
<!-- Node18&#45;&gt;Node16 -->
<g id="edge26" class="edge"><title>Node18&#45;&gt;Node16</title>
<path fill="none" stroke="midnightblue" d="M353.101,-238.406C272.891,-236.621 149.204,-228.202 119.644,-194 110.431,-183.34 114.933,-123.91 124.644,-110 167.157,-49.1081 257.11,-24.3399 304.298,-15.2292"/>
<polygon fill="midnightblue" stroke="midnightblue" points="305.02,-18.6554 314.232,-13.4219 303.767,-11.7685 305.02,-18.6554"/>
</g>
<!-- Node19 -->
<g id="node20" class="node"><title>Node19</title>
<polygon fill="none" stroke="#bfbfbf" points="454.583,-110.5 454.583,-128.5 496.706,-128.5 496.706,-110.5 454.583,-110.5"/>
<text text-anchor="middle" x="475.644" y="-116.5" font-family="Helvetica,sans-Serif" font-size="10.00">cstdio</text>
</g>
<!-- Node18&#45;&gt;Node19 -->
<g id="edge24" class="edge"><title>Node18&#45;&gt;Node19</title>
<path fill="none" stroke="midnightblue" d="M429.657,-230.322C435.82,-221.651 445.364,-207.387 451.644,-194 460.177,-175.811 466.936,-153.766 471.079,-138.592"/>
<polygon fill="midnightblue" stroke="midnightblue" points="474.466,-139.472 473.621,-128.911 467.696,-137.694 474.466,-139.472"/>
</g>
<!-- Node20 -->
<g id="node21" class="node"><title>Node20</title>
<polygon fill="none" stroke="#bfbfbf" points="514.248,-110.5 514.248,-128.5 563.041,-128.5 563.041,-110.5 514.248,-110.5"/>
<text text-anchor="middle" x="538.644" y="-116.5" font-family="Helvetica,sans-Serif" font-size="10.00">cstdarg</text>
</g>
<!-- Node18&#45;&gt;Node20 -->
<g id="edge25" class="edge"><title>Node18&#45;&gt;Node20</title>
<path fill="none" stroke="midnightblue" d="M433.064,-230.194C442.903,-221.42 458.682,-207.072 471.644,-194 490.548,-174.937 511.204,-151.917 524.511,-136.779"/>
<polygon fill="midnightblue" stroke="midnightblue" points="527.482,-138.698 531.428,-128.866 522.211,-134.092 527.482,-138.698"/>
</g>
<!-- Node21 -->
<g id="node22" class="node"><title>Node21</title>
<polygon fill="none" stroke="#bfbfbf" points="720.863,-110.5 720.863,-128.5 772.425,-128.5 772.425,-110.5 720.863,-110.5"/>
<text text-anchor="middle" x="746.644" y="-116.5" font-family="Helvetica,sans-Serif" font-size="10.00">sstream</text>
</g>
<!-- Node18&#45;&gt;Node21 -->
<g id="edge27" class="edge"><title>Node18&#45;&gt;Node21</title>
<path fill="none" stroke="midnightblue" d="M494.145,-234.376C566.279,-228.943 672.365,-217.222 705.644,-194 724.517,-180.831 735.686,-156.045 741.488,-138.922"/>
<polygon fill="midnightblue" stroke="midnightblue" points="744.953,-139.562 744.552,-128.974 738.263,-137.501 744.953,-139.562"/>
</g>
<!-- Node22 -->
<g id="node23" class="node"><title>Node22</title>
<polygon fill="none" stroke="#bfbfbf" points="181.24,-170.5 181.24,-188.5 240.048,-188.5 240.048,-170.5 181.24,-170.5"/>
<text text-anchor="middle" x="210.644" y="-176.5" font-family="Helvetica,sans-Serif" font-size="10.00">functional</text>
</g>
<!-- Node18&#45;&gt;Node22 -->
<g id="edge29" class="edge"><title>Node18&#45;&gt;Node22</title>
<path fill="none" stroke="midnightblue" d="M388.185,-230.498C352.643,-222.241 296.483,-208.546 248.644,-194 246.384,-193.313 244.058,-192.572 241.725,-191.804"/>
<polygon fill="midnightblue" stroke="midnightblue" points="242.827,-188.481 232.232,-188.558 240.563,-195.105 242.827,-188.481"/>
</g>
<!-- Node23 -->
<g id="node24" class="node"><title>Node23</title>
<polygon fill="none" stroke="#bfbfbf" points="257.918,-170.5 257.918,-188.5 293.371,-188.5 293.371,-170.5 257.918,-170.5"/>
<text text-anchor="middle" x="275.644" y="-176.5" font-family="Helvetica,sans-Serif" font-size="10.00">map</text>
</g>
<!-- Node18&#45;&gt;Node23 -->
<g id="edge31" class="edge"><title>Node18&#45;&gt;Node23</title>
<path fill="none" stroke="midnightblue" d="M398.505,-230.391C373.574,-222.103 334.458,-208.432 301.644,-194 300.946,-193.693 300.24,-193.375 299.53,-193.05"/>
<polygon fill="midnightblue" stroke="midnightblue" points="300.853,-189.8 290.333,-188.546 297.775,-196.087 300.853,-189.8"/>
</g>
<!-- Node24 -->
<g id="node25" class="node"><title>Node24</title>
<polygon fill="none" stroke="#bfbfbf" points="311.113,-170.5 311.113,-188.5 442.176,-188.5 442.176,-170.5 311.113,-170.5"/>
<text text-anchor="middle" x="376.644" y="-176.5" font-family="Helvetica,sans-Serif" font-size="10.00">boost/algorithm/string.hpp</text>
</g>
<!-- Node18&#45;&gt;Node24 -->
<g id="edge32" class="edge"><title>Node18&#45;&gt;Node24</title>
<path fill="none" stroke="midnightblue" d="M417.109,-230.435C410.103,-221.79 398.79,-207.829 389.905,-196.864"/>
<polygon fill="midnightblue" stroke="midnightblue" points="392.443,-194.438 383.428,-188.872 387.005,-198.845 392.443,-194.438"/>
</g>
<!-- Node25 -->
<g id="node26" class="node"><title>Node25</title>
<g id="a_node26"><a xlink:href="fmt_8h.html" target="_top" xlink:title="Utilities for formatting strings. ">
<polygon fill="none" stroke="black" points="574.842,-170.5 574.842,-188.5 696.447,-188.5 696.447,-170.5 574.842,-170.5"/>
<text text-anchor="middle" x="635.644" y="-176.5" font-family="Helvetica,sans-Serif" font-size="10.00">tomographer/tools/fmt.h</text>
</a>
</g>
</g>
<!-- Node18&#45;&gt;Node25 -->
<g id="edge33" class="edge"><title>Node18&#45;&gt;Node25</title>
<path fill="none" stroke="midnightblue" d="M453.122,-230.435C490.435,-220.227 554.835,-202.608 596.312,-191.261"/>
<polygon fill="midnightblue" stroke="midnightblue" points="597.354,-194.604 606.076,-188.589 595.507,-187.852 597.354,-194.604"/>
</g>
<!-- Node25&#45;&gt;Node4 -->
<g id="edge40" class="edge"><title>Node25&#45;&gt;Node4</title>
<path fill="none" stroke="midnightblue" d="M603.265,-170.482C567.289,-161.483 507.254,-146.193 446.885,-129.273"/>
<polygon fill="midnightblue" stroke="midnightblue" points="447.772,-125.887 437.197,-126.544 445.874,-132.624 447.772,-125.887"/>
</g>
<!-- Node25&#45;&gt;Node7 -->
<g id="edge41" class="edge"><title>Node25&#45;&gt;Node7</title>
<path fill="none" stroke="midnightblue" d="M696.7,-174.177C805.351,-166.353 1039.66,-148.888 1248.4,-129.092"/>
<polygon fill="midnightblue" stroke="midnightblue" points="1249.01,-132.55 1258.64,-128.118 1248.35,-125.581 1249.01,-132.55"/>
</g>
<!-- Node25&#45;&gt;Node10 -->
<g id="edge39" class="edge"><title>Node25&#45;&gt;Node10</title>
<path fill="none" stroke="midnightblue" d="M634.971,-170.073C634.302,-156.246 634.83,-128.442 647.644,-110 657.904,-95.2346 674.774,-84.6445 690.017,-77.5095"/>
<polygon fill="midnightblue" stroke="midnightblue" points="691.449,-80.7037 699.224,-73.507 688.658,-74.2841 691.449,-80.7037"/>
</g>
<!-- Node25&#45;&gt;Node16 -->
<g id="edge37" class="edge"><title>Node25&#45;&gt;Node16</title>
<path fill="none" stroke="midnightblue" d="M629.811,-170.27C619.498,-156.233 596.751,-127.489 571.644,-110 504.581,-63.2858 412.171,-32.4853 365.007,-18.7382"/>
<polygon fill="midnightblue" stroke="midnightblue" points="365.689,-15.2933 355.112,-15.9122 363.767,-22.0241 365.689,-15.2933"/>
</g>
<!-- Node25&#45;&gt;Node19 -->
<g id="edge34" class="edge"><title>Node25&#45;&gt;Node19</title>
<path fill="none" stroke="midnightblue" d="M613.397,-170.435C585.581,-160.352 537.82,-143.039 506.487,-131.681"/>
<polygon fill="midnightblue" stroke="midnightblue" points="507.532,-128.336 496.938,-128.219 505.146,-134.917 507.532,-128.336"/>
</g>
<!-- Node25&#45;&gt;Node20 -->
<g id="edge35" class="edge"><title>Node25&#45;&gt;Node20</title>
<path fill="none" stroke="midnightblue" d="M622.157,-170.435C606.32,-160.966 579.819,-145.12 560.918,-133.818"/>
<polygon fill="midnightblue" stroke="midnightblue" points="562.709,-130.811 552.33,-128.683 559.116,-136.819 562.709,-130.811"/>
</g>
<!-- Node25&#45;&gt;Node21 -->
<g id="edge38" class="edge"><title>Node25&#45;&gt;Node21</title>
<path fill="none" stroke="midnightblue" d="M651.078,-170.435C669.448,-160.837 700.356,-144.687 722.036,-133.359"/>
<polygon fill="midnightblue" stroke="midnightblue" points="723.741,-136.416 730.983,-128.683 720.5,-130.212 723.741,-136.416"/>
</g>
<!-- Node26 -->
<g id="node27" class="node"><title>Node26</title>
<polygon fill="none" stroke="#bfbfbf" points="656.356,-110.5 656.356,-128.5 702.932,-128.5 702.932,-110.5 656.356,-110.5"/>
<text text-anchor="middle" x="679.644" y="-116.5" font-family="Helvetica,sans-Serif" font-size="10.00">chrono</text>
</g>
<!-- Node25&#45;&gt;Node26 -->
<g id="edge36" class="edge"><title>Node25&#45;&gt;Node26</title>
<path fill="none" stroke="midnightblue" d="M641.762,-170.435C648.321,-161.79 658.912,-147.829 667.23,-136.864"/>
<polygon fill="midnightblue" stroke="midnightblue" points="670.038,-138.954 673.293,-128.872 664.461,-134.723 670.038,-138.954"/>
</g>
<!-- Node27&#45;&gt;Node4 -->
<g id="edge46" class="edge"><title>Node27&#45;&gt;Node4</title>
<path fill="none" stroke="midnightblue" d="M971.659,-235.338C861.396,-229.406 640.23,-215.26 565.644,-194 517.556,-180.293 466.344,-151.18 438.552,-133.993"/>
<polygon fill="midnightblue" stroke="midnightblue" points="440.394,-131.016 430.064,-128.661 436.67,-136.944 440.394,-131.016"/>
</g>
<!-- Node27&#45;&gt;Node5 -->
<g id="edge51" class="edge"><title>Node27&#45;&gt;Node5</title>
<path fill="none" stroke="midnightblue" d="M1015.41,-230.373C999.4,-223.017 977.5,-210.763 963.644,-194 936.092,-160.668 922.999,-110.177 917.696,-83.4932"/>
<polygon fill="midnightblue" stroke="midnightblue" points="921.134,-82.8354 915.882,-73.6343 914.25,-84.1027 921.134,-82.8354"/>
</g>
<!-- Node27&#45;&gt;Node7 -->
<g id="edge62" class="edge"><title>Node27&#45;&gt;Node7</title>
<path fill="none" stroke="midnightblue" d="M1099.72,-236.011C1207.5,-231.16 1415.54,-218.685 1437.64,-194 1462.84,-165.865 1410.65,-143.702 1369.6,-131.349"/>
<polygon fill="midnightblue" stroke="midnightblue" points="1370.56,-127.985 1359.98,-128.57 1368.62,-134.71 1370.56,-127.985"/>
</g>
<!-- Node27&#45;&gt;Node9 -->
<g id="edge45" class="edge"><title>Node27&#45;&gt;Node9</title>
<path fill="none" stroke="midnightblue" d="M1099.58,-235.001C1128.28,-229.846 1159.67,-218.465 1177.64,-194 1228.81,-124.344 985.719,-120.897 1041.64,-55 1056.89,-37.0354 1210.65,-20.1898 1279.09,-13.5175"/>
<polygon fill="midnightblue" stroke="midnightblue" points="1279.69,-16.9762 1289.31,-12.5353 1279.02,-10.0083 1279.69,-16.9762"/>
</g>
<!-- Node27&#45;&gt;Node10 -->
<g id="edge47" class="edge"><title>Node27&#45;&gt;Node10</title>
<path fill="none" stroke="midnightblue" d="M1017.59,-230.411C998.69,-221.813 968.25,-207.607 942.644,-194 869.078,-154.906 784.779,-103.503 745.686,-79.2701"/>
<polygon fill="midnightblue" stroke="midnightblue" points="747.095,-76.0253 736.755,-73.7186 743.4,-81.9704 747.095,-76.0253"/>
</g>
<!-- Node27&#45;&gt;Node13 -->
<g id="edge50" class="edge"><title>Node27&#45;&gt;Node13</title>
<path fill="none" stroke="midnightblue" d="M1015.11,-230.465C1000.06,-223.357 980.734,-211.391 971.644,-194 965.674,-182.577 966.469,-176.804 971.644,-165 988.859,-125.733 1030.06,-95.1181 1056.31,-78.733"/>
<polygon fill="midnightblue" stroke="midnightblue" points="1058.16,-81.7067 1064.91,-73.54 1054.54,-75.7152 1058.16,-81.7067"/>
</g>
<!-- Node27&#45;&gt;Node17 -->
<g id="edge54" class="edge"><title>Node27&#45;&gt;Node17</title>
<path fill="none" stroke="midnightblue" d="M1099.57,-239.461C1202.94,-239.767 1400.77,-234.793 1455.64,-194 1491.49,-167.353 1503.72,-112.335 1507.75,-83.7061"/>
<polygon fill="midnightblue" stroke="midnightblue" points="1511.26,-83.869 1508.99,-73.5192 1504.31,-83.0226 1511.26,-83.869"/>
</g>
<!-- Node27&#45;&gt;Node21 -->
<g id="edge49" class="edge"><title>Node27&#45;&gt;Node21</title>
<path fill="none" stroke="midnightblue" d="M971.664,-234.111C928.165,-229 870.428,-217.939 824.644,-194 797.685,-179.904 773.346,-153.833 759.277,-136.832"/>
<polygon fill="midnightblue" stroke="midnightblue" points="761.884,-134.49 752.896,-128.881 756.425,-138.871 761.884,-134.49"/>
</g>
<!-- Node27&#45;&gt;Node25 -->
<g id="edge55" class="edge"><title>Node27&#45;&gt;Node25</title>
<path fill="none" stroke="midnightblue" d="M980.446,-230.496C907.427,-219.909 778.907,-201.273 701.084,-189.989"/>
<polygon fill="midnightblue" stroke="midnightblue" points="701.317,-186.486 690.918,-188.515 700.312,-193.414 701.317,-186.486"/>
</g>
<!-- Node28 -->
<g id="node29" class="node"><title>Node28</title>
<polygon fill="none" stroke="#bfbfbf" points="981.029,-170.5 981.029,-188.5 1024.26,-188.5 1024.26,-170.5 981.029,-170.5"/>
<text text-anchor="middle" x="1002.64" y="-176.5" font-family="Helvetica,sans-Serif" font-size="10.00">cmath</text>
</g>
<!-- Node27&#45;&gt;Node28 -->
<g id="edge44" class="edge"><title>Node27&#45;&gt;Node28</title>
<path fill="none" stroke="midnightblue" d="M1031.06,-230.435C1026.28,-222.047 1018.66,-208.654 1012.52,-197.849"/>
<polygon fill="midnightblue" stroke="midnightblue" points="1015.39,-195.833 1007.41,-188.872 1009.31,-199.294 1015.39,-195.833"/>
</g>
<!-- Node29 -->
<g id="node30" class="node"><title>Node29</title>
<polygon fill="none" stroke="#bfbfbf" points="1042.13,-170.5 1042.13,-188.5 1093.15,-188.5 1093.15,-170.5 1042.13,-170.5"/>
<text text-anchor="middle" x="1067.64" y="-176.5" font-family="Helvetica,sans-Serif" font-size="10.00">iomanip</text>
</g>
<!-- Node27&#45;&gt;Node29 -->
<g id="edge48" class="edge"><title>Node27&#45;&gt;Node29</title>
<path fill="none" stroke="midnightblue" d="M1040.09,-230.435C1044.72,-222.047 1052.11,-208.654 1058.07,-197.849"/>
<polygon fill="midnightblue" stroke="midnightblue" points="1061.26,-199.318 1063.03,-188.872 1055.13,-195.937 1061.26,-199.318"/>
</g>
<!-- Node30 -->
<g id="node31" class="node"><title>Node30</title>
<polygon fill="none" stroke="#bfbfbf" points="1111.08,-170.5 1111.08,-188.5 1168.21,-188.5 1168.21,-170.5 1111.08,-170.5"/>
<text text-anchor="middle" x="1139.64" y="-176.5" font-family="Helvetica,sans-Serif" font-size="10.00">algorithm</text>
</g>
<!-- Node27&#45;&gt;Node30 -->
<g id="edge52" class="edge"><title>Node27&#45;&gt;Node30</title>
<path fill="none" stroke="midnightblue" d="M1050.11,-230.435C1067.16,-220.923 1095.76,-204.976 1116.04,-193.665"/>
<polygon fill="midnightblue" stroke="midnightblue" points="1117.94,-196.611 1124.97,-188.683 1114.53,-190.497 1117.94,-196.611"/>
</g>
<!-- Node31 -->
<g id="node32" class="node"><title>Node31</title>
<polygon fill="none" stroke="#bfbfbf" points="1523.12,-165.5 1523.12,-193.5 1634.17,-193.5 1634.17,-165.5 1523.12,-165.5"/>
<text text-anchor="start" x="1531.12" y="-181.5" font-family="Helvetica,sans-Serif" font-size="10.00">boost/math/constants</text>
<text text-anchor="middle" x="1578.64" y="-171.5" font-family="Helvetica,sans-Serif" font-size="10.00">/constants.hpp</text>
</g>
<!-- Node27&#45;&gt;Node31 -->
<g id="edge53" class="edge"><title>Node27&#45;&gt;Node31</title>
<path fill="none" stroke="midnightblue" d="M1099.76,-234.443C1190.92,-228.227 1363.11,-214.83 1508.64,-194 1510.1,-193.792 1511.57,-193.574 1513.05,-193.347"/>
<polygon fill="midnightblue" stroke="midnightblue" points="1513.63,-196.799 1522.94,-191.746 1512.51,-189.889 1513.63,-196.799"/>
</g>
<!-- Node32 -->
<g id="node33" class="node"><title>Node32</title>
<g id="a_node33"><a xlink:href="eigenutil_8h.html" target="_top" xlink:title="Basic utilities for dealing with Eigen matrices and other types. ">
<polygon fill="none" stroke="black" points="1728.16,-170.5 1728.16,-188.5 1873.13,-188.5 1873.13,-170.5 1728.16,-170.5"/>
<text text-anchor="middle" x="1800.64" y="-176.5" font-family="Helvetica,sans-Serif" font-size="10.00">tomographer/tools/eigenutil.h</text>
</a>
</g>
</g>
<!-- Node27&#45;&gt;Node32 -->
<g id="edge56" class="edge"><title>Node27&#45;&gt;Node32</title>
<path fill="none" stroke="midnightblue" d="M1099.57,-234.09C1210.37,-226.385 1445.3,-209.786 1643.64,-194 1667.75,-192.082 1693.92,-189.879 1717.86,-187.817"/>
<polygon fill="midnightblue" stroke="midnightblue" points="1718.31,-191.291 1727.97,-186.943 1717.7,-184.317 1718.31,-191.291"/>
</g>
<!-- Node36 -->
<g id="node37" class="node"><title>Node36</title>
<g id="a_node37"><a xlink:href="needownoperatornew_8h.html" target="_top" xlink:title="Managing the need for specific overrides to operator new() for some types (especially Eigen types) ...">
<polygon fill="none" stroke="black" points="1224.97,-170.5 1224.97,-188.5 1428.32,-188.5 1428.32,-170.5 1224.97,-170.5"/>
<text text-anchor="middle" x="1326.64" y="-176.5" font-family="Helvetica,sans-Serif" font-size="10.00">tomographer/tools/needownoperatornew.h</text>
</a>
</g>
</g>
<!-- Node27&#45;&gt;Node36 -->
<g id="edge63" class="edge"><title>Node27&#45;&gt;Node36</title>
<path fill="none" stroke="midnightblue" d="M1075.8,-230.496C1128.16,-220.06 1219.76,-201.804 1276.59,-190.477"/>
<polygon fill="midnightblue" stroke="midnightblue" points="1277.31,-193.902 1286.43,-188.515 1275.94,-187.037 1277.31,-193.902"/>
</g>
<!-- Node32&#45;&gt;Node11 -->
<g id="edge57" class="edge"><title>Node32&#45;&gt;Node11</title>
<path fill="none" stroke="midnightblue" d="M1813.03,-170.463C1831.23,-157.642 1861.48,-131.787 1846.64,-110 1829.67,-85.0757 1796.4,-74.1113 1770.33,-69.2881"/>
<polygon fill="midnightblue" stroke="midnightblue" points="1770.82,-65.8215 1760.39,-67.6737 1769.7,-72.731 1770.82,-65.8215"/>
</g>
<!-- Node32&#45;&gt;Node17 -->
<g id="edge59" class="edge"><title>Node32&#45;&gt;Node17</title>
<path fill="none" stroke="midnightblue" d="M1755.66,-170.432C1702.53,-160.482 1617.7,-143.15 1588.64,-129 1563.82,-116.908 1539.74,-95.7776 1524.82,-81.2347"/>
<polygon fill="midnightblue" stroke="midnightblue" points="1527.08,-78.5363 1517.53,-73.9324 1522.12,-83.482 1527.08,-78.5363"/>
</g>
<!-- Node33 -->
<g id="node34" class="node"><title>Node33</title>
<polygon fill="none" stroke="#bfbfbf" points="1703.03,-110.5 1703.03,-128.5 1746.26,-128.5 1746.26,-110.5 1703.03,-110.5"/>
<text text-anchor="middle" x="1724.64" y="-116.5" font-family="Helvetica,sans-Serif" font-size="10.00">vector</text>
</g>
<!-- Node32&#45;&gt;Node33 -->
<g id="edge58" class="edge"><title>Node32&#45;&gt;Node33</title>
<path fill="none" stroke="midnightblue" d="M1790.08,-170.435C1778.08,-161.276 1758.26,-146.152 1743.57,-134.944"/>
<polygon fill="midnightblue" stroke="midnightblue" points="1745.69,-132.156 1735.61,-128.872 1741.44,-137.721 1745.69,-132.156"/>
</g>
<!-- Node34 -->
<g id="node35" class="node"><title>Node34</title>
<polygon fill="none" stroke="#bfbfbf" points="1764.01,-110.5 1764.01,-128.5 1837.27,-128.5 1837.27,-110.5 1764.01,-110.5"/>
<text text-anchor="middle" x="1800.64" y="-116.5" font-family="Helvetica,sans-Serif" font-size="10.00">Eigen/Dense</text>
</g>
<!-- Node32&#45;&gt;Node34 -->
<g id="edge60" class="edge"><title>Node32&#45;&gt;Node34</title>
<path fill="none" stroke="midnightblue" d="M1800.64,-170.435C1800.64,-162.389 1800.64,-149.739 1800.64,-139.185"/>
<polygon fill="midnightblue" stroke="midnightblue" points="1804.14,-138.872 1800.64,-128.872 1797.14,-138.872 1804.14,-138.872"/>
</g>
<!-- Node35 -->
<g id="node36" class="node"><title>Node35</title>
<polygon fill="none" stroke="#bfbfbf" points="1597.78,-110.5 1597.78,-128.5 1685.5,-128.5 1685.5,-110.5 1597.78,-110.5"/>
<text text-anchor="middle" x="1641.64" y="-116.5" font-family="Helvetica,sans-Serif" font-size="10.00">Eigen/StdVector</text>
</g>
<!-- Node32&#45;&gt;Node35 -->
<g id="edge61" class="edge"><title>Node32&#45;&gt;Node35</title>
<path fill="none" stroke="midnightblue" d="M1778.54,-170.435C1751.2,-160.465 1704.49,-143.424 1673.34,-132.062"/>
<polygon fill="midnightblue" stroke="midnightblue" points="1674.41,-128.728 1663.82,-128.589 1672.02,-135.304 1674.41,-128.728"/>
</g>
<!-- Node36&#45;&gt;Node5 -->
<g id="edge64" class="edge"><title>Node36&#45;&gt;Node5</title>
<path fill="none" stroke="midnightblue" d="M1297.34,-170.464C1224.64,-150.522 1035.9,-98.7563 953.774,-76.2321"/>
<polygon fill="midnightblue" stroke="midnightblue" points="954.64,-72.8405 944.07,-73.5707 952.788,-79.5912 954.64,-72.8405"/>
</g>
<!-- Node36&#45;&gt;Node7 -->
<g id="edge66" class="edge"><title>Node36&#45;&gt;Node7</title>
<path fill="none" stroke="midnightblue" d="M1326.64,-170.435C1326.64,-162.389 1326.64,-149.739 1326.64,-139.185"/>
<polygon fill="midnightblue" stroke="midnightblue" points="1330.14,-138.872 1326.64,-128.872 1323.14,-138.872 1330.14,-138.872"/>
</g>
<!-- Node37 -->
<g id="node38" class="node"><title>Node37</title>
<polygon fill="none" stroke="#bfbfbf" points="1170.68,-110.5 1170.68,-128.5 1240.61,-128.5 1240.61,-110.5 1170.68,-110.5"/>
<text text-anchor="middle" x="1205.64" y="-116.5" font-family="Helvetica,sans-Serif" font-size="10.00">Eigen/Eigen</text>
</g>
<!-- Node36&#45;&gt;Node37 -->
<g id="edge65" class="edge"><title>Node36&#45;&gt;Node37</title>
<path fill="none" stroke="midnightblue" d="M1309.82,-170.435C1289.62,-160.751 1255.5,-144.397 1231.84,-133.055"/>
<polygon fill="midnightblue" stroke="midnightblue" points="1233.25,-129.85 1222.72,-128.683 1230.22,-136.162 1233.25,-129.85"/>
</g>
<!-- Node38&#45;&gt;Node7 -->
<g id="edge70" class="edge"><title>Node38&#45;&gt;Node7</title>
<path fill="none" stroke="midnightblue" d="M1459.06,-288.946C1548.73,-272.112 1702.26,-232.414 1643.64,-165 1613.32,-130.124 1488.61,-121.782 1404.94,-120.217"/>
<polygon fill="midnightblue" stroke="midnightblue" points="1404.75,-116.714 1394.7,-120.055 1404.64,-123.713 1404.75,-116.714"/>
</g>
<!-- Node38&#45;&gt;Node18 -->
<g id="edge68" class="edge"><title>Node38&#45;&gt;Node18</title>
<path fill="none" stroke="midnightblue" d="M1340.06,-294.959C1172.22,-284.985 695.328,-256.645 504.263,-245.291"/>
<polygon fill="midnightblue" stroke="midnightblue" points="504.201,-241.781 494.01,-244.682 503.785,-248.769 504.201,-241.781"/>
</g>
<!-- Node38&#45;&gt;Node31 -->
<g id="edge72" class="edge"><title>Node38&#45;&gt;Node31</title>
<path fill="none" stroke="midnightblue" d="M1419.48,-285.421C1451.2,-264.511 1513.47,-223.462 1550.01,-199.374"/>
<polygon fill="midnightblue" stroke="midnightblue" points="1552.29,-202.064 1558.72,-193.637 1548.44,-196.219 1552.29,-202.064"/>
</g>
<!-- Node38&#45;&gt;Node32 -->
<g id="edge69" class="edge"><title>Node38&#45;&gt;Node32</title>
<path fill="none" stroke="midnightblue" d="M1459.18,-293.547C1516.27,-287.484 1604.24,-274.674 1676.64,-249 1715.53,-235.213 1756.69,-210.085 1780.45,-194.397"/>
<polygon fill="midnightblue" stroke="midnightblue" points="1782.6,-197.175 1788.95,-188.697 1778.7,-191.361 1782.6,-197.175"/>
</g>
<!-- Node38&#45;&gt;Node36 -->
<g id="edge71" class="edge"><title>Node38&#45;&gt;Node36</title>
<path fill="none" stroke="midnightblue" d="M1391.55,-285.421C1378.24,-263.904 1351.74,-221.06 1337.05,-197.318"/>
<polygon fill="midnightblue" stroke="midnightblue" points="1339.95,-195.361 1331.72,-188.698 1334,-199.044 1339.95,-195.361"/>
</g>
</g>
</svg>
