<?xml version="1.0" encoding="UTF-8" standalone="no"?>
<!DOCTYPE svg PUBLIC "-//W3C//DTD SVG 1.1//EN"
 "http://www.w3.org/Graphics/SVG/1.1/DTD/svg11.dtd">
<!-- Generated by graphviz version 2.38.0 (20140413.2041)
 -->
<!-- Title: tomographer/multiprocthreads.h Pages: 1 -->
<svg width="1340pt" height="312pt"
 viewBox="0.00 0.00 1339.81 312.00" xmlns="http://www.w3.org/2000/svg" xmlns:xlink="http://www.w3.org/1999/xlink">
<g id="graph0" class="graph" transform="scale(1 1) rotate(0) translate(4 308)">
<title>tomographer/multiprocthreads.h</title>
<!-- Node0 -->
<g id="node1" class="node"><title>Node0</title>
<polygon fill="#bfbfbf" stroke="black" points="511.532,-285.5 511.532,-303.5 669.271,-303.5 669.271,-285.5 511.532,-285.5"/>
<text text-anchor="middle" x="590.401" y="-291.5" font-family="Helvetica,sans-Serif" font-size="10.00">tomographer/multiprocthreads.h</text>
</g>
<!-- Node1 -->
<g id="node2" class="node"><title>Node1</title>
<polygon fill="none" stroke="#bfbfbf" points="561.113,-110.5 561.113,-128.5 607.689,-128.5 607.689,-110.5 561.113,-110.5"/>
<text text-anchor="middle" x="584.401" y="-116.5" font-family="Helvetica,sans-Serif" font-size="10.00">chrono</text>
</g>
<!-- Node0&#45;&gt;Node1 -->
<g id="edge1" class="edge"><title>Node0&#45;&gt;Node1</title>
<path fill="none" stroke="midnightblue" d="M567.563,-285.451C551.297,-278.454 530.436,-266.635 519.401,-249 503.989,-224.368 513.959,-213.014 512.401,-184 511.949,-175.568 508.289,-172.376 512.401,-165 520.854,-149.839 536.836,-139.195 551.599,-132.127"/>
<polygon fill="midnightblue" stroke="midnightblue" points="553.282,-135.21 561.033,-127.987 550.47,-128.8 553.282,-135.21"/>
</g>
<!-- Node2 -->
<g id="node3" class="node"><title>Node2</title>
<polygon fill="none" stroke="#bfbfbf" points="0,-55.5 0,-73.5 58.8027,-73.5 58.8027,-55.5 0,-55.5"/>
<text text-anchor="middle" x="29.4014" y="-61.5" font-family="Helvetica,sans-Serif" font-size="10.00">stdexcept</text>
</g>
<!-- Node0&#45;&gt;Node2 -->
<g id="edge2" class="edge"><title>Node0&#45;&gt;Node2</title>
<path fill="none" stroke="midnightblue" d="M511.321,-290.657C451.829,-286.323 369.236,-275.556 301.401,-249 193.94,-206.931 86.2183,-116.527 45.9472,-80.6358"/>
<polygon fill="midnightblue" stroke="midnightblue" points="48.1752,-77.9321 38.4019,-73.8413 43.491,-83.1339 48.1752,-77.9321"/>
</g>
<!-- Node3 -->
<g id="node4" class="node"><title>Node3</title>
<polygon fill="none" stroke="#bfbfbf" points="985.224,-225.5 985.224,-243.5 1029.58,-243.5 1029.58,-225.5 985.224,-225.5"/>
<text text-anchor="middle" x="1007.4" y="-231.5" font-family="Helvetica,sans-Serif" font-size="10.00">thread</text>
</g>
<!-- Node0&#45;&gt;Node3 -->
<g id="edge3" class="edge"><title>Node0&#45;&gt;Node3</title>
<path fill="none" stroke="midnightblue" d="M669.304,-291.211C748.228,-287.343 872.499,-276.946 976.401,-249 978.116,-248.539 979.859,-247.998 981.598,-247.403"/>
<polygon fill="midnightblue" stroke="midnightblue" points="983.294,-250.497 991.317,-243.578 980.73,-243.983 983.294,-250.497"/>
</g>
<!-- Node4 -->
<g id="node5" class="node"><title>Node4</title>
<polygon fill="none" stroke="#bfbfbf" points="1047.79,-225.5 1047.79,-243.5 1091.02,-243.5 1091.02,-225.5 1047.79,-225.5"/>
<text text-anchor="middle" x="1069.4" y="-231.5" font-family="Helvetica,sans-Serif" font-size="10.00">mutex</text>
</g>
<!-- Node0&#45;&gt;Node4 -->
<g id="edge4" class="edge"><title>Node0&#45;&gt;Node4</title>
<path fill="none" stroke="midnightblue" d="M669.394,-293.036C759.928,-290.818 912.09,-281.908 1038.4,-249 1040.12,-248.552 1041.86,-248.022 1043.61,-247.435"/>
<polygon fill="midnightblue" stroke="midnightblue" points="1045.29,-250.533 1053.33,-243.628 1042.74,-244.014 1045.29,-250.533"/>
</g>
<!-- Node5 -->
<g id="node6" class="node"><title>Node5</title>
<polygon fill="none" stroke="#bfbfbf" points="1109.47,-220.5 1109.47,-248.5 1243.33,-248.5 1243.33,-220.5 1109.47,-220.5"/>
<text text-anchor="start" x="1117.47" y="-236.5" font-family="Helvetica,sans-Serif" font-size="10.00">boost/exception/diagnostic</text>
<text text-anchor="middle" x="1176.4" y="-226.5" font-family="Helvetica,sans-Serif" font-size="10.00">_information.hpp</text>
</g>
<!-- Node0&#45;&gt;Node5 -->
<g id="edge5" class="edge"><title>Node0&#45;&gt;Node5</title>
<path fill="none" stroke="midnightblue" d="M669.707,-288.769C768.046,-282.412 940.998,-269.626 1098.93,-249.112"/>
<polygon fill="midnightblue" stroke="midnightblue" points="1099.86,-252.521 1109.31,-247.75 1098.94,-245.581 1099.86,-252.521"/>
</g>
<!-- Node6 -->
<g id="node7" class="node"><title>Node6</title>
<g id="a_node7"><a xlink:href="loggers_8h.html" target="_top" xlink:title="Utilities for logging messages. ">
<polygon fill="none" stroke="black" points="827.143,-225.5 827.143,-243.5 967.66,-243.5 967.66,-225.5 827.143,-225.5"/>
<text text-anchor="middle" x="897.401" y="-231.5" font-family="Helvetica,sans-Serif" font-size="10.00">tomographer/tools/loggers.h</text>
</a>
</g>
</g>
<!-- Node0&#45;&gt;Node6 -->
<g id="edge6" class="edge"><title>Node0&#45;&gt;Node6</title>
<path fill="none" stroke="midnightblue" d="M632.766,-285.496C688.122,-275.038 785.038,-256.728 844.965,-245.407"/>
<polygon fill="midnightblue" stroke="midnightblue" points="845.802,-248.81 854.979,-243.515 844.503,-241.932 845.802,-248.81"/>
</g>
<!-- Node18 -->
<g id="node19" class="node"><title>Node18</title>
<g id="a_node19"><a xlink:href="cxxutil_8h.html" target="_top" xlink:title="Some C++ utilities, with a tad of C++11 tricks. ">
<polygon fill="none" stroke="black" points="281.65,-110.5 281.65,-128.5 417.152,-128.5 417.152,-110.5 281.65,-110.5"/>
<text text-anchor="middle" x="349.401" y="-116.5" font-family="Helvetica,sans-Serif" font-size="10.00">tomographer/tools/cxxutil.h</text>
</a>
</g>
</g>
<!-- Node0&#45;&gt;Node18 -->
<g id="edge41" class="edge"><title>Node0&#45;&gt;Node18</title>
<path fill="none" stroke="midnightblue" d="M543.588,-285.451C458.955,-269.822 286.117,-232.586 252.401,-184 235.168,-159.166 271.534,-141.617 304.545,-131.351"/>
<polygon fill="midnightblue" stroke="midnightblue" points="305.56,-134.701 314.168,-128.524 303.586,-127.985 305.56,-134.701"/>
</g>
<!-- Node27 -->
<g id="node28" class="node"><title>Node27</title>
<g id="a_node28"><a xlink:href="needownoperatornew_8h.html" target="_top" xlink:title="Managing the need for specific overrides to operator new() for some types (especially Eigen types) ...">
<polygon fill="none" stroke="black" points="261.725,-165.5 261.725,-183.5 465.078,-183.5 465.078,-165.5 261.725,-165.5"/>
<text text-anchor="middle" x="363.401" y="-171.5" font-family="Helvetica,sans-Serif" font-size="10.00">tomographer/tools/needownoperatornew.h</text>
</a>
</g>
</g>
<!-- Node0&#45;&gt;Node27 -->
<g id="edge42" class="edge"><title>Node0&#45;&gt;Node27</title>
<path fill="none" stroke="midnightblue" d="M566.894,-285.499C544.041,-277.393 508.603,-263.945 479.401,-249 443.96,-230.862 405.397,-205.112 382.866,-189.399"/>
<polygon fill="midnightblue" stroke="midnightblue" points="384.708,-186.416 374.516,-183.522 380.679,-192.14 384.708,-186.416"/>
</g>
<!-- Node29 -->
<g id="node30" class="node"><title>Node29</title>
<g id="a_node30"><a xlink:href="multiproc_8h.html" target="_top" xlink:title="Some common definitions for multiprocessing interfaces. ">
<polygon fill="none" stroke="black" points="528.209,-225.5 528.209,-243.5 652.593,-243.5 652.593,-225.5 528.209,-225.5"/>
<text text-anchor="middle" x="590.401" y="-231.5" font-family="Helvetica,sans-Serif" font-size="10.00">tomographer/multiproc.h</text>
</a>
</g>
</g>
<!-- Node0&#45;&gt;Node29 -->
<g id="edge46" class="edge"><title>Node0&#45;&gt;Node29</title>
<path fill="none" stroke="midnightblue" d="M590.401,-285.435C590.401,-277.389 590.401,-264.739 590.401,-254.185"/>
<polygon fill="midnightblue" stroke="midnightblue" points="593.901,-253.872 590.401,-243.872 586.901,-253.872 593.901,-253.872"/>
</g>
<!-- Node7 -->
<g id="node8" class="node"><title>Node7</title>
<polygon fill="none" stroke="#bfbfbf" points="833.34,-110.5 833.34,-128.5 875.463,-128.5 875.463,-110.5 833.34,-110.5"/>
<text text-anchor="middle" x="854.401" y="-116.5" font-family="Helvetica,sans-Serif" font-size="10.00">cstdio</text>
</g>
<!-- Node6&#45;&gt;Node7 -->
<g id="edge7" class="edge"><title>Node6&#45;&gt;Node7</title>
<path fill="none" stroke="midnightblue" d="M892.148,-225.403C886.15,-215.846 876.396,-199.314 870.401,-184 864.568,-169.097 860.312,-151.384 857.663,-138.457"/>
<polygon fill="midnightblue" stroke="midnightblue" points="861.077,-137.678 855.749,-128.52 854.203,-139.002 861.077,-137.678"/>
</g>
<!-- Node8 -->
<g id="node9" class="node"><title>Node8</title>
<polygon fill="none" stroke="#bfbfbf" points="906.005,-110.5 906.005,-128.5 954.798,-128.5 954.798,-110.5 906.005,-110.5"/>
<text text-anchor="middle" x="930.401" y="-116.5" font-family="Helvetica,sans-Serif" font-size="10.00">cstdarg</text>
</g>
<!-- Node6&#45;&gt;Node8 -->
<g id="edge8" class="edge"><title>Node6&#45;&gt;Node8</title>
<path fill="none" stroke="midnightblue" d="M903.304,-225.21C909.707,-215.739 919.649,-199.539 924.401,-184 928.914,-169.244 930.291,-151.739 930.61,-138.848"/>
<polygon fill="midnightblue" stroke="midnightblue" points="934.112,-138.537 930.665,-128.519 927.112,-138.5 934.112,-138.537"/>
</g>
<!-- Node9 -->
<g id="node10" class="node"><title>Node9</title>
<polygon fill="none" stroke="#bfbfbf" points="832.175,-0.5 832.175,-18.5 872.628,-18.5 872.628,-0.5 832.175,-0.5"/>
<text text-anchor="middle" x="852.401" y="-6.5" font-family="Helvetica,sans-Serif" font-size="10.00">string</text>
</g>
<!-- Node6&#45;&gt;Node9 -->
<g id="edge9" class="edge"><title>Node6&#45;&gt;Node9</title>
<path fill="none" stroke="midnightblue" d="M943.755,-225.489C954.472,-223.662 965.831,-221.745 976.401,-220 1026.58,-211.717 1169.39,-222.685 1202.4,-184 1223.75,-158.982 1222.05,-136.377 1202.4,-110 1163.57,-57.8625 960.942,-25.2447 882.997,-14.4607"/>
<polygon fill="midnightblue" stroke="midnightblue" points="883.236,-10.9611 872.856,-13.0841 882.295,-17.8975 883.236,-10.9611"/>
</g>
<!-- Node10 -->
<g id="node11" class="node"><title>Node10</title>
<polygon fill="none" stroke="#bfbfbf" points="1024.62,-110.5 1024.62,-128.5 1076.18,-128.5 1076.18,-110.5 1024.62,-110.5"/>
<text text-anchor="middle" x="1050.4" y="-116.5" font-family="Helvetica,sans-Serif" font-size="10.00">sstream</text>
</g>
<!-- Node6&#45;&gt;Node10 -->
<g id="edge10" class="edge"><title>Node6&#45;&gt;Node10</title>
<path fill="none" stroke="midnightblue" d="M938.049,-225.492C998.836,-213.327 1106.93,-190.874 1112.4,-184 1127.41,-165.14 1100.92,-145.617 1078.05,-133.284"/>
<polygon fill="midnightblue" stroke="midnightblue" points="1079.42,-130.052 1068.92,-128.616 1076.23,-136.285 1079.42,-130.052"/>
</g>
<!-- Node11 -->
<g id="node12" class="node"><title>Node11</title>
<polygon fill="none" stroke="#bfbfbf" points="795.229,-55.5 795.229,-73.5 849.574,-73.5 849.574,-55.5 795.229,-55.5"/>
<text text-anchor="middle" x="822.401" y="-61.5" font-family="Helvetica,sans-Serif" font-size="10.00">iostream</text>
</g>
<!-- Node6&#45;&gt;Node11 -->
<g id="edge11" class="edge"><title>Node6&#45;&gt;Node11</title>
<path fill="none" stroke="midnightblue" d="M942.061,-225.458C1007.79,-213.411 1123.48,-191.314 1129.4,-184 1134.71,-177.435 1132.2,-172.968 1129.4,-165 1119.04,-135.461 1112.46,-125.735 1085.4,-110 999.854,-60.2584 961.077,-91.6412 859.866,-74.067"/>
<polygon fill="midnightblue" stroke="midnightblue" points="860.344,-70.596 849.873,-72.209 859.065,-77.478 860.344,-70.596"/>
</g>
<!-- Node12 -->
<g id="node13" class="node"><title>Node12</title>
<polygon fill="none" stroke="#bfbfbf" points="1273,-165.5 1273,-183.5 1331.81,-183.5 1331.81,-165.5 1273,-165.5"/>
<text text-anchor="middle" x="1302.4" y="-171.5" font-family="Helvetica,sans-Serif" font-size="10.00">functional</text>
</g>
<!-- Node6&#45;&gt;Node12 -->
<g id="edge12" class="edge"><title>Node6&#45;&gt;Node12</title>
<path fill="none" stroke="midnightblue" d="M942.467,-225.457C953.548,-223.574 965.392,-221.64 976.401,-220 1101.81,-201.317 1134.25,-204.306 1259.4,-184 1260.49,-183.823 1261.59,-183.639 1262.71,-183.449"/>
<polygon fill="midnightblue" stroke="midnightblue" points="1263.62,-186.841 1272.84,-181.62 1262.38,-179.952 1263.62,-186.841"/>
</g>
<!-- Node13 -->
<g id="node14" class="node"><title>Node13</title>
<polygon fill="none" stroke="#bfbfbf" points="583.335,-55.5 583.335,-73.5 645.468,-73.5 645.468,-55.5 583.335,-55.5"/>
<text text-anchor="middle" x="614.401" y="-61.5" font-family="Helvetica,sans-Serif" font-size="10.00">type_traits</text>
</g>
<!-- Node6&#45;&gt;Node13 -->
<g id="edge13" class="edge"><title>Node6&#45;&gt;Node13</title>
<path fill="none" stroke="midnightblue" d="M827.05,-229.413C784.801,-223.995 731.787,-211.692 692.401,-184 655.745,-158.227 631.795,-109.237 621.006,-83.0461"/>
<polygon fill="midnightblue" stroke="midnightblue" points="624.221,-81.6584 617.296,-73.6394 617.709,-84.2262 624.221,-81.6584"/>
</g>
<!-- Node14 -->
<g id="node15" class="node"><title>Node14</title>
<polygon fill="none" stroke="#bfbfbf" points="879.675,-165.5 879.675,-183.5 915.128,-183.5 915.128,-165.5 879.675,-165.5"/>
<text text-anchor="middle" x="897.401" y="-171.5" font-family="Helvetica,sans-Serif" font-size="10.00">map</text>
</g>
<!-- Node6&#45;&gt;Node14 -->
<g id="edge14" class="edge"><title>Node6&#45;&gt;Node14</title>
<path fill="none" stroke="midnightblue" d="M897.401,-225.435C897.401,-217.389 897.401,-204.739 897.401,-194.185"/>
<polygon fill="midnightblue" stroke="midnightblue" points="900.901,-193.872 897.401,-183.872 893.901,-193.872 900.901,-193.872"/>
</g>
<!-- Node15 -->
<g id="node16" class="node"><title>Node15</title>
<polygon fill="none" stroke="#bfbfbf" points="971.87,-165.5 971.87,-183.5 1102.93,-183.5 1102.93,-165.5 971.87,-165.5"/>
<text text-anchor="middle" x="1037.4" y="-171.5" font-family="Helvetica,sans-Serif" font-size="10.00">boost/algorithm/string.hpp</text>
</g>
<!-- Node6&#45;&gt;Node15 -->
<g id="edge15" class="edge"><title>Node6&#45;&gt;Node15</title>
<path fill="none" stroke="midnightblue" d="M916.868,-225.435C940.556,-215.622 980.776,-198.959 1008.18,-187.604"/>
<polygon fill="midnightblue" stroke="midnightblue" points="1009.75,-190.744 1017.65,-183.683 1007.07,-184.277 1009.75,-190.744"/>
</g>
<!-- Node16 -->
<g id="node17" class="node"><title>Node16</title>
<g id="a_node17"><a xlink:href="fmt_8h.html" target="_top" xlink:title="Utilities for formatting strings. ">
<polygon fill="none" stroke="black" points="701.599,-165.5 701.599,-183.5 823.204,-183.5 823.204,-165.5 701.599,-165.5"/>
<text text-anchor="middle" x="762.401" y="-171.5" font-family="Helvetica,sans-Serif" font-size="10.00">tomographer/tools/fmt.h</text>
</a>
</g>
</g>
<!-- Node6&#45;&gt;Node16 -->
<g id="edge16" class="edge"><title>Node6&#45;&gt;Node16</title>
<path fill="none" stroke="midnightblue" d="M878.63,-225.435C855.888,-215.665 817.345,-199.105 790.923,-187.754"/>
<polygon fill="midnightblue" stroke="midnightblue" points="792.018,-184.415 781.448,-183.683 789.255,-190.846 792.018,-184.415"/>
</g>
<!-- Node25 -->
<g id="node26" class="node"><title>Node25</title>
<g id="a_node26"><a xlink:href="conststr_8h.html" target="_top" xlink:title="A constexpr string type, suitable for basic compile&#45;time string processing. ">
<polygon fill="none" stroke="black" points="867.311,-55.5 867.311,-73.5 1009.49,-73.5 1009.49,-55.5 867.311,-55.5"/>
<text text-anchor="middle" x="938.401" y="-61.5" font-family="Helvetica,sans-Serif" font-size="10.00">tomographer/tools/conststr.h</text>
</a>
</g>
</g>
<!-- Node6&#45;&gt;Node25 -->
<g id="edge40" class="edge"><title>Node6&#45;&gt;Node25</title>
<path fill="none" stroke="midnightblue" d="M944.213,-225.495C1025.2,-211.633 1182.92,-184.573 1183.4,-184 1204.58,-158.839 1204.48,-135.249 1183.4,-110 1162.74,-85.2428 1082.94,-74.2279 1019.96,-69.3462"/>
<polygon fill="midnightblue" stroke="midnightblue" points="1019.84,-65.8281 1009.61,-68.5866 1019.33,-72.8093 1019.84,-65.8281"/>
</g>
<!-- Node16&#45;&gt;Node1 -->
<g id="edge19" class="edge"><title>Node16&#45;&gt;Node1</title>
<path fill="none" stroke="midnightblue" d="M735.367,-165.45C703.814,-156.055 651.631,-140.518 617.633,-130.395"/>
<polygon fill="midnightblue" stroke="midnightblue" points="618.292,-126.939 607.709,-127.44 616.294,-133.648 618.292,-126.939"/>
</g>
<!-- Node16&#45;&gt;Node7 -->
<g id="edge17" class="edge"><title>Node16&#45;&gt;Node7</title>
<path fill="none" stroke="midnightblue" d="M776.374,-165.45C790.964,-157.045 814.088,-143.724 831.381,-133.762"/>
<polygon fill="midnightblue" stroke="midnightblue" points="833.379,-136.65 840.297,-128.625 829.885,-130.584 833.379,-136.65"/>
</g>
<!-- Node16&#45;&gt;Node8 -->
<g id="edge18" class="edge"><title>Node16&#45;&gt;Node8</title>
<path fill="none" stroke="midnightblue" d="M787.917,-165.45C816.741,-156.357 863.805,-141.51 895.892,-131.387"/>
<polygon fill="midnightblue" stroke="midnightblue" points="897.258,-134.626 905.742,-128.279 895.152,-127.95 897.258,-134.626"/>
</g>
<!-- Node16&#45;&gt;Node9 -->
<g id="edge20" class="edge"><title>Node16&#45;&gt;Node9</title>
<path fill="none" stroke="midnightblue" d="M762.027,-165.227C761.502,-144.716 762.624,-90.6126 786.401,-55 795.567,-41.2728 810.546,-30.6681 823.919,-23.2604"/>
<polygon fill="midnightblue" stroke="midnightblue" points="825.561,-26.3517 832.83,-18.6436 822.341,-20.1364 825.561,-26.3517"/>
</g>
<!-- Node16&#45;&gt;Node10 -->
<g id="edge21" class="edge"><title>Node16&#45;&gt;Node10</title>
<path fill="none" stroke="midnightblue" d="M806.142,-165.45C863.086,-154.971 961.555,-136.85 1014.4,-127.125"/>
<polygon fill="midnightblue" stroke="midnightblue" points="1015.14,-130.548 1024.34,-125.296 1013.87,-123.664 1015.14,-130.548"/>
</g>
<!-- Node16&#45;&gt;Node11 -->
<g id="edge22" class="edge"><title>Node16&#45;&gt;Node11</title>
<path fill="none" stroke="midnightblue" d="M766.911,-165.382C776.641,-147.869 799.78,-106.218 812.899,-82.6045"/>
<polygon fill="midnightblue" stroke="midnightblue" points="816.042,-84.1531 817.839,-73.7118 809.923,-80.7536 816.042,-84.1531"/>
</g>
<!-- Node17 -->
<g id="node18" class="node"><title>Node17</title>
<polygon fill="none" stroke="#bfbfbf" points="701.01,-110.5 701.01,-128.5 739.793,-128.5 739.793,-110.5 701.01,-110.5"/>
<text text-anchor="middle" x="720.401" y="-116.5" font-family="Helvetica,sans-Serif" font-size="10.00">utility</text>
</g>
<!-- Node16&#45;&gt;Node17 -->
<g id="edge23" class="edge"><title>Node16&#45;&gt;Node17</title>
<path fill="none" stroke="midnightblue" d="M755.839,-165.219C749.762,-157.551 740.56,-145.939 733.056,-136.469"/>
<polygon fill="midnightblue" stroke="midnightblue" points="735.734,-134.213 726.78,-128.55 730.248,-138.561 735.734,-134.213"/>
</g>
<!-- Node16&#45;&gt;Node18 -->
<g id="edge24" class="edge"><title>Node16&#45;&gt;Node18</title>
<path fill="none" stroke="midnightblue" d="M701.462,-165.68C627.162,-156.145 501.709,-140.046 422.347,-129.861"/>
<polygon fill="midnightblue" stroke="midnightblue" points="422.309,-126.328 411.945,-128.526 421.418,-133.271 422.309,-126.328"/>
</g>
<!-- Node18&#45;&gt;Node2 -->
<g id="edge32" class="edge"><title>Node18&#45;&gt;Node2</title>
<path fill="none" stroke="midnightblue" d="M292.456,-110.463C237.738,-102.519 152.502,-89.5663 69.0751,-74.0313"/>
<polygon fill="midnightblue" stroke="midnightblue" points="69.6499,-70.5781 59.176,-72.174 68.359,-77.4581 69.6499,-70.5781"/>
</g>
<!-- Node18&#45;&gt;Node11 -->
<g id="edge28" class="edge"><title>Node18&#45;&gt;Node11</title>
<path fill="none" stroke="midnightblue" d="M417.171,-110.906C518.382,-99.5656 705.618,-78.5857 785.129,-69.6764"/>
<polygon fill="midnightblue" stroke="midnightblue" points="785.622,-73.1432 795.17,-68.5513 784.842,-66.1867 785.622,-73.1432"/>
</g>
<!-- Node18&#45;&gt;Node13 -->
<g id="edge30" class="edge"><title>Node18&#45;&gt;Node13</title>
<path fill="none" stroke="midnightblue" d="M390.906,-110.473C433.964,-102.106 503.524,-88.4758 572.758,-74.316"/>
<polygon fill="midnightblue" stroke="midnightblue" points="573.874,-77.6601 582.967,-72.2235 572.468,-70.8027 573.874,-77.6601"/>
</g>
<!-- Node19 -->
<g id="node20" class="node"><title>Node19</title>
<polygon fill="none" stroke="#bfbfbf" points="155.286,-0.5 155.286,-18.5 203.517,-18.5 203.517,-0.5 155.286,-0.5"/>
<text text-anchor="middle" x="179.401" y="-6.5" font-family="Helvetica,sans-Serif" font-size="10.00">cassert</text>
</g>
<!-- Node18&#45;&gt;Node19 -->
<g id="edge25" class="edge"><title>Node18&#45;&gt;Node19</title>
<path fill="none" stroke="midnightblue" d="M291.452,-110.429C248.897,-103.207 196.201,-91.1065 182.401,-74 172.231,-61.3927 172.736,-42.37 175.019,-28.4316"/>
<polygon fill="midnightblue" stroke="midnightblue" points="178.462,-29.0648 177.061,-18.563 171.607,-27.6465 178.462,-29.0648"/>
</g>
<!-- Node20 -->
<g id="node21" class="node"><title>Node20</title>
<polygon fill="none" stroke="#bfbfbf" points="256.281,-0.5 256.281,-18.5 304.522,-18.5 304.522,-0.5 256.281,-0.5"/>
<text text-anchor="middle" x="280.401" y="-6.5" font-family="Helvetica,sans-Serif" font-size="10.00">cstddef</text>
</g>
<!-- Node18&#45;&gt;Node20 -->
<g id="edge26" class="edge"><title>Node18&#45;&gt;Node20</title>
<path fill="none" stroke="midnightblue" d="M350.496,-110.437C351.811,-97.7142 352.701,-72.6178 342.401,-55 334.438,-41.3778 320.465,-30.7993 307.799,-23.3806"/>
<polygon fill="midnightblue" stroke="midnightblue" points="309.367,-20.2491 298.911,-18.5388 306.018,-26.3962 309.367,-20.2491"/>
</g>
<!-- Node21 -->
<g id="node22" class="node"><title>Node21</title>
<polygon fill="none" stroke="#bfbfbf" points="358.229,-0.5 358.229,-18.5 402.574,-18.5 402.574,-0.5 358.229,-0.5"/>
<text text-anchor="middle" x="380.401" y="-6.5" font-family="Helvetica,sans-Serif" font-size="10.00">cstdlib</text>
</g>
<!-- Node18&#45;&gt;Node21 -->
<g id="edge27" class="edge"><title>Node18&#45;&gt;Node21</title>
<path fill="none" stroke="midnightblue" d="M355.822,-110.183C362.034,-101.629 371.12,-87.6613 375.401,-74 380.009,-59.2958 381.082,-41.7855 381.103,-28.8803"/>
<polygon fill="midnightblue" stroke="midnightblue" points="384.596,-28.4645 380.898,-18.5359 377.597,-28.6034 384.596,-28.4645"/>
</g>
<!-- Node22 -->
<g id="node23" class="node"><title>Node22</title>
<polygon fill="none" stroke="#bfbfbf" points="427.783,-55.5 427.783,-73.5 481.02,-73.5 481.02,-55.5 427.783,-55.5"/>
<text text-anchor="middle" x="454.401" y="-61.5" font-family="Helvetica,sans-Serif" font-size="10.00">complex</text>
</g>
<!-- Node18&#45;&gt;Node22 -->
<g id="edge29" class="edge"><title>Node18&#45;&gt;Node22</title>
<path fill="none" stroke="midnightblue" d="M365.349,-110.45C382.309,-101.89 409.372,-88.2291 429.217,-78.2119"/>
<polygon fill="midnightblue" stroke="midnightblue" points="430.954,-81.256 438.304,-73.6253 427.8,-75.007 430.954,-81.256"/>
</g>
<!-- Node23 -->
<g id="node24" class="node"><title>Node23</title>
<polygon fill="none" stroke="#bfbfbf" points="76.9976,-55.5 76.9976,-73.5 135.805,-73.5 135.805,-55.5 76.9976,-55.5"/>
<text text-anchor="middle" x="106.401" y="-61.5" font-family="Helvetica,sans-Serif" font-size="10.00">exception</text>
</g>
<!-- Node18&#45;&gt;Node23 -->
<g id="edge31" class="edge"><title>Node18&#45;&gt;Node23</title>
<path fill="none" stroke="midnightblue" d="M312.495,-110.45C267.565,-100.651 191.995,-84.1685 145.916,-74.1184"/>
<polygon fill="midnightblue" stroke="midnightblue" points="146.509,-70.6656 135.993,-71.9541 145.017,-77.5048 146.509,-70.6656"/>
</g>
<!-- Node24 -->
<g id="node25" class="node"><title>Node24</title>
<g id="a_node25"><a xlink:href="cxxdefs_8h.html" target="_top" xlink:title="Basic definitions, which may have to be defined before any Eigen headers or further utilities are inc...">
<polygon fill="none" stroke="black" points="191.591,-55.5 191.591,-73.5 333.211,-73.5 333.211,-55.5 191.591,-55.5"/>
<text text-anchor="middle" x="262.401" y="-61.5" font-family="Helvetica,sans-Serif" font-size="10.00">tomographer/tools/cxxdefs.h</text>
</a>
</g>
</g>
<!-- Node18&#45;&gt;Node24 -->
<g id="edge33" class="edge"><title>Node18&#45;&gt;Node24</title>
<path fill="none" stroke="midnightblue" d="M336.188,-110.45C322.519,-102.123 300.928,-88.9704 284.626,-79.0394"/>
<polygon fill="midnightblue" stroke="midnightblue" points="286.1,-75.8389 275.739,-73.6253 282.458,-81.817 286.1,-75.8389"/>
</g>
<!-- Node18&#45;&gt;Node25 -->
<g id="edge37" class="edge"><title>Node18&#45;&gt;Node25</title>
<path fill="none" stroke="midnightblue" d="M417.411,-110.892C420.449,-110.584 423.456,-110.285 426.401,-110 614.892,-91.7458 664.898,-92.1592 857.151,-74.0972"/>
<polygon fill="midnightblue" stroke="midnightblue" points="857.683,-77.5627 867.31,-73.1382 857.025,-70.5937 857.683,-77.5627"/>
</g>
<!-- Node26 -->
<g id="node27" class="node"><title>Node26</title>
<polygon fill="none" stroke="#bfbfbf" points="499.387,-55.5 499.387,-73.5 565.416,-73.5 565.416,-55.5 499.387,-55.5"/>
<text text-anchor="middle" x="532.401" y="-61.5" font-family="Helvetica,sans-Serif" font-size="10.00">Eigen/Core</text>
</g>
<!-- Node18&#45;&gt;Node26 -->
<g id="edge39" class="edge"><title>Node18&#45;&gt;Node26</title>
<path fill="none" stroke="midnightblue" d="M377.195,-110.45C408.592,-101.357 459.855,-86.5108 494.807,-76.3879"/>
<polygon fill="midnightblue" stroke="midnightblue" points="496.015,-79.6821 504.646,-73.5383 494.067,-72.9584 496.015,-79.6821"/>
</g>
<!-- Node24&#45;&gt;Node19 -->
<g id="edge34" class="edge"><title>Node24&#45;&gt;Node19</title>
<path fill="none" stroke="midnightblue" d="M249.795,-55.4504C236.755,-47.1232 216.157,-33.9704 200.605,-24.0394"/>
<polygon fill="midnightblue" stroke="midnightblue" points="202.438,-21.0574 192.126,-18.6253 198.67,-26.9571 202.438,-21.0574"/>
</g>
<!-- Node24&#45;&gt;Node20 -->
<g id="edge35" class="edge"><title>Node24&#45;&gt;Node20</title>
<path fill="none" stroke="midnightblue" d="M265.214,-55.2188C267.659,-48.0204 271.284,-37.3458 274.379,-28.2311"/>
<polygon fill="midnightblue" stroke="midnightblue" points="277.766,-29.1439 277.668,-18.5496 271.138,-26.8928 277.766,-29.1439"/>
</g>
<!-- Node24&#45;&gt;Node21 -->
<g id="edge36" class="edge"><title>Node24&#45;&gt;Node21</title>
<path fill="none" stroke="midnightblue" d="M280.323,-55.4504C299.643,-46.7729 330.629,-32.8556 353.007,-22.8041"/>
<polygon fill="midnightblue" stroke="midnightblue" points="354.623,-25.9153 362.311,-18.6253 351.755,-19.5298 354.623,-25.9153"/>
</g>
<!-- Node25&#45;&gt;Node9 -->
<g id="edge38" class="edge"><title>Node25&#45;&gt;Node9</title>
<path fill="none" stroke="midnightblue" d="M925.34,-55.4504C911.828,-47.1232 890.485,-33.9704 874.371,-24.0394"/>
<polygon fill="midnightblue" stroke="midnightblue" points="875.935,-20.8922 865.586,-18.6253 872.263,-26.8515 875.935,-20.8922"/>
</g>
<!-- Node27&#45;&gt;Node13 -->
<g id="edge43" class="edge"><title>Node27&#45;&gt;Node13</title>
<path fill="none" stroke="midnightblue" d="M401.055,-165.499C432.253,-158.147 477.322,-145.834 514.401,-129 544.47,-115.349 576.16,-93.8407 595.609,-79.7023"/>
<polygon fill="midnightblue" stroke="midnightblue" points="597.907,-82.3558 603.872,-73.6 593.749,-76.7247 597.907,-82.3558"/>
</g>
<!-- Node27&#45;&gt;Node18 -->
<g id="edge45" class="edge"><title>Node27&#45;&gt;Node18</title>
<path fill="none" stroke="midnightblue" d="M361.214,-165.219C359.312,-158.02 356.493,-147.346 354.085,-138.231"/>
<polygon fill="midnightblue" stroke="midnightblue" points="357.466,-137.324 351.528,-128.55 350.698,-139.112 357.466,-137.324"/>
</g>
<!-- Node28 -->
<g id="node29" class="node"><title>Node28</title>
<polygon fill="none" stroke="#bfbfbf" points="435.436,-110.5 435.436,-128.5 505.367,-128.5 505.367,-110.5 435.436,-110.5"/>
<text text-anchor="middle" x="470.401" y="-116.5" font-family="Helvetica,sans-Serif" font-size="10.00">Eigen/Eigen</text>
</g>
<!-- Node27&#45;&gt;Node28 -->
<g id="edge44" class="edge"><title>Node27&#45;&gt;Node28</title>
<path fill="none" stroke="midnightblue" d="M379.652,-165.45C397.014,-156.851 424.765,-143.105 445.013,-133.075"/>
<polygon fill="midnightblue" stroke="midnightblue" points="446.59,-136.2 453.997,-128.625 443.483,-129.928 446.59,-136.2"/>
</g>
<!-- Node29&#45;&gt;Node1 -->
<g id="edge49" class="edge"><title>Node29&#45;&gt;Node1</title>
<path fill="none" stroke="midnightblue" d="M589.97,-225.373C589.014,-207.374 586.699,-163.774 585.374,-138.826"/>
<polygon fill="midnightblue" stroke="midnightblue" points="588.854,-138.353 584.829,-128.553 581.864,-138.725 588.854,-138.353"/>
</g>
<!-- Node29&#45;&gt;Node9 -->
<g id="edge48" class="edge"><title>Node29&#45;&gt;Node9</title>
<path fill="none" stroke="midnightblue" d="M595.914,-225.318C610.197,-204.484 650.245,-148.375 692.401,-110 724.58,-80.7075 736.412,-77.9204 773.401,-55 791.463,-43.8078 812.442,-32.0463 828.24,-23.4276"/>
<polygon fill="midnightblue" stroke="midnightblue" points="830.209,-26.3415 837.334,-18.5006 826.874,-20.1867 830.209,-26.3415"/>
</g>
<!-- Node29&#45;&gt;Node16 -->
<g id="edge51" class="edge"><title>Node29&#45;&gt;Node16</title>
<path fill="none" stroke="midnightblue" d="M614.317,-225.435C644.014,-215.421 694.859,-198.276 728.549,-186.915"/>
<polygon fill="midnightblue" stroke="midnightblue" points="730.055,-190.101 738.412,-183.589 727.818,-183.468 730.055,-190.101"/>
</g>
<!-- Node29&#45;&gt;Node23 -->
<g id="edge50" class="edge"><title>Node29&#45;&gt;Node23</title>
<path fill="none" stroke="midnightblue" d="M528.19,-234.126C458.253,-232.662 342.684,-223.628 252.401,-184 196.297,-159.374 143.981,-107.162 120.056,-81.0501"/>
<polygon fill="midnightblue" stroke="midnightblue" points="122.607,-78.6519 113.317,-73.5574 117.402,-83.3331 122.607,-78.6519"/>
</g>
<!-- Node29&#45;&gt;Node27 -->
<g id="edge52" class="edge"><title>Node29&#45;&gt;Node27</title>
<path fill="none" stroke="midnightblue" d="M558.838,-225.435C518.716,-215.184 449.345,-197.459 404.955,-186.117"/>
<polygon fill="midnightblue" stroke="midnightblue" points="405.617,-182.674 395.062,-183.589 403.884,-189.456 405.617,-182.674"/>
</g>
<!-- Node30 -->
<g id="node31" class="node"><title>Node30</title>
<polygon fill="none" stroke="#bfbfbf" points="521.837,-165.5 521.837,-183.5 568.965,-183.5 568.965,-165.5 521.837,-165.5"/>
<text text-anchor="middle" x="545.401" y="-171.5" font-family="Helvetica,sans-Serif" font-size="10.00">csignal</text>
</g>
<!-- Node29&#45;&gt;Node30 -->
<g id="edge47" class="edge"><title>Node29&#45;&gt;Node30</title>
<path fill="none" stroke="midnightblue" d="M584.144,-225.435C577.437,-216.79 566.605,-202.829 558.098,-191.864"/>
<polygon fill="midnightblue" stroke="midnightblue" points="560.792,-189.627 551.897,-183.872 555.261,-193.918 560.792,-189.627"/>
</g>
</g>
</svg>
