<?xml version="1.0" encoding="UTF-8" standalone="no"?>
<!DOCTYPE svg PUBLIC "-//W3C//DTD SVG 1.1//EN"
 "http://www.w3.org/Graphics/SVG/1.1/DTD/svg11.dtd">
<!-- Generated by graphviz version 2.38.0 (20140413.2041)
 -->
<!-- Title: tomographer/tools/needownoperatornew.h Pages: 1 -->
<!--zoomable 192 -->
<svg id="main" version="1.1" xmlns="http://www.w3.org/2000/svg" xmlns:xlink="http://www.w3.org/1999/xlink" xml:space="preserve" onload="init(evt)">
<style type="text/css"><![CDATA[
.edge:hover path { stroke: red; }
.edge:hover polygon { stroke: red; fill: red; }
]]></style>
<script type="text/javascript"><![CDATA[
var edges = document.getElementsByTagName('g');
if (edges && edges.length) {
  for (var i=0;i<edges.length;i++) {
    if (edges[i].id.substr(0,4)=='edge') {
      edges[i].setAttribute('class','edge');
    }
  }
}
]]></script>
        <defs>
                <circle id="rim" cx="0" cy="0" r="7"/>
                <circle id="rim2" cx="0" cy="0" r="3.5"/>
                <g id="zoomPlus">
                        <use xlink:href="#rim" fill="#404040">
                                <set attributeName="fill" to="#808080" begin="zoomplus.mouseover" end="zoomplus.mouseout"/>
                        </use>
                        <path d="M-4,0h8M0,-4v8" fill="none" stroke="white" stroke-width="1.5" pointer-events="none"/>
                </g>
                <g id="zoomMin">
                        <use xlink:href="#rim" fill="#404040">
                                <set attributeName="fill" to="#808080" begin="zoomminus.mouseover" end="zoomminus.mouseout"/>
                        </use>
                        <path d="M-4,0h8" fill="none" stroke="white" stroke-width="1.5" pointer-events="none"/>
                </g>
                <g id="dirArrow">
                        <path fill="none" stroke="white" stroke-width="1.5" d="M0,-3.0v7 M-2.5,-0.5L0,-3.0L2.5,-0.5"/>
                </g>
               <g id="resetDef">
                       <use xlink:href="#rim2" fill="#404040">
                               <set attributeName="fill" to="#808080" begin="reset.mouseover" end="reset.mouseout"/>
                       </use>
               </g>
        </defs>

<script type="text/javascript">
var viewWidth = 885;
var viewHeight = 192;
var sectionId = 'dynsection-0';
</script>
<script xlink:href="svgpan.js"/>
<svg id="graph" class="graph">
<g id="viewport">
<title>tomographer/tools/needownoperatornew.h</title>
<!-- Node0 -->
<g id="node1" class="node"><title>Node0</title>
<polygon fill="#bfbfbf" stroke="black" points="227.39,-165.5 227.39,-183.5 430.743,-183.5 430.743,-165.5 227.39,-165.5"/>
<text text-anchor="middle" x="329.066" y="-171.5" font-family="Helvetica,sans-Serif" font-size="10.00">tomographer/tools/needownoperatornew.h</text>
</g>
<!-- Node1 -->
<g id="node2" class="node"><title>Node1</title>
<polygon fill="none" stroke="#bfbfbf" points="0,-55.5 0,-73.5 62.1328,-73.5 62.1328,-55.5 0,-55.5"/>
<text text-anchor="middle" x="31.0664" y="-61.5" font-family="Helvetica,sans-Serif" font-size="10.00">type_traits</text>
</g>
<!-- Node0&#45;&gt;Node1 -->
<g id="edge1" class="edge"><title>Node0&#45;&gt;Node1</title>
<path fill="none" stroke="midnightblue" d="M306.668,-165.382C254.226,-146.377 123.341,-98.9418 62.7571,-76.9852"/>
<polygon fill="midnightblue" stroke="midnightblue" points="63.9124,-73.6812 53.3182,-73.5644 61.5273,-80.2624 63.9124,-73.6812"/>
</g>
<!-- Node2 -->
<g id="node3" class="node"><title>Node2</title>
<polygon fill="none" stroke="#bfbfbf" points="415.101,-110.5 415.101,-128.5 485.032,-128.5 485.032,-110.5 415.101,-110.5"/>
<text text-anchor="middle" x="450.066" y="-116.5" font-family="Helvetica,sans-Serif" font-size="10.00">Eigen/Eigen</text>
</g>
<!-- Node0&#45;&gt;Node2 -->
<g id="edge2" class="edge"><title>Node0&#45;&gt;Node2</title>
<path fill="none" stroke="midnightblue" d="M347.444,-165.45C367.343,-156.734 399.313,-142.731 422.284,-132.669"/>
<polygon fill="midnightblue" stroke="midnightblue" points="423.761,-135.843 431.516,-128.625 420.952,-129.432 423.761,-135.843"/>
</g>
<!-- Node3 -->
<g id="node4" class="node"><title>Node3</title>
<g id="a_node4"><a xlink:href="cxxutil_8h.html" target="_top" xlink:title="Some C++ utilities, with a tad of C++11 tricks. ">
<polygon fill="none" stroke="black" points="261.315,-110.5 261.315,-128.5 396.817,-128.5 396.817,-110.5 261.315,-110.5"/>
<text text-anchor="middle" x="329.066" y="-116.5" font-family="Helvetica,sans-Serif" font-size="10.00">tomographer/tools/cxxutil.h</text>
</a>
</g>
</g>
<!-- Node0&#45;&gt;Node3 -->
<g id="edge3" class="edge"><title>Node0&#45;&gt;Node3</title>
<path fill="none" stroke="midnightblue" d="M329.066,-165.219C329.066,-158.177 329.066,-147.808 329.066,-138.828"/>
<polygon fill="midnightblue" stroke="midnightblue" points="332.567,-138.55 329.066,-128.55 325.567,-138.55 332.567,-138.55"/>
</g>
<!-- Node3&#45;&gt;Node1 -->
<g id="edge9" class="edge"><title>Node3&#45;&gt;Node1</title>
<path fill="none" stroke="midnightblue" d="M282.405,-110.474C231.614,-101.695 148.02,-87.123 76.0664,-74 74.9714,-73.8003 73.8615,-73.597 72.7418,-73.3911"/>
<polygon fill="midnightblue" stroke="midnightblue" points="72.9992,-69.8792 62.5283,-71.495 71.7214,-76.7616 72.9992,-69.8792"/>
</g>
<!-- Node4 -->
<g id="node5" class="node"><title>Node4</title>
<polygon fill="none" stroke="#bfbfbf" points="199.951,-0.5 199.951,-18.5 248.182,-18.5 248.182,-0.5 199.951,-0.5"/>
<text text-anchor="middle" x="224.066" y="-6.5" font-family="Helvetica,sans-Serif" font-size="10.00">cassert</text>
</g>
<!-- Node3&#45;&gt;Node4 -->
<g id="edge4" class="edge"><title>Node3&#45;&gt;Node4</title>
<path fill="none" stroke="midnightblue" d="M261.169,-113.997C203.818,-108.611 128.064,-97.2251 109.066,-74 83.6536,-42.9323 147.53,-24.5701 189.941,-16.1269"/>
<polygon fill="midnightblue" stroke="midnightblue" points="190.755,-19.535 199.931,-14.2392 189.455,-12.6567 190.755,-19.535"/>
</g>
<!-- Node5 -->
<g id="node6" class="node"><title>Node5</title>
<polygon fill="none" stroke="#bfbfbf" points="459.946,-0.5 459.946,-18.5 508.187,-18.5 508.187,-0.5 459.946,-0.5"/>
<text text-anchor="middle" x="484.066" y="-6.5" font-family="Helvetica,sans-Serif" font-size="10.00">cstddef</text>
</g>
<!-- Node3&#45;&gt;Node5 -->
<g id="edge5" class="edge"><title>Node3&#45;&gt;Node5</title>
<path fill="none" stroke="midnightblue" d="M344.553,-110.494C360.422,-102.074 385.601,-88.1109 406.066,-74 428.142,-58.7785 451.8,-38.9695 467.198,-25.5537"/>
<polygon fill="midnightblue" stroke="midnightblue" points="469.646,-28.062 474.84,-18.828 465.021,-22.8071 469.646,-28.062"/>
</g>
<!-- Node6 -->
<g id="node7" class="node"><title>Node6</title>
<polygon fill="none" stroke="#bfbfbf" points="634.894,-0.5 634.894,-18.5 679.239,-18.5 679.239,-0.5 634.894,-0.5"/>
<text text-anchor="middle" x="657.066" y="-6.5" font-family="Helvetica,sans-Serif" font-size="10.00">cstdlib</text>
</g>
<!-- Node3&#45;&gt;Node6 -->
<g id="edge6" class="edge"><title>Node3&#45;&gt;Node6</title>
<path fill="none" stroke="midnightblue" d="M396.875,-110.66C500.258,-98.6295 685.669,-76.7134 688.066,-74 700.562,-59.8604 686.851,-39.7885 673.914,-26.0172"/>
<polygon fill="midnightblue" stroke="midnightblue" points="676.148,-23.3023 666.591,-18.7295 671.21,-28.2642 676.148,-23.3023"/>
</g>
<!-- Node7 -->
<g id="node8" class="node"><title>Node7</title>
<polygon fill="none" stroke="#bfbfbf" points="117.894,-55.5 117.894,-73.5 172.239,-73.5 172.239,-55.5 117.894,-55.5"/>
<text text-anchor="middle" x="145.066" y="-61.5" font-family="Helvetica,sans-Serif" font-size="10.00">iostream</text>
</g>
<!-- Node3&#45;&gt;Node7 -->
<g id="edge7" class="edge"><title>Node3&#45;&gt;Node7</title>
<path fill="none" stroke="midnightblue" d="M301.121,-110.45C269.37,-101.305 217.411,-86.3385 182.256,-76.2123"/>
<polygon fill="midnightblue" stroke="midnightblue" points="182.951,-72.7701 172.373,-73.3654 181.013,-79.4966 182.951,-72.7701"/>
</g>
<!-- Node8 -->
<g id="node9" class="node"><title>Node8</title>
<polygon fill="none" stroke="#bfbfbf" points="190.448,-55.5 190.448,-73.5 243.685,-73.5 243.685,-55.5 190.448,-55.5"/>
<text text-anchor="middle" x="217.066" y="-61.5" font-family="Helvetica,sans-Serif" font-size="10.00">complex</text>
</g>
<!-- Node3&#45;&gt;Node8 -->
<g id="edge8" class="edge"><title>Node3&#45;&gt;Node8</title>
<path fill="none" stroke="midnightblue" d="M312.056,-110.45C293.801,-101.812 264.572,-87.9803 243.354,-77.9396"/>
<polygon fill="midnightblue" stroke="midnightblue" points="244.773,-74.7391 234.237,-73.6253 241.779,-81.0664 244.773,-74.7391"/>
</g>
<!-- Node9 -->
<g id="node10" class="node"><title>Node9</title>
<polygon fill="none" stroke="#bfbfbf" points="261.663,-55.5 261.663,-73.5 320.47,-73.5 320.47,-55.5 261.663,-55.5"/>
<text text-anchor="middle" x="291.066" y="-61.5" font-family="Helvetica,sans-Serif" font-size="10.00">exception</text>
</g>
<!-- Node3&#45;&gt;Node9 -->
<g id="edge10" class="edge"><title>Node3&#45;&gt;Node9</title>
<path fill="none" stroke="midnightblue" d="M323.129,-110.219C317.687,-102.629 309.475,-91.1753 302.724,-81.7597"/>
<polygon fill="midnightblue" stroke="midnightblue" points="305.509,-79.6371 296.838,-73.5496 299.82,-83.716 305.509,-79.6371"/>
</g>
<!-- Node10 -->
<g id="node11" class="node"><title>Node10</title>
<polygon fill="none" stroke="#bfbfbf" points="338.665,-55.5 338.665,-73.5 397.468,-73.5 397.468,-55.5 338.665,-55.5"/>
<text text-anchor="middle" x="368.066" y="-61.5" font-family="Helvetica,sans-Serif" font-size="10.00">stdexcept</text>
</g>
<!-- Node3&#45;&gt;Node10 -->
<g id="edge11" class="edge"><title>Node3&#45;&gt;Node10</title>
<path fill="none" stroke="midnightblue" d="M335.16,-110.219C340.745,-102.629 349.173,-91.1753 356.102,-81.7597"/>
<polygon fill="midnightblue" stroke="midnightblue" points="359.035,-83.6784 362.143,-73.5496 353.397,-79.5296 359.035,-83.6784"/>
</g>
<!-- Node11 -->
<g id="node12" class="node"><title>Node11</title>
<g id="a_node12"><a xlink:href="cxxdefs_8h.html" target="_top" xlink:title="Basic definitions, which may have to be defined before any Eigen headers or further utilities are inc...">
<polygon fill="none" stroke="black" points="537.256,-55.5 537.256,-73.5 678.876,-73.5 678.876,-55.5 537.256,-55.5"/>
<text text-anchor="middle" x="608.066" y="-61.5" font-family="Helvetica,sans-Serif" font-size="10.00">tomographer/tools/cxxdefs.h</text>
</a>
</g>
</g>
<!-- Node3&#45;&gt;Node11 -->
<g id="edge12" class="edge"><title>Node3&#45;&gt;Node11</title>
<path fill="none" stroke="midnightblue" d="M371.441,-110.45C420.848,-101.065 502.525,-85.5491 555.818,-75.4254"/>
<polygon fill="midnightblue" stroke="midnightblue" points="556.58,-78.8432 565.752,-73.5383 555.274,-71.9661 556.58,-78.8432"/>
</g>
<!-- Node12 -->
<g id="node13" class="node"><title>Node12</title>
<g id="a_node13"><a xlink:href="conststr_8h.html" target="_top" xlink:title="A constexpr string type, suitable for basic compile&#45;time string processing. ">
<polygon fill="none" stroke="black" points="734.976,-55.5 734.976,-73.5 877.157,-73.5 877.157,-55.5 734.976,-55.5"/>
<text text-anchor="middle" x="806.066" y="-61.5" font-family="Helvetica,sans-Serif" font-size="10.00">tomographer/tools/conststr.h</text>
</a>
</g>
</g>
<!-- Node3&#45;&gt;Node12 -->
<g id="edge16" class="edge"><title>Node3&#45;&gt;Node12</title>
<path fill="none" stroke="midnightblue" d="M396.902,-110.963C483.301,-101.363 632.448,-84.7909 724.82,-74.5273"/>
<polygon fill="midnightblue" stroke="midnightblue" points="725.411,-77.9834 734.963,-73.4004 724.638,-71.0262 725.411,-77.9834"/>
</g>
<!-- Node14 -->
<g id="node15" class="node"><title>Node14</title>
<polygon fill="none" stroke="#bfbfbf" points="453.052,-55.5 453.052,-73.5 519.081,-73.5 519.081,-55.5 453.052,-55.5"/>
<text text-anchor="middle" x="486.066" y="-61.5" font-family="Helvetica,sans-Serif" font-size="10.00">Eigen/Core</text>
</g>
<!-- Node3&#45;&gt;Node14 -->
<g id="edge18" class="edge"><title>Node3&#45;&gt;Node14</title>
<path fill="none" stroke="midnightblue" d="M352.911,-110.45C379.5,-101.475 422.697,-86.8922 452.648,-76.7813"/>
<polygon fill="midnightblue" stroke="midnightblue" points="453.9,-80.053 462.255,-73.5383 451.661,-73.4207 453.9,-80.053"/>
</g>
<!-- Node11&#45;&gt;Node4 -->
<g id="edge13" class="edge"><title>Node11&#45;&gt;Node4</title>
<path fill="none" stroke="midnightblue" d="M549.745,-55.4504C468.657,-44.2586 324.415,-24.3503 258.568,-15.2619"/>
<polygon fill="midnightblue" stroke="midnightblue" points="258.709,-11.7482 248.324,-13.848 257.751,-18.6825 258.709,-11.7482"/>
</g>
<!-- Node11&#45;&gt;Node5 -->
<g id="edge14" class="edge"><title>Node11&#45;&gt;Node5</title>
<path fill="none" stroke="midnightblue" d="M589.233,-55.4504C568.84,-46.734 536.078,-32.7306 512.538,-22.6691"/>
<polygon fill="midnightblue" stroke="midnightblue" points="513.647,-19.3373 503.077,-18.6253 510.896,-25.774 513.647,-19.3373"/>
</g>
<!-- Node11&#45;&gt;Node6 -->
<g id="edge15" class="edge"><title>Node11&#45;&gt;Node6</title>
<path fill="none" stroke="midnightblue" d="M615.723,-55.2188C622.884,-47.4727 633.767,-35.7013 642.57,-26.1799"/>
<polygon fill="midnightblue" stroke="midnightblue" points="645.406,-28.2683 649.624,-18.5496 640.266,-23.5163 645.406,-28.2683"/>
</g>
<!-- Node13 -->
<g id="node14" class="node"><title>Node13</title>
<polygon fill="none" stroke="#bfbfbf" points="785.84,-0.5 785.84,-18.5 826.293,-18.5 826.293,-0.5 785.84,-0.5"/>
<text text-anchor="middle" x="806.066" y="-6.5" font-family="Helvetica,sans-Serif" font-size="10.00">string</text>
</g>
<!-- Node12&#45;&gt;Node13 -->
<g id="edge17" class="edge"><title>Node12&#45;&gt;Node13</title>
<path fill="none" stroke="midnightblue" d="M806.066,-55.2188C806.066,-48.1769 806.066,-37.8083 806.066,-28.8277"/>
<polygon fill="midnightblue" stroke="midnightblue" points="809.567,-28.5495 806.066,-18.5496 802.567,-28.5496 809.567,-28.5495"/>
</g>
</g>
</svg>
        <g id="navigator" transform="translate(0 0)" fill="#404254">
                <rect fill="#f2f5e9" fill-opacity="0.5" stroke="#606060" stroke-width=".5" x="0" y="0" width="60" height="60"/>
                <use id="zoomplus" xlink:href="#zoomPlus" x="17" y="9" onmousedown="handleZoom(evt,'in')"/>
                <use id="zoomminus" xlink:href="#zoomMin" x="42" y="9" onmousedown="handleZoom(evt,'out')"/>
                <use id="reset" xlink:href="#resetDef" x="30" y="36" onmousedown="handleReset()"/>
                <g id="arrowUp" xlink:href="#dirArrow" transform="translate(30 24)" onmousedown="handlePan(0,-1)">
                  <use xlink:href="#rim" fill="#404040">
                        <set attributeName="fill" to="#808080" begin="arrowUp.mouseover" end="arrowUp.mouseout"/>
                  </use>
                  <path fill="none" stroke="white" stroke-width="1.5" d="M0,-3.0v7 M-2.5,-0.5L0,-3.0L2.5,-0.5"/>
                </g>
                <g id="arrowRight" xlink:href="#dirArrow" transform="rotate(90) translate(36 -43)" onmousedown="handlePan(1,0)">
                  <use xlink:href="#rim" fill="#404040">
                        <set attributeName="fill" to="#808080" begin="arrowRight.mouseover" end="arrowRight.mouseout"/>
                  </use>
                  <path fill="none" stroke="white" stroke-width="1.5" d="M0,-3.0v7 M-2.5,-0.5L0,-3.0L2.5,-0.5"/>
                </g>
                <g id="arrowDown" xlink:href="#dirArrow" transform="rotate(180) translate(-30 -48)" onmousedown="handlePan(0,1)">
                  <use xlink:href="#rim" fill="#404040">
                        <set attributeName="fill" to="#808080" begin="arrowDown.mouseover" end="arrowDown.mouseout"/>
                  </use>
                  <path fill="none" stroke="white" stroke-width="1.5" d="M0,-3.0v7 M-2.5,-0.5L0,-3.0L2.5,-0.5"/>
                </g>
                <g id="arrowLeft" xlink:href="#dirArrow" transform="rotate(270) translate(-36 17)" onmousedown="handlePan(-1,0)">
                  <use xlink:href="#rim" fill="#404040">
                        <set attributeName="fill" to="#808080" begin="arrowLeft.mouseover" end="arrowLeft.mouseout"/>
                  </use>
                  <path fill="none" stroke="white" stroke-width="1.5" d="M0,-3.0v7 M-2.5,-0.5L0,-3.0L2.5,-0.5"/>
                </g>
        </g>
        <svg viewBox="0 0 15 15" width="100%" height="30px" preserveAspectRatio="xMaxYMin meet">
         <g id="arrow_out" transform="scale(0.3 0.3)">
          <a xlink:href="needownoperatornew_8h__incl_org.svg" target="_base">
           <rect id="button" ry="5" rx="5" y="6" x="6" height="38" width="38"
                fill="#f2f5e9" fill-opacity="0.5" stroke="#606060" stroke-width="1.0"/>
           <path id="arrow"
             d="M 11.500037,31.436501 C 11.940474,20.09759 22.043105,11.32322 32.158766,21.979434 L 37.068811,17.246167 C 37.068811,17.246167 37.088388,32 37.088388,32 L 22.160133,31.978069 C 22.160133,31.978069 26.997745,27.140456 26.997745,27.140456 C 18.528582,18.264221 13.291696,25.230495 11.500037,31.436501 z"
             style="fill:#404040;"/>
          </a>
         </g>
        </svg>
</svg>
