<?xml version="1.0" encoding="UTF-8" standalone="no"?>
<!DOCTYPE svg PUBLIC "-//W3C//DTD SVG 1.1//EN"
 "http://www.w3.org/Graphics/SVG/1.1/DTD/svg11.dtd">
<!-- Generated by graphviz version 2.38.0 (20140413.2041)
 -->
<!-- Title: tomographer/tools/needownoperatornew.h Pages: 1 -->
<!--zoomable 287 -->
<svg id="main" version="1.1" xmlns="http://www.w3.org/2000/svg" xmlns:xlink="http://www.w3.org/1999/xlink" xml:space="preserve" onload="init(evt)">
<style type="text/css"><![CDATA[
.edge:hover path { stroke: red; }
.edge:hover polygon { stroke: red; fill: red; }
]]></style>
<script type="text/javascript"><![CDATA[
var edges = document.getElementsByTagName('g');
if (edges && edges.length) {
  for (var i=0;i<edges.length;i++) {
    if (edges[i].id.substr(0,4)=='edge') {
      edges[i].setAttribute('class','edge');
    }
  }
}
]]></script>
        <defs>
                <circle id="rim" cx="0" cy="0" r="7"/>
                <circle id="rim2" cx="0" cy="0" r="3.5"/>
                <g id="zoomPlus">
                        <use xlink:href="#rim" fill="#404040">
                                <set attributeName="fill" to="#808080" begin="zoomplus.mouseover" end="zoomplus.mouseout"/>
                        </use>
                        <path d="M-4,0h8M0,-4v8" fill="none" stroke="white" stroke-width="1.5" pointer-events="none"/>
                </g>
                <g id="zoomMin">
                        <use xlink:href="#rim" fill="#404040">
                                <set attributeName="fill" to="#808080" begin="zoomminus.mouseover" end="zoomminus.mouseout"/>
                        </use>
                        <path d="M-4,0h8" fill="none" stroke="white" stroke-width="1.5" pointer-events="none"/>
                </g>
                <g id="dirArrow">
                        <path fill="none" stroke="white" stroke-width="1.5" d="M0,-3.0v7 M-2.5,-0.5L0,-3.0L2.5,-0.5"/>
                </g>
               <g id="resetDef">
                       <use xlink:href="#rim2" fill="#404040">
                               <set attributeName="fill" to="#808080" begin="reset.mouseover" end="reset.mouseout"/>
                       </use>
               </g>
        </defs>

<script type="text/javascript">
var viewWidth = 1377;
var viewHeight = 287;
var sectionId = 'dynsection-1';
</script>
<script xlink:href="svgpan.js"/>
<svg id="graph" class="graph">
<g id="viewport">
<title>tomographer/tools/needownoperatornew.h</title>
<!-- Node15 -->
<g id="node1" class="node"><title>Node15</title>
<polygon fill="#bfbfbf" stroke="black" points="489.631,-260.5 489.631,-278.5 692.984,-278.5 692.984,-260.5 489.631,-260.5"/>
<text text-anchor="middle" x="591.308" y="-266.5" font-family="Helvetica,sans-Serif" font-size="10.00">tomographer/tools/needownoperatornew.h</text>
</g>
<!-- Node16 -->
<g id="node2" class="node"><title>Node16</title>
<g id="a_node2"><a xlink:href="indepmeasllh_8h.html" target="_top" xlink:title="C++ types and functions for calculating the log&#45;likelihood for independent measurements. ">
<polygon fill="none" stroke="black" points="0,-195.5 0,-223.5 116.615,-223.5 116.615,-195.5 0,-195.5"/>
<text text-anchor="start" x="8" y="-211.5" font-family="Helvetica,sans-Serif" font-size="10.00">tomographer/densedm</text>
<text text-anchor="middle" x="58.3076" y="-201.5" font-family="Helvetica,sans-Serif" font-size="10.00">/indepmeasllh.h</text>
</a>
</g>
</g>
<!-- Node15&#45;&gt;Node16 -->
<g id="edge1" class="edge"><title>Node15&#45;&gt;Node16</title>
<path fill="none" stroke="midnightblue" d="M479.215,-260.949C384.792,-253.83 246.305,-241.608 126.308,-224 123.211,-223.546 120.043,-223.044 116.848,-222.51"/>
<polygon fill="midnightblue" stroke="midnightblue" points="479.124,-264.452 489.357,-261.707 479.646,-257.472 479.124,-264.452"/>
</g>
<!-- Node17 -->
<g id="node3" class="node"><title>Node17</title>
<g id="a_node3"><a xlink:href="tspacefigofmerit_8h.html" target="_top" xlink:title="Implement some standard figures of merit for when integrating in T space densely represented density ...">
<polygon fill="none" stroke="black" points="135,-195.5 135,-223.5 251.615,-223.5 251.615,-195.5 135,-195.5"/>
<text text-anchor="start" x="143" y="-211.5" font-family="Helvetica,sans-Serif" font-size="10.00">tomographer/densedm</text>
<text text-anchor="middle" x="193.308" y="-201.5" font-family="Helvetica,sans-Serif" font-size="10.00">/tspacefigofmerit.h</text>
</a>
</g>
</g>
<!-- Node15&#45;&gt;Node17 -->
<g id="edge2" class="edge"><title>Node15&#45;&gt;Node17</title>
<path fill="none" stroke="midnightblue" d="M515.362,-259.218C449.19,-250.872 350.721,-237.828 265.308,-224 260.914,-223.289 256.375,-222.519 251.814,-221.721"/>
<polygon fill="midnightblue" stroke="midnightblue" points="514.933,-262.692 525.292,-260.466 515.806,-255.746 514.933,-262.692"/>
</g>
<!-- Node18 -->
<g id="node4" class="node"><title>Node18</title>
<g id="a_node4"><a xlink:href="tspacellhwalker_8h.html" target="_top" xlink:title="Definitions for a Metropolis&#45;Hastings random walk on a quantum state space with dense matrix type...">
<polygon fill="none" stroke="black" points="262,-65.5 262,-93.5 378.615,-93.5 378.615,-65.5 262,-65.5"/>
<text text-anchor="start" x="270" y="-81.5" font-family="Helvetica,sans-Serif" font-size="10.00">tomographer/densedm</text>
<text text-anchor="middle" x="320.308" y="-71.5" font-family="Helvetica,sans-Serif" font-size="10.00">/tspacellhwalker.h</text>
</a>
</g>
</g>
<!-- Node15&#45;&gt;Node18 -->
<g id="edge3" class="edge"><title>Node15&#45;&gt;Node18</title>
<path fill="none" stroke="midnightblue" d="M479.269,-260.375C418.142,-253.901 350.168,-242.718 326.308,-224 292.01,-197.094 289.258,-172.642 298.308,-130 301.041,-117.121 307.364,-103.524 312.533,-93.8466"/>
<polygon fill="midnightblue" stroke="midnightblue" points="479.1,-263.876 489.405,-261.413 479.814,-256.913 479.1,-263.876"/>
</g>
<!-- Node19 -->
<g id="node5" class="node"><title>Node19</title>
<g id="a_node5"><a xlink:href="histogram_8h.html" target="_top" xlink:title="Definitions for Histogram Types. ">
<polygon fill="none" stroke="black" points="481.446,-200.5 481.446,-218.5 609.169,-218.5 609.169,-200.5 481.446,-200.5"/>
<text text-anchor="middle" x="545.308" y="-206.5" font-family="Helvetica,sans-Serif" font-size="10.00">tomographer/histogram.h</text>
</a>
</g>
</g>
<!-- Node15&#45;&gt;Node19 -->
<g id="edge4" class="edge"><title>Node15&#45;&gt;Node19</title>
<path fill="none" stroke="midnightblue" d="M578.635,-252.521C569.995,-241.628 558.902,-227.641 551.947,-218.872"/>
<polygon fill="midnightblue" stroke="midnightblue" points="575.955,-254.775 584.912,-260.435 581.44,-250.425 575.955,-254.775"/>
</g>
<!-- Node21 -->
<g id="node7" class="node"><title>Node21</title>
<g id="a_node7"><a xlink:href="mhrw__valuehist__tasks_8h.html" target="_top" xlink:title="Tasks for collecting a histogram of values during a Metropolis&#45;Hastings random walk. ">
<polygon fill="none" stroke="black" points="555.833,-0.5 555.833,-28.5 700.783,-28.5 700.783,-0.5 555.833,-0.5"/>
<text text-anchor="start" x="563.833" y="-16.5" font-family="Helvetica,sans-Serif" font-size="10.00">tomographer/mhrw_valuehist</text>
<text text-anchor="middle" x="628.308" y="-6.5" font-family="Helvetica,sans-Serif" font-size="10.00">_tasks.h</text>
</a>
</g>
</g>
<!-- Node15&#45;&gt;Node21 -->
<g id="edge15" class="edge"><title>Node15&#45;&gt;Node21</title>
<path fill="none" stroke="midnightblue" d="M703.484,-265.238C857.157,-257.969 1120.11,-234.527 1172.31,-159 1228.08,-78.296 861.385,-35.8902 700.876,-21.3696"/>
<polygon fill="midnightblue" stroke="midnightblue" points="702.898,-261.761 693.069,-265.714 703.218,-268.754 702.898,-261.761"/>
</g>
<!-- Node22 -->
<g id="node8" class="node"><title>Node22</title>
<g id="a_node8"><a xlink:href="mhrwtasks_8h.html" target="_top" xlink:title="Multiprocessing tasks interface (see Multiprocessing Task Interfaces) for parallel Metropolis&#45;Hasting...">
<polygon fill="none" stroke="black" points="562.507,-70.5 562.507,-88.5 694.108,-88.5 694.108,-70.5 562.507,-70.5"/>
<text text-anchor="middle" x="628.308" y="-76.5" font-family="Helvetica,sans-Serif" font-size="10.00">tomographer/mhrwtasks.h</text>
</a>
</g>
</g>
<!-- Node15&#45;&gt;Node22 -->
<g id="edge16" class="edge"><title>Node15&#45;&gt;Node22</title>
<path fill="none" stroke="midnightblue" d="M603.995,-251.886C609.395,-243.891 615.163,-233.905 618.308,-224 634.029,-174.491 630.805,-110.702 629.043,-88.5213"/>
<polygon fill="midnightblue" stroke="midnightblue" points="600.991,-250.068 598.005,-260.234 606.678,-254.15 600.991,-250.068"/>
</g>
<!-- Node23 -->
<g id="node9" class="node"><title>Node23</title>
<g id="a_node9"><a xlink:href="mhrw_8h.html" target="_top" xlink:title="Routines for performing a Metropolis&#45;Hastings random walk. ">
<polygon fill="none" stroke="black" points="307.451,-135.5 307.451,-153.5 415.165,-153.5 415.165,-135.5 307.451,-135.5"/>
<text text-anchor="middle" x="361.308" y="-141.5" font-family="Helvetica,sans-Serif" font-size="10.00">tomographer/mhrw.h</text>
</a>
</g>
</g>
<!-- Node15&#45;&gt;Node23 -->
<g id="edge9" class="edge"><title>Node15&#45;&gt;Node23</title>
<path fill="none" stroke="midnightblue" d="M479.121,-262.898C419.599,-257.321 354.964,-246.194 336.308,-224 318.637,-202.979 341.535,-169.333 354.088,-153.824"/>
<polygon fill="midnightblue" stroke="midnightblue" points="479.12,-266.411 489.39,-263.811 479.74,-259.439 479.12,-266.411"/>
</g>
<!-- Node24 -->
<g id="node10" class="node"><title>Node24</title>
<g id="a_node10"><a xlink:href="mhrw__bin__err_8h.html" target="_top" xlink:title="Binning Analysis in a Metropolis&#45;Hastings random walk. ">
<polygon fill="none" stroke="black" points="344.894,-195.5 344.894,-223.5 463.721,-223.5 463.721,-195.5 344.894,-195.5"/>
<text text-anchor="start" x="352.894" y="-211.5" font-family="Helvetica,sans-Serif" font-size="10.00">tomographer/mhrw_bin</text>
<text text-anchor="middle" x="404.308" y="-201.5" font-family="Helvetica,sans-Serif" font-size="10.00">_err.h</text>
</a>
</g>
</g>
<!-- Node15&#45;&gt;Node24 -->
<g id="edge12" class="edge"><title>Node15&#45;&gt;Node24</title>
<path fill="none" stroke="midnightblue" d="M555.715,-257.46C524.535,-247.79 479.186,-233.724 446.252,-223.51"/>
<polygon fill="midnightblue" stroke="midnightblue" points="554.718,-260.816 565.306,-260.435 556.792,-254.13 554.718,-260.816"/>
</g>
<!-- Node25 -->
<g id="node11" class="node"><title>Node25</title>
<g id="a_node11"><a xlink:href="multiproc_8h.html" target="_top" xlink:title="Some common definitions for multiprocessing interfaces. ">
<polygon fill="none" stroke="black" points="824.116,-200.5 824.116,-218.5 948.5,-218.5 948.5,-200.5 824.116,-200.5"/>
<text text-anchor="middle" x="886.308" y="-206.5" font-family="Helvetica,sans-Serif" font-size="10.00">tomographer/multiproc.h</text>
</a>
</g>
</g>
<!-- Node15&#45;&gt;Node25 -->
<g id="edge17" class="edge"><title>Node15&#45;&gt;Node25</title>
<path fill="none" stroke="midnightblue" d="M641.992,-258.535C699.579,-247.213 792.434,-228.957 845.543,-218.515"/>
<polygon fill="midnightblue" stroke="midnightblue" points="641.153,-255.133 632.016,-260.496 642.504,-262.001 641.153,-255.133"/>
</g>
<!-- Node26 -->
<g id="node12" class="node"><title>Node26</title>
<g id="a_node12"><a xlink:href="multiprocomp_8h.html" target="_top" xlink:title="Multiprocessing with OpenMP parallel multithreading. ">
<polygon fill="none" stroke="black" points="661.389,-135.5 661.389,-153.5 805.226,-153.5 805.226,-135.5 661.389,-135.5"/>
<text text-anchor="middle" x="733.308" y="-141.5" font-family="Helvetica,sans-Serif" font-size="10.00">tomographer/multiprocomp.h</text>
</a>
</g>
</g>
<!-- Node15&#45;&gt;Node26 -->
<g id="edge22" class="edge"><title>Node15&#45;&gt;Node26</title>
<path fill="none" stroke="midnightblue" d="M611.49,-254.495C623.364,-246.02 638.512,-234.797 651.308,-224 679.926,-199.852 711.233,-168.308 725.474,-153.648"/>
<polygon fill="midnightblue" stroke="midnightblue" points="609.293,-251.761 603.141,-260.387 613.329,-257.481 609.293,-251.761"/>
</g>
<!-- Node27 -->
<g id="node13" class="node"><title>Node27</title>
<g id="a_node13"><a xlink:href="multiprocthreads_8h.html" target="_top" xlink:title="Multiprocessing with native C++11 threads. ">
<polygon fill="none" stroke="black" points="1005.44,-135.5 1005.44,-153.5 1163.18,-153.5 1163.18,-135.5 1005.44,-135.5"/>
<text text-anchor="middle" x="1084.31" y="-141.5" font-family="Helvetica,sans-Serif" font-size="10.00">tomographer/multiprocthreads.h</text>
</a>
</g>
</g>
<!-- Node15&#45;&gt;Node27 -->
<g id="edge23" class="edge"><title>Node15&#45;&gt;Node27</title>
<path fill="none" stroke="midnightblue" d="M703.643,-267.293C777.546,-263.509 875.389,-252.73 957.308,-224 1005.25,-207.186 1054.23,-170.103 1074.55,-153.644"/>
<polygon fill="midnightblue" stroke="midnightblue" points="703.2,-263.81 693.378,-267.781 703.533,-270.802 703.2,-263.81"/>
</g>
<!-- Node29 -->
<g id="node15" class="node"><title>Node29</title>
<g id="a_node15"><a xlink:href="valuecalculator_8h.html" target="_top" xlink:title="Some elementary definitions which relate to the ValueCalculator Interface. ">
<polygon fill="none" stroke="black" points="1219.32,-200.5 1219.32,-218.5 1369.29,-218.5 1369.29,-200.5 1219.32,-200.5"/>
<text text-anchor="middle" x="1294.31" y="-206.5" font-family="Helvetica,sans-Serif" font-size="10.00">tomographer/valuecalculator.h</text>
</a>
</g>
</g>
<!-- Node15&#45;&gt;Node29 -->
<g id="edge24" class="edge"><title>Node15&#45;&gt;Node29</title>
<path fill="none" stroke="midnightblue" d="M703.316,-263.017C826.582,-256.37 1030.46,-243.567 1205.31,-224 1218.51,-222.523 1232.76,-220.538 1245.9,-218.546"/>
<polygon fill="midnightblue" stroke="midnightblue" points="702.912,-259.534 693.113,-263.564 703.286,-266.524 702.912,-259.534"/>
</g>
<!-- Node20 -->
<g id="node6" class="node"><title>Node20</title>
<g id="a_node6"><a xlink:href="mhrwstatscollectors_8h.html" target="_top" xlink:title="Definitions for MHRWStatsCollector Interface&#39;s. ">
<polygon fill="none" stroke="black" points="433.5,-135.5 433.5,-153.5 605.115,-153.5 605.115,-135.5 433.5,-135.5"/>
<text text-anchor="middle" x="519.308" y="-141.5" font-family="Helvetica,sans-Serif" font-size="10.00">tomographer/mhrwstatscollectors.h</text>
</a>
</g>
</g>
<!-- Node19&#45;&gt;Node20 -->
<g id="edge5" class="edge"><title>Node19&#45;&gt;Node20</title>
<path fill="none" stroke="midnightblue" d="M537.942,-190.652C532.903,-178.442 526.464,-162.841 522.625,-153.539"/>
<polygon fill="midnightblue" stroke="midnightblue" points="534.858,-192.355 541.909,-200.264 541.329,-189.685 534.858,-192.355"/>
</g>
<!-- Node20&#45;&gt;Node21 -->
<g id="edge6" class="edge"><title>Node20&#45;&gt;Node21</title>
<path fill="none" stroke="midnightblue" d="M523.857,-125.537C528.868,-108.503 538.273,-82.9199 553.308,-65 566.243,-49.5823 585.186,-37.1336 600.798,-28.5767"/>
<polygon fill="midnightblue" stroke="midnightblue" points="520.441,-124.762 521.184,-135.33 527.194,-126.605 520.441,-124.762"/>
</g>
<!-- Node20&#45;&gt;Node22 -->
<g id="edge7" class="edge"><title>Node20&#45;&gt;Node22</title>
<path fill="none" stroke="midnightblue" d="M542.501,-130.094C564.322,-117.483 596.273,-99.0153 614.399,-88.539"/>
<polygon fill="midnightblue" stroke="midnightblue" points="540.464,-127.229 533.557,-135.264 543.967,-133.29 540.464,-127.229"/>
</g>
<!-- Node22&#45;&gt;Node21 -->
<g id="edge8" class="edge"><title>Node22&#45;&gt;Node21</title>
<path fill="none" stroke="midnightblue" d="M628.308,-60.1373C628.308,-50.1047 628.308,-37.906 628.308,-28.7981"/>
<polygon fill="midnightblue" stroke="midnightblue" points="624.808,-60.2638 628.308,-70.2639 631.808,-60.2639 624.808,-60.2638"/>
</g>
<!-- Node23&#45;&gt;Node18 -->
<g id="edge10" class="edge"><title>Node23&#45;&gt;Node18</title>
<path fill="none" stroke="midnightblue" d="M350.398,-126.736C343.688,-116.425 335.208,-103.396 328.962,-93.7981"/>
<polygon fill="midnightblue" stroke="midnightblue" points="347.559,-128.792 355.948,-135.264 353.426,-124.973 347.559,-128.792"/>
</g>
<!-- Node23&#45;&gt;Node22 -->
<g id="edge11" class="edge"><title>Node23&#45;&gt;Node22</title>
<path fill="none" stroke="midnightblue" d="M405.164,-133.152C458.045,-120.674 545.807,-99.9665 594.002,-88.5946"/>
<polygon fill="midnightblue" stroke="midnightblue" points="404.323,-129.754 395.395,-135.457 405.931,-136.567 404.323,-129.754"/>
</g>
<!-- Node24&#45;&gt;Node20 -->
<g id="edge14" class="edge"><title>Node24&#45;&gt;Node20</title>
<path fill="none" stroke="midnightblue" d="M436.944,-190.621C459.215,-178.42 487.649,-162.843 504.617,-153.548"/>
<polygon fill="midnightblue" stroke="midnightblue" points="435.224,-187.572 428.136,-195.446 438.588,-193.711 435.224,-187.572"/>
</g>
<!-- Node24&#45;&gt;Node23 -->
<g id="edge13" class="edge"><title>Node24&#45;&gt;Node23</title>
<path fill="none" stroke="midnightblue" d="M389.752,-187.175C381.913,-175.69 372.694,-162.183 366.925,-153.73"/>
<polygon fill="midnightblue" stroke="midnightblue" points="386.87,-189.16 395.398,-195.446 392.651,-185.214 386.87,-189.16"/>
</g>
<!-- Node25&#45;&gt;Node22 -->
<g id="edge18" class="edge"><title>Node25&#45;&gt;Node22</title>
<path fill="none" stroke="midnightblue" d="M912.715,-195.643C940.833,-180.277 978.691,-153.668 958.308,-130 924.945,-91.2601 780.722,-82.4093 694.364,-80.6482"/>
<polygon fill="midnightblue" stroke="midnightblue" points="910.878,-192.655 903.651,-200.403 914.132,-198.852 910.878,-192.655"/>
</g>
<!-- Node25&#45;&gt;Node26 -->
<g id="edge19" class="edge"><title>Node25&#45;&gt;Node26</title>
<path fill="none" stroke="midnightblue" d="M857.327,-196.567C826.746,-183.975 779.39,-164.475 752.921,-153.576"/>
<polygon fill="midnightblue" stroke="midnightblue" points="856.039,-199.822 866.619,-200.393 858.705,-193.349 856.039,-199.822"/>
</g>
<!-- Node25&#45;&gt;Node27 -->
<g id="edge20" class="edge"><title>Node25&#45;&gt;Node27</title>
<path fill="none" stroke="midnightblue" d="M921.524,-197.295C960.989,-184.738 1024,-164.688 1058.93,-153.576"/>
<polygon fill="midnightblue" stroke="midnightblue" points="920.255,-194.025 911.787,-200.393 922.378,-200.696 920.255,-194.025"/>
</g>
<!-- Node28 -->
<g id="node14" class="node"><title>Node28</title>
<g id="a_node14"><a xlink:href="signal__status__report_8h.html" target="_top" xlink:title="Basic common code for intercepting a signal to print status information of a task manager...">
<polygon fill="none" stroke="black" points="823.554,-130.5 823.554,-158.5 949.061,-158.5 949.061,-130.5 823.554,-130.5"/>
<text text-anchor="start" x="831.554" y="-146.5" font-family="Helvetica,sans-Serif" font-size="10.00">tomographer/tools/signal</text>
<text text-anchor="middle" x="886.308" y="-136.5" font-family="Helvetica,sans-Serif" font-size="10.00">_status_report.h</text>
</a>
</g>
</g>
<!-- Node25&#45;&gt;Node28 -->
<g id="edge21" class="edge"><title>Node25&#45;&gt;Node28</title>
<path fill="none" stroke="midnightblue" d="M886.308,-190.137C886.308,-180.105 886.308,-167.906 886.308,-158.798"/>
<polygon fill="midnightblue" stroke="midnightblue" points="882.808,-190.264 886.308,-200.264 889.808,-190.264 882.808,-190.264"/>
</g>
</g>
</svg>
        <g id="navigator" transform="translate(0 0)" fill="#404254">
                <rect fill="#f2f5e9" fill-opacity="0.5" stroke="#606060" stroke-width=".5" x="0" y="0" width="60" height="60"/>
                <use id="zoomplus" xlink:href="#zoomPlus" x="17" y="9" onmousedown="handleZoom(evt,'in')"/>
                <use id="zoomminus" xlink:href="#zoomMin" x="42" y="9" onmousedown="handleZoom(evt,'out')"/>
                <use id="reset" xlink:href="#resetDef" x="30" y="36" onmousedown="handleReset()"/>
                <g id="arrowUp" xlink:href="#dirArrow" transform="translate(30 24)" onmousedown="handlePan(0,-1)">
                  <use xlink:href="#rim" fill="#404040">
                        <set attributeName="fill" to="#808080" begin="arrowUp.mouseover" end="arrowUp.mouseout"/>
                  </use>
                  <path fill="none" stroke="white" stroke-width="1.5" d="M0,-3.0v7 M-2.5,-0.5L0,-3.0L2.5,-0.5"/>
                </g>
                <g id="arrowRight" xlink:href="#dirArrow" transform="rotate(90) translate(36 -43)" onmousedown="handlePan(1,0)">
                  <use xlink:href="#rim" fill="#404040">
                        <set attributeName="fill" to="#808080" begin="arrowRight.mouseover" end="arrowRight.mouseout"/>
                  </use>
                  <path fill="none" stroke="white" stroke-width="1.5" d="M0,-3.0v7 M-2.5,-0.5L0,-3.0L2.5,-0.5"/>
                </g>
                <g id="arrowDown" xlink:href="#dirArrow" transform="rotate(180) translate(-30 -48)" onmousedown="handlePan(0,1)">
                  <use xlink:href="#rim" fill="#404040">
                        <set attributeName="fill" to="#808080" begin="arrowDown.mouseover" end="arrowDown.mouseout"/>
                  </use>
                  <path fill="none" stroke="white" stroke-width="1.5" d="M0,-3.0v7 M-2.5,-0.5L0,-3.0L2.5,-0.5"/>
                </g>
                <g id="arrowLeft" xlink:href="#dirArrow" transform="rotate(270) translate(-36 17)" onmousedown="handlePan(-1,0)">
                  <use xlink:href="#rim" fill="#404040">
                        <set attributeName="fill" to="#808080" begin="arrowLeft.mouseover" end="arrowLeft.mouseout"/>
                  </use>
                  <path fill="none" stroke="white" stroke-width="1.5" d="M0,-3.0v7 M-2.5,-0.5L0,-3.0L2.5,-0.5"/>
                </g>
        </g>
        <svg viewBox="0 0 15 15" width="100%" height="30px" preserveAspectRatio="xMaxYMin meet">
         <g id="arrow_out" transform="scale(0.3 0.3)">
          <a xlink:href="needownoperatornew_8h__dep__incl_org.svg" target="_base">
           <rect id="button" ry="5" rx="5" y="6" x="6" height="38" width="38"
                fill="#f2f5e9" fill-opacity="0.5" stroke="#606060" stroke-width="1.0"/>
           <path id="arrow"
             d="M 11.500037,31.436501 C 11.940474,20.09759 22.043105,11.32322 32.158766,21.979434 L 37.068811,17.246167 C 37.068811,17.246167 37.088388,32 37.088388,32 L 22.160133,31.978069 C 22.160133,31.978069 26.997745,27.140456 26.997745,27.140456 C 18.528582,18.264221 13.291696,25.230495 11.500037,31.436501 z"
             style="fill:#404040;"/>
          </a>
         </g>
        </svg>
</svg>
