<?xml version="1.0" encoding="UTF-8" standalone="no"?>
<!DOCTYPE svg PUBLIC "-//W3C//DTD SVG 1.1//EN"
 "http://www.w3.org/Graphics/SVG/1.1/DTD/svg11.dtd">
<!-- Generated by graphviz version 2.38.0 (20140413.2041)
 -->
<!-- Title: tomographer/densedm/param_herm_x.h Pages: 1 -->
<svg width="885pt" height="212pt"
 viewBox="0.00 0.00 884.68 212.00" xmlns="http://www.w3.org/2000/svg" xmlns:xlink="http://www.w3.org/1999/xlink">
<g id="graph0" class="graph" transform="scale(1 1) rotate(0) translate(4 208)">
<title>tomographer/densedm/param_herm_x.h</title>
<!-- Node0 -->
<g id="node1" class="node"><title>Node0</title>
<polygon fill="#bfbfbf" stroke="black" points="135.311,-175.5 135.311,-203.5 251.926,-203.5 251.926,-175.5 135.311,-175.5"/>
<text text-anchor="start" x="143.311" y="-191.5" font-family="Helvetica,sans-Serif" font-size="10.00">tomographer/densedm</text>
<text text-anchor="middle" x="193.618" y="-181.5" font-family="Helvetica,sans-Serif" font-size="10.00">/param_herm_x.h</text>
</g>
<!-- Node1 -->
<g id="node2" class="node"><title>Node1</title>
<polygon fill="none" stroke="#bfbfbf" points="84.0024,-115.5 84.0024,-133.5 127.234,-133.5 127.234,-115.5 84.0024,-115.5"/>
<text text-anchor="middle" x="105.618" y="-121.5" font-family="Helvetica,sans-Serif" font-size="10.00">cmath</text>
</g>
<!-- Node0&#45;&gt;Node1 -->
<g id="edge1" class="edge"><title>Node0&#45;&gt;Node1</title>
<path fill="none" stroke="midnightblue" d="M175.385,-175.446C160.793,-165 140.364,-150.375 125.383,-139.65"/>
<polygon fill="midnightblue" stroke="midnightblue" points="127.028,-136.523 116.86,-133.548 122.954,-142.215 127.028,-136.523"/>
</g>
<!-- Node2 -->
<g id="node3" class="node"><title>Node2</title>
<polygon fill="none" stroke="#bfbfbf" points="0,-55.5 0,-73.5 53.2363,-73.5 53.2363,-55.5 0,-55.5"/>
<text text-anchor="middle" x="26.6182" y="-61.5" font-family="Helvetica,sans-Serif" font-size="10.00">complex</text>
</g>
<!-- Node0&#45;&gt;Node2 -->
<g id="edge2" class="edge"><title>Node0&#45;&gt;Node2</title>
<path fill="none" stroke="midnightblue" d="M187.084,-175.349C177.948,-158.171 159.837,-128.154 136.618,-110 114.989,-93.0885 86.066,-81.7245 63.3066,-74.7154"/>
<polygon fill="midnightblue" stroke="midnightblue" points="64.2318,-71.3394 53.6511,-71.886 62.2633,-78.057 64.2318,-71.3394"/>
</g>
<!-- Node3 -->
<g id="node4" class="node"><title>Node3</title>
<polygon fill="none" stroke="#bfbfbf" points="465.091,-110.5 465.091,-138.5 576.145,-138.5 576.145,-110.5 465.091,-110.5"/>
<text text-anchor="start" x="473.091" y="-126.5" font-family="Helvetica,sans-Serif" font-size="10.00">boost/math/constants</text>
<text text-anchor="middle" x="520.618" y="-116.5" font-family="Helvetica,sans-Serif" font-size="10.00">/constants.hpp</text>
</g>
<!-- Node0&#45;&gt;Node3 -->
<g id="edge3" class="edge"><title>Node0&#45;&gt;Node3</title>
<path fill="none" stroke="midnightblue" d="M252.185,-177.856C303.238,-168.491 379.548,-154.287 454.676,-139.366"/>
<polygon fill="midnightblue" stroke="midnightblue" points="455.662,-142.738 464.785,-137.352 454.294,-135.873 455.662,-142.738"/>
</g>
<!-- Node4 -->
<g id="node5" class="node"><title>Node4</title>
<polygon fill="none" stroke="#bfbfbf" points="71.6035,-55.5 71.6035,-73.5 137.633,-73.5 137.633,-55.5 71.6035,-55.5"/>
<text text-anchor="middle" x="104.618" y="-61.5" font-family="Helvetica,sans-Serif" font-size="10.00">Eigen/Core</text>
</g>
<!-- Node0&#45;&gt;Node4 -->
<g id="edge4" class="edge"><title>Node0&#45;&gt;Node4</title>
<path fill="none" stroke="midnightblue" d="M192.289,-175.361C190.043,-158.733 184.215,-129.869 169.618,-110 159.845,-96.6966 144.838,-86.0455 131.705,-78.503"/>
<polygon fill="midnightblue" stroke="midnightblue" points="133.036,-75.244 122.575,-73.5669 129.707,-81.4017 133.036,-75.244"/>
</g>
<!-- Node5 -->
<g id="node6" class="node"><title>Node5</title>
<g id="a_node6"><a xlink:href="cxxutil_8h.html" target="_top" xlink:title="Some C++ utilities, with a tad of C++11 tricks. ">
<polygon fill="none" stroke="black" points="311.867,-115.5 311.867,-133.5 447.369,-133.5 447.369,-115.5 311.867,-115.5"/>
<text text-anchor="middle" x="379.618" y="-121.5" font-family="Helvetica,sans-Serif" font-size="10.00">tomographer/tools/cxxutil.h</text>
</a>
</g>
</g>
<!-- Node0&#45;&gt;Node5 -->
<g id="edge5" class="edge"><title>Node0&#45;&gt;Node5</title>
<path fill="none" stroke="midnightblue" d="M232.157,-175.446C265.763,-164.064 314.017,-147.72 346.062,-136.866"/>
<polygon fill="midnightblue" stroke="midnightblue" points="347.509,-140.071 355.857,-133.548 345.263,-133.441 347.509,-140.071"/>
</g>
<!-- Node5&#45;&gt;Node2 -->
<g id="edge10" class="edge"><title>Node5&#45;&gt;Node2</title>
<path fill="none" stroke="midnightblue" d="M319.195,-115.475C257.418,-106.953 158.494,-92.4306 63.3862,-74.0123"/>
<polygon fill="midnightblue" stroke="midnightblue" points="63.7906,-70.5252 53.3049,-72.0424 62.448,-77.3953 63.7906,-70.5252"/>
</g>
<!-- Node5&#45;&gt;Node4 -->
<g id="edge20" class="edge"><title>Node5&#45;&gt;Node4</title>
<path fill="none" stroke="midnightblue" d="M341.669,-115.496C290.868,-104.782 200.992,-85.8261 147.703,-74.5869"/>
<polygon fill="midnightblue" stroke="midnightblue" points="148.383,-71.1534 137.876,-72.5143 146.938,-78.0027 148.383,-71.1534"/>
</g>
<!-- Node6 -->
<g id="node7" class="node"><title>Node6</title>
<polygon fill="none" stroke="#bfbfbf" points="556.502,-0.5 556.502,-18.5 604.734,-18.5 604.734,-0.5 556.502,-0.5"/>
<text text-anchor="middle" x="580.618" y="-6.5" font-family="Helvetica,sans-Serif" font-size="10.00">cassert</text>
</g>
<!-- Node5&#45;&gt;Node6 -->
<g id="edge6" class="edge"><title>Node5&#45;&gt;Node6</title>
<path fill="none" stroke="midnightblue" d="M397.437,-115.491C417.856,-106.148 452.169,-89.9405 480.618,-74 508.962,-58.1187 540.406,-37.656 560.329,-24.3144"/>
<polygon fill="midnightblue" stroke="midnightblue" points="562.534,-27.0492 568.871,-18.5579 558.622,-21.2444 562.534,-27.0492"/>
</g>
<!-- Node7 -->
<g id="node8" class="node"><title>Node7</title>
<polygon fill="none" stroke="#bfbfbf" points="625.498,-0.5 625.498,-18.5 673.739,-18.5 673.739,-0.5 625.498,-0.5"/>
<text text-anchor="middle" x="649.618" y="-6.5" font-family="Helvetica,sans-Serif" font-size="10.00">cstddef</text>
</g>
<!-- Node5&#45;&gt;Node7 -->
<g id="edge7" class="edge"><title>Node5&#45;&gt;Node7</title>
<path fill="none" stroke="midnightblue" d="M423.79,-115.447C434.218,-113.603 445.303,-111.689 455.618,-110 508.839,-101.283 660.426,-114.865 695.618,-74 709.512,-57.8665 689.258,-37.744 671.396,-24.529"/>
<polygon fill="midnightblue" stroke="midnightblue" points="673.181,-21.5061 662.98,-18.6442 669.169,-27.2429 673.181,-21.5061"/>
</g>
<!-- Node8 -->
<g id="node9" class="node"><title>Node8</title>
<polygon fill="none" stroke="#bfbfbf" points="475.446,-0.5 475.446,-18.5 519.791,-18.5 519.791,-0.5 475.446,-0.5"/>
<text text-anchor="middle" x="497.618" y="-6.5" font-family="Helvetica,sans-Serif" font-size="10.00">cstdlib</text>
</g>
<!-- Node5&#45;&gt;Node8 -->
<g id="edge8" class="edge"><title>Node5&#45;&gt;Node8</title>
<path fill="none" stroke="midnightblue" d="M397.851,-115.373C415.278,-106.929 441.507,-92.3821 459.618,-74 472.839,-60.5813 483.381,-41.7029 489.976,-28.0208"/>
<polygon fill="midnightblue" stroke="midnightblue" points="493.242,-29.2962 494.229,-18.7474 486.879,-26.3783 493.242,-29.2962"/>
</g>
<!-- Node9 -->
<g id="node10" class="node"><title>Node9</title>
<polygon fill="none" stroke="#bfbfbf" points="742.446,-55.5 742.446,-73.5 796.791,-73.5 796.791,-55.5 742.446,-55.5"/>
<text text-anchor="middle" x="769.618" y="-61.5" font-family="Helvetica,sans-Serif" font-size="10.00">iostream</text>
</g>
<!-- Node5&#45;&gt;Node9 -->
<g id="edge9" class="edge"><title>Node5&#45;&gt;Node9</title>
<path fill="none" stroke="midnightblue" d="M422.968,-115.455C433.628,-113.572 445.023,-111.639 455.618,-110 576.564,-91.2933 607.953,-94.4357 728.618,-74 729.868,-73.7883 731.138,-73.5661 732.419,-73.3356"/>
<polygon fill="midnightblue" stroke="midnightblue" points="733.155,-76.7584 742.324,-71.4492 731.845,-69.882 733.155,-76.7584"/>
</g>
<!-- Node10 -->
<g id="node11" class="node"><title>Node10</title>
<polygon fill="none" stroke="#bfbfbf" points="814.552,-55.5 814.552,-73.5 876.685,-73.5 876.685,-55.5 814.552,-55.5"/>
<text text-anchor="middle" x="845.618" y="-61.5" font-family="Helvetica,sans-Serif" font-size="10.00">type_traits</text>
</g>
<!-- Node5&#45;&gt;Node10 -->
<g id="edge11" class="edge"><title>Node5&#45;&gt;Node10</title>
<path fill="none" stroke="midnightblue" d="M421.74,-115.451C432.741,-113.504 444.603,-111.543 455.618,-110 607.307,-88.7556 649.424,-97.8909 804.352,-74.0423"/>
<polygon fill="midnightblue" stroke="midnightblue" points="804.893,-77.5003 814.234,-72.5003 803.814,-70.584 804.893,-77.5003"/>
</g>
<!-- Node11 -->
<g id="node12" class="node"><title>Node11</title>
<polygon fill="none" stroke="#bfbfbf" points="155.214,-55.5 155.214,-73.5 214.022,-73.5 214.022,-55.5 155.214,-55.5"/>
<text text-anchor="middle" x="184.618" y="-61.5" font-family="Helvetica,sans-Serif" font-size="10.00">exception</text>
</g>
<!-- Node5&#45;&gt;Node11 -->
<g id="edge12" class="edge"><title>Node5&#45;&gt;Node11</title>
<path fill="none" stroke="midnightblue" d="M352.504,-115.435C318.401,-105.292 259.698,-87.8314 221.525,-76.4774"/>
<polygon fill="midnightblue" stroke="midnightblue" points="222.398,-73.0857 211.815,-73.5894 220.403,-79.7952 222.398,-73.0857"/>
</g>
<!-- Node12 -->
<g id="node13" class="node"><title>Node12</title>
<polygon fill="none" stroke="#bfbfbf" points="232.217,-55.5 232.217,-73.5 291.02,-73.5 291.02,-55.5 232.217,-55.5"/>
<text text-anchor="middle" x="261.618" y="-61.5" font-family="Helvetica,sans-Serif" font-size="10.00">stdexcept</text>
</g>
<!-- Node5&#45;&gt;Node12 -->
<g id="edge13" class="edge"><title>Node5&#45;&gt;Node12</title>
<path fill="none" stroke="midnightblue" d="M363.211,-115.435C343.595,-105.794 310.531,-89.5418 287.469,-78.2065"/>
<polygon fill="midnightblue" stroke="midnightblue" points="288.785,-74.9533 278.267,-73.6831 285.697,-81.2355 288.785,-74.9533"/>
</g>
<!-- Node13 -->
<g id="node14" class="node"><title>Node13</title>
<g id="a_node14"><a xlink:href="cxxdefs_8h.html" target="_top" xlink:title="Basic definitions, which may have to be defined before any Eigen headers or further utilities are inc...">
<polygon fill="none" stroke="black" points="544.808,-55.5 544.808,-73.5 686.428,-73.5 686.428,-55.5 544.808,-55.5"/>
<text text-anchor="middle" x="615.618" y="-61.5" font-family="Helvetica,sans-Serif" font-size="10.00">tomographer/tools/cxxdefs.h</text>
</a>
</g>
</g>
<!-- Node5&#45;&gt;Node13 -->
<g id="edge14" class="edge"><title>Node5&#45;&gt;Node13</title>
<path fill="none" stroke="midnightblue" d="M412.433,-115.435C454.233,-105.162 526.571,-87.3844 572.709,-76.0456"/>
<polygon fill="midnightblue" stroke="midnightblue" points="573.827,-79.375 582.703,-73.5894 572.156,-72.5773 573.827,-79.375"/>
</g>
<!-- Node14 -->
<g id="node15" class="node"><title>Node14</title>
<g id="a_node15"><a xlink:href="conststr_8h.html" target="_top" xlink:title="A constexpr string type, suitable for basic compile&#45;time string processing. ">
<polygon fill="none" stroke="black" points="308.527,-55.5 308.527,-73.5 450.709,-73.5 450.709,-55.5 308.527,-55.5"/>
<text text-anchor="middle" x="379.618" y="-61.5" font-family="Helvetica,sans-Serif" font-size="10.00">tomographer/tools/conststr.h</text>
</a>
</g>
</g>
<!-- Node5&#45;&gt;Node14 -->
<g id="edge18" class="edge"><title>Node5&#45;&gt;Node14</title>
<path fill="none" stroke="midnightblue" d="M379.618,-115.435C379.618,-107.389 379.618,-94.7388 379.618,-84.1846"/>
<polygon fill="midnightblue" stroke="midnightblue" points="383.118,-83.8717 379.618,-73.8718 376.118,-83.8718 383.118,-83.8717"/>
</g>
<!-- Node13&#45;&gt;Node6 -->
<g id="edge15" class="edge"><title>Node13&#45;&gt;Node6</title>
<path fill="none" stroke="midnightblue" d="M610.149,-55.2188C605.189,-47.7074 597.729,-36.411 591.548,-27.0515"/>
<polygon fill="midnightblue" stroke="midnightblue" points="594.365,-24.9655 585.934,-18.5496 588.524,-28.823 594.365,-24.9655"/>
</g>
<!-- Node13&#45;&gt;Node7 -->
<g id="edge16" class="edge"><title>Node13&#45;&gt;Node7</title>
<path fill="none" stroke="midnightblue" d="M620.931,-55.2188C625.749,-47.7074 632.996,-36.411 639,-27.0515"/>
<polygon fill="midnightblue" stroke="midnightblue" points="642.001,-28.8564 644.454,-18.5496 636.109,-25.0767 642.001,-28.8564"/>
</g>
<!-- Node13&#45;&gt;Node8 -->
<g id="edge17" class="edge"><title>Node13&#45;&gt;Node8</title>
<path fill="none" stroke="midnightblue" d="M597.697,-55.4504C578.377,-46.7729 547.391,-32.8556 525.012,-22.8041"/>
<polygon fill="midnightblue" stroke="midnightblue" points="526.265,-19.5298 515.708,-18.6253 523.397,-25.9153 526.265,-19.5298"/>
</g>
<!-- Node15 -->
<g id="node16" class="node"><title>Node15</title>
<polygon fill="none" stroke="#bfbfbf" points="359.392,-0.5 359.392,-18.5 399.845,-18.5 399.845,-0.5 359.392,-0.5"/>
<text text-anchor="middle" x="379.618" y="-6.5" font-family="Helvetica,sans-Serif" font-size="10.00">string</text>
</g>
<!-- Node14&#45;&gt;Node15 -->
<g id="edge19" class="edge"><title>Node14&#45;&gt;Node15</title>
<path fill="none" stroke="midnightblue" d="M379.618,-55.2188C379.618,-48.1769 379.618,-37.8083 379.618,-28.8277"/>
<polygon fill="midnightblue" stroke="midnightblue" points="383.118,-28.5495 379.618,-18.5496 376.118,-28.5496 383.118,-28.5495"/>
</g>
</g>
</svg>
