<?xml version="1.0" encoding="UTF-8" standalone="no"?>
<!DOCTYPE svg PUBLIC "-//W3C//DTD SVG 1.1//EN"
 "http://www.w3.org/Graphics/SVG/1.1/DTD/svg11.dtd">
<!-- Generated by graphviz version 2.38.0 (20140413.2041)
 -->
<!-- Title: tomographer/tools/signal_status_report.h Pages: 1 -->
<!--zoomable 322 -->
<svg id="main" version="1.1" xmlns="http://www.w3.org/2000/svg" xmlns:xlink="http://www.w3.org/1999/xlink" xml:space="preserve" onload="init(evt)">
<style type="text/css"><![CDATA[
.edge:hover path { stroke: red; }
.edge:hover polygon { stroke: red; fill: red; }
]]></style>
<script type="text/javascript"><![CDATA[
var edges = document.getElementsByTagName('g');
if (edges && edges.length) {
  for (var i=0;i<edges.length;i++) {
    if (edges[i].id.substr(0,4)=='edge') {
      edges[i].setAttribute('class','edge');
    }
  }
}
]]></script>
        <defs>
                <circle id="rim" cx="0" cy="0" r="7"/>
                <circle id="rim2" cx="0" cy="0" r="3.5"/>
                <g id="zoomPlus">
                        <use xlink:href="#rim" fill="#404040">
                                <set attributeName="fill" to="#808080" begin="zoomplus.mouseover" end="zoomplus.mouseout"/>
                        </use>
                        <path d="M-4,0h8M0,-4v8" fill="none" stroke="white" stroke-width="1.5" pointer-events="none"/>
                </g>
                <g id="zoomMin">
                        <use xlink:href="#rim" fill="#404040">
                                <set attributeName="fill" to="#808080" begin="zoomminus.mouseover" end="zoomminus.mouseout"/>
                        </use>
                        <path d="M-4,0h8" fill="none" stroke="white" stroke-width="1.5" pointer-events="none"/>
                </g>
                <g id="dirArrow">
                        <path fill="none" stroke="white" stroke-width="1.5" d="M0,-3.0v7 M-2.5,-0.5L0,-3.0L2.5,-0.5"/>
                </g>
               <g id="resetDef">
                       <use xlink:href="#rim2" fill="#404040">
                               <set attributeName="fill" to="#808080" begin="reset.mouseover" end="reset.mouseout"/>
                       </use>
               </g>
        </defs>

<script type="text/javascript">
var viewWidth = 1216;
var viewHeight = 322;
var sectionId = 'dynsection-0';
</script>
<script xlink:href="svgpan.js"/>
<svg id="graph" class="graph">
<g id="viewport">
<title>tomographer/tools/signal_status_report.h</title>
<!-- Node0 -->
<g id="node1" class="node"><title>Node0</title>
<polygon fill="#bfbfbf" stroke="black" points="236.48,-285.5 236.48,-313.5 361.987,-313.5 361.987,-285.5 236.48,-285.5"/>
<text text-anchor="start" x="244.48" y="-301.5" font-family="Helvetica,sans-Serif" font-size="10.00">tomographer/tools/signal</text>
<text text-anchor="middle" x="299.234" y="-291.5" font-family="Helvetica,sans-Serif" font-size="10.00">_status_report.h</text>
</g>
<!-- Node1 -->
<g id="node2" class="node"><title>Node1</title>
<g id="a_node2"><a xlink:href="signal__handler_8h.html" target="_top" xlink:title="Basic common code for intercepting a signal and basic interfacing to C++. ">
<polygon fill="none" stroke="black" points="21.4805,-165.5 21.4805,-193.5 146.987,-193.5 146.987,-165.5 21.4805,-165.5"/>
<text text-anchor="start" x="29.4805" y="-181.5" font-family="Helvetica,sans-Serif" font-size="10.00">tomographer/tools/signal</text>
<text text-anchor="middle" x="84.2339" y="-171.5" font-family="Helvetica,sans-Serif" font-size="10.00">_handler.h</text>
</a>
</g>
</g>
<!-- Node0&#45;&gt;Node1 -->
<g id="edge1" class="edge"><title>Node0&#45;&gt;Node1</title>
<path fill="none" stroke="midnightblue" d="M275.404,-285.421C236.821,-264.245 160.605,-222.415 116.964,-198.463"/>
<polygon fill="midnightblue" stroke="midnightblue" points="118.621,-195.381 108.171,-193.637 115.253,-201.517 118.621,-195.381"/>
</g>
<!-- Node6 -->
<g id="node7" class="node"><title>Node6</title>
<g id="a_node7"><a xlink:href="multiproc_8h.html" target="_top" xlink:title="Some common definitions for multiprocessing interfaces. ">
<polygon fill="none" stroke="black" points="326.042,-230.5 326.042,-248.5 450.426,-248.5 450.426,-230.5 326.042,-230.5"/>
<text text-anchor="middle" x="388.234" y="-236.5" font-family="Helvetica,sans-Serif" font-size="10.00">tomographer/multiproc.h</text>
</a>
</g>
</g>
<!-- Node0&#45;&gt;Node6 -->
<g id="edge6" class="edge"><title>Node0&#45;&gt;Node6</title>
<path fill="none" stroke="midnightblue" d="M319.429,-285.339C333.649,-276.072 352.646,-263.692 367.075,-254.289"/>
<polygon fill="midnightblue" stroke="midnightblue" points="369.335,-256.994 375.802,-248.602 365.513,-251.129 369.335,-256.994"/>
</g>
<!-- Node2 -->
<g id="node3" class="node"><title>Node2</title>
<polygon fill="none" stroke="#bfbfbf" points="0,-110.5 0,-128.5 50.4678,-128.5 50.4678,-110.5 0,-110.5"/>
<text text-anchor="middle" x="25.2339" y="-116.5" font-family="Helvetica,sans-Serif" font-size="10.00">signal.h</text>
</g>
<!-- Node1&#45;&gt;Node2 -->
<g id="edge2" class="edge"><title>Node1&#45;&gt;Node2</title>
<path fill="none" stroke="midnightblue" d="M70.8459,-165.339C61.9211,-156.565 50.1583,-145.002 40.8135,-135.816"/>
<polygon fill="midnightblue" stroke="midnightblue" points="43.2329,-133.286 33.648,-128.771 38.3256,-138.278 43.2329,-133.286"/>
</g>
<!-- Node3 -->
<g id="node4" class="node"><title>Node3</title>
<polygon fill="none" stroke="#bfbfbf" points="236.172,-110.5 236.172,-128.5 278.295,-128.5 278.295,-110.5 236.172,-110.5"/>
<text text-anchor="middle" x="257.234" y="-116.5" font-family="Helvetica,sans-Serif" font-size="10.00">cstdio</text>
</g>
<!-- Node1&#45;&gt;Node3 -->
<g id="edge3" class="edge"><title>Node1&#45;&gt;Node3</title>
<path fill="none" stroke="midnightblue" d="M123.058,-165.484C154.249,-155.027 197.465,-140.538 226.337,-130.858"/>
<polygon fill="midnightblue" stroke="midnightblue" points="227.539,-134.147 235.908,-127.65 225.314,-127.51 227.539,-134.147"/>
</g>
<!-- Node4 -->
<g id="node5" class="node"><title>Node4</title>
<polygon fill="none" stroke="#bfbfbf" points="68.2881,-110.5 68.2881,-128.5 108.18,-128.5 108.18,-110.5 68.2881,-110.5"/>
<text text-anchor="middle" x="88.2339" y="-116.5" font-family="Helvetica,sans-Serif" font-size="10.00">ctime</text>
</g>
<!-- Node1&#45;&gt;Node4 -->
<g id="edge4" class="edge"><title>Node1&#45;&gt;Node4</title>
<path fill="none" stroke="midnightblue" d="M85.1415,-165.339C85.6801,-157.531 86.371,-147.512 86.9631,-138.927"/>
<polygon fill="midnightblue" stroke="midnightblue" points="90.467,-138.989 87.6634,-128.771 83.4836,-138.507 90.467,-138.989"/>
</g>
<!-- Node5 -->
<g id="node6" class="node"><title>Node5</title>
<polygon fill="none" stroke="#bfbfbf" points="133.946,-110.5 133.946,-128.5 180.522,-128.5 180.522,-110.5 133.946,-110.5"/>
<text text-anchor="middle" x="157.234" y="-116.5" font-family="Helvetica,sans-Serif" font-size="10.00">chrono</text>
</g>
<!-- Node1&#45;&gt;Node5 -->
<g id="edge5" class="edge"><title>Node1&#45;&gt;Node5</title>
<path fill="none" stroke="midnightblue" d="M100.799,-165.339C112.172,-156.302 127.272,-144.306 138.99,-134.995"/>
<polygon fill="midnightblue" stroke="midnightblue" points="141.171,-137.733 146.823,-128.771 136.816,-132.252 141.171,-137.733"/>
</g>
<!-- Node6&#45;&gt;Node5 -->
<g id="edge9" class="edge"><title>Node6&#45;&gt;Node5</title>
<path fill="none" stroke="midnightblue" d="M325.916,-236.323C286.262,-232.116 235.696,-221.23 199.234,-194 180.687,-180.15 169.064,-155.521 162.866,-138.619"/>
<polygon fill="midnightblue" stroke="midnightblue" points="166.072,-137.174 159.557,-128.819 159.44,-139.413 166.072,-137.174"/>
</g>
<!-- Node7 -->
<g id="node8" class="node"><title>Node7</title>
<polygon fill="none" stroke="#bfbfbf" points="1067.67,-170.5 1067.67,-188.5 1114.8,-188.5 1114.8,-170.5 1067.67,-170.5"/>
<text text-anchor="middle" x="1091.23" y="-176.5" font-family="Helvetica,sans-Serif" font-size="10.00">csignal</text>
</g>
<!-- Node6&#45;&gt;Node7 -->
<g id="edge7" class="edge"><title>Node6&#45;&gt;Node7</title>
<path fill="none" stroke="midnightblue" d="M450.69,-237.004C594.355,-233.135 944.709,-221.144 1059.23,-194 1061.3,-193.511 1063.4,-192.902 1065.48,-192.215"/>
<polygon fill="midnightblue" stroke="midnightblue" points="1066.89,-195.426 1074.98,-188.589 1064.39,-188.886 1066.89,-195.426"/>
</g>
<!-- Node8 -->
<g id="node9" class="node"><title>Node8</title>
<polygon fill="none" stroke="#bfbfbf" points="284.007,-0.5 284.007,-18.5 324.46,-18.5 324.46,-0.5 284.007,-0.5"/>
<text text-anchor="middle" x="304.234" y="-6.5" font-family="Helvetica,sans-Serif" font-size="10.00">string</text>
</g>
<!-- Node6&#45;&gt;Node8 -->
<g id="edge8" class="edge"><title>Node6&#45;&gt;Node8</title>
<path fill="none" stroke="midnightblue" d="M363.639,-230.398C326.032,-216.501 255.617,-184.155 227.234,-129 206.886,-89.4595 253.949,-46.5079 283.168,-24.796"/>
<polygon fill="midnightblue" stroke="midnightblue" points="285.485,-27.4412 291.569,-18.767 281.404,-21.7541 285.485,-27.4412"/>
</g>
<!-- Node9 -->
<g id="node10" class="node"><title>Node9</title>
<polygon fill="none" stroke="#bfbfbf" points="1069.83,-55.5 1069.83,-73.5 1128.64,-73.5 1128.64,-55.5 1069.83,-55.5"/>
<text text-anchor="middle" x="1099.23" y="-61.5" font-family="Helvetica,sans-Serif" font-size="10.00">exception</text>
</g>
<!-- Node6&#45;&gt;Node9 -->
<g id="edge10" class="edge"><title>Node6&#45;&gt;Node9</title>
<path fill="none" stroke="midnightblue" d="M421.573,-230.388C538.937,-201.831 932.719,-106.016 1059.53,-75.1614"/>
<polygon fill="midnightblue" stroke="midnightblue" points="1060.69,-78.4812 1069.58,-72.7161 1059.03,-71.6796 1060.69,-78.4812"/>
</g>
<!-- Node10 -->
<g id="node11" class="node"><title>Node10</title>
<g id="a_node11"><a xlink:href="fmt_8h.html" target="_top" xlink:title="Utilities for formatting strings. ">
<polygon fill="none" stroke="black" points="327.431,-170.5 327.431,-188.5 449.037,-188.5 449.037,-170.5 327.431,-170.5"/>
<text text-anchor="middle" x="388.234" y="-176.5" font-family="Helvetica,sans-Serif" font-size="10.00">tomographer/tools/fmt.h</text>
</a>
</g>
</g>
<!-- Node6&#45;&gt;Node10 -->
<g id="edge11" class="edge"><title>Node6&#45;&gt;Node10</title>
<path fill="none" stroke="midnightblue" d="M388.234,-230.435C388.234,-222.389 388.234,-209.739 388.234,-199.185"/>
<polygon fill="midnightblue" stroke="midnightblue" points="391.734,-198.872 388.234,-188.872 384.734,-198.872 391.734,-198.872"/>
</g>
<!-- Node25 -->
<g id="node26" class="node"><title>Node25</title>
<g id="a_node26"><a xlink:href="needownoperatornew_8h.html" target="_top" xlink:title="Managing the need for specific overrides to operator new() for some types (especially Eigen types) ...">
<polygon fill="none" stroke="black" points="846.557,-170.5 846.557,-188.5 1049.91,-188.5 1049.91,-170.5 846.557,-170.5"/>
<text text-anchor="middle" x="948.234" y="-176.5" font-family="Helvetica,sans-Serif" font-size="10.00">tomographer/tools/needownoperatornew.h</text>
</a>
</g>
</g>
<!-- Node6&#45;&gt;Node25 -->
<g id="edge35" class="edge"><title>Node6&#45;&gt;Node25</title>
<path fill="none" stroke="midnightblue" d="M450.767,-232.55C536.75,-224.296 696.295,-208.722 832.234,-194 844.64,-192.656 857.785,-191.179 870.598,-189.709"/>
<polygon fill="midnightblue" stroke="midnightblue" points="871.248,-193.157 880.782,-188.534 870.446,-186.203 871.248,-193.157"/>
</g>
<!-- Node10&#45;&gt;Node3 -->
<g id="edge12" class="edge"><title>Node10&#45;&gt;Node3</title>
<path fill="none" stroke="midnightblue" d="M370.019,-170.435C347.951,-160.665 310.549,-144.105 284.91,-132.754"/>
<polygon fill="midnightblue" stroke="midnightblue" points="286.277,-129.531 275.716,-128.683 283.443,-135.932 286.277,-129.531"/>
</g>
<!-- Node10&#45;&gt;Node5 -->
<g id="edge14" class="edge"><title>Node10&#45;&gt;Node5</title>
<path fill="none" stroke="midnightblue" d="M356.114,-170.435C312.502,-159.485 234.929,-140.008 190.653,-128.891"/>
<polygon fill="midnightblue" stroke="midnightblue" points="191.233,-125.428 180.681,-126.387 189.528,-132.217 191.233,-125.428"/>
</g>
<!-- Node10&#45;&gt;Node8 -->
<g id="edge15" class="edge"><title>Node10&#45;&gt;Node8</title>
<path fill="none" stroke="midnightblue" d="M382.799,-170.394C368.856,-149.503 332.279,-94.0616 323.234,-74 316.576,-59.2334 311.495,-41.5067 308.27,-28.54"/>
<polygon fill="midnightblue" stroke="midnightblue" points="311.62,-27.4957 305.921,-18.5643 304.807,-29.1004 311.62,-27.4957"/>
</g>
<!-- Node11 -->
<g id="node12" class="node"><title>Node11</title>
<polygon fill="none" stroke="#bfbfbf" points="389.837,-110.5 389.837,-128.5 438.63,-128.5 438.63,-110.5 389.837,-110.5"/>
<text text-anchor="middle" x="414.234" y="-116.5" font-family="Helvetica,sans-Serif" font-size="10.00">cstdarg</text>
</g>
<!-- Node10&#45;&gt;Node11 -->
<g id="edge13" class="edge"><title>Node10&#45;&gt;Node11</title>
<path fill="none" stroke="midnightblue" d="M391.849,-170.435C395.571,-162.132 401.491,-148.927 406.308,-138.181"/>
<polygon fill="midnightblue" stroke="midnightblue" points="409.584,-139.429 410.481,-128.872 403.197,-136.565 409.584,-139.429"/>
</g>
<!-- Node12 -->
<g id="node13" class="node"><title>Node12</title>
<polygon fill="none" stroke="#bfbfbf" points="456.453,-110.5 456.453,-128.5 508.015,-128.5 508.015,-110.5 456.453,-110.5"/>
<text text-anchor="middle" x="482.234" y="-116.5" font-family="Helvetica,sans-Serif" font-size="10.00">sstream</text>
</g>
<!-- Node10&#45;&gt;Node12 -->
<g id="edge16" class="edge"><title>Node10&#45;&gt;Node12</title>
<path fill="none" stroke="midnightblue" d="M401.304,-170.435C416.581,-161.009 442.099,-145.264 460.399,-133.973"/>
<polygon fill="midnightblue" stroke="midnightblue" points="462.299,-136.913 468.972,-128.683 458.623,-130.956 462.299,-136.913"/>
</g>
<!-- Node13 -->
<g id="node14" class="node"><title>Node13</title>
<polygon fill="none" stroke="#bfbfbf" points="332.062,-55.5 332.062,-73.5 386.406,-73.5 386.406,-55.5 332.062,-55.5"/>
<text text-anchor="middle" x="359.234" y="-61.5" font-family="Helvetica,sans-Serif" font-size="10.00">iostream</text>
</g>
<!-- Node10&#45;&gt;Node13 -->
<g id="edge17" class="edge"><title>Node10&#45;&gt;Node13</title>
<path fill="none" stroke="midnightblue" d="M439.383,-170.472C485.213,-161.016 541.727,-142.345 517.234,-110 513.495,-105.063 441.967,-86.3086 396.446,-74.7808"/>
<polygon fill="midnightblue" stroke="midnightblue" points="397.157,-71.3505 386.605,-72.2983 395.445,-78.1379 397.157,-71.3505"/>
</g>
<!-- Node14 -->
<g id="node15" class="node"><title>Node14</title>
<polygon fill="none" stroke="#bfbfbf" points="295.842,-110.5 295.842,-128.5 334.625,-128.5 334.625,-110.5 295.842,-110.5"/>
<text text-anchor="middle" x="315.234" y="-116.5" font-family="Helvetica,sans-Serif" font-size="10.00">utility</text>
</g>
<!-- Node10&#45;&gt;Node14 -->
<g id="edge18" class="edge"><title>Node10&#45;&gt;Node14</title>
<path fill="none" stroke="midnightblue" d="M378.084,-170.435C366.664,-161.362 347.875,-146.434 333.81,-135.259"/>
<polygon fill="midnightblue" stroke="midnightblue" points="335.778,-132.352 325.771,-128.872 331.423,-137.833 335.778,-132.352"/>
</g>
<!-- Node15 -->
<g id="node16" class="node"><title>Node15</title>
<g id="a_node16"><a xlink:href="cxxutil_8h.html" target="_top" xlink:title="Some C++ utilities, with a tad of C++11 tricks. ">
<polygon fill="none" stroke="black" points="654.483,-110.5 654.483,-128.5 789.985,-128.5 789.985,-110.5 654.483,-110.5"/>
<text text-anchor="middle" x="722.234" y="-116.5" font-family="Helvetica,sans-Serif" font-size="10.00">tomographer/tools/cxxutil.h</text>
</a>
</g>
</g>
<!-- Node10&#45;&gt;Node15 -->
<g id="edge19" class="edge"><title>Node10&#45;&gt;Node15</title>
<path fill="none" stroke="midnightblue" d="M434.324,-170.496C494.797,-159.995 600.86,-141.577 665.992,-130.267"/>
<polygon fill="midnightblue" stroke="midnightblue" points="666.827,-133.674 676.08,-128.515 665.629,-126.777 666.827,-133.674"/>
</g>
<!-- Node15&#45;&gt;Node9 -->
<g id="edge26" class="edge"><title>Node15&#45;&gt;Node9</title>
<path fill="none" stroke="midnightblue" d="M790.227,-110.708C857.848,-102.661 964.466,-89.168 1056.23,-74 1057.32,-73.8201 1058.43,-73.6332 1059.54,-73.4409"/>
<polygon fill="midnightblue" stroke="midnightblue" points="1060.46,-76.8311 1069.67,-71.5971 1059.21,-69.9442 1060.46,-76.8311"/>
</g>
<!-- Node15&#45;&gt;Node13 -->
<g id="edge23" class="edge"><title>Node15&#45;&gt;Node13</title>
<path fill="none" stroke="midnightblue" d="M654.291,-111.193C590.206,-103.861 491.283,-91.4111 396.715,-74.1253"/>
<polygon fill="midnightblue" stroke="midnightblue" points="397.163,-70.6488 386.693,-72.2719 395.89,-77.5321 397.163,-70.6488"/>
</g>
<!-- Node16 -->
<g id="node17" class="node"><title>Node16</title>
<polygon fill="none" stroke="#bfbfbf" points="999.118,-0.5 999.118,-18.5 1047.35,-18.5 1047.35,-0.5 999.118,-0.5"/>
<text text-anchor="middle" x="1023.23" y="-6.5" font-family="Helvetica,sans-Serif" font-size="10.00">cassert</text>
</g>
<!-- Node15&#45;&gt;Node16 -->
<g id="edge20" class="edge"><title>Node15&#45;&gt;Node16</title>
<path fill="none" stroke="midnightblue" d="M790.129,-111.343C867.468,-102.622 985.259,-87.3931 1001.23,-74 1014.5,-62.8803 1019.78,-43.3254 1021.87,-28.845"/>
<polygon fill="midnightblue" stroke="midnightblue" points="1025.39,-28.8913 1022.96,-18.5779 1018.42,-28.153 1025.39,-28.8913"/>
</g>
<!-- Node17 -->
<g id="node18" class="node"><title>Node17</title>
<polygon fill="none" stroke="#bfbfbf" points="766.113,-0.5 766.113,-18.5 814.354,-18.5 814.354,-0.5 766.113,-0.5"/>
<text text-anchor="middle" x="790.234" y="-6.5" font-family="Helvetica,sans-Serif" font-size="10.00">cstddef</text>
</g>
<!-- Node15&#45;&gt;Node17 -->
<g id="edge21" class="edge"><title>Node15&#45;&gt;Node17</title>
<path fill="none" stroke="midnightblue" d="M723.281,-110.092C725.178,-97.3397 730.072,-72.7207 741.234,-55 748.624,-43.2682 759.932,-32.7101 769.824,-24.8253"/>
<polygon fill="midnightblue" stroke="midnightblue" points="772.158,-27.4485 778.018,-18.6221 767.933,-21.8674 772.158,-27.4485"/>
</g>
<!-- Node18 -->
<g id="node19" class="node"><title>Node18</title>
<polygon fill="none" stroke="#bfbfbf" points="901.062,-0.5 901.062,-18.5 945.406,-18.5 945.406,-0.5 901.062,-0.5"/>
<text text-anchor="middle" x="923.234" y="-6.5" font-family="Helvetica,sans-Serif" font-size="10.00">cstdlib</text>
</g>
<!-- Node15&#45;&gt;Node18 -->
<g id="edge22" class="edge"><title>Node15&#45;&gt;Node18</title>
<path fill="none" stroke="midnightblue" d="M790.309,-111.533C863.989,-103.292 972.718,-88.8117 985.234,-74 1000.95,-55.4028 973.639,-35.5693 950.432,-23.1119"/>
<polygon fill="midnightblue" stroke="midnightblue" points="952.016,-19.9908 941.518,-18.5611 948.833,-26.2253 952.016,-19.9908"/>
</g>
<!-- Node19 -->
<g id="node20" class="node"><title>Node19</title>
<polygon fill="none" stroke="#bfbfbf" points="564.616,-55.5 564.616,-73.5 617.852,-73.5 617.852,-55.5 564.616,-55.5"/>
<text text-anchor="middle" x="591.234" y="-61.5" font-family="Helvetica,sans-Serif" font-size="10.00">complex</text>
</g>
<!-- Node15&#45;&gt;Node19 -->
<g id="edge24" class="edge"><title>Node15&#45;&gt;Node19</title>
<path fill="none" stroke="midnightblue" d="M702.338,-110.45C680.601,-101.656 645.562,-87.4802 620.649,-77.4006"/>
<polygon fill="midnightblue" stroke="midnightblue" points="621.9,-74.1313 611.317,-73.6253 619.275,-80.6204 621.9,-74.1313"/>
</g>
<!-- Node20 -->
<g id="node21" class="node"><title>Node20</title>
<polygon fill="none" stroke="#bfbfbf" points="1146.17,-55.5 1146.17,-73.5 1208.3,-73.5 1208.3,-55.5 1146.17,-55.5"/>
<text text-anchor="middle" x="1177.23" y="-61.5" font-family="Helvetica,sans-Serif" font-size="10.00">type_traits</text>
</g>
<!-- Node15&#45;&gt;Node20 -->
<g id="edge25" class="edge"><title>Node15&#45;&gt;Node20</title>
<path fill="none" stroke="midnightblue" d="M790.085,-113.375C870.403,-106.825 1008.36,-94.064 1135.9,-74.0652"/>
<polygon fill="midnightblue" stroke="midnightblue" points="1136.52,-77.511 1145.85,-72.4874 1135.42,-70.5975 1136.52,-77.511"/>
</g>
<!-- Node21 -->
<g id="node22" class="node"><title>Node21</title>
<polygon fill="none" stroke="#bfbfbf" points="635.833,-55.5 635.833,-73.5 694.635,-73.5 694.635,-55.5 635.833,-55.5"/>
<text text-anchor="middle" x="665.234" y="-61.5" font-family="Helvetica,sans-Serif" font-size="10.00">stdexcept</text>
</g>
<!-- Node15&#45;&gt;Node21 -->
<g id="edge27" class="edge"><title>Node15&#45;&gt;Node21</title>
<path fill="none" stroke="midnightblue" d="M713.328,-110.219C704.829,-102.316 691.824,-90.2241 681.48,-80.6057"/>
<polygon fill="midnightblue" stroke="midnightblue" points="683.598,-77.7958 673.891,-73.5496 678.831,-82.9222 683.598,-77.7958"/>
</g>
<!-- Node22 -->
<g id="node23" class="node"><title>Node22</title>
<g id="a_node23"><a xlink:href="cxxdefs_8h.html" target="_top" xlink:title="Basic definitions, which may have to be defined before any Eigen headers or further utilities are inc...">
<polygon fill="none" stroke="black" points="834.424,-55.5 834.424,-73.5 976.044,-73.5 976.044,-55.5 834.424,-55.5"/>
<text text-anchor="middle" x="905.234" y="-61.5" font-family="Helvetica,sans-Serif" font-size="10.00">tomographer/tools/cxxdefs.h</text>
</a>
</g>
</g>
<!-- Node15&#45;&gt;Node22 -->
<g id="edge28" class="edge"><title>Node15&#45;&gt;Node22</title>
<path fill="none" stroke="midnightblue" d="M750.028,-110.45C781.424,-101.357 832.687,-86.5108 867.64,-76.3879"/>
<polygon fill="midnightblue" stroke="midnightblue" points="868.847,-79.6821 877.479,-73.5383 866.9,-72.9584 868.847,-79.6821"/>
</g>
<!-- Node23 -->
<g id="node24" class="node"><title>Node23</title>
<g id="a_node24"><a xlink:href="conststr_8h.html" target="_top" xlink:title="A constexpr string type, suitable for basic compile&#45;time string processing. ">
<polygon fill="none" stroke="black" points="404.143,-55.5 404.143,-73.5 546.325,-73.5 546.325,-55.5 404.143,-55.5"/>
<text text-anchor="middle" x="475.234" y="-61.5" font-family="Helvetica,sans-Serif" font-size="10.00">tomographer/tools/conststr.h</text>
</a>
</g>
</g>
<!-- Node15&#45;&gt;Node23 -->
<g id="edge32" class="edge"><title>Node15&#45;&gt;Node23</title>
<path fill="none" stroke="midnightblue" d="M684.72,-110.45C641.343,-101.143 569.871,-85.8067 522.672,-75.6791"/>
<polygon fill="midnightblue" stroke="midnightblue" points="523.207,-72.2143 512.695,-73.5383 521.739,-79.0585 523.207,-72.2143"/>
</g>
<!-- Node24 -->
<g id="node25" class="node"><title>Node24</title>
<polygon fill="none" stroke="#bfbfbf" points="750.219,-55.5 750.219,-73.5 816.249,-73.5 816.249,-55.5 750.219,-55.5"/>
<text text-anchor="middle" x="783.234" y="-61.5" font-family="Helvetica,sans-Serif" font-size="10.00">Eigen/Core</text>
</g>
<!-- Node15&#45;&gt;Node24 -->
<g id="edge34" class="edge"><title>Node15&#45;&gt;Node24</title>
<path fill="none" stroke="midnightblue" d="M731.498,-110.45C740.635,-102.512 754.818,-90.1891 766.025,-80.4519"/>
<polygon fill="midnightblue" stroke="midnightblue" points="768.629,-82.8261 773.882,-73.6253 764.038,-77.542 768.629,-82.8261"/>
</g>
<!-- Node22&#45;&gt;Node16 -->
<g id="edge29" class="edge"><title>Node22&#45;&gt;Node16</title>
<path fill="none" stroke="midnightblue" d="M923.156,-55.4504C942.475,-46.7729 973.461,-32.8556 995.84,-22.8041"/>
<polygon fill="midnightblue" stroke="midnightblue" points="997.455,-25.9153 1005.14,-18.6253 994.587,-19.5298 997.455,-25.9153"/>
</g>
<!-- Node22&#45;&gt;Node17 -->
<g id="edge30" class="edge"><title>Node22&#45;&gt;Node17</title>
<path fill="none" stroke="midnightblue" d="M887.768,-55.4504C869.024,-46.8119 839.012,-32.9803 817.225,-22.9396"/>
<polygon fill="midnightblue" stroke="midnightblue" points="818.411,-19.6323 807.864,-18.6253 815.481,-25.9896 818.411,-19.6323"/>
</g>
<!-- Node22&#45;&gt;Node18 -->
<g id="edge31" class="edge"><title>Node22&#45;&gt;Node18</title>
<path fill="none" stroke="midnightblue" d="M908.046,-55.2188C910.491,-48.0204 914.116,-37.3458 917.212,-28.2311"/>
<polygon fill="midnightblue" stroke="midnightblue" points="920.598,-29.1439 920.5,-18.5496 913.97,-26.8928 920.598,-29.1439"/>
</g>
<!-- Node23&#45;&gt;Node8 -->
<g id="edge33" class="edge"><title>Node23&#45;&gt;Node8</title>
<path fill="none" stroke="midnightblue" d="M449.263,-55.4504C418.406,-45.8868 367.015,-29.9584 334.418,-19.8554"/>
<polygon fill="midnightblue" stroke="midnightblue" points="335.133,-16.4127 324.545,-16.7953 333.061,-23.0989 335.133,-16.4127"/>
</g>
<!-- Node25&#45;&gt;Node15 -->
<g id="edge38" class="edge"><title>Node25&#45;&gt;Node15</title>
<path fill="none" stroke="midnightblue" d="M916.81,-170.435C876.864,-160.184 807.798,-142.459 763.604,-131.117"/>
<polygon fill="midnightblue" stroke="midnightblue" points="764.311,-127.685 753.755,-128.589 762.571,-134.465 764.311,-127.685"/>
</g>
<!-- Node25&#45;&gt;Node20 -->
<g id="edge36" class="edge"><title>Node25&#45;&gt;Node20</title>
<path fill="none" stroke="midnightblue" d="M947.964,-170.391C947.958,-156.013 950.148,-126.06 967.234,-110 1021.2,-59.2746 1058.52,-87.4704 1135.67,-74.1324"/>
<polygon fill="midnightblue" stroke="midnightblue" points="1136.63,-77.5112 1145.79,-72.1837 1135.31,-70.6375 1136.63,-77.5112"/>
</g>
<!-- Node26 -->
<g id="node27" class="node"><title>Node26</title>
<polygon fill="none" stroke="#bfbfbf" points="976.269,-110.5 976.269,-128.5 1046.2,-128.5 1046.2,-110.5 976.269,-110.5"/>
<text text-anchor="middle" x="1011.23" y="-116.5" font-family="Helvetica,sans-Serif" font-size="10.00">Eigen/Eigen</text>
</g>
<!-- Node25&#45;&gt;Node26 -->
<g id="edge37" class="edge"><title>Node25&#45;&gt;Node26</title>
<path fill="none" stroke="midnightblue" d="M956.994,-170.435C966.663,-161.533 982.455,-146.995 994.511,-135.895"/>
<polygon fill="midnightblue" stroke="midnightblue" points="997.154,-138.22 1002.14,-128.872 992.413,-133.07 997.154,-138.22"/>
</g>
</g>
</svg>
        <g id="navigator" transform="translate(0 0)" fill="#404254">
                <rect fill="#f2f5e9" fill-opacity="0.5" stroke="#606060" stroke-width=".5" x="0" y="0" width="60" height="60"/>
                <use id="zoomplus" xlink:href="#zoomPlus" x="17" y="9" onmousedown="handleZoom(evt,'in')"/>
                <use id="zoomminus" xlink:href="#zoomMin" x="42" y="9" onmousedown="handleZoom(evt,'out')"/>
                <use id="reset" xlink:href="#resetDef" x="30" y="36" onmousedown="handleReset()"/>
                <g id="arrowUp" xlink:href="#dirArrow" transform="translate(30 24)" onmousedown="handlePan(0,-1)">
                  <use xlink:href="#rim" fill="#404040">
                        <set attributeName="fill" to="#808080" begin="arrowUp.mouseover" end="arrowUp.mouseout"/>
                  </use>
                  <path fill="none" stroke="white" stroke-width="1.5" d="M0,-3.0v7 M-2.5,-0.5L0,-3.0L2.5,-0.5"/>
                </g>
                <g id="arrowRight" xlink:href="#dirArrow" transform="rotate(90) translate(36 -43)" onmousedown="handlePan(1,0)">
                  <use xlink:href="#rim" fill="#404040">
                        <set attributeName="fill" to="#808080" begin="arrowRight.mouseover" end="arrowRight.mouseout"/>
                  </use>
                  <path fill="none" stroke="white" stroke-width="1.5" d="M0,-3.0v7 M-2.5,-0.5L0,-3.0L2.5,-0.5"/>
                </g>
                <g id="arrowDown" xlink:href="#dirArrow" transform="rotate(180) translate(-30 -48)" onmousedown="handlePan(0,1)">
                  <use xlink:href="#rim" fill="#404040">
                        <set attributeName="fill" to="#808080" begin="arrowDown.mouseover" end="arrowDown.mouseout"/>
                  </use>
                  <path fill="none" stroke="white" stroke-width="1.5" d="M0,-3.0v7 M-2.5,-0.5L0,-3.0L2.5,-0.5"/>
                </g>
                <g id="arrowLeft" xlink:href="#dirArrow" transform="rotate(270) translate(-36 17)" onmousedown="handlePan(-1,0)">
                  <use xlink:href="#rim" fill="#404040">
                        <set attributeName="fill" to="#808080" begin="arrowLeft.mouseover" end="arrowLeft.mouseout"/>
                  </use>
                  <path fill="none" stroke="white" stroke-width="1.5" d="M0,-3.0v7 M-2.5,-0.5L0,-3.0L2.5,-0.5"/>
                </g>
        </g>
        <svg viewBox="0 0 15 15" width="100%" height="30px" preserveAspectRatio="xMaxYMin meet">
         <g id="arrow_out" transform="scale(0.3 0.3)">
          <a xlink:href="signal__status__report_8h__incl_org.svg" target="_base">
           <rect id="button" ry="5" rx="5" y="6" x="6" height="38" width="38"
                fill="#f2f5e9" fill-opacity="0.5" stroke="#606060" stroke-width="1.0"/>
           <path id="arrow"
             d="M 11.500037,31.436501 C 11.940474,20.09759 22.043105,11.32322 32.158766,21.979434 L 37.068811,17.246167 C 37.068811,17.246167 37.088388,32 37.088388,32 L 22.160133,31.978069 C 22.160133,31.978069 26.997745,27.140456 26.997745,27.140456 C 18.528582,18.264221 13.291696,25.230495 11.500037,31.436501 z"
             style="fill:#404040;"/>
          </a>
         </g>
        </svg>
</svg>
