<?xml version="1.0" encoding="UTF-8" standalone="no"?>
<!DOCTYPE svg PUBLIC "-//W3C//DTD SVG 1.1//EN"
 "http://www.w3.org/Graphics/SVG/1.1/DTD/svg11.dtd">
<!-- Generated by graphviz version 2.38.0 (20140413.2041)
 -->
<!-- Title: tomographer/mathtools/solveclyap.h Pages: 1 -->
<!--zoomable 202 -->
<svg id="main" version="1.1" xmlns="http://www.w3.org/2000/svg" xmlns:xlink="http://www.w3.org/1999/xlink" xml:space="preserve" onload="init(evt)">
<style type="text/css"><![CDATA[
.edge:hover path { stroke: red; }
.edge:hover polygon { stroke: red; fill: red; }
]]></style>
<script type="text/javascript"><![CDATA[
var edges = document.getElementsByTagName('g');
if (edges && edges.length) {
  for (var i=0;i<edges.length;i++) {
    if (edges[i].id.substr(0,4)=='edge') {
      edges[i].setAttribute('class','edge');
    }
  }
}
]]></script>
        <defs>
                <circle id="rim" cx="0" cy="0" r="7"/>
                <circle id="rim2" cx="0" cy="0" r="3.5"/>
                <g id="zoomPlus">
                        <use xlink:href="#rim" fill="#404040">
                                <set attributeName="fill" to="#808080" begin="zoomplus.mouseover" end="zoomplus.mouseout"/>
                        </use>
                        <path d="M-4,0h8M0,-4v8" fill="none" stroke="white" stroke-width="1.5" pointer-events="none"/>
                </g>
                <g id="zoomMin">
                        <use xlink:href="#rim" fill="#404040">
                                <set attributeName="fill" to="#808080" begin="zoomminus.mouseover" end="zoomminus.mouseout"/>
                        </use>
                        <path d="M-4,0h8" fill="none" stroke="white" stroke-width="1.5" pointer-events="none"/>
                </g>
                <g id="dirArrow">
                        <path fill="none" stroke="white" stroke-width="1.5" d="M0,-3.0v7 M-2.5,-0.5L0,-3.0L2.5,-0.5"/>
                </g>
               <g id="resetDef">
                       <use xlink:href="#rim2" fill="#404040">
                               <set attributeName="fill" to="#808080" begin="reset.mouseover" end="reset.mouseout"/>
                       </use>
               </g>
        </defs>

<script type="text/javascript">
var viewWidth = 1039;
var viewHeight = 202;
var sectionId = 'dynsection-0';
</script>
<script xlink:href="svgpan.js"/>
<svg id="graph" class="graph">
<g id="viewport">
<title>tomographer/mathtools/solveclyap.h</title>
<!-- Node0 -->
<g id="node1" class="node"><title>Node0</title>
<polygon fill="#bfbfbf" stroke="black" points="613.599,-165.5 613.599,-193.5 732.431,-193.5 732.431,-165.5 613.599,-165.5"/>
<text text-anchor="start" x="621.599" y="-181.5" font-family="Helvetica,sans-Serif" font-size="10.00">tomographer/mathtools</text>
<text text-anchor="middle" x="673.015" y="-171.5" font-family="Helvetica,sans-Serif" font-size="10.00">/solveclyap.h</text>
</g>
<!-- Node1 -->
<g id="node2" class="node"><title>Node1</title>
<polygon fill="none" stroke="#bfbfbf" points="834.788,-0.5 834.788,-18.5 875.241,-18.5 875.241,-0.5 834.788,-0.5"/>
<text text-anchor="middle" x="855.015" y="-6.5" font-family="Helvetica,sans-Serif" font-size="10.00">string</text>
</g>
<!-- Node0&#45;&gt;Node1 -->
<g id="edge1" class="edge"><title>Node0&#45;&gt;Node1</title>
<path fill="none" stroke="midnightblue" d="M732.522,-167.337C783.109,-154.364 852.681,-127.483 886.015,-74 895.795,-58.3082 883.314,-39.083 871.394,-25.9239"/>
<polygon fill="midnightblue" stroke="midnightblue" points="873.737,-23.3138 864.248,-18.6003 868.727,-28.2022 873.737,-23.3138"/>
</g>
<!-- Node2 -->
<g id="node3" class="node"><title>Node2</title>
<polygon fill="none" stroke="#bfbfbf" points="0,-55.5 0,-73.5 66.0293,-73.5 66.0293,-55.5 0,-55.5"/>
<text text-anchor="middle" x="33.0146" y="-61.5" font-family="Helvetica,sans-Serif" font-size="10.00">Eigen/Core</text>
</g>
<!-- Node0&#45;&gt;Node2 -->
<g id="edge2" class="edge"><title>Node0&#45;&gt;Node2</title>
<path fill="none" stroke="midnightblue" d="M613.311,-169.413C551.2,-159.841 451.169,-144.09 365.015,-129 238.95,-106.92 205.374,-99.5913 76.3469,-74.2478"/>
<polygon fill="midnightblue" stroke="midnightblue" points="76.9648,-70.8024 66.4779,-72.3108 75.6165,-77.6713 76.9648,-70.8024"/>
</g>
<!-- Node3 -->
<g id="node4" class="node"><title>Node3</title>
<polygon fill="none" stroke="#bfbfbf" points="932.596,-110.5 932.596,-128.5 1031.43,-128.5 1031.43,-110.5 932.596,-110.5"/>
<text text-anchor="middle" x="982.015" y="-116.5" font-family="Helvetica,sans-Serif" font-size="10.00">Eigen/Eigenvalues</text>
</g>
<!-- Node0&#45;&gt;Node3 -->
<g id="edge3" class="edge"><title>Node0&#45;&gt;Node3</title>
<path fill="none" stroke="midnightblue" d="M732.593,-167.317C789.434,-156.648 874.261,-140.726 928.864,-130.476"/>
<polygon fill="midnightblue" stroke="midnightblue" points="929.847,-133.853 939.029,-128.568 928.555,-126.973 929.847,-133.853"/>
</g>
<!-- Node4 -->
<g id="node5" class="node"><title>Node4</title>
<g id="a_node5"><a xlink:href="cxxutil_8h.html" target="_top" xlink:title="Some C++ utilities, with a tad of C++11 tricks. ">
<polygon fill="none" stroke="black" points="374.264,-110.5 374.264,-128.5 509.766,-128.5 509.766,-110.5 374.264,-110.5"/>
<text text-anchor="middle" x="442.015" y="-116.5" font-family="Helvetica,sans-Serif" font-size="10.00">tomographer/tools/cxxutil.h</text>
</a>
</g>
</g>
<!-- Node0&#45;&gt;Node4 -->
<g id="edge4" class="edge"><title>Node0&#45;&gt;Node4</title>
<path fill="none" stroke="midnightblue" d="M621.174,-165.484C579.779,-155.09 522.519,-140.713 483.972,-131.035"/>
<polygon fill="midnightblue" stroke="midnightblue" points="484.662,-127.599 474.11,-128.559 482.957,-134.389 484.662,-127.599"/>
</g>
<!-- Node4&#45;&gt;Node2 -->
<g id="edge19" class="edge"><title>Node4&#45;&gt;Node2</title>
<path fill="none" stroke="midnightblue" d="M374.148,-111.894C302.481,-104.551 185.998,-91.576 76.3496,-74.1068"/>
<polygon fill="midnightblue" stroke="midnightblue" points="76.8708,-70.6458 66.4418,-72.5129 75.7589,-77.5569 76.8708,-70.6458"/>
</g>
<!-- Node5 -->
<g id="node6" class="node"><title>Node5</title>
<polygon fill="none" stroke="#bfbfbf" points="646.899,-0.5 646.899,-18.5 695.13,-18.5 695.13,-0.5 646.899,-0.5"/>
<text text-anchor="middle" x="671.015" y="-6.5" font-family="Helvetica,sans-Serif" font-size="10.00">cassert</text>
</g>
<!-- Node4&#45;&gt;Node5 -->
<g id="edge5" class="edge"><title>Node4&#45;&gt;Node5</title>
<path fill="none" stroke="midnightblue" d="M509.852,-113.884C568.041,-108.398 645.633,-96.9294 666.015,-74 676.797,-61.8695 676.86,-42.7769 674.95,-28.6921"/>
<polygon fill="midnightblue" stroke="midnightblue" points="678.369,-27.9262 673.163,-18.6986 671.478,-29.1586 678.369,-27.9262"/>
</g>
<!-- Node6 -->
<g id="node7" class="node"><title>Node6</title>
<polygon fill="none" stroke="#bfbfbf" points="463.894,-0.5 463.894,-18.5 512.135,-18.5 512.135,-0.5 463.894,-0.5"/>
<text text-anchor="middle" x="488.015" y="-6.5" font-family="Helvetica,sans-Serif" font-size="10.00">cstddef</text>
</g>
<!-- Node4&#45;&gt;Node6 -->
<g id="edge6" class="edge"><title>Node4&#45;&gt;Node6</title>
<path fill="none" stroke="midnightblue" d="M445.472,-110.382C452.898,-92.9477 470.514,-51.5895 480.594,-27.9219"/>
<polygon fill="midnightblue" stroke="midnightblue" points="483.818,-29.2835 484.517,-18.7118 477.378,-26.5405 483.818,-29.2835"/>
</g>
<!-- Node7 -->
<g id="node8" class="node"><title>Node7</title>
<polygon fill="none" stroke="#bfbfbf" points="565.842,-0.5 565.842,-18.5 610.187,-18.5 610.187,-0.5 565.842,-0.5"/>
<text text-anchor="middle" x="588.015" y="-6.5" font-family="Helvetica,sans-Serif" font-size="10.00">cstdlib</text>
</g>
<!-- Node4&#45;&gt;Node7 -->
<g id="edge7" class="edge"><title>Node4&#45;&gt;Node7</title>
<path fill="none" stroke="midnightblue" d="M509.972,-113.065C563.725,-107.189 632.541,-95.6073 650.015,-74 665.172,-55.2572 638.649,-35.7076 615.728,-23.337"/>
<polygon fill="midnightblue" stroke="midnightblue" points="617.074,-20.0942 606.577,-18.6536 613.884,-26.3254 617.074,-20.0942"/>
</g>
<!-- Node8 -->
<g id="node9" class="node"><title>Node8</title>
<polygon fill="none" stroke="#bfbfbf" points="83.8423,-55.5 83.8423,-73.5 138.187,-73.5 138.187,-55.5 83.8423,-55.5"/>
<text text-anchor="middle" x="111.015" y="-61.5" font-family="Helvetica,sans-Serif" font-size="10.00">iostream</text>
</g>
<!-- Node4&#45;&gt;Node8 -->
<g id="edge8" class="edge"><title>Node4&#45;&gt;Node8</title>
<path fill="none" stroke="midnightblue" d="M378.745,-110.487C321.116,-102.84 233.463,-90.3442 148.553,-74.1691"/>
<polygon fill="midnightblue" stroke="midnightblue" points="148.963,-70.684 138.482,-72.2306 147.64,-77.5578 148.963,-70.684"/>
</g>
<!-- Node9 -->
<g id="node10" class="node"><title>Node9</title>
<polygon fill="none" stroke="#bfbfbf" points="156.396,-55.5 156.396,-73.5 209.633,-73.5 209.633,-55.5 156.396,-55.5"/>
<text text-anchor="middle" x="183.015" y="-61.5" font-family="Helvetica,sans-Serif" font-size="10.00">complex</text>
</g>
<!-- Node4&#45;&gt;Node9 -->
<g id="edge9" class="edge"><title>Node4&#45;&gt;Node9</title>
<path fill="none" stroke="midnightblue" d="M399.587,-110.49C356.762,-102.304 288.477,-88.9737 219.852,-74.119"/>
<polygon fill="midnightblue" stroke="midnightblue" points="220.243,-70.6222 209.727,-71.9166 218.755,-77.4623 220.243,-70.6222"/>
</g>
<!-- Node10 -->
<g id="node11" class="node"><title>Node10</title>
<polygon fill="none" stroke="#bfbfbf" points="227.948,-55.5 227.948,-73.5 290.081,-73.5 290.081,-55.5 227.948,-55.5"/>
<text text-anchor="middle" x="259.015" y="-61.5" font-family="Helvetica,sans-Serif" font-size="10.00">type_traits</text>
</g>
<!-- Node4&#45;&gt;Node10 -->
<g id="edge10" class="edge"><title>Node4&#45;&gt;Node10</title>
<path fill="none" stroke="midnightblue" d="M414.221,-110.45C382.824,-101.357 331.561,-86.5108 296.609,-76.3879"/>
<polygon fill="midnightblue" stroke="midnightblue" points="297.349,-72.9584 286.77,-73.5383 295.401,-79.6821 297.349,-72.9584"/>
</g>
<!-- Node11 -->
<g id="node12" class="node"><title>Node11</title>
<polygon fill="none" stroke="#bfbfbf" points="307.611,-55.5 307.611,-73.5 366.418,-73.5 366.418,-55.5 307.611,-55.5"/>
<text text-anchor="middle" x="337.015" y="-61.5" font-family="Helvetica,sans-Serif" font-size="10.00">exception</text>
</g>
<!-- Node4&#45;&gt;Node11 -->
<g id="edge11" class="edge"><title>Node4&#45;&gt;Node11</title>
<path fill="none" stroke="midnightblue" d="M426.067,-110.45C409.107,-101.89 382.044,-88.2291 362.199,-78.2119"/>
<polygon fill="midnightblue" stroke="midnightblue" points="363.616,-75.007 353.112,-73.6253 360.462,-81.256 363.616,-75.007"/>
</g>
<!-- Node12 -->
<g id="node13" class="node"><title>Node12</title>
<polygon fill="none" stroke="#bfbfbf" points="384.613,-55.5 384.613,-73.5 443.416,-73.5 443.416,-55.5 384.613,-55.5"/>
<text text-anchor="middle" x="414.015" y="-61.5" font-family="Helvetica,sans-Serif" font-size="10.00">stdexcept</text>
</g>
<!-- Node4&#45;&gt;Node12 -->
<g id="edge12" class="edge"><title>Node4&#45;&gt;Node12</title>
<path fill="none" stroke="midnightblue" d="M437.64,-110.219C433.754,-102.864 427.951,-91.8801 423.069,-82.639"/>
<polygon fill="midnightblue" stroke="midnightblue" points="426.033,-80.7566 418.267,-73.5496 419.844,-84.0264 426.033,-80.7566"/>
</g>
<!-- Node13 -->
<g id="node14" class="node"><title>Node13</title>
<g id="a_node14"><a xlink:href="cxxdefs_8h.html" target="_top" xlink:title="Basic definitions, which may have to be defined before any Eigen headers or further utilities are inc...">
<polygon fill="none" stroke="black" points="499.205,-55.5 499.205,-73.5 640.825,-73.5 640.825,-55.5 499.205,-55.5"/>
<text text-anchor="middle" x="570.015" y="-61.5" font-family="Helvetica,sans-Serif" font-size="10.00">tomographer/tools/cxxdefs.h</text>
</a>
</g>
</g>
<!-- Node4&#45;&gt;Node13 -->
<g id="edge13" class="edge"><title>Node4&#45;&gt;Node13</title>
<path fill="none" stroke="midnightblue" d="M461.455,-110.45C482.6,-101.695 516.628,-87.6055 540.95,-77.5346"/>
<polygon fill="midnightblue" stroke="midnightblue" points="542.491,-80.6848 550.391,-73.6253 539.813,-74.2173 542.491,-80.6848"/>
</g>
<!-- Node14 -->
<g id="node15" class="node"><title>Node14</title>
<g id="a_node15"><a xlink:href="conststr_8h.html" target="_top" xlink:title="A constexpr string type, suitable for basic compile&#45;time string processing. ">
<polygon fill="none" stroke="black" points="734.924,-55.5 734.924,-73.5 877.105,-73.5 877.105,-55.5 734.924,-55.5"/>
<text text-anchor="middle" x="806.015" y="-61.5" font-family="Helvetica,sans-Serif" font-size="10.00">tomographer/tools/conststr.h</text>
</a>
</g>
</g>
<!-- Node4&#45;&gt;Node14 -->
<g id="edge17" class="edge"><title>Node4&#45;&gt;Node14</title>
<path fill="none" stroke="midnightblue" d="M497.298,-110.45C562.697,-100.928 671.43,-85.0962 740.859,-74.9869"/>
<polygon fill="midnightblue" stroke="midnightblue" points="741.417,-78.4427 750.808,-73.5383 740.408,-71.5158 741.417,-78.4427"/>
</g>
<!-- Node13&#45;&gt;Node5 -->
<g id="edge14" class="edge"><title>Node13&#45;&gt;Node5</title>
<path fill="none" stroke="midnightblue" d="M585.354,-55.4504C601.594,-46.9286 627.464,-33.3532 646.529,-23.3487"/>
<polygon fill="midnightblue" stroke="midnightblue" points="648.302,-26.3712 655.531,-18.6253 645.049,-20.1728 648.302,-26.3712"/>
</g>
<!-- Node13&#45;&gt;Node6 -->
<g id="edge15" class="edge"><title>Node13&#45;&gt;Node6</title>
<path fill="none" stroke="midnightblue" d="M557.561,-55.4504C544.797,-47.201 524.707,-34.2158 509.395,-24.3187"/>
<polygon fill="midnightblue" stroke="midnightblue" points="510.884,-21.1142 500.586,-18.6253 507.084,-26.9931 510.884,-21.1142"/>
</g>
<!-- Node13&#45;&gt;Node7 -->
<g id="edge16" class="edge"><title>Node13&#45;&gt;Node7</title>
<path fill="none" stroke="midnightblue" d="M572.827,-55.2188C575.272,-48.0204 578.897,-37.3458 581.993,-28.2311"/>
<polygon fill="midnightblue" stroke="midnightblue" points="585.379,-29.1439 585.281,-18.5496 578.751,-26.8928 585.379,-29.1439"/>
</g>
<!-- Node14&#45;&gt;Node1 -->
<g id="edge18" class="edge"><title>Node14&#45;&gt;Node1</title>
<path fill="none" stroke="midnightblue" d="M813.671,-55.2188C820.832,-47.4727 831.715,-35.7013 840.518,-26.1799"/>
<polygon fill="midnightblue" stroke="midnightblue" points="843.354,-28.2683 847.573,-18.5496 838.214,-23.5163 843.354,-28.2683"/>
</g>
</g>
</svg>
        <g id="navigator" transform="translate(0 0)" fill="#404254">
                <rect fill="#f2f5e9" fill-opacity="0.5" stroke="#606060" stroke-width=".5" x="0" y="0" width="60" height="60"/>
                <use id="zoomplus" xlink:href="#zoomPlus" x="17" y="9" onmousedown="handleZoom(evt,'in')"/>
                <use id="zoomminus" xlink:href="#zoomMin" x="42" y="9" onmousedown="handleZoom(evt,'out')"/>
                <use id="reset" xlink:href="#resetDef" x="30" y="36" onmousedown="handleReset()"/>
                <g id="arrowUp" xlink:href="#dirArrow" transform="translate(30 24)" onmousedown="handlePan(0,-1)">
                  <use xlink:href="#rim" fill="#404040">
                        <set attributeName="fill" to="#808080" begin="arrowUp.mouseover" end="arrowUp.mouseout"/>
                  </use>
                  <path fill="none" stroke="white" stroke-width="1.5" d="M0,-3.0v7 M-2.5,-0.5L0,-3.0L2.5,-0.5"/>
                </g>
                <g id="arrowRight" xlink:href="#dirArrow" transform="rotate(90) translate(36 -43)" onmousedown="handlePan(1,0)">
                  <use xlink:href="#rim" fill="#404040">
                        <set attributeName="fill" to="#808080" begin="arrowRight.mouseover" end="arrowRight.mouseout"/>
                  </use>
                  <path fill="none" stroke="white" stroke-width="1.5" d="M0,-3.0v7 M-2.5,-0.5L0,-3.0L2.5,-0.5"/>
                </g>
                <g id="arrowDown" xlink:href="#dirArrow" transform="rotate(180) translate(-30 -48)" onmousedown="handlePan(0,1)">
                  <use xlink:href="#rim" fill="#404040">
                        <set attributeName="fill" to="#808080" begin="arrowDown.mouseover" end="arrowDown.mouseout"/>
                  </use>
                  <path fill="none" stroke="white" stroke-width="1.5" d="M0,-3.0v7 M-2.5,-0.5L0,-3.0L2.5,-0.5"/>
                </g>
                <g id="arrowLeft" xlink:href="#dirArrow" transform="rotate(270) translate(-36 17)" onmousedown="handlePan(-1,0)">
                  <use xlink:href="#rim" fill="#404040">
                        <set attributeName="fill" to="#808080" begin="arrowLeft.mouseover" end="arrowLeft.mouseout"/>
                  </use>
                  <path fill="none" stroke="white" stroke-width="1.5" d="M0,-3.0v7 M-2.5,-0.5L0,-3.0L2.5,-0.5"/>
                </g>
        </g>
        <svg viewBox="0 0 15 15" width="100%" height="30px" preserveAspectRatio="xMaxYMin meet">
         <g id="arrow_out" transform="scale(0.3 0.3)">
          <a xlink:href="solveclyap_8h__incl_org.svg" target="_base">
           <rect id="button" ry="5" rx="5" y="6" x="6" height="38" width="38"
                fill="#f2f5e9" fill-opacity="0.5" stroke="#606060" stroke-width="1.0"/>
           <path id="arrow"
             d="M 11.500037,31.436501 C 11.940474,20.09759 22.043105,11.32322 32.158766,21.979434 L 37.068811,17.246167 C 37.068811,17.246167 37.088388,32 37.088388,32 L 22.160133,31.978069 C 22.160133,31.978069 26.997745,27.140456 26.997745,27.140456 C 18.528582,18.264221 13.291696,25.230495 11.500037,31.436501 z"
             style="fill:#404040;"/>
          </a>
         </g>
        </svg>
</svg>
