<?xml version="1.0" encoding="UTF-8" standalone="no"?>
<!DOCTYPE svg PUBLIC "-//W3C//DTD SVG 1.1//EN"
 "http://www.w3.org/Graphics/SVG/1.1/DTD/svg11.dtd">
<!-- Generated by graphviz version 2.38.0 (20140413.2041)
 -->
<!-- Title: Tomographer::Tools::StoreIfEnabled&lt; T_, enabled &gt; Pages: 1 -->
<svg width="458pt" height="161pt"
 viewBox="0.00 0.00 457.92 161.00" xmlns="http://www.w3.org/2000/svg" xmlns:xlink="http://www.w3.org/1999/xlink">
<g id="graph0" class="graph" transform="scale(1 1) rotate(0) translate(4 157)">
<title>Tomographer::Tools::StoreIfEnabled&lt; T_, enabled &gt;</title>
<!-- Node0 -->
<g id="node1" class="node"><title>Node0</title>
<polygon fill="#bfbfbf" stroke="black" points="0,-57.5 0,-95.5 103.822,-95.5 103.822,-57.5 0,-57.5"/>
<text text-anchor="start" x="8" y="-83.5" font-family="Helvetica,sans-Serif" font-size="10.00">Tomographer::Tools</text>
<text text-anchor="start" x="8" y="-73.5" font-family="Helvetica,sans-Serif" font-size="10.00">::StoreIfEnabled&lt; T</text>
<text text-anchor="middle" x="51.9111" y="-63.5" font-family="Helvetica,sans-Serif" font-size="10.00">_, enabled &gt;</text>
</g>
<!-- Node1 -->
<g id="node2" class="node"><title>Node1</title>
<g id="a_node2"><a xlink:href="struct_tomographer_1_1_tools_1_1_store_if_enabled.html" target="_top" xlink:title="Tomographer::Tools\l::StoreIfEnabled\&lt; LLHValue\lType, UseNMeasAmplifyFactor \&gt;">
<polygon fill="none" stroke="black" points="287.479,-114.5 287.479,-152.5 449.919,-152.5 449.919,-114.5 287.479,-114.5"/>
<text text-anchor="start" x="295.479" y="-140.5" font-family="Helvetica,sans-Serif" font-size="10.00">Tomographer::Tools</text>
<text text-anchor="start" x="295.479" y="-130.5" font-family="Helvetica,sans-Serif" font-size="10.00">::StoreIfEnabled&lt; LLHValue</text>
<text text-anchor="middle" x="368.699" y="-120.5" font-family="Helvetica,sans-Serif" font-size="10.00">Type, UseNMeasAmplifyFactor &gt;</text>
</a>
</g>
</g>
<!-- Node0&#45;&gt;Node1 -->
<g id="edge1" class="edge"><title>Node0&#45;&gt;Node1</title>
<path fill="none" stroke="orange" stroke-dasharray="5,2" d="M114.139,-89.0293C116.734,-89.5317 119.303,-90.0239 121.822,-90.5 176.965,-100.921 239.237,-111.802 287.315,-120.012"/>
<polygon fill="orange" stroke="orange" points="114.546,-85.5425 104.059,-87.0529 113.199,-92.4117 114.546,-85.5425"/>
<text text-anchor="start" x="130.011" y="-128.5" font-family="Helvetica,sans-Serif" font-size="10.00"> &lt; LLHValueType, UseNMeas</text>
<text text-anchor="middle" x="195.65" y="-118.5" font-family="Helvetica,sans-Serif" font-size="10.00">AmplifyFactor &gt;</text>
</g>
<!-- Node2 -->
<g id="node3" class="node"><title>Node2</title>
<g id="a_node3"><a xlink:href="struct_tomographer_1_1_tools_1_1_store_if_enabled.html" target="_top" xlink:title="Tomographer::Tools\l::StoreIfEnabled\&lt; BinSumArray,\l StoreBinSums \&gt;">
<polygon fill="none" stroke="black" points="290.059,-57.5 290.059,-95.5 447.338,-95.5 447.338,-57.5 290.059,-57.5"/>
<text text-anchor="start" x="298.059" y="-83.5" font-family="Helvetica,sans-Serif" font-size="10.00">Tomographer::Tools</text>
<text text-anchor="start" x="298.059" y="-73.5" font-family="Helvetica,sans-Serif" font-size="10.00">::StoreIfEnabled&lt; BinSumArray,</text>
<text text-anchor="middle" x="368.699" y="-63.5" font-family="Helvetica,sans-Serif" font-size="10.00"> StoreBinSums &gt;</text>
</a>
</g>
</g>
<!-- Node0&#45;&gt;Node2 -->
<g id="edge2" class="edge"><title>Node0&#45;&gt;Node2</title>
<path fill="none" stroke="orange" stroke-dasharray="5,2" d="M113.906,-76.5C164.155,-76.5 235.723,-76.5 290.057,-76.5"/>
<polygon fill="orange" stroke="orange" points="113.837,-73.0001 103.837,-76.5 113.837,-80.0001 113.837,-73.0001"/>
<text text-anchor="middle" x="195.65" y="-78.5" font-family="Helvetica,sans-Serif" font-size="10.00"> &lt; BinSumArray, StoreBinSums &gt;</text>
</g>
<!-- Node3 -->
<g id="node4" class="node"><title>Node3</title>
<g id="a_node4"><a xlink:href="struct_tomographer_1_1_tools_1_1_store_if_enabled.html" target="_top" xlink:title="Tomographer::Tools\l::StoreIfEnabled\&lt; int,\l UseBinningAnalysis \&gt;">
<polygon fill="none" stroke="black" points="310.811,-0.5 310.811,-38.5 426.586,-38.5 426.586,-0.5 310.811,-0.5"/>
<text text-anchor="start" x="318.811" y="-26.5" font-family="Helvetica,sans-Serif" font-size="10.00">Tomographer::Tools</text>
<text text-anchor="start" x="318.811" y="-16.5" font-family="Helvetica,sans-Serif" font-size="10.00">::StoreIfEnabled&lt; int,</text>
<text text-anchor="middle" x="368.699" y="-6.5" font-family="Helvetica,sans-Serif" font-size="10.00"> UseBinningAnalysis &gt;</text>
</a>
</g>
</g>
<!-- Node0&#45;&gt;Node3 -->
<g id="edge3" class="edge"><title>Node0&#45;&gt;Node3</title>
<path fill="none" stroke="orange" stroke-dasharray="5,2" d="M114.139,-63.9707C116.734,-63.4683 119.303,-62.9761 121.822,-62.5 186.333,-50.3085 260.601,-37.4871 310.484,-29.0512"/>
<polygon fill="orange" stroke="orange" points="113.199,-60.5883 104.059,-65.9471 114.546,-67.4575 113.199,-60.5883"/>
<text text-anchor="middle" x="195.65" y="-64.5" font-family="Helvetica,sans-Serif" font-size="10.00"> &lt; int, UseBinningAnalysis &gt;</text>
</g>
</g>
</svg>
