<?xml version="1.0" encoding="UTF-8" standalone="no"?>
<!DOCTYPE svg PUBLIC "-//W3C//DTD SVG 1.1//EN"
 "http://www.w3.org/Graphics/SVG/1.1/DTD/svg11.dtd">
<!-- Generated by graphviz version 2.38.0 (20140413.2041)
 -->
<!-- Title: tomographer/densedm/tspacefigofmerit.h Pages: 1 -->
<svg width="1092pt" height="277pt"
 viewBox="0.00 0.00 1092.45 277.00" xmlns="http://www.w3.org/2000/svg" xmlns:xlink="http://www.w3.org/1999/xlink">
<g id="graph0" class="graph" transform="scale(1 1) rotate(0) translate(4 273)">
<title>tomographer/densedm/tspacefigofmerit.h</title>
<!-- Node0 -->
<g id="node1" class="node"><title>Node0</title>
<polygon fill="#bfbfbf" stroke="black" points="383.168,-240.5 383.168,-268.5 499.783,-268.5 499.783,-240.5 383.168,-240.5"/>
<text text-anchor="start" x="391.168" y="-256.5" font-family="Helvetica,sans-Serif" font-size="10.00">tomographer/densedm</text>
<text text-anchor="middle" x="441.476" y="-246.5" font-family="Helvetica,sans-Serif" font-size="10.00">/tspacefigofmerit.h</text>
</g>
<!-- Node1 -->
<g id="node2" class="node"><title>Node1</title>
<g id="a_node2"><a xlink:href="needownoperatornew_8h.html" target="_top" xlink:title="Managing the need for specific overrides to operator new() for some types (especially Eigen types) ...">
<polygon fill="none" stroke="black" points="250.799,-180.5 250.799,-198.5 454.152,-198.5 454.152,-180.5 250.799,-180.5"/>
<text text-anchor="middle" x="352.476" y="-186.5" font-family="Helvetica,sans-Serif" font-size="10.00">tomographer/tools/needownoperatornew.h</text>
</a>
</g>
</g>
<!-- Node0&#45;&gt;Node1 -->
<g id="edge1" class="edge"><title>Node0&#45;&gt;Node1</title>
<path fill="none" stroke="midnightblue" d="M423.035,-240.446C408.138,-229.901 387.226,-215.098 372.037,-204.347"/>
<polygon fill="midnightblue" stroke="midnightblue" points="374.029,-201.469 363.845,-198.548 369.985,-207.182 374.029,-201.469"/>
</g>
<!-- Node16 -->
<g id="node17" class="node"><title>Node16</title>
<g id="a_node17"><a xlink:href="dmtypes_8h.html" target="_top" xlink:title="C++ types for describing dense density matrices in various parameterizations. ">
<polygon fill="none" stroke="black" points="116.168,-175.5 116.168,-203.5 232.783,-203.5 232.783,-175.5 116.168,-175.5"/>
<text text-anchor="start" x="124.168" y="-191.5" font-family="Helvetica,sans-Serif" font-size="10.00">tomographer/densedm</text>
<text text-anchor="middle" x="174.476" y="-181.5" font-family="Helvetica,sans-Serif" font-size="10.00">/dmtypes.h</text>
</a>
</g>
</g>
<!-- Node0&#45;&gt;Node16 -->
<g id="edge20" class="edge"><title>Node0&#45;&gt;Node16</title>
<path fill="none" stroke="midnightblue" d="M386.153,-240.446C343.551,-230.394 284.55,-216.473 239.658,-205.88"/>
<polygon fill="midnightblue" stroke="midnightblue" points="240.264,-202.427 229.727,-203.537 238.656,-209.24 240.264,-202.427"/>
</g>
<!-- Node17 -->
<g id="node18" class="node"><title>Node17</title>
<g id="a_node18"><a xlink:href="distmeasures_8h.html" target="_top" xlink:title="Distance measures in quantum information for states represented as dense matrices. ">
<polygon fill="none" stroke="black" points="829.168,-175.5 829.168,-203.5 945.783,-203.5 945.783,-175.5 829.168,-175.5"/>
<text text-anchor="start" x="837.168" y="-191.5" font-family="Helvetica,sans-Serif" font-size="10.00">tomographer/densedm</text>
<text text-anchor="middle" x="887.476" y="-181.5" font-family="Helvetica,sans-Serif" font-size="10.00">/distmeasures.h</text>
</a>
</g>
</g>
<!-- Node0&#45;&gt;Node17 -->
<g id="edge25" class="edge"><title>Node0&#45;&gt;Node17</title>
<path fill="none" stroke="midnightblue" d="M500.241,-245.199C582.493,-233.58 731.637,-212.513 818.872,-200.191"/>
<polygon fill="midnightblue" stroke="midnightblue" points="819.523,-203.634 828.935,-198.769 818.544,-196.702 819.523,-203.634"/>
</g>
<!-- Node21 -->
<g id="node22" class="node"><title>Node21</title>
<g id="a_node22"><a xlink:href="param__herm__x_8h.html" target="_top" xlink:title="Tools for parameterizing hermitian matrices with the X Parameterization. ">
<polygon fill="none" stroke="black" points="472.168,-175.5 472.168,-203.5 588.783,-203.5 588.783,-175.5 472.168,-175.5"/>
<text text-anchor="start" x="480.168" y="-191.5" font-family="Helvetica,sans-Serif" font-size="10.00">tomographer/densedm</text>
<text text-anchor="middle" x="530.476" y="-181.5" font-family="Helvetica,sans-Serif" font-size="10.00">/param_herm_x.h</text>
</a>
</g>
</g>
<!-- Node0&#45;&gt;Node21 -->
<g id="edge30" class="edge"><title>Node0&#45;&gt;Node21</title>
<path fill="none" stroke="midnightblue" d="M459.916,-240.446C472.566,-231.492 489.552,-219.468 503.689,-209.461"/>
<polygon fill="midnightblue" stroke="midnightblue" points="505.918,-212.171 512.058,-203.537 501.874,-206.458 505.918,-212.171"/>
</g>
<!-- Node2 -->
<g id="node3" class="node"><title>Node2</title>
<polygon fill="none" stroke="#bfbfbf" points="58.4092,-55.5 58.4092,-73.5 120.542,-73.5 120.542,-55.5 58.4092,-55.5"/>
<text text-anchor="middle" x="89.4756" y="-61.5" font-family="Helvetica,sans-Serif" font-size="10.00">type_traits</text>
</g>
<!-- Node1&#45;&gt;Node2 -->
<g id="edge2" class="edge"><title>Node1&#45;&gt;Node2</title>
<path fill="none" stroke="midnightblue" d="M342.044,-180.314C321.774,-164.74 275.209,-130.567 231.476,-110 198.747,-94.6081 159.349,-82.7428 130.363,-75.1499"/>
<polygon fill="midnightblue" stroke="midnightblue" points="131.129,-71.7331 120.573,-72.6436 129.393,-78.5144 131.129,-71.7331"/>
</g>
<!-- Node3 -->
<g id="node4" class="node"><title>Node3</title>
<polygon fill="none" stroke="#bfbfbf" points="152.51,-115.5 152.51,-133.5 222.441,-133.5 222.441,-115.5 152.51,-115.5"/>
<text text-anchor="middle" x="187.476" y="-121.5" font-family="Helvetica,sans-Serif" font-size="10.00">Eigen/Eigen</text>
</g>
<!-- Node1&#45;&gt;Node3 -->
<g id="edge3" class="edge"><title>Node1&#45;&gt;Node3</title>
<path fill="none" stroke="midnightblue" d="M331.243,-180.393C302.531,-169.43 251.138,-149.807 218.208,-137.234"/>
<polygon fill="midnightblue" stroke="midnightblue" points="219.218,-133.873 208.627,-133.576 216.721,-140.413 219.218,-133.873"/>
</g>
<!-- Node4 -->
<g id="node5" class="node"><title>Node4</title>
<g id="a_node5"><a xlink:href="cxxutil_8h.html" target="_top" xlink:title="Some C++ utilities, with a tad of C++11 tricks. ">
<polygon fill="none" stroke="black" points="316.725,-115.5 316.725,-133.5 452.227,-133.5 452.227,-115.5 316.725,-115.5"/>
<text text-anchor="middle" x="384.476" y="-121.5" font-family="Helvetica,sans-Serif" font-size="10.00">tomographer/tools/cxxutil.h</text>
</a>
</g>
</g>
<!-- Node1&#45;&gt;Node4 -->
<g id="edge4" class="edge"><title>Node1&#45;&gt;Node4</title>
<path fill="none" stroke="midnightblue" d="M356.659,-180.264C361.477,-170.779 369.524,-154.936 375.727,-142.724"/>
<polygon fill="midnightblue" stroke="midnightblue" points="378.984,-144.04 380.392,-133.539 372.743,-140.87 378.984,-144.04"/>
</g>
<!-- Node4&#45;&gt;Node2 -->
<g id="edge10" class="edge"><title>Node4&#45;&gt;Node2</title>
<path fill="none" stroke="midnightblue" d="M343.767,-115.496C287.67,-104.467 187.156,-84.705 130.758,-73.6166"/>
<polygon fill="midnightblue" stroke="midnightblue" points="131.249,-70.1461 120.762,-71.6511 129.898,-77.0146 131.249,-70.1461"/>
</g>
<!-- Node5 -->
<g id="node6" class="node"><title>Node5</title>
<polygon fill="none" stroke="#bfbfbf" points="223.36,-0.5 223.36,-18.5 271.591,-18.5 271.591,-0.5 223.36,-0.5"/>
<text text-anchor="middle" x="247.476" y="-6.5" font-family="Helvetica,sans-Serif" font-size="10.00">cassert</text>
</g>
<!-- Node4&#45;&gt;Node5 -->
<g id="edge5" class="edge"><title>Node4&#45;&gt;Node5</title>
<path fill="none" stroke="midnightblue" d="M379.287,-115.498C370.111,-101.804 349.867,-73.5635 327.476,-55 311.872,-42.0639 291.961,-30.9729 275.907,-23.099"/>
<polygon fill="midnightblue" stroke="midnightblue" points="277.017,-19.7516 266.482,-18.6244 274.014,-26.0751 277.017,-19.7516"/>
</g>
<!-- Node6 -->
<g id="node7" class="node"><title>Node6</title>
<polygon fill="none" stroke="#bfbfbf" points="124.355,-0.5 124.355,-18.5 172.596,-18.5 172.596,-0.5 124.355,-0.5"/>
<text text-anchor="middle" x="148.476" y="-6.5" font-family="Helvetica,sans-Serif" font-size="10.00">cstddef</text>
</g>
<!-- Node4&#45;&gt;Node6 -->
<g id="edge6" class="edge"><title>Node4&#45;&gt;Node6</title>
<path fill="none" stroke="midnightblue" d="M338.039,-115.468C278.08,-104.711 179.908,-85.6328 167.476,-74 155.143,-62.4613 150.706,-43.282 149.165,-29.0153"/>
<polygon fill="midnightblue" stroke="midnightblue" points="152.645,-28.5979 148.455,-18.8668 145.662,-29.0869 152.645,-28.5979"/>
</g>
<!-- Node7 -->
<g id="node8" class="node"><title>Node7</title>
<polygon fill="none" stroke="#bfbfbf" points="325.303,-0.5 325.303,-18.5 369.648,-18.5 369.648,-0.5 325.303,-0.5"/>
<text text-anchor="middle" x="347.476" y="-6.5" font-family="Helvetica,sans-Serif" font-size="10.00">cstdlib</text>
</g>
<!-- Node4&#45;&gt;Node7 -->
<g id="edge7" class="edge"><title>Node4&#45;&gt;Node7</title>
<path fill="none" stroke="midnightblue" d="M381.815,-115.373C375.868,-97.2116 361.386,-52.9824 353.256,-28.1537"/>
<polygon fill="midnightblue" stroke="midnightblue" points="356.55,-26.9674 350.112,-18.553 349.898,-29.1457 356.55,-26.9674"/>
</g>
<!-- Node8 -->
<g id="node9" class="node"><title>Node8</title>
<polygon fill="none" stroke="#bfbfbf" points="572.303,-55.5 572.303,-73.5 626.648,-73.5 626.648,-55.5 572.303,-55.5"/>
<text text-anchor="middle" x="599.476" y="-61.5" font-family="Helvetica,sans-Serif" font-size="10.00">iostream</text>
</g>
<!-- Node4&#45;&gt;Node8 -->
<g id="edge8" class="edge"><title>Node4&#45;&gt;Node8</title>
<path fill="none" stroke="midnightblue" d="M414.37,-115.435C453.064,-104.997 520.48,-86.8103 562.394,-75.5033"/>
<polygon fill="midnightblue" stroke="midnightblue" points="563.468,-78.8388 572.212,-72.8549 561.645,-72.0804 563.468,-78.8388"/>
</g>
<!-- Node9 -->
<g id="node10" class="node"><title>Node9</title>
<polygon fill="none" stroke="#bfbfbf" points="798.857,-55.5 798.857,-73.5 852.094,-73.5 852.094,-55.5 798.857,-55.5"/>
<text text-anchor="middle" x="825.476" y="-61.5" font-family="Helvetica,sans-Serif" font-size="10.00">complex</text>
</g>
<!-- Node4&#45;&gt;Node9 -->
<g id="edge9" class="edge"><title>Node4&#45;&gt;Node9</title>
<path fill="none" stroke="midnightblue" d="M430.813,-115.438C442.439,-113.535 454.899,-111.597 466.476,-110 606.351,-90.7043 645.407,-98.2789 788.764,-73.9055"/>
<polygon fill="midnightblue" stroke="midnightblue" points="789.553,-77.3213 798.813,-72.1741 788.364,-70.4229 789.553,-77.3213"/>
</g>
<!-- Node10 -->
<g id="node11" class="node"><title>Node10</title>
<polygon fill="none" stroke="#bfbfbf" points="645.072,-55.5 645.072,-73.5 703.879,-73.5 703.879,-55.5 645.072,-55.5"/>
<text text-anchor="middle" x="674.476" y="-61.5" font-family="Helvetica,sans-Serif" font-size="10.00">exception</text>
</g>
<!-- Node4&#45;&gt;Node10 -->
<g id="edge11" class="edge"><title>Node4&#45;&gt;Node10</title>
<path fill="none" stroke="midnightblue" d="M426.717,-115.435C474.594,-106.236 555.239,-90.5622 634.516,-74.1655"/>
<polygon fill="midnightblue" stroke="midnightblue" points="635.597,-77.5159 644.678,-72.0581 634.176,-70.6617 635.597,-77.5159"/>
</g>
<!-- Node11 -->
<g id="node12" class="node"><title>Node11</title>
<polygon fill="none" stroke="#bfbfbf" points="722.074,-55.5 722.074,-73.5 780.877,-73.5 780.877,-55.5 722.074,-55.5"/>
<text text-anchor="middle" x="751.476" y="-61.5" font-family="Helvetica,sans-Serif" font-size="10.00">stdexcept</text>
</g>
<!-- Node4&#45;&gt;Node11 -->
<g id="edge12" class="edge"><title>Node4&#45;&gt;Node11</title>
<path fill="none" stroke="midnightblue" d="M432.582,-115.433C443.706,-113.608 455.498,-111.707 466.476,-110 572.463,-93.5216 602.046,-93.7482 711.568,-74.0493"/>
<polygon fill="midnightblue" stroke="midnightblue" points="712.493,-77.4388 721.708,-72.2102 711.244,-70.5512 712.493,-77.4388"/>
</g>
<!-- Node12 -->
<g id="node13" class="node"><title>Node12</title>
<g id="a_node13"><a xlink:href="cxxdefs_8h.html" target="_top" xlink:title="Basic definitions, which may have to be defined before any Eigen headers or further utilities are inc...">
<polygon fill="none" stroke="black" points="176.666,-55.5 176.666,-73.5 318.286,-73.5 318.286,-55.5 176.666,-55.5"/>
<text text-anchor="middle" x="247.476" y="-61.5" font-family="Helvetica,sans-Serif" font-size="10.00">tomographer/tools/cxxdefs.h</text>
</a>
</g>
</g>
<!-- Node4&#45;&gt;Node12 -->
<g id="edge13" class="edge"><title>Node4&#45;&gt;Node12</title>
<path fill="none" stroke="midnightblue" d="M365.426,-115.435C342.246,-105.622 302.888,-88.9593 276.066,-77.604"/>
<polygon fill="midnightblue" stroke="midnightblue" points="277.378,-74.3587 266.805,-73.6831 274.649,-80.8049 277.378,-74.3587"/>
</g>
<!-- Node13 -->
<g id="node14" class="node"><title>Node13</title>
<g id="a_node14"><a xlink:href="conststr_8h.html" target="_top" xlink:title="A constexpr string type, suitable for basic compile&#45;time string processing. ">
<polygon fill="none" stroke="black" points="412.385,-55.5 412.385,-73.5 554.566,-73.5 554.566,-55.5 412.385,-55.5"/>
<text text-anchor="middle" x="483.476" y="-61.5" font-family="Helvetica,sans-Serif" font-size="10.00">tomographer/tools/conststr.h</text>
</a>
</g>
</g>
<!-- Node4&#45;&gt;Node13 -->
<g id="edge17" class="edge"><title>Node4&#45;&gt;Node13</title>
<path fill="none" stroke="midnightblue" d="M398.241,-115.435C414.404,-105.966 441.452,-90.1201 460.742,-78.8184"/>
<polygon fill="midnightblue" stroke="midnightblue" points="462.649,-81.758 469.508,-73.6831 459.11,-75.7182 462.649,-81.758"/>
</g>
<!-- Node15 -->
<g id="node16" class="node"><title>Node15</title>
<polygon fill="none" stroke="#bfbfbf" points="870.461,-55.5 870.461,-73.5 936.49,-73.5 936.49,-55.5 870.461,-55.5"/>
<text text-anchor="middle" x="903.476" y="-61.5" font-family="Helvetica,sans-Serif" font-size="10.00">Eigen/Core</text>
</g>
<!-- Node4&#45;&gt;Node15 -->
<g id="edge19" class="edge"><title>Node4&#45;&gt;Node15</title>
<path fill="none" stroke="midnightblue" d="M451.041,-115.483C466.907,-113.628 483.787,-111.701 499.476,-110 656.92,-92.9313 699.847,-97.8504 859.852,-74.1078"/>
<polygon fill="midnightblue" stroke="midnightblue" points="860.688,-77.5218 870.059,-72.5783 859.65,-70.5991 860.688,-77.5218"/>
</g>
<!-- Node12&#45;&gt;Node5 -->
<g id="edge14" class="edge"><title>Node12&#45;&gt;Node5</title>
<path fill="none" stroke="midnightblue" d="M247.476,-55.2188C247.476,-48.1769 247.476,-37.8083 247.476,-28.8277"/>
<polygon fill="midnightblue" stroke="midnightblue" points="250.976,-28.5495 247.476,-18.5496 243.976,-28.5496 250.976,-28.5495"/>
</g>
<!-- Node12&#45;&gt;Node6 -->
<g id="edge15" class="edge"><title>Node12&#45;&gt;Node6</title>
<path fill="none" stroke="midnightblue" d="M232.44,-55.4504C216.521,-46.9286 191.164,-33.3532 172.476,-23.3487"/>
<polygon fill="midnightblue" stroke="midnightblue" points="174.121,-20.2595 163.653,-18.6253 170.817,-26.4308 174.121,-20.2595"/>
</g>
<!-- Node12&#45;&gt;Node7 -->
<g id="edge16" class="edge"><title>Node12&#45;&gt;Node7</title>
<path fill="none" stroke="midnightblue" d="M262.663,-55.4504C278.742,-46.9286 304.356,-33.3532 323.233,-23.3487"/>
<polygon fill="midnightblue" stroke="midnightblue" points="324.948,-26.4008 332.145,-18.6253 321.67,-20.2158 324.948,-26.4008"/>
</g>
<!-- Node14 -->
<g id="node15" class="node"><title>Node14</title>
<polygon fill="none" stroke="#bfbfbf" points="463.249,-0.5 463.249,-18.5 503.702,-18.5 503.702,-0.5 463.249,-0.5"/>
<text text-anchor="middle" x="483.476" y="-6.5" font-family="Helvetica,sans-Serif" font-size="10.00">string</text>
</g>
<!-- Node13&#45;&gt;Node14 -->
<g id="edge18" class="edge"><title>Node13&#45;&gt;Node14</title>
<path fill="none" stroke="midnightblue" d="M483.476,-55.2188C483.476,-48.1769 483.476,-37.8083 483.476,-28.8277"/>
<polygon fill="midnightblue" stroke="midnightblue" points="486.976,-28.5495 483.476,-18.5496 479.976,-28.5496 486.976,-28.5495"/>
</g>
<!-- Node16&#45;&gt;Node3 -->
<g id="edge23" class="edge"><title>Node16&#45;&gt;Node3</title>
<path fill="none" stroke="midnightblue" d="M177.169,-175.446C179.07,-166.236 181.641,-153.776 183.74,-143.605"/>
<polygon fill="midnightblue" stroke="midnightblue" points="187.184,-144.231 185.777,-133.73 180.329,-142.816 187.184,-144.231"/>
</g>
<!-- Node16&#45;&gt;Node4 -->
<g id="edge24" class="edge"><title>Node16&#45;&gt;Node4</title>
<path fill="none" stroke="midnightblue" d="M217.988,-175.446C256.422,-163.916 311.828,-147.294 347.99,-136.446"/>
<polygon fill="midnightblue" stroke="midnightblue" points="349.076,-139.774 357.649,-133.548 347.065,-133.069 349.076,-139.774"/>
</g>
<!-- Node16&#45;&gt;Node5 -->
<g id="edge22" class="edge"><title>Node16&#45;&gt;Node5</title>
<path fill="none" stroke="midnightblue" d="M145.567,-175.482C97.9826,-152.291 11.9824,-101.855 49.4756,-55 59.6909,-42.234 159.194,-24.5846 213.129,-15.8456"/>
<polygon fill="midnightblue" stroke="midnightblue" points="213.948,-19.259 223.268,-14.2207 212.841,-12.3472 213.948,-19.259"/>
</g>
<!-- Node16&#45;&gt;Node6 -->
<g id="edge21" class="edge"><title>Node16&#45;&gt;Node6</title>
<path fill="none" stroke="midnightblue" d="M115.778,-186.537C80.8722,-181.968 39.1102,-169.811 16.4756,-139 -5.62747,-108.913 -5.302,-85.3235 16.4756,-55 38.5924,-24.2042 83.1263,-14.4382 114.326,-11.4941"/>
<polygon fill="midnightblue" stroke="midnightblue" points="114.636,-14.9807 124.343,-10.7366 114.108,-8.00062 114.636,-14.9807"/>
</g>
<!-- Node17&#45;&gt;Node15 -->
<g id="edge26" class="edge"><title>Node17&#45;&gt;Node15</title>
<path fill="none" stroke="midnightblue" d="M945.979,-181.034C995.364,-173.389 1060.52,-159.676 1076.48,-139 1112.93,-91.771 1009.08,-74.5134 946.737,-68.5064"/>
<polygon fill="midnightblue" stroke="midnightblue" points="947.016,-65.0174 936.742,-67.6045 946.387,-71.9891 947.016,-65.0174"/>
</g>
<!-- Node18 -->
<g id="node19" class="node"><title>Node18</title>
<polygon fill="none" stroke="#bfbfbf" points="738.057,-115.5 738.057,-133.5 836.894,-133.5 836.894,-115.5 738.057,-115.5"/>
<text text-anchor="middle" x="787.476" y="-121.5" font-family="Helvetica,sans-Serif" font-size="10.00">Eigen/Eigenvalues</text>
</g>
<!-- Node17&#45;&gt;Node18 -->
<g id="edge27" class="edge"><title>Node17&#45;&gt;Node18</title>
<path fill="none" stroke="midnightblue" d="M866.756,-175.446C849.861,-164.803 826.081,-149.821 808.978,-139.047"/>
<polygon fill="midnightblue" stroke="midnightblue" points="810.577,-135.917 800.25,-133.548 806.845,-141.84 810.577,-135.917"/>
</g>
<!-- Node19 -->
<g id="node20" class="node"><title>Node19</title>
<polygon fill="none" stroke="#bfbfbf" points="855.018,-115.5 855.018,-133.5 919.934,-133.5 919.934,-115.5 855.018,-115.5"/>
<text text-anchor="middle" x="887.476" y="-121.5" font-family="Helvetica,sans-Serif" font-size="10.00">Eigen/SVD</text>
</g>
<!-- Node17&#45;&gt;Node19 -->
<g id="edge28" class="edge"><title>Node17&#45;&gt;Node19</title>
<path fill="none" stroke="midnightblue" d="M887.476,-175.446C887.476,-166.334 887.476,-154.041 887.476,-143.931"/>
<polygon fill="midnightblue" stroke="midnightblue" points="890.976,-143.73 887.476,-133.73 883.976,-143.73 890.976,-143.73"/>
</g>
<!-- Node20 -->
<g id="node21" class="node"><title>Node20</title>
<polygon fill="none" stroke="#bfbfbf" points="937.498,-110.5 937.498,-138.5 1067.45,-138.5 1067.45,-110.5 937.498,-110.5"/>
<text text-anchor="start" x="945.498" y="-126.5" font-family="Helvetica,sans-Serif" font-size="10.00">unsupported/Eigen/Matrix</text>
<text text-anchor="middle" x="1002.48" y="-116.5" font-family="Helvetica,sans-Serif" font-size="10.00">Functions</text>
</g>
<!-- Node17&#45;&gt;Node20 -->
<g id="edge29" class="edge"><title>Node17&#45;&gt;Node20</title>
<path fill="none" stroke="midnightblue" d="M911.304,-175.446C928.188,-166.197 951.053,-153.671 969.661,-143.477"/>
<polygon fill="midnightblue" stroke="midnightblue" points="971.589,-146.411 978.678,-138.537 968.226,-140.272 971.589,-146.411"/>
</g>
<!-- Node21&#45;&gt;Node4 -->
<g id="edge35" class="edge"><title>Node21&#45;&gt;Node4</title>
<path fill="none" stroke="midnightblue" d="M500.224,-175.446C474.417,-164.31 437.603,-148.425 412.466,-137.578"/>
<polygon fill="midnightblue" stroke="midnightblue" points="413.695,-134.296 403.126,-133.548 410.921,-140.724 413.695,-134.296"/>
</g>
<!-- Node21&#45;&gt;Node9 -->
<g id="edge32" class="edge"><title>Node21&#45;&gt;Node9</title>
<path fill="none" stroke="midnightblue" d="M517.775,-175.378C502.982,-158.505 482.594,-129.106 499.476,-110 540.626,-63.4259 710.084,-83.5377 788.776,-73.6575"/>
<polygon fill="midnightblue" stroke="midnightblue" points="789.444,-77.0962 798.807,-72.1365 788.395,-70.1753 789.444,-77.0962"/>
</g>
<!-- Node21&#45;&gt;Node15 -->
<g id="edge34" class="edge"><title>Node21&#45;&gt;Node15</title>
<path fill="none" stroke="midnightblue" d="M537.866,-175.336C548.78,-157.269 571.026,-125.289 599.476,-110 700.179,-55.8801 743.22,-91.5885 860.013,-74.0714"/>
<polygon fill="midnightblue" stroke="midnightblue" points="860.72,-77.5028 870.04,-72.4647 859.613,-70.5909 860.72,-77.5028"/>
</g>
<!-- Node22 -->
<g id="node23" class="node"><title>Node22</title>
<polygon fill="none" stroke="#bfbfbf" points="508.86,-115.5 508.86,-133.5 552.091,-133.5 552.091,-115.5 508.86,-115.5"/>
<text text-anchor="middle" x="530.476" y="-121.5" font-family="Helvetica,sans-Serif" font-size="10.00">cmath</text>
</g>
<!-- Node21&#45;&gt;Node22 -->
<g id="edge31" class="edge"><title>Node21&#45;&gt;Node22</title>
<path fill="none" stroke="midnightblue" d="M530.476,-175.446C530.476,-166.334 530.476,-154.041 530.476,-143.931"/>
<polygon fill="midnightblue" stroke="midnightblue" points="533.976,-143.73 530.476,-133.73 526.976,-143.73 533.976,-143.73"/>
</g>
<!-- Node23 -->
<g id="node24" class="node"><title>Node23</title>
<polygon fill="none" stroke="#bfbfbf" points="608.949,-110.5 608.949,-138.5 720.002,-138.5 720.002,-110.5 608.949,-110.5"/>
<text text-anchor="start" x="616.949" y="-126.5" font-family="Helvetica,sans-Serif" font-size="10.00">boost/math/constants</text>
<text text-anchor="middle" x="664.476" y="-116.5" font-family="Helvetica,sans-Serif" font-size="10.00">/constants.hpp</text>
</g>
<!-- Node21&#45;&gt;Node23 -->
<g id="edge33" class="edge"><title>Node21&#45;&gt;Node23</title>
<path fill="none" stroke="midnightblue" d="M558.24,-175.446C578.274,-166.028 605.532,-153.212 627.422,-142.921"/>
<polygon fill="midnightblue" stroke="midnightblue" points="629.186,-145.959 636.746,-138.537 626.207,-139.624 629.186,-145.959"/>
</g>
</g>
</svg>
