<?xml version="1.0" encoding="UTF-8" standalone="no"?>
<!DOCTYPE svg PUBLIC "-//W3C//DTD SVG 1.1//EN"
 "http://www.w3.org/Graphics/SVG/1.1/DTD/svg11.dtd">
<!-- Generated by graphviz version 2.38.0 (20140413.2041)
 -->
<!-- Title: tomographer/valuecalculator.h Pages: 1 -->
<svg width="863pt" height="247pt"
 viewBox="0.00 0.00 862.67 247.00" xmlns="http://www.w3.org/2000/svg" xmlns:xlink="http://www.w3.org/1999/xlink">
<g id="graph0" class="graph" transform="scale(1 1) rotate(0) translate(4 243)">
<title>tomographer/valuecalculator.h</title>
<!-- Node0 -->
<g id="node1" class="node"><title>Node0</title>
<polygon fill="#bfbfbf" stroke="black" points="342.613,-220.5 342.613,-238.5 492.587,-238.5 492.587,-220.5 342.613,-220.5"/>
<text text-anchor="middle" x="417.6" y="-226.5" font-family="Helvetica,sans-Serif" font-size="10.00">tomographer/valuecalculator.h</text>
</g>
<!-- Node1 -->
<g id="node2" class="node"><title>Node1</title>
<g id="a_node2"><a xlink:href="cxxutil_8h.html" target="_top" xlink:title="Some C++ utilities, with a tad of C++11 tricks. ">
<polygon fill="none" stroke="black" points="284.849,-110.5 284.849,-128.5 420.351,-128.5 420.351,-110.5 284.849,-110.5"/>
<text text-anchor="middle" x="352.6" y="-116.5" font-family="Helvetica,sans-Serif" font-size="10.00">tomographer/tools/cxxutil.h</text>
</a>
</g>
</g>
<!-- Node0&#45;&gt;Node1 -->
<g id="edge1" class="edge"><title>Node0&#45;&gt;Node1</title>
<path fill="none" stroke="midnightblue" d="M406.149,-220.214C395.718,-212.095 380.606,-198.81 371.6,-184 363.184,-170.16 358.278,-152.341 355.568,-139.103"/>
<polygon fill="midnightblue" stroke="midnightblue" points="358.94,-138.083 353.717,-128.865 352.052,-139.328 358.94,-138.083"/>
</g>
<!-- Node14 -->
<g id="node15" class="node"><title>Node14</title>
<g id="a_node15"><a xlink:href="needownoperatornew_8h.html" target="_top" xlink:title="Managing the need for specific overrides to operator new() for some types (especially Eigen types) ...">
<polygon fill="none" stroke="black" points="380.923,-165.5 380.923,-183.5 584.277,-183.5 584.277,-165.5 380.923,-165.5"/>
<text text-anchor="middle" x="482.6" y="-171.5" font-family="Helvetica,sans-Serif" font-size="10.00">tomographer/tools/needownoperatornew.h</text>
</a>
</g>
</g>
<!-- Node0&#45;&gt;Node14 -->
<g id="edge17" class="edge"><title>Node0&#45;&gt;Node14</title>
<path fill="none" stroke="midnightblue" d="M427.472,-220.45C437.303,-212.434 452.618,-199.947 464.613,-190.166"/>
<polygon fill="midnightblue" stroke="midnightblue" points="467.097,-192.657 472.635,-183.625 462.673,-187.232 467.097,-192.657"/>
</g>
<!-- Node2 -->
<g id="node3" class="node"><title>Node2</title>
<polygon fill="none" stroke="#bfbfbf" points="97.4842,-0.5 97.4842,-18.5 145.716,-18.5 145.716,-0.5 97.4842,-0.5"/>
<text text-anchor="middle" x="121.6" y="-6.5" font-family="Helvetica,sans-Serif" font-size="10.00">cassert</text>
</g>
<!-- Node1&#45;&gt;Node2 -->
<g id="edge2" class="edge"><title>Node1&#45;&gt;Node2</title>
<path fill="none" stroke="midnightblue" d="M284.777,-114.526C189.256,-108.226 24.6503,-94.5205 6.59994,-74 -19.9096,-43.8627 44.3781,-25.1516 87.1528,-16.3996"/>
<polygon fill="midnightblue" stroke="midnightblue" points="88.0851,-19.7838 97.2317,-14.437 86.7471,-12.9129 88.0851,-19.7838"/>
</g>
<!-- Node3 -->
<g id="node4" class="node"><title>Node3</title>
<polygon fill="none" stroke="#bfbfbf" points="357.479,-0.5 357.479,-18.5 405.721,-18.5 405.721,-0.5 357.479,-0.5"/>
<text text-anchor="middle" x="381.6" y="-6.5" font-family="Helvetica,sans-Serif" font-size="10.00">cstddef</text>
</g>
<!-- Node1&#45;&gt;Node3 -->
<g id="edge3" class="edge"><title>Node1&#45;&gt;Node3</title>
<path fill="none" stroke="midnightblue" d="M348.547,-110.416C342.945,-98.0872 334.31,-74.0136 341.6,-55 345.996,-43.5332 354.862,-33.1672 363.132,-25.3307"/>
<polygon fill="midnightblue" stroke="midnightblue" points="365.532,-27.8807 370.713,-18.639 360.9,-22.6326 365.532,-27.8807"/>
</g>
<!-- Node4 -->
<g id="node5" class="node"><title>Node4</title>
<polygon fill="none" stroke="#bfbfbf" points="532.428,-0.5 532.428,-18.5 576.772,-18.5 576.772,-0.5 532.428,-0.5"/>
<text text-anchor="middle" x="554.6" y="-6.5" font-family="Helvetica,sans-Serif" font-size="10.00">cstdlib</text>
</g>
<!-- Node1&#45;&gt;Node4 -->
<g id="edge4" class="edge"><title>Node1&#45;&gt;Node4</title>
<path fill="none" stroke="midnightblue" d="M416.78,-110.471C481.959,-101.659 574.822,-87.031 585.6,-74 597.626,-59.4595 584.01,-39.4684 571.224,-25.8256"/>
<polygon fill="midnightblue" stroke="midnightblue" points="573.544,-23.197 563.991,-18.6157 568.602,-28.1545 573.544,-23.197"/>
</g>
<!-- Node5 -->
<g id="node6" class="node"><title>Node5</title>
<polygon fill="none" stroke="#bfbfbf" points="15.4276,-55.5 15.4276,-73.5 69.7723,-73.5 69.7723,-55.5 15.4276,-55.5"/>
<text text-anchor="middle" x="42.5999" y="-61.5" font-family="Helvetica,sans-Serif" font-size="10.00">iostream</text>
</g>
<!-- Node1&#45;&gt;Node5 -->
<g id="edge5" class="edge"><title>Node1&#45;&gt;Node5</title>
<path fill="none" stroke="midnightblue" d="M295.714,-110.463C242.428,-102.663 160.353,-89.9572 80.3279,-74.2325"/>
<polygon fill="midnightblue" stroke="midnightblue" points="80.5634,-70.7111 70.0735,-72.1984 79.2014,-77.5773 80.5634,-70.7111"/>
</g>
<!-- Node6 -->
<g id="node7" class="node"><title>Node6</title>
<polygon fill="none" stroke="#bfbfbf" points="87.9818,-55.5 87.9818,-73.5 141.218,-73.5 141.218,-55.5 87.9818,-55.5"/>
<text text-anchor="middle" x="114.6" y="-61.5" font-family="Helvetica,sans-Serif" font-size="10.00">complex</text>
</g>
<!-- Node1&#45;&gt;Node6 -->
<g id="edge6" class="edge"><title>Node1&#45;&gt;Node6</title>
<path fill="none" stroke="midnightblue" d="M315.332,-110.466C276.75,-102.109 214.473,-88.5118 151.092,-74.0852"/>
<polygon fill="midnightblue" stroke="midnightblue" points="151.854,-70.669 141.326,-71.8574 150.297,-77.4937 151.854,-70.669"/>
</g>
<!-- Node7 -->
<g id="node8" class="node"><title>Node7</title>
<polygon fill="none" stroke="#bfbfbf" points="792.534,-55.5 792.534,-73.5 854.666,-73.5 854.666,-55.5 792.534,-55.5"/>
<text text-anchor="middle" x="823.6" y="-61.5" font-family="Helvetica,sans-Serif" font-size="10.00">type_traits</text>
</g>
<!-- Node1&#45;&gt;Node7 -->
<g id="edge7" class="edge"><title>Node1&#45;&gt;Node7</title>
<path fill="none" stroke="midnightblue" d="M420.713,-111.659C528.322,-100.827 730.127,-80.4029 782.186,-73.8731"/>
<polygon fill="midnightblue" stroke="midnightblue" points="782.783,-77.324 792.216,-72.4992 781.833,-70.3888 782.783,-77.324"/>
</g>
<!-- Node8 -->
<g id="node9" class="node"><title>Node8</title>
<polygon fill="none" stroke="#bfbfbf" points="159.196,-55.5 159.196,-73.5 218.004,-73.5 218.004,-55.5 159.196,-55.5"/>
<text text-anchor="middle" x="188.6" y="-61.5" font-family="Helvetica,sans-Serif" font-size="10.00">exception</text>
</g>
<!-- Node1&#45;&gt;Node8 -->
<g id="edge8" class="edge"><title>Node1&#45;&gt;Node8</title>
<path fill="none" stroke="midnightblue" d="M327.692,-110.45C299.797,-101.436 254.402,-86.7653 223.101,-76.6496"/>
<polygon fill="midnightblue" stroke="midnightblue" points="224.065,-73.2831 213.473,-73.5383 221.912,-79.9439 224.065,-73.2831"/>
</g>
<!-- Node9 -->
<g id="node10" class="node"><title>Node9</title>
<polygon fill="none" stroke="#bfbfbf" points="236.199,-55.5 236.199,-73.5 295.001,-73.5 295.001,-55.5 236.199,-55.5"/>
<text text-anchor="middle" x="265.6" y="-61.5" font-family="Helvetica,sans-Serif" font-size="10.00">stdexcept</text>
</g>
<!-- Node1&#45;&gt;Node9 -->
<g id="edge9" class="edge"><title>Node1&#45;&gt;Node9</title>
<path fill="none" stroke="midnightblue" d="M339.387,-110.45C325.717,-102.123 304.127,-88.9704 287.825,-79.0394"/>
<polygon fill="midnightblue" stroke="midnightblue" points="289.299,-75.8389 278.938,-73.6253 285.657,-81.817 289.299,-75.8389"/>
</g>
<!-- Node10 -->
<g id="node11" class="node"><title>Node10</title>
<g id="a_node11"><a xlink:href="cxxdefs_8h.html" target="_top" xlink:title="Basic definitions, which may have to be defined before any Eigen headers or further utilities are inc...">
<polygon fill="none" stroke="black" points="434.79,-55.5 434.79,-73.5 576.41,-73.5 576.41,-55.5 434.79,-55.5"/>
<text text-anchor="middle" x="505.6" y="-61.5" font-family="Helvetica,sans-Serif" font-size="10.00">tomographer/tools/cxxdefs.h</text>
</a>
</g>
</g>
<!-- Node1&#45;&gt;Node10 -->
<g id="edge10" class="edge"><title>Node1&#45;&gt;Node10</title>
<path fill="none" stroke="midnightblue" d="M375.837,-110.45C401.561,-101.539 443.237,-87.1029 472.398,-77.0014"/>
<polygon fill="midnightblue" stroke="midnightblue" points="473.84,-80.2058 482.144,-73.6253 471.549,-73.5914 473.84,-80.2058"/>
</g>
<!-- Node11 -->
<g id="node12" class="node"><title>Node11</title>
<g id="a_node12"><a xlink:href="conststr_8h.html" target="_top" xlink:title="A constexpr string type, suitable for basic compile&#45;time string processing. ">
<polygon fill="none" stroke="black" points="632.509,-55.5 632.509,-73.5 774.691,-73.5 774.691,-55.5 632.509,-55.5"/>
<text text-anchor="middle" x="703.6" y="-61.5" font-family="Helvetica,sans-Serif" font-size="10.00">tomographer/tools/conststr.h</text>
</a>
</g>
</g>
<!-- Node1&#45;&gt;Node11 -->
<g id="edge14" class="edge"><title>Node1&#45;&gt;Node11</title>
<path fill="none" stroke="midnightblue" d="M405.909,-110.45C468.843,-100.948 573.392,-85.161 640.36,-75.0491"/>
<polygon fill="midnightblue" stroke="midnightblue" points="641,-78.4922 650.365,-73.5383 639.955,-71.5707 641,-78.4922"/>
</g>
<!-- Node13 -->
<g id="node14" class="node"><title>Node13</title>
<polygon fill="none" stroke="#bfbfbf" points="350.585,-55.5 350.585,-73.5 416.615,-73.5 416.615,-55.5 350.585,-55.5"/>
<text text-anchor="middle" x="383.6" y="-61.5" font-family="Helvetica,sans-Serif" font-size="10.00">Eigen/Core</text>
</g>
<!-- Node1&#45;&gt;Node13 -->
<g id="edge16" class="edge"><title>Node1&#45;&gt;Node13</title>
<path fill="none" stroke="midnightblue" d="M357.444,-110.219C361.791,-102.786 368.307,-91.646 373.747,-82.3446"/>
<polygon fill="midnightblue" stroke="midnightblue" points="376.864,-83.9486 378.892,-73.5496 370.822,-80.4143 376.864,-83.9486"/>
</g>
<!-- Node10&#45;&gt;Node2 -->
<g id="edge11" class="edge"><title>Node10&#45;&gt;Node2</title>
<path fill="none" stroke="midnightblue" d="M447.279,-55.4504C366.19,-44.2586 221.949,-24.3503 156.101,-15.2619"/>
<polygon fill="midnightblue" stroke="midnightblue" points="156.242,-11.7482 145.857,-13.848 155.285,-18.6825 156.242,-11.7482"/>
</g>
<!-- Node10&#45;&gt;Node3 -->
<g id="edge12" class="edge"><title>Node10&#45;&gt;Node3</title>
<path fill="none" stroke="midnightblue" d="M486.767,-55.4504C466.374,-46.734 433.611,-32.7306 410.071,-22.6691"/>
<polygon fill="midnightblue" stroke="midnightblue" points="411.181,-19.3373 400.61,-18.6253 408.43,-25.774 411.181,-19.3373"/>
</g>
<!-- Node10&#45;&gt;Node4 -->
<g id="edge13" class="edge"><title>Node10&#45;&gt;Node4</title>
<path fill="none" stroke="midnightblue" d="M513.256,-55.2188C520.418,-47.4727 531.301,-35.7013 540.103,-26.1799"/>
<polygon fill="midnightblue" stroke="midnightblue" points="542.939,-28.2683 547.158,-18.5496 537.799,-23.5163 542.939,-28.2683"/>
</g>
<!-- Node12 -->
<g id="node13" class="node"><title>Node12</title>
<polygon fill="none" stroke="#bfbfbf" points="683.373,-0.5 683.373,-18.5 723.827,-18.5 723.827,-0.5 683.373,-0.5"/>
<text text-anchor="middle" x="703.6" y="-6.5" font-family="Helvetica,sans-Serif" font-size="10.00">string</text>
</g>
<!-- Node11&#45;&gt;Node12 -->
<g id="edge15" class="edge"><title>Node11&#45;&gt;Node12</title>
<path fill="none" stroke="midnightblue" d="M703.6,-55.2188C703.6,-48.1769 703.6,-37.8083 703.6,-28.8277"/>
<polygon fill="midnightblue" stroke="midnightblue" points="707.1,-28.5495 703.6,-18.5496 700.1,-28.5496 707.1,-28.5495"/>
</g>
<!-- Node14&#45;&gt;Node1 -->
<g id="edge20" class="edge"><title>Node14&#45;&gt;Node1</title>
<path fill="none" stroke="midnightblue" d="M462.856,-165.45C441.285,-156.656 406.514,-142.48 381.79,-132.401"/>
<polygon fill="midnightblue" stroke="midnightblue" points="383.111,-129.16 372.53,-128.625 380.469,-135.642 383.111,-129.16"/>
</g>
<!-- Node14&#45;&gt;Node7 -->
<g id="edge18" class="edge"><title>Node14&#45;&gt;Node7</title>
<path fill="none" stroke="midnightblue" d="M507.952,-165.471C568.122,-146.414 719.65,-98.4227 788.538,-76.6047"/>
<polygon fill="midnightblue" stroke="midnightblue" points="789.605,-79.9382 798.081,-73.5822 787.491,-73.2649 789.605,-79.9382"/>
</g>
<!-- Node15 -->
<g id="node16" class="node"><title>Node15</title>
<polygon fill="none" stroke="#bfbfbf" points="447.635,-110.5 447.635,-128.5 517.565,-128.5 517.565,-110.5 447.635,-110.5"/>
<text text-anchor="middle" x="482.6" y="-116.5" font-family="Helvetica,sans-Serif" font-size="10.00">Eigen/Eigen</text>
</g>
<!-- Node14&#45;&gt;Node15 -->
<g id="edge19" class="edge"><title>Node14&#45;&gt;Node15</title>
<path fill="none" stroke="midnightblue" d="M482.6,-165.219C482.6,-158.177 482.6,-147.808 482.6,-138.828"/>
<polygon fill="midnightblue" stroke="midnightblue" points="486.1,-138.55 482.6,-128.55 479.1,-138.55 486.1,-138.55"/>
</g>
</g>
</svg>
