<?xml version="1.0" encoding="UTF-8" standalone="no"?>
<!DOCTYPE svg PUBLIC "-//W3C//DTD SVG 1.1//EN"
 "http://www.w3.org/Graphics/SVG/1.1/DTD/svg11.dtd">
<!-- Generated by graphviz version 2.38.0 (20140413.2041)
 -->
<!-- Title: Tomographer::BinningAnalysis&lt; Params, LoggerType_ &gt; Pages: 1 -->
<svg width="800pt" height="238pt"
 viewBox="0.00 0.00 800.09 238.00" xmlns="http://www.w3.org/2000/svg" xmlns:xlink="http://www.w3.org/1999/xlink">
<g id="graph0" class="graph" transform="scale(1 1) rotate(0) translate(4 234)">
<title>Tomographer::BinningAnalysis&lt; Params, LoggerType_ &gt;</title>
<!-- Node3 -->
<g id="node1" class="node"><title>Node3</title>
<polygon fill="#bfbfbf" stroke="black" points="641.021,-103.5 641.021,-131.5 792.095,-131.5 792.095,-103.5 641.021,-103.5"/>
<text text-anchor="start" x="649.021" y="-119.5" font-family="Helvetica,sans-Serif" font-size="10.00">Tomographer::BinningAnalysis</text>
<text text-anchor="middle" x="716.558" y="-109.5" font-family="Helvetica,sans-Serif" font-size="10.00">&lt; Params, LoggerType_ &gt;</text>
</g>
<!-- Node4 -->
<g id="node2" class="node"><title>Node4</title>
<g id="a_node2"><a xlink:href="struct_tomographer_1_1_tools_1_1_eigen_aligned_operator_new_provider.html" target="_top" xlink:title="Provides correct operator&#45;new implementation for Eigen types via the NeedOwnOperatorNew mechanism...">
<polygon fill="none" stroke="black" points="351.121,-201.5 351.121,-229.5 528.317,-229.5 528.317,-201.5 351.121,-201.5"/>
<text text-anchor="start" x="359.121" y="-217.5" font-family="Helvetica,sans-Serif" font-size="10.00">Tomographer::Tools</text>
<text text-anchor="middle" x="439.719" y="-207.5" font-family="Helvetica,sans-Serif" font-size="10.00">::EigenAlignedOperatorNewProvider</text>
</a>
</g>
</g>
<!-- Node4&#45;&gt;Node3 -->
<g id="edge1" class="edge"><title>Node4&#45;&gt;Node3</title>
<path fill="none" stroke="midnightblue" d="M508.064,-198.665C514.937,-196.694 521.788,-194.625 528.317,-192.5 584.26,-174.295 647.416,-147.684 684.225,-131.541"/>
<polygon fill="midnightblue" stroke="midnightblue" points="506.701,-195.412 498.013,-201.477 508.587,-202.153 506.701,-195.412"/>
</g>
<!-- Node5 -->
<g id="node3" class="node"><title>Node5</title>
<g id="a_node3"><a xlink:href="class_tomographer_1_1_tools_1_1_static_or_dynamic.html" target="_top" xlink:title="Tomographer::Tools\l::StaticOrDynamic\&lt; int,\l(NumLevelsCTime==Eigen\l::Dynamic), NumLevelsCTime \&gt;">
<polygon fill="none" stroke="black" points="361.192,-134.5 361.192,-182.5 518.247,-182.5 518.247,-134.5 361.192,-134.5"/>
<text text-anchor="start" x="369.192" y="-170.5" font-family="Helvetica,sans-Serif" font-size="10.00">Tomographer::Tools</text>
<text text-anchor="start" x="369.192" y="-160.5" font-family="Helvetica,sans-Serif" font-size="10.00">::StaticOrDynamic&lt; int,</text>
<text text-anchor="start" x="369.192" y="-150.5" font-family="Helvetica,sans-Serif" font-size="10.00">(NumLevelsCTime==Eigen</text>
<text text-anchor="middle" x="439.719" y="-140.5" font-family="Helvetica,sans-Serif" font-size="10.00">::Dynamic), NumLevelsCTime &gt;</text>
</a>
</g>
</g>
<!-- Node5&#45;&gt;Node3 -->
<g id="edge2" class="edge"><title>Node5&#45;&gt;Node3</title>
<path fill="none" stroke="#9a32cd" stroke-dasharray="5,2" d="M528.44,-145.414C564.661,-140.011 606.206,-133.813 640.935,-128.632"/>
<polygon fill="#9a32cd" stroke="#9a32cd" points="527.749,-141.978 518.375,-146.915 528.782,-148.902 527.749,-141.978"/>
<text text-anchor="middle" x="584.669" y="-143.5" font-family="Helvetica,sans-Serif" font-size="10.00"> numLevels</text>
</g>
<!-- Node6 -->
<g id="node4" class="node"><title>Node6</title>
<g id="a_node4"><a xlink:href="class_tomographer_1_1_tools_1_1_static_or_dynamic.html" target="_top" xlink:title="A type which stores a value possibly known at compile&#45;time. ">
<polygon fill="none" stroke="black" points="0,-67.5 0,-105.5 148.939,-105.5 148.939,-67.5 0,-67.5"/>
<text text-anchor="start" x="8" y="-93.5" font-family="Helvetica,sans-Serif" font-size="10.00">Tomographer::Tools</text>
<text text-anchor="start" x="8" y="-83.5" font-family="Helvetica,sans-Serif" font-size="10.00">::StaticOrDynamic&lt; T</text>
<text text-anchor="middle" x="74.4697" y="-73.5" font-family="Helvetica,sans-Serif" font-size="10.00">_, IsDynamic_, StaticValue_ &gt;</text>
</a>
</g>
</g>
<!-- Node6&#45;&gt;Node5 -->
<g id="edge3" class="edge"><title>Node6&#45;&gt;Node5</title>
<path fill="none" stroke="orange" stroke-dasharray="5,2" d="M130.299,-109.073C142.226,-113.363 154.886,-117.456 166.939,-120.5 231.378,-136.775 306.291,-146.597 361.128,-152.165"/>
<polygon fill="orange" stroke="orange" points="131.51,-105.789 120.916,-105.606 129.084,-112.355 131.51,-105.789"/>
<text text-anchor="start" x="179.723" y="-169.5" font-family="Helvetica,sans-Serif" font-size="10.00"> &lt; int,(NumLevelsCTime</text>
<text text-anchor="start" x="179.723" y="-159.5" font-family="Helvetica,sans-Serif" font-size="10.00">==Eigen::Dynamic), NumLevels</text>
<text text-anchor="middle" x="250.03" y="-149.5" font-family="Helvetica,sans-Serif" font-size="10.00">CTime &gt;</text>
</g>
<!-- Node7 -->
<g id="node5" class="node"><title>Node7</title>
<g id="a_node5"><a xlink:href="class_tomographer_1_1_tools_1_1_static_or_dynamic.html" target="_top" xlink:title="Tomographer::Tools\l::StaticOrDynamic\&lt; int,\l(NumTrackValuesCTime=\l=Eigen::Dynamic), NumTrackValues\lCTime \&gt;">
<polygon fill="none" stroke="black" points="351.548,-57.5 351.548,-115.5 527.89,-115.5 527.89,-57.5 351.548,-57.5"/>
<text text-anchor="start" x="359.548" y="-103.5" font-family="Helvetica,sans-Serif" font-size="10.00">Tomographer::Tools</text>
<text text-anchor="start" x="359.548" y="-93.5" font-family="Helvetica,sans-Serif" font-size="10.00">::StaticOrDynamic&lt; int,</text>
<text text-anchor="start" x="359.548" y="-83.5" font-family="Helvetica,sans-Serif" font-size="10.00">(NumTrackValuesCTime=</text>
<text text-anchor="start" x="359.548" y="-73.5" font-family="Helvetica,sans-Serif" font-size="10.00">=Eigen::Dynamic), NumTrackValues</text>
<text text-anchor="middle" x="439.719" y="-63.5" font-family="Helvetica,sans-Serif" font-size="10.00">CTime &gt;</text>
</a>
</g>
</g>
<!-- Node6&#45;&gt;Node7 -->
<g id="edge5" class="edge"><title>Node6&#45;&gt;Node7</title>
<path fill="none" stroke="orange" stroke-dasharray="5,2" d="M159.131,-86.5C216.66,-86.5 292.901,-86.5 351.235,-86.5"/>
<polygon fill="orange" stroke="orange" points="158.979,-83.0001 148.979,-86.5 158.979,-90.0001 158.979,-83.0001"/>
<text text-anchor="start" x="166.939" y="-108.5" font-family="Helvetica,sans-Serif" font-size="10.00"> &lt; int,(NumTrackValuesCTime</text>
<text text-anchor="start" x="166.939" y="-98.5" font-family="Helvetica,sans-Serif" font-size="10.00">==Eigen::Dynamic), NumTrackValues</text>
<text text-anchor="middle" x="250.03" y="-88.5" font-family="Helvetica,sans-Serif" font-size="10.00">CTime &gt;</text>
</g>
<!-- Node8 -->
<g id="node6" class="node"><title>Node8</title>
<g id="a_node6"><a xlink:href="class_tomographer_1_1_tools_1_1_static_or_dynamic.html" target="_top" xlink:title="Tomographer::Tools\l::Dynamic),(SamplesSizeCTime\l\&lt; 0 ? 0 :SamplesSizeCTime)\&gt;">
<polygon fill="none" stroke="black" points="361.055,-0.5 361.055,-38.5 518.383,-38.5 518.383,-0.5 361.055,-0.5"/>
<text text-anchor="start" x="369.055" y="-26.5" font-family="Helvetica,sans-Serif" font-size="10.00">Tomographer::Tools</text>
<text text-anchor="start" x="369.055" y="-16.5" font-family="Helvetica,sans-Serif" font-size="10.00">::Dynamic),(SamplesSizeCTime</text>
<text text-anchor="middle" x="439.719" y="-6.5" font-family="Helvetica,sans-Serif" font-size="10.00">&lt; 0 ? 0 :SamplesSizeCTime)&gt;</text>
</a>
</g>
</g>
<!-- Node6&#45;&gt;Node8 -->
<g id="edge7" class="edge"><title>Node6&#45;&gt;Node8</title>
<path fill="none" stroke="orange" stroke-dasharray="5,2" d="M116.941,-62.6112C132.191,-54.8991 149.905,-47.1485 166.939,-42.5 230.781,-25.0791 305.912,-19.8242 360.982,-18.644"/>
<polygon fill="orange" stroke="orange" points="115.041,-59.6543 107.791,-67.3801 118.277,-65.8617 115.041,-59.6543"/>
<text text-anchor="start" x="182.354" y="-74.5" font-family="Helvetica,sans-Serif" font-size="10.00"> &lt; CountIntType,(SamplesSize</text>
<text text-anchor="start" x="182.354" y="-64.5" font-family="Helvetica,sans-Serif" font-size="10.00">CTime==Eigen::Dynamic),</text>
<text text-anchor="start" x="182.354" y="-54.5" font-family="Helvetica,sans-Serif" font-size="10.00">(SamplesSizeCTime&lt; 0 ? 0</text>
<text text-anchor="middle" x="250.03" y="-44.5" font-family="Helvetica,sans-Serif" font-size="10.00"> :SamplesSizeCTime)&gt;</text>
</g>
<!-- Node7&#45;&gt;Node3 -->
<g id="edge4" class="edge"><title>Node7&#45;&gt;Node3</title>
<path fill="none" stroke="#9a32cd" stroke-dasharray="5,2" d="M538.402,-97.518C572.127,-101.322 609.346,-105.52 640.929,-109.082"/>
<polygon fill="#9a32cd" stroke="#9a32cd" points="538.387,-93.9942 528.058,-96.3512 537.602,-100.95 538.387,-93.9942"/>
<text text-anchor="middle" x="584.669" y="-108.5" font-family="Helvetica,sans-Serif" font-size="10.00"> numTrackValues</text>
</g>
<!-- Node8&#45;&gt;Node3 -->
<g id="edge6" class="edge"><title>Node8&#45;&gt;Node3</title>
<path fill="none" stroke="#9a32cd" stroke-dasharray="5,2" d="M508.866,-41.8139C515.45,-44.0436 522.018,-46.2973 528.317,-48.5 580.641,-66.7963 640.701,-89.1753 678.388,-103.387"/>
<polygon fill="#9a32cd" stroke="#9a32cd" points="509.833,-38.4466 499.239,-38.5728 507.6,-45.0807 509.833,-38.4466"/>
<text text-anchor="middle" x="584.669" y="-83.5" font-family="Helvetica,sans-Serif" font-size="10.00"> samplesSize</text>
</g>
</g>
</svg>
