<?xml version="1.0" encoding="UTF-8" standalone="no"?>
<!DOCTYPE svg PUBLIC "-//W3C//DTD SVG 1.1//EN"
 "http://www.w3.org/Graphics/SVG/1.1/DTD/svg11.dtd">
<!-- Generated by graphviz version 2.38.0 (20140413.2041)
 -->
<!-- Title: Tomographer::AveragedHistogram&lt; HistogramType_, RealAvgType &gt; Pages: 1 -->
<svg width="1344pt" height="94pt"
 viewBox="0.00 0.00 1343.68 94.00" xmlns="http://www.w3.org/2000/svg" xmlns:xlink="http://www.w3.org/1999/xlink">
<g id="graph0" class="graph" transform="scale(1 1) rotate(0) translate(4 90)">
<title>Tomographer::AveragedHistogram&lt; HistogramType_, RealAvgType &gt;</title>
<!-- Node0 -->
<g id="node1" class="node"><title>Node0</title>
<polygon fill="#bfbfbf" stroke="black" points="791.771,-25.5 791.771,-53.5 962.683,-53.5 962.683,-25.5 791.771,-25.5"/>
<text text-anchor="start" x="799.771" y="-41.5" font-family="Helvetica,sans-Serif" font-size="10.00">Tomographer::AveragedHistogram</text>
<text text-anchor="middle" x="877.227" y="-31.5" font-family="Helvetica,sans-Serif" font-size="10.00">&lt; HistogramType_, RealAvgType &gt;</text>
</g>
<!-- Node5 -->
<g id="node6" class="node"><title>Node5</title>
<g id="a_node6"><a xlink:href="class_tomographer_1_1_averaged_histogram.html" target="_top" xlink:title="Tomographer::AveragedHistogram\l\&lt; SimpleHistogramType, CountRealType \&gt;">
<polygon fill="none" stroke="black" points="1130.14,-49.5 1130.14,-77.5 1335.68,-77.5 1335.68,-49.5 1130.14,-49.5"/>
<text text-anchor="start" x="1138.14" y="-65.5" font-family="Helvetica,sans-Serif" font-size="10.00">Tomographer::AveragedHistogram</text>
<text text-anchor="middle" x="1232.91" y="-55.5" font-family="Helvetica,sans-Serif" font-size="10.00">&lt; SimpleHistogramType, CountRealType &gt;</text>
</a>
</g>
</g>
<!-- Node0&#45;&gt;Node5 -->
<g id="edge6" class="edge"><title>Node0&#45;&gt;Node5</title>
<path fill="none" stroke="orange" stroke-dasharray="5,2" d="M973.112,-45.9387C1021.55,-49.2257 1080.53,-53.2274 1129.94,-56.5803"/>
<polygon fill="orange" stroke="orange" points="973.157,-42.4337 962.943,-45.2486 972.683,-49.4177 973.157,-42.4337"/>
<text text-anchor="start" x="990.414" y="-66.5" font-family="Helvetica,sans-Serif" font-size="10.00"> &lt; SimpleHistogramType,</text>
<text text-anchor="middle" x="1046.41" y="-56.5" font-family="Helvetica,sans-Serif" font-size="10.00"> CountRealType &gt;</text>
</g>
<!-- Node6 -->
<g id="node7" class="node"><title>Node6</title>
<g id="a_node7"><a xlink:href="class_tomographer_1_1_averaged_histogram.html" target="_top" xlink:title="Tomographer::AveragedHistogram\l\&lt; HistogramType, CountRealType \&gt;">
<polygon fill="none" stroke="black" points="1145.42,-2.5 1145.42,-30.5 1320.4,-30.5 1320.4,-2.5 1145.42,-2.5"/>
<text text-anchor="start" x="1153.42" y="-18.5" font-family="Helvetica,sans-Serif" font-size="10.00">Tomographer::AveragedHistogram</text>
<text text-anchor="middle" x="1232.91" y="-8.5" font-family="Helvetica,sans-Serif" font-size="10.00">&lt; HistogramType, CountRealType &gt;</text>
</a>
</g>
</g>
<!-- Node0&#45;&gt;Node6 -->
<g id="edge7" class="edge"><title>Node0&#45;&gt;Node6</title>
<path fill="none" stroke="orange" stroke-dasharray="5,2" d="M959.93,-23.9873C966.931,-23.0105 973.919,-22.1574 980.683,-21.5 1035.28,-16.1923 1096.86,-14.8926 1145.39,-14.944"/>
<polygon fill="orange" stroke="orange" points="959.07,-20.5763 949.688,-25.4989 960.092,-27.5013 959.07,-20.5763"/>
<text text-anchor="start" x="980.683" y="-33.5" font-family="Helvetica,sans-Serif" font-size="10.00"> &lt; HistogramType, CountReal</text>
<text text-anchor="middle" x="1046.41" y="-23.5" font-family="Helvetica,sans-Serif" font-size="10.00">Type &gt;</text>
</g>
<!-- Node1 -->
<g id="node2" class="node"><title>Node1</title>
<g id="a_node2"><a xlink:href="class_tomographer_1_1_histogram_with_error_bars.html" target="_top" xlink:title="Tomographer::HistogramWith\lErrorBars\&lt; HistogramType\l_::Scalar, RealAvgType \&gt;">
<polygon fill="none" stroke="black" points="608.727,-20.5 608.727,-58.5 754.771,-58.5 754.771,-20.5 608.727,-20.5"/>
<text text-anchor="start" x="616.727" y="-46.5" font-family="Helvetica,sans-Serif" font-size="10.00">Tomographer::HistogramWith</text>
<text text-anchor="start" x="616.727" y="-36.5" font-family="Helvetica,sans-Serif" font-size="10.00">ErrorBars&lt; HistogramType</text>
<text text-anchor="middle" x="681.749" y="-26.5" font-family="Helvetica,sans-Serif" font-size="10.00">_::Scalar, RealAvgType &gt;</text>
</a>
</g>
</g>
<!-- Node1&#45;&gt;Node0 -->
<g id="edge1" class="edge"><title>Node1&#45;&gt;Node0</title>
<path fill="none" stroke="midnightblue" d="M765.057,-39.5C773.88,-39.5 782.868,-39.5 791.716,-39.5"/>
<polygon fill="midnightblue" stroke="midnightblue" points="764.793,-36.0001 754.793,-39.5 764.793,-43.0001 764.793,-36.0001"/>
</g>
<!-- Node2 -->
<g id="node3" class="node"><title>Node2</title>
<g id="a_node3"><a xlink:href="class_tomographer_1_1_histogram.html" target="_top" xlink:title="Tomographer::Histogram\l\&lt; HistogramType_::Scalar,\l RealAvgType \&gt;">
<polygon fill="none" stroke="black" points="300.896,-47.5 300.896,-85.5 434.46,-85.5 434.46,-47.5 300.896,-47.5"/>
<text text-anchor="start" x="308.896" y="-73.5" font-family="Helvetica,sans-Serif" font-size="10.00">Tomographer::Histogram</text>
<text text-anchor="start" x="308.896" y="-63.5" font-family="Helvetica,sans-Serif" font-size="10.00">&lt; HistogramType_::Scalar,</text>
<text text-anchor="middle" x="367.678" y="-53.5" font-family="Helvetica,sans-Serif" font-size="10.00"> RealAvgType &gt;</text>
</a>
</g>
</g>
<!-- Node2&#45;&gt;Node1 -->
<g id="edge2" class="edge"><title>Node2&#45;&gt;Node1</title>
<path fill="none" stroke="midnightblue" d="M444.828,-60.0461C487.692,-56.3977 542.196,-51.7326 590.727,-47.5 596.51,-46.9956 602.502,-46.4699 608.522,-45.9395"/>
<polygon fill="midnightblue" stroke="midnightblue" points="444.42,-56.5681 434.753,-60.9032 445.014,-63.5429 444.42,-56.5681"/>
</g>
<!-- Node3 -->
<g id="node4" class="node"><title>Node3</title>
<g id="a_node4"><a xlink:href="class_tomographer_1_1_histogram.html" target="_top" xlink:title="Stores a histogram. ">
<polygon fill="none" stroke="black" points="0,-28.5 0,-56.5 126.63,-56.5 126.63,-28.5 0,-28.5"/>
<text text-anchor="start" x="8" y="-44.5" font-family="Helvetica,sans-Serif" font-size="10.00">Tomographer::Histogram</text>
<text text-anchor="middle" x="63.3149" y="-34.5" font-family="Helvetica,sans-Serif" font-size="10.00">&lt; Scalar_, CountType_ &gt;</text>
</a>
</g>
</g>
<!-- Node3&#45;&gt;Node2 -->
<g id="edge3" class="edge"><title>Node3&#45;&gt;Node2</title>
<path fill="none" stroke="orange" stroke-dasharray="5,2" d="M137.027,-48.2715C186.847,-52.226 252.396,-57.4289 300.707,-61.2636"/>
<polygon fill="orange" stroke="orange" points="137.21,-44.7751 126.965,-47.4728 136.656,-51.7532 137.21,-44.7751"/>
<text text-anchor="start" x="144.63" y="-69.5" font-family="Helvetica,sans-Serif" font-size="10.00"> &lt; HistogramType_::Scalar,</text>
<text text-anchor="middle" x="204.801" y="-59.5" font-family="Helvetica,sans-Serif" font-size="10.00"> RealAvgType &gt;</text>
</g>
<!-- Node4 -->
<g id="node5" class="node"><title>Node4</title>
<g id="a_node5"><a xlink:href="class_tomographer_1_1_histogram_with_error_bars.html" target="_top" xlink:title="Stores a histogram along with error bars. ">
<polygon fill="none" stroke="black" points="282.972,-0.5 282.972,-28.5 452.385,-28.5 452.385,-0.5 282.972,-0.5"/>
<text text-anchor="start" x="290.972" y="-16.5" font-family="Helvetica,sans-Serif" font-size="10.00">Tomographer::HistogramWith</text>
<text text-anchor="middle" x="367.678" y="-6.5" font-family="Helvetica,sans-Serif" font-size="10.00">ErrorBars&lt; Scalar_, CountType_ &gt;</text>
</a>
</g>
</g>
<!-- Node3&#45;&gt;Node4 -->
<g id="edge5" class="edge"><title>Node3&#45;&gt;Node4</title>
<path fill="none" stroke="midnightblue" d="M136.997,-35.7694C180.925,-31.7015 237.089,-26.5004 282.883,-22.2598"/>
<polygon fill="midnightblue" stroke="midnightblue" points="136.599,-32.2911 126.965,-36.6984 137.245,-39.2613 136.599,-32.2911"/>
</g>
<!-- Node4&#45;&gt;Node1 -->
<g id="edge4" class="edge"><title>Node4&#45;&gt;Node1</title>
<path fill="none" stroke="orange" stroke-dasharray="5,2" d="M462.783,-18.4658C502.343,-20.5333 548.823,-23.486 590.727,-27.5 596.534,-28.0563 602.543,-28.7024 608.574,-29.4009"/>
<polygon fill="orange" stroke="orange" points="462.783,-14.9613 452.617,-17.9459 462.425,-21.9522 462.783,-14.9613"/>
<text text-anchor="start" x="470.385" y="-39.5" font-family="Helvetica,sans-Serif" font-size="10.00"> &lt; HistogramType_::Scalar,</text>
<text text-anchor="middle" x="530.556" y="-29.5" font-family="Helvetica,sans-Serif" font-size="10.00"> RealAvgType &gt;</text>
</g>
</g>
</svg>
