<?xml version="1.0" encoding="UTF-8" standalone="no"?>
<!DOCTYPE svg PUBLIC "-//W3C//DTD SVG 1.1//EN"
 "http://www.w3.org/Graphics/SVG/1.1/DTD/svg11.dtd">
<!-- Generated by graphviz version 2.38.0 (20140413.2041)
 -->
<!-- Title: Tomographer::AggregatedHistogramWithErrorBars&lt; HistogramType_, CountRealType_ &gt; Pages: 1 -->
<svg width="2872pt" height="505pt"
 viewBox="0.00 0.00 2871.66 505.26" xmlns="http://www.w3.org/2000/svg" xmlns:xlink="http://www.w3.org/1999/xlink">
<g id="graph0" class="graph" transform="scale(1 1) rotate(0) translate(4 501.26)">
<title>Tomographer::AggregatedHistogramWithErrorBars&lt; HistogramType_, CountRealType_ &gt;</title>
<!-- Node2 -->
<g id="node1" class="node"><title>Node2</title>
<polygon fill="#bfbfbf" stroke="black" points="2685.9,-240.76 2685.9,-278.76 2863.66,-278.76 2863.66,-240.76 2685.9,-240.76"/>
<text text-anchor="start" x="2693.9" y="-266.76" font-family="Helvetica,sans-Serif" font-size="10.00">Tomographer::AggregatedHistogram</text>
<text text-anchor="start" x="2693.9" y="-256.76" font-family="Helvetica,sans-Serif" font-size="10.00">WithErrorBars&lt; HistogramType</text>
<text text-anchor="middle" x="2774.78" y="-246.76" font-family="Helvetica,sans-Serif" font-size="10.00">_, CountRealType_ &gt;</text>
</g>
<!-- Node3 -->
<g id="node2" class="node"><title>Node3</title>
<polygon fill="none" stroke="#bfbfbf" points="2340.29,-292.76 2340.29,-360.76 2543.88,-360.76 2543.88,-292.76 2340.29,-292.76"/>
<text text-anchor="start" x="2348.29" y="-348.76" font-family="Helvetica,sans-Serif" font-size="10.00">Tools::NeedOwnOperatorNew</text>
<text text-anchor="start" x="2348.29" y="-338.76" font-family="Helvetica,sans-Serif" font-size="10.00">::ProviderType&lt; AveragedHistogram</text>
<text text-anchor="start" x="2348.29" y="-328.76" font-family="Helvetica,sans-Serif" font-size="10.00">&lt; HistogramType_, CountRealType</text>
<text text-anchor="start" x="2348.29" y="-318.76" font-family="Helvetica,sans-Serif" font-size="10.00">_ &gt;, AveragedHistogram&lt; Histogram</text>
<text text-anchor="start" x="2348.29" y="-308.76" font-family="Helvetica,sans-Serif" font-size="10.00">&lt; HistogramType_::Scalar, HistogramType</text>
<text text-anchor="middle" x="2442.08" y="-298.76" font-family="Helvetica,sans-Serif" font-size="10.00">_::CountType &gt;, CountRealType_ &gt; &gt;</text>
</g>
<!-- Node3&#45;&gt;Node2 -->
<g id="edge1" class="edge"><title>Node3&#45;&gt;Node2</title>
<path fill="none" stroke="midnightblue" d="M2554.01,-304.286C2596.89,-295.599 2645.26,-285.798 2685.69,-277.608"/>
<polygon fill="midnightblue" stroke="midnightblue" points="2553.2,-300.878 2544.1,-306.294 2554.59,-307.739 2553.2,-300.878"/>
</g>
<!-- Node4 -->
<g id="node3" class="node"><title>Node4</title>
<g id="a_node3"><a xlink:href="class_tomographer_1_1_averaged_histogram.html" target="_top" xlink:title="Tomographer::AveragedHistogram\l\&lt; SimpleHistogramType, CountRealType \&gt;">
<polygon fill="none" stroke="black" points="2339.31,-198.76 2339.31,-226.76 2544.85,-226.76 2544.85,-198.76 2339.31,-198.76"/>
<text text-anchor="start" x="2347.31" y="-214.76" font-family="Helvetica,sans-Serif" font-size="10.00">Tomographer::AveragedHistogram</text>
<text text-anchor="middle" x="2442.08" y="-204.76" font-family="Helvetica,sans-Serif" font-size="10.00">&lt; SimpleHistogramType, CountRealType &gt;</text>
</a>
</g>
</g>
<!-- Node4&#45;&gt;Node2 -->
<g id="edge2" class="edge"><title>Node4&#45;&gt;Node2</title>
<path fill="none" stroke="#9a32cd" stroke-dasharray="5,2" d="M2551.88,-228.223C2595.26,-234.389 2644.55,-241.393 2685.63,-247.233"/>
<polygon fill="#9a32cd" stroke="#9a32cd" points="2552.25,-224.74 2541.85,-226.798 2551.26,-231.671 2552.25,-224.74"/>
<text text-anchor="middle" x="2615.38" y="-246.76" font-family="Helvetica,sans-Serif" font-size="10.00"> simple_final_histogram</text>
</g>
<!-- Node5 -->
<g id="node4" class="node"><title>Node5</title>
<g id="a_node4"><a xlink:href="class_tomographer_1_1_histogram_with_error_bars.html" target="_top" xlink:title="Tomographer::HistogramWith\lErrorBars\&lt; SimpleHistogramType\l ::Scalar, CountRealType \&gt;">
<polygon fill="none" stroke="black" points="2003.79,-131.76 2003.79,-169.76 2169.01,-169.76 2169.01,-131.76 2003.79,-131.76"/>
<text text-anchor="start" x="2011.79" y="-157.76" font-family="Helvetica,sans-Serif" font-size="10.00">Tomographer::HistogramWith</text>
<text text-anchor="start" x="2011.79" y="-147.76" font-family="Helvetica,sans-Serif" font-size="10.00">ErrorBars&lt; SimpleHistogramType</text>
<text text-anchor="middle" x="2086.4" y="-137.76" font-family="Helvetica,sans-Serif" font-size="10.00"> ::Scalar, CountRealType &gt;</text>
</a>
</g>
</g>
<!-- Node5&#45;&gt;Node4 -->
<g id="edge3" class="edge"><title>Node5&#45;&gt;Node4</title>
<path fill="none" stroke="midnightblue" d="M2179.4,-166.888C2235.71,-176.759 2307.05,-189.265 2361.02,-198.726"/>
<polygon fill="midnightblue" stroke="midnightblue" points="2179.88,-163.42 2169.43,-165.14 2178.67,-170.314 2179.88,-163.42"/>
</g>
<!-- Node6 -->
<g id="node5" class="node"><title>Node6</title>
<g id="a_node5"><a xlink:href="class_tomographer_1_1_histogram.html" target="_top" xlink:title="Tomographer::Histogram\l\&lt; SimpleHistogramType\l ::Scalar, CountRealType \&gt;">
<polygon fill="none" stroke="black" points="1823.3,-110.76 1823.3,-148.76 1958.54,-148.76 1958.54,-110.76 1823.3,-110.76"/>
<text text-anchor="start" x="1831.3" y="-136.76" font-family="Helvetica,sans-Serif" font-size="10.00">Tomographer::Histogram</text>
<text text-anchor="start" x="1831.3" y="-126.76" font-family="Helvetica,sans-Serif" font-size="10.00">&lt; SimpleHistogramType</text>
<text text-anchor="middle" x="1890.92" y="-116.76" font-family="Helvetica,sans-Serif" font-size="10.00"> ::Scalar, CountRealType &gt;</text>
</a>
</g>
</g>
<!-- Node6&#45;&gt;Node5 -->
<g id="edge4" class="edge"><title>Node6&#45;&gt;Node5</title>
<path fill="none" stroke="midnightblue" d="M1969.06,-138.133C1980.38,-139.362 1992.09,-140.633 2003.51,-141.872"/>
<polygon fill="midnightblue" stroke="midnightblue" points="1969.09,-134.616 1958.77,-137.017 1968.34,-141.576 1969.09,-134.616"/>
</g>
<!-- Node7 -->
<g id="node6" class="node"><title>Node7</title>
<g id="a_node6"><a xlink:href="struct_tomographer_1_1_histogram_params.html" target="_top" xlink:title="Tomographer::HistogramParams\l\&lt; SimpleHistogramType ::Scalar \&gt;">
<polygon fill="none" stroke="black" points="1492.98,-167.76 1492.98,-195.76 1660.72,-195.76 1660.72,-167.76 1492.98,-167.76"/>
<text text-anchor="start" x="1500.98" y="-183.76" font-family="Helvetica,sans-Serif" font-size="10.00">Tomographer::HistogramParams</text>
<text text-anchor="middle" x="1576.85" y="-173.76" font-family="Helvetica,sans-Serif" font-size="10.00">&lt; SimpleHistogramType ::Scalar &gt;</text>
</a>
</g>
</g>
<!-- Node7&#45;&gt;Node6 -->
<g id="edge5" class="edge"><title>Node7&#45;&gt;Node6</title>
<path fill="none" stroke="#9a32cd" stroke-dasharray="5,2" d="M1661.63,-165.91C1667.69,-164.824 1673.71,-163.764 1679.56,-162.76 1727.47,-154.529 1781.66,-146.047 1823.05,-139.743"/>
<polygon fill="#9a32cd" stroke="#9a32cd" points="1660.63,-162.534 1651.41,-167.757 1661.87,-169.422 1660.63,-162.534"/>
<text text-anchor="middle" x="1739.73" y="-164.76" font-family="Helvetica,sans-Serif" font-size="10.00"> params</text>
</g>
<!-- Node8 -->
<g id="node7" class="node"><title>Node8</title>
<g id="a_node7"><a xlink:href="class_tomographer_1_1_histogram.html" target="_top" xlink:title="Stores a histogram. ">
<polygon fill="none" stroke="black" points="1192.24,-179.76 1192.24,-207.76 1318.87,-207.76 1318.87,-179.76 1192.24,-179.76"/>
<text text-anchor="start" x="1200.24" y="-195.76" font-family="Helvetica,sans-Serif" font-size="10.00">Tomographer::Histogram</text>
<text text-anchor="middle" x="1255.55" y="-185.76" font-family="Helvetica,sans-Serif" font-size="10.00">&lt; Scalar_, CountType_ &gt;</text>
</a>
</g>
</g>
<!-- Node8&#45;&gt;Node6 -->
<g id="edge17" class="edge"><title>Node8&#45;&gt;Node6</title>
<path fill="none" stroke="orange" stroke-dasharray="5,2" d="M1294.17,-175.449C1311.88,-167.577 1333.52,-158.998 1353.8,-153.76 1518.21,-111.309 1720.25,-117.138 1823.01,-124.019"/>
<polygon fill="orange" stroke="orange" points="1292.43,-172.398 1284.78,-179.725 1295.33,-178.769 1292.43,-172.398"/>
<text text-anchor="start" x="1517.23" y="-140.76" font-family="Helvetica,sans-Serif" font-size="10.00"> &lt; SimpleHistogramType</text>
<text text-anchor="middle" x="1576.85" y="-130.76" font-family="Helvetica,sans-Serif" font-size="10.00"> ::Scalar, CountRealType &gt;</text>
</g>
<!-- Node8&#45;&gt;Node7 -->
<g id="edge6" class="edge"><title>Node8&#45;&gt;Node7</title>
<path fill="none" stroke="#9a32cd" stroke-dasharray="5,2" d="M1301.27,-176.323C1317.55,-170.831 1336.26,-165.489 1353.8,-162.76 1406.65,-154.541 1420.89,-157.829 1474.14,-162.76 1486.04,-163.862 1498.61,-165.673 1510.72,-167.751"/>
<polygon fill="#9a32cd" stroke="#9a32cd" points="1299.77,-173.139 1291.49,-179.739 1302.08,-179.748 1299.77,-173.139"/>
<text text-anchor="middle" x="1413.97" y="-174.76" font-family="Helvetica,sans-Serif" font-size="10.00"> min</text>
<text text-anchor="middle" x="1413.97" y="-164.76" font-family="Helvetica,sans-Serif" font-size="10.00">max</text>
</g>
<!-- Node17 -->
<g id="node16" class="node"><title>Node17</title>
<g id="a_node16"><a xlink:href="class_tomographer_1_1_histogram_with_error_bars.html" target="_top" xlink:title="Stores a histogram along with error bars. ">
<polygon fill="none" stroke="black" points="1492.14,-214.76 1492.14,-242.76 1661.56,-242.76 1661.56,-214.76 1492.14,-214.76"/>
<text text-anchor="start" x="1500.14" y="-230.76" font-family="Helvetica,sans-Serif" font-size="10.00">Tomographer::HistogramWith</text>
<text text-anchor="middle" x="1576.85" y="-220.76" font-family="Helvetica,sans-Serif" font-size="10.00">ErrorBars&lt; Scalar_, CountType_ &gt;</text>
</a>
</g>
</g>
<!-- Node8&#45;&gt;Node17 -->
<g id="edge20" class="edge"><title>Node8&#45;&gt;Node17</title>
<path fill="none" stroke="midnightblue" d="M1328.96,-201.698C1377.39,-207.007 1441.28,-214.01 1491.93,-219.562"/>
<polygon fill="midnightblue" stroke="midnightblue" points="1329.2,-198.202 1318.87,-200.592 1328.43,-205.161 1329.2,-198.202"/>
</g>
<!-- Node20 -->
<g id="node19" class="node"><title>Node20</title>
<g id="a_node19"><a xlink:href="class_tomographer_1_1_histogram.html" target="_top" xlink:title="Tomographer::Histogram\l\&lt; HistogramType_::Scalar,\l RealAvgType \&gt;">
<polygon fill="none" stroke="black" points="1510.07,-312.76 1510.07,-350.76 1643.63,-350.76 1643.63,-312.76 1510.07,-312.76"/>
<text text-anchor="start" x="1518.07" y="-338.76" font-family="Helvetica,sans-Serif" font-size="10.00">Tomographer::Histogram</text>
<text text-anchor="start" x="1518.07" y="-328.76" font-family="Helvetica,sans-Serif" font-size="10.00">&lt; HistogramType_::Scalar,</text>
<text text-anchor="middle" x="1576.85" y="-318.76" font-family="Helvetica,sans-Serif" font-size="10.00"> RealAvgType &gt;</text>
</a>
</g>
</g>
<!-- Node8&#45;&gt;Node20 -->
<g id="edge28" class="edge"><title>Node8&#45;&gt;Node20</title>
<path fill="none" stroke="orange" stroke-dasharray="5,2" d="M1306.69,-211.04C1321.76,-216.023 1338.39,-221.311 1353.8,-225.76 1406.76,-241.052 1424.34,-232.131 1474.14,-255.76 1505.01,-270.407 1535.78,-295.178 1555.26,-312.445"/>
<polygon fill="orange" stroke="orange" points="1307.63,-207.664 1297.04,-207.821 1305.42,-214.304 1307.63,-207.664"/>
<text text-anchor="start" x="1353.8" y="-267.76" font-family="Helvetica,sans-Serif" font-size="10.00"> &lt; HistogramType_::Scalar,</text>
<text text-anchor="middle" x="1413.97" y="-257.76" font-family="Helvetica,sans-Serif" font-size="10.00"> RealAvgType &gt;</text>
</g>
<!-- Node24 -->
<g id="node23" class="node"><title>Node24</title>
<g id="a_node23"><a xlink:href="class_tomographer_1_1_histogram.html" target="_top" xlink:title="Tomographer::Histogram\l\&lt; HistogramType ::Scalar,\l CountRealType \&gt;">
<polygon fill="none" stroke="black" points="1511.46,-427.76 1511.46,-465.76 1642.24,-465.76 1642.24,-427.76 1511.46,-427.76"/>
<text text-anchor="start" x="1519.46" y="-453.76" font-family="Helvetica,sans-Serif" font-size="10.00">Tomographer::Histogram</text>
<text text-anchor="start" x="1519.46" y="-443.76" font-family="Helvetica,sans-Serif" font-size="10.00">&lt; HistogramType ::Scalar,</text>
<text text-anchor="middle" x="1576.85" y="-433.76" font-family="Helvetica,sans-Serif" font-size="10.00"> CountRealType &gt;</text>
</a>
</g>
</g>
<!-- Node8&#45;&gt;Node24 -->
<g id="edge37" class="edge"><title>Node8&#45;&gt;Node24</title>
<path fill="none" stroke="orange" stroke-dasharray="5,2" d="M1312.26,-212.329C1320.91,-217.013 1329.17,-222.76 1335.8,-229.76 1350.9,-245.693 1338.27,-260.242 1353.8,-275.76 1394.42,-316.349 1431.94,-283.824 1474.14,-322.76 1487.58,-335.161 1481.67,-344.766 1492.14,-359.76 1510.14,-385.54 1535.78,-410.978 1553.94,-427.625"/>
<polygon fill="orange" stroke="orange" points="1313.67,-209.12 1303.15,-207.824 1310.56,-215.395 1313.67,-209.12"/>
<text text-anchor="start" x="1355.19" y="-334.76" font-family="Helvetica,sans-Serif" font-size="10.00"> &lt; HistogramType ::Scalar,</text>
<text text-anchor="middle" x="1413.97" y="-324.76" font-family="Helvetica,sans-Serif" font-size="10.00"> CountRealType &gt;</text>
</g>
<!-- Node9 -->
<g id="node8" class="node"><title>Node9</title>
<polygon fill="none" stroke="#bfbfbf" points="897.361,-184.76 897.361,-202.76 967.292,-202.76 967.292,-184.76 897.361,-184.76"/>
<text text-anchor="middle" x="932.327" y="-190.76" font-family="Helvetica,sans-Serif" font-size="10.00">CountType_</text>
</g>
<!-- Node9&#45;&gt;Node8 -->
<g id="edge7" class="edge"><title>Node9&#45;&gt;Node8</title>
<path fill="none" stroke="#9a32cd" stroke-dasharray="5,2" d="M977.631,-193.76C1033.24,-193.76 1128.95,-193.76 1192,-193.76"/>
<polygon fill="#9a32cd" stroke="#9a32cd" points="977.399,-190.261 967.399,-193.76 977.399,-197.261 977.399,-190.261"/>
<text text-anchor="middle" x="1093.94" y="-195.76" font-family="Helvetica,sans-Serif" font-size="10.00"> off_chart</text>
</g>
<!-- Node10 -->
<g id="node9" class="node"><title>Node10</title>
<g id="a_node9"><a doxygen="/Users/philippe/Research/projects/tomographer/doc/Eigen.doxytags:http://eigen.tuxfamily.org/dox/" xlink:href="http://eigen.tuxfamily.org/dox/classEigen_1_1Array.html" target="_top" xlink:title="Eigen::Array\&lt; CountType,\l Eigen::Dynamic, 1 \&gt;">
<polygon fill="none" stroke="black" points="866.932,-122.76 866.932,-150.76 997.722,-150.76 997.722,-122.76 866.932,-122.76"/>
<text text-anchor="start" x="874.932" y="-138.76" font-family="Helvetica,sans-Serif" font-size="10.00">Eigen::Array&lt; CountType,</text>
<text text-anchor="middle" x="932.327" y="-128.76" font-family="Helvetica,sans-Serif" font-size="10.00"> Eigen::Dynamic, 1 &gt;</text>
</a>
</g>
</g>
<!-- Node10&#45;&gt;Node5 -->
<g id="edge18" class="edge"><title>Node10&#45;&gt;Node5</title>
<path fill="none" stroke="#9a32cd" stroke-dasharray="5,2" d="M947.803,-113.984C964.558,-89.7316 994.52,-52.3403 1030.58,-33.7604 1119.91,12.273 1154.06,-2.76044 1254.55,-2.76044 1254.55,-2.76044 1254.55,-2.76044 1891.92,-2.76044 1975.87,-2.76044 2045.95,-91.7426 2073.2,-131.715"/>
<polygon fill="#9a32cd" stroke="#9a32cd" points="944.708,-112.314 942.043,-122.569 950.521,-116.215 944.708,-112.314"/>
<text text-anchor="middle" x="1576.85" y="-4.76044" font-family="Helvetica,sans-Serif" font-size="10.00"> delta</text>
</g>
<!-- Node10&#45;&gt;Node6 -->
<g id="edge16" class="edge"><title>Node10&#45;&gt;Node6</title>
<path fill="none" stroke="#9a32cd" stroke-dasharray="5,2" d="M954.111,-115.625C972.455,-98.4936 1000.84,-75.4965 1030.58,-64.7604 1191.38,-6.70562 1638.74,-7.70144 1799.9,-64.7604 1827.16,-74.4112 1853.38,-95.0684 1870.42,-110.521"/>
<polygon fill="#9a32cd" stroke="#9a32cd" points="951.681,-113.106 946.889,-122.555 956.528,-118.156 951.681,-113.106"/>
<text text-anchor="middle" x="1413.97" y="-24.7604" font-family="Helvetica,sans-Serif" font-size="10.00"> bins</text>
</g>
<!-- Node10&#45;&gt;Node8 -->
<g id="edge8" class="edge"><title>Node10&#45;&gt;Node8</title>
<path fill="none" stroke="#9a32cd" stroke-dasharray="5,2" d="M1007.8,-149.975C1063.73,-159.901 1139.47,-173.339 1192.22,-182.7"/>
<polygon fill="#9a32cd" stroke="#9a32cd" points="1008.4,-146.528 997.945,-148.227 1007.18,-153.42 1008.4,-146.528"/>
<text text-anchor="middle" x="1093.94" y="-177.76" font-family="Helvetica,sans-Serif" font-size="10.00"> bins</text>
</g>
<!-- Node10&#45;&gt;Node17 -->
<g id="edge21" class="edge"><title>Node10&#45;&gt;Node17</title>
<path fill="none" stroke="#9a32cd" stroke-dasharray="5,2" d="M1008.06,-129.082C1138.81,-117.25 1402.07,-101.051 1474.14,-153.76 1493.54,-167.95 1474.64,-188.282 1492.14,-204.76 1496.32,-208.699 1501.11,-211.997 1506.23,-214.758"/>
<polygon fill="#9a32cd" stroke="#9a32cd" points="1007.37,-125.63 997.733,-130.032 1008.01,-132.601 1007.37,-125.63"/>
<text text-anchor="middle" x="1255.55" y="-121.76" font-family="Helvetica,sans-Serif" font-size="10.00"> delta</text>
</g>
<!-- Node19 -->
<g id="node18" class="node"><title>Node19</title>
<g id="a_node18"><a xlink:href="class_tomographer_1_1_histogram_with_error_bars.html" target="_top" xlink:title="Tomographer::HistogramWith\lErrorBars\&lt; HistogramType\l_::Scalar, RealAvgType \&gt;">
<polygon fill="none" stroke="black" points="1817.9,-225.76 1817.9,-263.76 1963.94,-263.76 1963.94,-225.76 1817.9,-225.76"/>
<text text-anchor="start" x="1825.9" y="-251.76" font-family="Helvetica,sans-Serif" font-size="10.00">Tomographer::HistogramWith</text>
<text text-anchor="start" x="1825.9" y="-241.76" font-family="Helvetica,sans-Serif" font-size="10.00">ErrorBars&lt; HistogramType</text>
<text text-anchor="middle" x="1890.92" y="-231.76" font-family="Helvetica,sans-Serif" font-size="10.00">_::Scalar, RealAvgType &gt;</text>
</a>
</g>
</g>
<!-- Node10&#45;&gt;Node19 -->
<g id="edge29" class="edge"><title>Node10&#45;&gt;Node19</title>
<path fill="none" stroke="#9a32cd" stroke-dasharray="5,2" d="M999.223,-120.759C1009.66,-118.738 1020.37,-116.962 1030.58,-115.76 1309.09,-82.9784 1382.65,-86.4933 1661.56,-115.76 1723.62,-122.273 1754.45,-96.9956 1799.9,-139.76 1825.18,-163.548 1795.26,-189.442 1817.9,-215.76 1821.15,-219.542 1824.97,-222.836 1829.12,-225.705"/>
<polygon fill="#9a32cd" stroke="#9a32cd" points="998.437,-117.346 989.329,-122.759 999.825,-124.208 998.437,-117.346"/>
<text text-anchor="middle" x="1413.97" y="-100.76" font-family="Helvetica,sans-Serif" font-size="10.00"> delta</text>
</g>
<!-- Node10&#45;&gt;Node20 -->
<g id="edge25" class="edge"><title>Node10&#45;&gt;Node20</title>
<path fill="none" stroke="#9a32cd" stroke-dasharray="5,2" d="M984.326,-155.391C994.445,-160.62 1004.44,-167.04 1012.58,-174.76 1024.69,-186.261 1017.07,-197.923 1030.58,-207.76 1142.18,-289.069 1231.59,-175.169 1335.8,-265.76 1354.58,-282.081 1334.01,-303.687 1353.8,-318.76 1377.53,-336.836 1453.5,-337.829 1510,-335.775"/>
<polygon fill="#9a32cd" stroke="#9a32cd" points="985.578,-152.109 975.05,-150.92 982.538,-158.415 985.578,-152.109"/>
<text text-anchor="middle" x="1255.55" y="-268.76" font-family="Helvetica,sans-Serif" font-size="10.00"> bins</text>
</g>
<!-- Node23 -->
<g id="node22" class="node"><title>Node23</title>
<g id="a_node22"><a xlink:href="class_tomographer_1_1_histogram_with_error_bars.html" target="_top" xlink:title="Tomographer::HistogramWith\lErrorBars\&lt; HistogramType\l ::Scalar, CountRealType \&gt;">
<polygon fill="none" stroke="black" points="1817.9,-330.76 1817.9,-368.76 1963.94,-368.76 1963.94,-330.76 1817.9,-330.76"/>
<text text-anchor="start" x="1825.9" y="-356.76" font-family="Helvetica,sans-Serif" font-size="10.00">Tomographer::HistogramWith</text>
<text text-anchor="start" x="1825.9" y="-346.76" font-family="Helvetica,sans-Serif" font-size="10.00">ErrorBars&lt; HistogramType</text>
<text text-anchor="middle" x="1890.92" y="-336.76" font-family="Helvetica,sans-Serif" font-size="10.00"> ::Scalar, CountRealType &gt;</text>
</a>
</g>
</g>
<!-- Node10&#45;&gt;Node23 -->
<g id="edge38" class="edge"><title>Node10&#45;&gt;Node23</title>
<path fill="none" stroke="#9a32cd" stroke-dasharray="5,2" d="M988.451,-155.596C997.475,-160.669 1006.01,-166.977 1012.58,-174.76 1031.36,-197.014 1009.76,-217.392 1030.58,-237.76 1078.1,-284.277 1110.33,-261.589 1175.3,-275.76 1246.05,-291.191 1282.86,-254.357 1335.8,-303.76 1360.23,-326.56 1327.5,-356.153 1353.8,-376.76 1423.95,-431.717 1688.5,-389.492 1817.84,-364.616"/>
<polygon fill="#9a32cd" stroke="#9a32cd" points="989.815,-152.363 979.318,-150.926 986.628,-158.595 989.815,-152.363"/>
<text text-anchor="middle" x="1413.97" y="-405.76" font-family="Helvetica,sans-Serif" font-size="10.00"> delta</text>
</g>
<!-- Node10&#45;&gt;Node24 -->
<g id="edge36" class="edge"><title>Node10&#45;&gt;Node24</title>
<path fill="none" stroke="#9a32cd" stroke-dasharray="5,2" d="M990.537,-155.559C999.021,-160.593 1006.83,-166.898 1012.58,-174.76 1046.73,-221.497 999.319,-255.035 1030.58,-303.76 1066.67,-360.025 1109.58,-337.951 1157.3,-384.76 1167.6,-394.86 1162.9,-404.408 1175.3,-411.76 1230.48,-444.457 1412.81,-448.248 1511.33,-447.784"/>
<polygon fill="#9a32cd" stroke="#9a32cd" points="991.983,-152.364 981.51,-150.761 988.697,-158.545 991.983,-152.364"/>
<text text-anchor="middle" x="1255.55" y="-444.76" font-family="Helvetica,sans-Serif" font-size="10.00"> bins</text>
</g>
<!-- Node11 -->
<g id="node10" class="node"><title>Node11</title>
<g id="a_node10"><a doxygen="/Users/philippe/Research/projects/tomographer/doc/Eigen.doxytags:http://eigen.tuxfamily.org/dox/" xlink:href="http://eigen.tuxfamily.org/dox/classEigen_1_1PlainObjectBase.html" target="_top" xlink:title="Eigen::PlainObjectBase\l\&lt; Array\&lt; CountType, Eigen\l::Dynamic, 1, _Options, \l_MaxRows, _MaxCols \&gt; \&gt;">
<polygon fill="none" stroke="black" points="442.27,-91.7604 442.27,-139.76 578.353,-139.76 578.353,-91.7604 442.27,-91.7604"/>
<text text-anchor="start" x="450.27" y="-127.76" font-family="Helvetica,sans-Serif" font-size="10.00">Eigen::PlainObjectBase</text>
<text text-anchor="start" x="450.27" y="-117.76" font-family="Helvetica,sans-Serif" font-size="10.00">&lt; Array&lt; CountType, Eigen</text>
<text text-anchor="start" x="450.27" y="-107.76" font-family="Helvetica,sans-Serif" font-size="10.00">::Dynamic, 1, _Options, </text>
<text text-anchor="middle" x="510.311" y="-97.7604" font-family="Helvetica,sans-Serif" font-size="10.00">_MaxRows, _MaxCols &gt; &gt;</text>
</a>
</g>
</g>
<!-- Node11&#45;&gt;Node10 -->
<g id="edge9" class="edge"><title>Node11&#45;&gt;Node10</title>
<path fill="none" stroke="midnightblue" d="M588.804,-119.635C668.73,-123.631 791.952,-129.792 866.77,-133.533"/>
<polygon fill="midnightblue" stroke="midnightblue" points="588.956,-116.138 578.794,-119.134 588.607,-123.13 588.956,-116.138"/>
</g>
<!-- Node12 -->
<g id="node11" class="node"><title>Node12</title>
<g id="a_node11"><a doxygen="/Users/philippe/Research/projects/tomographer/doc/Eigen.doxytags:http://eigen.tuxfamily.org/dox/" xlink:href="http://eigen.tuxfamily.org/dox/classEigen_1_1PlainObjectBase.html" target="_top" xlink:title="Eigen::PlainObjectBase\l\&lt; Derived \&gt;">
<polygon fill="none" stroke="black" points="0,-132.76 0,-160.76 121.063,-160.76 121.063,-132.76 0,-132.76"/>
<text text-anchor="start" x="8" y="-148.76" font-family="Helvetica,sans-Serif" font-size="10.00">Eigen::PlainObjectBase</text>
<text text-anchor="middle" x="60.5317" y="-138.76" font-family="Helvetica,sans-Serif" font-size="10.00">&lt; Derived &gt;</text>
</a>
</g>
</g>
<!-- Node12&#45;&gt;Node11 -->
<g id="edge10" class="edge"><title>Node12&#45;&gt;Node11</title>
<path fill="none" stroke="orange" stroke-dasharray="5,2" d="M95.6332,-128.172C108.802,-121.977 124.247,-115.866 139.063,-112.76 243.186,-90.9334 367.423,-98.5818 442.25,-106.717"/>
<polygon fill="orange" stroke="orange" points="93.9261,-125.111 86.4879,-132.655 97.0076,-131.396 93.9261,-125.111"/>
<text text-anchor="start" x="148.509" y="-144.76" font-family="Helvetica,sans-Serif" font-size="10.00"> &lt; Array&lt; CountType,</text>
<text text-anchor="start" x="148.509" y="-134.76" font-family="Helvetica,sans-Serif" font-size="10.00"> Eigen::Dynamic, 1,</text>
<text text-anchor="start" x="148.509" y="-124.76" font-family="Helvetica,sans-Serif" font-size="10.00"> _Options, _MaxRows,</text>
<text text-anchor="middle" x="198.807" y="-114.76" font-family="Helvetica,sans-Serif" font-size="10.00"> _MaxCols &gt; &gt;</text>
</g>
<!-- Node14 -->
<g id="node13" class="node"><title>Node14</title>
<g id="a_node13"><a doxygen="/Users/philippe/Research/projects/tomographer/doc/Eigen.doxytags:http://eigen.tuxfamily.org/dox/" xlink:href="http://eigen.tuxfamily.org/dox/classEigen_1_1PlainObjectBase.html" target="_top" xlink:title="Eigen::PlainObjectBase\l\&lt; Array\&lt; _Scalar, _Rows,\l _Cols, _Options, _MaxRows,\l _MaxCols \&gt; \&gt;">
<polygon fill="none" stroke="black" points="276.551,-149.76 276.551,-197.76 424.27,-197.76 424.27,-149.76 276.551,-149.76"/>
<text text-anchor="start" x="284.551" y="-185.76" font-family="Helvetica,sans-Serif" font-size="10.00">Eigen::PlainObjectBase</text>
<text text-anchor="start" x="284.551" y="-175.76" font-family="Helvetica,sans-Serif" font-size="10.00">&lt; Array&lt; _Scalar, _Rows,</text>
<text text-anchor="start" x="284.551" y="-165.76" font-family="Helvetica,sans-Serif" font-size="10.00"> _Cols, _Options, _MaxRows,</text>
<text text-anchor="middle" x="350.41" y="-155.76" font-family="Helvetica,sans-Serif" font-size="10.00"> _MaxCols &gt; &gt;</text>
</a>
</g>
</g>
<!-- Node12&#45;&gt;Node14 -->
<g id="edge13" class="edge"><title>Node12&#45;&gt;Node14</title>
<path fill="none" stroke="orange" stroke-dasharray="5,2" d="M131.33,-155.921C133.939,-156.213 136.524,-156.494 139.063,-156.76 184.611,-161.536 235.829,-165.701 276.321,-168.713"/>
<polygon fill="orange" stroke="orange" points="131.518,-152.419 121.182,-154.745 130.713,-159.373 131.518,-152.419"/>
<text text-anchor="start" x="139.063" y="-189.76" font-family="Helvetica,sans-Serif" font-size="10.00"> &lt; Array&lt; _Scalar, </text>
<text text-anchor="start" x="139.063" y="-179.76" font-family="Helvetica,sans-Serif" font-size="10.00">_Rows, _Cols, _Options,</text>
<text text-anchor="middle" x="198.807" y="-169.76" font-family="Helvetica,sans-Serif" font-size="10.00"> _MaxRows, _MaxCols &gt; &gt;</text>
</g>
<!-- Node13 -->
<g id="node12" class="node"><title>Node13</title>
<g id="a_node12"><a doxygen="/Users/philippe/Research/projects/tomographer/doc/Eigen.doxytags:http://eigen.tuxfamily.org/dox/" xlink:href="http://eigen.tuxfamily.org/dox/classEigen_1_1Array.html" target="_top" xlink:title="Eigen::Array\&lt; _Scalar,\l _Rows, _Cols, _Options,\l _MaxRows, _MaxCols \&gt;">
<polygon fill="none" stroke="black" points="596.353,-147.76 596.353,-185.76 725.18,-185.76 725.18,-147.76 596.353,-147.76"/>
<text text-anchor="start" x="604.353" y="-173.76" font-family="Helvetica,sans-Serif" font-size="10.00">Eigen::Array&lt; _Scalar,</text>
<text text-anchor="start" x="604.353" y="-163.76" font-family="Helvetica,sans-Serif" font-size="10.00"> _Rows, _Cols, _Options,</text>
<text text-anchor="middle" x="660.766" y="-153.76" font-family="Helvetica,sans-Serif" font-size="10.00"> _MaxRows, _MaxCols &gt;</text>
</a>
</g>
</g>
<!-- Node13&#45;&gt;Node10 -->
<g id="edge11" class="edge"><title>Node13&#45;&gt;Node10</title>
<path fill="none" stroke="orange" stroke-dasharray="5,2" d="M735.273,-158.58C776.411,-154.001 827.223,-148.346 866.81,-143.941"/>
<polygon fill="orange" stroke="orange" points="734.858,-155.104 725.307,-159.689 735.633,-162.061 734.858,-155.104"/>
<text text-anchor="start" x="743.18" y="-169.76" font-family="Helvetica,sans-Serif" font-size="10.00"> &lt; CountType, Eigen</text>
<text text-anchor="middle" x="788.629" y="-159.76" font-family="Helvetica,sans-Serif" font-size="10.00">::Dynamic, 1 &gt;</text>
</g>
<!-- Node14&#45;&gt;Node13 -->
<g id="edge12" class="edge"><title>Node14&#45;&gt;Node13</title>
<path fill="none" stroke="midnightblue" d="M434.8,-171.867C485.655,-170.713 549.633,-169.261 596.349,-168.2"/>
<polygon fill="midnightblue" stroke="midnightblue" points="434.404,-168.375 424.486,-172.102 434.563,-175.374 434.404,-168.375"/>
</g>
<!-- Node15 -->
<g id="node14" class="node"><title>Node15</title>
<g id="a_node14"><a xlink:href="struct_tomographer_1_1_histogram_params.html" target="_top" xlink:title="The parameters of a Histogram. ">
<polygon fill="none" stroke="black" points="852.078,-374.76 852.078,-402.76 1012.58,-402.76 1012.58,-374.76 852.078,-374.76"/>
<text text-anchor="start" x="860.078" y="-390.76" font-family="Helvetica,sans-Serif" font-size="10.00">Tomographer::HistogramParams</text>
<text text-anchor="middle" x="932.327" y="-380.76" font-family="Helvetica,sans-Serif" font-size="10.00">&lt; Scalar_ &gt;</text>
</a>
</g>
</g>
<!-- Node15&#45;&gt;Node7 -->
<g id="edge14" class="edge"><title>Node15&#45;&gt;Node7</title>
<path fill="none" stroke="orange" stroke-dasharray="5,2" d="M1022.59,-374.372C1126.47,-356.024 1289.69,-321.716 1335.8,-280.76 1351.91,-266.456 1337.53,-249.874 1353.8,-235.76 1374.71,-217.63 1438.76,-203.224 1492.74,-193.867"/>
<polygon fill="orange" stroke="orange" points="1021.98,-370.926 1012.73,-376.097 1023.18,-377.821 1021.98,-370.926"/>
<text text-anchor="start" x="1200.95" y="-354.76" font-family="Helvetica,sans-Serif" font-size="10.00"> &lt; SimpleHistogramType</text>
<text text-anchor="middle" x="1255.55" y="-344.76" font-family="Helvetica,sans-Serif" font-size="10.00"> ::Scalar &gt;</text>
</g>
<!-- Node21 -->
<g id="node20" class="node"><title>Node21</title>
<g id="a_node20"><a xlink:href="struct_tomographer_1_1_histogram_params.html" target="_top" xlink:title="Tomographer::HistogramParams\l\&lt; HistogramType_::Scalar \&gt;">
<polygon fill="none" stroke="black" points="1175.3,-374.76 1175.3,-402.76 1335.8,-402.76 1335.8,-374.76 1175.3,-374.76"/>
<text text-anchor="start" x="1183.3" y="-390.76" font-family="Helvetica,sans-Serif" font-size="10.00">Tomographer::HistogramParams</text>
<text text-anchor="middle" x="1255.55" y="-380.76" font-family="Helvetica,sans-Serif" font-size="10.00">&lt; HistogramType_::Scalar &gt;</text>
</a>
</g>
</g>
<!-- Node15&#45;&gt;Node21 -->
<g id="edge27" class="edge"><title>Node15&#45;&gt;Node21</title>
<path fill="none" stroke="orange" stroke-dasharray="5,2" d="M1022.77,-388.76C1070.61,-388.76 1129.02,-388.76 1175.23,-388.76"/>
<polygon fill="orange" stroke="orange" points="1022.73,-385.261 1012.73,-388.76 1022.73,-392.261 1022.73,-385.261"/>
<text text-anchor="middle" x="1093.94" y="-390.76" font-family="Helvetica,sans-Serif" font-size="10.00"> &lt; HistogramType_::Scalar &gt;</text>
</g>
<!-- Node25 -->
<g id="node24" class="node"><title>Node25</title>
<g id="a_node24"><a xlink:href="struct_tomographer_1_1_histogram_params.html" target="_top" xlink:title="Tomographer::HistogramParams\l\&lt; HistogramType ::Scalar \&gt;">
<polygon fill="none" stroke="black" points="1175.3,-468.76 1175.3,-496.76 1335.8,-496.76 1335.8,-468.76 1175.3,-468.76"/>
<text text-anchor="start" x="1183.3" y="-484.76" font-family="Helvetica,sans-Serif" font-size="10.00">Tomographer::HistogramParams</text>
<text text-anchor="middle" x="1255.55" y="-474.76" font-family="Helvetica,sans-Serif" font-size="10.00">&lt; HistogramType ::Scalar &gt;</text>
</a>
</g>
</g>
<!-- Node15&#45;&gt;Node25 -->
<g id="edge35" class="edge"><title>Node15&#45;&gt;Node25</title>
<path fill="none" stroke="orange" stroke-dasharray="5,2" d="M991.373,-405.746C1052.98,-423.776 1149.22,-451.936 1206.66,-468.745"/>
<polygon fill="orange" stroke="orange" points="991.998,-402.283 981.417,-402.833 990.032,-409.001 991.998,-402.283"/>
<text text-anchor="middle" x="1093.94" y="-454.76" font-family="Helvetica,sans-Serif" font-size="10.00"> &lt; HistogramType ::Scalar &gt;</text>
</g>
<!-- Node16 -->
<g id="node15" class="node"><title>Node16</title>
<polygon fill="none" stroke="#bfbfbf" points="635.813,-379.76 635.813,-397.76 685.719,-397.76 685.719,-379.76 635.813,-379.76"/>
<text text-anchor="middle" x="660.766" y="-385.76" font-family="Helvetica,sans-Serif" font-size="10.00">Scalar_</text>
</g>
<!-- Node16&#45;&gt;Node15 -->
<g id="edge15" class="edge"><title>Node16&#45;&gt;Node15</title>
<path fill="none" stroke="#9a32cd" stroke-dasharray="5,2" d="M696.464,-388.76C735.514,-388.76 800.236,-388.76 851.859,-388.76"/>
<polygon fill="#9a32cd" stroke="#9a32cd" points="696.163,-385.261 686.163,-388.76 696.163,-392.261 696.163,-385.261"/>
<text text-anchor="middle" x="788.629" y="-400.76" font-family="Helvetica,sans-Serif" font-size="10.00"> min</text>
<text text-anchor="middle" x="788.629" y="-390.76" font-family="Helvetica,sans-Serif" font-size="10.00">max</text>
</g>
<!-- Node17&#45;&gt;Node5 -->
<g id="edge19" class="edge"><title>Node17&#45;&gt;Node5</title>
<path fill="none" stroke="orange" stroke-dasharray="5,2" d="M1671.58,-214.357C1766.81,-199.721 1912.85,-177.277 2003.56,-163.336"/>
<polygon fill="orange" stroke="orange" points="1671.01,-210.902 1661.66,-215.88 1672.08,-217.821 1671.01,-210.902"/>
<text text-anchor="start" x="1831.3" y="-203.76" font-family="Helvetica,sans-Serif" font-size="10.00"> &lt; SimpleHistogramType</text>
<text text-anchor="middle" x="1890.92" y="-193.76" font-family="Helvetica,sans-Serif" font-size="10.00"> ::Scalar, CountRealType &gt;</text>
</g>
<!-- Node17&#45;&gt;Node19 -->
<g id="edge30" class="edge"><title>Node17&#45;&gt;Node19</title>
<path fill="none" stroke="orange" stroke-dasharray="5,2" d="M1672.03,-233.589C1718.76,-235.985 1774.33,-238.834 1817.66,-241.055"/>
<polygon fill="orange" stroke="orange" points="1672.05,-230.086 1661.89,-233.069 1671.7,-237.077 1672.05,-230.086"/>
<text text-anchor="start" x="1679.56" y="-252.76" font-family="Helvetica,sans-Serif" font-size="10.00"> &lt; HistogramType_::Scalar,</text>
<text text-anchor="middle" x="1739.73" y="-242.76" font-family="Helvetica,sans-Serif" font-size="10.00"> RealAvgType &gt;</text>
</g>
<!-- Node17&#45;&gt;Node23 -->
<g id="edge39" class="edge"><title>Node17&#45;&gt;Node23</title>
<path fill="none" stroke="orange" stroke-dasharray="5,2" d="M1623.9,-246.615C1681.91,-269.109 1781.2,-307.607 1840.68,-330.67"/>
<polygon fill="orange" stroke="orange" points="1624.85,-243.229 1614.26,-242.877 1622.32,-249.756 1624.85,-243.229"/>
<text text-anchor="start" x="1680.95" y="-326.76" font-family="Helvetica,sans-Serif" font-size="10.00"> &lt; HistogramType ::Scalar,</text>
<text text-anchor="middle" x="1739.73" y="-316.76" font-family="Helvetica,sans-Serif" font-size="10.00"> CountRealType &gt;</text>
</g>
<!-- Node18 -->
<g id="node17" class="node"><title>Node18</title>
<g id="a_node17"><a xlink:href="class_tomographer_1_1_averaged_histogram.html" target="_top" xlink:title="Combines several histograms (with same parameters) into an averaged histogram. ">
<polygon fill="none" stroke="black" points="2000.94,-230.76 2000.94,-258.76 2171.85,-258.76 2171.85,-230.76 2000.94,-230.76"/>
<text text-anchor="start" x="2008.94" y="-246.76" font-family="Helvetica,sans-Serif" font-size="10.00">Tomographer::AveragedHistogram</text>
<text text-anchor="middle" x="2086.4" y="-236.76" font-family="Helvetica,sans-Serif" font-size="10.00">&lt; HistogramType_, RealAvgType &gt;</text>
</a>
</g>
</g>
<!-- Node18&#45;&gt;Node4 -->
<g id="edge22" class="edge"><title>Node18&#45;&gt;Node4</title>
<path fill="none" stroke="orange" stroke-dasharray="5,2" d="M2166.17,-229.073C2174.15,-227.809 2182.15,-226.67 2189.85,-225.76 2238.76,-219.986 2293.32,-216.777 2339.06,-214.992"/>
<polygon fill="orange" stroke="orange" points="2165.39,-225.654 2156.1,-230.735 2166.53,-232.56 2165.39,-225.654"/>
<text text-anchor="start" x="2199.58" y="-237.76" font-family="Helvetica,sans-Serif" font-size="10.00"> &lt; SimpleHistogramType,</text>
<text text-anchor="middle" x="2255.58" y="-227.76" font-family="Helvetica,sans-Serif" font-size="10.00"> CountRealType &gt;</text>
</g>
<!-- Node22 -->
<g id="node21" class="node"><title>Node22</title>
<g id="a_node21"><a xlink:href="class_tomographer_1_1_averaged_histogram.html" target="_top" xlink:title="Tomographer::AveragedHistogram\l\&lt; HistogramType, CountRealType \&gt;">
<polygon fill="none" stroke="black" points="2354.59,-245.76 2354.59,-273.76 2529.57,-273.76 2529.57,-245.76 2354.59,-245.76"/>
<text text-anchor="start" x="2362.59" y="-261.76" font-family="Helvetica,sans-Serif" font-size="10.00">Tomographer::AveragedHistogram</text>
<text text-anchor="middle" x="2442.08" y="-251.76" font-family="Helvetica,sans-Serif" font-size="10.00">&lt; HistogramType, CountRealType &gt;</text>
</a>
</g>
</g>
<!-- Node18&#45;&gt;Node22 -->
<g id="edge40" class="edge"><title>Node18&#45;&gt;Node22</title>
<path fill="none" stroke="orange" stroke-dasharray="5,2" d="M2182.29,-248.785C2235.8,-251.054 2302.17,-253.869 2354.29,-256.08"/>
<polygon fill="orange" stroke="orange" points="2182.25,-245.28 2172.11,-248.353 2181.96,-252.274 2182.25,-245.28"/>
<text text-anchor="start" x="2189.85" y="-266.76" font-family="Helvetica,sans-Serif" font-size="10.00"> &lt; HistogramType, CountReal</text>
<text text-anchor="middle" x="2255.58" y="-256.76" font-family="Helvetica,sans-Serif" font-size="10.00">Type &gt;</text>
</g>
<!-- Node19&#45;&gt;Node18 -->
<g id="edge23" class="edge"><title>Node19&#45;&gt;Node18</title>
<path fill="none" stroke="midnightblue" d="M1974.23,-244.76C1983.05,-244.76 1992.04,-244.76 2000.89,-244.76"/>
<polygon fill="midnightblue" stroke="midnightblue" points="1973.96,-241.261 1963.96,-244.76 1973.96,-248.261 1973.96,-241.261"/>
</g>
<!-- Node20&#45;&gt;Node19 -->
<g id="edge24" class="edge"><title>Node20&#45;&gt;Node19</title>
<path fill="none" stroke="midnightblue" d="M1654.16,-335.559C1698.12,-335.243 1753.65,-330.495 1799.9,-312.76 1827.7,-302.102 1854.22,-280.128 1871.18,-264.033"/>
<polygon fill="midnightblue" stroke="midnightblue" points="1654.11,-332.059 1644.11,-335.556 1654.11,-339.059 1654.11,-332.059"/>
</g>
<!-- Node21&#45;&gt;Node20 -->
<g id="edge26" class="edge"><title>Node21&#45;&gt;Node20</title>
<path fill="none" stroke="#9a32cd" stroke-dasharray="5,2" d="M1325.4,-372.592C1334.92,-370.53 1344.59,-368.526 1353.8,-366.76 1405.93,-356.768 1465.34,-347.514 1509.58,-341.035"/>
<polygon fill="#9a32cd" stroke="#9a32cd" points="1324.58,-369.19 1315.56,-374.754 1326.08,-376.026 1324.58,-369.19"/>
<text text-anchor="middle" x="1413.97" y="-368.76" font-family="Helvetica,sans-Serif" font-size="10.00"> params</text>
</g>
<!-- Node22&#45;&gt;Node2 -->
<g id="edge31" class="edge"><title>Node22&#45;&gt;Node2</title>
<path fill="none" stroke="#9a32cd" stroke-dasharray="5,2" d="M2539.97,-259.76C2586.09,-259.76 2640.83,-259.76 2685.75,-259.76"/>
<polygon fill="#9a32cd" stroke="#9a32cd" points="2539.97,-256.261 2529.97,-259.76 2539.97,-263.261 2539.97,-256.261"/>
<text text-anchor="middle" x="2615.38" y="-261.76" font-family="Helvetica,sans-Serif" font-size="10.00"> final_histogram</text>
</g>
<!-- Node23&#45;&gt;Node22 -->
<g id="edge32" class="edge"><title>Node23&#45;&gt;Node22</title>
<path fill="none" stroke="midnightblue" d="M1973.99,-336.31C2076.53,-319.505 2251.16,-290.887 2355.37,-273.808"/>
<polygon fill="midnightblue" stroke="midnightblue" points="1973.3,-332.877 1963.99,-337.948 1974.43,-339.785 1973.3,-332.877"/>
</g>
<!-- Node24&#45;&gt;Node23 -->
<g id="edge33" class="edge"><title>Node24&#45;&gt;Node23</title>
<path fill="none" stroke="midnightblue" d="M1652.67,-443.818C1696.82,-440.023 1753.05,-431.542 1799.9,-412.76 1825.75,-402.397 1851.39,-383.363 1868.66,-368.919"/>
<polygon fill="midnightblue" stroke="midnightblue" points="1652.27,-440.339 1642.58,-444.623 1652.82,-447.317 1652.27,-440.339"/>
</g>
<!-- Node25&#45;&gt;Node24 -->
<g id="edge34" class="edge"><title>Node25&#45;&gt;Node24</title>
<path fill="none" stroke="#9a32cd" stroke-dasharray="5,2" d="M1345.89,-472.687C1398.5,-466.756 1463.83,-459.39 1511.4,-454.027"/>
<polygon fill="#9a32cd" stroke="#9a32cd" points="1345.43,-469.217 1335.89,-473.815 1346.22,-476.173 1345.43,-469.217"/>
<text text-anchor="middle" x="1413.97" y="-473.76" font-family="Helvetica,sans-Serif" font-size="10.00"> params</text>
</g>
</g>
</svg>
