<?xml version="1.0" encoding="UTF-8" standalone="no"?>
<!DOCTYPE svg PUBLIC "-//W3C//DTD SVG 1.1//EN"
 "http://www.w3.org/Graphics/SVG/1.1/DTD/svg11.dtd">
<!-- Generated by graphviz version 2.38.0 (20140413.2041)
 -->
<!-- Title: tomographer/mhrw_valuehist_tools.h Pages: 1 -->
<svg width="2713pt" height="582pt"
 viewBox="0.00 0.00 2713.26 582.00" xmlns="http://www.w3.org/2000/svg" xmlns:xlink="http://www.w3.org/1999/xlink">
<g id="graph0" class="graph" transform="scale(1 1) rotate(0) translate(4 578)">
<title>tomographer/mhrw_valuehist_tools.h</title>
<!-- Node0 -->
<g id="node1" class="node"><title>Node0</title>
<polygon fill="#bfbfbf" stroke="black" points="1118.78,-545.5 1118.78,-573.5 1263.73,-573.5 1263.73,-545.5 1118.78,-545.5"/>
<text text-anchor="start" x="1126.78" y="-561.5" font-family="Helvetica,sans-Serif" font-size="10.00">tomographer/mhrw_valuehist</text>
<text text-anchor="middle" x="1191.26" y="-551.5" font-family="Helvetica,sans-Serif" font-size="10.00">_tools.h</text>
</g>
<!-- Node1 -->
<g id="node2" class="node"><title>Node1</title>
<polygon fill="none" stroke="#bfbfbf" points="463.084,-60.5 463.084,-78.5 517.429,-78.5 517.429,-60.5 463.084,-60.5"/>
<text text-anchor="middle" x="490.256" y="-66.5" font-family="Helvetica,sans-Serif" font-size="10.00">iostream</text>
</g>
<!-- Node0&#45;&gt;Node1 -->
<g id="edge1" class="edge"><title>Node0&#45;&gt;Node1</title>
<path fill="none" stroke="midnightblue" d="M1118.61,-558.956C860.241,-559.631 1.25615,-553.388 1.25615,-440.5 1.25615,-440.5 1.25615,-440.5 1.25615,-258.5 1.25615,-224.76 -3.76844,-208.69 20.2561,-185 82.3437,-123.776 352.942,-86.5395 452.939,-74.6582"/>
<polygon fill="midnightblue" stroke="midnightblue" points="453.373,-78.1314 462.898,-73.4921 452.559,-71.1789 453.373,-78.1314"/>
</g>
<!-- Node2 -->
<g id="node3" class="node"><title>Node2</title>
<polygon fill="none" stroke="#bfbfbf" points="1511.75,-125.5 1511.75,-143.5 1562.77,-143.5 1562.77,-125.5 1511.75,-125.5"/>
<text text-anchor="middle" x="1537.26" y="-131.5" font-family="Helvetica,sans-Serif" font-size="10.00">iomanip</text>
</g>
<!-- Node0&#45;&gt;Node2 -->
<g id="edge2" class="edge"><title>Node0&#45;&gt;Node2</title>
<path fill="none" stroke="midnightblue" d="M1260.14,-545.436C1347.88,-526.789 1488.26,-489.325 1488.26,-440.5 1488.26,-440.5 1488.26,-440.5 1488.26,-378.5 1488.26,-292.743 1517.94,-193.261 1531.1,-153.379"/>
<polygon fill="midnightblue" stroke="midnightblue" points="1534.46,-154.366 1534.34,-143.771 1527.83,-152.132 1534.46,-154.366"/>
</g>
<!-- Node3 -->
<g id="node4" class="node"><title>Node3</title>
<polygon fill="none" stroke="#bfbfbf" points="295.729,-185.5 295.729,-213.5 406.783,-213.5 406.783,-185.5 295.729,-185.5"/>
<text text-anchor="start" x="303.729" y="-201.5" font-family="Helvetica,sans-Serif" font-size="10.00">boost/math/constants</text>
<text text-anchor="middle" x="351.256" y="-191.5" font-family="Helvetica,sans-Serif" font-size="10.00">/constants.hpp</text>
</g>
<!-- Node0&#45;&gt;Node3 -->
<g id="edge3" class="edge"><title>Node0&#45;&gt;Node3</title>
<path fill="none" stroke="midnightblue" d="M1118.69,-556.769C958.292,-552.41 583.907,-539.107 535.256,-509 426.177,-441.497 373.595,-283.298 357.142,-223.734"/>
<polygon fill="midnightblue" stroke="midnightblue" points="360.451,-222.559 354.485,-213.804 353.689,-224.369 360.451,-222.559"/>
</g>
<!-- Node4 -->
<g id="node5" class="node"><title>Node4</title>
<polygon fill="none" stroke="#bfbfbf" points="2543.23,-120.5 2543.23,-148.5 2639.28,-148.5 2639.28,-120.5 2543.23,-120.5"/>
<text text-anchor="start" x="2551.23" y="-136.5" font-family="Helvetica,sans-Serif" font-size="10.00">boost/serialization</text>
<text text-anchor="middle" x="2591.26" y="-126.5" font-family="Helvetica,sans-Serif" font-size="10.00">/serialization.hpp</text>
</g>
<!-- Node0&#45;&gt;Node4 -->
<g id="edge4" class="edge"><title>Node0&#45;&gt;Node4</title>
<path fill="none" stroke="midnightblue" d="M1264.11,-557.055C1482.96,-552.445 2132.45,-536.744 2342.26,-509 2453.32,-494.313 2492.41,-512.008 2588.26,-454 2668.59,-405.379 2650.42,-343.631 2643.26,-250 2641.03,-220.856 2645.39,-211.591 2633.26,-185 2628.43,-174.433 2620.69,-164.351 2613.15,-156.077"/>
<polygon fill="midnightblue" stroke="midnightblue" points="2615.55,-153.521 2606.1,-148.741 2610.51,-158.374 2615.55,-153.521"/>
</g>
<!-- Node5 -->
<g id="node6" class="node"><title>Node5</title>
<polygon fill="none" stroke="#bfbfbf" points="29.2342,-185.5 29.2342,-213.5 125.278,-213.5 125.278,-185.5 29.2342,-185.5"/>
<text text-anchor="start" x="37.2342" y="-201.5" font-family="Helvetica,sans-Serif" font-size="10.00">boost/serialization</text>
<text text-anchor="middle" x="77.2561" y="-191.5" font-family="Helvetica,sans-Serif" font-size="10.00">/base_object.hpp</text>
</g>
<!-- Node0&#45;&gt;Node5 -->
<g id="edge5" class="edge"><title>Node0&#45;&gt;Node5</title>
<path fill="none" stroke="midnightblue" d="M1118.56,-558.315C873.999,-556.741 96.2561,-543.631 96.2561,-440.5 96.2561,-440.5 96.2561,-440.5 96.2561,-318.5 96.2561,-285.211 88.7944,-247.303 83.2231,-223.639"/>
<polygon fill="midnightblue" stroke="midnightblue" points="86.6018,-222.721 80.8299,-213.837 79.8015,-224.381 86.6018,-222.721"/>
</g>
<!-- Node6 -->
<g id="node7" class="node"><title>Node6</title>
<g id="a_node7"><a xlink:href="loggers_8h.html" target="_top" xlink:title="Utilities for logging messages. ">
<polygon fill="none" stroke="black" points="1738,-250.5 1738,-268.5 1878.51,-268.5 1878.51,-250.5 1738,-250.5"/>
<text text-anchor="middle" x="1808.26" y="-256.5" font-family="Helvetica,sans-Serif" font-size="10.00">tomographer/tools/loggers.h</text>
</a>
</g>
</g>
<!-- Node0&#45;&gt;Node6 -->
<g id="edge6" class="edge"><title>Node0&#45;&gt;Node6</title>
<path fill="none" stroke="midnightblue" d="M1263.85,-556.285C1328.54,-552.163 1424.69,-540.672 1502.26,-509 1634.99,-454.804 1755.41,-322.89 1794.77,-276.755"/>
<polygon fill="midnightblue" stroke="midnightblue" points="1797.59,-278.849 1801.36,-268.947 1792.23,-274.336 1797.59,-278.849"/>
</g>
<!-- Node24 -->
<g id="node25" class="node"><title>Node24</title>
<g id="a_node25"><a xlink:href="cxxutil_8h.html" target="_top" xlink:title="Some C++ utilities, with a tad of C++11 tricks. ">
<polygon fill="none" stroke="black" points="833.505,-125.5 833.505,-143.5 969.007,-143.5 969.007,-125.5 833.505,-125.5"/>
<text text-anchor="middle" x="901.256" y="-131.5" font-family="Helvetica,sans-Serif" font-size="10.00">tomographer/tools/cxxutil.h</text>
</a>
</g>
</g>
<!-- Node0&#45;&gt;Node24 -->
<g id="edge48" class="edge"><title>Node0&#45;&gt;Node24</title>
<path fill="none" stroke="midnightblue" d="M1118.55,-552.684C950.463,-538.263 549.256,-497.836 549.256,-440.5 549.256,-440.5 549.256,-440.5 549.256,-258.5 549.256,-205.116 595.608,-206.981 644.256,-185 701.03,-159.348 770.71,-146.974 823.186,-141.014"/>
<polygon fill="midnightblue" stroke="midnightblue" points="823.877,-144.46 833.443,-139.905 823.124,-137.5 823.877,-144.46"/>
</g>
<!-- Node32 -->
<g id="node33" class="node"><title>Node32</title>
<g id="a_node33"><a xlink:href="needownoperatornew_8h.html" target="_top" xlink:title="Managing the need for specific overrides to operator new() for some types (especially Eigen types) ...">
<polygon fill="none" stroke="black" points="1256.58,-190.5 1256.58,-208.5 1459.93,-208.5 1459.93,-190.5 1256.58,-190.5"/>
<text text-anchor="middle" x="1358.26" y="-196.5" font-family="Helvetica,sans-Serif" font-size="10.00">tomographer/tools/needownoperatornew.h</text>
</a>
</g>
</g>
<!-- Node0&#45;&gt;Node32 -->
<g id="edge49" class="edge"><title>Node0&#45;&gt;Node32</title>
<path fill="none" stroke="midnightblue" d="M1196.9,-545.329C1205.59,-523.814 1221.26,-479.605 1221.26,-440.5 1221.26,-440.5 1221.26,-440.5 1221.26,-318.5 1221.26,-263.98 1284.31,-229.124 1324.87,-212.345"/>
<polygon fill="midnightblue" stroke="midnightblue" points="1326.39,-215.506 1334.39,-208.562 1323.81,-209.001 1326.39,-215.506"/>
</g>
<!-- Node34 -->
<g id="node35" class="node"><title>Node34</title>
<g id="a_node35"><a xlink:href="mhrwstatscollectors_8h.html" target="_top" xlink:title="Definitions for MHRWStatsCollector Interface&#39;s. ">
<polygon fill="none" stroke="black" points="1009.45,-430.5 1009.45,-448.5 1181.06,-448.5 1181.06,-430.5 1009.45,-430.5"/>
<text text-anchor="middle" x="1095.26" y="-436.5" font-family="Helvetica,sans-Serif" font-size="10.00">tomographer/mhrwstatscollectors.h</text>
</a>
</g>
</g>
<!-- Node0&#45;&gt;Node34 -->
<g id="edge53" class="edge"><title>Node0&#45;&gt;Node34</title>
<path fill="none" stroke="midnightblue" d="M1180.62,-545.421C1162.95,-523.712 1127.63,-480.297 1108.43,-456.689"/>
<polygon fill="midnightblue" stroke="midnightblue" points="1110.95,-454.246 1101.93,-448.698 1105.52,-458.664 1110.95,-454.246"/>
</g>
<!-- Node52 -->
<g id="node48" class="node"><title>Node52</title>
<g id="a_node48"><a xlink:href="mhrwtasks_8h.html" target="_top" xlink:title="Multiprocessing tasks interface (see Multiprocessing Task Interfaces) for parallel Metropolis&#45;Hasting...">
<polygon fill="none" stroke="black" points="2201.46,-490.5 2201.46,-508.5 2333.06,-508.5 2333.06,-490.5 2201.46,-490.5"/>
<text text-anchor="middle" x="2267.26" y="-496.5" font-family="Helvetica,sans-Serif" font-size="10.00">tomographer/mhrwtasks.h</text>
</a>
</g>
</g>
<!-- Node0&#45;&gt;Node52 -->
<g id="edge114" class="edge"><title>Node0&#45;&gt;Node52</title>
<path fill="none" stroke="midnightblue" d="M1263.95,-554.582C1458.96,-544.07 1992.35,-515.319 2191.2,-504.6"/>
<polygon fill="midnightblue" stroke="midnightblue" points="2191.46,-508.091 2201.26,-504.057 2191.09,-501.101 2191.46,-508.091"/>
</g>
<!-- Node6&#45;&gt;Node1 -->
<g id="edge11" class="edge"><title>Node6&#45;&gt;Node1</title>
<path fill="none" stroke="midnightblue" d="M1737.75,-257.1C1560.41,-253.217 1099.23,-240.788 948.256,-214 781.694,-184.447 591.275,-111.52 519.588,-82.5989"/>
<polygon fill="midnightblue" stroke="midnightblue" points="520.471,-79.1803 509.889,-78.6615 517.838,-85.6661 520.471,-79.1803"/>
</g>
<!-- Node7 -->
<g id="node8" class="node"><title>Node7</title>
<polygon fill="none" stroke="#bfbfbf" points="2065.19,-125.5 2065.19,-143.5 2107.32,-143.5 2107.32,-125.5 2065.19,-125.5"/>
<text text-anchor="middle" x="2086.26" y="-131.5" font-family="Helvetica,sans-Serif" font-size="10.00">cstdio</text>
</g>
<!-- Node6&#45;&gt;Node7 -->
<g id="edge7" class="edge"><title>Node6&#45;&gt;Node7</title>
<path fill="none" stroke="midnightblue" d="M1878.73,-253.791C1942.95,-248.136 2031.71,-236.458 2058.26,-214 2075.92,-199.057 2082.44,-172.156 2084.85,-154.064"/>
<polygon fill="midnightblue" stroke="midnightblue" points="2088.35,-154.199 2085.9,-143.893 2081.39,-153.482 2088.35,-154.199"/>
</g>
<!-- Node8 -->
<g id="node9" class="node"><title>Node8</title>
<polygon fill="none" stroke="#bfbfbf" points="1870.86,-125.5 1870.86,-143.5 1919.65,-143.5 1919.65,-125.5 1870.86,-125.5"/>
<text text-anchor="middle" x="1895.26" y="-131.5" font-family="Helvetica,sans-Serif" font-size="10.00">cstdarg</text>
</g>
<!-- Node6&#45;&gt;Node8 -->
<g id="edge8" class="edge"><title>Node6&#45;&gt;Node8</title>
<path fill="none" stroke="midnightblue" d="M1821.36,-250.394C1833.37,-242.402 1850.94,-229.203 1862.26,-214 1876.01,-195.515 1885.25,-170.441 1890.37,-153.652"/>
<polygon fill="midnightblue" stroke="midnightblue" points="1893.76,-154.547 1893.15,-143.969 1887.03,-152.616 1893.76,-154.547"/>
</g>
<!-- Node9 -->
<g id="node10" class="node"><title>Node9</title>
<polygon fill="none" stroke="#bfbfbf" points="2381.03,-0.5 2381.03,-18.5 2421.48,-18.5 2421.48,-0.5 2381.03,-0.5"/>
<text text-anchor="middle" x="2401.26" y="-6.5" font-family="Helvetica,sans-Serif" font-size="10.00">string</text>
</g>
<!-- Node6&#45;&gt;Node9 -->
<g id="edge9" class="edge"><title>Node6&#45;&gt;Node9</title>
<path fill="none" stroke="midnightblue" d="M1878.74,-257.406C1961.4,-254.63 2101.91,-245.228 2218.26,-214 2287.25,-195.482 2319,-203.435 2365.26,-149 2394.81,-114.224 2400.49,-58.0454 2401.34,-29.0837"/>
<polygon fill="midnightblue" stroke="midnightblue" points="2404.84,-28.8321 2401.46,-18.79 2397.84,-28.7463 2404.84,-28.8321"/>
</g>
<!-- Node10 -->
<g id="node11" class="node"><title>Node10</title>
<polygon fill="none" stroke="#bfbfbf" points="2223.48,-125.5 2223.48,-143.5 2275.04,-143.5 2275.04,-125.5 2223.48,-125.5"/>
<text text-anchor="middle" x="2249.26" y="-131.5" font-family="Helvetica,sans-Serif" font-size="10.00">sstream</text>
</g>
<!-- Node6&#45;&gt;Node10 -->
<g id="edge10" class="edge"><title>Node6&#45;&gt;Node10</title>
<path fill="none" stroke="midnightblue" d="M1878.83,-256.604C1973.58,-252.984 2135.93,-242.683 2187.26,-214 2212.33,-199.99 2230.88,-171.322 2240.87,-152.78"/>
<polygon fill="midnightblue" stroke="midnightblue" points="2244.09,-154.175 2245.53,-143.679 2237.86,-150.986 2244.09,-154.175"/>
</g>
<!-- Node11 -->
<g id="node12" class="node"><title>Node11</title>
<polygon fill="none" stroke="#bfbfbf" points="1988.85,-125.5 1988.85,-143.5 2047.66,-143.5 2047.66,-125.5 1988.85,-125.5"/>
<text text-anchor="middle" x="2018.26" y="-131.5" font-family="Helvetica,sans-Serif" font-size="10.00">functional</text>
</g>
<!-- Node6&#45;&gt;Node11 -->
<g id="edge12" class="edge"><title>Node6&#45;&gt;Node11</title>
<path fill="none" stroke="midnightblue" d="M1878.64,-254.626C1939.23,-249.646 2020.01,-238.5 2040.26,-214 2054.86,-196.326 2042.17,-169.585 2030.88,-152.33"/>
<polygon fill="midnightblue" stroke="midnightblue" points="2033.54,-150.023 2024.94,-143.838 2027.81,-154.037 2033.54,-150.023"/>
</g>
<!-- Node12 -->
<g id="node13" class="node"><title>Node12</title>
<polygon fill="none" stroke="#bfbfbf" points="1423.19,-60.5 1423.19,-78.5 1485.32,-78.5 1485.32,-60.5 1423.19,-60.5"/>
<text text-anchor="middle" x="1454.26" y="-66.5" font-family="Helvetica,sans-Serif" font-size="10.00">type_traits</text>
</g>
<!-- Node6&#45;&gt;Node12 -->
<g id="edge13" class="edge"><title>Node6&#45;&gt;Node12</title>
<path fill="none" stroke="midnightblue" d="M1739.25,-250.438C1711.76,-244.249 1681.46,-233.315 1659.26,-214 1624.6,-183.845 1650.82,-150.264 1616.26,-120 1582.42,-90.3776 1531.21,-78.4821 1495.45,-73.7053"/>
<polygon fill="midnightblue" stroke="midnightblue" points="1495.69,-70.209 1485.35,-72.4886 1494.86,-77.1588 1495.69,-70.209"/>
</g>
<!-- Node13 -->
<g id="node14" class="node"><title>Node13</title>
<polygon fill="none" stroke="#bfbfbf" points="1668.53,-190.5 1668.53,-208.5 1703.98,-208.5 1703.98,-190.5 1668.53,-190.5"/>
<text text-anchor="middle" x="1686.26" y="-196.5" font-family="Helvetica,sans-Serif" font-size="10.00">map</text>
</g>
<!-- Node6&#45;&gt;Node13 -->
<g id="edge14" class="edge"><title>Node6&#45;&gt;Node13</title>
<path fill="none" stroke="midnightblue" d="M1790.09,-250.374C1770.7,-241.631 1739.13,-227.199 1712.26,-214 1711.71,-213.734 1711.17,-213.463 1710.61,-213.189"/>
<polygon fill="midnightblue" stroke="midnightblue" points="1712.1,-210.017 1701.6,-208.61 1708.93,-216.258 1712.1,-210.017"/>
</g>
<!-- Node14 -->
<g id="node15" class="node"><title>Node14</title>
<polygon fill="none" stroke="#bfbfbf" points="1721.72,-190.5 1721.72,-208.5 1852.79,-208.5 1852.79,-190.5 1721.72,-190.5"/>
<text text-anchor="middle" x="1787.26" y="-196.5" font-family="Helvetica,sans-Serif" font-size="10.00">boost/algorithm/string.hpp</text>
</g>
<!-- Node6&#45;&gt;Node14 -->
<g id="edge15" class="edge"><title>Node6&#45;&gt;Node14</title>
<path fill="none" stroke="midnightblue" d="M1805.34,-250.435C1802.36,-242.218 1797.65,-229.198 1793.78,-218.514"/>
<polygon fill="midnightblue" stroke="midnightblue" points="1796.98,-217.083 1790.29,-208.872 1790.4,-219.466 1796.98,-217.083"/>
</g>
<!-- Node15 -->
<g id="node16" class="node"><title>Node15</title>
<g id="a_node16"><a xlink:href="cxxdefs_8h.html" target="_top" xlink:title="Basic definitions, which may have to be defined before any Eigen headers or further utilities are inc...">
<polygon fill="none" stroke="black" points="1103.45,-60.5 1103.45,-78.5 1245.07,-78.5 1245.07,-60.5 1103.45,-60.5"/>
<text text-anchor="middle" x="1174.26" y="-66.5" font-family="Helvetica,sans-Serif" font-size="10.00">tomographer/tools/cxxdefs.h</text>
</a>
</g>
</g>
<!-- Node6&#45;&gt;Node15 -->
<g id="edge16" class="edge"><title>Node6&#45;&gt;Node15</title>
<path fill="none" stroke="midnightblue" d="M1737.78,-251.579C1704.92,-245.629 1666.67,-234.567 1637.26,-214 1595.63,-184.894 1615.84,-146.083 1572.26,-120 1511.23,-83.4804 1324.68,-93.9206 1254.26,-84 1246.22,-82.8685 1237.76,-81.563 1229.46,-80.219"/>
<polygon fill="midnightblue" stroke="midnightblue" points="1229.9,-76.7438 1219.46,-78.5696 1228.76,-83.6505 1229.9,-76.7438"/>
</g>
<!-- Node20 -->
<g id="node21" class="node"><title>Node20</title>
<g id="a_node21"><a xlink:href="fmt_8h.html" target="_top" xlink:title="Utilities for formatting strings. ">
<polygon fill="none" stroke="black" points="1909.45,-190.5 1909.45,-208.5 2031.06,-208.5 2031.06,-190.5 1909.45,-190.5"/>
<text text-anchor="middle" x="1970.26" y="-196.5" font-family="Helvetica,sans-Serif" font-size="10.00">tomographer/tools/fmt.h</text>
</a>
</g>
</g>
<!-- Node6&#45;&gt;Node20 -->
<g id="edge21" class="edge"><title>Node6&#45;&gt;Node20</title>
<path fill="none" stroke="midnightblue" d="M1830.78,-250.435C1858.63,-240.465 1906.23,-223.424 1937.96,-212.062"/>
<polygon fill="midnightblue" stroke="midnightblue" points="1939.43,-215.255 1947.66,-208.589 1937.07,-208.665 1939.43,-215.255"/>
</g>
<!-- Node28 -->
<g id="node29" class="node"><title>Node28</title>
<g id="a_node29"><a xlink:href="conststr_8h.html" target="_top" xlink:title="A constexpr string type, suitable for basic compile&#45;time string processing. ">
<polygon fill="none" stroke="black" points="1263.17,-60.5 1263.17,-78.5 1405.35,-78.5 1405.35,-60.5 1263.17,-60.5"/>
<text text-anchor="middle" x="1334.26" y="-66.5" font-family="Helvetica,sans-Serif" font-size="10.00">tomographer/tools/conststr.h</text>
</a>
</g>
</g>
<!-- Node6&#45;&gt;Node28 -->
<g id="edge47" class="edge"><title>Node6&#45;&gt;Node28</title>
<path fill="none" stroke="midnightblue" d="M1878.82,-254.17C1948.97,-248.628 2050.55,-236.873 2082.26,-214 2118.29,-188.009 2146.86,-152.209 2116.26,-120 2089.36,-91.6883 1453.07,-88.2562 1414.26,-84 1405.21,-83.0079 1395.63,-81.6564 1386.37,-80.1902"/>
<polygon fill="midnightblue" stroke="midnightblue" points="1386.91,-76.7331 1376.48,-78.5657 1385.78,-83.6405 1386.91,-76.7331"/>
</g>
<!-- Node16 -->
<g id="node17" class="node"><title>Node16</title>
<polygon fill="none" stroke="#bfbfbf" points="1024.14,-0.5 1024.14,-18.5 1072.37,-18.5 1072.37,-0.5 1024.14,-0.5"/>
<text text-anchor="middle" x="1048.26" y="-6.5" font-family="Helvetica,sans-Serif" font-size="10.00">cassert</text>
</g>
<!-- Node15&#45;&gt;Node16 -->
<g id="edge17" class="edge"><title>Node15&#45;&gt;Node16</title>
<path fill="none" stroke="midnightblue" d="M1156.74,-60.4353C1135.6,-50.7078 1099.85,-34.2511 1075.2,-22.9041"/>
<polygon fill="midnightblue" stroke="midnightblue" points="1076.58,-19.6853 1066.03,-18.6831 1073.65,-26.044 1076.58,-19.6853"/>
</g>
<!-- Node17 -->
<g id="node18" class="node"><title>Node17</title>
<polygon fill="none" stroke="#bfbfbf" points="430.136,-0.5 430.136,-18.5 478.377,-18.5 478.377,-0.5 430.136,-0.5"/>
<text text-anchor="middle" x="454.256" y="-6.5" font-family="Helvetica,sans-Serif" font-size="10.00">cstddef</text>
</g>
<!-- Node15&#45;&gt;Node17 -->
<g id="edge18" class="edge"><title>Node15&#45;&gt;Node17</title>
<path fill="none" stroke="midnightblue" d="M1131.73,-60.4308C1119.95,-58.4147 1107.14,-56.424 1095.26,-55 864.392,-27.3309 584.532,-15.2181 488.508,-11.6722"/>
<polygon fill="midnightblue" stroke="midnightblue" points="488.616,-8.17392 478.496,-11.3092 488.362,-15.1693 488.616,-8.17392"/>
</g>
<!-- Node18 -->
<g id="node19" class="node"><title>Node18</title>
<polygon fill="none" stroke="#bfbfbf" points="722.084,-0.5 722.084,-18.5 766.429,-18.5 766.429,-0.5 722.084,-0.5"/>
<text text-anchor="middle" x="744.256" y="-6.5" font-family="Helvetica,sans-Serif" font-size="10.00">cstdlib</text>
</g>
<!-- Node15&#45;&gt;Node18 -->
<g id="edge19" class="edge"><title>Node15&#45;&gt;Node18</title>
<path fill="none" stroke="midnightblue" d="M1129.19,-60.4536C1118.11,-58.5705 1106.27,-56.6379 1095.26,-55 978.333,-37.6062 838.847,-21.2161 776.795,-14.1501"/>
<polygon fill="midnightblue" stroke="midnightblue" points="776.808,-10.6292 766.478,-12.98 776.02,-17.5847 776.808,-10.6292"/>
</g>
<!-- Node19 -->
<g id="node20" class="node"><title>Node19</title>
<polygon fill="none" stroke="#bfbfbf" points="1134.29,-0.5 1134.29,-18.5 1214.22,-18.5 1214.22,-0.5 1134.29,-0.5"/>
<text text-anchor="middle" x="1174.26" y="-6.5" font-family="Helvetica,sans-Serif" font-size="10.00">boost/predef.h</text>
</g>
<!-- Node15&#45;&gt;Node19 -->
<g id="edge20" class="edge"><title>Node15&#45;&gt;Node19</title>
<path fill="none" stroke="midnightblue" d="M1174.26,-60.4353C1174.26,-52.3891 1174.26,-39.7388 1174.26,-29.1846"/>
<polygon fill="midnightblue" stroke="midnightblue" points="1177.76,-28.8717 1174.26,-18.8718 1170.76,-28.8718 1177.76,-28.8717"/>
</g>
<!-- Node20&#45;&gt;Node1 -->
<g id="edge27" class="edge"><title>Node20&#45;&gt;Node1</title>
<path fill="none" stroke="midnightblue" d="M1913.74,-190.466C1897.18,-188.374 1879.02,-186.336 1862.26,-185 1402.1,-148.335 1282.26,-206.58 824.256,-149 690.187,-132.145 657.018,-121.687 527.256,-84 524.985,-83.3403 522.651,-82.6123 520.314,-81.8466"/>
<polygon fill="midnightblue" stroke="midnightblue" points="521.432,-78.5297 510.837,-78.5647 519.141,-85.1443 521.432,-78.5297"/>
</g>
<!-- Node20&#45;&gt;Node2 -->
<g id="edge30" class="edge"><title>Node20&#45;&gt;Node2</title>
<path fill="none" stroke="midnightblue" d="M1914.98,-190.457C1824.83,-177.341 1648.64,-151.707 1573.08,-140.712"/>
<polygon fill="midnightblue" stroke="midnightblue" points="1573.5,-137.236 1563.1,-139.26 1572.49,-144.164 1573.5,-137.236"/>
</g>
<!-- Node20&#45;&gt;Node7 -->
<g id="edge22" class="edge"><title>Node20&#45;&gt;Node7</title>
<path fill="none" stroke="midnightblue" d="M1985.42,-190.264C2005.07,-179.593 2039.53,-160.876 2062.63,-148.334"/>
<polygon fill="midnightblue" stroke="midnightblue" points="2064.34,-151.387 2071.45,-143.539 2061,-145.236 2064.34,-151.387"/>
</g>
<!-- Node20&#45;&gt;Node8 -->
<g id="edge23" class="edge"><title>Node20&#45;&gt;Node8</title>
<path fill="none" stroke="midnightblue" d="M1960.45,-190.264C1948.37,-180.115 1927.62,-162.687 1912.78,-150.216"/>
<polygon fill="midnightblue" stroke="midnightblue" points="1914.73,-147.291 1904.83,-143.539 1910.23,-152.651 1914.73,-147.291"/>
</g>
<!-- Node20&#45;&gt;Node9 -->
<g id="edge25" class="edge"><title>Node20&#45;&gt;Node9</title>
<path fill="none" stroke="midnightblue" d="M1968.63,-190.438C1965.99,-174.774 1962.65,-140.011 1980.26,-120 2032.69,-60.3972 2282.93,-24.8416 2370.73,-14.0332"/>
<polygon fill="midnightblue" stroke="midnightblue" points="2371.33,-17.4856 2380.84,-12.81 2370.49,-10.5363 2371.33,-17.4856"/>
</g>
<!-- Node20&#45;&gt;Node10 -->
<g id="edge26" class="edge"><title>Node20&#45;&gt;Node10</title>
<path fill="none" stroke="midnightblue" d="M2005.88,-190.457C2059.31,-178.391 2159.66,-155.731 2213.3,-143.62"/>
<polygon fill="midnightblue" stroke="midnightblue" points="2214.39,-146.961 2223.37,-141.344 2212.85,-140.133 2214.39,-146.961"/>
</g>
<!-- Node20&#45;&gt;Node11 -->
<g id="edge31" class="edge"><title>Node20&#45;&gt;Node11</title>
<path fill="none" stroke="midnightblue" d="M1976.53,-190.264C1983.97,-180.494 1996.56,-163.98 2005.96,-151.635"/>
<polygon fill="midnightblue" stroke="midnightblue" points="2008.85,-153.614 2012.13,-143.539 2003.29,-149.372 2008.85,-153.614"/>
</g>
<!-- Node21 -->
<g id="node22" class="node"><title>Node21</title>
<polygon fill="none" stroke="#bfbfbf" points="2309.97,-125.5 2309.97,-143.5 2356.54,-143.5 2356.54,-125.5 2309.97,-125.5"/>
<text text-anchor="middle" x="2333.26" y="-131.5" font-family="Helvetica,sans-Serif" font-size="10.00">chrono</text>
</g>
<!-- Node20&#45;&gt;Node21 -->
<g id="edge24" class="edge"><title>Node20&#45;&gt;Node21</title>
<path fill="none" stroke="midnightblue" d="M2031.12,-190.971C2094.65,-182.63 2197,-167.835 2284.26,-149 2289.41,-147.888 2294.82,-146.56 2300.1,-145.178"/>
<polygon fill="midnightblue" stroke="midnightblue" points="2301.23,-148.497 2309.96,-142.494 2299.39,-141.742 2301.23,-148.497"/>
</g>
<!-- Node22 -->
<g id="node23" class="node"><title>Node22</title>
<polygon fill="none" stroke="#bfbfbf" points="520.865,-125.5 520.865,-143.5 559.648,-143.5 559.648,-125.5 520.865,-125.5"/>
<text text-anchor="middle" x="540.256" y="-131.5" font-family="Helvetica,sans-Serif" font-size="10.00">utility</text>
</g>
<!-- Node20&#45;&gt;Node22 -->
<g id="edge28" class="edge"><title>Node20&#45;&gt;Node22</title>
<path fill="none" stroke="midnightblue" d="M1914.02,-190.485C1897.39,-188.381 1879.12,-186.331 1862.26,-185 1381.26,-147.038 1259.25,-170.721 777.256,-149 702.708,-145.641 615.05,-140.28 570.122,-137.429"/>
<polygon fill="midnightblue" stroke="midnightblue" points="570.114,-133.922 559.912,-136.778 569.669,-140.907 570.114,-133.922"/>
</g>
<!-- Node23 -->
<g id="node24" class="node"><title>Node23</title>
<polygon fill="none" stroke="#bfbfbf" points="1209.64,-125.5 1209.64,-143.5 1252.87,-143.5 1252.87,-125.5 1209.64,-125.5"/>
<text text-anchor="middle" x="1231.26" y="-131.5" font-family="Helvetica,sans-Serif" font-size="10.00">vector</text>
</g>
<!-- Node20&#45;&gt;Node23 -->
<g id="edge29" class="edge"><title>Node20&#45;&gt;Node23</title>
<path fill="none" stroke="midnightblue" d="M1911.19,-190.48C1895.32,-188.5 1878.15,-186.514 1862.26,-185 1619.28,-161.853 1556.77,-176.624 1314.26,-149 1297.28,-147.067 1278.49,-144.081 1263.08,-141.408"/>
<polygon fill="midnightblue" stroke="midnightblue" points="1263.48,-137.924 1253.02,-139.625 1262.26,-144.817 1263.48,-137.924"/>
</g>
<!-- Node20&#45;&gt;Node24 -->
<g id="edge32" class="edge"><title>Node20&#45;&gt;Node24</title>
<path fill="none" stroke="midnightblue" d="M1912.33,-190.47C1896.15,-188.442 1878.54,-186.435 1862.26,-185 1775.53,-177.356 1192.82,-149.338 979.394,-139.196"/>
<polygon fill="midnightblue" stroke="midnightblue" points="979.364,-135.691 969.209,-138.712 979.032,-142.683 979.364,-135.691"/>
</g>
<!-- Node24&#45;&gt;Node1 -->
<g id="edge36" class="edge"><title>Node24&#45;&gt;Node1</title>
<path fill="none" stroke="midnightblue" d="M844.924,-125.473C831.901,-123.647 818.099,-121.735 805.256,-120 681.79,-103.325 648.293,-113.532 527.256,-84 524.757,-83.3902 522.193,-82.668 519.637,-81.8796"/>
<polygon fill="midnightblue" stroke="midnightblue" points="520.571,-78.5007 509.977,-78.609 518.326,-85.131 520.571,-78.5007"/>
</g>
<!-- Node24&#45;&gt;Node12 -->
<g id="edge38" class="edge"><title>Node24&#45;&gt;Node12</title>
<path fill="none" stroke="midnightblue" d="M969.134,-125.616C986.146,-123.708 1004.36,-121.724 1021.26,-120 1195.75,-102.195 1242.65,-120.293 1414.26,-84 1417.31,-83.3536 1420.46,-82.5481 1423.58,-81.6546"/>
<polygon fill="midnightblue" stroke="midnightblue" points="1424.85,-84.9256 1433.34,-78.5868 1422.75,-78.248 1424.85,-84.9256"/>
</g>
<!-- Node24&#45;&gt;Node15 -->
<g id="edge41" class="edge"><title>Node24&#45;&gt;Node15</title>
<path fill="none" stroke="midnightblue" d="M936.109,-125.457C985.264,-114.114 1074.99,-93.4073 1129.17,-80.905"/>
<polygon fill="midnightblue" stroke="midnightblue" points="1130.22,-84.2537 1139.18,-78.5946 1128.65,-77.4329 1130.22,-84.2537"/>
</g>
<!-- Node24&#45;&gt;Node16 -->
<g id="edge33" class="edge"><title>Node24&#45;&gt;Node16</title>
<path fill="none" stroke="midnightblue" d="M918.743,-125.339C936.527,-116.567 964.366,-101.501 985.256,-84 1005.72,-66.8581 1025.04,-42.6947 1036.76,-26.8208"/>
<polygon fill="midnightblue" stroke="midnightblue" points="1039.72,-28.7044 1042.73,-18.5481 1034.04,-24.6065 1039.72,-28.7044"/>
</g>
<!-- Node24&#45;&gt;Node17 -->
<g id="edge34" class="edge"><title>Node24&#45;&gt;Node17</title>
<path fill="none" stroke="midnightblue" d="M871.15,-125.461C839.366,-116.626 788.041,-101.36 745.256,-84 718.55,-73.1641 714.557,-64.2349 687.256,-55 618.853,-31.8618 534.846,-19.5435 488.7,-14.0781"/>
<polygon fill="midnightblue" stroke="midnightblue" points="488.964,-10.5856 478.63,-12.9238 488.167,-17.54 488.964,-10.5856"/>
</g>
<!-- Node24&#45;&gt;Node18 -->
<g id="edge35" class="edge"><title>Node24&#45;&gt;Node18</title>
<path fill="none" stroke="midnightblue" d="M842.88,-125.452C815.19,-118.746 783.758,-106.468 763.256,-84 749.542,-68.9704 745.458,-45.3397 744.378,-28.9466"/>
<polygon fill="midnightblue" stroke="midnightblue" points="747.876,-28.8199 744.028,-18.9485 740.88,-29.0648 747.876,-28.8199"/>
</g>
<!-- Node25 -->
<g id="node26" class="node"><title>Node25</title>
<polygon fill="none" stroke="#bfbfbf" points="1032.64,-60.5 1032.64,-78.5 1085.87,-78.5 1085.87,-60.5 1032.64,-60.5"/>
<text text-anchor="middle" x="1059.26" y="-66.5" font-family="Helvetica,sans-Serif" font-size="10.00">complex</text>
</g>
<!-- Node24&#45;&gt;Node25 -->
<g id="edge37" class="edge"><title>Node24&#45;&gt;Node25</title>
<path fill="none" stroke="midnightblue" d="M921.588,-125.393C948.964,-114.477 997.871,-94.9763 1029.42,-82.3973"/>
<polygon fill="midnightblue" stroke="midnightblue" points="1031.01,-85.531 1039,-78.5761 1028.42,-79.0288 1031.01,-85.531"/>
</g>
<!-- Node26 -->
<g id="node27" class="node"><title>Node26</title>
<polygon fill="none" stroke="#bfbfbf" points="2428.85,-60.5 2428.85,-78.5 2487.66,-78.5 2487.66,-60.5 2428.85,-60.5"/>
<text text-anchor="middle" x="2458.26" y="-66.5" font-family="Helvetica,sans-Serif" font-size="10.00">exception</text>
</g>
<!-- Node24&#45;&gt;Node26 -->
<g id="edge39" class="edge"><title>Node24&#45;&gt;Node26</title>
<path fill="none" stroke="midnightblue" d="M969.236,-130.318C1029.84,-127.509 1120.95,-123.35 1200.26,-120 1680.03,-99.7299 2262.86,-77.7938 2418.49,-71.9807"/>
<polygon fill="midnightblue" stroke="midnightblue" points="2418.67,-75.4765 2428.54,-71.6058 2418.41,-68.4813 2418.67,-75.4765"/>
</g>
<!-- Node27 -->
<g id="node28" class="node"><title>Node27</title>
<polygon fill="none" stroke="#bfbfbf" points="535.855,-60.5 535.855,-78.5 594.658,-78.5 594.658,-60.5 535.855,-60.5"/>
<text text-anchor="middle" x="565.256" y="-66.5" font-family="Helvetica,sans-Serif" font-size="10.00">stdexcept</text>
</g>
<!-- Node24&#45;&gt;Node27 -->
<g id="edge40" class="edge"><title>Node24&#45;&gt;Node27</title>
<path fill="none" stroke="midnightblue" d="M845.853,-125.495C772.74,-114.724 648.066,-95.5841 603.256,-84 600.765,-83.356 598.206,-82.6187 595.65,-81.8282"/>
<polygon fill="midnightblue" stroke="midnightblue" points="596.55,-78.4389 585.956,-78.6 594.338,-85.0803 596.55,-78.4389"/>
</g>
<!-- Node24&#45;&gt;Node28 -->
<g id="edge42" class="edge"><title>Node24&#45;&gt;Node28</title>
<path fill="none" stroke="midnightblue" d="M962.236,-125.474C1032.66,-116.083 1151.97,-99.7992 1254.26,-84 1261.99,-82.8057 1270.13,-81.4941 1278.14,-80.1723"/>
<polygon fill="midnightblue" stroke="midnightblue" points="1278.89,-83.596 1288.18,-78.5007 1277.74,-76.6911 1278.89,-83.596"/>
</g>
<!-- Node29 -->
<g id="node30" class="node"><title>Node29</title>
<polygon fill="none" stroke="#bfbfbf" points="771.786,-60.5 771.786,-78.5 866.726,-78.5 866.726,-60.5 771.786,-60.5"/>
<text text-anchor="middle" x="819.256" y="-66.5" font-family="Helvetica,sans-Serif" font-size="10.00">boost/version.hpp</text>
</g>
<!-- Node24&#45;&gt;Node29 -->
<g id="edge44" class="edge"><title>Node24&#45;&gt;Node29</title>
<path fill="none" stroke="midnightblue" d="M890.536,-125.264C877.203,-115.02 854.218,-97.3606 837.957,-84.8679"/>
<polygon fill="midnightblue" stroke="midnightblue" points="839.782,-81.856 829.72,-78.539 835.517,-87.4069 839.782,-81.856"/>
</g>
<!-- Node30 -->
<g id="node31" class="node"><title>Node30</title>
<polygon fill="none" stroke="#bfbfbf" points="884.732,-55.5 884.732,-83.5 975.781,-83.5 975.781,-55.5 884.732,-55.5"/>
<text text-anchor="start" x="892.732" y="-71.5" font-family="Helvetica,sans-Serif" font-size="10.00">boost/units/detail</text>
<text text-anchor="middle" x="930.256" y="-61.5" font-family="Helvetica,sans-Serif" font-size="10.00">/utility.hpp</text>
</g>
<!-- Node24&#45;&gt;Node30 -->
<g id="edge45" class="edge"><title>Node24&#45;&gt;Node30</title>
<path fill="none" stroke="midnightblue" d="M905.047,-125.264C908.8,-117.112 914.714,-104.264 919.871,-93.0606"/>
<polygon fill="midnightblue" stroke="midnightblue" points="923.133,-94.3455 924.135,-83.7981 916.774,-91.4184 923.133,-94.3455"/>
</g>
<!-- Node31 -->
<g id="node32" class="node"><title>Node31</title>
<polygon fill="none" stroke="#bfbfbf" points="612.241,-60.5 612.241,-78.5 678.271,-78.5 678.271,-60.5 612.241,-60.5"/>
<text text-anchor="middle" x="645.256" y="-66.5" font-family="Helvetica,sans-Serif" font-size="10.00">Eigen/Core</text>
</g>
<!-- Node24&#45;&gt;Node31 -->
<g id="edge46" class="edge"><title>Node24&#45;&gt;Node31</title>
<path fill="none" stroke="midnightblue" d="M864.881,-125.432C823.082,-116.034 752.497,-99.7759 692.256,-84 689.053,-83.1612 685.735,-82.2647 682.412,-81.3474"/>
<polygon fill="midnightblue" stroke="midnightblue" points="683.108,-77.9076 672.534,-78.5708 681.214,-84.6464 683.108,-77.9076"/>
</g>
<!-- Node28&#45;&gt;Node9 -->
<g id="edge43" class="edge"><title>Node28&#45;&gt;Node9</title>
<path fill="none" stroke="midnightblue" d="M1376.06,-60.4556C1388.32,-58.364 1401.79,-56.3278 1414.26,-55 1789.68,-15.0118 2249.16,-10.8904 2370.63,-10.5208"/>
<polygon fill="midnightblue" stroke="midnightblue" points="2370.7,-14.0207 2380.69,-10.4967 2370.68,-7.02074 2370.7,-14.0207"/>
</g>
<!-- Node32&#45;&gt;Node12 -->
<g id="edge50" class="edge"><title>Node32&#45;&gt;Node12</title>
<path fill="none" stroke="midnightblue" d="M1366.1,-190.401C1375.21,-180.843 1390.48,-164.309 1402.26,-149 1417.94,-128.615 1433.99,-103.634 1444.03,-87.407"/>
<polygon fill="midnightblue" stroke="midnightblue" points="1447.21,-88.9108 1449.45,-78.5542 1441.24,-85.257 1447.21,-88.9108"/>
</g>
<!-- Node32&#45;&gt;Node24 -->
<g id="edge52" class="edge"><title>Node32&#45;&gt;Node24</title>
<path fill="none" stroke="midnightblue" d="M1299.91,-190.457C1215.46,-178.815 1059.46,-157.309 969.689,-144.934"/>
<polygon fill="midnightblue" stroke="midnightblue" points="969.997,-141.443 959.613,-143.545 969.041,-148.378 969.997,-141.443"/>
</g>
<!-- Node33 -->
<g id="node34" class="node"><title>Node33</title>
<polygon fill="none" stroke="#bfbfbf" points="1323.29,-125.5 1323.29,-143.5 1393.22,-143.5 1393.22,-125.5 1323.29,-125.5"/>
<text text-anchor="middle" x="1358.26" y="-131.5" font-family="Helvetica,sans-Serif" font-size="10.00">Eigen/Eigen</text>
</g>
<!-- Node32&#45;&gt;Node33 -->
<g id="edge51" class="edge"><title>Node32&#45;&gt;Node33</title>
<path fill="none" stroke="midnightblue" d="M1358.26,-190.264C1358.26,-181.064 1358.26,-165.881 1358.26,-153.833"/>
<polygon fill="midnightblue" stroke="midnightblue" points="1361.76,-153.539 1358.26,-143.539 1354.76,-153.539 1361.76,-153.539"/>
</g>
<!-- Node34&#45;&gt;Node6 -->
<g id="edge61" class="edge"><title>Node34&#45;&gt;Node6</title>
<path fill="none" stroke="midnightblue" d="M1113.14,-430.497C1132.84,-421.407 1165.18,-405.659 1191.26,-389 1242.5,-356.259 1242.65,-327.223 1299.26,-305 1375.15,-275.203 1604.52,-265.253 1727.8,-262.011"/>
<polygon fill="midnightblue" stroke="midnightblue" points="1728.04,-265.507 1737.95,-261.754 1727.86,-258.509 1728.04,-265.507"/>
</g>
<!-- Node34&#45;&gt;Node12 -->
<g id="edge58" class="edge"><title>Node34&#45;&gt;Node12</title>
<path fill="none" stroke="midnightblue" d="M1111.64,-430.359C1126.43,-422.088 1147.46,-407.824 1158.26,-389 1218.45,-284.027 1112.77,-203.595 1200.26,-120 1269.99,-53.3696 1320.71,-107.495 1414.26,-84 1417.06,-83.297 1419.94,-82.4909 1422.82,-81.63"/>
<polygon fill="midnightblue" stroke="midnightblue" points="1423.97,-84.9351 1432.44,-78.5623 1421.85,-78.266 1423.97,-84.9351"/>
</g>
<!-- Node34&#45;&gt;Node17 -->
<g id="edge54" class="edge"><title>Node34&#45;&gt;Node17</title>
<path fill="none" stroke="midnightblue" d="M1009.13,-433.548C909.294,-426.979 740.041,-413.281 596.256,-389 493.045,-371.571 467.757,-363.256 367.256,-334 270.699,-305.892 153.256,-361.065 153.256,-260.5 153.256,-260.5 153.256,-260.5 153.256,-133.5 153.256,-76.3675 341.43,-32.6862 420.21,-16.9022"/>
<polygon fill="midnightblue" stroke="midnightblue" points="420.999,-20.3142 430.133,-14.9462 419.645,-13.4463 420.999,-20.3142"/>
</g>
<!-- Node34&#45;&gt;Node22 -->
<g id="edge57" class="edge"><title>Node34&#45;&gt;Node22</title>
<path fill="none" stroke="midnightblue" d="M1009.17,-435.719C924.226,-431.239 791.321,-419.541 680.256,-389 495.507,-338.197 390.684,-374.649 286.256,-214 207.742,-93.2172 208.429,-233.281 507.256,-149 509.177,-148.458 511.138,-147.839 513.099,-147.169"/>
<polygon fill="midnightblue" stroke="midnightblue" points="514.586,-150.349 522.705,-143.541 512.113,-143.8 514.586,-150.349"/>
</g>
<!-- Node34&#45;&gt;Node24 -->
<g id="edge60" class="edge"><title>Node34&#45;&gt;Node24</title>
<path fill="none" stroke="midnightblue" d="M1009.18,-434.269C939.077,-425.74 844.158,-401.485 796.256,-334 750.856,-270.039 841.667,-184.011 882.634,-150.106"/>
<polygon fill="midnightblue" stroke="midnightblue" points="884.987,-152.704 890.552,-143.688 880.58,-147.265 884.987,-152.704"/>
</g>
<!-- Node35 -->
<g id="node36" class="node"><title>Node35</title>
<polygon fill="none" stroke="#bfbfbf" points="1307.87,-310.5 1307.87,-328.5 1346.64,-328.5 1346.64,-310.5 1307.87,-310.5"/>
<text text-anchor="middle" x="1327.26" y="-316.5" font-family="Helvetica,sans-Serif" font-size="10.00">limits</text>
</g>
<!-- Node34&#45;&gt;Node35 -->
<g id="edge55" class="edge"><title>Node34&#45;&gt;Node35</title>
<path fill="none" stroke="midnightblue" d="M1181.33,-430.595C1216.58,-423.893 1256.09,-411.579 1286.26,-389 1303.39,-376.179 1314.77,-353.911 1321.1,-338.253"/>
<polygon fill="midnightblue" stroke="midnightblue" points="1324.46,-339.257 1324.69,-328.665 1317.91,-336.803 1324.46,-339.257"/>
</g>
<!-- Node36 -->
<g id="node37" class="node"><title>Node36</title>
<polygon fill="none" stroke="#bfbfbf" points="1111.41,-370.5 1111.41,-388.5 1149.1,-388.5 1149.1,-370.5 1111.41,-370.5"/>
<text text-anchor="middle" x="1130.26" y="-376.5" font-family="Helvetica,sans-Serif" font-size="10.00">tuple</text>
</g>
<!-- Node34&#45;&gt;Node36 -->
<g id="edge56" class="edge"><title>Node34&#45;&gt;Node36</title>
<path fill="none" stroke="midnightblue" d="M1100.12,-430.435C1105.24,-421.961 1113.43,-408.38 1119.99,-397.519"/>
<polygon fill="midnightblue" stroke="midnightblue" points="1123.03,-399.242 1125.2,-388.872 1117.04,-395.625 1123.03,-399.242"/>
</g>
<!-- Node37 -->
<g id="node38" class="node"><title>Node37</title>
<polygon fill="none" stroke="#bfbfbf" points="705.744,-370.5 705.744,-388.5 756.768,-388.5 756.768,-370.5 705.744,-370.5"/>
<text text-anchor="middle" x="731.256" y="-376.5" font-family="Helvetica,sans-Serif" font-size="10.00">typeinfo</text>
</g>
<!-- Node34&#45;&gt;Node37 -->
<g id="edge59" class="edge"><title>Node34&#45;&gt;Node37</title>
<path fill="none" stroke="midnightblue" d="M1035.96,-430.49C970.864,-421.451 863.34,-405.804 771.256,-389 769.816,-388.737 768.348,-388.461 766.866,-388.177"/>
<polygon fill="midnightblue" stroke="midnightblue" points="767.526,-384.74 757.034,-386.206 766.151,-391.603 767.526,-384.74"/>
</g>
<!-- Node38 -->
<g id="node39" class="node"><title>Node38</title>
<g id="a_node39"><a xlink:href="statusprovider_8h_source.html" target="_top" xlink:title="tomographer/tools/statusprovider.h">
<polygon fill="none" stroke="black" points="805.266,-310.5 805.266,-328.5 975.246,-328.5 975.246,-310.5 805.266,-310.5"/>
<text text-anchor="middle" x="890.256" y="-316.5" font-family="Helvetica,sans-Serif" font-size="10.00">tomographer/tools/statusprovider.h</text>
</a>
</g>
</g>
<!-- Node34&#45;&gt;Node38 -->
<g id="edge62" class="edge"><title>Node34&#45;&gt;Node38</title>
<path fill="none" stroke="midnightblue" d="M1081.17,-430.389C1046.26,-410.3 955.556,-358.087 912.967,-333.572"/>
<polygon fill="midnightblue" stroke="midnightblue" points="914.587,-330.467 904.174,-328.511 911.095,-336.533 914.587,-330.467"/>
</g>
<!-- Node39 -->
<g id="node40" class="node"><title>Node39</title>
<g id="a_node40"><a xlink:href="histogram_8h.html" target="_top" xlink:title="Definitions for Histogram Types. ">
<polygon fill="none" stroke="black" points="619.394,-250.5 619.394,-268.5 747.118,-268.5 747.118,-250.5 619.394,-250.5"/>
<text text-anchor="middle" x="683.256" y="-256.5" font-family="Helvetica,sans-Serif" font-size="10.00">tomographer/histogram.h</text>
</a>
</g>
</g>
<!-- Node34&#45;&gt;Node39 -->
<g id="edge64" class="edge"><title>Node34&#45;&gt;Node39</title>
<path fill="none" stroke="midnightblue" d="M1009,-433.453C898.265,-426.122 717.727,-410.961 696.256,-389 667.462,-359.548 673.297,-306.201 678.89,-278.415"/>
<polygon fill="midnightblue" stroke="midnightblue" points="682.337,-279.037 681.097,-268.515 675.505,-277.514 682.337,-279.037"/>
</g>
<!-- Node47 -->
<g id="node44" class="node"><title>Node47</title>
<g id="a_node44"><a xlink:href="mhrw_8h.html" target="_top" xlink:title="Routines for performing a Metropolis&#45;Hastings random walk. ">
<polygon fill="none" stroke="black" points="1554.4,-370.5 1554.4,-388.5 1662.11,-388.5 1662.11,-370.5 1554.4,-370.5"/>
<text text-anchor="middle" x="1608.26" y="-376.5" font-family="Helvetica,sans-Serif" font-size="10.00">tomographer/mhrw.h</text>
</a>
</g>
</g>
<!-- Node34&#45;&gt;Node47 -->
<g id="edge86" class="edge"><title>Node34&#45;&gt;Node47</title>
<path fill="none" stroke="midnightblue" d="M1166.05,-430.496C1266.16,-419.177 1447.62,-398.661 1544.03,-387.761"/>
<polygon fill="midnightblue" stroke="midnightblue" points="1544.68,-391.211 1554.22,-386.609 1543.89,-384.255 1544.68,-391.211"/>
</g>
<!-- Node51 -->
<g id="node47" class="node"><title>Node51</title>
<g id="a_node47"><a xlink:href="mhrw__bin__err_8h.html" target="_top" xlink:title="Binning Analysis in a Metropolis&#45;Hastings random walk. ">
<polygon fill="none" stroke="black" points="1030.84,-305.5 1030.84,-333.5 1149.67,-333.5 1149.67,-305.5 1030.84,-305.5"/>
<text text-anchor="start" x="1038.84" y="-321.5" font-family="Helvetica,sans-Serif" font-size="10.00">tomographer/mhrw_bin</text>
<text text-anchor="middle" x="1090.26" y="-311.5" font-family="Helvetica,sans-Serif" font-size="10.00">_err.h</text>
</a>
</g>
</g>
<!-- Node34&#45;&gt;Node51 -->
<g id="edge113" class="edge"><title>Node34&#45;&gt;Node51</title>
<path fill="none" stroke="midnightblue" d="M1094.91,-430.389C1094.16,-412.724 1092.36,-370.222 1091.23,-343.553"/>
<polygon fill="midnightblue" stroke="midnightblue" points="1094.73,-343.381 1090.81,-333.538 1087.74,-343.677 1094.73,-343.381"/>
</g>
<!-- Node38&#45;&gt;Node24 -->
<g id="edge63" class="edge"><title>Node38&#45;&gt;Node24</title>
<path fill="none" stroke="midnightblue" d="M890.757,-310.161C892.418,-282.533 897.768,-193.526 900.124,-154.33"/>
<polygon fill="midnightblue" stroke="midnightblue" points="903.646,-154.08 900.752,-143.888 896.658,-153.66 903.646,-154.08"/>
</g>
<!-- Node39&#45;&gt;Node1 -->
<g id="edge68" class="edge"><title>Node39&#45;&gt;Node1</title>
<path fill="none" stroke="midnightblue" d="M632.653,-250.469C605.883,-244.163 573.783,-233.116 550.256,-214 510.859,-181.99 496.969,-119.613 492.369,-88.7273"/>
<polygon fill="midnightblue" stroke="midnightblue" points="495.805,-88.0169 491.027,-78.5609 488.866,-88.933 495.805,-88.0169"/>
</g>
<!-- Node39&#45;&gt;Node2 -->
<g id="edge69" class="edge"><title>Node39&#45;&gt;Node2</title>
<path fill="none" stroke="midnightblue" d="M747.429,-257.004C831.742,-253.865 983.927,-244.137 1110.26,-214 1145.42,-205.611 1151.25,-194.026 1186.26,-185 1245.45,-169.74 1424.14,-148.356 1501.22,-139.541"/>
<polygon fill="midnightblue" stroke="midnightblue" points="1501.86,-142.991 1511.4,-138.383 1501.07,-136.036 1501.86,-142.991"/>
</g>
<!-- Node39&#45;&gt;Node3 -->
<g id="edge74" class="edge"><title>Node39&#45;&gt;Node3</title>
<path fill="none" stroke="midnightblue" d="M633.945,-250.461C581.238,-241.79 495.254,-227.418 421.256,-214 419.81,-213.738 418.347,-213.471 416.873,-213.2"/>
<polygon fill="midnightblue" stroke="midnightblue" points="417.49,-209.755 407.02,-211.37 416.212,-216.637 417.49,-209.755"/>
</g>
<!-- Node39&#45;&gt;Node4 -->
<g id="edge75" class="edge"><title>Node39&#45;&gt;Node4</title>
<path fill="none" stroke="midnightblue" d="M747.142,-257.579C986.884,-253.954 1832.93,-239.599 2101.26,-214 2258.53,-198.996 2441.91,-165.209 2533.3,-147.246"/>
<polygon fill="midnightblue" stroke="midnightblue" points="2534.05,-150.665 2543.18,-145.294 2532.69,-143.798 2534.05,-150.665"/>
</g>
<!-- Node39&#45;&gt;Node5 -->
<g id="edge76" class="edge"><title>Node39&#45;&gt;Node5</title>
<path fill="none" stroke="midnightblue" d="M619.263,-252.375C500.953,-241.052 249.709,-217.005 135.7,-206.094"/>
<polygon fill="midnightblue" stroke="midnightblue" points="135.72,-202.58 125.432,-205.111 135.053,-209.548 135.72,-202.58"/>
</g>
<!-- Node39&#45;&gt;Node10 -->
<g id="edge70" class="edge"><title>Node39&#45;&gt;Node10</title>
<path fill="none" stroke="midnightblue" d="M747.379,-257.624C999.206,-254.017 1912.88,-239.296 2040.26,-214 2109.18,-200.312 2185.3,-166.641 2223.86,-148.155"/>
<polygon fill="midnightblue" stroke="midnightblue" points="2225.8,-151.105 2233.27,-143.588 2222.74,-144.808 2225.8,-151.105"/>
</g>
<!-- Node39&#45;&gt;Node12 -->
<g id="edge72" class="edge"><title>Node39&#45;&gt;Node12</title>
<path fill="none" stroke="midnightblue" d="M703.559,-250.453C764.704,-226.555 952.9,-155.461 1115.26,-120 1246.02,-91.4389 1283.71,-113.557 1414.26,-84 1417.23,-83.3258 1420.3,-82.5136 1423.35,-81.6261"/>
<polygon fill="midnightblue" stroke="midnightblue" points="1424.42,-84.9602 1432.9,-78.6116 1422.31,-78.285 1424.42,-84.9602"/>
</g>
<!-- Node39&#45;&gt;Node18 -->
<g id="edge66" class="edge"><title>Node39&#45;&gt;Node18</title>
<path fill="none" stroke="midnightblue" d="M619.385,-252.661C587.679,-246.993 550.448,-235.857 523.256,-214 463.214,-165.738 404.086,-113.456 454.256,-55 487.162,-16.6592 643.225,-11.0184 711.803,-10.4214"/>
<polygon fill="midnightblue" stroke="midnightblue" points="712.046,-13.9202 722.026,-10.3646 712.007,-6.9203 712.046,-13.9202"/>
</g>
<!-- Node39&#45;&gt;Node20 -->
<g id="edge78" class="edge"><title>Node39&#45;&gt;Node20</title>
<path fill="none" stroke="midnightblue" d="M747.273,-258.031C924.686,-256.311 1437.6,-248.49 1862.26,-214 1875.61,-212.915 1889.86,-211.395 1903.48,-209.765"/>
<polygon fill="midnightblue" stroke="midnightblue" points="1904.24,-213.197 1913.74,-208.501 1903.39,-206.249 1904.24,-213.197"/>
</g>
<!-- Node39&#45;&gt;Node22 -->
<g id="edge67" class="edge"><title>Node39&#45;&gt;Node22</title>
<path fill="none" stroke="midnightblue" d="M643.4,-250.44C620.389,-243.99 592.321,-232.808 573.256,-214 556.508,-197.477 547.83,-171.161 543.661,-153.613"/>
<polygon fill="midnightblue" stroke="midnightblue" points="547.024,-152.599 541.533,-143.539 540.175,-154.046 547.024,-152.599"/>
</g>
<!-- Node39&#45;&gt;Node24 -->
<g id="edge84" class="edge"><title>Node39&#45;&gt;Node24</title>
<path fill="none" stroke="midnightblue" d="M690.351,-250.06C703.376,-235.046 732.589,-203.539 763.256,-185 792.647,-167.233 829.392,-154.443 857.575,-146.32"/>
<polygon fill="midnightblue" stroke="midnightblue" points="858.85,-149.598 867.541,-143.538 856.968,-142.856 858.85,-149.598"/>
</g>
<!-- Node39&#45;&gt;Node27 -->
<g id="edge71" class="edge"><title>Node39&#45;&gt;Node27</title>
<path fill="none" stroke="midnightblue" d="M671.724,-250.389C660.731,-242.201 644.266,-228.694 633.256,-214 602.755,-173.292 580.897,-116.721 571.068,-88.2994"/>
<polygon fill="midnightblue" stroke="midnightblue" points="574.302,-86.935 567.797,-78.5719 567.667,-89.1659 574.302,-86.935"/>
</g>
<!-- Node39&#45;&gt;Node31 -->
<g id="edge77" class="edge"><title>Node39&#45;&gt;Node31</title>
<path fill="none" stroke="midnightblue" d="M672.635,-250.3C663.147,-242.243 649.899,-228.999 644.256,-214 628.22,-171.371 635.597,-116.447 641.126,-88.5271"/>
<polygon fill="midnightblue" stroke="midnightblue" points="644.574,-89.1379 643.239,-78.6274 637.728,-87.6761 644.574,-89.1379"/>
</g>
<!-- Node39&#45;&gt;Node32 -->
<g id="edge85" class="edge"><title>Node39&#45;&gt;Node32</title>
<path fill="none" stroke="midnightblue" d="M747.31,-254.367C852.154,-247.396 1066.9,-232.262 1248.26,-214 1260.72,-212.745 1273.96,-211.255 1286.77,-209.732"/>
<polygon fill="midnightblue" stroke="midnightblue" points="1287.42,-213.178 1296.93,-208.506 1286.58,-206.229 1287.42,-213.178"/>
</g>
<!-- Node40 -->
<g id="node41" class="node"><title>Node40</title>
<polygon fill="none" stroke="#bfbfbf" points="1195.64,-190.5 1195.64,-208.5 1238.87,-208.5 1238.87,-190.5 1195.64,-190.5"/>
<text text-anchor="middle" x="1217.26" y="-196.5" font-family="Helvetica,sans-Serif" font-size="10.00">cmath</text>
</g>
<!-- Node39&#45;&gt;Node40 -->
<g id="edge65" class="edge"><title>Node39&#45;&gt;Node40</title>
<path fill="none" stroke="midnightblue" d="M747.393,-258.257C843.062,-256.668 1028.28,-248.843 1181.26,-214 1183.76,-213.429 1186.33,-212.725 1188.88,-211.94"/>
<polygon fill="midnightblue" stroke="midnightblue" points="1190.18,-215.194 1198.49,-208.626 1187.9,-208.576 1190.18,-215.194"/>
</g>
<!-- Node41 -->
<g id="node42" class="node"><title>Node41</title>
<polygon fill="none" stroke="#bfbfbf" points="653.692,-190.5 653.692,-208.5 710.82,-208.5 710.82,-190.5 653.692,-190.5"/>
<text text-anchor="middle" x="682.256" y="-196.5" font-family="Helvetica,sans-Serif" font-size="10.00">algorithm</text>
</g>
<!-- Node39&#45;&gt;Node41 -->
<g id="edge73" class="edge"><title>Node39&#45;&gt;Node41</title>
<path fill="none" stroke="midnightblue" d="M683.117,-250.435C682.978,-242.389 682.76,-229.739 682.578,-219.185"/>
<polygon fill="midnightblue" stroke="midnightblue" points="686.072,-218.81 682.4,-208.872 679.073,-218.931 686.072,-218.81"/>
</g>
<!-- Node42 -->
<g id="node43" class="node"><title>Node42</title>
<g id="a_node43"><a xlink:href="eigenutil_8h.html" target="_top" xlink:title="Basic utilities for dealing with Eigen matrices and other types. ">
<polygon fill="none" stroke="red" points="956.771,-190.5 956.771,-208.5 1101.74,-208.5 1101.74,-190.5 956.771,-190.5"/>
<text text-anchor="middle" x="1029.26" y="-196.5" font-family="Helvetica,sans-Serif" font-size="10.00">tomographer/tools/eigenutil.h</text>
</a>
</g>
</g>
<!-- Node39&#45;&gt;Node42 -->
<g id="edge79" class="edge"><title>Node39&#45;&gt;Node42</title>
<path fill="none" stroke="midnightblue" d="M731.003,-250.496C793.777,-239.973 903.974,-221.501 971.409,-210.197"/>
<polygon fill="midnightblue" stroke="midnightblue" points="972.161,-213.62 981.444,-208.515 971.003,-206.716 972.161,-213.62"/>
</g>
<!-- Node42&#45;&gt;Node4 -->
<g id="edge83" class="edge"><title>Node42&#45;&gt;Node4</title>
<path fill="none" stroke="midnightblue" d="M1101.89,-191.412C1128.42,-189.046 1158.67,-186.606 1186.26,-185 1709.61,-154.532 1841.54,-172.632 2365.26,-149 2422.39,-146.422 2487.58,-142.414 2533.22,-139.434"/>
<polygon fill="midnightblue" stroke="midnightblue" points="2533.47,-142.924 2543.22,-138.776 2533.01,-135.939 2533.47,-142.924"/>
</g>
<!-- Node42&#45;&gt;Node23 -->
<g id="edge81" class="edge"><title>Node42&#45;&gt;Node23</title>
<path fill="none" stroke="midnightblue" d="M1055.25,-190.393C1092.21,-178.867 1159.85,-157.77 1199.66,-145.356"/>
<polygon fill="midnightblue" stroke="midnightblue" points="1200.87,-148.642 1209.38,-142.323 1198.79,-141.959 1200.87,-148.642"/>
</g>
<!-- Node42&#45;&gt;Node25 -->
<g id="edge80" class="edge"><title>Node42&#45;&gt;Node25</title>
<path fill="none" stroke="midnightblue" d="M1031.13,-190.493C1035.87,-170.29 1048.39,-116.845 1055.02,-88.5937"/>
<polygon fill="midnightblue" stroke="midnightblue" points="1058.51,-89.0388 1057.38,-78.5039 1051.69,-87.4414 1058.51,-89.0388"/>
</g>
<!-- Node42&#45;&gt;Node31 -->
<g id="edge82" class="edge"><title>Node42&#45;&gt;Node31</title>
<path fill="none" stroke="midnightblue" d="M986.629,-190.495C944.728,-182.094 879.248,-167.536 824.256,-149 767.771,-129.961 704.524,-100.089 670.39,-83.2159"/>
<polygon fill="midnightblue" stroke="midnightblue" points="671.678,-79.9476 661.167,-78.6218 668.557,-86.2133 671.678,-79.9476"/>
</g>
<!-- Node47&#45;&gt;Node2 -->
<g id="edge92" class="edge"><title>Node47&#45;&gt;Node2</title>
<path fill="none" stroke="midnightblue" d="M1605.89,-370.415C1595.89,-336.187 1556.9,-202.728 1542.57,-153.698"/>
<polygon fill="midnightblue" stroke="midnightblue" points="1545.86,-152.482 1539.7,-143.865 1539.15,-154.445 1545.86,-152.482"/>
</g>
<!-- Node47&#45;&gt;Node4 -->
<g id="edge94" class="edge"><title>Node47&#45;&gt;Node4</title>
<path fill="none" stroke="midnightblue" d="M1662.18,-376.385C1778.46,-371.433 2049.48,-357.676 2138.26,-334 2167.65,-326.161 2170.98,-313.269 2200.26,-305 2336.71,-266.456 2394.74,-340.381 2517.26,-269 2557.81,-245.372 2577.67,-190.536 2586.06,-158.985"/>
<polygon fill="midnightblue" stroke="midnightblue" points="2589.55,-159.434 2588.56,-148.885 2582.76,-157.749 2589.55,-159.434"/>
</g>
<!-- Node47&#45;&gt;Node6 -->
<g id="edge95" class="edge"><title>Node47&#45;&gt;Node6</title>
<path fill="none" stroke="midnightblue" d="M1622,-370.389C1655.98,-350.342 1744.18,-298.307 1785.84,-273.727"/>
<polygon fill="midnightblue" stroke="midnightblue" points="1787.84,-276.607 1794.68,-268.511 1784.29,-270.578 1787.84,-276.607"/>
</g>
<!-- Node47&#45;&gt;Node10 -->
<g id="edge91" class="edge"><title>Node47&#45;&gt;Node10</title>
<path fill="none" stroke="midnightblue" d="M1644.42,-370.445C1682.36,-361.875 1743.67,-347.692 1796.26,-334 1843.43,-321.716 2182.12,-246.721 2218.26,-214 2235.62,-198.273 2243.39,-171.567 2246.77,-153.733"/>
<polygon fill="midnightblue" stroke="midnightblue" points="2250.25,-154.156 2248.39,-143.725 2243.34,-153.039 2250.25,-154.156"/>
</g>
<!-- Node47&#45;&gt;Node12 -->
<g id="edge93" class="edge"><title>Node47&#45;&gt;Node12</title>
<path fill="none" stroke="midnightblue" d="M1662.29,-370.847C1715.28,-362.976 1798.22,-349.676 1869.26,-334 2039.31,-296.471 2084.54,-287.831 2242.26,-214 2304.57,-184.83 2412.57,-169.953 2365.26,-120 2334.97,-88.0223 1669.42,-74.2421 1495.52,-71.1798"/>
<polygon fill="midnightblue" stroke="midnightblue" points="1495.55,-67.6799 1485.49,-71.0055 1495.43,-74.6788 1495.55,-67.6799"/>
</g>
<!-- Node47&#45;&gt;Node17 -->
<g id="edge87" class="edge"><title>Node47&#45;&gt;Node17</title>
<path fill="none" stroke="midnightblue" d="M1554.36,-378.294C1428.51,-377.193 1118.68,-370.716 1022.26,-334 1002.4,-326.44 1004.1,-312.577 984.256,-305 791.014,-231.236 724.646,-300.757 520.256,-269 414.689,-252.598 352.596,-297.741 286.256,-214 228.317,-140.864 368.894,-55.2986 428.796,-23.3688"/>
<polygon fill="midnightblue" stroke="midnightblue" points="430.768,-26.287 438.002,-18.5462 427.52,-20.0862 430.768,-26.287"/>
</g>
<!-- Node47&#45;&gt;Node20 -->
<g id="edge96" class="edge"><title>Node47&#45;&gt;Node20</title>
<path fill="none" stroke="midnightblue" d="M1637.34,-370.429C1689.66,-355.203 1802.09,-319.204 1887.26,-269 1913.02,-253.811 1939.02,-230.83 1954.89,-215.743"/>
<polygon fill="midnightblue" stroke="midnightblue" points="1957.46,-218.128 1962.2,-208.656 1952.59,-213.1 1957.46,-218.128"/>
</g>
<!-- Node47&#45;&gt;Node24 -->
<g id="edge97" class="edge"><title>Node47&#45;&gt;Node24</title>
<path fill="none" stroke="midnightblue" d="M1603.66,-370.369C1584.39,-336.547 1509.16,-207.709 1469.26,-185 1427.7,-161.348 1125.25,-145.199 979.444,-138.702"/>
<polygon fill="midnightblue" stroke="midnightblue" points="979.367,-135.195 969.222,-138.251 979.058,-142.189 979.367,-135.195"/>
</g>
<!-- Node47&#45;&gt;Node32 -->
<g id="edge112" class="edge"><title>Node47&#45;&gt;Node32</title>
<path fill="none" stroke="midnightblue" d="M1585.38,-370.436C1565.16,-362.737 1535.39,-349.959 1512.26,-334 1468.28,-303.662 1467.07,-284.479 1426.26,-250 1410.97,-237.091 1392.58,-223.823 1378.77,-214.277"/>
<polygon fill="midnightblue" stroke="midnightblue" points="1380.67,-211.338 1370.44,-208.583 1376.72,-217.116 1380.67,-211.338"/>
</g>
<!-- Node47&#45;&gt;Node35 -->
<g id="edge89" class="edge"><title>Node47&#45;&gt;Node35</title>
<path fill="none" stroke="midnightblue" d="M1554.29,-372.155C1503.54,-365.408 1425.78,-353.051 1360.26,-334 1358.38,-333.456 1356.47,-332.841 1354.56,-332.181"/>
<polygon fill="midnightblue" stroke="midnightblue" points="1355.76,-328.893 1345.17,-328.628 1353.28,-335.44 1355.76,-328.893"/>
</g>
<!-- Node47&#45;&gt;Node38 -->
<g id="edge98" class="edge"><title>Node47&#45;&gt;Node38</title>
<path fill="none" stroke="midnightblue" d="M1554.34,-375.783C1446.72,-370.105 1197.69,-355.681 989.256,-334 977.98,-332.827 966.009,-331.373 954.433,-329.858"/>
<polygon fill="midnightblue" stroke="midnightblue" points="954.764,-326.371 944.389,-328.517 953.837,-333.31 954.764,-326.371"/>
</g>
<!-- Node47&#45;&gt;Node40 -->
<g id="edge88" class="edge"><title>Node47&#45;&gt;Node40</title>
<path fill="none" stroke="midnightblue" d="M1580.02,-370.441C1552.78,-362.341 1510.57,-348.94 1475.26,-334 1385.25,-295.925 1283.67,-238.999 1239.62,-213.577"/>
<polygon fill="midnightblue" stroke="midnightblue" points="1241.28,-210.497 1230.88,-208.51 1237.77,-216.553 1241.28,-210.497"/>
</g>
<!-- Node48 -->
<g id="node45" class="node"><title>Node48</title>
<polygon fill="none" stroke="#bfbfbf" points="2209.3,-310.5 2209.3,-328.5 2259.21,-328.5 2259.21,-310.5 2209.3,-310.5"/>
<text text-anchor="middle" x="2234.26" y="-316.5" font-family="Helvetica,sans-Serif" font-size="10.00">random</text>
</g>
<!-- Node47&#45;&gt;Node48 -->
<g id="edge90" class="edge"><title>Node47&#45;&gt;Node48</title>
<path fill="none" stroke="midnightblue" d="M1662.32,-379.018C1766.56,-379.004 2002.11,-374.048 2195.26,-334 2198.31,-333.366 2201.46,-332.556 2204.58,-331.649"/>
<polygon fill="midnightblue" stroke="midnightblue" points="2205.85,-334.917 2214.29,-328.516 2203.7,-328.255 2205.85,-334.917"/>
</g>
<!-- Node49 -->
<g id="node46" class="node"><title>Node49</title>
<g id="a_node46"><a xlink:href="multiproc_8h.html" target="_top" xlink:title="Some common definitions for multiprocessing interfaces. ">
<polygon fill="none" stroke="red" points="2384.06,-250.5 2384.06,-268.5 2508.45,-268.5 2508.45,-250.5 2384.06,-250.5"/>
<text text-anchor="middle" x="2446.26" y="-256.5" font-family="Helvetica,sans-Serif" font-size="10.00">tomographer/multiproc.h</text>
</a>
</g>
</g>
<!-- Node47&#45;&gt;Node49 -->
<g id="edge99" class="edge"><title>Node47&#45;&gt;Node49</title>
<path fill="none" stroke="midnightblue" d="M1662.42,-377.464C1750.96,-374.868 1931.8,-365.78 2081.26,-334 2120.71,-325.61 2128.09,-314.655 2167.26,-305 2236.56,-287.916 2317.22,-275.876 2373.93,-268.666"/>
<polygon fill="midnightblue" stroke="midnightblue" points="2374.39,-272.135 2383.88,-267.419 2373.52,-265.189 2374.39,-272.135"/>
</g>
<!-- Node47&#45;&gt;Node51 -->
<g id="edge106" class="edge"><title>Node47&#45;&gt;Node51</title>
<path fill="none" stroke="midnightblue" d="M1554.29,-372.457C1459.87,-361.885 1264.83,-340.047 1160.2,-328.332"/>
<polygon fill="midnightblue" stroke="midnightblue" points="1160.38,-324.83 1150.06,-327.196 1159.6,-331.787 1160.38,-324.83"/>
</g>
<!-- Node49&#45;&gt;Node4 -->
<g id="edge103" class="edge"><title>Node49&#45;&gt;Node4</title>
<path fill="none" stroke="midnightblue" d="M2466.44,-250.486C2484.18,-242.82 2510.08,-230.062 2529.26,-214 2548.8,-197.629 2566.32,-174.218 2577.71,-157.225"/>
<polygon fill="midnightblue" stroke="midnightblue" points="2580.85,-158.819 2583.38,-148.531 2574.98,-154.995 2580.85,-158.819"/>
</g>
<!-- Node49&#45;&gt;Node9 -->
<g id="edge100" class="edge"><title>Node49&#45;&gt;Node9</title>
<path fill="none" stroke="midnightblue" d="M2452.33,-250.409C2473.24,-221.517 2538.62,-121.619 2496.26,-55 2482.17,-32.8428 2453.82,-21.5286 2431.74,-15.8718"/>
<polygon fill="midnightblue" stroke="midnightblue" points="2432.33,-12.4169 2421.8,-13.5893 2430.76,-19.2392 2432.33,-12.4169"/>
</g>
<!-- Node49&#45;&gt;Node20 -->
<g id="edge104" class="edge"><title>Node49&#45;&gt;Node20</title>
<path fill="none" stroke="midnightblue" d="M2384.03,-250.918C2295.73,-240.159 2134.52,-220.515 2041.53,-209.185"/>
<polygon fill="midnightblue" stroke="midnightblue" points="2041.72,-205.682 2031.37,-207.947 2040.87,-212.631 2041.72,-205.682"/>
</g>
<!-- Node49&#45;&gt;Node21 -->
<g id="edge101" class="edge"><title>Node49&#45;&gt;Node21</title>
<path fill="none" stroke="midnightblue" d="M2438.84,-250.43C2420.41,-230.367 2372.25,-177.946 2347.86,-151.398"/>
<polygon fill="midnightblue" stroke="midnightblue" points="2350.19,-148.758 2340.85,-143.761 2345.03,-153.493 2350.19,-148.758"/>
</g>
<!-- Node49&#45;&gt;Node26 -->
<g id="edge102" class="edge"><title>Node49&#45;&gt;Node26</title>
<path fill="none" stroke="midnightblue" d="M2447.85,-250.336C2449.5,-241.44 2452.03,-226.768 2453.26,-214 2457.54,-169.255 2458.27,-116.349 2458.33,-88.9782"/>
<polygon fill="midnightblue" stroke="midnightblue" points="2461.83,-88.6105 2458.32,-78.6137 2454.83,-88.6169 2461.83,-88.6105"/>
</g>
<!-- Node49&#45;&gt;Node32 -->
<g id="edge105" class="edge"><title>Node49&#45;&gt;Node32</title>
<path fill="none" stroke="midnightblue" d="M2383.85,-255.173C2206.53,-245.72 1697.85,-218.603 1470.45,-206.481"/>
<polygon fill="midnightblue" stroke="midnightblue" points="1470.34,-202.97 1460.17,-205.933 1469.96,-209.96 1470.34,-202.97"/>
</g>
<!-- Node51&#45;&gt;Node3 -->
<g id="edge111" class="edge"><title>Node51&#45;&gt;Node3</title>
<path fill="none" stroke="midnightblue" d="M1030.57,-306.987C1026.07,-306.265 1021.6,-305.592 1017.26,-305 837.327,-280.461 789.128,-300.329 610.256,-269 536.658,-256.109 453.438,-232.423 401.654,-216.566"/>
<polygon fill="midnightblue" stroke="midnightblue" points="402.632,-213.205 392.045,-213.602 400.569,-219.894 402.632,-213.205"/>
</g>
<!-- Node51&#45;&gt;Node6 -->
<g id="edge107" class="edge"><title>Node51&#45;&gt;Node6</title>
<path fill="none" stroke="midnightblue" d="M1149.93,-313.68C1278.59,-303.287 1582.18,-278.762 1727.72,-267.006"/>
<polygon fill="midnightblue" stroke="midnightblue" points="1728.23,-270.476 1737.92,-266.182 1727.67,-263.499 1728.23,-270.476"/>
</g>
<!-- Node51&#45;&gt;Node24 -->
<g id="edge109" class="edge"><title>Node51&#45;&gt;Node24</title>
<path fill="none" stroke="midnightblue" d="M1067.17,-305.485C1037.11,-287.716 984.19,-253.518 948.256,-214 931.265,-195.314 917.249,-169.557 909.068,-152.722"/>
<polygon fill="midnightblue" stroke="midnightblue" points="912.172,-151.098 904.753,-143.535 905.836,-154.074 912.172,-151.098"/>
</g>
<!-- Node51&#45;&gt;Node32 -->
<g id="edge110" class="edge"><title>Node51&#45;&gt;Node32</title>
<path fill="none" stroke="midnightblue" d="M1109.85,-305.273C1132.55,-290.375 1171.42,-266.144 1207.26,-250 1243.41,-233.713 1286.58,-220.109 1317.48,-211.311"/>
<polygon fill="midnightblue" stroke="midnightblue" points="1318.77,-214.582 1327.46,-208.514 1316.88,-207.842 1318.77,-214.582"/>
</g>
<!-- Node51&#45;&gt;Node42 -->
<g id="edge108" class="edge"><title>Node51&#45;&gt;Node42</title>
<path fill="none" stroke="midnightblue" d="M1083.5,-305.421C1072.42,-283.999 1050.42,-241.44 1038.11,-217.636"/>
<polygon fill="midnightblue" stroke="midnightblue" points="1041.2,-215.974 1033.49,-208.698 1034.98,-219.189 1041.2,-215.974"/>
</g>
<!-- Node52&#45;&gt;Node4 -->
<g id="edge121" class="edge"><title>Node52&#45;&gt;Node4</title>
<path fill="none" stroke="midnightblue" d="M2333.19,-497.502C2390.52,-494.414 2474.62,-484.432 2541.26,-454 2587.61,-432.83 2629.26,-431.459 2629.26,-380.5 2629.26,-380.5 2629.26,-380.5 2629.26,-258.5 2629.26,-221.963 2613.76,-181.932 2602.56,-157.769"/>
<polygon fill="midnightblue" stroke="midnightblue" points="2605.71,-156.238 2598.23,-148.736 2599.4,-159.266 2605.71,-156.238"/>
</g>
<!-- Node52&#45;&gt;Node9 -->
<g id="edge116" class="edge"><title>Node52&#45;&gt;Node9</title>
<path fill="none" stroke="midnightblue" d="M2333.16,-490.584C2423.83,-479.516 2577.2,-460.087 2588.26,-454 2676.3,-405.541 2705.26,-360.999 2705.26,-260.5 2705.26,-260.5 2705.26,-260.5 2705.26,-133.5 2705.26,-74.9093 2508.75,-31.0247 2431.72,-16.0716"/>
<polygon fill="midnightblue" stroke="midnightblue" points="2432.15,-12.5915 2421.67,-14.1552 2430.84,-19.4674 2432.15,-12.5915"/>
</g>
<!-- Node52&#45;&gt;Node10 -->
<g id="edge119" class="edge"><title>Node52&#45;&gt;Node10</title>
<path fill="none" stroke="midnightblue" d="M2274.6,-490.311C2290.21,-472.032 2325.26,-425.926 2325.26,-380.5 2325.26,-380.5 2325.26,-380.5 2325.26,-258.5 2325.26,-214.011 2288.83,-172.168 2266.41,-150.632"/>
<polygon fill="midnightblue" stroke="midnightblue" points="2268.59,-147.882 2258.88,-143.649 2263.83,-153.015 2268.59,-147.882"/>
</g>
<!-- Node52&#45;&gt;Node20 -->
<g id="edge123" class="edge"><title>Node52&#45;&gt;Node20</title>
<path fill="none" stroke="midnightblue" d="M2269.63,-490.284C2274.93,-471.189 2287.26,-422.264 2287.26,-380.5 2287.26,-380.5 2287.26,-380.5 2287.26,-318.5 2287.26,-264.374 2122.89,-227.014 2030.87,-210.339"/>
<polygon fill="midnightblue" stroke="midnightblue" points="2031.3,-206.86 2020.84,-208.551 2030.07,-213.751 2031.3,-206.86"/>
</g>
<!-- Node52&#45;&gt;Node27 -->
<g id="edge120" class="edge"><title>Node52&#45;&gt;Node27</title>
<path fill="none" stroke="midnightblue" d="M2201.45,-499.069C2013.51,-500.073 1458.36,-498.723 1000.26,-454 819.252,-436.33 775.694,-418.609 596.256,-389 416.135,-359.278 191.256,-503.056 191.256,-320.5 191.256,-320.5 191.256,-320.5 191.256,-258.5 191.256,-213.081 224.315,-209.966 262.256,-185 285.867,-169.463 459.266,-107.713 532.625,-81.9164"/>
<polygon fill="midnightblue" stroke="midnightblue" points="534.011,-85.1393 542.287,-78.5236 531.692,-78.5347 534.011,-85.1393"/>
</g>
<!-- Node52&#45;&gt;Node32 -->
<g id="edge124" class="edge"><title>Node52&#45;&gt;Node32</title>
<path fill="none" stroke="midnightblue" d="M2201.37,-493.279C2046.12,-480.219 1661.68,-443.245 1545.26,-389 1461.25,-349.863 1393.86,-255.949 1368.8,-217.425"/>
<polygon fill="midnightblue" stroke="midnightblue" points="1371.44,-215.054 1363.11,-208.503 1365.54,-218.817 1371.44,-215.054"/>
</g>
<!-- Node52&#45;&gt;Node34 -->
<g id="edge126" class="edge"><title>Node52&#45;&gt;Node34</title>
<path fill="none" stroke="midnightblue" d="M2201.31,-495.236C2004.81,-485.512 1422.59,-456.699 1191.42,-445.259"/>
<polygon fill="midnightblue" stroke="midnightblue" points="1191.51,-441.759 1181.35,-444.761 1191.16,-448.751 1191.51,-441.759"/>
</g>
<!-- Node52&#45;&gt;Node35 -->
<g id="edge117" class="edge"><title>Node52&#45;&gt;Node35</title>
<path fill="none" stroke="midnightblue" d="M2201.44,-498.732C2094.97,-497.907 1878.84,-491.243 1700.26,-454 1613.71,-435.951 1595.49,-418.795 1512.26,-389 1456.84,-369.165 1392.46,-345.093 1356.12,-331.41"/>
<polygon fill="midnightblue" stroke="midnightblue" points="1357.24,-328.091 1346.65,-327.839 1354.77,-334.641 1357.24,-328.091"/>
</g>
<!-- Node52&#45;&gt;Node47 -->
<g id="edge125" class="edge"><title>Node52&#45;&gt;Node47</title>
<path fill="none" stroke="midnightblue" d="M2222.48,-490.482C2105.43,-469.523 1790.59,-413.148 1663.04,-390.309"/>
<polygon fill="midnightblue" stroke="midnightblue" points="1663.56,-386.846 1653.1,-388.529 1662.32,-393.737 1663.56,-386.846"/>
</g>
<!-- Node52&#45;&gt;Node48 -->
<g id="edge118" class="edge"><title>Node52&#45;&gt;Node48</title>
<path fill="none" stroke="midnightblue" d="M2265.75,-490.389C2260.77,-463.516 2244.72,-376.94 2237.65,-338.815"/>
<polygon fill="midnightblue" stroke="midnightblue" points="2241.03,-337.853 2235.77,-328.658 2234.15,-339.129 2241.03,-337.853"/>
</g>
<!-- Node52&#45;&gt;Node49 -->
<g id="edge127" class="edge"><title>Node52&#45;&gt;Node49</title>
<path fill="none" stroke="midnightblue" d="M2333.3,-496.206C2400.12,-492.331 2496.81,-481.924 2520.26,-454 2566.5,-398.915 2495.35,-311.821 2461.98,-276.335"/>
<polygon fill="midnightblue" stroke="midnightblue" points="2464.23,-273.616 2454.77,-268.838 2459.18,-278.47 2464.23,-273.616"/>
</g>
<!-- Node53 -->
<g id="node49" class="node"><title>Node53</title>
<polygon fill="none" stroke="#bfbfbf" points="2353.37,-430.5 2353.37,-448.5 2397.14,-448.5 2397.14,-430.5 2353.37,-430.5"/>
<text text-anchor="middle" x="2375.26" y="-436.5" font-family="Helvetica,sans-Serif" font-size="10.00">climits</text>
</g>
<!-- Node52&#45;&gt;Node53 -->
<g id="edge115" class="edge"><title>Node52&#45;&gt;Node53</title>
<path fill="none" stroke="midnightblue" d="M2282.27,-490.435C2300.07,-480.88 2329.95,-464.832 2351.03,-453.511"/>
<polygon fill="midnightblue" stroke="midnightblue" points="2352.86,-456.498 2360.02,-448.683 2349.55,-450.331 2352.86,-456.498"/>
</g>
<!-- Node54 -->
<g id="node50" class="node"><title>Node54</title>
<polygon fill="none" stroke="#bfbfbf" points="2415.23,-425.5 2415.23,-453.5 2511.28,-453.5 2511.28,-425.5 2415.23,-425.5"/>
<text text-anchor="start" x="2423.23" y="-441.5" font-family="Helvetica,sans-Serif" font-size="10.00">boost/serialization</text>
<text text-anchor="middle" x="2463.26" y="-431.5" font-family="Helvetica,sans-Serif" font-size="10.00">/vector.hpp</text>
</g>
<!-- Node52&#45;&gt;Node54 -->
<g id="edge122" class="edge"><title>Node52&#45;&gt;Node54</title>
<path fill="none" stroke="midnightblue" d="M2294.51,-490.435C2324.15,-481.663 2372.29,-467.419 2409.58,-456.385"/>
<polygon fill="midnightblue" stroke="midnightblue" points="2410.7,-459.703 2419.29,-453.51 2408.71,-452.991 2410.7,-459.703"/>
</g>
</g>
</svg>
