<?xml version="1.0" encoding="UTF-8" standalone="no"?>
<!DOCTYPE svg PUBLIC "-//W3C//DTD SVG 1.1//EN"
 "http://www.w3.org/Graphics/SVG/1.1/DTD/svg11.dtd">
<!-- Generated by graphviz version 2.38.0 (20140413.2041)
 -->
<!-- Title: tomographer/mhrw_bin_err.h Pages: 1 -->
<svg width="1916pt" height="342pt"
 viewBox="0.00 0.00 1916.20 342.00" xmlns="http://www.w3.org/2000/svg" xmlns:xlink="http://www.w3.org/1999/xlink">
<g id="graph0" class="graph" transform="scale(1 1) rotate(0) translate(4 338)">
<title>tomographer/mhrw_bin_err.h</title>
<!-- Node0 -->
<g id="node1" class="node"><title>Node0</title>
<polygon fill="#bfbfbf" stroke="black" points="758.653,-305.5 758.653,-333.5 877.48,-333.5 877.48,-305.5 758.653,-305.5"/>
<text text-anchor="start" x="766.653" y="-321.5" font-family="Helvetica,sans-Serif" font-size="10.00">tomographer/mhrw_bin</text>
<text text-anchor="middle" x="818.066" y="-311.5" font-family="Helvetica,sans-Serif" font-size="10.00">_err.h</text>
</g>
<!-- Node1 -->
<g id="node2" class="node"><title>Node1</title>
<g id="a_node2"><a xlink:href="loggers_8h.html" target="_top" xlink:title="Utilities for logging messages. ">
<polygon fill="none" stroke="black" points="747.808,-245.5 747.808,-263.5 888.325,-263.5 888.325,-245.5 747.808,-245.5"/>
<text text-anchor="middle" x="818.066" y="-251.5" font-family="Helvetica,sans-Serif" font-size="10.00">tomographer/tools/loggers.h</text>
</a>
</g>
</g>
<!-- Node0&#45;&gt;Node1 -->
<g id="edge1" class="edge"><title>Node0&#45;&gt;Node1</title>
<path fill="none" stroke="midnightblue" d="M818.066,-305.446C818.066,-296.334 818.066,-284.041 818.066,-273.931"/>
<polygon fill="midnightblue" stroke="midnightblue" points="821.567,-273.73 818.066,-263.73 814.567,-273.73 821.567,-273.73"/>
</g>
<!-- Node21 -->
<g id="node22" class="node"><title>Node21</title>
<g id="a_node22"><a xlink:href="cxxutil_8h.html" target="_top" xlink:title="Some C++ utilities, with a tad of C++11 tricks. ">
<polygon fill="none" stroke="black" points="420.315,-125.5 420.315,-143.5 555.817,-143.5 555.817,-125.5 420.315,-125.5"/>
<text text-anchor="middle" x="488.066" y="-131.5" font-family="Helvetica,sans-Serif" font-size="10.00">tomographer/tools/cxxutil.h</text>
</a>
</g>
</g>
<!-- Node0&#45;&gt;Node21 -->
<g id="edge52" class="edge"><title>Node0&#45;&gt;Node21</title>
<path fill="none" stroke="midnightblue" d="M794.598,-305.486C733.937,-271.847 572.445,-182.292 511.653,-148.58"/>
<polygon fill="midnightblue" stroke="midnightblue" points="513.235,-145.455 502.792,-143.666 509.84,-151.577 513.235,-145.455"/>
</g>
<!-- Node29 -->
<g id="node30" class="node"><title>Node29</title>
<g id="a_node30"><a xlink:href="eigenutil_8h.html" target="_top" xlink:title="Basic utilities for dealing with Eigen matrices and other types. ">
<polygon fill="none" stroke="black" points="1341.58,-185.5 1341.58,-203.5 1486.55,-203.5 1486.55,-185.5 1341.58,-185.5"/>
<text text-anchor="middle" x="1414.07" y="-191.5" font-family="Helvetica,sans-Serif" font-size="10.00">tomographer/tools/eigenutil.h</text>
</a>
</g>
</g>
<!-- Node0&#45;&gt;Node29 -->
<g id="edge43" class="edge"><title>Node0&#45;&gt;Node29</title>
<path fill="none" stroke="midnightblue" d="M840.212,-305.375C856.246,-295.691 878.306,-281.995 897.066,-269 914.531,-256.903 915.276,-247.727 935.066,-240 1005.18,-212.624 1214.02,-201.738 1331.48,-197.692"/>
<polygon fill="midnightblue" stroke="midnightblue" points="1331.63,-201.189 1341.51,-197.356 1331.4,-194.193 1331.63,-201.189"/>
</g>
<!-- Node35 -->
<g id="node36" class="node"><title>Node35</title>
<g id="a_node36"><a xlink:href="needownoperatornew_8h.html" target="_top" xlink:title="Managing the need for specific overrides to operator new() for some types (especially Eigen types) ...">
<polygon fill="none" stroke="black" points="187.39,-185.5 187.39,-203.5 390.743,-203.5 390.743,-185.5 187.39,-185.5"/>
<text text-anchor="middle" x="289.066" y="-191.5" font-family="Helvetica,sans-Serif" font-size="10.00">tomographer/tools/needownoperatornew.h</text>
</a>
</g>
</g>
<!-- Node0&#45;&gt;Node35 -->
<g id="edge53" class="edge"><title>Node0&#45;&gt;Node35</title>
<path fill="none" stroke="midnightblue" d="M758.487,-314.614C660.237,-307.663 468.761,-291.677 405.066,-269 366.77,-255.366 328.028,-227.288 306.423,-210.055"/>
<polygon fill="midnightblue" stroke="midnightblue" points="308.48,-207.216 298.515,-203.615 304.06,-212.644 308.48,-207.216"/>
</g>
<!-- Node37 -->
<g id="node38" class="node"><title>Node37</title>
<polygon fill="none" stroke="#bfbfbf" points="944.54,-240.5 944.54,-268.5 1055.59,-268.5 1055.59,-240.5 944.54,-240.5"/>
<text text-anchor="start" x="952.54" y="-256.5" font-family="Helvetica,sans-Serif" font-size="10.00">boost/math/constants</text>
<text text-anchor="middle" x="1000.07" y="-246.5" font-family="Helvetica,sans-Serif" font-size="10.00">/constants.hpp</text>
</g>
<!-- Node0&#45;&gt;Node37 -->
<g id="edge57" class="edge"><title>Node0&#45;&gt;Node37</title>
<path fill="none" stroke="midnightblue" d="M855.777,-305.446C883.962,-295.69 922.678,-282.288 952.911,-271.823"/>
<polygon fill="midnightblue" stroke="midnightblue" points="954.099,-275.116 962.404,-268.537 951.809,-268.501 954.099,-275.116"/>
</g>
<!-- Node2 -->
<g id="node3" class="node"><title>Node2</title>
<polygon fill="none" stroke="#bfbfbf" points="688.005,-125.5 688.005,-143.5 730.128,-143.5 730.128,-125.5 688.005,-125.5"/>
<text text-anchor="middle" x="709.066" y="-131.5" font-family="Helvetica,sans-Serif" font-size="10.00">cstdio</text>
</g>
<!-- Node1&#45;&gt;Node2 -->
<g id="edge2" class="edge"><title>Node1&#45;&gt;Node2</title>
<path fill="none" stroke="midnightblue" d="M802.951,-245.444C787.699,-236.755 764.162,-221.754 748.066,-204 734.31,-188.825 723.308,-167.98 716.542,-153.281"/>
<polygon fill="midnightblue" stroke="midnightblue" points="719.616,-151.578 712.385,-143.834 713.209,-154.397 719.616,-151.578"/>
</g>
<!-- Node3 -->
<g id="node4" class="node"><title>Node3</title>
<polygon fill="none" stroke="#bfbfbf" points="1161.67,-125.5 1161.67,-143.5 1210.46,-143.5 1210.46,-125.5 1161.67,-125.5"/>
<text text-anchor="middle" x="1186.07" y="-131.5" font-family="Helvetica,sans-Serif" font-size="10.00">cstdarg</text>
</g>
<!-- Node1&#45;&gt;Node3 -->
<g id="edge3" class="edge"><title>Node1&#45;&gt;Node3</title>
<path fill="none" stroke="midnightblue" d="M866.895,-245.447C878.42,-243.603 890.67,-241.69 902.066,-240 960.854,-231.284 1122.29,-243.081 1167.07,-204 1181.28,-191.592 1185.29,-169.572 1186.22,-153.847"/>
<polygon fill="midnightblue" stroke="midnightblue" points="1189.72,-153.814 1186.45,-143.737 1182.72,-153.654 1189.72,-153.814"/>
</g>
<!-- Node4 -->
<g id="node5" class="node"><title>Node4</title>
<polygon fill="none" stroke="#bfbfbf" points="966.84,-0.5 966.84,-18.5 1007.29,-18.5 1007.29,-0.5 966.84,-0.5"/>
<text text-anchor="middle" x="987.066" y="-6.5" font-family="Helvetica,sans-Serif" font-size="10.00">string</text>
</g>
<!-- Node1&#45;&gt;Node4 -->
<g id="edge4" class="edge"><title>Node1&#45;&gt;Node4</title>
<path fill="none" stroke="midnightblue" d="M882.375,-245.486C899.482,-243.517 917.96,-241.536 935.066,-240 1041.89,-230.409 1825.57,-229.83 1896.07,-149 2016.64,-10.7589 1188.13,-9.10462 1017.42,-10.2119"/>
<polygon fill="midnightblue" stroke="midnightblue" points="1017.34,-6.71234 1007.36,-10.2856 1017.39,-13.7122 1017.34,-6.71234"/>
</g>
<!-- Node5 -->
<g id="node6" class="node"><title>Node5</title>
<polygon fill="none" stroke="#bfbfbf" points="1015.29,-125.5 1015.29,-143.5 1066.85,-143.5 1066.85,-125.5 1015.29,-125.5"/>
<text text-anchor="middle" x="1041.07" y="-131.5" font-family="Helvetica,sans-Serif" font-size="10.00">sstream</text>
</g>
<!-- Node1&#45;&gt;Node5 -->
<g id="edge5" class="edge"><title>Node1&#45;&gt;Node5</title>
<path fill="none" stroke="midnightblue" d="M830.32,-245.389C850.758,-232.017 893.295,-204.852 931.066,-185 957.872,-170.912 989.491,-156.946 1011.93,-147.459"/>
<polygon fill="midnightblue" stroke="midnightblue" points="1013.38,-150.648 1021.25,-143.555 1010.67,-144.192 1013.38,-150.648"/>
</g>
<!-- Node6 -->
<g id="node7" class="node"><title>Node6</title>
<polygon fill="none" stroke="#bfbfbf" points="889.894,-60.5 889.894,-78.5 944.239,-78.5 944.239,-60.5 889.894,-60.5"/>
<text text-anchor="middle" x="917.066" y="-66.5" font-family="Helvetica,sans-Serif" font-size="10.00">iostream</text>
</g>
<!-- Node1&#45;&gt;Node6 -->
<g id="edge6" class="edge"><title>Node1&#45;&gt;Node6</title>
<path fill="none" stroke="midnightblue" d="M797.052,-245.399C748.411,-225.506 635.454,-172.072 679.066,-120 737.62,-50.0889 793.119,-108.11 881.066,-84 883.348,-83.3746 885.687,-82.6637 888.025,-81.9028"/>
<polygon fill="midnightblue" stroke="midnightblue" points="889.198,-85.2007 897.474,-78.5858 886.879,-78.5959 889.198,-85.2007"/>
</g>
<!-- Node7 -->
<g id="node8" class="node"><title>Node7</title>
<polygon fill="none" stroke="#bfbfbf" points="1084.66,-125.5 1084.66,-143.5 1143.47,-143.5 1143.47,-125.5 1084.66,-125.5"/>
<text text-anchor="middle" x="1114.07" y="-131.5" font-family="Helvetica,sans-Serif" font-size="10.00">functional</text>
</g>
<!-- Node1&#45;&gt;Node7 -->
<g id="edge7" class="edge"><title>Node1&#45;&gt;Node7</title>
<path fill="none" stroke="midnightblue" d="M837.746,-245.46C860.317,-236.087 898.3,-219.852 930.066,-204 945.555,-196.271 948.193,-191.905 964.066,-185 1012.01,-164.144 1026.54,-165.754 1076.07,-149 1077.96,-148.361 1079.9,-147.696 1081.85,-147.021"/>
<polygon fill="midnightblue" stroke="midnightblue" points="1083.32,-150.216 1091.6,-143.608 1081.01,-143.609 1083.32,-150.216"/>
</g>
<!-- Node8 -->
<g id="node9" class="node"><title>Node8</title>
<polygon fill="none" stroke="#bfbfbf" points="0,-60.5 0,-78.5 62.1328,-78.5 62.1328,-60.5 0,-60.5"/>
<text text-anchor="middle" x="31.0664" y="-66.5" font-family="Helvetica,sans-Serif" font-size="10.00">type_traits</text>
</g>
<!-- Node1&#45;&gt;Node8 -->
<g id="edge8" class="edge"><title>Node1&#45;&gt;Node8</title>
<path fill="none" stroke="midnightblue" d="M784.093,-245.445C743.567,-235.792 673.794,-219.036 614.066,-204 542.354,-185.947 364.252,-136.057 292.066,-120 206.038,-100.864 183.575,-100.831 97.0664,-84 88.9862,-82.4279 80.3603,-80.6998 72.0994,-79.0203"/>
<polygon fill="midnightblue" stroke="midnightblue" points="72.7636,-75.5838 62.2652,-77.0096 71.3614,-82.4419 72.7636,-75.5838"/>
</g>
<!-- Node9 -->
<g id="node10" class="node"><title>Node9</title>
<polygon fill="none" stroke="#bfbfbf" points="973.34,-185.5 973.34,-203.5 1008.79,-203.5 1008.79,-185.5 973.34,-185.5"/>
<text text-anchor="middle" x="991.066" y="-191.5" font-family="Helvetica,sans-Serif" font-size="10.00">map</text>
</g>
<!-- Node1&#45;&gt;Node9 -->
<g id="edge9" class="edge"><title>Node1&#45;&gt;Node9</title>
<path fill="none" stroke="midnightblue" d="M842.121,-245.435C873.926,-234.773 929.847,-216.024 963.376,-204.783"/>
<polygon fill="midnightblue" stroke="midnightblue" points="964.643,-208.05 973.012,-201.553 962.418,-201.413 964.643,-208.05"/>
</g>
<!-- Node10 -->
<g id="node11" class="node"><title>Node10</title>
<polygon fill="none" stroke="#bfbfbf" points="1026.53,-185.5 1026.53,-203.5 1157.6,-203.5 1157.6,-185.5 1026.53,-185.5"/>
<text text-anchor="middle" x="1092.07" y="-191.5" font-family="Helvetica,sans-Serif" font-size="10.00">boost/algorithm/string.hpp</text>
</g>
<!-- Node1&#45;&gt;Node10 -->
<g id="edge10" class="edge"><title>Node1&#45;&gt;Node10</title>
<path fill="none" stroke="midnightblue" d="M855.877,-245.496C904.976,-235.103 990.71,-216.955 1044.27,-205.618"/>
<polygon fill="midnightblue" stroke="midnightblue" points="1045.15,-209.01 1054.2,-203.515 1043.7,-202.162 1045.15,-209.01"/>
</g>
<!-- Node11 -->
<g id="node12" class="node"><title>Node11</title>
<g id="a_node12"><a xlink:href="cxxdefs_8h.html" target="_top" xlink:title="Basic definitions, which may have to be defined before any Eigen headers or further utilities are inc...">
<polygon fill="none" stroke="black" points="532.256,-60.5 532.256,-78.5 673.876,-78.5 673.876,-60.5 532.256,-60.5"/>
<text text-anchor="middle" x="603.066" y="-66.5" font-family="Helvetica,sans-Serif" font-size="10.00">tomographer/tools/cxxdefs.h</text>
</a>
</g>
</g>
<!-- Node1&#45;&gt;Node11 -->
<g id="edge11" class="edge"><title>Node1&#45;&gt;Node11</title>
<path fill="none" stroke="midnightblue" d="M763.012,-245.438C714.596,-237.224 649.101,-222.998 631.066,-204 601.117,-172.451 599.731,-117.442 601.338,-88.8845"/>
<polygon fill="midnightblue" stroke="midnightblue" points="604.843,-88.9526 602.106,-78.7174 597.863,-88.4255 604.843,-88.9526"/>
</g>
<!-- Node16 -->
<g id="node17" class="node"><title>Node16</title>
<g id="a_node17"><a xlink:href="fmt_8h.html" target="_top" xlink:title="Utilities for formatting strings. ">
<polygon fill="none" stroke="black" points="757.264,-185.5 757.264,-203.5 878.869,-203.5 878.869,-185.5 757.264,-185.5"/>
<text text-anchor="middle" x="818.066" y="-191.5" font-family="Helvetica,sans-Serif" font-size="10.00">tomographer/tools/fmt.h</text>
</a>
</g>
</g>
<!-- Node1&#45;&gt;Node16 -->
<g id="edge16" class="edge"><title>Node1&#45;&gt;Node16</title>
<path fill="none" stroke="midnightblue" d="M818.066,-245.435C818.066,-237.389 818.066,-224.739 818.066,-214.185"/>
<polygon fill="midnightblue" stroke="midnightblue" points="821.567,-213.872 818.066,-203.872 814.567,-213.872 821.567,-213.872"/>
</g>
<!-- Node25 -->
<g id="node26" class="node"><title>Node25</title>
<g id="a_node26"><a xlink:href="conststr_8h.html" target="_top" xlink:title="A constexpr string type, suitable for basic compile&#45;time string processing. ">
<polygon fill="none" stroke="black" points="729.976,-60.5 729.976,-78.5 872.157,-78.5 872.157,-60.5 729.976,-60.5"/>
<text text-anchor="middle" x="801.066" y="-66.5" font-family="Helvetica,sans-Serif" font-size="10.00">tomographer/tools/conststr.h</text>
</a>
</g>
</g>
<!-- Node1&#45;&gt;Node25 -->
<g id="edge42" class="edge"><title>Node1&#45;&gt;Node25</title>
<path fill="none" stroke="midnightblue" d="M765.637,-245.449C720.549,-237.327 660.55,-223.239 646.066,-204 623.613,-174.173 624.046,-150.148 646.066,-120 658.316,-103.229 707.629,-89.3933 747.388,-80.6539"/>
<polygon fill="midnightblue" stroke="midnightblue" points="748.214,-84.0564 757.262,-78.5432 746.751,-77.2111 748.214,-84.0564"/>
</g>
<!-- Node12 -->
<g id="node13" class="node"><title>Node12</title>
<polygon fill="none" stroke="#bfbfbf" points="487.951,-0.5 487.951,-18.5 536.182,-18.5 536.182,-0.5 487.951,-0.5"/>
<text text-anchor="middle" x="512.066" y="-6.5" font-family="Helvetica,sans-Serif" font-size="10.00">cassert</text>
</g>
<!-- Node11&#45;&gt;Node12 -->
<g id="edge12" class="edge"><title>Node11&#45;&gt;Node12</title>
<path fill="none" stroke="midnightblue" d="M590.413,-60.4353C575.691,-51.0521 551.146,-35.4077 533.448,-24.1277"/>
<polygon fill="midnightblue" stroke="midnightblue" points="535.219,-21.1064 524.905,-18.6831 531.457,-27.0094 535.219,-21.1064"/>
</g>
<!-- Node13 -->
<g id="node14" class="node"><title>Node13</title>
<polygon fill="none" stroke="#bfbfbf" points="669.946,-0.5 669.946,-18.5 718.187,-18.5 718.187,-0.5 669.946,-0.5"/>
<text text-anchor="middle" x="694.066" y="-6.5" font-family="Helvetica,sans-Serif" font-size="10.00">cstddef</text>
</g>
<!-- Node11&#45;&gt;Node13 -->
<g id="edge13" class="edge"><title>Node11&#45;&gt;Node13</title>
<path fill="none" stroke="midnightblue" d="M615.72,-60.4353C630.441,-51.0521 654.987,-35.4077 672.685,-24.1277"/>
<polygon fill="midnightblue" stroke="midnightblue" points="674.676,-27.0094 681.227,-18.6831 670.913,-21.1064 674.676,-27.0094"/>
</g>
<!-- Node14 -->
<g id="node15" class="node"><title>Node14</title>
<polygon fill="none" stroke="#bfbfbf" points="250.894,-0.5 250.894,-18.5 295.239,-18.5 295.239,-0.5 250.894,-0.5"/>
<text text-anchor="middle" x="273.066" y="-6.5" font-family="Helvetica,sans-Serif" font-size="10.00">cstdlib</text>
</g>
<!-- Node11&#45;&gt;Node14 -->
<g id="edge14" class="edge"><title>Node11&#45;&gt;Node14</title>
<path fill="none" stroke="midnightblue" d="M557.528,-60.4962C489.808,-48.594 364.224,-26.5216 305.242,-16.1551"/>
<polygon fill="midnightblue" stroke="midnightblue" points="305.82,-12.7031 295.365,-14.4191 304.608,-19.5974 305.82,-12.7031"/>
</g>
<!-- Node15 -->
<g id="node16" class="node"><title>Node15</title>
<polygon fill="none" stroke="#bfbfbf" points="563.099,-0.5 563.099,-18.5 643.034,-18.5 643.034,-0.5 563.099,-0.5"/>
<text text-anchor="middle" x="603.066" y="-6.5" font-family="Helvetica,sans-Serif" font-size="10.00">boost/predef.h</text>
</g>
<!-- Node11&#45;&gt;Node15 -->
<g id="edge15" class="edge"><title>Node11&#45;&gt;Node15</title>
<path fill="none" stroke="midnightblue" d="M603.066,-60.4353C603.066,-52.3891 603.066,-39.7388 603.066,-29.1846"/>
<polygon fill="midnightblue" stroke="midnightblue" points="606.567,-28.8717 603.066,-18.8718 599.567,-28.8718 606.567,-28.8717"/>
</g>
<!-- Node16&#45;&gt;Node2 -->
<g id="edge17" class="edge"><title>Node16&#45;&gt;Node2</title>
<path fill="none" stroke="midnightblue" d="M802.91,-185.435C784.953,-175.88 754.793,-159.832 733.519,-148.511"/>
<polygon fill="midnightblue" stroke="midnightblue" points="734.917,-145.291 724.445,-143.683 731.629,-151.47 734.917,-145.291"/>
</g>
<!-- Node16&#45;&gt;Node3 -->
<g id="edge18" class="edge"><title>Node16&#45;&gt;Node3</title>
<path fill="none" stroke="midnightblue" d="M878.962,-189.889C946.578,-184.844 1058.53,-173.404 1152.07,-149 1154.21,-148.44 1156.41,-147.781 1158.6,-147.061"/>
<polygon fill="midnightblue" stroke="midnightblue" points="1159.8,-150.348 1167.99,-143.629 1157.4,-143.773 1159.8,-150.348"/>
</g>
<!-- Node16&#45;&gt;Node4 -->
<g id="edge20" class="edge"><title>Node16&#45;&gt;Node4</title>
<path fill="none" stroke="midnightblue" d="M864.041,-185.494C902.928,-177.75 954.443,-164.87 968.066,-149 997.374,-114.859 994.198,-57.5317 990.216,-28.5052"/>
<polygon fill="midnightblue" stroke="midnightblue" points="993.665,-27.902 988.662,-18.5625 986.748,-28.983 993.665,-27.902"/>
</g>
<!-- Node16&#45;&gt;Node5 -->
<g id="edge21" class="edge"><title>Node16&#45;&gt;Node5</title>
<path fill="none" stroke="midnightblue" d="M855.119,-185.484C892.264,-177.216 950.975,-163.513 1001.07,-149 1003.53,-148.286 1006.07,-147.515 1008.61,-146.716"/>
<polygon fill="midnightblue" stroke="midnightblue" points="1009.9,-149.977 1018.33,-143.555 1007.74,-143.321 1009.9,-149.977"/>
</g>
<!-- Node16&#45;&gt;Node6 -->
<g id="edge22" class="edge"><title>Node16&#45;&gt;Node6</title>
<path fill="none" stroke="midnightblue" d="M807.552,-185.434C790.713,-171.527 761.133,-142.376 777.066,-120 805.438,-80.1559 835.052,-100.589 881.066,-84 882.707,-83.4086 884.387,-82.7973 886.083,-82.1763"/>
<polygon fill="midnightblue" stroke="midnightblue" points="887.617,-85.3405 895.779,-78.5853 885.186,-78.7762 887.617,-85.3405"/>
</g>
<!-- Node16&#45;&gt;Node7 -->
<g id="edge26" class="edge"><title>Node16&#45;&gt;Node7</title>
<path fill="none" stroke="midnightblue" d="M878.901,-185.992C931.581,-178.784 1009.56,-166.413 1076.07,-149 1078.56,-148.348 1081.11,-147.606 1083.67,-146.811"/>
<polygon fill="midnightblue" stroke="midnightblue" points="1084.98,-150.062 1093.36,-143.576 1082.77,-143.422 1084.98,-150.062"/>
</g>
<!-- Node17 -->
<g id="node18" class="node"><title>Node17</title>
<polygon fill="none" stroke="#bfbfbf" points="785.778,-125.5 785.778,-143.5 832.354,-143.5 832.354,-125.5 785.778,-125.5"/>
<text text-anchor="middle" x="809.066" y="-131.5" font-family="Helvetica,sans-Serif" font-size="10.00">chrono</text>
</g>
<!-- Node16&#45;&gt;Node17 -->
<g id="edge19" class="edge"><title>Node16&#45;&gt;Node17</title>
<path fill="none" stroke="midnightblue" d="M816.815,-185.435C815.553,-177.304 813.562,-164.469 811.914,-153.848"/>
<polygon fill="midnightblue" stroke="midnightblue" points="815.358,-153.217 810.365,-143.872 808.44,-154.29 815.358,-153.217"/>
</g>
<!-- Node18 -->
<g id="node19" class="node"><title>Node18</title>
<polygon fill="none" stroke="#bfbfbf" points="850.675,-125.5 850.675,-143.5 889.458,-143.5 889.458,-125.5 850.675,-125.5"/>
<text text-anchor="middle" x="870.066" y="-131.5" font-family="Helvetica,sans-Serif" font-size="10.00">utility</text>
</g>
<!-- Node16&#45;&gt;Node18 -->
<g id="edge23" class="edge"><title>Node16&#45;&gt;Node18</title>
<path fill="none" stroke="midnightblue" d="M825.297,-185.435C833.125,-176.704 845.813,-162.552 855.686,-151.54"/>
<polygon fill="midnightblue" stroke="midnightblue" points="858.491,-153.654 862.561,-143.872 853.279,-148.981 858.491,-153.654"/>
</g>
<!-- Node19 -->
<g id="node20" class="node"><title>Node19</title>
<polygon fill="none" stroke="#bfbfbf" points="1228.45,-125.5 1228.45,-143.5 1271.68,-143.5 1271.68,-125.5 1228.45,-125.5"/>
<text text-anchor="middle" x="1250.07" y="-131.5" font-family="Helvetica,sans-Serif" font-size="10.00">vector</text>
</g>
<!-- Node16&#45;&gt;Node19 -->
<g id="edge24" class="edge"><title>Node16&#45;&gt;Node19</title>
<path fill="none" stroke="midnightblue" d="M879.045,-188.983C974.926,-181.5 1156.46,-165.695 1219.07,-149 1220.78,-148.542 1222.53,-148.005 1224.27,-147.412"/>
<polygon fill="midnightblue" stroke="midnightblue" points="1225.96,-150.507 1233.99,-143.591 1223.4,-143.992 1225.96,-150.507"/>
</g>
<!-- Node20 -->
<g id="node21" class="node"><title>Node20</title>
<polygon fill="none" stroke="#bfbfbf" points="907.557,-125.5 907.557,-143.5 958.576,-143.5 958.576,-125.5 907.557,-125.5"/>
<text text-anchor="middle" x="933.066" y="-131.5" font-family="Helvetica,sans-Serif" font-size="10.00">iomanip</text>
</g>
<!-- Node16&#45;&gt;Node20 -->
<g id="edge25" class="edge"><title>Node16&#45;&gt;Node20</title>
<path fill="none" stroke="midnightblue" d="M834.057,-185.435C853.173,-175.794 885.397,-159.542 907.872,-148.206"/>
<polygon fill="midnightblue" stroke="midnightblue" points="909.489,-151.311 916.841,-143.683 906.336,-145.061 909.489,-151.311"/>
</g>
<!-- Node16&#45;&gt;Node21 -->
<g id="edge27" class="edge"><title>Node16&#45;&gt;Node21</title>
<path fill="none" stroke="midnightblue" d="M772.528,-185.496C712.779,-174.995 607.986,-156.577 543.635,-145.267"/>
<polygon fill="midnightblue" stroke="midnightblue" points="544.122,-141.799 533.667,-143.515 542.91,-148.693 544.122,-141.799"/>
</g>
<!-- Node21&#45;&gt;Node6 -->
<g id="edge31" class="edge"><title>Node21&#45;&gt;Node6</title>
<path fill="none" stroke="midnightblue" d="M555.923,-126.884C651.568,-117.228 821.062,-98.8133 881.066,-84 883.418,-83.4196 885.825,-82.7325 888.227,-81.9807"/>
<polygon fill="midnightblue" stroke="midnightblue" points="889.593,-85.2115 897.898,-78.6329 887.303,-78.5966 889.593,-85.2115"/>
</g>
<!-- Node21&#45;&gt;Node8 -->
<g id="edge33" class="edge"><title>Node21&#45;&gt;Node8</title>
<path fill="none" stroke="midnightblue" d="M442.162,-125.49C430.414,-123.564 417.788,-121.603 406.066,-120 259.89,-100.009 220.661,-113.32 76.0664,-84 72.4142,-83.2594 68.6324,-82.3532 64.8835,-81.3641"/>
<polygon fill="midnightblue" stroke="midnightblue" points="65.7236,-77.9645 55.1484,-78.6089 63.8173,-84.6999 65.7236,-77.9645"/>
</g>
<!-- Node21&#45;&gt;Node11 -->
<g id="edge36" class="edge"><title>Node21&#45;&gt;Node11</title>
<path fill="none" stroke="midnightblue" d="M503.101,-125.264C522.492,-114.641 556.442,-96.0423 579.333,-83.5017"/>
<polygon fill="midnightblue" stroke="midnightblue" points="581.303,-86.4131 588.392,-78.539 577.94,-80.274 581.303,-86.4131"/>
</g>
<!-- Node21&#45;&gt;Node12 -->
<g id="edge28" class="edge"><title>Node21&#45;&gt;Node12</title>
<path fill="none" stroke="midnightblue" d="M489.641,-125.43C493.437,-105.975 503.17,-56.0935 508.48,-28.8811"/>
<polygon fill="midnightblue" stroke="midnightblue" points="511.974,-29.2466 510.454,-18.7614 505.104,-27.906 511.974,-29.2466"/>
</g>
<!-- Node21&#45;&gt;Node13 -->
<g id="edge29" class="edge"><title>Node21&#45;&gt;Node13</title>
<path fill="none" stroke="midnightblue" d="M549.154,-125.454C599.421,-117.535 665.199,-103.75 683.066,-84 696.57,-69.0736 697.701,-45.0454 696.524,-28.551"/>
<polygon fill="midnightblue" stroke="midnightblue" points="699.997,-28.1158 695.464,-18.5398 693.036,-28.8527 699.997,-28.1158"/>
</g>
<!-- Node21&#45;&gt;Node14 -->
<g id="edge30" class="edge"><title>Node21&#45;&gt;Node14</title>
<path fill="none" stroke="midnightblue" d="M441.287,-125.446C429.785,-123.563 417.493,-121.632 406.066,-120 340.252,-110.598 153.158,-133.759 109.066,-84 69.2298,-39.0432 182.057,-20.1364 240.464,-13.524"/>
<polygon fill="midnightblue" stroke="midnightblue" points="241.118,-16.9742 250.688,-12.4289 240.372,-10.014 241.118,-16.9742"/>
</g>
<!-- Node22 -->
<g id="node23" class="node"><title>Node22</title>
<polygon fill="none" stroke="#bfbfbf" points="1069.45,-60.5 1069.45,-78.5 1122.68,-78.5 1122.68,-60.5 1069.45,-60.5"/>
<text text-anchor="middle" x="1096.07" y="-66.5" font-family="Helvetica,sans-Serif" font-size="10.00">complex</text>
</g>
<!-- Node21&#45;&gt;Node22 -->
<g id="edge32" class="edge"><title>Node21&#45;&gt;Node22</title>
<path fill="none" stroke="midnightblue" d="M556.042,-126.456C684.603,-113.135 959.402,-84.661 1059.02,-74.3382"/>
<polygon fill="midnightblue" stroke="midnightblue" points="1059.62,-77.7958 1069.2,-73.2837 1058.89,-70.8331 1059.62,-77.7958"/>
</g>
<!-- Node23 -->
<g id="node24" class="node"><title>Node23</title>
<polygon fill="none" stroke="#bfbfbf" points="117.663,-60.5 117.663,-78.5 176.47,-78.5 176.47,-60.5 117.663,-60.5"/>
<text text-anchor="middle" x="147.066" y="-66.5" font-family="Helvetica,sans-Serif" font-size="10.00">exception</text>
</g>
<!-- Node21&#45;&gt;Node23 -->
<g id="edge34" class="edge"><title>Node21&#45;&gt;Node23</title>
<path fill="none" stroke="midnightblue" d="M439.505,-125.497C428.51,-123.687 416.887,-121.776 406.066,-120 308.296,-103.953 282.12,-108.294 186.066,-84 183.422,-83.3313 180.703,-82.563 177.988,-81.7395"/>
<polygon fill="midnightblue" stroke="midnightblue" points="178.915,-78.3608 168.323,-78.5949 176.749,-85.0173 178.915,-78.3608"/>
</g>
<!-- Node24 -->
<g id="node25" class="node"><title>Node24</title>
<polygon fill="none" stroke="#bfbfbf" points="194.665,-60.5 194.665,-78.5 253.468,-78.5 253.468,-60.5 194.665,-60.5"/>
<text text-anchor="middle" x="224.066" y="-66.5" font-family="Helvetica,sans-Serif" font-size="10.00">stdexcept</text>
</g>
<!-- Node21&#45;&gt;Node24 -->
<g id="edge35" class="edge"><title>Node21&#45;&gt;Node24</title>
<path fill="none" stroke="midnightblue" d="M444.56,-125.494C398.965,-116.739 325.428,-101.588 263.066,-84 260.592,-83.3023 258.046,-82.535 255.496,-81.7313"/>
<polygon fill="midnightblue" stroke="midnightblue" points="256.382,-78.3379 245.789,-78.5217 254.184,-84.984 256.382,-78.3379"/>
</g>
<!-- Node21&#45;&gt;Node25 -->
<g id="edge37" class="edge"><title>Node21&#45;&gt;Node25</title>
<path fill="none" stroke="midnightblue" d="M528.026,-125.457C584.852,-114.019 688.972,-93.0622 750.913,-80.5948"/>
<polygon fill="midnightblue" stroke="midnightblue" points="751.738,-83.9991 760.85,-78.5946 750.356,-77.1367 751.738,-83.9991"/>
</g>
<!-- Node26 -->
<g id="node27" class="node"><title>Node26</title>
<polygon fill="none" stroke="#bfbfbf" points="271.596,-60.5 271.596,-78.5 366.537,-78.5 366.537,-60.5 271.596,-60.5"/>
<text text-anchor="middle" x="319.066" y="-66.5" font-family="Helvetica,sans-Serif" font-size="10.00">boost/version.hpp</text>
</g>
<!-- Node21&#45;&gt;Node26 -->
<g id="edge39" class="edge"><title>Node21&#45;&gt;Node26</title>
<path fill="none" stroke="midnightblue" d="M466.319,-125.393C436.784,-114.383 383.818,-94.638 350.109,-82.0721"/>
<polygon fill="midnightblue" stroke="midnightblue" points="351.323,-78.7896 340.731,-78.5761 348.878,-85.3487 351.323,-78.7896"/>
</g>
<!-- Node27 -->
<g id="node28" class="node"><title>Node27</title>
<polygon fill="none" stroke="#bfbfbf" points="384.542,-55.5 384.542,-83.5 475.591,-83.5 475.591,-55.5 384.542,-55.5"/>
<text text-anchor="start" x="392.542" y="-71.5" font-family="Helvetica,sans-Serif" font-size="10.00">boost/units/detail</text>
<text text-anchor="middle" x="430.066" y="-61.5" font-family="Helvetica,sans-Serif" font-size="10.00">/utility.hpp</text>
</g>
<!-- Node21&#45;&gt;Node27 -->
<g id="edge40" class="edge"><title>Node21&#45;&gt;Node27</title>
<path fill="none" stroke="midnightblue" d="M480.484,-125.264C472.6,-116.7 459.945,-102.954 449.286,-91.3766"/>
<polygon fill="midnightblue" stroke="midnightblue" points="451.657,-88.7845 442.309,-83.7981 446.507,-93.5257 451.657,-88.7845"/>
</g>
<!-- Node28 -->
<g id="node29" class="node"><title>Node28</title>
<polygon fill="none" stroke="#bfbfbf" points="1250.05,-60.5 1250.05,-78.5 1316.08,-78.5 1316.08,-60.5 1250.05,-60.5"/>
<text text-anchor="middle" x="1283.07" y="-66.5" font-family="Helvetica,sans-Serif" font-size="10.00">Eigen/Core</text>
</g>
<!-- Node21&#45;&gt;Node28 -->
<g id="edge41" class="edge"><title>Node21&#45;&gt;Node28</title>
<path fill="none" stroke="midnightblue" d="M556.242,-128.54C673.804,-119.925 922.256,-101.442 1132.07,-84 1168.32,-80.9865 1209.44,-77.2921 1239.6,-74.5304"/>
<polygon fill="midnightblue" stroke="midnightblue" points="1240.15,-77.9948 1249.79,-73.595 1239.51,-71.0241 1240.15,-77.9948"/>
</g>
<!-- Node25&#45;&gt;Node4 -->
<g id="edge38" class="edge"><title>Node25&#45;&gt;Node4</title>
<path fill="none" stroke="midnightblue" d="M826.929,-60.4353C860.907,-49.8399 920.488,-31.2609 956.609,-19.9973"/>
<polygon fill="midnightblue" stroke="midnightblue" points="958.069,-23.2086 966.573,-16.8903 955.985,-16.526 958.069,-23.2086"/>
</g>
<!-- Node29&#45;&gt;Node19 -->
<g id="edge45" class="edge"><title>Node29&#45;&gt;Node19</title>
<path fill="none" stroke="midnightblue" d="M1390.41,-185.469C1364.68,-176.686 1322.35,-162.11 1286.07,-149 1284.43,-148.407 1282.75,-147.795 1281.05,-147.174"/>
<polygon fill="midnightblue" stroke="midnightblue" points="1281.95,-143.774 1271.36,-143.581 1279.52,-150.337 1281.95,-143.774"/>
</g>
<!-- Node29&#45;&gt;Node22 -->
<g id="edge44" class="edge"><title>Node29&#45;&gt;Node22</title>
<path fill="none" stroke="midnightblue" d="M1396.92,-185.484C1378.98,-176.946 1350.13,-162.788 1326.07,-149 1305.42,-137.171 1302.82,-129.636 1281.07,-120 1232.02,-98.2773 1171.32,-84.2748 1133.13,-76.8892"/>
<polygon fill="midnightblue" stroke="midnightblue" points="1133.46,-73.3898 1122.99,-74.9807 1132.17,-80.2692 1133.46,-73.3898"/>
</g>
<!-- Node29&#45;&gt;Node28 -->
<g id="edge46" class="edge"><title>Node29&#45;&gt;Node28</title>
<path fill="none" stroke="midnightblue" d="M1402.74,-185.447C1390.93,-176.879 1372.1,-162.697 1357.07,-149 1334.67,-128.592 1311.02,-102.624 1296.65,-86.2756"/>
<polygon fill="midnightblue" stroke="midnightblue" points="1299.25,-83.9259 1290.04,-78.6839 1293.97,-88.5234 1299.25,-83.9259"/>
</g>
<!-- Node30 -->
<g id="node31" class="node"><title>Node30</title>
<polygon fill="none" stroke="#bfbfbf" points="1708.44,-125.5 1708.44,-143.5 1781.7,-143.5 1781.7,-125.5 1708.44,-125.5"/>
<text text-anchor="middle" x="1745.07" y="-131.5" font-family="Helvetica,sans-Serif" font-size="10.00">Eigen/Dense</text>
</g>
<!-- Node29&#45;&gt;Node30 -->
<g id="edge47" class="edge"><title>Node29&#45;&gt;Node30</title>
<path fill="none" stroke="midnightblue" d="M1481.62,-185.48C1539.66,-177.988 1625.4,-165.488 1699.07,-149 1702.69,-148.189 1706.45,-147.25 1710.19,-146.253"/>
<polygon fill="midnightblue" stroke="midnightblue" points="1711.23,-149.596 1719.91,-143.526 1709.34,-142.855 1711.23,-149.596"/>
</g>
<!-- Node31 -->
<g id="node32" class="node"><title>Node31</title>
<polygon fill="none" stroke="#bfbfbf" points="1799.21,-125.5 1799.21,-143.5 1886.93,-143.5 1886.93,-125.5 1799.21,-125.5"/>
<text text-anchor="middle" x="1843.07" y="-131.5" font-family="Helvetica,sans-Serif" font-size="10.00">Eigen/StdVector</text>
</g>
<!-- Node29&#45;&gt;Node31 -->
<g id="edge48" class="edge"><title>Node29&#45;&gt;Node31</title>
<path fill="none" stroke="midnightblue" d="M1486.78,-187.882C1563.04,-181.301 1686.14,-168.718 1791.07,-149 1795.57,-148.154 1800.26,-147.135 1804.9,-146.041"/>
<polygon fill="midnightblue" stroke="midnightblue" points="1806.02,-149.368 1814.89,-143.564 1804.34,-142.574 1806.02,-149.368"/>
</g>
<!-- Node32 -->
<g id="node33" class="node"><title>Node32</title>
<polygon fill="none" stroke="#bfbfbf" points="1366.04,-120.5 1366.04,-148.5 1462.09,-148.5 1462.09,-120.5 1366.04,-120.5"/>
<text text-anchor="start" x="1374.04" y="-136.5" font-family="Helvetica,sans-Serif" font-size="10.00">boost/serialization</text>
<text text-anchor="middle" x="1414.07" y="-126.5" font-family="Helvetica,sans-Serif" font-size="10.00">/serialization.hpp</text>
</g>
<!-- Node29&#45;&gt;Node32 -->
<g id="edge49" class="edge"><title>Node29&#45;&gt;Node32</title>
<path fill="none" stroke="midnightblue" d="M1414.07,-185.435C1414.07,-178.56 1414.07,-168.324 1414.07,-158.906"/>
<polygon fill="midnightblue" stroke="midnightblue" points="1417.57,-158.843 1414.07,-148.843 1410.57,-158.843 1417.57,-158.843"/>
</g>
<!-- Node33 -->
<g id="node34" class="node"><title>Node33</title>
<polygon fill="none" stroke="#bfbfbf" points="1480.04,-120.5 1480.04,-148.5 1576.09,-148.5 1576.09,-120.5 1480.04,-120.5"/>
<text text-anchor="start" x="1488.04" y="-136.5" font-family="Helvetica,sans-Serif" font-size="10.00">boost/serialization</text>
<text text-anchor="middle" x="1528.07" y="-126.5" font-family="Helvetica,sans-Serif" font-size="10.00">/split_free.hpp</text>
</g>
<!-- Node29&#45;&gt;Node33 -->
<g id="edge50" class="edge"><title>Node29&#45;&gt;Node33</title>
<path fill="none" stroke="midnightblue" d="M1429.92,-185.435C1446.23,-177.138 1472.16,-163.946 1493.27,-153.204"/>
<polygon fill="midnightblue" stroke="midnightblue" points="1494.95,-156.274 1502.28,-148.62 1491.78,-150.035 1494.95,-156.274"/>
</g>
<!-- Node34 -->
<g id="node35" class="node"><title>Node34</title>
<polygon fill="none" stroke="#bfbfbf" points="1594.04,-120.5 1594.04,-148.5 1690.09,-148.5 1690.09,-120.5 1594.04,-120.5"/>
<text text-anchor="start" x="1602.04" y="-136.5" font-family="Helvetica,sans-Serif" font-size="10.00">boost/serialization</text>
<text text-anchor="middle" x="1642.07" y="-126.5" font-family="Helvetica,sans-Serif" font-size="10.00">/complex.hpp</text>
</g>
<!-- Node29&#45;&gt;Node34 -->
<g id="edge51" class="edge"><title>Node29&#45;&gt;Node34</title>
<path fill="none" stroke="midnightblue" d="M1445.77,-185.435C1481.49,-176.349 1540.29,-161.391 1584.24,-150.21"/>
<polygon fill="midnightblue" stroke="midnightblue" points="1585.11,-153.6 1593.94,-147.743 1583.39,-146.816 1585.11,-153.6"/>
</g>
<!-- Node35&#45;&gt;Node8 -->
<g id="edge54" class="edge"><title>Node35&#45;&gt;Node8</title>
<path fill="none" stroke="midnightblue" d="M289.533,-185.288C289.916,-170.07 288.391,-137.452 270.066,-120 269.615,-119.57 140.478,-92.9826 72.2402,-78.9571"/>
<polygon fill="midnightblue" stroke="midnightblue" points="72.7383,-75.4864 62.2384,-76.9016 71.3291,-82.3431 72.7383,-75.4864"/>
</g>
<!-- Node35&#45;&gt;Node21 -->
<g id="edge56" class="edge"><title>Node35&#45;&gt;Node21</title>
<path fill="none" stroke="midnightblue" d="M316.737,-185.435C351.539,-175.292 411.447,-157.831 450.403,-146.477"/>
<polygon fill="midnightblue" stroke="midnightblue" points="451.69,-149.748 460.311,-143.589 449.731,-143.027 451.69,-149.748"/>
</g>
<!-- Node36 -->
<g id="node37" class="node"><title>Node36</title>
<polygon fill="none" stroke="#bfbfbf" points="191.101,-125.5 191.101,-143.5 261.032,-143.5 261.032,-125.5 191.101,-125.5"/>
<text text-anchor="middle" x="226.066" y="-131.5" font-family="Helvetica,sans-Serif" font-size="10.00">Eigen/Eigen</text>
</g>
<!-- Node35&#45;&gt;Node36 -->
<g id="edge55" class="edge"><title>Node35&#45;&gt;Node36</title>
<path fill="none" stroke="midnightblue" d="M280.307,-185.435C270.637,-176.533 254.846,-161.995 242.789,-150.895"/>
<polygon fill="midnightblue" stroke="midnightblue" points="244.887,-148.07 235.16,-143.872 240.146,-153.22 244.887,-148.07"/>
</g>
</g>
</svg>
