<?xml version="1.0" encoding="UTF-8" standalone="no"?>
<!DOCTYPE svg PUBLIC "-//W3C//DTD SVG 1.1//EN"
 "http://www.w3.org/Graphics/SVG/1.1/DTD/svg11.dtd">
<!-- Generated by graphviz version 2.38.0 (20140413.2041)
 -->
<!-- Title: tomographer/mhrwstepsizecontroller.h Pages: 1 -->
<svg width="2779pt" height="562pt"
 viewBox="0.00 0.00 2779.00 562.00" xmlns="http://www.w3.org/2000/svg" xmlns:xlink="http://www.w3.org/1999/xlink">
<g id="graph0" class="graph" transform="scale(1 1) rotate(0) translate(4 558)">
<title>tomographer/mhrwstepsizecontroller.h</title>
<!-- Node0 -->
<g id="node1" class="node"><title>Node0</title>
<polygon fill="#bfbfbf" stroke="black" points="1224.24,-535.5 1224.24,-553.5 1409.76,-553.5 1409.76,-535.5 1224.24,-535.5"/>
<text text-anchor="middle" x="1317" y="-541.5" font-family="Helvetica,sans-Serif" font-size="10.00">tomographer/mhrwstepsizecontroller.h</text>
</g>
<!-- Node1 -->
<g id="node2" class="node"><title>Node1</title>
<polygon fill="none" stroke="#bfbfbf" points="1716.88,-0.5 1716.88,-18.5 1765.12,-18.5 1765.12,-0.5 1716.88,-0.5"/>
<text text-anchor="middle" x="1741" y="-6.5" font-family="Helvetica,sans-Serif" font-size="10.00">cstddef</text>
</g>
<!-- Node0&#45;&gt;Node1 -->
<g id="edge1" class="edge"><title>Node0&#45;&gt;Node1</title>
<path fill="none" stroke="midnightblue" d="M1409.89,-541.479C1730.48,-533.9 2771,-504.022 2771,-435.5 2771,-435.5 2771,-435.5 2771,-258.5 2771,-165.784 2694.35,-167.961 2615,-120 2545.06,-77.7266 2522.89,-72.2202 2443,-55 2313.36,-27.0546 1898.39,-14.4963 1775.56,-11.3312"/>
<polygon fill="midnightblue" stroke="midnightblue" points="1775.34,-7.82452 1765.26,-11.0701 1775.17,-14.8223 1775.34,-7.82452"/>
</g>
<!-- Node2 -->
<g id="node3" class="node"><title>Node2</title>
<polygon fill="none" stroke="#bfbfbf" points="1233.38,-190.5 1233.38,-208.5 1276.62,-208.5 1276.62,-190.5 1233.38,-190.5"/>
<text text-anchor="middle" x="1255" y="-196.5" font-family="Helvetica,sans-Serif" font-size="10.00">cmath</text>
</g>
<!-- Node0&#45;&gt;Node2 -->
<g id="edge2" class="edge"><title>Node0&#45;&gt;Node2</title>
<path fill="none" stroke="midnightblue" d="M1281.44,-535.471C1235.68,-522.791 1162,-493.388 1162,-435.5 1162,-435.5 1162,-435.5 1162,-378.5 1162,-311.859 1213.84,-245.505 1240.11,-216.158"/>
<polygon fill="midnightblue" stroke="midnightblue" points="1242.88,-218.316 1247.07,-208.584 1237.73,-213.58 1242.88,-218.316"/>
</g>
<!-- Node3 -->
<g id="node4" class="node"><title>Node3</title>
<polygon fill="none" stroke="#bfbfbf" points="205.828,-0.5 205.828,-18.5 250.172,-18.5 250.172,-0.5 205.828,-0.5"/>
<text text-anchor="middle" x="228" y="-6.5" font-family="Helvetica,sans-Serif" font-size="10.00">cstdlib</text>
</g>
<!-- Node0&#45;&gt;Node3 -->
<g id="edge3" class="edge"><title>Node0&#45;&gt;Node3</title>
<path fill="none" stroke="midnightblue" d="M1223.98,-543.394C955.078,-542.633 189.184,-537.107 83,-499 39.2833,-483.311 0,-481.947 0,-435.5 0,-435.5 0,-435.5 0,-133.5 0,-45.7037 132.57,-20.2835 195.534,-13.1614"/>
<polygon fill="midnightblue" stroke="midnightblue" points="196.14,-16.6173 205.723,-12.1005 195.415,-9.65493 196.14,-16.6173"/>
</g>
<!-- Node4 -->
<g id="node5" class="node"><title>Node4</title>
<polygon fill="none" stroke="#bfbfbf" points="142.436,-190.5 142.436,-208.5 199.564,-208.5 199.564,-190.5 142.436,-190.5"/>
<text text-anchor="middle" x="171" y="-196.5" font-family="Helvetica,sans-Serif" font-size="10.00">algorithm</text>
</g>
<!-- Node0&#45;&gt;Node4 -->
<g id="edge4" class="edge"><title>Node0&#45;&gt;Node4</title>
<path fill="none" stroke="midnightblue" d="M1224.04,-544.349C952.726,-545.608 181,-540.004 181,-435.5 181,-435.5 181,-435.5 181,-318.5 181,-283.148 176.489,-242.051 173.526,-218.875"/>
<polygon fill="midnightblue" stroke="midnightblue" points="176.971,-218.23 172.186,-208.777 170.032,-219.151 176.971,-218.23"/>
</g>
<!-- Node5 -->
<g id="node6" class="node"><title>Node5</title>
<polygon fill="none" stroke="#bfbfbf" points="313.613,-310.5 313.613,-328.5 352.387,-328.5 352.387,-310.5 313.613,-310.5"/>
<text text-anchor="middle" x="333" y="-316.5" font-family="Helvetica,sans-Serif" font-size="10.00">limits</text>
</g>
<!-- Node0&#45;&gt;Node5 -->
<g id="edge5" class="edge"><title>Node0&#45;&gt;Node5</title>
<path fill="none" stroke="midnightblue" d="M1224.16,-537.346C1074.7,-526.224 772.068,-498.678 521,-444 441.339,-426.651 400.181,-449.92 346,-389 333.949,-375.45 331.55,-354.3 331.634,-339.086"/>
<polygon fill="midnightblue" stroke="midnightblue" points="335.142,-338.97 332.063,-328.832 328.148,-338.677 335.142,-338.97"/>
</g>
<!-- Node6 -->
<g id="node7" class="node"><title>Node6</title>
<polygon fill="none" stroke="#bfbfbf" points="1959.05,-310.5 1959.05,-328.5 2008.95,-328.5 2008.95,-310.5 1959.05,-310.5"/>
<text text-anchor="middle" x="1984" y="-316.5" font-family="Helvetica,sans-Serif" font-size="10.00">random</text>
</g>
<!-- Node0&#45;&gt;Node6 -->
<g id="edge6" class="edge"><title>Node0&#45;&gt;Node6</title>
<path fill="none" stroke="midnightblue" d="M1409.78,-538.006C1535.44,-526.741 1762.55,-492.532 1924,-389 1944.94,-375.572 1962.8,-352.774 1973.46,-337.196"/>
<polygon fill="midnightblue" stroke="midnightblue" points="1976.56,-338.856 1979.13,-328.578 1970.71,-335.009 1976.56,-338.856"/>
</g>
<!-- Node7 -->
<g id="node8" class="node"><title>Node7</title>
<polygon fill="none" stroke="#bfbfbf" points="1408.49,-125.5 1408.49,-143.5 1459.51,-143.5 1459.51,-125.5 1408.49,-125.5"/>
<text text-anchor="middle" x="1434" y="-131.5" font-family="Helvetica,sans-Serif" font-size="10.00">iomanip</text>
</g>
<!-- Node0&#45;&gt;Node7 -->
<g id="edge7" class="edge"><title>Node0&#45;&gt;Node7</title>
<path fill="none" stroke="midnightblue" d="M1300.94,-535.425C1287.35,-527.8 1268.32,-515.138 1257,-499 1240.08,-474.883 1238,-464.958 1238,-435.5 1238,-435.5 1238,-435.5 1238,-318.5 1238,-271.058 1362.24,-183.162 1412.89,-149.299"/>
<polygon fill="midnightblue" stroke="midnightblue" points="1415.04,-152.07 1421.44,-143.627 1411.17,-146.236 1415.04,-152.07"/>
</g>
<!-- Node8 -->
<g id="node9" class="node"><title>Node8</title>
<g id="a_node9"><a xlink:href="loggers_8h.html" target="_top" xlink:title="Utilities for logging messages. ">
<polygon fill="none" stroke="black" points="2191.74,-250.5 2191.74,-268.5 2332.26,-268.5 2332.26,-250.5 2191.74,-250.5"/>
<text text-anchor="middle" x="2262" y="-256.5" font-family="Helvetica,sans-Serif" font-size="10.00">tomographer/tools/loggers.h</text>
</a>
</g>
</g>
<!-- Node0&#45;&gt;Node8 -->
<g id="edge8" class="edge"><title>Node0&#45;&gt;Node8</title>
<path fill="none" stroke="midnightblue" d="M1409.81,-541.924C1617.63,-537.934 2107.77,-525.785 2178,-499 2220.09,-482.948 2257,-480.548 2257,-435.5 2257,-435.5 2257,-435.5 2257,-378.5 2257,-343.067 2259.28,-301.703 2260.76,-278.56"/>
<polygon fill="midnightblue" stroke="midnightblue" points="2264.26,-278.717 2261.43,-268.507 2257.27,-278.253 2264.26,-278.717"/>
</g>
<!-- Node21 -->
<g id="node22" class="node"><title>Node21</title>
<g id="a_node22"><a xlink:href="fmt_8h.html" target="_top" xlink:title="Utilities for formatting strings. ">
<polygon fill="none" stroke="black" points="1962.2,-190.5 1962.2,-208.5 2083.8,-208.5 2083.8,-190.5 1962.2,-190.5"/>
<text text-anchor="middle" x="2023" y="-196.5" font-family="Helvetica,sans-Serif" font-size="10.00">tomographer/tools/fmt.h</text>
</a>
</g>
</g>
<!-- Node0&#45;&gt;Node21 -->
<g id="edge50" class="edge"><title>Node0&#45;&gt;Node21</title>
<path fill="none" stroke="midnightblue" d="M1410.07,-541.228C1630.09,-534.619 2164,-510.824 2164,-435.5 2164,-435.5 2164,-435.5 2164,-318.5 2164,-263.239 2099.52,-228.755 2057.77,-212.219"/>
<polygon fill="midnightblue" stroke="midnightblue" points="2058.8,-208.868 2048.21,-208.587 2056.31,-215.411 2058.8,-208.868"/>
</g>
<!-- Node25 -->
<g id="node26" class="node"><title>Node25</title>
<g id="a_node26"><a xlink:href="cxxutil_8h.html" target="_top" xlink:title="Some C++ utilities, with a tad of C++11 tricks. ">
<polygon fill="none" stroke="black" points="599.249,-125.5 599.249,-143.5 734.751,-143.5 734.751,-125.5 599.249,-125.5"/>
<text text-anchor="middle" x="667" y="-131.5" font-family="Helvetica,sans-Serif" font-size="10.00">tomographer/tools/cxxutil.h</text>
</a>
</g>
</g>
<!-- Node0&#45;&gt;Node25 -->
<g id="edge51" class="edge"><title>Node0&#45;&gt;Node25</title>
<path fill="none" stroke="midnightblue" d="M1223.9,-543.4C997.935,-542.555 425.255,-536.645 238,-499 158.519,-483.022 67,-516.571 67,-435.5 67,-435.5 67,-435.5 67,-318.5 67,-252.312 78.4489,-222.484 133,-185 135.327,-183.401 441.081,-155.773 588.826,-142.504"/>
<polygon fill="midnightblue" stroke="midnightblue" points="589.537,-145.954 599.184,-141.574 588.911,-138.982 589.537,-145.954"/>
</g>
<!-- Node33 -->
<g id="node34" class="node"><title>Node33</title>
<g id="a_node34"><a xlink:href="needownoperatornew_8h.html" target="_top" xlink:title="Managing the need for specific overrides to operator new() for some types (especially Eigen types) ...">
<polygon fill="none" stroke="black" points="1626.32,-190.5 1626.32,-208.5 1829.68,-208.5 1829.68,-190.5 1626.32,-190.5"/>
<text text-anchor="middle" x="1728" y="-196.5" font-family="Helvetica,sans-Serif" font-size="10.00">tomographer/tools/needownoperatornew.h</text>
</a>
</g>
</g>
<!-- Node0&#45;&gt;Node33 -->
<g id="edge52" class="edge"><title>Node0&#45;&gt;Node33</title>
<path fill="none" stroke="midnightblue" d="M1410.08,-538.513C1488.26,-532.941 1602.5,-521.553 1700,-499 1771.63,-482.432 1789.38,-475.081 1856,-444 1934.87,-407.205 1980.23,-412.407 2018,-334 2055.93,-255.269 1937.13,-222.878 1840.27,-209.61"/>
<polygon fill="midnightblue" stroke="midnightblue" points="1840.45,-206.104 1830.08,-208.272 1839.54,-213.044 1840.45,-206.104"/>
</g>
<!-- Node35 -->
<g id="node36" class="node"><title>Node35</title>
<g id="a_node36"><a xlink:href="mhrw_8h.html" target="_top" xlink:title="Routines for performing a Metropolis&#45;Hastings random walk. ">
<polygon fill="none" stroke="black" points="1469.14,-370.5 1469.14,-388.5 1576.86,-388.5 1576.86,-370.5 1469.14,-370.5"/>
<text text-anchor="middle" x="1523" y="-376.5" font-family="Helvetica,sans-Serif" font-size="10.00">tomographer/mhrw.h</text>
</a>
</g>
</g>
<!-- Node0&#45;&gt;Node35 -->
<g id="edge56" class="edge"><title>Node0&#45;&gt;Node35</title>
<path fill="none" stroke="midnightblue" d="M1409.84,-536.157C1461.64,-529.919 1518.91,-518.71 1535,-499 1558.68,-470 1542.86,-422.747 1531.57,-397.565"/>
<polygon fill="midnightblue" stroke="midnightblue" points="1534.73,-396.053 1527.28,-388.519 1528.4,-399.054 1534.73,-396.053"/>
</g>
<!-- Node47 -->
<g id="node45" class="node"><title>Node47</title>
<g id="a_node45"><a xlink:href="mhrwstatscollectors_8h.html" target="_top" xlink:title="Definitions for MHRWStatsCollector Interface&#39;s. ">
<polygon fill="none" stroke="black" points="881.192,-425.5 881.192,-443.5 1052.81,-443.5 1052.81,-425.5 881.192,-425.5"/>
<text text-anchor="middle" x="967" y="-431.5" font-family="Helvetica,sans-Serif" font-size="10.00">tomographer/mhrwstatscollectors.h</text>
</a>
</g>
</g>
<!-- Node0&#45;&gt;Node47 -->
<g id="edge90" class="edge"><title>Node0&#45;&gt;Node47</title>
<path fill="none" stroke="midnightblue" d="M1283.11,-535.422C1248.83,-527.053 1194.41,-513.227 1148,-499 1094.6,-482.63 1033.47,-460.452 997.67,-447.104"/>
<polygon fill="midnightblue" stroke="midnightblue" points="998.863,-443.813 988.271,-443.585 996.409,-450.369 998.863,-443.813"/>
</g>
<!-- Node52 -->
<g id="node50" class="node"><title>Node52</title>
<g id="a_node50"><a xlink:href="mhrwacceptratiowalkerparamscontroller_8h.html" target="_top" xlink:title="Tools for automatically and dynamically adjusting the step size of the random walk. ">
<polygon fill="none" stroke="black" points="1266,-480.5 1266,-498.5 1526,-498.5 1526,-480.5 1266,-480.5"/>
<text text-anchor="middle" x="1396" y="-486.5" font-family="Helvetica,sans-Serif" font-size="10.00">tomographer/mhrwacceptratiowalkerparamscontroller.h</text>
</a>
</g>
</g>
<!-- Node0&#45;&gt;Node52 -->
<g id="edge120" class="edge"><title>Node0&#45;&gt;Node52</title>
<path fill="none" stroke="midnightblue" d="M1329,-535.45C1341.29,-527.201 1360.65,-514.216 1375.4,-504.319"/>
<polygon fill="midnightblue" stroke="midnightblue" points="1377.53,-507.103 1383.89,-498.625 1373.63,-501.29 1377.53,-507.103"/>
</g>
<!-- Node9 -->
<g id="node10" class="node"><title>Node9</title>
<polygon fill="none" stroke="#bfbfbf" points="2050.94,-125.5 2050.94,-143.5 2093.06,-143.5 2093.06,-125.5 2050.94,-125.5"/>
<text text-anchor="middle" x="2072" y="-131.5" font-family="Helvetica,sans-Serif" font-size="10.00">cstdio</text>
</g>
<!-- Node8&#45;&gt;Node9 -->
<g id="edge9" class="edge"><title>Node8&#45;&gt;Node9</title>
<path fill="none" stroke="midnightblue" d="M2249.53,-250.43C2217.67,-229.803 2132.97,-174.97 2093.19,-149.22"/>
<polygon fill="midnightblue" stroke="midnightblue" points="2095.06,-146.258 2084.76,-143.761 2091.25,-152.134 2095.06,-146.258"/>
</g>
<!-- Node10 -->
<g id="node11" class="node"><title>Node10</title>
<polygon fill="none" stroke="#bfbfbf" points="2148.6,-125.5 2148.6,-143.5 2197.4,-143.5 2197.4,-125.5 2148.6,-125.5"/>
<text text-anchor="middle" x="2173" y="-131.5" font-family="Helvetica,sans-Serif" font-size="10.00">cstdarg</text>
</g>
<!-- Node8&#45;&gt;Node10 -->
<g id="edge10" class="edge"><title>Node8&#45;&gt;Node10</title>
<path fill="none" stroke="midnightblue" d="M2256.16,-250.43C2241.77,-230.541 2204.37,-178.851 2185.01,-152.093"/>
<polygon fill="midnightblue" stroke="midnightblue" points="2187.68,-149.811 2178.98,-143.761 2182,-153.915 2187.68,-149.811"/>
</g>
<!-- Node11 -->
<g id="node12" class="node"><title>Node11</title>
<polygon fill="none" stroke="#bfbfbf" points="2357.77,-0.5 2357.77,-18.5 2398.23,-18.5 2398.23,-0.5 2357.77,-0.5"/>
<text text-anchor="middle" x="2378" y="-6.5" font-family="Helvetica,sans-Serif" font-size="10.00">string</text>
</g>
<!-- Node8&#45;&gt;Node11 -->
<g id="edge11" class="edge"><title>Node8&#45;&gt;Node11</title>
<path fill="none" stroke="midnightblue" d="M2332.61,-255.061C2421.48,-249.808 2568.39,-237.785 2617,-214 2690.4,-178.088 2715.73,-159.49 2747,-84 2751.93,-72.0922 2755.55,-64.644 2747,-55 2724.65,-29.7915 2493.18,-16.0971 2408.67,-11.9074"/>
<polygon fill="midnightblue" stroke="midnightblue" points="2408.59,-8.39957 2398.44,-11.4111 2408.25,-15.3914 2408.59,-8.39957"/>
</g>
<!-- Node12 -->
<g id="node13" class="node"><title>Node12</title>
<polygon fill="none" stroke="#bfbfbf" points="1905.22,-125.5 1905.22,-143.5 1956.78,-143.5 1956.78,-125.5 1905.22,-125.5"/>
<text text-anchor="middle" x="1931" y="-131.5" font-family="Helvetica,sans-Serif" font-size="10.00">sstream</text>
</g>
<!-- Node8&#45;&gt;Node12 -->
<g id="edge12" class="edge"><title>Node8&#45;&gt;Node12</title>
<path fill="none" stroke="midnightblue" d="M2237.83,-250.461C2213.87,-242.227 2176.32,-228.596 2145,-214 2121.01,-202.822 2117.35,-195.369 2093,-185 2050.83,-167.037 1999.95,-152.597 1966.6,-144.05"/>
<polygon fill="midnightblue" stroke="midnightblue" points="1967.4,-140.641 1956.85,-141.589 1965.69,-147.428 1967.4,-140.641"/>
</g>
<!-- Node13 -->
<g id="node14" class="node"><title>Node13</title>
<polygon fill="none" stroke="#bfbfbf" points="1650.83,-60.5 1650.83,-78.5 1705.17,-78.5 1705.17,-60.5 1650.83,-60.5"/>
<text text-anchor="middle" x="1678" y="-66.5" font-family="Helvetica,sans-Serif" font-size="10.00">iostream</text>
</g>
<!-- Node8&#45;&gt;Node13 -->
<g id="edge13" class="edge"><title>Node8&#45;&gt;Node13</title>
<path fill="none" stroke="midnightblue" d="M2299.89,-250.38C2319.65,-244.015 2342.12,-232.939 2354,-214 2376.2,-178.607 2382.48,-150.564 2354,-120 2315.27,-78.4408 1900.64,-88.3024 1844,-84 1799.9,-80.6506 1749.24,-76.4846 1715.6,-73.6734"/>
<polygon fill="midnightblue" stroke="midnightblue" points="1715.57,-70.1581 1705.31,-72.811 1714.98,-77.1337 1715.57,-70.1581"/>
</g>
<!-- Node14 -->
<g id="node15" class="node"><title>Node14</title>
<polygon fill="none" stroke="#bfbfbf" points="2215.6,-125.5 2215.6,-143.5 2274.4,-143.5 2274.4,-125.5 2215.6,-125.5"/>
<text text-anchor="middle" x="2245" y="-131.5" font-family="Helvetica,sans-Serif" font-size="10.00">functional</text>
</g>
<!-- Node8&#45;&gt;Node14 -->
<g id="edge14" class="edge"><title>Node8&#45;&gt;Node14</title>
<path fill="none" stroke="midnightblue" d="M2260.88,-250.43C2258.2,-230.975 2251.3,-181.094 2247.54,-153.881"/>
<polygon fill="midnightblue" stroke="midnightblue" points="2250.98,-153.188 2246.14,-143.761 2244.04,-154.146 2250.98,-153.188"/>
</g>
<!-- Node15 -->
<g id="node16" class="node"><title>Node15</title>
<polygon fill="none" stroke="#bfbfbf" points="1421.93,-60.5 1421.93,-78.5 1484.07,-78.5 1484.07,-60.5 1421.93,-60.5"/>
<text text-anchor="middle" x="1453" y="-66.5" font-family="Helvetica,sans-Serif" font-size="10.00">type_traits</text>
</g>
<!-- Node8&#45;&gt;Node15 -->
<g id="edge15" class="edge"><title>Node8&#45;&gt;Node15</title>
<path fill="none" stroke="midnightblue" d="M2278.11,-250.407C2291.02,-242.926 2308.23,-230.481 2316,-214 2333.82,-176.215 2344.74,-150.319 2316,-120 2290.2,-92.7871 1679.42,-86.3359 1642,-84 1591.13,-80.825 1532.61,-76.5484 1494.33,-73.6664"/>
<polygon fill="midnightblue" stroke="midnightblue" points="1494.33,-70.1564 1484.09,-72.8926 1493.8,-77.1365 1494.33,-70.1564"/>
</g>
<!-- Node16 -->
<g id="node17" class="node"><title>Node16</title>
<polygon fill="none" stroke="#bfbfbf" points="2406.27,-190.5 2406.27,-208.5 2441.73,-208.5 2441.73,-190.5 2406.27,-190.5"/>
<text text-anchor="middle" x="2424" y="-196.5" font-family="Helvetica,sans-Serif" font-size="10.00">map</text>
</g>
<!-- Node8&#45;&gt;Node16 -->
<g id="edge16" class="edge"><title>Node8&#45;&gt;Node16</title>
<path fill="none" stroke="midnightblue" d="M2287.11,-250.479C2313.43,-241.937 2355.89,-227.777 2392,-214 2393.59,-213.394 2395.21,-212.758 2396.85,-212.106"/>
<polygon fill="midnightblue" stroke="midnightblue" points="2398.23,-215.324 2406.15,-208.289 2395.57,-208.849 2398.23,-215.324"/>
</g>
<!-- Node17 -->
<g id="node18" class="node"><title>Node17</title>
<polygon fill="none" stroke="#bfbfbf" points="2459.47,-190.5 2459.47,-208.5 2590.53,-208.5 2590.53,-190.5 2459.47,-190.5"/>
<text text-anchor="middle" x="2525" y="-196.5" font-family="Helvetica,sans-Serif" font-size="10.00">boost/algorithm/string.hpp</text>
</g>
<!-- Node8&#45;&gt;Node17 -->
<g id="edge17" class="edge"><title>Node8&#45;&gt;Node17</title>
<path fill="none" stroke="midnightblue" d="M2298.29,-250.496C2345.32,-240.125 2427.37,-222.03 2478.8,-210.689"/>
<polygon fill="midnightblue" stroke="midnightblue" points="2479.65,-214.086 2488.66,-208.515 2478.14,-207.25 2479.65,-214.086"/>
</g>
<!-- Node18 -->
<g id="node19" class="node"><title>Node18</title>
<g id="a_node19"><a xlink:href="cxxdefs_8h.html" target="_top" xlink:title="Basic definitions, which may have to be defined before any Eigen headers or further utilities are inc...">
<polygon fill="none" stroke="black" points="959.19,-60.5 959.19,-78.5 1100.81,-78.5 1100.81,-60.5 959.19,-60.5"/>
<text text-anchor="middle" x="1030" y="-66.5" font-family="Helvetica,sans-Serif" font-size="10.00">tomographer/tools/cxxdefs.h</text>
</a>
</g>
</g>
<!-- Node8&#45;&gt;Node18 -->
<g id="edge18" class="edge"><title>Node8&#45;&gt;Node18</title>
<path fill="none" stroke="midnightblue" d="M2267.22,-250.258C2281.59,-226.43 2318.39,-156.819 2283,-120 2277.91,-114.701 1388.59,-83.0767 1111.47,-73.3468"/>
<polygon fill="midnightblue" stroke="midnightblue" points="1111.2,-69.8354 1101.09,-72.9825 1110.96,-76.8311 1111.2,-69.8354"/>
</g>
<!-- Node8&#45;&gt;Node21 -->
<g id="edge23" class="edge"><title>Node8&#45;&gt;Node21</title>
<path fill="none" stroke="midnightblue" d="M2228.77,-250.435C2186.35,-240.141 2112.87,-222.31 2066.16,-210.974"/>
<polygon fill="midnightblue" stroke="midnightblue" points="2066.88,-207.547 2056.33,-208.589 2065.23,-214.349 2066.88,-207.547"/>
</g>
<!-- Node29 -->
<g id="node30" class="node"><title>Node29</title>
<g id="a_node30"><a xlink:href="conststr_8h.html" target="_top" xlink:title="A constexpr string type, suitable for basic compile&#45;time string processing. ">
<polygon fill="none" stroke="black" points="1852.91,-60.5 1852.91,-78.5 1995.09,-78.5 1995.09,-60.5 1852.91,-60.5"/>
<text text-anchor="middle" x="1924" y="-66.5" font-family="Helvetica,sans-Serif" font-size="10.00">tomographer/tools/conststr.h</text>
</a>
</g>
</g>
<!-- Node8&#45;&gt;Node29 -->
<g id="edge49" class="edge"><title>Node8&#45;&gt;Node29</title>
<path fill="none" stroke="midnightblue" d="M2332.57,-254.111C2426.45,-247.542 2582.66,-233.774 2600,-214 2608.5,-204.31 2607.63,-195.384 2600,-185 2530.72,-90.7697 2169.48,-73.7375 2005.32,-70.9101"/>
<polygon fill="midnightblue" stroke="midnightblue" points="2005.33,-67.4099 1995.28,-70.7506 2005.22,-74.409 2005.33,-67.4099"/>
</g>
<!-- Node18&#45;&gt;Node1 -->
<g id="edge20" class="edge"><title>Node18&#45;&gt;Node1</title>
<path fill="none" stroke="midnightblue" d="M1075.78,-60.4848C1088.45,-58.4689 1102.23,-56.4648 1115,-55 1339.87,-29.1989 1612.02,-15.9683 1706.63,-11.8972"/>
<polygon fill="midnightblue" stroke="midnightblue" points="1706.92,-15.388 1716.76,-11.4671 1706.62,-8.3943 1706.92,-15.388"/>
</g>
<!-- Node18&#45;&gt;Node3 -->
<g id="edge21" class="edge"><title>Node18&#45;&gt;Node3</title>
<path fill="none" stroke="midnightblue" d="M987.355,-60.4461C975.313,-58.4055 962.174,-56.3984 950,-55 684.867,-24.5449 362.399,-13.9879 260.48,-11.2797"/>
<polygon fill="midnightblue" stroke="midnightblue" points="260.319,-7.77448 250.231,-11.0144 260.137,-14.7721 260.319,-7.77448"/>
</g>
<!-- Node19 -->
<g id="node20" class="node"><title>Node19</title>
<polygon fill="none" stroke="#bfbfbf" points="765.884,-0.5 765.884,-18.5 814.116,-18.5 814.116,-0.5 765.884,-0.5"/>
<text text-anchor="middle" x="790" y="-6.5" font-family="Helvetica,sans-Serif" font-size="10.00">cassert</text>
</g>
<!-- Node18&#45;&gt;Node19 -->
<g id="edge19" class="edge"><title>Node18&#45;&gt;Node19</title>
<path fill="none" stroke="midnightblue" d="M996.881,-60.4962C951.452,-49.5177 870.219,-29.8862 824.22,-18.7698"/>
<polygon fill="midnightblue" stroke="midnightblue" points="824.961,-15.3482 814.419,-16.4011 823.317,-22.1523 824.961,-15.3482"/>
</g>
<!-- Node20 -->
<g id="node21" class="node"><title>Node20</title>
<polygon fill="none" stroke="#bfbfbf" points="990.032,-0.5 990.032,-18.5 1069.97,-18.5 1069.97,-0.5 990.032,-0.5"/>
<text text-anchor="middle" x="1030" y="-6.5" font-family="Helvetica,sans-Serif" font-size="10.00">boost/predef.h</text>
</g>
<!-- Node18&#45;&gt;Node20 -->
<g id="edge22" class="edge"><title>Node18&#45;&gt;Node20</title>
<path fill="none" stroke="midnightblue" d="M1030,-60.4353C1030,-52.3891 1030,-39.7388 1030,-29.1846"/>
<polygon fill="midnightblue" stroke="midnightblue" points="1033.5,-28.8717 1030,-18.8718 1026.5,-28.8718 1033.5,-28.8717"/>
</g>
<!-- Node21&#45;&gt;Node7 -->
<g id="edge32" class="edge"><title>Node21&#45;&gt;Node7</title>
<path fill="none" stroke="midnightblue" d="M1962.19,-191.995C1839.82,-178.906 1567.22,-149.749 1469.62,-139.309"/>
<polygon fill="midnightblue" stroke="midnightblue" points="1469.97,-135.828 1459.66,-138.245 1469.23,-142.788 1469.97,-135.828"/>
</g>
<!-- Node21&#45;&gt;Node9 -->
<g id="edge24" class="edge"><title>Node21&#45;&gt;Node9</title>
<path fill="none" stroke="midnightblue" d="M2029.41,-190.264C2037,-180.494 2049.85,-163.98 2059.45,-151.635"/>
<polygon fill="midnightblue" stroke="midnightblue" points="2062.37,-153.581 2065.75,-143.539 2056.85,-149.284 2062.37,-153.581"/>
</g>
<!-- Node21&#45;&gt;Node10 -->
<g id="edge25" class="edge"><title>Node21&#45;&gt;Node10</title>
<path fill="none" stroke="midnightblue" d="M2042.3,-190.393C2068.18,-179.525 2114.32,-160.145 2144.28,-147.561"/>
<polygon fill="midnightblue" stroke="midnightblue" points="2145.91,-150.675 2153.77,-143.576 2143.2,-144.222 2145.91,-150.675"/>
</g>
<!-- Node21&#45;&gt;Node11 -->
<g id="edge27" class="edge"><title>Node21&#45;&gt;Node11</title>
<path fill="none" stroke="midnightblue" d="M2022.55,-190.43C2022.14,-174.752 2023.53,-139.967 2042,-120 2124.69,-30.6319 2281.09,-14.0178 2347.23,-11.0642"/>
<polygon fill="midnightblue" stroke="midnightblue" points="2347.55,-14.5551 2357.41,-10.6878 2347.29,-7.55987 2347.55,-14.5551"/>
</g>
<!-- Node21&#45;&gt;Node12 -->
<g id="edge28" class="edge"><title>Node21&#45;&gt;Node12</title>
<path fill="none" stroke="midnightblue" d="M2010.97,-190.264C1995.81,-179.878 1969.51,-161.869 1951.23,-149.35"/>
<polygon fill="midnightblue" stroke="midnightblue" points="1952.97,-146.301 1942.74,-143.539 1949.01,-152.077 1952.97,-146.301"/>
</g>
<!-- Node21&#45;&gt;Node13 -->
<g id="edge29" class="edge"><title>Node21&#45;&gt;Node13</title>
<path fill="none" stroke="midnightblue" d="M2019.69,-190.458C2012.55,-174.189 1994.03,-137.437 1966,-120 1924.7,-94.309 1783.7,-79.3337 1715.52,-73.4346"/>
<polygon fill="midnightblue" stroke="midnightblue" points="1715.49,-69.9195 1705.23,-72.5655 1714.9,-76.8947 1715.49,-69.9195"/>
</g>
<!-- Node21&#45;&gt;Node14 -->
<g id="edge33" class="edge"><title>Node21&#45;&gt;Node14</title>
<path fill="none" stroke="midnightblue" d="M2055.26,-190.493C2091.97,-181.215 2153.63,-165.127 2206,-149 2208.25,-148.306 2210.57,-147.568 2212.9,-146.807"/>
<polygon fill="midnightblue" stroke="midnightblue" points="2214.04,-150.119 2222.4,-143.619 2211.81,-143.482 2214.04,-150.119"/>
</g>
<!-- Node22 -->
<g id="node23" class="node"><title>Node22</title>
<polygon fill="none" stroke="#bfbfbf" points="1840.71,-125.5 1840.71,-143.5 1887.29,-143.5 1887.29,-125.5 1840.71,-125.5"/>
<text text-anchor="middle" x="1864" y="-131.5" font-family="Helvetica,sans-Serif" font-size="10.00">chrono</text>
</g>
<!-- Node21&#45;&gt;Node22 -->
<g id="edge26" class="edge"><title>Node21&#45;&gt;Node22</title>
<path fill="none" stroke="midnightblue" d="M2001.81,-190.444C1976.54,-180.792 1933.06,-164.036 1896,-149 1894.81,-148.515 1893.59,-148.018 1892.36,-147.512"/>
<polygon fill="midnightblue" stroke="midnightblue" points="1893.49,-144.193 1882.92,-143.582 1890.8,-150.656 1893.49,-144.193"/>
</g>
<!-- Node23 -->
<g id="node24" class="node"><title>Node23</title>
<polygon fill="none" stroke="#bfbfbf" points="466.608,-125.5 466.608,-143.5 505.392,-143.5 505.392,-125.5 466.608,-125.5"/>
<text text-anchor="middle" x="486" y="-131.5" font-family="Helvetica,sans-Serif" font-size="10.00">utility</text>
</g>
<!-- Node21&#45;&gt;Node23 -->
<g id="edge30" class="edge"><title>Node21&#45;&gt;Node23</title>
<path fill="none" stroke="midnightblue" d="M1962.13,-193.352C1926.3,-190.493 1880.11,-187.099 1839,-185 1284.38,-156.675 1143.61,-192.799 590,-149 564.806,-147.007 536.358,-143.206 515.592,-140.144"/>
<polygon fill="midnightblue" stroke="midnightblue" points="515.9,-136.651 505.49,-138.624 514.858,-143.573 515.9,-136.651"/>
</g>
<!-- Node24 -->
<g id="node25" class="node"><title>Node24</title>
<polygon fill="none" stroke="#bfbfbf" points="1347.38,-125.5 1347.38,-143.5 1390.62,-143.5 1390.62,-125.5 1347.38,-125.5"/>
<text text-anchor="middle" x="1369" y="-131.5" font-family="Helvetica,sans-Serif" font-size="10.00">vector</text>
</g>
<!-- Node21&#45;&gt;Node24 -->
<g id="edge31" class="edge"><title>Node21&#45;&gt;Node24</title>
<path fill="none" stroke="midnightblue" d="M1962.16,-193.949C1807.87,-182.374 1412.55,-152.473 1399,-149 1397.29,-148.561 1395.55,-148.031 1393.82,-147.439"/>
<polygon fill="midnightblue" stroke="midnightblue" points="1394.79,-144.053 1384.2,-143.557 1392.17,-150.545 1394.79,-144.053"/>
</g>
<!-- Node21&#45;&gt;Node25 -->
<g id="edge34" class="edge"><title>Node21&#45;&gt;Node25</title>
<path fill="none" stroke="midnightblue" d="M1962.12,-193.413C1926.3,-190.575 1880.1,-187.182 1839,-185 1352.31,-159.163 1227.72,-199.749 743,-149 734.188,-148.077 724.858,-146.731 715.866,-145.241"/>
<polygon fill="midnightblue" stroke="midnightblue" points="716.353,-141.773 705.902,-143.513 715.157,-148.67 716.353,-141.773"/>
</g>
<!-- Node25&#45;&gt;Node1 -->
<g id="edge36" class="edge"><title>Node25&#45;&gt;Node1</title>
<path fill="none" stroke="midnightblue" d="M708.72,-125.485C719.832,-123.516 731.848,-121.535 743,-120 905.363,-97.651 955.795,-139.516 1110,-84 1131.69,-76.1919 1131.23,-62.5664 1153,-55 1256.3,-19.1049 1596.68,-12.1293 1706.51,-10.8036"/>
<polygon fill="midnightblue" stroke="midnightblue" points="1706.74,-14.3014 1716.7,-10.6891 1706.66,-7.30181 1706.74,-14.3014"/>
</g>
<!-- Node25&#45;&gt;Node3 -->
<g id="edge37" class="edge"><title>Node25&#45;&gt;Node3</title>
<path fill="none" stroke="midnightblue" d="M660.502,-125.33C646.85,-108.823 613.349,-71.6559 576,-55 519.931,-29.9958 336.38,-16.7774 260.884,-12.2878"/>
<polygon fill="midnightblue" stroke="midnightblue" points="260.744,-8.7738 250.558,-11.6883 260.338,-15.762 260.744,-8.7738"/>
</g>
<!-- Node25&#45;&gt;Node13 -->
<g id="edge38" class="edge"><title>Node25&#45;&gt;Node13</title>
<path fill="none" stroke="midnightblue" d="M706.698,-125.461C718.351,-123.369 731.148,-121.332 743,-120 1074.63,-82.7414 1159.89,-104.145 1493,-84 1544.05,-80.9125 1602.97,-76.4599 1640.33,-73.5243"/>
<polygon fill="midnightblue" stroke="midnightblue" points="1641.05,-76.9788 1650.74,-72.7021 1640.5,-70.0006 1641.05,-76.9788"/>
</g>
<!-- Node25&#45;&gt;Node15 -->
<g id="edge40" class="edge"><title>Node25&#45;&gt;Node15</title>
<path fill="none" stroke="midnightblue" d="M707.505,-125.483C718.945,-123.443 731.429,-121.427 743,-120 995.793,-88.8253 1301.83,-75.7608 1411.45,-71.8542"/>
<polygon fill="midnightblue" stroke="midnightblue" points="1411.87,-75.3418 1421.74,-71.494 1411.63,-68.3461 1411.87,-75.3418"/>
</g>
<!-- Node25&#45;&gt;Node18 -->
<g id="edge43" class="edge"><title>Node25&#45;&gt;Node18</title>
<path fill="none" stroke="midnightblue" d="M712.003,-125.468C722.194,-123.659 732.968,-121.756 743,-120 822.755,-106.039 915.031,-90.1752 972.956,-80.252"/>
<polygon fill="midnightblue" stroke="midnightblue" points="973.743,-83.6684 983.009,-78.5306 972.561,-76.7688 973.743,-83.6684"/>
</g>
<!-- Node25&#45;&gt;Node19 -->
<g id="edge35" class="edge"><title>Node25&#45;&gt;Node19</title>
<path fill="none" stroke="midnightblue" d="M661.716,-125.272C652.596,-109.924 636.317,-76.5349 652,-55 675.534,-22.6832 722.978,-13.3368 755.609,-10.898"/>
<polygon fill="midnightblue" stroke="midnightblue" points="755.849,-14.3902 765.634,-10.3286 755.452,-7.40142 755.849,-14.3902"/>
</g>
<!-- Node26 -->
<g id="node27" class="node"><title>Node26</title>
<polygon fill="none" stroke="#bfbfbf" points="513.382,-60.5 513.382,-78.5 566.618,-78.5 566.618,-60.5 513.382,-60.5"/>
<text text-anchor="middle" x="540" y="-66.5" font-family="Helvetica,sans-Serif" font-size="10.00">complex</text>
</g>
<!-- Node25&#45;&gt;Node26 -->
<g id="edge39" class="edge"><title>Node25&#45;&gt;Node26</title>
<path fill="none" stroke="midnightblue" d="M650.657,-125.393C629.034,-114.666 590.697,-95.6491 565.313,-83.0569"/>
<polygon fill="midnightblue" stroke="midnightblue" points="566.794,-79.8846 556.28,-78.5761 563.683,-86.1554 566.794,-79.8846"/>
</g>
<!-- Node27 -->
<g id="node28" class="node"><title>Node27</title>
<polygon fill="none" stroke="#bfbfbf" points="882.596,-60.5 882.596,-78.5 941.404,-78.5 941.404,-60.5 882.596,-60.5"/>
<text text-anchor="middle" x="912" y="-66.5" font-family="Helvetica,sans-Serif" font-size="10.00">exception</text>
</g>
<!-- Node25&#45;&gt;Node27 -->
<g id="edge41" class="edge"><title>Node25&#45;&gt;Node27</title>
<path fill="none" stroke="midnightblue" d="M706.243,-125.422C748.122,-116.499 816.252,-101.11 874,-84 876.266,-83.3288 878.594,-82.5999 880.93,-81.8402"/>
<polygon fill="midnightblue" stroke="midnightblue" points="882.086,-85.144 890.428,-78.6128 879.834,-78.5162 882.086,-85.144"/>
</g>
<!-- Node28 -->
<g id="node29" class="node"><title>Node28</title>
<polygon fill="none" stroke="#bfbfbf" points="304.599,-60.5 304.599,-78.5 363.401,-78.5 363.401,-60.5 304.599,-60.5"/>
<text text-anchor="middle" x="334" y="-66.5" font-family="Helvetica,sans-Serif" font-size="10.00">stdexcept</text>
</g>
<!-- Node25&#45;&gt;Node28 -->
<g id="edge42" class="edge"><title>Node25&#45;&gt;Node28</title>
<path fill="none" stroke="midnightblue" d="M624.487,-125.457C559.546,-113.171 436.547,-89.9008 373.473,-77.9679"/>
<polygon fill="midnightblue" stroke="midnightblue" points="373.993,-74.5042 363.517,-76.0842 372.692,-81.3822 373.993,-74.5042"/>
</g>
<!-- Node25&#45;&gt;Node29 -->
<g id="edge44" class="edge"><title>Node25&#45;&gt;Node29</title>
<path fill="none" stroke="midnightblue" d="M706.297,-125.449C718.054,-123.33 731.007,-121.281 743,-120 1172.41,-74.1255 1282.7,-105.854 1714,-84 1756.37,-81.8531 1803.51,-78.8761 1842.38,-76.2639"/>
<polygon fill="midnightblue" stroke="midnightblue" points="1842.85,-79.7402 1852.59,-75.5732 1842.37,-72.7561 1842.85,-79.7402"/>
</g>
<!-- Node30 -->
<g id="node31" class="node"><title>Node30</title>
<polygon fill="none" stroke="#bfbfbf" points="660.53,-60.5 660.53,-78.5 755.47,-78.5 755.47,-60.5 660.53,-60.5"/>
<text text-anchor="middle" x="708" y="-66.5" font-family="Helvetica,sans-Serif" font-size="10.00">boost/version.hpp</text>
</g>
<!-- Node25&#45;&gt;Node30 -->
<g id="edge46" class="edge"><title>Node25&#45;&gt;Node30</title>
<path fill="none" stroke="midnightblue" d="M672.36,-125.264C678.656,-115.589 689.257,-99.2999 697.265,-86.9957"/>
<polygon fill="midnightblue" stroke="midnightblue" points="700.247,-88.8295 702.768,-78.539 694.38,-85.0113 700.247,-88.8295"/>
</g>
<!-- Node31 -->
<g id="node32" class="node"><title>Node31</title>
<polygon fill="none" stroke="#bfbfbf" points="773.476,-55.5 773.476,-83.5 864.524,-83.5 864.524,-55.5 773.476,-55.5"/>
<text text-anchor="start" x="781.476" y="-71.5" font-family="Helvetica,sans-Serif" font-size="10.00">boost/units/detail</text>
<text text-anchor="middle" x="819" y="-61.5" font-family="Helvetica,sans-Serif" font-size="10.00">/utility.hpp</text>
</g>
<!-- Node25&#45;&gt;Node31 -->
<g id="edge47" class="edge"><title>Node25&#45;&gt;Node31</title>
<path fill="none" stroke="midnightblue" d="M686.56,-125.393C709.64,-115.827 748.629,-99.6668 778.344,-87.3507"/>
<polygon fill="midnightblue" stroke="midnightblue" points="779.737,-90.5624 787.634,-83.5002 777.056,-84.0959 779.737,-90.5624"/>
</g>
<!-- Node32 -->
<g id="node33" class="node"><title>Node32</title>
<polygon fill="none" stroke="#bfbfbf" points="428.985,-60.5 428.985,-78.5 495.015,-78.5 495.015,-60.5 428.985,-60.5"/>
<text text-anchor="middle" x="462" y="-66.5" font-family="Helvetica,sans-Serif" font-size="10.00">Eigen/Core</text>
</g>
<!-- Node25&#45;&gt;Node32 -->
<g id="edge48" class="edge"><title>Node25&#45;&gt;Node32</title>
<path fill="none" stroke="midnightblue" d="M640.135,-125.487C607.791,-115.806 551.847,-98.9537 504,-84 501.569,-83.2403 499.061,-82.4503 496.538,-81.6505"/>
<polygon fill="midnightblue" stroke="midnightblue" points="497.443,-78.2657 486.853,-78.5617 495.316,-84.9348 497.443,-78.2657"/>
</g>
<!-- Node29&#45;&gt;Node11 -->
<g id="edge45" class="edge"><title>Node29&#45;&gt;Node11</title>
<path fill="none" stroke="midnightblue" d="M1972.5,-60.4755C1984.42,-58.5918 1997.16,-56.6534 2009,-55 2134.35,-37.4931 2284.25,-20.6888 2347.48,-13.7886"/>
<polygon fill="midnightblue" stroke="midnightblue" points="2348,-17.2528 2357.56,-12.6923 2347.24,-10.2939 2348,-17.2528"/>
</g>
<!-- Node33&#45;&gt;Node15 -->
<g id="edge53" class="edge"><title>Node33&#45;&gt;Node15</title>
<path fill="none" stroke="midnightblue" d="M1710.8,-190.493C1664.21,-168.808 1535.35,-108.828 1479.44,-82.8079"/>
<polygon fill="midnightblue" stroke="midnightblue" points="1480.74,-79.5507 1470.2,-78.5039 1477.79,-85.8969 1480.74,-79.5507"/>
</g>
<!-- Node33&#45;&gt;Node25 -->
<g id="edge55" class="edge"><title>Node33&#45;&gt;Node25</title>
<path fill="none" stroke="midnightblue" d="M1669.86,-190.472C1653.15,-188.407 1634.88,-186.38 1618,-185 1230.08,-153.268 1129.93,-191.131 743,-149 734.288,-148.051 725.069,-146.707 716.169,-145.23"/>
<polygon fill="midnightblue" stroke="midnightblue" points="716.751,-141.779 706.3,-143.521 715.556,-148.676 716.751,-141.779"/>
</g>
<!-- Node34 -->
<g id="node35" class="node"><title>Node34</title>
<polygon fill="none" stroke="#bfbfbf" points="1693.03,-125.5 1693.03,-143.5 1762.97,-143.5 1762.97,-125.5 1693.03,-125.5"/>
<text text-anchor="middle" x="1728" y="-131.5" font-family="Helvetica,sans-Serif" font-size="10.00">Eigen/Eigen</text>
</g>
<!-- Node33&#45;&gt;Node34 -->
<g id="edge54" class="edge"><title>Node33&#45;&gt;Node34</title>
<path fill="none" stroke="midnightblue" d="M1728,-190.264C1728,-181.064 1728,-165.881 1728,-153.833"/>
<polygon fill="midnightblue" stroke="midnightblue" points="1731.5,-153.539 1728,-143.539 1724.5,-153.539 1731.5,-153.539"/>
</g>
<!-- Node35&#45;&gt;Node1 -->
<g id="edge57" class="edge"><title>Node35&#45;&gt;Node1</title>
<path fill="none" stroke="midnightblue" d="M1577,-375.177C1645.64,-370.131 1767.42,-358.413 1869,-334 1906.18,-325.065 1912.67,-313.263 1950,-305 2120.39,-267.289 2168.3,-294.087 2341,-269 2464.78,-251.019 2537.67,-310.701 2617,-214 2729.64,-76.7004 1950.36,-22.7222 1775.37,-12.4013"/>
<polygon fill="midnightblue" stroke="midnightblue" points="1775.38,-8.89573 1765.19,-11.8101 1774.97,-15.884 1775.38,-8.89573"/>
</g>
<!-- Node35&#45;&gt;Node2 -->
<g id="edge58" class="edge"><title>Node35&#45;&gt;Node2</title>
<path fill="none" stroke="midnightblue" d="M1496.82,-370.383C1474.04,-362.732 1440.6,-350.054 1414,-334 1355.83,-298.892 1297.12,-243.105 1270.2,-216.127"/>
<polygon fill="midnightblue" stroke="midnightblue" points="1272.42,-213.393 1262.9,-208.734 1267.44,-218.31 1272.42,-213.393"/>
</g>
<!-- Node35&#45;&gt;Node5 -->
<g id="edge59" class="edge"><title>Node35&#45;&gt;Node5</title>
<path fill="none" stroke="midnightblue" d="M1468.78,-375.857C1261.19,-365.74 520.749,-329.651 362.782,-321.952"/>
<polygon fill="midnightblue" stroke="midnightblue" points="362.589,-318.438 352.431,-321.447 362.248,-325.43 362.589,-318.438"/>
</g>
<!-- Node35&#45;&gt;Node6 -->
<g id="edge60" class="edge"><title>Node35&#45;&gt;Node6</title>
<path fill="none" stroke="midnightblue" d="M1576.87,-373.256C1651.27,-365.786 1789.61,-351.077 1907,-334 1920.67,-332.011 1935.64,-329.47 1948.72,-327.129"/>
<polygon fill="midnightblue" stroke="midnightblue" points="1949.53,-330.54 1958.74,-325.31 1948.28,-323.653 1949.53,-330.54"/>
</g>
<!-- Node35&#45;&gt;Node7 -->
<g id="edge62" class="edge"><title>Node35&#45;&gt;Node7</title>
<path fill="none" stroke="midnightblue" d="M1520.04,-370.415C1507.48,-336.115 1458.42,-202.166 1440.55,-153.39"/>
<polygon fill="midnightblue" stroke="midnightblue" points="1443.79,-152.051 1437.06,-143.865 1437.22,-154.458 1443.79,-152.051"/>
</g>
<!-- Node35&#45;&gt;Node8 -->
<g id="edge65" class="edge"><title>Node35&#45;&gt;Node8</title>
<path fill="none" stroke="midnightblue" d="M1576.87,-377.176C1639.6,-374.179 1745.54,-364.567 1831,-334 1854.47,-325.606 1855.42,-313.067 1879,-305 1979.32,-270.686 2102.11,-261.798 2181.17,-260.009"/>
<polygon fill="midnightblue" stroke="midnightblue" points="2181.62,-263.501 2191.55,-259.809 2181.48,-256.502 2181.62,-263.501"/>
</g>
<!-- Node35&#45;&gt;Node12 -->
<g id="edge61" class="edge"><title>Node35&#45;&gt;Node12</title>
<path fill="none" stroke="midnightblue" d="M1576.88,-372.411C1616.97,-366.414 1672.26,-354.988 1717,-334 1736.23,-324.976 1737.36,-316.844 1755,-305 1821.32,-260.465 1861.61,-277.562 1910,-214 1923.33,-196.489 1928.21,-171.169 1929.99,-154.06"/>
<polygon fill="midnightblue" stroke="midnightblue" points="1933.51,-153.965 1930.8,-143.725 1926.53,-153.424 1933.51,-153.965"/>
</g>
<!-- Node35&#45;&gt;Node15 -->
<g id="edge63" class="edge"><title>Node35&#45;&gt;Node15</title>
<path fill="none" stroke="midnightblue" d="M1545.25,-370.385C1611.51,-345.721 1805.07,-269.916 1839,-214 1845.69,-202.981 1844.02,-196.87 1839,-185 1822.83,-146.791 1809.14,-138.497 1772,-120 1723.91,-96.0468 1568.92,-80.2072 1494.13,-73.7638"/>
<polygon fill="midnightblue" stroke="midnightblue" points="1494.39,-70.2733 1484.13,-72.9171 1493.79,-77.2483 1494.39,-70.2733"/>
</g>
<!-- Node35&#45;&gt;Node21 -->
<g id="edge66" class="edge"><title>Node35&#45;&gt;Node21</title>
<path fill="none" stroke="midnightblue" d="M1577.05,-372.377C1624.76,-365.979 1695.75,-354.02 1755,-334 1851.12,-301.524 1956.45,-240.968 2001.08,-214.027"/>
<polygon fill="midnightblue" stroke="midnightblue" points="2003.17,-216.851 2009.9,-208.663 1999.54,-210.871 2003.17,-216.851"/>
</g>
<!-- Node35&#45;&gt;Node25 -->
<g id="edge67" class="edge"><title>Node35&#45;&gt;Node25</title>
<path fill="none" stroke="midnightblue" d="M1469.08,-377.637C1369.51,-375.278 1150.41,-366.505 969,-334 922.188,-325.612 912.59,-314.545 866,-305 744.811,-280.172 699.361,-326.822 590,-269 551.791,-248.798 516.659,-220.715 541,-185 554.375,-165.376 576.822,-153.531 599.095,-146.383"/>
<polygon fill="midnightblue" stroke="midnightblue" points="600.324,-149.67 608.942,-143.508 598.362,-142.951 600.324,-149.67"/>
</g>
<!-- Node35&#45;&gt;Node33 -->
<g id="edge89" class="edge"><title>Node35&#45;&gt;Node33</title>
<path fill="none" stroke="midnightblue" d="M1532.34,-370.389C1564.29,-342.647 1669.52,-251.28 1710.99,-215.273"/>
<polygon fill="midnightblue" stroke="midnightblue" points="1713.35,-217.858 1718.6,-208.658 1708.76,-212.572 1713.35,-217.858"/>
</g>
<!-- Node36 -->
<g id="node37" class="node"><title>Node36</title>
<polygon fill="none" stroke="#bfbfbf" points="1194.98,-120.5 1194.98,-148.5 1291.02,-148.5 1291.02,-120.5 1194.98,-120.5"/>
<text text-anchor="start" x="1202.98" y="-136.5" font-family="Helvetica,sans-Serif" font-size="10.00">boost/serialization</text>
<text text-anchor="middle" x="1243" y="-126.5" font-family="Helvetica,sans-Serif" font-size="10.00">/serialization.hpp</text>
</g>
<!-- Node35&#45;&gt;Node36 -->
<g id="edge64" class="edge"><title>Node35&#45;&gt;Node36</title>
<path fill="none" stroke="midnightblue" d="M1513.68,-370.415C1474.7,-336.585 1324.02,-205.816 1265.98,-155.441"/>
<polygon fill="midnightblue" stroke="midnightblue" points="1267.96,-152.524 1258.11,-148.613 1263.37,-157.811 1267.96,-152.524"/>
</g>
<!-- Node37 -->
<g id="node38" class="node"><title>Node37</title>
<g id="a_node38"><a xlink:href="statusprovider_8h_source.html" target="_top" xlink:title="tomographer/tools/statusprovider.h">
<polygon fill="none" stroke="black" points="641.01,-310.5 641.01,-328.5 810.99,-328.5 810.99,-310.5 641.01,-310.5"/>
<text text-anchor="middle" x="726" y="-316.5" font-family="Helvetica,sans-Serif" font-size="10.00">tomographer/tools/statusprovider.h</text>
</a>
</g>
</g>
<!-- Node35&#45;&gt;Node37 -->
<g id="edge68" class="edge"><title>Node35&#45;&gt;Node37</title>
<path fill="none" stroke="midnightblue" d="M1468.85,-374.559C1335.46,-364.852 989.695,-339.69 821.157,-327.425"/>
<polygon fill="midnightblue" stroke="midnightblue" points="821.281,-323.925 811.053,-326.69 820.773,-330.906 821.281,-323.925"/>
</g>
<!-- Node38 -->
<g id="node39" class="node"><title>Node38</title>
<g id="a_node39"><a xlink:href="multiproc_8h.html" target="_top" xlink:title="Some common definitions for multiprocessing interfaces. ">
<polygon fill="none" stroke="black" points="1512.81,-250.5 1512.81,-268.5 1637.19,-268.5 1637.19,-250.5 1512.81,-250.5"/>
<text text-anchor="middle" x="1575" y="-256.5" font-family="Helvetica,sans-Serif" font-size="10.00">tomographer/multiproc.h</text>
</a>
</g>
</g>
<!-- Node35&#45;&gt;Node38 -->
<g id="edge70" class="edge"><title>Node35&#45;&gt;Node38</title>
<path fill="none" stroke="midnightblue" d="M1526.57,-370.389C1534.92,-351.443 1555.86,-303.925 1567.28,-278.015"/>
<polygon fill="midnightblue" stroke="midnightblue" points="1570.57,-279.23 1571.4,-268.667 1564.17,-276.407 1570.57,-279.23"/>
</g>
<!-- Node40 -->
<g id="node41" class="node"><title>Node40</title>
<g id="a_node41"><a xlink:href="mhrw__bin__err_8h.html" target="_top" xlink:title="Binning Analysis in a Metropolis&#45;Hastings random walk. ">
<polygon fill="none" stroke="black" points="977.586,-305.5 977.586,-333.5 1096.41,-333.5 1096.41,-305.5 977.586,-305.5"/>
<text text-anchor="start" x="985.586" y="-321.5" font-family="Helvetica,sans-Serif" font-size="10.00">tomographer/mhrw_bin</text>
<text text-anchor="middle" x="1037" y="-311.5" font-family="Helvetica,sans-Serif" font-size="10.00">_err.h</text>
</a>
</g>
</g>
<!-- Node35&#45;&gt;Node40 -->
<g id="edge78" class="edge"><title>Node35&#45;&gt;Node40</title>
<path fill="none" stroke="midnightblue" d="M1469.13,-372.071C1380.7,-361.517 1204.8,-340.525 1106.89,-328.84"/>
<polygon fill="midnightblue" stroke="midnightblue" points="1107.14,-325.346 1096.79,-327.636 1106.31,-332.296 1107.14,-325.346"/>
</g>
<!-- Node37&#45;&gt;Node25 -->
<g id="edge69" class="edge"><title>Node37&#45;&gt;Node25</title>
<path fill="none" stroke="midnightblue" d="M640.883,-317.485C555.976,-314.453 433.971,-303.93 404,-269 379.689,-240.667 380.167,-213.737 404,-185 415.968,-170.569 517.395,-154.658 590.716,-144.87"/>
<polygon fill="midnightblue" stroke="midnightblue" points="591.407,-148.309 600.863,-143.53 590.491,-141.369 591.407,-148.309"/>
</g>
<!-- Node38&#45;&gt;Node11 -->
<g id="edge72" class="edge"><title>Node38&#45;&gt;Node11</title>
<path fill="none" stroke="midnightblue" d="M1637.52,-256.53C1767.11,-251.959 2056.08,-239.064 2093,-214 2131.64,-187.764 2106.44,-152.488 2140,-120 2200.71,-61.2261 2298.65,-30.0886 2347.81,-17.4294"/>
<polygon fill="midnightblue" stroke="midnightblue" points="2348.67,-20.8215 2357.53,-15.0052 2346.98,-14.0296 2348.67,-20.8215"/>
</g>
<!-- Node38&#45;&gt;Node21 -->
<g id="edge76" class="edge"><title>Node38&#45;&gt;Node21</title>
<path fill="none" stroke="midnightblue" d="M1636.82,-250.496C1719.37,-239.81 1865.24,-220.924 1952.13,-209.675"/>
<polygon fill="midnightblue" stroke="midnightblue" points="1952.7,-213.13 1962.17,-208.375 1951.8,-206.188 1952.7,-213.13"/>
</g>
<!-- Node38&#45;&gt;Node22 -->
<g id="edge73" class="edge"><title>Node38&#45;&gt;Node22</title>
<path fill="none" stroke="midnightblue" d="M1637.3,-255.37C1705.65,-250.691 1809.6,-239.513 1839,-214 1856.27,-199.011 1861.72,-172.121 1863.38,-154.045"/>
<polygon fill="midnightblue" stroke="midnightblue" points="1866.88,-154.078 1864,-143.883 1859.9,-153.651 1866.88,-154.078"/>
</g>
<!-- Node38&#45;&gt;Node27 -->
<g id="edge74" class="edge"><title>Node38&#45;&gt;Node27</title>
<path fill="none" stroke="midnightblue" d="M1569.92,-250.167C1552.95,-222.627 1497.67,-135.417 1469,-120 1367.18,-65.2442 1063.18,-107.569 950,-84 947.108,-83.3979 944.138,-82.6276 941.193,-81.7609"/>
<polygon fill="midnightblue" stroke="midnightblue" points="942.024,-78.3497 931.431,-78.5472 939.835,-84.9987 942.024,-78.3497"/>
</g>
<!-- Node38&#45;&gt;Node33 -->
<g id="edge77" class="edge"><title>Node38&#45;&gt;Node33</title>
<path fill="none" stroke="midnightblue" d="M1596.27,-250.435C1622.39,-240.536 1666.89,-223.666 1696.86,-212.306"/>
<polygon fill="midnightblue" stroke="midnightblue" points="1698.3,-215.501 1706.41,-208.683 1695.82,-208.955 1698.3,-215.501"/>
</g>
<!-- Node38&#45;&gt;Node36 -->
<g id="edge75" class="edge"><title>Node38&#45;&gt;Node36</title>
<path fill="none" stroke="midnightblue" d="M1553.22,-250.43C1499.55,-230.548 1360.11,-178.885 1287.86,-152.12"/>
<polygon fill="midnightblue" stroke="midnightblue" points="1288.72,-148.706 1278.13,-148.514 1286.29,-155.27 1288.72,-148.706"/>
</g>
<!-- Node39 -->
<g id="node40" class="node"><title>Node39</title>
<polygon fill="none" stroke="#bfbfbf" points="1561.44,-190.5 1561.44,-208.5 1608.56,-208.5 1608.56,-190.5 1561.44,-190.5"/>
<text text-anchor="middle" x="1585" y="-196.5" font-family="Helvetica,sans-Serif" font-size="10.00">csignal</text>
</g>
<!-- Node38&#45;&gt;Node39 -->
<g id="edge71" class="edge"><title>Node38&#45;&gt;Node39</title>
<path fill="none" stroke="midnightblue" d="M1576.39,-250.435C1577.79,-242.304 1580.01,-229.469 1581.84,-218.848"/>
<polygon fill="midnightblue" stroke="midnightblue" points="1585.31,-219.321 1583.56,-208.872 1578.41,-218.132 1585.31,-219.321"/>
</g>
<!-- Node40&#45;&gt;Node8 -->
<g id="edge79" class="edge"><title>Node40&#45;&gt;Node8</title>
<path fill="none" stroke="midnightblue" d="M1096.5,-315.683C1297.52,-306.165 1951.7,-275.192 2181.39,-264.317"/>
<polygon fill="midnightblue" stroke="midnightblue" points="2181.85,-267.799 2191.67,-263.83 2181.52,-260.807 2181.85,-267.799"/>
</g>
<!-- Node40&#45;&gt;Node25 -->
<g id="edge86" class="edge"><title>Node40&#45;&gt;Node25</title>
<path fill="none" stroke="midnightblue" d="M977.344,-308.419C908.756,-296.726 800.43,-277.917 760,-269 666.203,-248.313 609.643,-290.072 551,-214 526.621,-182.375 581.245,-159.023 623.552,-146.342"/>
<polygon fill="midnightblue" stroke="midnightblue" points="624.528,-149.703 633.17,-143.574 622.593,-142.976 624.528,-149.703"/>
</g>
<!-- Node40&#45;&gt;Node33 -->
<g id="edge87" class="edge"><title>Node40&#45;&gt;Node33</title>
<path fill="none" stroke="midnightblue" d="M1096.51,-308.337C1227.99,-285.885 1541.76,-232.303 1670.94,-210.244"/>
<polygon fill="midnightblue" stroke="midnightblue" points="1671.75,-213.656 1681.02,-208.522 1670.58,-206.756 1671.75,-213.656"/>
</g>
<!-- Node41 -->
<g id="node42" class="node"><title>Node41</title>
<g id="a_node42"><a xlink:href="eigenutil_8h.html" target="_top" xlink:title="Basic utilities for dealing with Eigen matrices and other types. ">
<polygon fill="none" stroke="red" points="559.515,-190.5 559.515,-208.5 704.485,-208.5 704.485,-190.5 559.515,-190.5"/>
<text text-anchor="middle" x="632" y="-196.5" font-family="Helvetica,sans-Serif" font-size="10.00">tomographer/tools/eigenutil.h</text>
</a>
</g>
</g>
<!-- Node40&#45;&gt;Node41 -->
<g id="edge80" class="edge"><title>Node40&#45;&gt;Node41</title>
<path fill="none" stroke="midnightblue" d="M977.361,-306.883C933.703,-297.884 873.219,-284.384 821,-269 763.469,-252.052 698.012,-226.991 661.194,-212.346"/>
<polygon fill="midnightblue" stroke="midnightblue" points="662.183,-208.972 651.599,-208.507 659.583,-215.471 662.183,-208.972"/>
</g>
<!-- Node46 -->
<g id="node44" class="node"><title>Node46</title>
<polygon fill="none" stroke="#bfbfbf" points="1027.47,-185.5 1027.47,-213.5 1138.53,-213.5 1138.53,-185.5 1027.47,-185.5"/>
<text text-anchor="start" x="1035.47" y="-201.5" font-family="Helvetica,sans-Serif" font-size="10.00">boost/math/constants</text>
<text text-anchor="middle" x="1083" y="-191.5" font-family="Helvetica,sans-Serif" font-size="10.00">/constants.hpp</text>
</g>
<!-- Node40&#45;&gt;Node46 -->
<g id="edge88" class="edge"><title>Node40&#45;&gt;Node46</title>
<path fill="none" stroke="midnightblue" d="M1042.1,-305.421C1049.84,-285.574 1064.64,-247.585 1074.16,-223.175"/>
<polygon fill="midnightblue" stroke="midnightblue" points="1077.51,-224.226 1077.88,-213.637 1070.99,-221.683 1077.51,-224.226"/>
</g>
<!-- Node41&#45;&gt;Node24 -->
<g id="edge82" class="edge"><title>Node41&#45;&gt;Node24</title>
<path fill="none" stroke="midnightblue" d="M675.718,-190.456C688.061,-188.416 701.527,-186.406 714,-185 973.293,-155.768 1041.18,-182.123 1300,-149 1312.36,-147.418 1325.84,-144.951 1337.57,-142.556"/>
<polygon fill="midnightblue" stroke="midnightblue" points="1338.3,-145.979 1347.37,-140.494 1336.86,-139.129 1338.3,-145.979"/>
</g>
<!-- Node41&#45;&gt;Node26 -->
<g id="edge81" class="edge"><title>Node41&#45;&gt;Node26</title>
<path fill="none" stroke="midnightblue" d="M624.507,-190.376C615.813,-180.795 601.237,-164.239 590,-149 574.911,-128.538 559.482,-103.574 549.831,-87.3726"/>
<polygon fill="midnightblue" stroke="midnightblue" points="552.716,-85.3738 544.623,-78.5356 546.685,-88.9279 552.716,-85.3738"/>
</g>
<!-- Node41&#45;&gt;Node32 -->
<g id="edge83" class="edge"><title>Node41&#45;&gt;Node32</title>
<path fill="none" stroke="midnightblue" d="M621.366,-190.493C593.221,-169.302 516.506,-111.54 480.777,-84.6376"/>
<polygon fill="midnightblue" stroke="midnightblue" points="482.724,-81.723 472.63,-78.5039 478.514,-87.3151 482.724,-81.723"/>
</g>
<!-- Node41&#45;&gt;Node36 -->
<g id="edge85" class="edge"><title>Node41&#45;&gt;Node36</title>
<path fill="none" stroke="midnightblue" d="M677.459,-190.435C689.328,-188.489 702.123,-186.531 714,-185 884.357,-163.034 1086.78,-146.833 1184.48,-139.633"/>
<polygon fill="midnightblue" stroke="midnightblue" points="1185.02,-143.103 1194.74,-138.882 1184.51,-136.121 1185.02,-143.103"/>
</g>
<!-- Node42 -->
<g id="node43" class="node"><title>Node42</title>
<polygon fill="none" stroke="#bfbfbf" points="752.37,-125.5 752.37,-143.5 825.63,-143.5 825.63,-125.5 752.37,-125.5"/>
<text text-anchor="middle" x="789" y="-131.5" font-family="Helvetica,sans-Serif" font-size="10.00">Eigen/Dense</text>
</g>
<!-- Node41&#45;&gt;Node42 -->
<g id="edge84" class="edge"><title>Node41&#45;&gt;Node42</title>
<path fill="none" stroke="midnightblue" d="M652.204,-190.393C679.406,-179.477 728.003,-159.976 759.351,-147.397"/>
<polygon fill="midnightblue" stroke="midnightblue" points="760.897,-150.548 768.874,-143.576 758.29,-144.052 760.897,-150.548"/>
</g>
<!-- Node47&#45;&gt;Node1 -->
<g id="edge91" class="edge"><title>Node47&#45;&gt;Node1</title>
<path fill="none" stroke="midnightblue" d="M983.887,-425.497C1012.63,-411.074 1071.22,-378.072 1105,-334 1120.47,-313.822 1167.29,-137.217 1186,-120 1263.19,-48.959 1598.06,-20.23 1706.78,-12.6671"/>
<polygon fill="midnightblue" stroke="midnightblue" points="1707.13,-16.1515 1716.87,-11.9812 1706.65,-9.16758 1707.13,-16.1515"/>
</g>
<!-- Node47&#45;&gt;Node5 -->
<g id="edge92" class="edge"><title>Node47&#45;&gt;Node5</title>
<path fill="none" stroke="midnightblue" d="M944.47,-425.399C921.292,-416.904 884.262,-402.882 853,-389 835.743,-381.337 833.131,-375.273 815,-370 649.475,-321.866 440.1,-319.074 363.139,-319.877"/>
<polygon fill="midnightblue" stroke="midnightblue" points="362.718,-316.382 352.766,-320.016 362.812,-323.381 362.718,-316.382"/>
</g>
<!-- Node47&#45;&gt;Node8 -->
<g id="edge98" class="edge"><title>Node47&#45;&gt;Node8</title>
<path fill="none" stroke="midnightblue" d="M1052.93,-432.971C1215.3,-430.022 1577.11,-414.117 1869,-334 1905.87,-323.879 1912.88,-314.191 1950,-305 2027.51,-285.807 2118.05,-274.034 2181.56,-267.46"/>
<polygon fill="midnightblue" stroke="midnightblue" points="2181.92,-270.941 2191.52,-266.449 2181.22,-263.977 2181.92,-270.941"/>
</g>
<!-- Node47&#45;&gt;Node15 -->
<g id="edge95" class="edge"><title>Node47&#45;&gt;Node15</title>
<path fill="none" stroke="midnightblue" d="M1052.94,-426.699C1082.7,-420.584 1114.45,-409.371 1138,-389 1212.41,-324.624 1155.95,-256.069 1224,-185 1249.85,-158.004 1268.08,-168.444 1300,-149 1318.14,-137.948 1319.66,-130.725 1338,-120 1364.43,-104.542 1396.6,-91.1072 1420.18,-82.1499"/>
<polygon fill="midnightblue" stroke="midnightblue" points="1421.58,-85.3657 1429.72,-78.5923 1419.13,-78.8068 1421.58,-85.3657"/>
</g>
<!-- Node47&#45;&gt;Node23 -->
<g id="edge94" class="edge"><title>Node47&#45;&gt;Node23</title>
<path fill="none" stroke="midnightblue" d="M895.599,-425.485C824.576,-417.268 712.561,-403.65 616,-389 390.261,-354.75 238.6,-416.435 133,-214 127.039,-202.572 124.543,-194.726 133,-185 174.982,-136.72 379.442,-134.139 456.52,-134.931"/>
<polygon fill="midnightblue" stroke="midnightblue" points="456.476,-138.431 466.521,-135.061 456.567,-131.432 456.476,-138.431"/>
</g>
<!-- Node47&#45;&gt;Node25 -->
<g id="edge97" class="edge"><title>Node47&#45;&gt;Node25</title>
<path fill="none" stroke="midnightblue" d="M906.021,-425.475C770.415,-406.245 450.853,-352.811 388,-269 365.587,-239.113 360.976,-213.608 385,-185 398.097,-169.404 510.005,-153.489 588.837,-144.056"/>
<polygon fill="midnightblue" stroke="midnightblue" points="589.724,-147.475 599.244,-142.825 588.902,-140.524 589.724,-147.475"/>
</g>
<!-- Node47&#45;&gt;Node35 -->
<g id="edge118" class="edge"><title>Node47&#45;&gt;Node35</title>
<path fill="none" stroke="midnightblue" d="M1051.14,-425.479C1162.97,-414.82 1358.12,-396.217 1458.82,-386.618"/>
<polygon fill="midnightblue" stroke="midnightblue" points="1459.23,-390.095 1468.85,-385.661 1458.57,-383.126 1459.23,-390.095"/>
</g>
<!-- Node47&#45;&gt;Node37 -->
<g id="edge99" class="edge"><title>Node47&#45;&gt;Node37</title>
<path fill="none" stroke="midnightblue" d="M881.057,-425.551C827.367,-418.874 764.791,-407.402 745,-389 731.181,-376.152 727.092,-354.217 726.039,-338.633"/>
<polygon fill="midnightblue" stroke="midnightblue" points="729.537,-338.508 725.713,-328.628 722.54,-338.736 729.537,-338.508"/>
</g>
<!-- Node47&#45;&gt;Node40 -->
<g id="edge119" class="edge"><title>Node47&#45;&gt;Node40</title>
<path fill="none" stroke="midnightblue" d="M972.034,-425.373C982.7,-408.156 1007.88,-367.514 1023.57,-342.18"/>
<polygon fill="midnightblue" stroke="midnightblue" points="1026.59,-343.955 1028.88,-333.611 1020.64,-340.269 1026.59,-343.955"/>
</g>
<!-- Node48 -->
<g id="node46" class="node"><title>Node48</title>
<polygon fill="none" stroke="#bfbfbf" points="862.158,-370.5 862.158,-388.5 899.842,-388.5 899.842,-370.5 862.158,-370.5"/>
<text text-anchor="middle" x="881" y="-376.5" font-family="Helvetica,sans-Serif" font-size="10.00">tuple</text>
</g>
<!-- Node47&#45;&gt;Node48 -->
<g id="edge93" class="edge"><title>Node47&#45;&gt;Node48</title>
<path fill="none" stroke="midnightblue" d="M953.938,-425.45C940.426,-417.123 919.084,-403.97 902.97,-394.039"/>
<polygon fill="midnightblue" stroke="midnightblue" points="904.534,-390.892 894.184,-388.625 900.861,-396.851 904.534,-390.892"/>
</g>
<!-- Node49 -->
<g id="node47" class="node"><title>Node49</title>
<polygon fill="none" stroke="#bfbfbf" points="754.488,-370.5 754.488,-388.5 805.512,-388.5 805.512,-370.5 754.488,-370.5"/>
<text text-anchor="middle" x="780" y="-376.5" font-family="Helvetica,sans-Serif" font-size="10.00">typeinfo</text>
</g>
<!-- Node47&#45;&gt;Node49 -->
<g id="edge96" class="edge"><title>Node47&#45;&gt;Node49</title>
<path fill="none" stroke="midnightblue" d="M938.599,-425.45C905.679,-416.12 851.386,-400.732 815.655,-390.606"/>
<polygon fill="midnightblue" stroke="midnightblue" points="816.231,-387.131 805.655,-387.771 814.322,-393.866 816.231,-387.131"/>
</g>
<!-- Node50 -->
<g id="node48" class="node"><title>Node50</title>
<g id="a_node48"><a xlink:href="histogram_8h.html" target="_top" xlink:title="Definitions for Histogram Types. ">
<polygon fill="none" stroke="black" points="830.138,-250.5 830.138,-268.5 957.862,-268.5 957.862,-250.5 830.138,-250.5"/>
<text text-anchor="middle" x="894" y="-256.5" font-family="Helvetica,sans-Serif" font-size="10.00">tomographer/histogram.h</text>
</a>
</g>
</g>
<!-- Node47&#45;&gt;Node50 -->
<g id="edge100" class="edge"><title>Node47&#45;&gt;Node50</title>
<path fill="none" stroke="midnightblue" d="M963.479,-425.156C952.229,-398.495 916.983,-314.967 901.463,-278.186"/>
<polygon fill="midnightblue" stroke="midnightblue" points="904.598,-276.613 897.486,-268.76 898.149,-279.334 904.598,-276.613"/>
</g>
<!-- Node50&#45;&gt;Node2 -->
<g id="edge101" class="edge"><title>Node50&#45;&gt;Node2</title>
<path fill="none" stroke="midnightblue" d="M943.816,-250.496C1019.15,-238.393 1159.93,-215.774 1223.01,-205.64"/>
<polygon fill="midnightblue" stroke="midnightblue" points="1223.83,-209.053 1233.14,-204.011 1222.72,-202.142 1223.83,-209.053"/>
</g>
<!-- Node50&#45;&gt;Node3 -->
<g id="edge102" class="edge"><title>Node50&#45;&gt;Node3</title>
<path fill="none" stroke="midnightblue" d="M829.98,-257.681C719.193,-255.398 496.874,-246.749 427,-214 336.061,-171.378 264.088,-68.1664 238.285,-27.4357"/>
<polygon fill="midnightblue" stroke="midnightblue" points="241.11,-25.3505 232.859,-18.704 235.164,-29.045 241.11,-25.3505"/>
</g>
<!-- Node50&#45;&gt;Node4 -->
<g id="edge109" class="edge"><title>Node50&#45;&gt;Node4</title>
<path fill="none" stroke="midnightblue" d="M830.09,-259.37C708.848,-259.909 437.575,-255.789 214,-214 210.323,-213.313 206.519,-212.411 202.764,-211.399"/>
<polygon fill="midnightblue" stroke="midnightblue" points="203.643,-208.01 193.061,-208.535 201.661,-214.723 203.643,-208.01"/>
</g>
<!-- Node50&#45;&gt;Node7 -->
<g id="edge105" class="edge"><title>Node50&#45;&gt;Node7</title>
<path fill="none" stroke="midnightblue" d="M903.804,-250.324C926.335,-231.571 980.244,-186.916 985,-185 1156.73,-115.818 1219.83,-191.612 1400,-149 1402.35,-148.445 1404.75,-147.758 1407.13,-146.989"/>
<polygon fill="midnightblue" stroke="midnightblue" points="1408.47,-150.224 1416.67,-143.508 1406.07,-143.648 1408.47,-150.224"/>
</g>
<!-- Node50&#45;&gt;Node12 -->
<g id="edge106" class="edge"><title>Node50&#45;&gt;Node12</title>
<path fill="none" stroke="midnightblue" d="M912.823,-250.378C931.079,-242.182 959.273,-228.669 982,-214 999.262,-202.858 998.768,-192.229 1018,-185 1200.79,-116.292 1704.8,-188.667 1896,-149 1898.66,-148.448 1901.38,-147.719 1904.07,-146.883"/>
<polygon fill="midnightblue" stroke="midnightblue" points="1905.28,-150.167 1913.54,-143.524 1902.94,-143.571 1905.28,-150.167"/>
</g>
<!-- Node50&#45;&gt;Node13 -->
<g id="edge104" class="edge"><title>Node50&#45;&gt;Node13</title>
<path fill="none" stroke="midnightblue" d="M957.895,-255.725C1036.12,-251.307 1172.22,-240.301 1286,-214 1370.09,-194.561 1387.93,-178.62 1469,-149 1532.6,-125.763 1606.72,-97.6847 1647.39,-82.1933"/>
<polygon fill="midnightblue" stroke="midnightblue" points="1648.89,-85.3693 1656.98,-78.5366 1646.39,-78.8285 1648.89,-85.3693"/>
</g>
<!-- Node50&#45;&gt;Node15 -->
<g id="edge108" class="edge"><title>Node50&#45;&gt;Node15</title>
<path fill="none" stroke="midnightblue" d="M893.956,-250.312C894.34,-235.135 897.43,-202.583 916,-185 988.158,-116.677 1298.96,-83.6958 1411.84,-73.8074"/>
<polygon fill="midnightblue" stroke="midnightblue" points="1412.15,-77.2932 1421.82,-72.9485 1411.55,-70.319 1412.15,-77.2932"/>
</g>
<!-- Node50&#45;&gt;Node21 -->
<g id="edge114" class="edge"><title>Node50&#45;&gt;Node21</title>
<path fill="none" stroke="midnightblue" d="M957.914,-256.068C1110.42,-250.14 1507.62,-233.955 1839,-214 1876.23,-211.758 1917.67,-208.762 1951.77,-206.162"/>
<polygon fill="midnightblue" stroke="midnightblue" points="1952.41,-209.624 1962.11,-205.369 1951.87,-202.644 1952.41,-209.624"/>
</g>
<!-- Node50&#45;&gt;Node23 -->
<g id="edge103" class="edge"><title>Node50&#45;&gt;Node23</title>
<path fill="none" stroke="midnightblue" d="M829.825,-255.755C744.1,-251.148 597.597,-239.705 551,-214 525.26,-199.8 505.553,-170.969 494.889,-152.477"/>
<polygon fill="midnightblue" stroke="midnightblue" points="497.922,-150.728 490.034,-143.655 491.789,-154.103 497.922,-150.728"/>
</g>
<!-- Node50&#45;&gt;Node25 -->
<g id="edge116" class="edge"><title>Node50&#45;&gt;Node25</title>
<path fill="none" stroke="midnightblue" d="M888.89,-250.341C878.998,-235.21 855.745,-202.733 828,-185 797.317,-165.39 758.391,-153.145 726.5,-145.741"/>
<polygon fill="midnightblue" stroke="midnightblue" points="726.933,-142.252 716.412,-143.503 725.417,-149.086 726.933,-142.252"/>
</g>
<!-- Node50&#45;&gt;Node28 -->
<g id="edge107" class="edge"><title>Node50&#45;&gt;Node28</title>
<path fill="none" stroke="midnightblue" d="M829.743,-257.027C727.804,-253.808 534.284,-243.855 473,-214 413.07,-184.805 364.778,-118.561 344.43,-87.3563"/>
<polygon fill="midnightblue" stroke="midnightblue" points="347.147,-85.106 338.826,-78.5473 341.241,-88.8633 347.147,-85.106"/>
</g>
<!-- Node50&#45;&gt;Node32 -->
<g id="edge113" class="edge"><title>Node50&#45;&gt;Node32</title>
<path fill="none" stroke="midnightblue" d="M830.098,-256.585C736.463,-252.85 567.313,-242.307 514,-214 480.321,-196.118 471.275,-184.746 458,-149 450.666,-129.252 453.632,-104.775 457.142,-88.4539"/>
<polygon fill="midnightblue" stroke="midnightblue" points="460.572,-89.1604 459.54,-78.6161 453.771,-87.5031 460.572,-89.1604"/>
</g>
<!-- Node50&#45;&gt;Node33 -->
<g id="edge117" class="edge"><title>Node50&#45;&gt;Node33</title>
<path fill="none" stroke="midnightblue" d="M958.02,-255.873C1084.38,-250.398 1374.72,-236.384 1618,-214 1630.98,-212.806 1644.79,-211.299 1658.08,-209.727"/>
<polygon fill="midnightblue" stroke="midnightblue" points="1658.62,-213.189 1668.13,-208.518 1657.78,-206.239 1658.62,-213.189"/>
</g>
<!-- Node50&#45;&gt;Node36 -->
<g id="edge111" class="edge"><title>Node50&#45;&gt;Node36</title>
<path fill="none" stroke="midnightblue" d="M897.258,-250.489C904.006,-235.01 921.075,-201.105 947,-185 985.73,-160.94 1109.85,-146.642 1184.51,-140.003"/>
<polygon fill="midnightblue" stroke="midnightblue" points="1185.04,-143.47 1194.7,-139.117 1184.43,-136.497 1185.04,-143.47"/>
</g>
<!-- Node50&#45;&gt;Node41 -->
<g id="edge115" class="edge"><title>Node50&#45;&gt;Node41</title>
<path fill="none" stroke="midnightblue" d="M857.845,-250.496C810.994,-240.125 729.258,-222.03 678.025,-210.689"/>
<polygon fill="midnightblue" stroke="midnightblue" points="678.724,-207.259 668.204,-208.515 677.211,-214.093 678.724,-207.259"/>
</g>
<!-- Node50&#45;&gt;Node46 -->
<g id="edge110" class="edge"><title>Node50&#45;&gt;Node46</title>
<path fill="none" stroke="midnightblue" d="M920.28,-250.435C948.743,-241.701 994.885,-227.54 1030.78,-216.526"/>
<polygon fill="midnightblue" stroke="midnightblue" points="1032.07,-219.789 1040.61,-213.51 1030.02,-213.097 1032.07,-219.789"/>
</g>
<!-- Node51 -->
<g id="node49" class="node"><title>Node51</title>
<polygon fill="none" stroke="#bfbfbf" points="722.978,-185.5 722.978,-213.5 819.022,-213.5 819.022,-185.5 722.978,-185.5"/>
<text text-anchor="start" x="730.978" y="-201.5" font-family="Helvetica,sans-Serif" font-size="10.00">boost/serialization</text>
<text text-anchor="middle" x="771" y="-191.5" font-family="Helvetica,sans-Serif" font-size="10.00">/base_object.hpp</text>
</g>
<!-- Node50&#45;&gt;Node51 -->
<g id="edge112" class="edge"><title>Node50&#45;&gt;Node51</title>
<path fill="none" stroke="midnightblue" d="M876.897,-250.435C859.144,-242.064 830.823,-228.709 807.934,-217.916"/>
<polygon fill="midnightblue" stroke="midnightblue" points="809.362,-214.72 798.824,-213.62 806.376,-221.051 809.362,-214.72"/>
</g>
<!-- Node52&#45;&gt;Node1 -->
<g id="edge121" class="edge"><title>Node52&#45;&gt;Node1</title>
<path fill="none" stroke="midnightblue" d="M1526.2,-483.125C1676.55,-476.181 1914.44,-462.722 2002,-444 2295.12,-381.323 2463.94,-459.447 2636,-214 2664.28,-173.654 2589.62,-123.022 2585,-120 2448.08,-30.4047 1916.35,-13.877 1775.43,-11.0488"/>
<polygon fill="midnightblue" stroke="midnightblue" points="1775.29,-7.54564 1765.23,-10.8546 1775.16,-14.5444 1775.29,-7.54564"/>
</g>
<!-- Node52&#45;&gt;Node2 -->
<g id="edge122" class="edge"><title>Node52&#45;&gt;Node2</title>
<path fill="none" stroke="midnightblue" d="M1392.08,-480.497C1373.07,-441.664 1290.26,-272.514 1263.42,-217.707"/>
<polygon fill="midnightblue" stroke="midnightblue" points="1266.51,-216.044 1258.97,-208.601 1260.22,-219.122 1266.51,-216.044"/>
</g>
<!-- Node52&#45;&gt;Node3 -->
<g id="edge123" class="edge"><title>Node52&#45;&gt;Node3</title>
<path fill="none" stroke="midnightblue" d="M1265.74,-488.96C1077.79,-488.177 719.95,-481.271 418,-444 277.124,-426.611 105,-522.445 105,-380.5 105,-380.5 105,-380.5 105,-318.5 105,-258.569 104.047,-241.512 124,-185 146.346,-121.711 192.944,-56.0825 215.386,-26.5702"/>
<polygon fill="midnightblue" stroke="midnightblue" points="218.187,-28.6696 221.521,-18.6132 212.643,-24.3951 218.187,-28.6696"/>
</g>
<!-- Node52&#45;&gt;Node4 -->
<g id="edge124" class="edge"><title>Node52&#45;&gt;Node4</title>
<path fill="none" stroke="midnightblue" d="M1265.9,-485.926C1057.98,-481.13 660.045,-468.966 521,-444 440.755,-429.592 414.923,-432.549 346,-389 270.802,-341.485 206.672,-253.783 181.917,-217.204"/>
<polygon fill="midnightblue" stroke="midnightblue" points="184.7,-215.07 176.243,-208.688 178.875,-218.951 184.7,-215.07"/>
</g>
<!-- Node52&#45;&gt;Node5 -->
<g id="edge125" class="edge"><title>Node52&#45;&gt;Node5</title>
<path fill="none" stroke="midnightblue" d="M1265.63,-483.081C1004.91,-471.215 437.989,-439.859 366,-389 349.356,-377.242 340.786,-354.755 336.604,-338.755"/>
<polygon fill="midnightblue" stroke="midnightblue" points="339.999,-337.898 334.365,-328.926 333.173,-339.453 339.999,-337.898"/>
</g>
<!-- Node52&#45;&gt;Node6 -->
<g id="edge126" class="edge"><title>Node52&#45;&gt;Node6</title>
<path fill="none" stroke="midnightblue" d="M1524.52,-480.487C1621.21,-473.264 1744.99,-461.134 1793,-444 1864.05,-418.644 1935.42,-362.356 1967.07,-335.423"/>
<polygon fill="midnightblue" stroke="midnightblue" points="1969.63,-337.839 1974.91,-328.655 1965.05,-332.54 1969.63,-337.839"/>
</g>
<!-- Node52&#45;&gt;Node7 -->
<g id="edge127" class="edge"><title>Node52&#45;&gt;Node7</title>
<path fill="none" stroke="midnightblue" d="M1396.87,-480.464C1401.66,-435.926 1425.01,-219.041 1432.01,-153.983"/>
<polygon fill="midnightblue" stroke="midnightblue" points="1435.53,-153.995 1433.12,-143.678 1428.57,-153.246 1435.53,-153.995"/>
</g>
<!-- Node52&#45;&gt;Node8 -->
<g id="edge128" class="edge"><title>Node52&#45;&gt;Node8</title>
<path fill="none" stroke="midnightblue" d="M1526.28,-485.585C1669.48,-481.111 1889.76,-470.13 1969,-444 2028.67,-424.326 2186.68,-314.118 2242.3,-274.602"/>
<polygon fill="midnightblue" stroke="midnightblue" points="2244.49,-277.341 2250.6,-268.687 2240.42,-271.64 2244.49,-277.341"/>
</g>
<!-- Node52&#45;&gt;Node21 -->
<g id="edge129" class="edge"><title>Node52&#45;&gt;Node21</title>
<path fill="none" stroke="midnightblue" d="M1526.01,-481.058C1632.32,-473.874 1773.63,-461.502 1828,-444 1920.88,-414.098 1967.88,-417.721 2018,-334 2039.58,-297.956 2033.12,-246.088 2027.5,-218.83"/>
<polygon fill="midnightblue" stroke="midnightblue" points="2030.85,-217.755 2025.23,-208.773 2024.02,-219.299 2030.85,-217.755"/>
</g>
<!-- Node52&#45;&gt;Node25 -->
<g id="edge130" class="edge"><title>Node52&#45;&gt;Node25</title>
<path fill="none" stroke="midnightblue" d="M1354.05,-480.44C1262.58,-461.979 1039.48,-412.11 866,-334 843.963,-324.077 842.709,-313.271 820,-305 709.144,-264.627 653.159,-337.355 557,-269 524.925,-246.2 506.353,-217.183 529,-185 543.034,-165.056 565.894,-153.107 589.007,-145.962"/>
<polygon fill="midnightblue" stroke="midnightblue" points="590.221,-149.257 598.903,-143.185 588.33,-142.517 590.221,-149.257"/>
</g>
<!-- Node52&#45;&gt;Node33 -->
<g id="edge131" class="edge"><title>Node52&#45;&gt;Node33</title>
<path fill="none" stroke="midnightblue" d="M1418.7,-480.418C1456.41,-466.208 1533.06,-433.939 1586,-389 1647.41,-336.875 1698.24,-253.643 1718.53,-217.82"/>
<polygon fill="midnightblue" stroke="midnightblue" points="1721.82,-219.113 1723.62,-208.673 1715.7,-215.706 1721.82,-219.113"/>
</g>
<!-- Node52&#45;&gt;Node35 -->
<g id="edge132" class="edge"><title>Node52&#45;&gt;Node35</title>
<path fill="none" stroke="midnightblue" d="M1405.55,-480.382C1426.78,-462.322 1478.21,-418.591 1505.43,-395.445"/>
<polygon fill="midnightblue" stroke="midnightblue" points="1507.99,-397.856 1513.34,-388.712 1503.46,-392.524 1507.99,-397.856"/>
</g>
<!-- Node52&#45;&gt;Node47 -->
<g id="edge133" class="edge"><title>Node52&#45;&gt;Node47</title>
<path fill="none" stroke="midnightblue" d="M1330.84,-480.45C1253.21,-470.86 1123.78,-454.869 1042.04,-444.77"/>
<polygon fill="midnightblue" stroke="midnightblue" points="1042.42,-441.291 1032.06,-443.538 1041.56,-448.238 1042.42,-441.291"/>
</g>
</g>
</svg>
