<?xml version="1.0" encoding="UTF-8" standalone="no"?>
<!DOCTYPE svg PUBLIC "-//W3C//DTD SVG 1.1//EN"
 "http://www.w3.org/Graphics/SVG/1.1/DTD/svg11.dtd">
<!-- Generated by graphviz version 2.38.0 (20140413.2041)
 -->
<!-- Title: tomographer/mhrw.h Pages: 1 -->
<svg width="1997pt" height="397pt"
 viewBox="0.00 0.00 1997.50 397.00" xmlns="http://www.w3.org/2000/svg" xmlns:xlink="http://www.w3.org/1999/xlink">
<g id="graph0" class="graph" transform="scale(1 1) rotate(0) translate(4 393)">
<title>tomographer/mhrw.h</title>
<!-- Node0 -->
<g id="node1" class="node"><title>Node0</title>
<polygon fill="#bfbfbf" stroke="black" points="446.653,-370.5 446.653,-388.5 554.367,-388.5 554.367,-370.5 446.653,-370.5"/>
<text text-anchor="middle" x="500.51" y="-376.5" font-family="Helvetica,sans-Serif" font-size="10.00">tomographer/mhrw.h</text>
</g>
<!-- Node1 -->
<g id="node2" class="node"><title>Node1</title>
<polygon fill="none" stroke="#bfbfbf" points="1180.39,-0.5 1180.39,-18.5 1228.63,-18.5 1228.63,-0.5 1180.39,-0.5"/>
<text text-anchor="middle" x="1204.51" y="-6.5" font-family="Helvetica,sans-Serif" font-size="10.00">cstddef</text>
</g>
<!-- Node0&#45;&gt;Node1 -->
<g id="edge1" class="edge"><title>Node0&#45;&gt;Node1</title>
<path fill="none" stroke="midnightblue" d="M554.452,-378.744C701.163,-377.963 1096.51,-365.643 1096.51,-255.5 1096.51,-255.5 1096.51,-255.5 1096.51,-188.5 1096.51,-129.032 1071.55,-103.816 1105.51,-55 1120.35,-33.6712 1147.92,-22.4088 1170.21,-16.5565"/>
<polygon fill="midnightblue" stroke="midnightblue" points="1171.09,-19.9449 1180.01,-14.2316 1169.47,-13.1338 1171.09,-19.9449"/>
</g>
<!-- Node2 -->
<g id="node3" class="node"><title>Node2</title>
<polygon fill="none" stroke="#bfbfbf" points="147.894,-310.5 147.894,-328.5 191.125,-328.5 191.125,-310.5 147.894,-310.5"/>
<text text-anchor="middle" x="169.51" y="-316.5" font-family="Helvetica,sans-Serif" font-size="10.00">cmath</text>
</g>
<!-- Node0&#45;&gt;Node2 -->
<g id="edge2" class="edge"><title>Node0&#45;&gt;Node2</title>
<path fill="none" stroke="midnightblue" d="M446.5,-374.792C385.731,-369.635 284.535,-358.07 200.51,-334 198.842,-333.522 197.145,-332.975 195.449,-332.38"/>
<polygon fill="midnightblue" stroke="midnightblue" points="196.531,-329.044 185.945,-328.614 193.952,-335.551 196.531,-329.044"/>
</g>
<!-- Node3 -->
<g id="node4" class="node"><title>Node3</title>
<polygon fill="none" stroke="#bfbfbf" points="209.123,-310.5 209.123,-328.5 247.896,-328.5 247.896,-310.5 209.123,-310.5"/>
<text text-anchor="middle" x="228.51" y="-316.5" font-family="Helvetica,sans-Serif" font-size="10.00">limits</text>
</g>
<!-- Node0&#45;&gt;Node3 -->
<g id="edge3" class="edge"><title>Node0&#45;&gt;Node3</title>
<path fill="none" stroke="midnightblue" d="M446.173,-372.836C396.034,-366.621 319.972,-354.667 256.51,-334 255.269,-333.596 254.012,-333.147 252.754,-332.667"/>
<polygon fill="midnightblue" stroke="midnightblue" points="253.88,-329.34 243.315,-328.552 251.083,-335.757 253.88,-329.34"/>
</g>
<!-- Node4 -->
<g id="node5" class="node"><title>Node4</title>
<polygon fill="none" stroke="#bfbfbf" points="265.557,-310.5 265.557,-328.5 315.463,-328.5 315.463,-310.5 265.557,-310.5"/>
<text text-anchor="middle" x="290.51" y="-316.5" font-family="Helvetica,sans-Serif" font-size="10.00">random</text>
</g>
<!-- Node0&#45;&gt;Node4 -->
<g id="edge4" class="edge"><title>Node0&#45;&gt;Node4</title>
<path fill="none" stroke="midnightblue" d="M466.547,-370.497C431.884,-362.134 376.634,-348.264 329.51,-334 327.195,-333.299 324.813,-332.549 322.422,-331.774"/>
<polygon fill="midnightblue" stroke="midnightblue" points="323.279,-328.37 312.685,-328.514 321.057,-335.008 323.279,-328.37"/>
</g>
<!-- Node5 -->
<g id="node6" class="node"><title>Node5</title>
<polygon fill="none" stroke="#bfbfbf" points="288.729,-120.5 288.729,-138.5 340.291,-138.5 340.291,-120.5 288.729,-120.5"/>
<text text-anchor="middle" x="314.51" y="-126.5" font-family="Helvetica,sans-Serif" font-size="10.00">sstream</text>
</g>
<!-- Node0&#45;&gt;Node5 -->
<g id="edge5" class="edge"><title>Node0&#45;&gt;Node5</title>
<path fill="none" stroke="midnightblue" d="M487.332,-370.347C443.128,-342.687 301.596,-251.51 278.51,-204 272.877,-192.407 274.21,-187.151 278.51,-175 282.438,-163.899 290.443,-153.54 297.909,-145.615"/>
<polygon fill="midnightblue" stroke="midnightblue" points="300.385,-148.089 305.025,-138.564 295.458,-143.117 300.385,-148.089"/>
</g>
<!-- Node6 -->
<g id="node7" class="node"><title>Node6</title>
<polygon fill="none" stroke="#bfbfbf" points="0,-120.5 0,-138.5 51.0195,-138.5 51.0195,-120.5 0,-120.5"/>
<text text-anchor="middle" x="25.5098" y="-126.5" font-family="Helvetica,sans-Serif" font-size="10.00">iomanip</text>
</g>
<!-- Node0&#45;&gt;Node6 -->
<g id="edge6" class="edge"><title>Node0&#45;&gt;Node6</title>
<path fill="none" stroke="midnightblue" d="M446.491,-377.756C358.131,-375.583 187.602,-367.092 138.51,-334 71.4311,-288.784 40.1633,-189.852 29.7168,-148.857"/>
<polygon fill="midnightblue" stroke="midnightblue" points="33.0665,-147.819 27.31,-138.924 26.2633,-149.467 33.0665,-147.819"/>
</g>
<!-- Node7 -->
<g id="node8" class="node"><title>Node7</title>
<polygon fill="none" stroke="#bfbfbf" points="1114.44,-60.5 1114.44,-78.5 1176.58,-78.5 1176.58,-60.5 1114.44,-60.5"/>
<text text-anchor="middle" x="1145.51" y="-66.5" font-family="Helvetica,sans-Serif" font-size="10.00">type_traits</text>
</g>
<!-- Node0&#45;&gt;Node7 -->
<g id="edge7" class="edge"><title>Node0&#45;&gt;Node7</title>
<path fill="none" stroke="midnightblue" d="M554.534,-377.997C695.684,-376.205 1067.58,-368.251 1110.51,-334 1139.03,-311.246 1134.51,-291.983 1134.51,-255.5 1134.51,-255.5 1134.51,-255.5 1134.51,-188.5 1134.51,-153.122 1139.47,-112.033 1142.73,-88.8664"/>
<polygon fill="midnightblue" stroke="midnightblue" points="1146.22,-89.1736 1144.2,-78.7729 1139.3,-88.1623 1146.22,-89.1736"/>
</g>
<!-- Node8 -->
<g id="node9" class="node"><title>Node8</title>
<polygon fill="none" stroke="#bfbfbf" points="287.488,-175.5 287.488,-203.5 383.532,-203.5 383.532,-175.5 287.488,-175.5"/>
<text text-anchor="start" x="295.488" y="-191.5" font-family="Helvetica,sans-Serif" font-size="10.00">boost/serialization</text>
<text text-anchor="middle" x="335.51" y="-181.5" font-family="Helvetica,sans-Serif" font-size="10.00">/serialization.hpp</text>
</g>
<!-- Node0&#45;&gt;Node8 -->
<g id="edge8" class="edge"><title>Node0&#45;&gt;Node8</title>
<path fill="none" stroke="midnightblue" d="M495.403,-370.494C481.123,-348.413 438.967,-285.282 395.51,-240 385.153,-229.208 372.526,-218.488 361.532,-209.798"/>
<polygon fill="midnightblue" stroke="midnightblue" points="363.556,-206.939 353.508,-203.581 359.269,-212.473 363.556,-206.939"/>
</g>
<!-- Node9 -->
<g id="node10" class="node"><title>Node9</title>
<g id="a_node10"><a xlink:href="loggers_8h.html" target="_top" xlink:title="Utilities for logging messages. ">
<polygon fill="none" stroke="black" points="652.251,-245.5 652.251,-263.5 792.768,-263.5 792.768,-245.5 652.251,-245.5"/>
<text text-anchor="middle" x="722.51" y="-251.5" font-family="Helvetica,sans-Serif" font-size="10.00">tomographer/tools/loggers.h</text>
</a>
</g>
</g>
<!-- Node0&#45;&gt;Node9 -->
<g id="edge9" class="edge"><title>Node0&#45;&gt;Node9</title>
<path fill="none" stroke="midnightblue" d="M515.076,-370.43C552.63,-349.623 653.004,-294.01 698.953,-268.552"/>
<polygon fill="midnightblue" stroke="midnightblue" points="700.839,-271.508 707.89,-263.6 697.447,-265.385 700.839,-271.508"/>
</g>
<!-- Node21 -->
<g id="node22" class="node"><title>Node21</title>
<g id="a_node22"><a xlink:href="fmt_8h.html" target="_top" xlink:title="Utilities for formatting strings. ">
<polygon fill="none" stroke="black" points="439.707,-180.5 439.707,-198.5 561.312,-198.5 561.312,-180.5 439.707,-180.5"/>
<text text-anchor="middle" x="500.51" y="-186.5" font-family="Helvetica,sans-Serif" font-size="10.00">tomographer/tools/fmt.h</text>
</a>
</g>
</g>
<!-- Node0&#45;&gt;Node21 -->
<g id="edge51" class="edge"><title>Node0&#45;&gt;Node21</title>
<path fill="none" stroke="midnightblue" d="M500.51,-370.422C500.51,-342.404 500.51,-248.941 500.51,-208.931"/>
<polygon fill="midnightblue" stroke="midnightblue" points="504.01,-208.76 500.51,-198.76 497.01,-208.76 504.01,-208.76"/>
</g>
<!-- Node25 -->
<g id="node26" class="node"><title>Node25</title>
<g id="a_node26"><a xlink:href="cxxutil_8h.html" target="_top" xlink:title="Some C++ utilities, with a tad of C++11 tricks. ">
<polygon fill="none" stroke="black" points="1344.76,-120.5 1344.76,-138.5 1480.26,-138.5 1480.26,-120.5 1344.76,-120.5"/>
<text text-anchor="middle" x="1412.51" y="-126.5" font-family="Helvetica,sans-Serif" font-size="10.00">tomographer/tools/cxxutil.h</text>
</a>
</g>
</g>
<!-- Node0&#45;&gt;Node25 -->
<g id="edge52" class="edge"><title>Node0&#45;&gt;Node25</title>
<path fill="none" stroke="midnightblue" d="M554.564,-378.569C694.516,-378.175 1065.83,-373.34 1181.51,-334 1279.77,-300.582 1306.81,-281.798 1375.51,-204 1390.11,-187.469 1400.55,-164.148 1406.55,-148.237"/>
<polygon fill="midnightblue" stroke="midnightblue" points="1409.93,-149.175 1409.98,-138.58 1403.33,-146.829 1409.93,-149.175"/>
</g>
<!-- Node33 -->
<g id="node34" class="node"><title>Node33</title>
<g id="a_node34"><a xlink:href="statusprovider_8h_source.html" target="_top" xlink:title="tomographer/tools/statusprovider.h">
<polygon fill="none" stroke="black" points="1819.52,-245.5 1819.52,-263.5 1989.5,-263.5 1989.5,-245.5 1819.52,-245.5"/>
<text text-anchor="middle" x="1904.51" y="-251.5" font-family="Helvetica,sans-Serif" font-size="10.00">tomographer/tools/statusprovider.h</text>
</a>
</g>
</g>
<!-- Node0&#45;&gt;Node33 -->
<g id="edge53" class="edge"><title>Node0&#45;&gt;Node33</title>
<path fill="none" stroke="midnightblue" d="M554.394,-377.463C740.292,-373.689 1354.08,-359.552 1549.51,-334 1666.55,-318.698 1802.02,-283.866 1866.55,-266.2"/>
<polygon fill="midnightblue" stroke="midnightblue" points="1867.57,-269.549 1876.28,-263.518 1865.71,-262.8 1867.57,-269.549"/>
</g>
<!-- Node34 -->
<g id="node35" class="node"><title>Node34</title>
<g id="a_node35"><a xlink:href="multiproc_8h.html" target="_top" xlink:title="Some common definitions for multiprocessing interfaces. ">
<polygon fill="none" stroke="black" points="173.318,-245.5 173.318,-263.5 297.702,-263.5 297.702,-245.5 173.318,-245.5"/>
<text text-anchor="middle" x="235.51" y="-251.5" font-family="Helvetica,sans-Serif" font-size="10.00">tomographer/multiproc.h</text>
</a>
</g>
</g>
<!-- Node0&#45;&gt;Node34 -->
<g id="edge55" class="edge"><title>Node0&#45;&gt;Node34</title>
<path fill="none" stroke="midnightblue" d="M468.656,-370.464C441.1,-362.904 400.594,-350.314 367.51,-334 346.835,-323.805 344.156,-317.058 324.51,-305 303.15,-291.891 278.157,-278.122 260.104,-268.444"/>
<polygon fill="midnightblue" stroke="midnightblue" points="261.327,-265.13 250.855,-263.518 258.036,-271.308 261.327,-265.13"/>
</g>
<!-- Node36 -->
<g id="node37" class="node"><title>Node36</title>
<g id="a_node37"><a xlink:href="needownoperatornew_8h.html" target="_top" xlink:title="Managing the need for specific overrides to operator new() for some types (especially Eigen types) ...">
<polygon fill="none" stroke="black" points="1162.83,-180.5 1162.83,-198.5 1366.19,-198.5 1366.19,-180.5 1162.83,-180.5"/>
<text text-anchor="middle" x="1264.51" y="-186.5" font-family="Helvetica,sans-Serif" font-size="10.00">tomographer/tools/needownoperatornew.h</text>
</a>
</g>
</g>
<!-- Node0&#45;&gt;Node36 -->
<g id="edge80" class="edge"><title>Node0&#45;&gt;Node36</title>
<path fill="none" stroke="midnightblue" d="M554.561,-377.255C700.747,-373.542 1096.46,-361.082 1148.51,-334 1202.89,-305.703 1240.79,-239.524 1256.46,-207.911"/>
<polygon fill="midnightblue" stroke="midnightblue" points="1259.75,-209.15 1260.91,-198.62 1253.44,-206.125 1259.75,-209.15"/>
</g>
<!-- Node38 -->
<g id="node39" class="node"><title>Node38</title>
<g id="a_node39"><a xlink:href="mhrw__bin__err_8h.html" target="_top" xlink:title="Binning Analysis in a Metropolis&#45;Hastings random walk. ">
<polygon fill="none" stroke="black" points="1422.1,-305.5 1422.1,-333.5 1540.92,-333.5 1540.92,-305.5 1422.1,-305.5"/>
<text text-anchor="start" x="1430.1" y="-321.5" font-family="Helvetica,sans-Serif" font-size="10.00">tomographer/mhrw_bin</text>
<text text-anchor="middle" x="1481.51" y="-311.5" font-family="Helvetica,sans-Serif" font-size="10.00">_err.h</text>
</a>
</g>
</g>
<!-- Node0&#45;&gt;Node38 -->
<g id="edge66" class="edge"><title>Node0&#45;&gt;Node38</title>
<path fill="none" stroke="midnightblue" d="M554.446,-378.371C695.359,-377.489 1085.96,-371.558 1408.51,-334 1409.6,-333.873 1410.69,-333.74 1411.8,-333.601"/>
<polygon fill="midnightblue" stroke="midnightblue" points="1412.43,-337.047 1421.85,-332.205 1411.46,-330.114 1412.43,-337.047"/>
</g>
<!-- Node9&#45;&gt;Node5 -->
<g id="edge13" class="edge"><title>Node9&#45;&gt;Node5</title>
<path fill="none" stroke="midnightblue" d="M651.98,-251.008C591.103,-246.68 501.955,-235.043 430.51,-204 411.024,-195.533 410.22,-186.734 392.51,-175 375.182,-163.519 354.746,-151.926 339.139,-143.453"/>
<polygon fill="midnightblue" stroke="midnightblue" points="340.583,-140.255 330.117,-138.608 337.272,-146.423 340.583,-140.255"/>
</g>
<!-- Node9&#45;&gt;Node7 -->
<g id="edge16" class="edge"><title>Node9&#45;&gt;Node7</title>
<path fill="none" stroke="midnightblue" d="M792.99,-250.993C866.744,-246.711 975.399,-235.151 1001.51,-204 1009.79,-194.122 1005.24,-187.336 1001.51,-175 993.781,-149.474 961.537,-141.358 977.51,-120 992.715,-99.6686 1059.57,-84.7992 1104.22,-76.9172"/>
<polygon fill="midnightblue" stroke="midnightblue" points="1104.95,-80.3431 1114.21,-75.2032 1103.77,-73.4438 1104.95,-80.3431"/>
</g>
<!-- Node10 -->
<g id="node11" class="node"><title>Node10</title>
<polygon fill="none" stroke="#bfbfbf" points="490.448,-120.5 490.448,-138.5 532.571,-138.5 532.571,-120.5 490.448,-120.5"/>
<text text-anchor="middle" x="511.51" y="-126.5" font-family="Helvetica,sans-Serif" font-size="10.00">cstdio</text>
</g>
<!-- Node9&#45;&gt;Node10 -->
<g id="edge10" class="edge"><title>Node9&#45;&gt;Node10</title>
<path fill="none" stroke="midnightblue" d="M705.806,-245.332C686.65,-235.843 654.423,-219.501 627.51,-204 593.373,-184.338 554.978,-159.438 532.042,-144.252"/>
<polygon fill="midnightblue" stroke="midnightblue" points="533.759,-141.191 523.494,-138.568 529.883,-147.019 533.759,-141.191"/>
</g>
<!-- Node11 -->
<g id="node12" class="node"><title>Node11</title>
<polygon fill="none" stroke="#bfbfbf" points="550.113,-120.5 550.113,-138.5 598.906,-138.5 598.906,-120.5 550.113,-120.5"/>
<text text-anchor="middle" x="574.51" y="-126.5" font-family="Helvetica,sans-Serif" font-size="10.00">cstdarg</text>
</g>
<!-- Node9&#45;&gt;Node11 -->
<g id="edge11" class="edge"><title>Node9&#45;&gt;Node11</title>
<path fill="none" stroke="midnightblue" d="M712.799,-245.43C688.346,-225.107 623.938,-171.579 592.41,-145.377"/>
<polygon fill="midnightblue" stroke="midnightblue" points="594.378,-142.461 584.45,-138.761 589.904,-147.845 594.378,-142.461"/>
</g>
<!-- Node12 -->
<g id="node13" class="node"><title>Node12</title>
<polygon fill="none" stroke="#bfbfbf" points="515.283,-0.5 515.283,-18.5 555.736,-18.5 555.736,-0.5 515.283,-0.5"/>
<text text-anchor="middle" x="535.51" y="-6.5" font-family="Helvetica,sans-Serif" font-size="10.00">string</text>
</g>
<!-- Node9&#45;&gt;Node12 -->
<g id="edge12" class="edge"><title>Node9&#45;&gt;Node12</title>
<path fill="none" stroke="midnightblue" d="M721.994,-245.202C720.25,-222.968 712.97,-160.967 684.51,-120 652.836,-74.408 595.964,-40.4456 562.39,-23.205"/>
<polygon fill="midnightblue" stroke="midnightblue" points="563.684,-19.9389 553.175,-18.5932 560.551,-26.1987 563.684,-19.9389"/>
</g>
<!-- Node13 -->
<g id="node14" class="node"><title>Node13</title>
<polygon fill="none" stroke="#bfbfbf" points="731.337,-60.5 731.337,-78.5 785.682,-78.5 785.682,-60.5 731.337,-60.5"/>
<text text-anchor="middle" x="758.51" y="-66.5" font-family="Helvetica,sans-Serif" font-size="10.00">iostream</text>
</g>
<!-- Node9&#45;&gt;Node13 -->
<g id="edge14" class="edge"><title>Node9&#45;&gt;Node13</title>
<path fill="none" stroke="midnightblue" d="M724.15,-245.161C729.609,-217.414 747.246,-127.757 754.905,-88.8256"/>
<polygon fill="midnightblue" stroke="midnightblue" points="758.364,-89.3752 756.86,-78.8876 751.495,-88.024 758.364,-89.3752"/>
</g>
<!-- Node14 -->
<g id="node15" class="node"><title>Node14</title>
<polygon fill="none" stroke="#bfbfbf" points="617.106,-120.5 617.106,-138.5 675.914,-138.5 675.914,-120.5 617.106,-120.5"/>
<text text-anchor="middle" x="646.51" y="-126.5" font-family="Helvetica,sans-Serif" font-size="10.00">functional</text>
</g>
<!-- Node9&#45;&gt;Node14 -->
<g id="edge15" class="edge"><title>Node9&#45;&gt;Node14</title>
<path fill="none" stroke="midnightblue" d="M716.753,-245.19C710.045,-235.433 698.707,-218.714 689.51,-204 677.667,-185.055 664.822,-162.863 656.284,-147.861"/>
<polygon fill="midnightblue" stroke="midnightblue" points="659.099,-145.729 651.127,-138.751 653.008,-149.178 659.099,-145.729"/>
</g>
<!-- Node15 -->
<g id="node16" class="node"><title>Node15</title>
<polygon fill="none" stroke="#bfbfbf" points="807.783,-180.5 807.783,-198.5 843.236,-198.5 843.236,-180.5 807.783,-180.5"/>
<text text-anchor="middle" x="825.51" y="-186.5" font-family="Helvetica,sans-Serif" font-size="10.00">map</text>
</g>
<!-- Node9&#45;&gt;Node15 -->
<g id="edge17" class="edge"><title>Node9&#45;&gt;Node15</title>
<path fill="none" stroke="midnightblue" d="M735.975,-245.264C753.188,-234.736 783.208,-216.374 803.701,-203.839"/>
<polygon fill="midnightblue" stroke="midnightblue" points="805.662,-206.743 812.367,-198.539 802.01,-200.771 805.662,-206.743"/>
</g>
<!-- Node16 -->
<g id="node17" class="node"><title>Node16</title>
<polygon fill="none" stroke="#bfbfbf" points="860.978,-180.5 860.978,-198.5 992.042,-198.5 992.042,-180.5 860.978,-180.5"/>
<text text-anchor="middle" x="926.51" y="-186.5" font-family="Helvetica,sans-Serif" font-size="10.00">boost/algorithm/string.hpp</text>
</g>
<!-- Node9&#45;&gt;Node16 -->
<g id="edge18" class="edge"><title>Node9&#45;&gt;Node16</title>
<path fill="none" stroke="midnightblue" d="M748.762,-245.393C784.872,-234.241 850,-214.128 890.598,-201.59"/>
<polygon fill="midnightblue" stroke="midnightblue" points="891.837,-204.871 900.359,-198.576 889.771,-198.183 891.837,-204.871"/>
</g>
<!-- Node17 -->
<g id="node18" class="node"><title>Node17</title>
<g id="a_node18"><a xlink:href="cxxdefs_8h.html" target="_top" xlink:title="Basic definitions, which may have to be defined before any Eigen headers or further utilities are inc...">
<polygon fill="none" stroke="black" points="1232.7,-60.5 1232.7,-78.5 1374.32,-78.5 1374.32,-60.5 1232.7,-60.5"/>
<text text-anchor="middle" x="1303.51" y="-66.5" font-family="Helvetica,sans-Serif" font-size="10.00">tomographer/tools/cxxdefs.h</text>
</a>
</g>
</g>
<!-- Node9&#45;&gt;Node17 -->
<g id="edge19" class="edge"><title>Node9&#45;&gt;Node17</title>
<path fill="none" stroke="midnightblue" d="M792.836,-247.188C853.611,-240.453 943.268,-227.43 1018.51,-204 1121,-172.084 1234.04,-110.529 1281.07,-83.624"/>
<polygon fill="midnightblue" stroke="midnightblue" points="1282.91,-86.6036 1289.82,-78.5777 1279.41,-80.5388 1282.91,-86.6036"/>
</g>
<!-- Node9&#45;&gt;Node21 -->
<g id="edge24" class="edge"><title>Node9&#45;&gt;Node21</title>
<path fill="none" stroke="midnightblue" d="M693.942,-245.393C654.395,-234.17 582.868,-213.872 538.751,-201.352"/>
<polygon fill="midnightblue" stroke="midnightblue" points="539.544,-197.939 528.968,-198.576 537.633,-204.673 539.544,-197.939"/>
</g>
<!-- Node29 -->
<g id="node30" class="node"><title>Node29</title>
<g id="a_node30"><a xlink:href="conststr_8h.html" target="_top" xlink:title="A constexpr string type, suitable for basic compile&#45;time string processing. ">
<polygon fill="none" stroke="black" points="803.419,-60.5 803.419,-78.5 945.601,-78.5 945.601,-60.5 803.419,-60.5"/>
<text text-anchor="middle" x="874.51" y="-66.5" font-family="Helvetica,sans-Serif" font-size="10.00">tomographer/tools/conststr.h</text>
</a>
</g>
</g>
<!-- Node9&#45;&gt;Node29 -->
<g id="edge50" class="edge"><title>Node9&#45;&gt;Node29</title>
<path fill="none" stroke="midnightblue" d="M729.436,-245.161C752.878,-216.938 829.524,-124.661 860.916,-86.866"/>
<polygon fill="midnightblue" stroke="midnightblue" points="863.846,-88.8165 867.543,-78.8876 858.461,-84.3439 863.846,-88.8165"/>
</g>
<!-- Node17&#45;&gt;Node1 -->
<g id="edge21" class="edge"><title>Node17&#45;&gt;Node1</title>
<path fill="none" stroke="midnightblue" d="M1289.74,-60.4353C1273.58,-50.9661 1246.53,-35.1201 1227.24,-23.8184"/>
<polygon fill="midnightblue" stroke="midnightblue" points="1228.88,-20.7182 1218.48,-18.6831 1225.34,-26.758 1228.88,-20.7182"/>
</g>
<!-- Node18 -->
<g id="node19" class="node"><title>Node18</title>
<polygon fill="none" stroke="#bfbfbf" points="1563.39,-0.5 1563.39,-18.5 1611.63,-18.5 1611.63,-0.5 1563.39,-0.5"/>
<text text-anchor="middle" x="1587.51" y="-6.5" font-family="Helvetica,sans-Serif" font-size="10.00">cassert</text>
</g>
<!-- Node17&#45;&gt;Node18 -->
<g id="edge20" class="edge"><title>Node17&#45;&gt;Node18</title>
<path fill="none" stroke="midnightblue" d="M1342.7,-60.4962C1398.62,-49.0758 1500.39,-28.2919 1553.38,-17.4701"/>
<polygon fill="midnightblue" stroke="midnightblue" points="1554.2,-20.8745 1563.3,-15.4443 1552.8,-14.0161 1554.2,-20.8745"/>
</g>
<!-- Node19 -->
<g id="node20" class="node"><title>Node19</title>
<polygon fill="none" stroke="#bfbfbf" points="1426.34,-0.5 1426.34,-18.5 1470.68,-18.5 1470.68,-0.5 1426.34,-0.5"/>
<text text-anchor="middle" x="1448.51" y="-6.5" font-family="Helvetica,sans-Serif" font-size="10.00">cstdlib</text>
</g>
<!-- Node17&#45;&gt;Node19 -->
<g id="edge22" class="edge"><title>Node17&#45;&gt;Node19</title>
<path fill="none" stroke="midnightblue" d="M1323.67,-60.4353C1348.31,-50.5787 1390.23,-33.813 1418.62,-22.4549"/>
<polygon fill="midnightblue" stroke="midnightblue" points="1420.07,-25.6468 1428.05,-18.6831 1417.47,-19.1474 1420.07,-25.6468"/>
</g>
<!-- Node20 -->
<g id="node21" class="node"><title>Node20</title>
<polygon fill="none" stroke="#bfbfbf" points="1263.54,-0.5 1263.54,-18.5 1343.48,-18.5 1343.48,-0.5 1263.54,-0.5"/>
<text text-anchor="middle" x="1303.51" y="-6.5" font-family="Helvetica,sans-Serif" font-size="10.00">boost/predef.h</text>
</g>
<!-- Node17&#45;&gt;Node20 -->
<g id="edge23" class="edge"><title>Node17&#45;&gt;Node20</title>
<path fill="none" stroke="midnightblue" d="M1303.51,-60.4353C1303.51,-52.3891 1303.51,-39.7388 1303.51,-29.1846"/>
<polygon fill="midnightblue" stroke="midnightblue" points="1307.01,-28.8717 1303.51,-18.8718 1300.01,-28.8718 1307.01,-28.8717"/>
</g>
<!-- Node21&#45;&gt;Node5 -->
<g id="edge29" class="edge"><title>Node21&#45;&gt;Node5</title>
<path fill="none" stroke="midnightblue" d="M474.647,-180.435C442.257,-170.335 386.6,-152.98 350.179,-141.623"/>
<polygon fill="midnightblue" stroke="midnightblue" points="351.04,-138.225 340.452,-138.589 348.956,-144.908 351.04,-138.225"/>
</g>
<!-- Node21&#45;&gt;Node6 -->
<g id="edge33" class="edge"><title>Node21&#45;&gt;Node6</title>
<path fill="none" stroke="midnightblue" d="M439.684,-180.857C424.293,-178.934 407.795,-176.882 392.51,-175 271.223,-160.066 127.339,-142.731 61.5624,-134.827"/>
<polygon fill="midnightblue" stroke="midnightblue" points="61.6668,-131.314 51.3207,-133.596 60.8318,-138.264 61.6668,-131.314"/>
</g>
<!-- Node21&#45;&gt;Node10 -->
<g id="edge25" class="edge"><title>Node21&#45;&gt;Node10</title>
<path fill="none" stroke="midnightblue" d="M502.039,-180.435C503.582,-172.304 506.016,-159.469 508.03,-148.848"/>
<polygon fill="midnightblue" stroke="midnightblue" points="511.497,-149.349 509.922,-138.872 504.62,-148.044 511.497,-149.349"/>
</g>
<!-- Node21&#45;&gt;Node11 -->
<g id="edge26" class="edge"><title>Node21&#45;&gt;Node11</title>
<path fill="none" stroke="midnightblue" d="M510.799,-180.435C522.376,-171.362 541.422,-156.434 555.679,-145.259"/>
<polygon fill="midnightblue" stroke="midnightblue" points="558.117,-147.795 563.829,-138.872 553.799,-142.286 558.117,-147.795"/>
</g>
<!-- Node21&#45;&gt;Node12 -->
<g id="edge28" class="edge"><title>Node21&#45;&gt;Node12</title>
<path fill="none" stroke="midnightblue" d="M457.062,-180.478C418.658,-171.108 371.091,-152.572 387.51,-120 412.167,-71.0839 470.143,-38.5862 505.774,-22.4477"/>
<polygon fill="midnightblue" stroke="midnightblue" points="507.427,-25.545 515.185,-18.3296 504.621,-19.1321 507.427,-25.545"/>
</g>
<!-- Node21&#45;&gt;Node13 -->
<g id="edge30" class="edge"><title>Node21&#45;&gt;Node13</title>
<path fill="none" stroke="midnightblue" d="M494.048,-180.334C483.845,-166.394 466.616,-137.791 481.51,-120 511.573,-84.0877 651.997,-74.2025 720.597,-71.5026"/>
<polygon fill="midnightblue" stroke="midnightblue" points="721.095,-74.987 730.962,-71.1281 720.842,-67.9916 721.095,-74.987"/>
</g>
<!-- Node21&#45;&gt;Node14 -->
<g id="edge34" class="edge"><title>Node21&#45;&gt;Node14</title>
<path fill="none" stroke="midnightblue" d="M520.81,-180.435C545.622,-170.579 587.825,-153.813 616.416,-142.455"/>
<polygon fill="midnightblue" stroke="midnightblue" points="617.91,-145.628 625.911,-138.683 615.325,-139.122 617.91,-145.628"/>
</g>
<!-- Node22 -->
<g id="node23" class="node"><title>Node22</title>
<polygon fill="none" stroke="#bfbfbf" points="211.222,-120.5 211.222,-138.5 257.798,-138.5 257.798,-120.5 211.222,-120.5"/>
<text text-anchor="middle" x="234.51" y="-126.5" font-family="Helvetica,sans-Serif" font-size="10.00">chrono</text>
</g>
<!-- Node21&#45;&gt;Node22 -->
<g id="edge27" class="edge"><title>Node21&#45;&gt;Node22</title>
<path fill="none" stroke="midnightblue" d="M463.803,-180.496C411.911,-169.181 317.867,-148.676 267.865,-137.773"/>
<polygon fill="midnightblue" stroke="midnightblue" points="268.41,-134.31 257.894,-135.599 266.919,-141.149 268.41,-134.31"/>
</g>
<!-- Node23 -->
<g id="node24" class="node"><title>Node23</title>
<polygon fill="none" stroke="#bfbfbf" points="396.118,-120.5 396.118,-138.5 434.901,-138.5 434.901,-120.5 396.118,-120.5"/>
<text text-anchor="middle" x="415.51" y="-126.5" font-family="Helvetica,sans-Serif" font-size="10.00">utility</text>
</g>
<!-- Node21&#45;&gt;Node23 -->
<g id="edge31" class="edge"><title>Node21&#45;&gt;Node23</title>
<path fill="none" stroke="midnightblue" d="M488.691,-180.435C475.066,-171.138 452.432,-155.694 435.938,-144.439"/>
<polygon fill="midnightblue" stroke="midnightblue" points="437.735,-141.428 427.502,-138.683 433.79,-147.211 437.735,-141.428"/>
</g>
<!-- Node24 -->
<g id="node25" class="node"><title>Node24</title>
<polygon fill="none" stroke="#bfbfbf" points="986.894,-120.5 986.894,-138.5 1030.13,-138.5 1030.13,-120.5 986.894,-120.5"/>
<text text-anchor="middle" x="1008.51" y="-126.5" font-family="Helvetica,sans-Serif" font-size="10.00">vector</text>
</g>
<!-- Node21&#45;&gt;Node24 -->
<g id="edge32" class="edge"><title>Node21&#45;&gt;Node24</title>
<path fill="none" stroke="midnightblue" d="M561.534,-181.533C670.259,-169.119 893.846,-143.592 976.703,-134.132"/>
<polygon fill="midnightblue" stroke="midnightblue" points="977.227,-137.594 986.766,-132.983 976.433,-130.64 977.227,-137.594"/>
</g>
<!-- Node21&#45;&gt;Node25 -->
<g id="edge35" class="edge"><title>Node21&#45;&gt;Node25</title>
<path fill="none" stroke="midnightblue" d="M561.354,-185.197C696.039,-177.792 1029.55,-158.943 1308.51,-139 1316.89,-138.401 1325.64,-137.74 1334.36,-137.06"/>
<polygon fill="midnightblue" stroke="midnightblue" points="1334.86,-140.531 1344.55,-136.254 1334.31,-133.553 1334.86,-140.531"/>
</g>
<!-- Node25&#45;&gt;Node1 -->
<g id="edge37" class="edge"><title>Node25&#45;&gt;Node1</title>
<path fill="none" stroke="midnightblue" d="M1347.55,-120.445C1300.1,-113.264 1241.1,-101.211 1223.51,-84 1208.81,-69.6203 1204.97,-45.4725 1204.22,-28.8012"/>
<polygon fill="midnightblue" stroke="midnightblue" points="1207.71,-28.621 1204.09,-18.666 1200.71,-28.7094 1207.71,-28.621"/>
</g>
<!-- Node25&#45;&gt;Node7 -->
<g id="edge41" class="edge"><title>Node25&#45;&gt;Node7</title>
<path fill="none" stroke="midnightblue" d="M1365.88,-120.466C1320.76,-112.383 1250.58,-98.9954 1190.51,-84 1187.34,-83.2098 1184.07,-82.3369 1180.8,-81.4265"/>
<polygon fill="midnightblue" stroke="midnightblue" points="1181.67,-78.037 1171.1,-78.6278 1179.73,-84.7627 1181.67,-78.037"/>
</g>
<!-- Node25&#45;&gt;Node13 -->
<g id="edge39" class="edge"><title>Node25&#45;&gt;Node13</title>
<path fill="none" stroke="midnightblue" d="M1344.55,-122.831C1332.54,-121.862 1320.16,-120.884 1308.51,-120 1080.16,-102.672 1018.27,-132.711 794.51,-84 791.85,-83.421 789.124,-82.6838 786.42,-81.8537"/>
<polygon fill="midnightblue" stroke="midnightblue" points="787.48,-78.5168 776.885,-78.5556 785.192,-85.1323 787.48,-78.5168"/>
</g>
<!-- Node25&#45;&gt;Node17 -->
<g id="edge44" class="edge"><title>Node25&#45;&gt;Node17</title>
<path fill="none" stroke="midnightblue" d="M1397.35,-120.435C1379.4,-110.88 1349.24,-94.8315 1327.96,-83.5113"/>
<polygon fill="midnightblue" stroke="midnightblue" points="1329.36,-80.2909 1318.89,-78.6831 1326.07,-86.4705 1329.36,-80.2909"/>
</g>
<!-- Node25&#45;&gt;Node18 -->
<g id="edge36" class="edge"><title>Node25&#45;&gt;Node18</title>
<path fill="none" stroke="midnightblue" d="M1480.27,-124.774C1540.84,-119.858 1623.1,-108.722 1643.51,-84 1651.72,-74.0615 1649.11,-66.6076 1643.51,-55 1637.16,-41.8514 1624.84,-31.3941 1613.36,-23.9295"/>
<polygon fill="midnightblue" stroke="midnightblue" points="1614.84,-20.7376 1604.47,-18.5903 1611.24,-26.7388 1614.84,-20.7376"/>
</g>
<!-- Node25&#45;&gt;Node19 -->
<g id="edge38" class="edge"><title>Node25&#45;&gt;Node19</title>
<path fill="none" stroke="midnightblue" d="M1443.85,-120.475C1462.38,-113.941 1484.34,-102.659 1495.51,-84 1502.13,-72.9406 1500.6,-66.8393 1495.51,-55 1490.29,-42.8654 1479.95,-32.4913 1470.3,-24.8198"/>
<polygon fill="midnightblue" stroke="midnightblue" points="1472.26,-21.9186 1462.14,-18.7975 1468.1,-27.5512 1472.26,-21.9186"/>
</g>
<!-- Node26 -->
<g id="node27" class="node"><title>Node26</title>
<polygon fill="none" stroke="#bfbfbf" points="1809.89,-60.5 1809.89,-78.5 1863.13,-78.5 1863.13,-60.5 1809.89,-60.5"/>
<text text-anchor="middle" x="1836.51" y="-66.5" font-family="Helvetica,sans-Serif" font-size="10.00">complex</text>
</g>
<!-- Node25&#45;&gt;Node26 -->
<g id="edge40" class="edge"><title>Node25&#45;&gt;Node26</title>
<path fill="none" stroke="midnightblue" d="M1480.38,-120.579C1550.03,-112.253 1661.5,-98.3888 1757.51,-84 1771.3,-81.9334 1786.4,-79.416 1799.67,-77.1176"/>
<polygon fill="midnightblue" stroke="midnightblue" points="1800.61,-80.5057 1809.86,-75.334 1799.41,-73.6105 1800.61,-80.5057"/>
</g>
<!-- Node27 -->
<g id="node28" class="node"><title>Node27</title>
<polygon fill="none" stroke="#bfbfbf" points="195.106,-60.5 195.106,-78.5 253.914,-78.5 253.914,-60.5 195.106,-60.5"/>
<text text-anchor="middle" x="224.51" y="-66.5" font-family="Helvetica,sans-Serif" font-size="10.00">exception</text>
</g>
<!-- Node25&#45;&gt;Node27 -->
<g id="edge42" class="edge"><title>Node25&#45;&gt;Node27</title>
<path fill="none" stroke="midnightblue" d="M1344.56,-122.593C1332.56,-121.65 1320.17,-120.743 1308.51,-120 901.268,-94.0681 407.12,-76.5812 264.685,-71.8135"/>
<polygon fill="midnightblue" stroke="midnightblue" points="264.387,-68.3017 254.276,-71.4668 264.154,-75.2978 264.387,-68.3017"/>
</g>
<!-- Node28 -->
<g id="node29" class="node"><title>Node28</title>
<polygon fill="none" stroke="#bfbfbf" points="1690.11,-60.5 1690.11,-78.5 1748.91,-78.5 1748.91,-60.5 1690.11,-60.5"/>
<text text-anchor="middle" x="1719.51" y="-66.5" font-family="Helvetica,sans-Serif" font-size="10.00">stdexcept</text>
</g>
<!-- Node25&#45;&gt;Node28 -->
<g id="edge43" class="edge"><title>Node25&#45;&gt;Node28</title>
<path fill="none" stroke="midnightblue" d="M1474.6,-120.488C1528.41,-112.963 1608.15,-100.41 1676.51,-84 1679.71,-83.2329 1683.01,-82.3541 1686.3,-81.421"/>
<polygon fill="midnightblue" stroke="midnightblue" points="1687.44,-84.7343 1696.02,-78.5157 1685.43,-78.0278 1687.44,-84.7343"/>
</g>
<!-- Node25&#45;&gt;Node29 -->
<g id="edge45" class="edge"><title>Node25&#45;&gt;Node29</title>
<path fill="none" stroke="midnightblue" d="M1344.64,-121.184C1245.72,-110.519 1062.17,-90.7312 956.046,-79.2901"/>
<polygon fill="midnightblue" stroke="midnightblue" points="956.34,-75.8017 946.023,-78.2096 955.59,-82.7614 956.34,-75.8017"/>
</g>
<!-- Node30 -->
<g id="node31" class="node"><title>Node30</title>
<polygon fill="none" stroke="#bfbfbf" points="1392.04,-60.5 1392.04,-78.5 1486.98,-78.5 1486.98,-60.5 1392.04,-60.5"/>
<text text-anchor="middle" x="1439.51" y="-66.5" font-family="Helvetica,sans-Serif" font-size="10.00">boost/version.hpp</text>
</g>
<!-- Node25&#45;&gt;Node30 -->
<g id="edge47" class="edge"><title>Node25&#45;&gt;Node30</title>
<path fill="none" stroke="midnightblue" d="M1416.26,-120.435C1420.13,-112.132 1426.28,-98.9267 1431.28,-88.1807"/>
<polygon fill="midnightblue" stroke="midnightblue" points="1434.57,-89.4147 1435.61,-78.8718 1428.22,-86.4605 1434.57,-89.4147"/>
</g>
<!-- Node31 -->
<g id="node32" class="node"><title>Node31</title>
<polygon fill="none" stroke="#bfbfbf" points="1542.99,-55.5 1542.99,-83.5 1634.03,-83.5 1634.03,-55.5 1542.99,-55.5"/>
<text text-anchor="start" x="1550.99" y="-71.5" font-family="Helvetica,sans-Serif" font-size="10.00">boost/units/detail</text>
<text text-anchor="middle" x="1588.51" y="-61.5" font-family="Helvetica,sans-Serif" font-size="10.00">/utility.hpp</text>
</g>
<!-- Node25&#45;&gt;Node31 -->
<g id="edge48" class="edge"><title>Node25&#45;&gt;Node31</title>
<path fill="none" stroke="midnightblue" d="M1436.98,-120.435C1463.37,-111.738 1506.09,-97.6614 1539.45,-86.6671"/>
<polygon fill="midnightblue" stroke="midnightblue" points="1540.63,-89.9637 1549.03,-83.5096 1538.44,-83.3154 1540.63,-89.9637"/>
</g>
<!-- Node32 -->
<g id="node33" class="node"><title>Node32</title>
<polygon fill="none" stroke="#bfbfbf" points="1913.5,-60.5 1913.5,-78.5 1979.52,-78.5 1979.52,-60.5 1913.5,-60.5"/>
<text text-anchor="middle" x="1946.51" y="-66.5" font-family="Helvetica,sans-Serif" font-size="10.00">Eigen/Core</text>
</g>
<!-- Node25&#45;&gt;Node32 -->
<g id="edge49" class="edge"><title>Node25&#45;&gt;Node32</title>
<path fill="none" stroke="midnightblue" d="M1480.53,-123.716C1570.49,-116.978 1733.84,-103.321 1872.51,-84 1882.6,-82.5943 1893.41,-80.7919 1903.57,-78.9651"/>
<polygon fill="midnightblue" stroke="midnightblue" points="1904.25,-82.3976 1913.45,-77.1439 1902.98,-75.5134 1904.25,-82.3976"/>
</g>
<!-- Node29&#45;&gt;Node12 -->
<g id="edge46" class="edge"><title>Node29&#45;&gt;Node12</title>
<path fill="none" stroke="midnightblue" d="M827.729,-60.4962C757.135,-48.4181 625.327,-25.867 565.922,-15.7032"/>
<polygon fill="midnightblue" stroke="midnightblue" points="566.48,-12.248 556.033,-14.0114 565.3,-19.1478 566.48,-12.248"/>
</g>
<!-- Node33&#45;&gt;Node25 -->
<g id="edge54" class="edge"><title>Node33&#45;&gt;Node25</title>
<path fill="none" stroke="midnightblue" d="M1909.3,-245.382C1917.92,-229.619 1933.54,-194.692 1915.51,-175 1887.44,-144.336 1624.82,-134.682 1490.63,-131.738"/>
<polygon fill="midnightblue" stroke="midnightblue" points="1490.49,-128.234 1480.41,-131.522 1490.34,-135.233 1490.49,-128.234"/>
</g>
<!-- Node34&#45;&gt;Node8 -->
<g id="edge60" class="edge"><title>Node34&#45;&gt;Node8</title>
<path fill="none" stroke="midnightblue" d="M248.583,-245.264C263.117,-236.108 287.056,-221.026 306.135,-209.006"/>
<polygon fill="midnightblue" stroke="midnightblue" points="308.183,-211.853 314.778,-203.561 304.452,-205.93 308.183,-211.853"/>
</g>
<!-- Node34&#45;&gt;Node12 -->
<g id="edge57" class="edge"><title>Node34&#45;&gt;Node12</title>
<path fill="none" stroke="midnightblue" d="M191.537,-245.444C167.953,-238.643 140.86,-226.277 126.51,-204 87.85,-143.984 125.696,-92.3921 186.51,-55 239.574,-22.3726 429.631,-13.4879 504.695,-11.2241"/>
<polygon fill="midnightblue" stroke="midnightblue" points="505.009,-14.7168 514.906,-10.9361 504.811,-7.71954 505.009,-14.7168"/>
</g>
<!-- Node34&#45;&gt;Node21 -->
<g id="edge61" class="edge"><title>Node34&#45;&gt;Node21</title>
<path fill="none" stroke="midnightblue" d="M269.341,-245.457C316.957,-234.137 403.792,-213.493 456.414,-200.983"/>
<polygon fill="midnightblue" stroke="midnightblue" points="457.542,-204.313 466.461,-198.595 455.923,-197.502 457.542,-204.313"/>
</g>
<!-- Node34&#45;&gt;Node22 -->
<g id="edge58" class="edge"><title>Node34&#45;&gt;Node22</title>
<path fill="none" stroke="midnightblue" d="M235.444,-245.43C235.286,-225.975 234.88,-176.094 234.659,-148.881"/>
<polygon fill="midnightblue" stroke="midnightblue" points="238.158,-148.733 234.577,-138.761 231.158,-148.79 238.158,-148.733"/>
</g>
<!-- Node34&#45;&gt;Node27 -->
<g id="edge59" class="edge"><title>Node34&#45;&gt;Node27</title>
<path fill="none" stroke="midnightblue" d="M198.711,-245.413C176.537,-238.44 150.047,-225.904 136.51,-204 109.046,-159.563 169.511,-108.318 203.473,-84.2867"/>
<polygon fill="midnightblue" stroke="midnightblue" points="205.604,-87.0696 211.862,-78.5204 201.638,-81.3011 205.604,-87.0696"/>
</g>
<!-- Node35 -->
<g id="node36" class="node"><title>Node35</title>
<polygon fill="none" stroke="#bfbfbf" points="145.946,-180.5 145.946,-198.5 193.074,-198.5 193.074,-180.5 145.946,-180.5"/>
<text text-anchor="middle" x="169.51" y="-186.5" font-family="Helvetica,sans-Serif" font-size="10.00">csignal</text>
</g>
<!-- Node34&#45;&gt;Node35 -->
<g id="edge56" class="edge"><title>Node34&#45;&gt;Node35</title>
<path fill="none" stroke="midnightblue" d="M226.881,-245.264C216.349,-235.21 198.332,-218.012 185.294,-205.567"/>
<polygon fill="midnightblue" stroke="midnightblue" points="187.582,-202.912 177.932,-198.539 182.748,-207.976 187.582,-202.912"/>
</g>
<!-- Node34&#45;&gt;Node36 -->
<g id="edge62" class="edge"><title>Node34&#45;&gt;Node36</title>
<path fill="none" stroke="midnightblue" d="M297.945,-249.677C467.146,-239.318 936.262,-210.597 1152.59,-197.352"/>
<polygon fill="midnightblue" stroke="midnightblue" points="1152.93,-200.838 1162.7,-196.733 1152.51,-193.851 1152.93,-200.838"/>
</g>
<!-- Node36&#45;&gt;Node7 -->
<g id="edge63" class="edge"><title>Node36&#45;&gt;Node7</title>
<path fill="none" stroke="midnightblue" d="M1256.33,-180.389C1236.71,-160.938 1186.73,-111.37 1161.13,-85.9893"/>
<polygon fill="midnightblue" stroke="midnightblue" points="1163.31,-83.2233 1153.75,-78.6674 1158.38,-88.1939 1163.31,-83.2233"/>
</g>
<!-- Node36&#45;&gt;Node25 -->
<g id="edge65" class="edge"><title>Node36&#45;&gt;Node25</title>
<path fill="none" stroke="midnightblue" d="M1285.09,-180.435C1310.24,-170.579 1353.02,-153.813 1382,-142.455"/>
<polygon fill="midnightblue" stroke="midnightblue" points="1383.6,-145.591 1391.63,-138.683 1381.04,-139.073 1383.6,-145.591"/>
</g>
<!-- Node37 -->
<g id="node38" class="node"><title>Node37</title>
<polygon fill="none" stroke="#bfbfbf" points="1229.54,-120.5 1229.54,-138.5 1299.48,-138.5 1299.48,-120.5 1229.54,-120.5"/>
<text text-anchor="middle" x="1264.51" y="-126.5" font-family="Helvetica,sans-Serif" font-size="10.00">Eigen/Eigen</text>
</g>
<!-- Node36&#45;&gt;Node37 -->
<g id="edge64" class="edge"><title>Node36&#45;&gt;Node37</title>
<path fill="none" stroke="midnightblue" d="M1264.51,-180.435C1264.51,-172.389 1264.51,-159.739 1264.51,-149.185"/>
<polygon fill="midnightblue" stroke="midnightblue" points="1268.01,-148.872 1264.51,-138.872 1261.01,-148.872 1268.01,-148.872"/>
</g>
<!-- Node38&#45;&gt;Node9 -->
<g id="edge67" class="edge"><title>Node38&#45;&gt;Node9</title>
<path fill="none" stroke="midnightblue" d="M1421.95,-313.556C1286.76,-302.335 956.545,-274.926 803.205,-262.198"/>
<polygon fill="midnightblue" stroke="midnightblue" points="803.175,-258.684 792.92,-261.344 802.596,-265.66 803.175,-258.684"/>
</g>
<!-- Node38&#45;&gt;Node25 -->
<g id="edge77" class="edge"><title>Node38&#45;&gt;Node25</title>
<path fill="none" stroke="midnightblue" d="M1476.66,-305.28C1464.48,-272.113 1432.65,-185.367 1418.94,-148.018"/>
<polygon fill="midnightblue" stroke="midnightblue" points="1422.18,-146.683 1415.45,-138.501 1415.61,-149.095 1422.18,-146.683"/>
</g>
<!-- Node38&#45;&gt;Node36 -->
<g id="edge78" class="edge"><title>Node38&#45;&gt;Node36</title>
<path fill="none" stroke="midnightblue" d="M1459.1,-305.284C1417.51,-280.751 1328.82,-228.432 1287.09,-203.82"/>
<polygon fill="midnightblue" stroke="midnightblue" points="1288.63,-200.666 1278.24,-198.6 1285.08,-206.695 1288.63,-200.666"/>
</g>
<!-- Node39 -->
<g id="node40" class="node"><title>Node39</title>
<g id="a_node40"><a xlink:href="eigenutil_8h.html" target="_top" xlink:title="Basic utilities for dealing with Eigen matrices and other types. ">
<polygon fill="none" stroke="black" points="1628.02,-245.5 1628.02,-263.5 1772.99,-263.5 1772.99,-245.5 1628.02,-245.5"/>
<text text-anchor="middle" x="1700.51" y="-251.5" font-family="Helvetica,sans-Serif" font-size="10.00">tomographer/tools/eigenutil.h</text>
</a>
</g>
</g>
<!-- Node38&#45;&gt;Node39 -->
<g id="edge68" class="edge"><title>Node38&#45;&gt;Node39</title>
<path fill="none" stroke="midnightblue" d="M1526.89,-305.446C1566.97,-293.916 1624.75,-277.294 1662.46,-266.446"/>
<polygon fill="midnightblue" stroke="midnightblue" points="1663.89,-269.676 1672.53,-263.548 1661.96,-262.949 1663.89,-269.676"/>
</g>
<!-- Node44 -->
<g id="node45" class="node"><title>Node44</title>
<polygon fill="none" stroke="#bfbfbf" points="1498.98,-240.5 1498.98,-268.5 1610.04,-268.5 1610.04,-240.5 1498.98,-240.5"/>
<text text-anchor="start" x="1506.98" y="-256.5" font-family="Helvetica,sans-Serif" font-size="10.00">boost/math/constants</text>
<text text-anchor="middle" x="1554.51" y="-246.5" font-family="Helvetica,sans-Serif" font-size="10.00">/constants.hpp</text>
</g>
<!-- Node38&#45;&gt;Node44 -->
<g id="edge79" class="edge"><title>Node38&#45;&gt;Node44</title>
<path fill="none" stroke="midnightblue" d="M1496.64,-305.446C1506.72,-296.746 1520.16,-285.146 1531.55,-275.316"/>
<polygon fill="midnightblue" stroke="midnightblue" points="1534.12,-277.72 1539.4,-268.537 1529.55,-272.421 1534.12,-277.72"/>
</g>
<!-- Node39&#45;&gt;Node8 -->
<g id="edge74" class="edge"><title>Node39&#45;&gt;Node8</title>
<path fill="none" stroke="midnightblue" d="M1659.03,-245.482C1646.39,-243.337 1632.42,-241.266 1619.51,-240 1093.34,-188.425 957.255,-249.26 430.51,-204 418.58,-202.975 405.861,-201.461 393.735,-199.814"/>
<polygon fill="midnightblue" stroke="midnightblue" points="394.11,-196.333 383.72,-198.407 393.136,-203.265 394.11,-196.333"/>
</g>
<!-- Node39&#45;&gt;Node24 -->
<g id="edge70" class="edge"><title>Node39&#45;&gt;Node24</title>
<path fill="none" stroke="midnightblue" d="M1665.37,-245.467C1623.45,-235.836 1551.28,-219.101 1489.51,-204 1438.72,-191.585 1426.9,-184.611 1375.51,-175 1252.66,-152.024 1104.35,-138.253 1040.4,-132.978"/>
<polygon fill="midnightblue" stroke="midnightblue" points="1040.42,-129.469 1030.17,-132.148 1039.85,-136.446 1040.42,-129.469"/>
</g>
<!-- Node39&#45;&gt;Node26 -->
<g id="edge69" class="edge"><title>Node39&#45;&gt;Node26</title>
<path fill="none" stroke="midnightblue" d="M1749.62,-245.486C1809.81,-235.167 1905.15,-217.018 1915.51,-204 1947.38,-163.96 1888.41,-109.808 1855.9,-84.5538"/>
<polygon fill="midnightblue" stroke="midnightblue" points="1857.99,-81.7454 1847.9,-78.5065 1853.77,-87.3292 1857.99,-81.7454"/>
</g>
<!-- Node39&#45;&gt;Node32 -->
<g id="edge71" class="edge"><title>Node39&#45;&gt;Node32</title>
<path fill="none" stroke="midnightblue" d="M1754.59,-245.499C1819.92,-235.315 1922.59,-217.431 1934.51,-204 1962.89,-172.033 1956.72,-117.206 1950.97,-88.7844"/>
<polygon fill="midnightblue" stroke="midnightblue" points="1954.31,-87.6651 1948.71,-78.6693 1947.48,-89.192 1954.31,-87.6651"/>
</g>
<!-- Node40 -->
<g id="node41" class="node"><title>Node40</title>
<polygon fill="none" stroke="#bfbfbf" points="1832.88,-180.5 1832.88,-198.5 1906.14,-198.5 1906.14,-180.5 1832.88,-180.5"/>
<text text-anchor="middle" x="1869.51" y="-186.5" font-family="Helvetica,sans-Serif" font-size="10.00">Eigen/Dense</text>
</g>
<!-- Node39&#45;&gt;Node40 -->
<g id="edge72" class="edge"><title>Node39&#45;&gt;Node40</title>
<path fill="none" stroke="midnightblue" d="M1722.26,-245.393C1751.79,-234.383 1804.76,-214.638 1838.47,-202.072"/>
<polygon fill="midnightblue" stroke="midnightblue" points="1839.7,-205.349 1847.85,-198.576 1837.25,-198.79 1839.7,-205.349"/>
</g>
<!-- Node41 -->
<g id="node42" class="node"><title>Node41</title>
<polygon fill="none" stroke="#bfbfbf" points="1498.65,-180.5 1498.65,-198.5 1586.37,-198.5 1586.37,-180.5 1498.65,-180.5"/>
<text text-anchor="middle" x="1542.51" y="-186.5" font-family="Helvetica,sans-Serif" font-size="10.00">Eigen/StdVector</text>
</g>
<!-- Node39&#45;&gt;Node41 -->
<g id="edge73" class="edge"><title>Node39&#45;&gt;Node41</title>
<path fill="none" stroke="midnightblue" d="M1680.18,-245.393C1652.8,-234.477 1603.89,-214.976 1572.35,-202.397"/>
<polygon fill="midnightblue" stroke="midnightblue" points="1573.35,-199.029 1562.76,-198.576 1570.76,-205.531 1573.35,-199.029"/>
</g>
<!-- Node42 -->
<g id="node43" class="node"><title>Node42</title>
<polygon fill="none" stroke="#bfbfbf" points="1604.49,-175.5 1604.49,-203.5 1700.53,-203.5 1700.53,-175.5 1604.49,-175.5"/>
<text text-anchor="start" x="1612.49" y="-191.5" font-family="Helvetica,sans-Serif" font-size="10.00">boost/serialization</text>
<text text-anchor="middle" x="1652.51" y="-181.5" font-family="Helvetica,sans-Serif" font-size="10.00">/split_free.hpp</text>
</g>
<!-- Node39&#45;&gt;Node42 -->
<g id="edge75" class="edge"><title>Node39&#45;&gt;Node42</title>
<path fill="none" stroke="midnightblue" d="M1694.23,-245.264C1687.84,-236.865 1677.64,-223.481 1668.93,-212.047"/>
<polygon fill="midnightblue" stroke="midnightblue" points="1671.49,-209.631 1662.64,-203.798 1665.92,-213.874 1671.49,-209.631"/>
</g>
<!-- Node43 -->
<g id="node44" class="node"><title>Node43</title>
<polygon fill="none" stroke="#bfbfbf" points="1718.49,-175.5 1718.49,-203.5 1814.53,-203.5 1814.53,-175.5 1718.49,-175.5"/>
<text text-anchor="start" x="1726.49" y="-191.5" font-family="Helvetica,sans-Serif" font-size="10.00">boost/serialization</text>
<text text-anchor="middle" x="1766.51" y="-181.5" font-family="Helvetica,sans-Serif" font-size="10.00">/complex.hpp</text>
</g>
<!-- Node39&#45;&gt;Node43 -->
<g id="edge76" class="edge"><title>Node39&#45;&gt;Node43</title>
<path fill="none" stroke="midnightblue" d="M1709.14,-245.264C1718.34,-236.48 1733.25,-222.245 1745.57,-210.489"/>
<polygon fill="midnightblue" stroke="midnightblue" points="1748.01,-212.997 1752.83,-203.561 1743.18,-207.934 1748.01,-212.997"/>
</g>
</g>
</svg>
