<?xml version="1.0" encoding="UTF-8" standalone="no"?>
<!DOCTYPE svg PUBLIC "-//W3C//DTD SVG 1.1//EN"
 "http://www.w3.org/Graphics/SVG/1.1/DTD/svg11.dtd">
<!-- Generated by graphviz version 2.38.0 (20140413.2041)
 -->
<!-- Title: tomographer/mpi/multiprocmpi.h Pages: 1 -->
<svg width="1707pt" height="397pt"
 viewBox="0.00 0.00 1707.27 397.00" xmlns="http://www.w3.org/2000/svg" xmlns:xlink="http://www.w3.org/1999/xlink">
<g id="graph0" class="graph" transform="scale(1 1) rotate(0) translate(4 393)">
<title>tomographer/mpi/multiprocmpi.h</title>
<!-- Node0 -->
<g id="node1" class="node"><title>Node0</title>
<polygon fill="#bfbfbf" stroke="black" points="440.709,-370.5 440.709,-388.5 600.098,-388.5 600.098,-370.5 440.709,-370.5"/>
<text text-anchor="middle" x="520.404" y="-376.5" font-family="Helvetica,sans-Serif" font-size="10.00">tomographer/mpi/multiprocmpi.h</text>
</g>
<!-- Node1 -->
<g id="node2" class="node"><title>Node1</title>
<polygon fill="none" stroke="#bfbfbf" points="130.84,-180.5 130.84,-198.5 177.968,-198.5 177.968,-180.5 130.84,-180.5"/>
<text text-anchor="middle" x="154.404" y="-186.5" font-family="Helvetica,sans-Serif" font-size="10.00">csignal</text>
</g>
<!-- Node0&#45;&gt;Node1 -->
<g id="edge1" class="edge"><title>Node0&#45;&gt;Node1</title>
<path fill="none" stroke="midnightblue" d="M440.442,-377.486C355.646,-374.739 229.091,-365.321 193.404,-334 156.928,-301.986 152.992,-239.611 153.476,-208.727"/>
<polygon fill="midnightblue" stroke="midnightblue" points="156.979,-208.673 153.819,-198.561 149.983,-208.437 156.979,-208.673"/>
</g>
<!-- Node2 -->
<g id="node3" class="node"><title>Node2</title>
<polygon fill="none" stroke="#bfbfbf" points="1144.18,-0.5 1144.18,-18.5 1184.63,-18.5 1184.63,-0.5 1144.18,-0.5"/>
<text text-anchor="middle" x="1164.4" y="-6.5" font-family="Helvetica,sans-Serif" font-size="10.00">string</text>
</g>
<!-- Node0&#45;&gt;Node2 -->
<g id="edge2" class="edge"><title>Node0&#45;&gt;Node2</title>
<path fill="none" stroke="midnightblue" d="M600.43,-371.649C834.825,-350.518 1503.4,-282.209 1503.4,-190.5 1503.4,-190.5 1503.4,-190.5 1503.4,-128.5 1503.4,-63.5007 1278.3,-26.0799 1194.96,-14.4522"/>
<polygon fill="midnightblue" stroke="midnightblue" points="1195.23,-10.9566 1184.85,-13.0716 1194.28,-17.8922 1195.23,-10.9566"/>
</g>
<!-- Node3 -->
<g id="node4" class="node"><title>Node3</title>
<polygon fill="none" stroke="#bfbfbf" points="348.116,-120.5 348.116,-138.5 394.692,-138.5 394.692,-120.5 348.116,-120.5"/>
<text text-anchor="middle" x="371.404" y="-126.5" font-family="Helvetica,sans-Serif" font-size="10.00">chrono</text>
</g>
<!-- Node0&#45;&gt;Node3 -->
<g id="edge3" class="edge"><title>Node0&#45;&gt;Node3</title>
<path fill="none" stroke="midnightblue" d="M440.421,-377.765C349.989,-375.345 210.036,-366.297 169.404,-334 121.189,-295.676 132.239,-264.63 121.404,-204 119.136,-191.312 113.127,-184.88 121.404,-175 148.634,-142.495 276.109,-133.714 337.795,-131.356"/>
<polygon fill="midnightblue" stroke="midnightblue" points="337.936,-134.854 347.808,-131.009 337.692,-127.858 337.936,-134.854"/>
</g>
<!-- Node4 -->
<g id="node5" class="node"><title>Node4</title>
<polygon fill="none" stroke="#bfbfbf" points="0,-60.5 0,-78.5 58.8076,-78.5 58.8076,-60.5 0,-60.5"/>
<text text-anchor="middle" x="29.4038" y="-66.5" font-family="Helvetica,sans-Serif" font-size="10.00">exception</text>
</g>
<!-- Node0&#45;&gt;Node4 -->
<g id="edge4" class="edge"><title>Node0&#45;&gt;Node4</title>
<path fill="none" stroke="midnightblue" d="M440.605,-375.076C345,-369.957 191.221,-358.199 139.404,-334 93.399,-312.515 56.4038,-306.274 56.4038,-255.5 56.4038,-255.5 56.4038,-255.5 56.4038,-188.5 56.4038,-152.199 44.1113,-111.163 36.1148,-88.3086"/>
<polygon fill="midnightblue" stroke="midnightblue" points="39.3106,-86.8547 32.6071,-78.6502 32.7311,-89.2443 39.3106,-86.8547"/>
</g>
<!-- Node5 -->
<g id="node6" class="node"><title>Node5</title>
<polygon fill="none" stroke="#bfbfbf" points="218.84,-310.5 218.84,-328.5 275.968,-328.5 275.968,-310.5 218.84,-310.5"/>
<text text-anchor="middle" x="247.404" y="-316.5" font-family="Helvetica,sans-Serif" font-size="10.00">algorithm</text>
</g>
<!-- Node0&#45;&gt;Node5 -->
<g id="edge5" class="edge"><title>Node0&#45;&gt;Node5</title>
<path fill="none" stroke="midnightblue" d="M464.779,-370.448C416.813,-362.916 345.928,-350.377 285.404,-334 282.92,-333.328 280.367,-332.571 277.814,-331.766"/>
<polygon fill="midnightblue" stroke="midnightblue" points="278.721,-328.379 268.127,-328.513 276.492,-335.015 278.721,-328.379"/>
</g>
<!-- Node6 -->
<g id="node7" class="node"><title>Node6</title>
<polygon fill="none" stroke="#bfbfbf" points="294.306,-310.5 294.306,-328.5 416.502,-328.5 416.502,-310.5 294.306,-310.5"/>
<text text-anchor="middle" x="355.404" y="-316.5" font-family="Helvetica,sans-Serif" font-size="10.00">boost/exception_ptr.hpp</text>
</g>
<!-- Node0&#45;&gt;Node6 -->
<g id="edge6" class="edge"><title>Node0&#45;&gt;Node6</title>
<path fill="none" stroke="midnightblue" d="M497.461,-370.435C468.973,-360.421 420.198,-343.276 387.878,-331.915"/>
<polygon fill="midnightblue" stroke="midnightblue" points="389.012,-328.604 378.417,-328.589 386.69,-335.208 389.012,-328.604"/>
</g>
<!-- Node7 -->
<g id="node8" class="node"><title>Node7</title>
<polygon fill="none" stroke="#bfbfbf" points="425.476,-240.5 425.476,-268.5 559.332,-268.5 559.332,-240.5 425.476,-240.5"/>
<text text-anchor="start" x="433.476" y="-256.5" font-family="Helvetica,sans-Serif" font-size="10.00">boost/exception/diagnostic</text>
<text text-anchor="middle" x="492.404" y="-246.5" font-family="Helvetica,sans-Serif" font-size="10.00">_information.hpp</text>
</g>
<!-- Node0&#45;&gt;Node7 -->
<g id="edge7" class="edge"><title>Node0&#45;&gt;Node7</title>
<path fill="none" stroke="midnightblue" d="M516.009,-370.228C511.57,-361.481 504.887,-347.155 501.404,-334 496.629,-315.966 494.387,-294.94 493.335,-279.19"/>
<polygon fill="midnightblue" stroke="midnightblue" points="496.806,-278.563 492.76,-268.772 489.816,-278.949 496.806,-278.563"/>
</g>
<!-- Node8 -->
<g id="node9" class="node"><title>Node8</title>
<polygon fill="none" stroke="#bfbfbf" points="196.382,-175.5 196.382,-203.5 292.426,-203.5 292.426,-175.5 196.382,-175.5"/>
<text text-anchor="start" x="204.382" y="-191.5" font-family="Helvetica,sans-Serif" font-size="10.00">boost/serialization</text>
<text text-anchor="middle" x="244.404" y="-181.5" font-family="Helvetica,sans-Serif" font-size="10.00">/serialization.hpp</text>
</g>
<!-- Node0&#45;&gt;Node8 -->
<g id="edge8" class="edge"><title>Node0&#45;&gt;Node8</title>
<path fill="none" stroke="midnightblue" d="M440.503,-378.49C358.462,-376.577 238.749,-367.843 209.404,-334 179.282,-299.262 208.524,-242.79 228.75,-212.07"/>
<polygon fill="midnightblue" stroke="midnightblue" points="231.667,-214.005 234.41,-203.771 225.884,-210.06 231.667,-214.005"/>
</g>
<!-- Node9 -->
<g id="node10" class="node"><title>Node9</title>
<polygon fill="none" stroke="#bfbfbf" points="510.382,-305.5 510.382,-333.5 606.426,-333.5 606.426,-305.5 510.382,-305.5"/>
<text text-anchor="start" x="518.382" y="-321.5" font-family="Helvetica,sans-Serif" font-size="10.00">boost/serialization</text>
<text text-anchor="middle" x="558.404" y="-311.5" font-family="Helvetica,sans-Serif" font-size="10.00">/vector.hpp</text>
</g>
<!-- Node0&#45;&gt;Node9 -->
<g id="edge9" class="edge"><title>Node0&#45;&gt;Node9</title>
<path fill="none" stroke="midnightblue" d="M525.688,-370.435C530.434,-363.191 537.626,-352.213 544.059,-342.394"/>
<polygon fill="midnightblue" stroke="midnightblue" points="547.109,-344.126 549.662,-333.843 541.254,-340.289 547.109,-344.126"/>
</g>
<!-- Node10 -->
<g id="node11" class="node"><title>Node10</title>
<g id="a_node11"><a xlink:href="fmt_8h.html" target="_top" xlink:title="Utilities for formatting strings. ">
<polygon fill="none" stroke="black" points="884.601,-180.5 884.601,-198.5 1006.21,-198.5 1006.21,-180.5 884.601,-180.5"/>
<text text-anchor="middle" x="945.404" y="-186.5" font-family="Helvetica,sans-Serif" font-size="10.00">tomographer/tools/fmt.h</text>
</a>
</g>
</g>
<!-- Node0&#45;&gt;Node10 -->
<g id="edge10" class="edge"><title>Node0&#45;&gt;Node10</title>
<path fill="none" stroke="midnightblue" d="M600.452,-376.242C688.078,-372.374 821.688,-361.952 863.404,-334 908.412,-303.843 931.635,-240.11 940.725,-208.733"/>
<polygon fill="midnightblue" stroke="midnightblue" points="944.19,-209.328 943.448,-198.759 937.437,-207.484 944.19,-209.328"/>
</g>
<!-- Node32 -->
<g id="node33" class="node"><title>Node32</title>
<g id="a_node33"><a xlink:href="needownoperatornew_8h.html" target="_top" xlink:title="Managing the need for specific overrides to operator new() for some types (especially Eigen types) ...">
<polygon fill="none" stroke="black" points="440.727,-180.5 440.727,-198.5 644.081,-198.5 644.081,-180.5 440.727,-180.5"/>
<text text-anchor="middle" x="542.404" y="-186.5" font-family="Helvetica,sans-Serif" font-size="10.00">tomographer/tools/needownoperatornew.h</text>
</a>
</g>
</g>
<!-- Node0&#45;&gt;Node32 -->
<g id="edge40" class="edge"><title>Node0&#45;&gt;Node32</title>
<path fill="none" stroke="midnightblue" d="M560.464,-370.408C580.619,-364.094 603.286,-353.058 615.404,-334 643.919,-289.155 589.814,-231.771 560.082,-205.207"/>
<polygon fill="midnightblue" stroke="midnightblue" points="562.278,-202.479 552.431,-198.569 557.69,-207.766 562.278,-202.479"/>
</g>
<!-- Node34 -->
<g id="node35" class="node"><title>Node34</title>
<g id="a_node35"><a xlink:href="multiproc_8h.html" target="_top" xlink:title="Some common definitions for multiprocessing interfaces. ">
<polygon fill="none" stroke="black" points="283.212,-245.5 283.212,-263.5 407.596,-263.5 407.596,-245.5 283.212,-245.5"/>
<text text-anchor="middle" x="345.404" y="-251.5" font-family="Helvetica,sans-Serif" font-size="10.00">tomographer/multiproc.h</text>
</a>
</g>
</g>
<!-- Node0&#45;&gt;Node34 -->
<g id="edge44" class="edge"><title>Node0&#45;&gt;Node34</title>
<path fill="none" stroke="midnightblue" d="M510.675,-370.426C493.753,-356.507 457.62,-327.339 425.404,-305 406.667,-292.008 384.575,-278.465 368.36,-268.836"/>
<polygon fill="midnightblue" stroke="midnightblue" points="369.954,-265.713 359.561,-263.653 366.401,-271.744 369.954,-265.713"/>
</g>
<!-- Node35 -->
<g id="node36" class="node"><title>Node35</title>
<g id="a_node36"><a xlink:href="multiprocthreadcommon_8h.html" target="_top" xlink:title="Basic multiprocessing templates for thread&#45;based Tomographer::MultiProc implementations. ">
<polygon fill="none" stroke="black" points="662.862,-310.5 662.862,-328.5 853.945,-328.5 853.945,-310.5 662.862,-310.5"/>
<text text-anchor="middle" x="758.404" y="-316.5" font-family="Helvetica,sans-Serif" font-size="10.00">tomographer/multiprocthreadcommon.h</text>
</a>
</g>
</g>
<!-- Node0&#45;&gt;Node35 -->
<g id="edge52" class="edge"><title>Node0&#45;&gt;Node35</title>
<path fill="none" stroke="midnightblue" d="M553.497,-370.435C595.74,-360.141 668.909,-342.31 715.423,-330.974"/>
<polygon fill="midnightblue" stroke="midnightblue" points="716.322,-334.358 725.209,-328.589 714.665,-327.557 716.322,-334.358"/>
</g>
<!-- Node40 -->
<g id="node41" class="node"><title>Node40</title>
<polygon fill="none" stroke="#bfbfbf" points="1255.09,-310.5 1255.09,-328.5 1391.72,-328.5 1391.72,-310.5 1255.09,-310.5"/>
<text text-anchor="middle" x="1323.4" y="-316.5" font-family="Helvetica,sans-Serif" font-size="10.00">boost/mpi/environment.hpp</text>
</g>
<!-- Node0&#45;&gt;Node40 -->
<g id="edge73" class="edge"><title>Node0&#45;&gt;Node40</title>
<path fill="none" stroke="midnightblue" d="M600.117,-376.225C733.29,-371.832 1009.3,-360.2 1241.4,-334 1250.56,-332.966 1260.26,-331.607 1269.65,-330.15"/>
<polygon fill="midnightblue" stroke="midnightblue" points="1270.37,-333.581 1279.69,-328.541 1269.26,-326.669 1270.37,-333.581"/>
</g>
<!-- Node41 -->
<g id="node42" class="node"><title>Node41</title>
<polygon fill="none" stroke="#bfbfbf" points="1409.48,-310.5 1409.48,-328.5 1553.33,-328.5 1553.33,-310.5 1409.48,-310.5"/>
<text text-anchor="middle" x="1481.4" y="-316.5" font-family="Helvetica,sans-Serif" font-size="10.00">boost/mpi/communicator.hpp</text>
</g>
<!-- Node0&#45;&gt;Node41 -->
<g id="edge74" class="edge"><title>Node0&#45;&gt;Node41</title>
<path fill="none" stroke="midnightblue" d="M600.126,-377.525C754.856,-374.956 1106.5,-365.817 1400.4,-334 1409.56,-333.008 1419.26,-331.657 1428.64,-330.191"/>
<polygon fill="midnightblue" stroke="midnightblue" points="1429.34,-333.623 1438.65,-328.567 1428.22,-326.713 1429.34,-333.623"/>
</g>
<!-- Node42 -->
<g id="node43" class="node"><title>Node42</title>
<polygon fill="none" stroke="#bfbfbf" points="1571.54,-310.5 1571.54,-328.5 1699.27,-328.5 1699.27,-310.5 1571.54,-310.5"/>
<text text-anchor="middle" x="1635.4" y="-316.5" font-family="Helvetica,sans-Serif" font-size="10.00">boost/mpi/collectives.hpp</text>
</g>
<!-- Node0&#45;&gt;Node42 -->
<g id="edge75" class="edge"><title>Node0&#45;&gt;Node42</title>
<path fill="none" stroke="midnightblue" d="M600.112,-378.895C774.948,-378.93 1205.04,-374.472 1562.4,-334 1570.6,-333.072 1579.26,-331.765 1587.64,-330.325"/>
<polygon fill="midnightblue" stroke="midnightblue" points="1588.44,-333.736 1597.67,-328.521 1587.2,-326.847 1588.44,-333.736"/>
</g>
<!-- Node10&#45;&gt;Node2 -->
<g id="edge14" class="edge"><title>Node10&#45;&gt;Node2</title>
<path fill="none" stroke="midnightblue" d="M966.29,-180.387C1012.76,-161.914 1122.43,-115.856 1145.4,-84 1157.19,-67.6553 1161.67,-44.6175 1163.38,-28.7111"/>
<polygon fill="midnightblue" stroke="midnightblue" points="1166.88,-28.8344 1164.19,-18.5868 1159.9,-28.2753 1166.88,-28.8344"/>
</g>
<!-- Node10&#45;&gt;Node3 -->
<g id="edge13" class="edge"><title>Node10&#45;&gt;Node3</title>
<path fill="none" stroke="midnightblue" d="M884.403,-186.28C785.424,-181.945 583.684,-170.059 404.583,-138.918"/>
<polygon fill="midnightblue" stroke="midnightblue" points="405.177,-135.469 394.721,-137.18 403.962,-142.363 405.177,-135.469"/>
</g>
<!-- Node11 -->
<g id="node12" class="node"><title>Node11</title>
<polygon fill="none" stroke="#bfbfbf" points="1107.34,-120.5 1107.34,-138.5 1149.47,-138.5 1149.47,-120.5 1107.34,-120.5"/>
<text text-anchor="middle" x="1128.4" y="-126.5" font-family="Helvetica,sans-Serif" font-size="10.00">cstdio</text>
</g>
<!-- Node10&#45;&gt;Node11 -->
<g id="edge11" class="edge"><title>Node10&#45;&gt;Node11</title>
<path fill="none" stroke="midnightblue" d="M970.849,-180.435C1003.92,-169.953 1061.65,-151.657 1097.29,-140.361"/>
<polygon fill="midnightblue" stroke="midnightblue" points="1098.68,-143.593 1107.15,-137.235 1096.56,-136.92 1098.68,-143.593"/>
</g>
<!-- Node12 -->
<g id="node13" class="node"><title>Node12</title>
<polygon fill="none" stroke="#bfbfbf" points="1167.01,-120.5 1167.01,-138.5 1215.8,-138.5 1215.8,-120.5 1167.01,-120.5"/>
<text text-anchor="middle" x="1191.4" y="-126.5" font-family="Helvetica,sans-Serif" font-size="10.00">cstdarg</text>
</g>
<!-- Node10&#45;&gt;Node12 -->
<g id="edge12" class="edge"><title>Node10&#45;&gt;Node12</title>
<path fill="none" stroke="midnightblue" d="M981.268,-180.439C1021.66,-171.298 1089.53,-155.763 1156.97,-139.311"/>
<polygon fill="midnightblue" stroke="midnightblue" points="1158.03,-142.654 1166.91,-136.878 1156.37,-135.855 1158.03,-142.654"/>
</g>
<!-- Node13 -->
<g id="node14" class="node"><title>Node13</title>
<polygon fill="none" stroke="#bfbfbf" points="1233.62,-120.5 1233.62,-138.5 1285.18,-138.5 1285.18,-120.5 1233.62,-120.5"/>
<text text-anchor="middle" x="1259.4" y="-126.5" font-family="Helvetica,sans-Serif" font-size="10.00">sstream</text>
</g>
<!-- Node10&#45;&gt;Node13 -->
<g id="edge15" class="edge"><title>Node10&#45;&gt;Node13</title>
<path fill="none" stroke="midnightblue" d="M996.244,-180.463C1050.23,-171.709 1138.25,-156.808 1223.6,-139.059"/>
<polygon fill="midnightblue" stroke="midnightblue" points="1224.38,-142.471 1233.45,-136.994 1222.95,-135.62 1224.38,-142.471"/>
</g>
<!-- Node14 -->
<g id="node15" class="node"><title>Node14</title>
<polygon fill="none" stroke="#bfbfbf" points="808.231,-60.5 808.231,-78.5 862.576,-78.5 862.576,-60.5 808.231,-60.5"/>
<text text-anchor="middle" x="835.404" y="-66.5" font-family="Helvetica,sans-Serif" font-size="10.00">iostream</text>
</g>
<!-- Node10&#45;&gt;Node14 -->
<g id="edge16" class="edge"><title>Node10&#45;&gt;Node14</title>
<path fill="none" stroke="midnightblue" d="M929.508,-180.416C913.769,-171.809 889.724,-156.964 873.404,-139 859.716,-123.934 849.045,-103.07 842.541,-88.3377"/>
<polygon fill="midnightblue" stroke="midnightblue" points="845.66,-86.7265 838.558,-78.8644 839.207,-89.4393 845.66,-86.7265"/>
</g>
<!-- Node15 -->
<g id="node16" class="node"><title>Node15</title>
<polygon fill="none" stroke="#bfbfbf" points="1013.01,-120.5 1013.01,-138.5 1051.8,-138.5 1051.8,-120.5 1013.01,-120.5"/>
<text text-anchor="middle" x="1032.4" y="-126.5" font-family="Helvetica,sans-Serif" font-size="10.00">utility</text>
</g>
<!-- Node10&#45;&gt;Node15 -->
<g id="edge17" class="edge"><title>Node10&#45;&gt;Node15</title>
<path fill="none" stroke="midnightblue" d="M957.501,-180.435C971.446,-171.138 994.612,-155.694 1011.49,-144.439"/>
<polygon fill="midnightblue" stroke="midnightblue" points="1013.75,-147.142 1020.13,-138.683 1009.87,-141.318 1013.75,-147.142"/>
</g>
<!-- Node16 -->
<g id="node17" class="node"><title>Node16</title>
<polygon fill="none" stroke="#bfbfbf" points="882.788,-120.5 882.788,-138.5 926.02,-138.5 926.02,-120.5 882.788,-120.5"/>
<text text-anchor="middle" x="904.404" y="-126.5" font-family="Helvetica,sans-Serif" font-size="10.00">vector</text>
</g>
<!-- Node10&#45;&gt;Node16 -->
<g id="edge18" class="edge"><title>Node10&#45;&gt;Node16</title>
<path fill="none" stroke="midnightblue" d="M939.703,-180.435C933.652,-171.876 923.918,-158.105 916.203,-147.191"/>
<polygon fill="midnightblue" stroke="midnightblue" points="918.952,-145.017 910.322,-138.872 913.236,-149.058 918.952,-145.017"/>
</g>
<!-- Node17 -->
<g id="node18" class="node"><title>Node17</title>
<polygon fill="none" stroke="#bfbfbf" points="943.894,-120.5 943.894,-138.5 994.914,-138.5 994.914,-120.5 943.894,-120.5"/>
<text text-anchor="middle" x="969.404" y="-126.5" font-family="Helvetica,sans-Serif" font-size="10.00">iomanip</text>
</g>
<!-- Node10&#45;&gt;Node17 -->
<g id="edge19" class="edge"><title>Node10&#45;&gt;Node17</title>
<path fill="none" stroke="midnightblue" d="M948.741,-180.435C952.177,-172.132 957.641,-158.927 962.088,-148.181"/>
<polygon fill="midnightblue" stroke="midnightblue" points="965.35,-149.45 965.94,-138.872 958.882,-146.774 965.35,-149.45"/>
</g>
<!-- Node18 -->
<g id="node19" class="node"><title>Node18</title>
<polygon fill="none" stroke="#bfbfbf" points="1303,-120.5 1303,-138.5 1361.81,-138.5 1361.81,-120.5 1303,-120.5"/>
<text text-anchor="middle" x="1332.4" y="-126.5" font-family="Helvetica,sans-Serif" font-size="10.00">functional</text>
</g>
<!-- Node10&#45;&gt;Node18 -->
<g id="edge20" class="edge"><title>Node10&#45;&gt;Node18</title>
<path fill="none" stroke="midnightblue" d="M1006.48,-181.325C1074.22,-173.033 1186.93,-158.247 1293.07,-139.124"/>
<polygon fill="midnightblue" stroke="midnightblue" points="1293.78,-142.553 1302.99,-137.32 1292.53,-135.666 1293.78,-142.553"/>
</g>
<!-- Node19 -->
<g id="node20" class="node"><title>Node19</title>
<g id="a_node20"><a xlink:href="cxxutil_8h.html" target="_top" xlink:title="Some C++ utilities, with a tad of C++11 tricks. ">
<polygon fill="none" stroke="black" points="538.653,-120.5 538.653,-138.5 674.155,-138.5 674.155,-120.5 538.653,-120.5"/>
<text text-anchor="middle" x="606.404" y="-126.5" font-family="Helvetica,sans-Serif" font-size="10.00">tomographer/tools/cxxutil.h</text>
</a>
</g>
</g>
<!-- Node10&#45;&gt;Node19 -->
<g id="edge21" class="edge"><title>Node10&#45;&gt;Node19</title>
<path fill="none" stroke="midnightblue" d="M898.623,-180.496C837.245,-169.995 729.594,-151.577 663.488,-140.267"/>
<polygon fill="midnightblue" stroke="midnightblue" points="663.695,-136.751 653.248,-138.515 662.515,-143.651 663.695,-136.751"/>
</g>
<!-- Node19&#45;&gt;Node4 -->
<g id="edge28" class="edge"><title>Node19&#45;&gt;Node4</title>
<path fill="none" stroke="midnightblue" d="M538.497,-123.242C399.761,-112.445 94.9126,-88.4147 72.4038,-84 68.9198,-83.3167 65.3199,-82.4515 61.7548,-81.4903"/>
<polygon fill="midnightblue" stroke="midnightblue" points="62.5053,-78.0629 51.9241,-78.5989 60.5301,-84.7784 62.5053,-78.0629"/>
</g>
<!-- Node19&#45;&gt;Node14 -->
<g id="edge25" class="edge"><title>Node19&#45;&gt;Node14</title>
<path fill="none" stroke="midnightblue" d="M648.613,-120.443C687.997,-112.532 748.208,-99.4277 799.404,-84 801.533,-83.3584 803.717,-82.6552 805.907,-81.9173"/>
<polygon fill="midnightblue" stroke="midnightblue" points="807.135,-85.1952 815.382,-78.5433 804.787,-78.6009 807.135,-85.1952"/>
</g>
<!-- Node20 -->
<g id="node21" class="node"><title>Node20</title>
<polygon fill="none" stroke="#bfbfbf" points="66.2881,-0.5 66.2881,-18.5 114.52,-18.5 114.52,-0.5 66.2881,-0.5"/>
<text text-anchor="middle" x="90.4038" y="-6.5" font-family="Helvetica,sans-Serif" font-size="10.00">cassert</text>
</g>
<!-- Node19&#45;&gt;Node20 -->
<g id="edge22" class="edge"><title>Node19&#45;&gt;Node20</title>
<path fill="none" stroke="midnightblue" d="M538.573,-123.525C403.559,-113.482 113.392,-91.1348 105.404,-84 90.2514,-70.4661 87.9959,-46.1333 88.5459,-29.1884"/>
<polygon fill="midnightblue" stroke="midnightblue" points="92.0616,-29.0763 89.2508,-18.8612 85.0778,-28.5996 92.0616,-29.0763"/>
</g>
<!-- Node21 -->
<g id="node22" class="node"><title>Node21</title>
<polygon fill="none" stroke="#bfbfbf" points="234.283,-0.5 234.283,-18.5 282.524,-18.5 282.524,-0.5 234.283,-0.5"/>
<text text-anchor="middle" x="258.404" y="-6.5" font-family="Helvetica,sans-Serif" font-size="10.00">cstddef</text>
</g>
<!-- Node19&#45;&gt;Node21 -->
<g id="edge23" class="edge"><title>Node19&#45;&gt;Node21</title>
<path fill="none" stroke="midnightblue" d="M539.784,-120.496C461.872,-110.756 341.104,-94.3355 322.404,-84 298.388,-70.7269 279.116,-44.7747 268.215,-27.534"/>
<polygon fill="midnightblue" stroke="midnightblue" points="270.957,-25.3028 262.792,-18.5512 264.964,-28.9209 270.957,-25.3028"/>
</g>
<!-- Node22 -->
<g id="node23" class="node"><title>Node22</title>
<polygon fill="none" stroke="#bfbfbf" points="300.231,-0.5 300.231,-18.5 344.576,-18.5 344.576,-0.5 300.231,-0.5"/>
<text text-anchor="middle" x="322.404" y="-6.5" font-family="Helvetica,sans-Serif" font-size="10.00">cstdlib</text>
</g>
<!-- Node19&#45;&gt;Node22 -->
<g id="edge24" class="edge"><title>Node19&#45;&gt;Node22</title>
<path fill="none" stroke="midnightblue" d="M538.452,-120.956C464.807,-112.179 355.802,-97.2026 341.404,-84 326.25,-70.1044 322.509,-45.8507 321.899,-29.0228"/>
<polygon fill="midnightblue" stroke="midnightblue" points="325.399,-28.7695 321.875,-18.7777 318.399,-28.7858 325.399,-28.7695"/>
</g>
<!-- Node23 -->
<g id="node24" class="node"><title>Node23</title>
<polygon fill="none" stroke="#bfbfbf" points="350.786,-60.5 350.786,-78.5 404.022,-78.5 404.022,-60.5 350.786,-60.5"/>
<text text-anchor="middle" x="377.404" y="-66.5" font-family="Helvetica,sans-Serif" font-size="10.00">complex</text>
</g>
<!-- Node19&#45;&gt;Node23 -->
<g id="edge26" class="edge"><title>Node19&#45;&gt;Node23</title>
<path fill="none" stroke="midnightblue" d="M564.195,-120.443C524.81,-112.532 464.6,-99.4277 413.404,-84 411.275,-83.3584 409.09,-82.6552 406.901,-81.9173"/>
<polygon fill="midnightblue" stroke="midnightblue" points="408.021,-78.6009 397.426,-78.5433 405.672,-85.1952 408.021,-78.6009"/>
</g>
<!-- Node24 -->
<g id="node25" class="node"><title>Node24</title>
<polygon fill="none" stroke="#bfbfbf" points="728.337,-60.5 728.337,-78.5 790.47,-78.5 790.47,-60.5 728.337,-60.5"/>
<text text-anchor="middle" x="759.404" y="-66.5" font-family="Helvetica,sans-Serif" font-size="10.00">type_traits</text>
</g>
<!-- Node19&#45;&gt;Node24 -->
<g id="edge27" class="edge"><title>Node19&#45;&gt;Node24</title>
<path fill="none" stroke="midnightblue" d="M627.678,-120.435C653.793,-110.536 698.292,-93.6664 728.259,-82.3064"/>
<polygon fill="midnightblue" stroke="midnightblue" points="729.707,-85.5006 737.817,-78.6831 727.226,-78.9552 729.707,-85.5006"/>
</g>
<!-- Node25 -->
<g id="node26" class="node"><title>Node25</title>
<polygon fill="none" stroke="#bfbfbf" points="1078,-60.5 1078,-78.5 1136.81,-78.5 1136.81,-60.5 1078,-60.5"/>
<text text-anchor="middle" x="1107.4" y="-66.5" font-family="Helvetica,sans-Serif" font-size="10.00">stdexcept</text>
</g>
<!-- Node19&#45;&gt;Node25 -->
<g id="edge29" class="edge"><title>Node19&#45;&gt;Node25</title>
<path fill="none" stroke="midnightblue" d="M674.306,-127.171C765.271,-124.214 931.253,-114.688 1069.4,-84 1072.22,-83.3737 1075.12,-82.5988 1078,-81.7393"/>
<polygon fill="midnightblue" stroke="midnightblue" points="1079.16,-85.042 1087.56,-78.5849 1076.96,-78.3945 1079.16,-85.042"/>
</g>
<!-- Node26 -->
<g id="node27" class="node"><title>Node26</title>
<g id="a_node27"><a xlink:href="cxxdefs_8h.html" target="_top" xlink:title="Basic definitions, which may have to be defined before any Eigen headers or further utilities are inc...">
<polygon fill="none" stroke="black" points="114.594,-60.5 114.594,-78.5 256.214,-78.5 256.214,-60.5 114.594,-60.5"/>
<text text-anchor="middle" x="185.404" y="-66.5" font-family="Helvetica,sans-Serif" font-size="10.00">tomographer/tools/cxxdefs.h</text>
</a>
</g>
</g>
<!-- Node19&#45;&gt;Node26 -->
<g id="edge30" class="edge"><title>Node19&#45;&gt;Node26</title>
<path fill="none" stroke="midnightblue" d="M541.922,-120.462C474.229,-111.907 364.734,-97.7352 270.404,-84 262.114,-82.793 253.379,-81.4672 244.791,-80.1326"/>
<polygon fill="midnightblue" stroke="midnightblue" points="245.234,-76.6593 234.812,-78.5683 244.15,-83.5748 245.234,-76.6593"/>
</g>
<!-- Node28 -->
<g id="node29" class="node"><title>Node28</title>
<g id="a_node29"><a xlink:href="conststr_8h.html" target="_top" xlink:title="A constexpr string type, suitable for basic compile&#45;time string processing. ">
<polygon fill="none" stroke="black" points="918.313,-60.5 918.313,-78.5 1060.49,-78.5 1060.49,-60.5 918.313,-60.5"/>
<text text-anchor="middle" x="989.404" y="-66.5" font-family="Helvetica,sans-Serif" font-size="10.00">tomographer/tools/conststr.h</text>
</a>
</g>
</g>
<!-- Node19&#45;&gt;Node28 -->
<g id="edge35" class="edge"><title>Node19&#45;&gt;Node28</title>
<path fill="none" stroke="midnightblue" d="M659.256,-120.496C729.029,-109.93 851.727,-91.3492 926.288,-80.058"/>
<polygon fill="midnightblue" stroke="midnightblue" points="927.116,-83.4726 936.479,-78.5147 926.068,-76.5515 927.116,-83.4726"/>
</g>
<!-- Node29 -->
<g id="node30" class="node"><title>Node29</title>
<polygon fill="none" stroke="#bfbfbf" points="421.934,-60.5 421.934,-78.5 516.874,-78.5 516.874,-60.5 421.934,-60.5"/>
<text text-anchor="middle" x="469.404" y="-66.5" font-family="Helvetica,sans-Serif" font-size="10.00">boost/version.hpp</text>
</g>
<!-- Node19&#45;&gt;Node29 -->
<g id="edge37" class="edge"><title>Node19&#45;&gt;Node29</title>
<path fill="none" stroke="midnightblue" d="M587.355,-120.435C564.174,-110.622 524.816,-93.9593 497.994,-82.604"/>
<polygon fill="midnightblue" stroke="midnightblue" points="499.306,-79.3587 488.733,-78.6831 496.577,-85.8049 499.306,-79.3587"/>
</g>
<!-- Node30 -->
<g id="node31" class="node"><title>Node30</title>
<polygon fill="none" stroke="#bfbfbf" points="534.879,-55.5 534.879,-83.5 625.928,-83.5 625.928,-55.5 534.879,-55.5"/>
<text text-anchor="start" x="542.879" y="-71.5" font-family="Helvetica,sans-Serif" font-size="10.00">boost/units/detail</text>
<text text-anchor="middle" x="580.404" y="-61.5" font-family="Helvetica,sans-Serif" font-size="10.00">/utility.hpp</text>
</g>
<!-- Node19&#45;&gt;Node30 -->
<g id="edge38" class="edge"><title>Node19&#45;&gt;Node30</title>
<path fill="none" stroke="midnightblue" d="M602.789,-120.435C599.607,-113.338 594.82,-102.66 590.489,-92.9969"/>
<polygon fill="midnightblue" stroke="midnightblue" points="593.669,-91.5362 586.385,-83.8428 587.282,-94.3996 593.669,-91.5362"/>
</g>
<!-- Node31 -->
<g id="node32" class="node"><title>Node31</title>
<polygon fill="none" stroke="#bfbfbf" points="644.389,-60.5 644.389,-78.5 710.418,-78.5 710.418,-60.5 644.389,-60.5"/>
<text text-anchor="middle" x="677.404" y="-66.5" font-family="Helvetica,sans-Serif" font-size="10.00">Eigen/Core</text>
</g>
<!-- Node19&#45;&gt;Node31 -->
<g id="edge39" class="edge"><title>Node19&#45;&gt;Node31</title>
<path fill="none" stroke="midnightblue" d="M616.276,-120.435C627.383,-111.362 645.657,-96.434 659.337,-85.2589"/>
<polygon fill="midnightblue" stroke="midnightblue" points="661.625,-87.9088 667.156,-78.8718 657.197,-82.4877 661.625,-87.9088"/>
</g>
<!-- Node26&#45;&gt;Node20 -->
<g id="edge31" class="edge"><title>Node26&#45;&gt;Node20</title>
<path fill="none" stroke="midnightblue" d="M172.194,-60.4353C156.755,-51.0091 130.966,-35.2641 112.471,-23.9728"/>
<polygon fill="midnightblue" stroke="midnightblue" points="114.166,-20.9068 103.807,-18.6831 110.518,-26.8813 114.166,-20.9068"/>
</g>
<!-- Node26&#45;&gt;Node21 -->
<g id="edge32" class="edge"><title>Node26&#45;&gt;Node21</title>
<path fill="none" stroke="midnightblue" d="M195.554,-60.4353C206.974,-51.3619 225.763,-36.434 239.828,-25.2589"/>
<polygon fill="midnightblue" stroke="midnightblue" points="242.215,-27.8329 247.867,-18.8718 237.86,-22.3522 242.215,-27.8329"/>
</g>
<!-- Node26&#45;&gt;Node22 -->
<g id="edge33" class="edge"><title>Node26&#45;&gt;Node22</title>
<path fill="none" stroke="midnightblue" d="M204.453,-60.4353C227.634,-50.6217 266.991,-33.9593 293.813,-22.604"/>
<polygon fill="midnightblue" stroke="midnightblue" points="295.23,-25.8049 303.075,-18.6831 292.501,-19.3587 295.23,-25.8049"/>
</g>
<!-- Node27 -->
<g id="node28" class="node"><title>Node27</title>
<polygon fill="none" stroke="#bfbfbf" points="136.436,-0.5 136.436,-18.5 216.372,-18.5 216.372,-0.5 136.436,-0.5"/>
<text text-anchor="middle" x="176.404" y="-6.5" font-family="Helvetica,sans-Serif" font-size="10.00">boost/predef.h</text>
</g>
<!-- Node26&#45;&gt;Node27 -->
<g id="edge34" class="edge"><title>Node26&#45;&gt;Node27</title>
<path fill="none" stroke="midnightblue" d="M184.152,-60.4353C182.891,-52.3035 180.899,-39.4692 179.251,-28.8485"/>
<polygon fill="midnightblue" stroke="midnightblue" points="182.695,-28.2168 177.703,-18.8718 175.778,-29.2902 182.695,-28.2168"/>
</g>
<!-- Node28&#45;&gt;Node2 -->
<g id="edge36" class="edge"><title>Node28&#45;&gt;Node2</title>
<path fill="none" stroke="midnightblue" d="M1013.74,-60.4353C1045.23,-49.9982 1100.09,-31.8143 1134.21,-20.507"/>
<polygon fill="midnightblue" stroke="midnightblue" points="1135.69,-23.7032 1144.08,-17.2348 1133.49,-17.0586 1135.69,-23.7032"/>
</g>
<!-- Node32&#45;&gt;Node19 -->
<g id="edge43" class="edge"><title>Node32&#45;&gt;Node19</title>
<path fill="none" stroke="midnightblue" d="M551.303,-180.435C561.126,-171.533 577.168,-156.995 589.416,-145.895"/>
<polygon fill="midnightblue" stroke="midnightblue" points="592.106,-148.18 597.166,-138.872 587.406,-142.994 592.106,-148.18"/>
</g>
<!-- Node32&#45;&gt;Node24 -->
<g id="edge41" class="edge"><title>Node32&#45;&gt;Node24</title>
<path fill="none" stroke="midnightblue" d="M577.104,-180.439C606.712,-172.622 649.714,-158.993 683.404,-139 707.635,-124.62 731.017,-101.761 745.299,-86.4513"/>
<polygon fill="midnightblue" stroke="midnightblue" points="748.099,-88.5746 752.244,-78.8244 742.923,-83.8613 748.099,-88.5746"/>
</g>
<!-- Node33 -->
<g id="node34" class="node"><title>Node33</title>
<polygon fill="none" stroke="#bfbfbf" points="412.438,-120.5 412.438,-138.5 482.369,-138.5 482.369,-120.5 412.438,-120.5"/>
<text text-anchor="middle" x="447.404" y="-126.5" font-family="Helvetica,sans-Serif" font-size="10.00">Eigen/Eigen</text>
</g>
<!-- Node32&#45;&gt;Node33 -->
<g id="edge42" class="edge"><title>Node32&#45;&gt;Node33</title>
<path fill="none" stroke="midnightblue" d="M529.194,-180.435C513.755,-171.009 487.966,-155.264 469.471,-143.973"/>
<polygon fill="midnightblue" stroke="midnightblue" points="471.166,-140.907 460.807,-138.683 467.518,-146.881 471.166,-140.907"/>
</g>
<!-- Node34&#45;&gt;Node1 -->
<g id="edge45" class="edge"><title>Node34&#45;&gt;Node1</title>
<path fill="none" stroke="midnightblue" d="M317.195,-245.447C285.401,-236.191 232.294,-220.181 187.404,-204 185.984,-203.488 184.536,-202.952 183.077,-202.4"/>
<polygon fill="midnightblue" stroke="midnightblue" points="184.079,-199.033 173.492,-198.629 181.517,-205.547 184.079,-199.033"/>
</g>
<!-- Node34&#45;&gt;Node2 -->
<g id="edge46" class="edge"><title>Node34&#45;&gt;Node2</title>
<path fill="none" stroke="midnightblue" d="M386.281,-245.459C396.132,-243.595 406.633,-241.67 416.404,-240 521.422,-222.046 552.507,-238.219 653.404,-204 758.142,-168.479 778.743,-144.382 871.404,-84 889.203,-72.401 889.939,-63.5137 909.404,-55 985.546,-21.6958 1084.75,-13.2866 1133.96,-11.1844"/>
<polygon fill="midnightblue" stroke="midnightblue" points="1134.09,-14.682 1143.96,-10.8161 1133.84,-7.68671 1134.09,-14.682"/>
</g>
<!-- Node34&#45;&gt;Node3 -->
<g id="edge47" class="edge"><title>Node34&#45;&gt;Node3</title>
<path fill="none" stroke="midnightblue" d="M347.11,-245.43C351.222,-225.975 361.766,-176.094 367.518,-148.881"/>
<polygon fill="midnightblue" stroke="midnightblue" points="371.014,-149.269 369.658,-138.761 364.165,-147.821 371.014,-149.269"/>
</g>
<!-- Node34&#45;&gt;Node4 -->
<g id="edge48" class="edge"><title>Node34&#45;&gt;Node4</title>
<path fill="none" stroke="midnightblue" d="M342.944,-245.407C337.773,-229.688 324.323,-194.834 301.404,-175 265.094,-143.578 133.054,-101.291 67.2352,-81.534"/>
<polygon fill="midnightblue" stroke="midnightblue" points="67.8482,-78.0645 57.265,-78.5616 65.8483,-84.7728 67.8482,-78.0645"/>
</g>
<!-- Node34&#45;&gt;Node8 -->
<g id="edge49" class="edge"><title>Node34&#45;&gt;Node8</title>
<path fill="none" stroke="midnightblue" d="M332.2,-245.264C317.521,-236.108 293.343,-221.026 274.072,-209.006"/>
<polygon fill="midnightblue" stroke="midnightblue" points="275.68,-205.884 265.343,-203.561 271.975,-211.823 275.68,-205.884"/>
</g>
<!-- Node34&#45;&gt;Node10 -->
<g id="edge50" class="edge"><title>Node34&#45;&gt;Node10</title>
<path fill="none" stroke="midnightblue" d="M383.985,-245.477C394.469,-243.485 405.844,-241.495 416.404,-240 502.906,-227.757 751.029,-206.53 874.232,-196.318"/>
<polygon fill="midnightblue" stroke="midnightblue" points="874.643,-199.796 884.32,-195.483 874.066,-192.82 874.643,-199.796"/>
</g>
<!-- Node34&#45;&gt;Node32 -->
<g id="edge51" class="edge"><title>Node34&#45;&gt;Node32</title>
<path fill="none" stroke="midnightblue" d="M370.755,-245.393C405.552,-234.265 468.253,-214.213 507.475,-201.67"/>
<polygon fill="midnightblue" stroke="midnightblue" points="508.691,-204.956 517.15,-198.576 506.559,-198.288 508.691,-204.956"/>
</g>
<!-- Node35&#45;&gt;Node3 -->
<g id="edge53" class="edge"><title>Node35&#45;&gt;Node3</title>
<path fill="none" stroke="midnightblue" d="M739.655,-310.375C698.687,-292.682 602.149,-251.347 568.404,-240 508.731,-219.935 484.353,-238.056 431.404,-204 409.168,-189.698 391.23,-164.439 380.94,-147.583"/>
<polygon fill="midnightblue" stroke="midnightblue" points="383.86,-145.643 375.791,-138.777 377.817,-149.176 383.86,-145.643"/>
</g>
<!-- Node35&#45;&gt;Node7 -->
<g id="edge55" class="edge"><title>Node35&#45;&gt;Node7</title>
<path fill="none" stroke="midnightblue" d="M724.445,-310.457C682.471,-300.516 610.136,-283.384 557.362,-270.885"/>
<polygon fill="midnightblue" stroke="midnightblue" points="557.953,-267.428 547.415,-268.529 556.339,-274.24 557.953,-267.428"/>
</g>
<!-- Node35&#45;&gt;Node19 -->
<g id="edge69" class="edge"><title>Node35&#45;&gt;Node19</title>
<path fill="none" stroke="midnightblue" d="M753.191,-310.339C738.637,-287.8 695.849,-223.18 653.404,-175 644.191,-164.542 632.872,-153.772 623.651,-145.447"/>
<polygon fill="midnightblue" stroke="midnightblue" points="625.698,-142.584 615.893,-138.568 621.054,-147.822 625.698,-142.584"/>
</g>
<!-- Node35&#45;&gt;Node25 -->
<g id="edge54" class="edge"><title>Node35&#45;&gt;Node25</title>
<path fill="none" stroke="midnightblue" d="M854.022,-316.666C1018.01,-311.218 1341.75,-289.61 1408.4,-204 1424.53,-183.287 1392.22,-122.401 1389.4,-120 1353.51,-89.4029 1215.89,-76.9682 1147.07,-72.5817"/>
<polygon fill="midnightblue" stroke="midnightblue" points="1147.23,-69.0853 1137.04,-71.9685 1146.8,-76.0722 1147.23,-69.0853"/>
</g>
<!-- Node35&#45;&gt;Node32 -->
<g id="edge70" class="edge"><title>Node35&#45;&gt;Node32</title>
<path fill="none" stroke="midnightblue" d="M748.511,-310.492C729.731,-295.51 687.307,-262.708 648.404,-240 623.457,-225.439 593.514,-211.779 571.825,-202.513"/>
<polygon fill="midnightblue" stroke="midnightblue" points="573.062,-199.237 562.488,-198.578 570.344,-205.687 573.062,-199.237"/>
</g>
<!-- Node35&#45;&gt;Node34 -->
<g id="edge71" class="edge"><title>Node35&#45;&gt;Node34</title>
<path fill="none" stroke="midnightblue" d="M697.115,-310.46C628.578,-301.275 514.331,-285.389 416.404,-269 409.752,-267.887 402.764,-266.646 395.873,-265.38"/>
<polygon fill="midnightblue" stroke="midnightblue" points="396.371,-261.913 385.898,-263.52 395.087,-268.794 396.371,-261.913"/>
</g>
<!-- Node36 -->
<g id="node37" class="node"><title>Node36</title>
<g id="a_node37"><a xlink:href="loggers_8h.html" target="_top" xlink:title="Utilities for logging messages. ">
<polygon fill="none" stroke="black" points="1002.15,-245.5 1002.15,-263.5 1142.66,-263.5 1142.66,-245.5 1002.15,-245.5"/>
<text text-anchor="middle" x="1072.4" y="-251.5" font-family="Helvetica,sans-Serif" font-size="10.00">tomographer/tools/loggers.h</text>
</a>
</g>
</g>
<!-- Node35&#45;&gt;Node36 -->
<g id="edge56" class="edge"><title>Node35&#45;&gt;Node36</title>
<path fill="none" stroke="midnightblue" d="M798.491,-310.457C855.499,-299.019 959.951,-278.062 1022.09,-265.595"/>
<polygon fill="midnightblue" stroke="midnightblue" points="1022.94,-268.993 1032.06,-263.595 1021.57,-262.13 1022.94,-268.993"/>
</g>
<!-- Node39 -->
<g id="node40" class="node"><title>Node39</title>
<polygon fill="none" stroke="#bfbfbf" points="738.227,-245.5 738.227,-263.5 782.581,-263.5 782.581,-245.5 738.227,-245.5"/>
<text text-anchor="middle" x="760.404" y="-251.5" font-family="Helvetica,sans-Serif" font-size="10.00">thread</text>
</g>
<!-- Node35&#45;&gt;Node39 -->
<g id="edge72" class="edge"><title>Node35&#45;&gt;Node39</title>
<path fill="none" stroke="midnightblue" d="M758.665,-310.264C758.957,-301.064 759.439,-285.881 759.822,-273.833"/>
<polygon fill="midnightblue" stroke="midnightblue" points="763.329,-273.645 760.149,-263.539 756.333,-273.423 763.329,-273.645"/>
</g>
<!-- Node36&#45;&gt;Node2 -->
<g id="edge59" class="edge"><title>Node36&#45;&gt;Node2</title>
<path fill="none" stroke="midnightblue" d="M1143.04,-253.476C1231.29,-251.767 1374.83,-242.882 1408.4,-204 1481.78,-119.017 1275.53,-44.5739 1195.05,-19.4973"/>
<polygon fill="midnightblue" stroke="midnightblue" points="1195.59,-16.0033 1185.01,-16.4216 1193.54,-22.6965 1195.59,-16.0033"/>
</g>
<!-- Node36&#45;&gt;Node10 -->
<g id="edge67" class="edge"><title>Node36&#45;&gt;Node10</title>
<path fill="none" stroke="midnightblue" d="M1056.06,-245.393C1034.44,-234.666 996.101,-215.649 970.717,-203.057"/>
<polygon fill="midnightblue" stroke="midnightblue" points="972.198,-199.885 961.684,-198.576 969.087,-206.155 972.198,-199.885"/>
</g>
<!-- Node36&#45;&gt;Node11 -->
<g id="edge57" class="edge"><title>Node36&#45;&gt;Node11</title>
<path fill="none" stroke="midnightblue" d="M1067.57,-245.134C1059.59,-230.128 1045.74,-198.054 1058.4,-175 1066.82,-159.676 1083,-148.878 1097.68,-141.76"/>
<polygon fill="midnightblue" stroke="midnightblue" points="1099.31,-144.868 1107.02,-137.603 1096.46,-138.473 1099.31,-144.868"/>
</g>
<!-- Node36&#45;&gt;Node12 -->
<g id="edge58" class="edge"><title>Node36&#45;&gt;Node12</title>
<path fill="none" stroke="midnightblue" d="M1072.79,-245.109C1073.94,-229.489 1078.47,-195.666 1096.4,-175 1105.22,-164.844 1135.47,-151.6 1159.49,-142.208"/>
<polygon fill="midnightblue" stroke="midnightblue" points="1160.92,-145.412 1169,-138.564 1158.41,-138.876 1160.92,-145.412"/>
</g>
<!-- Node36&#45;&gt;Node13 -->
<g id="edge60" class="edge"><title>Node36&#45;&gt;Node13</title>
<path fill="none" stroke="midnightblue" d="M1076.73,-245.372C1085.54,-229.592 1107.03,-194.635 1134.4,-175 1149.01,-164.522 1192.29,-150.275 1223.83,-140.753"/>
<polygon fill="midnightblue" stroke="midnightblue" points="1225.03,-144.049 1233.61,-137.838 1223.03,-137.341 1225.03,-144.049"/>
</g>
<!-- Node36&#45;&gt;Node14 -->
<g id="edge61" class="edge"><title>Node36&#45;&gt;Node14</title>
<path fill="none" stroke="midnightblue" d="M1015.33,-245.488C964.586,-237.265 895.42,-222.995 875.404,-204 843.166,-173.406 836.597,-117.982 835.459,-89.1131"/>
<polygon fill="midnightblue" stroke="midnightblue" points="838.952,-88.7522 835.244,-78.8273 831.954,-88.8981 838.952,-88.7522"/>
</g>
<!-- Node36&#45;&gt;Node18 -->
<g id="edge62" class="edge"><title>Node36&#45;&gt;Node18</title>
<path fill="none" stroke="midnightblue" d="M1082.48,-245.414C1106.86,-225.881 1167.38,-177.541 1172.4,-175 1193.45,-164.35 1252.96,-149.134 1293.17,-139.54"/>
<polygon fill="midnightblue" stroke="midnightblue" points="1294.01,-142.937 1302.94,-137.228 1292.4,-136.125 1294.01,-142.937"/>
</g>
<!-- Node36&#45;&gt;Node24 -->
<g id="edge63" class="edge"><title>Node36&#45;&gt;Node24</title>
<path fill="none" stroke="midnightblue" d="M1001.97,-250.844C955.762,-246.111 895.884,-234.032 851.404,-204 807.773,-174.541 778.788,-116.87 766.338,-87.9334"/>
<polygon fill="midnightblue" stroke="midnightblue" points="769.564,-86.5764 762.502,-78.6783 763.098,-89.2564 769.564,-86.5764"/>
</g>
<!-- Node36&#45;&gt;Node26 -->
<g id="edge66" class="edge"><title>Node36&#45;&gt;Node26</title>
<path fill="none" stroke="midnightblue" d="M1029.01,-245.49C978.2,-236.016 891.552,-219.56 817.404,-204 688.982,-177.05 652.988,-183.108 529.404,-139 511.62,-132.653 509.374,-125.796 491.404,-120 468.972,-112.765 333.933,-92.2498 250.917,-80.0197"/>
<polygon fill="midnightblue" stroke="midnightblue" points="251.216,-76.5261 240.813,-78.5342 250.198,-83.4516 251.216,-76.5261"/>
</g>
<!-- Node36&#45;&gt;Node28 -->
<g id="edge68" class="edge"><title>Node36&#45;&gt;Node28</title>
<path fill="none" stroke="midnightblue" d="M1090.9,-245.449C1110.89,-236.434 1143.38,-220.862 1169.4,-204 1186.65,-192.827 1186.87,-183.871 1205.4,-175 1275.13,-141.623 1421.72,-177.814 1370.4,-120 1325.69,-69.6162 1136.08,-93.6075 1069.4,-84 1061.38,-82.8432 1052.91,-81.5237 1044.61,-80.1733"/>
<polygon fill="midnightblue" stroke="midnightblue" points="1045.05,-76.6983 1034.61,-78.5196 1043.91,-83.6045 1045.05,-76.6983"/>
</g>
<!-- Node37 -->
<g id="node38" class="node"><title>Node37</title>
<polygon fill="none" stroke="#bfbfbf" points="1214.68,-180.5 1214.68,-198.5 1250.13,-198.5 1250.13,-180.5 1214.68,-180.5"/>
<text text-anchor="middle" x="1232.4" y="-186.5" font-family="Helvetica,sans-Serif" font-size="10.00">map</text>
</g>
<!-- Node36&#45;&gt;Node37 -->
<g id="edge64" class="edge"><title>Node36&#45;&gt;Node37</title>
<path fill="none" stroke="midnightblue" d="M1093.77,-245.463C1119.25,-235.828 1163.07,-219.089 1200.4,-204 1201.98,-203.363 1203.6,-202.703 1205.23,-202.032"/>
<polygon fill="midnightblue" stroke="midnightblue" points="1206.62,-205.243 1214.5,-198.164 1203.93,-198.782 1206.62,-205.243"/>
</g>
<!-- Node38 -->
<g id="node39" class="node"><title>Node38</title>
<polygon fill="none" stroke="#bfbfbf" points="1267.87,-180.5 1267.87,-198.5 1398.94,-198.5 1398.94,-180.5 1267.87,-180.5"/>
<text text-anchor="middle" x="1333.4" y="-186.5" font-family="Helvetica,sans-Serif" font-size="10.00">boost/algorithm/string.hpp</text>
</g>
<!-- Node36&#45;&gt;Node38 -->
<g id="edge65" class="edge"><title>Node36&#45;&gt;Node38</title>
<path fill="none" stroke="midnightblue" d="M1105.72,-245.457C1152.62,-234.137 1238.15,-213.493 1289.97,-200.983"/>
<polygon fill="midnightblue" stroke="midnightblue" points="1290.97,-204.343 1299.87,-198.595 1289.33,-197.539 1290.97,-204.343"/>
</g>
</g>
</svg>
