<?xml version="1.0" encoding="UTF-8" standalone="no"?>
<!DOCTYPE svg PUBLIC "-//W3C//DTD SVG 1.1//EN"
 "http://www.w3.org/Graphics/SVG/1.1/DTD/svg11.dtd">
<!-- Generated by graphviz version 2.38.0 (20140413.2041)
 -->
<!-- Title: Tomographer::MHRWTasks::CDataBase&lt; MHWalkerParams_, IterCountIntType_, RngSeedType_ &gt; Pages: 1 -->
<!--zoomable 123 -->
<svg id="main" version="1.1" xmlns="http://www.w3.org/2000/svg" xmlns:xlink="http://www.w3.org/1999/xlink" xml:space="preserve" onload="init(evt)">
<style type="text/css"><![CDATA[
.edge:hover path { stroke: red; }
.edge:hover polygon { stroke: red; fill: red; }
]]></style>
<script type="text/javascript"><![CDATA[
var edges = document.getElementsByTagName('g');
if (edges && edges.length) {
  for (var i=0;i<edges.length;i++) {
    if (edges[i].id.substr(0,4)=='edge') {
      edges[i].setAttribute('class','edge');
    }
  }
}
]]></script>
        <defs>
                <circle id="rim" cx="0" cy="0" r="7"/>
                <circle id="rim2" cx="0" cy="0" r="3.5"/>
                <g id="zoomPlus">
                        <use xlink:href="#rim" fill="#404040">
                                <set attributeName="fill" to="#808080" begin="zoomplus.mouseover" end="zoomplus.mouseout"/>
                        </use>
                        <path d="M-4,0h8M0,-4v8" fill="none" stroke="white" stroke-width="1.5" pointer-events="none"/>
                </g>
                <g id="zoomMin">
                        <use xlink:href="#rim" fill="#404040">
                                <set attributeName="fill" to="#808080" begin="zoomminus.mouseover" end="zoomminus.mouseout"/>
                        </use>
                        <path d="M-4,0h8" fill="none" stroke="white" stroke-width="1.5" pointer-events="none"/>
                </g>
                <g id="dirArrow">
                        <path fill="none" stroke="white" stroke-width="1.5" d="M0,-3.0v7 M-2.5,-0.5L0,-3.0L2.5,-0.5"/>
                </g>
               <g id="resetDef">
                       <use xlink:href="#rim2" fill="#404040">
                               <set attributeName="fill" to="#808080" begin="reset.mouseover" end="reset.mouseout"/>
                       </use>
               </g>
        </defs>

<script type="text/javascript">
var viewWidth = 1051;
var viewHeight = 123;
var sectionId = 'dynsection-1';
</script>
<script xlink:href="svgpan.js"/>
<svg id="graph" class="graph">
<g id="viewport">
<title>Tomographer::MHRWTasks::CDataBase&lt; MHWalkerParams_, IterCountIntType_, RngSeedType_ &gt;</title>
<!-- Node2 -->
<g id="node1" class="node"><title>Node2</title>
<polygon fill="#bfbfbf" stroke="black" points="853.085,-63.5 853.085,-101.5 1042.82,-101.5 1042.82,-63.5 853.085,-63.5"/>
<text text-anchor="start" x="861.085" y="-89.5" font-family="Helvetica,sans-Serif" font-size="10.00">Tomographer::MHRWTasks</text>
<text text-anchor="start" x="861.085" y="-79.5" font-family="Helvetica,sans-Serif" font-size="10.00">::CDataBase&lt; MHWalkerParams</text>
<text text-anchor="middle" x="947.953" y="-69.5" font-family="Helvetica,sans-Serif" font-size="10.00">_, IterCountIntType_, RngSeedType_ &gt;</text>
</g>
<!-- Node3 -->
<g id="node2" class="node"><title>Node3</title>
<g id="a_node2"><a doxygen="/Users/philippe/Research/projects/tomographer/doc/cppreference-doxygen-web.tag.xml:http://en.cppreference.com/w/" xlink:href="http://en.cppreference.com/w/cpp/container/vector.html" target="_top" xlink:title="std::vector\&lt; RngSeedType \&gt;">
<polygon fill="none" stroke="black" points="597.994,-95.5 597.994,-113.5 740.742,-113.5 740.742,-95.5 597.994,-95.5"/>
<text text-anchor="middle" x="669.368" y="-101.5" font-family="Helvetica,sans-Serif" font-size="10.00">std::vector&lt; RngSeedType &gt;</text>
</a>
</g>
</g>
<!-- Node3&#45;&gt;Node2 -->
<g id="edge1" class="edge"><title>Node3&#45;&gt;Node2</title>
<path fill="none" stroke="#9a32cd" stroke-dasharray="5,2" d="M751.063,-98.0814C783.008,-95.5404 819.945,-92.6024 853.077,-89.967"/>
<polygon fill="#9a32cd" stroke="#9a32cd" points="750.569,-94.6096 740.878,-98.8915 751.124,-101.588 750.569,-94.6096"/>
<text text-anchor="middle" x="802.021" y="-97.5" font-family="Helvetica,sans-Serif" font-size="10.00"> task_seeds</text>
</g>
<!-- Node4 -->
<g id="node3" class="node"><title>Node4</title>
<g id="a_node3"><a doxygen="/Users/philippe/Research/projects/tomographer/doc/cppreference-doxygen-web.tag.xml:http://en.cppreference.com/w/" xlink:href="http://en.cppreference.com/w/cpp/container/vector.html" target="_top" xlink:title="STL class. ">
<polygon fill="none" stroke="black" points="275.303,-95.5 275.303,-113.5 360.424,-113.5 360.424,-95.5 275.303,-95.5"/>
<text text-anchor="middle" x="317.864" y="-101.5" font-family="Helvetica,sans-Serif" font-size="10.00">std::vector&lt; T &gt;</text>
</a>
</g>
</g>
<!-- Node4&#45;&gt;Node3 -->
<g id="edge2" class="edge"><title>Node4&#45;&gt;Node3</title>
<path fill="none" stroke="orange" stroke-dasharray="5,2" d="M370.715,-104.5C430.927,-104.5 530.561,-104.5 597.794,-104.5"/>
<polygon fill="orange" stroke="orange" points="370.675,-101 360.675,-104.5 370.675,-108 370.675,-101"/>
<text text-anchor="middle" x="500.36" y="-106.5" font-family="Helvetica,sans-Serif" font-size="10.00"> &lt; RngSeedType &gt;</text>
</g>
<!-- Node5 -->
<g id="node4" class="node"><title>Node5</title>
<polygon fill="none" stroke="#bfbfbf" points="36.6567,-95.5 36.6567,-113.5 65.6567,-113.5 65.6567,-95.5 36.6567,-95.5"/>
<text text-anchor="middle" x="51.1567" y="-101.5" font-family="Helvetica,sans-Serif" font-size="10.00">T</text>
</g>
<!-- Node5&#45;&gt;Node4 -->
<g id="edge3" class="edge"><title>Node5&#45;&gt;Node4</title>
<path fill="none" stroke="#9a32cd" stroke-dasharray="5,2" d="M76.2992,-104.5C121.42,-104.5 219.027,-104.5 275.055,-104.5"/>
<polygon fill="#9a32cd" stroke="#9a32cd" points="76.0159,-101 66.0158,-104.5 76.0158,-108 76.0159,-101"/>
<text text-anchor="middle" x="162.55" y="-106.5" font-family="Helvetica,sans-Serif" font-size="10.00"> elements</text>
</g>
<!-- Node6 -->
<g id="node5" class="node"><title>Node6</title>
<g id="a_node5"><a xlink:href="struct_tomographer_1_1_m_h_r_w_params.html" target="_top" xlink:title="Tomographer::MHRWParams\l\&lt; MHWalkerParams, IterCountInt\lType \&gt;">
<polygon fill="none" stroke="black" points="587.779,-38.5 587.779,-76.5 750.957,-76.5 750.957,-38.5 587.779,-38.5"/>
<text text-anchor="start" x="595.779" y="-64.5" font-family="Helvetica,sans-Serif" font-size="10.00">Tomographer::MHRWParams</text>
<text text-anchor="start" x="595.779" y="-54.5" font-family="Helvetica,sans-Serif" font-size="10.00">&lt; MHWalkerParams, IterCountInt</text>
<text text-anchor="middle" x="669.368" y="-44.5" font-family="Helvetica,sans-Serif" font-size="10.00">Type &gt;</text>
</a>
</g>
</g>
<!-- Node6&#45;&gt;Node2 -->
<g id="edge4" class="edge"><title>Node6&#45;&gt;Node2</title>
<path fill="none" stroke="#9a32cd" stroke-dasharray="5,2" d="M761.357,-65.7243C790.734,-68.3797 823.349,-71.3277 852.94,-74.0023"/>
<polygon fill="#9a32cd" stroke="#9a32cd" points="761.386,-62.2128 751.111,-64.7982 760.756,-69.1843 761.386,-62.2128"/>
<text text-anchor="middle" x="802.021" y="-73.5" font-family="Helvetica,sans-Serif" font-size="10.00"> mhrw_params</text>
</g>
<!-- Node7 -->
<g id="node6" class="node"><title>Node7</title>
<g id="a_node6"><a xlink:href="struct_tomographer_1_1_m_h_r_w_params.html" target="_top" xlink:title="Specify the parameters of a Metropolis&#45;Hastings random walk. ">
<polygon fill="none" stroke="black" points="222.786,-43.5 222.786,-71.5 412.941,-71.5 412.941,-43.5 222.786,-43.5"/>
<text text-anchor="start" x="230.786" y="-59.5" font-family="Helvetica,sans-Serif" font-size="10.00">Tomographer::MHRWParams</text>
<text text-anchor="middle" x="317.864" y="-49.5" font-family="Helvetica,sans-Serif" font-size="10.00">&lt; MHWalkerParams_, CountIntType_ &gt;</text>
</a>
</g>
</g>
<!-- Node7&#45;&gt;Node6 -->
<g id="edge5" class="edge"><title>Node7&#45;&gt;Node6</title>
<path fill="none" stroke="orange" stroke-dasharray="5,2" d="M423.041,-57.5C475.754,-57.5 538.764,-57.5 587.727,-57.5"/>
<polygon fill="orange" stroke="orange" points="422.984,-54.0001 412.984,-57.5 422.984,-61.0001 422.984,-54.0001"/>
<text text-anchor="start" x="430.941" y="-69.5" font-family="Helvetica,sans-Serif" font-size="10.00"> &lt; MHWalkerParams, IterCount</text>
<text text-anchor="middle" x="500.36" y="-59.5" font-family="Helvetica,sans-Serif" font-size="10.00">IntType &gt;</text>
</g>
<!-- Node8 -->
<g id="node7" class="node"><title>Node8</title>
<polygon fill="none" stroke="#bfbfbf" points="0,-53.5 0,-71.5 102.313,-71.5 102.313,-53.5 0,-53.5"/>
<text text-anchor="middle" x="51.1567" y="-59.5" font-family="Helvetica,sans-Serif" font-size="10.00">MHWalkerParams_</text>
</g>
<!-- Node8&#45;&gt;Node7 -->
<g id="edge6" class="edge"><title>Node8&#45;&gt;Node7</title>
<path fill="none" stroke="#9a32cd" stroke-dasharray="5,2" d="M112.824,-61.3541C145.351,-60.7397 186.152,-59.969 222.702,-59.2786"/>
<polygon fill="#9a32cd" stroke="#9a32cd" points="112.501,-57.8594 102.569,-61.5478 112.634,-64.8582 112.501,-57.8594"/>
<text text-anchor="middle" x="162.55" y="-62.5" font-family="Helvetica,sans-Serif" font-size="10.00"> mhwalker_params</text>
</g>
<!-- Node9 -->
<g id="node8" class="node"><title>Node9</title>
<polygon fill="none" stroke="#bfbfbf" points="10.6323,-0.5 10.6323,-18.5 91.6812,-18.5 91.6812,-0.5 10.6323,-0.5"/>
<text text-anchor="middle" x="51.1567" y="-6.5" font-family="Helvetica,sans-Serif" font-size="10.00">CountIntType_</text>
</g>
<!-- Node9&#45;&gt;Node7 -->
<g id="edge7" class="edge"><title>Node9&#45;&gt;Node7</title>
<path fill="none" stroke="#9a32cd" stroke-dasharray="5,2" d="M102.173,-12.5429C132.129,-14.9101 170.858,-18.9299 204.786,-25.5 228.03,-30.0011 253.438,-37.072 274.177,-43.4236"/>
<polygon fill="#9a32cd" stroke="#9a32cd" points="102.201,-9.03513 91.9656,-11.7731 101.674,-16.0153 102.201,-9.03513"/>
<text text-anchor="middle" x="162.55" y="-47.5" font-family="Helvetica,sans-Serif" font-size="10.00"> n_run</text>
<text text-anchor="middle" x="162.55" y="-37.5" font-family="Helvetica,sans-Serif" font-size="10.00">n_therm</text>
<text text-anchor="middle" x="162.55" y="-27.5" font-family="Helvetica,sans-Serif" font-size="10.00">n_sweep</text>
</g>
</g>
</svg>
        <g id="navigator" transform="translate(0 0)" fill="#404254">
                <rect fill="#f2f5e9" fill-opacity="0.5" stroke="#606060" stroke-width=".5" x="0" y="0" width="60" height="60"/>
                <use id="zoomplus" xlink:href="#zoomPlus" x="17" y="9" onmousedown="handleZoom(evt,'in')"/>
                <use id="zoomminus" xlink:href="#zoomMin" x="42" y="9" onmousedown="handleZoom(evt,'out')"/>
                <use id="reset" xlink:href="#resetDef" x="30" y="36" onmousedown="handleReset()"/>
                <g id="arrowUp" xlink:href="#dirArrow" transform="translate(30 24)" onmousedown="handlePan(0,-1)">
                  <use xlink:href="#rim" fill="#404040">
                        <set attributeName="fill" to="#808080" begin="arrowUp.mouseover" end="arrowUp.mouseout"/>
                  </use>
                  <path fill="none" stroke="white" stroke-width="1.5" d="M0,-3.0v7 M-2.5,-0.5L0,-3.0L2.5,-0.5"/>
                </g>
                <g id="arrowRight" xlink:href="#dirArrow" transform="rotate(90) translate(36 -43)" onmousedown="handlePan(1,0)">
                  <use xlink:href="#rim" fill="#404040">
                        <set attributeName="fill" to="#808080" begin="arrowRight.mouseover" end="arrowRight.mouseout"/>
                  </use>
                  <path fill="none" stroke="white" stroke-width="1.5" d="M0,-3.0v7 M-2.5,-0.5L0,-3.0L2.5,-0.5"/>
                </g>
                <g id="arrowDown" xlink:href="#dirArrow" transform="rotate(180) translate(-30 -48)" onmousedown="handlePan(0,1)">
                  <use xlink:href="#rim" fill="#404040">
                        <set attributeName="fill" to="#808080" begin="arrowDown.mouseover" end="arrowDown.mouseout"/>
                  </use>
                  <path fill="none" stroke="white" stroke-width="1.5" d="M0,-3.0v7 M-2.5,-0.5L0,-3.0L2.5,-0.5"/>
                </g>
                <g id="arrowLeft" xlink:href="#dirArrow" transform="rotate(270) translate(-36 17)" onmousedown="handlePan(-1,0)">
                  <use xlink:href="#rim" fill="#404040">
                        <set attributeName="fill" to="#808080" begin="arrowLeft.mouseover" end="arrowLeft.mouseout"/>
                  </use>
                  <path fill="none" stroke="white" stroke-width="1.5" d="M0,-3.0v7 M-2.5,-0.5L0,-3.0L2.5,-0.5"/>
                </g>
        </g>
        <svg viewBox="0 0 15 15" width="100%" height="30px" preserveAspectRatio="xMaxYMin meet">
         <g id="arrow_out" transform="scale(0.3 0.3)">
          <a xlink:href="struct_tomographer_1_1_m_h_r_w_tasks_1_1_c_data_base__coll__graph_org.svg" target="_base">
           <rect id="button" ry="5" rx="5" y="6" x="6" height="38" width="38"
                fill="#f2f5e9" fill-opacity="0.5" stroke="#606060" stroke-width="1.0"/>
           <path id="arrow"
             d="M 11.500037,31.436501 C 11.940474,20.09759 22.043105,11.32322 32.158766,21.979434 L 37.068811,17.246167 C 37.068811,17.246167 37.088388,32 37.088388,32 L 22.160133,31.978069 C 22.160133,31.978069 26.997745,27.140456 26.997745,27.140456 C 18.528582,18.264221 13.291696,25.230495 11.500037,31.436501 z"
             style="fill:#404040;"/>
          </a>
         </g>
        </svg>
</svg>
