<?xml version="1.0" encoding="UTF-8" standalone="no"?>
<!DOCTYPE svg PUBLIC "-//W3C//DTD SVG 1.1//EN"
 "http://www.w3.org/Graphics/SVG/1.1/DTD/svg11.dtd">
<!-- Generated by graphviz version 2.38.0 (20140413.2041)
 -->
<!-- Title: Tomographer::MHRWTasks::MHRandomWalkTaskResult&lt; MHRWStatsResultsType_, IterCountIntType, MHWalkerParams &gt; Pages: 1 -->
<svg width="1063pt" height="120pt"
 viewBox="0.00 0.00 1062.81 120.00" xmlns="http://www.w3.org/2000/svg" xmlns:xlink="http://www.w3.org/1999/xlink">
<g id="graph0" class="graph" transform="scale(1 1) rotate(0) translate(4 116)">
<title>Tomographer::MHRWTasks::MHRandomWalkTaskResult&lt; MHRWStatsResultsType_, IterCountIntType, MHWalkerParams &gt;</title>
<!-- Node2 -->
<g id="node1" class="node"><title>Node2</title>
<polygon fill="#bfbfbf" stroke="black" points="867.172,-47.5 867.172,-95.5 1054.81,-95.5 1054.81,-47.5 867.172,-47.5"/>
<text text-anchor="start" x="875.172" y="-83.5" font-family="Helvetica,sans-Serif" font-size="10.00">Tomographer::MHRWTasks</text>
<text text-anchor="start" x="875.172" y="-73.5" font-family="Helvetica,sans-Serif" font-size="10.00">::MHRandomWalkTaskResult</text>
<text text-anchor="start" x="875.172" y="-63.5" font-family="Helvetica,sans-Serif" font-size="10.00">&lt; MHRWStatsResultsType_,</text>
<text text-anchor="middle" x="960.992" y="-53.5" font-family="Helvetica,sans-Serif" font-size="10.00"> IterCountIntType, MHWalkerParams &gt;</text>
</g>
<!-- Node3 -->
<g id="node2" class="node"><title>Node3</title>
<polygon fill="none" stroke="#bfbfbf" points="587.779,-73.5 587.779,-111.5 765.044,-111.5 765.044,-73.5 587.779,-73.5"/>
<text text-anchor="start" x="595.779" y="-99.5" font-family="Helvetica,sans-Serif" font-size="10.00">Tools::NeedOwnOperatorNew</text>
<text text-anchor="start" x="595.779" y="-89.5" font-family="Helvetica,sans-Serif" font-size="10.00">::ProviderType&lt; MHRWStatsResults</text>
<text text-anchor="middle" x="676.412" y="-79.5" font-family="Helvetica,sans-Serif" font-size="10.00">Type_ &gt;</text>
</g>
<!-- Node3&#45;&gt;Node2 -->
<g id="edge1" class="edge"><title>Node3&#45;&gt;Node2</title>
<path fill="none" stroke="midnightblue" d="M775.61,-85.2024C805.19,-83.0042 837.556,-80.5988 866.801,-78.4255"/>
<polygon fill="midnightblue" stroke="midnightblue" points="774.986,-81.739 765.273,-85.9706 775.505,-88.7198 774.986,-81.739"/>
</g>
<!-- Node4 -->
<g id="node3" class="node"><title>Node4</title>
<g id="a_node3"><a xlink:href="struct_tomographer_1_1_m_h_r_w_params.html" target="_top" xlink:title="Tomographer::MHRWParams\l\&lt; MHWalkerParams, IterCountInt\lType \&gt;">
<polygon fill="none" stroke="black" points="594.823,-16.5 594.823,-54.5 758,-54.5 758,-16.5 594.823,-16.5"/>
<text text-anchor="start" x="602.823" y="-42.5" font-family="Helvetica,sans-Serif" font-size="10.00">Tomographer::MHRWParams</text>
<text text-anchor="start" x="602.823" y="-32.5" font-family="Helvetica,sans-Serif" font-size="10.00">&lt; MHWalkerParams, IterCountInt</text>
<text text-anchor="middle" x="676.412" y="-22.5" font-family="Helvetica,sans-Serif" font-size="10.00">Type &gt;</text>
</a>
</g>
</g>
<!-- Node4&#45;&gt;Node2 -->
<g id="edge2" class="edge"><title>Node4&#45;&gt;Node2</title>
<path fill="none" stroke="#9a32cd" stroke-dasharray="5,2" d="M768.131,-47.0573C799.754,-51.086 835.27,-55.6108 867.07,-59.662"/>
<polygon fill="#9a32cd" stroke="#9a32cd" points="768.372,-43.5599 758.01,-45.768 767.487,-50.5038 768.372,-43.5599"/>
<text text-anchor="middle" x="816.108" y="-58.5" font-family="Helvetica,sans-Serif" font-size="10.00"> mhrw_params</text>
</g>
<!-- Node5 -->
<g id="node4" class="node"><title>Node5</title>
<g id="a_node4"><a xlink:href="struct_tomographer_1_1_m_h_r_w_params.html" target="_top" xlink:title="Specify the parameters of a Metropolis&#45;Hastings random walk. ">
<polygon fill="none" stroke="black" points="222.786,-21.5 222.786,-49.5 412.941,-49.5 412.941,-21.5 222.786,-21.5"/>
<text text-anchor="start" x="230.786" y="-37.5" font-family="Helvetica,sans-Serif" font-size="10.00">Tomographer::MHRWParams</text>
<text text-anchor="middle" x="317.864" y="-27.5" font-family="Helvetica,sans-Serif" font-size="10.00">&lt; MHWalkerParams_, CountIntType_ &gt;</text>
</a>
</g>
</g>
<!-- Node5&#45;&gt;Node4 -->
<g id="edge3" class="edge"><title>Node5&#45;&gt;Node4</title>
<path fill="none" stroke="orange" stroke-dasharray="5,2" d="M423.09,-35.5C477.822,-35.5 543.877,-35.5 594.671,-35.5"/>
<polygon fill="orange" stroke="orange" points="423.009,-32.0001 413.009,-35.5 423.009,-39.0001 423.009,-32.0001"/>
<text text-anchor="start" x="430.941" y="-47.5" font-family="Helvetica,sans-Serif" font-size="10.00"> &lt; MHWalkerParams, IterCount</text>
<text text-anchor="middle" x="500.36" y="-37.5" font-family="Helvetica,sans-Serif" font-size="10.00">IntType &gt;</text>
</g>
<!-- Node6 -->
<g id="node5" class="node"><title>Node6</title>
<polygon fill="none" stroke="#bfbfbf" points="0,-53.5 0,-71.5 102.313,-71.5 102.313,-53.5 0,-53.5"/>
<text text-anchor="middle" x="51.1567" y="-59.5" font-family="Helvetica,sans-Serif" font-size="10.00">MHWalkerParams_</text>
</g>
<!-- Node6&#45;&gt;Node5 -->
<g id="edge4" class="edge"><title>Node6&#45;&gt;Node5</title>
<path fill="none" stroke="#9a32cd" stroke-dasharray="5,2" d="M112.824,-56.312C145.351,-52.9942 186.152,-48.8326 222.702,-45.1044"/>
<polygon fill="#9a32cd" stroke="#9a32cd" points="112.162,-52.8612 102.569,-57.358 112.873,-59.8251 112.162,-52.8612"/>
<text text-anchor="middle" x="162.55" y="-56.5" font-family="Helvetica,sans-Serif" font-size="10.00"> mhwalker_params</text>
</g>
<!-- Node7 -->
<g id="node6" class="node"><title>Node7</title>
<polygon fill="none" stroke="#bfbfbf" points="10.6323,-0.5 10.6323,-18.5 91.6812,-18.5 91.6812,-0.5 10.6323,-0.5"/>
<text text-anchor="middle" x="51.1567" y="-6.5" font-family="Helvetica,sans-Serif" font-size="10.00">CountIntType_</text>
</g>
<!-- Node7&#45;&gt;Node5 -->
<g id="edge5" class="edge"><title>Node7&#45;&gt;Node5</title>
<path fill="none" stroke="#9a32cd" stroke-dasharray="5,2" d="M102.01,-7.16006C131.908,-6.41903 170.635,-6.62405 204.786,-10.5 224.595,-12.7482 246.03,-17.0547 264.798,-21.4684"/>
<polygon fill="#9a32cd" stroke="#9a32cd" points="101.718,-3.66698 91.8247,-7.45715 101.923,-10.664 101.718,-3.66698"/>
<text text-anchor="middle" x="162.55" y="-32.5" font-family="Helvetica,sans-Serif" font-size="10.00"> n_run</text>
<text text-anchor="middle" x="162.55" y="-22.5" font-family="Helvetica,sans-Serif" font-size="10.00">n_therm</text>
<text text-anchor="middle" x="162.55" y="-12.5" font-family="Helvetica,sans-Serif" font-size="10.00">n_sweep</text>
</g>
</g>
</svg>
