<?xml version="1.0" encoding="UTF-8" standalone="no"?>
<!DOCTYPE svg PUBLIC "-//W3C//DTD SVG 1.1//EN"
 "http://www.w3.org/Graphics/SVG/1.1/DTD/svg11.dtd">
<!-- Generated by graphviz version 2.38.0 (20140413.2041)
 -->
<!-- Title: Tomographer::MultiProc::MPI::tomo_internal::SerializableDuration&lt; ChronoDurationType &gt; Pages: 1 -->
<svg width="636pt" height="57pt"
 viewBox="0.00 0.00 635.68 57.00" xmlns="http://www.w3.org/2000/svg" xmlns:xlink="http://www.w3.org/1999/xlink">
<g id="graph0" class="graph" transform="scale(1 1) rotate(0) translate(4 53)">
<title>Tomographer::MultiProc::MPI::tomo_internal::SerializableDuration&lt; ChronoDurationType &gt;</title>
<!-- Node0 -->
<g id="node1" class="node"><title>Node0</title>
<polygon fill="#bfbfbf" stroke="black" points="145.28,-0.5 145.28,-48.5 329.986,-48.5 329.986,-0.5 145.28,-0.5"/>
<text text-anchor="start" x="153.28" y="-36.5" font-family="Helvetica,sans-Serif" font-size="10.00">Tomographer::MultiProc</text>
<text text-anchor="start" x="153.28" y="-26.5" font-family="Helvetica,sans-Serif" font-size="10.00">::MPI::tomo_internal::</text>
<text text-anchor="start" x="153.28" y="-16.5" font-family="Helvetica,sans-Serif" font-size="10.00">SerializableDuration&lt; ChronoDuration</text>
<text text-anchor="middle" x="237.633" y="-6.5" font-family="Helvetica,sans-Serif" font-size="10.00">Type &gt;</text>
</g>
<!-- Node2 -->
<g id="node3" class="node"><title>Node2</title>
<g id="a_node3"><a xlink:href="struct_tomographer_1_1_multi_proc_1_1_m_p_i_1_1tomo__internal_1_1_serializable_duration.html" target="_top" xlink:title="Tomographer::MultiProc\l::MPI::tomo_internal::\lSerializableDuration\&lt; std\l::chrono::steady_clock::duration \&gt;">
<polygon fill="none" stroke="black" points="461.875,-0.5 461.875,-48.5 627.685,-48.5 627.685,-0.5 461.875,-0.5"/>
<text text-anchor="start" x="469.875" y="-36.5" font-family="Helvetica,sans-Serif" font-size="10.00">Tomographer::MultiProc</text>
<text text-anchor="start" x="469.875" y="-26.5" font-family="Helvetica,sans-Serif" font-size="10.00">::MPI::tomo_internal::</text>
<text text-anchor="start" x="469.875" y="-16.5" font-family="Helvetica,sans-Serif" font-size="10.00">SerializableDuration&lt; std</text>
<text text-anchor="middle" x="544.78" y="-6.5" font-family="Helvetica,sans-Serif" font-size="10.00">::chrono::steady_clock::duration &gt;</text>
</a>
</g>
</g>
<!-- Node0&#45;&gt;Node2 -->
<g id="edge2" class="edge"><title>Node0&#45;&gt;Node2</title>
<path fill="none" stroke="orange" stroke-dasharray="5,2" d="M340.357,-24.5C379.776,-24.5 424.309,-24.5 461.636,-24.5"/>
<polygon fill="orange" stroke="orange" points="340.187,-21.0001 330.187,-24.5 340.187,-28.0001 340.187,-21.0001"/>
<text text-anchor="start" x="347.986" y="-36.5" font-family="Helvetica,sans-Serif" font-size="10.00"> &lt; std::chrono::steady</text>
<text text-anchor="middle" x="395.931" y="-26.5" font-family="Helvetica,sans-Serif" font-size="10.00">_clock::duration &gt;</text>
</g>
<!-- Node1 -->
<g id="node2" class="node"><title>Node1</title>
<polygon fill="none" stroke="#bfbfbf" points="0,-15.5 0,-33.5 108.28,-33.5 108.28,-15.5 0,-15.5"/>
<text text-anchor="middle" x="54.1401" y="-21.5" font-family="Helvetica,sans-Serif" font-size="10.00">ChronoDurationType</text>
</g>
<!-- Node1&#45;&gt;Node0 -->
<g id="edge1" class="edge"><title>Node1&#45;&gt;Node0</title>
<path fill="none" stroke="midnightblue" d="M118.806,-24.5C127.325,-24.5 136.193,-24.5 145.073,-24.5"/>
<polygon fill="midnightblue" stroke="midnightblue" points="118.612,-21.0001 108.612,-24.5 118.612,-28.0001 118.612,-21.0001"/>
</g>
</g>
</svg>
