<?xml version="1.0" encoding="UTF-8" standalone="no"?>
<!DOCTYPE svg PUBLIC "-//W3C//DTD SVG 1.1//EN"
 "http://www.w3.org/Graphics/SVG/1.1/DTD/svg11.dtd">
<!-- Generated by graphviz version 2.38.0 (20140413.2041)
 -->
<!-- Title: Tomographer::MultiProc::ThreadCommon::TaskDispatcherBase&lt; TaskType_, TaskCountIntType_ &gt;::TaskInterruptedInnerException Pages: 1 -->
<svg width="202pt" height="263pt"
 viewBox="0.00 0.00 202.28 263.00" xmlns="http://www.w3.org/2000/svg" xmlns:xlink="http://www.w3.org/1999/xlink">
<g id="graph0" class="graph" transform="scale(1 1) rotate(0) translate(4 259)">
<title>Tomographer::MultiProc::ThreadCommon::TaskDispatcherBase&lt; TaskType_, TaskCountIntType_ &gt;::TaskInterruptedInnerException</title>
<!-- Node2 -->
<g id="node1" class="node"><title>Node2</title>
<polygon fill="#bfbfbf" stroke="black" points="0,-0.5 0,-48.5 180.473,-48.5 180.473,-0.5 0,-0.5"/>
<text text-anchor="start" x="8" y="-36.5" font-family="Helvetica,sans-Serif" font-size="10.00">Tomographer::MultiProc</text>
<text text-anchor="start" x="8" y="-26.5" font-family="Helvetica,sans-Serif" font-size="10.00">::ThreadCommon::TaskDispatcher</text>
<text text-anchor="start" x="8" y="-16.5" font-family="Helvetica,sans-Serif" font-size="10.00">Base&lt; TaskType_, TaskCountIntType</text>
<text text-anchor="middle" x="90.2363" y="-6.5" font-family="Helvetica,sans-Serif" font-size="10.00">_ &gt;::TaskInterruptedInnerException</text>
</g>
<!-- Node3 -->
<g id="node2" class="node"><title>Node3</title>
<g id="a_node2"><a doxygen="/Users/philippe/Research/projects/tomographer/doc/cppreference-doxygen-web.tag.xml:http://en.cppreference.com/w/" xlink:href="http://en.cppreference.com/w/cpp/error/exception.html" target="_top" xlink:title="STL class. ">
<polygon fill="none" stroke="black" points="21.3843,-95.5 21.3843,-113.5 99.0884,-113.5 99.0884,-95.5 21.3843,-95.5"/>
<text text-anchor="middle" x="60.2363" y="-101.5" font-family="Helvetica,sans-Serif" font-size="10.00">std::exception</text>
</a>
</g>
</g>
<!-- Node3&#45;&gt;Node2 -->
<g id="edge1" class="edge"><title>Node3&#45;&gt;Node2</title>
<path fill="none" stroke="midnightblue" d="M66.9458,-86.0553C71.2049,-74.9817 76.7641,-60.5278 81.3831,-48.5185"/>
<polygon fill="midnightblue" stroke="midnightblue" points="63.657,-84.8565 63.3339,-95.4464 70.1904,-87.3694 63.657,-84.8565"/>
</g>
<!-- Node4 -->
<g id="node3" class="node"><title>Node4</title>
<g id="a_node3"><a doxygen="/Users/philippe/Research/projects/tomographer/doc/cppreference-doxygen-web.tag.xml:http://en.cppreference.com/w/" xlink:href="http://en.cppreference.com/w/cpp/string/basic_string.html" target="_top" xlink:title="STL class. ">
<polygon fill="none" stroke="black" points="117.562,-95.5 117.562,-113.5 176.911,-113.5 176.911,-95.5 117.562,-95.5"/>
<text text-anchor="middle" x="147.236" y="-101.5" font-family="Helvetica,sans-Serif" font-size="10.00">std::string</text>
</a>
</g>
</g>
<!-- Node4&#45;&gt;Node2 -->
<g id="edge2" class="edge"><title>Node4&#45;&gt;Node2</title>
<path fill="none" stroke="#9a32cd" stroke-dasharray="5,2" d="M135.232,-87.0729C127.051,-75.8781 116.105,-60.8992 107.058,-48.5185"/>
<polygon fill="#9a32cd" stroke="#9a32cd" points="132.625,-89.4376 141.351,-95.4464 138.277,-85.3074 132.625,-89.4376"/>
<text text-anchor="middle" x="137.071" y="-69" font-family="Helvetica,sans-Serif" font-size="10.00"> msg</text>
</g>
<!-- Node5 -->
<g id="node4" class="node"><title>Node5</title>
<g id="a_node4"><a doxygen="/Users/philippe/Research/projects/tomographer/doc/cppreference-doxygen-web.tag.xml:http://en.cppreference.com/w/" xlink:href="http://en.cppreference.com/w/cpp/string/basic_string.html" target="_top" xlink:title="std::basic_string\&lt;\l char \&gt;">
<polygon fill="none" stroke="black" points="100.188,-151.5 100.188,-179.5 194.284,-179.5 194.284,-151.5 100.188,-151.5"/>
<text text-anchor="start" x="108.188" y="-167.5" font-family="Helvetica,sans-Serif" font-size="10.00">std::basic_string&lt;</text>
<text text-anchor="middle" x="147.236" y="-157.5" font-family="Helvetica,sans-Serif" font-size="10.00"> char &gt;</text>
</a>
</g>
</g>
<!-- Node5&#45;&gt;Node4 -->
<g id="edge3" class="edge"><title>Node5&#45;&gt;Node4</title>
<path fill="none" stroke="midnightblue" d="M147.236,-141.386C147.236,-131.594 147.236,-120.816 147.236,-113.653"/>
<polygon fill="midnightblue" stroke="midnightblue" points="143.736,-141.406 147.236,-151.406 150.736,-141.406 143.736,-141.406"/>
</g>
<!-- Node6 -->
<g id="node5" class="node"><title>Node6</title>
<g id="a_node5"><a doxygen="/Users/philippe/Research/projects/tomographer/doc/cppreference-doxygen-web.tag.xml:http://en.cppreference.com/w/" xlink:href="http://en.cppreference.com/w/cpp/string/basic_string.html" target="_top" xlink:title="STL class. ">
<polygon fill="none" stroke="black" points="100.188,-226.5 100.188,-254.5 194.284,-254.5 194.284,-226.5 100.188,-226.5"/>
<text text-anchor="start" x="108.188" y="-242.5" font-family="Helvetica,sans-Serif" font-size="10.00">std::basic_string&lt;</text>
<text text-anchor="middle" x="147.236" y="-232.5" font-family="Helvetica,sans-Serif" font-size="10.00"> Char &gt;</text>
</a>
</g>
</g>
<!-- Node6&#45;&gt;Node5 -->
<g id="edge4" class="edge"><title>Node6&#45;&gt;Node5</title>
<path fill="none" stroke="orange" stroke-dasharray="5,2" d="M147.236,-216.245C147.236,-204.265 147.236,-190.082 147.236,-179.932"/>
<polygon fill="orange" stroke="orange" points="143.736,-216.449 147.236,-226.449 150.736,-216.449 143.736,-216.449"/>
<text text-anchor="middle" x="166.97" y="-200" font-family="Helvetica,sans-Serif" font-size="10.00"> &lt; char &gt;</text>
</g>
</g>
</svg>
