<?xml version="1.0" encoding="UTF-8" standalone="no"?>
<!DOCTYPE svg PUBLIC "-//W3C//DTD SVG 1.1//EN"
 "http://www.w3.org/Graphics/SVG/1.1/DTD/svg11.dtd">
<!-- Generated by graphviz version 2.38.0 (20140413.2041)
 -->
<!-- Title: tomographer/tools/check_derivatives.h Pages: 1 -->
<svg width="212pt" height="92pt"
 viewBox="0.00 0.00 212.14 92.00" xmlns="http://www.w3.org/2000/svg" xmlns:xlink="http://www.w3.org/1999/xlink">
<g id="graph0" class="graph" transform="scale(1 1) rotate(0) translate(4 88)">
<title>tomographer/tools/check_derivatives.h</title>
<!-- Node1 -->
<g id="node1" class="node"><title>Node1</title>
<polygon fill="#bfbfbf" stroke="black" points="30.3696,-55.5 30.3696,-83.5 155.872,-83.5 155.872,-55.5 30.3696,-55.5"/>
<text text-anchor="start" x="38.3696" y="-71.5" font-family="Helvetica,sans-Serif" font-size="10.00">tomographer/tools/check</text>
<text text-anchor="middle" x="93.1206" y="-61.5" font-family="Helvetica,sans-Serif" font-size="10.00">_derivatives.h</text>
</g>
<!-- Node2 -->
<g id="node2" class="node"><title>Node2</title>
<polygon fill="none" stroke="#bfbfbf" points="0,-0.5 0,-18.5 48.2412,-18.5 48.2412,-0.5 0,-0.5"/>
<text text-anchor="middle" x="24.1206" y="-6.5" font-family="Helvetica,sans-Serif" font-size="10.00">cstddef</text>
</g>
<!-- Node1&#45;&gt;Node2 -->
<g id="edge1" class="edge"><title>Node1&#45;&gt;Node2</title>
<path fill="none" stroke="midnightblue" d="M77.4634,-55.3389C66.8173,-46.39 52.718,-34.5384 41.6886,-25.2673"/>
<polygon fill="midnightblue" stroke="midnightblue" points="43.8678,-22.5268 33.9608,-18.7715 39.3636,-27.8852 43.8678,-22.5268"/>
</g>
<!-- Node3 -->
<g id="node3" class="node"><title>Node3</title>
<polygon fill="none" stroke="#bfbfbf" points="65.9482,-0.5 65.9482,-18.5 120.293,-18.5 120.293,-0.5 65.9482,-0.5"/>
<text text-anchor="middle" x="93.1206" y="-6.5" font-family="Helvetica,sans-Serif" font-size="10.00">iostream</text>
</g>
<!-- Node1&#45;&gt;Node3 -->
<g id="edge2" class="edge"><title>Node1&#45;&gt;Node3</title>
<path fill="none" stroke="midnightblue" d="M93.1206,-55.3389C93.1206,-47.5305 93.1206,-37.5122 93.1206,-28.9265"/>
<polygon fill="midnightblue" stroke="midnightblue" points="96.6207,-28.7714 93.1206,-18.7715 89.6207,-28.7715 96.6207,-28.7714"/>
</g>
<!-- Node4 -->
<g id="node4" class="node"><title>Node4</title>
<polygon fill="none" stroke="#bfbfbf" points="138.106,-0.5 138.106,-18.5 204.135,-18.5 204.135,-0.5 138.106,-0.5"/>
<text text-anchor="middle" x="171.121" y="-6.5" font-family="Helvetica,sans-Serif" font-size="10.00">Eigen/Core</text>
</g>
<!-- Node1&#45;&gt;Node4 -->
<g id="edge3" class="edge"><title>Node1&#45;&gt;Node4</title>
<path fill="none" stroke="midnightblue" d="M110.82,-55.3389C122.973,-46.3022 139.106,-34.3057 151.627,-24.9954"/>
<polygon fill="midnightblue" stroke="midnightblue" points="154.061,-27.5472 159.997,-18.7715 149.884,-21.9299 154.061,-27.5472"/>
</g>
</g>
</svg>
