<?xml version="1.0" encoding="UTF-8" standalone="no"?>
<!DOCTYPE svg PUBLIC "-//W3C//DTD SVG 1.1//EN"
 "http://www.w3.org/Graphics/SVG/1.1/DTD/svg11.dtd">
<!-- Generated by graphviz version 2.38.0 (20140413.2041)
 -->
<!-- Title: Tomographer::Logger::VacuumLogger Pages: 1 -->
<svg width="175pt" height="178pt"
 viewBox="0.00 0.00 175.00 178.00" xmlns="http://www.w3.org/2000/svg" xmlns:xlink="http://www.w3.org/1999/xlink">
<g id="graph0" class="graph" transform="scale(1 1) rotate(0) translate(4 174)">
<title>Tomographer::Logger::VacuumLogger</title>
<!-- Node1 -->
<g id="node1" class="node"><title>Node1</title>
<polygon fill="#bfbfbf" stroke="black" points="24.0967,-0.5 24.0967,-28.5 135.712,-28.5 135.712,-0.5 24.0967,-0.5"/>
<text text-anchor="start" x="32.0967" y="-16.5" font-family="Helvetica,sans-Serif" font-size="10.00">Tomographer::Logger</text>
<text text-anchor="middle" x="79.9043" y="-6.5" font-family="Helvetica,sans-Serif" font-size="10.00">::VacuumLogger</text>
</g>
<!-- Node2 -->
<g id="node2" class="node"><title>Node2</title>
<g id="a_node2"><a xlink:href="class_tomographer_1_1_logger_1_1_logger_base.html" target="_top" xlink:title="Tomographer::Logger\l::LoggerBase\&lt; VacuumLogger \&gt;">
<polygon fill="none" stroke="black" points="0,-66.5 0,-94.5 159.809,-94.5 159.809,-66.5 0,-66.5"/>
<text text-anchor="start" x="8" y="-82.5" font-family="Helvetica,sans-Serif" font-size="10.00">Tomographer::Logger</text>
<text text-anchor="middle" x="79.9043" y="-72.5" font-family="Helvetica,sans-Serif" font-size="10.00">::LoggerBase&lt; VacuumLogger &gt;</text>
</a>
</g>
</g>
<!-- Node2&#45;&gt;Node1 -->
<g id="edge1" class="edge"><title>Node2&#45;&gt;Node1</title>
<path fill="none" stroke="midnightblue" d="M79.9043,-56.0946C79.9043,-46.8785 79.9043,-36.6352 79.9043,-28.7439"/>
<polygon fill="midnightblue" stroke="midnightblue" points="76.4044,-56.2391 79.9043,-66.2392 83.4044,-56.2392 76.4044,-56.2391"/>
</g>
<!-- Node3 -->
<g id="node3" class="node"><title>Node3</title>
<g id="a_node3"><a xlink:href="class_tomographer_1_1_logger_1_1_logger_base.html" target="_top" xlink:title="Base logger class. ">
<polygon fill="none" stroke="black" points="16.3135,-141.5 16.3135,-169.5 143.495,-169.5 143.495,-141.5 16.3135,-141.5"/>
<text text-anchor="start" x="24.3135" y="-157.5" font-family="Helvetica,sans-Serif" font-size="10.00">Tomographer::Logger</text>
<text text-anchor="middle" x="79.9043" y="-147.5" font-family="Helvetica,sans-Serif" font-size="10.00">::LoggerBase&lt; Derived &gt;</text>
</a>
</g>
</g>
<!-- Node3&#45;&gt;Node2 -->
<g id="edge2" class="edge"><title>Node3&#45;&gt;Node2</title>
<path fill="none" stroke="orange" stroke-dasharray="5,2" d="M79.9043,-131.245C79.9043,-119.265 79.9043,-105.082 79.9043,-94.9318"/>
<polygon fill="orange" stroke="orange" points="76.4044,-131.449 79.9043,-141.449 83.4044,-131.449 76.4044,-131.449"/>
<text text-anchor="middle" x="123.454" y="-115" font-family="Helvetica,sans-Serif" font-size="10.00"> &lt; VacuumLogger &gt;</text>
</g>
</g>
</svg>
