<?xml version="1.0" encoding="UTF-8" standalone="no"?>
<!DOCTYPE svg PUBLIC "-//W3C//DTD SVG 1.1//EN"
 "http://www.w3.org/Graphics/SVG/1.1/DTD/svg11.dtd">
<!-- Generated by graphviz version 2.38.0 (20140413.2041)
 -->
<!-- Title: tomographer/tools/fmt.h Pages: 1 -->
<svg width="575pt" height="257pt"
 viewBox="0.00 0.00 574.99 257.00" xmlns="http://www.w3.org/2000/svg" xmlns:xlink="http://www.w3.org/1999/xlink">
<g id="graph0" class="graph" transform="scale(1 1) rotate(0) translate(4 253)">
<title>tomographer/tools/fmt.h</title>
<!-- Node1 -->
<g id="node1" class="node"><title>Node1</title>
<polygon fill="#bfbfbf" stroke="black" points="107.998,-230.5 107.998,-248.5 229.603,-248.5 229.603,-230.5 107.998,-230.5"/>
<text text-anchor="middle" x="168.8" y="-236.5" font-family="Helvetica,sans-Serif" font-size="10.00">tomographer/tools/fmt.h</text>
</g>
<!-- Node2 -->
<g id="node2" class="node"><title>Node2</title>
<g id="a_node2"><a xlink:href="histogram_8h.html" target="_top" xlink:title="Definitions for Histogram Types. ">
<polygon fill="none" stroke="black" points="28.9385,-175.5 28.9385,-193.5 156.662,-193.5 156.662,-175.5 28.9385,-175.5"/>
<text text-anchor="middle" x="92.8003" y="-181.5" font-family="Helvetica,sans-Serif" font-size="10.00">tomographer/histogram.h</text>
</a>
</g>
</g>
<!-- Node1&#45;&gt;Node2 -->
<g id="edge1" class="edge"><title>Node1&#45;&gt;Node2</title>
<path fill="none" stroke="midnightblue" d="M148.713,-224.492C134.599,-214.649 116.211,-201.826 104.452,-193.625"/>
<polygon fill="midnightblue" stroke="midnightblue" points="147.053,-227.601 157.258,-230.45 151.057,-221.859 147.053,-227.601"/>
</g>
<!-- Node5 -->
<g id="node5" class="node"><title>Node5</title>
<g id="a_node5"><a xlink:href="mhrwtasks_8h.html" target="_top" xlink:title="Multiprocessing tasks interface (see Task Manager/Dispatcher Interfaces) for parallel Metropolis&#45;Hast...">
<polygon fill="none" stroke="black" points="0,-0.5 0,-18.5 131.601,-18.5 131.601,-0.5 0,-0.5"/>
<text text-anchor="middle" x="65.8003" y="-6.5" font-family="Helvetica,sans-Serif" font-size="10.00">tomographer/mhrwtasks.h</text>
</a>
</g>
</g>
<!-- Node1&#45;&gt;Node5 -->
<g id="edge5" class="edge"><title>Node1&#45;&gt;Node5</title>
<path fill="none" stroke="midnightblue" d="M97.7553,-235.154C68.787,-229.85 37.907,-218.305 19.8003,-194 -22.3858,-137.373 38.7331,-46.4324 59.3923,-18.7553"/>
<polygon fill="midnightblue" stroke="midnightblue" points="97.4699,-238.652 107.898,-236.78 98.5781,-231.741 97.4699,-238.652"/>
</g>
<!-- Node6 -->
<g id="node6" class="node"><title>Node6</title>
<g id="a_node6"><a xlink:href="ezmatio_8h.html" target="_top" xlink:title="Utilities for reading MATLAB &quot;*.mat&quot; data files. See Tomographer::MAT. ">
<polygon fill="none" stroke="black" points="174.434,-175.5 174.434,-193.5 317.167,-193.5 317.167,-175.5 174.434,-175.5"/>
<text text-anchor="middle" x="245.8" y="-181.5" font-family="Helvetica,sans-Serif" font-size="10.00">tomographer/tools/ezmatio.h</text>
</a>
</g>
</g>
<!-- Node1&#45;&gt;Node6 -->
<g id="edge6" class="edge"><title>Node1&#45;&gt;Node6</title>
<path fill="none" stroke="midnightblue" d="M188.745,-224.772C203.096,-214.894 221.969,-201.904 233.996,-193.625"/>
<polygon fill="midnightblue" stroke="midnightblue" points="186.748,-221.898 180.495,-230.45 190.717,-227.664 186.748,-221.898"/>
</g>
<!-- Node7 -->
<g id="node7" class="node"><title>Node7</title>
<g id="a_node7"><a xlink:href="loggers_8h.html" target="_top" xlink:title="Utilities for logging messages. ">
<polygon fill="none" stroke="black" points="335.542,-175.5 335.542,-193.5 476.059,-193.5 476.059,-175.5 335.542,-175.5"/>
<text text-anchor="middle" x="405.8" y="-181.5" font-family="Helvetica,sans-Serif" font-size="10.00">tomographer/tools/loggers.h</text>
</a>
</g>
</g>
<!-- Node1&#45;&gt;Node7 -->
<g id="edge7" class="edge"><title>Node1&#45;&gt;Node7</title>
<path fill="none" stroke="midnightblue" d="M214.658,-228.245C259.967,-218.113 328.343,-202.822 369.855,-193.538"/>
<polygon fill="midnightblue" stroke="midnightblue" points="213.791,-224.852 204.795,-230.45 215.318,-231.684 213.791,-224.852"/>
</g>
<!-- Node3 -->
<g id="node3" class="node"><title>Node3</title>
<g id="a_node3"><a xlink:href="mhrw_8h.html" target="_top" xlink:title="Routines for performing a Metropolis&#45;Hastings random walk. ">
<polygon fill="none" stroke="black" points="76.9434,-55.5 76.9434,-73.5 184.657,-73.5 184.657,-55.5 76.9434,-55.5"/>
<text text-anchor="middle" x="130.8" y="-61.5" font-family="Helvetica,sans-Serif" font-size="10.00">tomographer/mhrw.h</text>
</a>
</g>
</g>
<!-- Node2&#45;&gt;Node3 -->
<g id="edge2" class="edge"><title>Node2&#45;&gt;Node3</title>
<path fill="none" stroke="midnightblue" d="M98.5273,-165.716C106.882,-139.774 122.078,-92.5862 128.17,-73.6674"/>
<polygon fill="midnightblue" stroke="midnightblue" points="95.1461,-164.798 95.4122,-175.389 101.809,-166.944 95.1461,-164.798"/>
</g>
<!-- Node4 -->
<g id="node4" class="node"><title>Node4</title>
<g id="a_node4"><a xlink:href="dmmhrw_8h.html" target="_top" xlink:title="Definitions for a Metropolis&#45;Hastings random walk on a quantum state space with dense matrix type...">
<polygon fill="none" stroke="black" points="334.998,-0.5 334.998,-18.5 456.603,-18.5 456.603,-0.5 334.998,-0.5"/>
<text text-anchor="middle" x="395.8" y="-6.5" font-family="Helvetica,sans-Serif" font-size="10.00">tomographer/dmmhrw.h</text>
</a>
</g>
</g>
<!-- Node3&#45;&gt;Node4 -->
<g id="edge3" class="edge"><title>Node3&#45;&gt;Node4</title>
<path fill="none" stroke="midnightblue" d="M181.121,-53.4358C231.772,-43.3056 308.9,-27.8801 355.609,-18.5383"/>
<polygon fill="midnightblue" stroke="midnightblue" points="180.167,-50.0572 171.048,-55.4504 181.54,-56.9212 180.167,-50.0572"/>
</g>
<!-- Node3&#45;&gt;Node5 -->
<g id="edge4" class="edge"><title>Node3&#45;&gt;Node5</title>
<path fill="none" stroke="midnightblue" d="M112.926,-48.9259C100.952,-39.1622 85.6306,-26.6693 75.7653,-18.6253"/>
<polygon fill="midnightblue" stroke="midnightblue" points="110.966,-51.8436 120.928,-55.4504 115.39,-46.4184 110.966,-51.8436"/>
</g>
<!-- Node7&#45;&gt;Node3 -->
<g id="edge9" class="edge"><title>Node7&#45;&gt;Node3</title>
<path fill="none" stroke="midnightblue" d="M327.39,-174.196C257.037,-165.154 162.878,-151.061 149.8,-139 131.198,-121.844 129.812,-89.0784 130.281,-73.7677"/>
<polygon fill="midnightblue" stroke="midnightblue" points="327.223,-177.703 337.585,-175.492 328.107,-170.758 327.223,-177.703"/>
</g>
<!-- Node7&#45;&gt;Node4 -->
<g id="edge8" class="edge"><title>Node7&#45;&gt;Node4</title>
<path fill="none" stroke="midnightblue" d="M486.213,-174.245C534.285,-164.872 582.37,-146.312 561.8,-110 532.653,-58.5463 465.122,-30.8121 425.762,-18.5031"/>
<polygon fill="midnightblue" stroke="midnightblue" points="485.51,-170.816 476.301,-176.055 486.767,-177.702 485.51,-170.816"/>
</g>
<!-- Node8 -->
<g id="node8" class="node"><title>Node8</title>
<g id="a_node8"><a xlink:href="mhrw__bin__err_8h.html" target="_top" xlink:title="Binning Analysis in a Metropolis&#45;Hastings random walk. ">
<polygon fill="none" stroke="black" points="434.387,-110.5 434.387,-138.5 553.214,-138.5 553.214,-110.5 434.387,-110.5"/>
<text text-anchor="start" x="442.387" y="-126.5" font-family="Helvetica,sans-Serif" font-size="10.00">tomographer/mhrw_bin</text>
<text text-anchor="middle" x="493.8" y="-116.5" font-family="Helvetica,sans-Serif" font-size="10.00">_err.h</text>
</a>
</g>
</g>
<!-- Node7&#45;&gt;Node8 -->
<g id="edge10" class="edge"><title>Node7&#45;&gt;Node8</title>
<path fill="none" stroke="midnightblue" d="M426.677,-169.74C440.97,-160.32 459.812,-147.901 473.894,-138.62"/>
<polygon fill="midnightblue" stroke="midnightblue" points="424.46,-167.01 418.036,-175.435 428.312,-172.855 424.46,-167.01"/>
</g>
<!-- Node9 -->
<g id="node9" class="node"><title>Node9</title>
<g id="a_node9"><a xlink:href="random__unitary_8h.html" target="_top" xlink:title="Produce a random unitary according to the Haar measure. ">
<polygon fill="none" stroke="black" points="158.438,-110.5 158.438,-138.5 281.162,-138.5 281.162,-110.5 158.438,-110.5"/>
<text text-anchor="start" x="166.438" y="-126.5" font-family="Helvetica,sans-Serif" font-size="10.00">tomographer/qit/random</text>
<text text-anchor="middle" x="219.8" y="-116.5" font-family="Helvetica,sans-Serif" font-size="10.00">_unitary.h</text>
</a>
</g>
</g>
<!-- Node7&#45;&gt;Node9 -->
<g id="edge12" class="edge"><title>Node7&#45;&gt;Node9</title>
<path fill="none" stroke="midnightblue" d="M369.994,-172.335C338.995,-162.668 294.137,-148.68 261.521,-138.51"/>
<polygon fill="midnightblue" stroke="midnightblue" points="369.349,-175.8 379.938,-175.435 371.433,-169.117 369.349,-175.8"/>
</g>
<!-- Node10 -->
<g id="node10" class="node"><title>Node10</title>
<g id="a_node10"><a xlink:href="simple__find__zero_8h.html" target="_top" xlink:title="A very simplistic tool for finding a relatively straightforward zero with few iterations. ">
<polygon fill="none" stroke="black" points="298.943,-110.5 298.943,-138.5 416.657,-138.5 416.657,-110.5 298.943,-110.5"/>
<text text-anchor="start" x="306.943" y="-126.5" font-family="Helvetica,sans-Serif" font-size="10.00">tomographer/qit/simple</text>
<text text-anchor="middle" x="357.8" y="-116.5" font-family="Helvetica,sans-Serif" font-size="10.00">_find_zero.h</text>
</a>
</g>
</g>
<!-- Node7&#45;&gt;Node10 -->
<g id="edge13" class="edge"><title>Node7&#45;&gt;Node10</title>
<path fill="none" stroke="midnightblue" d="M392.637,-167.595C385.169,-158.571 375.93,-147.406 368.843,-138.843"/>
<polygon fill="midnightblue" stroke="midnightblue" points="390.054,-169.963 399.126,-175.435 395.447,-165.5 390.054,-169.963"/>
</g>
<!-- Node8&#45;&gt;Node3 -->
<g id="edge11" class="edge"><title>Node8&#45;&gt;Node3</title>
<path fill="none" stroke="midnightblue" d="M424.105,-109.748C334.845,-94.3279 241.854,-80.8513 184.752,-72.8747"/>
<polygon fill="midnightblue" stroke="midnightblue" points="423.674,-113.226 434.125,-111.491 424.873,-106.329 423.674,-113.226"/>
</g>
</g>
</svg>
