<?xml version="1.0" encoding="UTF-8" standalone="no"?>
<!DOCTYPE svg PUBLIC "-//W3C//DTD SVG 1.1//EN"
 "http://www.w3.org/Graphics/SVG/1.1/DTD/svg11.dtd">
<!-- Generated by graphviz version 2.38.0 (20140413.2041)
 -->
<!-- Title: tomographer/tools/loggers.h Pages: 1 -->
<!--zoomable 247 -->
<svg id="main" version="1.1" xmlns="http://www.w3.org/2000/svg" xmlns:xlink="http://www.w3.org/1999/xlink" xml:space="preserve" onload="init(evt)">
<style type="text/css"><![CDATA[
.edge:hover path { stroke: red; }
.edge:hover polygon { stroke: red; fill: red; }
]]></style>
<script type="text/javascript"><![CDATA[
var edges = document.getElementsByTagName('g');
if (edges && edges.length) {
  for (var i=0;i<edges.length;i++) {
    if (edges[i].id.substr(0,4)=='edge') {
      edges[i].setAttribute('class','edge');
    }
  }
}
]]></script>
        <defs>
                <circle id="rim" cx="0" cy="0" r="7"/>
                <circle id="rim2" cx="0" cy="0" r="3.5"/>
                <g id="zoomPlus">
                        <use xlink:href="#rim" fill="#404040">
                                <set attributeName="fill" to="#808080" begin="zoomplus.mouseover" end="zoomplus.mouseout"/>
                        </use>
                        <path d="M-4,0h8M0,-4v8" fill="none" stroke="white" stroke-width="1.5" pointer-events="none"/>
                </g>
                <g id="zoomMin">
                        <use xlink:href="#rim" fill="#404040">
                                <set attributeName="fill" to="#808080" begin="zoomminus.mouseover" end="zoomminus.mouseout"/>
                        </use>
                        <path d="M-4,0h8" fill="none" stroke="white" stroke-width="1.5" pointer-events="none"/>
                </g>
                <g id="dirArrow">
                        <path fill="none" stroke="white" stroke-width="1.5" d="M0,-3.0v7 M-2.5,-0.5L0,-3.0L2.5,-0.5"/>
                </g>
               <g id="resetDef">
                       <use xlink:href="#rim2" fill="#404040">
                               <set attributeName="fill" to="#808080" begin="reset.mouseover" end="reset.mouseout"/>
                       </use>
               </g>
        </defs>

<script type="text/javascript">
var viewWidth = 958;
var viewHeight = 247;
var sectionId = 'dynsection-0';
</script>
<script xlink:href="svgpan.js"/>
<svg id="graph" class="graph">
<g id="viewport">
<title>tomographer/tools/loggers.h</title>
<!-- Node1 -->
<g id="node1" class="node"><title>Node1</title>
<polygon fill="#bfbfbf" stroke="black" points="465.857,-220.5 465.857,-238.5 606.374,-238.5 606.374,-220.5 465.857,-220.5"/>
<text text-anchor="middle" x="536.116" y="-226.5" font-family="Helvetica,sans-Serif" font-size="10.00">tomographer/tools/loggers.h</text>
</g>
<!-- Node2 -->
<g id="node2" class="node"><title>Node2</title>
<polygon fill="none" stroke="#bfbfbf" points="0,-165.5 0,-183.5 48.2314,-183.5 48.2314,-165.5 0,-165.5"/>
<text text-anchor="middle" x="24.1157" y="-171.5" font-family="Helvetica,sans-Serif" font-size="10.00">cassert</text>
</g>
<!-- Node1&#45;&gt;Node2 -->
<g id="edge1" class="edge"><title>Node1&#45;&gt;Node2</title>
<path fill="none" stroke="midnightblue" d="M465.498,-224.666C372.577,-218.984 204.372,-206.495 62.1157,-184 61.014,-183.826 59.8964,-183.639 58.7696,-183.441"/>
<polygon fill="midnightblue" stroke="midnightblue" points="59.0439,-179.929 48.5581,-181.445 57.7007,-186.799 59.0439,-179.929"/>
</g>
<!-- Node3 -->
<g id="node3" class="node"><title>Node3</title>
<polygon fill="none" stroke="#bfbfbf" points="104.054,-110.5 104.054,-128.5 146.177,-128.5 146.177,-110.5 104.054,-110.5"/>
<text text-anchor="middle" x="125.116" y="-116.5" font-family="Helvetica,sans-Serif" font-size="10.00">cstdio</text>
</g>
<!-- Node1&#45;&gt;Node3 -->
<g id="edge2" class="edge"><title>Node1&#45;&gt;Node3</title>
<path fill="none" stroke="midnightblue" d="M465.647,-224.821C404.839,-220.022 315.347,-209.036 241.116,-184 205.329,-171.93 167.637,-149.152 145.264,-134.412"/>
<polygon fill="midnightblue" stroke="midnightblue" points="146.918,-131.307 136.664,-128.641 143.018,-137.119 146.918,-131.307"/>
</g>
<!-- Node4 -->
<g id="node4" class="node"><title>Node4</title>
<polygon fill="none" stroke="#bfbfbf" points="163.719,-110.5 163.719,-128.5 212.512,-128.5 212.512,-110.5 163.719,-110.5"/>
<text text-anchor="middle" x="188.116" y="-116.5" font-family="Helvetica,sans-Serif" font-size="10.00">cstdarg</text>
</g>
<!-- Node1&#45;&gt;Node4 -->
<g id="edge3" class="edge"><title>Node1&#45;&gt;Node4</title>
<path fill="none" stroke="midnightblue" d="M465.657,-224.597C412.683,-219.714 339.207,-208.726 279.116,-184 250.594,-172.264 222.157,-150.373 204.853,-135.618"/>
<polygon fill="midnightblue" stroke="midnightblue" points="206.709,-132.592 196.877,-128.644 202.101,-137.861 206.709,-132.592"/>
</g>
<!-- Node5 -->
<g id="node5" class="node"><title>Node5</title>
<polygon fill="none" stroke="#bfbfbf" points="284.889,-0.5 284.889,-18.5 325.342,-18.5 325.342,-0.5 284.889,-0.5"/>
<text text-anchor="middle" x="305.116" y="-6.5" font-family="Helvetica,sans-Serif" font-size="10.00">string</text>
</g>
<!-- Node1&#45;&gt;Node5 -->
<g id="edge4" class="edge"><title>Node1&#45;&gt;Node5</title>
<path fill="none" stroke="midnightblue" d="M550.668,-220.476C563.767,-212.632 582.797,-199.612 595.116,-184 611.636,-163.062 613.667,-155.108 619.116,-129 626.753,-92.4022 610.959,-74.5891 579.116,-55 538.664,-30.1151 398.083,-17.1705 335.533,-12.5312"/>
<polygon fill="midnightblue" stroke="midnightblue" points="335.72,-9.03572 325.495,-11.8087 335.218,-16.0177 335.72,-9.03572"/>
</g>
<!-- Node6 -->
<g id="node6" class="node"><title>Node6</title>
<polygon fill="none" stroke="#bfbfbf" points="471.335,-110.5 471.335,-128.5 522.896,-128.5 522.896,-110.5 471.335,-110.5"/>
<text text-anchor="middle" x="497.116" y="-116.5" font-family="Helvetica,sans-Serif" font-size="10.00">sstream</text>
</g>
<!-- Node1&#45;&gt;Node6 -->
<g id="edge5" class="edge"><title>Node1&#45;&gt;Node6</title>
<path fill="none" stroke="midnightblue" d="M533.184,-220.382C526.917,-203.026 512.087,-161.96 503.522,-138.241"/>
<polygon fill="midnightblue" stroke="midnightblue" points="506.77,-136.929 500.081,-128.712 500.186,-139.306 506.77,-136.929"/>
</g>
<!-- Node7 -->
<g id="node7" class="node"><title>Node7</title>
<polygon fill="none" stroke="#bfbfbf" points="540.943,-110.5 540.943,-128.5 595.288,-128.5 595.288,-110.5 540.943,-110.5"/>
<text text-anchor="middle" x="568.116" y="-116.5" font-family="Helvetica,sans-Serif" font-size="10.00">iostream</text>
</g>
<!-- Node1&#45;&gt;Node7 -->
<g id="edge6" class="edge"><title>Node1&#45;&gt;Node7</title>
<path fill="none" stroke="midnightblue" d="M538.521,-220.382C543.64,-203.104 555.722,-162.329 562.764,-138.563"/>
<polygon fill="midnightblue" stroke="midnightblue" points="566.197,-139.294 565.683,-128.712 559.486,-137.305 566.197,-139.294"/>
</g>
<!-- Node8 -->
<g id="node8" class="node"><title>Node8</title>
<polygon fill="none" stroke="#bfbfbf" points="688.712,-165.5 688.712,-183.5 747.52,-183.5 747.52,-165.5 688.712,-165.5"/>
<text text-anchor="middle" x="718.116" y="-171.5" font-family="Helvetica,sans-Serif" font-size="10.00">functional</text>
</g>
<!-- Node1&#45;&gt;Node8 -->
<g id="edge7" class="edge"><title>Node1&#45;&gt;Node8</title>
<path fill="none" stroke="midnightblue" d="M563.758,-220.45C594.983,-211.357 645.965,-196.511 680.727,-186.388"/>
<polygon fill="midnightblue" stroke="midnightblue" points="681.89,-189.695 690.512,-183.538 679.933,-182.974 681.89,-189.695"/>
</g>
<!-- Node9 -->
<g id="node9" class="node"><title>Node9</title>
<polygon fill="none" stroke="#bfbfbf" points="508.049,-55.5 508.049,-73.5 570.182,-73.5 570.182,-55.5 508.049,-55.5"/>
<text text-anchor="middle" x="539.116" y="-61.5" font-family="Helvetica,sans-Serif" font-size="10.00">type_traits</text>
</g>
<!-- Node1&#45;&gt;Node9 -->
<g id="edge8" class="edge"><title>Node1&#45;&gt;Node9</title>
<path fill="none" stroke="midnightblue" d="M544.517,-220.15C559.935,-204.159 592.253,-167.381 604.116,-129 606.609,-120.932 608.054,-117.47 604.116,-110 596.724,-95.9823 582.707,-85.5373 569.576,-78.3027"/>
<polygon fill="midnightblue" stroke="midnightblue" points="570.782,-74.9902 560.279,-73.5969 567.621,-81.2358 570.782,-74.9902"/>
</g>
<!-- Node10 -->
<g id="node10" class="node"><title>Node10</title>
<polygon fill="none" stroke="#bfbfbf" points="765.389,-165.5 765.389,-183.5 800.842,-183.5 800.842,-165.5 765.389,-165.5"/>
<text text-anchor="middle" x="783.116" y="-171.5" font-family="Helvetica,sans-Serif" font-size="10.00">map</text>
</g>
<!-- Node1&#45;&gt;Node10 -->
<g id="edge9" class="edge"><title>Node1&#45;&gt;Node10</title>
<path fill="none" stroke="midnightblue" d="M583.221,-220.457C625.805,-212.854 690.374,-200.504 755.2,-184.008"/>
<polygon fill="midnightblue" stroke="midnightblue" points="756.373,-187.321 765.183,-181.435 754.626,-180.542 756.373,-187.321"/>
</g>
<!-- Node11 -->
<g id="node11" class="node"><title>Node11</title>
<polygon fill="none" stroke="#bfbfbf" points="818.584,-165.5 818.584,-183.5 949.647,-183.5 949.647,-165.5 818.584,-165.5"/>
<text text-anchor="middle" x="884.116" y="-171.5" font-family="Helvetica,sans-Serif" font-size="10.00">boost/algorithm/string.hpp</text>
</g>
<!-- Node1&#45;&gt;Node11 -->
<g id="edge10" class="edge"><title>Node1&#45;&gt;Node11</title>
<path fill="none" stroke="midnightblue" d="M588.969,-220.45C651.365,-210.948 755.021,-195.161 821.416,-185.049"/>
<polygon fill="midnightblue" stroke="midnightblue" points="821.977,-188.504 831.336,-183.538 820.923,-181.584 821.977,-188.504"/>
</g>
<!-- Node12 -->
<g id="node12" class="node"><title>Node12</title>
<g id="a_node12"><a xlink:href="fmt_8h.html" target="_top" xlink:title="Utilities for formatting strings. ">
<polygon fill="none" stroke="black" points="288.313,-165.5 288.313,-183.5 409.918,-183.5 409.918,-165.5 288.313,-165.5"/>
<text text-anchor="middle" x="349.116" y="-171.5" font-family="Helvetica,sans-Serif" font-size="10.00">tomographer/tools/fmt.h</text>
</a>
</g>
</g>
<!-- Node1&#45;&gt;Node12 -->
<g id="edge11" class="edge"><title>Node1&#45;&gt;Node12</title>
<path fill="none" stroke="midnightblue" d="M507.714,-220.45C475.632,-211.357 423.248,-196.511 387.532,-186.388"/>
<polygon fill="midnightblue" stroke="midnightblue" points="388.053,-182.898 377.477,-183.538 386.144,-189.633 388.053,-182.898"/>
</g>
<!-- Node16 -->
<g id="node16" class="node"><title>Node16</title>
<g id="a_node16"><a xlink:href="conststr_8h.html" target="_top" xlink:title="A constexpr string type, suitable for basic compile&#45;time string processing. ">
<polygon fill="none" stroke="black" points="135.025,-55.5 135.025,-73.5 277.207,-73.5 277.207,-55.5 135.025,-55.5"/>
<text text-anchor="middle" x="206.116" y="-61.5" font-family="Helvetica,sans-Serif" font-size="10.00">tomographer/tools/conststr.h</text>
</a>
</g>
</g>
<!-- Node1&#45;&gt;Node16 -->
<g id="edge23" class="edge"><title>Node1&#45;&gt;Node16</title>
<path fill="none" stroke="midnightblue" d="M465.631,-227.036C395.26,-223.803 284.822,-213.882 194.116,-184 146.309,-168.25 120.642,-172.382 95.1157,-129 79.1641,-101.89 114.867,-85.3378 149.936,-75.9608"/>
<polygon fill="midnightblue" stroke="midnightblue" points="150.914,-79.3241 159.767,-73.5035 149.216,-72.533 150.914,-79.3241"/>
</g>
<!-- Node12&#45;&gt;Node3 -->
<g id="edge12" class="edge"><title>Node12&#45;&gt;Node3</title>
<path fill="none" stroke="midnightblue" d="M311.426,-165.447C274.303,-157.384 215.761,-144.32 156.318,-129.212"/>
<polygon fill="midnightblue" stroke="midnightblue" points="156.941,-125.758 146.385,-126.67 155.205,-132.54 156.941,-125.758"/>
</g>
<!-- Node12&#45;&gt;Node4 -->
<g id="edge13" class="edge"><title>Node12&#45;&gt;Node4</title>
<path fill="none" stroke="midnightblue" d="M324.663,-165.45C297.397,-156.475 253.1,-141.892 222.385,-131.781"/>
<polygon fill="midnightblue" stroke="midnightblue" points="223.127,-128.341 212.534,-128.538 220.938,-134.99 223.127,-128.341"/>
</g>
<!-- Node12&#45;&gt;Node5 -->
<g id="edge15" class="edge"><title>Node12&#45;&gt;Node5</title>
<path fill="none" stroke="midnightblue" d="M343.39,-165.39C337.597,-156.775 328.841,-142.555 324.116,-129 312.21,-94.8462 307.714,-52.5231 306.054,-28.8145"/>
<polygon fill="midnightblue" stroke="midnightblue" points="309.545,-28.5584 305.446,-18.7885 302.557,-28.9819 309.545,-28.5584"/>
</g>
<!-- Node12&#45;&gt;Node6 -->
<g id="edge16" class="edge"><title>Node12&#45;&gt;Node6</title>
<path fill="none" stroke="midnightblue" d="M371.594,-165.45C396.477,-156.539 436.791,-142.103 464.999,-132.001"/>
<polygon fill="midnightblue" stroke="midnightblue" points="466.192,-135.292 474.426,-128.625 463.832,-128.702 466.192,-135.292"/>
</g>
<!-- Node12&#45;&gt;Node7 -->
<g id="edge17" class="edge"><title>Node12&#45;&gt;Node7</title>
<path fill="none" stroke="midnightblue" d="M382.377,-165.45C422.394,-155.766 489.378,-139.555 531.028,-129.476"/>
<polygon fill="midnightblue" stroke="midnightblue" points="531.888,-132.869 540.784,-127.115 530.241,-126.065 531.888,-132.869"/>
</g>
<!-- Node13 -->
<g id="node13" class="node"><title>Node13</title>
<polygon fill="none" stroke="#bfbfbf" points="230.828,-110.5 230.828,-128.5 277.404,-128.5 277.404,-110.5 230.828,-110.5"/>
<text text-anchor="middle" x="254.116" y="-116.5" font-family="Helvetica,sans-Serif" font-size="10.00">chrono</text>
</g>
<!-- Node12&#45;&gt;Node13 -->
<g id="edge14" class="edge"><title>Node12&#45;&gt;Node13</title>
<path fill="none" stroke="midnightblue" d="M334.687,-165.45C319.622,-157.045 295.744,-143.724 277.887,-133.762"/>
<polygon fill="midnightblue" stroke="midnightblue" points="279.118,-130.441 268.68,-128.625 275.708,-136.554 279.118,-130.441"/>
</g>
<!-- Node14 -->
<g id="node14" class="node"><title>Node14</title>
<g id="a_node14"><a xlink:href="tools_2util_8h.html" target="_top" xlink:title="Some C++ utilities, with a tad of C++11 tricks. ">
<polygon fill="none" stroke="black" points="332.865,-110.5 332.865,-128.5 453.367,-128.5 453.367,-110.5 332.865,-110.5"/>
<text text-anchor="middle" x="393.116" y="-116.5" font-family="Helvetica,sans-Serif" font-size="10.00">tomographer/tools/util.h</text>
</a>
</g>
</g>
<!-- Node12&#45;&gt;Node14 -->
<g id="edge18" class="edge"><title>Node12&#45;&gt;Node14</title>
<path fill="none" stroke="midnightblue" d="M355.991,-165.219C362.356,-157.551 371.997,-145.939 379.858,-136.469"/>
<polygon fill="midnightblue" stroke="midnightblue" points="382.738,-138.479 386.433,-128.55 377.353,-134.008 382.738,-138.479"/>
</g>
<!-- Node14&#45;&gt;Node9 -->
<g id="edge19" class="edge"><title>Node14&#45;&gt;Node9</title>
<path fill="none" stroke="midnightblue" d="M415.29,-110.45C439.73,-101.578 479.259,-87.2288 507.067,-77.134"/>
<polygon fill="midnightblue" stroke="midnightblue" points="508.527,-80.3276 516.733,-73.6253 506.139,-73.7477 508.527,-80.3276"/>
</g>
<!-- Node15 -->
<g id="node15" class="node"><title>Node15</title>
<polygon fill="none" stroke="#bfbfbf" points="360.101,-55.5 360.101,-73.5 426.13,-73.5 426.13,-55.5 360.101,-55.5"/>
<text text-anchor="middle" x="393.116" y="-61.5" font-family="Helvetica,sans-Serif" font-size="10.00">Eigen/Core</text>
</g>
<!-- Node14&#45;&gt;Node15 -->
<g id="edge20" class="edge"><title>Node14&#45;&gt;Node15</title>
<path fill="none" stroke="midnightblue" d="M393.116,-110.219C393.116,-103.177 393.116,-92.8083 393.116,-83.8277"/>
<polygon fill="midnightblue" stroke="midnightblue" points="396.616,-83.5495 393.116,-73.5496 389.616,-83.5496 396.616,-83.5495"/>
</g>
<!-- Node14&#45;&gt;Node16 -->
<g id="edge21" class="edge"><title>Node14&#45;&gt;Node16</title>
<path fill="none" stroke="midnightblue" d="M364.714,-110.45C332.632,-101.357 280.248,-86.5108 244.532,-76.3879"/>
<polygon fill="midnightblue" stroke="midnightblue" points="245.053,-72.8978 234.477,-73.5383 243.144,-79.6326 245.053,-72.8978"/>
</g>
<!-- Node16&#45;&gt;Node5 -->
<g id="edge22" class="edge"><title>Node16&#45;&gt;Node5</title>
<path fill="none" stroke="midnightblue" d="M221.152,-55.4504C237.07,-46.9286 262.428,-33.3532 281.115,-23.3487"/>
<polygon fill="midnightblue" stroke="midnightblue" points="282.774,-26.4308 289.938,-18.6253 279.47,-20.2595 282.774,-26.4308"/>
</g>
</g>
</svg>
        <g id="navigator" transform="translate(0 0)" fill="#404254">
                <rect fill="#f2f5e9" fill-opacity="0.5" stroke="#606060" stroke-width=".5" x="0" y="0" width="60" height="60"/>
                <use id="zoomplus" xlink:href="#zoomPlus" x="17" y="9" onmousedown="handleZoom(evt,'in')"/>
                <use id="zoomminus" xlink:href="#zoomMin" x="42" y="9" onmousedown="handleZoom(evt,'out')"/>
                <use id="reset" xlink:href="#resetDef" x="30" y="36" onmousedown="handleReset()"/>
                <g id="arrowUp" xlink:href="#dirArrow" transform="translate(30 24)" onmousedown="handlePan(0,-1)">
                  <use xlink:href="#rim" fill="#404040">
                        <set attributeName="fill" to="#808080" begin="arrowUp.mouseover" end="arrowUp.mouseout"/>
                  </use>
                  <path fill="none" stroke="white" stroke-width="1.5" d="M0,-3.0v7 M-2.5,-0.5L0,-3.0L2.5,-0.5"/>
                </g>
                <g id="arrowRight" xlink:href="#dirArrow" transform="rotate(90) translate(36 -43)" onmousedown="handlePan(1,0)">
                  <use xlink:href="#rim" fill="#404040">
                        <set attributeName="fill" to="#808080" begin="arrowRight.mouseover" end="arrowRight.mouseout"/>
                  </use>
                  <path fill="none" stroke="white" stroke-width="1.5" d="M0,-3.0v7 M-2.5,-0.5L0,-3.0L2.5,-0.5"/>
                </g>
                <g id="arrowDown" xlink:href="#dirArrow" transform="rotate(180) translate(-30 -48)" onmousedown="handlePan(0,1)">
                  <use xlink:href="#rim" fill="#404040">
                        <set attributeName="fill" to="#808080" begin="arrowDown.mouseover" end="arrowDown.mouseout"/>
                  </use>
                  <path fill="none" stroke="white" stroke-width="1.5" d="M0,-3.0v7 M-2.5,-0.5L0,-3.0L2.5,-0.5"/>
                </g>
                <g id="arrowLeft" xlink:href="#dirArrow" transform="rotate(270) translate(-36 17)" onmousedown="handlePan(-1,0)">
                  <use xlink:href="#rim" fill="#404040">
                        <set attributeName="fill" to="#808080" begin="arrowLeft.mouseover" end="arrowLeft.mouseout"/>
                  </use>
                  <path fill="none" stroke="white" stroke-width="1.5" d="M0,-3.0v7 M-2.5,-0.5L0,-3.0L2.5,-0.5"/>
                </g>
        </g>
        <svg viewBox="0 0 15 15" width="100%" height="30px" preserveAspectRatio="xMaxYMin meet">
         <g id="arrow_out" transform="scale(0.3 0.3)">
          <a xlink:href="loggers_8h__incl_org.svg" target="_base">
           <rect id="button" ry="5" rx="5" y="6" x="6" height="38" width="38"
                fill="#f2f5e9" fill-opacity="0.5" stroke="#606060" stroke-width="1.0"/>
           <path id="arrow"
             d="M 11.500037,31.436501 C 11.940474,20.09759 22.043105,11.32322 32.158766,21.979434 L 37.068811,17.246167 C 37.068811,17.246167 37.088388,32 37.088388,32 L 22.160133,31.978069 C 22.160133,31.978069 26.997745,27.140456 26.997745,27.140456 C 18.528582,18.264221 13.291696,25.230495 11.500037,31.436501 z"
             style="fill:#404040;"/>
          </a>
         </g>
        </svg>
</svg>
