<?xml version="1.0" encoding="UTF-8" standalone="no"?>
<!DOCTYPE svg PUBLIC "-//W3C//DTD SVG 1.1//EN"
 "http://www.w3.org/Graphics/SVG/1.1/DTD/svg11.dtd">
<!-- Generated by graphviz version 2.38.0 (20140413.2041)
 -->
<!-- Title: tomographer/mhrwtasks.h Pages: 1 -->
<svg width="1745pt" height="442pt"
 viewBox="0.00 0.00 1744.58 442.00" xmlns="http://www.w3.org/2000/svg" xmlns:xlink="http://www.w3.org/1999/xlink">
<g id="graph0" class="graph" transform="scale(1 1) rotate(0) translate(4 438)">
<title>tomographer/mhrwtasks.h</title>
<!-- Node1 -->
<g id="node1" class="node"><title>Node1</title>
<polygon fill="#bfbfbf" stroke="black" points="796.781,-415.5 796.781,-433.5 928.381,-433.5 928.381,-415.5 796.781,-415.5"/>
<text text-anchor="middle" x="862.581" y="-421.5" font-family="Helvetica,sans-Serif" font-size="10.00">tomographer/mhrwtasks.h</text>
</g>
<!-- Node2 -->
<g id="node2" class="node"><title>Node2</title>
<polygon fill="none" stroke="#bfbfbf" points="1147.35,-0.5 1147.35,-18.5 1187.81,-18.5 1187.81,-0.5 1147.35,-0.5"/>
<text text-anchor="middle" x="1167.58" y="-6.5" font-family="Helvetica,sans-Serif" font-size="10.00">string</text>
</g>
<!-- Node1&#45;&gt;Node2 -->
<g id="edge1" class="edge"><title>Node1&#45;&gt;Node2</title>
<path fill="none" stroke="midnightblue" d="M928.631,-421.892C1132.24,-416.068 1736.58,-391.924 1736.58,-310.5 1736.58,-310.5 1736.58,-310.5 1736.58,-118.5 1736.58,-74.4837 1701.24,-71.8576 1660.58,-55 1576.21,-20.0203 1292.07,-12.4497 1198.06,-10.8875"/>
<polygon fill="midnightblue" stroke="midnightblue" points="1198.12,-7.38806 1188.06,-10.7325 1198.01,-14.3872 1198.12,-7.38806"/>
</g>
<!-- Node3 -->
<g id="node3" class="node"><title>Node3</title>
<polygon fill="none" stroke="#bfbfbf" points="163.194,-300.5 163.194,-318.5 201.968,-318.5 201.968,-300.5 163.194,-300.5"/>
<text text-anchor="middle" x="182.581" y="-306.5" font-family="Helvetica,sans-Serif" font-size="10.00">limits</text>
</g>
<!-- Node1&#45;&gt;Node3 -->
<g id="edge2" class="edge"><title>Node1&#45;&gt;Node3</title>
<path fill="none" stroke="midnightblue" d="M796.668,-420.393C708.719,-415.469 548.408,-403.769 413.581,-379 321.645,-362.11 298.165,-356.659 210.581,-324 209.544,-323.613 208.494,-323.202 207.44,-322.773"/>
<polygon fill="midnightblue" stroke="midnightblue" points="208.615,-319.465 198.057,-318.589 205.764,-325.858 208.615,-319.465"/>
</g>
<!-- Node4 -->
<g id="node4" class="node"><title>Node4</title>
<polygon fill="none" stroke="#bfbfbf" points="219.628,-300.5 219.628,-318.5 269.534,-318.5 269.534,-300.5 219.628,-300.5"/>
<text text-anchor="middle" x="244.581" y="-306.5" font-family="Helvetica,sans-Serif" font-size="10.00">random</text>
</g>
<!-- Node1&#45;&gt;Node4 -->
<g id="edge3" class="edge"><title>Node1&#45;&gt;Node4</title>
<path fill="none" stroke="midnightblue" d="M796.464,-417.991C686.253,-407.559 458.893,-380.691 274.581,-324 273.114,-323.549 271.624,-323.043 270.133,-322.5"/>
<polygon fill="midnightblue" stroke="midnightblue" points="271.068,-319.101 260.488,-318.543 268.411,-325.577 271.068,-319.101"/>
</g>
<!-- Node5 -->
<g id="node5" class="node"><title>Node5</title>
<g id="a_node5"><a xlink:href="fmt_8h.html" target="_top" xlink:title="Utilities for formatting strings. ">
<polygon fill="none" stroke="black" points="1013.78,-170.5 1013.78,-188.5 1135.38,-188.5 1135.38,-170.5 1013.78,-170.5"/>
<text text-anchor="middle" x="1074.58" y="-176.5" font-family="Helvetica,sans-Serif" font-size="10.00">tomographer/tools/fmt.h</text>
</a>
</g>
</g>
<!-- Node1&#45;&gt;Node5 -->
<g id="edge4" class="edge"><title>Node1&#45;&gt;Node5</title>
<path fill="none" stroke="midnightblue" d="M899.621,-415.416C944.401,-403.559 1018.37,-376.872 1055.58,-324 1082.39,-285.899 1080.34,-227.725 1077.16,-198.533"/>
<polygon fill="midnightblue" stroke="midnightblue" points="1080.63,-198.038 1075.9,-188.554 1073.68,-198.914 1080.63,-198.038"/>
</g>
<!-- Node15 -->
<g id="node15" class="node"><title>Node15</title>
<g id="a_node15"><a xlink:href="mhrw_8h.html" target="_top" xlink:title="Routines for performing a Metropolis&#45;Hastings random walk. ">
<polygon fill="none" stroke="black" points="596.724,-360.5 596.724,-378.5 704.438,-378.5 704.438,-360.5 596.724,-360.5"/>
<text text-anchor="middle" x="650.581" y="-366.5" font-family="Helvetica,sans-Serif" font-size="10.00">tomographer/mhrw.h</text>
</a>
</g>
</g>
<!-- Node1&#45;&gt;Node15 -->
<g id="edge16" class="edge"><title>Node1&#45;&gt;Node15</title>
<path fill="none" stroke="midnightblue" d="M830.383,-415.45C793.543,-406.24 733.091,-391.128 692.578,-380.999"/>
<polygon fill="midnightblue" stroke="midnightblue" points="693.285,-377.568 682.734,-378.538 691.587,-384.359 693.285,-377.568"/>
</g>
<!-- Node39 -->
<g id="node39" class="node"><title>Node39</title>
<g id="a_node39"><a xlink:href="multiproc_8h.html" target="_top" xlink:title="Some common definitions for multiprocessing interfaces. ">
<polygon fill="none" stroke="black" points="1343.39,-360.5 1343.39,-378.5 1467.77,-378.5 1467.77,-360.5 1343.39,-360.5"/>
<text text-anchor="middle" x="1405.58" y="-366.5" font-family="Helvetica,sans-Serif" font-size="10.00">tomographer/multiproc.h</text>
</a>
</g>
</g>
<!-- Node1&#45;&gt;Node39 -->
<g id="edge70" class="edge"><title>Node1&#45;&gt;Node39</title>
<path fill="none" stroke="midnightblue" d="M928.621,-417.054C1031.02,-407.059 1227.34,-387.898 1333.37,-377.548"/>
<polygon fill="midnightblue" stroke="midnightblue" points="1333.74,-381.029 1343.35,-376.574 1333.06,-374.062 1333.74,-381.029"/>
</g>
<!-- Node5&#45;&gt;Node2 -->
<g id="edge8" class="edge"><title>Node5&#45;&gt;Node2</title>
<path fill="none" stroke="midnightblue" d="M1095.02,-170.422C1112.19,-162.52 1135.9,-148.778 1148.58,-129 1168.39,-98.1098 1169.93,-53.6406 1168.97,-28.8938"/>
<polygon fill="midnightblue" stroke="midnightblue" points="1172.46,-28.5348 1168.39,-18.7525 1165.47,-28.9371 1172.46,-28.5348"/>
</g>
<!-- Node6 -->
<g id="node6" class="node"><title>Node6</title>
<polygon fill="none" stroke="#bfbfbf" points="1259.52,-110.5 1259.52,-128.5 1301.64,-128.5 1301.64,-110.5 1259.52,-110.5"/>
<text text-anchor="middle" x="1280.58" y="-116.5" font-family="Helvetica,sans-Serif" font-size="10.00">cstdio</text>
</g>
<!-- Node5&#45;&gt;Node6 -->
<g id="edge5" class="edge"><title>Node5&#45;&gt;Node6</title>
<path fill="none" stroke="midnightblue" d="M1103.24,-170.458C1136.17,-161.213 1192.1,-145.499 1249.34,-129.348"/>
<polygon fill="midnightblue" stroke="midnightblue" points="1250.6,-132.627 1259.28,-126.542 1248.7,-125.89 1250.6,-132.627"/>
</g>
<!-- Node7 -->
<g id="node7" class="node"><title>Node7</title>
<polygon fill="none" stroke="#bfbfbf" points="1390.18,-110.5 1390.18,-128.5 1438.98,-128.5 1438.98,-110.5 1390.18,-110.5"/>
<text text-anchor="middle" x="1414.58" y="-116.5" font-family="Helvetica,sans-Serif" font-size="10.00">cstdarg</text>
</g>
<!-- Node5&#45;&gt;Node7 -->
<g id="edge6" class="edge"><title>Node5&#45;&gt;Node7</title>
<path fill="none" stroke="midnightblue" d="M1121.5,-170.496C1190.73,-158.687 1318.65,-136.865 1380,-126.4"/>
<polygon fill="midnightblue" stroke="midnightblue" points="1380.68,-129.834 1389.95,-124.702 1379.5,-122.933 1380.68,-129.834"/>
</g>
<!-- Node8 -->
<g id="node8" class="node"><title>Node8</title>
<polygon fill="none" stroke="#bfbfbf" points="1195.29,-110.5 1195.29,-128.5 1241.87,-128.5 1241.87,-110.5 1195.29,-110.5"/>
<text text-anchor="middle" x="1218.58" y="-116.5" font-family="Helvetica,sans-Serif" font-size="10.00">chrono</text>
</g>
<!-- Node5&#45;&gt;Node8 -->
<g id="edge7" class="edge"><title>Node5&#45;&gt;Node8</title>
<path fill="none" stroke="midnightblue" d="M1094.6,-170.435C1119.08,-160.579 1160.7,-143.813 1188.9,-132.455"/>
<polygon fill="midnightblue" stroke="midnightblue" points="1190.3,-135.666 1198.26,-128.683 1187.68,-129.173 1190.3,-135.666"/>
</g>
<!-- Node9 -->
<g id="node9" class="node"><title>Node9</title>
<polygon fill="none" stroke="#bfbfbf" points="877.8,-110.5 877.8,-128.5 929.362,-128.5 929.362,-110.5 877.8,-110.5"/>
<text text-anchor="middle" x="903.581" y="-116.5" font-family="Helvetica,sans-Serif" font-size="10.00">sstream</text>
</g>
<!-- Node5&#45;&gt;Node9 -->
<g id="edge9" class="edge"><title>Node5&#45;&gt;Node9</title>
<path fill="none" stroke="midnightblue" d="M1050.8,-170.435C1021.28,-160.421 970.731,-143.276 937.236,-131.915"/>
<polygon fill="midnightblue" stroke="midnightblue" points="938.025,-128.487 927.431,-128.589 935.777,-135.116 938.025,-128.487"/>
</g>
<!-- Node10 -->
<g id="node10" class="node"><title>Node10</title>
<polygon fill="none" stroke="#bfbfbf" points="947.409,-110.5 947.409,-128.5 1001.75,-128.5 1001.75,-110.5 947.409,-110.5"/>
<text text-anchor="middle" x="974.581" y="-116.5" font-family="Helvetica,sans-Serif" font-size="10.00">iostream</text>
</g>
<!-- Node5&#45;&gt;Node10 -->
<g id="edge10" class="edge"><title>Node5&#45;&gt;Node10</title>
<path fill="none" stroke="midnightblue" d="M1060.68,-170.435C1044.35,-160.966 1017.03,-145.12 997.544,-133.818"/>
<polygon fill="midnightblue" stroke="midnightblue" points="999.096,-130.673 988.69,-128.683 995.584,-136.728 999.096,-130.673"/>
</g>
<!-- Node11 -->
<g id="node11" class="node"><title>Node11</title>
<g id="a_node11"><a xlink:href="tools_2util_8h.html" target="_top" xlink:title="Some C++ utilities, with a tad of C++11 tricks. ">
<polygon fill="none" stroke="black" points="1019.33,-110.5 1019.33,-128.5 1139.83,-128.5 1139.83,-110.5 1019.33,-110.5"/>
<text text-anchor="middle" x="1079.58" y="-116.5" font-family="Helvetica,sans-Serif" font-size="10.00">tomographer/tools/util.h</text>
</a>
</g>
</g>
<!-- Node5&#45;&gt;Node11 -->
<g id="edge11" class="edge"><title>Node5&#45;&gt;Node11</title>
<path fill="none" stroke="midnightblue" d="M1075.28,-170.435C1075.98,-162.304 1077.08,-149.469 1078,-138.848"/>
<polygon fill="midnightblue" stroke="midnightblue" points="1081.49,-139.135 1078.86,-128.872 1074.51,-138.534 1081.49,-139.135"/>
</g>
<!-- Node12 -->
<g id="node12" class="node"><title>Node12</title>
<polygon fill="none" stroke="#bfbfbf" points="1411.51,-55.5 1411.51,-73.5 1473.65,-73.5 1473.65,-55.5 1411.51,-55.5"/>
<text text-anchor="middle" x="1442.58" y="-61.5" font-family="Helvetica,sans-Serif" font-size="10.00">type_traits</text>
</g>
<!-- Node11&#45;&gt;Node12 -->
<g id="edge12" class="edge"><title>Node11&#45;&gt;Node12</title>
<path fill="none" stroke="midnightblue" d="M1134.71,-110.45C1207.95,-99.7577 1335.68,-81.1089 1401.21,-71.5409"/>
<polygon fill="midnightblue" stroke="midnightblue" points="1401.78,-74.9939 1411.17,-70.0858 1400.77,-68.0674 1401.78,-74.9939"/>
</g>
<!-- Node13 -->
<g id="node13" class="node"><title>Node13</title>
<polygon fill="none" stroke="#bfbfbf" points="350.566,-55.5 350.566,-73.5 416.596,-73.5 416.596,-55.5 350.566,-55.5"/>
<text text-anchor="middle" x="383.581" y="-61.5" font-family="Helvetica,sans-Serif" font-size="10.00">Eigen/Core</text>
</g>
<!-- Node11&#45;&gt;Node13 -->
<g id="edge13" class="edge"><title>Node11&#45;&gt;Node13</title>
<path fill="none" stroke="midnightblue" d="M1019.02,-110.86C1016.17,-110.557 1013.34,-110.268 1010.58,-110 791.591,-88.7546 528.64,-73.3722 426.8,-67.7952"/>
<polygon fill="midnightblue" stroke="midnightblue" points="426.778,-64.2889 416.602,-67.2402 426.397,-71.2786 426.778,-64.2889"/>
</g>
<!-- Node14 -->
<g id="node14" class="node"><title>Node14</title>
<g id="a_node14"><a xlink:href="conststr_8h.html" target="_top" xlink:title="A constexpr string type, suitable for basic compile&#45;time string processing. ">
<polygon fill="none" stroke="black" points="997.49,-55.5 997.49,-73.5 1139.67,-73.5 1139.67,-55.5 997.49,-55.5"/>
<text text-anchor="middle" x="1068.58" y="-61.5" font-family="Helvetica,sans-Serif" font-size="10.00">tomographer/tools/conststr.h</text>
</a>
</g>
</g>
<!-- Node11&#45;&gt;Node14 -->
<g id="edge14" class="edge"><title>Node11&#45;&gt;Node14</title>
<path fill="none" stroke="midnightblue" d="M1077.86,-110.219C1076.38,-103.099 1074.2,-92.5775 1072.32,-83.5289"/>
<polygon fill="midnightblue" stroke="midnightblue" points="1075.71,-82.6296 1070.25,-73.5496 1068.86,-84.0522 1075.71,-82.6296"/>
</g>
<!-- Node14&#45;&gt;Node2 -->
<g id="edge15" class="edge"><title>Node14&#45;&gt;Node2</title>
<path fill="none" stroke="midnightblue" d="M1083.62,-55.4504C1099.54,-46.9286 1124.89,-33.3532 1143.58,-23.3487"/>
<polygon fill="midnightblue" stroke="midnightblue" points="1145.24,-26.4308 1152.4,-18.6253 1141.94,-20.2595 1145.24,-26.4308"/>
</g>
<!-- Node15&#45;&gt;Node3 -->
<g id="edge19" class="edge"><title>Node15&#45;&gt;Node3</title>
<path fill="none" stroke="midnightblue" d="M596.638,-369.016C512.542,-368.501 345.805,-362.157 210.581,-324 209.12,-323.588 207.643,-323.103 206.169,-322.567"/>
<polygon fill="midnightblue" stroke="midnightblue" points="207.305,-319.245 196.736,-318.504 204.535,-325.674 207.305,-319.245"/>
</g>
<!-- Node15&#45;&gt;Node4 -->
<g id="edge20" class="edge"><title>Node15&#45;&gt;Node4</title>
<path fill="none" stroke="midnightblue" d="M596.476,-365.545C524.334,-360.788 393.019,-349.273 283.581,-324 280.767,-323.35 277.872,-322.57 274.991,-321.717"/>
<polygon fill="midnightblue" stroke="midnightblue" points="275.983,-318.36 265.391,-318.619 273.833,-325.021 275.983,-318.36"/>
</g>
<!-- Node15&#45;&gt;Node12 -->
<g id="edge23" class="edge"><title>Node15&#45;&gt;Node12</title>
<path fill="none" stroke="midnightblue" d="M704.526,-367.658C913.823,-363.687 1660.58,-342.709 1660.58,-245.5 1660.58,-245.5 1660.58,-245.5 1660.58,-178.5 1660.58,-99.756 1547.08,-75.8158 1483.88,-68.5888"/>
<polygon fill="midnightblue" stroke="midnightblue" points="1484.13,-65.096 1473.82,-67.5307 1483.39,-72.0576 1484.13,-65.096"/>
</g>
<!-- Node16 -->
<g id="node16" class="node"><title>Node16</title>
<polygon fill="none" stroke="#bfbfbf" points="400.46,-235.5 400.46,-253.5 448.702,-253.5 448.702,-235.5 400.46,-235.5"/>
<text text-anchor="middle" x="424.581" y="-241.5" font-family="Helvetica,sans-Serif" font-size="10.00">cstddef</text>
</g>
<!-- Node15&#45;&gt;Node16 -->
<g id="edge17" class="edge"><title>Node15&#45;&gt;Node16</title>
<path fill="none" stroke="midnightblue" d="M599.951,-360.434C569.272,-353.935 530.269,-342.705 499.581,-324 472.992,-307.793 449.487,-279.813 436.158,-262.004"/>
<polygon fill="midnightblue" stroke="midnightblue" points="438.861,-259.769 430.153,-253.734 433.197,-263.882 438.861,-259.769"/>
</g>
<!-- Node17 -->
<g id="node17" class="node"><title>Node17</title>
<polygon fill="none" stroke="#bfbfbf" points="1584.47,-170.5 1584.47,-188.5 1632.7,-188.5 1632.7,-170.5 1584.47,-170.5"/>
<text text-anchor="middle" x="1608.58" y="-176.5" font-family="Helvetica,sans-Serif" font-size="10.00">cassert</text>
</g>
<!-- Node15&#45;&gt;Node17 -->
<g id="edge18" class="edge"><title>Node15&#45;&gt;Node17</title>
<path fill="none" stroke="midnightblue" d="M704.898,-366.013C757.532,-361.995 838.698,-351.486 903.581,-324 923.8,-315.435 923.123,-302.978 943.581,-295 1071.98,-244.927 1115.6,-281.433 1251.58,-259 1387.9,-236.511 1421.06,-225.502 1555.58,-194 1561.62,-192.585 1568.03,-191.013 1574.23,-189.456"/>
<polygon fill="midnightblue" stroke="midnightblue" points="1575.53,-192.738 1584.36,-186.881 1573.8,-185.954 1575.53,-192.738"/>
</g>
<!-- Node18 -->
<g id="node18" class="node"><title>Node18</title>
<polygon fill="none" stroke="#bfbfbf" points="952.739,-300.5 952.739,-318.5 990.423,-318.5 990.423,-300.5 952.739,-300.5"/>
<text text-anchor="middle" x="971.581" y="-306.5" font-family="Helvetica,sans-Serif" font-size="10.00">tuple</text>
</g>
<!-- Node15&#45;&gt;Node18 -->
<g id="edge21" class="edge"><title>Node15&#45;&gt;Node18</title>
<path fill="none" stroke="midnightblue" d="M704.456,-363.989C762.922,-358.216 858.632,-346.196 938.581,-324 940.505,-323.466 942.467,-322.852 944.428,-322.187"/>
<polygon fill="midnightblue" stroke="midnightblue" points="945.912,-325.369 954.037,-318.569 943.445,-318.818 945.912,-325.369"/>
</g>
<!-- Node19 -->
<g id="node19" class="node"><title>Node19</title>
<polygon fill="none" stroke="#bfbfbf" points="1008.19,-300.5 1008.19,-318.5 1046.97,-318.5 1046.97,-300.5 1008.19,-300.5"/>
<text text-anchor="middle" x="1027.58" y="-306.5" font-family="Helvetica,sans-Serif" font-size="10.00">utility</text>
</g>
<!-- Node15&#45;&gt;Node19 -->
<g id="edge22" class="edge"><title>Node15&#45;&gt;Node19</title>
<path fill="none" stroke="midnightblue" d="M704.599,-366.98C774.144,-363.815 898.118,-354.062 999.581,-324 1001,-323.578 1002.44,-323.092 1003.88,-322.558"/>
<polygon fill="midnightblue" stroke="midnightblue" points="1005.32,-325.748 1013.12,-318.568 1002.55,-319.322 1005.32,-325.748"/>
</g>
<!-- Node20 -->
<g id="node20" class="node"><title>Node20</title>
<g id="a_node20"><a xlink:href="matrq_8h.html" target="_top" xlink:title="Define types for quantum objects. See Tomographer::MatrQ. ">
<polygon fill="none" stroke="black" points="325.222,-300.5 325.222,-318.5 447.94,-318.5 447.94,-300.5 325.222,-300.5"/>
<text text-anchor="middle" x="386.581" y="-306.5" font-family="Helvetica,sans-Serif" font-size="10.00">tomographer/qit/matrq.h</text>
</a>
</g>
</g>
<!-- Node15&#45;&gt;Node20 -->
<g id="edge24" class="edge"><title>Node15&#45;&gt;Node20</title>
<path fill="none" stroke="midnightblue" d="M614.15,-360.496C566.941,-350.125 484.582,-332.03 432.957,-320.689"/>
<polygon fill="midnightblue" stroke="midnightblue" points="433.58,-317.242 423.062,-318.515 432.078,-324.079 433.58,-317.242"/>
</g>
<!-- Node22 -->
<g id="node22" class="node"><title>Node22</title>
<g id="a_node22"><a xlink:href="qit_2util_8h.html" target="_top" xlink:title="Basic utilities for dealing with Eigen matrices and other types. ">
<polygon fill="none" stroke="black" points="411.611,-170.5 411.611,-188.5 521.551,-188.5 521.551,-170.5 411.611,-170.5"/>
<text text-anchor="middle" x="466.581" y="-176.5" font-family="Helvetica,sans-Serif" font-size="10.00">tomographer/qit/util.h</text>
</a>
</g>
</g>
<!-- Node15&#45;&gt;Node22 -->
<g id="edge28" class="edge"><title>Node15&#45;&gt;Node22</title>
<path fill="none" stroke="midnightblue" d="M626.645,-360.473C607.477,-353.176 580.721,-340.951 561.581,-324 519.748,-286.95 488.333,-227.442 474.443,-198.067"/>
<polygon fill="midnightblue" stroke="midnightblue" points="477.493,-196.324 470.131,-188.705 471.135,-199.252 477.493,-196.324"/>
</g>
<!-- Node26 -->
<g id="node26" class="node"><title>Node26</title>
<g id="a_node26"><a xlink:href="param__herm__x_8h.html" target="_top" xlink:title="Tools for parameterizing hermitian matrices with the X Parameterization. ">
<polygon fill="none" stroke="black" points="0,-230.5 0,-258.5 117.162,-258.5 117.162,-230.5 0,-230.5"/>
<text text-anchor="start" x="8" y="-246.5" font-family="Helvetica,sans-Serif" font-size="10.00">tomographer/qit/param</text>
<text text-anchor="middle" x="58.5811" y="-236.5" font-family="Helvetica,sans-Serif" font-size="10.00">_herm_x.h</text>
</a>
</g>
</g>
<!-- Node15&#45;&gt;Node26 -->
<g id="edge34" class="edge"><title>Node15&#45;&gt;Node26</title>
<path fill="none" stroke="midnightblue" d="M596.659,-364.699C515.465,-358.406 366.044,-344.457 316.581,-324 296.949,-315.88 297.833,-303.984 278.581,-295 264.789,-288.564 186.577,-271.683 127.296,-259.42"/>
<polygon fill="midnightblue" stroke="midnightblue" points="127.715,-255.933 117.214,-257.341 126.301,-262.789 127.715,-255.933"/>
</g>
<!-- Node29 -->
<g id="node29" class="node"><title>Node29</title>
<g id="a_node29"><a xlink:href="tomoproblem_8h.html" target="_top" xlink:title="Data corresponding to a quantum tomography setting. ">
<polygon fill="none" stroke="black" points="579.493,-300.5 579.493,-318.5 721.669,-318.5 721.669,-300.5 579.493,-300.5"/>
<text text-anchor="middle" x="650.581" y="-306.5" font-family="Helvetica,sans-Serif" font-size="10.00">tomographer/tomoproblem.h</text>
</a>
</g>
</g>
<!-- Node15&#45;&gt;Node29 -->
<g id="edge39" class="edge"><title>Node15&#45;&gt;Node29</title>
<path fill="none" stroke="midnightblue" d="M650.581,-360.435C650.581,-352.389 650.581,-339.739 650.581,-329.185"/>
<polygon fill="midnightblue" stroke="midnightblue" points="654.081,-328.872 650.581,-318.872 647.081,-328.872 654.081,-328.872"/>
</g>
<!-- Node30 -->
<g id="node30" class="node"><title>Node30</title>
<g id="a_node30"><a xlink:href="histogram_8h.html" target="_top" xlink:title="Definitions for Histogram Types. ">
<polygon fill="none" stroke="black" points="617.719,-235.5 617.719,-253.5 745.443,-253.5 745.443,-235.5 617.719,-235.5"/>
<text text-anchor="middle" x="681.581" y="-241.5" font-family="Helvetica,sans-Serif" font-size="10.00">tomographer/histogram.h</text>
</a>
</g>
</g>
<!-- Node15&#45;&gt;Node30 -->
<g id="edge40" class="edge"><title>Node15&#45;&gt;Node30</title>
<path fill="none" stroke="midnightblue" d="M621.148,-360.469C603.109,-353.858 581.457,-342.495 570.581,-324 564.048,-312.89 563.564,-305.812 570.581,-295 583.132,-275.66 605.19,-263.812 626.354,-256.584"/>
<polygon fill="midnightblue" stroke="midnightblue" points="627.476,-259.9 635.977,-253.577 625.388,-253.219 627.476,-259.9"/>
</g>
<!-- Node34 -->
<g id="node34" class="node"><title>Node34</title>
<g id="a_node34"><a xlink:href="loggers_8h.html" target="_top" xlink:title="Utilities for logging messages. ">
<polygon fill="none" stroke="black" points="1102.32,-235.5 1102.32,-253.5 1242.84,-253.5 1242.84,-235.5 1102.32,-235.5"/>
<text text-anchor="middle" x="1172.58" y="-241.5" font-family="Helvetica,sans-Serif" font-size="10.00">tomographer/tools/loggers.h</text>
</a>
</g>
</g>
<!-- Node15&#45;&gt;Node34 -->
<g id="edge52" class="edge"><title>Node15&#45;&gt;Node34</title>
<path fill="none" stroke="midnightblue" d="M704.481,-363.368C749.474,-357.708 814.577,-346.273 867.581,-324 888.832,-315.07 889.261,-303.765 910.581,-295 968.802,-271.065 1039.1,-258.591 1092.21,-252.156"/>
<polygon fill="midnightblue" stroke="midnightblue" points="1092.73,-255.619 1102.26,-250.985 1091.92,-248.666 1092.73,-255.619"/>
</g>
<!-- Node38 -->
<g id="node38" class="node"><title>Node38</title>
<g id="a_node38"><a xlink:href="mhrw__bin__err_8h.html" target="_top" xlink:title="Binning Analysis in a Metropolis&#45;Hastings random walk. ">
<polygon fill="none" stroke="black" points="740.167,-295.5 740.167,-323.5 858.995,-323.5 858.995,-295.5 740.167,-295.5"/>
<text text-anchor="start" x="748.167" y="-311.5" font-family="Helvetica,sans-Serif" font-size="10.00">tomographer/mhrw_bin</text>
<text text-anchor="middle" x="799.581" y="-301.5" font-family="Helvetica,sans-Serif" font-size="10.00">_err.h</text>
</a>
</g>
</g>
<!-- Node15&#45;&gt;Node38 -->
<g id="edge65" class="edge"><title>Node15&#45;&gt;Node38</title>
<path fill="none" stroke="midnightblue" d="M671.299,-360.435C693.258,-351.887 728.567,-338.143 756.587,-327.236"/>
<polygon fill="midnightblue" stroke="midnightblue" points="758.111,-330.399 766.16,-323.51 755.571,-323.875 758.111,-330.399"/>
</g>
<!-- Node20&#45;&gt;Node13 -->
<g id="edge27" class="edge"><title>Node20&#45;&gt;Node13</title>
<path fill="none" stroke="midnightblue" d="M366.248,-300.441C331.649,-285.469 262.374,-249.732 234.581,-194 206.583,-137.856 295.45,-96.1309 347.908,-77.0333"/>
<polygon fill="midnightblue" stroke="midnightblue" points="349.292,-80.2562 357.555,-73.625 346.961,-73.656 349.292,-80.2562"/>
</g>
<!-- Node20&#45;&gt;Node16 -->
<g id="edge25" class="edge"><title>Node20&#45;&gt;Node16</title>
<path fill="none" stroke="midnightblue" d="M391.549,-300.264C397.327,-290.684 407.017,-274.619 414.412,-262.359"/>
<polygon fill="midnightblue" stroke="midnightblue" points="417.564,-263.91 419.732,-253.539 411.57,-260.294 417.564,-263.91"/>
</g>
<!-- Node21 -->
<g id="node21" class="node"><title>Node21</title>
<polygon fill="none" stroke="#bfbfbf" points="88.9629,-110.5 88.9629,-128.5 142.199,-128.5 142.199,-110.5 88.9629,-110.5"/>
<text text-anchor="middle" x="115.581" y="-116.5" font-family="Helvetica,sans-Serif" font-size="10.00">complex</text>
</g>
<!-- Node20&#45;&gt;Node21 -->
<g id="edge26" class="edge"><title>Node20&#45;&gt;Node21</title>
<path fill="none" stroke="midnightblue" d="M347.525,-300.478C300.98,-290.499 226.381,-273.063 201.581,-259 165.491,-238.535 155.439,-229.864 134.581,-194 124.655,-176.932 119.839,-154.669 117.553,-139.137"/>
<polygon fill="midnightblue" stroke="midnightblue" points="120.97,-138.256 116.254,-128.769 114.024,-139.126 120.97,-138.256"/>
</g>
<!-- Node22&#45;&gt;Node13 -->
<g id="edge31" class="edge"><title>Node22&#45;&gt;Node13</title>
<path fill="none" stroke="midnightblue" d="M460.612,-170.373C447.033,-151.886 413.613,-106.387 395.581,-81.8367"/>
<polygon fill="midnightblue" stroke="midnightblue" points="398.237,-79.5406 389.496,-73.553 392.595,-83.6845 398.237,-79.5406"/>
</g>
<!-- Node22&#45;&gt;Node21 -->
<g id="edge29" class="edge"><title>Node22&#45;&gt;Node21</title>
<path fill="none" stroke="midnightblue" d="M418.145,-170.496C347.064,-158.751 216.048,-137.101 152.32,-126.571"/>
<polygon fill="midnightblue" stroke="midnightblue" points="152.761,-123.096 142.324,-124.919 151.62,-130.003 152.761,-123.096"/>
</g>
<!-- Node23 -->
<g id="node23" class="node"><title>Node23</title>
<polygon fill="none" stroke="#bfbfbf" points="449.965,-110.5 449.965,-128.5 493.197,-128.5 493.197,-110.5 449.965,-110.5"/>
<text text-anchor="middle" x="471.581" y="-116.5" font-family="Helvetica,sans-Serif" font-size="10.00">vector</text>
</g>
<!-- Node22&#45;&gt;Node23 -->
<g id="edge30" class="edge"><title>Node22&#45;&gt;Node23</title>
<path fill="none" stroke="midnightblue" d="M467.276,-170.435C467.977,-162.304 469.084,-149.469 469.999,-138.848"/>
<polygon fill="midnightblue" stroke="midnightblue" points="473.487,-139.135 470.859,-128.872 466.513,-138.534 473.487,-139.135"/>
</g>
<!-- Node24 -->
<g id="node24" class="node"><title>Node24</title>
<polygon fill="none" stroke="#bfbfbf" points="510.951,-110.5 510.951,-128.5 584.211,-128.5 584.211,-110.5 510.951,-110.5"/>
<text text-anchor="middle" x="547.581" y="-116.5" font-family="Helvetica,sans-Serif" font-size="10.00">Eigen/Dense</text>
</g>
<!-- Node22&#45;&gt;Node24 -->
<g id="edge32" class="edge"><title>Node22&#45;&gt;Node24</title>
<path fill="none" stroke="midnightblue" d="M477.844,-170.435C490.707,-161.224 511.997,-145.98 527.676,-134.753"/>
<polygon fill="midnightblue" stroke="midnightblue" points="530.06,-137.351 536.153,-128.683 525.985,-131.659 530.06,-137.351"/>
</g>
<!-- Node25 -->
<g id="node25" class="node"><title>Node25</title>
<polygon fill="none" stroke="#bfbfbf" points="601.722,-110.5 601.722,-128.5 689.44,-128.5 689.44,-110.5 601.722,-110.5"/>
<text text-anchor="middle" x="645.581" y="-116.5" font-family="Helvetica,sans-Serif" font-size="10.00">Eigen/StdVector</text>
</g>
<!-- Node22&#45;&gt;Node25 -->
<g id="edge33" class="edge"><title>Node22&#45;&gt;Node25</title>
<path fill="none" stroke="midnightblue" d="M491.47,-170.435C522.509,-160.378 575.746,-143.128 610.804,-131.769"/>
<polygon fill="midnightblue" stroke="midnightblue" points="612.181,-135.002 620.615,-128.589 610.023,-128.342 612.181,-135.002"/>
</g>
<!-- Node26&#45;&gt;Node13 -->
<g id="edge38" class="edge"><title>Node26&#45;&gt;Node13</title>
<path fill="none" stroke="midnightblue" d="M56.1139,-230.267C51.9479,-203.416 46.8912,-142.343 79.5811,-110 115.569,-74.3938 265.33,-67.1245 340.353,-65.7455"/>
<polygon fill="midnightblue" stroke="midnightblue" points="340.48,-69.2441 350.424,-65.5877 340.37,-62.2449 340.48,-69.2441"/>
</g>
<!-- Node26&#45;&gt;Node21 -->
<g id="edge36" class="edge"><title>Node26&#45;&gt;Node21</title>
<path fill="none" stroke="midnightblue" d="M64.6811,-230.337C75.0345,-207.995 96.0423,-162.663 107.568,-137.791"/>
<polygon fill="midnightblue" stroke="midnightblue" points="110.84,-139.056 111.869,-128.511 104.488,-136.113 110.84,-139.056"/>
</g>
<!-- Node27 -->
<g id="node27" class="node"><title>Node27</title>
<polygon fill="none" stroke="#bfbfbf" points="143.965,-170.5 143.965,-188.5 187.197,-188.5 187.197,-170.5 143.965,-170.5"/>
<text text-anchor="middle" x="165.581" y="-176.5" font-family="Helvetica,sans-Serif" font-size="10.00">cmath</text>
</g>
<!-- Node26&#45;&gt;Node27 -->
<g id="edge35" class="edge"><title>Node26&#45;&gt;Node27</title>
<path fill="none" stroke="midnightblue" d="M80.7515,-230.446C98.9958,-219.704 124.745,-204.544 143.08,-193.749"/>
<polygon fill="midnightblue" stroke="midnightblue" points="145.071,-196.638 151.912,-188.548 141.519,-190.606 145.071,-196.638"/>
</g>
<!-- Node28 -->
<g id="node28" class="node"><title>Node28</title>
<polygon fill="none" stroke="#bfbfbf" points="244.054,-165.5 244.054,-193.5 355.108,-193.5 355.108,-165.5 244.054,-165.5"/>
<text text-anchor="start" x="252.054" y="-181.5" font-family="Helvetica,sans-Serif" font-size="10.00">boost/math/constants</text>
<text text-anchor="middle" x="299.581" y="-171.5" font-family="Helvetica,sans-Serif" font-size="10.00">/constants.hpp</text>
</g>
<!-- Node26&#45;&gt;Node28 -->
<g id="edge37" class="edge"><title>Node26&#45;&gt;Node28</title>
<path fill="none" stroke="midnightblue" d="M108.516,-230.446C146.727,-220.458 199.555,-206.648 239.979,-196.081"/>
<polygon fill="midnightblue" stroke="midnightblue" points="240.92,-199.452 249.71,-193.537 239.15,-192.68 240.92,-199.452"/>
</g>
<!-- Node30&#45;&gt;Node5 -->
<g id="edge50" class="edge"><title>Node30&#45;&gt;Node5</title>
<path fill="none" stroke="midnightblue" d="M731.754,-235.457C803.939,-223.885 936.902,-202.571 1014.32,-190.161"/>
<polygon fill="midnightblue" stroke="midnightblue" points="1015.08,-193.584 1024.4,-188.545 1013.97,-186.672 1015.08,-193.584"/>
</g>
<!-- Node30&#45;&gt;Node9 -->
<g id="edge45" class="edge"><title>Node30&#45;&gt;Node9</title>
<path fill="none" stroke="midnightblue" d="M695.608,-235.336C720.461,-220.912 773.918,-190.075 819.581,-165 839.413,-154.11 862.094,-142.121 878.885,-133.334"/>
<polygon fill="midnightblue" stroke="midnightblue" points="880.779,-136.294 888.024,-128.563 877.54,-130.088 880.779,-136.294"/>
</g>
<!-- Node30&#45;&gt;Node10 -->
<g id="edge43" class="edge"><title>Node30&#45;&gt;Node10</title>
<path fill="none" stroke="midnightblue" d="M703.455,-235.422C729.046,-225.883 772.621,-209.367 809.581,-194 858.915,-173.488 915.666,-147.723 948.11,-132.783"/>
<polygon fill="midnightblue" stroke="midnightblue" points="949.751,-135.881 957.363,-128.512 946.817,-129.525 949.751,-135.881"/>
</g>
<!-- Node30&#45;&gt;Node12 -->
<g id="edge47" class="edge"><title>Node30&#45;&gt;Node12</title>
<path fill="none" stroke="midnightblue" d="M745.54,-240.914C855.072,-235.782 1073.61,-222.278 1144.58,-194 1164.32,-186.136 1163.57,-174.489 1182.58,-165 1235.45,-138.605 1255.3,-149.888 1310.58,-129 1349.61,-114.254 1392.82,-92.3325 1418.83,-78.4861"/>
<polygon fill="midnightblue" stroke="midnightblue" points="1420.76,-81.4228 1427.91,-73.6065 1417.44,-75.2566 1420.76,-81.4228"/>
</g>
<!-- Node30&#45;&gt;Node13 -->
<g id="edge49" class="edge"><title>Node30&#45;&gt;Node13</title>
<path fill="none" stroke="midnightblue" d="M617.627,-236.118C539.962,-226.55 417.429,-209.282 402.581,-194 373.852,-164.431 376.465,-111.564 380.308,-83.7525"/>
<polygon fill="midnightblue" stroke="midnightblue" points="383.775,-84.2357 381.887,-73.8104 376.861,-83.1374 383.775,-84.2357"/>
</g>
<!-- Node30&#45;&gt;Node22 -->
<g id="edge51" class="edge"><title>Node30&#45;&gt;Node22</title>
<path fill="none" stroke="midnightblue" d="M653.914,-235.393C615.695,-224.194 546.634,-203.957 503.887,-191.431"/>
<polygon fill="midnightblue" stroke="midnightblue" points="504.723,-188.029 494.142,-188.576 502.754,-194.747 504.723,-188.029"/>
</g>
<!-- Node30&#45;&gt;Node27 -->
<g id="edge41" class="edge"><title>Node30&#45;&gt;Node27</title>
<path fill="none" stroke="midnightblue" d="M617.703,-238.105C530.758,-230.38 370.42,-214.773 234.581,-194 222.262,-192.116 208.795,-189.588 197.055,-187.229"/>
<polygon fill="midnightblue" stroke="midnightblue" points="197.753,-183.799 187.254,-185.219 196.347,-190.656 197.753,-183.799"/>
</g>
<!-- Node30&#45;&gt;Node28 -->
<g id="edge48" class="edge"><title>Node30&#45;&gt;Node28</title>
<path fill="none" stroke="midnightblue" d="M627.381,-235.459C565.076,-226.086 459.789,-209.85 369.581,-194 368.133,-193.746 366.67,-193.486 365.194,-193.222"/>
<polygon fill="midnightblue" stroke="midnightblue" points="365.8,-189.775 355.335,-191.425 364.545,-196.661 365.8,-189.775"/>
</g>
<!-- Node31 -->
<g id="node31" class="node"><title>Node31</title>
<polygon fill="none" stroke="#bfbfbf" points="685.409,-170.5 685.409,-188.5 729.753,-188.5 729.753,-170.5 685.409,-170.5"/>
<text text-anchor="middle" x="707.581" y="-176.5" font-family="Helvetica,sans-Serif" font-size="10.00">cstdlib</text>
</g>
<!-- Node30&#45;&gt;Node31 -->
<g id="edge42" class="edge"><title>Node30&#45;&gt;Node31</title>
<path fill="none" stroke="midnightblue" d="M684.98,-235.264C688.855,-225.874 695.302,-210.252 700.321,-198.091"/>
<polygon fill="midnightblue" stroke="midnightblue" points="703.684,-199.118 704.263,-188.539 697.213,-196.447 703.684,-199.118"/>
</g>
<!-- Node32 -->
<g id="node32" class="node"><title>Node32</title>
<polygon fill="none" stroke="#bfbfbf" points="539.071,-170.5 539.071,-188.5 590.091,-188.5 590.091,-170.5 539.071,-170.5"/>
<text text-anchor="middle" x="564.581" y="-176.5" font-family="Helvetica,sans-Serif" font-size="10.00">iomanip</text>
</g>
<!-- Node30&#45;&gt;Node32 -->
<g id="edge44" class="edge"><title>Node30&#45;&gt;Node32</title>
<path fill="none" stroke="midnightblue" d="M666.285,-235.264C646.469,-224.593 611.708,-205.876 588.416,-193.334"/>
<polygon fill="midnightblue" stroke="midnightblue" points="589.975,-190.198 579.511,-188.539 586.656,-196.362 589.975,-190.198"/>
</g>
<!-- Node33 -->
<g id="node33" class="node"><title>Node33</title>
<polygon fill="none" stroke="#bfbfbf" points="608.18,-170.5 608.18,-188.5 666.982,-188.5 666.982,-170.5 608.18,-170.5"/>
<text text-anchor="middle" x="637.581" y="-176.5" font-family="Helvetica,sans-Serif" font-size="10.00">stdexcept</text>
</g>
<!-- Node30&#45;&gt;Node33 -->
<g id="edge46" class="edge"><title>Node30&#45;&gt;Node33</title>
<path fill="none" stroke="midnightblue" d="M675.829,-235.264C669.072,-225.589 657.695,-209.3 649.102,-196.996"/>
<polygon fill="midnightblue" stroke="midnightblue" points="651.791,-194.733 643.196,-188.539 646.052,-198.741 651.791,-194.733"/>
</g>
<!-- Node34&#45;&gt;Node2 -->
<g id="edge56" class="edge"><title>Node34&#45;&gt;Node2</title>
<path fill="none" stroke="midnightblue" d="M1102.26,-238.52C1030.03,-232.131 923.76,-218.788 891.581,-194 866.375,-174.583 868.407,-160.077 861.581,-129 859.77,-120.752 856.946,-117.059 861.581,-110 892.643,-62.6981 1066.19,-27.9471 1137.25,-15.5075"/>
<polygon fill="midnightblue" stroke="midnightblue" points="1138.08,-18.9149 1147.35,-13.7695 1136.9,-12.0164 1138.08,-18.9149"/>
</g>
<!-- Node34&#45;&gt;Node5 -->
<g id="edge63" class="edge"><title>Node34&#45;&gt;Node5</title>
<path fill="none" stroke="midnightblue" d="M1159.77,-235.264C1143.47,-224.783 1115.09,-206.539 1095.59,-194.009"/>
<polygon fill="midnightblue" stroke="midnightblue" points="1097.39,-191.002 1087.09,-188.539 1093.61,-196.891 1097.39,-191.002"/>
</g>
<!-- Node34&#45;&gt;Node6 -->
<g id="edge54" class="edge"><title>Node34&#45;&gt;Node6</title>
<path fill="none" stroke="midnightblue" d="M1220.98,-235.498C1280.6,-225.152 1375.31,-206.932 1385.58,-194 1393.6,-183.907 1392.7,-175.746 1385.58,-165 1369.32,-140.446 1336.5,-129.402 1311.86,-124.458"/>
<polygon fill="midnightblue" stroke="midnightblue" points="1312.33,-120.987 1301.88,-122.691 1311.11,-127.88 1312.33,-120.987"/>
</g>
<!-- Node34&#45;&gt;Node7 -->
<g id="edge55" class="edge"><title>Node34&#45;&gt;Node7</title>
<path fill="none" stroke="midnightblue" d="M1215.92,-235.472C1280.75,-223.278 1396.12,-200.789 1402.58,-194 1416.48,-179.385 1417.9,-155.288 1416.88,-138.693"/>
<polygon fill="midnightblue" stroke="midnightblue" points="1420.35,-138.231 1415.91,-128.612 1413.39,-138.9 1420.35,-138.231"/>
</g>
<!-- Node34&#45;&gt;Node9 -->
<g id="edge57" class="edge"><title>Node34&#45;&gt;Node9</title>
<path fill="none" stroke="midnightblue" d="M1111.54,-235.467C1072.8,-228.515 1022.62,-215.983 982.581,-194 955.733,-179.259 930.955,-153.367 916.554,-136.58"/>
<polygon fill="midnightblue" stroke="midnightblue" points="919.107,-134.176 910.013,-128.739 913.731,-138.66 919.107,-134.176"/>
</g>
<!-- Node34&#45;&gt;Node10 -->
<g id="edge58" class="edge"><title>Node34&#45;&gt;Node10</title>
<path fill="none" stroke="midnightblue" d="M1101.96,-236.828C1068.97,-230.454 1031.2,-218.058 1004.58,-194 988.63,-179.584 980.979,-155.444 977.436,-138.784"/>
<polygon fill="midnightblue" stroke="midnightblue" points="980.826,-137.867 975.588,-128.657 973.94,-139.123 980.826,-137.867"/>
</g>
<!-- Node34&#45;&gt;Node12 -->
<g id="edge60" class="edge"><title>Node34&#45;&gt;Node12</title>
<path fill="none" stroke="midnightblue" d="M1220.96,-235.455C1232.61,-233.591 1245.03,-231.667 1256.58,-230 1318.89,-221.004 1495.99,-241.26 1537.58,-194 1572.3,-154.544 1503.61,-103.114 1465.55,-79.0393"/>
<polygon fill="midnightblue" stroke="midnightblue" points="1466.96,-75.7992 1456.61,-73.532 1463.29,-81.7583 1466.96,-75.7992"/>
</g>
<!-- Node34&#45;&gt;Node14 -->
<g id="edge64" class="edge"><title>Node34&#45;&gt;Node14</title>
<path fill="none" stroke="midnightblue" d="M1102.22,-242.788C1025.1,-237.544 907.185,-215.063 868.581,-129 865.125,-121.295 863.298,-116.588 868.581,-110 883.675,-91.1779 938.932,-79.8082 987.548,-73.2779"/>
<polygon fill="midnightblue" stroke="midnightblue" points="988.016,-76.7466 997.486,-71.9962 987.12,-69.8041 988.016,-76.7466"/>
</g>
<!-- Node34&#45;&gt;Node17 -->
<g id="edge53" class="edge"><title>Node34&#45;&gt;Node17</title>
<path fill="none" stroke="midnightblue" d="M1220.06,-235.486C1231.97,-233.581 1244.73,-231.631 1256.58,-230 1395.74,-210.85 1433.74,-225.717 1570.58,-194 1573.39,-193.348 1576.29,-192.555 1579.16,-191.685"/>
<polygon fill="midnightblue" stroke="midnightblue" points="1580.33,-194.985 1588.72,-188.514 1578.13,-188.341 1580.33,-194.985"/>
</g>
<!-- Node35 -->
<g id="node35" class="node"><title>Node35</title>
<polygon fill="none" stroke="#bfbfbf" points="1470.18,-170.5 1470.18,-188.5 1528.98,-188.5 1528.98,-170.5 1470.18,-170.5"/>
<text text-anchor="middle" x="1499.58" y="-176.5" font-family="Helvetica,sans-Serif" font-size="10.00">functional</text>
</g>
<!-- Node34&#45;&gt;Node35 -->
<g id="edge59" class="edge"><title>Node34&#45;&gt;Node35</title>
<path fill="none" stroke="midnightblue" d="M1220.81,-235.451C1295.79,-222.882 1434.09,-199.466 1456.58,-194 1459.6,-193.266 1462.72,-192.435 1465.83,-191.555"/>
<polygon fill="midnightblue" stroke="midnightblue" points="1467.05,-194.844 1475.63,-188.632 1465.05,-188.136 1467.05,-194.844"/>
</g>
<!-- Node36 -->
<g id="node36" class="node"><title>Node36</title>
<polygon fill="none" stroke="#bfbfbf" points="1191.85,-170.5 1191.85,-188.5 1227.31,-188.5 1227.31,-170.5 1191.85,-170.5"/>
<text text-anchor="middle" x="1209.58" y="-176.5" font-family="Helvetica,sans-Serif" font-size="10.00">map</text>
</g>
<!-- Node34&#45;&gt;Node36 -->
<g id="edge61" class="edge"><title>Node34&#45;&gt;Node36</title>
<path fill="none" stroke="midnightblue" d="M1177.42,-235.264C1183.04,-225.684 1192.48,-209.619 1199.68,-197.359"/>
<polygon fill="midnightblue" stroke="midnightblue" points="1202.81,-198.934 1204.86,-188.539 1196.78,-195.389 1202.81,-198.934"/>
</g>
<!-- Node37 -->
<g id="node37" class="node"><title>Node37</title>
<polygon fill="none" stroke="#bfbfbf" points="1245.05,-170.5 1245.05,-188.5 1376.11,-188.5 1376.11,-170.5 1245.05,-170.5"/>
<text text-anchor="middle" x="1310.58" y="-176.5" font-family="Helvetica,sans-Serif" font-size="10.00">boost/algorithm/string.hpp</text>
</g>
<!-- Node34&#45;&gt;Node37 -->
<g id="edge62" class="edge"><title>Node34&#45;&gt;Node37</title>
<path fill="none" stroke="midnightblue" d="M1190.34,-235.393C1213.94,-224.619 1255.86,-205.481 1283.44,-192.891"/>
<polygon fill="midnightblue" stroke="midnightblue" points="1285.25,-195.913 1292.89,-188.576 1282.34,-189.545 1285.25,-195.913"/>
</g>
<!-- Node38&#45;&gt;Node11 -->
<g id="edge67" class="edge"><title>Node38&#45;&gt;Node11</title>
<path fill="none" stroke="midnightblue" d="M817.369,-295.368C852.553,-269.546 933.767,-210.701 1004.58,-165 1021.59,-154.023 1041.29,-142.372 1056.23,-133.747"/>
<polygon fill="midnightblue" stroke="midnightblue" points="1058.36,-136.565 1065.29,-128.553 1054.87,-130.493 1058.36,-136.565"/>
</g>
<!-- Node38&#45;&gt;Node22 -->
<g id="edge66" class="edge"><title>Node38&#45;&gt;Node22</title>
<path fill="none" stroke="midnightblue" d="M740.507,-295.498C693.552,-284.737 632.003,-269.557 608.581,-259 587.566,-249.528 585.487,-241.623 565.581,-230 541.908,-216.177 513.876,-202.389 493.695,-192.889"/>
<polygon fill="midnightblue" stroke="midnightblue" points="495.014,-189.642 484.472,-188.588 492.056,-195.986 495.014,-189.642"/>
</g>
<!-- Node38&#45;&gt;Node28 -->
<g id="edge69" class="edge"><title>Node38&#45;&gt;Node28</title>
<path fill="none" stroke="midnightblue" d="M739.942,-296.44C681.924,-284.607 597.937,-267.183 565.581,-259 489.777,-239.828 403.108,-213.392 349.861,-196.621"/>
<polygon fill="midnightblue" stroke="midnightblue" points="350.908,-193.282 340.318,-193.607 348.799,-199.957 350.908,-193.282"/>
</g>
<!-- Node38&#45;&gt;Node34 -->
<g id="edge68" class="edge"><title>Node38&#45;&gt;Node34</title>
<path fill="none" stroke="midnightblue" d="M859.322,-297.355C863.807,-296.548 868.265,-295.755 872.581,-295 955.406,-280.51 1051.3,-264.888 1111.94,-255.152"/>
<polygon fill="midnightblue" stroke="midnightblue" points="1112.78,-258.562 1122.1,-253.523 1111.68,-251.651 1112.78,-258.562"/>
</g>
<!-- Node39&#45;&gt;Node2 -->
<g id="edge71" class="edge"><title>Node39&#45;&gt;Node2</title>
<path fill="none" stroke="midnightblue" d="M1468.08,-368.657C1554.13,-365.214 1698.58,-344.665 1698.58,-245.5 1698.58,-245.5 1698.58,-245.5 1698.58,-118.5 1698.58,-15.6312 1311.06,-9.70211 1198.12,-10.1585"/>
<polygon fill="midnightblue" stroke="midnightblue" points="1198.05,-6.65877 1188.07,-10.2196 1198.09,-13.6586 1198.05,-6.65877"/>
</g>
</g>
</svg>
