<?xml version="1.0" encoding="UTF-8" standalone="no"?>
<!DOCTYPE svg PUBLIC "-//W3C//DTD SVG 1.1//EN"
 "http://www.w3.org/Graphics/SVG/1.1/DTD/svg11.dtd">
<!-- Generated by graphviz version 2.38.0 (20140413.2041)
 -->
<!-- Title: tomographer/qit/simple_find_zero.h Pages: 1 -->
<svg width="804pt" height="312pt"
 viewBox="0.00 0.00 804.02 312.00" xmlns="http://www.w3.org/2000/svg" xmlns:xlink="http://www.w3.org/1999/xlink">
<g id="graph0" class="graph" transform="scale(1 1) rotate(0) translate(4 308)">
<title>tomographer/qit/simple_find_zero.h</title>
<!-- Node1 -->
<g id="node1" class="node"><title>Node1</title>
<polygon fill="#bfbfbf" stroke="black" points="191.759,-275.5 191.759,-303.5 309.473,-303.5 309.473,-275.5 191.759,-275.5"/>
<text text-anchor="start" x="199.759" y="-291.5" font-family="Helvetica,sans-Serif" font-size="10.00">tomographer/qit/simple</text>
<text text-anchor="middle" x="250.616" y="-281.5" font-family="Helvetica,sans-Serif" font-size="10.00">_find_zero.h</text>
</g>
<!-- Node2 -->
<g id="node2" class="node"><title>Node2</title>
<polygon fill="none" stroke="#bfbfbf" points="0,-220.5 0,-238.5 43.2314,-238.5 43.2314,-220.5 0,-220.5"/>
<text text-anchor="middle" x="21.6157" y="-226.5" font-family="Helvetica,sans-Serif" font-size="10.00">cmath</text>
</g>
<!-- Node1&#45;&gt;Node2 -->
<g id="edge1" class="edge"><title>Node1&#45;&gt;Node2</title>
<path fill="none" stroke="midnightblue" d="M199.224,-275.484C154.505,-264.157 91.1087,-248.101 53.3946,-238.549"/>
<polygon fill="midnightblue" stroke="midnightblue" points="54.0284,-235.099 43.4751,-236.036 52.3097,-241.885 54.0284,-235.099"/>
</g>
<!-- Node3 -->
<g id="node3" class="node"><title>Node3</title>
<polygon fill="none" stroke="#bfbfbf" points="32.5542,-110.5 32.5542,-128.5 74.6772,-128.5 74.6772,-110.5 32.5542,-110.5"/>
<text text-anchor="middle" x="53.6157" y="-116.5" font-family="Helvetica,sans-Serif" font-size="10.00">cstdio</text>
</g>
<!-- Node1&#45;&gt;Node3 -->
<g id="edge2" class="edge"><title>Node1&#45;&gt;Node3</title>
<path fill="none" stroke="midnightblue" d="M225.049,-275.396C192.36,-257.775 135.255,-223.991 95.6157,-184 81.9725,-170.236 70.1797,-151.408 62.5933,-137.832"/>
<polygon fill="midnightblue" stroke="midnightblue" points="65.4709,-135.793 57.6509,-128.645 59.3064,-139.109 65.4709,-135.793"/>
</g>
<!-- Node4 -->
<g id="node4" class="node"><title>Node4</title>
<polygon fill="none" stroke="#bfbfbf" points="499.229,-220.5 499.229,-238.5 538.002,-238.5 538.002,-220.5 499.229,-220.5"/>
<text text-anchor="middle" x="518.616" y="-226.5" font-family="Helvetica,sans-Serif" font-size="10.00">limits</text>
</g>
<!-- Node1&#45;&gt;Node4 -->
<g id="edge3" class="edge"><title>Node1&#45;&gt;Node4</title>
<path fill="none" stroke="midnightblue" d="M309.848,-277.615C356.121,-268.796 422.221,-255.509 489.142,-238.945"/>
<polygon fill="midnightblue" stroke="midnightblue" points="490.165,-242.297 499.019,-236.477 488.469,-235.505 490.165,-242.297"/>
</g>
<!-- Node5 -->
<g id="node5" class="node"><title>Node5</title>
<g id="a_node5"><a xlink:href="loggers_8h.html" target="_top" xlink:title="Utilities for logging messages. ">
<polygon fill="none" stroke="black" points="340.357,-220.5 340.357,-238.5 480.874,-238.5 480.874,-220.5 340.357,-220.5"/>
<text text-anchor="middle" x="410.616" y="-226.5" font-family="Helvetica,sans-Serif" font-size="10.00">tomographer/tools/loggers.h</text>
</a>
</g>
</g>
<!-- Node1&#45;&gt;Node5 -->
<g id="edge4" class="edge"><title>Node1&#45;&gt;Node5</title>
<path fill="none" stroke="midnightblue" d="M286.523,-275.484C314.137,-265.474 351.944,-251.769 378.548,-242.125"/>
<polygon fill="midnightblue" stroke="midnightblue" points="379.943,-245.342 388.151,-238.643 377.557,-238.761 379.943,-245.342"/>
</g>
<!-- Node5&#45;&gt;Node3 -->
<g id="edge6" class="edge"><title>Node5&#45;&gt;Node3</title>
<path fill="none" stroke="midnightblue" d="M340.08,-227.84C281.124,-224.884 196.096,-214.91 128.616,-184 104.011,-172.73 81.1025,-151.046 67.2347,-136.181"/>
<polygon fill="midnightblue" stroke="midnightblue" points="69.8078,-133.808 60.5072,-128.733 64.6133,-138.5 69.8078,-133.808"/>
</g>
<!-- Node6 -->
<g id="node6" class="node"><title>Node6</title>
<polygon fill="none" stroke="#bfbfbf" points="137.5,-165.5 137.5,-183.5 185.731,-183.5 185.731,-165.5 137.5,-165.5"/>
<text text-anchor="middle" x="161.616" y="-171.5" font-family="Helvetica,sans-Serif" font-size="10.00">cassert</text>
</g>
<!-- Node5&#45;&gt;Node6 -->
<g id="edge5" class="edge"><title>Node5&#45;&gt;Node6</title>
<path fill="none" stroke="midnightblue" d="M371.696,-220.44C329.334,-211.633 259.614,-197.037 199.616,-184 198.526,-183.763 197.418,-183.522 196.3,-183.277"/>
<polygon fill="midnightblue" stroke="midnightblue" points="196.655,-179.771 186.136,-181.031 195.145,-186.606 196.655,-179.771"/>
</g>
<!-- Node7 -->
<g id="node7" class="node"><title>Node7</title>
<polygon fill="none" stroke="#bfbfbf" points="92.2192,-110.5 92.2192,-128.5 141.012,-128.5 141.012,-110.5 92.2192,-110.5"/>
<text text-anchor="middle" x="116.616" y="-116.5" font-family="Helvetica,sans-Serif" font-size="10.00">cstdarg</text>
</g>
<!-- Node5&#45;&gt;Node7 -->
<g id="edge7" class="edge"><title>Node5&#45;&gt;Node7</title>
<path fill="none" stroke="midnightblue" d="M365.003,-220.446C328.441,-213.2 276.223,-201.06 232.616,-184 223.121,-180.286 170.957,-151.155 139.906,-133.667"/>
<polygon fill="midnightblue" stroke="midnightblue" points="141.448,-130.518 131.019,-128.654 138.009,-136.615 141.448,-130.518"/>
</g>
<!-- Node8 -->
<g id="node8" class="node"><title>Node8</title>
<polygon fill="none" stroke="#bfbfbf" points="476.389,-0.5 476.389,-18.5 516.842,-18.5 516.842,-0.5 476.389,-0.5"/>
<text text-anchor="middle" x="496.616" y="-6.5" font-family="Helvetica,sans-Serif" font-size="10.00">string</text>
</g>
<!-- Node5&#45;&gt;Node8 -->
<g id="edge8" class="edge"><title>Node5&#45;&gt;Node8</title>
<path fill="none" stroke="midnightblue" d="M420.371,-220.179C434.754,-207.949 462.551,-184.461 486.616,-165 530.846,-129.23 557.787,-127.677 576.616,-74 579.411,-66.0316 580.896,-62.2792 576.616,-55 565.808,-36.6208 544.358,-25.2839 526.387,-18.6557"/>
<polygon fill="midnightblue" stroke="midnightblue" points="527.446,-15.319 516.851,-15.443 525.211,-21.9526 527.446,-15.319"/>
</g>
<!-- Node9 -->
<g id="node9" class="node"><title>Node9</title>
<polygon fill="none" stroke="#bfbfbf" points="399.835,-110.5 399.835,-128.5 451.396,-128.5 451.396,-110.5 399.835,-110.5"/>
<text text-anchor="middle" x="425.616" y="-116.5" font-family="Helvetica,sans-Serif" font-size="10.00">sstream</text>
</g>
<!-- Node5&#45;&gt;Node9 -->
<g id="edge9" class="edge"><title>Node5&#45;&gt;Node9</title>
<path fill="none" stroke="midnightblue" d="M410.891,-220.237C411.38,-208.08 412.645,-184.682 415.616,-165 416.948,-156.172 419.047,-146.488 420.978,-138.415"/>
<polygon fill="midnightblue" stroke="midnightblue" points="424.393,-139.186 423.42,-128.636 417.602,-137.49 424.393,-139.186"/>
</g>
<!-- Node10 -->
<g id="node10" class="node"><title>Node10</title>
<polygon fill="none" stroke="#bfbfbf" points="469.443,-110.5 469.443,-128.5 523.788,-128.5 523.788,-110.5 469.443,-110.5"/>
<text text-anchor="middle" x="496.616" y="-116.5" font-family="Helvetica,sans-Serif" font-size="10.00">iostream</text>
</g>
<!-- Node5&#45;&gt;Node10 -->
<g id="edge10" class="edge"><title>Node5&#45;&gt;Node10</title>
<path fill="none" stroke="midnightblue" d="M415.49,-220.366C423.054,-207.973 438.346,-183.815 453.616,-165 461.927,-154.759 472.155,-144.107 480.551,-135.792"/>
<polygon fill="midnightblue" stroke="midnightblue" points="483.189,-138.109 487.917,-128.627 478.308,-133.091 483.189,-138.109"/>
</g>
<!-- Node11 -->
<g id="node11" class="node"><title>Node11</title>
<polygon fill="none" stroke="#bfbfbf" points="495.212,-165.5 495.212,-183.5 554.02,-183.5 554.02,-165.5 495.212,-165.5"/>
<text text-anchor="middle" x="524.616" y="-171.5" font-family="Helvetica,sans-Serif" font-size="10.00">functional</text>
</g>
<!-- Node5&#45;&gt;Node11 -->
<g id="edge11" class="edge"><title>Node5&#45;&gt;Node11</title>
<path fill="none" stroke="midnightblue" d="M427.93,-220.45C446.511,-211.812 476.262,-197.98 497.859,-187.94"/>
<polygon fill="midnightblue" stroke="midnightblue" points="499.546,-191.015 507.139,-183.625 496.595,-184.667 499.546,-191.015"/>
</g>
<!-- Node12 -->
<g id="node12" class="node"><title>Node12</title>
<polygon fill="none" stroke="#bfbfbf" points="345.549,-55.5 345.549,-73.5 407.682,-73.5 407.682,-55.5 345.549,-55.5"/>
<text text-anchor="middle" x="376.616" y="-61.5" font-family="Helvetica,sans-Serif" font-size="10.00">type_traits</text>
</g>
<!-- Node5&#45;&gt;Node12 -->
<g id="edge12" class="edge"><title>Node5&#45;&gt;Node12</title>
<path fill="none" stroke="midnightblue" d="M481.283,-220.823C583.485,-209.554 760.941,-189.298 765.616,-184 771.203,-177.668 770.794,-171.67 765.616,-165 754.739,-150.991 515.236,-96.3561 417.547,-74.5555"/>
<polygon fill="midnightblue" stroke="midnightblue" points="418.246,-71.1256 407.725,-72.3676 416.724,-77.9581 418.246,-71.1256"/>
</g>
<!-- Node13 -->
<g id="node13" class="node"><title>Node13</title>
<polygon fill="none" stroke="#bfbfbf" points="571.889,-165.5 571.889,-183.5 607.342,-183.5 607.342,-165.5 571.889,-165.5"/>
<text text-anchor="middle" x="589.616" y="-171.5" font-family="Helvetica,sans-Serif" font-size="10.00">map</text>
</g>
<!-- Node5&#45;&gt;Node13 -->
<g id="edge13" class="edge"><title>Node5&#45;&gt;Node13</title>
<path fill="none" stroke="midnightblue" d="M438.681,-220.467C467.314,-212.232 513.264,-198.906 561.87,-184.182"/>
<polygon fill="midnightblue" stroke="midnightblue" points="563.071,-187.475 571.622,-181.22 561.037,-180.778 563.071,-187.475"/>
</g>
<!-- Node14 -->
<g id="node14" class="node"><title>Node14</title>
<polygon fill="none" stroke="#bfbfbf" points="625.084,-165.5 625.084,-183.5 756.147,-183.5 756.147,-165.5 625.084,-165.5"/>
<text text-anchor="middle" x="690.616" y="-171.5" font-family="Helvetica,sans-Serif" font-size="10.00">boost/algorithm/string.hpp</text>
</g>
<!-- Node5&#45;&gt;Node14 -->
<g id="edge14" class="edge"><title>Node5&#45;&gt;Node14</title>
<path fill="none" stroke="midnightblue" d="M453.142,-220.45C502.726,-211.065 584.696,-195.549 638.18,-185.425"/>
<polygon fill="midnightblue" stroke="midnightblue" points="638.975,-188.837 648.149,-183.538 637.673,-181.959 638.975,-188.837"/>
</g>
<!-- Node15 -->
<g id="node15" class="node"><title>Node15</title>
<g id="a_node15"><a xlink:href="fmt_8h.html" target="_top" xlink:title="Utilities for formatting strings. ">
<polygon fill="none" stroke="black" points="241.813,-165.5 241.813,-183.5 363.418,-183.5 363.418,-165.5 241.813,-165.5"/>
<text text-anchor="middle" x="302.616" y="-171.5" font-family="Helvetica,sans-Serif" font-size="10.00">tomographer/tools/fmt.h</text>
</a>
</g>
</g>
<!-- Node5&#45;&gt;Node15 -->
<g id="edge15" class="edge"><title>Node5&#45;&gt;Node15</title>
<path fill="none" stroke="midnightblue" d="M394.213,-220.45C376.689,-211.851 348.678,-198.105 328.241,-188.075"/>
<polygon fill="midnightblue" stroke="midnightblue" points="329.692,-184.889 319.173,-183.625 326.608,-191.173 329.692,-184.889"/>
</g>
<!-- Node19 -->
<g id="node19" class="node"><title>Node19</title>
<g id="a_node19"><a xlink:href="conststr_8h.html" target="_top" xlink:title="A constexpr string type, suitable for basic compile&#45;time string processing. ">
<polygon fill="none" stroke="black" points="425.525,-55.5 425.525,-73.5 567.707,-73.5 567.707,-55.5 425.525,-55.5"/>
<text text-anchor="middle" x="496.616" y="-61.5" font-family="Helvetica,sans-Serif" font-size="10.00">tomographer/tools/conststr.h</text>
</a>
</g>
</g>
<!-- Node5&#45;&gt;Node19 -->
<g id="edge27" class="edge"><title>Node5&#45;&gt;Node19</title>
<path fill="none" stroke="midnightblue" d="M481.125,-220.631C588.046,-208.617 779.137,-186.794 781.616,-184 844.835,-112.745 682.832,-83.3094 577.911,-71.9728"/>
<polygon fill="midnightblue" stroke="midnightblue" points="578.255,-68.4898 567.945,-70.9314 577.527,-75.4519 578.255,-68.4898"/>
</g>
<!-- Node15&#45;&gt;Node3 -->
<g id="edge16" class="edge"><title>Node15&#45;&gt;Node3</title>
<path fill="none" stroke="midnightblue" d="M257.936,-165.446C215.693,-157.603 150.333,-144.88 84.9368,-129.178"/>
<polygon fill="midnightblue" stroke="midnightblue" points="85.4117,-125.691 74.8685,-126.736 83.762,-132.494 85.4117,-125.691"/>
</g>
<!-- Node15&#45;&gt;Node7 -->
<g id="edge17" class="edge"><title>Node15&#45;&gt;Node7</title>
<path fill="none" stroke="midnightblue" d="M274.366,-165.45C241.345,-156.041 186.703,-140.471 151.181,-130.349"/>
<polygon fill="midnightblue" stroke="midnightblue" points="151.836,-126.897 141.26,-127.522 149.918,-133.629 151.836,-126.897"/>
</g>
<!-- Node15&#45;&gt;Node8 -->
<g id="edge19" class="edge"><title>Node15&#45;&gt;Node8</title>
<path fill="none" stroke="midnightblue" d="M288.145,-165.414C276.118,-157.782 259.847,-145.115 252.616,-129 239.152,-98.9933 231.549,-80.2562 252.616,-55 279.49,-22.7813 406.835,-13.8278 466.12,-11.389"/>
<polygon fill="midnightblue" stroke="midnightblue" points="466.496,-14.8775 476.358,-11.0053 466.233,-7.88239 466.496,-14.8775"/>
</g>
<!-- Node15&#45;&gt;Node9 -->
<g id="edge20" class="edge"><title>Node15&#45;&gt;Node9</title>
<path fill="none" stroke="midnightblue" d="M321.297,-165.45C341.525,-156.734 374.024,-142.731 397.374,-132.669"/>
<polygon fill="midnightblue" stroke="midnightblue" points="398.96,-135.797 406.759,-128.625 396.19,-129.368 398.96,-135.797"/>
</g>
<!-- Node15&#45;&gt;Node10 -->
<g id="edge21" class="edge"><title>Node15&#45;&gt;Node10</title>
<path fill="none" stroke="midnightblue" d="M332.08,-165.45C366.185,-156.133 422.402,-140.775 459.472,-130.648"/>
<polygon fill="midnightblue" stroke="midnightblue" points="460.661,-133.951 469.385,-127.939 458.817,-127.198 460.661,-133.951"/>
</g>
<!-- Node16 -->
<g id="node16" class="node"><title>Node16</title>
<polygon fill="none" stroke="#bfbfbf" points="159.328,-110.5 159.328,-128.5 205.904,-128.5 205.904,-110.5 159.328,-110.5"/>
<text text-anchor="middle" x="182.616" y="-116.5" font-family="Helvetica,sans-Serif" font-size="10.00">chrono</text>
</g>
<!-- Node15&#45;&gt;Node16 -->
<g id="edge18" class="edge"><title>Node15&#45;&gt;Node16</title>
<path fill="none" stroke="midnightblue" d="M284.39,-165.45C264.655,-156.734 232.949,-142.731 210.168,-132.669"/>
<polygon fill="midnightblue" stroke="midnightblue" points="211.574,-129.464 201.013,-128.625 208.746,-135.867 211.574,-129.464"/>
</g>
<!-- Node17 -->
<g id="node17" class="node"><title>Node17</title>
<g id="a_node17"><a xlink:href="tools_2util_8h.html" target="_top" xlink:title="Some C++ utilities, with a tad of C++11 tricks. ">
<polygon fill="none" stroke="black" points="261.365,-110.5 261.365,-128.5 381.867,-128.5 381.867,-110.5 261.365,-110.5"/>
<text text-anchor="middle" x="321.616" y="-116.5" font-family="Helvetica,sans-Serif" font-size="10.00">tomographer/tools/util.h</text>
</a>
</g>
</g>
<!-- Node15&#45;&gt;Node17 -->
<g id="edge22" class="edge"><title>Node15&#45;&gt;Node17</title>
<path fill="none" stroke="midnightblue" d="M305.584,-165.219C308.165,-158.02 311.992,-147.346 315.259,-138.231"/>
<polygon fill="midnightblue" stroke="midnightblue" points="318.65,-139.144 318.73,-128.55 312.061,-136.782 318.65,-139.144"/>
</g>
<!-- Node17&#45;&gt;Node12 -->
<g id="edge23" class="edge"><title>Node17&#45;&gt;Node12</title>
<path fill="none" stroke="midnightblue" d="M330.209,-110.219C338.41,-102.316 350.959,-90.2241 360.94,-80.6057"/>
<polygon fill="midnightblue" stroke="midnightblue" points="363.49,-83.0088 368.262,-73.5496 358.633,-77.9682 363.49,-83.0088"/>
</g>
<!-- Node18 -->
<g id="node18" class="node"><title>Node18</title>
<polygon fill="none" stroke="#bfbfbf" points="261.601,-55.5 261.601,-73.5 327.63,-73.5 327.63,-55.5 261.601,-55.5"/>
<text text-anchor="middle" x="294.616" y="-61.5" font-family="Helvetica,sans-Serif" font-size="10.00">Eigen/Core</text>
</g>
<!-- Node17&#45;&gt;Node18 -->
<g id="edge24" class="edge"><title>Node17&#45;&gt;Node18</title>
<path fill="none" stroke="midnightblue" d="M317.397,-110.219C313.65,-102.864 308.055,-91.8801 303.347,-82.639"/>
<polygon fill="midnightblue" stroke="midnightblue" points="306.374,-80.8712 298.716,-73.5496 300.137,-84.0487 306.374,-80.8712"/>
</g>
<!-- Node17&#45;&gt;Node19 -->
<g id="edge25" class="edge"><title>Node17&#45;&gt;Node19</title>
<path fill="none" stroke="midnightblue" d="M348.194,-110.45C378.09,-101.396 426.82,-86.6382 460.234,-76.5185"/>
<polygon fill="midnightblue" stroke="midnightblue" points="461.518,-79.7867 470.074,-73.5383 459.489,-73.0872 461.518,-79.7867"/>
</g>
<!-- Node19&#45;&gt;Node8 -->
<g id="edge26" class="edge"><title>Node19&#45;&gt;Node8</title>
<path fill="none" stroke="midnightblue" d="M496.616,-55.2188C496.616,-48.1769 496.616,-37.8083 496.616,-28.8277"/>
<polygon fill="midnightblue" stroke="midnightblue" points="500.116,-28.5495 496.616,-18.5496 493.116,-28.5496 500.116,-28.5495"/>
</g>
</g>
</svg>
