<?xml version="1.0" encoding="UTF-8" standalone="no"?>
<!DOCTYPE svg PUBLIC "-//W3C//DTD SVG 1.1//EN"
 "http://www.w3.org/Graphics/SVG/1.1/DTD/svg11.dtd">
<!-- Generated by graphviz version 2.38.0 (20140413.2041)
 -->
<!-- Title: Tomographer::AveragedHistogram&lt; HistogramType_, RealAvgType &gt; Pages: 1 -->
<svg width="973pt" height="104pt"
 viewBox="0.00 0.00 973.16 104.00" xmlns="http://www.w3.org/2000/svg" xmlns:xlink="http://www.w3.org/1999/xlink">
<g id="graph0" class="graph" transform="scale(1 1) rotate(0) translate(4 100)">
<title>Tomographer::AveragedHistogram&lt; HistogramType_, RealAvgType &gt;</title>
<!-- Node1 -->
<g id="node1" class="node"><title>Node1</title>
<polygon fill="#bfbfbf" stroke="black" points="794.251,-33.5 794.251,-61.5 965.163,-61.5 965.163,-33.5 794.251,-33.5"/>
<text text-anchor="start" x="802.251" y="-49.5" font-family="Helvetica,sans-Serif" font-size="10.00">Tomographer::AveragedHistogram</text>
<text text-anchor="middle" x="879.707" y="-39.5" font-family="Helvetica,sans-Serif" font-size="10.00">&lt; HistogramType_, RealAvgType &gt;</text>
</g>
<!-- Node2 -->
<g id="node2" class="node"><title>Node2</title>
<g id="a_node2"><a xlink:href="struct_tomographer_1_1_uniform_bins_histogram_with_error_bars.html" target="_top" xlink:title="Tomographer::UniformBins\lHistogramWithErrorBars\l\&lt; HistogramType_::Scalar,\l RealAvgType \&gt;">
<polygon fill="none" stroke="black" points="622.315,-23.5 622.315,-71.5 757.251,-71.5 757.251,-23.5 622.315,-23.5"/>
<text text-anchor="start" x="630.315" y="-59.5" font-family="Helvetica,sans-Serif" font-size="10.00">Tomographer::UniformBins</text>
<text text-anchor="start" x="630.315" y="-49.5" font-family="Helvetica,sans-Serif" font-size="10.00">HistogramWithErrorBars</text>
<text text-anchor="start" x="630.315" y="-39.5" font-family="Helvetica,sans-Serif" font-size="10.00">&lt; HistogramType_::Scalar,</text>
<text text-anchor="middle" x="689.783" y="-29.5" font-family="Helvetica,sans-Serif" font-size="10.00"> RealAvgType &gt;</text>
</a>
</g>
</g>
<!-- Node2&#45;&gt;Node1 -->
<g id="edge1" class="edge"><title>Node2&#45;&gt;Node1</title>
<path fill="none" stroke="midnightblue" d="M767.504,-47.5C776.292,-47.5 785.288,-47.5 794.171,-47.5"/>
<polygon fill="midnightblue" stroke="midnightblue" points="767.303,-44.0001 757.303,-47.5 767.303,-51.0001 767.303,-44.0001"/>
</g>
<!-- Node3 -->
<g id="node3" class="node"><title>Node3</title>
<g id="a_node3"><a xlink:href="struct_tomographer_1_1_uniform_bins_histogram.html" target="_top" xlink:title="Tomographer::UniformBins\lHistogram\&lt; HistogramType\l_::Scalar, RealAvgType \&gt;">
<polygon fill="none" stroke="black" points="328.538,-57.5 328.538,-95.5 465.974,-95.5 465.974,-57.5 328.538,-57.5"/>
<text text-anchor="start" x="336.538" y="-83.5" font-family="Helvetica,sans-Serif" font-size="10.00">Tomographer::UniformBins</text>
<text text-anchor="start" x="336.538" y="-73.5" font-family="Helvetica,sans-Serif" font-size="10.00">Histogram&lt; HistogramType</text>
<text text-anchor="middle" x="397.256" y="-63.5" font-family="Helvetica,sans-Serif" font-size="10.00">_::Scalar, RealAvgType &gt;</text>
</a>
</g>
</g>
<!-- Node3&#45;&gt;Node2 -->
<g id="edge2" class="edge"><title>Node3&#45;&gt;Node2</title>
<path fill="none" stroke="midnightblue" d="M476.143,-69.1143C514.711,-65.4128 561.972,-60.8106 604.315,-56.5 610.037,-55.9175 615.976,-55.3036 621.933,-54.6814"/>
<polygon fill="midnightblue" stroke="midnightblue" points="475.642,-65.6462 466.021,-70.0843 476.31,-72.6143 475.642,-65.6462"/>
</g>
<!-- Node4 -->
<g id="node4" class="node"><title>Node4</title>
<g id="a_node4"><a xlink:href="struct_tomographer_1_1_uniform_bins_histogram.html" target="_top" xlink:title="Stores a histogram. ">
<polygon fill="none" stroke="black" points="0,-36.5 0,-64.5 172.196,-64.5 172.196,-36.5 0,-36.5"/>
<text text-anchor="start" x="8" y="-52.5" font-family="Helvetica,sans-Serif" font-size="10.00">Tomographer::UniformBins</text>
<text text-anchor="middle" x="86.0981" y="-42.5" font-family="Helvetica,sans-Serif" font-size="10.00">Histogram&lt; Scalar_, CountType_ &gt;</text>
</a>
</g>
</g>
<!-- Node4&#45;&gt;Node3 -->
<g id="edge3" class="edge"><title>Node4&#45;&gt;Node3</title>
<path fill="none" stroke="orange" stroke-dasharray="5,2" d="M182.631,-58.5343C229.806,-62.5016 285.615,-67.1951 328.358,-70.7898"/>
<polygon fill="orange" stroke="orange" points="182.653,-55.0239 172.395,-57.6734 182.067,-61.9993 182.653,-55.0239"/>
<text text-anchor="start" x="190.196" y="-80.5" font-family="Helvetica,sans-Serif" font-size="10.00"> &lt; HistogramType_::Scalar,</text>
<text text-anchor="middle" x="250.367" y="-70.5" font-family="Helvetica,sans-Serif" font-size="10.00"> RealAvgType &gt;</text>
</g>
<!-- Node5 -->
<g id="node5" class="node"><title>Node5</title>
<g id="a_node5"><a xlink:href="struct_tomographer_1_1_uniform_bins_histogram_with_error_bars.html" target="_top" xlink:title="Stores a histogram along with error bars. ">
<polygon fill="none" stroke="black" points="329.788,-0.5 329.788,-38.5 464.724,-38.5 464.724,-0.5 329.788,-0.5"/>
<text text-anchor="start" x="337.788" y="-26.5" font-family="Helvetica,sans-Serif" font-size="10.00">Tomographer::UniformBins</text>
<text text-anchor="start" x="337.788" y="-16.5" font-family="Helvetica,sans-Serif" font-size="10.00">HistogramWithErrorBars</text>
<text text-anchor="middle" x="397.256" y="-6.5" font-family="Helvetica,sans-Serif" font-size="10.00">&lt; Scalar_, CountType_ &gt;</text>
</a>
</g>
</g>
<!-- Node4&#45;&gt;Node5 -->
<g id="edge5" class="edge"><title>Node4&#45;&gt;Node5</title>
<path fill="none" stroke="midnightblue" d="M182.408,-40.943C229.998,-36.1711 286.419,-30.5136 329.356,-26.2082"/>
<polygon fill="midnightblue" stroke="midnightblue" points="181.996,-37.4667 172.395,-41.9471 182.695,-44.4318 181.996,-37.4667"/>
</g>
<!-- Node5&#45;&gt;Node2 -->
<g id="edge4" class="edge"><title>Node5&#45;&gt;Node2</title>
<path fill="none" stroke="orange" stroke-dasharray="5,2" d="M475.312,-24.9903C514.059,-27.9712 561.719,-31.9718 604.315,-36.5 610.051,-37.1097 615.999,-37.7889 621.962,-38.5023"/>
<polygon fill="orange" stroke="orange" points="475.385,-21.4858 465.148,-24.2159 474.853,-28.4655 475.385,-21.4858"/>
<text text-anchor="start" x="483.974" y="-48.5" font-family="Helvetica,sans-Serif" font-size="10.00"> &lt; HistogramType_::Scalar,</text>
<text text-anchor="middle" x="544.145" y="-38.5" font-family="Helvetica,sans-Serif" font-size="10.00"> RealAvgType &gt;</text>
</g>
</g>
</svg>
