<?xml version="1.0" encoding="UTF-8" standalone="no"?>
<!DOCTYPE svg PUBLIC "-//W3C//DTD SVG 1.1//EN"
 "http://www.w3.org/Graphics/SVG/1.1/DTD/svg11.dtd">
<!-- Generated by graphviz version 2.38.0 (20140413.2041)
 -->
<!-- Title: Tomographer::UniformBinsHistogram&lt; Scalar_, CountType_ &gt; Pages: 1 -->
<svg width="1120pt" height="161pt"
 viewBox="0.00 0.00 1119.58 161.00" xmlns="http://www.w3.org/2000/svg" xmlns:xlink="http://www.w3.org/1999/xlink">
<g id="graph0" class="graph" transform="scale(1 1) rotate(0) translate(4 157)">
<title>Tomographer::UniformBinsHistogram&lt; Scalar_, CountType_ &gt;</title>
<!-- Node1 -->
<g id="node1" class="node"><title>Node1</title>
<polygon fill="#bfbfbf" stroke="black" points="0,-62.5 0,-90.5 172.196,-90.5 172.196,-62.5 0,-62.5"/>
<text text-anchor="start" x="8" y="-78.5" font-family="Helvetica,sans-Serif" font-size="10.00">Tomographer::UniformBins</text>
<text text-anchor="middle" x="86.0981" y="-68.5" font-family="Helvetica,sans-Serif" font-size="10.00">Histogram&lt; Scalar_, CountType_ &gt;</text>
</g>
<!-- Node2 -->
<g id="node2" class="node"><title>Node2</title>
<g id="a_node2"><a xlink:href="struct_tomographer_1_1_uniform_bins_histogram_with_error_bars.html" target="_top" xlink:title="Stores a histogram along with error bars. ">
<polygon fill="none" stroke="black" points="386.343,-57.5 386.343,-95.5 521.279,-95.5 521.279,-57.5 386.343,-57.5"/>
<text text-anchor="start" x="394.343" y="-83.5" font-family="Helvetica,sans-Serif" font-size="10.00">Tomographer::UniformBins</text>
<text text-anchor="start" x="394.343" y="-73.5" font-family="Helvetica,sans-Serif" font-size="10.00">HistogramWithErrorBars</text>
<text text-anchor="middle" x="453.811" y="-63.5" font-family="Helvetica,sans-Serif" font-size="10.00">&lt; Scalar_, CountType_ &gt;</text>
</a>
</g>
</g>
<!-- Node1&#45;&gt;Node2 -->
<g id="edge1" class="edge"><title>Node1&#45;&gt;Node2</title>
<path fill="none" stroke="midnightblue" d="M182.49,-76.5C246.528,-76.5 329.287,-76.5 386.274,-76.5"/>
<polygon fill="midnightblue" stroke="midnightblue" points="182.38,-73.0001 172.38,-76.5 182.38,-80.0001 182.38,-73.0001"/>
</g>
<!-- Node6 -->
<g id="node6" class="node"><title>Node6</title>
<g id="a_node6"><a xlink:href="struct_tomographer_1_1_uniform_bins_histogram.html" target="_top" xlink:title="Tomographer::UniformBins\lHistogram\&lt; HistogramType\l_::Scalar, RealAvgType \&gt;">
<polygon fill="none" stroke="black" points="385.093,-114.5 385.093,-152.5 522.529,-152.5 522.529,-114.5 385.093,-114.5"/>
<text text-anchor="start" x="393.093" y="-140.5" font-family="Helvetica,sans-Serif" font-size="10.00">Tomographer::UniformBins</text>
<text text-anchor="start" x="393.093" y="-130.5" font-family="Helvetica,sans-Serif" font-size="10.00">Histogram&lt; HistogramType</text>
<text text-anchor="middle" x="453.811" y="-120.5" font-family="Helvetica,sans-Serif" font-size="10.00">_::Scalar, RealAvgType &gt;</text>
</a>
</g>
</g>
<!-- Node1&#45;&gt;Node6 -->
<g id="edge5" class="edge"><title>Node1&#45;&gt;Node6</title>
<path fill="none" stroke="orange" stroke-dasharray="5,2" d="M182.407,-91.3548C245.91,-101.252 327.853,-114.024 384.811,-122.902"/>
<polygon fill="orange" stroke="orange" points="182.8,-87.8739 172.38,-89.792 181.722,-94.7904 182.8,-87.8739"/>
<text text-anchor="start" x="206.148" y="-126.5" font-family="Helvetica,sans-Serif" font-size="10.00"> &lt; HistogramType_::Scalar,</text>
<text text-anchor="middle" x="266.319" y="-116.5" font-family="Helvetica,sans-Serif" font-size="10.00"> RealAvgType &gt;</text>
</g>
<!-- Node7 -->
<g id="node7" class="node"><title>Node7</title>
<g id="a_node7"><a xlink:href="struct_tomographer_1_1_uniform_bins_histogram.html" target="_top" xlink:title="Tomographer::UniformBins\lHistogram\&lt; typename ValueCalculator\l::ValueType, CountRealAvgType \&gt;">
<polygon fill="none" stroke="black" points="360.442,-0.5 360.442,-38.5 547.18,-38.5 547.18,-0.5 360.442,-0.5"/>
<text text-anchor="start" x="368.442" y="-26.5" font-family="Helvetica,sans-Serif" font-size="10.00">Tomographer::UniformBins</text>
<text text-anchor="start" x="368.442" y="-16.5" font-family="Helvetica,sans-Serif" font-size="10.00">Histogram&lt; typename ValueCalculator</text>
<text text-anchor="middle" x="453.811" y="-6.5" font-family="Helvetica,sans-Serif" font-size="10.00">::ValueType, CountRealAvgType &gt;</text>
</a>
</g>
</g>
<!-- Node1&#45;&gt;Node7 -->
<g id="edge7" class="edge"><title>Node1&#45;&gt;Node7</title>
<path fill="none" stroke="orange" stroke-dasharray="5,2" d="M152.412,-60.2203C164.908,-57.4114 177.92,-54.6941 190.196,-52.5 246.4,-42.4548 309.91,-34.3869 360.394,-28.7431"/>
<polygon fill="orange" stroke="orange" points="151.492,-56.8403 142.526,-62.4844 153.055,-63.6636 151.492,-56.8403"/>
<text text-anchor="start" x="190.196" y="-64.5" font-family="Helvetica,sans-Serif" font-size="10.00"> &lt; typename ValueCalculator</text>
<text text-anchor="middle" x="266.319" y="-54.5" font-family="Helvetica,sans-Serif" font-size="10.00">::ValueType, CountRealAvgType &gt;</text>
</g>
<!-- Node3 -->
<g id="node3" class="node"><title>Node3</title>
<g id="a_node3"><a xlink:href="struct_tomographer_1_1_uniform_bins_histogram_with_error_bars.html" target="_top" xlink:title="Tomographer::UniformBins\lHistogramWithErrorBars\l\&lt; HistogramType_::Scalar,\l RealAvgType \&gt;">
<polygon fill="none" stroke="black" points="752.081,-87.5 752.081,-135.5 887.017,-135.5 887.017,-87.5 752.081,-87.5"/>
<text text-anchor="start" x="760.081" y="-123.5" font-family="Helvetica,sans-Serif" font-size="10.00">Tomographer::UniformBins</text>
<text text-anchor="start" x="760.081" y="-113.5" font-family="Helvetica,sans-Serif" font-size="10.00">HistogramWithErrorBars</text>
<text text-anchor="start" x="760.081" y="-103.5" font-family="Helvetica,sans-Serif" font-size="10.00">&lt; HistogramType_::Scalar,</text>
<text text-anchor="middle" x="819.549" y="-93.5" font-family="Helvetica,sans-Serif" font-size="10.00"> RealAvgType &gt;</text>
</a>
</g>
</g>
<!-- Node2&#45;&gt;Node3 -->
<g id="edge2" class="edge"><title>Node2&#45;&gt;Node3</title>
<path fill="none" stroke="orange" stroke-dasharray="5,2" d="M531.593,-79.7743C584.054,-82.4984 655.093,-87.1423 717.426,-94.5 728.652,-95.8252 740.531,-97.5389 752.048,-99.3669"/>
<polygon fill="orange" stroke="orange" points="531.521,-76.2662 521.356,-79.2548 531.166,-83.2572 531.521,-76.2662"/>
<text text-anchor="start" x="581.132" y="-106.5" font-family="Helvetica,sans-Serif" font-size="10.00"> &lt; HistogramType_::Scalar,</text>
<text text-anchor="middle" x="641.303" y="-96.5" font-family="Helvetica,sans-Serif" font-size="10.00"> RealAvgType &gt;</text>
</g>
<!-- Node5 -->
<g id="node5" class="node"><title>Node5</title>
<g id="a_node5"><a xlink:href="struct_tomographer_1_1_uniform_bins_histogram_with_error_bars.html" target="_top" xlink:title="Tomographer::UniformBins\lHistogramWithErrorBars\l\&lt; typename ValueCalculator\l::ValueType, CountRealAvgType \&gt;">
<polygon fill="none" stroke="black" points="735.426,-15.5 735.426,-63.5 903.672,-63.5 903.672,-15.5 735.426,-15.5"/>
<text text-anchor="start" x="743.426" y="-51.5" font-family="Helvetica,sans-Serif" font-size="10.00">Tomographer::UniformBins</text>
<text text-anchor="start" x="743.426" y="-41.5" font-family="Helvetica,sans-Serif" font-size="10.00">HistogramWithErrorBars</text>
<text text-anchor="start" x="743.426" y="-31.5" font-family="Helvetica,sans-Serif" font-size="10.00">&lt; typename ValueCalculator</text>
<text text-anchor="middle" x="819.549" y="-21.5" font-family="Helvetica,sans-Serif" font-size="10.00">::ValueType, CountRealAvgType &gt;</text>
</a>
</g>
</g>
<!-- Node2&#45;&gt;Node5 -->
<g id="edge4" class="edge"><title>Node2&#45;&gt;Node5</title>
<path fill="none" stroke="orange" stroke-dasharray="5,2" d="M531.715,-63.0806C542.919,-61.381 554.331,-59.789 565.18,-58.5 621.795,-51.7734 685.828,-46.9958 735.356,-43.9139"/>
<polygon fill="orange" stroke="orange" points="530.851,-59.6728 521.506,-64.6661 531.925,-66.5899 530.851,-59.6728"/>
<text text-anchor="start" x="565.18" y="-70.5" font-family="Helvetica,sans-Serif" font-size="10.00"> &lt; typename ValueCalculator</text>
<text text-anchor="middle" x="641.303" y="-60.5" font-family="Helvetica,sans-Serif" font-size="10.00">::ValueType, CountRealAvgType &gt;</text>
</g>
<!-- Node4 -->
<g id="node4" class="node"><title>Node4</title>
<g id="a_node4"><a xlink:href="struct_tomographer_1_1_averaged_histogram.html" target="_top" xlink:title="Combines several histograms (with same parameters) into an averaged histogram. ">
<polygon fill="none" stroke="black" points="940.672,-97.5 940.672,-125.5 1111.58,-125.5 1111.58,-97.5 940.672,-97.5"/>
<text text-anchor="start" x="948.672" y="-113.5" font-family="Helvetica,sans-Serif" font-size="10.00">Tomographer::AveragedHistogram</text>
<text text-anchor="middle" x="1026.13" y="-103.5" font-family="Helvetica,sans-Serif" font-size="10.00">&lt; HistogramType_, RealAvgType &gt;</text>
</a>
</g>
</g>
<!-- Node3&#45;&gt;Node4 -->
<g id="edge3" class="edge"><title>Node3&#45;&gt;Node4</title>
<path fill="none" stroke="midnightblue" d="M897.383,-111.5C911.485,-111.5 926.277,-111.5 940.59,-111.5"/>
<polygon fill="midnightblue" stroke="midnightblue" points="897.253,-108 887.253,-111.5 897.253,-115 897.253,-108"/>
</g>
<!-- Node6&#45;&gt;Node3 -->
<g id="edge6" class="edge"><title>Node6&#45;&gt;Node3</title>
<path fill="none" stroke="midnightblue" d="M532.768,-129.294C585.022,-126.414 655.364,-122.42 717.426,-118.5 728.578,-117.796 740.42,-117.01 751.923,-116.227"/>
<polygon fill="midnightblue" stroke="midnightblue" points="532.359,-125.811 522.566,-129.855 532.743,-132.801 532.359,-125.811"/>
</g>
<!-- Node7&#45;&gt;Node5 -->
<g id="edge8" class="edge"><title>Node7&#45;&gt;Node5</title>
<path fill="none" stroke="midnightblue" d="M557.871,-25.1667C614.018,-28.2539 682.589,-32.0243 735.309,-34.9231"/>
<polygon fill="midnightblue" stroke="midnightblue" points="557.716,-21.653 547.539,-24.5986 557.331,-28.6424 557.716,-21.653"/>
</g>
</g>
</svg>
