<?xml version="1.0" encoding="UTF-8" standalone="no"?>
<!DOCTYPE svg PUBLIC "-//W3C//DTD SVG 1.1//EN"
 "http://www.w3.org/Graphics/SVG/1.1/DTD/svg11.dtd">
<!-- Generated by graphviz version 2.38.0 (20140413.2041)
 -->
<!-- Title: Tomographer::MatrQBaseDimStore&lt; Derived, has_fixed_dim &gt; Pages: 1 -->
<svg width="911pt" height="78pt"
 viewBox="0.00 0.00 911.23 77.50" xmlns="http://www.w3.org/2000/svg" xmlns:xlink="http://www.w3.org/1999/xlink">
<g id="graph0" class="graph" transform="scale(1 1) rotate(0) translate(4 73.5)">
<title>Tomographer::MatrQBaseDimStore&lt; Derived, has_fixed_dim &gt;</title>
<!-- Node1 -->
<g id="node1" class="node"><title>Node1</title>
<polygon fill="#bfbfbf" stroke="black" points="168.049,-15.5 168.049,-43.5 329.684,-43.5 329.684,-15.5 168.049,-15.5"/>
<text text-anchor="start" x="176.049" y="-31.5" font-family="Helvetica,sans-Serif" font-size="10.00">Tomographer::MatrQBaseDim</text>
<text text-anchor="middle" x="248.866" y="-21.5" font-family="Helvetica,sans-Serif" font-size="10.00">Store&lt; Derived, has_fixed_dim &gt;</text>
</g>
<!-- Node3 -->
<g id="node3" class="node"><title>Node3</title>
<g id="a_node3"><a xlink:href="struct_tomographer_1_1_matr_q_base_dim_store.html" target="_top" xlink:title="Tomographer::MatrQBaseDim\lStore\&lt; MatrQ\&lt; FixedDim\l_, FixedMaxParamList_, RealScalar\l_, IntFreqType_ \&gt;, FixedDim_!\l=Eigen::Dynamic \&gt;">
<polygon fill="none" stroke="black" points="520.474,-0.5 520.474,-58.5 695.98,-58.5 695.98,-0.5 520.474,-0.5"/>
<text text-anchor="start" x="528.474" y="-46.5" font-family="Helvetica,sans-Serif" font-size="10.00">Tomographer::MatrQBaseDim</text>
<text text-anchor="start" x="528.474" y="-36.5" font-family="Helvetica,sans-Serif" font-size="10.00">Store&lt; MatrQ&lt; FixedDim</text>
<text text-anchor="start" x="528.474" y="-26.5" font-family="Helvetica,sans-Serif" font-size="10.00">_, FixedMaxParamList_, RealScalar</text>
<text text-anchor="start" x="528.474" y="-16.5" font-family="Helvetica,sans-Serif" font-size="10.00">_, IntFreqType_ &gt;, FixedDim_!</text>
<text text-anchor="middle" x="608.227" y="-6.5" font-family="Helvetica,sans-Serif" font-size="10.00">=Eigen::Dynamic &gt;</text>
</a>
</g>
</g>
<!-- Node1&#45;&gt;Node3 -->
<g id="edge2" class="edge"><title>Node1&#45;&gt;Node3</title>
<path fill="none" stroke="orange" stroke-dasharray="5,2" d="M340.203,-29.5C395.473,-29.5 465.812,-29.5 520.422,-29.5"/>
<polygon fill="orange" stroke="orange" points="340.065,-26.0001 330.065,-29.5 340.065,-33.0001 340.065,-26.0001"/>
<text text-anchor="start" x="347.684" y="-61.5" font-family="Helvetica,sans-Serif" font-size="10.00"> &lt; MatrQ&lt; FixedDim_,</text>
<text text-anchor="start" x="347.684" y="-51.5" font-family="Helvetica,sans-Serif" font-size="10.00"> FixedMaxParamList_,</text>
<text text-anchor="start" x="347.684" y="-41.5" font-family="Helvetica,sans-Serif" font-size="10.00"> RealScalar_, IntFreqType</text>
<text text-anchor="middle" x="425.079" y="-31.5" font-family="Helvetica,sans-Serif" font-size="10.00">_ &gt;, FixedDim_!=Eigen::Dynamic &gt;</text>
</g>
<!-- Node2 -->
<g id="node2" class="node"><title>Node2</title>
<g id="a_node2"><a xlink:href="struct_tomographer_1_1_matr_q_base.html" target="_top" xlink:title="Basic definitions for MatrQ. ">
<polygon fill="none" stroke="black" points="0,-15.5 0,-43.5 131.049,-43.5 131.049,-15.5 0,-15.5"/>
<text text-anchor="start" x="8" y="-31.5" font-family="Helvetica,sans-Serif" font-size="10.00">Tomographer::MatrQBase</text>
<text text-anchor="middle" x="65.5244" y="-21.5" font-family="Helvetica,sans-Serif" font-size="10.00">&lt; Derived &gt;</text>
</a>
</g>
</g>
<!-- Node2&#45;&gt;Node1 -->
<g id="edge1" class="edge"><title>Node2&#45;&gt;Node1</title>
<path fill="none" stroke="midnightblue" d="M141.401,-29.5C150.165,-29.5 159.134,-29.5 167.964,-29.5"/>
<polygon fill="midnightblue" stroke="midnightblue" points="141.225,-26.0001 131.225,-29.5 141.225,-33.0001 141.225,-26.0001"/>
</g>
<!-- Node4 -->
<g id="node4" class="node"><title>Node4</title>
<g id="a_node4"><a xlink:href="struct_tomographer_1_1_matr_q.html" target="_top" xlink:title="Defines the data types for a particular problem setting. ">
<polygon fill="none" stroke="black" points="732.98,-10.5 732.98,-48.5 903.233,-48.5 903.233,-10.5 732.98,-10.5"/>
<text text-anchor="start" x="740.98" y="-36.5" font-family="Helvetica,sans-Serif" font-size="10.00">Tomographer::MatrQ</text>
<text text-anchor="start" x="740.98" y="-26.5" font-family="Helvetica,sans-Serif" font-size="10.00">&lt; FixedDim_, FixedMaxParam</text>
<text text-anchor="middle" x="818.107" y="-16.5" font-family="Helvetica,sans-Serif" font-size="10.00">List_, RealScalar_, IntFreqType_ &gt;</text>
</a>
</g>
</g>
<!-- Node3&#45;&gt;Node4 -->
<g id="edge3" class="edge"><title>Node3&#45;&gt;Node4</title>
<path fill="none" stroke="midnightblue" d="M706.188,-29.5C715.088,-29.5 724.056,-29.5 732.83,-29.5"/>
<polygon fill="midnightblue" stroke="midnightblue" points="706.182,-26.0001 696.182,-29.5 706.182,-33.0001 706.182,-26.0001"/>
</g>
</g>
</svg>
