<?xml version="1.0" encoding="UTF-8" standalone="no"?>
<!DOCTYPE svg PUBLIC "-//W3C//DTD SVG 1.1//EN"
 "http://www.w3.org/Graphics/SVG/1.1/DTD/svg11.dtd">
<!-- Generated by graphviz version 2.38.0 (20140413.2041)
 -->
<!-- Title: Tomographer::UniformBinsHistogramWithErrorBars&lt; Scalar_, CountType_ &gt; Pages: 1 -->
<svg width="917pt" height="124pt"
 viewBox="0.00 0.00 916.54 124.00" xmlns="http://www.w3.org/2000/svg" xmlns:xlink="http://www.w3.org/1999/xlink">
<g id="graph0" class="graph" transform="scale(1 1) rotate(0) translate(4 120)">
<title>Tomographer::UniformBinsHistogramWithErrorBars&lt; Scalar_, CountType_ &gt;</title>
<!-- Node1 -->
<g id="node1" class="node"><title>Node1</title>
<polygon fill="#bfbfbf" stroke="black" points="209.196,-26.5 209.196,-64.5 344.132,-64.5 344.132,-26.5 209.196,-26.5"/>
<text text-anchor="start" x="217.196" y="-52.5" font-family="Helvetica,sans-Serif" font-size="10.00">Tomographer::UniformBins</text>
<text text-anchor="start" x="217.196" y="-42.5" font-family="Helvetica,sans-Serif" font-size="10.00">HistogramWithErrorBars</text>
<text text-anchor="middle" x="276.664" y="-32.5" font-family="Helvetica,sans-Serif" font-size="10.00">&lt; Scalar_, CountType_ &gt;</text>
</g>
<!-- Node3 -->
<g id="node3" class="node"><title>Node3</title>
<g id="a_node3"><a xlink:href="struct_tomographer_1_1_uniform_bins_histogram_with_error_bars.html" target="_top" xlink:title="Tomographer::UniformBins\lHistogramWithErrorBars\l\&lt; HistogramType_::Scalar,\l RealAvgType \&gt;">
<polygon fill="none" stroke="black" points="549.033,-67.5 549.033,-115.5 683.969,-115.5 683.969,-67.5 549.033,-67.5"/>
<text text-anchor="start" x="557.033" y="-103.5" font-family="Helvetica,sans-Serif" font-size="10.00">Tomographer::UniformBins</text>
<text text-anchor="start" x="557.033" y="-93.5" font-family="Helvetica,sans-Serif" font-size="10.00">HistogramWithErrorBars</text>
<text text-anchor="start" x="557.033" y="-83.5" font-family="Helvetica,sans-Serif" font-size="10.00">&lt; HistogramType_::Scalar,</text>
<text text-anchor="middle" x="616.501" y="-73.5" font-family="Helvetica,sans-Serif" font-size="10.00"> RealAvgType &gt;</text>
</a>
</g>
</g>
<!-- Node1&#45;&gt;Node3 -->
<g id="edge2" class="edge"><title>Node1&#45;&gt;Node3</title>
<path fill="none" stroke="orange" stroke-dasharray="5,2" d="M354.513,-56.4435C357.083,-56.8012 359.628,-57.1542 362.132,-57.5 425.441,-66.2447 497.695,-75.9094 548.799,-82.6922"/>
<polygon fill="orange" stroke="orange" points="354.902,-52.9638 344.513,-55.0456 353.932,-59.8964 354.902,-52.9638"/>
<text text-anchor="start" x="378.084" y="-90.5" font-family="Helvetica,sans-Serif" font-size="10.00"> &lt; HistogramType_::Scalar,</text>
<text text-anchor="middle" x="438.255" y="-80.5" font-family="Helvetica,sans-Serif" font-size="10.00"> RealAvgType &gt;</text>
</g>
<!-- Node5 -->
<g id="node5" class="node"><title>Node5</title>
<g id="a_node5"><a xlink:href="struct_tomographer_1_1_uniform_bins_histogram_with_error_bars.html" target="_top" xlink:title="Tomographer::UniformBins\lHistogramWithErrorBars\l\&lt; typename ValueCalculator\l::ValueType, CountRealAvgType \&gt;">
<polygon fill="none" stroke="black" points="532.378,-0.5 532.378,-48.5 700.624,-48.5 700.624,-0.5 532.378,-0.5"/>
<text text-anchor="start" x="540.378" y="-36.5" font-family="Helvetica,sans-Serif" font-size="10.00">Tomographer::UniformBins</text>
<text text-anchor="start" x="540.378" y="-26.5" font-family="Helvetica,sans-Serif" font-size="10.00">HistogramWithErrorBars</text>
<text text-anchor="start" x="540.378" y="-16.5" font-family="Helvetica,sans-Serif" font-size="10.00">&lt; typename ValueCalculator</text>
<text text-anchor="middle" x="616.501" y="-6.5" font-family="Helvetica,sans-Serif" font-size="10.00">::ValueType, CountRealAvgType &gt;</text>
</a>
</g>
</g>
<!-- Node1&#45;&gt;Node5 -->
<g id="edge4" class="edge"><title>Node1&#45;&gt;Node5</title>
<path fill="none" stroke="orange" stroke-dasharray="5,2" d="M354.505,-38.0799C357.077,-37.877 359.625,-37.6829 362.132,-37.5 418.8,-33.3646 482.693,-30.096 532.141,-27.8706"/>
<polygon fill="orange" stroke="orange" points="354.178,-34.595 344.498,-38.9017 354.751,-41.5715 354.178,-34.595"/>
<text text-anchor="start" x="362.132" y="-49.5" font-family="Helvetica,sans-Serif" font-size="10.00"> &lt; typename ValueCalculator</text>
<text text-anchor="middle" x="438.255" y="-39.5" font-family="Helvetica,sans-Serif" font-size="10.00">::ValueType, CountRealAvgType &gt;</text>
</g>
<!-- Node2 -->
<g id="node2" class="node"><title>Node2</title>
<g id="a_node2"><a xlink:href="struct_tomographer_1_1_uniform_bins_histogram.html" target="_top" xlink:title="Stores a histogram. ">
<polygon fill="none" stroke="black" points="0,-31.5 0,-59.5 172.196,-59.5 172.196,-31.5 0,-31.5"/>
<text text-anchor="start" x="8" y="-47.5" font-family="Helvetica,sans-Serif" font-size="10.00">Tomographer::UniformBins</text>
<text text-anchor="middle" x="86.0981" y="-37.5" font-family="Helvetica,sans-Serif" font-size="10.00">Histogram&lt; Scalar_, CountType_ &gt;</text>
</a>
</g>
</g>
<!-- Node2&#45;&gt;Node1 -->
<g id="edge1" class="edge"><title>Node2&#45;&gt;Node1</title>
<path fill="none" stroke="midnightblue" d="M182.396,-45.5C191.368,-45.5 200.327,-45.5 208.95,-45.5"/>
<polygon fill="midnightblue" stroke="midnightblue" points="182.279,-42.0001 172.278,-45.5 182.278,-49.0001 182.279,-42.0001"/>
</g>
<!-- Node4 -->
<g id="node4" class="node"><title>Node4</title>
<g id="a_node4"><a xlink:href="struct_tomographer_1_1_averaged_histogram.html" target="_top" xlink:title="Combines several histograms (with same parameters) into an averaged histogram. ">
<polygon fill="none" stroke="black" points="737.624,-77.5 737.624,-105.5 908.536,-105.5 908.536,-77.5 737.624,-77.5"/>
<text text-anchor="start" x="745.624" y="-93.5" font-family="Helvetica,sans-Serif" font-size="10.00">Tomographer::AveragedHistogram</text>
<text text-anchor="middle" x="823.08" y="-83.5" font-family="Helvetica,sans-Serif" font-size="10.00">&lt; HistogramType_, RealAvgType &gt;</text>
</a>
</g>
</g>
<!-- Node3&#45;&gt;Node4 -->
<g id="edge3" class="edge"><title>Node3&#45;&gt;Node4</title>
<path fill="none" stroke="midnightblue" d="M694.335,-91.5C708.437,-91.5 723.229,-91.5 737.542,-91.5"/>
<polygon fill="midnightblue" stroke="midnightblue" points="694.205,-88.0001 684.205,-91.5 694.205,-95.0001 694.205,-88.0001"/>
</g>
</g>
</svg>
