<?xml version="1.0" encoding="UTF-8" standalone="no"?>
<!DOCTYPE svg PUBLIC "-//W3C//DTD SVG 1.1//EN"
 "http://www.w3.org/Graphics/SVG/1.1/DTD/svg11.dtd">
<!-- Generated by graphviz version 2.38.0 (20140413.2041)
 -->
<!-- Title: Tomographer::Logger::LoggerTraits&lt; OriginFilteredLogger&lt; BaseLogger &gt; &gt; Pages: 1 -->
<svg width="156pt" height="188pt"
 viewBox="0.00 0.00 156.50 188.00" xmlns="http://www.w3.org/2000/svg" xmlns:xlink="http://www.w3.org/1999/xlink">
<g id="graph0" class="graph" transform="scale(1 1) rotate(0) translate(4 184)">
<title>Tomographer::Logger::LoggerTraits&lt; OriginFilteredLogger&lt; BaseLogger &gt; &gt;</title>
<!-- Node1 -->
<g id="node1" class="node"><title>Node1</title>
<polygon fill="#bfbfbf" stroke="black" points="1.26465,-0.5 1.26465,-38.5 147.23,-38.5 147.23,-0.5 1.26465,-0.5"/>
<text text-anchor="start" x="9.26465" y="-26.5" font-family="Helvetica,sans-Serif" font-size="10.00">Tomographer::Logger</text>
<text text-anchor="start" x="9.26465" y="-16.5" font-family="Helvetica,sans-Serif" font-size="10.00">::LoggerTraits&lt; OriginFiltered</text>
<text text-anchor="middle" x="74.2476" y="-6.5" font-family="Helvetica,sans-Serif" font-size="10.00">Logger&lt; BaseLogger &gt; &gt;</text>
</g>
<!-- Node2 -->
<g id="node2" class="node"><title>Node2</title>
<g id="a_node2"><a xlink:href="struct_tomographer_1_1_logger_1_1_logger_traits.html" target="_top" xlink:title="Tomographer::Logger\l::LoggerTraits\&lt; BaseLogger \&gt;">
<polygon fill="none" stroke="black" points="0,-76.5 0,-104.5 148.495,-104.5 148.495,-76.5 0,-76.5"/>
<text text-anchor="start" x="8" y="-92.5" font-family="Helvetica,sans-Serif" font-size="10.00">Tomographer::Logger</text>
<text text-anchor="middle" x="74.2476" y="-82.5" font-family="Helvetica,sans-Serif" font-size="10.00">::LoggerTraits&lt; BaseLogger &gt;</text>
</a>
</g>
</g>
<!-- Node2&#45;&gt;Node1 -->
<g id="edge1" class="edge"><title>Node2&#45;&gt;Node1</title>
<path fill="none" stroke="midnightblue" d="M74.2476,-66.0412C74.2476,-57.1158 74.2476,-47.0882 74.2476,-38.7192"/>
<polygon fill="midnightblue" stroke="midnightblue" points="70.7477,-66.1961 74.2476,-76.1961 77.7477,-66.1961 70.7477,-66.1961"/>
</g>
<!-- Node3 -->
<g id="node3" class="node"><title>Node3</title>
<g id="a_node3"><a xlink:href="struct_tomographer_1_1_logger_1_1_logger_traits.html" target="_top" xlink:title="Traits template struct to be specialized for specific Logger implementations. ">
<polygon fill="none" stroke="black" points="0.554199,-151.5 0.554199,-179.5 147.941,-179.5 147.941,-151.5 0.554199,-151.5"/>
<text text-anchor="start" x="8.5542" y="-167.5" font-family="Helvetica,sans-Serif" font-size="10.00">Tomographer::Logger</text>
<text text-anchor="middle" x="74.2476" y="-157.5" font-family="Helvetica,sans-Serif" font-size="10.00">::LoggerTraits&lt; LoggerType &gt;</text>
</a>
</g>
</g>
<!-- Node3&#45;&gt;Node2 -->
<g id="edge2" class="edge"><title>Node3&#45;&gt;Node2</title>
<path fill="none" stroke="orange" stroke-dasharray="5,2" d="M74.2476,-141.245C74.2476,-129.265 74.2476,-115.082 74.2476,-104.932"/>
<polygon fill="orange" stroke="orange" points="70.7477,-141.449 74.2476,-151.449 77.7477,-141.449 70.7477,-141.449"/>
<text text-anchor="middle" x="111.22" y="-125" font-family="Helvetica,sans-Serif" font-size="10.00"> &lt; BaseLogger &gt;</text>
</g>
</g>
</svg>
