<?xml version="1.0" encoding="UTF-8" standalone="no"?>
<!DOCTYPE svg PUBLIC "-//W3C//DTD SVG 1.1//EN"
 "http://www.w3.org/Graphics/SVG/1.1/DTD/svg11.dtd">
<!-- Generated by graphviz version 2.38.0 (20140413.2041)
 -->
<!-- Title: Tomographer::Logger::LoggerTraits&lt; LocalLogger&lt; BaseLoggerType_ &gt; &gt; Pages: 1 -->
<svg width="183pt" height="198pt"
 viewBox="0.00 0.00 182.88 198.00" xmlns="http://www.w3.org/2000/svg" xmlns:xlink="http://www.w3.org/1999/xlink">
<g id="graph0" class="graph" transform="scale(1 1) rotate(0) translate(4 194)">
<title>Tomographer::Logger::LoggerTraits&lt; LocalLogger&lt; BaseLoggerType_ &gt; &gt;</title>
<!-- Node1 -->
<g id="node1" class="node"><title>Node1</title>
<polygon fill="#bfbfbf" stroke="black" points="3.19824,-0.5 3.19824,-38.5 144.188,-38.5 144.188,-0.5 3.19824,-0.5"/>
<text text-anchor="start" x="11.1982" y="-26.5" font-family="Helvetica,sans-Serif" font-size="10.00">Tomographer::Logger</text>
<text text-anchor="start" x="11.1982" y="-16.5" font-family="Helvetica,sans-Serif" font-size="10.00">::LoggerTraits&lt; LocalLogger</text>
<text text-anchor="middle" x="73.6934" y="-6.5" font-family="Helvetica,sans-Serif" font-size="10.00">&lt; BaseLoggerType_ &gt; &gt;</text>
</g>
<!-- Node2 -->
<g id="node2" class="node"><title>Node2</title>
<g id="a_node2"><a xlink:href="struct_tomographer_1_1_logger_1_1_logger_traits.html" target="_top" xlink:title="Tomographer::Logger\l::LoggerTraits\&lt; BaseLogger\lType_ \&gt;">
<polygon fill="none" stroke="black" points="3.75488,-76.5 3.75488,-114.5 143.632,-114.5 143.632,-76.5 3.75488,-76.5"/>
<text text-anchor="start" x="11.7549" y="-102.5" font-family="Helvetica,sans-Serif" font-size="10.00">Tomographer::Logger</text>
<text text-anchor="start" x="11.7549" y="-92.5" font-family="Helvetica,sans-Serif" font-size="10.00">::LoggerTraits&lt; BaseLogger</text>
<text text-anchor="middle" x="73.6934" y="-82.5" font-family="Helvetica,sans-Serif" font-size="10.00">Type_ &gt;</text>
</a>
</g>
</g>
<!-- Node2&#45;&gt;Node1 -->
<g id="edge1" class="edge"><title>Node2&#45;&gt;Node1</title>
<path fill="none" stroke="midnightblue" d="M73.6934,-66.2024C73.6934,-56.9309 73.6934,-46.8865 73.6934,-38.5817"/>
<polygon fill="midnightblue" stroke="midnightblue" points="70.1935,-66.2078 73.6934,-76.2079 77.1935,-66.2079 70.1935,-66.2078"/>
</g>
<!-- Node3 -->
<g id="node3" class="node"><title>Node3</title>
<g id="a_node3"><a xlink:href="struct_tomographer_1_1_logger_1_1_logger_traits.html" target="_top" xlink:title="Traits template struct to be specialized for specific Logger implementations. ">
<polygon fill="none" stroke="black" points="0,-161.5 0,-189.5 147.387,-189.5 147.387,-161.5 0,-161.5"/>
<text text-anchor="start" x="8" y="-177.5" font-family="Helvetica,sans-Serif" font-size="10.00">Tomographer::Logger</text>
<text text-anchor="middle" x="73.6934" y="-167.5" font-family="Helvetica,sans-Serif" font-size="10.00">::LoggerTraits&lt; LoggerType &gt;</text>
</a>
</g>
</g>
<!-- Node3&#45;&gt;Node2 -->
<g id="edge2" class="edge"><title>Node3&#45;&gt;Node2</title>
<path fill="none" stroke="orange" stroke-dasharray="5,2" d="M73.6934,-150.977C73.6934,-139.37 73.6934,-125.579 73.6934,-114.777"/>
<polygon fill="orange" stroke="orange" points="70.1935,-151.268 73.6934,-161.268 77.1935,-151.268 70.1935,-151.268"/>
<text text-anchor="middle" x="124.289" y="-135" font-family="Helvetica,sans-Serif" font-size="10.00"> &lt; BaseLoggerType_ &gt;</text>
</g>
</g>
</svg>
