<?xml version="1.0" encoding="UTF-8" standalone="no"?>
<!DOCTYPE svg PUBLIC "-//W3C//DTD SVG 1.1//EN"
 "http://www.w3.org/Graphics/SVG/1.1/DTD/svg11.dtd">
<!-- Generated by graphviz version 2.38.0 (20140413.2041)
 -->
<!-- Title: Tomographer::MultiProc::OMP::FullStatusReport&lt; TaskStatusReportType &gt; Pages: 1 -->
<svg width="274pt" height="252pt"
 viewBox="0.00 0.00 273.88 252.00" xmlns="http://www.w3.org/2000/svg" xmlns:xlink="http://www.w3.org/1999/xlink">
<g id="graph0" class="graph" transform="scale(1 1) rotate(0) translate(4 248)">
<title>Tomographer::MultiProc::OMP::FullStatusReport&lt; TaskStatusReportType &gt;</title>
<!-- Node1 -->
<g id="node1" class="node"><title>Node1</title>
<polygon fill="#bfbfbf" stroke="black" points="85.9126,-0.5 85.9126,-38.5 219.583,-38.5 219.583,-0.5 85.9126,-0.5"/>
<text text-anchor="start" x="93.9126" y="-26.5" font-family="Helvetica,sans-Serif" font-size="10.00">Tomographer::MultiProc</text>
<text text-anchor="start" x="93.9126" y="-16.5" font-family="Helvetica,sans-Serif" font-size="10.00">::OMP::FullStatusReport</text>
<text text-anchor="middle" x="152.748" y="-6.5" font-family="Helvetica,sans-Serif" font-size="10.00">&lt; TaskStatusReportType &gt;</text>
</g>
<!-- Node2 -->
<g id="node2" class="node"><title>Node2</title>
<g id="a_node2"><a doxygen="/Users/philippe/Documents/ETH/PhD/projects/qtomo/tomographer/doc/cppreference-doxygen-web.tag.xml:http://en.cppreference.com/w//" xlink:href="http://en.cppreference.com/w/cpp/container/vector.html" target="_top" xlink:title="std::vector\&lt; TaskStatusReport\lType \&gt;">
<polygon fill="none" stroke="black" points="0,-85.5 0,-113.5 149.496,-113.5 149.496,-85.5 0,-85.5"/>
<text text-anchor="start" x="8" y="-101.5" font-family="Helvetica,sans-Serif" font-size="10.00">std::vector&lt; TaskStatusReport</text>
<text text-anchor="middle" x="74.748" y="-91.5" font-family="Helvetica,sans-Serif" font-size="10.00">Type &gt;</text>
</a>
</g>
</g>
<!-- Node2&#45;&gt;Node1 -->
<g id="edge1" class="edge"><title>Node2&#45;&gt;Node1</title>
<path fill="none" stroke="#9a32cd" stroke-dasharray="5,2" d="M95.1003,-78.1477C107.293,-65.9546 122.667,-50.5809 134.471,-38.7768"/>
<polygon fill="#9a32cd" stroke="#9a32cd" points="92.5759,-75.7224 87.9797,-85.2684 97.5257,-80.6722 92.5759,-75.7224"/>
<text text-anchor="middle" x="148.149" y="-59" font-family="Helvetica,sans-Serif" font-size="10.00"> tasks_reports</text>
</g>
<!-- Node3 -->
<g id="node3" class="node"><title>Node3</title>
<g id="a_node3"><a doxygen="/Users/philippe/Documents/ETH/PhD/projects/qtomo/tomographer/doc/cppreference-doxygen-web.tag.xml:http://en.cppreference.com/w//" xlink:href="http://en.cppreference.com/w/cpp/container/vector.html" target="_top" xlink:title="STL class. ">
<polygon fill="none" stroke="black" points="103.188,-160.5 103.188,-178.5 188.309,-178.5 188.309,-160.5 103.188,-160.5"/>
<text text-anchor="middle" x="145.748" y="-166.5" font-family="Helvetica,sans-Serif" font-size="10.00">std::vector&lt; T &gt;</text>
</a>
</g>
</g>
<!-- Node3&#45;&gt;Node2 -->
<g id="edge2" class="edge"><title>Node3&#45;&gt;Node2</title>
<path fill="none" stroke="orange" stroke-dasharray="5,2" d="M93.6708,-157.311C86.4606,-153.584 79.9449,-148.617 75.2988,-142 69.585,-133.862 69.8714,-122.438 71.3493,-113.636"/>
<polygon fill="orange" stroke="orange" points="92.52,-160.627 103.087,-161.401 95.3086,-154.207 92.52,-160.627"/>
<text text-anchor="middle" x="135.973" y="-134" font-family="Helvetica,sans-Serif" font-size="10.00"> &lt; TaskStatusReportType &gt;</text>
</g>
<!-- Node5 -->
<g id="node5" class="node"><title>Node5</title>
<g id="a_node5"><a doxygen="/Users/philippe/Documents/ETH/PhD/projects/qtomo/tomographer/doc/cppreference-doxygen-web.tag.xml:http://en.cppreference.com/w//" xlink:href="http://en.cppreference.com/w/cpp/container/vector.html" target="_top" xlink:title="std::vector\&lt; bool \&gt;">
<polygon fill="none" stroke="black" points="167.613,-90.5 167.613,-108.5 265.883,-108.5 265.883,-90.5 167.613,-90.5"/>
<text text-anchor="middle" x="216.748" y="-96.5" font-family="Helvetica,sans-Serif" font-size="10.00">std::vector&lt; bool &gt;</text>
</a>
</g>
</g>
<!-- Node3&#45;&gt;Node5 -->
<g id="edge5" class="edge"><title>Node3&#45;&gt;Node5</title>
<path fill="none" stroke="orange" stroke-dasharray="5,2" d="M176.769,-155.868C183.578,-152.11 190.355,-147.496 195.748,-142 205.136,-132.433 211.179,-117.823 214.267,-108.734"/>
<polygon fill="orange" stroke="orange" points="174.967,-152.856 167.593,-160.464 178.101,-159.115 174.967,-152.856"/>
<text text-anchor="middle" x="223.208" y="-134" font-family="Helvetica,sans-Serif" font-size="10.00"> &lt; bool &gt;</text>
</g>
<!-- Node4 -->
<g id="node4" class="node"><title>Node4</title>
<polygon fill="none" stroke="#bfbfbf" points="131.248,-225.5 131.248,-243.5 160.248,-243.5 160.248,-225.5 131.248,-225.5"/>
<text text-anchor="middle" x="145.302" y="-231.5" font-family="Helvetica,sans-Serif" font-size="10.00">T</text>
</g>
<!-- Node4&#45;&gt;Node3 -->
<g id="edge3" class="edge"><title>Node4&#45;&gt;Node3</title>
<path fill="none" stroke="#9a32cd" stroke-dasharray="5,2" d="M145.748,-214.907C145.748,-202.815 145.748,-187.653 145.748,-178.539"/>
<polygon fill="#9a32cd" stroke="#9a32cd" points="142.248,-215.264 145.748,-225.264 149.248,-215.264 142.248,-215.264"/>
<text text-anchor="middle" x="167.425" y="-199" font-family="Helvetica,sans-Serif" font-size="10.00"> elements</text>
</g>
<!-- Node5&#45;&gt;Node1 -->
<g id="edge4" class="edge"><title>Node5&#45;&gt;Node1</title>
<path fill="none" stroke="#9a32cd" stroke-dasharray="5,2" d="M203.666,-82.5564C193.202,-69.8028 178.526,-51.9169 167.617,-38.6215"/>
<polygon fill="#9a32cd" stroke="#9a32cd" points="201.091,-84.9358 210.14,-90.4464 206.503,-80.4955 201.091,-84.9358"/>
<text text-anchor="middle" x="223.268" y="-59" font-family="Helvetica,sans-Serif" font-size="10.00"> tasks_running</text>
</g>
</g>
</svg>
