<?xml version="1.0" encoding="UTF-8" standalone="no"?>
<!DOCTYPE svg PUBLIC "-//W3C//DTD SVG 1.1//EN"
 "http://www.w3.org/Graphics/SVG/1.1/DTD/svg11.dtd">
<!-- Generated by graphviz version 2.38.0 (20140413.2041)
 -->
<!-- Title: Tomographer::Tools::static_or_dynamic&lt; T_, Value &gt; Pages: 1 -->
<svg width="443pt" height="171pt"
 viewBox="0.00 0.00 442.64 171.00" xmlns="http://www.w3.org/2000/svg" xmlns:xlink="http://www.w3.org/1999/xlink">
<g id="graph0" class="graph" transform="scale(1 1) rotate(0) translate(4 167)">
<title>Tomographer::Tools::static_or_dynamic&lt; T_, Value &gt;</title>
<!-- Node1 -->
<g id="node1" class="node"><title>Node1</title>
<polygon fill="#bfbfbf" stroke="black" points="0,-67.5 0,-105.5 103.822,-105.5 103.822,-67.5 0,-67.5"/>
<text text-anchor="start" x="8" y="-93.5" font-family="Helvetica,sans-Serif" font-size="10.00">Tomographer::Tools</text>
<text text-anchor="start" x="8" y="-83.5" font-family="Helvetica,sans-Serif" font-size="10.00">::static_or_dynamic</text>
<text text-anchor="middle" x="51.9111" y="-73.5" font-family="Helvetica,sans-Serif" font-size="10.00">&lt; T_, Value &gt;</text>
</g>
<!-- Node2 -->
<g id="node2" class="node"><title>Node2</title>
<g id="a_node2"><a xlink:href="class_tomographer_1_1_tools_1_1static__or__dynamic.html" target="_top" xlink:title="Tomographer::Tools\l::static_or_dynamic\l\&lt; int, NumTrackValuesCTime \&gt;">
<polygon fill="none" stroke="black" points="280.618,-124.5 280.618,-162.5 434.636,-162.5 434.636,-124.5 280.618,-124.5"/>
<text text-anchor="start" x="288.618" y="-150.5" font-family="Helvetica,sans-Serif" font-size="10.00">Tomographer::Tools</text>
<text text-anchor="start" x="288.618" y="-140.5" font-family="Helvetica,sans-Serif" font-size="10.00">::static_or_dynamic</text>
<text text-anchor="middle" x="357.627" y="-130.5" font-family="Helvetica,sans-Serif" font-size="10.00">&lt; int, NumTrackValuesCTime &gt;</text>
</a>
</g>
</g>
<!-- Node1&#45;&gt;Node2 -->
<g id="edge1" class="edge"><title>Node1&#45;&gt;Node2</title>
<path fill="none" stroke="orange" stroke-dasharray="5,2" d="M114.144,-99.0039C116.737,-99.5133 119.305,-100.014 121.822,-100.5 174.72,-110.716 234.444,-121.645 280.419,-129.928"/>
<polygon fill="orange" stroke="orange" points="114.558,-95.5179 104.068,-97.0074 113.197,-102.384 114.558,-95.5179"/>
<text text-anchor="middle" x="192.22" y="-127.5" font-family="Helvetica,sans-Serif" font-size="10.00"> &lt; int, NumTrackValuesCTime &gt;</text>
</g>
<!-- Node3 -->
<g id="node3" class="node"><title>Node3</title>
<g id="a_node3"><a xlink:href="class_tomographer_1_1_tools_1_1static__or__dynamic.html" target="_top" xlink:title="Tomographer::Tools\l::static_or_dynamic\l\&lt; int, NumLevelsCTime \&gt;">
<polygon fill="none" stroke="black" points="293.401,-67.5 293.401,-105.5 421.853,-105.5 421.853,-67.5 293.401,-67.5"/>
<text text-anchor="start" x="301.401" y="-93.5" font-family="Helvetica,sans-Serif" font-size="10.00">Tomographer::Tools</text>
<text text-anchor="start" x="301.401" y="-83.5" font-family="Helvetica,sans-Serif" font-size="10.00">::static_or_dynamic</text>
<text text-anchor="middle" x="357.627" y="-73.5" font-family="Helvetica,sans-Serif" font-size="10.00">&lt; int, NumLevelsCTime &gt;</text>
</a>
</g>
</g>
<!-- Node1&#45;&gt;Node3 -->
<g id="edge2" class="edge"><title>Node1&#45;&gt;Node3</title>
<path fill="none" stroke="orange" stroke-dasharray="5,2" d="M114.193,-86.5C166.269,-86.5 240.741,-86.5 293.373,-86.5"/>
<polygon fill="orange" stroke="orange" points="114.089,-83.0001 104.089,-86.5 114.089,-90.0001 114.089,-83.0001"/>
<text text-anchor="middle" x="192.22" y="-88.5" font-family="Helvetica,sans-Serif" font-size="10.00"> &lt; int, NumLevelsCTime &gt;</text>
</g>
<!-- Node4 -->
<g id="node4" class="node"><title>Node4</title>
<g id="a_node4"><a xlink:href="class_tomographer_1_1_tools_1_1static__or__dynamic.html" target="_top" xlink:title="Tomographer::Tools\l::static_or_dynamic\l\&lt; CountIntType, SamplesSize\lCTime \&gt;">
<polygon fill="none" stroke="black" points="283.616,-0.5 283.616,-48.5 431.638,-48.5 431.638,-0.5 283.616,-0.5"/>
<text text-anchor="start" x="291.616" y="-36.5" font-family="Helvetica,sans-Serif" font-size="10.00">Tomographer::Tools</text>
<text text-anchor="start" x="291.616" y="-26.5" font-family="Helvetica,sans-Serif" font-size="10.00">::static_or_dynamic</text>
<text text-anchor="start" x="291.616" y="-16.5" font-family="Helvetica,sans-Serif" font-size="10.00">&lt; CountIntType, SamplesSize</text>
<text text-anchor="middle" x="357.627" y="-6.5" font-family="Helvetica,sans-Serif" font-size="10.00">CTime &gt;</text>
</a>
</g>
</g>
<!-- Node1&#45;&gt;Node4 -->
<g id="edge3" class="edge"><title>Node1&#45;&gt;Node4</title>
<path fill="none" stroke="orange" stroke-dasharray="5,2" d="M113.875,-64.6393C116.549,-63.8794 119.207,-63.1617 121.822,-62.5 175.267,-48.9789 236.825,-39.2259 283.5,-32.9881"/>
<polygon fill="orange" stroke="orange" points="112.739,-61.326 104.165,-67.5499 114.749,-68.0313 112.739,-61.326"/>
<text text-anchor="start" x="124.82" y="-74.5" font-family="Helvetica,sans-Serif" font-size="10.00"> &lt; CountIntType, SamplesSize</text>
<text text-anchor="middle" x="192.22" y="-64.5" font-family="Helvetica,sans-Serif" font-size="10.00">CTime &gt;</text>
</g>
</g>
</svg>
