<?xml version="1.0" encoding="UTF-8" standalone="no"?>
<!DOCTYPE svg PUBLIC "-//W3C//DTD SVG 1.1//EN"
 "http://www.w3.org/Graphics/SVG/1.1/DTD/svg11.dtd">
<!-- Generated by graphviz version 2.38.0 (20140413.2041)
 -->
<!-- Title: Tomographer::Logger::LoggerBase&lt; Derived &gt; Pages: 1 -->
<!--zoomable 359 -->
<svg id="main" version="1.1" xmlns="http://www.w3.org/2000/svg" xmlns:xlink="http://www.w3.org/1999/xlink" xml:space="preserve" onload="init(evt)">
<style type="text/css"><![CDATA[
.edge:hover path { stroke: red; }
.edge:hover polygon { stroke: red; fill: red; }
]]></style>
<script type="text/javascript"><![CDATA[
var edges = document.getElementsByTagName('g');
if (edges && edges.length) {
  for (var i=0;i<edges.length;i++) {
    if (edges[i].id.substr(0,4)=='edge') {
      edges[i].setAttribute('class','edge');
    }
  }
}
]]></script>
        <defs>
                <circle id="rim" cx="0" cy="0" r="7"/>
                <circle id="rim2" cx="0" cy="0" r="3.5"/>
                <g id="zoomPlus">
                        <use xlink:href="#rim" fill="#404040">
                                <set attributeName="fill" to="#808080" begin="zoomplus.mouseover" end="zoomplus.mouseout"/>
                        </use>
                        <path d="M-4,0h8M0,-4v8" fill="none" stroke="white" stroke-width="1.5" pointer-events="none"/>
                </g>
                <g id="zoomMin">
                        <use xlink:href="#rim" fill="#404040">
                                <set attributeName="fill" to="#808080" begin="zoomminus.mouseover" end="zoomminus.mouseout"/>
                        </use>
                        <path d="M-4,0h8" fill="none" stroke="white" stroke-width="1.5" pointer-events="none"/>
                </g>
                <g id="dirArrow">
                        <path fill="none" stroke="white" stroke-width="1.5" d="M0,-3.0v7 M-2.5,-0.5L0,-3.0L2.5,-0.5"/>
                </g>
               <g id="resetDef">
                       <use xlink:href="#rim2" fill="#404040">
                               <set attributeName="fill" to="#808080" begin="reset.mouseover" end="reset.mouseout"/>
                       </use>
               </g>
        </defs>

<script type="text/javascript">
var viewWidth = 673;
var viewHeight = 359;
var sectionId = 'dynsection-0';
</script>
<script xlink:href="svgpan.js"/>
<svg id="graph" class="graph">
<g id="viewport">
<title>Tomographer::Logger::LoggerBase&lt; Derived &gt;</title>
<!-- Node1 -->
<g id="node1" class="node"><title>Node1</title>
<polygon fill="#bfbfbf" stroke="black" points="0,-151.5 0,-179.5 127.182,-179.5 127.182,-151.5 0,-151.5"/>
<text text-anchor="start" x="8" y="-167.5" font-family="Helvetica,sans-Serif" font-size="10.00">Tomographer::Logger</text>
<text text-anchor="middle" x="63.5908" y="-157.5" font-family="Helvetica,sans-Serif" font-size="10.00">::LoggerBase&lt; Derived &gt;</text>
</g>
<!-- Node2 -->
<g id="node2" class="node"><title>Node2</title>
<g id="a_node2"><a xlink:href="class_tomographer_1_1_logger_1_1_logger_base.html" target="_top" xlink:title="Tomographer::Logger\l::LoggerBase\&lt; ThreadSanitizer\lLogger\&lt; BaseLogger \&gt; \&gt;">
<polygon fill="none" stroke="black" points="295.303,-312.5 295.303,-350.5 449.824,-350.5 449.824,-312.5 295.303,-312.5"/>
<text text-anchor="start" x="303.303" y="-338.5" font-family="Helvetica,sans-Serif" font-size="10.00">Tomographer::Logger</text>
<text text-anchor="start" x="303.303" y="-328.5" font-family="Helvetica,sans-Serif" font-size="10.00">::LoggerBase&lt; ThreadSanitizer</text>
<text text-anchor="middle" x="372.563" y="-318.5" font-family="Helvetica,sans-Serif" font-size="10.00">Logger&lt; BaseLogger &gt; &gt;</text>
</a>
</g>
</g>
<!-- Node1&#45;&gt;Node2 -->
<g id="edge1" class="edge"><title>Node1&#45;&gt;Node2</title>
<path fill="none" stroke="orange" stroke-dasharray="5,2" d="M73.7393,-188.94C85.7929,-216.579 109.707,-261.751 145.182,-285.5 189.34,-315.062 248.432,-326.345 295.17,-330.352"/>
<polygon fill="orange" stroke="orange" points="76.9281,-187.494 69.8356,-179.623 70.4718,-190.199 76.9281,-187.494"/>
<text text-anchor="start" x="153.202" y="-339.5" font-family="Helvetica,sans-Serif" font-size="10.00"> &lt; ThreadSanitizerLogger</text>
<text text-anchor="middle" x="209.676" y="-329.5" font-family="Helvetica,sans-Serif" font-size="10.00">&lt; BaseLogger &gt; &gt;</text>
</g>
<!-- Node4 -->
<g id="node4" class="node"><title>Node4</title>
<g id="a_node4"><a xlink:href="class_tomographer_1_1_logger_1_1_logger_base.html" target="_top" xlink:title="Tomographer::Logger\l::LoggerBase\&lt; LocalLogger\l\&lt; BaseLoggerType_ \&gt; \&gt;">
<polygon fill="none" stroke="black" points="302.989,-255.5 302.989,-293.5 442.138,-293.5 442.138,-255.5 302.989,-255.5"/>
<text text-anchor="start" x="310.989" y="-281.5" font-family="Helvetica,sans-Serif" font-size="10.00">Tomographer::Logger</text>
<text text-anchor="start" x="310.989" y="-271.5" font-family="Helvetica,sans-Serif" font-size="10.00">::LoggerBase&lt; LocalLogger</text>
<text text-anchor="middle" x="372.563" y="-261.5" font-family="Helvetica,sans-Serif" font-size="10.00">&lt; BaseLoggerType_ &gt; &gt;</text>
</a>
</g>
</g>
<!-- Node1&#45;&gt;Node4 -->
<g id="edge3" class="edge"><title>Node1&#45;&gt;Node4</title>
<path fill="none" stroke="orange" stroke-dasharray="5,2" d="M87.5763,-186.36C102.872,-199.173 123.985,-214.915 145.182,-224.5 195.426,-247.219 256.727,-259.941 302.861,-266.86"/>
<polygon fill="orange" stroke="orange" points="89.5782,-183.465 79.7136,-179.6 85.0148,-188.773 89.5782,-183.465"/>
<text text-anchor="start" x="145.182" y="-273.5" font-family="Helvetica,sans-Serif" font-size="10.00"> &lt; LocalLogger&lt; BaseLogger</text>
<text text-anchor="middle" x="209.676" y="-263.5" font-family="Helvetica,sans-Serif" font-size="10.00">Type_ &gt; &gt;</text>
</g>
<!-- Node6 -->
<g id="node6" class="node"><title>Node6</title>
<g id="a_node6"><a xlink:href="class_tomographer_1_1_logger_1_1_logger_base.html" target="_top" xlink:title="Tomographer::Logger\l::LoggerBase\&lt; MinimumSeverity\lLogger\&lt; BaseLogger, Level \&gt; \&gt;">
<polygon fill="none" stroke="black" points="292.171,-198.5 292.171,-236.5 452.956,-236.5 452.956,-198.5 292.171,-198.5"/>
<text text-anchor="start" x="300.171" y="-224.5" font-family="Helvetica,sans-Serif" font-size="10.00">Tomographer::Logger</text>
<text text-anchor="start" x="300.171" y="-214.5" font-family="Helvetica,sans-Serif" font-size="10.00">::LoggerBase&lt; MinimumSeverity</text>
<text text-anchor="middle" x="372.563" y="-204.5" font-family="Helvetica,sans-Serif" font-size="10.00">Logger&lt; BaseLogger, Level &gt; &gt;</text>
</a>
</g>
</g>
<!-- Node1&#45;&gt;Node6 -->
<g id="edge5" class="edge"><title>Node1&#45;&gt;Node6</title>
<path fill="none" stroke="orange" stroke-dasharray="5,2" d="M137.536,-178.191C140.116,-178.634 142.671,-179.071 145.182,-179.5 193.893,-187.819 248.529,-196.995 291.921,-204.245"/>
<polygon fill="orange" stroke="orange" points="137.947,-174.71 127.498,-176.464 136.759,-181.609 137.947,-174.71"/>
<text text-anchor="start" x="150.069" y="-212.5" font-family="Helvetica,sans-Serif" font-size="10.00"> &lt; MinimumSeverityLogger</text>
<text text-anchor="middle" x="209.676" y="-202.5" font-family="Helvetica,sans-Serif" font-size="10.00">&lt; BaseLogger, Level &gt; &gt;</text>
</g>
<!-- Node8 -->
<g id="node8" class="node"><title>Node8</title>
<g id="a_node8"><a xlink:href="class_tomographer_1_1_logger_1_1_logger_base.html" target="_top" xlink:title="Tomographer::Logger\l::LoggerBase\&lt; VacuumLogger \&gt;">
<polygon fill="none" stroke="black" points="292.659,-151.5 292.659,-179.5 452.468,-179.5 452.468,-151.5 292.659,-151.5"/>
<text text-anchor="start" x="300.659" y="-167.5" font-family="Helvetica,sans-Serif" font-size="10.00">Tomographer::Logger</text>
<text text-anchor="middle" x="372.563" y="-157.5" font-family="Helvetica,sans-Serif" font-size="10.00">::LoggerBase&lt; VacuumLogger &gt;</text>
</a>
</g>
</g>
<!-- Node1&#45;&gt;Node8 -->
<g id="edge7" class="edge"><title>Node1&#45;&gt;Node8</title>
<path fill="none" stroke="orange" stroke-dasharray="5,2" d="M137.481,-165.5C184.106,-165.5 244.583,-165.5 292.386,-165.5"/>
<polygon fill="orange" stroke="orange" points="137.452,-162 127.452,-165.5 137.452,-169 137.452,-162"/>
<text text-anchor="middle" x="209.676" y="-167.5" font-family="Helvetica,sans-Serif" font-size="10.00"> &lt; VacuumLogger &gt;</text>
</g>
<!-- Node10 -->
<g id="node10" class="node"><title>Node10</title>
<g id="a_node10"><a xlink:href="class_tomographer_1_1_logger_1_1_logger_base.html" target="_top" xlink:title="Tomographer::Logger\l::LoggerBase\&lt; BufferLogger \&gt;">
<polygon fill="none" stroke="black" points="297.381,-104.5 297.381,-132.5 447.746,-132.5 447.746,-104.5 297.381,-104.5"/>
<text text-anchor="start" x="305.381" y="-120.5" font-family="Helvetica,sans-Serif" font-size="10.00">Tomographer::Logger</text>
<text text-anchor="middle" x="372.563" y="-110.5" font-family="Helvetica,sans-Serif" font-size="10.00">::LoggerBase&lt; BufferLogger &gt;</text>
</a>
</g>
</g>
<!-- Node1&#45;&gt;Node10 -->
<g id="edge9" class="edge"><title>Node1&#45;&gt;Node10</title>
<path fill="none" stroke="orange" stroke-dasharray="5,2" d="M137.524,-152.739C140.108,-152.316 142.666,-151.902 145.182,-151.5 195.874,-143.404 253.086,-135.071 297.311,-128.804"/>
<polygon fill="orange" stroke="orange" points="136.769,-149.316 127.476,-154.405 137.914,-156.222 136.769,-149.316"/>
<text text-anchor="middle" x="209.676" y="-153.5" font-family="Helvetica,sans-Serif" font-size="10.00"> &lt; BufferLogger &gt;</text>
</g>
<!-- Node12 -->
<g id="node12" class="node"><title>Node12</title>
<g id="a_node12"><a xlink:href="class_tomographer_1_1_logger_1_1_logger_base.html" target="_top" xlink:title="Tomographer::Logger\l::LoggerBase\&lt; OriginFiltered\lLogger\&lt; BaseLogger \&gt; \&gt;">
<polygon fill="none" stroke="black" points="300.501,-47.5 300.501,-85.5 444.626,-85.5 444.626,-47.5 300.501,-47.5"/>
<text text-anchor="start" x="308.501" y="-73.5" font-family="Helvetica,sans-Serif" font-size="10.00">Tomographer::Logger</text>
<text text-anchor="start" x="308.501" y="-63.5" font-family="Helvetica,sans-Serif" font-size="10.00">::LoggerBase&lt; OriginFiltered</text>
<text text-anchor="middle" x="372.563" y="-53.5" font-family="Helvetica,sans-Serif" font-size="10.00">Logger&lt; BaseLogger &gt; &gt;</text>
</a>
</g>
</g>
<!-- Node1&#45;&gt;Node12 -->
<g id="edge11" class="edge"><title>Node1&#45;&gt;Node12</title>
<path fill="none" stroke="orange" stroke-dasharray="5,2" d="M87.5149,-144.732C102.786,-132.031 123.895,-116.537 145.182,-107.5 194.631,-86.506 254.61,-76.2547 300.403,-71.2529"/>
<polygon fill="orange" stroke="orange" points="84.9932,-142.284 79.6674,-151.443 89.5424,-147.604 84.9932,-142.284"/>
<text text-anchor="start" x="158.399" y="-119.5" font-family="Helvetica,sans-Serif" font-size="10.00"> &lt; OriginFilteredLogger</text>
<text text-anchor="middle" x="209.676" y="-109.5" font-family="Helvetica,sans-Serif" font-size="10.00">&lt; BaseLogger &gt; &gt;</text>
</g>
<!-- Node14 -->
<g id="node14" class="node"><title>Node14</title>
<g id="a_node14"><a xlink:href="class_tomographer_1_1_logger_1_1_logger_base.html" target="_top" xlink:title="Tomographer::Logger\l::LoggerBase\&lt; FileLogger \&gt;">
<polygon fill="none" stroke="black" points="302.576,-0.5 302.576,-28.5 442.551,-28.5 442.551,-0.5 302.576,-0.5"/>
<text text-anchor="start" x="310.576" y="-16.5" font-family="Helvetica,sans-Serif" font-size="10.00">Tomographer::Logger</text>
<text text-anchor="middle" x="372.563" y="-6.5" font-family="Helvetica,sans-Serif" font-size="10.00">::LoggerBase&lt; FileLogger &gt;</text>
</a>
</g>
</g>
<!-- Node1&#45;&gt;Node14 -->
<g id="edge13" class="edge"><title>Node1&#45;&gt;Node14</title>
<path fill="none" stroke="orange" stroke-dasharray="5,2" d="M75.9015,-142.39C89.0735,-118.035 113.178,-80.4896 145.182,-60.5 192.463,-30.9676 255.141,-19.944 302.556,-16.0365"/>
<polygon fill="orange" stroke="orange" points="72.7649,-140.836 71.241,-151.32 78.9706,-144.074 72.7649,-140.836"/>
<text text-anchor="middle" x="209.676" y="-62.5" font-family="Helvetica,sans-Serif" font-size="10.00"> &lt; FileLogger &gt;</text>
</g>
<!-- Node3 -->
<g id="node3" class="node"><title>Node3</title>
<g id="a_node3"><a xlink:href="class_tomographer_1_1_multi_proc_1_1_o_m_p_1_1_thread_sanitizer_logger.html" target="_top" xlink:title="Wrapper logger to call non&#45;thread&#45;safe loggers from a multithreaded environment. ">
<polygon fill="none" stroke="black" points="501.653,-312.5 501.653,-350.5 653.273,-350.5 653.273,-312.5 501.653,-312.5"/>
<text text-anchor="start" x="509.653" y="-338.5" font-family="Helvetica,sans-Serif" font-size="10.00">Tomographer::MultiProc</text>
<text text-anchor="start" x="509.653" y="-328.5" font-family="Helvetica,sans-Serif" font-size="10.00">::OMP::ThreadSanitizerLogger</text>
<text text-anchor="middle" x="577.463" y="-318.5" font-family="Helvetica,sans-Serif" font-size="10.00">&lt; BaseLogger &gt;</text>
</a>
</g>
</g>
<!-- Node2&#45;&gt;Node3 -->
<g id="edge2" class="edge"><title>Node2&#45;&gt;Node3</title>
<path fill="none" stroke="midnightblue" d="M460.355,-331.5C474.034,-331.5 488.077,-331.5 501.459,-331.5"/>
<polygon fill="midnightblue" stroke="midnightblue" points="459.982,-328 449.982,-331.5 459.982,-335 459.982,-328"/>
</g>
<!-- Node5 -->
<g id="node5" class="node"><title>Node5</title>
<g id="a_node5"><a xlink:href="class_tomographer_1_1_logger_1_1_local_logger.html" target="_top" xlink:title="Local logger: avoid having to repeat origin at each emitted message. ">
<polygon fill="none" stroke="black" points="489.956,-260.5 489.956,-288.5 664.97,-288.5 664.97,-260.5 489.956,-260.5"/>
<text text-anchor="start" x="497.956" y="-276.5" font-family="Helvetica,sans-Serif" font-size="10.00">Tomographer::Logger</text>
<text text-anchor="middle" x="577.463" y="-266.5" font-family="Helvetica,sans-Serif" font-size="10.00">::LocalLogger&lt; BaseLoggerType_ &gt;</text>
</a>
</g>
</g>
<!-- Node4&#45;&gt;Node5 -->
<g id="edge4" class="edge"><title>Node4&#45;&gt;Node5</title>
<path fill="none" stroke="midnightblue" d="M452.433,-274.5C464.699,-274.5 477.428,-274.5 489.854,-274.5"/>
<polygon fill="midnightblue" stroke="midnightblue" points="452.256,-271 442.256,-274.5 452.256,-278 452.256,-271"/>
</g>
<!-- Node7 -->
<g id="node7" class="node"><title>Node7</title>
<g id="a_node7"><a xlink:href="class_tomographer_1_1_logger_1_1_minimum_severity_logger.html" target="_top" xlink:title="Logger which statically discards any messages less important than a fixed severity. ">
<polygon fill="none" stroke="black" points="512.776,-198.5 512.776,-236.5 642.15,-236.5 642.15,-198.5 512.776,-198.5"/>
<text text-anchor="start" x="520.776" y="-224.5" font-family="Helvetica,sans-Serif" font-size="10.00">Tomographer::Logger</text>
<text text-anchor="start" x="520.776" y="-214.5" font-family="Helvetica,sans-Serif" font-size="10.00">::MinimumSeverityLogger</text>
<text text-anchor="middle" x="577.463" y="-204.5" font-family="Helvetica,sans-Serif" font-size="10.00">&lt; BaseLogger, Level &gt;</text>
</a>
</g>
</g>
<!-- Node6&#45;&gt;Node7 -->
<g id="edge6" class="edge"><title>Node6&#45;&gt;Node7</title>
<path fill="none" stroke="midnightblue" d="M463.449,-217.5C480.066,-217.5 497.103,-217.5 512.745,-217.5"/>
<polygon fill="midnightblue" stroke="midnightblue" points="463.172,-214 453.172,-217.5 463.172,-221 463.172,-214"/>
</g>
<!-- Node9 -->
<g id="node9" class="node"><title>Node9</title>
<g id="a_node9"><a xlink:href="class_tomographer_1_1_logger_1_1_vacuum_logger.html" target="_top" xlink:title="Logger that discards all messages. ">
<polygon fill="none" stroke="black" points="521.655,-151.5 521.655,-179.5 633.271,-179.5 633.271,-151.5 521.655,-151.5"/>
<text text-anchor="start" x="529.655" y="-167.5" font-family="Helvetica,sans-Serif" font-size="10.00">Tomographer::Logger</text>
<text text-anchor="middle" x="577.463" y="-157.5" font-family="Helvetica,sans-Serif" font-size="10.00">::VacuumLogger</text>
</a>
</g>
</g>
<!-- Node8&#45;&gt;Node9 -->
<g id="edge8" class="edge"><title>Node8&#45;&gt;Node9</title>
<path fill="none" stroke="midnightblue" d="M462.664,-165.5C482.679,-165.5 503.344,-165.5 521.482,-165.5"/>
<polygon fill="midnightblue" stroke="midnightblue" points="462.591,-162 452.591,-165.5 462.591,-169 462.591,-162"/>
</g>
<!-- Node11 -->
<g id="node11" class="node"><title>Node11</title>
<g id="a_node11"><a xlink:href="class_tomographer_1_1_logger_1_1_buffer_logger.html" target="_top" xlink:title="Log messages into an internal memory buffer. ">
<polygon fill="none" stroke="black" points="521.655,-104.5 521.655,-132.5 633.271,-132.5 633.271,-104.5 521.655,-104.5"/>
<text text-anchor="start" x="529.655" y="-120.5" font-family="Helvetica,sans-Serif" font-size="10.00">Tomographer::Logger</text>
<text text-anchor="middle" x="577.463" y="-110.5" font-family="Helvetica,sans-Serif" font-size="10.00">::BufferLogger</text>
</a>
</g>
</g>
<!-- Node10&#45;&gt;Node11 -->
<g id="edge10" class="edge"><title>Node10&#45;&gt;Node11</title>
<path fill="none" stroke="midnightblue" d="M458.047,-118.5C479.467,-118.5 501.927,-118.5 521.457,-118.5"/>
<polygon fill="midnightblue" stroke="midnightblue" points="457.964,-115 447.964,-118.5 457.964,-122 457.964,-115"/>
</g>
<!-- Node13 -->
<g id="node13" class="node"><title>Node13</title>
<g id="a_node13"><a xlink:href="class_tomographer_1_1_logger_1_1_origin_filtered_logger.html" target="_top" xlink:title="A logger which filters entries according to where they originated from. ">
<polygon fill="none" stroke="black" points="521.106,-47.5 521.106,-85.5 633.82,-85.5 633.82,-47.5 521.106,-47.5"/>
<text text-anchor="start" x="529.106" y="-73.5" font-family="Helvetica,sans-Serif" font-size="10.00">Tomographer::Logger</text>
<text text-anchor="start" x="529.106" y="-63.5" font-family="Helvetica,sans-Serif" font-size="10.00">::OriginFilteredLogger</text>
<text text-anchor="middle" x="577.463" y="-53.5" font-family="Helvetica,sans-Serif" font-size="10.00">&lt; BaseLogger &gt;</text>
</a>
</g>
</g>
<!-- Node12&#45;&gt;Node13 -->
<g id="edge12" class="edge"><title>Node12&#45;&gt;Node13</title>
<path fill="none" stroke="midnightblue" d="M454.903,-66.5C477.104,-66.5 500.643,-66.5 521.035,-66.5"/>
<polygon fill="midnightblue" stroke="midnightblue" points="454.813,-63.0001 444.813,-66.5 454.813,-70.0001 454.813,-63.0001"/>
</g>
<!-- Node15 -->
<g id="node15" class="node"><title>Node15</title>
<g id="a_node15"><a xlink:href="class_tomographer_1_1_logger_1_1_file_logger.html" target="_top" xlink:title="Simple logger class which logs everything into a given FILE pointer. ">
<polygon fill="none" stroke="black" points="521.655,-0.5 521.655,-28.5 633.271,-28.5 633.271,-0.5 521.655,-0.5"/>
<text text-anchor="start" x="529.655" y="-16.5" font-family="Helvetica,sans-Serif" font-size="10.00">Tomographer::Logger</text>
<text text-anchor="middle" x="577.463" y="-6.5" font-family="Helvetica,sans-Serif" font-size="10.00">::FileLogger</text>
</a>
</g>
</g>
<!-- Node14&#45;&gt;Node15 -->
<g id="edge14" class="edge"><title>Node14&#45;&gt;Node15</title>
<path fill="none" stroke="midnightblue" d="M452.904,-14.5C475.886,-14.5 500.459,-14.5 521.589,-14.5"/>
<polygon fill="midnightblue" stroke="midnightblue" points="452.822,-11.0001 442.822,-14.5 452.822,-18.0001 452.822,-11.0001"/>
</g>
</g>
</svg>
        <g id="navigator" transform="translate(0 0)" fill="#404254">
                <rect fill="#f2f5e9" fill-opacity="0.5" stroke="#606060" stroke-width=".5" x="0" y="0" width="60" height="60"/>
                <use id="zoomplus" xlink:href="#zoomPlus" x="17" y="9" onmousedown="handleZoom(evt,'in')"/>
                <use id="zoomminus" xlink:href="#zoomMin" x="42" y="9" onmousedown="handleZoom(evt,'out')"/>
                <use id="reset" xlink:href="#resetDef" x="30" y="36" onmousedown="handleReset()"/>
                <g id="arrowUp" xlink:href="#dirArrow" transform="translate(30 24)" onmousedown="handlePan(0,-1)">
                  <use xlink:href="#rim" fill="#404040">
                        <set attributeName="fill" to="#808080" begin="arrowUp.mouseover" end="arrowUp.mouseout"/>
                  </use>
                  <path fill="none" stroke="white" stroke-width="1.5" d="M0,-3.0v7 M-2.5,-0.5L0,-3.0L2.5,-0.5"/>
                </g>
                <g id="arrowRight" xlink:href="#dirArrow" transform="rotate(90) translate(36 -43)" onmousedown="handlePan(1,0)">
                  <use xlink:href="#rim" fill="#404040">
                        <set attributeName="fill" to="#808080" begin="arrowRight.mouseover" end="arrowRight.mouseout"/>
                  </use>
                  <path fill="none" stroke="white" stroke-width="1.5" d="M0,-3.0v7 M-2.5,-0.5L0,-3.0L2.5,-0.5"/>
                </g>
                <g id="arrowDown" xlink:href="#dirArrow" transform="rotate(180) translate(-30 -48)" onmousedown="handlePan(0,1)">
                  <use xlink:href="#rim" fill="#404040">
                        <set attributeName="fill" to="#808080" begin="arrowDown.mouseover" end="arrowDown.mouseout"/>
                  </use>
                  <path fill="none" stroke="white" stroke-width="1.5" d="M0,-3.0v7 M-2.5,-0.5L0,-3.0L2.5,-0.5"/>
                </g>
                <g id="arrowLeft" xlink:href="#dirArrow" transform="rotate(270) translate(-36 17)" onmousedown="handlePan(-1,0)">
                  <use xlink:href="#rim" fill="#404040">
                        <set attributeName="fill" to="#808080" begin="arrowLeft.mouseover" end="arrowLeft.mouseout"/>
                  </use>
                  <path fill="none" stroke="white" stroke-width="1.5" d="M0,-3.0v7 M-2.5,-0.5L0,-3.0L2.5,-0.5"/>
                </g>
        </g>
        <svg viewBox="0 0 15 15" width="100%" height="30px" preserveAspectRatio="xMaxYMin meet">
         <g id="arrow_out" transform="scale(0.3 0.3)">
          <a xlink:href="class_tomographer_1_1_logger_1_1_logger_base__inherit__graph_org.svg" target="_base">
           <rect id="button" ry="5" rx="5" y="6" x="6" height="38" width="38"
                fill="#f2f5e9" fill-opacity="0.5" stroke="#606060" stroke-width="1.0"/>
           <path id="arrow"
             d="M 11.500037,31.436501 C 11.940474,20.09759 22.043105,11.32322 32.158766,21.979434 L 37.068811,17.246167 C 37.068811,17.246167 37.088388,32 37.088388,32 L 22.160133,31.978069 C 22.160133,31.978069 26.997745,27.140456 26.997745,27.140456 C 18.528582,18.264221 13.291696,25.230495 11.500037,31.436501 z"
             style="fill:#404040;"/>
          </a>
         </g>
        </svg>
</svg>
