<?xml version="1.0" encoding="UTF-8" standalone="no"?>
<!DOCTYPE svg PUBLIC "-//W3C//DTD SVG 1.1//EN"
 "http://www.w3.org/Graphics/SVG/1.1/DTD/svg11.dtd">
<!-- Generated by graphviz version 2.38.0 (20140413.2041)
 -->
<!-- Title: tomographer/mathtools/check_derivatives.h Pages: 1 -->
<svg width="661pt" height="202pt"
 viewBox="0.00 0.00 661.21 202.00" xmlns="http://www.w3.org/2000/svg" xmlns:xlink="http://www.w3.org/1999/xlink">
<g id="graph0" class="graph" transform="scale(1 1) rotate(0) translate(4 198)">
<title>tomographer/mathtools/check_derivatives.h</title>
<!-- Node0 -->
<g id="node1" class="node"><title>Node0</title>
<polygon fill="#bfbfbf" stroke="black" points="108.705,-165.5 108.705,-193.5 227.537,-193.5 227.537,-165.5 108.705,-165.5"/>
<text text-anchor="start" x="116.705" y="-181.5" font-family="Helvetica,sans-Serif" font-size="10.00">tomographer/mathtools</text>
<text text-anchor="middle" x="168.121" y="-171.5" font-family="Helvetica,sans-Serif" font-size="10.00">/check_derivatives.h</text>
</g>
<!-- Node1 -->
<g id="node2" class="node"><title>Node1</title>
<polygon fill="none" stroke="#bfbfbf" points="0,-55.5 0,-73.5 48.2412,-73.5 48.2412,-55.5 0,-55.5"/>
<text text-anchor="middle" x="24.1206" y="-61.5" font-family="Helvetica,sans-Serif" font-size="10.00">cstddef</text>
</g>
<!-- Node0&#45;&gt;Node1 -->
<g id="edge1" class="edge"><title>Node0&#45;&gt;Node1</title>
<path fill="none" stroke="midnightblue" d="M151.32,-165.316C124.14,-143.988 70.7324,-102.077 42.546,-79.9588"/>
<polygon fill="midnightblue" stroke="midnightblue" points="44.3737,-76.9441 34.346,-73.5241 40.0523,-82.451 44.3737,-76.9441"/>
</g>
<!-- Node2 -->
<g id="node3" class="node"><title>Node2</title>
<polygon fill="none" stroke="#bfbfbf" points="312.948,-110.5 312.948,-128.5 367.293,-128.5 367.293,-110.5 312.948,-110.5"/>
<text text-anchor="middle" x="340.121" y="-116.5" font-family="Helvetica,sans-Serif" font-size="10.00">iostream</text>
</g>
<!-- Node0&#45;&gt;Node2 -->
<g id="edge2" class="edge"><title>Node0&#45;&gt;Node2</title>
<path fill="none" stroke="midnightblue" d="M206.721,-165.484C236.756,-155.356 278.008,-141.445 306.655,-131.785"/>
<polygon fill="midnightblue" stroke="midnightblue" points="307.865,-135.071 316.222,-128.559 305.628,-128.438 307.865,-135.071"/>
</g>
<!-- Node3 -->
<g id="node4" class="node"><title>Node3</title>
<polygon fill="none" stroke="#bfbfbf" points="66.106,-55.5 66.106,-73.5 132.135,-73.5 132.135,-55.5 66.106,-55.5"/>
<text text-anchor="middle" x="99.1206" y="-61.5" font-family="Helvetica,sans-Serif" font-size="10.00">Eigen/Core</text>
</g>
<!-- Node0&#45;&gt;Node3 -->
<g id="edge3" class="edge"><title>Node0&#45;&gt;Node3</title>
<path fill="none" stroke="midnightblue" d="M159.934,-165.094C147.372,-144.52 123.348,-105.176 109.553,-82.5853"/>
<polygon fill="midnightblue" stroke="midnightblue" points="112.37,-80.4826 104.172,-73.772 106.396,-84.1307 112.37,-80.4826"/>
</g>
<!-- Node4 -->
<g id="node5" class="node"><title>Node4</title>
<g id="a_node5"><a xlink:href="cxxutil_8h.html" target="_top" xlink:title="Some C++ utilities, with a tad of C++11 tricks. ">
<polygon fill="none" stroke="black" points="159.37,-110.5 159.37,-128.5 294.872,-128.5 294.872,-110.5 159.37,-110.5"/>
<text text-anchor="middle" x="227.121" y="-116.5" font-family="Helvetica,sans-Serif" font-size="10.00">tomographer/tools/cxxutil.h</text>
</a>
</g>
</g>
<!-- Node0&#45;&gt;Node4 -->
<g id="edge4" class="edge"><title>Node0&#45;&gt;Node4</title>
<path fill="none" stroke="midnightblue" d="M181.509,-165.339C190.433,-156.565 202.196,-145.002 211.541,-135.816"/>
<polygon fill="midnightblue" stroke="midnightblue" points="214.029,-138.278 218.707,-128.771 209.122,-133.286 214.029,-138.278"/>
</g>
<!-- Node4&#45;&gt;Node1 -->
<g id="edge6" class="edge"><title>Node4&#45;&gt;Node1</title>
<path fill="none" stroke="midnightblue" d="M196.289,-110.45C159.126,-100.748 96.871,-84.494 58.2801,-74.4185"/>
<polygon fill="midnightblue" stroke="midnightblue" points="59.096,-71.0143 48.5362,-71.8745 57.3277,-77.7872 59.096,-71.0143"/>
</g>
<!-- Node4&#45;&gt;Node3 -->
<g id="edge11" class="edge"><title>Node4&#45;&gt;Node3</title>
<path fill="none" stroke="midnightblue" d="M207.68,-110.45C186.535,-101.695 152.508,-87.6055 128.185,-77.5346"/>
<polygon fill="midnightblue" stroke="midnightblue" points="129.322,-74.2173 118.744,-73.6253 126.644,-80.6848 129.322,-74.2173"/>
</g>
<!-- Node5 -->
<g id="node6" class="node"><title>Node5</title>
<polygon fill="none" stroke="#bfbfbf" points="150.005,-55.5 150.005,-73.5 198.236,-73.5 198.236,-55.5 150.005,-55.5"/>
<text text-anchor="middle" x="174.121" y="-61.5" font-family="Helvetica,sans-Serif" font-size="10.00">cassert</text>
</g>
<!-- Node4&#45;&gt;Node5 -->
<g id="edge5" class="edge"><title>Node4&#45;&gt;Node5</title>
<path fill="none" stroke="midnightblue" d="M218.839,-110.219C211.015,-102.394 199.084,-90.4631 189.513,-80.8921"/>
<polygon fill="midnightblue" stroke="midnightblue" points="191.716,-78.1458 182.17,-73.5496 186.766,-83.0955 191.716,-78.1458"/>
</g>
<!-- Node6 -->
<g id="node7" class="node"><title>Node6</title>
<polygon fill="none" stroke="#bfbfbf" points="215.948,-55.5 215.948,-73.5 260.293,-73.5 260.293,-55.5 215.948,-55.5"/>
<text text-anchor="middle" x="238.121" y="-61.5" font-family="Helvetica,sans-Serif" font-size="10.00">cstdlib</text>
</g>
<!-- Node4&#45;&gt;Node6 -->
<g id="edge7" class="edge"><title>Node4&#45;&gt;Node6</title>
<path fill="none" stroke="midnightblue" d="M228.839,-110.219C230.317,-103.099 232.501,-92.5775 234.379,-83.5289"/>
<polygon fill="midnightblue" stroke="midnightblue" points="237.845,-84.0522 236.45,-73.5496 230.991,-82.6296 237.845,-84.0522"/>
</g>
<!-- Node7 -->
<g id="node8" class="node"><title>Node7</title>
<polygon fill="none" stroke="#bfbfbf" points="278.054,-55.5 278.054,-73.5 340.187,-73.5 340.187,-55.5 278.054,-55.5"/>
<text text-anchor="middle" x="309.121" y="-61.5" font-family="Helvetica,sans-Serif" font-size="10.00">type_traits</text>
</g>
<!-- Node4&#45;&gt;Node7 -->
<g id="edge8" class="edge"><title>Node4&#45;&gt;Node7</title>
<path fill="none" stroke="midnightblue" d="M239.575,-110.45C252.338,-102.201 272.428,-89.2158 287.741,-79.3187"/>
<polygon fill="midnightblue" stroke="midnightblue" points="290.051,-81.9931 296.549,-73.6253 286.251,-76.1142 290.051,-81.9931"/>
</g>
<!-- Node8 -->
<g id="node9" class="node"><title>Node8</title>
<polygon fill="none" stroke="#bfbfbf" points="357.717,-55.5 357.717,-73.5 416.524,-73.5 416.524,-55.5 357.717,-55.5"/>
<text text-anchor="middle" x="387.121" y="-61.5" font-family="Helvetica,sans-Serif" font-size="10.00">exception</text>
</g>
<!-- Node4&#45;&gt;Node8 -->
<g id="edge9" class="edge"><title>Node4&#45;&gt;Node8</title>
<path fill="none" stroke="midnightblue" d="M251.421,-110.45C278.518,-101.475 322.54,-86.8922 353.064,-76.7813"/>
<polygon fill="midnightblue" stroke="midnightblue" points="354.462,-80.0053 362.854,-73.5383 352.261,-73.3604 354.462,-80.0053"/>
</g>
<!-- Node9 -->
<g id="node10" class="node"><title>Node9</title>
<polygon fill="none" stroke="#bfbfbf" points="434.719,-55.5 434.719,-73.5 493.522,-73.5 493.522,-55.5 434.719,-55.5"/>
<text text-anchor="middle" x="464.121" y="-61.5" font-family="Helvetica,sans-Serif" font-size="10.00">stdexcept</text>
</g>
<!-- Node4&#45;&gt;Node9 -->
<g id="edge10" class="edge"><title>Node4&#45;&gt;Node9</title>
<path fill="none" stroke="midnightblue" d="M263.116,-110.45C306.604,-100.725 379.524,-84.4181 424.554,-74.3481"/>
<polygon fill="midnightblue" stroke="midnightblue" points="425.547,-77.7126 434.543,-72.1145 424.02,-70.8813 425.547,-77.7126"/>
</g>
<!-- Node10 -->
<g id="node11" class="node"><title>Node10</title>
<g id="a_node11"><a xlink:href="conststr_8h.html" target="_top" xlink:title="A constexpr string type, suitable for basic compile&#45;time string processing. ">
<polygon fill="none" stroke="black" points="511.03,-55.5 511.03,-73.5 653.211,-73.5 653.211,-55.5 511.03,-55.5"/>
<text text-anchor="middle" x="582.121" y="-61.5" font-family="Helvetica,sans-Serif" font-size="10.00">tomographer/tools/conststr.h</text>
</a>
</g>
</g>
<!-- Node4&#45;&gt;Node10 -->
<g id="edge12" class="edge"><title>Node4&#45;&gt;Node10</title>
<path fill="none" stroke="midnightblue" d="M281.037,-110.45C344.688,-100.948 450.429,-85.161 518.16,-75.0491"/>
<polygon fill="midnightblue" stroke="midnightblue" points="518.906,-78.4766 528.279,-73.5383 517.872,-71.5534 518.906,-78.4766"/>
</g>
<!-- Node11 -->
<g id="node12" class="node"><title>Node11</title>
<polygon fill="none" stroke="#bfbfbf" points="561.894,-0.5 561.894,-18.5 602.347,-18.5 602.347,-0.5 561.894,-0.5"/>
<text text-anchor="middle" x="582.121" y="-6.5" font-family="Helvetica,sans-Serif" font-size="10.00">string</text>
</g>
<!-- Node10&#45;&gt;Node11 -->
<g id="edge13" class="edge"><title>Node10&#45;&gt;Node11</title>
<path fill="none" stroke="midnightblue" d="M582.121,-55.2188C582.121,-48.1769 582.121,-37.8083 582.121,-28.8277"/>
<polygon fill="midnightblue" stroke="midnightblue" points="585.621,-28.5495 582.121,-18.5496 578.621,-28.5496 585.621,-28.5495"/>
</g>
</g>
</svg>
