<?xml version="1.0" encoding="UTF-8" standalone="no"?>
<!DOCTYPE svg PUBLIC "-//W3C//DTD SVG 1.1//EN"
 "http://www.w3.org/Graphics/SVG/1.1/DTD/svg11.dtd">
<!-- Generated by graphviz version 2.38.0 (20140413.2041)
 -->
<!-- Title: Tomographer::Logger::LoggerBase&lt; Derived &gt; Pages: 1 -->
<!--zoomable 447 -->
<svg id="main" version="1.1" xmlns="http://www.w3.org/2000/svg" xmlns:xlink="http://www.w3.org/1999/xlink" xml:space="preserve" onload="init(evt)">
<style type="text/css"><![CDATA[
.edge:hover path { stroke: red; }
.edge:hover polygon { stroke: red; fill: red; }
]]></style>
<script type="text/javascript"><![CDATA[
var edges = document.getElementsByTagName('g');
if (edges && edges.length) {
  for (var i=0;i<edges.length;i++) {
    if (edges[i].id.substr(0,4)=='edge') {
      edges[i].setAttribute('class','edge');
    }
  }
}
]]></script>
        <defs>
                <circle id="rim" cx="0" cy="0" r="7"/>
                <circle id="rim2" cx="0" cy="0" r="3.5"/>
                <g id="zoomPlus">
                        <use xlink:href="#rim" fill="#404040">
                                <set attributeName="fill" to="#808080" begin="zoomplus.mouseover" end="zoomplus.mouseout"/>
                        </use>
                        <path d="M-4,0h8M0,-4v8" fill="none" stroke="white" stroke-width="1.5" pointer-events="none"/>
                </g>
                <g id="zoomMin">
                        <use xlink:href="#rim" fill="#404040">
                                <set attributeName="fill" to="#808080" begin="zoomminus.mouseover" end="zoomminus.mouseout"/>
                        </use>
                        <path d="M-4,0h8" fill="none" stroke="white" stroke-width="1.5" pointer-events="none"/>
                </g>
                <g id="dirArrow">
                        <path fill="none" stroke="white" stroke-width="1.5" d="M0,-3.0v7 M-2.5,-0.5L0,-3.0L2.5,-0.5"/>
                </g>
               <g id="resetDef">
                       <use xlink:href="#rim2" fill="#404040">
                               <set attributeName="fill" to="#808080" begin="reset.mouseover" end="reset.mouseout"/>
                       </use>
               </g>
        </defs>

<script type="text/javascript">
var viewWidth = 1090;
var viewHeight = 447;
var sectionId = 'dynsection-0';
</script>
<script xlink:href="svgpan.js"/>
<svg id="graph" class="graph">
<g id="viewport">
<title>Tomographer::Logger::LoggerBase&lt; Derived &gt;</title>
<!-- Node0 -->
<g id="node1" class="node"><title>Node0</title>
<polygon fill="#bfbfbf" stroke="black" points="0,-203.5 0,-231.5 127.182,-231.5 127.182,-203.5 0,-203.5"/>
<text text-anchor="start" x="8" y="-219.5" font-family="Helvetica,sans-Serif" font-size="10.00">Tomographer::Logger</text>
<text text-anchor="middle" x="63.5908" y="-209.5" font-family="Helvetica,sans-Serif" font-size="10.00">::LoggerBase&lt; Derived &gt;</text>
</g>
<!-- Node1 -->
<g id="node2" class="node"><title>Node1</title>
<g id="a_node2"><a xlink:href="class_tomographer_1_1_logger_1_1_logger_base.html" target="_top" xlink:title="Tomographer::Logger\l::LoggerBase\&lt; BoostTestLogger \&gt;">
<polygon fill="none" stroke="black" points="308.299,-408.5 308.299,-436.5 476.071,-436.5 476.071,-408.5 308.299,-408.5"/>
<text text-anchor="start" x="316.299" y="-424.5" font-family="Helvetica,sans-Serif" font-size="10.00">Tomographer::Logger</text>
<text text-anchor="middle" x="392.185" y="-414.5" font-family="Helvetica,sans-Serif" font-size="10.00">::LoggerBase&lt; BoostTestLogger &gt;</text>
</a>
</g>
</g>
<!-- Node0&#45;&gt;Node1 -->
<g id="edge1" class="edge"><title>Node0&#45;&gt;Node1</title>
<path fill="none" stroke="orange" stroke-dasharray="5,2" d="M68.6641,-241.913C76.3598,-279.749 96.8269,-351.893 145.182,-387.5 191.643,-421.712 256.706,-429.729 308.251,-429.584"/>
<polygon fill="orange" stroke="orange" points="72.0445,-240.953 66.7439,-231.779 65.1669,-242.256 72.0445,-240.953"/>
<text text-anchor="middle" x="217.74" y="-430.5" font-family="Helvetica,sans-Serif" font-size="10.00"> &lt; BoostTestLogger &gt;</text>
</g>
<!-- Node3 -->
<g id="node4" class="node"><title>Node3</title>
<g id="a_node4"><a xlink:href="class_tomographer_1_1_logger_1_1_logger_base.html" target="_top" xlink:title="Tomographer::Logger\l::LoggerBase\&lt; ThreadSanitizer\lLogger\&lt; BaseLogger \&gt; \&gt;">
<polygon fill="none" stroke="black" points="314.925,-351.5 314.925,-389.5 469.445,-389.5 469.445,-351.5 314.925,-351.5"/>
<text text-anchor="start" x="322.925" y="-377.5" font-family="Helvetica,sans-Serif" font-size="10.00">Tomographer::Logger</text>
<text text-anchor="start" x="322.925" y="-367.5" font-family="Helvetica,sans-Serif" font-size="10.00">::LoggerBase&lt; ThreadSanitizer</text>
<text text-anchor="middle" x="392.185" y="-357.5" font-family="Helvetica,sans-Serif" font-size="10.00">Logger&lt; BaseLogger &gt; &gt;</text>
</a>
</g>
</g>
<!-- Node0&#45;&gt;Node3 -->
<g id="edge3" class="edge"><title>Node0&#45;&gt;Node3</title>
<path fill="none" stroke="orange" stroke-dasharray="5,2" d="M73.6178,-240.908C85.5516,-268.441 109.348,-313.21 145.182,-335.5 172.792,-352.674 253.19,-361.759 314.631,-366.325"/>
<polygon fill="orange" stroke="orange" points="76.8269,-239.51 69.7575,-231.618 70.3627,-242.196 76.8269,-239.51"/>
<text text-anchor="start" x="161.266" y="-375.5" font-family="Helvetica,sans-Serif" font-size="10.00"> &lt; ThreadSanitizerLogger</text>
<text text-anchor="middle" x="217.74" y="-365.5" font-family="Helvetica,sans-Serif" font-size="10.00">&lt; BaseLogger &gt; &gt;</text>
</g>
<!-- Node5 -->
<g id="node6" class="node"><title>Node5</title>
<g id="a_node6"><a xlink:href="class_tomographer_1_1_logger_1_1_logger_base.html" target="_top" xlink:title="Tomographer::Logger\l::LoggerBase\&lt; LocalLogger\l\&lt; BaseLoggerType_ \&gt; \&gt;">
<polygon fill="none" stroke="black" points="322.61,-294.5 322.61,-332.5 461.76,-332.5 461.76,-294.5 322.61,-294.5"/>
<text text-anchor="start" x="330.61" y="-320.5" font-family="Helvetica,sans-Serif" font-size="10.00">Tomographer::Logger</text>
<text text-anchor="start" x="330.61" y="-310.5" font-family="Helvetica,sans-Serif" font-size="10.00">::LoggerBase&lt; LocalLogger</text>
<text text-anchor="middle" x="392.185" y="-300.5" font-family="Helvetica,sans-Serif" font-size="10.00">&lt; BaseLoggerType_ &gt; &gt;</text>
</a>
</g>
</g>
<!-- Node0&#45;&gt;Node5 -->
<g id="edge5" class="edge"><title>Node0&#45;&gt;Node5</title>
<path fill="none" stroke="orange" stroke-dasharray="5,2" d="M85.5861,-238.634C100.795,-252.608 122.58,-270.036 145.182,-279.5 201.853,-303.23 271.657,-311.076 322.414,-313.37"/>
<polygon fill="orange" stroke="orange" points="87.9311,-236.034 78.2625,-231.702 83.1191,-241.118 87.9311,-236.034"/>
<text text-anchor="start" x="153.246" y="-323.5" font-family="Helvetica,sans-Serif" font-size="10.00"> &lt; LocalLogger&lt; BaseLogger</text>
<text text-anchor="middle" x="217.74" y="-313.5" font-family="Helvetica,sans-Serif" font-size="10.00">Type_ &gt; &gt;</text>
</g>
<!-- Node8 -->
<g id="node9" class="node"><title>Node8</title>
<g id="a_node9"><a xlink:href="class_tomographer_1_1_logger_1_1_logger_base.html" target="_top" xlink:title="Tomographer::Logger\l::LoggerBase\&lt; LocalLogger\l\&lt; LoggerType \&gt; \&gt;">
<polygon fill="none" stroke="black" points="494.071,-247.5 494.071,-285.5 633.221,-285.5 633.221,-247.5 494.071,-247.5"/>
<text text-anchor="start" x="502.071" y="-273.5" font-family="Helvetica,sans-Serif" font-size="10.00">Tomographer::Logger</text>
<text text-anchor="start" x="502.071" y="-263.5" font-family="Helvetica,sans-Serif" font-size="10.00">::LoggerBase&lt; LocalLogger</text>
<text text-anchor="middle" x="563.646" y="-253.5" font-family="Helvetica,sans-Serif" font-size="10.00">&lt; LoggerType &gt; &gt;</text>
</a>
</g>
</g>
<!-- Node0&#45;&gt;Node8 -->
<g id="edge8" class="edge"><title>Node0&#45;&gt;Node8</title>
<path fill="none" stroke="orange" stroke-dasharray="5,2" d="M114.894,-234.408C124.835,-237.2 135.262,-239.75 145.182,-241.5 266.556,-262.913 410.519,-266.921 493.748,-267.191"/>
<polygon fill="orange" stroke="orange" points="115.734,-231.007 105.153,-231.556 113.767,-237.725 115.734,-231.007"/>
<text text-anchor="middle" x="217.74" y="-261.5" font-family="Helvetica,sans-Serif" font-size="10.00"> &lt; LocalLogger&lt; LoggerType &gt; &gt;</text>
</g>
<!-- Node9 -->
<g id="node10" class="node"><title>Node9</title>
<g id="a_node10"><a xlink:href="class_tomographer_1_1_logger_1_1_logger_base.html" target="_top" xlink:title="Tomographer::Logger\l::LoggerBase\&lt; MinimumSeverity\lLogger\&lt; BaseLogger, Level \&gt; \&gt;">
<polygon fill="none" stroke="black" points="311.792,-198.5 311.792,-236.5 472.578,-236.5 472.578,-198.5 311.792,-198.5"/>
<text text-anchor="start" x="319.792" y="-224.5" font-family="Helvetica,sans-Serif" font-size="10.00">Tomographer::Logger</text>
<text text-anchor="start" x="319.792" y="-214.5" font-family="Helvetica,sans-Serif" font-size="10.00">::LoggerBase&lt; MinimumSeverity</text>
<text text-anchor="middle" x="392.185" y="-204.5" font-family="Helvetica,sans-Serif" font-size="10.00">Logger&lt; BaseLogger, Level &gt; &gt;</text>
</a>
</g>
</g>
<!-- Node0&#45;&gt;Node9 -->
<g id="edge10" class="edge"><title>Node0&#45;&gt;Node9</title>
<path fill="none" stroke="orange" stroke-dasharray="5,2" d="M137.651,-217.5C189.323,-217.5 258.565,-217.5 311.63,-217.5"/>
<polygon fill="orange" stroke="orange" points="137.562,-214 127.561,-217.5 137.561,-221 137.562,-214"/>
<text text-anchor="start" x="158.133" y="-229.5" font-family="Helvetica,sans-Serif" font-size="10.00"> &lt; MinimumSeverityLogger</text>
<text text-anchor="middle" x="217.74" y="-219.5" font-family="Helvetica,sans-Serif" font-size="10.00">&lt; BaseLogger, Level &gt; &gt;</text>
</g>
<!-- Node11 -->
<g id="node12" class="node"><title>Node11</title>
<g id="a_node12"><a xlink:href="class_tomographer_1_1_logger_1_1_logger_base.html" target="_top" xlink:title="Tomographer::Logger\l::LoggerBase\&lt; VacuumLogger \&gt;">
<polygon fill="none" stroke="black" points="312.281,-151.5 312.281,-179.5 472.089,-179.5 472.089,-151.5 312.281,-151.5"/>
<text text-anchor="start" x="320.281" y="-167.5" font-family="Helvetica,sans-Serif" font-size="10.00">Tomographer::Logger</text>
<text text-anchor="middle" x="392.185" y="-157.5" font-family="Helvetica,sans-Serif" font-size="10.00">::LoggerBase&lt; VacuumLogger &gt;</text>
</a>
</g>
</g>
<!-- Node0&#45;&gt;Node11 -->
<g id="edge12" class="edge"><title>Node0&#45;&gt;Node11</title>
<path fill="none" stroke="orange" stroke-dasharray="5,2" d="M137.529,-204.767C140.111,-204.336 142.668,-203.912 145.182,-203.5 200.94,-194.351 263.914,-184.635 312.188,-177.318"/>
<polygon fill="orange" stroke="orange" points="136.765,-201.346 127.485,-206.457 137.927,-208.249 136.765,-201.346"/>
<text text-anchor="middle" x="217.74" y="-205.5" font-family="Helvetica,sans-Serif" font-size="10.00"> &lt; VacuumLogger &gt;</text>
</g>
<!-- Node13 -->
<g id="node14" class="node"><title>Node13</title>
<g id="a_node14"><a xlink:href="class_tomographer_1_1_logger_1_1_logger_base.html" target="_top" xlink:title="Tomographer::Logger\l::LoggerBase\&lt; BufferLogger \&gt;">
<polygon fill="none" stroke="black" points="317.002,-104.5 317.002,-132.5 467.368,-132.5 467.368,-104.5 317.002,-104.5"/>
<text text-anchor="start" x="325.002" y="-120.5" font-family="Helvetica,sans-Serif" font-size="10.00">Tomographer::Logger</text>
<text text-anchor="middle" x="392.185" y="-110.5" font-family="Helvetica,sans-Serif" font-size="10.00">::LoggerBase&lt; BufferLogger &gt;</text>
</a>
</g>
</g>
<!-- Node0&#45;&gt;Node13 -->
<g id="edge14" class="edge"><title>Node0&#45;&gt;Node13</title>
<path fill="none" stroke="orange" stroke-dasharray="5,2" d="M91.425,-197.446C106.514,-187.069 126.105,-175.03 145.182,-167.5 200.574,-145.635 266.984,-133.148 316.835,-126.258"/>
<polygon fill="orange" stroke="orange" points="89.2541,-194.695 83.0989,-203.318 93.2883,-200.415 89.2541,-194.695"/>
<text text-anchor="middle" x="217.74" y="-169.5" font-family="Helvetica,sans-Serif" font-size="10.00"> &lt; BufferLogger &gt;</text>
</g>
<!-- Node15 -->
<g id="node16" class="node"><title>Node15</title>
<g id="a_node16"><a xlink:href="class_tomographer_1_1_logger_1_1_logger_base.html" target="_top" xlink:title="Tomographer::Logger\l::LoggerBase\&lt; OriginFiltered\lLogger\&lt; BaseLogger \&gt; \&gt;">
<polygon fill="none" stroke="black" points="320.123,-47.5 320.123,-85.5 464.248,-85.5 464.248,-47.5 320.123,-47.5"/>
<text text-anchor="start" x="328.123" y="-73.5" font-family="Helvetica,sans-Serif" font-size="10.00">Tomographer::Logger</text>
<text text-anchor="start" x="328.123" y="-63.5" font-family="Helvetica,sans-Serif" font-size="10.00">::LoggerBase&lt; OriginFiltered</text>
<text text-anchor="middle" x="392.185" y="-53.5" font-family="Helvetica,sans-Serif" font-size="10.00">Logger&lt; BaseLogger &gt; &gt;</text>
</a>
</g>
</g>
<!-- Node0&#45;&gt;Node15 -->
<g id="edge16" class="edge"><title>Node0&#45;&gt;Node15</title>
<path fill="none" stroke="orange" stroke-dasharray="5,2" d="M74.8284,-194.004C87.4257,-168.092 111.378,-127.318 145.182,-106.5 197.683,-74.1665 267.96,-65.4353 319.955,-64.0489"/>
<polygon fill="orange" stroke="orange" points="71.6242,-192.594 70.5595,-203.135 77.9654,-195.558 71.6242,-192.594"/>
<text text-anchor="start" x="166.463" y="-118.5" font-family="Helvetica,sans-Serif" font-size="10.00"> &lt; OriginFilteredLogger</text>
<text text-anchor="middle" x="217.74" y="-108.5" font-family="Helvetica,sans-Serif" font-size="10.00">&lt; BaseLogger &gt; &gt;</text>
</g>
<!-- Node17 -->
<g id="node18" class="node"><title>Node17</title>
<g id="a_node18"><a xlink:href="class_tomographer_1_1_logger_1_1_logger_base.html" target="_top" xlink:title="Tomographer::Logger\l::LoggerBase\&lt; FileLogger \&gt;">
<polygon fill="none" stroke="black" points="322.198,-0.5 322.198,-28.5 462.172,-28.5 462.172,-0.5 322.198,-0.5"/>
<text text-anchor="start" x="330.198" y="-16.5" font-family="Helvetica,sans-Serif" font-size="10.00">Tomographer::Logger</text>
<text text-anchor="middle" x="392.185" y="-6.5" font-family="Helvetica,sans-Serif" font-size="10.00">::LoggerBase&lt; FileLogger &gt;</text>
</a>
</g>
</g>
<!-- Node0&#45;&gt;Node17 -->
<g id="edge18" class="edge"><title>Node0&#45;&gt;Node17</title>
<path fill="none" stroke="orange" stroke-dasharray="5,2" d="M69.062,-193.306C77.2235,-156.503 98.2232,-87.0884 145.182,-52.5 195.983,-15.0812 268.853,-7.98346 322.096,-8.79255"/>
<polygon fill="orange" stroke="orange" points="65.6167,-192.684 67.0077,-203.187 72.4701,-194.109 65.6167,-192.684"/>
<text text-anchor="middle" x="217.74" y="-54.5" font-family="Helvetica,sans-Serif" font-size="10.00"> &lt; FileLogger &gt;</text>
</g>
<!-- Node2 -->
<g id="node3" class="node"><title>Node2</title>
<g id="a_node3"><a xlink:href="class_tomographer_1_1_logger_1_1_boost_test_logger.html" target="_top" xlink:title="A logger we can use in tests, which calls BOOST_TEST_MESSAGE() ">
<polygon fill="none" stroke="black" points="682.92,-408.5 682.92,-436.5 794.535,-436.5 794.535,-408.5 682.92,-408.5"/>
<text text-anchor="start" x="690.92" y="-424.5" font-family="Helvetica,sans-Serif" font-size="10.00">Tomographer::Logger</text>
<text text-anchor="middle" x="738.728" y="-414.5" font-family="Helvetica,sans-Serif" font-size="10.00">::BoostTestLogger</text>
</a>
</g>
</g>
<!-- Node1&#45;&gt;Node2 -->
<g id="edge2" class="edge"><title>Node1&#45;&gt;Node2</title>
<path fill="none" stroke="midnightblue" d="M486.476,-422.5C549.348,-422.5 630.133,-422.5 682.885,-422.5"/>
<polygon fill="midnightblue" stroke="midnightblue" points="486.15,-419 476.15,-422.5 486.15,-426 486.15,-419"/>
</g>
<!-- Node4 -->
<g id="node5" class="node"><title>Node4</title>
<g id="a_node5"><a xlink:href="class_tomographer_1_1_multi_proc_1_1_o_m_p_1_1_thread_sanitizer_logger.html" target="_top" xlink:title="Wrapper logger to call non&#45;thread&#45;safe loggers from a multithreaded environment. ">
<polygon fill="none" stroke="black" points="662.917,-351.5 662.917,-389.5 814.538,-389.5 814.538,-351.5 662.917,-351.5"/>
<text text-anchor="start" x="670.917" y="-377.5" font-family="Helvetica,sans-Serif" font-size="10.00">Tomographer::MultiProc</text>
<text text-anchor="start" x="670.917" y="-367.5" font-family="Helvetica,sans-Serif" font-size="10.00">::OMP::ThreadSanitizerLogger</text>
<text text-anchor="middle" x="738.728" y="-357.5" font-family="Helvetica,sans-Serif" font-size="10.00">&lt; BaseLogger &gt;</text>
</a>
</g>
</g>
<!-- Node3&#45;&gt;Node4 -->
<g id="edge4" class="edge"><title>Node3&#45;&gt;Node4</title>
<path fill="none" stroke="midnightblue" d="M479.963,-370.5C536.254,-370.5 608.86,-370.5 662.662,-370.5"/>
<polygon fill="midnightblue" stroke="midnightblue" points="479.65,-367 469.65,-370.5 479.65,-374 479.65,-367"/>
</g>
<!-- Node6 -->
<g id="node7" class="node"><title>Node6</title>
<g id="a_node7"><a xlink:href="class_tomographer_1_1_logger_1_1_local_logger.html" target="_top" xlink:title="Local logger: avoid having to repeat origin at each emitted message. ">
<polygon fill="none" stroke="black" points="651.221,-296.5 651.221,-324.5 826.234,-324.5 826.234,-296.5 651.221,-296.5"/>
<text text-anchor="start" x="659.221" y="-312.5" font-family="Helvetica,sans-Serif" font-size="10.00">Tomographer::Logger</text>
<text text-anchor="middle" x="738.728" y="-302.5" font-family="Helvetica,sans-Serif" font-size="10.00">::LocalLogger&lt; BaseLoggerType_ &gt;</text>
</a>
</g>
</g>
<!-- Node5&#45;&gt;Node6 -->
<g id="edge6" class="edge"><title>Node5&#45;&gt;Node6</title>
<path fill="none" stroke="midnightblue" d="M472.192,-312.812C525.642,-312.347 596.239,-311.732 651.204,-311.253"/>
<polygon fill="midnightblue" stroke="midnightblue" points="472.049,-309.313 462.08,-312.9 472.11,-316.313 472.049,-309.313"/>
</g>
<!-- Node7 -->
<g id="node8" class="node"><title>Node7</title>
<g id="a_node8"><a xlink:href="class_tomographer_1_1_logger_1_1_local_logger.html" target="_top" xlink:title="Tomographer::Logger\l::LocalLogger\&lt; LoggerType \&gt;">
<polygon fill="none" stroke="black" points="935.071,-272.5 935.071,-300.5 1081.73,-300.5 1081.73,-272.5 935.071,-272.5"/>
<text text-anchor="start" x="943.071" y="-288.5" font-family="Helvetica,sans-Serif" font-size="10.00">Tomographer::Logger</text>
<text text-anchor="middle" x="1008.4" y="-278.5" font-family="Helvetica,sans-Serif" font-size="10.00">::LocalLogger&lt; LoggerType &gt;</text>
</a>
</g>
</g>
<!-- Node6&#45;&gt;Node7 -->
<g id="edge7" class="edge"><title>Node6&#45;&gt;Node7</title>
<path fill="none" stroke="orange" stroke-dasharray="5,2" d="M836.266,-301.844C868.86,-298.922 904.66,-295.712 935.054,-292.987"/>
<polygon fill="orange" stroke="orange" points="835.911,-298.362 826.264,-302.741 836.536,-305.334 835.911,-298.362"/>
<text text-anchor="middle" x="880.653" y="-303.5" font-family="Helvetica,sans-Serif" font-size="10.00"> &lt; LoggerType &gt;</text>
</g>
<!-- Node8&#45;&gt;Node7 -->
<g id="edge9" class="edge"><title>Node8&#45;&gt;Node7</title>
<path fill="none" stroke="midnightblue" d="M643.427,-270.059C726.015,-273.789 854.695,-279.602 934.863,-283.223"/>
<polygon fill="midnightblue" stroke="midnightblue" points="643.488,-266.558 633.341,-269.603 643.172,-273.551 643.488,-266.558"/>
</g>
<!-- Node10 -->
<g id="node11" class="node"><title>Node10</title>
<g id="a_node11"><a xlink:href="class_tomographer_1_1_logger_1_1_minimum_severity_logger.html" target="_top" xlink:title="Logger which statically discards any messages less important than a fixed severity. ">
<polygon fill="none" stroke="black" points="674.041,-198.5 674.041,-236.5 803.415,-236.5 803.415,-198.5 674.041,-198.5"/>
<text text-anchor="start" x="682.041" y="-224.5" font-family="Helvetica,sans-Serif" font-size="10.00">Tomographer::Logger</text>
<text text-anchor="start" x="682.041" y="-214.5" font-family="Helvetica,sans-Serif" font-size="10.00">::MinimumSeverityLogger</text>
<text text-anchor="middle" x="738.728" y="-204.5" font-family="Helvetica,sans-Serif" font-size="10.00">&lt; BaseLogger, Level &gt;</text>
</a>
</g>
</g>
<!-- Node9&#45;&gt;Node10 -->
<g id="edge11" class="edge"><title>Node9&#45;&gt;Node10</title>
<path fill="none" stroke="midnightblue" d="M482.88,-217.5C542.807,-217.5 620.196,-217.5 673.896,-217.5"/>
<polygon fill="midnightblue" stroke="midnightblue" points="482.663,-214 472.663,-217.5 482.663,-221 482.663,-214"/>
</g>
<!-- Node12 -->
<g id="node13" class="node"><title>Node12</title>
<g id="a_node13"><a xlink:href="class_tomographer_1_1_logger_1_1_vacuum_logger.html" target="_top" xlink:title="Logger that discards all messages. ">
<polygon fill="none" stroke="black" points="682.92,-151.5 682.92,-179.5 794.535,-179.5 794.535,-151.5 682.92,-151.5"/>
<text text-anchor="start" x="690.92" y="-167.5" font-family="Helvetica,sans-Serif" font-size="10.00">Tomographer::Logger</text>
<text text-anchor="middle" x="738.728" y="-157.5" font-family="Helvetica,sans-Serif" font-size="10.00">::VacuumLogger</text>
</a>
</g>
</g>
<!-- Node11&#45;&gt;Node12 -->
<g id="edge13" class="edge"><title>Node11&#45;&gt;Node12</title>
<path fill="none" stroke="midnightblue" d="M482.613,-165.5C545.92,-165.5 628.818,-165.5 682.663,-165.5"/>
<polygon fill="midnightblue" stroke="midnightblue" points="482.23,-162 472.23,-165.5 482.23,-169 482.23,-162"/>
</g>
<!-- Node14 -->
<g id="node15" class="node"><title>Node14</title>
<g id="a_node15"><a xlink:href="class_tomographer_1_1_logger_1_1_buffer_logger.html" target="_top" xlink:title="Log messages into an internal memory buffer. ">
<polygon fill="none" stroke="black" points="682.92,-104.5 682.92,-132.5 794.535,-132.5 794.535,-104.5 682.92,-104.5"/>
<text text-anchor="start" x="690.92" y="-120.5" font-family="Helvetica,sans-Serif" font-size="10.00">Tomographer::Logger</text>
<text text-anchor="middle" x="738.728" y="-110.5" font-family="Helvetica,sans-Serif" font-size="10.00">::BufferLogger</text>
</a>
</g>
</g>
<!-- Node13&#45;&gt;Node14 -->
<g id="edge15" class="edge"><title>Node13&#45;&gt;Node14</title>
<path fill="none" stroke="midnightblue" d="M477.582,-118.5C541.494,-118.5 627.444,-118.5 682.725,-118.5"/>
<polygon fill="midnightblue" stroke="midnightblue" points="477.521,-115 467.521,-118.5 477.521,-122 477.521,-115"/>
</g>
<!-- Node16 -->
<g id="node17" class="node"><title>Node16</title>
<g id="a_node17"><a xlink:href="class_tomographer_1_1_logger_1_1_origin_filtered_logger.html" target="_top" xlink:title="A logger which filters entries according to where they originated from. ">
<polygon fill="none" stroke="black" points="682.371,-47.5 682.371,-85.5 795.084,-85.5 795.084,-47.5 682.371,-47.5"/>
<text text-anchor="start" x="690.371" y="-73.5" font-family="Helvetica,sans-Serif" font-size="10.00">Tomographer::Logger</text>
<text text-anchor="start" x="690.371" y="-63.5" font-family="Helvetica,sans-Serif" font-size="10.00">::OriginFilteredLogger</text>
<text text-anchor="middle" x="738.728" y="-53.5" font-family="Helvetica,sans-Serif" font-size="10.00">&lt; BaseLogger &gt;</text>
</a>
</g>
</g>
<!-- Node15&#45;&gt;Node16 -->
<g id="edge17" class="edge"><title>Node15&#45;&gt;Node16</title>
<path fill="none" stroke="midnightblue" d="M474.642,-66.5C538.674,-66.5 626.148,-66.5 682.299,-66.5"/>
<polygon fill="midnightblue" stroke="midnightblue" points="474.575,-63.0001 464.574,-66.5 474.574,-70.0001 474.575,-63.0001"/>
</g>
<!-- Node18 -->
<g id="node19" class="node"><title>Node18</title>
<g id="a_node19"><a xlink:href="class_tomographer_1_1_logger_1_1_file_logger.html" target="_top" xlink:title="Simple logger class which logs everything into a given FILE pointer. ">
<polygon fill="none" stroke="black" points="682.92,-0.5 682.92,-28.5 794.535,-28.5 794.535,-0.5 682.92,-0.5"/>
<text text-anchor="start" x="690.92" y="-16.5" font-family="Helvetica,sans-Serif" font-size="10.00">Tomographer::Logger</text>
<text text-anchor="middle" x="738.728" y="-6.5" font-family="Helvetica,sans-Serif" font-size="10.00">::FileLogger</text>
</a>
</g>
</g>
<!-- Node17&#45;&gt;Node18 -->
<g id="edge19" class="edge"><title>Node17&#45;&gt;Node18</title>
<path fill="none" stroke="midnightblue" d="M472.602,-14.5C536.958,-14.5 625.969,-14.5 682.701,-14.5"/>
<polygon fill="midnightblue" stroke="midnightblue" points="472.494,-11.0001 462.494,-14.5 472.494,-18.0001 472.494,-11.0001"/>
</g>
</g>
</svg>
        <g id="navigator" transform="translate(0 0)" fill="#404254">
                <rect fill="#f2f5e9" fill-opacity="0.5" stroke="#606060" stroke-width=".5" x="0" y="0" width="60" height="60"/>
                <use id="zoomplus" xlink:href="#zoomPlus" x="17" y="9" onmousedown="handleZoom(evt,'in')"/>
                <use id="zoomminus" xlink:href="#zoomMin" x="42" y="9" onmousedown="handleZoom(evt,'out')"/>
                <use id="reset" xlink:href="#resetDef" x="30" y="36" onmousedown="handleReset()"/>
                <g id="arrowUp" xlink:href="#dirArrow" transform="translate(30 24)" onmousedown="handlePan(0,-1)">
                  <use xlink:href="#rim" fill="#404040">
                        <set attributeName="fill" to="#808080" begin="arrowUp.mouseover" end="arrowUp.mouseout"/>
                  </use>
                  <path fill="none" stroke="white" stroke-width="1.5" d="M0,-3.0v7 M-2.5,-0.5L0,-3.0L2.5,-0.5"/>
                </g>
                <g id="arrowRight" xlink:href="#dirArrow" transform="rotate(90) translate(36 -43)" onmousedown="handlePan(1,0)">
                  <use xlink:href="#rim" fill="#404040">
                        <set attributeName="fill" to="#808080" begin="arrowRight.mouseover" end="arrowRight.mouseout"/>
                  </use>
                  <path fill="none" stroke="white" stroke-width="1.5" d="M0,-3.0v7 M-2.5,-0.5L0,-3.0L2.5,-0.5"/>
                </g>
                <g id="arrowDown" xlink:href="#dirArrow" transform="rotate(180) translate(-30 -48)" onmousedown="handlePan(0,1)">
                  <use xlink:href="#rim" fill="#404040">
                        <set attributeName="fill" to="#808080" begin="arrowDown.mouseover" end="arrowDown.mouseout"/>
                  </use>
                  <path fill="none" stroke="white" stroke-width="1.5" d="M0,-3.0v7 M-2.5,-0.5L0,-3.0L2.5,-0.5"/>
                </g>
                <g id="arrowLeft" xlink:href="#dirArrow" transform="rotate(270) translate(-36 17)" onmousedown="handlePan(-1,0)">
                  <use xlink:href="#rim" fill="#404040">
                        <set attributeName="fill" to="#808080" begin="arrowLeft.mouseover" end="arrowLeft.mouseout"/>
                  </use>
                  <path fill="none" stroke="white" stroke-width="1.5" d="M0,-3.0v7 M-2.5,-0.5L0,-3.0L2.5,-0.5"/>
                </g>
        </g>
        <svg viewBox="0 0 15 15" width="100%" height="30px" preserveAspectRatio="xMaxYMin meet">
         <g id="arrow_out" transform="scale(0.3 0.3)">
          <a xlink:href="class_tomographer_1_1_logger_1_1_logger_base__inherit__graph_org.svg" target="_base">
           <rect id="button" ry="5" rx="5" y="6" x="6" height="38" width="38"
                fill="#f2f5e9" fill-opacity="0.5" stroke="#606060" stroke-width="1.0"/>
           <path id="arrow"
             d="M 11.500037,31.436501 C 11.940474,20.09759 22.043105,11.32322 32.158766,21.979434 L 37.068811,17.246167 C 37.068811,17.246167 37.088388,32 37.088388,32 L 22.160133,31.978069 C 22.160133,31.978069 26.997745,27.140456 26.997745,27.140456 C 18.528582,18.264221 13.291696,25.230495 11.500037,31.436501 z"
             style="fill:#404040;"/>
          </a>
         </g>
        </svg>
</svg>
