<?xml version="1.0" encoding="UTF-8" standalone="no"?>
<!DOCTYPE svg PUBLIC "-//W3C//DTD SVG 1.1//EN"
 "http://www.w3.org/Graphics/SVG/1.1/DTD/svg11.dtd">
<!-- Generated by graphviz version 2.38.0 (20140413.2041)
 -->
<!-- Title: Tomographer::ValueHistogramMHRWStatsCollector&lt; ValueCalculator_, LoggerType, HistogramType_ &gt; Pages: 1 -->
<svg width="410pt" height="94pt"
 viewBox="0.00 0.00 409.96 94.00" xmlns="http://www.w3.org/2000/svg" xmlns:xlink="http://www.w3.org/1999/xlink">
<g id="graph0" class="graph" transform="scale(1 1) rotate(0) translate(4 90)">
<title>Tomographer::ValueHistogramMHRWStatsCollector&lt; ValueCalculator_, LoggerType, HistogramType_ &gt;</title>
<!-- Node4 -->
<g id="node1" class="node"><title>Node4</title>
<polygon fill="#bfbfbf" stroke="black" points="213.196,-21.5 213.196,-59.5 401.955,-59.5 401.955,-21.5 213.196,-21.5"/>
<text text-anchor="start" x="221.196" y="-47.5" font-family="Helvetica,sans-Serif" font-size="10.00">Tomographer::ValueHistogram</text>
<text text-anchor="start" x="221.196" y="-37.5" font-family="Helvetica,sans-Serif" font-size="10.00">MHRWStatsCollector&lt; ValueCalculator</text>
<text text-anchor="middle" x="307.576" y="-27.5" font-family="Helvetica,sans-Serif" font-size="10.00">_, LoggerType, HistogramType_ &gt;</text>
</g>
<!-- Node5 -->
<g id="node2" class="node"><title>Node5</title>
<polygon fill="none" stroke="#bfbfbf" points="9.12109,-47.5 9.12109,-85.5 168.075,-85.5 168.075,-47.5 9.12109,-47.5"/>
<text text-anchor="start" x="17.1211" y="-73.5" font-family="Helvetica,sans-Serif" font-size="10.00">Tools::NeedOwnOperatorNew</text>
<text text-anchor="start" x="17.1211" y="-63.5" font-family="Helvetica,sans-Serif" font-size="10.00">::ProviderType&lt; ValueCalculator</text>
<text text-anchor="middle" x="88.5981" y="-53.5" font-family="Helvetica,sans-Serif" font-size="10.00">_, HistogramType_ &gt;</text>
</g>
<!-- Node5&#45;&gt;Node4 -->
<g id="edge1" class="edge"><title>Node5&#45;&gt;Node4</title>
<path fill="none" stroke="midnightblue" d="M178.237,-55.8786C189.719,-54.5027 201.509,-53.09 213.067,-51.705"/>
<polygon fill="midnightblue" stroke="midnightblue" points="177.751,-52.4116 168.239,-57.0766 178.584,-59.3619 177.751,-52.4116"/>
</g>
<!-- Node6 -->
<g id="node3" class="node"><title>Node6</title>
<g id="a_node3"><a xlink:href="struct_tomographer_1_1_tools_1_1_eigen_aligned_operator_new_provider.html" target="_top" xlink:title="Provides correct operator&#45;new implementation for Eigen types via the NeedOwnOperatorNew mechanism...">
<polygon fill="none" stroke="black" points="0,-0.5 0,-28.5 177.196,-28.5 177.196,-0.5 0,-0.5"/>
<text text-anchor="start" x="8" y="-16.5" font-family="Helvetica,sans-Serif" font-size="10.00">Tomographer::Tools</text>
<text text-anchor="middle" x="88.5981" y="-6.5" font-family="Helvetica,sans-Serif" font-size="10.00">::EigenAlignedOperatorNewProvider</text>
</a>
</g>
</g>
<!-- Node6&#45;&gt;Node4 -->
<g id="edge2" class="edge"><title>Node6&#45;&gt;Node4</title>
<path fill="none" stroke="midnightblue" d="M187.217,-26.1975C195.775,-27.223 204.425,-28.2594 212.949,-29.2809"/>
<polygon fill="midnightblue" stroke="midnightblue" points="187.571,-22.715 177.226,-25.0003 186.738,-29.6652 187.571,-22.715"/>
</g>
</g>
</svg>
