<?xml version="1.0" encoding="UTF-8" standalone="no"?>
<!DOCTYPE svg PUBLIC "-//W3C//DTD SVG 1.1//EN"
 "http://www.w3.org/Graphics/SVG/1.1/DTD/svg11.dtd">
<!-- Generated by graphviz version 2.38.0 (20140413.2041)
 -->
<!-- Title: tomographer/tools/cxxutil.h Pages: 1 -->
<svg width="661pt" height="137pt"
 viewBox="0.00 0.00 661.21 137.00" xmlns="http://www.w3.org/2000/svg" xmlns:xlink="http://www.w3.org/1999/xlink">
<g id="graph0" class="graph" transform="scale(1 1) rotate(0) translate(4 133)">
<title>tomographer/tools/cxxutil.h</title>
<!-- Node0 -->
<g id="node1" class="node"><title>Node0</title>
<polygon fill="#bfbfbf" stroke="black" points="196.365,-110.5 196.365,-128.5 331.867,-128.5 331.867,-110.5 196.365,-110.5"/>
<text text-anchor="middle" x="264.116" y="-116.5" font-family="Helvetica,sans-Serif" font-size="10.00">tomographer/tools/cxxutil.h</text>
</g>
<!-- Node1 -->
<g id="node2" class="node"><title>Node1</title>
<polygon fill="none" stroke="#bfbfbf" points="0,-55.5 0,-73.5 48.2314,-73.5 48.2314,-55.5 0,-55.5"/>
<text text-anchor="middle" x="24.1157" y="-61.5" font-family="Helvetica,sans-Serif" font-size="10.00">cassert</text>
</g>
<!-- Node0&#45;&gt;Node1 -->
<g id="edge1" class="edge"><title>Node0&#45;&gt;Node1</title>
<path fill="none" stroke="midnightblue" d="M224.326,-110.443C184.608,-102.29 121.601,-89.0592 58.03,-74.1431"/>
<polygon fill="midnightblue" stroke="midnightblue" points="58.775,-70.7229 48.2385,-71.8331 57.1676,-77.5358 58.775,-70.7229"/>
</g>
<!-- Node2 -->
<g id="node3" class="node"><title>Node2</title>
<polygon fill="none" stroke="#bfbfbf" points="65.9951,-55.5 65.9951,-73.5 114.236,-73.5 114.236,-55.5 65.9951,-55.5"/>
<text text-anchor="middle" x="90.1157" y="-61.5" font-family="Helvetica,sans-Serif" font-size="10.00">cstddef</text>
</g>
<!-- Node0&#45;&gt;Node2 -->
<g id="edge2" class="edge"><title>Node0&#45;&gt;Node2</title>
<path fill="none" stroke="midnightblue" d="M237.689,-110.45C207.275,-101.187 157.256,-85.9506 124.004,-75.8222"/>
<polygon fill="midnightblue" stroke="midnightblue" points="124.848,-72.4208 114.263,-72.8551 122.809,-79.1171 124.848,-72.4208"/>
</g>
<!-- Node3 -->
<g id="node4" class="node"><title>Node3</title>
<polygon fill="none" stroke="#bfbfbf" points="131.943,-55.5 131.943,-73.5 176.288,-73.5 176.288,-55.5 131.943,-55.5"/>
<text text-anchor="middle" x="154.116" y="-61.5" font-family="Helvetica,sans-Serif" font-size="10.00">cstdlib</text>
</g>
<!-- Node0&#45;&gt;Node3 -->
<g id="edge3" class="edge"><title>Node0&#45;&gt;Node3</title>
<path fill="none" stroke="midnightblue" d="M247.409,-110.45C229.561,-101.851 201.031,-88.1048 180.216,-78.0755"/>
<polygon fill="midnightblue" stroke="midnightblue" points="181.508,-74.8129 170.98,-73.6253 178.469,-81.1191 181.508,-74.8129"/>
</g>
<!-- Node4 -->
<g id="node5" class="node"><title>Node4</title>
<polygon fill="none" stroke="#bfbfbf" points="194.049,-55.5 194.049,-73.5 256.182,-73.5 256.182,-55.5 194.049,-55.5"/>
<text text-anchor="middle" x="225.116" y="-61.5" font-family="Helvetica,sans-Serif" font-size="10.00">type_traits</text>
</g>
<!-- Node0&#45;&gt;Node4 -->
<g id="edge4" class="edge"><title>Node0&#45;&gt;Node4</title>
<path fill="none" stroke="midnightblue" d="M258.022,-110.219C252.437,-102.629 244.009,-91.1753 237.08,-81.7597"/>
<polygon fill="midnightblue" stroke="midnightblue" points="239.785,-79.5296 231.039,-73.5496 234.147,-83.6784 239.785,-79.5296"/>
</g>
<!-- Node5 -->
<g id="node6" class="node"><title>Node5</title>
<polygon fill="none" stroke="#bfbfbf" points="273.712,-55.5 273.712,-73.5 332.52,-73.5 332.52,-55.5 273.712,-55.5"/>
<text text-anchor="middle" x="303.116" y="-61.5" font-family="Helvetica,sans-Serif" font-size="10.00">exception</text>
</g>
<!-- Node0&#45;&gt;Node5 -->
<g id="edge5" class="edge"><title>Node0&#45;&gt;Node5</title>
<path fill="none" stroke="midnightblue" d="M270.209,-110.219C275.794,-102.629 284.223,-91.1753 291.151,-81.7597"/>
<polygon fill="midnightblue" stroke="midnightblue" points="294.085,-83.6784 297.192,-73.5496 288.447,-79.5296 294.085,-83.6784"/>
</g>
<!-- Node6 -->
<g id="node7" class="node"><title>Node6</title>
<polygon fill="none" stroke="#bfbfbf" points="350.714,-55.5 350.714,-73.5 409.517,-73.5 409.517,-55.5 350.714,-55.5"/>
<text text-anchor="middle" x="380.116" y="-61.5" font-family="Helvetica,sans-Serif" font-size="10.00">stdexcept</text>
</g>
<!-- Node0&#45;&gt;Node6 -->
<g id="edge6" class="edge"><title>Node0&#45;&gt;Node6</title>
<path fill="none" stroke="midnightblue" d="M281.734,-110.45C300.726,-101.773 331.187,-87.8556 353.186,-77.8041"/>
<polygon fill="midnightblue" stroke="midnightblue" points="354.691,-80.9646 362.332,-73.6253 351.782,-74.5977 354.691,-80.9646"/>
</g>
<!-- Node7 -->
<g id="node8" class="node"><title>Node7</title>
<polygon fill="none" stroke="#bfbfbf" points="427.101,-55.5 427.101,-73.5 493.13,-73.5 493.13,-55.5 427.101,-55.5"/>
<text text-anchor="middle" x="460.116" y="-61.5" font-family="Helvetica,sans-Serif" font-size="10.00">Eigen/Core</text>
</g>
<!-- Node0&#45;&gt;Node7 -->
<g id="edge7" class="edge"><title>Node0&#45;&gt;Node7</title>
<path fill="none" stroke="midnightblue" d="M293.884,-110.45C327.655,-101.318 382.887,-86.3833 420.332,-76.2578"/>
<polygon fill="midnightblue" stroke="midnightblue" points="421.649,-79.5274 430.389,-73.5383 419.822,-72.7701 421.649,-79.5274"/>
</g>
<!-- Node8 -->
<g id="node9" class="node"><title>Node8</title>
<g id="a_node9"><a xlink:href="conststr_8h.html" target="_top" xlink:title="A constexpr string type, suitable for basic compile&#45;time string processing. ">
<polygon fill="none" stroke="black" points="511.025,-55.5 511.025,-73.5 653.207,-73.5 653.207,-55.5 511.025,-55.5"/>
<text text-anchor="middle" x="582.116" y="-61.5" font-family="Helvetica,sans-Serif" font-size="10.00">tomographer/tools/conststr.h</text>
</a>
</g>
</g>
<!-- Node0&#45;&gt;Node8 -->
<g id="edge8" class="edge"><title>Node0&#45;&gt;Node8</title>
<path fill="none" stroke="midnightblue" d="M312.413,-110.45C369.078,-101.006 462.984,-85.3553 523.696,-75.2366"/>
<polygon fill="midnightblue" stroke="midnightblue" points="524.597,-78.6348 533.886,-73.5383 523.447,-71.73 524.597,-78.6348"/>
</g>
<!-- Node9 -->
<g id="node10" class="node"><title>Node9</title>
<polygon fill="none" stroke="#bfbfbf" points="561.889,-0.5 561.889,-18.5 602.342,-18.5 602.342,-0.5 561.889,-0.5"/>
<text text-anchor="middle" x="582.116" y="-6.5" font-family="Helvetica,sans-Serif" font-size="10.00">string</text>
</g>
<!-- Node8&#45;&gt;Node9 -->
<g id="edge9" class="edge"><title>Node8&#45;&gt;Node9</title>
<path fill="none" stroke="midnightblue" d="M582.116,-55.2188C582.116,-48.1769 582.116,-37.8083 582.116,-28.8277"/>
<polygon fill="midnightblue" stroke="midnightblue" points="585.616,-28.5495 582.116,-18.5496 578.616,-28.5496 585.616,-28.5495"/>
</g>
</g>
</svg>
