<?xml version="1.0" encoding="UTF-8" standalone="no"?>
<!DOCTYPE svg PUBLIC "-//W3C//DTD SVG 1.1//EN"
 "http://www.w3.org/Graphics/SVG/1.1/DTD/svg11.dtd">
<!-- Generated by graphviz version 2.38.0 (20140413.2041)
 -->
<!-- Title: tomographer/densedm/densellh.h Pages: 1 -->
<svg width="315pt" height="102pt"
 viewBox="0.00 0.00 314.65 102.00" xmlns="http://www.w3.org/2000/svg" xmlns:xlink="http://www.w3.org/1999/xlink">
<g id="graph0" class="graph" transform="scale(1 1) rotate(0) translate(4 98)">
<title>tomographer/densedm/densellh.h</title>
<!-- Node0 -->
<g id="node1" class="node"><title>Node0</title>
<polygon fill="#bfbfbf" stroke="black" points="61.813,-65.5 61.813,-93.5 178.428,-93.5 178.428,-65.5 61.813,-65.5"/>
<text text-anchor="start" x="69.813" y="-81.5" font-family="Helvetica,sans-Serif" font-size="10.00">tomographer/densedm</text>
<text text-anchor="middle" x="120.121" y="-71.5" font-family="Helvetica,sans-Serif" font-size="10.00">/densellh.h</text>
</g>
<!-- Node1 -->
<g id="node2" class="node"><title>Node1</title>
<polygon fill="none" stroke="#bfbfbf" points="0,-5.5 0,-23.5 48.2412,-23.5 48.2412,-5.5 0,-5.5"/>
<text text-anchor="middle" x="24.1206" y="-11.5" font-family="Helvetica,sans-Serif" font-size="10.00">cstddef</text>
</g>
<!-- Node0&#45;&gt;Node1 -->
<g id="edge1" class="edge"><title>Node0&#45;&gt;Node1</title>
<path fill="none" stroke="midnightblue" d="M100.229,-65.4464C84.0108,-54.8029 61.1817,-39.8214 44.7633,-29.0468"/>
<polygon fill="midnightblue" stroke="midnightblue" points="46.665,-26.1084 36.3842,-23.548 42.8244,-31.9608 46.665,-26.1084"/>
</g>
<!-- Node2 -->
<g id="node3" class="node"><title>Node2</title>
<polygon fill="none" stroke="#bfbfbf" points="66.5049,-5.5 66.5049,-23.5 109.736,-23.5 109.736,-5.5 66.5049,-5.5"/>
<text text-anchor="middle" x="88.1206" y="-11.5" font-family="Helvetica,sans-Serif" font-size="10.00">cmath</text>
</g>
<!-- Node0&#45;&gt;Node2 -->
<g id="edge2" class="edge"><title>Node0&#45;&gt;Node2</title>
<path fill="none" stroke="midnightblue" d="M113.49,-65.4464C108.712,-56.0396 102.213,-43.2442 96.9889,-32.9595"/>
<polygon fill="midnightblue" stroke="midnightblue" points="99.9502,-31.0608 92.301,-23.7301 93.7091,-34.2309 99.9502,-31.0608"/>
</g>
<!-- Node3 -->
<g id="node4" class="node"><title>Node3</title>
<polygon fill="none" stroke="#bfbfbf" points="128.167,-5.5 128.167,-23.5 178.074,-23.5 178.074,-5.5 128.167,-5.5"/>
<text text-anchor="middle" x="153.121" y="-11.5" font-family="Helvetica,sans-Serif" font-size="10.00">random</text>
</g>
<!-- Node0&#45;&gt;Node3 -->
<g id="edge3" class="edge"><title>Node0&#45;&gt;Node3</title>
<path fill="none" stroke="midnightblue" d="M126.958,-65.4464C131.937,-55.9416 138.728,-42.9773 144.143,-32.6389"/>
<polygon fill="midnightblue" stroke="midnightblue" points="147.27,-34.2125 148.81,-23.7301 141.069,-30.9644 147.27,-34.2125"/>
</g>
<!-- Node4 -->
<g id="node5" class="node"><title>Node4</title>
<polygon fill="none" stroke="#bfbfbf" points="195.594,-0.5 195.594,-28.5 306.647,-28.5 306.647,-0.5 195.594,-0.5"/>
<text text-anchor="start" x="203.594" y="-16.5" font-family="Helvetica,sans-Serif" font-size="10.00">boost/math/constants</text>
<text text-anchor="middle" x="251.121" y="-6.5" font-family="Helvetica,sans-Serif" font-size="10.00">/constants.hpp</text>
</g>
<!-- Node0&#45;&gt;Node4 -->
<g id="edge4" class="edge"><title>Node0&#45;&gt;Node4</title>
<path fill="none" stroke="midnightblue" d="M147.264,-65.4464C166.849,-56.0278 193.497,-43.212 214.897,-32.9207"/>
<polygon fill="midnightblue" stroke="midnightblue" points="216.517,-36.0252 224.012,-28.5369 213.483,-29.7168 216.517,-36.0252"/>
</g>
</g>
</svg>
