<?xml version="1.0" encoding="UTF-8" standalone="no"?>
<!DOCTYPE svg PUBLIC "-//W3C//DTD SVG 1.1//EN"
 "http://www.w3.org/Graphics/SVG/1.1/DTD/svg11.dtd">
<!-- Generated by graphviz version 2.38.0 (20140413.2041)
 -->
<!-- Title: tomographer/densedm/dmtypes.h Pages: 1 -->
<svg width="661pt" height="202pt"
 viewBox="0.00 0.00 661.21 202.00" xmlns="http://www.w3.org/2000/svg" xmlns:xlink="http://www.w3.org/1999/xlink">
<g id="graph0" class="graph" transform="scale(1 1) rotate(0) translate(4 198)">
<title>tomographer/densedm/dmtypes.h</title>
<!-- Node0 -->
<g id="node1" class="node"><title>Node0</title>
<polygon fill="#bfbfbf" stroke="black" points="98.813,-165.5 98.813,-193.5 215.428,-193.5 215.428,-165.5 98.813,-165.5"/>
<text text-anchor="start" x="106.813" y="-181.5" font-family="Helvetica,sans-Serif" font-size="10.00">tomographer/densedm</text>
<text text-anchor="middle" x="157.121" y="-171.5" font-family="Helvetica,sans-Serif" font-size="10.00">/dmtypes.h</text>
</g>
<!-- Node1 -->
<g id="node2" class="node"><title>Node1</title>
<polygon fill="none" stroke="#bfbfbf" points="0,-55.5 0,-73.5 48.2412,-73.5 48.2412,-55.5 0,-55.5"/>
<text text-anchor="middle" x="24.1206" y="-61.5" font-family="Helvetica,sans-Serif" font-size="10.00">cstddef</text>
</g>
<!-- Node0&#45;&gt;Node1 -->
<g id="edge1" class="edge"><title>Node0&#45;&gt;Node1</title>
<path fill="none" stroke="midnightblue" d="M141.604,-165.316C116.609,-144.08 67.5984,-102.44 41.4779,-80.2472"/>
<polygon fill="midnightblue" stroke="midnightblue" points="43.4519,-77.3317 33.5649,-73.5241 38.9195,-82.6662 43.4519,-77.3317"/>
</g>
<!-- Node2 -->
<g id="node3" class="node"><title>Node2</title>
<polygon fill="none" stroke="#bfbfbf" points="66.0049,-55.5 66.0049,-73.5 114.236,-73.5 114.236,-55.5 66.0049,-55.5"/>
<text text-anchor="middle" x="90.1206" y="-61.5" font-family="Helvetica,sans-Serif" font-size="10.00">cassert</text>
</g>
<!-- Node0&#45;&gt;Node2 -->
<g id="edge2" class="edge"><title>Node0&#45;&gt;Node2</title>
<path fill="none" stroke="midnightblue" d="M149.172,-165.094C136.973,-144.52 113.645,-105.176 100.251,-82.5853"/>
<polygon fill="midnightblue" stroke="midnightblue" points="103.136,-80.5886 95.0252,-73.772 97.1148,-84.1587 103.136,-80.5886"/>
</g>
<!-- Node3 -->
<g id="node4" class="node"><title>Node3</title>
<polygon fill="none" stroke="#bfbfbf" points="301.155,-110.5 301.155,-128.5 371.086,-128.5 371.086,-110.5 301.155,-110.5"/>
<text text-anchor="middle" x="336.121" y="-116.5" font-family="Helvetica,sans-Serif" font-size="10.00">Eigen/Eigen</text>
</g>
<!-- Node0&#45;&gt;Node3 -->
<g id="edge3" class="edge"><title>Node0&#45;&gt;Node3</title>
<path fill="none" stroke="midnightblue" d="M197.292,-165.484C228.686,-155.311 271.856,-141.323 301.682,-131.659"/>
<polygon fill="midnightblue" stroke="midnightblue" points="302.816,-134.971 311.25,-128.559 300.658,-128.312 302.816,-134.971"/>
</g>
<!-- Node4 -->
<g id="node5" class="node"><title>Node4</title>
<g id="a_node5"><a xlink:href="cxxutil_8h.html" target="_top" xlink:title="Some C++ utilities, with a tad of C++11 tricks. ">
<polygon fill="none" stroke="black" points="147.37,-110.5 147.37,-128.5 282.872,-128.5 282.872,-110.5 147.37,-110.5"/>
<text text-anchor="middle" x="215.121" y="-116.5" font-family="Helvetica,sans-Serif" font-size="10.00">tomographer/tools/cxxutil.h</text>
</a>
</g>
</g>
<!-- Node0&#45;&gt;Node4 -->
<g id="edge4" class="edge"><title>Node0&#45;&gt;Node4</title>
<path fill="none" stroke="midnightblue" d="M170.282,-165.339C178.967,-156.653 190.388,-145.233 199.529,-136.092"/>
<polygon fill="midnightblue" stroke="midnightblue" points="202.253,-138.317 206.849,-128.771 197.303,-133.368 202.253,-138.317"/>
</g>
<!-- Node4&#45;&gt;Node1 -->
<g id="edge6" class="edge"><title>Node4&#45;&gt;Node1</title>
<path fill="none" stroke="midnightblue" d="M186.112,-110.45C151.676,-100.895 94.342,-84.9855 57.9282,-74.8812"/>
<polygon fill="midnightblue" stroke="midnightblue" points="58.8206,-71.4966 48.2489,-72.1953 56.9489,-78.2418 58.8206,-71.4966"/>
</g>
<!-- Node4&#45;&gt;Node2 -->
<g id="edge5" class="edge"><title>Node4&#45;&gt;Node2</title>
<path fill="none" stroke="midnightblue" d="M196.136,-110.45C175.486,-101.695 142.256,-87.6055 118.504,-77.5346"/>
<polygon fill="midnightblue" stroke="midnightblue" points="119.857,-74.3067 109.284,-73.6253 117.124,-80.7513 119.857,-74.3067"/>
</g>
<!-- Node5 -->
<g id="node6" class="node"><title>Node5</title>
<polygon fill="none" stroke="#bfbfbf" points="131.948,-55.5 131.948,-73.5 176.293,-73.5 176.293,-55.5 131.948,-55.5"/>
<text text-anchor="middle" x="154.121" y="-61.5" font-family="Helvetica,sans-Serif" font-size="10.00">cstdlib</text>
</g>
<!-- Node4&#45;&gt;Node5 -->
<g id="edge7" class="edge"><title>Node4&#45;&gt;Node5</title>
<path fill="none" stroke="midnightblue" d="M205.856,-110.45C196.72,-102.512 182.536,-90.1891 171.329,-80.4519"/>
<polygon fill="midnightblue" stroke="midnightblue" points="173.317,-77.542 163.472,-73.6253 168.726,-82.8261 173.317,-77.542"/>
</g>
<!-- Node6 -->
<g id="node7" class="node"><title>Node6</title>
<polygon fill="none" stroke="#bfbfbf" points="194.054,-55.5 194.054,-73.5 256.187,-73.5 256.187,-55.5 194.054,-55.5"/>
<text text-anchor="middle" x="225.121" y="-61.5" font-family="Helvetica,sans-Serif" font-size="10.00">type_traits</text>
</g>
<!-- Node4&#45;&gt;Node6 -->
<g id="edge8" class="edge"><title>Node4&#45;&gt;Node6</title>
<path fill="none" stroke="midnightblue" d="M216.683,-110.219C218.027,-103.099 220.012,-92.5775 221.719,-83.5289"/>
<polygon fill="midnightblue" stroke="midnightblue" points="225.187,-84.0251 223.602,-73.5496 218.308,-82.7272 225.187,-84.0251"/>
</g>
<!-- Node7 -->
<g id="node8" class="node"><title>Node7</title>
<polygon fill="none" stroke="#bfbfbf" points="273.717,-55.5 273.717,-73.5 332.524,-73.5 332.524,-55.5 273.717,-55.5"/>
<text text-anchor="middle" x="303.121" y="-61.5" font-family="Helvetica,sans-Serif" font-size="10.00">exception</text>
</g>
<!-- Node4&#45;&gt;Node7 -->
<g id="edge9" class="edge"><title>Node4&#45;&gt;Node7</title>
<path fill="none" stroke="midnightblue" d="M228.486,-110.45C242.312,-102.123 264.151,-88.9704 280.64,-79.0394"/>
<polygon fill="midnightblue" stroke="midnightblue" points="282.869,-81.7828 289.63,-73.6253 279.257,-75.7864 282.869,-81.7828"/>
</g>
<!-- Node8 -->
<g id="node9" class="node"><title>Node8</title>
<polygon fill="none" stroke="#bfbfbf" points="350.719,-55.5 350.719,-73.5 409.522,-73.5 409.522,-55.5 350.719,-55.5"/>
<text text-anchor="middle" x="380.121" y="-61.5" font-family="Helvetica,sans-Serif" font-size="10.00">stdexcept</text>
</g>
<!-- Node4&#45;&gt;Node8 -->
<g id="edge10" class="edge"><title>Node4&#45;&gt;Node8</title>
<path fill="none" stroke="midnightblue" d="M240.181,-110.45C268.246,-101.436 313.917,-86.7653 345.409,-76.6496"/>
<polygon fill="midnightblue" stroke="midnightblue" points="346.645,-79.9289 355.096,-73.5383 344.504,-73.2643 346.645,-79.9289"/>
</g>
<!-- Node9 -->
<g id="node10" class="node"><title>Node9</title>
<polygon fill="none" stroke="#bfbfbf" points="427.106,-55.5 427.106,-73.5 493.135,-73.5 493.135,-55.5 427.106,-55.5"/>
<text text-anchor="middle" x="460.121" y="-61.5" font-family="Helvetica,sans-Serif" font-size="10.00">Eigen/Core</text>
</g>
<!-- Node4&#45;&gt;Node9 -->
<g id="edge11" class="edge"><title>Node4&#45;&gt;Node9</title>
<path fill="none" stroke="midnightblue" d="M252.331,-110.45C296.604,-100.873 370.383,-84.9126 417.075,-74.8118"/>
<polygon fill="midnightblue" stroke="midnightblue" points="417.86,-78.2232 426.894,-72.6879 416.38,-71.3814 417.86,-78.2232"/>
</g>
<!-- Node10 -->
<g id="node11" class="node"><title>Node10</title>
<g id="a_node11"><a xlink:href="conststr_8h.html" target="_top" xlink:title="A constexpr string type, suitable for basic compile&#45;time string processing. ">
<polygon fill="none" stroke="black" points="511.03,-55.5 511.03,-73.5 653.211,-73.5 653.211,-55.5 511.03,-55.5"/>
<text text-anchor="middle" x="582.121" y="-61.5" font-family="Helvetica,sans-Serif" font-size="10.00">tomographer/tools/conststr.h</text>
</a>
</g>
</g>
<!-- Node4&#45;&gt;Node10 -->
<g id="edge12" class="edge"><title>Node4&#45;&gt;Node10</title>
<path fill="none" stroke="midnightblue" d="M270.86,-110.45C336.797,-100.928 446.426,-85.0962 516.428,-74.9869"/>
<polygon fill="midnightblue" stroke="midnightblue" points="517.062,-78.4318 526.459,-73.5383 516.061,-71.5036 517.062,-78.4318"/>
</g>
<!-- Node11 -->
<g id="node12" class="node"><title>Node11</title>
<polygon fill="none" stroke="#bfbfbf" points="561.894,-0.5 561.894,-18.5 602.347,-18.5 602.347,-0.5 561.894,-0.5"/>
<text text-anchor="middle" x="582.121" y="-6.5" font-family="Helvetica,sans-Serif" font-size="10.00">string</text>
</g>
<!-- Node10&#45;&gt;Node11 -->
<g id="edge13" class="edge"><title>Node10&#45;&gt;Node11</title>
<path fill="none" stroke="midnightblue" d="M582.121,-55.2188C582.121,-48.1769 582.121,-37.8083 582.121,-28.8277"/>
<polygon fill="midnightblue" stroke="midnightblue" points="585.621,-28.5495 582.121,-18.5496 578.621,-28.5496 585.621,-28.5495"/>
</g>
</g>
</svg>
