<?xml version="1.0" encoding="UTF-8" standalone="no"?>
<!DOCTYPE svg PUBLIC "-//W3C//DTD SVG 1.1//EN"
 "http://www.w3.org/Graphics/SVG/1.1/DTD/svg11.dtd">
<!-- Generated by graphviz version 2.38.0 (20140413.2041)
 -->
<!-- Title: tomographer/tools/fmt.h Pages: 1 -->
<svg width="890pt" height="192pt"
 viewBox="0.00 0.00 890.15 192.00" xmlns="http://www.w3.org/2000/svg" xmlns:xlink="http://www.w3.org/1999/xlink">
<g id="graph0" class="graph" transform="scale(1 1) rotate(0) translate(4 188)">
<title>tomographer/tools/fmt.h</title>
<!-- Node0 -->
<g id="node1" class="node"><title>Node0</title>
<polygon fill="#bfbfbf" stroke="black" points="167.259,-165.5 167.259,-183.5 288.864,-183.5 288.864,-165.5 167.259,-165.5"/>
<text text-anchor="middle" x="228.062" y="-171.5" font-family="Helvetica,sans-Serif" font-size="10.00">tomographer/tools/fmt.h</text>
</g>
<!-- Node1 -->
<g id="node2" class="node"><title>Node1</title>
<polygon fill="none" stroke="#bfbfbf" points="0,-110.5 0,-128.5 42.123,-128.5 42.123,-110.5 0,-110.5"/>
<text text-anchor="middle" x="21.0615" y="-116.5" font-family="Helvetica,sans-Serif" font-size="10.00">cstdio</text>
</g>
<!-- Node0&#45;&gt;Node1 -->
<g id="edge1" class="edge"><title>Node0&#45;&gt;Node1</title>
<path fill="none" stroke="midnightblue" d="M194.71,-165.429C161.09,-157.224 107.468,-143.95 52.2958,-129.273"/>
<polygon fill="midnightblue" stroke="midnightblue" points="52.9097,-125.814 42.3452,-126.615 51.1032,-132.577 52.9097,-125.814"/>
</g>
<!-- Node2 -->
<g id="node3" class="node"><title>Node2</title>
<polygon fill="none" stroke="#bfbfbf" points="59.665,-110.5 59.665,-128.5 108.458,-128.5 108.458,-110.5 59.665,-110.5"/>
<text text-anchor="middle" x="84.0615" y="-116.5" font-family="Helvetica,sans-Serif" font-size="10.00">cstdarg</text>
</g>
<!-- Node0&#45;&gt;Node2 -->
<g id="edge2" class="edge"><title>Node0&#45;&gt;Node2</title>
<path fill="none" stroke="midnightblue" d="M206.191,-165.45C182.086,-156.578 143.098,-142.229 115.671,-132.134"/>
<polygon fill="midnightblue" stroke="midnightblue" points="116.731,-128.795 106.138,-128.625 114.313,-135.364 116.731,-128.795"/>
</g>
<!-- Node3 -->
<g id="node4" class="node"><title>Node3</title>
<polygon fill="none" stroke="#bfbfbf" points="126.773,-110.5 126.773,-128.5 173.35,-128.5 173.35,-110.5 126.773,-110.5"/>
<text text-anchor="middle" x="150.062" y="-116.5" font-family="Helvetica,sans-Serif" font-size="10.00">chrono</text>
</g>
<!-- Node0&#45;&gt;Node3 -->
<g id="edge3" class="edge"><title>Node0&#45;&gt;Node3</title>
<path fill="none" stroke="midnightblue" d="M216.215,-165.45C204.074,-157.201 184.964,-144.216 170.398,-134.319"/>
<polygon fill="midnightblue" stroke="midnightblue" points="172.258,-131.351 162.02,-128.625 168.324,-137.14 172.258,-131.351"/>
</g>
<!-- Node4 -->
<g id="node5" class="node"><title>Node4</title>
<polygon fill="none" stroke="#bfbfbf" points="485.835,-0.5 485.835,-18.5 526.288,-18.5 526.288,-0.5 485.835,-0.5"/>
<text text-anchor="middle" x="506.062" y="-6.5" font-family="Helvetica,sans-Serif" font-size="10.00">string</text>
</g>
<!-- Node0&#45;&gt;Node4 -->
<g id="edge4" class="edge"><title>Node0&#45;&gt;Node4</title>
<path fill="none" stroke="midnightblue" d="M224.103,-165.397C214.449,-144.334 192.431,-87.2619 220.062,-55 252.65,-16.9485 407.986,-11.1762 475.081,-10.4838"/>
<polygon fill="midnightblue" stroke="midnightblue" points="475.455,-13.9813 485.43,-10.4107 475.405,-6.98149 475.455,-13.9813"/>
</g>
<!-- Node5 -->
<g id="node6" class="node"><title>Node5</title>
<polygon fill="none" stroke="#bfbfbf" points="229.281,-110.5 229.281,-128.5 280.842,-128.5 280.842,-110.5 229.281,-110.5"/>
<text text-anchor="middle" x="255.062" y="-116.5" font-family="Helvetica,sans-Serif" font-size="10.00">sstream</text>
</g>
<!-- Node0&#45;&gt;Node5 -->
<g id="edge5" class="edge"><title>Node0&#45;&gt;Node5</title>
<path fill="none" stroke="midnightblue" d="M232.28,-165.219C236.027,-157.864 241.623,-146.88 246.33,-137.639"/>
<polygon fill="midnightblue" stroke="midnightblue" points="249.54,-139.049 250.961,-128.55 243.303,-135.871 249.54,-139.049"/>
</g>
<!-- Node6 -->
<g id="node7" class="node"><title>Node6</title>
<polygon fill="none" stroke="#bfbfbf" points="298.889,-110.5 298.889,-128.5 353.234,-128.5 353.234,-110.5 298.889,-110.5"/>
<text text-anchor="middle" x="326.062" y="-116.5" font-family="Helvetica,sans-Serif" font-size="10.00">iostream</text>
</g>
<!-- Node0&#45;&gt;Node6 -->
<g id="edge6" class="edge"><title>Node0&#45;&gt;Node6</title>
<path fill="none" stroke="midnightblue" d="M242.946,-165.45C258.631,-156.968 283.576,-143.477 302.05,-133.486"/>
<polygon fill="midnightblue" stroke="midnightblue" points="303.906,-136.461 311.037,-128.625 300.576,-130.304 303.906,-136.461"/>
</g>
<!-- Node7 -->
<g id="node8" class="node"><title>Node7</title>
<polygon fill="none" stroke="#bfbfbf" points="371.67,-110.5 371.67,-128.5 410.453,-128.5 410.453,-110.5 371.67,-110.5"/>
<text text-anchor="middle" x="391.062" y="-116.5" font-family="Helvetica,sans-Serif" font-size="10.00">utility</text>
</g>
<!-- Node0&#45;&gt;Node7 -->
<g id="edge7" class="edge"><title>Node0&#45;&gt;Node7</title>
<path fill="none" stroke="midnightblue" d="M252.818,-165.45C281.943,-155.98 330.262,-140.269 361.374,-130.153"/>
<polygon fill="midnightblue" stroke="midnightblue" points="362.784,-133.375 371.212,-126.954 360.62,-126.718 362.784,-133.375"/>
</g>
<!-- Node8 -->
<g id="node9" class="node"><title>Node8</title>
<g id="a_node9"><a xlink:href="cxxutil_8h.html" target="_top" xlink:title="Some C++ utilities, with a tad of C++11 tricks. ">
<polygon fill="none" stroke="black" points="428.311,-110.5 428.311,-128.5 563.812,-128.5 563.812,-110.5 428.311,-110.5"/>
<text text-anchor="middle" x="496.062" y="-116.5" font-family="Helvetica,sans-Serif" font-size="10.00">tomographer/tools/cxxutil.h</text>
</a>
</g>
</g>
<!-- Node0&#45;&gt;Node8 -->
<g id="edge8" class="edge"><title>Node0&#45;&gt;Node8</title>
<path fill="none" stroke="midnightblue" d="M268.765,-165.45C316.126,-156.084 394.355,-140.614 445.553,-130.489"/>
<polygon fill="midnightblue" stroke="midnightblue" points="446.284,-133.912 455.415,-128.538 444.926,-127.045 446.284,-133.912"/>
</g>
<!-- Node9 -->
<g id="node10" class="node"><title>Node9</title>
<polygon fill="none" stroke="#bfbfbf" points="228.946,-55.5 228.946,-73.5 277.177,-73.5 277.177,-55.5 228.946,-55.5"/>
<text text-anchor="middle" x="253.062" y="-61.5" font-family="Helvetica,sans-Serif" font-size="10.00">cassert</text>
</g>
<!-- Node8&#45;&gt;Node9 -->
<g id="edge9" class="edge"><title>Node8&#45;&gt;Node9</title>
<path fill="none" stroke="midnightblue" d="M455.688,-110.485C415.39,-102.365 351.465,-89.1598 287.096,-74.1644"/>
<polygon fill="midnightblue" stroke="midnightblue" points="287.717,-70.7153 277.182,-71.8413 286.12,-77.5306 287.717,-70.7153"/>
</g>
<!-- Node10 -->
<g id="node11" class="node"><title>Node10</title>
<polygon fill="none" stroke="#bfbfbf" points="294.941,-55.5 294.941,-73.5 343.182,-73.5 343.182,-55.5 294.941,-55.5"/>
<text text-anchor="middle" x="319.062" y="-61.5" font-family="Helvetica,sans-Serif" font-size="10.00">cstddef</text>
</g>
<!-- Node8&#45;&gt;Node10 -->
<g id="edge10" class="edge"><title>Node8&#45;&gt;Node10</title>
<path fill="none" stroke="midnightblue" d="M469.179,-110.45C438.153,-101.16 387.071,-85.8643 353.247,-75.7362"/>
<polygon fill="midnightblue" stroke="midnightblue" points="353.929,-72.287 343.345,-72.7713 351.921,-78.9928 353.929,-72.287"/>
</g>
<!-- Node11 -->
<g id="node12" class="node"><title>Node11</title>
<polygon fill="none" stroke="#bfbfbf" points="360.889,-55.5 360.889,-73.5 405.234,-73.5 405.234,-55.5 360.889,-55.5"/>
<text text-anchor="middle" x="383.062" y="-61.5" font-family="Helvetica,sans-Serif" font-size="10.00">cstdlib</text>
</g>
<!-- Node8&#45;&gt;Node11 -->
<g id="edge11" class="edge"><title>Node8&#45;&gt;Node11</title>
<path fill="none" stroke="midnightblue" d="M478.899,-110.45C460.481,-101.812 430.991,-87.9803 409.584,-77.9396"/>
<polygon fill="midnightblue" stroke="midnightblue" points="410.925,-74.703 400.385,-73.6253 407.953,-81.0405 410.925,-74.703"/>
</g>
<!-- Node12 -->
<g id="node13" class="node"><title>Node12</title>
<polygon fill="none" stroke="#bfbfbf" points="422.995,-55.5 422.995,-73.5 485.128,-73.5 485.128,-55.5 422.995,-55.5"/>
<text text-anchor="middle" x="454.062" y="-61.5" font-family="Helvetica,sans-Serif" font-size="10.00">type_traits</text>
</g>
<!-- Node8&#45;&gt;Node12 -->
<g id="edge12" class="edge"><title>Node8&#45;&gt;Node12</title>
<path fill="none" stroke="midnightblue" d="M489.499,-110.219C483.423,-102.551 474.22,-90.9387 466.716,-81.4691"/>
<polygon fill="midnightblue" stroke="midnightblue" points="469.394,-79.2132 460.44,-73.5496 463.908,-83.5608 469.394,-79.2132"/>
</g>
<!-- Node13 -->
<g id="node14" class="node"><title>Node13</title>
<polygon fill="none" stroke="#bfbfbf" points="502.658,-55.5 502.658,-73.5 561.465,-73.5 561.465,-55.5 502.658,-55.5"/>
<text text-anchor="middle" x="532.062" y="-61.5" font-family="Helvetica,sans-Serif" font-size="10.00">exception</text>
</g>
<!-- Node8&#45;&gt;Node13 -->
<g id="edge13" class="edge"><title>Node8&#45;&gt;Node13</title>
<path fill="none" stroke="midnightblue" d="M501.687,-110.219C506.789,-102.707 514.462,-91.411 520.819,-82.0515"/>
<polygon fill="midnightblue" stroke="midnightblue" points="523.87,-83.7883 526.594,-73.5496 518.08,-79.8551 523.87,-83.7883"/>
</g>
<!-- Node14 -->
<g id="node15" class="node"><title>Node14</title>
<polygon fill="none" stroke="#bfbfbf" points="579.66,-55.5 579.66,-73.5 638.463,-73.5 638.463,-55.5 579.66,-55.5"/>
<text text-anchor="middle" x="609.062" y="-61.5" font-family="Helvetica,sans-Serif" font-size="10.00">stdexcept</text>
</g>
<!-- Node8&#45;&gt;Node14 -->
<g id="edge14" class="edge"><title>Node8&#45;&gt;Node14</title>
<path fill="none" stroke="midnightblue" d="M513.224,-110.45C531.642,-101.812 561.132,-87.9803 582.539,-77.9396"/>
<polygon fill="midnightblue" stroke="midnightblue" points="584.17,-81.0405 591.738,-73.6253 581.198,-74.703 584.17,-81.0405"/>
</g>
<!-- Node15 -->
<g id="node16" class="node"><title>Node15</title>
<polygon fill="none" stroke="#bfbfbf" points="656.047,-55.5 656.047,-73.5 722.076,-73.5 722.076,-55.5 656.047,-55.5"/>
<text text-anchor="middle" x="689.062" y="-61.5" font-family="Helvetica,sans-Serif" font-size="10.00">Eigen/Core</text>
</g>
<!-- Node8&#45;&gt;Node15 -->
<g id="edge15" class="edge"><title>Node8&#45;&gt;Node15</title>
<path fill="none" stroke="midnightblue" d="M525.374,-110.45C558.628,-101.318 613.015,-86.3833 649.887,-76.2578"/>
<polygon fill="midnightblue" stroke="midnightblue" points="651.074,-79.5615 659.79,-73.5383 649.22,-72.8114 651.074,-79.5615"/>
</g>
<!-- Node16 -->
<g id="node17" class="node"><title>Node16</title>
<g id="a_node17"><a xlink:href="conststr_8h.html" target="_top" xlink:title="A constexpr string type, suitable for basic compile&#45;time string processing. ">
<polygon fill="none" stroke="black" points="739.971,-55.5 739.971,-73.5 882.152,-73.5 882.152,-55.5 739.971,-55.5"/>
<text text-anchor="middle" x="811.062" y="-61.5" font-family="Helvetica,sans-Serif" font-size="10.00">tomographer/tools/conststr.h</text>
</a>
</g>
</g>
<!-- Node8&#45;&gt;Node16 -->
<g id="edge16" class="edge"><title>Node8&#45;&gt;Node16</title>
<path fill="none" stroke="midnightblue" d="M543.903,-110.45C600.034,-101.006 693.054,-85.3553 753.193,-75.2366"/>
<polygon fill="midnightblue" stroke="midnightblue" points="754.006,-78.6491 763.287,-73.5383 752.845,-71.7461 754.006,-78.6491"/>
</g>
<!-- Node16&#45;&gt;Node4 -->
<g id="edge17" class="edge"><title>Node16&#45;&gt;Node4</title>
<path fill="none" stroke="midnightblue" d="M764.739,-55.4504C701.465,-44.4554 589.78,-25.0478 536.282,-15.7513"/>
<polygon fill="midnightblue" stroke="midnightblue" points="536.841,-12.2962 526.389,-14.0324 535.642,-19.1928 536.841,-12.2962"/>
</g>
</g>
</svg>
