<?xml version="1.0" encoding="UTF-8" standalone="no"?>
<!DOCTYPE svg PUBLIC "-//W3C//DTD SVG 1.1//EN"
 "http://www.w3.org/Graphics/SVG/1.1/DTD/svg11.dtd">
<!-- Generated by graphviz version 2.38.0 (20140413.2041)
 -->
<!-- Title: tomographer/mhrw.h Pages: 1 -->
<!--zoomable 377 -->
<svg id="main" version="1.1" xmlns="http://www.w3.org/2000/svg" xmlns:xlink="http://www.w3.org/1999/xlink" xml:space="preserve" onload="init(evt)">
<style type="text/css"><![CDATA[
.edge:hover path { stroke: red; }
.edge:hover polygon { stroke: red; fill: red; }
]]></style>
<script type="text/javascript"><![CDATA[
var edges = document.getElementsByTagName('g');
if (edges && edges.length) {
  for (var i=0;i<edges.length;i++) {
    if (edges[i].id.substr(0,4)=='edge') {
      edges[i].setAttribute('class','edge');
    }
  }
}
]]></script>
        <defs>
                <circle id="rim" cx="0" cy="0" r="7"/>
                <circle id="rim2" cx="0" cy="0" r="3.5"/>
                <g id="zoomPlus">
                        <use xlink:href="#rim" fill="#404040">
                                <set attributeName="fill" to="#808080" begin="zoomplus.mouseover" end="zoomplus.mouseout"/>
                        </use>
                        <path d="M-4,0h8M0,-4v8" fill="none" stroke="white" stroke-width="1.5" pointer-events="none"/>
                </g>
                <g id="zoomMin">
                        <use xlink:href="#rim" fill="#404040">
                                <set attributeName="fill" to="#808080" begin="zoomminus.mouseover" end="zoomminus.mouseout"/>
                        </use>
                        <path d="M-4,0h8" fill="none" stroke="white" stroke-width="1.5" pointer-events="none"/>
                </g>
                <g id="dirArrow">
                        <path fill="none" stroke="white" stroke-width="1.5" d="M0,-3.0v7 M-2.5,-0.5L0,-3.0L2.5,-0.5"/>
                </g>
               <g id="resetDef">
                       <use xlink:href="#rim2" fill="#404040">
                               <set attributeName="fill" to="#808080" begin="reset.mouseover" end="reset.mouseout"/>
                       </use>
               </g>
        </defs>

<script type="text/javascript">
var viewWidth = 1339;
var viewHeight = 377;
var sectionId = 'dynsection-0';
</script>
<script xlink:href="svgpan.js"/>
<svg id="graph" class="graph">
<g id="viewport">
<title>tomographer/mhrw.h</title>
<!-- Node0 -->
<g id="node1" class="node"><title>Node0</title>
<polygon fill="#bfbfbf" stroke="black" points="598.264,-350.5 598.264,-368.5 705.978,-368.5 705.978,-350.5 598.264,-350.5"/>
<text text-anchor="middle" x="652.121" y="-356.5" font-family="Helvetica,sans-Serif" font-size="10.00">tomographer/mhrw.h</text>
</g>
<!-- Node1 -->
<g id="node2" class="node"><title>Node1</title>
<polygon fill="none" stroke="#bfbfbf" points="0,-55.5 0,-73.5 48.2412,-73.5 48.2412,-55.5 0,-55.5"/>
<text text-anchor="middle" x="24.1206" y="-61.5" font-family="Helvetica,sans-Serif" font-size="10.00">cstddef</text>
</g>
<!-- Node0&#45;&gt;Node1 -->
<g id="edge1" class="edge"><title>Node0&#45;&gt;Node1</title>
<path fill="none" stroke="midnightblue" d="M598.034,-359.316C445.704,-360.172 24.1206,-352.015 24.1206,-235.5 24.1206,-235.5 24.1206,-235.5 24.1206,-173.5 24.1206,-142.018 24.1206,-105.373 24.1206,-83.881"/>
<polygon fill="midnightblue" stroke="midnightblue" points="27.6207,-83.6288 24.1206,-73.6289 20.6207,-83.6289 27.6207,-83.6288"/>
</g>
<!-- Node2 -->
<g id="node3" class="node"><title>Node2</title>
<polygon fill="none" stroke="#bfbfbf" points="717.734,-290.5 717.734,-308.5 756.507,-308.5 756.507,-290.5 717.734,-290.5"/>
<text text-anchor="middle" x="737.121" y="-296.5" font-family="Helvetica,sans-Serif" font-size="10.00">limits</text>
</g>
<!-- Node0&#45;&gt;Node2 -->
<g id="edge2" class="edge"><title>Node0&#45;&gt;Node2</title>
<path fill="none" stroke="midnightblue" d="M663.939,-350.435C677.565,-341.138 700.198,-325.694 716.692,-314.439"/>
<polygon fill="midnightblue" stroke="midnightblue" points="718.841,-317.211 725.128,-308.683 714.895,-311.428 718.841,-317.211"/>
</g>
<!-- Node3 -->
<g id="node4" class="node"><title>Node3</title>
<polygon fill="none" stroke="#bfbfbf" points="774.167,-290.5 774.167,-308.5 824.074,-308.5 824.074,-290.5 774.167,-290.5"/>
<text text-anchor="middle" x="799.121" y="-296.5" font-family="Helvetica,sans-Serif" font-size="10.00">random</text>
</g>
<!-- Node0&#45;&gt;Node3 -->
<g id="edge3" class="edge"><title>Node0&#45;&gt;Node3</title>
<path fill="none" stroke="midnightblue" d="M672.541,-350.478C695.178,-341.581 732.769,-326.793 765.121,-314 766.523,-313.445 767.958,-312.877 769.408,-312.303"/>
<polygon fill="midnightblue" stroke="midnightblue" points="770.983,-315.444 778.988,-308.504 768.402,-308.937 770.983,-315.444"/>
</g>
<!-- Node4 -->
<g id="node5" class="node"><title>Node4</title>
<polygon fill="none" stroke="#bfbfbf" points="841.611,-290.5 841.611,-308.5 892.63,-308.5 892.63,-290.5 841.611,-290.5"/>
<text text-anchor="middle" x="867.121" y="-296.5" font-family="Helvetica,sans-Serif" font-size="10.00">iomanip</text>
</g>
<!-- Node0&#45;&gt;Node4 -->
<g id="edge4" class="edge"><title>Node0&#45;&gt;Node4</title>
<path fill="none" stroke="midnightblue" d="M691.389,-350.473C728.345,-342.537 785.039,-329.377 833.121,-314 834.981,-313.405 836.885,-312.758 838.795,-312.081"/>
<polygon fill="midnightblue" stroke="midnightblue" points="840.098,-315.33 848.226,-308.533 837.634,-308.778 840.098,-315.33"/>
</g>
<!-- Node5 -->
<g id="node6" class="node"><title>Node5</title>
<g id="a_node6"><a xlink:href="loggers_8h.html" target="_top" xlink:title="Utilities for logging messages. ">
<polygon fill="none" stroke="black" points="881.862,-225.5 881.862,-243.5 1022.38,-243.5 1022.38,-225.5 881.862,-225.5"/>
<text text-anchor="middle" x="952.121" y="-231.5" font-family="Helvetica,sans-Serif" font-size="10.00">tomographer/tools/loggers.h</text>
</a>
</g>
</g>
<!-- Node0&#45;&gt;Node5 -->
<g id="edge5" class="edge"><title>Node0&#45;&gt;Node5</title>
<path fill="none" stroke="midnightblue" d="M656.089,-350.084C663.892,-334.526 682.788,-301.365 709.121,-285 757.785,-254.756 821.522,-242.58 871.51,-237.859"/>
<polygon fill="midnightblue" stroke="midnightblue" points="871.974,-241.332 881.636,-236.986 871.373,-234.358 871.974,-241.332"/>
</g>
<!-- Node15 -->
<g id="node16" class="node"><title>Node15</title>
<g id="a_node16"><a xlink:href="fmt_8h.html" target="_top" xlink:title="Utilities for formatting strings. ">
<polygon fill="none" stroke="black" points="764.318,-165.5 764.318,-183.5 885.923,-183.5 885.923,-165.5 764.318,-165.5"/>
<text text-anchor="middle" x="825.121" y="-171.5" font-family="Helvetica,sans-Serif" font-size="10.00">tomographer/tools/fmt.h</text>
</a>
</g>
</g>
<!-- Node0&#45;&gt;Node15 -->
<g id="edge34" class="edge"><title>Node0&#45;&gt;Node15</title>
<path fill="none" stroke="midnightblue" d="M653.103,-350.483C655.192,-336.142 661.171,-305.664 676.121,-285 708.661,-240.023 765.229,-205.845 798.515,-188.399"/>
<polygon fill="midnightblue" stroke="midnightblue" points="800.337,-191.398 807.645,-183.728 797.149,-185.167 800.337,-191.398"/>
</g>
<!-- Node18 -->
<g id="node19" class="node"><title>Node18</title>
<g id="a_node19"><a xlink:href="cxxutil_8h.html" target="_top" xlink:title="Some C++ utilities, with a tad of C++11 tricks. ">
<polygon fill="none" stroke="black" points="167.37,-110.5 167.37,-128.5 302.872,-128.5 302.872,-110.5 167.37,-110.5"/>
<text text-anchor="middle" x="235.121" y="-116.5" font-family="Helvetica,sans-Serif" font-size="10.00">tomographer/tools/cxxutil.h</text>
</a>
</g>
</g>
<!-- Node0&#45;&gt;Node18 -->
<g id="edge35" class="edge"><title>Node0&#45;&gt;Node18</title>
<path fill="none" stroke="midnightblue" d="M597.858,-356.82C467.72,-351.505 143.985,-330.218 81.1206,-249 41.1088,-197.307 142.593,-152.327 199.567,-132.013"/>
<polygon fill="midnightblue" stroke="midnightblue" points="201.013,-135.216 209.308,-128.625 198.713,-128.605 201.013,-135.216"/>
</g>
<!-- Node25 -->
<g id="node26" class="node"><title>Node25</title>
<g id="a_node26"><a xlink:href="mhrw__bin__err_8h.html" target="_top" xlink:title="Binning Analysis in a Metropolis&#45;Hastings random walk. ">
<polygon fill="none" stroke="black" points="434.707,-285.5 434.707,-313.5 553.534,-313.5 553.534,-285.5 434.707,-285.5"/>
<text text-anchor="start" x="442.707" y="-301.5" font-family="Helvetica,sans-Serif" font-size="10.00">tomographer/mhrw_bin</text>
<text text-anchor="middle" x="494.121" y="-291.5" font-family="Helvetica,sans-Serif" font-size="10.00">_err.h</text>
</a>
</g>
</g>
<!-- Node0&#45;&gt;Node25 -->
<g id="edge36" class="edge"><title>Node0&#45;&gt;Node25</title>
<path fill="none" stroke="midnightblue" d="M630.151,-350.435C606.764,-341.85 569.097,-328.023 539.323,-317.093"/>
<polygon fill="midnightblue" stroke="midnightblue" points="540.154,-313.67 529.56,-313.51 537.742,-320.241 540.154,-313.67"/>
</g>
<!-- Node31 -->
<g id="node32" class="node"><title>Node31</title>
<g id="a_node32"><a xlink:href="needownoperatornew_8h.html" target="_top" xlink:title="Managing the need for specific overrides to operator new() for some types (especially Eigen types) ...">
<polygon fill="none" stroke="black" points="90.4438,-225.5 90.4438,-243.5 293.797,-243.5 293.797,-225.5 90.4438,-225.5"/>
<text text-anchor="middle" x="192.121" y="-231.5" font-family="Helvetica,sans-Serif" font-size="10.00">tomographer/tools/needownoperatornew.h</text>
</a>
</g>
</g>
<!-- Node0&#45;&gt;Node31 -->
<g id="edge50" class="edge"><title>Node0&#45;&gt;Node31</title>
<path fill="none" stroke="midnightblue" d="M601.428,-350.449C555.342,-342.674 485.65,-329.775 426.121,-314 351.956,-294.347 267.065,-263.784 222.733,-247.186"/>
<polygon fill="midnightblue" stroke="midnightblue" points="223.728,-243.821 213.136,-243.574 221.262,-250.372 223.728,-243.821"/>
</g>
<!-- Node6 -->
<g id="node7" class="node"><title>Node6</title>
<polygon fill="none" stroke="#bfbfbf" points="634.059,-110.5 634.059,-128.5 676.182,-128.5 676.182,-110.5 634.059,-110.5"/>
<text text-anchor="middle" x="655.121" y="-116.5" font-family="Helvetica,sans-Serif" font-size="10.00">cstdio</text>
</g>
<!-- Node5&#45;&gt;Node6 -->
<g id="edge6" class="edge"><title>Node5&#45;&gt;Node6</title>
<path fill="none" stroke="midnightblue" d="M901.707,-225.431C861.027,-217.845 802.908,-204.541 755.121,-184 724.619,-170.889 692.821,-149.063 673.49,-134.726"/>
<polygon fill="midnightblue" stroke="midnightblue" points="675.388,-131.774 665.298,-128.543 671.171,-137.361 675.388,-131.774"/>
</g>
<!-- Node7 -->
<g id="node8" class="node"><title>Node7</title>
<polygon fill="none" stroke="#bfbfbf" points="852.724,-110.5 852.724,-128.5 901.517,-128.5 901.517,-110.5 852.724,-110.5"/>
<text text-anchor="middle" x="877.121" y="-116.5" font-family="Helvetica,sans-Serif" font-size="10.00">cstdarg</text>
</g>
<!-- Node5&#45;&gt;Node7 -->
<g id="edge7" class="edge"><title>Node5&#45;&gt;Node7</title>
<path fill="none" stroke="midnightblue" d="M946.727,-225.373C934.51,-206.967 904.524,-161.788 888.18,-137.162"/>
<polygon fill="midnightblue" stroke="midnightblue" points="890.912,-134.949 882.466,-128.553 885.079,-138.82 890.912,-134.949"/>
</g>
<!-- Node8 -->
<g id="node9" class="node"><title>Node8</title>
<polygon fill="none" stroke="#bfbfbf" points="804.894,-0.5 804.894,-18.5 845.347,-18.5 845.347,-0.5 804.894,-0.5"/>
<text text-anchor="middle" x="825.121" y="-6.5" font-family="Helvetica,sans-Serif" font-size="10.00">string</text>
</g>
<!-- Node5&#45;&gt;Node8 -->
<g id="edge8" class="edge"><title>Node5&#45;&gt;Node8</title>
<path fill="none" stroke="midnightblue" d="M1022.71,-232.208C1141.07,-228.643 1363.21,-215.256 1326.12,-165 1268.1,-86.392 955.075,-30.9747 855.532,-15.1325"/>
<polygon fill="midnightblue" stroke="midnightblue" points="855.946,-11.6547 845.524,-13.5592 854.859,-18.5698 855.946,-11.6547"/>
</g>
<!-- Node9 -->
<g id="node10" class="node"><title>Node9</title>
<polygon fill="none" stroke="#bfbfbf" points="919.34,-110.5 919.34,-128.5 970.901,-128.5 970.901,-110.5 919.34,-110.5"/>
<text text-anchor="middle" x="945.121" y="-116.5" font-family="Helvetica,sans-Serif" font-size="10.00">sstream</text>
</g>
<!-- Node5&#45;&gt;Node9 -->
<g id="edge9" class="edge"><title>Node5&#45;&gt;Node9</title>
<path fill="none" stroke="midnightblue" d="M951.617,-225.373C950.502,-207.374 947.801,-163.774 946.256,-138.826"/>
<polygon fill="midnightblue" stroke="midnightblue" points="949.731,-138.317 945.619,-128.553 942.745,-138.75 949.731,-138.317"/>
</g>
<!-- Node10 -->
<g id="node11" class="node"><title>Node10</title>
<polygon fill="none" stroke="#bfbfbf" points="988.948,-110.5 988.948,-128.5 1043.29,-128.5 1043.29,-110.5 988.948,-110.5"/>
<text text-anchor="middle" x="1016.12" y="-116.5" font-family="Helvetica,sans-Serif" font-size="10.00">iostream</text>
</g>
<!-- Node5&#45;&gt;Node10 -->
<g id="edge10" class="edge"><title>Node5&#45;&gt;Node10</title>
<path fill="none" stroke="midnightblue" d="M956.723,-225.373C967.102,-207.049 992.51,-162.187 1006.5,-137.49"/>
<polygon fill="midnightblue" stroke="midnightblue" points="1009.68,-138.979 1011.56,-128.553 1003.59,-135.529 1009.68,-138.979"/>
</g>
<!-- Node11 -->
<g id="node12" class="node"><title>Node11</title>
<polygon fill="none" stroke="#bfbfbf" points="1055.72,-165.5 1055.72,-183.5 1114.52,-183.5 1114.52,-165.5 1055.72,-165.5"/>
<text text-anchor="middle" x="1085.12" y="-171.5" font-family="Helvetica,sans-Serif" font-size="10.00">functional</text>
</g>
<!-- Node5&#45;&gt;Node11 -->
<g id="edge11" class="edge"><title>Node5&#45;&gt;Node11</title>
<path fill="none" stroke="midnightblue" d="M970.614,-225.435C993.019,-215.665 1030.99,-199.105 1057.02,-187.754"/>
<polygon fill="midnightblue" stroke="midnightblue" points="1058.59,-190.889 1066.36,-183.683 1055.79,-184.472 1058.59,-190.889"/>
</g>
<!-- Node12 -->
<g id="node13" class="node"><title>Node12</title>
<polygon fill="none" stroke="#bfbfbf" points="644.054,-55.5 644.054,-73.5 706.187,-73.5 706.187,-55.5 644.054,-55.5"/>
<text text-anchor="middle" x="675.121" y="-61.5" font-family="Helvetica,sans-Serif" font-size="10.00">type_traits</text>
</g>
<!-- Node5&#45;&gt;Node12 -->
<g id="edge12" class="edge"><title>Node5&#45;&gt;Node12</title>
<path fill="none" stroke="midnightblue" d="M962.097,-225.41C990.985,-201.546 1071.46,-131.754 1052.12,-110 1030.09,-85.2177 809.723,-71.899 716.461,-67.3353"/>
<polygon fill="midnightblue" stroke="midnightblue" points="716.42,-63.8294 706.263,-66.8465 716.084,-70.8214 716.42,-63.8294"/>
</g>
<!-- Node13 -->
<g id="node14" class="node"><title>Node13</title>
<polygon fill="none" stroke="#bfbfbf" points="1132.39,-165.5 1132.39,-183.5 1167.85,-183.5 1167.85,-165.5 1132.39,-165.5"/>
<text text-anchor="middle" x="1150.12" y="-171.5" font-family="Helvetica,sans-Serif" font-size="10.00">map</text>
</g>
<!-- Node5&#45;&gt;Node13 -->
<g id="edge13" class="edge"><title>Node5&#45;&gt;Node13</title>
<path fill="none" stroke="midnightblue" d="M980.621,-225.468C1012.75,-216.366 1066.79,-200.914 1122.46,-184.15"/>
<polygon fill="midnightblue" stroke="midnightblue" points="1123.57,-187.47 1132.13,-181.228 1121.54,-180.769 1123.57,-187.47"/>
</g>
<!-- Node14 -->
<g id="node15" class="node"><title>Node14</title>
<polygon fill="none" stroke="#bfbfbf" points="1185.59,-165.5 1185.59,-183.5 1316.65,-183.5 1316.65,-165.5 1185.59,-165.5"/>
<text text-anchor="middle" x="1251.12" y="-171.5" font-family="Helvetica,sans-Serif" font-size="10.00">boost/algorithm/string.hpp</text>
</g>
<!-- Node5&#45;&gt;Node14 -->
<g id="edge14" class="edge"><title>Node5&#45;&gt;Node14</title>
<path fill="none" stroke="midnightblue" d="M993.381,-225.496C1047.18,-215.06 1141.3,-196.804 1199.69,-185.477"/>
<polygon fill="midnightblue" stroke="midnightblue" points="1200.65,-188.855 1209.8,-183.515 1199.32,-181.983 1200.65,-188.855"/>
</g>
<!-- Node5&#45;&gt;Node15 -->
<g id="edge15" class="edge"><title>Node5&#45;&gt;Node15</title>
<path fill="none" stroke="midnightblue" d="M934.462,-225.435C913.162,-215.708 877.127,-199.251 852.281,-187.904"/>
<polygon fill="midnightblue" stroke="midnightblue" points="853.589,-184.654 843.039,-183.683 850.681,-191.021 853.589,-184.654"/>
</g>
<!-- Node24 -->
<g id="node25" class="node"><title>Node24</title>
<g id="a_node25"><a xlink:href="conststr_8h.html" target="_top" xlink:title="A constexpr string type, suitable for basic compile&#45;time string processing. ">
<polygon fill="none" stroke="black" points="484.03,-55.5 484.03,-73.5 626.211,-73.5 626.211,-55.5 484.03,-55.5"/>
<text text-anchor="middle" x="555.121" y="-61.5" font-family="Helvetica,sans-Serif" font-size="10.00">tomographer/tools/conststr.h</text>
</a>
</g>
</g>
<!-- Node5&#45;&gt;Node24 -->
<g id="edge33" class="edge"><title>Node5&#45;&gt;Node24</title>
<path fill="none" stroke="midnightblue" d="M885.6,-225.484C837.592,-218.274 771.862,-205.435 717.121,-184 694.941,-175.315 644.257,-143.182 625.121,-129 605.065,-114.136 584.124,-94.512 570.433,-81.0352"/>
<polygon fill="midnightblue" stroke="midnightblue" points="572.824,-78.4764 563.272,-73.893 567.881,-83.4328 572.824,-78.4764"/>
</g>
<!-- Node15&#45;&gt;Node6 -->
<g id="edge16" class="edge"><title>Node15&#45;&gt;Node6</title>
<path fill="none" stroke="midnightblue" d="M799.301,-165.45C768.961,-155.991 718.649,-140.306 686.197,-130.189"/>
<polygon fill="midnightblue" stroke="midnightblue" points="686.925,-126.75 676.337,-127.115 684.842,-133.432 686.925,-126.75"/>
</g>
<!-- Node15&#45;&gt;Node7 -->
<g id="edge17" class="edge"><title>Node15&#45;&gt;Node7</title>
<path fill="none" stroke="midnightblue" d="M833.246,-165.219C840.922,-157.394 852.629,-145.463 862.019,-135.892"/>
<polygon fill="midnightblue" stroke="midnightblue" points="864.718,-138.139 869.223,-128.55 859.721,-133.236 864.718,-138.139"/>
</g>
<!-- Node15&#45;&gt;Node8 -->
<g id="edge19" class="edge"><title>Node15&#45;&gt;Node8</title>
<path fill="none" stroke="midnightblue" d="M825.121,-165.193C825.121,-140.013 825.121,-64.1144 825.121,-28.8621"/>
<polygon fill="midnightblue" stroke="midnightblue" points="828.621,-28.5971 825.121,-18.5971 821.621,-28.5972 828.621,-28.5971"/>
</g>
<!-- Node15&#45;&gt;Node9 -->
<g id="edge20" class="edge"><title>Node15&#45;&gt;Node9</title>
<path fill="none" stroke="midnightblue" d="M843.346,-165.45C863.081,-156.734 894.787,-142.731 917.568,-132.669"/>
<polygon fill="midnightblue" stroke="midnightblue" points="918.99,-135.867 926.724,-128.625 916.162,-129.464 918.99,-135.867"/>
</g>
<!-- Node15&#45;&gt;Node10 -->
<g id="edge21" class="edge"><title>Node15&#45;&gt;Node10</title>
<path fill="none" stroke="midnightblue" d="M854.129,-165.45C887.516,-156.186 942.426,-140.949 978.927,-130.821"/>
<polygon fill="midnightblue" stroke="midnightblue" points="980.001,-134.155 988.701,-128.109 978.129,-127.41 980.001,-134.155"/>
</g>
<!-- Node16 -->
<g id="node17" class="node"><title>Node16</title>
<polygon fill="none" stroke="#bfbfbf" points="693.833,-110.5 693.833,-128.5 740.409,-128.5 740.409,-110.5 693.833,-110.5"/>
<text text-anchor="middle" x="717.121" y="-116.5" font-family="Helvetica,sans-Serif" font-size="10.00">chrono</text>
</g>
<!-- Node15&#45;&gt;Node16 -->
<g id="edge18" class="edge"><title>Node15&#45;&gt;Node16</title>
<path fill="none" stroke="midnightblue" d="M808.718,-165.45C791.194,-156.851 763.183,-143.105 742.746,-133.075"/>
<polygon fill="midnightblue" stroke="midnightblue" points="744.197,-129.889 733.678,-128.625 741.113,-136.173 744.197,-129.889"/>
</g>
<!-- Node17 -->
<g id="node18" class="node"><title>Node17</title>
<polygon fill="none" stroke="#bfbfbf" points="758.729,-110.5 758.729,-128.5 797.512,-128.5 797.512,-110.5 758.729,-110.5"/>
<text text-anchor="middle" x="778.121" y="-116.5" font-family="Helvetica,sans-Serif" font-size="10.00">utility</text>
</g>
<!-- Node15&#45;&gt;Node17 -->
<g id="edge22" class="edge"><title>Node15&#45;&gt;Node17</title>
<path fill="none" stroke="midnightblue" d="M817.777,-165.219C810.908,-157.473 800.469,-145.701 792.025,-136.18"/>
<polygon fill="midnightblue" stroke="midnightblue" points="794.512,-133.709 785.259,-128.55 789.275,-138.354 794.512,-133.709"/>
</g>
<!-- Node15&#45;&gt;Node18 -->
<g id="edge23" class="edge"><title>Node15&#45;&gt;Node18</title>
<path fill="none" stroke="midnightblue" d="M764.202,-168.028C656.349,-158.339 431.989,-138.185 313.048,-127.5"/>
<polygon fill="midnightblue" stroke="midnightblue" points="313.196,-124 302.923,-126.591 312.569,-130.971 313.196,-124"/>
</g>
<!-- Node18&#45;&gt;Node1 -->
<g id="edge25" class="edge"><title>Node18&#45;&gt;Node1</title>
<path fill="none" stroke="midnightblue" d="M202.622,-110.449C168.877,-102.073 114.295,-88.4798 58.0421,-74.2209"/>
<polygon fill="midnightblue" stroke="midnightblue" points="58.8198,-70.8074 48.2661,-71.7404 57.0981,-77.5924 58.8198,-70.8074"/>
</g>
<!-- Node18&#45;&gt;Node12 -->
<g id="edge27" class="edge"><title>Node18&#45;&gt;Node12</title>
<path fill="none" stroke="midnightblue" d="M302.986,-113.004C380.675,-106.252 511.915,-93.4385 633.848,-74.064"/>
<polygon fill="midnightblue" stroke="midnightblue" points="634.415,-77.5179 643.733,-72.4755 633.304,-70.6066 634.415,-77.5179"/>
</g>
<!-- Node19 -->
<g id="node20" class="node"><title>Node19</title>
<polygon fill="none" stroke="#bfbfbf" points="283.005,-55.5 283.005,-73.5 331.236,-73.5 331.236,-55.5 283.005,-55.5"/>
<text text-anchor="middle" x="307.121" y="-61.5" font-family="Helvetica,sans-Serif" font-size="10.00">cassert</text>
</g>
<!-- Node18&#45;&gt;Node19 -->
<g id="edge24" class="edge"><title>Node18&#45;&gt;Node19</title>
<path fill="none" stroke="midnightblue" d="M246.056,-110.45C257.157,-102.279 274.571,-89.4604 287.966,-79.5996"/>
<polygon fill="midnightblue" stroke="midnightblue" points="290.104,-82.3722 296.082,-73.6253 285.954,-76.7348 290.104,-82.3722"/>
</g>
<!-- Node20 -->
<g id="node21" class="node"><title>Node20</title>
<polygon fill="none" stroke="#bfbfbf" points="65.9482,-55.5 65.9482,-73.5 110.293,-73.5 110.293,-55.5 65.9482,-55.5"/>
<text text-anchor="middle" x="88.1206" y="-61.5" font-family="Helvetica,sans-Serif" font-size="10.00">cstdlib</text>
</g>
<!-- Node18&#45;&gt;Node20 -->
<g id="edge26" class="edge"><title>Node18&#45;&gt;Node20</title>
<path fill="none" stroke="midnightblue" d="M212.794,-110.45C188.187,-101.578 148.387,-87.2288 120.388,-77.134"/>
<polygon fill="midnightblue" stroke="midnightblue" points="121.251,-73.7246 110.657,-73.6253 118.877,-80.3096 121.251,-73.7246"/>
</g>
<!-- Node21 -->
<g id="node22" class="node"><title>Node21</title>
<polygon fill="none" stroke="#bfbfbf" points="128.717,-55.5 128.717,-73.5 187.524,-73.5 187.524,-55.5 128.717,-55.5"/>
<text text-anchor="middle" x="158.121" y="-61.5" font-family="Helvetica,sans-Serif" font-size="10.00">exception</text>
</g>
<!-- Node18&#45;&gt;Node21 -->
<g id="edge28" class="edge"><title>Node18&#45;&gt;Node21</title>
<path fill="none" stroke="midnightblue" d="M223.426,-110.45C211.441,-102.201 192.576,-89.2158 178.197,-79.3187"/>
<polygon fill="midnightblue" stroke="midnightblue" points="180.147,-76.4121 169.925,-73.6253 176.178,-82.1782 180.147,-76.4121"/>
</g>
<!-- Node22 -->
<g id="node23" class="node"><title>Node22</title>
<polygon fill="none" stroke="#bfbfbf" points="205.719,-55.5 205.719,-73.5 264.522,-73.5 264.522,-55.5 205.719,-55.5"/>
<text text-anchor="middle" x="235.121" y="-61.5" font-family="Helvetica,sans-Serif" font-size="10.00">stdexcept</text>
</g>
<!-- Node18&#45;&gt;Node22 -->
<g id="edge29" class="edge"><title>Node18&#45;&gt;Node22</title>
<path fill="none" stroke="midnightblue" d="M235.121,-110.219C235.121,-103.177 235.121,-92.8083 235.121,-83.8277"/>
<polygon fill="midnightblue" stroke="midnightblue" points="238.621,-83.5495 235.121,-73.5496 231.621,-83.5496 238.621,-83.5495"/>
</g>
<!-- Node23 -->
<g id="node24" class="node"><title>Node23</title>
<polygon fill="none" stroke="#bfbfbf" points="349.106,-55.5 349.106,-73.5 415.135,-73.5 415.135,-55.5 349.106,-55.5"/>
<text text-anchor="middle" x="382.121" y="-61.5" font-family="Helvetica,sans-Serif" font-size="10.00">Eigen/Core</text>
</g>
<!-- Node18&#45;&gt;Node23 -->
<g id="edge30" class="edge"><title>Node18&#45;&gt;Node23</title>
<path fill="none" stroke="midnightblue" d="M257.447,-110.45C282.054,-101.578 321.854,-87.2288 349.853,-77.134"/>
<polygon fill="midnightblue" stroke="midnightblue" points="351.364,-80.3096 359.584,-73.6253 348.99,-73.7246 351.364,-80.3096"/>
</g>
<!-- Node18&#45;&gt;Node24 -->
<g id="edge31" class="edge"><title>Node18&#45;&gt;Node24</title>
<path fill="none" stroke="midnightblue" d="M283.722,-110.45C340.861,-100.987 435.63,-85.2906 496.712,-75.174"/>
<polygon fill="midnightblue" stroke="midnightblue" points="497.294,-78.6253 506.587,-73.5383 496.15,-71.7194 497.294,-78.6253"/>
</g>
<!-- Node24&#45;&gt;Node8 -->
<g id="edge32" class="edge"><title>Node24&#45;&gt;Node8</title>
<path fill="none" stroke="midnightblue" d="M596.128,-55.4504C650.828,-44.713 746.401,-25.9525 794.957,-16.4211"/>
<polygon fill="midnightblue" stroke="midnightblue" points="795.712,-19.8396 804.851,-14.4789 794.364,-12.9707 795.712,-19.8396"/>
</g>
<!-- Node25&#45;&gt;Node5 -->
<g id="edge37" class="edge"><title>Node25&#45;&gt;Node5</title>
<path fill="none" stroke="midnightblue" d="M553.996,-290.264C638.981,-278.574 794.18,-257.226 883.636,-244.92"/>
<polygon fill="midnightblue" stroke="midnightblue" points="884.249,-248.369 893.679,-243.539 883.295,-241.434 884.249,-248.369"/>
</g>
<!-- Node25&#45;&gt;Node18 -->
<g id="edge44" class="edge"><title>Node25&#45;&gt;Node18</title>
<path fill="none" stroke="midnightblue" d="M434.659,-287.564C404.767,-280.087 369.059,-267.99 341.121,-249 296.813,-218.884 261.124,-165.065 244.782,-137.618"/>
<polygon fill="midnightblue" stroke="midnightblue" points="247.705,-135.682 239.656,-128.792 241.651,-139.197 247.705,-135.682"/>
</g>
<!-- Node26 -->
<g id="node27" class="node"><title>Node26</title>
<g id="a_node27"><a xlink:href="eigenutil_8h.html" target="_top" xlink:title="Basic utilities for dealing with Eigen matrices and other types. ">
<polygon fill="none" stroke="black" points="349.636,-225.5 349.636,-243.5 494.605,-243.5 494.605,-225.5 349.636,-225.5"/>
<text text-anchor="middle" x="422.121" y="-231.5" font-family="Helvetica,sans-Serif" font-size="10.00">tomographer/tools/eigenutil.h</text>
</a>
</g>
</g>
<!-- Node25&#45;&gt;Node26 -->
<g id="edge38" class="edge"><title>Node25&#45;&gt;Node26</title>
<path fill="none" stroke="midnightblue" d="M479.202,-285.446C467.556,-275.256 451.364,-261.088 439.199,-250.444"/>
<polygon fill="midnightblue" stroke="midnightblue" points="441.357,-247.681 431.526,-243.73 436.747,-252.949 441.357,-247.681"/>
</g>
<!-- Node25&#45;&gt;Node31 -->
<g id="edge45" class="edge"><title>Node25&#45;&gt;Node31</title>
<path fill="none" stroke="midnightblue" d="M434.455,-286.053C377.729,-274.22 293.455,-256.639 240.71,-245.636"/>
<polygon fill="midnightblue" stroke="midnightblue" points="241.103,-242.143 230.599,-243.527 239.674,-248.995 241.103,-242.143"/>
</g>
<!-- Node33 -->
<g id="node34" class="node"><title>Node33</title>
<polygon fill="none" stroke="#bfbfbf" points="512.594,-220.5 512.594,-248.5 623.647,-248.5 623.647,-220.5 512.594,-220.5"/>
<text text-anchor="start" x="520.594" y="-236.5" font-family="Helvetica,sans-Serif" font-size="10.00">boost/math/constants</text>
<text text-anchor="middle" x="568.121" y="-226.5" font-family="Helvetica,sans-Serif" font-size="10.00">/constants.hpp</text>
</g>
<!-- Node25&#45;&gt;Node33 -->
<g id="edge49" class="edge"><title>Node25&#45;&gt;Node33</title>
<path fill="none" stroke="midnightblue" d="M509.453,-285.446C519.772,-276.661 533.563,-264.921 545.181,-255.03"/>
<polygon fill="midnightblue" stroke="midnightblue" points="547.462,-257.684 552.807,-248.537 542.924,-252.354 547.462,-257.684"/>
</g>
<!-- Node26&#45;&gt;Node23 -->
<g id="edge41" class="edge"><title>Node26&#45;&gt;Node23</title>
<path fill="none" stroke="midnightblue" d="M400.759,-225.426C383.612,-217.671 360.714,-204.138 350.121,-184 332.42,-150.351 354.936,-106.046 370.208,-82.2822"/>
<polygon fill="midnightblue" stroke="midnightblue" points="373.298,-83.9601 375.984,-73.7114 367.493,-80.0481 373.298,-83.9601"/>
</g>
<!-- Node27 -->
<g id="node28" class="node"><title>Node27</title>
<polygon fill="none" stroke="#bfbfbf" points="616.502,-165.5 616.502,-183.5 669.739,-183.5 669.739,-165.5 616.502,-165.5"/>
<text text-anchor="middle" x="643.121" y="-171.5" font-family="Helvetica,sans-Serif" font-size="10.00">complex</text>
</g>
<!-- Node26&#45;&gt;Node27 -->
<g id="edge39" class="edge"><title>Node26&#45;&gt;Node27</title>
<path fill="none" stroke="midnightblue" d="M452.85,-225.435C493.146,-214.86 563.75,-196.33 606.691,-185.061"/>
<polygon fill="midnightblue" stroke="midnightblue" points="607.672,-188.422 616.456,-182.498 605.895,-181.651 607.672,-188.422"/>
</g>
<!-- Node28 -->
<g id="node29" class="node"><title>Node28</title>
<polygon fill="none" stroke="#bfbfbf" points="359.505,-165.5 359.505,-183.5 402.736,-183.5 402.736,-165.5 359.505,-165.5"/>
<text text-anchor="middle" x="381.121" y="-171.5" font-family="Helvetica,sans-Serif" font-size="10.00">vector</text>
</g>
<!-- Node26&#45;&gt;Node28 -->
<g id="edge40" class="edge"><title>Node26&#45;&gt;Node28</title>
<path fill="none" stroke="midnightblue" d="M416.42,-225.435C410.369,-216.876 400.635,-203.105 392.919,-192.191"/>
<polygon fill="midnightblue" stroke="midnightblue" points="395.669,-190.017 387.039,-183.872 389.953,-194.058 395.669,-190.017"/>
</g>
<!-- Node29 -->
<g id="node30" class="node"><title>Node29</title>
<polygon fill="none" stroke="#bfbfbf" points="420.49,-165.5 420.49,-183.5 493.751,-183.5 493.751,-165.5 420.49,-165.5"/>
<text text-anchor="middle" x="457.121" y="-171.5" font-family="Helvetica,sans-Serif" font-size="10.00">Eigen/Dense</text>
</g>
<!-- Node26&#45;&gt;Node29 -->
<g id="edge42" class="edge"><title>Node26&#45;&gt;Node29</title>
<path fill="none" stroke="midnightblue" d="M426.987,-225.435C432.101,-216.961 440.296,-203.38 446.85,-192.519"/>
<polygon fill="midnightblue" stroke="midnightblue" points="449.899,-194.242 452.069,-183.872 443.905,-190.625 449.899,-194.242"/>
</g>
<!-- Node30 -->
<g id="node31" class="node"><title>Node30</title>
<polygon fill="none" stroke="#bfbfbf" points="511.261,-165.5 511.261,-183.5 598.98,-183.5 598.98,-165.5 511.261,-165.5"/>
<text text-anchor="middle" x="555.121" y="-171.5" font-family="Helvetica,sans-Serif" font-size="10.00">Eigen/StdVector</text>
</g>
<!-- Node26&#45;&gt;Node30 -->
<g id="edge43" class="edge"><title>Node26&#45;&gt;Node30</title>
<path fill="none" stroke="midnightblue" d="M440.614,-225.435C463.019,-215.665 500.991,-199.105 527.022,-187.754"/>
<polygon fill="midnightblue" stroke="midnightblue" points="528.589,-190.889 536.356,-183.683 525.79,-184.472 528.589,-190.889"/>
</g>
<!-- Node31&#45;&gt;Node12 -->
<g id="edge46" class="edge"><title>Node31&#45;&gt;Node12</title>
<path fill="none" stroke="midnightblue" d="M208.935,-225.467C237.535,-211.972 297.661,-184.333 350.121,-165 451.084,-127.792 573.11,-93.1069 634.968,-76.2291"/>
<polygon fill="midnightblue" stroke="midnightblue" points="635.992,-79.5776 644.725,-73.5785 634.157,-72.8224 635.992,-79.5776"/>
</g>
<!-- Node31&#45;&gt;Node18 -->
<g id="edge48" class="edge"><title>Node31&#45;&gt;Node18</title>
<path fill="none" stroke="midnightblue" d="M180.135,-225.349C162.907,-212.587 134.623,-187.065 148.121,-165 157.741,-149.273 174.872,-138.879 191.402,-132.125"/>
<polygon fill="midnightblue" stroke="midnightblue" points="192.85,-135.32 201.004,-128.556 190.411,-128.759 192.85,-135.32"/>
</g>
<!-- Node32 -->
<g id="node33" class="node"><title>Node32</title>
<polygon fill="none" stroke="#bfbfbf" points="157.155,-165.5 157.155,-183.5 227.086,-183.5 227.086,-165.5 157.155,-165.5"/>
<text text-anchor="middle" x="192.121" y="-171.5" font-family="Helvetica,sans-Serif" font-size="10.00">Eigen/Eigen</text>
</g>
<!-- Node31&#45;&gt;Node32 -->
<g id="edge47" class="edge"><title>Node31&#45;&gt;Node32</title>
<path fill="none" stroke="midnightblue" d="M192.121,-225.435C192.121,-217.389 192.121,-204.739 192.121,-194.185"/>
<polygon fill="midnightblue" stroke="midnightblue" points="195.621,-193.872 192.121,-183.872 188.621,-193.872 195.621,-193.872"/>
</g>
</g>
</svg>
        <g id="navigator" transform="translate(0 0)" fill="#404254">
                <rect fill="#f2f5e9" fill-opacity="0.5" stroke="#606060" stroke-width=".5" x="0" y="0" width="60" height="60"/>
                <use id="zoomplus" xlink:href="#zoomPlus" x="17" y="9" onmousedown="handleZoom(evt,'in')"/>
                <use id="zoomminus" xlink:href="#zoomMin" x="42" y="9" onmousedown="handleZoom(evt,'out')"/>
                <use id="reset" xlink:href="#resetDef" x="30" y="36" onmousedown="handleReset()"/>
                <g id="arrowUp" xlink:href="#dirArrow" transform="translate(30 24)" onmousedown="handlePan(0,-1)">
                  <use xlink:href="#rim" fill="#404040">
                        <set attributeName="fill" to="#808080" begin="arrowUp.mouseover" end="arrowUp.mouseout"/>
                  </use>
                  <path fill="none" stroke="white" stroke-width="1.5" d="M0,-3.0v7 M-2.5,-0.5L0,-3.0L2.5,-0.5"/>
                </g>
                <g id="arrowRight" xlink:href="#dirArrow" transform="rotate(90) translate(36 -43)" onmousedown="handlePan(1,0)">
                  <use xlink:href="#rim" fill="#404040">
                        <set attributeName="fill" to="#808080" begin="arrowRight.mouseover" end="arrowRight.mouseout"/>
                  </use>
                  <path fill="none" stroke="white" stroke-width="1.5" d="M0,-3.0v7 M-2.5,-0.5L0,-3.0L2.5,-0.5"/>
                </g>
                <g id="arrowDown" xlink:href="#dirArrow" transform="rotate(180) translate(-30 -48)" onmousedown="handlePan(0,1)">
                  <use xlink:href="#rim" fill="#404040">
                        <set attributeName="fill" to="#808080" begin="arrowDown.mouseover" end="arrowDown.mouseout"/>
                  </use>
                  <path fill="none" stroke="white" stroke-width="1.5" d="M0,-3.0v7 M-2.5,-0.5L0,-3.0L2.5,-0.5"/>
                </g>
                <g id="arrowLeft" xlink:href="#dirArrow" transform="rotate(270) translate(-36 17)" onmousedown="handlePan(-1,0)">
                  <use xlink:href="#rim" fill="#404040">
                        <set attributeName="fill" to="#808080" begin="arrowLeft.mouseover" end="arrowLeft.mouseout"/>
                  </use>
                  <path fill="none" stroke="white" stroke-width="1.5" d="M0,-3.0v7 M-2.5,-0.5L0,-3.0L2.5,-0.5"/>
                </g>
        </g>
        <svg viewBox="0 0 15 15" width="100%" height="30px" preserveAspectRatio="xMaxYMin meet">
         <g id="arrow_out" transform="scale(0.3 0.3)">
          <a xlink:href="mhrw_8h__incl_org.svg" target="_base">
           <rect id="button" ry="5" rx="5" y="6" x="6" height="38" width="38"
                fill="#f2f5e9" fill-opacity="0.5" stroke="#606060" stroke-width="1.0"/>
           <path id="arrow"
             d="M 11.500037,31.436501 C 11.940474,20.09759 22.043105,11.32322 32.158766,21.979434 L 37.068811,17.246167 C 37.068811,17.246167 37.088388,32 37.088388,32 L 22.160133,31.978069 C 22.160133,31.978069 26.997745,27.140456 26.997745,27.140456 C 18.528582,18.264221 13.291696,25.230495 11.500037,31.436501 z"
             style="fill:#404040;"/>
          </a>
         </g>
        </svg>
</svg>
