<?xml version="1.0" encoding="UTF-8" standalone="no"?>
<!DOCTYPE svg PUBLIC "-//W3C//DTD SVG 1.1//EN"
 "http://www.w3.org/Graphics/SVG/1.1/DTD/svg11.dtd">
<!-- Generated by graphviz version 2.38.0 (20140413.2041)
 -->
<!-- Title: tomographer/mhrwstatscollectors.h Pages: 1 -->
<!--zoomable 377 -->
<svg id="main" version="1.1" xmlns="http://www.w3.org/2000/svg" xmlns:xlink="http://www.w3.org/1999/xlink" xml:space="preserve" onload="init(evt)">
<style type="text/css"><![CDATA[
.edge:hover path { stroke: red; }
.edge:hover polygon { stroke: red; fill: red; }
]]></style>
<script type="text/javascript"><![CDATA[
var edges = document.getElementsByTagName('g');
if (edges && edges.length) {
  for (var i=0;i<edges.length;i++) {
    if (edges[i].id.substr(0,4)=='edge') {
      edges[i].setAttribute('class','edge');
    }
  }
}
]]></script>
        <defs>
                <circle id="rim" cx="0" cy="0" r="7"/>
                <circle id="rim2" cx="0" cy="0" r="3.5"/>
                <g id="zoomPlus">
                        <use xlink:href="#rim" fill="#404040">
                                <set attributeName="fill" to="#808080" begin="zoomplus.mouseover" end="zoomplus.mouseout"/>
                        </use>
                        <path d="M-4,0h8M0,-4v8" fill="none" stroke="white" stroke-width="1.5" pointer-events="none"/>
                </g>
                <g id="zoomMin">
                        <use xlink:href="#rim" fill="#404040">
                                <set attributeName="fill" to="#808080" begin="zoomminus.mouseover" end="zoomminus.mouseout"/>
                        </use>
                        <path d="M-4,0h8" fill="none" stroke="white" stroke-width="1.5" pointer-events="none"/>
                </g>
                <g id="dirArrow">
                        <path fill="none" stroke="white" stroke-width="1.5" d="M0,-3.0v7 M-2.5,-0.5L0,-3.0L2.5,-0.5"/>
                </g>
               <g id="resetDef">
                       <use xlink:href="#rim2" fill="#404040">
                               <set attributeName="fill" to="#808080" begin="reset.mouseover" end="reset.mouseout"/>
                       </use>
               </g>
        </defs>

<script type="text/javascript">
var viewWidth = 1935;
var viewHeight = 377;
var sectionId = 'dynsection-0';
</script>
<script xlink:href="svgpan.js"/>
<svg id="graph" class="graph">
<g id="viewport">
<title>tomographer/mhrwstatscollectors.h</title>
<!-- Node0 -->
<g id="node1" class="node"><title>Node0</title>
<polygon fill="#bfbfbf" stroke="black" points="304.403,-350.5 304.403,-368.5 476.019,-368.5 476.019,-350.5 304.403,-350.5"/>
<text text-anchor="middle" x="390.211" y="-356.5" font-family="Helvetica,sans-Serif" font-size="10.00">tomographer/mhrwstatscollectors.h</text>
</g>
<!-- Node1 -->
<g id="node2" class="node"><title>Node1</title>
<polygon fill="none" stroke="#bfbfbf" points="232.09,-55.5 232.09,-73.5 280.332,-73.5 280.332,-55.5 232.09,-55.5"/>
<text text-anchor="middle" x="256.211" y="-61.5" font-family="Helvetica,sans-Serif" font-size="10.00">cstddef</text>
</g>
<!-- Node0&#45;&gt;Node1 -->
<g id="edge1" class="edge"><title>Node0&#45;&gt;Node1</title>
<path fill="none" stroke="midnightblue" d="M304.23,-358.779C208.966,-357.289 63.3321,-349.09 22.2109,-314 -3.63272,-291.947 1.21091,-274.474 1.21091,-240.5 1.21091,-240.5 1.21091,-240.5 1.21091,-178.5 1.21091,-83.159 152.052,-67.6305 221.707,-65.5424"/>
<polygon fill="midnightblue" stroke="midnightblue" points="221.841,-69.0404 231.76,-65.3181 221.685,-62.0421 221.841,-69.0404"/>
</g>
<!-- Node2 -->
<g id="node3" class="node"><title>Node2</title>
<polygon fill="none" stroke="#bfbfbf" points="30.8242,-290.5 30.8242,-308.5 69.5976,-308.5 69.5976,-290.5 30.8242,-290.5"/>
<text text-anchor="middle" x="50.2109" y="-296.5" font-family="Helvetica,sans-Serif" font-size="10.00">limits</text>
</g>
<!-- Node0&#45;&gt;Node2 -->
<g id="edge2" class="edge"><title>Node0&#45;&gt;Node2</title>
<path fill="none" stroke="midnightblue" d="M304.256,-353.374C240.715,-347.88 152.67,-336.664 78.2109,-314 76.7911,-313.568 75.3533,-313.073 73.9177,-312.533"/>
<polygon fill="midnightblue" stroke="midnightblue" points="75.2565,-309.299 64.69,-308.524 72.4672,-315.719 75.2565,-309.299"/>
</g>
<!-- Node3 -->
<g id="node4" class="node"><title>Node3</title>
<polygon fill="none" stroke="#bfbfbf" points="87.3686,-290.5 87.3686,-308.5 125.053,-308.5 125.053,-290.5 87.3686,-290.5"/>
<text text-anchor="middle" x="106.211" y="-296.5" font-family="Helvetica,sans-Serif" font-size="10.00">tuple</text>
</g>
<!-- Node0&#45;&gt;Node3 -->
<g id="edge3" class="edge"><title>Node0&#45;&gt;Node3</title>
<path fill="none" stroke="midnightblue" d="M322.47,-350.47C271.443,-343.468 200.105,-331.635 139.211,-314 137.338,-313.458 135.426,-312.844 133.514,-312.186"/>
<polygon fill="midnightblue" stroke="midnightblue" points="134.712,-308.897 124.12,-308.635 132.236,-315.445 134.712,-308.897"/>
</g>
<!-- Node4 -->
<g id="node5" class="node"><title>Node4</title>
<polygon fill="none" stroke="#bfbfbf" points="499.819,-110.5 499.819,-128.5 538.603,-128.5 538.603,-110.5 499.819,-110.5"/>
<text text-anchor="middle" x="519.211" y="-116.5" font-family="Helvetica,sans-Serif" font-size="10.00">utility</text>
</g>
<!-- Node0&#45;&gt;Node4 -->
<g id="edge4" class="edge"><title>Node0&#45;&gt;Node4</title>
<path fill="none" stroke="midnightblue" d="M370.218,-350.331C309.061,-324.258 132.608,-240.318 199.211,-165 240.66,-118.127 411.635,-140.406 489.794,-128.674"/>
<polygon fill="midnightblue" stroke="midnightblue" points="490.521,-132.099 499.74,-126.878 489.278,-125.211 490.521,-132.099"/>
</g>
<!-- Node5 -->
<g id="node6" class="node"><title>Node5</title>
<polygon fill="none" stroke="#bfbfbf" points="1242.14,-55.5 1242.14,-73.5 1304.28,-73.5 1304.28,-55.5 1242.14,-55.5"/>
<text text-anchor="middle" x="1273.21" y="-61.5" font-family="Helvetica,sans-Serif" font-size="10.00">type_traits</text>
</g>
<!-- Node0&#45;&gt;Node5 -->
<g id="edge5" class="edge"><title>Node0&#45;&gt;Node5</title>
<path fill="none" stroke="midnightblue" d="M476.14,-356.438C799.824,-348.111 1927.21,-313.846 1927.21,-240.5 1927.21,-240.5 1927.21,-240.5 1927.21,-178.5 1927.21,-138.894 1905.42,-128.134 1870.21,-110 1845.53,-97.2875 1446,-74.7875 1314.68,-67.7009"/>
<polygon fill="midnightblue" stroke="midnightblue" points="1314.79,-64.2018 1304.61,-67.1596 1314.41,-71.1917 1314.79,-64.2018"/>
</g>
<!-- Node6 -->
<g id="node7" class="node"><title>Node6</title>
<polygon fill="none" stroke="#bfbfbf" points="391.699,-290.5 391.699,-308.5 442.723,-308.5 442.723,-290.5 391.699,-290.5"/>
<text text-anchor="middle" x="417.211" y="-296.5" font-family="Helvetica,sans-Serif" font-size="10.00">typeinfo</text>
</g>
<!-- Node0&#45;&gt;Node6 -->
<g id="edge6" class="edge"><title>Node0&#45;&gt;Node6</title>
<path fill="none" stroke="midnightblue" d="M393.965,-350.435C397.83,-342.132 403.978,-328.927 408.98,-318.181"/>
<polygon fill="midnightblue" stroke="midnightblue" points="412.266,-319.415 413.314,-308.872 405.92,-316.46 412.266,-319.415"/>
</g>
<!-- Node7 -->
<g id="node8" class="node"><title>Node7</title>
<g id="a_node8"><a xlink:href="cxxutil_8h.html" target="_top" xlink:title="Some C++ utilities, with a tad of C++11 tricks. ">
<polygon fill="none" stroke="black" points="1050.46,-110.5 1050.46,-128.5 1185.96,-128.5 1185.96,-110.5 1050.46,-110.5"/>
<text text-anchor="middle" x="1118.21" y="-116.5" font-family="Helvetica,sans-Serif" font-size="10.00">tomographer/tools/cxxutil.h</text>
</a>
</g>
</g>
<!-- Node0&#45;&gt;Node7 -->
<g id="edge7" class="edge"><title>Node0&#45;&gt;Node7</title>
<path fill="none" stroke="midnightblue" d="M408.173,-350.336C472.723,-321.275 699.487,-221.586 895.211,-165 948.275,-149.658 1009.95,-137.794 1054.97,-130.188"/>
<polygon fill="midnightblue" stroke="midnightblue" points="1055.6,-133.632 1064.89,-128.536 1054.45,-126.727 1055.6,-133.632"/>
</g>
<!-- Node15 -->
<g id="node16" class="node"><title>Node15</title>
<g id="a_node16"><a xlink:href="loggers_8h.html" target="_top" xlink:title="Utilities for logging messages. ">
<polygon fill="none" stroke="black" points="292.953,-230.5 292.953,-248.5 433.469,-248.5 433.469,-230.5 292.953,-230.5"/>
<text text-anchor="middle" x="363.211" y="-236.5" font-family="Helvetica,sans-Serif" font-size="10.00">tomographer/tools/loggers.h</text>
</a>
</g>
</g>
<!-- Node0&#45;&gt;Node15 -->
<g id="edge17" class="edge"><title>Node0&#45;&gt;Node15</title>
<path fill="none" stroke="midnightblue" d="M388.355,-350.389C384.058,-331.611 373.34,-284.768 367.378,-258.711"/>
<polygon fill="midnightblue" stroke="midnightblue" points="370.722,-257.635 365.08,-248.667 363.898,-259.196 370.722,-257.635"/>
</g>
<!-- Node25 -->
<g id="node26" class="node"><title>Node25</title>
<g id="a_node26"><a xlink:href="histogram_8h.html" target="_top" xlink:title="Definitions for Histogram Types. ">
<polygon fill="none" stroke="black" points="977.349,-230.5 977.349,-248.5 1105.07,-248.5 1105.07,-230.5 977.349,-230.5"/>
<text text-anchor="middle" x="1041.21" y="-236.5" font-family="Helvetica,sans-Serif" font-size="10.00">tomographer/histogram.h</text>
</a>
</g>
</g>
<!-- Node0&#45;&gt;Node25 -->
<g id="edge37" class="edge"><title>Node0&#45;&gt;Node25</title>
<path fill="none" stroke="midnightblue" d="M476.302,-354.732C562.551,-349.728 698.722,-338.477 814.211,-314 886.805,-298.614 968.956,-268.771 1011.74,-252.237"/>
<polygon fill="midnightblue" stroke="midnightblue" points="1013.2,-255.425 1021.25,-248.532 1010.66,-248.903 1013.2,-255.425"/>
</g>
<!-- Node37 -->
<g id="node38" class="node"><title>Node37</title>
<g id="a_node38"><a xlink:href="mhrw__bin__err_8h.html" target="_top" xlink:title="Binning Analysis in a Metropolis&#45;Hastings random walk. ">
<polygon fill="none" stroke="black" points="1227.8,-285.5 1227.8,-313.5 1346.62,-313.5 1346.62,-285.5 1227.8,-285.5"/>
<text text-anchor="start" x="1235.8" y="-301.5" font-family="Helvetica,sans-Serif" font-size="10.00">tomographer/mhrw_bin</text>
<text text-anchor="middle" x="1287.21" y="-291.5" font-family="Helvetica,sans-Serif" font-size="10.00">_err.h</text>
</a>
</g>
</g>
<!-- Node0&#45;&gt;Node37 -->
<g id="edge61" class="edge"><title>Node0&#45;&gt;Node37</title>
<path fill="none" stroke="midnightblue" d="M476.219,-352.939C653.214,-341.494 1055.17,-315.504 1217.39,-305.015"/>
<polygon fill="midnightblue" stroke="midnightblue" points="1217.97,-308.484 1227.72,-304.346 1217.52,-301.499 1217.97,-308.484"/>
</g>
<!-- Node7&#45;&gt;Node1 -->
<g id="edge9" class="edge"><title>Node7&#45;&gt;Node1</title>
<path fill="none" stroke="midnightblue" d="M1050.21,-114.775C918.924,-107.511 621.395,-90.697 371.211,-74 344.137,-72.1931 313.497,-69.917 290.655,-68.1749"/>
<polygon fill="midnightblue" stroke="midnightblue" points="290.672,-64.666 280.434,-67.3913 290.137,-71.6456 290.672,-64.666"/>
</g>
<!-- Node7&#45;&gt;Node5 -->
<g id="edge11" class="edge"><title>Node7&#45;&gt;Node5</title>
<path fill="none" stroke="midnightblue" d="M1141.75,-110.45C1168,-101.475 1210.65,-86.8922 1240.22,-76.7813"/>
<polygon fill="midnightblue" stroke="midnightblue" points="1241.37,-80.0856 1249.7,-73.5383 1239.11,-73.4621 1241.37,-80.0856"/>
</g>
<!-- Node8 -->
<g id="node9" class="node"><title>Node8</title>
<polygon fill="none" stroke="#bfbfbf" points="1088.1,-55.5 1088.1,-73.5 1136.33,-73.5 1136.33,-55.5 1088.1,-55.5"/>
<text text-anchor="middle" x="1112.21" y="-61.5" font-family="Helvetica,sans-Serif" font-size="10.00">cassert</text>
</g>
<!-- Node7&#45;&gt;Node8 -->
<g id="edge8" class="edge"><title>Node7&#45;&gt;Node8</title>
<path fill="none" stroke="midnightblue" d="M1117.27,-110.219C1116.47,-103.099 1115.28,-92.5775 1114.25,-83.5289"/>
<polygon fill="midnightblue" stroke="midnightblue" points="1117.72,-83.0923 1113.12,-73.5496 1110.77,-83.8798 1117.72,-83.0923"/>
</g>
<!-- Node9 -->
<g id="node10" class="node"><title>Node9</title>
<polygon fill="none" stroke="#bfbfbf" points="899.039,-55.5 899.039,-73.5 943.383,-73.5 943.383,-55.5 899.039,-55.5"/>
<text text-anchor="middle" x="921.211" y="-61.5" font-family="Helvetica,sans-Serif" font-size="10.00">cstdlib</text>
</g>
<!-- Node7&#45;&gt;Node9 -->
<g id="edge10" class="edge"><title>Node7&#45;&gt;Node9</title>
<path fill="none" stroke="midnightblue" d="M1088.29,-110.45C1051.89,-100.657 990.675,-84.1883 953.312,-74.1365"/>
<polygon fill="midnightblue" stroke="midnightblue" points="954.013,-70.7006 943.447,-71.4824 952.195,-77.4602 954.013,-70.7006"/>
</g>
<!-- Node10 -->
<g id="node11" class="node"><title>Node10</title>
<polygon fill="none" stroke="#bfbfbf" points="1154.81,-55.5 1154.81,-73.5 1213.61,-73.5 1213.61,-55.5 1154.81,-55.5"/>
<text text-anchor="middle" x="1184.21" y="-61.5" font-family="Helvetica,sans-Serif" font-size="10.00">exception</text>
</g>
<!-- Node7&#45;&gt;Node10 -->
<g id="edge12" class="edge"><title>Node7&#45;&gt;Node10</title>
<path fill="none" stroke="midnightblue" d="M1128.23,-110.45C1138.22,-102.434 1153.77,-89.9471 1165.95,-80.1663"/>
<polygon fill="midnightblue" stroke="midnightblue" points="1168.49,-82.6157 1174.09,-73.6253 1164.1,-77.1577 1168.49,-82.6157"/>
</g>
<!-- Node11 -->
<g id="node12" class="node"><title>Node11</title>
<polygon fill="none" stroke="#bfbfbf" points="998.81,-55.5 998.81,-73.5 1057.61,-73.5 1057.61,-55.5 998.81,-55.5"/>
<text text-anchor="middle" x="1028.21" y="-61.5" font-family="Helvetica,sans-Serif" font-size="10.00">stdexcept</text>
</g>
<!-- Node7&#45;&gt;Node11 -->
<g id="edge13" class="edge"><title>Node7&#45;&gt;Node11</title>
<path fill="none" stroke="midnightblue" d="M1104.54,-110.45C1090.27,-102.045 1067.65,-88.7241 1050.73,-78.7618"/>
<polygon fill="midnightblue" stroke="midnightblue" points="1052.4,-75.6838 1042.01,-73.6253 1048.85,-81.7157 1052.4,-75.6838"/>
</g>
<!-- Node12 -->
<g id="node13" class="node"><title>Node12</title>
<polygon fill="none" stroke="#bfbfbf" points="1489.2,-55.5 1489.2,-73.5 1555.23,-73.5 1555.23,-55.5 1489.2,-55.5"/>
<text text-anchor="middle" x="1522.21" y="-61.5" font-family="Helvetica,sans-Serif" font-size="10.00">Eigen/Core</text>
</g>
<!-- Node7&#45;&gt;Node12 -->
<g id="edge14" class="edge"><title>Node7&#45;&gt;Node12</title>
<path fill="none" stroke="midnightblue" d="M1179.57,-110.45C1262.15,-99.6171 1406.98,-80.617 1479,-71.1682"/>
<polygon fill="midnightblue" stroke="midnightblue" points="1479.63,-74.6166 1489.09,-69.8455 1478.72,-67.676 1479.63,-74.6166"/>
</g>
<!-- Node13 -->
<g id="node14" class="node"><title>Node13</title>
<g id="a_node14"><a xlink:href="conststr_8h.html" target="_top" xlink:title="A constexpr string type, suitable for basic compile&#45;time string processing. ">
<polygon fill="none" stroke="black" points="380.12,-55.5 380.12,-73.5 522.302,-73.5 522.302,-55.5 380.12,-55.5"/>
<text text-anchor="middle" x="451.211" y="-61.5" font-family="Helvetica,sans-Serif" font-size="10.00">tomographer/tools/conststr.h</text>
</a>
</g>
</g>
<!-- Node7&#45;&gt;Node13 -->
<g id="edge15" class="edge"><title>Node7&#45;&gt;Node13</title>
<path fill="none" stroke="midnightblue" d="M1050.28,-113.102C926.655,-103.279 665.468,-82.5249 532.574,-71.9651"/>
<polygon fill="midnightblue" stroke="midnightblue" points="532.699,-68.4642 522.454,-71.161 532.145,-75.4422 532.699,-68.4642"/>
</g>
<!-- Node14 -->
<g id="node15" class="node"><title>Node14</title>
<polygon fill="none" stroke="#bfbfbf" points="430.984,-0.5 430.984,-18.5 471.437,-18.5 471.437,-0.5 430.984,-0.5"/>
<text text-anchor="middle" x="451.211" y="-6.5" font-family="Helvetica,sans-Serif" font-size="10.00">string</text>
</g>
<!-- Node13&#45;&gt;Node14 -->
<g id="edge16" class="edge"><title>Node13&#45;&gt;Node14</title>
<path fill="none" stroke="midnightblue" d="M451.211,-55.2188C451.211,-48.1769 451.211,-37.8083 451.211,-28.8277"/>
<polygon fill="midnightblue" stroke="midnightblue" points="454.711,-28.5495 451.211,-18.5496 447.711,-28.5496 454.711,-28.5495"/>
</g>
<!-- Node15&#45;&gt;Node5 -->
<g id="edge24" class="edge"><title>Node15&#45;&gt;Node5</title>
<path fill="none" stroke="midnightblue" d="M430.637,-230.445C452.99,-224.199 475.613,-213.224 489.211,-194 496.654,-183.478 495.477,-176.263 489.211,-165 474.462,-138.487 445.96,-155.513 431.211,-129 427.106,-121.62 425.377,-116.105 431.211,-110 461.601,-78.1952 1178.46,-78.6242 1222.21,-74 1225.42,-73.6603 1228.74,-73.2481 1232.07,-72.7904"/>
<polygon fill="midnightblue" stroke="midnightblue" points="1232.63,-76.2459 1242.01,-71.3082 1231.6,-69.3226 1232.63,-76.2459"/>
</g>
<!-- Node15&#45;&gt;Node13 -->
<g id="edge36" class="edge"><title>Node15&#45;&gt;Node13</title>
<path fill="none" stroke="midnightblue" d="M292.653,-235.933C222.543,-230.59 130.157,-214.31 165.211,-165 211.278,-100.198 302.731,-77.2356 369.867,-69.2943"/>
<polygon fill="midnightblue" stroke="midnightblue" points="370.444,-72.7522 380.005,-68.1864 369.683,-65.7936 370.444,-72.7522"/>
</g>
<!-- Node15&#45;&gt;Node14 -->
<g id="edge20" class="edge"><title>Node15&#45;&gt;Node14</title>
<path fill="none" stroke="midnightblue" d="M292.769,-232.875C239.093,-226.955 171.542,-215.41 154.211,-194 146.101,-183.982 150.648,-177.387 154.211,-165 170.166,-109.538 175.634,-87.6651 223.211,-55 254.927,-33.2249 365.998,-19.1906 420.532,-13.4531"/>
<polygon fill="midnightblue" stroke="midnightblue" points="421.054,-16.9181 430.645,-12.4164 420.34,-9.95457 421.054,-16.9181"/>
</g>
<!-- Node16 -->
<g id="node17" class="node"><title>Node16</title>
<polygon fill="none" stroke="#bfbfbf" points="440.149,-110.5 440.149,-128.5 482.272,-128.5 482.272,-110.5 440.149,-110.5"/>
<text text-anchor="middle" x="461.211" y="-116.5" font-family="Helvetica,sans-Serif" font-size="10.00">cstdio</text>
</g>
<!-- Node15&#45;&gt;Node16 -->
<g id="edge18" class="edge"><title>Node15&#45;&gt;Node16</title>
<path fill="none" stroke="midnightblue" d="M292.838,-233.474C225.886,-226.044 140.419,-208.006 177.211,-165 209.403,-127.371 362.352,-121.34 429.489,-120.531"/>
<polygon fill="midnightblue" stroke="midnightblue" points="429.9,-124.027 439.868,-120.439 429.838,-117.027 429.9,-124.027"/>
</g>
<!-- Node17 -->
<g id="node18" class="node"><title>Node17</title>
<polygon fill="none" stroke="#bfbfbf" points="556.814,-110.5 556.814,-128.5 605.607,-128.5 605.607,-110.5 556.814,-110.5"/>
<text text-anchor="middle" x="581.211" y="-116.5" font-family="Helvetica,sans-Serif" font-size="10.00">cstdarg</text>
</g>
<!-- Node15&#45;&gt;Node17 -->
<g id="edge19" class="edge"><title>Node15&#45;&gt;Node17</title>
<path fill="none" stroke="midnightblue" d="M303.823,-230.455C248.259,-220.568 178.248,-200.559 210.211,-165 258.641,-111.121 457.104,-139.767 546.673,-128.563"/>
<polygon fill="midnightblue" stroke="midnightblue" points="547.418,-131.99 556.784,-127.037 546.374,-125.068 547.418,-131.99"/>
</g>
<!-- Node18 -->
<g id="node19" class="node"><title>Node18</title>
<polygon fill="none" stroke="#bfbfbf" points="797.43,-110.5 797.43,-128.5 848.992,-128.5 848.992,-110.5 797.43,-110.5"/>
<text text-anchor="middle" x="823.211" y="-116.5" font-family="Helvetica,sans-Serif" font-size="10.00">sstream</text>
</g>
<!-- Node15&#45;&gt;Node18 -->
<g id="edge21" class="edge"><title>Node15&#45;&gt;Node18</title>
<path fill="none" stroke="midnightblue" d="M433.678,-234.709C525.584,-228.964 680.82,-216.29 733.211,-194 764.159,-180.833 792.968,-153.643 809.299,-136.279"/>
<polygon fill="midnightblue" stroke="midnightblue" points="812.108,-138.393 816.268,-128.649 806.94,-133.672 812.108,-138.393"/>
</g>
<!-- Node19 -->
<g id="node20" class="node"><title>Node19</title>
<polygon fill="none" stroke="#bfbfbf" points="725.039,-110.5 725.039,-128.5 779.383,-128.5 779.383,-110.5 725.039,-110.5"/>
<text text-anchor="middle" x="752.211" y="-116.5" font-family="Helvetica,sans-Serif" font-size="10.00">iostream</text>
</g>
<!-- Node15&#45;&gt;Node19 -->
<g id="edge22" class="edge"><title>Node15&#45;&gt;Node19</title>
<path fill="none" stroke="midnightblue" d="M433.586,-236.271C520.266,-232.352 661.422,-221.798 705.211,-194 725.754,-180.959 739.024,-155.339 746.058,-138.064"/>
<polygon fill="midnightblue" stroke="midnightblue" points="749.383,-139.166 749.641,-128.574 742.834,-136.693 749.383,-139.166"/>
</g>
<!-- Node20 -->
<g id="node21" class="node"><title>Node20</title>
<polygon fill="none" stroke="#bfbfbf" points="218.807,-170.5 218.807,-188.5 277.615,-188.5 277.615,-170.5 218.807,-170.5"/>
<text text-anchor="middle" x="248.211" y="-176.5" font-family="Helvetica,sans-Serif" font-size="10.00">functional</text>
</g>
<!-- Node15&#45;&gt;Node20 -->
<g id="edge23" class="edge"><title>Node15&#45;&gt;Node20</title>
<path fill="none" stroke="midnightblue" d="M347.221,-230.435C328.104,-220.794 295.88,-204.542 273.405,-193.206"/>
<polygon fill="midnightblue" stroke="midnightblue" points="274.941,-190.061 264.436,-188.683 271.789,-196.311 274.941,-190.061"/>
</g>
<!-- Node21 -->
<g id="node22" class="node"><title>Node21</title>
<polygon fill="none" stroke="#bfbfbf" points="295.484,-170.5 295.484,-188.5 330.937,-188.5 330.937,-170.5 295.484,-170.5"/>
<text text-anchor="middle" x="313.211" y="-176.5" font-family="Helvetica,sans-Serif" font-size="10.00">map</text>
</g>
<!-- Node15&#45;&gt;Node21 -->
<g id="edge25" class="edge"><title>Node15&#45;&gt;Node21</title>
<path fill="none" stroke="midnightblue" d="M356.259,-230.435C348.732,-221.704 336.532,-207.552 327.038,-196.54"/>
<polygon fill="midnightblue" stroke="midnightblue" points="329.608,-194.161 320.428,-188.872 324.306,-198.731 329.608,-194.161"/>
</g>
<!-- Node22 -->
<g id="node23" class="node"><title>Node22</title>
<polygon fill="none" stroke="#bfbfbf" points="348.679,-170.5 348.679,-188.5 479.743,-188.5 479.743,-170.5 348.679,-170.5"/>
<text text-anchor="middle" x="414.211" y="-176.5" font-family="Helvetica,sans-Serif" font-size="10.00">boost/algorithm/string.hpp</text>
</g>
<!-- Node15&#45;&gt;Node22 -->
<g id="edge26" class="edge"><title>Node15&#45;&gt;Node22</title>
<path fill="none" stroke="midnightblue" d="M370.302,-230.435C377.98,-221.704 390.424,-207.552 400.107,-196.54"/>
<polygon fill="midnightblue" stroke="midnightblue" points="402.875,-198.693 406.85,-188.872 397.618,-194.07 402.875,-198.693"/>
</g>
<!-- Node23 -->
<g id="node24" class="node"><title>Node23</title>
<g id="a_node24"><a xlink:href="fmt_8h.html" target="_top" xlink:title="Utilities for formatting strings. ">
<polygon fill="none" stroke="black" points="574.408,-170.5 574.408,-188.5 696.014,-188.5 696.014,-170.5 574.408,-170.5"/>
<text text-anchor="middle" x="635.211" y="-176.5" font-family="Helvetica,sans-Serif" font-size="10.00">tomographer/tools/fmt.h</text>
</a>
</g>
</g>
<!-- Node15&#45;&gt;Node23 -->
<g id="edge27" class="edge"><title>Node15&#45;&gt;Node23</title>
<path fill="none" stroke="midnightblue" d="M400.746,-230.496C449.486,-220.103 534.594,-201.955 587.761,-190.618"/>
<polygon fill="midnightblue" stroke="midnightblue" points="588.575,-194.023 597.625,-188.515 587.115,-187.177 588.575,-194.023"/>
</g>
<!-- Node23&#45;&gt;Node4 -->
<g id="edge34" class="edge"><title>Node23&#45;&gt;Node4</title>
<path fill="none" stroke="midnightblue" d="M619.082,-170.435C599.799,-160.794 567.295,-144.542 544.624,-133.206"/>
<polygon fill="midnightblue" stroke="midnightblue" points="546.087,-130.025 535.577,-128.683 542.956,-136.286 546.087,-130.025"/>
</g>
<!-- Node23&#45;&gt;Node7 -->
<g id="edge35" class="edge"><title>Node23&#45;&gt;Node7</title>
<path fill="none" stroke="midnightblue" d="M696.383,-171.154C784.065,-160.625 945.428,-141.248 1041.15,-129.754"/>
<polygon fill="midnightblue" stroke="midnightblue" points="1041.83,-133.197 1051.35,-128.529 1041,-126.247 1041.83,-133.197"/>
</g>
<!-- Node23&#45;&gt;Node14 -->
<g id="edge31" class="edge"><title>Node23&#45;&gt;Node14</title>
<path fill="none" stroke="midnightblue" d="M634.465,-170.094C632.868,-156.298 628.056,-128.536 614.211,-110 580.117,-64.3536 518.348,-35.1545 481.421,-20.8898"/>
<polygon fill="midnightblue" stroke="midnightblue" points="482.301,-17.4822 471.708,-17.2612 479.851,-24.0396 482.301,-17.4822"/>
</g>
<!-- Node23&#45;&gt;Node16 -->
<g id="edge28" class="edge"><title>Node23&#45;&gt;Node16</title>
<path fill="none" stroke="midnightblue" d="M611.017,-170.435C580.044,-160.111 526.331,-142.207 492.339,-130.876"/>
<polygon fill="midnightblue" stroke="midnightblue" points="493.064,-127.428 482.471,-127.587 490.851,-134.069 493.064,-127.428"/>
</g>
<!-- Node23&#45;&gt;Node17 -->
<g id="edge29" class="edge"><title>Node23&#45;&gt;Node17</title>
<path fill="none" stroke="midnightblue" d="M627.702,-170.435C619.494,-161.619 606.139,-147.274 595.844,-136.217"/>
<polygon fill="midnightblue" stroke="midnightblue" points="598.381,-133.806 589.005,-128.872 593.258,-138.576 598.381,-133.806"/>
</g>
<!-- Node23&#45;&gt;Node18 -->
<g id="edge32" class="edge"><title>Node23&#45;&gt;Node18</title>
<path fill="none" stroke="midnightblue" d="M661.352,-170.435C694.183,-160.307 750.662,-142.882 787.469,-131.527"/>
<polygon fill="midnightblue" stroke="midnightblue" points="788.769,-134.789 797.292,-128.496 786.705,-128.1 788.769,-134.789"/>
</g>
<!-- Node23&#45;&gt;Node19 -->
<g id="edge33" class="edge"><title>Node23&#45;&gt;Node19</title>
<path fill="none" stroke="midnightblue" d="M651.479,-170.435C670.928,-160.794 703.713,-144.542 726.579,-133.206"/>
<polygon fill="midnightblue" stroke="midnightblue" points="728.299,-136.261 735.704,-128.683 725.189,-129.989 728.299,-136.261"/>
</g>
<!-- Node24 -->
<g id="node25" class="node"><title>Node24</title>
<polygon fill="none" stroke="#bfbfbf" points="660.923,-110.5 660.923,-128.5 707.499,-128.5 707.499,-110.5 660.923,-110.5"/>
<text text-anchor="middle" x="684.211" y="-116.5" font-family="Helvetica,sans-Serif" font-size="10.00">chrono</text>
</g>
<!-- Node23&#45;&gt;Node24 -->
<g id="edge30" class="edge"><title>Node23&#45;&gt;Node24</title>
<path fill="none" stroke="midnightblue" d="M642.024,-170.435C649.4,-161.704 661.356,-147.552 670.66,-136.54"/>
<polygon fill="midnightblue" stroke="midnightblue" points="673.358,-138.769 677.138,-128.872 668.011,-134.252 673.358,-138.769"/>
</g>
<!-- Node25&#45;&gt;Node4 -->
<g id="edge40" class="edge"><title>Node25&#45;&gt;Node4</title>
<path fill="none" stroke="midnightblue" d="M977.338,-239.396C863.837,-239.881 632.598,-235.538 565.211,-194 544.624,-181.31 531.76,-155.6 525.033,-138.21"/>
<polygon fill="midnightblue" stroke="midnightblue" points="528.279,-136.892 521.624,-128.649 521.686,-139.243 528.279,-136.892"/>
</g>
<!-- Node25&#45;&gt;Node5 -->
<g id="edge45" class="edge"><title>Node25&#45;&gt;Node5</title>
<path fill="none" stroke="midnightblue" d="M1105.29,-235.718C1141.46,-231.097 1185.43,-219.987 1216.21,-194 1250.47,-165.08 1264.91,-111.502 1270.34,-83.5424"/>
<polygon fill="midnightblue" stroke="midnightblue" points="1273.8,-84.0321 1272.09,-73.5762 1266.91,-82.8163 1273.8,-84.0321"/>
</g>
<!-- Node25&#45;&gt;Node7 -->
<g id="edge56" class="edge"><title>Node25&#45;&gt;Node7</title>
<path fill="none" stroke="midnightblue" d="M1044.61,-230.42C1050.64,-216.493 1064,-187.314 1079.21,-165 1086.24,-154.687 1095.38,-144.14 1103.05,-135.903"/>
<polygon fill="midnightblue" stroke="midnightblue" points="1105.71,-138.181 1110.09,-128.532 1100.65,-133.346 1105.71,-138.181"/>
</g>
<!-- Node25&#45;&gt;Node9 -->
<g id="edge39" class="edge"><title>Node25&#45;&gt;Node9</title>
<path fill="none" stroke="midnightblue" d="M977.024,-235.741C947.122,-230.833 914.057,-219.447 895.211,-194 870.346,-160.427 894.503,-108.938 910.168,-82.4833"/>
<polygon fill="midnightblue" stroke="midnightblue" points="913.343,-84.0036 915.636,-73.6597 907.393,-80.3163 913.343,-84.0036"/>
</g>
<!-- Node25&#45;&gt;Node11 -->
<g id="edge44" class="edge"><title>Node25&#45;&gt;Node11</title>
<path fill="none" stroke="midnightblue" d="M1040.58,-230.156C1038.6,-203.724 1032.41,-121.396 1029.61,-84.1437"/>
<polygon fill="midnightblue" stroke="midnightblue" points="1033.07,-83.47 1028.83,-73.7604 1026.09,-83.9946 1033.07,-83.47"/>
</g>
<!-- Node25&#45;&gt;Node12 -->
<g id="edge48" class="edge"><title>Node25&#45;&gt;Node12</title>
<path fill="none" stroke="midnightblue" d="M1105.16,-237.016C1227.77,-233.527 1486.3,-222.804 1514.21,-194 1542.78,-164.511 1534.47,-111.181 1527.49,-83.4063"/>
<polygon fill="midnightblue" stroke="midnightblue" points="1530.8,-82.233 1524.79,-73.5108 1524.05,-84.0799 1530.8,-82.233"/>
</g>
<!-- Node25&#45;&gt;Node18 -->
<g id="edge43" class="edge"><title>Node25&#45;&gt;Node18</title>
<path fill="none" stroke="midnightblue" d="M1035.02,-230.391C1023.11,-215.346 995.508,-183.004 965.211,-165 931.934,-145.225 888.966,-133.354 859.051,-126.909"/>
<polygon fill="midnightblue" stroke="midnightblue" points="859.551,-123.439 849.051,-124.852 858.141,-130.295 859.551,-123.439"/>
</g>
<!-- Node25&#45;&gt;Node19 -->
<g id="edge41" class="edge"><title>Node25&#45;&gt;Node19</title>
<path fill="none" stroke="midnightblue" d="M989.123,-230.465C952.547,-223.657 903.066,-212.066 862.211,-194 826.921,-178.394 790.576,-151.617 769.759,-135.052"/>
<polygon fill="midnightblue" stroke="midnightblue" points="771.811,-132.211 761.836,-128.64 767.408,-137.652 771.811,-132.211"/>
</g>
<!-- Node25&#45;&gt;Node23 -->
<g id="edge49" class="edge"><title>Node25&#45;&gt;Node23</title>
<path fill="none" stroke="midnightblue" d="M985.185,-230.496C911.071,-219.909 780.623,-201.273 701.632,-189.989"/>
<polygon fill="midnightblue" stroke="midnightblue" points="701.708,-186.464 691.314,-188.515 700.718,-193.394 701.708,-186.464"/>
</g>
<!-- Node26 -->
<g id="node27" class="node"><title>Node26</title>
<polygon fill="none" stroke="#bfbfbf" points="1163.6,-170.5 1163.6,-188.5 1206.83,-188.5 1206.83,-170.5 1163.6,-170.5"/>
<text text-anchor="middle" x="1185.21" y="-176.5" font-family="Helvetica,sans-Serif" font-size="10.00">cmath</text>
</g>
<!-- Node25&#45;&gt;Node26 -->
<g id="edge38" class="edge"><title>Node25&#45;&gt;Node26</title>
<path fill="none" stroke="midnightblue" d="M1062.77,-230.456C1085.79,-221.781 1123.28,-207.406 1155.21,-194 1156.24,-193.569 1157.28,-193.125 1158.34,-192.673"/>
<polygon fill="midnightblue" stroke="midnightblue" points="1160.08,-195.73 1167.83,-188.503 1157.26,-189.321 1160.08,-195.73"/>
</g>
<!-- Node27 -->
<g id="node28" class="node"><title>Node27</title>
<polygon fill="none" stroke="#bfbfbf" points="904.701,-170.5 904.701,-188.5 955.721,-188.5 955.721,-170.5 904.701,-170.5"/>
<text text-anchor="middle" x="930.211" y="-176.5" font-family="Helvetica,sans-Serif" font-size="10.00">iomanip</text>
</g>
<!-- Node25&#45;&gt;Node27 -->
<g id="edge42" class="edge"><title>Node25&#45;&gt;Node27</title>
<path fill="none" stroke="midnightblue" d="M1025.78,-230.435C1007.41,-220.837 976.499,-204.687 954.82,-193.359"/>
<polygon fill="midnightblue" stroke="midnightblue" points="956.356,-190.212 945.872,-188.683 953.114,-196.416 956.356,-190.212"/>
</g>
<!-- Node28 -->
<g id="node29" class="node"><title>Node28</title>
<polygon fill="none" stroke="#bfbfbf" points="1088.65,-170.5 1088.65,-188.5 1145.77,-188.5 1145.77,-170.5 1088.65,-170.5"/>
<text text-anchor="middle" x="1117.21" y="-176.5" font-family="Helvetica,sans-Serif" font-size="10.00">algorithm</text>
</g>
<!-- Node25&#45;&gt;Node28 -->
<g id="edge46" class="edge"><title>Node25&#45;&gt;Node28</title>
<path fill="none" stroke="midnightblue" d="M1051.78,-230.435C1063.78,-221.276 1083.6,-206.152 1098.28,-194.944"/>
<polygon fill="midnightblue" stroke="midnightblue" points="1100.41,-197.721 1106.24,-188.872 1096.17,-192.156 1100.41,-197.721"/>
</g>
<!-- Node29 -->
<g id="node30" class="node"><title>Node29</title>
<polygon fill="none" stroke="#bfbfbf" points="1561.68,-165.5 1561.68,-193.5 1672.74,-193.5 1672.74,-165.5 1561.68,-165.5"/>
<text text-anchor="start" x="1569.68" y="-181.5" font-family="Helvetica,sans-Serif" font-size="10.00">boost/math/constants</text>
<text text-anchor="middle" x="1617.21" y="-171.5" font-family="Helvetica,sans-Serif" font-size="10.00">/constants.hpp</text>
</g>
<!-- Node25&#45;&gt;Node29 -->
<g id="edge47" class="edge"><title>Node25&#45;&gt;Node29</title>
<path fill="none" stroke="midnightblue" d="M1105.35,-234.979C1201.64,-229.214 1389.14,-216.134 1547.21,-194 1548.67,-193.796 1550.14,-193.582 1551.62,-193.36"/>
<polygon fill="midnightblue" stroke="midnightblue" points="1552.19,-196.813 1561.51,-191.777 1551.09,-189.901 1552.19,-196.813"/>
</g>
<!-- Node30 -->
<g id="node31" class="node"><title>Node30</title>
<g id="a_node31"><a xlink:href="eigenutil_8h.html" target="_top" xlink:title="Basic utilities for dealing with Eigen matrices and other types. ">
<polygon fill="none" stroke="black" points="1690.73,-170.5 1690.73,-188.5 1835.7,-188.5 1835.7,-170.5 1690.73,-170.5"/>
<text text-anchor="middle" x="1763.21" y="-176.5" font-family="Helvetica,sans-Serif" font-size="10.00">tomographer/tools/eigenutil.h</text>
</a>
</g>
</g>
<!-- Node25&#45;&gt;Node30 -->
<g id="edge50" class="edge"><title>Node25&#45;&gt;Node30</title>
<path fill="none" stroke="midnightblue" d="M1105.09,-236.095C1220.58,-231.295 1471.72,-218.79 1682.21,-194 1691.06,-192.958 1700.41,-191.621 1709.5,-190.194"/>
<polygon fill="midnightblue" stroke="midnightblue" points="1710.29,-193.611 1719.6,-188.556 1709.17,-186.701 1710.29,-193.611"/>
</g>
<!-- Node35 -->
<g id="node36" class="node"><title>Node35</title>
<g id="a_node36"><a xlink:href="needownoperatornew_8h.html" target="_top" xlink:title="Managing the need for specific overrides to operator new() for some types (especially Eigen types) ...">
<polygon fill="none" stroke="black" points="1301.53,-170.5 1301.53,-188.5 1504.89,-188.5 1504.89,-170.5 1301.53,-170.5"/>
<text text-anchor="middle" x="1403.21" y="-176.5" font-family="Helvetica,sans-Serif" font-size="10.00">tomographer/tools/needownoperatornew.h</text>
</a>
</g>
</g>
<!-- Node25&#45;&gt;Node35 -->
<g id="edge57" class="edge"><title>Node25&#45;&gt;Node35</title>
<path fill="none" stroke="midnightblue" d="M1091.17,-230.496C1156.98,-219.952 1272.61,-201.425 1343.12,-190.127"/>
<polygon fill="midnightblue" stroke="midnightblue" points="1343.87,-193.553 1353.19,-188.515 1342.76,-186.641 1343.87,-193.553"/>
</g>
<!-- Node30&#45;&gt;Node12 -->
<g id="edge53" class="edge"><title>Node30&#45;&gt;Node12</title>
<path fill="none" stroke="midnightblue" d="M1798.31,-170.413C1838.36,-159.61 1895.28,-138.477 1870.21,-110 1850.35,-87.434 1654.14,-73.2069 1565.4,-67.8783"/>
<polygon fill="midnightblue" stroke="midnightblue" points="1565.57,-64.3825 1555.38,-67.2873 1565.16,-71.3703 1565.57,-64.3825"/>
</g>
<!-- Node31 -->
<g id="node32" class="node"><title>Node31</title>
<polygon fill="none" stroke="#bfbfbf" points="1746.59,-110.5 1746.59,-128.5 1799.83,-128.5 1799.83,-110.5 1746.59,-110.5"/>
<text text-anchor="middle" x="1773.21" y="-116.5" font-family="Helvetica,sans-Serif" font-size="10.00">complex</text>
</g>
<!-- Node30&#45;&gt;Node31 -->
<g id="edge51" class="edge"><title>Node30&#45;&gt;Node31</title>
<path fill="none" stroke="midnightblue" d="M1764.6,-170.435C1766,-162.304 1768.22,-149.469 1770.05,-138.848"/>
<polygon fill="midnightblue" stroke="midnightblue" points="1773.52,-139.321 1771.77,-128.872 1766.62,-138.132 1773.52,-139.321"/>
</g>
<!-- Node32 -->
<g id="node33" class="node"><title>Node32</title>
<polygon fill="none" stroke="#bfbfbf" points="1817.6,-110.5 1817.6,-128.5 1860.83,-128.5 1860.83,-110.5 1817.6,-110.5"/>
<text text-anchor="middle" x="1839.21" y="-116.5" font-family="Helvetica,sans-Serif" font-size="10.00">vector</text>
</g>
<!-- Node30&#45;&gt;Node32 -->
<g id="edge52" class="edge"><title>Node30&#45;&gt;Node32</title>
<path fill="none" stroke="midnightblue" d="M1773.78,-170.435C1785.78,-161.276 1805.6,-146.152 1820.28,-134.944"/>
<polygon fill="midnightblue" stroke="midnightblue" points="1822.41,-137.721 1828.24,-128.872 1818.17,-132.156 1822.41,-137.721"/>
</g>
<!-- Node33 -->
<g id="node34" class="node"><title>Node33</title>
<polygon fill="none" stroke="#bfbfbf" points="1550.58,-110.5 1550.58,-128.5 1623.84,-128.5 1623.84,-110.5 1550.58,-110.5"/>
<text text-anchor="middle" x="1587.21" y="-116.5" font-family="Helvetica,sans-Serif" font-size="10.00">Eigen/Dense</text>
</g>
<!-- Node30&#45;&gt;Node33 -->
<g id="edge54" class="edge"><title>Node30&#45;&gt;Node33</title>
<path fill="none" stroke="midnightblue" d="M1738.74,-170.435C1708.22,-160.378 1655.88,-143.128 1621.41,-131.769"/>
<polygon fill="midnightblue" stroke="midnightblue" points="1622.35,-128.395 1611.76,-128.589 1620.16,-135.044 1622.35,-128.395"/>
</g>
<!-- Node34 -->
<g id="node35" class="node"><title>Node34</title>
<polygon fill="none" stroke="#bfbfbf" points="1641.35,-110.5 1641.35,-128.5 1729.07,-128.5 1729.07,-110.5 1641.35,-110.5"/>
<text text-anchor="middle" x="1685.21" y="-116.5" font-family="Helvetica,sans-Serif" font-size="10.00">Eigen/StdVector</text>
</g>
<!-- Node30&#45;&gt;Node34 -->
<g id="edge55" class="edge"><title>Node30&#45;&gt;Node34</title>
<path fill="none" stroke="midnightblue" d="M1752.37,-170.435C1740.05,-161.276 1719.71,-146.152 1704.64,-134.944"/>
<polygon fill="midnightblue" stroke="midnightblue" points="1706.58,-132.03 1696.47,-128.872 1702.41,-137.647 1706.58,-132.03"/>
</g>
<!-- Node35&#45;&gt;Node5 -->
<g id="edge58" class="edge"><title>Node35&#45;&gt;Node5</title>
<path fill="none" stroke="midnightblue" d="M1393.86,-170.373C1372.12,-151.479 1317.93,-104.37 1290.17,-80.2454"/>
<polygon fill="midnightblue" stroke="midnightblue" points="1292.32,-77.4719 1282.48,-73.553 1287.73,-82.755 1292.32,-77.4719"/>
</g>
<!-- Node35&#45;&gt;Node7 -->
<g id="edge60" class="edge"><title>Node35&#45;&gt;Node7</title>
<path fill="none" stroke="midnightblue" d="M1363.88,-170.496C1312.71,-160.081 1223.27,-141.879 1167.58,-130.547"/>
<polygon fill="midnightblue" stroke="midnightblue" points="1168.09,-127.079 1157.59,-128.515 1166.69,-133.939 1168.09,-127.079"/>
</g>
<!-- Node36 -->
<g id="node37" class="node"><title>Node36</title>
<polygon fill="none" stroke="#bfbfbf" points="1368.25,-110.5 1368.25,-128.5 1438.18,-128.5 1438.18,-110.5 1368.25,-110.5"/>
<text text-anchor="middle" x="1403.21" y="-116.5" font-family="Helvetica,sans-Serif" font-size="10.00">Eigen/Eigen</text>
</g>
<!-- Node35&#45;&gt;Node36 -->
<g id="edge59" class="edge"><title>Node35&#45;&gt;Node36</title>
<path fill="none" stroke="midnightblue" d="M1403.21,-170.435C1403.21,-162.389 1403.21,-149.739 1403.21,-139.185"/>
<polygon fill="midnightblue" stroke="midnightblue" points="1406.71,-138.872 1403.21,-128.872 1399.71,-138.872 1406.71,-138.872"/>
</g>
<!-- Node37&#45;&gt;Node7 -->
<g id="edge64" class="edge"><title>Node37&#45;&gt;Node7</title>
<path fill="none" stroke="midnightblue" d="M1283.39,-285.342C1275.19,-259.161 1253.52,-200.047 1216.21,-165 1199.9,-149.678 1177.4,-138.953 1158.07,-131.877"/>
<polygon fill="midnightblue" stroke="midnightblue" points="1159.19,-128.559 1148.6,-128.598 1156.9,-135.175 1159.19,-128.559"/>
</g>
<!-- Node37&#45;&gt;Node15 -->
<g id="edge62" class="edge"><title>Node37&#45;&gt;Node15</title>
<path fill="none" stroke="midnightblue" d="M1227.65,-294.761C1067.25,-284.693 626.024,-256.997 443.685,-245.551"/>
<polygon fill="midnightblue" stroke="midnightblue" points="443.824,-242.053 433.624,-244.92 443.385,-249.04 443.824,-242.053"/>
</g>
<!-- Node37&#45;&gt;Node29 -->
<g id="edge66" class="edge"><title>Node37&#45;&gt;Node29</title>
<path fill="none" stroke="midnightblue" d="M1323.79,-285.421C1384.2,-263.818 1504.73,-220.719 1570.97,-197.036"/>
<polygon fill="midnightblue" stroke="midnightblue" points="1572.48,-200.21 1580.72,-193.547 1570.13,-193.619 1572.48,-200.21"/>
</g>
<!-- Node37&#45;&gt;Node30 -->
<g id="edge63" class="edge"><title>Node37&#45;&gt;Node30</title>
<path fill="none" stroke="midnightblue" d="M1339.97,-285.421C1435.2,-261.814 1633.98,-212.536 1720.95,-190.978"/>
<polygon fill="midnightblue" stroke="midnightblue" points="1721.87,-194.354 1730.74,-188.55 1720.19,-187.559 1721.87,-194.354"/>
</g>
<!-- Node37&#45;&gt;Node35 -->
<g id="edge65" class="edge"><title>Node37&#45;&gt;Node35</title>
<path fill="none" stroke="midnightblue" d="M1300.07,-285.421C1321.6,-263.521 1364.84,-219.53 1387.9,-196.07"/>
<polygon fill="midnightblue" stroke="midnightblue" points="1390.64,-198.283 1395.15,-188.698 1385.65,-193.376 1390.64,-198.283"/>
</g>
</g>
</svg>
        <g id="navigator" transform="translate(0 0)" fill="#404254">
                <rect fill="#f2f5e9" fill-opacity="0.5" stroke="#606060" stroke-width=".5" x="0" y="0" width="60" height="60"/>
                <use id="zoomplus" xlink:href="#zoomPlus" x="17" y="9" onmousedown="handleZoom(evt,'in')"/>
                <use id="zoomminus" xlink:href="#zoomMin" x="42" y="9" onmousedown="handleZoom(evt,'out')"/>
                <use id="reset" xlink:href="#resetDef" x="30" y="36" onmousedown="handleReset()"/>
                <g id="arrowUp" xlink:href="#dirArrow" transform="translate(30 24)" onmousedown="handlePan(0,-1)">
                  <use xlink:href="#rim" fill="#404040">
                        <set attributeName="fill" to="#808080" begin="arrowUp.mouseover" end="arrowUp.mouseout"/>
                  </use>
                  <path fill="none" stroke="white" stroke-width="1.5" d="M0,-3.0v7 M-2.5,-0.5L0,-3.0L2.5,-0.5"/>
                </g>
                <g id="arrowRight" xlink:href="#dirArrow" transform="rotate(90) translate(36 -43)" onmousedown="handlePan(1,0)">
                  <use xlink:href="#rim" fill="#404040">
                        <set attributeName="fill" to="#808080" begin="arrowRight.mouseover" end="arrowRight.mouseout"/>
                  </use>
                  <path fill="none" stroke="white" stroke-width="1.5" d="M0,-3.0v7 M-2.5,-0.5L0,-3.0L2.5,-0.5"/>
                </g>
                <g id="arrowDown" xlink:href="#dirArrow" transform="rotate(180) translate(-30 -48)" onmousedown="handlePan(0,1)">
                  <use xlink:href="#rim" fill="#404040">
                        <set attributeName="fill" to="#808080" begin="arrowDown.mouseover" end="arrowDown.mouseout"/>
                  </use>
                  <path fill="none" stroke="white" stroke-width="1.5" d="M0,-3.0v7 M-2.5,-0.5L0,-3.0L2.5,-0.5"/>
                </g>
                <g id="arrowLeft" xlink:href="#dirArrow" transform="rotate(270) translate(-36 17)" onmousedown="handlePan(-1,0)">
                  <use xlink:href="#rim" fill="#404040">
                        <set attributeName="fill" to="#808080" begin="arrowLeft.mouseover" end="arrowLeft.mouseout"/>
                  </use>
                  <path fill="none" stroke="white" stroke-width="1.5" d="M0,-3.0v7 M-2.5,-0.5L0,-3.0L2.5,-0.5"/>
                </g>
        </g>
        <svg viewBox="0 0 15 15" width="100%" height="30px" preserveAspectRatio="xMaxYMin meet">
         <g id="arrow_out" transform="scale(0.3 0.3)">
          <a xlink:href="mhrwstatscollectors_8h__incl_org.svg" target="_base">
           <rect id="button" ry="5" rx="5" y="6" x="6" height="38" width="38"
                fill="#f2f5e9" fill-opacity="0.5" stroke="#606060" stroke-width="1.0"/>
           <path id="arrow"
             d="M 11.500037,31.436501 C 11.940474,20.09759 22.043105,11.32322 32.158766,21.979434 L 37.068811,17.246167 C 37.068811,17.246167 37.088388,32 37.088388,32 L 22.160133,31.978069 C 22.160133,31.978069 26.997745,27.140456 26.997745,27.140456 C 18.528582,18.264221 13.291696,25.230495 11.500037,31.436501 z"
             style="fill:#404040;"/>
          </a>
         </g>
        </svg>
</svg>
