<?xml version="1.0" encoding="UTF-8" standalone="no"?>
<!DOCTYPE svg PUBLIC "-//W3C//DTD SVG 1.1//EN"
 "http://www.w3.org/Graphics/SVG/1.1/DTD/svg11.dtd">
<!-- Generated by graphviz version 2.38.0 (20140413.2041)
 -->
<!-- Title: tomographer/multiproc.h Pages: 1 -->
<svg width="452pt" height="157pt"
 viewBox="0.00 0.00 452.23 157.00" xmlns="http://www.w3.org/2000/svg" xmlns:xlink="http://www.w3.org/1999/xlink">
<g id="graph0" class="graph" transform="scale(1 1) rotate(0) translate(4 153)">
<title>tomographer/multiproc.h</title>
<!-- Node21 -->
<g id="node1" class="node"><title>Node21</title>
<polygon fill="#bfbfbf" stroke="black" points="166.283,-130.5 166.283,-148.5 290.667,-148.5 290.667,-130.5 166.283,-130.5"/>
<text text-anchor="middle" x="228.475" y="-136.5" font-family="Helvetica,sans-Serif" font-size="10.00">tomographer/multiproc.h</text>
</g>
<!-- Node22 -->
<g id="node2" class="node"><title>Node22</title>
<g id="a_node2"><a xlink:href="mhrwtasks_8h.html" target="_top" xlink:title="Multiprocessing tasks interface (see Multiprocessing Task Interfaces) for parallel Metropolis&#45;Hasting...">
<polygon fill="none" stroke="black" points="6.6748,-70.5 6.6748,-88.5 138.275,-88.5 138.275,-70.5 6.6748,-70.5"/>
<text text-anchor="middle" x="72.4751" y="-76.5" font-family="Helvetica,sans-Serif" font-size="10.00">tomographer/mhrwtasks.h</text>
</a>
</g>
</g>
<!-- Node21&#45;&gt;Node22 -->
<g id="edge1" class="edge"><title>Node21&#45;&gt;Node22</title>
<path fill="none" stroke="midnightblue" d="M197.055,-126.818C166.523,-115.467 120.966,-98.5288 94.2329,-88.5894"/>
<polygon fill="midnightblue" stroke="midnightblue" points="196.191,-130.231 206.784,-130.435 198.631,-123.67 196.191,-130.231"/>
</g>
<!-- Node24 -->
<g id="node4" class="node"><title>Node24</title>
<g id="a_node4"><a xlink:href="multiprocomp_8h.html" target="_top" xlink:title="Multiprocessing with OpenMP parallel multithreading. ">
<polygon fill="none" stroke="black" points="156.557,-70.5 156.557,-88.5 300.394,-88.5 300.394,-70.5 156.557,-70.5"/>
<text text-anchor="middle" x="228.475" y="-76.5" font-family="Helvetica,sans-Serif" font-size="10.00">tomographer/multiprocomp.h</text>
</a>
</g>
</g>
<!-- Node21&#45;&gt;Node24 -->
<g id="edge3" class="edge"><title>Node21&#45;&gt;Node24</title>
<path fill="none" stroke="midnightblue" d="M228.475,-120.214C228.475,-109.714 228.475,-97.0332 228.475,-88.8718"/>
<polygon fill="midnightblue" stroke="midnightblue" points="224.975,-120.435 228.475,-130.435 231.975,-120.435 224.975,-120.435"/>
</g>
<!-- Node25 -->
<g id="node5" class="node"><title>Node25</title>
<g id="a_node5"><a xlink:href="signal__status__report_8h.html" target="_top" xlink:title="Basic common code for intercepting a signal to print status information of a task manager...">
<polygon fill="none" stroke="black" points="318.722,-65.5 318.722,-93.5 444.229,-93.5 444.229,-65.5 318.722,-65.5"/>
<text text-anchor="start" x="326.722" y="-81.5" font-family="Helvetica,sans-Serif" font-size="10.00">tomographer/tools/signal</text>
<text text-anchor="middle" x="381.475" y="-71.5" font-family="Helvetica,sans-Serif" font-size="10.00">_status_report.h</text>
</a>
</g>
</g>
<!-- Node21&#45;&gt;Node25 -->
<g id="edge4" class="edge"><title>Node21&#45;&gt;Node25</title>
<path fill="none" stroke="midnightblue" d="M259.269,-126.826C284.708,-117.183 320.794,-103.503 347.157,-93.5096"/>
<polygon fill="midnightblue" stroke="midnightblue" points="257.859,-123.618 249.749,-130.435 260.34,-130.163 257.859,-123.618"/>
</g>
<!-- Node23 -->
<g id="node3" class="node"><title>Node23</title>
<g id="a_node3"><a xlink:href="mhrw__valuehist__tasks_8h.html" target="_top" xlink:title="Tasks for collecting a histogram of values during a Metropolis&#45;Hastings random walk. ">
<polygon fill="none" stroke="black" points="0,-0.5 0,-28.5 144.95,-28.5 144.95,-0.5 0,-0.5"/>
<text text-anchor="start" x="8" y="-16.5" font-family="Helvetica,sans-Serif" font-size="10.00">tomographer/mhrw_valuehist</text>
<text text-anchor="middle" x="72.4751" y="-6.5" font-family="Helvetica,sans-Serif" font-size="10.00">_tasks.h</text>
</a>
</g>
</g>
<!-- Node22&#45;&gt;Node23 -->
<g id="edge2" class="edge"><title>Node22&#45;&gt;Node23</title>
<path fill="none" stroke="midnightblue" d="M72.4751,-60.1373C72.4751,-50.1047 72.4751,-37.906 72.4751,-28.7981"/>
<polygon fill="midnightblue" stroke="midnightblue" points="68.9752,-60.2638 72.4751,-70.2639 75.9752,-60.2639 68.9752,-60.2638"/>
</g>
</g>
</svg>
