<?xml version="1.0" encoding="UTF-8" standalone="no"?>
<!DOCTYPE svg PUBLIC "-//W3C//DTD SVG 1.1//EN"
 "http://www.w3.org/Graphics/SVG/1.1/DTD/svg11.dtd">
<!-- Generated by graphviz version 2.38.0 (20140413.2041)
 -->
<!-- Title: tomographer/tools/needownoperatornew.h Pages: 1 -->
<!--zoomable 287 -->
<svg id="main" version="1.1" xmlns="http://www.w3.org/2000/svg" xmlns:xlink="http://www.w3.org/1999/xlink" xml:space="preserve" onload="init(evt)">
<style type="text/css"><![CDATA[
.edge:hover path { stroke: red; }
.edge:hover polygon { stroke: red; fill: red; }
]]></style>
<script type="text/javascript"><![CDATA[
var edges = document.getElementsByTagName('g');
if (edges && edges.length) {
  for (var i=0;i<edges.length;i++) {
    if (edges[i].id.substr(0,4)=='edge') {
      edges[i].setAttribute('class','edge');
    }
  }
}
]]></script>
        <defs>
                <circle id="rim" cx="0" cy="0" r="7"/>
                <circle id="rim2" cx="0" cy="0" r="3.5"/>
                <g id="zoomPlus">
                        <use xlink:href="#rim" fill="#404040">
                                <set attributeName="fill" to="#808080" begin="zoomplus.mouseover" end="zoomplus.mouseout"/>
                        </use>
                        <path d="M-4,0h8M0,-4v8" fill="none" stroke="white" stroke-width="1.5" pointer-events="none"/>
                </g>
                <g id="zoomMin">
                        <use xlink:href="#rim" fill="#404040">
                                <set attributeName="fill" to="#808080" begin="zoomminus.mouseover" end="zoomminus.mouseout"/>
                        </use>
                        <path d="M-4,0h8" fill="none" stroke="white" stroke-width="1.5" pointer-events="none"/>
                </g>
                <g id="dirArrow">
                        <path fill="none" stroke="white" stroke-width="1.5" d="M0,-3.0v7 M-2.5,-0.5L0,-3.0L2.5,-0.5"/>
                </g>
               <g id="resetDef">
                       <use xlink:href="#rim2" fill="#404040">
                               <set attributeName="fill" to="#808080" begin="reset.mouseover" end="reset.mouseout"/>
                       </use>
               </g>
        </defs>

<script type="text/javascript">
var viewWidth = 1041;
var viewHeight = 287;
var sectionId = 'dynsection-1';
</script>
<script xlink:href="svgpan.js"/>
<svg id="graph" class="graph">
<g id="viewport">
<title>tomographer/tools/needownoperatornew.h</title>
<!-- Node12 -->
<g id="node1" class="node"><title>Node12</title>
<polygon fill="#bfbfbf" stroke="black" points="340.631,-260.5 340.631,-278.5 543.984,-278.5 543.984,-260.5 340.631,-260.5"/>
<text text-anchor="middle" x="442.308" y="-266.5" font-family="Helvetica,sans-Serif" font-size="10.00">tomographer/tools/needownoperatornew.h</text>
</g>
<!-- Node13 -->
<g id="node2" class="node"><title>Node13</title>
<g id="a_node2"><a xlink:href="indepmeasllh_8h.html" target="_top" xlink:title="C++ types and functions for calculating the log&#45;likelihood for independent measurements. ">
<polygon fill="none" stroke="black" points="0,-195.5 0,-223.5 116.615,-223.5 116.615,-195.5 0,-195.5"/>
<text text-anchor="start" x="8" y="-211.5" font-family="Helvetica,sans-Serif" font-size="10.00">tomographer/densedm</text>
<text text-anchor="middle" x="58.3076" y="-201.5" font-family="Helvetica,sans-Serif" font-size="10.00">/indepmeasllh.h</text>
</a>
</g>
</g>
<!-- Node12&#45;&gt;Node13 -->
<g id="edge1" class="edge"><title>Node12&#45;&gt;Node13</title>
<path fill="none" stroke="midnightblue" d="M367.664,-259.189C303.516,-250.9 208.618,-237.955 126.308,-224 123.222,-223.477 120.062,-222.921 116.875,-222.344"/>
<polygon fill="midnightblue" stroke="midnightblue" points="367.324,-262.674 377.689,-260.478 368.218,-255.731 367.324,-262.674"/>
</g>
<!-- Node14 -->
<g id="node3" class="node"><title>Node14</title>
<g id="a_node3"><a xlink:href="tspacefigofmerit_8h.html" target="_top" xlink:title="Implement some standard figures of merit for when integrating in T space densely represented density ...">
<polygon fill="none" stroke="black" points="135,-195.5 135,-223.5 251.615,-223.5 251.615,-195.5 135,-195.5"/>
<text text-anchor="start" x="143" y="-211.5" font-family="Helvetica,sans-Serif" font-size="10.00">tomographer/densedm</text>
<text text-anchor="middle" x="193.308" y="-201.5" font-family="Helvetica,sans-Serif" font-size="10.00">/tspacefigofmerit.h</text>
</a>
</g>
</g>
<!-- Node12&#45;&gt;Node14 -->
<g id="edge2" class="edge"><title>Node12&#45;&gt;Node14</title>
<path fill="none" stroke="midnightblue" d="M398.12,-258.207C356.594,-248.534 294.27,-234.017 249.283,-223.538"/>
<polygon fill="midnightblue" stroke="midnightblue" points="397.413,-261.636 407.947,-260.496 399.001,-254.819 397.413,-261.636"/>
</g>
<!-- Node15 -->
<g id="node4" class="node"><title>Node15</title>
<g id="a_node4"><a xlink:href="tspacellhwalker_8h.html" target="_top" xlink:title="Definitions for a Metropolis&#45;Hastings random walk on a quantum state space with dense matrix type...">
<polygon fill="none" stroke="black" points="345,-65.5 345,-93.5 461.615,-93.5 461.615,-65.5 345,-65.5"/>
<text text-anchor="start" x="353" y="-81.5" font-family="Helvetica,sans-Serif" font-size="10.00">tomographer/densedm</text>
<text text-anchor="middle" x="403.308" y="-71.5" font-family="Helvetica,sans-Serif" font-size="10.00">/tspacellhwalker.h</text>
</a>
</g>
</g>
<!-- Node12&#45;&gt;Node15 -->
<g id="edge3" class="edge"><title>Node12&#45;&gt;Node15</title>
<path fill="none" stroke="midnightblue" d="M410.74,-256.26C395.28,-248.906 377.433,-238.194 365.308,-224 345.203,-200.466 345.958,-189.432 340.308,-159 337.955,-146.328 334.673,-141.592 340.308,-130 347.969,-114.237 363.35,-101.999 376.996,-93.6354"/>
<polygon fill="midnightblue" stroke="midnightblue" points="409.429,-259.508 419.985,-260.406 412.293,-253.121 409.429,-259.508"/>
</g>
<!-- Node16 -->
<g id="node5" class="node"><title>Node16</title>
<g id="a_node5"><a xlink:href="histogram_8h.html" target="_top" xlink:title="Definitions for Histogram Types. ">
<polygon fill="none" stroke="black" points="519.446,-200.5 519.446,-218.5 647.169,-218.5 647.169,-200.5 519.446,-200.5"/>
<text text-anchor="middle" x="583.308" y="-206.5" font-family="Helvetica,sans-Serif" font-size="10.00">tomographer/histogram.h</text>
</a>
</g>
</g>
<!-- Node12&#45;&gt;Node16 -->
<g id="edge4" class="edge"><title>Node12&#45;&gt;Node16</title>
<path fill="none" stroke="midnightblue" d="M471.401,-256.532C498.902,-245.22 539.424,-228.552 563.414,-218.683"/>
<polygon fill="midnightblue" stroke="midnightblue" points="469.83,-253.394 461.913,-260.435 472.493,-259.868 469.83,-253.394"/>
</g>
<!-- Node18 -->
<g id="node7" class="node"><title>Node18</title>
<g id="a_node7"><a xlink:href="mhrw__valuehist__tasks_8h.html" target="_top" xlink:title="Tasks for collecting a histogram of values during a Metropolis&#45;Hastings random walk. ">
<polygon fill="none" stroke="black" points="452.833,-0.5 452.833,-28.5 597.783,-28.5 597.783,-0.5 452.833,-0.5"/>
<text text-anchor="start" x="460.833" y="-16.5" font-family="Helvetica,sans-Serif" font-size="10.00">tomographer/mhrw_valuehist</text>
<text text-anchor="middle" x="525.308" y="-6.5" font-family="Helvetica,sans-Serif" font-size="10.00">_tasks.h</text>
</a>
</g>
</g>
<!-- Node12&#45;&gt;Node18 -->
<g id="edge15" class="edge"><title>Node12&#45;&gt;Node18</title>
<path fill="none" stroke="midnightblue" d="M410.74,-256.26C395.28,-248.906 377.433,-238.194 365.308,-224 318.65,-169.383 292.418,-121.865 336.308,-65 350.789,-46.2375 405.783,-33.2086 452.742,-25.2447"/>
<polygon fill="midnightblue" stroke="midnightblue" points="409.429,-259.508 419.985,-260.406 412.293,-253.121 409.429,-259.508"/>
</g>
<!-- Node19 -->
<g id="node8" class="node"><title>Node19</title>
<g id="a_node8"><a xlink:href="mhrwtasks_8h.html" target="_top" xlink:title="Multiprocessing tasks interface (see Multiprocessing Task Interfaces) for parallel Metropolis&#45;Hasting...">
<polygon fill="none" stroke="black" points="553.507,-70.5 553.507,-88.5 685.108,-88.5 685.108,-70.5 553.507,-70.5"/>
<text text-anchor="middle" x="619.308" y="-76.5" font-family="Helvetica,sans-Serif" font-size="10.00">tomographer/mhrwtasks.h</text>
</a>
</g>
</g>
<!-- Node12&#45;&gt;Node19 -->
<g id="edge16" class="edge"><title>Node12&#45;&gt;Node19</title>
<path fill="none" stroke="midnightblue" d="M546.926,-259.154C593.86,-252.581 641.916,-241.692 656.308,-224 682.671,-191.591 669.487,-169.645 656.308,-130 650.757,-113.303 637.133,-97.6839 628.058,-88.6145"/>
<polygon fill="midnightblue" stroke="midnightblue" points="546.387,-255.695 536.941,-260.492 547.317,-262.633 546.387,-255.695"/>
</g>
<!-- Node20 -->
<g id="node9" class="node"><title>Node20</title>
<g id="a_node9"><a xlink:href="mhrw_8h.html" target="_top" xlink:title="Routines for performing a Metropolis&#45;Hastings random walk. ">
<polygon fill="none" stroke="black" points="349.451,-135.5 349.451,-153.5 457.165,-153.5 457.165,-135.5 349.451,-135.5"/>
<text text-anchor="middle" x="403.308" y="-141.5" font-family="Helvetica,sans-Serif" font-size="10.00">tomographer/mhrw.h</text>
</a>
</g>
</g>
<!-- Node12&#45;&gt;Node20 -->
<g id="edge9" class="edge"><title>Node12&#45;&gt;Node20</title>
<path fill="none" stroke="midnightblue" d="M410.302,-255.931C396.625,-248.77 382.05,-238.319 374.308,-224 361.178,-199.718 383.512,-168.238 395.901,-153.621"/>
<polygon fill="midnightblue" stroke="midnightblue" points="409.003,-259.19 419.532,-260.37 412.037,-252.882 409.003,-259.19"/>
</g>
<!-- Node21 -->
<g id="node10" class="node"><title>Node21</title>
<g id="a_node10"><a xlink:href="mhrw__bin__err_8h.html" target="_top" xlink:title="Binning Analysis in a Metropolis&#45;Hastings random walk. ">
<polygon fill="none" stroke="black" points="382.894,-195.5 382.894,-223.5 501.721,-223.5 501.721,-195.5 382.894,-195.5"/>
<text text-anchor="start" x="390.894" y="-211.5" font-family="Helvetica,sans-Serif" font-size="10.00">tomographer/mhrw_bin</text>
<text text-anchor="middle" x="442.308" y="-201.5" font-family="Helvetica,sans-Serif" font-size="10.00">_err.h</text>
</a>
</g>
</g>
<!-- Node12&#45;&gt;Node21 -->
<g id="edge12" class="edge"><title>Node12&#45;&gt;Node21</title>
<path fill="none" stroke="midnightblue" d="M442.308,-250.321C442.308,-241.747 442.308,-231.7 442.308,-223.843"/>
<polygon fill="midnightblue" stroke="midnightblue" points="438.808,-250.435 442.308,-260.435 445.808,-250.435 438.808,-250.435"/>
</g>
<!-- Node22 -->
<g id="node11" class="node"><title>Node22</title>
<g id="a_node11"><a xlink:href="multiproc_8h.html" target="_top" xlink:title="Some common definitions for multiprocessing interfaces. ">
<polygon fill="none" stroke="black" points="703.116,-200.5 703.116,-218.5 827.5,-218.5 827.5,-200.5 703.116,-200.5"/>
<text text-anchor="middle" x="765.308" y="-206.5" font-family="Helvetica,sans-Serif" font-size="10.00">tomographer/multiproc.h</text>
</a>
</g>
</g>
<!-- Node12&#45;&gt;Node22 -->
<g id="edge17" class="edge"><title>Node12&#45;&gt;Node22</title>
<path fill="none" stroke="midnightblue" d="M497.021,-258.675C560.013,-247.364 662.283,-229 720.674,-218.515"/>
<polygon fill="midnightblue" stroke="midnightblue" points="496.104,-255.284 486.88,-260.496 497.341,-262.174 496.104,-255.284"/>
</g>
<!-- Node23 -->
<g id="node12" class="node"><title>Node23</title>
<g id="a_node12"><a xlink:href="multiprocomp_8h.html" target="_top" xlink:title="Multiprocessing with OpenMP parallel multithreading. ">
<polygon fill="none" stroke="black" points="885.389,-135.5 885.389,-153.5 1029.23,-153.5 1029.23,-135.5 885.389,-135.5"/>
<text text-anchor="middle" x="957.308" y="-141.5" font-family="Helvetica,sans-Serif" font-size="10.00">tomographer/multiprocomp.h</text>
</a>
</g>
</g>
<!-- Node12&#45;&gt;Node23 -->
<g id="edge21" class="edge"><title>Node12&#45;&gt;Node23</title>
<path fill="none" stroke="midnightblue" d="M554.3,-262.508C652.369,-256.052 786.725,-243.929 836.308,-224 856.02,-216.077 856.711,-206.905 874.308,-195 897.514,-179.3 925.764,-163.018 942.602,-153.596"/>
<polygon fill="midnightblue" stroke="midnightblue" points="553.784,-259.034 544.03,-263.172 554.235,-266.02 553.784,-259.034"/>
</g>
<!-- Node25 -->
<g id="node14" class="node"><title>Node25</title>
<g id="a_node14"><a xlink:href="valuecalculator_8h.html" target="_top" xlink:title="Some elementary definitions which relate to the ValueCalculator Interface. ">
<polygon fill="none" stroke="black" points="883.32,-200.5 883.32,-218.5 1033.29,-218.5 1033.29,-200.5 883.32,-200.5"/>
<text text-anchor="middle" x="958.308" y="-206.5" font-family="Helvetica,sans-Serif" font-size="10.00">tomographer/valuecalculator.h</text>
</a>
</g>
</g>
<!-- Node12&#45;&gt;Node25 -->
<g id="edge22" class="edge"><title>Node12&#45;&gt;Node25</title>
<path fill="none" stroke="midnightblue" d="M540.855,-259.547C627.498,-251.361 756.945,-238.369 869.308,-224 881.864,-222.394 895.385,-220.453 908.002,-218.55"/>
<polygon fill="midnightblue" stroke="midnightblue" points="540.397,-256.074 530.769,-260.496 541.053,-263.044 540.397,-256.074"/>
</g>
<!-- Node17 -->
<g id="node6" class="node"><title>Node17</title>
<g id="a_node6"><a xlink:href="mhrwstatscollectors_8h.html" target="_top" xlink:title="Definitions for MHRWStatsCollector Interface&#39;s. ">
<polygon fill="none" stroke="black" points="475.5,-135.5 475.5,-153.5 647.115,-153.5 647.115,-135.5 475.5,-135.5"/>
<text text-anchor="middle" x="561.308" y="-141.5" font-family="Helvetica,sans-Serif" font-size="10.00">tomographer/mhrwstatscollectors.h</text>
</a>
</g>
</g>
<!-- Node16&#45;&gt;Node17 -->
<g id="edge5" class="edge"><title>Node16&#45;&gt;Node17</title>
<path fill="none" stroke="midnightblue" d="M577.075,-190.652C572.811,-178.442 567.363,-162.841 564.115,-153.539"/>
<polygon fill="midnightblue" stroke="midnightblue" points="573.83,-191.977 580.432,-200.264 580.439,-189.669 573.83,-191.977"/>
</g>
<!-- Node17&#45;&gt;Node18 -->
<g id="edge6" class="edge"><title>Node17&#45;&gt;Node18</title>
<path fill="none" stroke="midnightblue" d="M554.662,-125.469C551.34,-116.141 547.383,-104.532 544.308,-94 537.664,-71.253 531.512,-44.3284 528.098,-28.6552"/>
<polygon fill="midnightblue" stroke="midnightblue" points="551.48,-126.961 558.179,-135.168 558.06,-124.574 551.48,-126.961"/>
</g>
<!-- Node17&#45;&gt;Node19 -->
<g id="edge7" class="edge"><title>Node17&#45;&gt;Node19</title>
<path fill="none" stroke="midnightblue" d="M575.732,-127.832C587.217,-115.357 602.824,-98.4046 611.907,-88.539"/>
<polygon fill="midnightblue" stroke="midnightblue" points="573.088,-125.536 568.89,-135.264 578.238,-130.277 573.088,-125.536"/>
</g>
<!-- Node19&#45;&gt;Node18 -->
<g id="edge8" class="edge"><title>Node19&#45;&gt;Node18</title>
<path fill="none" stroke="midnightblue" d="M598.364,-64.4632C582.35,-53.7305 560.436,-39.0433 544.795,-28.5608"/>
<polygon fill="midnightblue" stroke="midnightblue" points="596.763,-67.6038 607.019,-70.2639 600.66,-61.789 596.763,-67.6038"/>
</g>
<!-- Node20&#45;&gt;Node15 -->
<g id="edge10" class="edge"><title>Node20&#45;&gt;Node15</title>
<path fill="none" stroke="midnightblue" d="M403.308,-125.137C403.308,-115.105 403.308,-102.906 403.308,-93.7981"/>
<polygon fill="midnightblue" stroke="midnightblue" points="399.808,-125.264 403.308,-135.264 406.808,-125.264 399.808,-125.264"/>
</g>
<!-- Node20&#45;&gt;Node19 -->
<g id="edge11" class="edge"><title>Node20&#45;&gt;Node19</title>
<path fill="none" stroke="midnightblue" d="M440.906,-132.534C483.902,-119.993 553.279,-99.7583 591.618,-88.5761"/>
<polygon fill="midnightblue" stroke="midnightblue" points="439.724,-129.233 431.104,-135.393 441.684,-135.953 439.724,-129.233"/>
</g>
<!-- Node21&#45;&gt;Node17 -->
<g id="edge14" class="edge"><title>Node21&#45;&gt;Node17</title>
<path fill="none" stroke="midnightblue" d="M476.079,-190.621C499.125,-178.42 528.548,-162.843 546.106,-153.548"/>
<polygon fill="midnightblue" stroke="midnightblue" points="474.165,-187.674 466.964,-195.446 477.44,-193.861 474.165,-187.674"/>
</g>
<!-- Node21&#45;&gt;Node20 -->
<g id="edge13" class="edge"><title>Node21&#45;&gt;Node20</title>
<path fill="none" stroke="midnightblue" d="M428.897,-186.837C421.833,-175.425 413.584,-162.1 408.402,-153.73"/>
<polygon fill="midnightblue" stroke="midnightblue" points="425.987,-188.786 434.227,-195.446 431.939,-185.101 425.987,-188.786"/>
</g>
<!-- Node22&#45;&gt;Node19 -->
<g id="edge18" class="edge"><title>Node22&#45;&gt;Node19</title>
<path fill="none" stroke="midnightblue" d="M751.475,-192.547C736.817,-176.055 712.612,-149.972 689.308,-130 670.547,-113.922 646.683,-97.8818 632.223,-88.5907"/>
<polygon fill="midnightblue" stroke="midnightblue" points="748.984,-195.014 758.215,-200.214 754.241,-190.392 748.984,-195.014"/>
</g>
<!-- Node22&#45;&gt;Node23 -->
<g id="edge19" class="edge"><title>Node22&#45;&gt;Node23</title>
<path fill="none" stroke="midnightblue" d="M799.701,-197.215C837.986,-184.653 898.903,-164.664 932.695,-153.576"/>
<polygon fill="midnightblue" stroke="midnightblue" points="798.426,-193.95 790.015,-200.393 800.608,-200.601 798.426,-193.95"/>
</g>
<!-- Node24 -->
<g id="node13" class="node"><title>Node24</title>
<g id="a_node13"><a xlink:href="signal__status__report_8h.html" target="_top" xlink:title="Basic common code for intercepting a signal to print status information of a task manager...">
<polygon fill="none" stroke="black" points="741.554,-130.5 741.554,-158.5 867.061,-158.5 867.061,-130.5 741.554,-130.5"/>
<text text-anchor="start" x="749.554" y="-146.5" font-family="Helvetica,sans-Serif" font-size="10.00">tomographer/tools/signal</text>
<text text-anchor="middle" x="804.308" y="-136.5" font-family="Helvetica,sans-Serif" font-size="10.00">_status_report.h</text>
</a>
</g>
</g>
<!-- Node22&#45;&gt;Node24 -->
<g id="edge20" class="edge"><title>Node22&#45;&gt;Node24</title>
<path fill="none" stroke="midnightblue" d="M775.685,-191.736C782.068,-181.425 790.134,-168.396 796.075,-158.798"/>
<polygon fill="midnightblue" stroke="midnightblue" points="772.694,-189.919 770.406,-200.264 778.646,-193.603 772.694,-189.919"/>
</g>
</g>
</svg>
        <g id="navigator" transform="translate(0 0)" fill="#404254">
                <rect fill="#f2f5e9" fill-opacity="0.5" stroke="#606060" stroke-width=".5" x="0" y="0" width="60" height="60"/>
                <use id="zoomplus" xlink:href="#zoomPlus" x="17" y="9" onmousedown="handleZoom(evt,'in')"/>
                <use id="zoomminus" xlink:href="#zoomMin" x="42" y="9" onmousedown="handleZoom(evt,'out')"/>
                <use id="reset" xlink:href="#resetDef" x="30" y="36" onmousedown="handleReset()"/>
                <g id="arrowUp" xlink:href="#dirArrow" transform="translate(30 24)" onmousedown="handlePan(0,-1)">
                  <use xlink:href="#rim" fill="#404040">
                        <set attributeName="fill" to="#808080" begin="arrowUp.mouseover" end="arrowUp.mouseout"/>
                  </use>
                  <path fill="none" stroke="white" stroke-width="1.5" d="M0,-3.0v7 M-2.5,-0.5L0,-3.0L2.5,-0.5"/>
                </g>
                <g id="arrowRight" xlink:href="#dirArrow" transform="rotate(90) translate(36 -43)" onmousedown="handlePan(1,0)">
                  <use xlink:href="#rim" fill="#404040">
                        <set attributeName="fill" to="#808080" begin="arrowRight.mouseover" end="arrowRight.mouseout"/>
                  </use>
                  <path fill="none" stroke="white" stroke-width="1.5" d="M0,-3.0v7 M-2.5,-0.5L0,-3.0L2.5,-0.5"/>
                </g>
                <g id="arrowDown" xlink:href="#dirArrow" transform="rotate(180) translate(-30 -48)" onmousedown="handlePan(0,1)">
                  <use xlink:href="#rim" fill="#404040">
                        <set attributeName="fill" to="#808080" begin="arrowDown.mouseover" end="arrowDown.mouseout"/>
                  </use>
                  <path fill="none" stroke="white" stroke-width="1.5" d="M0,-3.0v7 M-2.5,-0.5L0,-3.0L2.5,-0.5"/>
                </g>
                <g id="arrowLeft" xlink:href="#dirArrow" transform="rotate(270) translate(-36 17)" onmousedown="handlePan(-1,0)">
                  <use xlink:href="#rim" fill="#404040">
                        <set attributeName="fill" to="#808080" begin="arrowLeft.mouseover" end="arrowLeft.mouseout"/>
                  </use>
                  <path fill="none" stroke="white" stroke-width="1.5" d="M0,-3.0v7 M-2.5,-0.5L0,-3.0L2.5,-0.5"/>
                </g>
        </g>
        <svg viewBox="0 0 15 15" width="100%" height="30px" preserveAspectRatio="xMaxYMin meet">
         <g id="arrow_out" transform="scale(0.3 0.3)">
          <a xlink:href="needownoperatornew_8h__dep__incl_org.svg" target="_base">
           <rect id="button" ry="5" rx="5" y="6" x="6" height="38" width="38"
                fill="#f2f5e9" fill-opacity="0.5" stroke="#606060" stroke-width="1.0"/>
           <path id="arrow"
             d="M 11.500037,31.436501 C 11.940474,20.09759 22.043105,11.32322 32.158766,21.979434 L 37.068811,17.246167 C 37.068811,17.246167 37.088388,32 37.088388,32 L 22.160133,31.978069 C 22.160133,31.978069 26.997745,27.140456 26.997745,27.140456 C 18.528582,18.264221 13.291696,25.230495 11.500037,31.436501 z"
             style="fill:#404040;"/>
          </a>
         </g>
        </svg>
</svg>
