<?xml version="1.0" encoding="UTF-8" standalone="no"?>
<!DOCTYPE svg PUBLIC "-//W3C//DTD SVG 1.1//EN"
 "http://www.w3.org/Graphics/SVG/1.1/DTD/svg11.dtd">
<!-- Generated by graphviz version 2.38.0 (20140413.2041)
 -->
<!-- Title: tomographer/densedm/param_rho_a.h Pages: 1 -->
<svg width="735pt" height="267pt"
 viewBox="0.00 0.00 734.58 267.00" xmlns="http://www.w3.org/2000/svg" xmlns:xlink="http://www.w3.org/1999/xlink">
<g id="graph0" class="graph" transform="scale(1 1) rotate(0) translate(4 263)">
<title>tomographer/densedm/param_rho_a.h</title>
<!-- Node0 -->
<g id="node1" class="node"><title>Node0</title>
<polygon fill="#bfbfbf" stroke="black" points="313.658,-230.5 313.658,-258.5 430.273,-258.5 430.273,-230.5 313.658,-230.5"/>
<text text-anchor="start" x="321.658" y="-246.5" font-family="Helvetica,sans-Serif" font-size="10.00">tomographer/densedm</text>
<text text-anchor="middle" x="371.965" y="-236.5" font-family="Helvetica,sans-Serif" font-size="10.00">/param_rho_a.h</text>
</g>
<!-- Node1 -->
<g id="node2" class="node"><title>Node1</title>
<polygon fill="none" stroke="#bfbfbf" points="606.951,-55.5 606.951,-73.5 672.98,-73.5 672.98,-55.5 606.951,-55.5"/>
<text text-anchor="middle" x="639.965" y="-61.5" font-family="Helvetica,sans-Serif" font-size="10.00">Eigen/Core</text>
</g>
<!-- Node0&#45;&gt;Node1 -->
<g id="edge1" class="edge"><title>Node0&#45;&gt;Node1</title>
<path fill="none" stroke="midnightblue" d="M366.385,-230.225C356.277,-203.831 338.569,-144.356 367.965,-110 399.826,-72.765 532.016,-81.9649 596.423,-73.9225"/>
<polygon fill="midnightblue" stroke="midnightblue" points="597.15,-77.3526 606.52,-72.408 596.112,-70.43 597.15,-77.3526"/>
</g>
<!-- Node2 -->
<g id="node3" class="node"><title>Node2</title>
<polygon fill="none" stroke="#bfbfbf" points="377.106,-110.5 377.106,-128.5 464.825,-128.5 464.825,-110.5 377.106,-110.5"/>
<text text-anchor="middle" x="420.965" y="-116.5" font-family="Helvetica,sans-Serif" font-size="10.00">Eigen/StdVector</text>
</g>
<!-- Node0&#45;&gt;Node2 -->
<g id="edge2" class="edge"><title>Node0&#45;&gt;Node2</title>
<path fill="none" stroke="midnightblue" d="M377.209,-230.337C386.07,-208.095 404.008,-163.067 413.944,-138.125"/>
<polygon fill="midnightblue" stroke="midnightblue" points="417.324,-139.096 417.774,-128.511 410.821,-136.506 417.324,-139.096"/>
</g>
<!-- Node3 -->
<g id="node4" class="node"><title>Node3</title>
<g id="a_node4"><a xlink:href="dmtypes_8h.html" target="_top" xlink:title="C++ types for describing dense density matrices in various parameterizations. ">
<polygon fill="none" stroke="black" points="77.6577,-165.5 77.6577,-193.5 194.273,-193.5 194.273,-165.5 77.6577,-165.5"/>
<text text-anchor="start" x="85.6577" y="-181.5" font-family="Helvetica,sans-Serif" font-size="10.00">tomographer/densedm</text>
<text text-anchor="middle" x="135.965" y="-171.5" font-family="Helvetica,sans-Serif" font-size="10.00">/dmtypes.h</text>
</a>
</g>
</g>
<!-- Node0&#45;&gt;Node3 -->
<g id="edge3" class="edge"><title>Node0&#45;&gt;Node3</title>
<path fill="none" stroke="midnightblue" d="M323.066,-230.446C285.727,-220.479 234.135,-206.706 194.582,-196.148"/>
<polygon fill="midnightblue" stroke="midnightblue" points="195.366,-192.735 184.802,-193.537 193.561,-199.498 195.366,-192.735"/>
</g>
<!-- Node7 -->
<g id="node8" class="node"><title>Node7</title>
<g id="a_node8"><a xlink:href="cxxutil_8h.html" target="_top" xlink:title="Some C++ utilities, with a tad of C++11 tricks. ">
<polygon fill="none" stroke="black" points="185.214,-110.5 185.214,-128.5 320.716,-128.5 320.716,-110.5 185.214,-110.5"/>
<text text-anchor="middle" x="252.965" y="-116.5" font-family="Helvetica,sans-Serif" font-size="10.00">tomographer/tools/cxxutil.h</text>
</a>
</g>
</g>
<!-- Node0&#45;&gt;Node7 -->
<g id="edge17" class="edge"><title>Node0&#45;&gt;Node7</title>
<path fill="none" stroke="midnightblue" d="M359.23,-230.337C337.036,-207.397 291.391,-160.218 267.804,-135.837"/>
<polygon fill="midnightblue" stroke="midnightblue" points="270.185,-133.264 260.716,-128.511 265.154,-138.132 270.185,-133.264"/>
</g>
<!-- Node14 -->
<g id="node15" class="node"><title>Node14</title>
<g id="a_node15"><a xlink:href="eigenutil_8h.html" target="_top" xlink:title="Basic utilities for dealing with Eigen matrices and other types. ">
<polygon fill="none" stroke="black" points="431.48,-170.5 431.48,-188.5 576.45,-188.5 576.45,-170.5 431.48,-170.5"/>
<text text-anchor="middle" x="503.965" y="-176.5" font-family="Helvetica,sans-Serif" font-size="10.00">tomographer/tools/eigenutil.h</text>
</a>
</g>
</g>
<!-- Node0&#45;&gt;Node14 -->
<g id="edge18" class="edge"><title>Node0&#45;&gt;Node14</title>
<path fill="none" stroke="midnightblue" d="M399.316,-230.446C422.442,-219.409 455.344,-203.706 478.053,-192.867"/>
<polygon fill="midnightblue" stroke="midnightblue" points="479.586,-196.014 487.103,-188.548 476.57,-189.697 479.586,-196.014"/>
</g>
<!-- Node18 -->
<g id="node19" class="node"><title>Node18</title>
<polygon fill="none" stroke="#bfbfbf" points="594.438,-165.5 594.438,-193.5 705.492,-193.5 705.492,-165.5 594.438,-165.5"/>
<text text-anchor="start" x="602.438" y="-181.5" font-family="Helvetica,sans-Serif" font-size="10.00">boost/math/constants</text>
<text text-anchor="middle" x="649.965" y="-171.5" font-family="Helvetica,sans-Serif" font-size="10.00">/constants.hpp</text>
</g>
<!-- Node0&#45;&gt;Node18 -->
<g id="edge24" class="edge"><title>Node0&#45;&gt;Node18</title>
<path fill="none" stroke="midnightblue" d="M429.567,-230.446C474.704,-220.217 537.523,-205.982 584.551,-195.324"/>
<polygon fill="midnightblue" stroke="midnightblue" points="585.355,-198.731 594.334,-193.107 583.808,-191.904 585.355,-198.731"/>
</g>
<!-- Node4 -->
<g id="node5" class="node"><title>Node4</title>
<polygon fill="none" stroke="#bfbfbf" points="18.8447,-55.5 18.8447,-73.5 67.0859,-73.5 67.0859,-55.5 18.8447,-55.5"/>
<text text-anchor="middle" x="42.9653" y="-61.5" font-family="Helvetica,sans-Serif" font-size="10.00">cstddef</text>
</g>
<!-- Node3&#45;&gt;Node4 -->
<g id="edge4" class="edge"><title>Node3&#45;&gt;Node4</title>
<path fill="none" stroke="midnightblue" d="M124.932,-165.094C107.771,-144.243 74.745,-104.114 56.2839,-81.6827"/>
<polygon fill="midnightblue" stroke="midnightblue" points="58.8304,-79.2691 49.7732,-73.772 53.4255,-83.7174 58.8304,-79.2691"/>
</g>
<!-- Node5 -->
<g id="node6" class="node"><title>Node5</title>
<polygon fill="none" stroke="#bfbfbf" points="84.8496,-55.5 84.8496,-73.5 133.081,-73.5 133.081,-55.5 84.8496,-55.5"/>
<text text-anchor="middle" x="108.965" y="-61.5" font-family="Helvetica,sans-Serif" font-size="10.00">cassert</text>
</g>
<!-- Node3&#45;&gt;Node5 -->
<g id="edge5" class="edge"><title>Node3&#45;&gt;Node5</title>
<path fill="none" stroke="midnightblue" d="M132.762,-165.094C127.912,-144.796 118.698,-106.231 113.268,-83.506"/>
<polygon fill="midnightblue" stroke="midnightblue" points="116.67,-82.6848 110.942,-73.772 109.862,-84.3116 116.67,-82.6848"/>
</g>
<!-- Node6 -->
<g id="node7" class="node"><title>Node6</title>
<polygon fill="none" stroke="#bfbfbf" points="0,-110.5 0,-128.5 69.9307,-128.5 69.9307,-110.5 0,-110.5"/>
<text text-anchor="middle" x="34.9653" y="-116.5" font-family="Helvetica,sans-Serif" font-size="10.00">Eigen/Eigen</text>
</g>
<!-- Node3&#45;&gt;Node6 -->
<g id="edge6" class="edge"><title>Node3&#45;&gt;Node6</title>
<path fill="none" stroke="midnightblue" d="M113.299,-165.484C96.8659,-156.047 74.7144,-143.326 58.1605,-133.82"/>
<polygon fill="midnightblue" stroke="midnightblue" points="59.5609,-130.588 49.1461,-128.643 56.075,-136.658 59.5609,-130.588"/>
</g>
<!-- Node3&#45;&gt;Node7 -->
<g id="edge7" class="edge"><title>Node3&#45;&gt;Node7</title>
<path fill="none" stroke="midnightblue" d="M162.222,-165.484C181.704,-155.826 208.122,-142.73 227.429,-133.159"/>
<polygon fill="midnightblue" stroke="midnightblue" points="229.133,-136.221 236.538,-128.643 226.024,-129.949 229.133,-136.221"/>
</g>
<!-- Node7&#45;&gt;Node1 -->
<g id="edge14" class="edge"><title>Node7&#45;&gt;Node1</title>
<path fill="none" stroke="midnightblue" d="M320.929,-111.185C388.414,-103.592 495.043,-90.7117 596.425,-74.1558"/>
<polygon fill="midnightblue" stroke="midnightblue" points="597.237,-77.5694 606.534,-72.4898 596.098,-70.6626 597.237,-77.5694"/>
</g>
<!-- Node7&#45;&gt;Node4 -->
<g id="edge9" class="edge"><title>Node7&#45;&gt;Node4</title>
<path fill="none" stroke="midnightblue" d="M220.653,-110.436C187.099,-102.049 132.827,-88.4463 76.8417,-74.2125"/>
<polygon fill="midnightblue" stroke="midnightblue" points="77.666,-70.8108 67.1118,-71.7367 75.9398,-77.5946 77.666,-70.8108"/>
</g>
<!-- Node7&#45;&gt;Node5 -->
<g id="edge8" class="edge"><title>Node7&#45;&gt;Node5</title>
<path fill="none" stroke="midnightblue" d="M231.095,-110.45C206.99,-101.578 168.002,-87.2288 140.575,-77.134"/>
<polygon fill="midnightblue" stroke="midnightblue" points="141.635,-73.7948 131.042,-73.6253 139.217,-80.364 141.635,-73.7948"/>
</g>
<!-- Node8 -->
<g id="node9" class="node"><title>Node8</title>
<polygon fill="none" stroke="#bfbfbf" points="464.793,-55.5 464.793,-73.5 509.138,-73.5 509.138,-55.5 464.793,-55.5"/>
<text text-anchor="middle" x="486.965" y="-61.5" font-family="Helvetica,sans-Serif" font-size="10.00">cstdlib</text>
</g>
<!-- Node7&#45;&gt;Node8 -->
<g id="edge10" class="edge"><title>Node7&#45;&gt;Node8</title>
<path fill="none" stroke="midnightblue" d="M292.401,-110.487C331.324,-102.438 392.753,-89.3609 454.706,-74.2152"/>
<polygon fill="midnightblue" stroke="midnightblue" points="455.777,-77.5562 464.65,-71.7671 454.104,-70.7591 455.777,-77.5562"/>
</g>
<!-- Node9 -->
<g id="node10" class="node"><title>Node9</title>
<polygon fill="none" stroke="#bfbfbf" points="526.899,-55.5 526.899,-73.5 589.032,-73.5 589.032,-55.5 526.899,-55.5"/>
<text text-anchor="middle" x="557.965" y="-61.5" font-family="Helvetica,sans-Serif" font-size="10.00">type_traits</text>
</g>
<!-- Node7&#45;&gt;Node9 -->
<g id="edge11" class="edge"><title>Node7&#45;&gt;Node9</title>
<path fill="none" stroke="midnightblue" d="M304.877,-110.459C356.193,-102.359 437.196,-89.1662 516.398,-74.2346"/>
<polygon fill="midnightblue" stroke="midnightblue" points="517.376,-77.6117 526.548,-72.3095 516.071,-70.7343 517.376,-77.6117"/>
</g>
<!-- Node10 -->
<g id="node11" class="node"><title>Node10</title>
<polygon fill="none" stroke="#bfbfbf" points="151.562,-55.5 151.562,-73.5 210.369,-73.5 210.369,-55.5 151.562,-55.5"/>
<text text-anchor="middle" x="180.965" y="-61.5" font-family="Helvetica,sans-Serif" font-size="10.00">exception</text>
</g>
<!-- Node7&#45;&gt;Node10 -->
<g id="edge12" class="edge"><title>Node7&#45;&gt;Node10</title>
<path fill="none" stroke="midnightblue" d="M242.03,-110.45C230.929,-102.279 213.515,-89.4604 200.12,-79.5996"/>
<polygon fill="midnightblue" stroke="midnightblue" points="202.132,-76.7348 192.003,-73.6253 197.982,-82.3722 202.132,-76.7348"/>
</g>
<!-- Node11 -->
<g id="node12" class="node"><title>Node11</title>
<polygon fill="none" stroke="#bfbfbf" points="228.564,-55.5 228.564,-73.5 287.367,-73.5 287.367,-55.5 228.564,-55.5"/>
<text text-anchor="middle" x="257.965" y="-61.5" font-family="Helvetica,sans-Serif" font-size="10.00">stdexcept</text>
</g>
<!-- Node7&#45;&gt;Node11 -->
<g id="edge13" class="edge"><title>Node7&#45;&gt;Node11</title>
<path fill="none" stroke="midnightblue" d="M253.747,-110.219C254.418,-103.099 255.411,-92.5775 256.264,-83.5289"/>
<polygon fill="midnightblue" stroke="midnightblue" points="259.751,-83.8341 257.206,-73.5496 252.782,-83.1766 259.751,-83.8341"/>
</g>
<!-- Node12 -->
<g id="node13" class="node"><title>Node12</title>
<g id="a_node13"><a xlink:href="conststr_8h.html" target="_top" xlink:title="A constexpr string type, suitable for basic compile&#45;time string processing. ">
<polygon fill="none" stroke="black" points="304.875,-55.5 304.875,-73.5 447.056,-73.5 447.056,-55.5 304.875,-55.5"/>
<text text-anchor="middle" x="375.965" y="-61.5" font-family="Helvetica,sans-Serif" font-size="10.00">tomographer/tools/conststr.h</text>
</a>
</g>
</g>
<!-- Node7&#45;&gt;Node12 -->
<g id="edge15" class="edge"><title>Node7&#45;&gt;Node12</title>
<path fill="none" stroke="midnightblue" d="M271.646,-110.45C291.875,-101.734 324.373,-87.7306 347.724,-77.6691"/>
<polygon fill="midnightblue" stroke="midnightblue" points="349.31,-80.7969 357.108,-73.6253 346.54,-74.3683 349.31,-80.7969"/>
</g>
<!-- Node13 -->
<g id="node14" class="node"><title>Node13</title>
<polygon fill="none" stroke="#bfbfbf" points="355.739,-0.5 355.739,-18.5 396.192,-18.5 396.192,-0.5 355.739,-0.5"/>
<text text-anchor="middle" x="375.965" y="-6.5" font-family="Helvetica,sans-Serif" font-size="10.00">string</text>
</g>
<!-- Node12&#45;&gt;Node13 -->
<g id="edge16" class="edge"><title>Node12&#45;&gt;Node13</title>
<path fill="none" stroke="midnightblue" d="M375.965,-55.2188C375.965,-48.1769 375.965,-37.8083 375.965,-28.8277"/>
<polygon fill="midnightblue" stroke="midnightblue" points="379.465,-28.5495 375.965,-18.5496 372.465,-28.5496 379.465,-28.5495"/>
</g>
<!-- Node14&#45;&gt;Node1 -->
<g id="edge21" class="edge"><title>Node14&#45;&gt;Node1</title>
<path fill="none" stroke="midnightblue" d="M551.112,-170.437C576.829,-163.633 607.164,-151.268 625.965,-129 636.548,-116.466 639.628,-97.7013 640.312,-83.8181"/>
<polygon fill="midnightblue" stroke="midnightblue" points="643.815,-83.5897 640.436,-73.5482 636.815,-83.5052 643.815,-83.5897"/>
</g>
<!-- Node14&#45;&gt;Node2 -->
<g id="edge23" class="edge"><title>Node14&#45;&gt;Node2</title>
<path fill="none" stroke="midnightblue" d="M492.425,-170.435C479.12,-161.138 457.019,-145.694 440.913,-134.439"/>
<polygon fill="midnightblue" stroke="midnightblue" points="442.877,-131.542 432.676,-128.683 438.868,-137.28 442.877,-131.542"/>
</g>
<!-- Node15 -->
<g id="node16" class="node"><title>Node15</title>
<polygon fill="none" stroke="#bfbfbf" points="673.347,-110.5 673.347,-128.5 726.583,-128.5 726.583,-110.5 673.347,-110.5"/>
<text text-anchor="middle" x="699.965" y="-116.5" font-family="Helvetica,sans-Serif" font-size="10.00">complex</text>
</g>
<!-- Node14&#45;&gt;Node15 -->
<g id="edge19" class="edge"><title>Node14&#45;&gt;Node15</title>
<path fill="none" stroke="midnightblue" d="M531.218,-170.435C565.689,-160.235 625.166,-142.634 663.516,-131.286"/>
<polygon fill="midnightblue" stroke="midnightblue" points="664.662,-134.597 673.258,-128.403 662.676,-127.885 664.662,-134.597"/>
</g>
<!-- Node16 -->
<g id="node17" class="node"><title>Node16</title>
<polygon fill="none" stroke="#bfbfbf" points="482.35,-110.5 482.35,-128.5 525.581,-128.5 525.581,-110.5 482.35,-110.5"/>
<text text-anchor="middle" x="503.965" y="-116.5" font-family="Helvetica,sans-Serif" font-size="10.00">vector</text>
</g>
<!-- Node14&#45;&gt;Node16 -->
<g id="edge20" class="edge"><title>Node14&#45;&gt;Node16</title>
<path fill="none" stroke="midnightblue" d="M503.965,-170.435C503.965,-162.389 503.965,-149.739 503.965,-139.185"/>
<polygon fill="midnightblue" stroke="midnightblue" points="507.465,-138.872 503.965,-128.872 500.465,-138.872 507.465,-138.872"/>
</g>
<!-- Node17 -->
<g id="node18" class="node"><title>Node17</title>
<polygon fill="none" stroke="#bfbfbf" points="543.335,-110.5 543.335,-128.5 616.596,-128.5 616.596,-110.5 543.335,-110.5"/>
<text text-anchor="middle" x="579.965" y="-116.5" font-family="Helvetica,sans-Serif" font-size="10.00">Eigen/Dense</text>
</g>
<!-- Node14&#45;&gt;Node17 -->
<g id="edge22" class="edge"><title>Node14&#45;&gt;Node17</title>
<path fill="none" stroke="midnightblue" d="M514.533,-170.435C526.534,-161.276 546.353,-146.152 561.039,-134.944"/>
<polygon fill="midnightblue" stroke="midnightblue" points="563.169,-137.721 568.995,-128.872 558.923,-132.156 563.169,-137.721"/>
</g>
</g>
</svg>
