<?xml version="1.0" encoding="UTF-8" standalone="no"?>
<!DOCTYPE svg PUBLIC "-//W3C//DTD SVG 1.1//EN"
 "http://www.w3.org/Graphics/SVG/1.1/DTD/svg11.dtd">
<!-- Generated by graphviz version 2.38.0 (20140413.2041)
 -->
<!-- Title: tomographer/mathtools/solveclyap.h Pages: 1 -->
<svg width="679pt" height="202pt"
 viewBox="0.00 0.00 679.42 202.00" xmlns="http://www.w3.org/2000/svg" xmlns:xlink="http://www.w3.org/1999/xlink">
<g id="graph0" class="graph" transform="scale(1 1) rotate(0) translate(4 198)">
<title>tomographer/mathtools/solveclyap.h</title>
<!-- Node0 -->
<g id="node1" class="node"><title>Node0</title>
<polygon fill="#bfbfbf" stroke="black" points="25.9117,-165.5 25.9117,-193.5 144.744,-193.5 144.744,-165.5 25.9117,-165.5"/>
<text text-anchor="start" x="33.9117" y="-181.5" font-family="Helvetica,sans-Serif" font-size="10.00">tomographer/mathtools</text>
<text text-anchor="middle" x="85.3277" y="-171.5" font-family="Helvetica,sans-Serif" font-size="10.00">/solveclyap.h</text>
</g>
<!-- Node1 -->
<g id="node2" class="node"><title>Node1</title>
<polygon fill="none" stroke="#bfbfbf" points="275.101,-0.5 275.101,-18.5 315.554,-18.5 315.554,-0.5 275.101,-0.5"/>
<text text-anchor="middle" x="295.328" y="-6.5" font-family="Helvetica,sans-Serif" font-size="10.00">string</text>
</g>
<!-- Node0&#45;&gt;Node1 -->
<g id="edge1" class="edge"><title>Node0&#45;&gt;Node1</title>
<path fill="none" stroke="midnightblue" d="M66.5735,-165.351C35.1481,-141.762 -21.7872,-91.3306 9.32773,-55 41.9165,-16.9485 197.252,-11.1762 264.347,-10.4838"/>
<polygon fill="midnightblue" stroke="midnightblue" points="264.721,-13.9813 274.696,-10.4107 264.671,-6.98149 264.721,-13.9813"/>
</g>
<!-- Node2 -->
<g id="node3" class="node"><title>Node2</title>
<polygon fill="none" stroke="#bfbfbf" points="18.3131,-55.5 18.3131,-73.5 84.3424,-73.5 84.3424,-55.5 18.3131,-55.5"/>
<text text-anchor="middle" x="51.3277" y="-61.5" font-family="Helvetica,sans-Serif" font-size="10.00">Eigen/Core</text>
</g>
<!-- Node0&#45;&gt;Node2 -->
<g id="edge2" class="edge"><title>Node0&#45;&gt;Node2</title>
<path fill="none" stroke="midnightblue" d="M79.6724,-165.225C75.6054,-155.354 70.1809,-141.49 66.3277,-129 61.6789,-113.93 57.6502,-96.4716 54.942,-83.6788"/>
<polygon fill="midnightblue" stroke="midnightblue" points="58.3569,-82.9083 52.9196,-73.8151 51.4996,-84.3143 58.3569,-82.9083"/>
</g>
<!-- Node3 -->
<g id="node4" class="node"><title>Node3</title>
<polygon fill="none" stroke="#bfbfbf" points="74.9093,-110.5 74.9093,-128.5 173.746,-128.5 173.746,-110.5 74.9093,-110.5"/>
<text text-anchor="middle" x="124.328" y="-116.5" font-family="Helvetica,sans-Serif" font-size="10.00">Eigen/Eigenvalues</text>
</g>
<!-- Node0&#45;&gt;Node3 -->
<g id="edge3" class="edge"><title>Node0&#45;&gt;Node3</title>
<path fill="none" stroke="midnightblue" d="M94.1774,-165.339C99.7819,-157.004 107.079,-146.151 113.091,-137.211"/>
<polygon fill="midnightblue" stroke="midnightblue" points="116.09,-139.023 118.766,-128.771 110.281,-135.117 116.09,-139.023"/>
</g>
<!-- Node4 -->
<g id="node5" class="node"><title>Node4</title>
<g id="a_node5"><a xlink:href="cxxutil_8h.html" target="_top" xlink:title="Some C++ utilities, with a tad of C++11 tricks. ">
<polygon fill="none" stroke="black" points="191.577,-110.5 191.577,-128.5 327.079,-128.5 327.079,-110.5 191.577,-110.5"/>
<text text-anchor="middle" x="259.328" y="-116.5" font-family="Helvetica,sans-Serif" font-size="10.00">tomographer/tools/cxxutil.h</text>
</a>
</g>
</g>
<!-- Node0&#45;&gt;Node4 -->
<g id="edge4" class="edge"><title>Node0&#45;&gt;Node4</title>
<path fill="none" stroke="midnightblue" d="M124.377,-165.484C154.761,-155.356 196.493,-141.445 225.473,-131.785"/>
<polygon fill="midnightblue" stroke="midnightblue" points="226.772,-135.041 235.152,-128.559 224.558,-128.401 226.772,-135.041"/>
</g>
<!-- Node4&#45;&gt;Node2 -->
<g id="edge11" class="edge"><title>Node4&#45;&gt;Node2</title>
<path fill="none" stroke="midnightblue" d="M227.737,-110.45C191.668,-101.26 132.532,-86.1916 92.7853,-76.0637"/>
<polygon fill="midnightblue" stroke="midnightblue" points="93.4289,-72.6159 82.8743,-73.5383 91.7004,-79.3992 93.4289,-72.6159"/>
</g>
<!-- Node5 -->
<g id="node6" class="node"><title>Node5</title>
<polygon fill="none" stroke="#bfbfbf" points="102.212,-55.5 102.212,-73.5 150.443,-73.5 150.443,-55.5 102.212,-55.5"/>
<text text-anchor="middle" x="126.328" y="-61.5" font-family="Helvetica,sans-Serif" font-size="10.00">cassert</text>
</g>
<!-- Node4&#45;&gt;Node5 -->
<g id="edge5" class="edge"><title>Node4&#45;&gt;Node5</title>
<path fill="none" stroke="midnightblue" d="M239.128,-110.45C217.059,-101.656 181.486,-87.4802 156.191,-77.4006"/>
<polygon fill="midnightblue" stroke="midnightblue" points="157.303,-74.0759 146.718,-73.6253 154.712,-80.5786 157.303,-74.0759"/>
</g>
<!-- Node6 -->
<g id="node7" class="node"><title>Node6</title>
<polygon fill="none" stroke="#bfbfbf" points="168.207,-55.5 168.207,-73.5 216.448,-73.5 216.448,-55.5 168.207,-55.5"/>
<text text-anchor="middle" x="192.328" y="-61.5" font-family="Helvetica,sans-Serif" font-size="10.00">cstddef</text>
</g>
<!-- Node4&#45;&gt;Node6 -->
<g id="edge6" class="edge"><title>Node4&#45;&gt;Node6</title>
<path fill="none" stroke="midnightblue" d="M249.152,-110.45C238.92,-102.357 222.925,-89.7042 210.509,-79.8822"/>
<polygon fill="midnightblue" stroke="midnightblue" points="212.614,-77.0844 202.599,-73.6253 208.271,-82.5744 212.614,-77.0844"/>
</g>
<!-- Node7 -->
<g id="node8" class="node"><title>Node7</title>
<polygon fill="none" stroke="#bfbfbf" points="234.155,-55.5 234.155,-73.5 278.5,-73.5 278.5,-55.5 234.155,-55.5"/>
<text text-anchor="middle" x="256.328" y="-61.5" font-family="Helvetica,sans-Serif" font-size="10.00">cstdlib</text>
</g>
<!-- Node4&#45;&gt;Node7 -->
<g id="edge7" class="edge"><title>Node4&#45;&gt;Node7</title>
<path fill="none" stroke="midnightblue" d="M258.859,-110.219C258.46,-103.177 257.873,-92.8083 257.365,-83.8277"/>
<polygon fill="midnightblue" stroke="midnightblue" points="260.843,-83.3357 256.783,-73.5496 253.854,-83.7314 260.843,-83.3357"/>
</g>
<!-- Node8 -->
<g id="node9" class="node"><title>Node8</title>
<polygon fill="none" stroke="#bfbfbf" points="296.261,-55.5 296.261,-73.5 358.394,-73.5 358.394,-55.5 296.261,-55.5"/>
<text text-anchor="middle" x="327.328" y="-61.5" font-family="Helvetica,sans-Serif" font-size="10.00">type_traits</text>
</g>
<!-- Node4&#45;&gt;Node8 -->
<g id="edge8" class="edge"><title>Node4&#45;&gt;Node8</title>
<path fill="none" stroke="midnightblue" d="M269.655,-110.45C280.04,-102.357 296.273,-89.7042 308.875,-79.8822"/>
<polygon fill="midnightblue" stroke="midnightblue" points="311.167,-82.5333 316.903,-73.6253 306.864,-77.0122 311.167,-82.5333"/>
</g>
<!-- Node9 -->
<g id="node10" class="node"><title>Node9</title>
<polygon fill="none" stroke="#bfbfbf" points="375.924,-55.5 375.924,-73.5 434.732,-73.5 434.732,-55.5 375.924,-55.5"/>
<text text-anchor="middle" x="405.328" y="-61.5" font-family="Helvetica,sans-Serif" font-size="10.00">exception</text>
</g>
<!-- Node4&#45;&gt;Node9 -->
<g id="edge9" class="edge"><title>Node4&#45;&gt;Node9</title>
<path fill="none" stroke="midnightblue" d="M281.502,-110.45C305.942,-101.578 345.471,-87.2288 373.279,-77.134"/>
<polygon fill="midnightblue" stroke="midnightblue" points="374.739,-80.3276 382.945,-73.6253 372.351,-73.7477 374.739,-80.3276"/>
</g>
<!-- Node10 -->
<g id="node11" class="node"><title>Node10</title>
<polygon fill="none" stroke="#bfbfbf" points="452.926,-55.5 452.926,-73.5 511.729,-73.5 511.729,-55.5 452.926,-55.5"/>
<text text-anchor="middle" x="482.328" y="-61.5" font-family="Helvetica,sans-Serif" font-size="10.00">stdexcept</text>
</g>
<!-- Node4&#45;&gt;Node10 -->
<g id="edge10" class="edge"><title>Node4&#45;&gt;Node10</title>
<path fill="none" stroke="midnightblue" d="M293.197,-110.45C333.381,-100.9 400.273,-85.0019 442.79,-74.8968"/>
<polygon fill="midnightblue" stroke="midnightblue" points="443.862,-78.2397 452.782,-72.5222 442.243,-71.4294 443.862,-78.2397"/>
</g>
<!-- Node11 -->
<g id="node12" class="node"><title>Node11</title>
<g id="a_node12"><a xlink:href="conststr_8h.html" target="_top" xlink:title="A constexpr string type, suitable for basic compile&#45;time string processing. ">
<polygon fill="none" stroke="black" points="529.237,-55.5 529.237,-73.5 671.419,-73.5 671.419,-55.5 529.237,-55.5"/>
<text text-anchor="middle" x="600.328" y="-61.5" font-family="Helvetica,sans-Serif" font-size="10.00">tomographer/tools/conststr.h</text>
</a>
</g>
</g>
<!-- Node4&#45;&gt;Node11 -->
<g id="edge12" class="edge"><title>Node4&#45;&gt;Node11</title>
<path fill="none" stroke="midnightblue" d="M311.118,-110.45C372.133,-100.967 473.412,-85.2258 538.488,-75.1115"/>
<polygon fill="midnightblue" stroke="midnightblue" points="539.266,-78.5327 548.61,-73.5383 538.191,-71.6157 539.266,-78.5327"/>
</g>
<!-- Node11&#45;&gt;Node1 -->
<g id="edge13" class="edge"><title>Node11&#45;&gt;Node1</title>
<path fill="none" stroke="midnightblue" d="M554.005,-55.4504C490.731,-44.4554 379.046,-25.0478 325.548,-15.7513"/>
<polygon fill="midnightblue" stroke="midnightblue" points="326.107,-12.2962 315.655,-14.0324 324.909,-19.1928 326.107,-12.2962"/>
</g>
</g>
</svg>
