<?xml version="1.0" encoding="UTF-8" standalone="no"?>
<!DOCTYPE svg PUBLIC "-//W3C//DTD SVG 1.1//EN"
 "http://www.w3.org/Graphics/SVG/1.1/DTD/svg11.dtd">
<!-- Generated by graphviz version 2.38.0 (20140413.2041)
 -->
<!-- Title: Tomographer::MHRWTasks::CDataBase&lt; IterCountIntType_, StepRealType_ &gt; Pages: 1 -->
<svg width="192pt" height="302pt"
 viewBox="0.00 0.00 191.72 302.00" xmlns="http://www.w3.org/2000/svg" xmlns:xlink="http://www.w3.org/1999/xlink">
<g id="graph0" class="graph" transform="scale(1 1) rotate(0) translate(4 298)">
<title>Tomographer::MHRWTasks::CDataBase&lt; IterCountIntType_, StepRealType_ &gt;</title>
<!-- Node2 -->
<g id="node1" class="node"><title>Node2</title>
<polygon fill="#bfbfbf" stroke="black" points="12.9004,-0.5 12.9004,-38.5 168.148,-38.5 168.148,-0.5 12.9004,-0.5"/>
<text text-anchor="start" x="20.9004" y="-26.5" font-family="Helvetica,sans-Serif" font-size="10.00">Tomographer::MHRWTasks</text>
<text text-anchor="start" x="20.9004" y="-16.5" font-family="Helvetica,sans-Serif" font-size="10.00">::CDataBase&lt; IterCountIntType</text>
<text text-anchor="middle" x="90.5244" y="-6.5" font-family="Helvetica,sans-Serif" font-size="10.00">_, StepRealType_ &gt;</text>
</g>
<!-- Node3 -->
<g id="node2" class="node"><title>Node3</title>
<g id="a_node2"><a xlink:href="struct_tomographer_1_1_m_h_r_w_params.html" target="_top" xlink:title="Tomographer::MHRWParams\l\&lt; IterCountIntType, StepReal\lType \&gt;">
<polygon fill="none" stroke="black" points="17.041,-85.5 17.041,-123.5 164.008,-123.5 164.008,-85.5 17.041,-85.5"/>
<text text-anchor="start" x="25.041" y="-111.5" font-family="Helvetica,sans-Serif" font-size="10.00">Tomographer::MHRWParams</text>
<text text-anchor="start" x="25.041" y="-101.5" font-family="Helvetica,sans-Serif" font-size="10.00">&lt; IterCountIntType, StepReal</text>
<text text-anchor="middle" x="90.5244" y="-91.5" font-family="Helvetica,sans-Serif" font-size="10.00">Type &gt;</text>
</a>
</g>
</g>
<!-- Node3&#45;&gt;Node2 -->
<g id="edge1" class="edge"><title>Node3&#45;&gt;Node2</title>
<path fill="none" stroke="#9a32cd" stroke-dasharray="5,2" d="M90.5244,-75.4137C90.5244,-63.3112 90.5244,-49.5034 90.5244,-38.7612"/>
<polygon fill="#9a32cd" stroke="#9a32cd" points="87.0245,-75.4902 90.5244,-85.4902 94.0245,-75.4903 87.0245,-75.4902"/>
<text text-anchor="middle" x="123.588" y="-59" font-family="Helvetica,sans-Serif" font-size="10.00"> mhrw_params</text>
</g>
<!-- Node4 -->
<g id="node3" class="node"><title>Node4</title>
<g id="a_node3"><a xlink:href="struct_tomographer_1_1_m_h_r_w_params.html" target="_top" xlink:title="Specify the parameters of a Metropolis&#45;Hastings random walk. ">
<polygon fill="none" stroke="black" points="4.41162,-180.5 4.41162,-208.5 176.637,-208.5 176.637,-180.5 4.41162,-180.5"/>
<text text-anchor="start" x="12.4116" y="-196.5" font-family="Helvetica,sans-Serif" font-size="10.00">Tomographer::MHRWParams</text>
<text text-anchor="middle" x="90.5244" y="-186.5" font-family="Helvetica,sans-Serif" font-size="10.00">&lt; CountIntType_, StepRealType_ &gt;</text>
</a>
</g>
</g>
<!-- Node4&#45;&gt;Node3 -->
<g id="edge2" class="edge"><title>Node4&#45;&gt;Node3</title>
<path fill="none" stroke="orange" stroke-dasharray="5,2" d="M90.5244,-169.898C90.5244,-155.346 90.5244,-136.972 90.5244,-123.579"/>
<polygon fill="orange" stroke="orange" points="87.0245,-170.135 90.5244,-180.135 94.0245,-170.135 87.0245,-170.135"/>
<text text-anchor="start" x="90.5244" y="-154" font-family="Helvetica,sans-Serif" font-size="10.00"> &lt; IterCountIntType,</text>
<text text-anchor="middle" x="134.58" y="-144" font-family="Helvetica,sans-Serif" font-size="10.00"> StepRealType &gt;</text>
</g>
<!-- Node5 -->
<g id="node4" class="node"><title>Node5</title>
<polygon fill="none" stroke="#bfbfbf" points="0,-275.5 0,-293.5 81.0488,-293.5 81.0488,-275.5 0,-275.5"/>
<text text-anchor="middle" x="40.5244" y="-281.5" font-family="Helvetica,sans-Serif" font-size="10.00">CountIntType_</text>
</g>
<!-- Node5&#45;&gt;Node4 -->
<g id="edge3" class="edge"><title>Node5&#45;&gt;Node4</title>
<path fill="none" stroke="#9a32cd" stroke-dasharray="5,2" d="M50.132,-266.591C59.7209,-249.714 74.2557,-224.133 83.0254,-208.698"/>
<polygon fill="#9a32cd" stroke="#9a32cd" points="47.0357,-264.955 45.1387,-275.379 53.1219,-268.413 47.0357,-264.955"/>
<text text-anchor="middle" x="91.5391" y="-249" font-family="Helvetica,sans-Serif" font-size="10.00"> n_run</text>
<text text-anchor="middle" x="91.5391" y="-239" font-family="Helvetica,sans-Serif" font-size="10.00">n_therm</text>
<text text-anchor="middle" x="91.5391" y="-229" font-family="Helvetica,sans-Serif" font-size="10.00">n_sweep</text>
</g>
<!-- Node6 -->
<g id="node5" class="node"><title>Node6</title>
<polygon fill="none" stroke="#bfbfbf" points="99.3325,-275.5 99.3325,-293.5 183.716,-293.5 183.716,-275.5 99.3325,-275.5"/>
<text text-anchor="middle" x="141.524" y="-281.5" font-family="Helvetica,sans-Serif" font-size="10.00">StepRealType_</text>
</g>
<!-- Node6&#45;&gt;Node4 -->
<g id="edge4" class="edge"><title>Node6&#45;&gt;Node4</title>
<path fill="none" stroke="#9a32cd" stroke-dasharray="5,2" d="M134.679,-265.825C129.945,-254.396 123.143,-239.396 115.524,-227 111.649,-220.695 106.697,-214.211 102.224,-208.776"/>
<polygon fill="#9a32cd" stroke="#9a32cd" points="131.442,-267.157 138.409,-275.139 137.94,-264.555 131.442,-267.157"/>
<text text-anchor="middle" x="153.037" y="-239" font-family="Helvetica,sans-Serif" font-size="10.00"> step_size</text>
</g>
</g>
</svg>
