<?xml version="1.0" encoding="UTF-8" standalone="no"?>
<!DOCTYPE svg PUBLIC "-//W3C//DTD SVG 1.1//EN"
 "http://www.w3.org/Graphics/SVG/1.1/DTD/svg11.dtd">
<!-- Generated by graphviz version 2.38.0 (20140413.2041)
 -->
<!-- Title: Tomographer::UniformBinsHistogramParams&lt; Scalar_ &gt; Pages: 1 -->
<svg width="512pt" height="218pt"
 viewBox="0.00 0.00 511.73 218.00" xmlns="http://www.w3.org/2000/svg" xmlns:xlink="http://www.w3.org/1999/xlink">
<g id="graph0" class="graph" transform="scale(1 1) rotate(0) translate(4 214)">
<title>Tomographer::UniformBinsHistogramParams&lt; Scalar_ &gt;</title>
<!-- Node0 -->
<g id="node1" class="node"><title>Node0</title>
<polygon fill="#bfbfbf" stroke="black" points="0,-90.5 0,-118.5 147.162,-118.5 147.162,-90.5 0,-90.5"/>
<text text-anchor="start" x="8" y="-106.5" font-family="Helvetica,sans-Serif" font-size="10.00">Tomographer::UniformBins</text>
<text text-anchor="middle" x="73.5811" y="-96.5" font-family="Helvetica,sans-Serif" font-size="10.00">HistogramParams&lt; Scalar_ &gt;</text>
</g>
<!-- Node1 -->
<g id="node2" class="node"><title>Node1</title>
<g id="a_node2"><a xlink:href="struct_tomographer_1_1_uniform_bins_histogram_params.html" target="_top" xlink:title="Tomographer::UniformBins\lHistogramParams\&lt; SimpleScaled\lHistogramType ::Scalar \&gt;">
<polygon fill="none" stroke="black" points="330.452,-171.5 330.452,-209.5 496.232,-209.5 496.232,-171.5 330.452,-171.5"/>
<text text-anchor="start" x="338.452" y="-197.5" font-family="Helvetica,sans-Serif" font-size="10.00">Tomographer::UniformBins</text>
<text text-anchor="start" x="338.452" y="-187.5" font-family="Helvetica,sans-Serif" font-size="10.00">HistogramParams&lt; SimpleScaled</text>
<text text-anchor="middle" x="413.342" y="-177.5" font-family="Helvetica,sans-Serif" font-size="10.00">HistogramType ::Scalar &gt;</text>
</a>
</g>
</g>
<!-- Node0&#45;&gt;Node1 -->
<g id="edge1" class="edge"><title>Node0&#45;&gt;Node1</title>
<path fill="none" stroke="orange" stroke-dasharray="5,2" d="M108.872,-123.484C125.446,-131.95 145.885,-141.373 165.162,-147.5 218.92,-164.585 281.541,-175.389 330.303,-181.893"/>
<polygon fill="orange" stroke="orange" points="110.082,-120.168 99.5974,-118.643 106.842,-126.373 110.082,-120.168"/>
<text text-anchor="start" x="165.162" y="-189.5" font-family="Helvetica,sans-Serif" font-size="10.00"> &lt; SimpleScaledHistogramType</text>
<text text-anchor="middle" x="235.057" y="-179.5" font-family="Helvetica,sans-Serif" font-size="10.00"> ::Scalar &gt;</text>
</g>
<!-- Node2 -->
<g id="node3" class="node"><title>Node2</title>
<g id="a_node3"><a xlink:href="struct_tomographer_1_1_uniform_bins_histogram_params.html" target="_top" xlink:title="Tomographer::UniformBins\lHistogramParams\&lt; ScaledHistogram\lType ::Scalar \&gt;">
<polygon fill="none" stroke="black" points="322.952,-114.5 322.952,-152.5 503.732,-152.5 503.732,-114.5 322.952,-114.5"/>
<text text-anchor="start" x="330.952" y="-140.5" font-family="Helvetica,sans-Serif" font-size="10.00">Tomographer::UniformBins</text>
<text text-anchor="start" x="330.952" y="-130.5" font-family="Helvetica,sans-Serif" font-size="10.00">HistogramParams&lt; ScaledHistogram</text>
<text text-anchor="middle" x="413.342" y="-120.5" font-family="Helvetica,sans-Serif" font-size="10.00">Type ::Scalar &gt;</text>
</a>
</g>
</g>
<!-- Node0&#45;&gt;Node2 -->
<g id="edge2" class="edge"><title>Node0&#45;&gt;Node2</title>
<path fill="none" stroke="orange" stroke-dasharray="5,2" d="M157.604,-111.628C207.701,-115.93 271.529,-121.41 322.761,-125.809"/>
<polygon fill="orange" stroke="orange" points="157.717,-108.125 147.454,-110.757 157.118,-115.1 157.717,-108.125"/>
<text text-anchor="start" x="180.445" y="-135.5" font-family="Helvetica,sans-Serif" font-size="10.00"> &lt; ScaledHistogramType</text>
<text text-anchor="middle" x="235.057" y="-125.5" font-family="Helvetica,sans-Serif" font-size="10.00"> ::Scalar &gt;</text>
</g>
<!-- Node3 -->
<g id="node4" class="node"><title>Node3</title>
<g id="a_node4"><a xlink:href="struct_tomographer_1_1_uniform_bins_histogram_params.html" target="_top" xlink:title="Tomographer::UniformBins\lHistogramParams\&lt; HistogramType\l_::Scalar \&gt;">
<polygon fill="none" stroke="black" points="327.398,-57.5 327.398,-95.5 499.287,-95.5 499.287,-57.5 327.398,-57.5"/>
<text text-anchor="start" x="335.398" y="-83.5" font-family="Helvetica,sans-Serif" font-size="10.00">Tomographer::UniformBins</text>
<text text-anchor="start" x="335.398" y="-73.5" font-family="Helvetica,sans-Serif" font-size="10.00">HistogramParams&lt; HistogramType</text>
<text text-anchor="middle" x="413.342" y="-63.5" font-family="Helvetica,sans-Serif" font-size="10.00">_::Scalar &gt;</text>
</a>
</g>
</g>
<!-- Node0&#45;&gt;Node3 -->
<g id="edge3" class="edge"><title>Node0&#45;&gt;Node3</title>
<path fill="none" stroke="orange" stroke-dasharray="5,2" d="M157.575,-97.6199C209.191,-93.341 275.393,-87.8529 327.375,-83.5437"/>
<polygon fill="orange" stroke="orange" points="157.131,-94.1446 147.454,-98.4589 157.709,-101.121 157.131,-94.1446"/>
<text text-anchor="middle" x="235.057" y="-98.5" font-family="Helvetica,sans-Serif" font-size="10.00"> &lt; HistogramType_::Scalar &gt;</text>
</g>
<!-- Node4 -->
<g id="node5" class="node"><title>Node4</title>
<g id="a_node5"><a xlink:href="struct_tomographer_1_1_uniform_bins_histogram_params.html" target="_top" xlink:title="Tomographer::UniformBins\lHistogramParams\&lt; HistogramType\l ::Scalar \&gt;">
<polygon fill="none" stroke="black" points="327.398,-0.5 327.398,-38.5 499.287,-38.5 499.287,-0.5 327.398,-0.5"/>
<text text-anchor="start" x="335.398" y="-26.5" font-family="Helvetica,sans-Serif" font-size="10.00">Tomographer::UniformBins</text>
<text text-anchor="start" x="335.398" y="-16.5" font-family="Helvetica,sans-Serif" font-size="10.00">HistogramParams&lt; HistogramType</text>
<text text-anchor="middle" x="413.342" y="-6.5" font-family="Helvetica,sans-Serif" font-size="10.00"> ::Scalar &gt;</text>
</a>
</g>
</g>
<!-- Node0&#45;&gt;Node4 -->
<g id="edge4" class="edge"><title>Node0&#45;&gt;Node4</title>
<path fill="none" stroke="orange" stroke-dasharray="5,2" d="M119.204,-86.8166C133.718,-81.4504 149.995,-75.8345 165.162,-71.5 218.395,-56.2872 279.24,-43.4322 327.242,-34.3095"/>
<polygon fill="orange" stroke="orange" points="117.603,-83.6792 109.473,-90.473 120.065,-90.2319 117.603,-83.6792"/>
<text text-anchor="middle" x="235.057" y="-73.5" font-family="Helvetica,sans-Serif" font-size="10.00"> &lt; HistogramType ::Scalar &gt;</text>
</g>
</g>
</svg>
