<?xml version="1.0" encoding="UTF-8" standalone="no"?>
<!DOCTYPE svg PUBLIC "-//W3C//DTD SVG 1.1//EN"
 "http://www.w3.org/Graphics/SVG/1.1/DTD/svg11.dtd">
<!-- Generated by graphviz version 2.38.0 (20140413.2041)
 -->
<!-- Title: Tomographer::MHRWTasks::MHRandomWalkTaskResult&lt; MHRWStatsCollectorResultType_, IterCountIntType, StepRealType &gt; Pages: 1 -->
<svg width="637pt" height="107pt"
 viewBox="0.00 0.00 636.96 107.00" xmlns="http://www.w3.org/2000/svg" xmlns:xlink="http://www.w3.org/1999/xlink">
<g id="graph0" class="graph" transform="scale(1 1) rotate(0) translate(4 103)">
<title>Tomographer::MHRWTasks::MHRandomWalkTaskResult&lt; MHRWStatsCollectorResultType_, IterCountIntType, StepRealType &gt;</title>
<!-- Node4 -->
<g id="node1" class="node"><title>Node4</title>
<polygon fill="#bfbfbf" stroke="black" points="450.914,-36.5 450.914,-84.5 628.965,-84.5 628.965,-36.5 450.914,-36.5"/>
<text text-anchor="start" x="458.914" y="-72.5" font-family="Helvetica,sans-Serif" font-size="10.00">Tomographer::MHRWTasks</text>
<text text-anchor="start" x="458.914" y="-62.5" font-family="Helvetica,sans-Serif" font-size="10.00">::MHRandomWalkTaskResult</text>
<text text-anchor="start" x="458.914" y="-52.5" font-family="Helvetica,sans-Serif" font-size="10.00">&lt; MHRWStatsCollectorResultType</text>
<text text-anchor="middle" x="539.939" y="-42.5" font-family="Helvetica,sans-Serif" font-size="10.00">_, IterCountIntType, StepRealType &gt;</text>
</g>
<!-- Node5 -->
<g id="node2" class="node"><title>Node5</title>
<polygon fill="none" stroke="#bfbfbf" points="165.408,-60.5 165.408,-98.5 348.786,-98.5 348.786,-60.5 165.408,-60.5"/>
<text text-anchor="start" x="173.408" y="-86.5" font-family="Helvetica,sans-Serif" font-size="10.00">Tools::NeedOwnOperatorNew</text>
<text text-anchor="start" x="173.408" y="-76.5" font-family="Helvetica,sans-Serif" font-size="10.00">::ProviderType&lt; MHRWStatsCollector</text>
<text text-anchor="middle" x="257.097" y="-66.5" font-family="Helvetica,sans-Serif" font-size="10.00">ResultType_ &gt;</text>
</g>
<!-- Node5&#45;&gt;Node4 -->
<g id="edge1" class="edge"><title>Node5&#45;&gt;Node4</title>
<path fill="none" stroke="midnightblue" d="M358.97,-72.6756C389.016,-70.6429 421.691,-68.4323 450.853,-66.4594"/>
<polygon fill="midnightblue" stroke="midnightblue" points="358.632,-69.1904 348.891,-73.3575 359.104,-76.1744 358.632,-69.1904"/>
</g>
<!-- Node6 -->
<g id="node3" class="node"><title>Node6</title>
<g id="a_node3"><a xlink:href="struct_tomographer_1_1_m_h_r_w_params.html" target="_top" xlink:title="Specify the parameters of a Metropolis&#45;Hastings random walk. ">
<polygon fill="none" stroke="black" points="170.984,-13.5 170.984,-41.5 343.21,-41.5 343.21,-13.5 170.984,-13.5"/>
<text text-anchor="start" x="178.984" y="-29.5" font-family="Helvetica,sans-Serif" font-size="10.00">Tomographer::MHRWParams</text>
<text text-anchor="middle" x="257.097" y="-19.5" font-family="Helvetica,sans-Serif" font-size="10.00">&lt; CountIntType_, StepRealType_ &gt;</text>
</a>
</g>
</g>
<!-- Node6&#45;&gt;Node4 -->
<g id="edge2" class="edge"><title>Node6&#45;&gt;Node4</title>
<path fill="none" stroke="#9a32cd" stroke-dasharray="5,2" d="M353.568,-38.7181C384.957,-42.4065 419.697,-46.4886 450.538,-50.1126"/>
<polygon fill="#9a32cd" stroke="#9a32cd" points="353.843,-35.2265 343.503,-37.5355 353.026,-42.1787 353.843,-35.2265"/>
<text text-anchor="middle" x="399.85" y="-49.5" font-family="Helvetica,sans-Serif" font-size="10.00"> mhrw_params</text>
</g>
<!-- Node7 -->
<g id="node4" class="node"><title>Node7</title>
<polygon fill="none" stroke="#bfbfbf" points="1.66748,-37.5 1.66748,-55.5 82.7163,-55.5 82.7163,-37.5 1.66748,-37.5"/>
<text text-anchor="middle" x="42.1919" y="-43.5" font-family="Helvetica,sans-Serif" font-size="10.00">CountIntType_</text>
</g>
<!-- Node7&#45;&gt;Node6 -->
<g id="edge3" class="edge"><title>Node7&#45;&gt;Node6</title>
<path fill="none" stroke="#9a32cd" stroke-dasharray="5,2" d="M92.7014,-42.0817C115.954,-40.0066 144.342,-37.4732 170.892,-35.1038"/>
<polygon fill="#9a32cd" stroke="#9a32cd" points="92.3881,-38.5957 82.7388,-42.9708 93.0103,-45.5679 92.3881,-38.5957"/>
<text text-anchor="middle" x="124.896" y="-62.5" font-family="Helvetica,sans-Serif" font-size="10.00"> n_run</text>
<text text-anchor="middle" x="124.896" y="-52.5" font-family="Helvetica,sans-Serif" font-size="10.00">n_therm</text>
<text text-anchor="middle" x="124.896" y="-42.5" font-family="Helvetica,sans-Serif" font-size="10.00">n_sweep</text>
</g>
<!-- Node8 -->
<g id="node5" class="node"><title>Node8</title>
<polygon fill="none" stroke="#bfbfbf" points="0,-0.5 0,-18.5 84.3838,-18.5 84.3838,-0.5 0,-0.5"/>
<text text-anchor="middle" x="42.1919" y="-6.5" font-family="Helvetica,sans-Serif" font-size="10.00">StepRealType_</text>
</g>
<!-- Node8&#45;&gt;Node6 -->
<g id="edge4" class="edge"><title>Node8&#45;&gt;Node6</title>
<path fill="none" stroke="#9a32cd" stroke-dasharray="5,2" d="M94.7527,-11.2469C111.558,-12.0104 130.292,-13.0676 147.408,-14.5 154.983,-15.1339 162.845,-15.8871 170.718,-16.7069"/>
<polygon fill="#9a32cd" stroke="#9a32cd" points="94.7111,-7.74197 84.5698,-10.8088 94.4101,-14.7355 94.7111,-7.74197"/>
<text text-anchor="middle" x="124.896" y="-16.5" font-family="Helvetica,sans-Serif" font-size="10.00"> step_size</text>
</g>
</g>
</svg>
