<?xml version="1.0" encoding="UTF-8" standalone="no"?>
<!DOCTYPE svg PUBLIC "-//W3C//DTD SVG 1.1//EN"
 "http://www.w3.org/Graphics/SVG/1.1/DTD/svg11.dtd">
<!-- Generated by graphviz version 2.38.0 (20140413.2041)
 -->
<!-- Title: Tomographer::Logger::LoggerBase&lt; Derived &gt; Pages: 1 -->
<svg width="1083pt" height="405pt"
 viewBox="0.00 0.00 1082.74 404.50" xmlns="http://www.w3.org/2000/svg" xmlns:xlink="http://www.w3.org/1999/xlink">
<g id="graph0" class="graph" transform="scale(1 1) rotate(0) translate(4 400.5)">
<title>Tomographer::Logger::LoggerBase&lt; Derived &gt;</title>
<!-- Node1 -->
<g id="node1" class="node"><title>Node1</title>
<polygon fill="#bfbfbf" stroke="black" points="0,-175.5 0,-203.5 127.182,-203.5 127.182,-175.5 0,-175.5"/>
<text text-anchor="start" x="8" y="-191.5" font-family="Helvetica,sans-Serif" font-size="10.00">Tomographer::Logger</text>
<text text-anchor="middle" x="63.5908" y="-181.5" font-family="Helvetica,sans-Serif" font-size="10.00">::LoggerBase&lt; Derived &gt;</text>
</g>
<!-- Node2 -->
<g id="node2" class="node"><title>Node2</title>
<g id="a_node2"><a xlink:href="class_tomographer_1_1_logger_1_1_logger_base.html" target="_top" xlink:title="Tomographer::Logger\l::LoggerBase\&lt; ThreadSanitizer\lLogger\&lt; BaseLogger \&gt; \&gt;">
<polygon fill="none" stroke="black" points="311.431,-351.5 311.431,-389.5 465.952,-389.5 465.952,-351.5 311.431,-351.5"/>
<text text-anchor="start" x="319.431" y="-377.5" font-family="Helvetica,sans-Serif" font-size="10.00">Tomographer::Logger</text>
<text text-anchor="start" x="319.431" y="-367.5" font-family="Helvetica,sans-Serif" font-size="10.00">::LoggerBase&lt; ThreadSanitizer</text>
<text text-anchor="middle" x="388.691" y="-357.5" font-family="Helvetica,sans-Serif" font-size="10.00">Logger&lt; BaseLogger &gt; &gt;</text>
</a>
</g>
</g>
<!-- Node1&#45;&gt;Node2 -->
<g id="edge1" class="edge"><title>Node1&#45;&gt;Node2</title>
<path fill="none" stroke="orange" stroke-dasharray="5,2" d="M70.4301,-213.735C79.9286,-247.484 102.15,-307.826 145.182,-337.5 193.454,-370.788 260.153,-377.777 311.385,-377.147"/>
<polygon fill="orange" stroke="orange" points="73.7362,-212.548 67.7829,-203.784 66.9715,-214.348 73.7362,-212.548"/>
<text text-anchor="start" x="161.266" y="-388.5" font-family="Helvetica,sans-Serif" font-size="10.00"> &lt; ThreadSanitizerLogger</text>
<text text-anchor="middle" x="217.74" y="-378.5" font-family="Helvetica,sans-Serif" font-size="10.00">&lt; BaseLogger &gt; &gt;</text>
</g>
<!-- Node4 -->
<g id="node4" class="node"><title>Node4</title>
<g id="a_node4"><a xlink:href="class_tomographer_1_1_logger_1_1_logger_base.html" target="_top" xlink:title="Tomographer::Logger\l::LoggerBase\&lt; LocalLogger\l\&lt; BaseLoggerType_ \&gt; \&gt;">
<polygon fill="none" stroke="black" points="319.117,-294.5 319.117,-332.5 458.266,-332.5 458.266,-294.5 319.117,-294.5"/>
<text text-anchor="start" x="327.117" y="-320.5" font-family="Helvetica,sans-Serif" font-size="10.00">Tomographer::Logger</text>
<text text-anchor="start" x="327.117" y="-310.5" font-family="Helvetica,sans-Serif" font-size="10.00">::LoggerBase&lt; LocalLogger</text>
<text text-anchor="middle" x="388.691" y="-300.5" font-family="Helvetica,sans-Serif" font-size="10.00">&lt; BaseLoggerType_ &gt; &gt;</text>
</a>
</g>
</g>
<!-- Node1&#45;&gt;Node4 -->
<g id="edge3" class="edge"><title>Node1&#45;&gt;Node4</title>
<path fill="none" stroke="orange" stroke-dasharray="5,2" d="M78.2121,-212.248C92.1956,-233.408 116.002,-263.94 145.182,-279.5 198.826,-308.106 268.209,-315.363 319.01,-316.195"/>
<polygon fill="orange" stroke="orange" points="80.9922,-210.098 72.6639,-203.549 75.0903,-213.862 80.9922,-210.098"/>
<text text-anchor="start" x="153.246" y="-326.5" font-family="Helvetica,sans-Serif" font-size="10.00"> &lt; LocalLogger&lt; BaseLogger</text>
<text text-anchor="middle" x="217.74" y="-316.5" font-family="Helvetica,sans-Serif" font-size="10.00">Type_ &gt; &gt;</text>
</g>
<!-- Node7 -->
<g id="node7" class="node"><title>Node7</title>
<g id="a_node7"><a xlink:href="class_tomographer_1_1_logger_1_1_logger_base.html" target="_top" xlink:title="Tomographer::Logger\l::LoggerBase\&lt; LocalLogger\l\&lt; LoggerType \&gt; \&gt;">
<polygon fill="none" stroke="black" points="487.084,-247.5 487.084,-285.5 626.233,-285.5 626.233,-247.5 487.084,-247.5"/>
<text text-anchor="start" x="495.084" y="-273.5" font-family="Helvetica,sans-Serif" font-size="10.00">Tomographer::Logger</text>
<text text-anchor="start" x="495.084" y="-263.5" font-family="Helvetica,sans-Serif" font-size="10.00">::LoggerBase&lt; LocalLogger</text>
<text text-anchor="middle" x="556.659" y="-253.5" font-family="Helvetica,sans-Serif" font-size="10.00">&lt; LoggerType &gt; &gt;</text>
</a>
</g>
</g>
<!-- Node1&#45;&gt;Node7 -->
<g id="edge6" class="edge"><title>Node1&#45;&gt;Node7</title>
<path fill="none" stroke="orange" stroke-dasharray="5,2" d="M94.1024,-208.997C108.833,-217.731 127.293,-227.232 145.182,-232.5 261.622,-266.79 404.122,-270.555 486.925,-269.199"/>
<polygon fill="orange" stroke="orange" points="95.8071,-205.936 85.4505,-203.702 92.1534,-211.907 95.8071,-205.936"/>
<text text-anchor="middle" x="217.74" y="-262.5" font-family="Helvetica,sans-Serif" font-size="10.00"> &lt; LocalLogger&lt; LoggerType &gt; &gt;</text>
</g>
<!-- Node8 -->
<g id="node8" class="node"><title>Node8</title>
<g id="a_node8"><a xlink:href="class_tomographer_1_1_logger_1_1_logger_base.html" target="_top" xlink:title="Tomographer::Logger\l::LoggerBase\&lt; MinimumSeverity\lLogger\&lt; BaseLogger, Level \&gt; \&gt;">
<polygon fill="none" stroke="black" points="308.299,-198.5 308.299,-236.5 469.084,-236.5 469.084,-198.5 308.299,-198.5"/>
<text text-anchor="start" x="316.299" y="-224.5" font-family="Helvetica,sans-Serif" font-size="10.00">Tomographer::Logger</text>
<text text-anchor="start" x="316.299" y="-214.5" font-family="Helvetica,sans-Serif" font-size="10.00">::LoggerBase&lt; MinimumSeverity</text>
<text text-anchor="middle" x="388.691" y="-204.5" font-family="Helvetica,sans-Serif" font-size="10.00">Logger&lt; BaseLogger, Level &gt; &gt;</text>
</a>
</g>
</g>
<!-- Node1&#45;&gt;Node8 -->
<g id="edge8" class="edge"><title>Node1&#45;&gt;Node8</title>
<path fill="none" stroke="orange" stroke-dasharray="5,2" d="M137.522,-195.82C188.341,-200.224 256.101,-206.096 308.282,-210.618"/>
<polygon fill="orange" stroke="orange" points="137.536,-192.308 127.271,-194.932 136.931,-199.282 137.536,-192.308"/>
<text text-anchor="start" x="158.133" y="-220.5" font-family="Helvetica,sans-Serif" font-size="10.00"> &lt; MinimumSeverityLogger</text>
<text text-anchor="middle" x="217.74" y="-210.5" font-family="Helvetica,sans-Serif" font-size="10.00">&lt; BaseLogger, Level &gt; &gt;</text>
</g>
<!-- Node10 -->
<g id="node10" class="node"><title>Node10</title>
<g id="a_node10"><a xlink:href="class_tomographer_1_1_logger_1_1_logger_base.html" target="_top" xlink:title="Tomographer::Logger\l::LoggerBase\&lt; VacuumLogger \&gt;">
<polygon fill="none" stroke="black" points="308.787,-151.5 308.787,-179.5 468.596,-179.5 468.596,-151.5 308.787,-151.5"/>
<text text-anchor="start" x="316.787" y="-167.5" font-family="Helvetica,sans-Serif" font-size="10.00">Tomographer::Logger</text>
<text text-anchor="middle" x="388.691" y="-157.5" font-family="Helvetica,sans-Serif" font-size="10.00">::LoggerBase&lt; VacuumLogger &gt;</text>
</a>
</g>
</g>
<!-- Node1&#45;&gt;Node10 -->
<g id="edge10" class="edge"><title>Node1&#45;&gt;Node10</title>
<path fill="none" stroke="orange" stroke-dasharray="5,2" d="M137.49,-177.358C140.083,-177.048 142.653,-176.76 145.182,-176.5 199.578,-170.898 261.131,-168.149 308.612,-166.8"/>
<polygon fill="orange" stroke="orange" points="136.884,-173.907 127.412,-178.653 137.776,-180.85 136.884,-173.907"/>
<text text-anchor="middle" x="217.74" y="-178.5" font-family="Helvetica,sans-Serif" font-size="10.00"> &lt; VacuumLogger &gt;</text>
</g>
<!-- Node12 -->
<g id="node12" class="node"><title>Node12</title>
<g id="a_node12"><a xlink:href="class_tomographer_1_1_logger_1_1_logger_base.html" target="_top" xlink:title="Tomographer::Logger\l::LoggerBase\&lt; BufferLogger \&gt;">
<polygon fill="none" stroke="black" points="313.509,-104.5 313.509,-132.5 463.874,-132.5 463.874,-104.5 313.509,-104.5"/>
<text text-anchor="start" x="321.509" y="-120.5" font-family="Helvetica,sans-Serif" font-size="10.00">Tomographer::Logger</text>
<text text-anchor="middle" x="388.691" y="-110.5" font-family="Helvetica,sans-Serif" font-size="10.00">::LoggerBase&lt; BufferLogger &gt;</text>
</a>
</g>
</g>
<!-- Node1&#45;&gt;Node12 -->
<g id="edge12" class="edge"><title>Node1&#45;&gt;Node12</title>
<path fill="none" stroke="orange" stroke-dasharray="5,2" d="M100.22,-171.031C113.955,-164.597 129.993,-157.896 145.182,-153.5 200.345,-137.535 264.768,-128.675 313.344,-123.866"/>
<polygon fill="orange" stroke="orange" points="98.6113,-167.921 91.1178,-175.411 101.647,-174.228 98.6113,-167.921"/>
<text text-anchor="middle" x="217.74" y="-155.5" font-family="Helvetica,sans-Serif" font-size="10.00"> &lt; BufferLogger &gt;</text>
</g>
<!-- Node14 -->
<g id="node14" class="node"><title>Node14</title>
<g id="a_node14"><a xlink:href="class_tomographer_1_1_logger_1_1_logger_base.html" target="_top" xlink:title="Tomographer::Logger\l::LoggerBase\&lt; OriginFiltered\lLogger\&lt; BaseLogger \&gt; \&gt;">
<polygon fill="none" stroke="black" points="316.629,-47.5 316.629,-85.5 460.754,-85.5 460.754,-47.5 316.629,-47.5"/>
<text text-anchor="start" x="324.629" y="-73.5" font-family="Helvetica,sans-Serif" font-size="10.00">Tomographer::Logger</text>
<text text-anchor="start" x="324.629" y="-63.5" font-family="Helvetica,sans-Serif" font-size="10.00">::LoggerBase&lt; OriginFiltered</text>
<text text-anchor="middle" x="388.691" y="-53.5" font-family="Helvetica,sans-Serif" font-size="10.00">Logger&lt; BaseLogger &gt; &gt;</text>
</a>
</g>
</g>
<!-- Node1&#45;&gt;Node14 -->
<g id="edge14" class="edge"><title>Node1&#45;&gt;Node14</title>
<path fill="none" stroke="orange" stroke-dasharray="5,2" d="M78.9662,-167.163C93.2117,-147.026 116.95,-118.364 145.182,-103.5 198.129,-75.6224 266.006,-67.2 316.476,-65.2747"/>
<polygon fill="orange" stroke="orange" points="76.0404,-165.241 73.2818,-175.47 81.8174,-169.194 76.0404,-165.241"/>
<text text-anchor="start" x="166.463" y="-115.5" font-family="Helvetica,sans-Serif" font-size="10.00"> &lt; OriginFilteredLogger</text>
<text text-anchor="middle" x="217.74" y="-105.5" font-family="Helvetica,sans-Serif" font-size="10.00">&lt; BaseLogger &gt; &gt;</text>
</g>
<!-- Node16 -->
<g id="node16" class="node"><title>Node16</title>
<g id="a_node16"><a xlink:href="class_tomographer_1_1_logger_1_1_logger_base.html" target="_top" xlink:title="Tomographer::Logger\l::LoggerBase\&lt; FileLogger \&gt;">
<polygon fill="none" stroke="black" points="318.704,-0.5 318.704,-28.5 458.679,-28.5 458.679,-0.5 318.704,-0.5"/>
<text text-anchor="start" x="326.704" y="-16.5" font-family="Helvetica,sans-Serif" font-size="10.00">Tomographer::Logger</text>
<text text-anchor="middle" x="388.691" y="-6.5" font-family="Helvetica,sans-Serif" font-size="10.00">::LoggerBase&lt; FileLogger &gt;</text>
</a>
</g>
</g>
<!-- Node1&#45;&gt;Node16 -->
<g id="edge16" class="edge"><title>Node1&#45;&gt;Node16</title>
<path fill="none" stroke="orange" stroke-dasharray="5,2" d="M71.7296,-165.491C82.3449,-134.275 105.433,-80.5564 145.182,-53.5 196.032,-18.8864 266.575,-10.898 318.472,-10.5194"/>
<polygon fill="orange" stroke="orange" points="68.3548,-164.552 68.6017,-175.144 75.0139,-166.71 68.3548,-164.552"/>
<text text-anchor="middle" x="217.74" y="-55.5" font-family="Helvetica,sans-Serif" font-size="10.00"> &lt; FileLogger &gt;</text>
</g>
<!-- Node3 -->
<g id="node3" class="node"><title>Node3</title>
<g id="a_node3"><a xlink:href="class_tomographer_1_1_multi_proc_1_1_o_m_p_1_1_thread_sanitizer_logger.html" target="_top" xlink:title="Wrapper logger to call non&#45;thread&#45;safe loggers from a multithreaded environment. ">
<polygon fill="none" stroke="black" points="655.93,-351.5 655.93,-389.5 807.55,-389.5 807.55,-351.5 655.93,-351.5"/>
<text text-anchor="start" x="663.93" y="-377.5" font-family="Helvetica,sans-Serif" font-size="10.00">Tomographer::MultiProc</text>
<text text-anchor="start" x="663.93" y="-367.5" font-family="Helvetica,sans-Serif" font-size="10.00">::OMP::ThreadSanitizerLogger</text>
<text text-anchor="middle" x="731.74" y="-357.5" font-family="Helvetica,sans-Serif" font-size="10.00">&lt; BaseLogger &gt;</text>
</a>
</g>
</g>
<!-- Node2&#45;&gt;Node3 -->
<g id="edge2" class="edge"><title>Node2&#45;&gt;Node3</title>
<path fill="none" stroke="midnightblue" d="M476.388,-370.5C531.817,-370.5 602.975,-370.5 655.924,-370.5"/>
<polygon fill="midnightblue" stroke="midnightblue" points="476.229,-367 466.229,-370.5 476.229,-374 476.229,-367"/>
</g>
<!-- Node5 -->
<g id="node5" class="node"><title>Node5</title>
<g id="a_node5"><a xlink:href="class_tomographer_1_1_logger_1_1_local_logger.html" target="_top" xlink:title="Local logger: avoid having to repeat origin at each emitted message. ">
<polygon fill="none" stroke="black" points="644.233,-296.5 644.233,-324.5 819.247,-324.5 819.247,-296.5 644.233,-296.5"/>
<text text-anchor="start" x="652.233" y="-312.5" font-family="Helvetica,sans-Serif" font-size="10.00">Tomographer::Logger</text>
<text text-anchor="middle" x="731.74" y="-302.5" font-family="Helvetica,sans-Serif" font-size="10.00">::LocalLogger&lt; BaseLoggerType_ &gt;</text>
</a>
</g>
</g>
<!-- Node4&#45;&gt;Node5 -->
<g id="edge4" class="edge"><title>Node4&#45;&gt;Node5</title>
<path fill="none" stroke="midnightblue" d="M468.566,-312.806C521.051,-312.345 590.017,-311.738 644.041,-311.263"/>
<polygon fill="midnightblue" stroke="midnightblue" points="468.266,-309.309 458.297,-312.897 468.328,-316.308 468.266,-309.309"/>
</g>
<!-- Node6 -->
<g id="node6" class="node"><title>Node6</title>
<g id="a_node6"><a xlink:href="class_tomographer_1_1_logger_1_1_local_logger.html" target="_top" xlink:title="Tomographer::Logger\l::LocalLogger\&lt; LoggerType \&gt;">
<polygon fill="none" stroke="black" points="928.084,-272.5 928.084,-300.5 1074.74,-300.5 1074.74,-272.5 928.084,-272.5"/>
<text text-anchor="start" x="936.084" y="-288.5" font-family="Helvetica,sans-Serif" font-size="10.00">Tomographer::Logger</text>
<text text-anchor="middle" x="1001.41" y="-278.5" font-family="Helvetica,sans-Serif" font-size="10.00">::LocalLogger&lt; LoggerType &gt;</text>
</a>
</g>
</g>
<!-- Node5&#45;&gt;Node6 -->
<g id="edge5" class="edge"><title>Node5&#45;&gt;Node6</title>
<path fill="none" stroke="orange" stroke-dasharray="5,2" d="M829.279,-301.844C861.872,-298.922 897.673,-295.712 928.067,-292.987"/>
<polygon fill="orange" stroke="orange" points="828.924,-298.362 819.276,-302.741 829.549,-305.334 828.924,-298.362"/>
<text text-anchor="middle" x="873.666" y="-302.5" font-family="Helvetica,sans-Serif" font-size="10.00"> &lt; LoggerType &gt;</text>
</g>
<!-- Node7&#45;&gt;Node6 -->
<g id="edge7" class="edge"><title>Node7&#45;&gt;Node6</title>
<path fill="none" stroke="midnightblue" d="M636.44,-270.059C719.027,-273.789 847.707,-279.602 927.876,-283.223"/>
<polygon fill="midnightblue" stroke="midnightblue" points="636.501,-266.558 626.353,-269.603 636.185,-273.551 636.501,-266.558"/>
</g>
<!-- Node9 -->
<g id="node9" class="node"><title>Node9</title>
<g id="a_node9"><a xlink:href="class_tomographer_1_1_logger_1_1_minimum_severity_logger.html" target="_top" xlink:title="Logger which statically discards any messages less important than a fixed severity. ">
<polygon fill="none" stroke="black" points="667.053,-198.5 667.053,-236.5 796.427,-236.5 796.427,-198.5 667.053,-198.5"/>
<text text-anchor="start" x="675.053" y="-224.5" font-family="Helvetica,sans-Serif" font-size="10.00">Tomographer::Logger</text>
<text text-anchor="start" x="675.053" y="-214.5" font-family="Helvetica,sans-Serif" font-size="10.00">::MinimumSeverityLogger</text>
<text text-anchor="middle" x="731.74" y="-204.5" font-family="Helvetica,sans-Serif" font-size="10.00">&lt; BaseLogger, Level &gt;</text>
</a>
</g>
</g>
<!-- Node8&#45;&gt;Node9 -->
<g id="edge9" class="edge"><title>Node8&#45;&gt;Node9</title>
<path fill="none" stroke="midnightblue" d="M479.288,-217.5C538.305,-217.5 614.161,-217.5 667.053,-217.5"/>
<polygon fill="midnightblue" stroke="midnightblue" points="479.222,-214 469.222,-217.5 479.222,-221 479.222,-214"/>
</g>
<!-- Node11 -->
<g id="node11" class="node"><title>Node11</title>
<g id="a_node11"><a xlink:href="class_tomographer_1_1_logger_1_1_vacuum_logger.html" target="_top" xlink:title="Logger that discards all messages. ">
<polygon fill="none" stroke="black" points="675.933,-151.5 675.933,-179.5 787.548,-179.5 787.548,-151.5 675.933,-151.5"/>
<text text-anchor="start" x="683.933" y="-167.5" font-family="Helvetica,sans-Serif" font-size="10.00">Tomographer::Logger</text>
<text text-anchor="middle" x="731.74" y="-157.5" font-family="Helvetica,sans-Serif" font-size="10.00">::VacuumLogger</text>
</a>
</g>
</g>
<!-- Node10&#45;&gt;Node11 -->
<g id="edge11" class="edge"><title>Node10&#45;&gt;Node11</title>
<path fill="none" stroke="midnightblue" d="M479.024,-165.5C541.388,-165.5 622.651,-165.5 675.732,-165.5"/>
<polygon fill="midnightblue" stroke="midnightblue" points="478.792,-162 468.792,-165.5 478.792,-169 478.792,-162"/>
</g>
<!-- Node13 -->
<g id="node13" class="node"><title>Node13</title>
<g id="a_node13"><a xlink:href="class_tomographer_1_1_logger_1_1_buffer_logger.html" target="_top" xlink:title="Log messages into an internal memory buffer. ">
<polygon fill="none" stroke="black" points="675.933,-104.5 675.933,-132.5 787.548,-132.5 787.548,-104.5 675.933,-104.5"/>
<text text-anchor="start" x="683.933" y="-120.5" font-family="Helvetica,sans-Serif" font-size="10.00">Tomographer::Logger</text>
<text text-anchor="middle" x="731.74" y="-110.5" font-family="Helvetica,sans-Serif" font-size="10.00">::BufferLogger</text>
</a>
</g>
</g>
<!-- Node12&#45;&gt;Node13 -->
<g id="edge13" class="edge"><title>Node12&#45;&gt;Node13</title>
<path fill="none" stroke="midnightblue" d="M474.421,-118.5C537.358,-118.5 621.381,-118.5 675.777,-118.5"/>
<polygon fill="midnightblue" stroke="midnightblue" points="474.115,-115 464.115,-118.5 474.115,-122 474.115,-115"/>
</g>
<!-- Node15 -->
<g id="node15" class="node"><title>Node15</title>
<g id="a_node15"><a xlink:href="class_tomographer_1_1_logger_1_1_origin_filtered_logger.html" target="_top" xlink:title="A logger which filters entries according to where they originated from. ">
<polygon fill="none" stroke="black" points="675.383,-47.5 675.383,-85.5 788.097,-85.5 788.097,-47.5 675.383,-47.5"/>
<text text-anchor="start" x="683.383" y="-73.5" font-family="Helvetica,sans-Serif" font-size="10.00">Tomographer::Logger</text>
<text text-anchor="start" x="683.383" y="-63.5" font-family="Helvetica,sans-Serif" font-size="10.00">::OriginFilteredLogger</text>
<text text-anchor="middle" x="731.74" y="-53.5" font-family="Helvetica,sans-Serif" font-size="10.00">&lt; BaseLogger &gt;</text>
</a>
</g>
</g>
<!-- Node14&#45;&gt;Node15 -->
<g id="edge15" class="edge"><title>Node14&#45;&gt;Node15</title>
<path fill="none" stroke="midnightblue" d="M471.084,-66.5C534.144,-66.5 619.824,-66.5 675.206,-66.5"/>
<polygon fill="midnightblue" stroke="midnightblue" points="470.771,-63.0001 460.771,-66.5 470.771,-70.0001 470.771,-63.0001"/>
</g>
<!-- Node17 -->
<g id="node17" class="node"><title>Node17</title>
<g id="a_node17"><a xlink:href="class_tomographer_1_1_logger_1_1_file_logger.html" target="_top" xlink:title="Simple logger class which logs everything into a given FILE pointer. ">
<polygon fill="none" stroke="black" points="675.933,-0.5 675.933,-28.5 787.548,-28.5 787.548,-0.5 675.933,-0.5"/>
<text text-anchor="start" x="683.933" y="-16.5" font-family="Helvetica,sans-Serif" font-size="10.00">Tomographer::Logger</text>
<text text-anchor="middle" x="731.74" y="-6.5" font-family="Helvetica,sans-Serif" font-size="10.00">::FileLogger</text>
</a>
</g>
</g>
<!-- Node16&#45;&gt;Node17 -->
<g id="edge17" class="edge"><title>Node16&#45;&gt;Node17</title>
<path fill="none" stroke="midnightblue" d="M469.079,-14.5C532.568,-14.5 619.922,-14.5 675.868,-14.5"/>
<polygon fill="midnightblue" stroke="midnightblue" points="468.708,-11.0001 458.708,-14.5 468.708,-18.0001 468.708,-11.0001"/>
</g>
</g>
</svg>
