<?xml version="1.0" encoding="UTF-8" standalone="no"?>
<!DOCTYPE svg PUBLIC "-//W3C//DTD SVG 1.1//EN"
 "http://www.w3.org/Graphics/SVG/1.1/DTD/svg11.dtd">
<!-- Generated by graphviz version 2.38.0 (20140413.2041)
 -->
<!-- Title: Tomographer::BinningAnalysis&lt; Params, LoggerType_ &gt; Pages: 1 -->
<!--zoomable 248 -->
<svg id="main" version="1.1" xmlns="http://www.w3.org/2000/svg" xmlns:xlink="http://www.w3.org/1999/xlink" xml:space="preserve" onload="init(evt)">
<style type="text/css"><![CDATA[
.edge:hover path { stroke: red; }
.edge:hover polygon { stroke: red; fill: red; }
]]></style>
<script type="text/javascript"><![CDATA[
var edges = document.getElementsByTagName('g');
if (edges && edges.length) {
  for (var i=0;i<edges.length;i++) {
    if (edges[i].id.substr(0,4)=='edge') {
      edges[i].setAttribute('class','edge');
    }
  }
}
]]></script>
        <defs>
                <circle id="rim" cx="0" cy="0" r="7"/>
                <circle id="rim2" cx="0" cy="0" r="3.5"/>
                <g id="zoomPlus">
                        <use xlink:href="#rim" fill="#404040">
                                <set attributeName="fill" to="#808080" begin="zoomplus.mouseover" end="zoomplus.mouseout"/>
                        </use>
                        <path d="M-4,0h8M0,-4v8" fill="none" stroke="white" stroke-width="1.5" pointer-events="none"/>
                </g>
                <g id="zoomMin">
                        <use xlink:href="#rim" fill="#404040">
                                <set attributeName="fill" to="#808080" begin="zoomminus.mouseover" end="zoomminus.mouseout"/>
                        </use>
                        <path d="M-4,0h8" fill="none" stroke="white" stroke-width="1.5" pointer-events="none"/>
                </g>
                <g id="dirArrow">
                        <path fill="none" stroke="white" stroke-width="1.5" d="M0,-3.0v7 M-2.5,-0.5L0,-3.0L2.5,-0.5"/>
                </g>
               <g id="resetDef">
                       <use xlink:href="#rim2" fill="#404040">
                               <set attributeName="fill" to="#808080" begin="reset.mouseover" end="reset.mouseout"/>
                       </use>
               </g>
        </defs>

<script type="text/javascript">
var viewWidth = 820;
var viewHeight = 248;
var sectionId = 'dynsection-1';
</script>
<script xlink:href="svgpan.js"/>
<svg id="graph" class="graph">
<g id="viewport">
<title>Tomographer::BinningAnalysis&lt; Params, LoggerType_ &gt;</title>
<!-- Node1 -->
<g id="node1" class="node"><title>Node1</title>
<polygon fill="#bfbfbf" stroke="black" points="660.636,-113.5 660.636,-141.5 811.709,-141.5 811.709,-113.5 660.636,-113.5"/>
<text text-anchor="start" x="668.636" y="-129.5" font-family="Helvetica,sans-Serif" font-size="10.00">Tomographer::BinningAnalysis</text>
<text text-anchor="middle" x="736.172" y="-119.5" font-family="Helvetica,sans-Serif" font-size="10.00">&lt; Params, LoggerType_ &gt;</text>
</g>
<!-- Node2 -->
<g id="node2" class="node"><title>Node2</title>
<g id="a_node2"><a xlink:href="struct_tomographer_1_1_tools_1_1_eigen_aligned_operator_new_provider.html" target="_top" xlink:title="Provides correct operator&#45;new implementation for Eigen types via the NeedOwnOperatorNew mechanism...">
<polygon fill="none" stroke="black" points="360.928,-211.5 360.928,-239.5 538.125,-239.5 538.125,-211.5 360.928,-211.5"/>
<text text-anchor="start" x="368.928" y="-227.5" font-family="Helvetica,sans-Serif" font-size="10.00">Tomographer::Tools</text>
<text text-anchor="middle" x="449.526" y="-217.5" font-family="Helvetica,sans-Serif" font-size="10.00">::EigenAlignedOperatorNewProvider</text>
</a>
</g>
</g>
<!-- Node2&#45;&gt;Node1 -->
<g id="edge1" class="edge"><title>Node2&#45;&gt;Node1</title>
<path fill="none" stroke="midnightblue" d="M525.301,-208.978C532.984,-206.942 540.642,-204.772 547.932,-202.5 604.263,-184.941 667.558,-158.004 704.245,-141.642"/>
<polygon fill="midnightblue" stroke="midnightblue" points="524.39,-205.598 515.579,-211.482 526.136,-212.377 524.39,-205.598"/>
</g>
<!-- Node3 -->
<g id="node3" class="node"><title>Node3</title>
<g id="a_node3"><a xlink:href="class_tomographer_1_1_tools_1_1_static_or_dynamic.html" target="_top" xlink:title="Tomographer::Tools\l::StaticOrDynamic\&lt; int,\l(NumLevelsCTime==Eigen\l::Dynamic), NumLevelsCTime \&gt;">
<polygon fill="none" stroke="black" points="370.999,-144.5 370.999,-192.5 528.054,-192.5 528.054,-144.5 370.999,-144.5"/>
<text text-anchor="start" x="378.999" y="-180.5" font-family="Helvetica,sans-Serif" font-size="10.00">Tomographer::Tools</text>
<text text-anchor="start" x="378.999" y="-170.5" font-family="Helvetica,sans-Serif" font-size="10.00">::StaticOrDynamic&lt; int,</text>
<text text-anchor="start" x="378.999" y="-160.5" font-family="Helvetica,sans-Serif" font-size="10.00">(NumLevelsCTime==Eigen</text>
<text text-anchor="middle" x="449.526" y="-150.5" font-family="Helvetica,sans-Serif" font-size="10.00">::Dynamic), NumLevelsCTime &gt;</text>
</a>
</g>
</g>
<!-- Node3&#45;&gt;Node1 -->
<g id="edge2" class="edge"><title>Node3&#45;&gt;Node1</title>
<path fill="none" stroke="#9a32cd" stroke-dasharray="5,2" d="M538.608,-155.813C577.644,-150.19 623.081,-143.645 660.431,-138.266"/>
<polygon fill="#9a32cd" stroke="#9a32cd" points="537.706,-152.407 528.307,-157.297 538.704,-159.335 537.706,-152.407"/>
<text text-anchor="middle" x="604.284" y="-153.5" font-family="Helvetica,sans-Serif" font-size="10.00"> numLevels</text>
</g>
<!-- Node4 -->
<g id="node4" class="node"><title>Node4</title>
<g id="a_node4"><a xlink:href="class_tomographer_1_1_tools_1_1_static_or_dynamic.html" target="_top" xlink:title="A type which stores a value possibly known at compile&#45;time. ">
<polygon fill="none" stroke="black" points="0,-77.5 0,-115.5 148.939,-115.5 148.939,-77.5 0,-77.5"/>
<text text-anchor="start" x="8" y="-103.5" font-family="Helvetica,sans-Serif" font-size="10.00">Tomographer::Tools</text>
<text text-anchor="start" x="8" y="-93.5" font-family="Helvetica,sans-Serif" font-size="10.00">::StaticOrDynamic&lt; T</text>
<text text-anchor="middle" x="74.4697" y="-83.5" font-family="Helvetica,sans-Serif" font-size="10.00">_, IsDynamic_, StaticValue_ &gt;</text>
</a>
</g>
</g>
<!-- Node4&#45;&gt;Node3 -->
<g id="edge3" class="edge"><title>Node4&#45;&gt;Node3</title>
<path fill="none" stroke="orange" stroke-dasharray="5,2" d="M130.288,-119.117C142.216,-123.404 154.878,-127.484 166.939,-130.5 234.776,-147.461 313.822,-157.29 370.866,-162.685"/>
<polygon fill="orange" stroke="orange" points="131.498,-115.833 120.905,-115.651 129.073,-122.399 131.498,-115.833"/>
<text text-anchor="start" x="179.723" y="-180.5" font-family="Helvetica,sans-Serif" font-size="10.00"> &lt; int,(NumLevelsCTime</text>
<text text-anchor="start" x="179.723" y="-170.5" font-family="Helvetica,sans-Serif" font-size="10.00">==Eigen::Dynamic), NumLevels</text>
<text text-anchor="middle" x="250.03" y="-160.5" font-family="Helvetica,sans-Serif" font-size="10.00">CTime &gt;</text>
</g>
<!-- Node5 -->
<g id="node5" class="node"><title>Node5</title>
<g id="a_node5"><a xlink:href="class_tomographer_1_1_tools_1_1_static_or_dynamic.html" target="_top" xlink:title="Tomographer::Tools\l::StaticOrDynamic\&lt; int,\l(NumTrackValuesCTime=\l=Eigen::Dynamic), NumTrackValues\lCTime \&gt;">
<polygon fill="none" stroke="black" points="361.355,-67.5 361.355,-125.5 537.697,-125.5 537.697,-67.5 361.355,-67.5"/>
<text text-anchor="start" x="369.355" y="-113.5" font-family="Helvetica,sans-Serif" font-size="10.00">Tomographer::Tools</text>
<text text-anchor="start" x="369.355" y="-103.5" font-family="Helvetica,sans-Serif" font-size="10.00">::StaticOrDynamic&lt; int,</text>
<text text-anchor="start" x="369.355" y="-93.5" font-family="Helvetica,sans-Serif" font-size="10.00">(NumTrackValuesCTime=</text>
<text text-anchor="start" x="369.355" y="-83.5" font-family="Helvetica,sans-Serif" font-size="10.00">=Eigen::Dynamic), NumTrackValues</text>
<text text-anchor="middle" x="449.526" y="-73.5" font-family="Helvetica,sans-Serif" font-size="10.00">CTime &gt;</text>
</a>
</g>
</g>
<!-- Node4&#45;&gt;Node5 -->
<g id="edge5" class="edge"><title>Node4&#45;&gt;Node5</title>
<path fill="none" stroke="orange" stroke-dasharray="5,2" d="M159.395,-96.5C219.531,-96.5 300.32,-96.5 361.212,-96.5"/>
<polygon fill="orange" stroke="orange" points="159.174,-93.0001 149.174,-96.5 159.174,-100 159.174,-93.0001"/>
<text text-anchor="start" x="166.939" y="-118.5" font-family="Helvetica,sans-Serif" font-size="10.00"> &lt; int,(NumTrackValuesCTime</text>
<text text-anchor="start" x="166.939" y="-108.5" font-family="Helvetica,sans-Serif" font-size="10.00">==Eigen::Dynamic), NumTrackValues</text>
<text text-anchor="middle" x="250.03" y="-98.5" font-family="Helvetica,sans-Serif" font-size="10.00">CTime &gt;</text>
</g>
<!-- Node6 -->
<g id="node6" class="node"><title>Node6</title>
<g id="a_node6"><a xlink:href="class_tomographer_1_1_tools_1_1_static_or_dynamic.html" target="_top" xlink:title="Tomographer::Tools\l::StaticOrDynamic\&lt; CountInt\lType,(SamplesSizeCTime=\l=Eigen::Dynamic), SamplesSizeCTime \&gt;">
<polygon fill="none" stroke="black" points="351.121,-0.5 351.121,-48.5 547.932,-48.5 547.932,-0.5 351.121,-0.5"/>
<text text-anchor="start" x="359.121" y="-36.5" font-family="Helvetica,sans-Serif" font-size="10.00">Tomographer::Tools</text>
<text text-anchor="start" x="359.121" y="-26.5" font-family="Helvetica,sans-Serif" font-size="10.00">::StaticOrDynamic&lt; CountInt</text>
<text text-anchor="start" x="359.121" y="-16.5" font-family="Helvetica,sans-Serif" font-size="10.00">Type,(SamplesSizeCTime=</text>
<text text-anchor="middle" x="449.526" y="-6.5" font-family="Helvetica,sans-Serif" font-size="10.00">=Eigen::Dynamic), SamplesSizeCTime &gt;</text>
</a>
</g>
</g>
<!-- Node4&#45;&gt;Node6 -->
<g id="edge7" class="edge"><title>Node4&#45;&gt;Node6</title>
<path fill="none" stroke="orange" stroke-dasharray="5,2" d="M130.288,-73.8833C142.216,-69.5962 154.878,-65.5157 166.939,-62.5 227.239,-47.4232 296.395,-37.9822 351.082,-32.2815"/>
<polygon fill="orange" stroke="orange" points="129.073,-70.601 120.905,-77.3493 131.498,-77.1673 129.073,-70.601"/>
<text text-anchor="start" x="182.354" y="-84.5" font-family="Helvetica,sans-Serif" font-size="10.00"> &lt; CountIntType,(SamplesSize</text>
<text text-anchor="start" x="182.354" y="-74.5" font-family="Helvetica,sans-Serif" font-size="10.00">CTime==Eigen::Dynamic),</text>
<text text-anchor="middle" x="250.03" y="-64.5" font-family="Helvetica,sans-Serif" font-size="10.00"> SamplesSizeCTime &gt;</text>
</g>
<!-- Node5&#45;&gt;Node1 -->
<g id="edge4" class="edge"><title>Node5&#45;&gt;Node1</title>
<path fill="none" stroke="#9a32cd" stroke-dasharray="5,2" d="M548.112,-107.128C584.898,-111.134 626.122,-115.624 660.49,-119.367"/>
<polygon fill="#9a32cd" stroke="#9a32cd" points="548.184,-103.615 537.864,-106.012 547.426,-110.574 548.184,-103.615"/>
<text text-anchor="middle" x="604.284" y="-118.5" font-family="Helvetica,sans-Serif" font-size="10.00"> numTrackValues</text>
</g>
<!-- Node6&#45;&gt;Node1 -->
<g id="edge6" class="edge"><title>Node6&#45;&gt;Node1</title>
<path fill="none" stroke="#9a32cd" stroke-dasharray="5,2" d="M529.717,-52.0139C535.885,-54.1959 542.012,-56.3765 547.932,-58.5 599.943,-77.1593 659.828,-99.3523 697.585,-113.432"/>
<polygon fill="#9a32cd" stroke="#9a32cd" points="530.611,-48.618 520.016,-48.5918 528.282,-55.2193 530.611,-48.618"/>
<text text-anchor="middle" x="604.284" y="-93.5" font-family="Helvetica,sans-Serif" font-size="10.00"> samplesSize</text>
</g>
</g>
</svg>
        <g id="navigator" transform="translate(0 0)" fill="#404254">
                <rect fill="#f2f5e9" fill-opacity="0.5" stroke="#606060" stroke-width=".5" x="0" y="0" width="60" height="60"/>
                <use id="zoomplus" xlink:href="#zoomPlus" x="17" y="9" onmousedown="handleZoom(evt,'in')"/>
                <use id="zoomminus" xlink:href="#zoomMin" x="42" y="9" onmousedown="handleZoom(evt,'out')"/>
                <use id="reset" xlink:href="#resetDef" x="30" y="36" onmousedown="handleReset()"/>
                <g id="arrowUp" xlink:href="#dirArrow" transform="translate(30 24)" onmousedown="handlePan(0,-1)">
                  <use xlink:href="#rim" fill="#404040">
                        <set attributeName="fill" to="#808080" begin="arrowUp.mouseover" end="arrowUp.mouseout"/>
                  </use>
                  <path fill="none" stroke="white" stroke-width="1.5" d="M0,-3.0v7 M-2.5,-0.5L0,-3.0L2.5,-0.5"/>
                </g>
                <g id="arrowRight" xlink:href="#dirArrow" transform="rotate(90) translate(36 -43)" onmousedown="handlePan(1,0)">
                  <use xlink:href="#rim" fill="#404040">
                        <set attributeName="fill" to="#808080" begin="arrowRight.mouseover" end="arrowRight.mouseout"/>
                  </use>
                  <path fill="none" stroke="white" stroke-width="1.5" d="M0,-3.0v7 M-2.5,-0.5L0,-3.0L2.5,-0.5"/>
                </g>
                <g id="arrowDown" xlink:href="#dirArrow" transform="rotate(180) translate(-30 -48)" onmousedown="handlePan(0,1)">
                  <use xlink:href="#rim" fill="#404040">
                        <set attributeName="fill" to="#808080" begin="arrowDown.mouseover" end="arrowDown.mouseout"/>
                  </use>
                  <path fill="none" stroke="white" stroke-width="1.5" d="M0,-3.0v7 M-2.5,-0.5L0,-3.0L2.5,-0.5"/>
                </g>
                <g id="arrowLeft" xlink:href="#dirArrow" transform="rotate(270) translate(-36 17)" onmousedown="handlePan(-1,0)">
                  <use xlink:href="#rim" fill="#404040">
                        <set attributeName="fill" to="#808080" begin="arrowLeft.mouseover" end="arrowLeft.mouseout"/>
                  </use>
                  <path fill="none" stroke="white" stroke-width="1.5" d="M0,-3.0v7 M-2.5,-0.5L0,-3.0L2.5,-0.5"/>
                </g>
        </g>
        <svg viewBox="0 0 15 15" width="100%" height="30px" preserveAspectRatio="xMaxYMin meet">
         <g id="arrow_out" transform="scale(0.3 0.3)">
          <a xlink:href="class_tomographer_1_1_binning_analysis__coll__graph_org.svg" target="_base">
           <rect id="button" ry="5" rx="5" y="6" x="6" height="38" width="38"
                fill="#f2f5e9" fill-opacity="0.5" stroke="#606060" stroke-width="1.0"/>
           <path id="arrow"
             d="M 11.500037,31.436501 C 11.940474,20.09759 22.043105,11.32322 32.158766,21.979434 L 37.068811,17.246167 C 37.068811,17.246167 37.088388,32 37.088388,32 L 22.160133,31.978069 C 22.160133,31.978069 26.997745,27.140456 26.997745,27.140456 C 18.528582,18.264221 13.291696,25.230495 11.500037,31.436501 z"
             style="fill:#404040;"/>
          </a>
         </g>
        </svg>
</svg>
