<?xml version="1.0" encoding="UTF-8" standalone="no"?>
<!DOCTYPE svg PUBLIC "-//W3C//DTD SVG 1.1//EN"
 "http://www.w3.org/Graphics/SVG/1.1/DTD/svg11.dtd">
<!-- Generated by graphviz version 2.38.0 (20140413.2041)
 -->
<!-- Title: tomographer2/tools/cxxutil.h Pages: 1 -->
<svg width="1848pt" height="417pt"
 viewBox="0.00 0.00 1848.09 417.00" xmlns="http://www.w3.org/2000/svg" xmlns:xlink="http://www.w3.org/1999/xlink">
<g id="graph0" class="graph" transform="scale(1 1) rotate(0) translate(4 413)">
<title>tomographer2/tools/cxxutil.h</title>
<!-- Node1 -->
<g id="node1" class="node"><title>Node1</title>
<polygon fill="#bfbfbf" stroke="black" points="935.007,-380.5 935.007,-408.5 1037.17,-408.5 1037.17,-380.5 935.007,-380.5"/>
<text text-anchor="start" x="943.007" y="-396.5" font-family="Helvetica,sans-Serif" font-size="10.00">tomographer2/tools</text>
<text text-anchor="middle" x="986.088" y="-386.5" font-family="Helvetica,sans-Serif" font-size="10.00">/cxxutil.h</text>
</g>
<!-- Node2 -->
<g id="node2" class="node"><title>Node2</title>
<g id="a_node2"><a xlink:href="dmtypes_8h.html" target="_top" xlink:title="C++ types for describing dense density matrices in various parameterizations. ">
<polygon fill="none" stroke="black" points="178,-315.5 178,-343.5 300.177,-343.5 300.177,-315.5 178,-315.5"/>
<text text-anchor="start" x="186" y="-331.5" font-family="Helvetica,sans-Serif" font-size="10.00">tomographer2/densedm</text>
<text text-anchor="middle" x="239.088" y="-321.5" font-family="Helvetica,sans-Serif" font-size="10.00">/dmtypes.h</text>
</a>
</g>
</g>
<!-- Node1&#45;&gt;Node2 -->
<g id="edge1" class="edge"><title>Node1&#45;&gt;Node2</title>
<path fill="none" stroke="midnightblue" d="M924.907,-391.437C805.875,-386.89 534.99,-373.937 309.088,-344 306.266,-343.626 303.386,-343.21 300.482,-342.763"/>
<polygon fill="midnightblue" stroke="midnightblue" points="924.799,-394.935 934.923,-391.813 925.061,-387.94 924.799,-394.935"/>
</g>
<!-- Node3 -->
<g id="node3" class="node"><title>Node3</title>
<g id="a_node3"><a xlink:href="indepmeasllh_8h.html" target="_top" xlink:title="C++ types and functions for calculating the log&#45;likelihood for independent measurements. ">
<polygon fill="none" stroke="black" points="356,-250.5 356,-278.5 478.177,-278.5 478.177,-250.5 356,-250.5"/>
<text text-anchor="start" x="364" y="-266.5" font-family="Helvetica,sans-Serif" font-size="10.00">tomographer2/densedm</text>
<text text-anchor="middle" x="417.088" y="-256.5" font-family="Helvetica,sans-Serif" font-size="10.00">/indepmeasllh.h</text>
</a>
</g>
</g>
<!-- Node1&#45;&gt;Node3 -->
<g id="edge6" class="edge"><title>Node1&#45;&gt;Node3</title>
<path fill="none" stroke="midnightblue" d="M924.945,-392.617C810.084,-390.107 566.904,-380.513 492.088,-344 461.767,-329.202 437.18,-296.719 425.133,-278.517"/>
<polygon fill="midnightblue" stroke="midnightblue" points="924.915,-396.117 934.986,-392.825 925.061,-389.118 924.915,-396.117"/>
</g>
<!-- Node4 -->
<g id="node4" class="node"><title>Node4</title>
<g id="a_node4"><a xlink:href="param__rho__a_8h.html" target="_top" xlink:title="Tools for parameterizing density matrices with the A Parameterization. ">
<polygon fill="none" stroke="black" points="0,-250.5 0,-278.5 122.177,-278.5 122.177,-250.5 0,-250.5"/>
<text text-anchor="start" x="8" y="-266.5" font-family="Helvetica,sans-Serif" font-size="10.00">tomographer2/densedm</text>
<text text-anchor="middle" x="61.0884" y="-256.5" font-family="Helvetica,sans-Serif" font-size="10.00">/param_rho_a.h</text>
</a>
</g>
</g>
<!-- Node1&#45;&gt;Node4 -->
<g id="edge11" class="edge"><title>Node1&#45;&gt;Node4</title>
<path fill="none" stroke="midnightblue" d="M924.331,-394.204C758.719,-395.389 307.9,-393.809 169.088,-344 130.035,-329.987 92.7933,-297.191 73.9233,-278.73"/>
<polygon fill="midnightblue" stroke="midnightblue" points="924.848,-397.7 934.821,-394.122 924.794,-390.7 924.848,-397.7"/>
</g>
<!-- Node7 -->
<g id="node7" class="node"><title>Node7</title>
<g id="a_node7"><a xlink:href="param__herm__x_8h.html" target="_top" xlink:title="Tools for parameterizing hermitian matrices with the X Parameterization. ">
<polygon fill="none" stroke="black" points="318,-315.5 318,-343.5 440.177,-343.5 440.177,-315.5 318,-315.5"/>
<text text-anchor="start" x="326" y="-331.5" font-family="Helvetica,sans-Serif" font-size="10.00">tomographer2/densedm</text>
<text text-anchor="middle" x="379.088" y="-321.5" font-family="Helvetica,sans-Serif" font-size="10.00">/param_herm_x.h</text>
</a>
</g>
</g>
<!-- Node1&#45;&gt;Node7 -->
<g id="edge7" class="edge"><title>Node1&#45;&gt;Node7</title>
<path fill="none" stroke="midnightblue" d="M924.799,-389.504C825.605,-382.655 623.859,-367.135 454.088,-344 449.631,-343.393 445.035,-342.708 440.416,-341.979"/>
<polygon fill="midnightblue" stroke="midnightblue" points="924.723,-393.007 934.939,-390.199 925.201,-386.024 924.723,-393.007"/>
</g>
<!-- Node8 -->
<g id="node8" class="node"><title>Node8</title>
<g id="a_node8"><a xlink:href="histogram_8h.html" target="_top" xlink:title="Definitions for Histogram Types. ">
<polygon fill="none" stroke="black" points="1052.45,-255.5 1052.45,-273.5 1185.73,-273.5 1185.73,-255.5 1052.45,-255.5"/>
<text text-anchor="middle" x="1119.09" y="-261.5" font-family="Helvetica,sans-Serif" font-size="10.00">tomographer2/histogram.h</text>
</a>
</g>
</g>
<!-- Node1&#45;&gt;Node8 -->
<g id="edge12" class="edge"><title>Node1&#45;&gt;Node8</title>
<path fill="none" stroke="midnightblue" d="M1047.31,-393.635C1134.37,-392.374 1287.29,-384.299 1322.09,-344 1330.51,-334.245 1330.05,-325.136 1322.09,-315 1312.31,-302.555 1221.54,-284.076 1164.74,-273.572"/>
<polygon fill="midnightblue" stroke="midnightblue" points="1047.24,-390.135 1037.29,-393.754 1047.33,-397.135 1047.24,-390.135"/>
</g>
<!-- Node9 -->
<g id="node9" class="node"><title>Node9</title>
<g id="a_node9"><a xlink:href="mhrwstatscollectors_8h.html" target="_top" xlink:title="Definitions for MHRWStatsCollector Interface&#39;s. ">
<polygon fill="none" stroke="black" points="1122.5,-130.5 1122.5,-148.5 1299.68,-148.5 1299.68,-130.5 1122.5,-130.5"/>
<text text-anchor="middle" x="1211.09" y="-136.5" font-family="Helvetica,sans-Serif" font-size="10.00">tomographer2/mhrwstatscollectors.h</text>
</a>
</g>
</g>
<!-- Node1&#45;&gt;Node9 -->
<g id="edge29" class="edge"><title>Node1&#45;&gt;Node9</title>
<path fill="none" stroke="midnightblue" d="M1047.49,-392.245C1188.97,-388.813 1534.25,-377.202 1645.09,-344 1702.07,-326.931 1731.92,-330.269 1762.09,-279 1794.09,-224.621 1688.41,-185.138 1688.09,-185 1620.49,-155.87 1418.34,-145.749 1300.01,-142.276"/>
<polygon fill="midnightblue" stroke="midnightblue" points="1047.17,-388.751 1037.26,-392.488 1047.34,-395.75 1047.17,-388.751"/>
</g>
<!-- Node10 -->
<g id="node10" class="node"><title>Node10</title>
<g id="a_node10"><a xlink:href="mhrw__valuehist__tasks_8h.html" target="_top" xlink:title="Tasks for collecting a histogram of values during a Metropolis&#45;Hastings random walk. ">
<polygon fill="none" stroke="black" points="1232.83,-0.5 1232.83,-28.5 1383.34,-28.5 1383.34,-0.5 1232.83,-0.5"/>
<text text-anchor="start" x="1240.83" y="-16.5" font-family="Helvetica,sans-Serif" font-size="10.00">tomographer2/mhrw_valuehist</text>
<text text-anchor="middle" x="1308.09" y="-6.5" font-family="Helvetica,sans-Serif" font-size="10.00">_tasks.h</text>
</a>
</g>
</g>
<!-- Node1&#45;&gt;Node10 -->
<g id="edge28" class="edge"><title>Node1&#45;&gt;Node10</title>
<path fill="none" stroke="midnightblue" d="M1047.6,-392.718C1197.75,-390.254 1579.54,-380.484 1701.09,-344 1769.04,-323.603 1840.09,-336.449 1840.09,-265.5 1840.09,-265.5 1840.09,-265.5 1840.09,-138.5 1840.09,-45.8946 1530.23,-22.9978 1383.46,-17.3466"/>
<polygon fill="midnightblue" stroke="midnightblue" points="1047.14,-389.225 1037.2,-392.883 1047.26,-396.224 1047.14,-389.225"/>
</g>
<!-- Node12 -->
<g id="node12" class="node"><title>Node12</title>
<g id="a_node12"><a xlink:href="check__derivatives_8h.html" target="_top" xlink:title="Tools to check numerical derivatives. ">
<polygon fill="none" stroke="black" points="691.892,-315.5 691.892,-343.5 816.285,-343.5 816.285,-315.5 691.892,-315.5"/>
<text text-anchor="start" x="699.892" y="-331.5" font-family="Helvetica,sans-Serif" font-size="10.00">tomographer2/mathtools</text>
<text text-anchor="middle" x="754.088" y="-321.5" font-family="Helvetica,sans-Serif" font-size="10.00">/check_derivatives.h</text>
</a>
</g>
</g>
<!-- Node1&#45;&gt;Node12 -->
<g id="edge17" class="edge"><title>Node1&#45;&gt;Node12</title>
<path fill="none" stroke="midnightblue" d="M927.905,-377.7C889.075,-367.156 838.632,-353.458 802.097,-343.537"/>
<polygon fill="midnightblue" stroke="midnightblue" points="927.45,-381.203 938.018,-380.446 929.285,-374.448 927.45,-381.203"/>
</g>
<!-- Node13 -->
<g id="node13" class="node"><title>Node13</title>
<g id="a_node13"><a xlink:href="pos__semidef__util_8h.html" target="_top" xlink:title="Tools for dealing with positive semidefinite matrices. ">
<polygon fill="none" stroke="black" points="833.892,-315.5 833.892,-343.5 958.285,-343.5 958.285,-315.5 833.892,-315.5"/>
<text text-anchor="start" x="841.892" y="-331.5" font-family="Helvetica,sans-Serif" font-size="10.00">tomographer2/mathtools</text>
<text text-anchor="middle" x="896.088" y="-321.5" font-family="Helvetica,sans-Serif" font-size="10.00">/pos_semidef_util.h</text>
</a>
</g>
</g>
<!-- Node1&#45;&gt;Node13 -->
<g id="edge18" class="edge"><title>Node1&#45;&gt;Node13</title>
<path fill="none" stroke="midnightblue" d="M958.974,-374.52C944.675,-364.511 927.498,-352.487 914.713,-343.537"/>
<polygon fill="midnightblue" stroke="midnightblue" points="957.241,-377.579 967.44,-380.446 961.255,-371.844 957.241,-377.579"/>
</g>
<!-- Node14 -->
<g id="node14" class="node"><title>Node14</title>
<g id="a_node14"><a xlink:href="random__unitary_8h.html" target="_top" xlink:title="Produce a random unitary according to the Haar measure. ">
<polygon fill="none" stroke="black" points="549.892,-185.5 549.892,-213.5 674.285,-213.5 674.285,-185.5 549.892,-185.5"/>
<text text-anchor="start" x="557.892" y="-201.5" font-family="Helvetica,sans-Serif" font-size="10.00">tomographer2/mathtools</text>
<text text-anchor="middle" x="612.088" y="-191.5" font-family="Helvetica,sans-Serif" font-size="10.00">/random_unitary.h</text>
</a>
</g>
</g>
<!-- Node1&#45;&gt;Node14 -->
<g id="edge19" class="edge"><title>Node1&#45;&gt;Node14</title>
<path fill="none" stroke="midnightblue" d="M924.764,-393.867C819.584,-393.314 610.546,-386.685 553.088,-344 518.096,-318.004 503.173,-287.683 525.088,-250 534.96,-233.025 553.068,-221.391 570.218,-213.691"/>
<polygon fill="midnightblue" stroke="midnightblue" points="924.904,-397.367 934.916,-393.903 924.929,-390.367 924.904,-397.367"/>
</g>
<!-- Node15 -->
<g id="node15" class="node"><title>Node15</title>
<g id="a_node15"><a xlink:href="solveclyap_8h.html" target="_top" xlink:title="Routine for solving a complex Lyapunov equation. See Tomographer::SolveCLyap::solve(). ">
<polygon fill="none" stroke="black" points="1013.89,-315.5 1013.89,-343.5 1138.29,-343.5 1138.29,-315.5 1013.89,-315.5"/>
<text text-anchor="start" x="1021.89" y="-331.5" font-family="Helvetica,sans-Serif" font-size="10.00">tomographer2/mathtools</text>
<text text-anchor="middle" x="1076.09" y="-321.5" font-family="Helvetica,sans-Serif" font-size="10.00">/solveclyap.h</text>
</a>
</g>
</g>
<!-- Node1&#45;&gt;Node15 -->
<g id="edge20" class="edge"><title>Node1&#45;&gt;Node15</title>
<path fill="none" stroke="midnightblue" d="M1013.2,-374.52C1027.5,-364.511 1044.68,-352.487 1057.46,-343.537"/>
<polygon fill="midnightblue" stroke="midnightblue" points="1010.92,-371.844 1004.74,-380.446 1014.94,-377.579 1010.92,-371.844"/>
</g>
<!-- Node16 -->
<g id="node16" class="node"><title>Node16</title>
<g id="a_node16"><a xlink:href="sphcoords_8h.html" target="_top" xlink:title="spherical coordinates conversion routines, with jacobian etc. See Hyperspherical Coordinates. ">
<polygon fill="none" stroke="black" points="1155.89,-315.5 1155.89,-343.5 1280.29,-343.5 1280.29,-315.5 1155.89,-315.5"/>
<text text-anchor="start" x="1163.89" y="-331.5" font-family="Helvetica,sans-Serif" font-size="10.00">tomographer2/mathtools</text>
<text text-anchor="middle" x="1218.09" y="-321.5" font-family="Helvetica,sans-Serif" font-size="10.00">/sphcoords.h</text>
</a>
</g>
</g>
<!-- Node1&#45;&gt;Node16 -->
<g id="edge21" class="edge"><title>Node1&#45;&gt;Node16</title>
<path fill="none" stroke="midnightblue" d="M1044.27,-377.7C1083.1,-367.156 1133.54,-353.458 1170.08,-343.537"/>
<polygon fill="midnightblue" stroke="midnightblue" points="1042.89,-374.448 1034.16,-380.446 1044.73,-381.203 1042.89,-374.448"/>
</g>
<!-- Node17 -->
<g id="node17" class="node"><title>Node17</title>
<g id="a_node17"><a xlink:href="mhrw_8h.html" target="_top" xlink:title="Routines for performing a Metropolis&#45;Hastings random walk. ">
<polygon fill="none" stroke="black" points="952.451,-130.5 952.451,-148.5 1065.73,-148.5 1065.73,-130.5 952.451,-130.5"/>
<text text-anchor="middle" x="1009.09" y="-136.5" font-family="Helvetica,sans-Serif" font-size="10.00">tomographer2/mhrw.h</text>
</a>
</g>
</g>
<!-- Node1&#45;&gt;Node17 -->
<g id="edge22" class="edge"><title>Node1&#45;&gt;Node17</title>
<path fill="none" stroke="midnightblue" d="M988.206,-370.21C993.142,-315.914 1005.23,-182.943 1008.35,-148.667"/>
<polygon fill="midnightblue" stroke="midnightblue" points="984.712,-369.978 987.293,-380.254 991.684,-370.612 984.712,-369.978"/>
</g>
<!-- Node18 -->
<g id="node18" class="node"><title>Node18</title>
<g id="a_node18"><a xlink:href="mhrw__bin__err_8h.html" target="_top" xlink:title="Binning Analysis in a Metropolis&#45;Hastings random walk. ">
<polygon fill="none" stroke="black" points="1061.89,-185.5 1061.89,-213.5 1186.28,-213.5 1186.28,-185.5 1061.89,-185.5"/>
<text text-anchor="start" x="1069.89" y="-201.5" font-family="Helvetica,sans-Serif" font-size="10.00">tomographer2/mhrw_bin</text>
<text text-anchor="middle" x="1124.09" y="-191.5" font-family="Helvetica,sans-Serif" font-size="10.00">_err.h</text>
</a>
</g>
</g>
<!-- Node1&#45;&gt;Node18 -->
<g id="edge25" class="edge"><title>Node1&#45;&gt;Node18</title>
<path fill="none" stroke="midnightblue" d="M1047.66,-392.483C1127.11,-389.718 1258.74,-379.711 1289.09,-344 1297.44,-334.179 1297.52,-324.751 1289.09,-315 1216.83,-231.401 1115.34,-362.599 1043.09,-279 1021.77,-254.332 1062.44,-228.545 1093.49,-213.53"/>
<polygon fill="midnightblue" stroke="midnightblue" points="1047.17,-388.997 1037.29,-392.814 1047.4,-395.994 1047.17,-388.997"/>
</g>
<!-- Node19 -->
<g id="node19" class="node"><title>Node19</title>
<g id="a_node19"><a xlink:href="multiprocomp_8h.html" target="_top" xlink:title="Multiprocessing with OpenMP parallel multithreading. ">
<polygon fill="none" stroke="black" points="1529.39,-190.5 1529.39,-208.5 1678.79,-208.5 1678.79,-190.5 1529.39,-190.5"/>
<text text-anchor="middle" x="1604.09" y="-196.5" font-family="Helvetica,sans-Serif" font-size="10.00">tomographer2/multiprocomp.h</text>
</a>
</g>
</g>
<!-- Node1&#45;&gt;Node19 -->
<g id="edge30" class="edge"><title>Node1&#45;&gt;Node19</title>
<path fill="none" stroke="midnightblue" d="M1047.31,-392.976C1152.18,-391.014 1372.47,-382.232 1554.09,-344 1641.84,-325.529 1692.89,-351.908 1745.09,-279 1772.33,-240.957 1704.02,-219.143 1653.24,-208.573"/>
<polygon fill="midnightblue" stroke="midnightblue" points="1047.16,-389.478 1037.22,-393.15 1047.28,-396.477 1047.16,-389.478"/>
</g>
<!-- Node20 -->
<g id="node20" class="node"><title>Node20</title>
<g id="a_node20"><a xlink:href="ezmatio_8h.html" target="_top" xlink:title="Utilities for reading MATLAB &quot;*.mat&quot; data files. See Tomographer::MAT. ">
<polygon fill="none" stroke="black" points="534.007,-250.5 534.007,-278.5 636.169,-278.5 636.169,-250.5 534.007,-250.5"/>
<text text-anchor="start" x="542.007" y="-266.5" font-family="Helvetica,sans-Serif" font-size="10.00">tomographer2/tools</text>
<text text-anchor="middle" x="585.088" y="-256.5" font-family="Helvetica,sans-Serif" font-size="10.00">/ezmatio.h</text>
</a>
</g>
</g>
<!-- Node1&#45;&gt;Node20 -->
<g id="edge31" class="edge"><title>Node1&#45;&gt;Node20</title>
<path fill="none" stroke="midnightblue" d="M924.851,-390.759C813.407,-385.138 586.711,-370.548 563.088,-344 546.623,-325.496 562.95,-295.607 574.93,-278.546"/>
<polygon fill="midnightblue" stroke="midnightblue" points="924.78,-394.26 934.941,-391.259 925.127,-387.268 924.78,-394.26"/>
</g>
<!-- Node21 -->
<g id="node21" class="node"><title>Node21</title>
<g id="a_node21"><a xlink:href="fmt_8h.html" target="_top" xlink:title="Utilities for formatting strings. ">
<polygon fill="none" stroke="black" points="572.007,-315.5 572.007,-343.5 674.169,-343.5 674.169,-315.5 572.007,-315.5"/>
<text text-anchor="start" x="580.007" y="-331.5" font-family="Helvetica,sans-Serif" font-size="10.00">tomographer2/tools</text>
<text text-anchor="middle" x="623.088" y="-321.5" font-family="Helvetica,sans-Serif" font-size="10.00">/fmt.h</text>
</a>
</g>
</g>
<!-- Node1&#45;&gt;Node21 -->
<g id="edge32" class="edge"><title>Node1&#45;&gt;Node21</title>
<path fill="none" stroke="midnightblue" d="M925.093,-384.624C863.769,-375.444 766.608,-360.203 683.088,-344 680.258,-343.451 677.358,-342.868 674.433,-342.263"/>
<polygon fill="midnightblue" stroke="midnightblue" points="924.587,-388.087 934.993,-386.1 925.619,-381.163 924.587,-388.087"/>
</g>
<!-- Node24 -->
<g id="node24" class="node"><title>Node24</title>
<g id="a_node24"><a xlink:href="needownoperatornew_8h.html" target="_top" xlink:title="Managing the need for specific overrides to operator new() for some types (especially Eigen types) ...">
<polygon fill="none" stroke="black" points="1373.71,-315.5 1373.71,-343.5 1496.46,-343.5 1496.46,-315.5 1373.71,-315.5"/>
<text text-anchor="start" x="1381.71" y="-331.5" font-family="Helvetica,sans-Serif" font-size="10.00">tomographer2/tools</text>
<text text-anchor="middle" x="1435.09" y="-321.5" font-family="Helvetica,sans-Serif" font-size="10.00">/needownoperatornew.h</text>
</a>
</g>
</g>
<!-- Node1&#45;&gt;Node24 -->
<g id="edge47" class="edge"><title>Node1&#45;&gt;Node24</title>
<path fill="none" stroke="midnightblue" d="M1047.41,-386.271C1121.6,-377.321 1250.23,-361.148 1360.09,-344 1364.4,-343.327 1368.85,-342.603 1373.33,-341.852"/>
<polygon fill="midnightblue" stroke="midnightblue" points="1046.83,-382.817 1037.31,-387.485 1047.66,-389.767 1046.83,-382.817"/>
</g>
<!-- Node27 -->
<g id="node27" class="node"><title>Node27</title>
<g id="a_node27"><a xlink:href="valuecalculator_8h.html" target="_top" xlink:title="Some elementary definitions which relate to the ValueCalculator Interface. ">
<polygon fill="none" stroke="black" points="1580.32,-255.5 1580.32,-273.5 1735.86,-273.5 1735.86,-255.5 1580.32,-255.5"/>
<text text-anchor="middle" x="1658.09" y="-261.5" font-family="Helvetica,sans-Serif" font-size="10.00">tomographer2/valuecalculator.h</text>
</a>
</g>
</g>
<!-- Node1&#45;&gt;Node27 -->
<g id="edge62" class="edge"><title>Node1&#45;&gt;Node27</title>
<path fill="none" stroke="midnightblue" d="M1047.58,-390.547C1165.85,-384.389 1420.76,-368.667 1505.09,-344 1561.25,-327.572 1621.1,-290.284 1646.07,-273.708"/>
<polygon fill="midnightblue" stroke="midnightblue" points="1047.06,-387.069 1037.26,-391.078 1047.42,-394.06 1047.06,-387.069"/>
</g>
<!-- Node2&#45;&gt;Node3 -->
<g id="edge2" class="edge"><title>Node2&#45;&gt;Node3</title>
<path fill="none" stroke="midnightblue" d="M285.643,-312.023C315.163,-301.575 352.819,-288.247 380.254,-278.537"/>
<polygon fill="midnightblue" stroke="midnightblue" points="284.229,-308.81 275.97,-315.446 286.565,-315.409 284.229,-308.81"/>
</g>
<!-- Node2&#45;&gt;Node4 -->
<g id="edge3" class="edge"><title>Node2&#45;&gt;Node4</title>
<path fill="none" stroke="midnightblue" d="M192.534,-312.023C163.013,-301.575 125.358,-288.247 97.9228,-278.537"/>
<polygon fill="midnightblue" stroke="midnightblue" points="191.612,-315.409 202.207,-315.446 193.947,-308.81 191.612,-315.409"/>
</g>
<!-- Node5 -->
<g id="node5" class="node"><title>Node5</title>
<g id="a_node5"><a xlink:href="tspacefigofmerit_8h.html" target="_top" xlink:title="Implement some standard figures of merit for when integrating in T space densely represented density ...">
<polygon fill="none" stroke="black" points="216,-250.5 216,-278.5 338.177,-278.5 338.177,-250.5 216,-250.5"/>
<text text-anchor="start" x="224" y="-266.5" font-family="Helvetica,sans-Serif" font-size="10.00">tomographer2/densedm</text>
<text text-anchor="middle" x="277.088" y="-256.5" font-family="Helvetica,sans-Serif" font-size="10.00">/tspacefigofmerit.h</text>
</a>
</g>
</g>
<!-- Node2&#45;&gt;Node5 -->
<g id="edge4" class="edge"><title>Node2&#45;&gt;Node5</title>
<path fill="none" stroke="midnightblue" d="M252.275,-306.638C257.926,-297.269 264.336,-286.643 269.225,-278.537"/>
<polygon fill="midnightblue" stroke="midnightblue" points="249.13,-305.076 246.962,-315.446 255.124,-308.691 249.13,-305.076"/>
</g>
<!-- Node6 -->
<g id="node6" class="node"><title>Node6</title>
<g id="a_node6"><a xlink:href="tspacellhwalker_8h.html" target="_top" xlink:title="Definitions for a Metropolis&#45;Hastings random walk on a quantum state space with dense matrix type...">
<polygon fill="none" stroke="black" points="770,-65.5 770,-93.5 892.177,-93.5 892.177,-65.5 770,-65.5"/>
<text text-anchor="start" x="778" y="-81.5" font-family="Helvetica,sans-Serif" font-size="10.00">tomographer2/densedm</text>
<text text-anchor="middle" x="831.088" y="-71.5" font-family="Helvetica,sans-Serif" font-size="10.00">/tspacellhwalker.h</text>
</a>
</g>
</g>
<!-- Node2&#45;&gt;Node6 -->
<g id="edge5" class="edge"><title>Node2&#45;&gt;Node6</title>
<path fill="none" stroke="midnightblue" d="M216.848,-308.193C209.392,-299.95 201.987,-289.819 198.088,-279 182.185,-234.869 207.922,-212.273 246.088,-185 329.715,-125.243 637.548,-95.2018 769.919,-84.8194"/>
<polygon fill="midnightblue" stroke="midnightblue" points="214.43,-310.727 223.899,-315.479 219.459,-305.859 214.43,-310.727"/>
</g>
<!-- Node7&#45;&gt;Node3 -->
<g id="edge8" class="edge"><title>Node7&#45;&gt;Node3</title>
<path fill="none" stroke="midnightblue" d="M392.275,-306.638C397.926,-297.269 404.336,-286.643 409.225,-278.537"/>
<polygon fill="midnightblue" stroke="midnightblue" points="389.13,-305.076 386.962,-315.446 395.124,-308.691 389.13,-305.076"/>
</g>
<!-- Node7&#45;&gt;Node5 -->
<g id="edge9" class="edge"><title>Node7&#45;&gt;Node5</title>
<path fill="none" stroke="midnightblue" d="M349.273,-310.084C332.89,-299.965 312.96,-287.656 298.196,-278.537"/>
<polygon fill="midnightblue" stroke="midnightblue" points="347.607,-313.169 357.954,-315.446 351.285,-307.214 347.607,-313.169"/>
</g>
<!-- Node7&#45;&gt;Node6 -->
<g id="edge10" class="edge"><title>Node7&#45;&gt;Node6</title>
<path fill="none" stroke="midnightblue" d="M311.16,-313.055C265.973,-302.094 213.726,-287.818 207.088,-279 199.337,-268.703 199.856,-260.669 207.088,-250 270.983,-155.742 625.495,-104.429 769.88,-87.1913"/>
<polygon fill="midnightblue" stroke="midnightblue" points="310.431,-316.479 320.972,-315.41 312.065,-309.672 310.431,-316.479"/>
</g>
<!-- Node8&#45;&gt;Node9 -->
<g id="edge13" class="edge"><title>Node8&#45;&gt;Node9</title>
<path fill="none" stroke="midnightblue" d="M1148.86,-251.011C1164.92,-242.784 1183.73,-230.469 1195.09,-214 1209.18,-193.576 1211.17,-162.982 1211.26,-148.565"/>
<polygon fill="midnightblue" stroke="midnightblue" points="1147.28,-247.886 1139.8,-255.384 1150.32,-254.19 1147.28,-247.886"/>
</g>
<!-- Node9&#45;&gt;Node10 -->
<g id="edge14" class="edge"><title>Node9&#45;&gt;Node10</title>
<path fill="none" stroke="midnightblue" d="M1245.17,-126.39C1260.71,-119.232 1278.07,-108.651 1289.09,-94 1303.75,-74.502 1307.26,-45.244 1308,-28.5012"/>
<polygon fill="midnightblue" stroke="midnightblue" points="1243.61,-123.252 1235.8,-130.411 1246.37,-129.685 1243.61,-123.252"/>
</g>
<!-- Node11 -->
<g id="node11" class="node"><title>Node11</title>
<g id="a_node11"><a xlink:href="mhrwtasks_8h.html" target="_top" xlink:title="Multiprocessing tasks interface (see Task Manager/Dispatcher Interfaces) for parallel Metropolis&#45;Hast...">
<polygon fill="none" stroke="black" points="1142.51,-70.5 1142.51,-88.5 1279.67,-88.5 1279.67,-70.5 1142.51,-70.5"/>
<text text-anchor="middle" x="1211.09" y="-76.5" font-family="Helvetica,sans-Serif" font-size="10.00">tomographer2/mhrwtasks.h</text>
</a>
</g>
</g>
<!-- Node9&#45;&gt;Node11 -->
<g id="edge15" class="edge"><title>Node9&#45;&gt;Node11</title>
<path fill="none" stroke="midnightblue" d="M1211.09,-120.214C1211.09,-109.714 1211.09,-97.0332 1211.09,-88.8718"/>
<polygon fill="midnightblue" stroke="midnightblue" points="1207.59,-120.435 1211.09,-130.435 1214.59,-120.435 1207.59,-120.435"/>
</g>
<!-- Node11&#45;&gt;Node10 -->
<g id="edge16" class="edge"><title>Node11&#45;&gt;Node10</title>
<path fill="none" stroke="midnightblue" d="M1232.24,-64.7631C1248.8,-54.0054 1271.69,-39.1413 1287.98,-28.5608"/>
<polygon fill="midnightblue" stroke="midnightblue" points="1230.25,-61.8817 1223.77,-70.2639 1234.06,-67.7522 1230.25,-61.8817"/>
</g>
<!-- Node17&#45;&gt;Node6 -->
<g id="edge23" class="edge"><title>Node17&#45;&gt;Node6</title>
<path fill="none" stroke="midnightblue" d="M974.822,-127.335C945.156,-117.668 902.227,-103.68 871.014,-93.5096"/>
<polygon fill="midnightblue" stroke="midnightblue" points="973.746,-130.665 984.338,-130.435 975.915,-124.009 973.746,-130.665"/>
</g>
<!-- Node17&#45;&gt;Node11 -->
<g id="edge24" class="edge"><title>Node17&#45;&gt;Node11</title>
<path fill="none" stroke="midnightblue" d="M1046.97,-127.623C1086.47,-116.281 1147.47,-98.7665 1182.91,-88.5894"/>
<polygon fill="midnightblue" stroke="midnightblue" points="1045.82,-124.311 1037.18,-130.435 1047.75,-131.04 1045.82,-124.311"/>
</g>
<!-- Node18&#45;&gt;Node9 -->
<g id="edge27" class="edge"><title>Node18&#45;&gt;Node9</title>
<path fill="none" stroke="midnightblue" d="M1152.17,-179.781C1167.85,-169.324 1186.61,-156.818 1198.68,-148.771"/>
<polygon fill="midnightblue" stroke="midnightblue" points="1150.21,-176.88 1143.83,-185.339 1154.09,-182.704 1150.21,-176.88"/>
</g>
<!-- Node18&#45;&gt;Node17 -->
<g id="edge26" class="edge"><title>Node18&#45;&gt;Node17</title>
<path fill="none" stroke="midnightblue" d="M1089.21,-180.908C1067.94,-170.18 1041.75,-156.974 1025.23,-148.643"/>
<polygon fill="midnightblue" stroke="midnightblue" points="1087.78,-184.105 1098.28,-185.484 1090.93,-177.855 1087.78,-184.105"/>
</g>
<!-- Node21&#45;&gt;Node3 -->
<g id="edge33" class="edge"><title>Node21&#45;&gt;Node3</title>
<path fill="none" stroke="midnightblue" d="M570.543,-312.43C536.185,-301.923 491.882,-288.374 459.717,-278.537"/>
<polygon fill="midnightblue" stroke="midnightblue" points="569.819,-315.869 580.405,-315.446 571.866,-309.175 569.819,-315.869"/>
</g>
<!-- Node21&#45;&gt;Node8 -->
<g id="edge34" class="edge"><title>Node21&#45;&gt;Node8</title>
<path fill="none" stroke="midnightblue" d="M684.324,-314.943C767.923,-301.676 952.426,-282.334 1052.27,-272.19"/>
<polygon fill="midnightblue" stroke="midnightblue" points="683.705,-311.498 674.403,-316.57 684.838,-318.406 683.705,-311.498"/>
</g>
<!-- Node21&#45;&gt;Node11 -->
<g id="edge36" class="edge"><title>Node21&#45;&gt;Node11</title>
<path fill="none" stroke="midnightblue" d="M638.429,-306.788C648.237,-289.988 657.072,-266.829 645.088,-250 616.717,-210.156 569.46,-253.844 541.088,-214 533.612,-203.501 532.706,-194.791 541.088,-185 579.992,-139.559 979.455,-100.402 1142.43,-86.1942"/>
<polygon fill="midnightblue" stroke="midnightblue" points="635.38,-305.06 633.005,-315.385 641.301,-308.795 635.38,-305.06"/>
</g>
<!-- Node21&#45;&gt;Node17 -->
<g id="edge35" class="edge"><title>Node21&#45;&gt;Node17</title>
<path fill="none" stroke="midnightblue" d="M649.236,-308.795C659.161,-300.397 670.008,-290.001 678.088,-279 705.285,-241.973 684.447,-212.713 721.088,-185 756.548,-158.181 879.058,-147.213 952.382,-142.971"/>
<polygon fill="midnightblue" stroke="midnightblue" points="646.735,-306.318 641.196,-315.349 651.158,-311.743 646.735,-306.318"/>
</g>
<!-- Node21&#45;&gt;Node20 -->
<g id="edge37" class="edge"><title>Node21&#45;&gt;Node20</title>
<path fill="none" stroke="midnightblue" d="M609.902,-306.638C604.251,-297.269 597.841,-286.643 592.952,-278.537"/>
<polygon fill="midnightblue" stroke="midnightblue" points="607.053,-308.691 615.215,-315.446 613.047,-305.076 607.053,-308.691"/>
</g>
<!-- Node22 -->
<g id="node22" class="node"><title>Node22</title>
<g id="a_node22"><a xlink:href="loggers_8h.html" target="_top" xlink:title="Utilities for logging messages. ">
<polygon fill="none" stroke="black" points="856.007,-250.5 856.007,-278.5 958.169,-278.5 958.169,-250.5 856.007,-250.5"/>
<text text-anchor="start" x="864.007" y="-266.5" font-family="Helvetica,sans-Serif" font-size="10.00">tomographer2/tools</text>
<text text-anchor="middle" x="907.088" y="-256.5" font-family="Helvetica,sans-Serif" font-size="10.00">/loggers.h</text>
</a>
</g>
</g>
<!-- Node21&#45;&gt;Node22 -->
<g id="edge38" class="edge"><title>Node21&#45;&gt;Node22</title>
<path fill="none" stroke="midnightblue" d="M684.417,-314.708C748.969,-300.325 812.729,-286.257 855.921,-276.749"/>
<polygon fill="midnightblue" stroke="midnightblue" points="683.471,-311.333 674.472,-316.925 684.994,-318.165 683.471,-311.333"/>
</g>
<!-- Node22&#45;&gt;Node6 -->
<g id="edge39" class="edge"><title>Node22&#45;&gt;Node6</title>
<path fill="none" stroke="midnightblue" d="M897.731,-240.968C881.665,-202.282 849.327,-124.416 836.505,-93.5417"/>
<polygon fill="midnightblue" stroke="midnightblue" points="894.555,-242.446 901.623,-250.339 901.02,-239.761 894.555,-242.446"/>
</g>
<!-- Node22&#45;&gt;Node9 -->
<g id="edge45" class="edge"><title>Node22&#45;&gt;Node9</title>
<path fill="none" stroke="midnightblue" d="M936.904,-244.956C965.769,-227.617 1011.19,-201.925 1053.09,-185 1093.25,-168.775 1141.42,-156.129 1173.93,-148.532"/>
<polygon fill="midnightblue" stroke="midnightblue" points="934.876,-242.093 928.14,-250.271 938.505,-248.079 934.876,-242.093"/>
</g>
<!-- Node22&#45;&gt;Node10 -->
<g id="edge44" class="edge"><title>Node22&#45;&gt;Node10</title>
<path fill="none" stroke="midnightblue" d="M907.04,-240.016C908.254,-210.576 914.726,-160.306 943.088,-130 1018.53,-49.3854 1149.92,-25.1863 1232.78,-18.1269"/>
<polygon fill="midnightblue" stroke="midnightblue" points="903.537,-240.114 906.798,-250.194 910.535,-240.28 903.537,-240.114"/>
</g>
<!-- Node22&#45;&gt;Node14 -->
<g id="edge40" class="edge"><title>Node22&#45;&gt;Node14</title>
<path fill="none" stroke="midnightblue" d="M845.866,-250.425C795.224,-239.61 723.657,-224.326 673.078,-213.525"/>
<polygon fill="midnightblue" stroke="midnightblue" points="845.193,-253.86 855.703,-252.526 846.655,-247.015 845.193,-253.86"/>
</g>
<!-- Node22&#45;&gt;Node17 -->
<g id="edge42" class="edge"><title>Node22&#45;&gt;Node17</title>
<path fill="none" stroke="midnightblue" d="M924.572,-242.417C947.563,-214.692 986.866,-167.298 1002.45,-148.511"/>
<polygon fill="midnightblue" stroke="midnightblue" points="921.693,-240.405 918.004,-250.337 927.082,-244.873 921.693,-240.405"/>
</g>
<!-- Node22&#45;&gt;Node18 -->
<g id="edge43" class="edge"><title>Node22&#45;&gt;Node18</title>
<path fill="none" stroke="midnightblue" d="M961.975,-247.565C998.231,-237.039 1045.16,-223.416 1079.18,-213.537"/>
<polygon fill="midnightblue" stroke="midnightblue" points="960.679,-244.297 952.051,-250.446 962.63,-251.019 960.679,-244.297"/>
</g>
<!-- Node22&#45;&gt;Node19 -->
<g id="edge46" class="edge"><title>Node22&#45;&gt;Node19</title>
<path fill="none" stroke="midnightblue" d="M968.515,-257.09C991.854,-254.737 1018.69,-252.13 1043.09,-250 1255.33,-231.476 1309.53,-239.125 1521.09,-214 1533.41,-212.537 1546.7,-210.557 1558.96,-208.565"/>
<polygon fill="midnightblue" stroke="midnightblue" points="967.999,-253.624 958.403,-258.116 968.705,-260.589 967.999,-253.624"/>
</g>
<!-- Node23 -->
<g id="node23" class="node"><title>Node23</title>
<g id="a_node23"><a xlink:href="simple__find__zero_8h.html" target="_top" xlink:title="A very simplistic tool for finding a relatively straightforward zero with few iterations. ">
<polygon fill="none" stroke="black" points="729.892,-185.5 729.892,-213.5 854.285,-213.5 854.285,-185.5 729.892,-185.5"/>
<text text-anchor="start" x="737.892" y="-201.5" font-family="Helvetica,sans-Serif" font-size="10.00">tomographer2/mathtools</text>
<text text-anchor="middle" x="792.088" y="-191.5" font-family="Helvetica,sans-Serif" font-size="10.00">/simple_find_zero.h</text>
</a>
</g>
</g>
<!-- Node22&#45;&gt;Node23 -->
<g id="edge41" class="edge"><title>Node22&#45;&gt;Node23</title>
<path fill="none" stroke="midnightblue" d="M874.24,-245.505C855.627,-235.308 832.763,-222.783 815.886,-213.537"/>
<polygon fill="midnightblue" stroke="midnightblue" points="872.808,-248.711 883.26,-250.446 876.172,-242.572 872.808,-248.711"/>
</g>
<!-- Node24&#45;&gt;Node3 -->
<g id="edge48" class="edge"><title>Node24&#45;&gt;Node3</title>
<path fill="none" stroke="midnightblue" d="M1363.71,-321.251C1339.99,-319.015 1313.42,-316.697 1289.09,-315 949.98,-291.345 863.773,-308.103 525.088,-279 509.933,-277.698 493.63,-275.88 478.399,-273.999"/>
<polygon fill="midnightblue" stroke="midnightblue" points="1363.4,-324.738 1373.69,-322.202 1364.07,-317.769 1363.4,-324.738"/>
</g>
<!-- Node24&#45;&gt;Node5 -->
<g id="edge49" class="edge"><title>Node24&#45;&gt;Node5</title>
<path fill="none" stroke="midnightblue" d="M1363.72,-321.124C1340,-318.88 1313.43,-316.589 1289.09,-315 871.006,-287.702 763.324,-326.808 347.088,-279 344.26,-278.675 341.375,-278.3 338.467,-277.885"/>
<polygon fill="midnightblue" stroke="midnightblue" points="1363.41,-324.61 1373.7,-322.081 1364.08,-317.642 1363.41,-324.61"/>
</g>
<!-- Node24&#45;&gt;Node6 -->
<g id="edge50" class="edge"><title>Node24&#45;&gt;Node6</title>
<path fill="none" stroke="midnightblue" d="M1390.94,-311.397C1371.28,-302.909 1348.29,-291.74 1329.09,-279 1277.18,-244.548 1279.07,-216.118 1225.09,-185 1179.79,-158.886 1161.5,-168.749 1113.09,-149 1095.6,-141.868 1092.94,-136.153 1075.09,-130 1014.51,-109.12 942.263,-95.8233 892.181,-88.3288"/>
<polygon fill="midnightblue" stroke="midnightblue" points="1389.72,-314.681 1400.29,-315.344 1392.44,-308.231 1389.72,-314.681"/>
</g>
<!-- Node24&#45;&gt;Node8 -->
<g id="edge51" class="edge"><title>Node24&#45;&gt;Node8</title>
<path fill="none" stroke="midnightblue" d="M1363.53,-314.234C1300.5,-301.667 1210.94,-283.812 1159.55,-273.567"/>
<polygon fill="midnightblue" stroke="midnightblue" points="1362.92,-317.681 1373.41,-316.203 1364.29,-310.816 1362.92,-317.681"/>
</g>
<!-- Node24&#45;&gt;Node10 -->
<g id="edge54" class="edge"><title>Node24&#45;&gt;Node10</title>
<path fill="none" stroke="midnightblue" d="M1474.06,-311.246C1492.7,-302.434 1515.06,-291.043 1534.09,-279 1551.74,-267.827 1552.57,-259.679 1571.09,-250 1619.3,-224.798 1655.77,-257.764 1688.09,-214 1695.75,-203.632 1695.1,-195.812 1688.09,-185 1620.85,-81.3788 1473.89,-40.5612 1383.71,-24.8794"/>
<polygon fill="midnightblue" stroke="midnightblue" points="1472.54,-308.089 1464.96,-315.482 1475.5,-314.435 1472.54,-308.089"/>
</g>
<!-- Node24&#45;&gt;Node11 -->
<g id="edge55" class="edge"><title>Node24&#45;&gt;Node11</title>
<path fill="none" stroke="midnightblue" d="M1388.1,-310.916C1373.06,-303.199 1357.6,-292.709 1347.09,-279 1305.51,-224.762 1351.87,-183.295 1309.09,-130 1292.15,-108.892 1263.85,-95.971 1242,-88.6485"/>
<polygon fill="midnightblue" stroke="midnightblue" points="1386.83,-314.191 1397.36,-315.367 1389.86,-307.881 1386.83,-314.191"/>
</g>
<!-- Node24&#45;&gt;Node17 -->
<g id="edge52" class="edge"><title>Node24&#45;&gt;Node17</title>
<path fill="none" stroke="midnightblue" d="M1363.47,-315.222C1334.71,-307.666 1302.25,-296.167 1276.09,-279 1229.98,-248.746 1242.18,-213.693 1195.09,-185 1172.19,-171.05 1104.16,-156.991 1057.05,-148.512"/>
<polygon fill="midnightblue" stroke="midnightblue" points="1362.92,-318.692 1373.47,-317.732 1364.63,-311.903 1362.92,-318.692"/>
</g>
<!-- Node24&#45;&gt;Node18 -->
<g id="edge53" class="edge"><title>Node24&#45;&gt;Node18</title>
<path fill="none" stroke="midnightblue" d="M1363.26,-316.858C1324.99,-309.086 1277.76,-296.937 1238.09,-279 1235.5,-277.831 1174.6,-235.601 1142.9,-213.576"/>
<polygon fill="midnightblue" stroke="midnightblue" points="1362.8,-320.335 1373.29,-318.838 1364.16,-313.468 1362.8,-320.335"/>
</g>
<!-- Node24&#45;&gt;Node19 -->
<g id="edge60" class="edge"><title>Node24&#45;&gt;Node19</title>
<path fill="none" stroke="midnightblue" d="M1460.22,-309.262C1481.05,-293.336 1511.45,-270.14 1538.09,-250 1557.51,-235.316 1580.24,-218.305 1593.32,-208.534"/>
<polygon fill="midnightblue" stroke="midnightblue" points="1458.01,-306.548 1452.19,-315.403 1462.26,-312.108 1458.01,-306.548"/>
</g>
<!-- Node25 -->
<g id="node25" class="node"><title>Node25</title>
<g id="a_node25"><a xlink:href="multiproc_8h.html" target="_top" xlink:title="Some common definitions for multiprocessing interfaces. ">
<polygon fill="none" stroke="black" points="1356.12,-255.5 1356.12,-273.5 1486.06,-273.5 1486.06,-255.5 1356.12,-255.5"/>
<text text-anchor="middle" x="1421.09" y="-261.5" font-family="Helvetica,sans-Serif" font-size="10.00">tomographer2/multiproc.h</text>
</a>
</g>
</g>
<!-- Node24&#45;&gt;Node25 -->
<g id="edge56" class="edge"><title>Node24&#45;&gt;Node25</title>
<path fill="none" stroke="midnightblue" d="M1429.97,-305.472C1427.51,-294.378 1424.7,-281.768 1422.92,-273.73"/>
<polygon fill="midnightblue" stroke="midnightblue" points="1426.6,-306.444 1432.19,-315.446 1433.43,-304.925 1426.6,-306.444"/>
</g>
<!-- Node24&#45;&gt;Node27 -->
<g id="edge61" class="edge"><title>Node24&#45;&gt;Node27</title>
<path fill="none" stroke="midnightblue" d="M1491.02,-312.7C1535.12,-300.241 1594.8,-283.38 1629.6,-273.548"/>
<polygon fill="midnightblue" stroke="midnightblue" points="1489.97,-309.359 1481.29,-315.446 1491.87,-316.096 1489.97,-309.359"/>
</g>
<!-- Node25&#45;&gt;Node11 -->
<g id="edge57" class="edge"><title>Node25&#45;&gt;Node11</title>
<path fill="none" stroke="midnightblue" d="M1408.31,-247.289C1401.11,-237.831 1392.17,-225.527 1385.09,-214 1363.13,-178.266 1373.36,-157.952 1342.09,-130 1317.62,-108.125 1282.53,-95.5557 1254.82,-88.5608"/>
<polygon fill="midnightblue" stroke="midnightblue" points="1405.68,-249.6 1414.56,-255.366 1411.21,-245.316 1405.68,-249.6"/>
</g>
<!-- Node25&#45;&gt;Node19 -->
<g id="edge58" class="edge"><title>Node25&#45;&gt;Node19</title>
<path fill="none" stroke="midnightblue" d="M1454.34,-252.054C1490.85,-239.483 1548.56,-219.617 1580.63,-208.576"/>
<polygon fill="midnightblue" stroke="midnightblue" points="1452.95,-248.828 1444.64,-255.393 1455.23,-255.447 1452.95,-248.828"/>
</g>
<!-- Node26 -->
<g id="node26" class="node"><title>Node26</title>
<g id="a_node26"><a xlink:href="signal__status__report_8h.html" target="_top" xlink:title="Basic common code for intercepting a signal to print status information of a task manager...">
<polygon fill="none" stroke="black" points="1394.5,-185.5 1394.5,-213.5 1511.67,-213.5 1511.67,-185.5 1394.5,-185.5"/>
<text text-anchor="start" x="1402.5" y="-201.5" font-family="Helvetica,sans-Serif" font-size="10.00">tomographer2/tools</text>
<text text-anchor="middle" x="1453.09" y="-191.5" font-family="Helvetica,sans-Serif" font-size="10.00">/signal_status_report.h</text>
</a>
</g>
</g>
<!-- Node25&#45;&gt;Node26 -->
<g id="edge59" class="edge"><title>Node25&#45;&gt;Node26</title>
<path fill="none" stroke="midnightblue" d="M1429.93,-246.101C1435.11,-235.895 1441.56,-223.2 1446.33,-213.798"/>
<polygon fill="midnightblue" stroke="midnightblue" points="1426.68,-244.763 1425.27,-255.264 1432.92,-247.933 1426.68,-244.763"/>
</g>
</g>
</svg>
