<?xml version="1.0" encoding="UTF-8" standalone="no"?>
<!DOCTYPE svg PUBLIC "-//W3C//DTD SVG 1.1//EN"
 "http://www.w3.org/Graphics/SVG/1.1/DTD/svg11.dtd">
<!-- Generated by graphviz version 2.38.0 (20140413.2041)
 -->
<!-- Title: tomographer2/tools/cxxutil.h Pages: 1 -->
<svg width="468pt" height="157pt"
 viewBox="0.00 0.00 468.20 157.00" xmlns="http://www.w3.org/2000/svg" xmlns:xlink="http://www.w3.org/1999/xlink">
<g id="graph0" class="graph" transform="scale(1 1) rotate(0) translate(4 153)">
<title>tomographer2/tools/cxxutil.h</title>
<!-- Node1 -->
<g id="node1" class="node"><title>Node1</title>
<polygon fill="#bfbfbf" stroke="black" points="138.035,-120.5 138.035,-148.5 240.197,-148.5 240.197,-120.5 138.035,-120.5"/>
<text text-anchor="start" x="146.035" y="-136.5" font-family="Helvetica,sans-Serif" font-size="10.00">tomographer2/tools</text>
<text text-anchor="middle" x="189.116" y="-126.5" font-family="Helvetica,sans-Serif" font-size="10.00">/cxxutil.h</text>
</g>
<!-- Node2 -->
<g id="node2" class="node"><title>Node2</title>
<polygon fill="none" stroke="#bfbfbf" points="0,-60.5 0,-78.5 48.2314,-78.5 48.2314,-60.5 0,-60.5"/>
<text text-anchor="middle" x="24.1157" y="-66.5" font-family="Helvetica,sans-Serif" font-size="10.00">cassert</text>
</g>
<!-- Node1&#45;&gt;Node2 -->
<g id="edge1" class="edge"><title>Node1&#45;&gt;Node2</title>
<path fill="none" stroke="midnightblue" d="M153.431,-120.443C126.809,-110.623 89.5875,-96.7272 57.1157,-84 55.747,-83.4635 54.3482,-82.9104 52.9366,-82.3483"/>
<polygon fill="midnightblue" stroke="midnightblue" points="54.2043,-79.0857 43.621,-78.5908 51.5858,-85.5775 54.2043,-79.0857"/>
</g>
<!-- Node3 -->
<g id="node3" class="node"><title>Node3</title>
<polygon fill="none" stroke="#bfbfbf" points="65.9951,-60.5 65.9951,-78.5 114.236,-78.5 114.236,-60.5 65.9951,-60.5"/>
<text text-anchor="middle" x="90.1157" y="-66.5" font-family="Helvetica,sans-Serif" font-size="10.00">cstddef</text>
</g>
<!-- Node1&#45;&gt;Node3 -->
<g id="edge2" class="edge"><title>Node1&#45;&gt;Node3</title>
<path fill="none" stroke="midnightblue" d="M168.603,-120.446C151.877,-109.803 128.335,-94.8214 111.404,-84.0468"/>
<polygon fill="midnightblue" stroke="midnightblue" points="113.078,-80.964 102.763,-78.548 109.32,-86.8696 113.078,-80.964"/>
</g>
<!-- Node4 -->
<g id="node4" class="node"><title>Node4</title>
<polygon fill="none" stroke="#bfbfbf" points="131.943,-60.5 131.943,-78.5 176.288,-78.5 176.288,-60.5 131.943,-60.5"/>
<text text-anchor="middle" x="154.116" y="-66.5" font-family="Helvetica,sans-Serif" font-size="10.00">cstdlib</text>
</g>
<!-- Node1&#45;&gt;Node4 -->
<g id="edge3" class="edge"><title>Node1&#45;&gt;Node4</title>
<path fill="none" stroke="midnightblue" d="M181.864,-120.446C176.583,-110.942 169.381,-97.9773 163.637,-87.6389"/>
<polygon fill="midnightblue" stroke="midnightblue" points="166.604,-85.7719 158.688,-78.7301 160.485,-89.1714 166.604,-85.7719"/>
</g>
<!-- Node5 -->
<g id="node5" class="node"><title>Node5</title>
<polygon fill="none" stroke="#bfbfbf" points="194.049,-60.5 194.049,-78.5 256.182,-78.5 256.182,-60.5 194.049,-60.5"/>
<text text-anchor="middle" x="225.116" y="-66.5" font-family="Helvetica,sans-Serif" font-size="10.00">type_traits</text>
</g>
<!-- Node1&#45;&gt;Node5 -->
<g id="edge4" class="edge"><title>Node1&#45;&gt;Node5</title>
<path fill="none" stroke="midnightblue" d="M196.575,-120.446C202.006,-110.942 209.414,-97.9773 215.322,-87.6389"/>
<polygon fill="midnightblue" stroke="midnightblue" points="218.49,-89.149 220.413,-78.7301 212.413,-85.676 218.49,-89.149"/>
</g>
<!-- Node6 -->
<g id="node6" class="node"><title>Node6</title>
<polygon fill="none" stroke="#bfbfbf" points="274.101,-60.5 274.101,-78.5 340.13,-78.5 340.13,-60.5 274.101,-60.5"/>
<text text-anchor="middle" x="307.116" y="-66.5" font-family="Helvetica,sans-Serif" font-size="10.00">Eigen/Core</text>
</g>
<!-- Node1&#45;&gt;Node6 -->
<g id="edge5" class="edge"><title>Node1&#45;&gt;Node6</title>
<path fill="none" stroke="midnightblue" d="M213.565,-120.446C233.962,-109.557 262.865,-94.1254 283.131,-83.3054"/>
<polygon fill="midnightblue" stroke="midnightblue" points="284.869,-86.3453 292.042,-78.548 281.572,-80.1703 284.869,-86.3453"/>
</g>
<!-- Node7 -->
<g id="node7" class="node"><title>Node7</title>
<g id="a_node7"><a xlink:href="conststr_8h.html" target="_top" xlink:title="A constexpr string type, suitable for basic compile&#45;time string processing. ">
<polygon fill="none" stroke="black" points="358.035,-55.5 358.035,-83.5 460.197,-83.5 460.197,-55.5 358.035,-55.5"/>
<text text-anchor="start" x="366.035" y="-71.5" font-family="Helvetica,sans-Serif" font-size="10.00">tomographer2/tools</text>
<text text-anchor="middle" x="409.116" y="-61.5" font-family="Helvetica,sans-Serif" font-size="10.00">/conststr.h</text>
</a>
</g>
</g>
<!-- Node1&#45;&gt;Node7 -->
<g id="edge6" class="edge"><title>Node1&#45;&gt;Node7</title>
<path fill="none" stroke="midnightblue" d="M234.7,-120.446C269.213,-110.563 316.787,-96.9394 353.533,-86.4169"/>
<polygon fill="midnightblue" stroke="midnightblue" points="354.94,-89.6547 363.59,-83.5369 353.013,-82.9252 354.94,-89.6547"/>
</g>
<!-- Node8 -->
<g id="node8" class="node"><title>Node8</title>
<polygon fill="none" stroke="#bfbfbf" points="388.889,-0.5 388.889,-18.5 429.342,-18.5 429.342,-0.5 388.889,-0.5"/>
<text text-anchor="middle" x="409.116" y="-6.5" font-family="Helvetica,sans-Serif" font-size="10.00">string</text>
</g>
<!-- Node7&#45;&gt;Node8 -->
<g id="edge7" class="edge"><title>Node7&#45;&gt;Node8</title>
<path fill="none" stroke="midnightblue" d="M409.116,-55.3389C409.116,-47.5305 409.116,-37.5122 409.116,-28.9265"/>
<polygon fill="midnightblue" stroke="midnightblue" points="412.616,-28.7714 409.116,-18.7715 405.616,-28.7715 412.616,-28.7714"/>
</g>
</g>
</svg>
