<?xml version="1.0" encoding="UTF-8" standalone="no"?>
<!DOCTYPE svg PUBLIC "-//W3C//DTD SVG 1.1//EN"
 "http://www.w3.org/Graphics/SVG/1.1/DTD/svg11.dtd">
<!-- Generated by graphviz version 2.38.0 (20140413.2041)
 -->
<!-- Title: tomographer2/densedm/densellh.h Pages: 1 -->
<svg width="270pt" height="102pt"
 viewBox="0.00 0.00 270.18 102.00" xmlns="http://www.w3.org/2000/svg" xmlns:xlink="http://www.w3.org/1999/xlink">
<g id="graph0" class="graph" transform="scale(1 1) rotate(0) translate(4 98)">
<title>tomographer2/densedm/densellh.h</title>
<!-- Node1 -->
<g id="node1" class="node"><title>Node1</title>
<polygon fill="#bfbfbf" stroke="black" points="70,-65.5 70,-93.5 192.177,-93.5 192.177,-65.5 70,-65.5"/>
<text text-anchor="start" x="78" y="-81.5" font-family="Helvetica,sans-Serif" font-size="10.00">tomographer2/densedm</text>
<text text-anchor="middle" x="131.088" y="-71.5" font-family="Helvetica,sans-Serif" font-size="10.00">/densellh.h</text>
</g>
<!-- Node2 -->
<g id="node2" class="node"><title>Node2</title>
<g id="a_node2"><a xlink:href="indepmeasllh_8h.html" target="_top" xlink:title="C++ types and functions for calculating the log&#45;likelihood for independent measurements. ">
<polygon fill="none" stroke="black" points="0,-0.5 0,-28.5 122.177,-28.5 122.177,-0.5 0,-0.5"/>
<text text-anchor="start" x="8" y="-16.5" font-family="Helvetica,sans-Serif" font-size="10.00">tomographer2/densedm</text>
<text text-anchor="middle" x="61.0884" y="-6.5" font-family="Helvetica,sans-Serif" font-size="10.00">/indepmeasllh.h</text>
</a>
</g>
</g>
<!-- Node1&#45;&gt;Node2 -->
<g id="edge1" class="edge"><title>Node1&#45;&gt;Node2</title>
<path fill="none" stroke="midnightblue" d="M109.05,-58.6654C98.1246,-48.8326 85.237,-37.2338 75.5738,-28.5369"/>
<polygon fill="midnightblue" stroke="midnightblue" points="106.81,-61.3582 116.584,-65.4464 111.493,-56.1551 106.81,-61.3582"/>
</g>
<!-- Node3 -->
<g id="node3" class="node"><title>Node3</title>
<g id="a_node3"><a xlink:href="tspacellhwalker_8h.html" target="_top" xlink:title="Definitions for a Metropolis&#45;Hastings random walk on a quantum state space with dense matrix type...">
<polygon fill="none" stroke="black" points="140,-0.5 140,-28.5 262.177,-28.5 262.177,-0.5 140,-0.5"/>
<text text-anchor="start" x="148" y="-16.5" font-family="Helvetica,sans-Serif" font-size="10.00">tomographer2/densedm</text>
<text text-anchor="middle" x="201.088" y="-6.5" font-family="Helvetica,sans-Serif" font-size="10.00">/tspacellhwalker.h</text>
</a>
</g>
</g>
<!-- Node1&#45;&gt;Node3 -->
<g id="edge2" class="edge"><title>Node1&#45;&gt;Node3</title>
<path fill="none" stroke="midnightblue" d="M153.127,-58.6654C164.052,-48.8326 176.94,-37.2338 186.603,-28.5369"/>
<polygon fill="midnightblue" stroke="midnightblue" points="150.684,-56.1551 145.592,-65.4464 155.367,-61.3582 150.684,-56.1551"/>
</g>
</g>
</svg>
