<?xml version="1.0" encoding="UTF-8" standalone="no"?>
<!DOCTYPE svg PUBLIC "-//W3C//DTD SVG 1.1//EN"
 "http://www.w3.org/Graphics/SVG/1.1/DTD/svg11.dtd">
<!-- Generated by graphviz version 2.38.0 (20140413.2041)
 -->
<!-- Title: tomographer2/densedm/dmtypes.h Pages: 1 -->
<svg width="468pt" height="222pt"
 viewBox="0.00 0.00 468.19 222.00" xmlns="http://www.w3.org/2000/svg" xmlns:xlink="http://www.w3.org/1999/xlink">
<g id="graph0" class="graph" transform="scale(1 1) rotate(0) translate(4 218)">
<title>tomographer2/densedm/dmtypes.h</title>
<!-- Node1 -->
<g id="node1" class="node"><title>Node1</title>
<polygon fill="#bfbfbf" stroke="black" points="66.0322,-185.5 66.0322,-213.5 188.209,-213.5 188.209,-185.5 66.0322,-185.5"/>
<text text-anchor="start" x="74.0322" y="-201.5" font-family="Helvetica,sans-Serif" font-size="10.00">tomographer2/densedm</text>
<text text-anchor="middle" x="127.121" y="-191.5" font-family="Helvetica,sans-Serif" font-size="10.00">/dmtypes.h</text>
</g>
<!-- Node2 -->
<g id="node2" class="node"><title>Node2</title>
<polygon fill="none" stroke="#bfbfbf" points="0,-60.5 0,-78.5 48.2412,-78.5 48.2412,-60.5 0,-60.5"/>
<text text-anchor="middle" x="24.1206" y="-66.5" font-family="Helvetica,sans-Serif" font-size="10.00">cstddef</text>
</g>
<!-- Node1&#45;&gt;Node2 -->
<g id="edge1" class="edge"><title>Node1&#45;&gt;Node2</title>
<path fill="none" stroke="midnightblue" d="M116.486,-185.284C97.4508,-161.629 57.6286,-112.141 37.0492,-86.5667"/>
<polygon fill="midnightblue" stroke="midnightblue" points="39.6342,-84.1961 30.6382,-78.5995 34.1806,-88.5846 39.6342,-84.1961"/>
</g>
<!-- Node3 -->
<g id="node3" class="node"><title>Node3</title>
<polygon fill="none" stroke="#bfbfbf" points="66.0049,-60.5 66.0049,-78.5 114.236,-78.5 114.236,-60.5 66.0049,-60.5"/>
<text text-anchor="middle" x="90.1206" y="-66.5" font-family="Helvetica,sans-Serif" font-size="10.00">cassert</text>
</g>
<!-- Node1&#45;&gt;Node3 -->
<g id="edge2" class="edge"><title>Node1&#45;&gt;Node3</title>
<path fill="none" stroke="midnightblue" d="M121.058,-185.278C116.723,-175.433 110.993,-161.579 107.121,-149 100.914,-128.838 96.1065,-105.092 93.2116,-89.0388"/>
<polygon fill="midnightblue" stroke="midnightblue" points="96.6056,-88.1256 91.4492,-78.8702 89.7085,-89.3211 96.6056,-88.1256"/>
</g>
<!-- Node4 -->
<g id="node4" class="node"><title>Node4</title>
<polygon fill="none" stroke="#bfbfbf" points="236.155,-125.5 236.155,-143.5 306.086,-143.5 306.086,-125.5 236.155,-125.5"/>
<text text-anchor="middle" x="271.121" y="-131.5" font-family="Helvetica,sans-Serif" font-size="10.00">Eigen/Eigen</text>
</g>
<!-- Node1&#45;&gt;Node4 -->
<g id="edge3" class="edge"><title>Node1&#45;&gt;Node4</title>
<path fill="none" stroke="midnightblue" d="M156.957,-185.446C182.412,-174.31 218.721,-158.425 243.513,-147.578"/>
<polygon fill="midnightblue" stroke="midnightblue" points="244.967,-150.763 252.725,-143.548 242.161,-144.35 244.967,-150.763"/>
</g>
<!-- Node5 -->
<g id="node5" class="node"><title>Node5</title>
<g id="a_node5"><a xlink:href="cxxutil_8h.html" target="_top" xlink:title="Some C++ utilities, with a tad of C++11 tricks. ">
<polygon fill="none" stroke="black" points="116.04,-120.5 116.04,-148.5 218.202,-148.5 218.202,-120.5 116.04,-120.5"/>
<text text-anchor="start" x="124.04" y="-136.5" font-family="Helvetica,sans-Serif" font-size="10.00">tomographer2/tools</text>
<text text-anchor="middle" x="167.121" y="-126.5" font-family="Helvetica,sans-Serif" font-size="10.00">/cxxutil.h</text>
</a>
</g>
</g>
<!-- Node1&#45;&gt;Node5 -->
<g id="edge4" class="edge"><title>Node1&#45;&gt;Node5</title>
<path fill="none" stroke="midnightblue" d="M135.409,-185.446C140.611,-177.253 147.446,-166.488 153.438,-157.051"/>
<polygon fill="midnightblue" stroke="midnightblue" points="156.438,-158.855 158.843,-148.537 150.528,-155.103 156.438,-158.855"/>
</g>
<!-- Node5&#45;&gt;Node2 -->
<g id="edge6" class="edge"><title>Node5&#45;&gt;Node2</title>
<path fill="none" stroke="midnightblue" d="M137.491,-120.446C112.325,-109.359 76.4753,-93.5654 51.8637,-82.7225"/>
<polygon fill="midnightblue" stroke="midnightblue" points="52.9506,-79.3768 42.3883,-78.548 50.1284,-85.7827 52.9506,-79.3768"/>
</g>
<!-- Node5&#45;&gt;Node3 -->
<g id="edge5" class="edge"><title>Node5&#45;&gt;Node3</title>
<path fill="none" stroke="midnightblue" d="M151.166,-120.446C138.591,-110.158 121.062,-95.8153 108.011,-85.1379"/>
<polygon fill="midnightblue" stroke="midnightblue" points="110.136,-82.3536 100.18,-78.7301 105.703,-87.7714 110.136,-82.3536"/>
</g>
<!-- Node6 -->
<g id="node6" class="node"><title>Node6</title>
<polygon fill="none" stroke="#bfbfbf" points="335.948,-60.5 335.948,-78.5 380.293,-78.5 380.293,-60.5 335.948,-60.5"/>
<text text-anchor="middle" x="358.121" y="-66.5" font-family="Helvetica,sans-Serif" font-size="10.00">cstdlib</text>
</g>
<!-- Node5&#45;&gt;Node6 -->
<g id="edge7" class="edge"><title>Node5&#45;&gt;Node6</title>
<path fill="none" stroke="midnightblue" d="M214.137,-120.442C246.262,-111.159 289.638,-97.9109 327.121,-84 328.496,-83.4894 329.899,-82.9497 331.31,-82.3916"/>
<polygon fill="midnightblue" stroke="midnightblue" points="332.661,-85.6206 340.553,-78.552 329.976,-79.1562 332.661,-85.6206"/>
</g>
<!-- Node7 -->
<g id="node7" class="node"><title>Node7</title>
<polygon fill="none" stroke="#bfbfbf" points="398.054,-60.5 398.054,-78.5 460.187,-78.5 460.187,-60.5 398.054,-60.5"/>
<text text-anchor="middle" x="429.121" y="-66.5" font-family="Helvetica,sans-Serif" font-size="10.00">type_traits</text>
</g>
<!-- Node5&#45;&gt;Node7 -->
<g id="edge8" class="edge"><title>Node5&#45;&gt;Node7</title>
<path fill="none" stroke="midnightblue" d="M218.506,-121.929C221.42,-121.276 224.307,-120.629 227.121,-120 299.099,-103.905 318.077,-103.821 389.121,-84 391.591,-83.3106 394.134,-82.5574 396.684,-81.7707"/>
<polygon fill="midnightblue" stroke="midnightblue" points="397.964,-85.0354 406.406,-78.6346 395.815,-78.3734 397.964,-85.0354"/>
</g>
<!-- Node8 -->
<g id="node8" class="node"><title>Node8</title>
<polygon fill="none" stroke="#bfbfbf" points="132.106,-60.5 132.106,-78.5 198.135,-78.5 198.135,-60.5 132.106,-60.5"/>
<text text-anchor="middle" x="165.121" y="-66.5" font-family="Helvetica,sans-Serif" font-size="10.00">Eigen/Core</text>
</g>
<!-- Node5&#45;&gt;Node8 -->
<g id="edge9" class="edge"><title>Node5&#45;&gt;Node8</title>
<path fill="none" stroke="midnightblue" d="M166.706,-120.446C166.417,-111.334 166.027,-99.0406 165.706,-88.9308"/>
<polygon fill="midnightblue" stroke="midnightblue" points="169.198,-88.614 165.382,-78.7301 162.201,-88.8361 169.198,-88.614"/>
</g>
<!-- Node9 -->
<g id="node9" class="node"><title>Node9</title>
<g id="a_node9"><a xlink:href="conststr_8h.html" target="_top" xlink:title="A constexpr string type, suitable for basic compile&#45;time string processing. ">
<polygon fill="none" stroke="black" points="216.04,-55.5 216.04,-83.5 318.202,-83.5 318.202,-55.5 216.04,-55.5"/>
<text text-anchor="start" x="224.04" y="-71.5" font-family="Helvetica,sans-Serif" font-size="10.00">tomographer2/tools</text>
<text text-anchor="middle" x="267.121" y="-61.5" font-family="Helvetica,sans-Serif" font-size="10.00">/conststr.h</text>
</a>
</g>
</g>
<!-- Node5&#45;&gt;Node9 -->
<g id="edge10" class="edge"><title>Node5&#45;&gt;Node9</title>
<path fill="none" stroke="midnightblue" d="M187.841,-120.446C202.322,-111.323 221.861,-99.0133 237.919,-88.8971"/>
<polygon fill="midnightblue" stroke="midnightblue" points="239.832,-91.8287 246.427,-83.5369 236.101,-85.906 239.832,-91.8287"/>
</g>
<!-- Node10 -->
<g id="node10" class="node"><title>Node10</title>
<polygon fill="none" stroke="#bfbfbf" points="246.894,-0.5 246.894,-18.5 287.347,-18.5 287.347,-0.5 246.894,-0.5"/>
<text text-anchor="middle" x="267.121" y="-6.5" font-family="Helvetica,sans-Serif" font-size="10.00">string</text>
</g>
<!-- Node9&#45;&gt;Node10 -->
<g id="edge11" class="edge"><title>Node9&#45;&gt;Node10</title>
<path fill="none" stroke="midnightblue" d="M267.121,-55.3389C267.121,-47.5305 267.121,-37.5122 267.121,-28.9265"/>
<polygon fill="midnightblue" stroke="midnightblue" points="270.621,-28.7714 267.121,-18.7715 263.621,-28.7715 270.621,-28.7714"/>
</g>
</g>
</svg>
