<?xml version="1.0" encoding="UTF-8" standalone="no"?>
<!DOCTYPE svg PUBLIC "-//W3C//DTD SVG 1.1//EN"
 "http://www.w3.org/Graphics/SVG/1.1/DTD/svg11.dtd">
<!-- Generated by graphviz version 2.38.0 (20140413.2041)
 -->
<!-- Title: tomographer2/tools/eigenutil.h Pages: 1 -->
<!--zoomable 287 -->
<svg id="main" version="1.1" xmlns="http://www.w3.org/2000/svg" xmlns:xlink="http://www.w3.org/1999/xlink" xml:space="preserve" onload="init(evt)">
<style type="text/css"><![CDATA[
.edge:hover path { stroke: red; }
.edge:hover polygon { stroke: red; fill: red; }
]]></style>
<script type="text/javascript"><![CDATA[
var edges = document.getElementsByTagName('g');
if (edges && edges.length) {
  for (var i=0;i<edges.length;i++) {
    if (edges[i].id.substr(0,4)=='edge') {
      edges[i].setAttribute('class','edge');
    }
  }
}
]]></script>
        <defs>
                <circle id="rim" cx="0" cy="0" r="7"/>
                <circle id="rim2" cx="0" cy="0" r="3.5"/>
                <g id="zoomPlus">
                        <use xlink:href="#rim" fill="#404040">
                                <set attributeName="fill" to="#808080" begin="zoomplus.mouseover" end="zoomplus.mouseout"/>
                        </use>
                        <path d="M-4,0h8M0,-4v8" fill="none" stroke="white" stroke-width="1.5" pointer-events="none"/>
                </g>
                <g id="zoomMin">
                        <use xlink:href="#rim" fill="#404040">
                                <set attributeName="fill" to="#808080" begin="zoomminus.mouseover" end="zoomminus.mouseout"/>
                        </use>
                        <path d="M-4,0h8" fill="none" stroke="white" stroke-width="1.5" pointer-events="none"/>
                </g>
                <g id="dirArrow">
                        <path fill="none" stroke="white" stroke-width="1.5" d="M0,-3.0v7 M-2.5,-0.5L0,-3.0L2.5,-0.5"/>
                </g>
               <g id="resetDef">
                       <use xlink:href="#rim2" fill="#404040">
                               <set attributeName="fill" to="#808080" begin="reset.mouseover" end="reset.mouseout"/>
                       </use>
               </g>
        </defs>

<script type="text/javascript">
var viewWidth = 686;
var viewHeight = 287;
var sectionId = 'dynsection-1';
</script>
<script xlink:href="svgpan.js"/>
<svg id="graph" class="graph">
<g id="viewport">
<title>tomographer2/tools/eigenutil.h</title>
<!-- Node1 -->
<g id="node1" class="node"><title>Node1</title>
<polygon fill="#bfbfbf" stroke="black" points="303.007,-250.5 303.007,-278.5 405.169,-278.5 405.169,-250.5 303.007,-250.5"/>
<text text-anchor="start" x="311.007" y="-266.5" font-family="Helvetica,sans-Serif" font-size="10.00">tomographer2/tools</text>
<text text-anchor="middle" x="354.088" y="-256.5" font-family="Helvetica,sans-Serif" font-size="10.00">/eigenutil.h</text>
</g>
<!-- Node2 -->
<g id="node2" class="node"><title>Node2</title>
<g id="a_node2"><a xlink:href="param__rho__a_8h.html" target="_top" xlink:title="Tools for parameterizing density matrices with the A Parameterization. ">
<polygon fill="none" stroke="black" points="0,-185.5 0,-213.5 122.177,-213.5 122.177,-185.5 0,-185.5"/>
<text text-anchor="start" x="8" y="-201.5" font-family="Helvetica,sans-Serif" font-size="10.00">tomographer2/densedm</text>
<text text-anchor="middle" x="61.0884" y="-191.5" font-family="Helvetica,sans-Serif" font-size="10.00">/param_rho_a.h</text>
</a>
</g>
</g>
<!-- Node1&#45;&gt;Node2 -->
<g id="edge1" class="edge"><title>Node1&#45;&gt;Node2</title>
<path fill="none" stroke="midnightblue" d="M292.641,-250.288C242.42,-239.489 171.799,-224.305 121.784,-213.551"/>
<polygon fill="midnightblue" stroke="midnightblue" points="292.204,-253.774 302.716,-252.454 293.676,-246.93 292.204,-253.774"/>
</g>
<!-- Node3 -->
<g id="node3" class="node"><title>Node3</title>
<g id="a_node3"><a xlink:href="histogram_8h.html" target="_top" xlink:title="Definitions for Histogram Types. ">
<polygon fill="none" stroke="black" points="140.446,-190.5 140.446,-208.5 273.731,-208.5 273.731,-190.5 140.446,-190.5"/>
<text text-anchor="middle" x="207.088" y="-196.5" font-family="Helvetica,sans-Serif" font-size="10.00">tomographer2/histogram.h</text>
</a>
</g>
</g>
<!-- Node1&#45;&gt;Node3 -->
<g id="edge2" class="edge"><title>Node1&#45;&gt;Node3</title>
<path fill="none" stroke="midnightblue" d="M314.257,-246.429C285.525,-234.116 248.038,-218.05 225.867,-208.548"/>
<polygon fill="midnightblue" stroke="midnightblue" points="313.06,-249.724 323.63,-250.446 315.817,-243.29 313.06,-249.724"/>
</g>
<!-- Node7 -->
<g id="node7" class="node"><title>Node7</title>
<g id="a_node7"><a xlink:href="random__unitary_8h.html" target="_top" xlink:title="Produce a random unitary according to the Haar measure. ">
<polygon fill="none" stroke="black" points="291.892,-185.5 291.892,-213.5 416.285,-213.5 416.285,-185.5 291.892,-185.5"/>
<text text-anchor="start" x="299.892" y="-201.5" font-family="Helvetica,sans-Serif" font-size="10.00">tomographer2/mathtools</text>
<text text-anchor="middle" x="354.088" y="-191.5" font-family="Helvetica,sans-Serif" font-size="10.00">/random_unitary.h</text>
</a>
</g>
</g>
<!-- Node1&#45;&gt;Node7 -->
<g id="edge7" class="edge"><title>Node1&#45;&gt;Node7</title>
<path fill="none" stroke="midnightblue" d="M354.088,-240.164C354.088,-231.169 354.088,-221.221 354.088,-213.537"/>
<polygon fill="midnightblue" stroke="midnightblue" points="350.588,-240.446 354.088,-250.446 357.588,-240.446 350.588,-240.446"/>
</g>
<!-- Node8 -->
<g id="node8" class="node"><title>Node8</title>
<g id="a_node8"><a xlink:href="mhrw__bin__err_8h.html" target="_top" xlink:title="Binning Analysis in a Metropolis&#45;Hastings random walk. ">
<polygon fill="none" stroke="black" points="433.894,-185.5 433.894,-213.5 558.283,-213.5 558.283,-185.5 433.894,-185.5"/>
<text text-anchor="start" x="441.894" y="-201.5" font-family="Helvetica,sans-Serif" font-size="10.00">tomographer2/mhrw_bin</text>
<text text-anchor="middle" x="496.088" y="-191.5" font-family="Helvetica,sans-Serif" font-size="10.00">_err.h</text>
</a>
</g>
</g>
<!-- Node1&#45;&gt;Node8 -->
<g id="edge8" class="edge"><title>Node1&#45;&gt;Node8</title>
<path fill="none" stroke="midnightblue" d="M392.772,-246.337C416.08,-235.997 445.293,-223.036 466.704,-213.537"/>
<polygon fill="midnightblue" stroke="midnightblue" points="391.232,-243.192 383.511,-250.446 394.071,-249.59 391.232,-243.192"/>
</g>
<!-- Node11 -->
<g id="node11" class="node"><title>Node11</title>
<g id="a_node11"><a xlink:href="ezmatio_8h.html" target="_top" xlink:title="Utilities for reading MATLAB &quot;*.mat&quot; data files. See Tomographer::MAT. ">
<polygon fill="none" stroke="black" points="576.007,-185.5 576.007,-213.5 678.169,-213.5 678.169,-185.5 576.007,-185.5"/>
<text text-anchor="start" x="584.007" y="-201.5" font-family="Helvetica,sans-Serif" font-size="10.00">tomographer2/tools</text>
<text text-anchor="middle" x="627.088" y="-191.5" font-family="Helvetica,sans-Serif" font-size="10.00">/ezmatio.h</text>
</a>
</g>
</g>
<!-- Node1&#45;&gt;Node11 -->
<g id="edge13" class="edge"><title>Node1&#45;&gt;Node11</title>
<path fill="none" stroke="midnightblue" d="M415.467,-249.336C463.833,-238.174 530.474,-222.796 575.969,-212.297"/>
<polygon fill="midnightblue" stroke="midnightblue" points="414.394,-245.991 405.438,-251.65 415.969,-252.812 414.394,-245.991"/>
</g>
<!-- Node4 -->
<g id="node4" class="node"><title>Node4</title>
<g id="a_node4"><a xlink:href="mhrwstatscollectors_8h.html" target="_top" xlink:title="Definitions for MHRWStatsCollector Interface&#39;s. ">
<polygon fill="none" stroke="black" points="223.5,-130.5 223.5,-148.5 400.677,-148.5 400.677,-130.5 223.5,-130.5"/>
<text text-anchor="middle" x="312.088" y="-136.5" font-family="Helvetica,sans-Serif" font-size="10.00">tomographer2/mhrwstatscollectors.h</text>
</a>
</g>
</g>
<!-- Node3&#45;&gt;Node4 -->
<g id="edge3" class="edge"><title>Node3&#45;&gt;Node4</title>
<path fill="none" stroke="midnightblue" d="M230.667,-185.476C251.075,-174.203 279.957,-158.249 297.274,-148.683"/>
<polygon fill="midnightblue" stroke="midnightblue" points="228.749,-182.536 221.688,-190.435 232.134,-188.664 228.749,-182.536"/>
</g>
<!-- Node5 -->
<g id="node5" class="node"><title>Node5</title>
<g id="a_node5"><a xlink:href="mhrw__valuehist__tasks_8h.html" target="_top" xlink:title="Tasks for collecting a histogram of values during a Metropolis&#45;Hastings random walk. ">
<polygon fill="none" stroke="black" points="264.833,-0.5 264.833,-28.5 415.344,-28.5 415.344,-0.5 264.833,-0.5"/>
<text text-anchor="start" x="272.833" y="-16.5" font-family="Helvetica,sans-Serif" font-size="10.00">tomographer2/mhrw_valuehist</text>
<text text-anchor="middle" x="340.088" y="-6.5" font-family="Helvetica,sans-Serif" font-size="10.00">_tasks.h</text>
</a>
</g>
</g>
<!-- Node4&#45;&gt;Node5 -->
<g id="edge4" class="edge"><title>Node4&#45;&gt;Node5</title>
<path fill="none" stroke="midnightblue" d="M309.072,-120.093C307.252,-105.01 306.135,-83.2549 311.088,-65 314.688,-51.735 322.834,-38.3872 329.578,-28.9005"/>
<polygon fill="midnightblue" stroke="midnightblue" points="305.63,-120.753 310.511,-130.157 312.56,-119.763 305.63,-120.753"/>
</g>
<!-- Node6 -->
<g id="node6" class="node"><title>Node6</title>
<g id="a_node6"><a xlink:href="mhrwtasks_8h.html" target="_top" xlink:title="Multiprocessing tasks interface (see Task Manager/Dispatcher Interfaces) for parallel Metropolis&#45;Hast...">
<polygon fill="none" stroke="black" points="320.507,-70.5 320.507,-88.5 457.669,-88.5 457.669,-70.5 320.507,-70.5"/>
<text text-anchor="middle" x="389.088" y="-76.5" font-family="Helvetica,sans-Serif" font-size="10.00">tomographer2/mhrwtasks.h</text>
</a>
</g>
</g>
<!-- Node4&#45;&gt;Node6 -->
<g id="edge5" class="edge"><title>Node4&#45;&gt;Node6</title>
<path fill="none" stroke="midnightblue" d="M331.185,-124.115C345.908,-113.025 365.756,-98.0751 377.974,-88.8718"/>
<polygon fill="midnightblue" stroke="midnightblue" points="328.677,-121.623 322.795,-130.435 332.888,-127.214 328.677,-121.623"/>
</g>
<!-- Node6&#45;&gt;Node5 -->
<g id="edge6" class="edge"><title>Node6&#45;&gt;Node5</title>
<path fill="none" stroke="midnightblue" d="M376.538,-62.3637C368.445,-51.9585 358.049,-38.5916 350.431,-28.7981"/>
<polygon fill="midnightblue" stroke="midnightblue" points="373.78,-64.5191 382.682,-70.2639 379.306,-60.2215 373.78,-64.5191"/>
</g>
<!-- Node8&#45;&gt;Node4 -->
<g id="edge12" class="edge"><title>Node8&#45;&gt;Node4</title>
<path fill="none" stroke="midnightblue" d="M445.225,-182.467C410.277,-171.451 365.356,-157.291 337.654,-148.559"/>
<polygon fill="midnightblue" stroke="midnightblue" points="444.206,-185.815 454.795,-185.484 446.31,-179.139 444.206,-185.815"/>
</g>
<!-- Node9 -->
<g id="node9" class="node"><title>Node9</title>
<g id="a_node9"><a xlink:href="mhrw_8h.html" target="_top" xlink:title="Routines for performing a Metropolis&#45;Hastings random walk. ">
<polygon fill="none" stroke="black" points="439.451,-130.5 439.451,-148.5 552.726,-148.5 552.726,-130.5 439.451,-130.5"/>
<text text-anchor="middle" x="496.088" y="-136.5" font-family="Helvetica,sans-Serif" font-size="10.00">tomographer2/mhrw.h</text>
</a>
</g>
</g>
<!-- Node8&#45;&gt;Node9 -->
<g id="edge9" class="edge"><title>Node8&#45;&gt;Node9</title>
<path fill="none" stroke="midnightblue" d="M496.088,-175.323C496.088,-165.936 496.088,-155.7 496.088,-148.771"/>
<polygon fill="midnightblue" stroke="midnightblue" points="492.588,-175.339 496.088,-185.339 499.588,-175.339 492.588,-175.339"/>
</g>
<!-- Node9&#45;&gt;Node6 -->
<g id="edge11" class="edge"><title>Node9&#45;&gt;Node6</title>
<path fill="none" stroke="midnightblue" d="M472.343,-125.628C451.531,-114.347 421.911,-98.2918 404.185,-88.6831"/>
<polygon fill="midnightblue" stroke="midnightblue" points="470.751,-128.747 481.21,-130.435 474.087,-122.593 470.751,-128.747"/>
</g>
<!-- Node10 -->
<g id="node10" class="node"><title>Node10</title>
<g id="a_node10"><a xlink:href="tspacellhwalker_8h.html" target="_top" xlink:title="Definitions for a Metropolis&#45;Hastings random walk on a quantum state space with dense matrix type...">
<polygon fill="none" stroke="black" points="476,-65.5 476,-93.5 598.177,-93.5 598.177,-65.5 476,-65.5"/>
<text text-anchor="start" x="484" y="-81.5" font-family="Helvetica,sans-Serif" font-size="10.00">tomographer2/densedm</text>
<text text-anchor="middle" x="537.088" y="-71.5" font-family="Helvetica,sans-Serif" font-size="10.00">/tspacellhwalker.h</text>
</a>
</g>
</g>
<!-- Node9&#45;&gt;Node10 -->
<g id="edge10" class="edge"><title>Node9&#45;&gt;Node10</title>
<path fill="none" stroke="midnightblue" d="M507.728,-122.034C514.035,-113.112 521.728,-102.23 527.656,-93.8428"/>
<polygon fill="midnightblue" stroke="midnightblue" points="504.704,-120.249 501.789,-130.435 510.42,-124.29 504.704,-120.249"/>
</g>
</g>
</svg>
        <g id="navigator" transform="translate(0 0)" fill="#404254">
                <rect fill="#f2f5e9" fill-opacity="0.5" stroke="#606060" stroke-width=".5" x="0" y="0" width="60" height="60"/>
                <use id="zoomplus" xlink:href="#zoomPlus" x="17" y="9" onmousedown="handleZoom(evt,'in')"/>
                <use id="zoomminus" xlink:href="#zoomMin" x="42" y="9" onmousedown="handleZoom(evt,'out')"/>
                <use id="reset" xlink:href="#resetDef" x="30" y="36" onmousedown="handleReset()"/>
                <g id="arrowUp" xlink:href="#dirArrow" transform="translate(30 24)" onmousedown="handlePan(0,-1)">
                  <use xlink:href="#rim" fill="#404040">
                        <set attributeName="fill" to="#808080" begin="arrowUp.mouseover" end="arrowUp.mouseout"/>
                  </use>
                  <path fill="none" stroke="white" stroke-width="1.5" d="M0,-3.0v7 M-2.5,-0.5L0,-3.0L2.5,-0.5"/>
                </g>
                <g id="arrowRight" xlink:href="#dirArrow" transform="rotate(90) translate(36 -43)" onmousedown="handlePan(1,0)">
                  <use xlink:href="#rim" fill="#404040">
                        <set attributeName="fill" to="#808080" begin="arrowRight.mouseover" end="arrowRight.mouseout"/>
                  </use>
                  <path fill="none" stroke="white" stroke-width="1.5" d="M0,-3.0v7 M-2.5,-0.5L0,-3.0L2.5,-0.5"/>
                </g>
                <g id="arrowDown" xlink:href="#dirArrow" transform="rotate(180) translate(-30 -48)" onmousedown="handlePan(0,1)">
                  <use xlink:href="#rim" fill="#404040">
                        <set attributeName="fill" to="#808080" begin="arrowDown.mouseover" end="arrowDown.mouseout"/>
                  </use>
                  <path fill="none" stroke="white" stroke-width="1.5" d="M0,-3.0v7 M-2.5,-0.5L0,-3.0L2.5,-0.5"/>
                </g>
                <g id="arrowLeft" xlink:href="#dirArrow" transform="rotate(270) translate(-36 17)" onmousedown="handlePan(-1,0)">
                  <use xlink:href="#rim" fill="#404040">
                        <set attributeName="fill" to="#808080" begin="arrowLeft.mouseover" end="arrowLeft.mouseout"/>
                  </use>
                  <path fill="none" stroke="white" stroke-width="1.5" d="M0,-3.0v7 M-2.5,-0.5L0,-3.0L2.5,-0.5"/>
                </g>
        </g>
        <svg viewBox="0 0 15 15" width="100%" height="30px" preserveAspectRatio="xMaxYMin meet">
         <g id="arrow_out" transform="scale(0.3 0.3)">
          <a xlink:href="eigenutil_8h__dep__incl_org.svg" target="_base">
           <rect id="button" ry="5" rx="5" y="6" x="6" height="38" width="38"
                fill="#f2f5e9" fill-opacity="0.5" stroke="#606060" stroke-width="1.0"/>
           <path id="arrow"
             d="M 11.500037,31.436501 C 11.940474,20.09759 22.043105,11.32322 32.158766,21.979434 L 37.068811,17.246167 C 37.068811,17.246167 37.088388,32 37.088388,32 L 22.160133,31.978069 C 22.160133,31.978069 26.997745,27.140456 26.997745,27.140456 C 18.528582,18.264221 13.291696,25.230495 11.500037,31.436501 z"
             style="fill:#404040;"/>
          </a>
         </g>
        </svg>
</svg>
