<?xml version="1.0" encoding="UTF-8" standalone="no"?>
<!DOCTYPE svg PUBLIC "-//W3C//DTD SVG 1.1//EN"
 "http://www.w3.org/Graphics/SVG/1.1/DTD/svg11.dtd">
<!-- Generated by graphviz version 2.38.0 (20140413.2041)
 -->
<!-- Title: tomographer2/tools/fmt.h Pages: 1 -->
<!--zoomable 222 -->
<svg id="main" version="1.1" xmlns="http://www.w3.org/2000/svg" xmlns:xlink="http://www.w3.org/1999/xlink" xml:space="preserve" onload="init(evt)">
<style type="text/css"><![CDATA[
.edge:hover path { stroke: red; }
.edge:hover polygon { stroke: red; fill: red; }
]]></style>
<script type="text/javascript"><![CDATA[
var edges = document.getElementsByTagName('g');
if (edges && edges.length) {
  for (var i=0;i<edges.length;i++) {
    if (edges[i].id.substr(0,4)=='edge') {
      edges[i].setAttribute('class','edge');
    }
  }
}
]]></script>
        <defs>
                <circle id="rim" cx="0" cy="0" r="7"/>
                <circle id="rim2" cx="0" cy="0" r="3.5"/>
                <g id="zoomPlus">
                        <use xlink:href="#rim" fill="#404040">
                                <set attributeName="fill" to="#808080" begin="zoomplus.mouseover" end="zoomplus.mouseout"/>
                        </use>
                        <path d="M-4,0h8M0,-4v8" fill="none" stroke="white" stroke-width="1.5" pointer-events="none"/>
                </g>
                <g id="zoomMin">
                        <use xlink:href="#rim" fill="#404040">
                                <set attributeName="fill" to="#808080" begin="zoomminus.mouseover" end="zoomminus.mouseout"/>
                        </use>
                        <path d="M-4,0h8" fill="none" stroke="white" stroke-width="1.5" pointer-events="none"/>
                </g>
                <g id="dirArrow">
                        <path fill="none" stroke="white" stroke-width="1.5" d="M0,-3.0v7 M-2.5,-0.5L0,-3.0L2.5,-0.5"/>
                </g>
               <g id="resetDef">
                       <use xlink:href="#rim2" fill="#404040">
                               <set attributeName="fill" to="#808080" begin="reset.mouseover" end="reset.mouseout"/>
                       </use>
               </g>
        </defs>

<script type="text/javascript">
var viewWidth = 722;
var viewHeight = 222;
var sectionId = 'dynsection-0';
</script>
<script xlink:href="svgpan.js"/>
<svg id="graph" class="graph">
<g id="viewport">
<title>tomographer2/tools/fmt.h</title>
<!-- Node1 -->
<g id="node1" class="node"><title>Node1</title>
<polygon fill="#bfbfbf" stroke="black" points="176.98,-185.5 176.98,-213.5 279.143,-213.5 279.143,-185.5 176.98,-185.5"/>
<text text-anchor="start" x="184.98" y="-201.5" font-family="Helvetica,sans-Serif" font-size="10.00">tomographer2/tools</text>
<text text-anchor="middle" x="228.062" y="-191.5" font-family="Helvetica,sans-Serif" font-size="10.00">/fmt.h</text>
</g>
<!-- Node2 -->
<g id="node2" class="node"><title>Node2</title>
<polygon fill="none" stroke="#bfbfbf" points="0,-125.5 0,-143.5 42.123,-143.5 42.123,-125.5 0,-125.5"/>
<text text-anchor="middle" x="21.0615" y="-131.5" font-family="Helvetica,sans-Serif" font-size="10.00">cstdio</text>
</g>
<!-- Node1&#45;&gt;Node2 -->
<g id="edge1" class="edge"><title>Node1&#45;&gt;Node2</title>
<path fill="none" stroke="midnightblue" d="M176.685,-186.307C141.008,-177.314 92.6087,-164.061 51.0615,-149 49.8232,-148.551 48.5645,-148.074 47.2992,-147.576"/>
<polygon fill="midnightblue" stroke="midnightblue" points="48.271,-144.187 37.6972,-143.52 45.547,-150.635 48.271,-144.187"/>
</g>
<!-- Node3 -->
<g id="node3" class="node"><title>Node3</title>
<polygon fill="none" stroke="#bfbfbf" points="59.665,-125.5 59.665,-143.5 108.458,-143.5 108.458,-125.5 59.665,-125.5"/>
<text text-anchor="middle" x="84.0615" y="-131.5" font-family="Helvetica,sans-Serif" font-size="10.00">cstdarg</text>
</g>
<!-- Node1&#45;&gt;Node3 -->
<g id="edge2" class="edge"><title>Node1&#45;&gt;Node3</title>
<path fill="none" stroke="midnightblue" d="M198.225,-185.446C172.771,-174.31 136.461,-158.425 111.669,-147.578"/>
<polygon fill="midnightblue" stroke="midnightblue" points="113.021,-144.35 102.457,-143.548 110.216,-150.763 113.021,-144.35"/>
</g>
<!-- Node4 -->
<g id="node4" class="node"><title>Node4</title>
<polygon fill="none" stroke="#bfbfbf" points="126.773,-125.5 126.773,-143.5 173.35,-143.5 173.35,-125.5 126.773,-125.5"/>
<text text-anchor="middle" x="150.062" y="-131.5" font-family="Helvetica,sans-Serif" font-size="10.00">chrono</text>
</g>
<!-- Node1&#45;&gt;Node4 -->
<g id="edge3" class="edge"><title>Node1&#45;&gt;Node4</title>
<path fill="none" stroke="midnightblue" d="M211.9,-185.446C199.162,-175.158 181.404,-160.815 168.185,-150.138"/>
<polygon fill="midnightblue" stroke="midnightblue" points="170.23,-147.291 160.251,-143.73 165.831,-152.736 170.23,-147.291"/>
</g>
<!-- Node5 -->
<g id="node5" class="node"><title>Node5</title>
<polygon fill="none" stroke="#bfbfbf" points="411.835,-0.5 411.835,-18.5 452.288,-18.5 452.288,-0.5 411.835,-0.5"/>
<text text-anchor="middle" x="432.062" y="-6.5" font-family="Helvetica,sans-Serif" font-size="10.00">string</text>
</g>
<!-- Node1&#45;&gt;Node5 -->
<g id="edge4" class="edge"><title>Node1&#45;&gt;Node5</title>
<path fill="none" stroke="midnightblue" d="M224.626,-185.214C218.055,-156.348 207.483,-87.8674 245.062,-55 268.191,-34.7703 354.811,-20.6177 401.609,-14.2674"/>
<polygon fill="midnightblue" stroke="midnightblue" points="402.315,-17.7047 411.771,-12.9263 401.399,-10.7648 402.315,-17.7047"/>
</g>
<!-- Node6 -->
<g id="node6" class="node"><title>Node6</title>
<polygon fill="none" stroke="#bfbfbf" points="229.281,-125.5 229.281,-143.5 280.842,-143.5 280.842,-125.5 229.281,-125.5"/>
<text text-anchor="middle" x="255.062" y="-131.5" font-family="Helvetica,sans-Serif" font-size="10.00">sstream</text>
</g>
<!-- Node1&#45;&gt;Node6 -->
<g id="edge5" class="edge"><title>Node1&#45;&gt;Node6</title>
<path fill="none" stroke="midnightblue" d="M233.656,-185.446C237.687,-176.04 243.171,-163.244 247.579,-152.959"/>
<polygon fill="midnightblue" stroke="midnightblue" points="250.812,-154.3 251.534,-143.73 244.378,-151.543 250.812,-154.3"/>
</g>
<!-- Node7 -->
<g id="node7" class="node"><title>Node7</title>
<polygon fill="none" stroke="#bfbfbf" points="298.889,-125.5 298.889,-143.5 353.234,-143.5 353.234,-125.5 298.889,-125.5"/>
<text text-anchor="middle" x="326.062" y="-131.5" font-family="Helvetica,sans-Serif" font-size="10.00">iostream</text>
</g>
<!-- Node1&#45;&gt;Node7 -->
<g id="edge6" class="edge"><title>Node1&#45;&gt;Node7</title>
<path fill="none" stroke="midnightblue" d="M248.367,-185.446C264.924,-174.803 288.228,-159.821 304.989,-149.047"/>
<polygon fill="midnightblue" stroke="midnightblue" points="307.023,-151.9 313.542,-143.548 303.238,-146.011 307.023,-151.9"/>
</g>
<!-- Node8 -->
<g id="node8" class="node"><title>Node8</title>
<polygon fill="none" stroke="#bfbfbf" points="371.67,-125.5 371.67,-143.5 410.453,-143.5 410.453,-125.5 371.67,-125.5"/>
<text text-anchor="middle" x="391.062" y="-131.5" font-family="Helvetica,sans-Serif" font-size="10.00">utility</text>
</g>
<!-- Node1&#45;&gt;Node8 -->
<g id="edge7" class="edge"><title>Node1&#45;&gt;Node8</title>
<path fill="none" stroke="midnightblue" d="M265.925,-185.445C292.94,-175.906 330.011,-162.353 362.062,-149 363.061,-148.584 364.077,-148.152 365.1,-147.711"/>
<polygon fill="midnightblue" stroke="midnightblue" points="366.604,-150.872 374.297,-143.588 363.74,-144.485 366.604,-150.872"/>
</g>
<!-- Node9 -->
<g id="node9" class="node"><title>Node9</title>
<g id="a_node9"><a xlink:href="cxxutil_8h.html" target="_top" xlink:title="Some C++ utilities, with a tad of C++11 tricks. ">
<polygon fill="none" stroke="black" points="427.98,-120.5 427.98,-148.5 530.143,-148.5 530.143,-120.5 427.98,-120.5"/>
<text text-anchor="start" x="435.98" y="-136.5" font-family="Helvetica,sans-Serif" font-size="10.00">tomographer2/tools</text>
<text text-anchor="middle" x="479.062" y="-126.5" font-family="Helvetica,sans-Serif" font-size="10.00">/cxxutil.h</text>
</a>
</g>
</g>
<!-- Node1&#45;&gt;Node9 -->
<g id="edge8" class="edge"><title>Node1&#45;&gt;Node9</title>
<path fill="none" stroke="midnightblue" d="M279.158,-185.675C319.233,-175.616 375.15,-161.581 417.657,-150.912"/>
<polygon fill="midnightblue" stroke="midnightblue" points="418.759,-154.244 427.607,-148.415 417.055,-147.455 418.759,-154.244"/>
</g>
<!-- Node10 -->
<g id="node10" class="node"><title>Node10</title>
<polygon fill="none" stroke="#bfbfbf" points="253.946,-60.5 253.946,-78.5 302.177,-78.5 302.177,-60.5 253.946,-60.5"/>
<text text-anchor="middle" x="278.062" y="-66.5" font-family="Helvetica,sans-Serif" font-size="10.00">cassert</text>
</g>
<!-- Node9&#45;&gt;Node10 -->
<g id="edge9" class="edge"><title>Node9&#45;&gt;Node10</title>
<path fill="none" stroke="midnightblue" d="M430.122,-120.499C396.382,-111.19 350.656,-97.8915 311.062,-84 309.455,-83.4364 307.813,-82.8382 306.162,-82.2192"/>
<polygon fill="midnightblue" stroke="midnightblue" points="307.37,-78.9334 296.782,-78.5443 304.816,-85.451 307.37,-78.9334"/>
</g>
<!-- Node11 -->
<g id="node11" class="node"><title>Node11</title>
<polygon fill="none" stroke="#bfbfbf" points="319.941,-60.5 319.941,-78.5 368.182,-78.5 368.182,-60.5 319.941,-60.5"/>
<text text-anchor="middle" x="344.062" y="-66.5" font-family="Helvetica,sans-Serif" font-size="10.00">cstddef</text>
</g>
<!-- Node9&#45;&gt;Node11 -->
<g id="edge10" class="edge"><title>Node9&#45;&gt;Node11</title>
<path fill="none" stroke="midnightblue" d="M451.089,-120.446C427.437,-109.409 393.788,-93.7057 370.563,-82.8674"/>
<polygon fill="midnightblue" stroke="midnightblue" points="371.849,-79.6053 361.307,-78.548 368.889,-85.9485 371.849,-79.6053"/>
</g>
<!-- Node12 -->
<g id="node12" class="node"><title>Node12</title>
<polygon fill="none" stroke="#bfbfbf" points="385.889,-60.5 385.889,-78.5 430.234,-78.5 430.234,-60.5 385.889,-60.5"/>
<text text-anchor="middle" x="408.062" y="-66.5" font-family="Helvetica,sans-Serif" font-size="10.00">cstdlib</text>
</g>
<!-- Node9&#45;&gt;Node12 -->
<g id="edge11" class="edge"><title>Node9&#45;&gt;Node12</title>
<path fill="none" stroke="midnightblue" d="M464.35,-120.446C452.866,-110.256 436.899,-96.0881 424.903,-85.444"/>
<polygon fill="midnightblue" stroke="midnightblue" points="427.14,-82.7492 417.337,-78.7301 422.494,-87.9852 427.14,-82.7492"/>
</g>
<!-- Node13 -->
<g id="node13" class="node"><title>Node13</title>
<polygon fill="none" stroke="#bfbfbf" points="447.995,-60.5 447.995,-78.5 510.128,-78.5 510.128,-60.5 447.995,-60.5"/>
<text text-anchor="middle" x="479.062" y="-66.5" font-family="Helvetica,sans-Serif" font-size="10.00">type_traits</text>
</g>
<!-- Node9&#45;&gt;Node13 -->
<g id="edge12" class="edge"><title>Node9&#45;&gt;Node13</title>
<path fill="none" stroke="midnightblue" d="M479.062,-120.446C479.062,-111.334 479.062,-99.0406 479.062,-88.9308"/>
<polygon fill="midnightblue" stroke="midnightblue" points="482.562,-88.7301 479.062,-78.7301 475.562,-88.7301 482.562,-88.7301"/>
</g>
<!-- Node14 -->
<g id="node14" class="node"><title>Node14</title>
<polygon fill="none" stroke="#bfbfbf" points="528.047,-60.5 528.047,-78.5 594.076,-78.5 594.076,-60.5 528.047,-60.5"/>
<text text-anchor="middle" x="561.062" y="-66.5" font-family="Helvetica,sans-Serif" font-size="10.00">Eigen/Core</text>
</g>
<!-- Node9&#45;&gt;Node14 -->
<g id="edge13" class="edge"><title>Node9&#45;&gt;Node14</title>
<path fill="none" stroke="midnightblue" d="M496.052,-120.446C509.571,-110.06 528.467,-95.5418 542.405,-84.8339"/>
<polygon fill="midnightblue" stroke="midnightblue" points="544.552,-87.598 550.349,-78.7301 540.287,-82.0471 544.552,-87.598"/>
</g>
<!-- Node15 -->
<g id="node15" class="node"><title>Node15</title>
<g id="a_node15"><a xlink:href="conststr_8h.html" target="_top" xlink:title="A constexpr string type, suitable for basic compile&#45;time string processing. ">
<polygon fill="none" stroke="black" points="611.98,-55.5 611.98,-83.5 714.143,-83.5 714.143,-55.5 611.98,-55.5"/>
<text text-anchor="start" x="619.98" y="-71.5" font-family="Helvetica,sans-Serif" font-size="10.00">tomographer2/tools</text>
<text text-anchor="middle" x="663.062" y="-61.5" font-family="Helvetica,sans-Serif" font-size="10.00">/conststr.h</text>
</a>
</g>
</g>
<!-- Node9&#45;&gt;Node15 -->
<g id="edge14" class="edge"><title>Node9&#45;&gt;Node15</title>
<path fill="none" stroke="midnightblue" d="M517.186,-120.446C545.682,-110.69 584.823,-97.2882 615.388,-86.8231"/>
<polygon fill="midnightblue" stroke="midnightblue" points="616.658,-90.0876 624.985,-83.5369 614.391,-83.465 616.658,-90.0876"/>
</g>
<!-- Node15&#45;&gt;Node5 -->
<g id="edge15" class="edge"><title>Node15&#45;&gt;Node5</title>
<path fill="none" stroke="midnightblue" d="M611.795,-55.6279C565.991,-44.1273 500.425,-27.6649 462.448,-18.1295"/>
<polygon fill="midnightblue" stroke="midnightblue" points="463.059,-14.6743 452.507,-15.6336 461.354,-21.4635 463.059,-14.6743"/>
</g>
</g>
</svg>
        <g id="navigator" transform="translate(0 0)" fill="#404254">
                <rect fill="#f2f5e9" fill-opacity="0.5" stroke="#606060" stroke-width=".5" x="0" y="0" width="60" height="60"/>
                <use id="zoomplus" xlink:href="#zoomPlus" x="17" y="9" onmousedown="handleZoom(evt,'in')"/>
                <use id="zoomminus" xlink:href="#zoomMin" x="42" y="9" onmousedown="handleZoom(evt,'out')"/>
                <use id="reset" xlink:href="#resetDef" x="30" y="36" onmousedown="handleReset()"/>
                <g id="arrowUp" xlink:href="#dirArrow" transform="translate(30 24)" onmousedown="handlePan(0,-1)">
                  <use xlink:href="#rim" fill="#404040">
                        <set attributeName="fill" to="#808080" begin="arrowUp.mouseover" end="arrowUp.mouseout"/>
                  </use>
                  <path fill="none" stroke="white" stroke-width="1.5" d="M0,-3.0v7 M-2.5,-0.5L0,-3.0L2.5,-0.5"/>
                </g>
                <g id="arrowRight" xlink:href="#dirArrow" transform="rotate(90) translate(36 -43)" onmousedown="handlePan(1,0)">
                  <use xlink:href="#rim" fill="#404040">
                        <set attributeName="fill" to="#808080" begin="arrowRight.mouseover" end="arrowRight.mouseout"/>
                  </use>
                  <path fill="none" stroke="white" stroke-width="1.5" d="M0,-3.0v7 M-2.5,-0.5L0,-3.0L2.5,-0.5"/>
                </g>
                <g id="arrowDown" xlink:href="#dirArrow" transform="rotate(180) translate(-30 -48)" onmousedown="handlePan(0,1)">
                  <use xlink:href="#rim" fill="#404040">
                        <set attributeName="fill" to="#808080" begin="arrowDown.mouseover" end="arrowDown.mouseout"/>
                  </use>
                  <path fill="none" stroke="white" stroke-width="1.5" d="M0,-3.0v7 M-2.5,-0.5L0,-3.0L2.5,-0.5"/>
                </g>
                <g id="arrowLeft" xlink:href="#dirArrow" transform="rotate(270) translate(-36 17)" onmousedown="handlePan(-1,0)">
                  <use xlink:href="#rim" fill="#404040">
                        <set attributeName="fill" to="#808080" begin="arrowLeft.mouseover" end="arrowLeft.mouseout"/>
                  </use>
                  <path fill="none" stroke="white" stroke-width="1.5" d="M0,-3.0v7 M-2.5,-0.5L0,-3.0L2.5,-0.5"/>
                </g>
        </g>
        <svg viewBox="0 0 15 15" width="100%" height="30px" preserveAspectRatio="xMaxYMin meet">
         <g id="arrow_out" transform="scale(0.3 0.3)">
          <a xlink:href="fmt_8h__incl_org.svg" target="_base">
           <rect id="button" ry="5" rx="5" y="6" x="6" height="38" width="38"
                fill="#f2f5e9" fill-opacity="0.5" stroke="#606060" stroke-width="1.0"/>
           <path id="arrow"
             d="M 11.500037,31.436501 C 11.940474,20.09759 22.043105,11.32322 32.158766,21.979434 L 37.068811,17.246167 C 37.068811,17.246167 37.088388,32 37.088388,32 L 22.160133,31.978069 C 22.160133,31.978069 26.997745,27.140456 26.997745,27.140456 C 18.528582,18.264221 13.291696,25.230495 11.500037,31.436501 z"
             style="fill:#404040;"/>
          </a>
         </g>
        </svg>
</svg>
