<?xml version="1.0" encoding="UTF-8" standalone="no"?>
<!DOCTYPE svg PUBLIC "-//W3C//DTD SVG 1.1//EN"
 "http://www.w3.org/Graphics/SVG/1.1/DTD/svg11.dtd">
<!-- Generated by graphviz version 2.38.0 (20140413.2041)
 -->
<!-- Title: tomographer2/histogram.h Pages: 1 -->
<!--zoomable 277 -->
<svg id="main" version="1.1" xmlns="http://www.w3.org/2000/svg" xmlns:xlink="http://www.w3.org/1999/xlink" xml:space="preserve" onload="init(evt)">
<style type="text/css"><![CDATA[
.edge:hover path { stroke: red; }
.edge:hover polygon { stroke: red; fill: red; }
]]></style>
<script type="text/javascript"><![CDATA[
var edges = document.getElementsByTagName('g');
if (edges && edges.length) {
  for (var i=0;i<edges.length;i++) {
    if (edges[i].id.substr(0,4)=='edge') {
      edges[i].setAttribute('class','edge');
    }
  }
}
]]></script>
        <defs>
                <circle id="rim" cx="0" cy="0" r="7"/>
                <circle id="rim2" cx="0" cy="0" r="3.5"/>
                <g id="zoomPlus">
                        <use xlink:href="#rim" fill="#404040">
                                <set attributeName="fill" to="#808080" begin="zoomplus.mouseover" end="zoomplus.mouseout"/>
                        </use>
                        <path d="M-4,0h8M0,-4v8" fill="none" stroke="white" stroke-width="1.5" pointer-events="none"/>
                </g>
                <g id="zoomMin">
                        <use xlink:href="#rim" fill="#404040">
                                <set attributeName="fill" to="#808080" begin="zoomminus.mouseover" end="zoomminus.mouseout"/>
                        </use>
                        <path d="M-4,0h8" fill="none" stroke="white" stroke-width="1.5" pointer-events="none"/>
                </g>
                <g id="dirArrow">
                        <path fill="none" stroke="white" stroke-width="1.5" d="M0,-3.0v7 M-2.5,-0.5L0,-3.0L2.5,-0.5"/>
                </g>
               <g id="resetDef">
                       <use xlink:href="#rim2" fill="#404040">
                               <set attributeName="fill" to="#808080" begin="reset.mouseover" end="reset.mouseout"/>
                       </use>
               </g>
        </defs>

<script type="text/javascript">
var viewWidth = 1225;
var viewHeight = 277;
var sectionId = 'dynsection-0';
</script>
<script xlink:href="svgpan.js"/>
<svg id="graph" class="graph">
<g id="viewport">
<title>tomographer2/histogram.h</title>
<!-- Node1 -->
<g id="node1" class="node"><title>Node1</title>
<polygon fill="#bfbfbf" stroke="black" points="578.973,-250.5 578.973,-268.5 712.258,-268.5 712.258,-250.5 578.973,-250.5"/>
<text text-anchor="middle" x="645.616" y="-256.5" font-family="Helvetica,sans-Serif" font-size="10.00">tomographer2/histogram.h</text>
</g>
<!-- Node2 -->
<g id="node2" class="node"><title>Node2</title>
<polygon fill="none" stroke="#bfbfbf" points="0,-190.5 0,-208.5 43.2314,-208.5 43.2314,-190.5 0,-190.5"/>
<text text-anchor="middle" x="21.6157" y="-196.5" font-family="Helvetica,sans-Serif" font-size="10.00">cmath</text>
</g>
<!-- Node1&#45;&gt;Node2 -->
<g id="edge1" class="edge"><title>Node1&#45;&gt;Node2</title>
<path fill="none" stroke="midnightblue" d="M578.736,-255.82C446.35,-250.124 155.275,-235.547 57.6157,-214 54.9575,-213.414 52.2326,-212.671 49.5298,-211.838"/>
<polygon fill="midnightblue" stroke="midnightblue" points="50.5907,-208.501 39.9959,-208.535 48.2991,-215.116 50.5907,-208.501"/>
</g>
<!-- Node3 -->
<g id="node3" class="node"><title>Node3</title>
<polygon fill="none" stroke="#bfbfbf" points="52.4434,-60.5 52.4434,-78.5 96.7881,-78.5 96.7881,-60.5 52.4434,-60.5"/>
<text text-anchor="middle" x="74.6157" y="-66.5" font-family="Helvetica,sans-Serif" font-size="10.00">cstdlib</text>
</g>
<!-- Node1&#45;&gt;Node3 -->
<g id="edge2" class="edge"><title>Node1&#45;&gt;Node3</title>
<path fill="none" stroke="midnightblue" d="M578.805,-256.409C449.078,-251.808 172.686,-239.156 137.616,-214 95.8715,-184.057 81.4334,-120.222 76.7303,-88.7773"/>
<polygon fill="midnightblue" stroke="midnightblue" points="80.189,-88.2341 75.4054,-78.7807 73.2496,-89.1539 80.189,-88.2341"/>
</g>
<!-- Node4 -->
<g id="node4" class="node"><title>Node4</title>
<polygon fill="none" stroke="#bfbfbf" points="788.443,-125.5 788.443,-143.5 842.788,-143.5 842.788,-125.5 788.443,-125.5"/>
<text text-anchor="middle" x="815.616" y="-131.5" font-family="Helvetica,sans-Serif" font-size="10.00">iostream</text>
</g>
<!-- Node1&#45;&gt;Node4 -->
<g id="edge3" class="edge"><title>Node1&#45;&gt;Node4</title>
<path fill="none" stroke="midnightblue" d="M652.166,-250.379C664.171,-235.872 691.011,-205.141 718.616,-185 739.616,-169.677 766.041,-156.535 786.004,-147.65"/>
<polygon fill="midnightblue" stroke="midnightblue" points="787.457,-150.835 795.234,-143.64 784.667,-144.415 787.457,-150.835"/>
</g>
<!-- Node5 -->
<g id="node5" class="node"><title>Node5</title>
<polygon fill="none" stroke="#bfbfbf" points="885.106,-190.5 885.106,-208.5 936.125,-208.5 936.125,-190.5 885.106,-190.5"/>
<text text-anchor="middle" x="910.616" y="-196.5" font-family="Helvetica,sans-Serif" font-size="10.00">iomanip</text>
</g>
<!-- Node1&#45;&gt;Node5 -->
<g id="edge4" class="edge"><title>Node1&#45;&gt;Node5</title>
<path fill="none" stroke="midnightblue" d="M702.042,-250.442C749.011,-243.056 817.37,-230.725 875.616,-214 877.752,-213.387 879.94,-212.697 882.129,-211.962"/>
<polygon fill="midnightblue" stroke="midnightblue" points="883.355,-215.241 891.569,-208.549 880.974,-208.658 883.355,-215.241"/>
</g>
<!-- Node6 -->
<g id="node6" class="node"><title>Node6</title>
<polygon fill="none" stroke="#bfbfbf" points="860.835,-125.5 860.835,-143.5 912.396,-143.5 912.396,-125.5 860.835,-125.5"/>
<text text-anchor="middle" x="886.616" y="-131.5" font-family="Helvetica,sans-Serif" font-size="10.00">sstream</text>
</g>
<!-- Node1&#45;&gt;Node6 -->
<g id="edge5" class="edge"><title>Node1&#45;&gt;Node6</title>
<path fill="none" stroke="midnightblue" d="M658.931,-250.371C673.13,-241.625 696.2,-227.192 715.616,-214 733.779,-201.66 736.273,-195.393 755.616,-185 795.757,-163.432 809.024,-165.2 851.616,-149 853.206,-148.395 854.836,-147.773 856.482,-147.144"/>
<polygon fill="midnightblue" stroke="midnightblue" points="857.819,-150.379 865.9,-143.527 855.31,-143.845 857.819,-150.379"/>
</g>
<!-- Node7 -->
<g id="node7" class="node"><title>Node7</title>
<polygon fill="none" stroke="#bfbfbf" points="954.214,-190.5 954.214,-208.5 1013.02,-208.5 1013.02,-190.5 954.214,-190.5"/>
<text text-anchor="middle" x="983.616" y="-196.5" font-family="Helvetica,sans-Serif" font-size="10.00">stdexcept</text>
</g>
<!-- Node1&#45;&gt;Node7 -->
<g id="edge6" class="edge"><title>Node1&#45;&gt;Node7</title>
<path fill="none" stroke="midnightblue" d="M712.474,-252.341C773.755,-245.812 866.682,-233.677 945.616,-214 948.263,-213.34 950.985,-212.568 953.697,-211.734"/>
<polygon fill="midnightblue" stroke="midnightblue" points="954.947,-215.007 963.329,-208.526 952.735,-208.365 954.947,-215.007"/>
</g>
<!-- Node8 -->
<g id="node8" class="node"><title>Node8</title>
<polygon fill="none" stroke="#bfbfbf" points="116.549,-60.5 116.549,-78.5 178.682,-78.5 178.682,-60.5 116.549,-60.5"/>
<text text-anchor="middle" x="147.616" y="-66.5" font-family="Helvetica,sans-Serif" font-size="10.00">type_traits</text>
</g>
<!-- Node1&#45;&gt;Node8 -->
<g id="edge7" class="edge"><title>Node1&#45;&gt;Node8</title>
<path fill="none" stroke="midnightblue" d="M578.96,-256.976C452.613,-253.436 188.185,-242.657 158.616,-214 124.898,-181.322 134.755,-119.294 142.382,-88.6143"/>
<polygon fill="midnightblue" stroke="midnightblue" points="145.793,-89.4077 145.006,-78.8421 139.033,-87.5921 145.793,-89.4077"/>
</g>
<!-- Node9 -->
<g id="node9" class="node"><title>Node9</title>
<polygon fill="none" stroke="#bfbfbf" points="1031.05,-190.5 1031.05,-208.5 1088.18,-208.5 1088.18,-190.5 1031.05,-190.5"/>
<text text-anchor="middle" x="1059.62" y="-196.5" font-family="Helvetica,sans-Serif" font-size="10.00">algorithm</text>
</g>
<!-- Node1&#45;&gt;Node9 -->
<g id="edge8" class="edge"><title>Node1&#45;&gt;Node9</title>
<path fill="none" stroke="midnightblue" d="M712.275,-255.119C788.046,-250.239 915.041,-238.906 1021.62,-214 1024.27,-213.379 1027,-212.634 1029.72,-211.818"/>
<polygon fill="midnightblue" stroke="midnightblue" points="1030.95,-215.096 1039.36,-208.64 1028.76,-208.447 1030.95,-215.096"/>
</g>
<!-- Node10 -->
<g id="node10" class="node"><title>Node10</title>
<polygon fill="none" stroke="#bfbfbf" points="1106.09,-185.5 1106.09,-213.5 1217.14,-213.5 1217.14,-185.5 1106.09,-185.5"/>
<text text-anchor="start" x="1114.09" y="-201.5" font-family="Helvetica,sans-Serif" font-size="10.00">boost/math/constants</text>
<text text-anchor="middle" x="1161.62" y="-191.5" font-family="Helvetica,sans-Serif" font-size="10.00">/constants.hpp</text>
</g>
<!-- Node1&#45;&gt;Node10 -->
<g id="edge9" class="edge"><title>Node1&#45;&gt;Node10</title>
<path fill="none" stroke="midnightblue" d="M712.533,-254.218C798.941,-248.174 954.138,-235.58 1095.67,-214.198"/>
<polygon fill="midnightblue" stroke="midnightblue" points="1096.48,-217.615 1105.83,-212.643 1095.42,-210.695 1096.48,-217.615"/>
</g>
<!-- Node11 -->
<g id="node11" class="node"><title>Node11</title>
<polygon fill="none" stroke="#bfbfbf" points="476.601,-60.5 476.601,-78.5 542.63,-78.5 542.63,-60.5 476.601,-60.5"/>
<text text-anchor="middle" x="509.616" y="-66.5" font-family="Helvetica,sans-Serif" font-size="10.00">Eigen/Core</text>
</g>
<!-- Node1&#45;&gt;Node11 -->
<g id="edge10" class="edge"><title>Node1&#45;&gt;Node11</title>
<path fill="none" stroke="midnightblue" d="M592.483,-250.459C536.59,-238.838 451.46,-211.426 412.616,-149 405.806,-138.057 405.885,-130.992 412.616,-120 420.145,-107.705 453.132,-92.4903 478.57,-82.1991"/>
<polygon fill="midnightblue" stroke="midnightblue" points="479.872,-85.448 487.881,-78.5122 477.295,-78.9396 479.872,-85.448"/>
</g>
<!-- Node12 -->
<g id="node12" class="node"><title>Node12</title>
<g id="a_node12"><a xlink:href="fmt_8h.html" target="_top" xlink:title="Utilities for formatting strings. ">
<polygon fill="none" stroke="black" points="764.535,-185.5 764.535,-213.5 866.697,-213.5 866.697,-185.5 764.535,-185.5"/>
<text text-anchor="start" x="772.535" y="-201.5" font-family="Helvetica,sans-Serif" font-size="10.00">tomographer2/tools</text>
<text text-anchor="middle" x="815.616" y="-191.5" font-family="Helvetica,sans-Serif" font-size="10.00">/fmt.h</text>
</a>
</g>
</g>
<!-- Node1&#45;&gt;Node12 -->
<g id="edge11" class="edge"><title>Node1&#45;&gt;Node12</title>
<path fill="none" stroke="midnightblue" d="M669.253,-250.435C694.636,-241.775 735.651,-227.782 767.814,-216.809"/>
<polygon fill="midnightblue" stroke="midnightblue" points="769.15,-220.051 777.484,-213.51 766.89,-213.426 769.15,-220.051"/>
</g>
<!-- Node18 -->
<g id="node18" class="node"><title>Node18</title>
<g id="a_node18"><a xlink:href="cxxutil_8h.html" target="_top" xlink:title="Some C++ utilities, with a tad of C++11 tricks. ">
<polygon fill="none" stroke="black" points="263.535,-120.5 263.535,-148.5 365.697,-148.5 365.697,-120.5 263.535,-120.5"/>
<text text-anchor="start" x="271.535" y="-136.5" font-family="Helvetica,sans-Serif" font-size="10.00">tomographer2/tools</text>
<text text-anchor="middle" x="314.616" y="-126.5" font-family="Helvetica,sans-Serif" font-size="10.00">/cxxutil.h</text>
</a>
</g>
</g>
<!-- Node1&#45;&gt;Node18 -->
<g id="edge33" class="edge"><title>Node1&#45;&gt;Node18</title>
<path fill="none" stroke="midnightblue" d="M578.9,-252.688C511.482,-245.877 412.685,-233.043 379.616,-214 356.374,-200.616 337.867,-175.56 326.636,-157.347"/>
<polygon fill="midnightblue" stroke="midnightblue" points="329.538,-155.377 321.44,-148.544 323.509,-158.935 329.538,-155.377"/>
</g>
<!-- Node22 -->
<g id="node22" class="node"><title>Node22</title>
<g id="a_node22"><a xlink:href="eigenutil_8h.html" target="_top" xlink:title="Basic utilities for dealing with Eigen matrices and other types. ">
<polygon fill="none" stroke="black" points="553.535,-185.5 553.535,-213.5 655.697,-213.5 655.697,-185.5 553.535,-185.5"/>
<text text-anchor="start" x="561.535" y="-201.5" font-family="Helvetica,sans-Serif" font-size="10.00">tomographer2/tools</text>
<text text-anchor="middle" x="604.616" y="-191.5" font-family="Helvetica,sans-Serif" font-size="10.00">/eigenutil.h</text>
</a>
</g>
</g>
<!-- Node1&#45;&gt;Node22 -->
<g id="edge27" class="edge"><title>Node1&#45;&gt;Node22</title>
<path fill="none" stroke="midnightblue" d="M639.915,-250.435C634.741,-243.117 626.875,-231.989 619.881,-222.094"/>
<polygon fill="midnightblue" stroke="midnightblue" points="622.678,-219.988 614.048,-213.843 616.962,-224.029 622.678,-219.988"/>
</g>
<!-- Node27 -->
<g id="node27" class="node"><title>Node27</title>
<g id="a_node27"><a xlink:href="needownoperatornew_8h.html" target="_top" xlink:title="Managing the need for specific overrides to operator new() for some types (especially Eigen types) ...">
<polygon fill="none" stroke="black" points="167.239,-185.5 167.239,-213.5 289.992,-213.5 289.992,-185.5 167.239,-185.5"/>
<text text-anchor="start" x="175.239" y="-201.5" font-family="Helvetica,sans-Serif" font-size="10.00">tomographer2/tools</text>
<text text-anchor="middle" x="228.616" y="-191.5" font-family="Helvetica,sans-Serif" font-size="10.00">/needownoperatornew.h</text>
</a>
</g>
</g>
<!-- Node1&#45;&gt;Node27 -->
<g id="edge34" class="edge"><title>Node1&#45;&gt;Node27</title>
<path fill="none" stroke="midnightblue" d="M586.178,-250.475C521.181,-241.668 413.957,-227.043 321.616,-214 314.619,-213.012 307.327,-211.971 300.041,-210.925"/>
<polygon fill="midnightblue" stroke="midnightblue" points="300.534,-207.46 290.137,-209.498 299.536,-214.388 300.534,-207.46"/>
</g>
<!-- Node12&#45;&gt;Node4 -->
<g id="edge17" class="edge"><title>Node12&#45;&gt;Node4</title>
<path fill="none" stroke="midnightblue" d="M815.616,-185.446C815.616,-176.334 815.616,-164.041 815.616,-153.931"/>
<polygon fill="midnightblue" stroke="midnightblue" points="819.116,-153.73 815.616,-143.73 812.116,-153.73 819.116,-153.73"/>
</g>
<!-- Node12&#45;&gt;Node6 -->
<g id="edge16" class="edge"><title>Node12&#45;&gt;Node6</title>
<path fill="none" stroke="midnightblue" d="M830.327,-185.446C841.812,-175.256 857.778,-161.088 869.774,-150.444"/>
<polygon fill="midnightblue" stroke="midnightblue" points="872.184,-152.985 877.341,-143.73 867.538,-147.749 872.184,-152.985"/>
</g>
<!-- Node13 -->
<g id="node13" class="node"><title>Node13</title>
<polygon fill="none" stroke="#bfbfbf" points="1089.55,-125.5 1089.55,-143.5 1131.68,-143.5 1131.68,-125.5 1089.55,-125.5"/>
<text text-anchor="middle" x="1110.62" y="-131.5" font-family="Helvetica,sans-Serif" font-size="10.00">cstdio</text>
</g>
<!-- Node12&#45;&gt;Node13 -->
<g id="edge12" class="edge"><title>Node12&#45;&gt;Node13</title>
<path fill="none" stroke="midnightblue" d="M866.969,-186.777C869.891,-186.163 872.789,-185.566 875.616,-185 966.321,-166.842 992.197,-176.191 1080.62,-149 1082.08,-148.549 1083.57,-148.044 1085.06,-147.501"/>
<polygon fill="midnightblue" stroke="midnightblue" points="1086.79,-150.577 1094.71,-143.543 1084.13,-144.101 1086.79,-150.577"/>
</g>
<!-- Node14 -->
<g id="node14" class="node"><title>Node14</title>
<polygon fill="none" stroke="#bfbfbf" points="1149.22,-125.5 1149.22,-143.5 1198.01,-143.5 1198.01,-125.5 1149.22,-125.5"/>
<text text-anchor="middle" x="1173.62" y="-131.5" font-family="Helvetica,sans-Serif" font-size="10.00">cstdarg</text>
</g>
<!-- Node12&#45;&gt;Node14 -->
<g id="edge13" class="edge"><title>Node12&#45;&gt;Node14</title>
<path fill="none" stroke="midnightblue" d="M866.943,-186.645C869.872,-186.064 872.779,-185.511 875.616,-185 992.594,-163.935 1025.8,-179.748 1140.62,-149 1142.54,-148.484 1144.51,-147.883 1146.47,-147.228"/>
<polygon fill="midnightblue" stroke="midnightblue" points="1147.95,-150.413 1156.09,-143.631 1145.5,-143.857 1147.95,-150.413"/>
</g>
<!-- Node15 -->
<g id="node15" class="node"><title>Node15</title>
<polygon fill="none" stroke="#bfbfbf" points="968.328,-125.5 968.328,-143.5 1014.9,-143.5 1014.9,-125.5 968.328,-125.5"/>
<text text-anchor="middle" x="991.616" y="-131.5" font-family="Helvetica,sans-Serif" font-size="10.00">chrono</text>
</g>
<!-- Node12&#45;&gt;Node15 -->
<g id="edge14" class="edge"><title>Node12&#45;&gt;Node15</title>
<path fill="none" stroke="midnightblue" d="M852.518,-185.446C880.546,-175.51 920.034,-161.466 954.616,-149 956.449,-148.339 958.333,-147.658 960.233,-146.97"/>
<polygon fill="midnightblue" stroke="midnightblue" points="961.511,-150.229 969.713,-143.523 959.119,-143.65 961.511,-150.229"/>
</g>
<!-- Node16 -->
<g id="node16" class="node"><title>Node16</title>
<polygon fill="none" stroke="#bfbfbf" points="653.389,-0.5 653.389,-18.5 693.842,-18.5 693.842,-0.5 653.389,-0.5"/>
<text text-anchor="middle" x="673.616" y="-6.5" font-family="Helvetica,sans-Serif" font-size="10.00">string</text>
</g>
<!-- Node12&#45;&gt;Node16 -->
<g id="edge15" class="edge"><title>Node12&#45;&gt;Node16</title>
<path fill="none" stroke="midnightblue" d="M860.787,-185.498C897.769,-172.388 941.056,-149.834 921.616,-120 872.595,-44.7693 758.904,-20.8541 704.158,-13.5514"/>
<polygon fill="midnightblue" stroke="midnightblue" points="704.384,-10.0529 694.031,-12.3021 703.527,-17.0003 704.384,-10.0529"/>
</g>
<!-- Node17 -->
<g id="node17" class="node"><title>Node17</title>
<polygon fill="none" stroke="#bfbfbf" points="1033.22,-125.5 1033.22,-143.5 1072.01,-143.5 1072.01,-125.5 1033.22,-125.5"/>
<text text-anchor="middle" x="1052.62" y="-131.5" font-family="Helvetica,sans-Serif" font-size="10.00">utility</text>
</g>
<!-- Node12&#45;&gt;Node17 -->
<g id="edge18" class="edge"><title>Node12&#45;&gt;Node17</title>
<path fill="none" stroke="midnightblue" d="M866.727,-186.905C923.408,-173.956 1008.85,-154.136 1023.62,-149 1024.85,-148.569 1026.11,-148.103 1027.37,-147.611"/>
<polygon fill="midnightblue" stroke="midnightblue" points="1029.09,-150.682 1036.9,-143.518 1026.33,-144.25 1029.09,-150.682"/>
</g>
<!-- Node12&#45;&gt;Node18 -->
<g id="edge19" class="edge"><title>Node12&#45;&gt;Node18</title>
<path fill="none" stroke="midnightblue" d="M764.374,-192.45C687.794,-183.354 538.961,-165.461 412.616,-149 400.708,-147.449 387.994,-145.737 375.802,-144.07"/>
<polygon fill="midnightblue" stroke="midnightblue" points="376.097,-140.577 365.713,-142.683 375.144,-147.512 376.097,-140.577"/>
</g>
<!-- Node18&#45;&gt;Node3 -->
<g id="edge22" class="edge"><title>Node18&#45;&gt;Node3</title>
<path fill="none" stroke="midnightblue" d="M263.289,-121.66C206.919,-108.588 122.388,-88.7568 107.616,-84 105.955,-83.4652 104.26,-82.8845 102.558,-82.2745"/>
<polygon fill="midnightblue" stroke="midnightblue" points="103.521,-78.8952 92.9312,-78.5758 101.011,-85.4295 103.521,-78.8952"/>
</g>
<!-- Node18&#45;&gt;Node8 -->
<g id="edge23" class="edge"><title>Node18&#45;&gt;Node8</title>
<path fill="none" stroke="midnightblue" d="M280.013,-120.446C250.102,-109.162 207.265,-93.0023 178.495,-82.1489"/>
<polygon fill="midnightblue" stroke="midnightblue" points="179.541,-78.803 168.949,-78.548 177.07,-85.3524 179.541,-78.803"/>
</g>
<!-- Node18&#45;&gt;Node11 -->
<g id="edge24" class="edge"><title>Node18&#45;&gt;Node11</title>
<path fill="none" stroke="midnightblue" d="M355.02,-120.446C390.404,-109.015 441.279,-92.5781 474.871,-81.7252"/>
<polygon fill="midnightblue" stroke="midnightblue" points="476.266,-84.9529 484.705,-78.548 474.114,-78.2919 476.266,-84.9529"/>
</g>
<!-- Node19 -->
<g id="node19" class="node"><title>Node19</title>
<polygon fill="none" stroke="#bfbfbf" points="290.5,-60.5 290.5,-78.5 338.731,-78.5 338.731,-60.5 290.5,-60.5"/>
<text text-anchor="middle" x="314.616" y="-66.5" font-family="Helvetica,sans-Serif" font-size="10.00">cassert</text>
</g>
<!-- Node18&#45;&gt;Node19 -->
<g id="edge20" class="edge"><title>Node18&#45;&gt;Node19</title>
<path fill="none" stroke="midnightblue" d="M314.616,-120.446C314.616,-111.334 314.616,-99.0406 314.616,-88.9308"/>
<polygon fill="midnightblue" stroke="midnightblue" points="318.116,-88.7301 314.616,-78.7301 311.116,-88.7301 318.116,-88.7301"/>
</g>
<!-- Node20 -->
<g id="node20" class="node"><title>Node20</title>
<polygon fill="none" stroke="#bfbfbf" points="224.495,-60.5 224.495,-78.5 272.736,-78.5 272.736,-60.5 224.495,-60.5"/>
<text text-anchor="middle" x="248.616" y="-66.5" font-family="Helvetica,sans-Serif" font-size="10.00">cstddef</text>
</g>
<!-- Node18&#45;&gt;Node20 -->
<g id="edge21" class="edge"><title>Node18&#45;&gt;Node20</title>
<path fill="none" stroke="midnightblue" d="M300.94,-120.446C290.367,-110.354 275.707,-96.3602 264.594,-85.752"/>
<polygon fill="midnightblue" stroke="midnightblue" points="266.888,-83.1031 257.238,-78.7301 262.055,-88.1666 266.888,-83.1031"/>
</g>
<!-- Node21 -->
<g id="node21" class="node"><title>Node21</title>
<g id="a_node21"><a xlink:href="conststr_8h.html" target="_top" xlink:title="A constexpr string type, suitable for basic compile&#45;time string processing. ">
<polygon fill="none" stroke="black" points="356.535,-55.5 356.535,-83.5 458.697,-83.5 458.697,-55.5 356.535,-55.5"/>
<text text-anchor="start" x="364.535" y="-71.5" font-family="Helvetica,sans-Serif" font-size="10.00">tomographer2/tools</text>
<text text-anchor="middle" x="407.616" y="-61.5" font-family="Helvetica,sans-Serif" font-size="10.00">/conststr.h</text>
</a>
</g>
</g>
<!-- Node18&#45;&gt;Node21 -->
<g id="edge25" class="edge"><title>Node18&#45;&gt;Node21</title>
<path fill="none" stroke="midnightblue" d="M333.885,-120.446C347.228,-111.408 365.189,-99.241 380.042,-89.1787"/>
<polygon fill="midnightblue" stroke="midnightblue" points="382.055,-92.0432 388.371,-83.5369 378.129,-86.2477 382.055,-92.0432"/>
</g>
<!-- Node21&#45;&gt;Node16 -->
<g id="edge26" class="edge"><title>Node21&#45;&gt;Node16</title>
<path fill="none" stroke="midnightblue" d="M458.996,-56.909C461.912,-56.2608 464.801,-55.6208 467.616,-55 529.935,-41.2583 602.958,-25.5853 643.172,-16.9912"/>
<polygon fill="midnightblue" stroke="midnightblue" points="644.088,-20.3747 653.136,-14.8633 642.625,-13.5291 644.088,-20.3747"/>
</g>
<!-- Node22&#45;&gt;Node11 -->
<g id="edge30" class="edge"><title>Node22&#45;&gt;Node11</title>
<path fill="none" stroke="midnightblue" d="M655.936,-188.913C705.716,-177.336 769.894,-154.949 741.616,-120 718.351,-91.2479 613.531,-78.4748 553.046,-73.4119"/>
<polygon fill="midnightblue" stroke="midnightblue" points="553.266,-69.9184 543.018,-72.609 552.707,-76.896 553.266,-69.9184"/>
</g>
<!-- Node23 -->
<g id="node23" class="node"><title>Node23</title>
<polygon fill="none" stroke="#bfbfbf" points="421.998,-125.5 421.998,-143.5 475.234,-143.5 475.234,-125.5 421.998,-125.5"/>
<text text-anchor="middle" x="448.616" y="-131.5" font-family="Helvetica,sans-Serif" font-size="10.00">complex</text>
</g>
<!-- Node22&#45;&gt;Node23 -->
<g id="edge28" class="edge"><title>Node22&#45;&gt;Node23</title>
<path fill="none" stroke="midnightblue" d="M572.292,-185.446C544.595,-174.261 505.034,-158.284 478.168,-147.435"/>
<polygon fill="midnightblue" stroke="midnightblue" points="479.127,-144.047 468.544,-143.548 476.506,-150.538 479.127,-144.047"/>
</g>
<!-- Node24 -->
<g id="node24" class="node"><title>Node24</title>
<polygon fill="none" stroke="#bfbfbf" points="493,-125.5 493,-143.5 536.231,-143.5 536.231,-125.5 493,-125.5"/>
<text text-anchor="middle" x="514.616" y="-131.5" font-family="Helvetica,sans-Serif" font-size="10.00">vector</text>
</g>
<!-- Node22&#45;&gt;Node24 -->
<g id="edge29" class="edge"><title>Node22&#45;&gt;Node24</title>
<path fill="none" stroke="midnightblue" d="M585.968,-185.446C570.904,-174.901 549.756,-160.098 534.397,-149.347"/>
<polygon fill="midnightblue" stroke="midnightblue" points="536.312,-146.415 526.113,-143.548 532.298,-152.15 536.312,-146.415"/>
</g>
<!-- Node25 -->
<g id="node25" class="node"><title>Node25</title>
<polygon fill="none" stroke="#bfbfbf" points="553.985,-125.5 553.985,-143.5 627.246,-143.5 627.246,-125.5 553.985,-125.5"/>
<text text-anchor="middle" x="590.616" y="-131.5" font-family="Helvetica,sans-Serif" font-size="10.00">Eigen/Dense</text>
</g>
<!-- Node22&#45;&gt;Node25 -->
<g id="edge31" class="edge"><title>Node22&#45;&gt;Node25</title>
<path fill="none" stroke="midnightblue" d="M601.715,-185.446C599.668,-176.236 596.899,-163.776 594.639,-153.605"/>
<polygon fill="midnightblue" stroke="midnightblue" points="598.031,-152.733 592.445,-143.73 591.197,-154.251 598.031,-152.733"/>
</g>
<!-- Node26 -->
<g id="node26" class="node"><title>Node26</title>
<polygon fill="none" stroke="#bfbfbf" points="644.756,-125.5 644.756,-143.5 732.475,-143.5 732.475,-125.5 644.756,-125.5"/>
<text text-anchor="middle" x="688.616" y="-131.5" font-family="Helvetica,sans-Serif" font-size="10.00">Eigen/StdVector</text>
</g>
<!-- Node22&#45;&gt;Node26 -->
<g id="edge32" class="edge"><title>Node22&#45;&gt;Node26</title>
<path fill="none" stroke="midnightblue" d="M622.021,-185.446C635.869,-175.06 655.227,-160.542 669.504,-149.834"/>
<polygon fill="midnightblue" stroke="midnightblue" points="671.742,-152.53 677.642,-143.73 667.542,-146.93 671.742,-152.53"/>
</g>
<!-- Node27&#45;&gt;Node8 -->
<g id="edge35" class="edge"><title>Node27&#45;&gt;Node8</title>
<path fill="none" stroke="midnightblue" d="M205.334,-185.305C192.075,-176.63 176.237,-164.101 166.616,-149 154.862,-130.552 150.378,-105.437 148.668,-88.6315"/>
<polygon fill="midnightblue" stroke="midnightblue" points="152.145,-88.2032 147.872,-78.5083 145.167,-88.7519 152.145,-88.2032"/>
</g>
<!-- Node27&#45;&gt;Node18 -->
<g id="edge37" class="edge"><title>Node27&#45;&gt;Node18</title>
<path fill="none" stroke="midnightblue" d="M246.435,-185.446C258.658,-176.492 275.072,-164.468 288.732,-154.461"/>
<polygon fill="midnightblue" stroke="midnightblue" points="290.821,-157.27 296.819,-148.537 286.684,-151.623 290.821,-157.27"/>
</g>
<!-- Node28 -->
<g id="node28" class="node"><title>Node28</title>
<polygon fill="none" stroke="#bfbfbf" points="175.65,-125.5 175.65,-143.5 245.581,-143.5 245.581,-125.5 175.65,-125.5"/>
<text text-anchor="middle" x="210.616" y="-131.5" font-family="Helvetica,sans-Serif" font-size="10.00">Eigen/Eigen</text>
</g>
<!-- Node27&#45;&gt;Node28 -->
<g id="edge36" class="edge"><title>Node27&#45;&gt;Node28</title>
<path fill="none" stroke="midnightblue" d="M224.886,-185.446C222.254,-176.236 218.695,-163.776 215.789,-153.605"/>
<polygon fill="midnightblue" stroke="midnightblue" points="219.08,-152.384 212.967,-143.73 212.349,-154.307 219.08,-152.384"/>
</g>
</g>
</svg>
        <g id="navigator" transform="translate(0 0)" fill="#404254">
                <rect fill="#f2f5e9" fill-opacity="0.5" stroke="#606060" stroke-width=".5" x="0" y="0" width="60" height="60"/>
                <use id="zoomplus" xlink:href="#zoomPlus" x="17" y="9" onmousedown="handleZoom(evt,'in')"/>
                <use id="zoomminus" xlink:href="#zoomMin" x="42" y="9" onmousedown="handleZoom(evt,'out')"/>
                <use id="reset" xlink:href="#resetDef" x="30" y="36" onmousedown="handleReset()"/>
                <g id="arrowUp" xlink:href="#dirArrow" transform="translate(30 24)" onmousedown="handlePan(0,-1)">
                  <use xlink:href="#rim" fill="#404040">
                        <set attributeName="fill" to="#808080" begin="arrowUp.mouseover" end="arrowUp.mouseout"/>
                  </use>
                  <path fill="none" stroke="white" stroke-width="1.5" d="M0,-3.0v7 M-2.5,-0.5L0,-3.0L2.5,-0.5"/>
                </g>
                <g id="arrowRight" xlink:href="#dirArrow" transform="rotate(90) translate(36 -43)" onmousedown="handlePan(1,0)">
                  <use xlink:href="#rim" fill="#404040">
                        <set attributeName="fill" to="#808080" begin="arrowRight.mouseover" end="arrowRight.mouseout"/>
                  </use>
                  <path fill="none" stroke="white" stroke-width="1.5" d="M0,-3.0v7 M-2.5,-0.5L0,-3.0L2.5,-0.5"/>
                </g>
                <g id="arrowDown" xlink:href="#dirArrow" transform="rotate(180) translate(-30 -48)" onmousedown="handlePan(0,1)">
                  <use xlink:href="#rim" fill="#404040">
                        <set attributeName="fill" to="#808080" begin="arrowDown.mouseover" end="arrowDown.mouseout"/>
                  </use>
                  <path fill="none" stroke="white" stroke-width="1.5" d="M0,-3.0v7 M-2.5,-0.5L0,-3.0L2.5,-0.5"/>
                </g>
                <g id="arrowLeft" xlink:href="#dirArrow" transform="rotate(270) translate(-36 17)" onmousedown="handlePan(-1,0)">
                  <use xlink:href="#rim" fill="#404040">
                        <set attributeName="fill" to="#808080" begin="arrowLeft.mouseover" end="arrowLeft.mouseout"/>
                  </use>
                  <path fill="none" stroke="white" stroke-width="1.5" d="M0,-3.0v7 M-2.5,-0.5L0,-3.0L2.5,-0.5"/>
                </g>
        </g>
        <svg viewBox="0 0 15 15" width="100%" height="30px" preserveAspectRatio="xMaxYMin meet">
         <g id="arrow_out" transform="scale(0.3 0.3)">
          <a xlink:href="histogram_8h__incl_org.svg" target="_base">
           <rect id="button" ry="5" rx="5" y="6" x="6" height="38" width="38"
                fill="#f2f5e9" fill-opacity="0.5" stroke="#606060" stroke-width="1.0"/>
           <path id="arrow"
             d="M 11.500037,31.436501 C 11.940474,20.09759 22.043105,11.32322 32.158766,21.979434 L 37.068811,17.246167 C 37.068811,17.246167 37.088388,32 37.088388,32 L 22.160133,31.978069 C 22.160133,31.978069 26.997745,27.140456 26.997745,27.140456 C 18.528582,18.264221 13.291696,25.230495 11.500037,31.436501 z"
             style="fill:#404040;"/>
          </a>
         </g>
        </svg>
</svg>
