<?xml version="1.0" encoding="UTF-8" standalone="no"?>
<!DOCTYPE svg PUBLIC "-//W3C//DTD SVG 1.1//EN"
 "http://www.w3.org/Graphics/SVG/1.1/DTD/svg11.dtd">
<!-- Generated by graphviz version 2.38.0 (20140413.2041)
 -->
<!-- Title: tomographer2/tools/loggers.h Pages: 1 -->
<svg width="712pt" height="287pt"
 viewBox="0.00 0.00 712.47 287.00" xmlns="http://www.w3.org/2000/svg" xmlns:xlink="http://www.w3.org/1999/xlink">
<g id="graph0" class="graph" transform="scale(1 1) rotate(0) translate(4 283)">
<title>tomographer2/tools/loggers.h</title>
<!-- Node1 -->
<g id="node1" class="node"><title>Node1</title>
<polygon fill="#bfbfbf" stroke="black" points="276.691,-250.5 276.691,-278.5 378.853,-278.5 378.853,-250.5 276.691,-250.5"/>
<text text-anchor="start" x="284.691" y="-266.5" font-family="Helvetica,sans-Serif" font-size="10.00">tomographer2/tools</text>
<text text-anchor="middle" x="327.772" y="-256.5" font-family="Helvetica,sans-Serif" font-size="10.00">/loggers.h</text>
</g>
<!-- Node2 -->
<g id="node2" class="node"><title>Node2</title>
<g id="a_node2"><a xlink:href="tspacellhwalker_8h.html" target="_top" xlink:title="Definitions for a Metropolis&#45;Hastings random walk on a quantum state space with dense matrix type...">
<polygon fill="none" stroke="black" points="248.684,-65.5 248.684,-93.5 370.86,-93.5 370.86,-65.5 248.684,-65.5"/>
<text text-anchor="start" x="256.684" y="-81.5" font-family="Helvetica,sans-Serif" font-size="10.00">tomographer2/densedm</text>
<text text-anchor="middle" x="309.772" y="-71.5" font-family="Helvetica,sans-Serif" font-size="10.00">/tspacellhwalker.h</text>
</a>
</g>
</g>
<!-- Node1&#45;&gt;Node2 -->
<g id="edge1" class="edge"><title>Node1&#45;&gt;Node2</title>
<path fill="none" stroke="midnightblue" d="M325.482,-240.223C321.653,-201.29 314.072,-124.219 311.055,-93.5417"/>
<polygon fill="midnightblue" stroke="midnightblue" points="322.015,-240.73 326.477,-250.339 328.982,-240.044 322.015,-240.73"/>
</g>
<!-- Node3 -->
<g id="node3" class="node"><title>Node3</title>
<g id="a_node3"><a xlink:href="random__unitary_8h.html" target="_top" xlink:title="Produce a random unitary according to the Haar measure. ">
<polygon fill="none" stroke="black" points="14.5751,-185.5 14.5751,-213.5 138.969,-213.5 138.969,-185.5 14.5751,-185.5"/>
<text text-anchor="start" x="22.5751" y="-201.5" font-family="Helvetica,sans-Serif" font-size="10.00">tomographer2/mathtools</text>
<text text-anchor="middle" x="76.7719" y="-191.5" font-family="Helvetica,sans-Serif" font-size="10.00">/random_unitary.h</text>
</a>
</g>
</g>
<!-- Node1&#45;&gt;Node3 -->
<g id="edge2" class="edge"><title>Node1&#45;&gt;Node3</title>
<path fill="none" stroke="midnightblue" d="M266.781,-248.191C224.501,-237.58 168.807,-223.6 128.659,-213.523"/>
<polygon fill="midnightblue" stroke="midnightblue" points="266.125,-251.635 276.676,-250.675 267.829,-244.846 266.125,-251.635"/>
</g>
<!-- Node4 -->
<g id="node4" class="node"><title>Node4</title>
<g id="a_node4"><a xlink:href="simple__find__zero_8h.html" target="_top" xlink:title="A very simplistic tool for finding a relatively straightforward zero with few iterations. ">
<polygon fill="none" stroke="black" points="156.575,-185.5 156.575,-213.5 280.969,-213.5 280.969,-185.5 156.575,-185.5"/>
<text text-anchor="start" x="164.575" y="-201.5" font-family="Helvetica,sans-Serif" font-size="10.00">tomographer2/mathtools</text>
<text text-anchor="middle" x="218.772" y="-191.5" font-family="Helvetica,sans-Serif" font-size="10.00">/simple_find_zero.h</text>
</a>
</g>
</g>
<!-- Node1&#45;&gt;Node4 -->
<g id="edge3" class="edge"><title>Node1&#45;&gt;Node4</title>
<path fill="none" stroke="midnightblue" d="M296.395,-245.365C278.798,-235.194 257.251,-222.74 241.328,-213.537"/>
<polygon fill="midnightblue" stroke="midnightblue" points="294.778,-248.472 305.187,-250.446 298.281,-242.412 294.778,-248.472"/>
</g>
<!-- Node5 -->
<g id="node5" class="node"><title>Node5</title>
<g id="a_node5"><a xlink:href="mhrw_8h.html" target="_top" xlink:title="Routines for performing a Metropolis&#45;Hastings random walk. ">
<polygon fill="none" stroke="black" points="337.134,-130.5 337.134,-148.5 450.41,-148.5 450.41,-130.5 337.134,-130.5"/>
<text text-anchor="middle" x="393.772" y="-136.5" font-family="Helvetica,sans-Serif" font-size="10.00">tomographer2/mhrw.h</text>
</a>
</g>
</g>
<!-- Node1&#45;&gt;Node5 -->
<g id="edge4" class="edge"><title>Node1&#45;&gt;Node5</title>
<path fill="none" stroke="midnightblue" d="M337.863,-240.986C345.174,-225.109 355.534,-203.467 365.772,-185 373.03,-171.908 382.48,-157.327 388.335,-148.538"/>
<polygon fill="midnightblue" stroke="midnightblue" points="334.491,-239.945 333.53,-250.497 340.861,-242.847 334.491,-239.945"/>
</g>
<!-- Node7 -->
<g id="node7" class="node"><title>Node7</title>
<g id="a_node7"><a xlink:href="mhrw__valuehist__tasks_8h.html" target="_top" xlink:title="Tasks for collecting a histogram of values during a Metropolis&#45;Hastings random walk. ">
<polygon fill="none" stroke="black" points="383.516,-0.5 383.516,-28.5 534.028,-28.5 534.028,-0.5 383.516,-0.5"/>
<text text-anchor="start" x="391.516" y="-16.5" font-family="Helvetica,sans-Serif" font-size="10.00">tomographer2/mhrw_valuehist</text>
<text text-anchor="middle" x="458.772" y="-6.5" font-family="Helvetica,sans-Serif" font-size="10.00">_tasks.h</text>
</a>
</g>
</g>
<!-- Node1&#45;&gt;Node7 -->
<g id="edge13" class="edge"><title>Node1&#45;&gt;Node7</title>
<path fill="none" stroke="midnightblue" d="M266.22,-263.172C182.309,-261.267 38.6525,-252.321 5.77192,-214 -2.621,-204.218 -0.948141,-195.998 5.77192,-185 84.4685,-56.2015 275.986,-24.7087 383.093,-17.3748"/>
<polygon fill="midnightblue" stroke="midnightblue" points="266.327,-266.675 276.395,-263.375 266.467,-259.676 266.327,-266.675"/>
</g>
<!-- Node8 -->
<g id="node8" class="node"><title>Node8</title>
<g id="a_node8"><a xlink:href="mhrw__bin__err_8h.html" target="_top" xlink:title="Binning Analysis in a Metropolis&#45;Hastings random walk. ">
<polygon fill="none" stroke="black" points="374.578,-185.5 374.578,-213.5 498.966,-213.5 498.966,-185.5 374.578,-185.5"/>
<text text-anchor="start" x="382.578" y="-201.5" font-family="Helvetica,sans-Serif" font-size="10.00">tomographer2/mhrw_bin</text>
<text text-anchor="middle" x="436.772" y="-191.5" font-family="Helvetica,sans-Serif" font-size="10.00">_err.h</text>
</a>
</g>
</g>
<!-- Node1&#45;&gt;Node8 -->
<g id="edge8" class="edge"><title>Node1&#45;&gt;Node8</title>
<path fill="none" stroke="midnightblue" d="M359.149,-245.365C376.746,-235.194 398.293,-222.74 414.216,-213.537"/>
<polygon fill="midnightblue" stroke="midnightblue" points="357.263,-242.412 350.357,-250.446 360.766,-248.472 357.263,-242.412"/>
</g>
<!-- Node9 -->
<g id="node9" class="node"><title>Node9</title>
<g id="a_node9"><a xlink:href="mhrwstatscollectors_8h.html" target="_top" xlink:title="Definitions for MHRWStatsCollector Interface&#39;s. ">
<polygon fill="none" stroke="black" points="468.184,-130.5 468.184,-148.5 645.36,-148.5 645.36,-130.5 468.184,-130.5"/>
<text text-anchor="middle" x="556.772" y="-136.5" font-family="Helvetica,sans-Serif" font-size="10.00">tomographer2/mhrwstatscollectors.h</text>
</a>
</g>
</g>
<!-- Node1&#45;&gt;Node9 -->
<g id="edge14" class="edge"><title>Node1&#45;&gt;Node9</title>
<path fill="none" stroke="midnightblue" d="M389.076,-257.554C426.262,-251.444 473.071,-239.067 507.772,-214 531.641,-196.758 547.269,-164.035 553.591,-148.751"/>
<polygon fill="midnightblue" stroke="midnightblue" points="388.217,-254.144 378.861,-259.116 389.275,-261.064 388.217,-254.144"/>
</g>
<!-- Node10 -->
<g id="node10" class="node"><title>Node10</title>
<g id="a_node10"><a xlink:href="multiprocomp_8h.html" target="_top" xlink:title="Multiprocessing with OpenMP parallel multithreading. ">
<polygon fill="none" stroke="black" points="555.073,-190.5 555.073,-208.5 704.471,-208.5 704.471,-190.5 555.073,-190.5"/>
<text text-anchor="middle" x="629.772" y="-196.5" font-family="Helvetica,sans-Serif" font-size="10.00">tomographer2/multiprocomp.h</text>
</a>
</g>
</g>
<!-- Node1&#45;&gt;Node10 -->
<g id="edge15" class="edge"><title>Node1&#45;&gt;Node10</title>
<path fill="none" stroke="midnightblue" d="M388.813,-250.766C449.316,-238.145 540.142,-219.198 591.257,-208.534"/>
<polygon fill="midnightblue" stroke="midnightblue" points="388.077,-247.344 379.002,-252.813 389.506,-254.197 388.077,-247.344"/>
</g>
<!-- Node5&#45;&gt;Node2 -->
<g id="edge5" class="edge"><title>Node5&#45;&gt;Node2</title>
<path fill="none" stroke="midnightblue" d="M373.844,-124.74C360.2,-115.32 342.215,-102.901 328.774,-93.6203"/>
<polygon fill="midnightblue" stroke="midnightblue" points="371.874,-127.634 382.092,-130.435 375.852,-121.873 371.874,-127.634"/>
</g>
<!-- Node6 -->
<g id="node6" class="node"><title>Node6</title>
<g id="a_node6"><a xlink:href="mhrwtasks_8h.html" target="_top" xlink:title="Multiprocessing tasks interface (see Task Manager/Dispatcher Interfaces) for parallel Metropolis&#45;Hast...">
<polygon fill="none" stroke="black" points="390.191,-70.5 390.191,-88.5 527.353,-88.5 527.353,-70.5 390.191,-70.5"/>
<text text-anchor="middle" x="458.772" y="-76.5" font-family="Helvetica,sans-Serif" font-size="10.00">tomographer2/mhrwtasks.h</text>
</a>
</g>
</g>
<!-- Node5&#45;&gt;Node6 -->
<g id="edge6" class="edge"><title>Node5&#45;&gt;Node6</title>
<path fill="none" stroke="midnightblue" d="M410.601,-123.483C422.951,-112.463 439.27,-97.9015 449.39,-88.8718"/>
<polygon fill="midnightblue" stroke="midnightblue" points="407.941,-121.166 402.81,-130.435 412.602,-126.389 407.941,-121.166"/>
</g>
<!-- Node6&#45;&gt;Node7 -->
<g id="edge7" class="edge"><title>Node6&#45;&gt;Node7</title>
<path fill="none" stroke="midnightblue" d="M458.772,-60.1373C458.772,-50.1047 458.772,-37.906 458.772,-28.7981"/>
<polygon fill="midnightblue" stroke="midnightblue" points="455.272,-60.2638 458.772,-70.2639 462.272,-60.2639 455.272,-60.2638"/>
</g>
<!-- Node8&#45;&gt;Node5 -->
<g id="edge9" class="edge"><title>Node8&#45;&gt;Node5</title>
<path fill="none" stroke="midnightblue" d="M420.927,-177.128C413.619,-167.271 405.372,-156.147 399.904,-148.771"/>
<polygon fill="midnightblue" stroke="midnightblue" points="418.247,-179.39 427.015,-185.339 423.871,-175.221 418.247,-179.39"/>
</g>
<!-- Node8&#45;&gt;Node9 -->
<g id="edge10" class="edge"><title>Node8&#45;&gt;Node9</title>
<path fill="none" stroke="midnightblue" d="M472.872,-181.052C495.121,-170.298 522.611,-157.011 539.923,-148.643"/>
<polygon fill="midnightblue" stroke="midnightblue" points="471.183,-177.981 463.702,-185.484 474.229,-184.283 471.183,-177.981"/>
</g>
<!-- Node9&#45;&gt;Node6 -->
<g id="edge12" class="edge"><title>Node9&#45;&gt;Node6</title>
<path fill="none" stroke="midnightblue" d="M534.506,-125.322C515.474,-114.059 488.688,-98.2053 472.599,-88.6831"/>
<polygon fill="midnightblue" stroke="midnightblue" points="532.757,-128.354 543.145,-130.435 536.322,-122.33 532.757,-128.354"/>
</g>
<!-- Node9&#45;&gt;Node7 -->
<g id="edge11" class="edge"><title>Node9&#45;&gt;Node7</title>
<path fill="none" stroke="midnightblue" d="M555.493,-120.253C553.573,-104.324 548.773,-81.2717 536.772,-65 524.967,-48.9949 506.298,-36.8811 490.184,-28.644"/>
<polygon fill="midnightblue" stroke="midnightblue" points="552.025,-120.765 556.443,-130.395 558.995,-120.112 552.025,-120.765"/>
</g>
</g>
</svg>
