<?xml version="1.0" encoding="UTF-8" standalone="no"?>
<!DOCTYPE svg PUBLIC "-//W3C//DTD SVG 1.1//EN"
 "http://www.w3.org/Graphics/SVG/1.1/DTD/svg11.dtd">
<!-- Generated by graphviz version 2.38.0 (20140413.2041)
 -->
<!-- Title: tomographer2/mhrw_bin_err.h Pages: 1 -->
<!--zoomable 352 -->
<svg id="main" version="1.1" xmlns="http://www.w3.org/2000/svg" xmlns:xlink="http://www.w3.org/1999/xlink" xml:space="preserve" onload="init(evt)">
<style type="text/css"><![CDATA[
.edge:hover path { stroke: red; }
.edge:hover polygon { stroke: red; fill: red; }
]]></style>
<script type="text/javascript"><![CDATA[
var edges = document.getElementsByTagName('g');
if (edges && edges.length) {
  for (var i=0;i<edges.length;i++) {
    if (edges[i].id.substr(0,4)=='edge') {
      edges[i].setAttribute('class','edge');
    }
  }
}
]]></script>
        <defs>
                <circle id="rim" cx="0" cy="0" r="7"/>
                <circle id="rim2" cx="0" cy="0" r="3.5"/>
                <g id="zoomPlus">
                        <use xlink:href="#rim" fill="#404040">
                                <set attributeName="fill" to="#808080" begin="zoomplus.mouseover" end="zoomplus.mouseout"/>
                        </use>
                        <path d="M-4,0h8M0,-4v8" fill="none" stroke="white" stroke-width="1.5" pointer-events="none"/>
                </g>
                <g id="zoomMin">
                        <use xlink:href="#rim" fill="#404040">
                                <set attributeName="fill" to="#808080" begin="zoomminus.mouseover" end="zoomminus.mouseout"/>
                        </use>
                        <path d="M-4,0h8" fill="none" stroke="white" stroke-width="1.5" pointer-events="none"/>
                </g>
                <g id="dirArrow">
                        <path fill="none" stroke="white" stroke-width="1.5" d="M0,-3.0v7 M-2.5,-0.5L0,-3.0L2.5,-0.5"/>
                </g>
               <g id="resetDef">
                       <use xlink:href="#rim2" fill="#404040">
                               <set attributeName="fill" to="#808080" begin="reset.mouseover" end="reset.mouseout"/>
                       </use>
               </g>
        </defs>

<script type="text/javascript">
var viewWidth = 1240;
var viewHeight = 352;
var sectionId = 'dynsection-0';
</script>
<script xlink:href="svgpan.js"/>
<svg id="graph" class="graph">
<g id="viewport">
<title>tomographer2/mhrw_bin_err.h</title>
<!-- Node1 -->
<g id="node1" class="node"><title>Node1</title>
<polygon fill="#bfbfbf" stroke="black" points="792.63,-315.5 792.63,-343.5 917.019,-343.5 917.019,-315.5 792.63,-315.5"/>
<text text-anchor="start" x="800.63" y="-331.5" font-family="Helvetica,sans-Serif" font-size="10.00">tomographer2/mhrw_bin</text>
<text text-anchor="middle" x="854.824" y="-321.5" font-family="Helvetica,sans-Serif" font-size="10.00">_err.h</text>
</g>
<!-- Node2 -->
<g id="node2" class="node"><title>Node2</title>
<g id="a_node2"><a xlink:href="loggers_8h.html" target="_top" xlink:title="Utilities for logging messages. ">
<polygon fill="none" stroke="black" points="266.743,-250.5 266.743,-278.5 368.905,-278.5 368.905,-250.5 266.743,-250.5"/>
<text text-anchor="start" x="274.743" y="-266.5" font-family="Helvetica,sans-Serif" font-size="10.00">tomographer2/tools</text>
<text text-anchor="middle" x="317.824" y="-256.5" font-family="Helvetica,sans-Serif" font-size="10.00">/loggers.h</text>
</a>
</g>
</g>
<!-- Node1&#45;&gt;Node2 -->
<g id="edge1" class="edge"><title>Node1&#45;&gt;Node2</title>
<path fill="none" stroke="midnightblue" d="M792.436,-321.181C688.762,-309.018 482.241,-284.789 379.225,-272.703"/>
<polygon fill="midnightblue" stroke="midnightblue" points="379.325,-269.191 368.985,-271.502 378.51,-276.144 379.325,-269.191"/>
</g>
<!-- Node15 -->
<g id="node15" class="node"><title>Node15</title>
<g id="a_node15"><a xlink:href="cxxutil_8h.html" target="_top" xlink:title="Some C++ utilities, with a tad of C++11 tricks. ">
<polygon fill="none" stroke="black" points="798.743,-120.5 798.743,-148.5 900.905,-148.5 900.905,-120.5 798.743,-120.5"/>
<text text-anchor="start" x="806.743" y="-136.5" font-family="Helvetica,sans-Serif" font-size="10.00">tomographer2/tools</text>
<text text-anchor="middle" x="849.824" y="-126.5" font-family="Helvetica,sans-Serif" font-size="10.00">/cxxutil.h</text>
</a>
</g>
</g>
<!-- Node1&#45;&gt;Node15 -->
<g id="edge34" class="edge"><title>Node1&#45;&gt;Node15</title>
<path fill="none" stroke="midnightblue" d="M854.481,-315.234C853.642,-282.859 851.482,-199.478 850.425,-158.679"/>
<polygon fill="midnightblue" stroke="midnightblue" points="853.922,-158.509 850.164,-148.603 846.924,-158.691 853.922,-158.509"/>
</g>
<!-- Node21 -->
<g id="node21" class="node"><title>Node21</title>
<g id="a_node21"><a xlink:href="eigenutil_8h.html" target="_top" xlink:title="Basic utilities for dealing with Eigen matrices and other types. ">
<polygon fill="none" stroke="black" points="903.743,-250.5 903.743,-278.5 1005.91,-278.5 1005.91,-250.5 903.743,-250.5"/>
<text text-anchor="start" x="911.743" y="-266.5" font-family="Helvetica,sans-Serif" font-size="10.00">tomographer2/tools</text>
<text text-anchor="middle" x="954.824" y="-256.5" font-family="Helvetica,sans-Serif" font-size="10.00">/eigenutil.h</text>
</a>
</g>
</g>
<!-- Node1&#45;&gt;Node21 -->
<g id="edge28" class="edge"><title>Node1&#45;&gt;Node21</title>
<path fill="none" stroke="midnightblue" d="M875.544,-315.446C890.025,-306.323 909.565,-294.013 925.623,-283.897"/>
<polygon fill="midnightblue" stroke="midnightblue" points="927.536,-286.829 934.131,-278.537 923.804,-280.906 927.536,-286.829"/>
</g>
<!-- Node26 -->
<g id="node26" class="node"><title>Node26</title>
<g id="a_node26"><a xlink:href="needownoperatornew_8h.html" target="_top" xlink:title="Managing the need for specific overrides to operator new() for some types (especially Eigen types) ...">
<polygon fill="none" stroke="black" points="704.448,-185.5 704.448,-213.5 827.201,-213.5 827.201,-185.5 704.448,-185.5"/>
<text text-anchor="start" x="712.448" y="-201.5" font-family="Helvetica,sans-Serif" font-size="10.00">tomographer2/tools</text>
<text text-anchor="middle" x="765.824" y="-191.5" font-family="Helvetica,sans-Serif" font-size="10.00">/needownoperatornew.h</text>
</a>
</g>
</g>
<!-- Node1&#45;&gt;Node26 -->
<g id="edge35" class="edge"><title>Node1&#45;&gt;Node26</title>
<path fill="none" stroke="midnightblue" d="M845.635,-315.284C830.313,-293.247 799.402,-248.791 780.868,-222.135"/>
<polygon fill="midnightblue" stroke="midnightblue" points="783.679,-220.048 775.097,-213.836 777.932,-224.044 783.679,-220.048"/>
</g>
<!-- Node28 -->
<g id="node28" class="node"><title>Node28</title>
<polygon fill="none" stroke="#bfbfbf" points="1024.3,-250.5 1024.3,-278.5 1135.35,-278.5 1135.35,-250.5 1024.3,-250.5"/>
<text text-anchor="start" x="1032.3" y="-266.5" font-family="Helvetica,sans-Serif" font-size="10.00">boost/math/constants</text>
<text text-anchor="middle" x="1079.82" y="-256.5" font-family="Helvetica,sans-Serif" font-size="10.00">/constants.hpp</text>
</g>
<!-- Node1&#45;&gt;Node28 -->
<g id="edge39" class="edge"><title>Node1&#45;&gt;Node28</title>
<path fill="none" stroke="midnightblue" d="M901.444,-315.446C936.892,-305.521 985.814,-291.823 1023.46,-281.282"/>
<polygon fill="midnightblue" stroke="midnightblue" points="1024.58,-284.604 1033.26,-278.537 1022.69,-277.863 1024.58,-284.604"/>
</g>
<!-- Node3 -->
<g id="node3" class="node"><title>Node3</title>
<polygon fill="none" stroke="#bfbfbf" points="316.763,-125.5 316.763,-143.5 358.886,-143.5 358.886,-125.5 316.763,-125.5"/>
<text text-anchor="middle" x="337.824" y="-131.5" font-family="Helvetica,sans-Serif" font-size="10.00">cstdio</text>
</g>
<!-- Node2&#45;&gt;Node3 -->
<g id="edge2" class="edge"><title>Node2&#45;&gt;Node3</title>
<path fill="none" stroke="midnightblue" d="M343.007,-250.372C356.305,-241.942 371.375,-229.637 378.824,-214 389.41,-191.777 370.721,-166.649 355.233,-150.941"/>
<polygon fill="midnightblue" stroke="midnightblue" points="357.247,-148.024 347.597,-143.65 352.413,-153.087 357.247,-148.024"/>
</g>
<!-- Node4 -->
<g id="node4" class="node"><title>Node4</title>
<polygon fill="none" stroke="#bfbfbf" points="536.428,-125.5 536.428,-143.5 585.221,-143.5 585.221,-125.5 536.428,-125.5"/>
<text text-anchor="middle" x="560.824" y="-131.5" font-family="Helvetica,sans-Serif" font-size="10.00">cstdarg</text>
</g>
<!-- Node2&#45;&gt;Node4 -->
<g id="edge3" class="edge"><title>Node2&#45;&gt;Node4</title>
<path fill="none" stroke="midnightblue" d="M369.008,-258.458C427.336,-251.667 517.72,-237.628 541.824,-214 557.836,-198.305 561.258,-171.591 561.571,-153.746"/>
<polygon fill="midnightblue" stroke="midnightblue" points="565.071,-153.685 561.439,-143.732 558.071,-153.778 565.071,-153.685"/>
</g>
<!-- Node5 -->
<g id="node5" class="node"><title>Node5</title>
<polygon fill="none" stroke="#bfbfbf" points="158.598,-0.5 158.598,-18.5 199.051,-18.5 199.051,-0.5 158.598,-0.5"/>
<text text-anchor="middle" x="178.824" y="-6.5" font-family="Helvetica,sans-Serif" font-size="10.00">string</text>
</g>
<!-- Node2&#45;&gt;Node5 -->
<g id="edge4" class="edge"><title>Node2&#45;&gt;Node5</title>
<path fill="none" stroke="midnightblue" d="M266.622,-262.814C188.83,-260.565 46.5378,-251.315 14.8243,-214 -45.1603,-143.421 94.7994,-56.0055 153.972,-23.4827"/>
<polygon fill="midnightblue" stroke="midnightblue" points="155.921,-26.4075 163.054,-18.5738 152.593,-20.2494 155.921,-26.4075"/>
</g>
<!-- Node6 -->
<g id="node6" class="node"><title>Node6</title>
<polygon fill="none" stroke="#bfbfbf" points="603.044,-125.5 603.044,-143.5 654.605,-143.5 654.605,-125.5 603.044,-125.5"/>
<text text-anchor="middle" x="628.824" y="-131.5" font-family="Helvetica,sans-Serif" font-size="10.00">sstream</text>
</g>
<!-- Node2&#45;&gt;Node6 -->
<g id="edge5" class="edge"><title>Node2&#45;&gt;Node6</title>
<path fill="none" stroke="midnightblue" d="M368.954,-263.004C421.339,-260.356 503.439,-250.105 563.824,-214 588.811,-199.06 608.529,-170.899 619.429,-152.681"/>
<polygon fill="midnightblue" stroke="midnightblue" points="622.623,-154.148 624.556,-143.731 616.548,-150.669 622.623,-154.148"/>
</g>
<!-- Node7 -->
<g id="node7" class="node"><title>Node7</title>
<polygon fill="none" stroke="#bfbfbf" points="151.652,-125.5 151.652,-143.5 205.997,-143.5 205.997,-125.5 151.652,-125.5"/>
<text text-anchor="middle" x="178.824" y="-131.5" font-family="Helvetica,sans-Serif" font-size="10.00">iostream</text>
</g>
<!-- Node2&#45;&gt;Node7 -->
<g id="edge6" class="edge"><title>Node2&#45;&gt;Node7</title>
<path fill="none" stroke="midnightblue" d="M266.7,-255.962C220.607,-247.997 157.824,-233.831 142.824,-214 128.056,-194.475 146.772,-167.922 162.266,-151.249"/>
<polygon fill="midnightblue" stroke="midnightblue" points="164.943,-153.519 169.453,-143.932 159.949,-148.614 164.943,-153.519"/>
</g>
<!-- Node8 -->
<g id="node8" class="node"><title>Node8</title>
<polygon fill="none" stroke="#bfbfbf" points="37.4205,-190.5 37.4205,-208.5 96.2281,-208.5 96.2281,-190.5 37.4205,-190.5"/>
<text text-anchor="middle" x="66.8243" y="-196.5" font-family="Helvetica,sans-Serif" font-size="10.00">functional</text>
</g>
<!-- Node2&#45;&gt;Node8 -->
<g id="edge7" class="edge"><title>Node2&#45;&gt;Node8</title>
<path fill="none" stroke="midnightblue" d="M266.707,-252.393C224.445,-242.956 162.966,-228.646 109.824,-214 106.996,-213.22 104.073,-212.38 101.144,-211.512"/>
<polygon fill="midnightblue" stroke="midnightblue" points="101.88,-208.077 91.2942,-208.511 99.8398,-214.773 101.88,-208.077"/>
</g>
<!-- Node9 -->
<g id="node9" class="node"><title>Node9</title>
<polygon fill="none" stroke="#bfbfbf" points="665.758,-60.5 665.758,-78.5 727.891,-78.5 727.891,-60.5 665.758,-60.5"/>
<text text-anchor="middle" x="696.824" y="-66.5" font-family="Helvetica,sans-Serif" font-size="10.00">type_traits</text>
</g>
<!-- Node2&#45;&gt;Node9 -->
<g id="edge8" class="edge"><title>Node2&#45;&gt;Node9</title>
<path fill="none" stroke="midnightblue" d="M328.676,-250.247C340.189,-234.479 355.487,-207.464 345.824,-185 336.632,-163.629 317.017,-170.371 307.824,-149 302.732,-137.16 299.305,-129.672 307.824,-120 330.568,-94.179 559.998,-78.2694 655.477,-72.7204"/>
<polygon fill="midnightblue" stroke="midnightblue" points="655.848,-76.205 665.632,-72.14 655.449,-69.2164 655.848,-76.205"/>
</g>
<!-- Node10 -->
<g id="node10" class="node"><title>Node10</title>
<polygon fill="none" stroke="#bfbfbf" points="152.098,-190.5 152.098,-208.5 187.551,-208.5 187.551,-190.5 152.098,-190.5"/>
<text text-anchor="middle" x="169.824" y="-196.5" font-family="Helvetica,sans-Serif" font-size="10.00">map</text>
</g>
<!-- Node2&#45;&gt;Node10 -->
<g id="edge9" class="edge"><title>Node2&#45;&gt;Node10</title>
<path fill="none" stroke="midnightblue" d="M283.276,-250.476C258.645,-240.951 224.883,-227.403 195.824,-214 195.261,-213.74 194.693,-213.475 194.121,-213.205"/>
<polygon fill="midnightblue" stroke="midnightblue" points="195.343,-209.904 184.829,-208.594 192.231,-216.174 195.343,-209.904"/>
</g>
<!-- Node11 -->
<g id="node11" class="node"><title>Node11</title>
<polygon fill="none" stroke="#bfbfbf" points="205.293,-190.5 205.293,-208.5 336.356,-208.5 336.356,-190.5 205.293,-190.5"/>
<text text-anchor="middle" x="270.824" y="-196.5" font-family="Helvetica,sans-Serif" font-size="10.00">boost/algorithm/string.hpp</text>
</g>
<!-- Node2&#45;&gt;Node11 -->
<g id="edge10" class="edge"><title>Node2&#45;&gt;Node11</title>
<path fill="none" stroke="midnightblue" d="M308.086,-250.446C300.849,-240.746 290.923,-227.441 283.136,-217.003"/>
<polygon fill="midnightblue" stroke="midnightblue" points="285.749,-214.652 276.964,-208.73 280.139,-218.838 285.749,-214.652"/>
</g>
<!-- Node12 -->
<g id="node12" class="node"><title>Node12</title>
<g id="a_node12"><a xlink:href="fmt_8h.html" target="_top" xlink:title="Utilities for formatting strings. ">
<polygon fill="none" stroke="black" points="430.743,-185.5 430.743,-213.5 532.905,-213.5 532.905,-185.5 430.743,-185.5"/>
<text text-anchor="start" x="438.743" y="-201.5" font-family="Helvetica,sans-Serif" font-size="10.00">tomographer2/tools</text>
<text text-anchor="middle" x="481.824" y="-191.5" font-family="Helvetica,sans-Serif" font-size="10.00">/fmt.h</text>
</a>
</g>
</g>
<!-- Node2&#45;&gt;Node12 -->
<g id="edge11" class="edge"><title>Node2&#45;&gt;Node12</title>
<path fill="none" stroke="midnightblue" d="M351.805,-250.446C376.873,-240.817 411.185,-227.636 438.267,-217.232"/>
<polygon fill="midnightblue" stroke="midnightblue" points="439.807,-220.39 447.887,-213.537 437.297,-213.856 439.807,-220.39"/>
</g>
<!-- Node20 -->
<g id="node20" class="node"><title>Node20</title>
<g id="a_node20"><a xlink:href="conststr_8h.html" target="_top" xlink:title="A constexpr string type, suitable for basic compile&#45;time string processing. ">
<polygon fill="none" stroke="black" points="127.743,-55.5 127.743,-83.5 229.905,-83.5 229.905,-55.5 127.743,-55.5"/>
<text text-anchor="start" x="135.743" y="-71.5" font-family="Helvetica,sans-Serif" font-size="10.00">tomographer2/tools</text>
<text text-anchor="middle" x="178.824" y="-61.5" font-family="Helvetica,sans-Serif" font-size="10.00">/conststr.h</text>
</a>
</g>
</g>
<!-- Node2&#45;&gt;Node20 -->
<g id="edge27" class="edge"><title>Node2&#45;&gt;Node20</title>
<path fill="none" stroke="midnightblue" d="M266.519,-262.348C191.792,-259.464 58.6459,-249.364 28.8243,-214 -13.101,-164.283 78.6123,-113.354 136.393,-87.6257"/>
<polygon fill="midnightblue" stroke="midnightblue" points="137.931,-90.7732 145.698,-83.5676 135.133,-84.3568 137.931,-90.7732"/>
</g>
<!-- Node12&#45;&gt;Node3 -->
<g id="edge12" class="edge"><title>Node12&#45;&gt;Node3</title>
<path fill="none" stroke="midnightblue" d="M451.987,-185.446C426.533,-174.31 390.224,-158.425 365.432,-147.578"/>
<polygon fill="midnightblue" stroke="midnightblue" points="366.784,-144.35 356.22,-143.548 363.978,-150.763 366.784,-144.35"/>
</g>
<!-- Node12&#45;&gt;Node4 -->
<g id="edge13" class="edge"><title>Node12&#45;&gt;Node4</title>
<path fill="none" stroke="midnightblue" d="M498.193,-185.446C511.095,-175.158 529.08,-160.815 542.469,-150.138"/>
<polygon fill="midnightblue" stroke="midnightblue" points="544.868,-152.701 550.504,-143.73 540.503,-147.229 544.868,-152.701"/>
</g>
<!-- Node12&#45;&gt;Node5 -->
<g id="edge15" class="edge"><title>Node12&#45;&gt;Node5</title>
<path fill="none" stroke="midnightblue" d="M460.902,-185.465C445.478,-175.713 424.093,-161.893 405.824,-149 388.467,-136.75 385.496,-131.793 367.824,-120 310.783,-81.9323 240.018,-43.0056 203.382,-23.4296"/>
<polygon fill="midnightblue" stroke="midnightblue" points="204.885,-20.2647 194.412,-18.6596 201.598,-26.4451 204.885,-20.2647"/>
</g>
<!-- Node12&#45;&gt;Node6 -->
<g id="edge16" class="edge"><title>Node12&#45;&gt;Node6</title>
<path fill="none" stroke="midnightblue" d="M512.283,-185.446C538.267,-174.31 575.333,-158.425 600.642,-147.578"/>
<polygon fill="midnightblue" stroke="midnightblue" points="602.233,-150.704 610.046,-143.548 599.475,-144.27 602.233,-150.704"/>
</g>
<!-- Node12&#45;&gt;Node7 -->
<g id="edge17" class="edge"><title>Node12&#45;&gt;Node7</title>
<path fill="none" stroke="midnightblue" d="M430.424,-187.813C369.673,-175.181 270.052,-154.468 216.196,-143.27"/>
<polygon fill="midnightblue" stroke="midnightblue" points="216.879,-139.838 206.376,-141.229 215.454,-146.691 216.879,-139.838"/>
</g>
<!-- Node13 -->
<g id="node13" class="node"><title>Node13</title>
<polygon fill="none" stroke="#bfbfbf" points="471.536,-125.5 471.536,-143.5 518.112,-143.5 518.112,-125.5 471.536,-125.5"/>
<text text-anchor="middle" x="494.824" y="-131.5" font-family="Helvetica,sans-Serif" font-size="10.00">chrono</text>
</g>
<!-- Node12&#45;&gt;Node13 -->
<g id="edge14" class="edge"><title>Node12&#45;&gt;Node13</title>
<path fill="none" stroke="midnightblue" d="M484.518,-185.446C486.419,-176.236 488.99,-163.776 491.088,-153.605"/>
<polygon fill="midnightblue" stroke="midnightblue" points="494.533,-154.231 493.126,-143.73 487.677,-152.816 494.533,-154.231"/>
</g>
<!-- Node14 -->
<g id="node14" class="node"><title>Node14</title>
<polygon fill="none" stroke="#bfbfbf" points="414.433,-125.5 414.433,-143.5 453.216,-143.5 453.216,-125.5 414.433,-125.5"/>
<text text-anchor="middle" x="433.824" y="-131.5" font-family="Helvetica,sans-Serif" font-size="10.00">utility</text>
</g>
<!-- Node12&#45;&gt;Node14 -->
<g id="edge18" class="edge"><title>Node12&#45;&gt;Node14</title>
<path fill="none" stroke="midnightblue" d="M471.879,-185.446C464.413,-175.648 454.146,-162.172 446.158,-151.687"/>
<polygon fill="midnightblue" stroke="midnightblue" points="448.939,-149.563 440.095,-143.73 443.371,-153.806 448.939,-149.563"/>
</g>
<!-- Node12&#45;&gt;Node15 -->
<g id="edge19" class="edge"><title>Node12&#45;&gt;Node15</title>
<path fill="none" stroke="midnightblue" d="M532.993,-189.74C599.817,-178.3 716.689,-158.292 788.276,-146.037"/>
<polygon fill="midnightblue" stroke="midnightblue" points="789.232,-149.424 798.498,-144.287 788.051,-142.524 789.232,-149.424"/>
</g>
<!-- Node15&#45;&gt;Node9 -->
<g id="edge23" class="edge"><title>Node15&#45;&gt;Node9</title>
<path fill="none" stroke="midnightblue" d="M818.123,-120.446C790.958,-109.261 752.157,-93.2842 725.808,-82.4345"/>
<polygon fill="midnightblue" stroke="midnightblue" points="726.949,-79.1192 716.369,-78.548 724.284,-85.5919 726.949,-79.1192"/>
</g>
<!-- Node16 -->
<g id="node16" class="node"><title>Node16</title>
<polygon fill="none" stroke="#bfbfbf" points="807.709,-60.5 807.709,-78.5 855.94,-78.5 855.94,-60.5 807.709,-60.5"/>
<text text-anchor="middle" x="831.824" y="-66.5" font-family="Helvetica,sans-Serif" font-size="10.00">cassert</text>
</g>
<!-- Node15&#45;&gt;Node16 -->
<g id="edge20" class="edge"><title>Node15&#45;&gt;Node16</title>
<path fill="none" stroke="midnightblue" d="M846.095,-120.446C843.463,-111.236 839.903,-98.7759 836.997,-88.6055"/>
<polygon fill="midnightblue" stroke="midnightblue" points="840.288,-87.3838 834.176,-78.7301 833.558,-89.3069 840.288,-87.3838"/>
</g>
<!-- Node17 -->
<g id="node17" class="node"><title>Node17</title>
<polygon fill="none" stroke="#bfbfbf" points="873.704,-60.5 873.704,-78.5 921.945,-78.5 921.945,-60.5 873.704,-60.5"/>
<text text-anchor="middle" x="897.824" y="-66.5" font-family="Helvetica,sans-Serif" font-size="10.00">cstddef</text>
</g>
<!-- Node15&#45;&gt;Node17 -->
<g id="edge21" class="edge"><title>Node15&#45;&gt;Node17</title>
<path fill="none" stroke="midnightblue" d="M859.77,-120.446C867.236,-110.648 877.503,-97.1721 885.491,-86.6874"/>
<polygon fill="midnightblue" stroke="midnightblue" points="888.277,-88.8056 891.554,-78.7301 882.709,-84.5633 888.277,-88.8056"/>
</g>
<!-- Node18 -->
<g id="node18" class="node"><title>Node18</title>
<polygon fill="none" stroke="#bfbfbf" points="745.652,-60.5 745.652,-78.5 789.997,-78.5 789.997,-60.5 745.652,-60.5"/>
<text text-anchor="middle" x="767.824" y="-66.5" font-family="Helvetica,sans-Serif" font-size="10.00">cstdlib</text>
</g>
<!-- Node15&#45;&gt;Node18 -->
<g id="edge22" class="edge"><title>Node15&#45;&gt;Node18</title>
<path fill="none" stroke="midnightblue" d="M832.834,-120.446C819.315,-110.06 800.418,-95.5418 786.481,-84.8339"/>
<polygon fill="midnightblue" stroke="midnightblue" points="788.599,-82.0471 778.536,-78.7301 784.334,-87.598 788.599,-82.0471"/>
</g>
<!-- Node19 -->
<g id="node19" class="node"><title>Node19</title>
<polygon fill="none" stroke="#bfbfbf" points="939.81,-60.5 939.81,-78.5 1005.84,-78.5 1005.84,-60.5 939.81,-60.5"/>
<text text-anchor="middle" x="972.824" y="-66.5" font-family="Helvetica,sans-Serif" font-size="10.00">Eigen/Core</text>
</g>
<!-- Node15&#45;&gt;Node19 -->
<g id="edge24" class="edge"><title>Node15&#45;&gt;Node19</title>
<path fill="none" stroke="midnightblue" d="M875.31,-120.446C896.667,-109.507 926.971,-93.9857 948.109,-83.1588"/>
<polygon fill="midnightblue" stroke="midnightblue" points="949.807,-86.222 957.112,-78.548 946.616,-79.9916 949.807,-86.222"/>
</g>
<!-- Node15&#45;&gt;Node20 -->
<g id="edge25" class="edge"><title>Node15&#45;&gt;Node20</title>
<path fill="none" stroke="midnightblue" d="M798.516,-125.932C783.488,-123.851 767.015,-121.701 751.824,-120 566.003,-99.1884 345.43,-82.3371 240.379,-74.7883"/>
<polygon fill="midnightblue" stroke="midnightblue" points="240.499,-71.288 230.274,-74.0653 239.999,-78.2701 240.499,-71.288"/>
</g>
<!-- Node20&#45;&gt;Node5 -->
<g id="edge26" class="edge"><title>Node20&#45;&gt;Node5</title>
<path fill="none" stroke="midnightblue" d="M178.824,-55.3389C178.824,-47.5305 178.824,-37.5122 178.824,-28.9265"/>
<polygon fill="midnightblue" stroke="midnightblue" points="182.324,-28.7714 178.824,-18.7715 175.324,-28.7715 182.324,-28.7714"/>
</g>
<!-- Node21&#45;&gt;Node19 -->
<g id="edge31" class="edge"><title>Node21&#45;&gt;Node19</title>
<path fill="none" stroke="midnightblue" d="M956.062,-250.234C959.2,-216.584 967.478,-127.828 971.093,-89.0606"/>
<polygon fill="midnightblue" stroke="midnightblue" points="974.611,-89.0323 972.055,-78.7505 967.641,-88.3822 974.611,-89.0323"/>
</g>
<!-- Node22 -->
<g id="node22" class="node"><title>Node22</title>
<polygon fill="none" stroke="#bfbfbf" points="1179.21,-190.5 1179.21,-208.5 1232.44,-208.5 1232.44,-190.5 1179.21,-190.5"/>
<text text-anchor="middle" x="1205.82" y="-196.5" font-family="Helvetica,sans-Serif" font-size="10.00">complex</text>
</g>
<!-- Node21&#45;&gt;Node22 -->
<g id="edge29" class="edge"><title>Node21&#45;&gt;Node22</title>
<path fill="none" stroke="midnightblue" d="M1005.97,-251.971C1067.3,-238.12 1162.88,-216.429 1170.82,-214 1172.74,-213.414 1174.7,-212.775 1176.67,-212.103"/>
<polygon fill="midnightblue" stroke="midnightblue" points="1178.18,-215.278 1186.37,-208.568 1175.78,-208.7 1178.18,-215.278"/>
</g>
<!-- Node23 -->
<g id="node23" class="node"><title>Node23</title>
<polygon fill="none" stroke="#bfbfbf" points="883.209,-190.5 883.209,-208.5 926.44,-208.5 926.44,-190.5 883.209,-190.5"/>
<text text-anchor="middle" x="904.824" y="-196.5" font-family="Helvetica,sans-Serif" font-size="10.00">vector</text>
</g>
<!-- Node21&#45;&gt;Node23 -->
<g id="edge30" class="edge"><title>Node21&#45;&gt;Node23</title>
<path fill="none" stroke="midnightblue" d="M944.464,-250.446C936.688,-240.648 925.993,-227.172 917.671,-216.687"/>
<polygon fill="midnightblue" stroke="midnightblue" points="920.314,-214.387 911.356,-208.73 914.831,-218.739 920.314,-214.387"/>
</g>
<!-- Node24 -->
<g id="node24" class="node"><title>Node24</title>
<polygon fill="none" stroke="#bfbfbf" points="983.194,-190.5 983.194,-208.5 1056.45,-208.5 1056.45,-190.5 983.194,-190.5"/>
<text text-anchor="middle" x="1019.82" y="-196.5" font-family="Helvetica,sans-Serif" font-size="10.00">Eigen/Dense</text>
</g>
<!-- Node21&#45;&gt;Node24 -->
<g id="edge32" class="edge"><title>Node21&#45;&gt;Node24</title>
<path fill="none" stroke="midnightblue" d="M968.292,-250.446C978.705,-240.354 993.143,-226.36 1004.09,-215.752"/>
<polygon fill="midnightblue" stroke="midnightblue" points="1006.59,-218.203 1011.33,-208.73 1001.72,-213.177 1006.59,-218.203"/>
</g>
<!-- Node25 -->
<g id="node25" class="node"><title>Node25</title>
<polygon fill="none" stroke="#bfbfbf" points="1073.96,-190.5 1073.96,-208.5 1161.68,-208.5 1161.68,-190.5 1073.96,-190.5"/>
<text text-anchor="middle" x="1117.82" y="-196.5" font-family="Helvetica,sans-Serif" font-size="10.00">Eigen/StdVector</text>
</g>
<!-- Node21&#45;&gt;Node25 -->
<g id="edge33" class="edge"><title>Node21&#45;&gt;Node25</title>
<path fill="none" stroke="midnightblue" d="M988.598,-250.446C1017.67,-239.212 1059.24,-223.143 1087.32,-212.291"/>
<polygon fill="midnightblue" stroke="midnightblue" points="1088.94,-215.418 1097,-208.548 1086.41,-208.889 1088.94,-215.418"/>
</g>
<!-- Node26&#45;&gt;Node9 -->
<g id="edge36" class="edge"><title>Node26&#45;&gt;Node9</title>
<path fill="none" stroke="midnightblue" d="M766.027,-185.414C765.735,-169.095 763.391,-140.813 751.824,-120 743.868,-105.683 730.194,-93.3488 718.471,-84.5734"/>
<polygon fill="midnightblue" stroke="midnightblue" points="720.198,-81.507 710.014,-78.5826 716.151,-87.2191 720.198,-81.507"/>
</g>
<!-- Node26&#45;&gt;Node15 -->
<g id="edge38" class="edge"><title>Node26&#45;&gt;Node15</title>
<path fill="none" stroke="midnightblue" d="M783.229,-185.446C795.055,-176.577 810.898,-164.695 824.164,-154.745"/>
<polygon fill="midnightblue" stroke="midnightblue" points="826.542,-157.337 832.442,-148.537 822.342,-151.737 826.542,-157.337"/>
</g>
<!-- Node27 -->
<g id="node27" class="node"><title>Node27</title>
<polygon fill="none" stroke="#bfbfbf" points="672.859,-125.5 672.859,-143.5 742.79,-143.5 742.79,-125.5 672.859,-125.5"/>
<text text-anchor="middle" x="707.824" y="-131.5" font-family="Helvetica,sans-Serif" font-size="10.00">Eigen/Eigen</text>
</g>
<!-- Node26&#45;&gt;Node27 -->
<g id="edge37" class="edge"><title>Node26&#45;&gt;Node27</title>
<path fill="none" stroke="midnightblue" d="M753.807,-185.446C744.695,-175.55 732.131,-161.902 722.438,-151.374"/>
<polygon fill="midnightblue" stroke="midnightblue" points="724.749,-148.717 715.401,-143.73 719.599,-153.458 724.749,-148.717"/>
</g>
</g>
</svg>
        <g id="navigator" transform="translate(0 0)" fill="#404254">
                <rect fill="#f2f5e9" fill-opacity="0.5" stroke="#606060" stroke-width=".5" x="0" y="0" width="60" height="60"/>
                <use id="zoomplus" xlink:href="#zoomPlus" x="17" y="9" onmousedown="handleZoom(evt,'in')"/>
                <use id="zoomminus" xlink:href="#zoomMin" x="42" y="9" onmousedown="handleZoom(evt,'out')"/>
                <use id="reset" xlink:href="#resetDef" x="30" y="36" onmousedown="handleReset()"/>
                <g id="arrowUp" xlink:href="#dirArrow" transform="translate(30 24)" onmousedown="handlePan(0,-1)">
                  <use xlink:href="#rim" fill="#404040">
                        <set attributeName="fill" to="#808080" begin="arrowUp.mouseover" end="arrowUp.mouseout"/>
                  </use>
                  <path fill="none" stroke="white" stroke-width="1.5" d="M0,-3.0v7 M-2.5,-0.5L0,-3.0L2.5,-0.5"/>
                </g>
                <g id="arrowRight" xlink:href="#dirArrow" transform="rotate(90) translate(36 -43)" onmousedown="handlePan(1,0)">
                  <use xlink:href="#rim" fill="#404040">
                        <set attributeName="fill" to="#808080" begin="arrowRight.mouseover" end="arrowRight.mouseout"/>
                  </use>
                  <path fill="none" stroke="white" stroke-width="1.5" d="M0,-3.0v7 M-2.5,-0.5L0,-3.0L2.5,-0.5"/>
                </g>
                <g id="arrowDown" xlink:href="#dirArrow" transform="rotate(180) translate(-30 -48)" onmousedown="handlePan(0,1)">
                  <use xlink:href="#rim" fill="#404040">
                        <set attributeName="fill" to="#808080" begin="arrowDown.mouseover" end="arrowDown.mouseout"/>
                  </use>
                  <path fill="none" stroke="white" stroke-width="1.5" d="M0,-3.0v7 M-2.5,-0.5L0,-3.0L2.5,-0.5"/>
                </g>
                <g id="arrowLeft" xlink:href="#dirArrow" transform="rotate(270) translate(-36 17)" onmousedown="handlePan(-1,0)">
                  <use xlink:href="#rim" fill="#404040">
                        <set attributeName="fill" to="#808080" begin="arrowLeft.mouseover" end="arrowLeft.mouseout"/>
                  </use>
                  <path fill="none" stroke="white" stroke-width="1.5" d="M0,-3.0v7 M-2.5,-0.5L0,-3.0L2.5,-0.5"/>
                </g>
        </g>
        <svg viewBox="0 0 15 15" width="100%" height="30px" preserveAspectRatio="xMaxYMin meet">
         <g id="arrow_out" transform="scale(0.3 0.3)">
          <a xlink:href="mhrw__bin__err_8h__incl_org.svg" target="_base">
           <rect id="button" ry="5" rx="5" y="6" x="6" height="38" width="38"
                fill="#f2f5e9" fill-opacity="0.5" stroke="#606060" stroke-width="1.0"/>
           <path id="arrow"
             d="M 11.500037,31.436501 C 11.940474,20.09759 22.043105,11.32322 32.158766,21.979434 L 37.068811,17.246167 C 37.068811,17.246167 37.088388,32 37.088388,32 L 22.160133,31.978069 C 22.160133,31.978069 26.997745,27.140456 26.997745,27.140456 C 18.528582,18.264221 13.291696,25.230495 11.500037,31.436501 z"
             style="fill:#404040;"/>
          </a>
         </g>
        </svg>
</svg>
