<?xml version="1.0" encoding="UTF-8" standalone="no"?>
<!DOCTYPE svg PUBLIC "-//W3C//DTD SVG 1.1//EN"
 "http://www.w3.org/Graphics/SVG/1.1/DTD/svg11.dtd">
<!-- Generated by graphviz version 2.38.0 (20140413.2041)
 -->
<!-- Title: tomographer2/mhrwstatscollectors.h Pages: 1 -->
<svg width="214pt" height="147pt"
 viewBox="0.00 0.00 214.17 147.00" xmlns="http://www.w3.org/2000/svg" xmlns:xlink="http://www.w3.org/1999/xlink">
<g id="graph0" class="graph" transform="scale(1 1) rotate(0) translate(4 143)">
<title>tomographer2/mhrwstatscollectors.h</title>
<!-- Node1 -->
<g id="node1" class="node"><title>Node1</title>
<polygon fill="#bfbfbf" stroke="black" points="0,-120.5 0,-138.5 177.177,-138.5 177.177,-120.5 0,-120.5"/>
<text text-anchor="middle" x="88.5884" y="-126.5" font-family="Helvetica,sans-Serif" font-size="10.00">tomographer2/mhrwstatscollectors.h</text>
</g>
<!-- Node2 -->
<g id="node2" class="node"><title>Node2</title>
<g id="a_node2"><a xlink:href="mhrw__valuehist__tasks_8h.html" target="_top" xlink:title="Tasks for collecting a histogram of values during a Metropolis&#45;Hastings random walk. ">
<polygon fill="none" stroke="black" points="13.3325,-0.5 13.3325,-28.5 163.844,-28.5 163.844,-0.5 13.3325,-0.5"/>
<text text-anchor="start" x="21.3325" y="-16.5" font-family="Helvetica,sans-Serif" font-size="10.00">tomographer2/mhrw_valuehist</text>
<text text-anchor="middle" x="88.5884" y="-6.5" font-family="Helvetica,sans-Serif" font-size="10.00">_tasks.h</text>
</a>
</g>
</g>
<!-- Node1&#45;&gt;Node2 -->
<g id="edge1" class="edge"><title>Node1&#45;&gt;Node2</title>
<path fill="none" stroke="midnightblue" d="M74.8267,-112.382C68.9015,-104.396 62.6412,-94.276 59.5884,-84 53.704,-64.1929 66.5032,-42.3868 76.9301,-28.8177"/>
<polygon fill="midnightblue" stroke="midnightblue" points="72.2247,-114.733 81.1852,-120.387 77.7059,-110.379 72.2247,-114.733"/>
</g>
<!-- Node3 -->
<g id="node3" class="node"><title>Node3</title>
<g id="a_node3"><a xlink:href="mhrwtasks_8h.html" target="_top" xlink:title="Multiprocessing tasks interface (see Task Manager/Dispatcher Interfaces) for parallel Metropolis&#45;Hast...">
<polygon fill="none" stroke="black" points="69.0073,-65.5 69.0073,-83.5 206.169,-83.5 206.169,-65.5 69.0073,-65.5"/>
<text text-anchor="middle" x="137.588" y="-71.5" font-family="Helvetica,sans-Serif" font-size="10.00">tomographer2/mhrwtasks.h</text>
</a>
</g>
</g>
<!-- Node1&#45;&gt;Node3 -->
<g id="edge2" class="edge"><title>Node1&#45;&gt;Node3</title>
<path fill="none" stroke="midnightblue" d="M103.083,-112.822C111.974,-103.205 122.988,-91.2917 130.146,-83.5496"/>
<polygon fill="midnightblue" stroke="midnightblue" points="100.463,-110.5 96.2446,-120.219 105.603,-115.252 100.463,-110.5"/>
</g>
<!-- Node3&#45;&gt;Node2 -->
<g id="edge3" class="edge"><title>Node3&#45;&gt;Node2</title>
<path fill="none" stroke="midnightblue" d="M124.151,-57.5946C116.528,-48.5709 107.095,-37.4062 99.8607,-28.8428"/>
<polygon fill="midnightblue" stroke="midnightblue" points="121.648,-60.0552 130.775,-65.4353 126.995,-55.5377 121.648,-60.0552"/>
</g>
</g>
</svg>
