<?xml version="1.0" encoding="UTF-8" standalone="no"?>
<!DOCTYPE svg PUBLIC "-//W3C//DTD SVG 1.1//EN"
 "http://www.w3.org/Graphics/SVG/1.1/DTD/svg11.dtd">
<!-- Generated by graphviz version 2.38.0 (20140413.2041)
 -->
<!-- Title: tomographer2/mhrw.h Pages: 1 -->
<svg width="1282pt" height="407pt"
 viewBox="0.00 0.00 1281.97 407.00" xmlns="http://www.w3.org/2000/svg" xmlns:xlink="http://www.w3.org/1999/xlink">
<g id="graph0" class="graph" transform="scale(1 1) rotate(0) translate(4 403)">
<title>tomographer2/mhrw.h</title>
<!-- Node1 -->
<g id="node1" class="node"><title>Node1</title>
<polygon fill="#bfbfbf" stroke="black" points="417.362,-380.5 417.362,-398.5 530.638,-398.5 530.638,-380.5 417.362,-380.5"/>
<text text-anchor="middle" x="474" y="-386.5" font-family="Helvetica,sans-Serif" font-size="10.00">tomographer2/mhrw.h</text>
</g>
<!-- Node2 -->
<g id="node2" class="node"><title>Node2</title>
<polygon fill="none" stroke="#bfbfbf" points="4.87939,-60.5 4.87939,-78.5 53.1206,-78.5 53.1206,-60.5 4.87939,-60.5"/>
<text text-anchor="middle" x="29" y="-66.5" font-family="Helvetica,sans-Serif" font-size="10.00">cstddef</text>
</g>
<!-- Node1&#45;&gt;Node2 -->
<g id="edge1" class="edge"><title>Node1&#45;&gt;Node2</title>
<path fill="none" stroke="midnightblue" d="M417.295,-385.71C291.481,-377.972 0,-350.836 0,-265.5 0,-265.5 0,-265.5 0,-198.5 0,-158.389 13.7131,-112.916 22.2796,-88.4225"/>
<polygon fill="midnightblue" stroke="midnightblue" points="25.6719,-89.3339 25.7857,-78.7396 19.0901,-86.9506 25.6719,-89.3339"/>
</g>
<!-- Node3 -->
<g id="node3" class="node"><title>Node3</title>
<polygon fill="none" stroke="#bfbfbf" points="614.613,-320.5 614.613,-338.5 653.387,-338.5 653.387,-320.5 614.613,-320.5"/>
<text text-anchor="middle" x="634" y="-326.5" font-family="Helvetica,sans-Serif" font-size="10.00">limits</text>
</g>
<!-- Node1&#45;&gt;Node3 -->
<g id="edge2" class="edge"><title>Node1&#45;&gt;Node3</title>
<path fill="none" stroke="midnightblue" d="M498.008,-380.498C523.644,-371.857 565.396,-357.51 601,-344 602.411,-343.465 603.852,-342.909 605.305,-342.342"/>
<polygon fill="midnightblue" stroke="midnightblue" points="606.883,-345.48 614.871,-338.52 604.286,-338.98 606.883,-345.48"/>
</g>
<!-- Node4 -->
<g id="node4" class="node"><title>Node4</title>
<polygon fill="none" stroke="#bfbfbf" points="671.047,-320.5 671.047,-338.5 720.953,-338.5 720.953,-320.5 671.047,-320.5"/>
<text text-anchor="middle" x="696" y="-326.5" font-family="Helvetica,sans-Serif" font-size="10.00">random</text>
</g>
<!-- Node1&#45;&gt;Node4 -->
<g id="edge3" class="edge"><title>Node1&#45;&gt;Node4</title>
<path fill="none" stroke="midnightblue" d="M515.544,-380.48C553.954,-372.64 612.414,-359.621 662,-344 663.863,-343.413 665.768,-342.773 667.68,-342.1"/>
<polygon fill="midnightblue" stroke="midnightblue" points="668.979,-345.35 677.115,-338.563 666.522,-338.796 668.979,-345.35"/>
</g>
<!-- Node5 -->
<g id="node5" class="node"><title>Node5</title>
<g id="a_node5"><a xlink:href="loggers_8h.html" target="_top" xlink:title="Utilities for logging messages. ">
<polygon fill="none" stroke="black" points="828.919,-250.5 828.919,-278.5 931.081,-278.5 931.081,-250.5 828.919,-250.5"/>
<text text-anchor="start" x="836.919" y="-266.5" font-family="Helvetica,sans-Serif" font-size="10.00">tomographer2/tools</text>
<text text-anchor="middle" x="880" y="-256.5" font-family="Helvetica,sans-Serif" font-size="10.00">/loggers.h</text>
</a>
</g>
</g>
<!-- Node1&#45;&gt;Node5 -->
<g id="edge4" class="edge"><title>Node1&#45;&gt;Node5</title>
<path fill="none" stroke="midnightblue" d="M491.75,-380.458C509.972,-372.009 538.982,-358.024 563,-344 582.906,-332.377 584.645,-323.679 606,-315 675.561,-286.728 761.585,-274.541 818.483,-269.328"/>
<polygon fill="midnightblue" stroke="midnightblue" points="819.099,-272.788 828.758,-268.433 818.492,-265.814 819.099,-272.788"/>
</g>
<!-- Node15 -->
<g id="node15" class="node"><title>Node15</title>
<g id="a_node15"><a xlink:href="fmt_8h.html" target="_top" xlink:title="Utilities for formatting strings. ">
<polygon fill="none" stroke="black" points="711.919,-185.5 711.919,-213.5 814.081,-213.5 814.081,-185.5 711.919,-185.5"/>
<text text-anchor="start" x="719.919" y="-201.5" font-family="Helvetica,sans-Serif" font-size="10.00">tomographer2/tools</text>
<text text-anchor="middle" x="763" y="-191.5" font-family="Helvetica,sans-Serif" font-size="10.00">/fmt.h</text>
</a>
</g>
</g>
<!-- Node1&#45;&gt;Node15 -->
<g id="edge31" class="edge"><title>Node1&#45;&gt;Node15</title>
<path fill="none" stroke="midnightblue" d="M482.944,-380.234C498.541,-366.024 532.016,-336.431 563,-315 618.255,-276.781 687.073,-239.436 727.887,-218.263"/>
<polygon fill="midnightblue" stroke="midnightblue" points="729.613,-221.311 736.896,-213.617 726.404,-215.09 729.613,-221.311"/>
</g>
<!-- Node18 -->
<g id="node18" class="node"><title>Node18</title>
<g id="a_node18"><a xlink:href="cxxutil_8h.html" target="_top" xlink:title="Some C++ utilities, with a tad of C++11 tricks. ">
<polygon fill="none" stroke="black" points="209.919,-120.5 209.919,-148.5 312.081,-148.5 312.081,-120.5 209.919,-120.5"/>
<text text-anchor="start" x="217.919" y="-136.5" font-family="Helvetica,sans-Serif" font-size="10.00">tomographer2/tools</text>
<text text-anchor="middle" x="261" y="-126.5" font-family="Helvetica,sans-Serif" font-size="10.00">/cxxutil.h</text>
</a>
</g>
</g>
<!-- Node1&#45;&gt;Node18 -->
<g id="edge32" class="edge"><title>Node1&#45;&gt;Node18</title>
<path fill="none" stroke="midnightblue" d="M425.896,-380.497C373.135,-368.743 291.736,-341.051 260,-279 240.298,-240.478 247.788,-188.179 254.643,-158.526"/>
<polygon fill="midnightblue" stroke="midnightblue" points="258.072,-159.242 257.089,-148.693 251.279,-157.552 258.072,-159.242"/>
</g>
<!-- Node23 -->
<g id="node23" class="node"><title>Node23</title>
<g id="a_node23"><a xlink:href="mhrw__bin__err_8h.html" target="_top" xlink:title="Binning Analysis in a Metropolis&#45;Hastings random walk. ">
<polygon fill="none" stroke="black" points="336.806,-315.5 336.806,-343.5 461.194,-343.5 461.194,-315.5 336.806,-315.5"/>
<text text-anchor="start" x="344.806" y="-331.5" font-family="Helvetica,sans-Serif" font-size="10.00">tomographer2/mhrw_bin</text>
<text text-anchor="middle" x="399" y="-321.5" font-family="Helvetica,sans-Serif" font-size="10.00">_err.h</text>
</a>
</g>
</g>
<!-- Node1&#45;&gt;Node23 -->
<g id="edge33" class="edge"><title>Node1&#45;&gt;Node23</title>
<path fill="none" stroke="midnightblue" d="M463.572,-380.435C453.372,-372.548 437.451,-360.236 423.971,-349.811"/>
<polygon fill="midnightblue" stroke="midnightblue" points="426.018,-346.969 415.966,-343.62 421.735,-352.507 426.018,-346.969"/>
</g>
<!-- Node29 -->
<g id="node29" class="node"><title>Node29</title>
<g id="a_node29"><a xlink:href="needownoperatornew_8h.html" target="_top" xlink:title="Managing the need for specific overrides to operator new() for some types (especially Eigen types) ...">
<polygon fill="none" stroke="black" points="51.6235,-250.5 51.6235,-278.5 174.376,-278.5 174.376,-250.5 51.6235,-250.5"/>
<text text-anchor="start" x="59.6235" y="-266.5" font-family="Helvetica,sans-Serif" font-size="10.00">tomographer2/tools</text>
<text text-anchor="middle" x="113" y="-256.5" font-family="Helvetica,sans-Serif" font-size="10.00">/needownoperatornew.h</text>
</a>
</g>
</g>
<!-- Node1&#45;&gt;Node29 -->
<g id="edge47" class="edge"><title>Node1&#45;&gt;Node29</title>
<path fill="none" stroke="midnightblue" d="M417.312,-384.012C345.63,-377.599 226.863,-364.296 188,-344 162.442,-330.653 140.649,-305.228 127.247,-286.925"/>
<polygon fill="midnightblue" stroke="midnightblue" points="129.991,-284.744 121.362,-278.596 124.274,-288.783 129.991,-284.744"/>
</g>
<!-- Node6 -->
<g id="node6" class="node"><title>Node6</title>
<polygon fill="none" stroke="#bfbfbf" points="535.938,-125.5 535.938,-143.5 578.062,-143.5 578.062,-125.5 535.938,-125.5"/>
<text text-anchor="middle" x="557" y="-131.5" font-family="Helvetica,sans-Serif" font-size="10.00">cstdio</text>
</g>
<!-- Node5&#45;&gt;Node6 -->
<g id="edge5" class="edge"><title>Node5&#45;&gt;Node6</title>
<path fill="none" stroke="midnightblue" d="M828.885,-253.766C792.683,-245.792 743.548,-232.745 703,-214 682.076,-204.327 679.997,-196.467 660,-185 646.265,-177.124 609.619,-159.827 583.969,-147.918"/>
<polygon fill="midnightblue" stroke="midnightblue" points="585.293,-144.675 574.748,-143.649 582.352,-151.027 585.293,-144.675"/>
</g>
<!-- Node7 -->
<g id="node7" class="node"><title>Node7</title>
<polygon fill="none" stroke="#bfbfbf" points="754.604,-125.5 754.604,-143.5 803.396,-143.5 803.396,-125.5 754.604,-125.5"/>
<text text-anchor="middle" x="779" y="-131.5" font-family="Helvetica,sans-Serif" font-size="10.00">cstdarg</text>
</g>
<!-- Node5&#45;&gt;Node7 -->
<g id="edge6" class="edge"><title>Node5&#45;&gt;Node7</title>
<path fill="none" stroke="midnightblue" d="M871.099,-250.429C860.192,-234.607 840.944,-207.311 823,-185 813.637,-173.358 802.443,-160.782 793.689,-151.219"/>
<polygon fill="midnightblue" stroke="midnightblue" points="796.089,-148.659 786.732,-143.69 790.948,-153.41 796.089,-148.659"/>
</g>
<!-- Node8 -->
<g id="node8" class="node"><title>Node8</title>
<polygon fill="none" stroke="#bfbfbf" points="868.773,-0.5 868.773,-18.5 909.227,-18.5 909.227,-0.5 868.773,-0.5"/>
<text text-anchor="middle" x="889" y="-6.5" font-family="Helvetica,sans-Serif" font-size="10.00">string</text>
</g>
<!-- Node5&#45;&gt;Node8 -->
<g id="edge7" class="edge"><title>Node5&#45;&gt;Node8</title>
<path fill="none" stroke="midnightblue" d="M931.124,-260.425C1028.55,-254.04 1233.04,-237.921 1254,-214 1357.67,-95.704 1023.96,-31.8204 919.34,-15.0313"/>
<polygon fill="midnightblue" stroke="midnightblue" points="919.821,-11.564 909.399,-13.4679 918.733,-18.479 919.821,-11.564"/>
</g>
<!-- Node9 -->
<g id="node9" class="node"><title>Node9</title>
<polygon fill="none" stroke="#bfbfbf" points="821.219,-125.5 821.219,-143.5 872.781,-143.5 872.781,-125.5 821.219,-125.5"/>
<text text-anchor="middle" x="847" y="-131.5" font-family="Helvetica,sans-Serif" font-size="10.00">sstream</text>
</g>
<!-- Node5&#45;&gt;Node9 -->
<g id="edge8" class="edge"><title>Node5&#45;&gt;Node9</title>
<path fill="none" stroke="midnightblue" d="M876.593,-250.284C870.654,-227.249 858.4,-179.717 851.673,-153.625"/>
<polygon fill="midnightblue" stroke="midnightblue" points="854.974,-152.409 849.088,-143.6 848.196,-154.157 854.974,-152.409"/>
</g>
<!-- Node10 -->
<g id="node10" class="node"><title>Node10</title>
<polygon fill="none" stroke="#bfbfbf" points="890.828,-125.5 890.828,-143.5 945.172,-143.5 945.172,-125.5 890.828,-125.5"/>
<text text-anchor="middle" x="918" y="-131.5" font-family="Helvetica,sans-Serif" font-size="10.00">iostream</text>
</g>
<!-- Node5&#45;&gt;Node10 -->
<g id="edge9" class="edge"><title>Node5&#45;&gt;Node10</title>
<path fill="none" stroke="midnightblue" d="M883.924,-250.284C890.793,-227.145 905,-179.29 912.723,-153.276"/>
<polygon fill="midnightblue" stroke="midnightblue" points="916.105,-154.182 915.595,-143.6 909.394,-152.19 916.105,-154.182"/>
</g>
<!-- Node11 -->
<g id="node11" class="node"><title>Node11</title>
<polygon fill="none" stroke="#bfbfbf" points="983.596,-190.5 983.596,-208.5 1042.4,-208.5 1042.4,-190.5 983.596,-190.5"/>
<text text-anchor="middle" x="1013" y="-196.5" font-family="Helvetica,sans-Serif" font-size="10.00">functional</text>
</g>
<!-- Node5&#45;&gt;Node11 -->
<g id="edge10" class="edge"><title>Node5&#45;&gt;Node11</title>
<path fill="none" stroke="midnightblue" d="M907.558,-250.446C930.859,-239.409 964.01,-223.706 986.891,-212.867"/>
<polygon fill="midnightblue" stroke="midnightblue" points="988.471,-215.992 996.01,-208.548 985.474,-209.666 988.471,-215.992"/>
</g>
<!-- Node12 -->
<g id="node12" class="node"><title>Node12</title>
<polygon fill="none" stroke="#bfbfbf" points="98.9336,-60.5 98.9336,-78.5 161.066,-78.5 161.066,-60.5 98.9336,-60.5"/>
<text text-anchor="middle" x="130" y="-66.5" font-family="Helvetica,sans-Serif" font-size="10.00">type_traits</text>
</g>
<!-- Node5&#45;&gt;Node12 -->
<g id="edge11" class="edge"><title>Node5&#45;&gt;Node12</title>
<path fill="none" stroke="midnightblue" d="M828.64,-259.221C782.422,-253.72 713.721,-241.366 660,-214 642.602,-205.137 644.964,-192.651 627,-185 452.187,-110.546 371.264,-233.339 201,-149 173.376,-135.317 151.467,-105.857 139.646,-87.1737"/>
<polygon fill="midnightblue" stroke="midnightblue" points="142.582,-85.2653 134.406,-78.5264 136.595,-88.8927 142.582,-85.2653"/>
</g>
<!-- Node13 -->
<g id="node13" class="node"><title>Node13</title>
<polygon fill="none" stroke="#bfbfbf" points="1060.27,-190.5 1060.27,-208.5 1095.73,-208.5 1095.73,-190.5 1060.27,-190.5"/>
<text text-anchor="middle" x="1078" y="-196.5" font-family="Helvetica,sans-Serif" font-size="10.00">map</text>
</g>
<!-- Node5&#45;&gt;Node13 -->
<g id="edge12" class="edge"><title>Node5&#45;&gt;Node13</title>
<path fill="none" stroke="midnightblue" d="M931.312,-251.254C965.702,-242.415 1011.71,-229.362 1051,-214 1051.88,-213.658 1052.76,-213.297 1053.65,-212.922"/>
<polygon fill="midnightblue" stroke="midnightblue" points="1055.47,-215.936 1063.08,-208.563 1052.54,-209.581 1055.47,-215.936"/>
</g>
<!-- Node14 -->
<g id="node14" class="node"><title>Node14</title>
<polygon fill="none" stroke="#bfbfbf" points="1113.47,-190.5 1113.47,-208.5 1244.53,-208.5 1244.53,-190.5 1113.47,-190.5"/>
<text text-anchor="middle" x="1179" y="-196.5" font-family="Helvetica,sans-Serif" font-size="10.00">boost/algorithm/string.hpp</text>
</g>
<!-- Node5&#45;&gt;Node14 -->
<g id="edge13" class="edge"><title>Node5&#45;&gt;Node14</title>
<path fill="none" stroke="midnightblue" d="M931.4,-252.67C987.358,-240.879 1076.15,-222.171 1130.81,-210.654"/>
<polygon fill="midnightblue" stroke="midnightblue" points="1131.54,-214.077 1140.6,-208.59 1130.1,-207.227 1131.54,-214.077"/>
</g>
<!-- Node5&#45;&gt;Node15 -->
<g id="edge14" class="edge"><title>Node5&#45;&gt;Node15</title>
<path fill="none" stroke="midnightblue" d="M855.758,-250.446C838.501,-241.154 815.104,-228.556 796.127,-218.337"/>
<polygon fill="midnightblue" stroke="midnightblue" points="797.676,-215.196 787.211,-213.537 794.357,-221.36 797.676,-215.196"/>
</g>
<!-- Node22 -->
<g id="node22" class="node"><title>Node22</title>
<g id="a_node22"><a xlink:href="conststr_8h.html" target="_top" xlink:title="A constexpr string type, suitable for basic compile&#45;time string processing. ">
<polygon fill="none" stroke="black" points="837.919,-55.5 837.919,-83.5 940.081,-83.5 940.081,-55.5 837.919,-55.5"/>
<text text-anchor="start" x="845.919" y="-71.5" font-family="Helvetica,sans-Serif" font-size="10.00">tomographer2/tools</text>
<text text-anchor="middle" x="889" y="-61.5" font-family="Helvetica,sans-Serif" font-size="10.00">/conststr.h</text>
</a>
</g>
</g>
<!-- Node5&#45;&gt;Node22 -->
<g id="edge30" class="edge"><title>Node5&#45;&gt;Node22</title>
<path fill="none" stroke="midnightblue" d="M892.27,-250.373C910.038,-230.352 942.105,-190.156 954,-149 957.579,-136.618 959.722,-131.549 954,-120 947.728,-107.34 936.496,-97.0372 925.113,-89.1747"/>
<polygon fill="midnightblue" stroke="midnightblue" points="926.769,-86.0792 916.459,-83.6391 922.997,-91.9761 926.769,-86.0792"/>
</g>
<!-- Node15&#45;&gt;Node6 -->
<g id="edge15" class="edge"><title>Node15&#45;&gt;Node6</title>
<path fill="none" stroke="midnightblue" d="M711.917,-186.277C676.444,-177.27 628.319,-164.013 587,-149 585.762,-148.55 584.504,-148.072 583.238,-147.574"/>
<polygon fill="midnightblue" stroke="midnightblue" points="584.211,-144.185 573.637,-143.515 581.486,-150.633 584.211,-144.185"/>
</g>
<!-- Node15&#45;&gt;Node7 -->
<g id="edge16" class="edge"><title>Node15&#45;&gt;Node7</title>
<path fill="none" stroke="midnightblue" d="M766.315,-185.446C768.654,-176.236 771.819,-163.776 774.402,-153.605"/>
<polygon fill="midnightblue" stroke="midnightblue" points="777.841,-154.284 776.91,-143.73 771.056,-152.561 777.841,-154.284"/>
</g>
<!-- Node15&#45;&gt;Node8 -->
<g id="edge18" class="edge"><title>Node15&#45;&gt;Node8</title>
<path fill="none" stroke="midnightblue" d="M755.169,-185.374C746.652,-169.261 735.559,-141.438 746,-120 769.465,-71.8195 825.604,-39.0725 860.151,-22.6888"/>
<polygon fill="midnightblue" stroke="midnightblue" points="861.648,-25.8532 869.278,-18.5025 858.729,-19.4906 861.648,-25.8532"/>
</g>
<!-- Node15&#45;&gt;Node9 -->
<g id="edge19" class="edge"><title>Node15&#45;&gt;Node9</title>
<path fill="none" stroke="midnightblue" d="M780.405,-185.446C794.254,-175.06 813.611,-160.542 827.888,-149.834"/>
<polygon fill="midnightblue" stroke="midnightblue" points="830.127,-152.53 836.027,-143.73 825.927,-146.93 830.127,-152.53"/>
</g>
<!-- Node15&#45;&gt;Node10 -->
<g id="edge20" class="edge"><title>Node15&#45;&gt;Node10</title>
<path fill="none" stroke="midnightblue" d="M795.116,-185.446C822.636,-174.261 861.944,-158.284 888.637,-147.435"/>
<polygon fill="midnightblue" stroke="midnightblue" points="890.253,-150.556 898.199,-143.548 887.617,-144.071 890.253,-150.556"/>
</g>
<!-- Node16 -->
<g id="node16" class="node"><title>Node16</title>
<polygon fill="none" stroke="#bfbfbf" points="595.712,-125.5 595.712,-143.5 642.288,-143.5 642.288,-125.5 595.712,-125.5"/>
<text text-anchor="middle" x="619" y="-131.5" font-family="Helvetica,sans-Serif" font-size="10.00">chrono</text>
</g>
<!-- Node15&#45;&gt;Node16 -->
<g id="edge17" class="edge"><title>Node15&#45;&gt;Node16</title>
<path fill="none" stroke="midnightblue" d="M733.163,-185.446C707.709,-174.31 671.4,-158.425 646.607,-147.578"/>
<polygon fill="midnightblue" stroke="midnightblue" points="647.96,-144.35 637.395,-143.548 645.154,-150.763 647.96,-144.35"/>
</g>
<!-- Node17 -->
<g id="node17" class="node"><title>Node17</title>
<polygon fill="none" stroke="#bfbfbf" points="660.608,-125.5 660.608,-143.5 699.392,-143.5 699.392,-125.5 660.608,-125.5"/>
<text text-anchor="middle" x="680" y="-131.5" font-family="Helvetica,sans-Serif" font-size="10.00">utility</text>
</g>
<!-- Node15&#45;&gt;Node17 -->
<g id="edge21" class="edge"><title>Node15&#45;&gt;Node17</title>
<path fill="none" stroke="midnightblue" d="M745.802,-185.446C732.118,-175.06 712.992,-160.542 698.884,-149.834"/>
<polygon fill="midnightblue" stroke="midnightblue" points="700.924,-146.988 690.843,-143.73 696.692,-152.564 700.924,-146.988"/>
</g>
<!-- Node15&#45;&gt;Node18 -->
<g id="edge22" class="edge"><title>Node15&#45;&gt;Node18</title>
<path fill="none" stroke="midnightblue" d="M711.666,-191.701C695.171,-189.535 676.817,-187.145 660,-185 540.556,-169.763 400.912,-152.585 322.528,-143"/>
<polygon fill="midnightblue" stroke="midnightblue" points="322.698,-139.495 312.347,-141.755 321.849,-146.443 322.698,-139.495"/>
</g>
<!-- Node18&#45;&gt;Node2 -->
<g id="edge24" class="edge"><title>Node18&#45;&gt;Node2</title>
<path fill="none" stroke="midnightblue" d="M212.929,-120.446C168.121,-108.278 102.432,-90.4406 62.8829,-79.701"/>
<polygon fill="midnightblue" stroke="midnightblue" points="63.7478,-76.3091 53.18,-77.0661 61.9133,-83.0645 63.7478,-76.3091"/>
</g>
<!-- Node18&#45;&gt;Node12 -->
<g id="edge26" class="edge"><title>Node18&#45;&gt;Node12</title>
<path fill="none" stroke="midnightblue" d="M233.857,-120.446C211.008,-109.458 178.544,-93.8458 156.019,-83.0128"/>
<polygon fill="midnightblue" stroke="midnightblue" points="157.264,-79.7279 146.735,-78.548 154.23,-86.0363 157.264,-79.7279"/>
</g>
<!-- Node19 -->
<g id="node19" class="node"><title>Node19</title>
<polygon fill="none" stroke="#bfbfbf" points="240.884,-60.5 240.884,-78.5 289.116,-78.5 289.116,-60.5 240.884,-60.5"/>
<text text-anchor="middle" x="265" y="-66.5" font-family="Helvetica,sans-Serif" font-size="10.00">cassert</text>
</g>
<!-- Node18&#45;&gt;Node19 -->
<g id="edge23" class="edge"><title>Node18&#45;&gt;Node19</title>
<path fill="none" stroke="midnightblue" d="M261.829,-120.446C262.407,-111.334 263.188,-99.0406 263.83,-88.9308"/>
<polygon fill="midnightblue" stroke="midnightblue" points="267.337,-88.9318 264.477,-78.7301 260.351,-88.4882 267.337,-88.9318"/>
</g>
<!-- Node20 -->
<g id="node20" class="node"><title>Node20</title>
<polygon fill="none" stroke="#bfbfbf" points="178.828,-60.5 178.828,-78.5 223.172,-78.5 223.172,-60.5 178.828,-60.5"/>
<text text-anchor="middle" x="201" y="-66.5" font-family="Helvetica,sans-Serif" font-size="10.00">cstdlib</text>
</g>
<!-- Node18&#45;&gt;Node20 -->
<g id="edge25" class="edge"><title>Node18&#45;&gt;Node20</title>
<path fill="none" stroke="midnightblue" d="M248.568,-120.446C239.049,-110.452 225.887,-96.6316 215.821,-86.0619"/>
<polygon fill="midnightblue" stroke="midnightblue" points="218.269,-83.5577 208.838,-78.7301 213.2,-88.3853 218.269,-83.5577"/>
</g>
<!-- Node21 -->
<g id="node21" class="node"><title>Node21</title>
<polygon fill="none" stroke="#bfbfbf" points="306.985,-60.5 306.985,-78.5 373.015,-78.5 373.015,-60.5 306.985,-60.5"/>
<text text-anchor="middle" x="340" y="-66.5" font-family="Helvetica,sans-Serif" font-size="10.00">Eigen/Core</text>
</g>
<!-- Node18&#45;&gt;Node21 -->
<g id="edge27" class="edge"><title>Node18&#45;&gt;Node21</title>
<path fill="none" stroke="midnightblue" d="M277.369,-120.446C290.27,-110.158 308.255,-95.8153 321.644,-85.1379"/>
<polygon fill="midnightblue" stroke="midnightblue" points="324.044,-87.7014 329.68,-78.7301 319.679,-82.2286 324.044,-87.7014"/>
</g>
<!-- Node18&#45;&gt;Node22 -->
<g id="edge28" class="edge"><title>Node18&#45;&gt;Node22</title>
<path fill="none" stroke="midnightblue" d="M312.126,-128.371C426.769,-116.87 703.993,-89.0596 827.663,-76.6532"/>
<polygon fill="midnightblue" stroke="midnightblue" points="828.121,-80.1249 837.722,-75.6441 827.423,-73.1599 828.121,-80.1249"/>
</g>
<!-- Node22&#45;&gt;Node8 -->
<g id="edge29" class="edge"><title>Node22&#45;&gt;Node8</title>
<path fill="none" stroke="midnightblue" d="M889,-55.3389C889,-47.5305 889,-37.5122 889,-28.9265"/>
<polygon fill="midnightblue" stroke="midnightblue" points="892.5,-28.7714 889,-18.7715 885.5,-28.7715 892.5,-28.7714"/>
</g>
<!-- Node23&#45;&gt;Node5 -->
<g id="edge34" class="edge"><title>Node23&#45;&gt;Node5</title>
<path fill="none" stroke="midnightblue" d="M461.389,-320.328C554.002,-308.198 726.784,-285.568 818.741,-273.524"/>
<polygon fill="midnightblue" stroke="midnightblue" points="819.272,-276.984 828.733,-272.215 818.363,-270.043 819.272,-276.984"/>
</g>
<!-- Node23&#45;&gt;Node18 -->
<g id="edge41" class="edge"><title>Node23&#45;&gt;Node18</title>
<path fill="none" stroke="midnightblue" d="M340.865,-315.397C319.237,-307.927 296.072,-296.442 280,-279 249.838,-246.267 252.317,-190.138 256.709,-158.655"/>
<polygon fill="midnightblue" stroke="midnightblue" points="260.19,-159.049 258.292,-148.625 253.275,-157.957 260.19,-159.049"/>
</g>
<!-- Node24 -->
<g id="node24" class="node"><title>Node24</title>
<g id="a_node24"><a xlink:href="eigenutil_8h.html" target="_top" xlink:title="Basic utilities for dealing with Eigen matrices and other types. ">
<polygon fill="none" stroke="black" points="288.919,-250.5 288.919,-278.5 391.081,-278.5 391.081,-250.5 288.919,-250.5"/>
<text text-anchor="start" x="296.919" y="-266.5" font-family="Helvetica,sans-Serif" font-size="10.00">tomographer2/tools</text>
<text text-anchor="middle" x="340" y="-256.5" font-family="Helvetica,sans-Serif" font-size="10.00">/eigenutil.h</text>
</a>
</g>
</g>
<!-- Node23&#45;&gt;Node24 -->
<g id="edge35" class="edge"><title>Node23&#45;&gt;Node24</title>
<path fill="none" stroke="midnightblue" d="M386.775,-315.446C378.785,-306.915 368.185,-295.596 359.096,-285.89"/>
<polygon fill="midnightblue" stroke="midnightblue" points="361.599,-283.443 352.209,-278.537 356.49,-288.228 361.599,-283.443"/>
</g>
<!-- Node23&#45;&gt;Node29 -->
<g id="edge42" class="edge"><title>Node23&#45;&gt;Node29</title>
<path fill="none" stroke="midnightblue" d="M339.741,-315.446C293.915,-305.352 230.376,-291.356 182.215,-280.747"/>
<polygon fill="midnightblue" stroke="midnightblue" points="182.702,-277.27 172.183,-278.537 181.196,-284.106 182.702,-277.27"/>
</g>
<!-- Node31 -->
<g id="node31" class="node"><title>Node31</title>
<polygon fill="none" stroke="#bfbfbf" points="409.473,-250.5 409.473,-278.5 520.527,-278.5 520.527,-250.5 409.473,-250.5"/>
<text text-anchor="start" x="417.473" y="-266.5" font-family="Helvetica,sans-Serif" font-size="10.00">boost/math/constants</text>
<text text-anchor="middle" x="465" y="-256.5" font-family="Helvetica,sans-Serif" font-size="10.00">/constants.hpp</text>
</g>
<!-- Node23&#45;&gt;Node31 -->
<g id="edge46" class="edge"><title>Node23&#45;&gt;Node31</title>
<path fill="none" stroke="midnightblue" d="M412.675,-315.446C421.702,-306.83 433.706,-295.371 443.94,-285.603"/>
<polygon fill="midnightblue" stroke="midnightblue" points="446.525,-287.973 451.342,-278.537 441.692,-282.91 446.525,-287.973"/>
</g>
<!-- Node24&#45;&gt;Node21 -->
<g id="edge38" class="edge"><title>Node24&#45;&gt;Node21</title>
<path fill="none" stroke="midnightblue" d="M340,-250.234C340,-216.584 340,-127.828 340,-89.0606"/>
<polygon fill="midnightblue" stroke="midnightblue" points="343.5,-88.7505 340,-78.7505 336.5,-88.7505 343.5,-88.7505"/>
</g>
<!-- Node25 -->
<g id="node25" class="node"><title>Node25</title>
<polygon fill="none" stroke="#bfbfbf" points="564.382,-190.5 564.382,-208.5 617.618,-208.5 617.618,-190.5 564.382,-190.5"/>
<text text-anchor="middle" x="591" y="-196.5" font-family="Helvetica,sans-Serif" font-size="10.00">complex</text>
</g>
<!-- Node24&#45;&gt;Node25 -->
<g id="edge36" class="edge"><title>Node24&#45;&gt;Node25</title>
<path fill="none" stroke="midnightblue" d="M391.15,-251.971C452.475,-238.12 548.055,-216.429 556,-214 557.915,-213.414 559.875,-212.775 561.842,-212.103"/>
<polygon fill="midnightblue" stroke="midnightblue" points="563.351,-215.278 571.551,-208.568 560.957,-208.7 563.351,-215.278"/>
</g>
<!-- Node26 -->
<g id="node26" class="node"><title>Node26</title>
<polygon fill="none" stroke="#bfbfbf" points="268.384,-190.5 268.384,-208.5 311.616,-208.5 311.616,-190.5 268.384,-190.5"/>
<text text-anchor="middle" x="290" y="-196.5" font-family="Helvetica,sans-Serif" font-size="10.00">vector</text>
</g>
<!-- Node24&#45;&gt;Node26 -->
<g id="edge37" class="edge"><title>Node24&#45;&gt;Node26</title>
<path fill="none" stroke="midnightblue" d="M329.64,-250.446C321.863,-240.648 311.168,-227.172 302.847,-216.687"/>
<polygon fill="midnightblue" stroke="midnightblue" points="305.49,-214.387 296.532,-208.73 300.007,-218.739 305.49,-214.387"/>
</g>
<!-- Node27 -->
<g id="node27" class="node"><title>Node27</title>
<polygon fill="none" stroke="#bfbfbf" points="368.37,-190.5 368.37,-208.5 441.63,-208.5 441.63,-190.5 368.37,-190.5"/>
<text text-anchor="middle" x="405" y="-196.5" font-family="Helvetica,sans-Serif" font-size="10.00">Eigen/Dense</text>
</g>
<!-- Node24&#45;&gt;Node27 -->
<g id="edge39" class="edge"><title>Node24&#45;&gt;Node27</title>
<path fill="none" stroke="midnightblue" d="M353.468,-250.446C363.881,-240.354 378.319,-226.36 389.264,-215.752"/>
<polygon fill="midnightblue" stroke="midnightblue" points="391.764,-218.203 396.509,-208.73 386.892,-213.177 391.764,-218.203"/>
</g>
<!-- Node28 -->
<g id="node28" class="node"><title>Node28</title>
<polygon fill="none" stroke="#bfbfbf" points="459.141,-190.5 459.141,-208.5 546.859,-208.5 546.859,-190.5 459.141,-190.5"/>
<text text-anchor="middle" x="503" y="-196.5" font-family="Helvetica,sans-Serif" font-size="10.00">Eigen/StdVector</text>
</g>
<!-- Node24&#45;&gt;Node28 -->
<g id="edge40" class="edge"><title>Node24&#45;&gt;Node28</title>
<path fill="none" stroke="midnightblue" d="M373.774,-250.446C402.841,-239.212 444.415,-223.143 472.492,-212.291"/>
<polygon fill="midnightblue" stroke="midnightblue" points="474.112,-215.418 482.177,-208.548 471.588,-208.889 474.112,-215.418"/>
</g>
<!-- Node29&#45;&gt;Node12 -->
<g id="edge43" class="edge"><title>Node29&#45;&gt;Node12</title>
<path fill="none" stroke="midnightblue" d="M90.4066,-250.307C78.0443,-241.71 63.8784,-229.26 57,-214 51.7037,-202.25 53.3912,-197.373 57,-185 68.487,-145.615 98.09,-106.866 115.871,-86.0878"/>
<polygon fill="midnightblue" stroke="midnightblue" points="118.504,-88.3934 122.469,-78.5683 113.243,-83.7766 118.504,-88.3934"/>
</g>
<!-- Node29&#45;&gt;Node18 -->
<g id="edge45" class="edge"><title>Node29&#45;&gt;Node18</title>
<path fill="none" stroke="midnightblue" d="M123.93,-250.453C137.899,-234.175 163.246,-205.936 188,-185 201.235,-173.806 217.04,-162.833 230.553,-154.074"/>
<polygon fill="midnightblue" stroke="midnightblue" points="232.5,-156.983 239.053,-148.658 228.738,-151.08 232.5,-156.983"/>
</g>
<!-- Node30 -->
<g id="node30" class="node"><title>Node30</title>
<polygon fill="none" stroke="#bfbfbf" points="66.0347,-190.5 66.0347,-208.5 135.965,-208.5 135.965,-190.5 66.0347,-190.5"/>
<text text-anchor="middle" x="101" y="-196.5" font-family="Helvetica,sans-Serif" font-size="10.00">Eigen/Eigen</text>
</g>
<!-- Node29&#45;&gt;Node30 -->
<g id="edge44" class="edge"><title>Node29&#45;&gt;Node30</title>
<path fill="none" stroke="midnightblue" d="M110.514,-250.446C108.759,-241.236 106.386,-228.776 104.449,-218.605"/>
<polygon fill="midnightblue" stroke="midnightblue" points="107.877,-217.899 102.568,-208.73 101.001,-219.208 107.877,-217.899"/>
</g>
</g>
</svg>
