<?xml version="1.0" encoding="UTF-8" standalone="no"?>
<!DOCTYPE svg PUBLIC "-//W3C//DTD SVG 1.1//EN"
 "http://www.w3.org/Graphics/SVG/1.1/DTD/svg11.dtd">
<!-- Generated by graphviz version 2.38.0 (20140413.2041)
 -->
<!-- Title: tomographer2/multiprocomp.h Pages: 1 -->
<!--zoomable 342 -->
<svg id="main" version="1.1" xmlns="http://www.w3.org/2000/svg" xmlns:xlink="http://www.w3.org/1999/xlink" xml:space="preserve" onload="init(evt)">
<style type="text/css"><![CDATA[
.edge:hover path { stroke: red; }
.edge:hover polygon { stroke: red; fill: red; }
]]></style>
<script type="text/javascript"><![CDATA[
var edges = document.getElementsByTagName('g');
if (edges && edges.length) {
  for (var i=0;i<edges.length;i++) {
    if (edges[i].id.substr(0,4)=='edge') {
      edges[i].setAttribute('class','edge');
    }
  }
}
]]></script>
        <defs>
                <circle id="rim" cx="0" cy="0" r="7"/>
                <circle id="rim2" cx="0" cy="0" r="3.5"/>
                <g id="zoomPlus">
                        <use xlink:href="#rim" fill="#404040">
                                <set attributeName="fill" to="#808080" begin="zoomplus.mouseover" end="zoomplus.mouseout"/>
                        </use>
                        <path d="M-4,0h8M0,-4v8" fill="none" stroke="white" stroke-width="1.5" pointer-events="none"/>
                </g>
                <g id="zoomMin">
                        <use xlink:href="#rim" fill="#404040">
                                <set attributeName="fill" to="#808080" begin="zoomminus.mouseover" end="zoomminus.mouseout"/>
                        </use>
                        <path d="M-4,0h8" fill="none" stroke="white" stroke-width="1.5" pointer-events="none"/>
                </g>
                <g id="dirArrow">
                        <path fill="none" stroke="white" stroke-width="1.5" d="M0,-3.0v7 M-2.5,-0.5L0,-3.0L2.5,-0.5"/>
                </g>
               <g id="resetDef">
                       <use xlink:href="#rim2" fill="#404040">
                               <set attributeName="fill" to="#808080" begin="reset.mouseover" end="reset.mouseout"/>
                       </use>
               </g>
        </defs>

<script type="text/javascript">
var viewWidth = 1007;
var viewHeight = 342;
var sectionId = 'dynsection-0';
</script>
<script xlink:href="svgpan.js"/>
<svg id="graph" class="graph">
<g id="viewport">
<title>tomographer2/multiprocomp.h</title>
<!-- Node1 -->
<g id="node1" class="node"><title>Node1</title>
<polygon fill="#bfbfbf" stroke="black" points="619.166,-315.5 619.166,-333.5 768.564,-333.5 768.564,-315.5 619.166,-315.5"/>
<text text-anchor="middle" x="693.865" y="-321.5" font-family="Helvetica,sans-Serif" font-size="10.00">tomographer2/multiprocomp.h</text>
</g>
<!-- Node2 -->
<g id="node2" class="node"><title>Node2</title>
<polygon fill="none" stroke="#bfbfbf" points="618.301,-190.5 618.301,-208.5 665.429,-208.5 665.429,-190.5 618.301,-190.5"/>
<text text-anchor="middle" x="641.865" y="-196.5" font-family="Helvetica,sans-Serif" font-size="10.00">csignal</text>
</g>
<!-- Node1&#45;&gt;Node2 -->
<g id="edge1" class="edge"><title>Node1&#45;&gt;Node2</title>
<path fill="none" stroke="midnightblue" d="M668.05,-315.477C651.057,-308.699 630.123,-297.138 619.865,-279 608.799,-259.433 619.932,-233.929 629.979,-217.387"/>
<polygon fill="midnightblue" stroke="midnightblue" points="633.052,-219.081 635.592,-208.795 627.192,-215.252 633.052,-219.081"/>
</g>
<!-- Node3 -->
<g id="node3" class="node"><title>Node3</title>
<g id="a_node3"><a xlink:href="loggers_8h.html" target="_top" xlink:title="Utilities for logging messages. ">
<polygon fill="none" stroke="black" points="278.784,-250.5 278.784,-278.5 380.946,-278.5 380.946,-250.5 278.784,-250.5"/>
<text text-anchor="start" x="286.784" y="-266.5" font-family="Helvetica,sans-Serif" font-size="10.00">tomographer2/tools</text>
<text text-anchor="middle" x="329.865" y="-256.5" font-family="Helvetica,sans-Serif" font-size="10.00">/loggers.h</text>
</a>
</g>
</g>
<!-- Node1&#45;&gt;Node3 -->
<g id="edge2" class="edge"><title>Node1&#45;&gt;Node3</title>
<path fill="none" stroke="midnightblue" d="M643.634,-315.496C577.737,-304.996 462.167,-286.581 391.183,-275.271"/>
<polygon fill="midnightblue" stroke="midnightblue" points="391.471,-271.772 381.045,-273.655 390.37,-278.685 391.471,-271.772"/>
</g>
<!-- Node16 -->
<g id="node16" class="node"><title>Node16</title>
<g id="a_node16"><a xlink:href="cxxutil_8h.html" target="_top" xlink:title="Some C++ utilities, with a tad of C++11 tricks. ">
<polygon fill="none" stroke="black" points="800.784,-120.5 800.784,-148.5 902.946,-148.5 902.946,-120.5 800.784,-120.5"/>
<text text-anchor="start" x="808.784" y="-136.5" font-family="Helvetica,sans-Serif" font-size="10.00">tomographer2/tools</text>
<text text-anchor="middle" x="851.865" y="-126.5" font-family="Helvetica,sans-Serif" font-size="10.00">/cxxutil.h</text>
</a>
</g>
</g>
<!-- Node1&#45;&gt;Node16 -->
<g id="edge29" class="edge"><title>Node1&#45;&gt;Node16</title>
<path fill="none" stroke="midnightblue" d="M720.189,-315.468C759.005,-301.926 829.521,-270.357 852.865,-214 860.112,-196.505 859.198,-174.878 856.847,-158.757"/>
<polygon fill="midnightblue" stroke="midnightblue" points="860.24,-157.843 855.072,-148.594 853.345,-159.047 860.24,-157.843"/>
</g>
<!-- Node22 -->
<g id="node22" class="node"><title>Node22</title>
<g id="a_node22"><a xlink:href="needownoperatornew_8h.html" target="_top" xlink:title="Managing the need for specific overrides to operator new() for some types (especially Eigen types) ...">
<polygon fill="none" stroke="black" points="721.488,-185.5 721.488,-213.5 844.241,-213.5 844.241,-185.5 721.488,-185.5"/>
<text text-anchor="start" x="729.488" y="-201.5" font-family="Helvetica,sans-Serif" font-size="10.00">tomographer2/tools</text>
<text text-anchor="middle" x="782.865" y="-191.5" font-family="Helvetica,sans-Serif" font-size="10.00">/needownoperatornew.h</text>
</a>
</g>
</g>
<!-- Node1&#45;&gt;Node22 -->
<g id="edge30" class="edge"><title>Node1&#45;&gt;Node22</title>
<path fill="none" stroke="midnightblue" d="M717.222,-315.42C733.947,-308.407 755.6,-296.582 767.865,-279 779.13,-262.85 782.515,-240.482 783.295,-223.753"/>
<polygon fill="midnightblue" stroke="midnightblue" points="786.795,-223.761 783.488,-213.696 779.797,-223.627 786.795,-223.761"/>
</g>
<!-- Node24 -->
<g id="node24" class="node"><title>Node24</title>
<g id="a_node24"><a xlink:href="multiproc_8h.html" target="_top" xlink:title="Some common definitions for multiprocessing interfaces. ">
<polygon fill="none" stroke="black" points="628.892,-255.5 628.892,-273.5 758.837,-273.5 758.837,-255.5 628.892,-255.5"/>
<text text-anchor="middle" x="693.865" y="-261.5" font-family="Helvetica,sans-Serif" font-size="10.00">tomographer2/multiproc.h</text>
</a>
</g>
</g>
<!-- Node1&#45;&gt;Node24 -->
<g id="edge34" class="edge"><title>Node1&#45;&gt;Node24</title>
<path fill="none" stroke="midnightblue" d="M693.865,-315.435C693.865,-307.389 693.865,-294.739 693.865,-284.185"/>
<polygon fill="midnightblue" stroke="midnightblue" points="697.365,-283.872 693.865,-273.872 690.365,-283.872 697.365,-283.872"/>
</g>
<!-- Node4 -->
<g id="node4" class="node"><title>Node4</title>
<polygon fill="none" stroke="#bfbfbf" points="415.803,-125.5 415.803,-143.5 457.926,-143.5 457.926,-125.5 415.803,-125.5"/>
<text text-anchor="middle" x="436.865" y="-131.5" font-family="Helvetica,sans-Serif" font-size="10.00">cstdio</text>
</g>
<!-- Node3&#45;&gt;Node4 -->
<g id="edge3" class="edge"><title>Node3&#45;&gt;Node4</title>
<path fill="none" stroke="midnightblue" d="M381.19,-257.36C408.518,-251.188 439.906,-238.811 456.865,-214 469.602,-195.365 458.507,-169.24 448.456,-152.342"/>
<polygon fill="midnightblue" stroke="midnightblue" points="451.188,-150.119 442.847,-143.586 445.293,-153.894 451.188,-150.119"/>
</g>
<!-- Node5 -->
<g id="node5" class="node"><title>Node5</title>
<polygon fill="none" stroke="#bfbfbf" points="475.468,-125.5 475.468,-143.5 524.261,-143.5 524.261,-125.5 475.468,-125.5"/>
<text text-anchor="middle" x="499.865" y="-131.5" font-family="Helvetica,sans-Serif" font-size="10.00">cstdarg</text>
</g>
<!-- Node3&#45;&gt;Node5 -->
<g id="edge4" class="edge"><title>Node3&#45;&gt;Node5</title>
<path fill="none" stroke="midnightblue" d="M381.221,-257.375C411.811,-251.198 449.329,-238.813 473.865,-214 489.929,-197.754 496.068,-171.371 498.414,-153.732"/>
<polygon fill="midnightblue" stroke="midnightblue" points="501.915,-153.908 499.474,-143.598 494.953,-153.18 501.915,-153.908"/>
</g>
<!-- Node6 -->
<g id="node6" class="node"><title>Node6</title>
<polygon fill="none" stroke="#bfbfbf" points="377.638,-0.5 377.638,-18.5 418.091,-18.5 418.091,-0.5 377.638,-0.5"/>
<text text-anchor="middle" x="397.865" y="-6.5" font-family="Helvetica,sans-Serif" font-size="10.00">string</text>
</g>
<!-- Node3&#45;&gt;Node6 -->
<g id="edge5" class="edge"><title>Node3&#45;&gt;Node6</title>
<path fill="none" stroke="midnightblue" d="M278.475,-263.318C196.986,-261.816 43.8446,-253.64 9.8648,-214 -0.759787,-201.606 -6.38004,-144.296 12.8648,-120 57.8179,-63.2487 284.651,-26.3386 367.507,-14.5679"/>
<polygon fill="midnightblue" stroke="midnightblue" points="368.125,-18.0155 377.545,-13.1654 367.157,-11.0829 368.125,-18.0155"/>
</g>
<!-- Node7 -->
<g id="node7" class="node"><title>Node7</title>
<polygon fill="none" stroke="#bfbfbf" points="22.084,-125.5 22.084,-143.5 73.6456,-143.5 73.6456,-125.5 22.084,-125.5"/>
<text text-anchor="middle" x="47.8648" y="-131.5" font-family="Helvetica,sans-Serif" font-size="10.00">sstream</text>
</g>
<!-- Node3&#45;&gt;Node7 -->
<g id="edge6" class="edge"><title>Node3&#45;&gt;Node7</title>
<path fill="none" stroke="midnightblue" d="M278.462,-263.025C199.109,-261.078 52.4932,-252.252 19.8648,-214 4.51177,-196.001 20.1911,-168.973 33.5263,-151.79"/>
<polygon fill="midnightblue" stroke="midnightblue" points="36.4504,-153.746 40.1093,-143.803 31.0485,-149.294 36.4504,-153.746"/>
</g>
<!-- Node8 -->
<g id="node8" class="node"><title>Node8</title>
<polygon fill="none" stroke="#bfbfbf" points="153.692,-125.5 153.692,-143.5 208.037,-143.5 208.037,-125.5 153.692,-125.5"/>
<text text-anchor="middle" x="180.865" y="-131.5" font-family="Helvetica,sans-Serif" font-size="10.00">iostream</text>
</g>
<!-- Node3&#45;&gt;Node8 -->
<g id="edge7" class="edge"><title>Node3&#45;&gt;Node8</title>
<path fill="none" stroke="midnightblue" d="M278.494,-257.648C226.554,-250.549 151.495,-236.636 133.865,-214 117.638,-193.166 142.309,-166.285 161.602,-149.998"/>
<polygon fill="midnightblue" stroke="midnightblue" points="163.811,-152.712 169.406,-143.715 159.422,-147.26 163.811,-152.712"/>
</g>
<!-- Node9 -->
<g id="node9" class="node"><title>Node9</title>
<polygon fill="none" stroke="#bfbfbf" points="28.461,-190.5 28.461,-208.5 87.2686,-208.5 87.2686,-190.5 28.461,-190.5"/>
<text text-anchor="middle" x="57.8648" y="-196.5" font-family="Helvetica,sans-Serif" font-size="10.00">functional</text>
</g>
<!-- Node3&#45;&gt;Node9 -->
<g id="edge8" class="edge"><title>Node3&#45;&gt;Node9</title>
<path fill="none" stroke="midnightblue" d="M278.613,-253.815C231.992,-244.675 161.423,-230.015 100.865,-214 98.0281,-213.25 95.0998,-212.43 92.1676,-211.576"/>
<polygon fill="midnightblue" stroke="midnightblue" points="92.8956,-208.14 82.3107,-208.6 90.8718,-214.841 92.8956,-208.14"/>
</g>
<!-- Node10 -->
<g id="node10" class="node"><title>Node10</title>
<polygon fill="none" stroke="#bfbfbf" points="653.798,-60.5 653.798,-78.5 715.931,-78.5 715.931,-60.5 653.798,-60.5"/>
<text text-anchor="middle" x="684.865" y="-66.5" font-family="Helvetica,sans-Serif" font-size="10.00">type_traits</text>
</g>
<!-- Node3&#45;&gt;Node10 -->
<g id="edge9" class="edge"><title>Node3&#45;&gt;Node10</title>
<path fill="none" stroke="midnightblue" d="M381.306,-257.205C421.873,-250.67 478.908,-237.917 523.865,-214 587.347,-180.229 646.187,-116.371 671.626,-86.5711"/>
<polygon fill="midnightblue" stroke="midnightblue" points="674.4,-88.7107 678.155,-78.8037 669.041,-84.2065 674.4,-88.7107"/>
</g>
<!-- Node11 -->
<g id="node11" class="node"><title>Node11</title>
<polygon fill="none" stroke="#bfbfbf" points="143.138,-190.5 143.138,-208.5 178.591,-208.5 178.591,-190.5 143.138,-190.5"/>
<text text-anchor="middle" x="160.865" y="-196.5" font-family="Helvetica,sans-Serif" font-size="10.00">map</text>
</g>
<!-- Node3&#45;&gt;Node11 -->
<g id="edge10" class="edge"><title>Node3&#45;&gt;Node11</title>
<path fill="none" stroke="midnightblue" d="M287.012,-250.472C258.277,-241.298 219.809,-228.165 186.865,-214 186.164,-213.699 185.456,-213.386 184.744,-213.065"/>
<polygon fill="midnightblue" stroke="midnightblue" points="186.058,-209.812 175.534,-208.59 182.999,-216.109 186.058,-209.812"/>
</g>
<!-- Node12 -->
<g id="node12" class="node"><title>Node12</title>
<polygon fill="none" stroke="#bfbfbf" points="196.333,-190.5 196.333,-208.5 327.397,-208.5 327.397,-190.5 196.333,-190.5"/>
<text text-anchor="middle" x="261.865" y="-196.5" font-family="Helvetica,sans-Serif" font-size="10.00">boost/algorithm/string.hpp</text>
</g>
<!-- Node3&#45;&gt;Node12 -->
<g id="edge11" class="edge"><title>Node3&#45;&gt;Node12</title>
<path fill="none" stroke="midnightblue" d="M315.775,-250.446C304.881,-240.354 289.777,-226.36 278.327,-215.752"/>
<polygon fill="midnightblue" stroke="midnightblue" points="280.462,-212.959 270.748,-208.73 275.705,-218.094 280.462,-212.959"/>
</g>
<!-- Node13 -->
<g id="node13" class="node"><title>Node13</title>
<g id="a_node13"><a xlink:href="fmt_8h.html" target="_top" xlink:title="Utilities for formatting strings. ">
<polygon fill="none" stroke="black" points="345.784,-185.5 345.784,-213.5 447.946,-213.5 447.946,-185.5 345.784,-185.5"/>
<text text-anchor="start" x="353.784" y="-201.5" font-family="Helvetica,sans-Serif" font-size="10.00">tomographer2/tools</text>
<text text-anchor="middle" x="396.865" y="-191.5" font-family="Helvetica,sans-Serif" font-size="10.00">/fmt.h</text>
</a>
</g>
</g>
<!-- Node3&#45;&gt;Node13 -->
<g id="edge12" class="edge"><title>Node3&#45;&gt;Node13</title>
<path fill="none" stroke="midnightblue" d="M343.747,-250.446C352.91,-241.83 365.097,-230.371 375.486,-220.603"/>
<polygon fill="midnightblue" stroke="midnightblue" points="378.113,-222.937 383,-213.537 373.317,-217.837 378.113,-222.937"/>
</g>
<!-- Node21 -->
<g id="node21" class="node"><title>Node21</title>
<g id="a_node21"><a xlink:href="conststr_8h.html" target="_top" xlink:title="A constexpr string type, suitable for basic compile&#45;time string processing. ">
<polygon fill="none" stroke="black" points="478.784,-55.5 478.784,-83.5 580.946,-83.5 580.946,-55.5 478.784,-55.5"/>
<text text-anchor="start" x="486.784" y="-71.5" font-family="Helvetica,sans-Serif" font-size="10.00">tomographer2/tools</text>
<text text-anchor="middle" x="529.865" y="-61.5" font-family="Helvetica,sans-Serif" font-size="10.00">/conststr.h</text>
</a>
</g>
</g>
<!-- Node3&#45;&gt;Node21 -->
<g id="edge28" class="edge"><title>Node3&#45;&gt;Node21</title>
<path fill="none" stroke="midnightblue" d="M381.324,-258.548C417.004,-252.827 463.855,-240.508 496.865,-214 522.614,-193.323 524.602,-180.973 532.865,-149 536.09,-136.521 533.255,-132.883 532.865,-120 532.604,-111.384 532.088,-101.935 531.557,-93.6237"/>
<polygon fill="midnightblue" stroke="midnightblue" points="535.04,-93.2572 530.87,-83.5178 528.056,-93.7323 535.04,-93.2572"/>
</g>
<!-- Node13&#45;&gt;Node4 -->
<g id="edge13" class="edge"><title>Node13&#45;&gt;Node4</title>
<path fill="none" stroke="midnightblue" d="M405.153,-185.446C411.25,-175.844 419.589,-162.71 426.185,-152.32"/>
<polygon fill="midnightblue" stroke="midnightblue" points="429.234,-154.048 431.639,-143.73 423.324,-150.296 429.234,-154.048"/>
</g>
<!-- Node13&#45;&gt;Node5 -->
<g id="edge14" class="edge"><title>Node13&#45;&gt;Node5</title>
<path fill="none" stroke="midnightblue" d="M418.206,-185.446C435.608,-174.803 460.101,-159.821 477.717,-149.047"/>
<polygon fill="midnightblue" stroke="midnightblue" points="480.002,-151.752 486.707,-143.548 476.35,-145.78 480.002,-151.752"/>
</g>
<!-- Node13&#45;&gt;Node6 -->
<g id="edge16" class="edge"><title>Node13&#45;&gt;Node6</title>
<path fill="none" stroke="midnightblue" d="M355.877,-185.478C327.75,-175.617 294.078,-161.655 285.865,-149 253.859,-99.6834 331.165,-47.2289 373.072,-23.4975"/>
<polygon fill="midnightblue" stroke="midnightblue" points="374.847,-26.516 381.911,-18.6198 371.464,-20.3874 374.847,-26.516"/>
</g>
<!-- Node13&#45;&gt;Node7 -->
<g id="edge17" class="edge"><title>Node13&#45;&gt;Node7</title>
<path fill="none" stroke="midnightblue" d="M345.515,-186.763C342.592,-186.152 339.693,-185.56 336.865,-185 246.091,-167.027 138.51,-149.619 83.7617,-141.037"/>
<polygon fill="midnightblue" stroke="midnightblue" points="84.2736,-137.574 73.8533,-139.49 83.1936,-144.491 84.2736,-137.574"/>
</g>
<!-- Node13&#45;&gt;Node8 -->
<g id="edge18" class="edge"><title>Node13&#45;&gt;Node8</title>
<path fill="none" stroke="midnightblue" d="M352.109,-185.446C312.464,-173.883 255.262,-157.199 218.075,-146.353"/>
<polygon fill="midnightblue" stroke="midnightblue" points="218.728,-142.898 208.148,-143.458 216.768,-149.618 218.728,-142.898"/>
</g>
<!-- Node14 -->
<g id="node14" class="node"><title>Node14</title>
<polygon fill="none" stroke="#bfbfbf" points="351.577,-125.5 351.577,-143.5 398.153,-143.5 398.153,-125.5 351.577,-125.5"/>
<text text-anchor="middle" x="374.865" y="-131.5" font-family="Helvetica,sans-Serif" font-size="10.00">chrono</text>
</g>
<!-- Node13&#45;&gt;Node14 -->
<g id="edge15" class="edge"><title>Node13&#45;&gt;Node14</title>
<path fill="none" stroke="midnightblue" d="M392.306,-185.446C389.056,-176.138 384.646,-163.51 381.074,-153.282"/>
<polygon fill="midnightblue" stroke="midnightblue" points="384.34,-152.017 377.739,-143.73 377.731,-154.325 384.34,-152.017"/>
</g>
<!-- Node15 -->
<g id="node15" class="node"><title>Node15</title>
<polygon fill="none" stroke="#bfbfbf" points="294.473,-125.5 294.473,-143.5 333.256,-143.5 333.256,-125.5 294.473,-125.5"/>
<text text-anchor="middle" x="313.865" y="-131.5" font-family="Helvetica,sans-Serif" font-size="10.00">utility</text>
</g>
<!-- Node13&#45;&gt;Node15 -->
<g id="edge19" class="edge"><title>Node13&#45;&gt;Node15</title>
<path fill="none" stroke="midnightblue" d="M379.667,-185.446C365.983,-175.06 346.856,-160.542 332.749,-149.834"/>
<polygon fill="midnightblue" stroke="midnightblue" points="334.789,-146.988 324.708,-143.73 330.557,-152.564 334.789,-146.988"/>
</g>
<!-- Node13&#45;&gt;Node16 -->
<g id="edge20" class="edge"><title>Node13&#45;&gt;Node16</title>
<path fill="none" stroke="midnightblue" d="M448.232,-193.664C521.902,-186.376 661.975,-171.209 790.521,-149.13"/>
<polygon fill="midnightblue" stroke="midnightblue" points="791.289,-152.549 800.543,-147.39 790.092,-145.652 791.289,-152.549"/>
</g>
<!-- Node16&#45;&gt;Node10 -->
<g id="edge24" class="edge"><title>Node16&#45;&gt;Node10</title>
<path fill="none" stroke="midnightblue" d="M817.262,-120.446C787.351,-109.162 744.514,-93.0023 715.744,-82.1489"/>
<polygon fill="midnightblue" stroke="midnightblue" points="716.79,-78.803 706.198,-78.548 714.319,-85.3524 716.79,-78.803"/>
</g>
<!-- Node17 -->
<g id="node17" class="node"><title>Node17</title>
<polygon fill="none" stroke="#bfbfbf" points="822.749,-60.5 822.749,-78.5 870.981,-78.5 870.981,-60.5 822.749,-60.5"/>
<text text-anchor="middle" x="846.865" y="-66.5" font-family="Helvetica,sans-Serif" font-size="10.00">cassert</text>
</g>
<!-- Node16&#45;&gt;Node17 -->
<g id="edge21" class="edge"><title>Node16&#45;&gt;Node17</title>
<path fill="none" stroke="midnightblue" d="M850.829,-120.446C850.106,-111.334 849.13,-99.0406 848.328,-88.9308"/>
<polygon fill="midnightblue" stroke="midnightblue" points="851.798,-88.4218 847.518,-78.7301 844.82,-88.9757 851.798,-88.4218"/>
</g>
<!-- Node18 -->
<g id="node18" class="node"><title>Node18</title>
<polygon fill="none" stroke="#bfbfbf" points="888.744,-60.5 888.744,-78.5 936.985,-78.5 936.985,-60.5 888.744,-60.5"/>
<text text-anchor="middle" x="912.865" y="-66.5" font-family="Helvetica,sans-Serif" font-size="10.00">cstddef</text>
</g>
<!-- Node16&#45;&gt;Node18 -->
<g id="edge22" class="edge"><title>Node16&#45;&gt;Node18</title>
<path fill="none" stroke="midnightblue" d="M864.504,-120.446C874.181,-110.452 887.563,-96.6316 897.797,-86.0619"/>
<polygon fill="midnightblue" stroke="midnightblue" points="900.454,-88.3489 904.896,-78.7301 895.425,-83.4796 900.454,-88.3489"/>
</g>
<!-- Node19 -->
<g id="node19" class="node"><title>Node19</title>
<polygon fill="none" stroke="#bfbfbf" points="954.692,-60.5 954.692,-78.5 999.037,-78.5 999.037,-60.5 954.692,-60.5"/>
<text text-anchor="middle" x="976.865" y="-66.5" font-family="Helvetica,sans-Serif" font-size="10.00">cstdlib</text>
</g>
<!-- Node16&#45;&gt;Node19 -->
<g id="edge23" class="edge"><title>Node16&#45;&gt;Node19</title>
<path fill="none" stroke="midnightblue" d="M877.765,-120.446C899.469,-109.507 930.266,-93.9857 951.748,-83.1588"/>
<polygon fill="midnightblue" stroke="midnightblue" points="953.542,-86.1742 960.897,-78.548 950.391,-79.9233 953.542,-86.1742"/>
</g>
<!-- Node20 -->
<g id="node20" class="node"><title>Node20</title>
<polygon fill="none" stroke="#bfbfbf" points="738.85,-60.5 738.85,-78.5 804.879,-78.5 804.879,-60.5 738.85,-60.5"/>
<text text-anchor="middle" x="771.865" y="-66.5" font-family="Helvetica,sans-Serif" font-size="10.00">Eigen/Core</text>
</g>
<!-- Node16&#45;&gt;Node20 -->
<g id="edge25" class="edge"><title>Node16&#45;&gt;Node20</title>
<path fill="none" stroke="midnightblue" d="M835.289,-120.446C822.224,-110.158 804.011,-95.8153 790.453,-85.1379"/>
<polygon fill="midnightblue" stroke="midnightblue" points="792.338,-82.1673 782.316,-78.7301 788.007,-87.6667 792.338,-82.1673"/>
</g>
<!-- Node16&#45;&gt;Node21 -->
<g id="edge26" class="edge"><title>Node16&#45;&gt;Node21</title>
<path fill="none" stroke="midnightblue" d="M800.503,-121.821C797.583,-121.195 794.688,-120.584 791.865,-120 723.301,-105.814 644.298,-91.1117 591.125,-81.4551"/>
<polygon fill="midnightblue" stroke="midnightblue" points="591.64,-77.9915 581.176,-79.6524 590.391,-84.8793 591.64,-77.9915"/>
</g>
<!-- Node21&#45;&gt;Node6 -->
<g id="edge27" class="edge"><title>Node21&#45;&gt;Node6</title>
<path fill="none" stroke="midnightblue" d="M500.241,-55.4837C477.962,-45.6941 447.639,-32.3706 425.784,-22.7677"/>
<polygon fill="midnightblue" stroke="midnightblue" points="426.961,-19.4619 416.398,-18.6434 424.145,-25.8705 426.961,-19.4619"/>
</g>
<!-- Node22&#45;&gt;Node10 -->
<g id="edge31" class="edge"><title>Node22&#45;&gt;Node10</title>
<path fill="none" stroke="midnightblue" d="M750.474,-185.38C734.193,-177.211 715.501,-165.153 703.865,-149 691.079,-131.251 686.821,-105.984 685.445,-88.9518"/>
<polygon fill="midnightblue" stroke="midnightblue" points="688.923,-88.464 684.883,-78.6698 681.934,-88.8458 688.923,-88.464"/>
</g>
<!-- Node22&#45;&gt;Node16 -->
<g id="edge33" class="edge"><title>Node22&#45;&gt;Node16</title>
<path fill="none" stroke="midnightblue" d="M797.162,-185.446C806.691,-176.746 819.395,-165.146 830.162,-155.316"/>
<polygon fill="midnightblue" stroke="midnightblue" points="832.561,-157.864 837.586,-148.537 827.841,-152.695 832.561,-157.864"/>
</g>
<!-- Node23 -->
<g id="node23" class="node"><title>Node23</title>
<polygon fill="none" stroke="#bfbfbf" points="712.899,-125.5 712.899,-143.5 782.83,-143.5 782.83,-125.5 712.899,-125.5"/>
<text text-anchor="middle" x="747.865" y="-131.5" font-family="Helvetica,sans-Serif" font-size="10.00">Eigen/Eigen</text>
</g>
<!-- Node22&#45;&gt;Node23 -->
<g id="edge32" class="edge"><title>Node22&#45;&gt;Node23</title>
<path fill="none" stroke="midnightblue" d="M775.613,-185.446C770.332,-175.942 763.13,-162.977 757.386,-152.639"/>
<polygon fill="midnightblue" stroke="midnightblue" points="760.353,-150.772 752.437,-143.73 754.234,-154.171 760.353,-150.772"/>
</g>
<!-- Node24&#45;&gt;Node2 -->
<g id="edge35" class="edge"><title>Node24&#45;&gt;Node2</title>
<path fill="none" stroke="midnightblue" d="M687.067,-255.264C678.925,-245.4 665.107,-228.659 654.887,-216.277"/>
<polygon fill="midnightblue" stroke="midnightblue" points="657.565,-214.023 648.5,-208.539 652.167,-218.479 657.565,-214.023"/>
</g>
<!-- Node24&#45;&gt;Node6 -->
<g id="edge36" class="edge"><title>Node24&#45;&gt;Node6</title>
<path fill="none" stroke="midnightblue" d="M692.602,-255.313C687.19,-223.315 662.821,-105.962 589.865,-55 540.682,-20.6448 468.807,-12.4749 428.393,-10.7373"/>
<polygon fill="midnightblue" stroke="midnightblue" points="428.459,-7.23769 418.351,-10.4115 428.232,-14.234 428.459,-7.23769"/>
</g>
<!-- Node24&#45;&gt;Node22 -->
<g id="edge37" class="edge"><title>Node24&#45;&gt;Node22</title>
<path fill="none" stroke="midnightblue" d="M705.5,-255.264C718.259,-246.232 739.164,-231.435 756.028,-219.497"/>
<polygon fill="midnightblue" stroke="midnightblue" points="758.274,-222.195 764.414,-213.561 754.23,-216.482 758.274,-222.195"/>
</g>
</g>
</svg>
        <g id="navigator" transform="translate(0 0)" fill="#404254">
                <rect fill="#f2f5e9" fill-opacity="0.5" stroke="#606060" stroke-width=".5" x="0" y="0" width="60" height="60"/>
                <use id="zoomplus" xlink:href="#zoomPlus" x="17" y="9" onmousedown="handleZoom(evt,'in')"/>
                <use id="zoomminus" xlink:href="#zoomMin" x="42" y="9" onmousedown="handleZoom(evt,'out')"/>
                <use id="reset" xlink:href="#resetDef" x="30" y="36" onmousedown="handleReset()"/>
                <g id="arrowUp" xlink:href="#dirArrow" transform="translate(30 24)" onmousedown="handlePan(0,-1)">
                  <use xlink:href="#rim" fill="#404040">
                        <set attributeName="fill" to="#808080" begin="arrowUp.mouseover" end="arrowUp.mouseout"/>
                  </use>
                  <path fill="none" stroke="white" stroke-width="1.5" d="M0,-3.0v7 M-2.5,-0.5L0,-3.0L2.5,-0.5"/>
                </g>
                <g id="arrowRight" xlink:href="#dirArrow" transform="rotate(90) translate(36 -43)" onmousedown="handlePan(1,0)">
                  <use xlink:href="#rim" fill="#404040">
                        <set attributeName="fill" to="#808080" begin="arrowRight.mouseover" end="arrowRight.mouseout"/>
                  </use>
                  <path fill="none" stroke="white" stroke-width="1.5" d="M0,-3.0v7 M-2.5,-0.5L0,-3.0L2.5,-0.5"/>
                </g>
                <g id="arrowDown" xlink:href="#dirArrow" transform="rotate(180) translate(-30 -48)" onmousedown="handlePan(0,1)">
                  <use xlink:href="#rim" fill="#404040">
                        <set attributeName="fill" to="#808080" begin="arrowDown.mouseover" end="arrowDown.mouseout"/>
                  </use>
                  <path fill="none" stroke="white" stroke-width="1.5" d="M0,-3.0v7 M-2.5,-0.5L0,-3.0L2.5,-0.5"/>
                </g>
                <g id="arrowLeft" xlink:href="#dirArrow" transform="rotate(270) translate(-36 17)" onmousedown="handlePan(-1,0)">
                  <use xlink:href="#rim" fill="#404040">
                        <set attributeName="fill" to="#808080" begin="arrowLeft.mouseover" end="arrowLeft.mouseout"/>
                  </use>
                  <path fill="none" stroke="white" stroke-width="1.5" d="M0,-3.0v7 M-2.5,-0.5L0,-3.0L2.5,-0.5"/>
                </g>
        </g>
        <svg viewBox="0 0 15 15" width="100%" height="30px" preserveAspectRatio="xMaxYMin meet">
         <g id="arrow_out" transform="scale(0.3 0.3)">
          <a xlink:href="multiprocomp_8h__incl_org.svg" target="_base">
           <rect id="button" ry="5" rx="5" y="6" x="6" height="38" width="38"
                fill="#f2f5e9" fill-opacity="0.5" stroke="#606060" stroke-width="1.0"/>
           <path id="arrow"
             d="M 11.500037,31.436501 C 11.940474,20.09759 22.043105,11.32322 32.158766,21.979434 L 37.068811,17.246167 C 37.068811,17.246167 37.088388,32 37.088388,32 L 22.160133,31.978069 C 22.160133,31.978069 26.997745,27.140456 26.997745,27.140456 C 18.528582,18.264221 13.291696,25.230495 11.500037,31.436501 z"
             style="fill:#404040;"/>
          </a>
         </g>
        </svg>
</svg>
