<?xml version="1.0" encoding="UTF-8" standalone="no"?>
<!DOCTYPE svg PUBLIC "-//W3C//DTD SVG 1.1//EN"
 "http://www.w3.org/Graphics/SVG/1.1/DTD/svg11.dtd">
<!-- Generated by graphviz version 2.38.0 (20140413.2041)
 -->
<!-- Title: tomographer2/multiproc.h Pages: 1 -->
<svg width="572pt" height="277pt"
 viewBox="0.00 0.00 571.65 277.00" xmlns="http://www.w3.org/2000/svg" xmlns:xlink="http://www.w3.org/1999/xlink">
<g id="graph0" class="graph" transform="scale(1 1) rotate(0) translate(4 273)">
<title>tomographer2/multiproc.h</title>
<!-- Node1 -->
<g id="node1" class="node"><title>Node1</title>
<polygon fill="#bfbfbf" stroke="black" points="10.5913,-250.5 10.5913,-268.5 140.537,-268.5 140.537,-250.5 10.5913,-250.5"/>
<text text-anchor="middle" x="75.564" y="-256.5" font-family="Helvetica,sans-Serif" font-size="10.00">tomographer2/multiproc.h</text>
</g>
<!-- Node2 -->
<g id="node2" class="node"><title>Node2</title>
<polygon fill="none" stroke="#bfbfbf" points="0,-190.5 0,-208.5 47.1279,-208.5 47.1279,-190.5 0,-190.5"/>
<text text-anchor="middle" x="23.564" y="-196.5" font-family="Helvetica,sans-Serif" font-size="10.00">csignal</text>
</g>
<!-- Node1&#45;&gt;Node2 -->
<g id="edge1" class="edge"><title>Node1&#45;&gt;Node2</title>
<path fill="none" stroke="midnightblue" d="M68.3336,-250.435C60.5058,-241.704 47.8177,-227.552 37.9442,-216.54"/>
<polygon fill="midnightblue" stroke="midnightblue" points="40.3512,-213.981 31.0697,-208.872 35.1392,-218.654 40.3512,-213.981"/>
</g>
<!-- Node3 -->
<g id="node3" class="node"><title>Node3</title>
<polygon fill="none" stroke="#bfbfbf" points="273.337,-0.5 273.337,-18.5 313.791,-18.5 313.791,-0.5 273.337,-0.5"/>
<text text-anchor="middle" x="293.564" y="-6.5" font-family="Helvetica,sans-Serif" font-size="10.00">string</text>
</g>
<!-- Node1&#45;&gt;Node3 -->
<g id="edge2" class="edge"><title>Node1&#45;&gt;Node3</title>
<path fill="none" stroke="midnightblue" d="M73.3166,-250.217C65.6099,-219.805 43.4448,-113.056 94.564,-55 116.469,-30.1227 212.806,-17.8295 262.963,-13.0214"/>
<polygon fill="midnightblue" stroke="midnightblue" points="263.572,-16.4804 273.21,-12.0819 262.933,-9.50959 263.572,-16.4804"/>
</g>
<!-- Node4 -->
<g id="node4" class="node"><title>Node4</title>
<g id="a_node4"><a xlink:href="needownoperatornew_8h.html" target="_top" xlink:title="Managing the need for specific overrides to operator new() for some types (especially Eigen types) ...">
<polygon fill="none" stroke="black" points="114.188,-185.5 114.188,-213.5 236.94,-213.5 236.94,-185.5 114.188,-185.5"/>
<text text-anchor="start" x="122.188" y="-201.5" font-family="Helvetica,sans-Serif" font-size="10.00">tomographer2/tools</text>
<text text-anchor="middle" x="175.564" y="-191.5" font-family="Helvetica,sans-Serif" font-size="10.00">/needownoperatornew.h</text>
</a>
</g>
</g>
<!-- Node1&#45;&gt;Node4 -->
<g id="edge3" class="edge"><title>Node1&#45;&gt;Node4</title>
<path fill="none" stroke="midnightblue" d="M89.4685,-250.435C103.581,-242.25 125.909,-229.3 144.29,-218.639"/>
<polygon fill="midnightblue" stroke="midnightblue" points="146.048,-221.665 152.943,-213.62 142.536,-215.61 146.048,-221.665"/>
</g>
<!-- Node5 -->
<g id="node5" class="node"><title>Node5</title>
<polygon fill="none" stroke="#bfbfbf" points="103.498,-60.5 103.498,-78.5 165.63,-78.5 165.63,-60.5 103.498,-60.5"/>
<text text-anchor="middle" x="134.564" y="-66.5" font-family="Helvetica,sans-Serif" font-size="10.00">type_traits</text>
</g>
<!-- Node4&#45;&gt;Node5 -->
<g id="edge4" class="edge"><title>Node4&#45;&gt;Node5</title>
<path fill="none" stroke="midnightblue" d="M164.064,-185.195C156.594,-175.751 147.381,-162.414 142.564,-149 135.485,-129.288 134.008,-105.122 133.967,-88.8523"/>
<polygon fill="midnightblue" stroke="midnightblue" points="137.471,-88.6327 134.131,-78.578 130.471,-88.5208 137.471,-88.6327"/>
</g>
<!-- Node6 -->
<g id="node6" class="node"><title>Node6</title>
<polygon fill="none" stroke="#bfbfbf" points="151.599,-125.5 151.599,-143.5 221.529,-143.5 221.529,-125.5 151.599,-125.5"/>
<text text-anchor="middle" x="186.564" y="-131.5" font-family="Helvetica,sans-Serif" font-size="10.00">Eigen/Eigen</text>
</g>
<!-- Node4&#45;&gt;Node6 -->
<g id="edge5" class="edge"><title>Node4&#45;&gt;Node6</title>
<path fill="none" stroke="midnightblue" d="M177.843,-185.446C179.451,-176.236 181.627,-163.776 183.403,-153.605"/>
<polygon fill="midnightblue" stroke="midnightblue" points="186.855,-154.183 185.127,-143.73 179.959,-152.979 186.855,-154.183"/>
</g>
<!-- Node7 -->
<g id="node7" class="node"><title>Node7</title>
<g id="a_node7"><a xlink:href="cxxutil_8h.html" target="_top" xlink:title="Some C++ utilities, with a tad of C++11 tricks. ">
<polygon fill="none" stroke="black" points="239.483,-120.5 239.483,-148.5 341.645,-148.5 341.645,-120.5 239.483,-120.5"/>
<text text-anchor="start" x="247.483" y="-136.5" font-family="Helvetica,sans-Serif" font-size="10.00">tomographer2/tools</text>
<text text-anchor="middle" x="290.564" y="-126.5" font-family="Helvetica,sans-Serif" font-size="10.00">/cxxutil.h</text>
</a>
</g>
</g>
<!-- Node4&#45;&gt;Node7 -->
<g id="edge6" class="edge"><title>Node4&#45;&gt;Node7</title>
<path fill="none" stroke="midnightblue" d="M199.392,-185.446C216.276,-176.197 239.141,-163.671 257.749,-153.477"/>
<polygon fill="midnightblue" stroke="midnightblue" points="259.678,-156.411 266.766,-148.537 256.315,-150.272 259.678,-156.411"/>
</g>
<!-- Node7&#45;&gt;Node5 -->
<g id="edge10" class="edge"><title>Node7&#45;&gt;Node5</title>
<path fill="none" stroke="midnightblue" d="M258.241,-120.446C230.543,-109.261 190.982,-93.2842 164.116,-82.4345"/>
<polygon fill="midnightblue" stroke="midnightblue" points="165.075,-79.0473 154.492,-78.548 162.454,-85.538 165.075,-79.0473"/>
</g>
<!-- Node8 -->
<g id="node8" class="node"><title>Node8</title>
<polygon fill="none" stroke="#bfbfbf" points="183.448,-60.5 183.448,-78.5 231.68,-78.5 231.68,-60.5 183.448,-60.5"/>
<text text-anchor="middle" x="207.564" y="-66.5" font-family="Helvetica,sans-Serif" font-size="10.00">cassert</text>
</g>
<!-- Node7&#45;&gt;Node8 -->
<g id="edge7" class="edge"><title>Node7&#45;&gt;Node8</title>
<path fill="none" stroke="midnightblue" d="M273.366,-120.446C259.682,-110.06 240.555,-95.5418 226.448,-84.8339"/>
<polygon fill="midnightblue" stroke="midnightblue" points="228.488,-81.9882 218.407,-78.7301 224.256,-87.564 228.488,-81.9882"/>
</g>
<!-- Node9 -->
<g id="node9" class="node"><title>Node9</title>
<polygon fill="none" stroke="#bfbfbf" points="249.443,-60.5 249.443,-78.5 297.685,-78.5 297.685,-60.5 249.443,-60.5"/>
<text text-anchor="middle" x="273.564" y="-66.5" font-family="Helvetica,sans-Serif" font-size="10.00">cstddef</text>
</g>
<!-- Node7&#45;&gt;Node9 -->
<g id="edge8" class="edge"><title>Node7&#45;&gt;Node9</title>
<path fill="none" stroke="midnightblue" d="M287.042,-120.446C284.556,-111.236 281.194,-98.7759 278.45,-88.6055"/>
<polygon fill="midnightblue" stroke="midnightblue" points="281.769,-87.4729 275.785,-78.7301 275.011,-89.2966 281.769,-87.4729"/>
</g>
<!-- Node10 -->
<g id="node10" class="node"><title>Node10</title>
<polygon fill="none" stroke="#bfbfbf" points="315.392,-60.5 315.392,-78.5 359.736,-78.5 359.736,-60.5 315.392,-60.5"/>
<text text-anchor="middle" x="337.564" y="-66.5" font-family="Helvetica,sans-Serif" font-size="10.00">cstdlib</text>
</g>
<!-- Node7&#45;&gt;Node10 -->
<g id="edge9" class="edge"><title>Node7&#45;&gt;Node10</title>
<path fill="none" stroke="midnightblue" d="M300.302,-120.446C307.539,-110.746 317.465,-97.4412 325.252,-87.0028"/>
<polygon fill="midnightblue" stroke="midnightblue" points="328.25,-88.8382 331.424,-78.7301 322.639,-84.6525 328.25,-88.8382"/>
</g>
<!-- Node11 -->
<g id="node11" class="node"><title>Node11</title>
<polygon fill="none" stroke="#bfbfbf" points="377.549,-60.5 377.549,-78.5 443.579,-78.5 443.579,-60.5 377.549,-60.5"/>
<text text-anchor="middle" x="410.564" y="-66.5" font-family="Helvetica,sans-Serif" font-size="10.00">Eigen/Core</text>
</g>
<!-- Node7&#45;&gt;Node11 -->
<g id="edge11" class="edge"><title>Node7&#45;&gt;Node11</title>
<path fill="none" stroke="midnightblue" d="M315.428,-120.446C336.17,-109.557 365.563,-94.1254 386.173,-83.3054"/>
<polygon fill="midnightblue" stroke="midnightblue" points="388.007,-86.2953 395.234,-78.548 384.754,-80.0975 388.007,-86.2953"/>
</g>
<!-- Node12 -->
<g id="node12" class="node"><title>Node12</title>
<g id="a_node12"><a xlink:href="conststr_8h.html" target="_top" xlink:title="A constexpr string type, suitable for basic compile&#45;time string processing. ">
<polygon fill="none" stroke="black" points="461.483,-55.5 461.483,-83.5 563.645,-83.5 563.645,-55.5 461.483,-55.5"/>
<text text-anchor="start" x="469.483" y="-71.5" font-family="Helvetica,sans-Serif" font-size="10.00">tomographer2/tools</text>
<text text-anchor="middle" x="512.564" y="-61.5" font-family="Helvetica,sans-Serif" font-size="10.00">/conststr.h</text>
</a>
</g>
</g>
<!-- Node7&#45;&gt;Node12 -->
<g id="edge12" class="edge"><title>Node7&#45;&gt;Node12</title>
<path fill="none" stroke="midnightblue" d="M336.563,-120.446C371.538,-110.521 419.807,-96.8229 456.951,-86.2822"/>
<polygon fill="midnightblue" stroke="midnightblue" points="457.96,-89.6341 466.624,-83.5369 456.049,-82.9 457.96,-89.6341"/>
</g>
<!-- Node12&#45;&gt;Node3 -->
<g id="edge13" class="edge"><title>Node12&#45;&gt;Node3</title>
<path fill="none" stroke="midnightblue" d="M463.416,-55.4837C420.603,-44.1451 359.89,-28.0657 323.837,-18.5175"/>
<polygon fill="midnightblue" stroke="midnightblue" points="324.485,-15.0685 313.922,-15.8916 322.693,-21.8352 324.485,-15.0685"/>
</g>
</g>
</svg>
