<?xml version="1.0" encoding="UTF-8" standalone="no"?>
<!DOCTYPE svg PUBLIC "-//W3C//DTD SVG 1.1//EN"
 "http://www.w3.org/Graphics/SVG/1.1/DTD/svg11.dtd">
<!-- Generated by graphviz version 2.38.0 (20140413.2041)
 -->
<!-- Title: tomographer2/tools/needownoperatornew.h Pages: 1 -->
<svg width="468pt" height="222pt"
 viewBox="0.00 0.00 468.15 222.00" xmlns="http://www.w3.org/2000/svg" xmlns:xlink="http://www.w3.org/1999/xlink">
<g id="graph0" class="graph" transform="scale(1 1) rotate(0) translate(4 218)">
<title>tomographer2/tools/needownoperatornew.h</title>
<!-- Node1 -->
<g id="node1" class="node"><title>Node1</title>
<polygon fill="#bfbfbf" stroke="black" points="32.6899,-185.5 32.6899,-213.5 155.443,-213.5 155.443,-185.5 32.6899,-185.5"/>
<text text-anchor="start" x="40.6899" y="-201.5" font-family="Helvetica,sans-Serif" font-size="10.00">tomographer2/tools</text>
<text text-anchor="middle" x="94.0664" y="-191.5" font-family="Helvetica,sans-Serif" font-size="10.00">/needownoperatornew.h</text>
</g>
<!-- Node2 -->
<g id="node2" class="node"><title>Node2</title>
<polygon fill="none" stroke="#bfbfbf" points="0,-60.5 0,-78.5 62.1328,-78.5 62.1328,-60.5 0,-60.5"/>
<text text-anchor="middle" x="31.0664" y="-66.5" font-family="Helvetica,sans-Serif" font-size="10.00">type_traits</text>
</g>
<!-- Node1&#45;&gt;Node2 -->
<g id="edge1" class="edge"><title>Node1&#45;&gt;Node2</title>
<path fill="none" stroke="midnightblue" d="M78.905,-185.2C69.2808,-175.96 57.3159,-162.855 50.0664,-149 40.0311,-129.82 35.1897,-105.226 32.9274,-88.7228"/>
<polygon fill="midnightblue" stroke="midnightblue" points="36.3985,-88.2719 31.741,-78.7556 29.4475,-89.0993 36.3985,-88.2719"/>
</g>
<!-- Node3 -->
<g id="node3" class="node"><title>Node3</title>
<polygon fill="none" stroke="#bfbfbf" points="59.1011,-125.5 59.1011,-143.5 129.032,-143.5 129.032,-125.5 59.1011,-125.5"/>
<text text-anchor="middle" x="94.0664" y="-131.5" font-family="Helvetica,sans-Serif" font-size="10.00">Eigen/Eigen</text>
</g>
<!-- Node1&#45;&gt;Node3 -->
<g id="edge2" class="edge"><title>Node1&#45;&gt;Node3</title>
<path fill="none" stroke="midnightblue" d="M94.0664,-185.446C94.0664,-176.334 94.0664,-164.041 94.0664,-153.931"/>
<polygon fill="midnightblue" stroke="midnightblue" points="97.5665,-153.73 94.0664,-143.73 90.5665,-153.73 97.5665,-153.73"/>
</g>
<!-- Node4 -->
<g id="node4" class="node"><title>Node4</title>
<g id="a_node4"><a xlink:href="cxxutil_8h.html" target="_top" xlink:title="Some C++ utilities, with a tad of C++11 tricks. ">
<polygon fill="none" stroke="black" points="146.985,-120.5 146.985,-148.5 249.147,-148.5 249.147,-120.5 146.985,-120.5"/>
<text text-anchor="start" x="154.985" y="-136.5" font-family="Helvetica,sans-Serif" font-size="10.00">tomographer2/tools</text>
<text text-anchor="middle" x="198.066" y="-126.5" font-family="Helvetica,sans-Serif" font-size="10.00">/cxxutil.h</text>
</a>
</g>
</g>
<!-- Node1&#45;&gt;Node4 -->
<g id="edge3" class="edge"><title>Node1&#45;&gt;Node4</title>
<path fill="none" stroke="midnightblue" d="M115.615,-185.446C130.675,-176.323 150.997,-164.013 167.697,-153.897"/>
<polygon fill="midnightblue" stroke="midnightblue" points="169.805,-156.712 176.545,-148.537 166.179,-150.725 169.805,-156.712"/>
</g>
<!-- Node4&#45;&gt;Node2 -->
<g id="edge7" class="edge"><title>Node4&#45;&gt;Node2</title>
<path fill="none" stroke="midnightblue" d="M163.464,-120.446C133.552,-109.162 90.7154,-93.0023 61.9454,-82.1489"/>
<polygon fill="midnightblue" stroke="midnightblue" points="62.9917,-78.803 52.4,-78.548 60.5209,-85.3524 62.9917,-78.803"/>
</g>
<!-- Node5 -->
<g id="node5" class="node"><title>Node5</title>
<polygon fill="none" stroke="#bfbfbf" points="79.9507,-60.5 79.9507,-78.5 128.182,-78.5 128.182,-60.5 79.9507,-60.5"/>
<text text-anchor="middle" x="104.066" y="-66.5" font-family="Helvetica,sans-Serif" font-size="10.00">cassert</text>
</g>
<!-- Node4&#45;&gt;Node5 -->
<g id="edge4" class="edge"><title>Node4&#45;&gt;Node5</title>
<path fill="none" stroke="midnightblue" d="M178.59,-120.446C162.856,-109.901 140.769,-95.0984 124.727,-84.3471"/>
<polygon fill="midnightblue" stroke="midnightblue" points="126.33,-81.208 116.075,-78.548 122.433,-87.0228 126.33,-81.208"/>
</g>
<!-- Node6 -->
<g id="node6" class="node"><title>Node6</title>
<polygon fill="none" stroke="#bfbfbf" points="145.946,-60.5 145.946,-78.5 194.187,-78.5 194.187,-60.5 145.946,-60.5"/>
<text text-anchor="middle" x="170.066" y="-66.5" font-family="Helvetica,sans-Serif" font-size="10.00">cstddef</text>
</g>
<!-- Node4&#45;&gt;Node6 -->
<g id="edge5" class="edge"><title>Node4&#45;&gt;Node6</title>
<path fill="none" stroke="midnightblue" d="M192.265,-120.446C188.084,-111.04 182.397,-98.2442 177.826,-87.9595"/>
<polygon fill="midnightblue" stroke="midnightblue" points="180.984,-86.4467 173.724,-78.7301 174.587,-89.2897 180.984,-86.4467"/>
</g>
<!-- Node7 -->
<g id="node7" class="node"><title>Node7</title>
<polygon fill="none" stroke="#bfbfbf" points="211.894,-60.5 211.894,-78.5 256.239,-78.5 256.239,-60.5 211.894,-60.5"/>
<text text-anchor="middle" x="234.066" y="-66.5" font-family="Helvetica,sans-Serif" font-size="10.00">cstdlib</text>
</g>
<!-- Node4&#45;&gt;Node7 -->
<g id="edge6" class="edge"><title>Node4&#45;&gt;Node7</title>
<path fill="none" stroke="midnightblue" d="M205.526,-120.446C210.957,-110.942 218.365,-97.9773 224.273,-87.6389"/>
<polygon fill="midnightblue" stroke="midnightblue" points="227.441,-89.149 229.363,-78.7301 221.363,-85.676 227.441,-89.149"/>
</g>
<!-- Node8 -->
<g id="node8" class="node"><title>Node8</title>
<polygon fill="none" stroke="#bfbfbf" points="274.052,-60.5 274.052,-78.5 340.081,-78.5 340.081,-60.5 274.052,-60.5"/>
<text text-anchor="middle" x="307.066" y="-66.5" font-family="Helvetica,sans-Serif" font-size="10.00">Eigen/Core</text>
</g>
<!-- Node4&#45;&gt;Node8 -->
<g id="edge8" class="edge"><title>Node4&#45;&gt;Node8</title>
<path fill="none" stroke="midnightblue" d="M220.651,-120.446C239.322,-109.655 265.708,-94.4044 284.401,-83.6003"/>
<polygon fill="midnightblue" stroke="midnightblue" points="286.236,-86.5824 293.142,-78.548 282.733,-80.5219 286.236,-86.5824"/>
</g>
<!-- Node9 -->
<g id="node9" class="node"><title>Node9</title>
<g id="a_node9"><a xlink:href="conststr_8h.html" target="_top" xlink:title="A constexpr string type, suitable for basic compile&#45;time string processing. ">
<polygon fill="none" stroke="black" points="357.985,-55.5 357.985,-83.5 460.147,-83.5 460.147,-55.5 357.985,-55.5"/>
<text text-anchor="start" x="365.985" y="-71.5" font-family="Helvetica,sans-Serif" font-size="10.00">tomographer2/tools</text>
<text text-anchor="middle" x="409.066" y="-61.5" font-family="Helvetica,sans-Serif" font-size="10.00">/conststr.h</text>
</a>
</g>
</g>
<!-- Node4&#45;&gt;Node9 -->
<g id="edge9" class="edge"><title>Node4&#45;&gt;Node9</title>
<path fill="none" stroke="midnightblue" d="M241.786,-120.446C274.887,-110.563 320.515,-96.9394 355.757,-86.4169"/>
<polygon fill="midnightblue" stroke="midnightblue" points="356.822,-89.7517 365.403,-83.5369 354.82,-83.0443 356.822,-89.7517"/>
</g>
<!-- Node10 -->
<g id="node10" class="node"><title>Node10</title>
<polygon fill="none" stroke="#bfbfbf" points="388.84,-0.5 388.84,-18.5 429.293,-18.5 429.293,-0.5 388.84,-0.5"/>
<text text-anchor="middle" x="409.066" y="-6.5" font-family="Helvetica,sans-Serif" font-size="10.00">string</text>
</g>
<!-- Node9&#45;&gt;Node10 -->
<g id="edge10" class="edge"><title>Node9&#45;&gt;Node10</title>
<path fill="none" stroke="midnightblue" d="M409.066,-55.3389C409.066,-47.5305 409.066,-37.5122 409.066,-28.9265"/>
<polygon fill="midnightblue" stroke="midnightblue" points="412.567,-28.7714 409.066,-18.7715 405.567,-28.7715 412.567,-28.7714"/>
</g>
</g>
</svg>
