<?xml version="1.0" encoding="UTF-8" standalone="no"?>
<!DOCTYPE svg PUBLIC "-//W3C//DTD SVG 1.1//EN"
 "http://www.w3.org/Graphics/SVG/1.1/DTD/svg11.dtd">
<!-- Generated by graphviz version 2.38.0 (20140413.2041)
 -->
<!-- Title: tomographer2/tools/needownoperatornew.h Pages: 1 -->
<svg width="1076pt" height="297pt"
 viewBox="0.00 0.00 1075.86 297.00" xmlns="http://www.w3.org/2000/svg" xmlns:xlink="http://www.w3.org/1999/xlink">
<g id="graph0" class="graph" transform="scale(1 1) rotate(0) translate(4 293)">
<title>tomographer2/tools/needownoperatornew.h</title>
<!-- Node1 -->
<g id="node1" class="node"><title>Node1</title>
<polygon fill="#bfbfbf" stroke="black" points="394.712,-260.5 394.712,-288.5 517.465,-288.5 517.465,-260.5 394.712,-260.5"/>
<text text-anchor="start" x="402.712" y="-276.5" font-family="Helvetica,sans-Serif" font-size="10.00">tomographer2/tools</text>
<text text-anchor="middle" x="456.088" y="-266.5" font-family="Helvetica,sans-Serif" font-size="10.00">/needownoperatornew.h</text>
</g>
<!-- Node2 -->
<g id="node2" class="node"><title>Node2</title>
<g id="a_node2"><a xlink:href="indepmeasllh_8h.html" target="_top" xlink:title="C++ types and functions for calculating the log&#45;likelihood for independent measurements. ">
<polygon fill="none" stroke="black" points="0,-195.5 0,-223.5 122.177,-223.5 122.177,-195.5 0,-195.5"/>
<text text-anchor="start" x="8" y="-211.5" font-family="Helvetica,sans-Serif" font-size="10.00">tomographer2/densedm</text>
<text text-anchor="middle" x="61.0884" y="-201.5" font-family="Helvetica,sans-Serif" font-size="10.00">/indepmeasllh.h</text>
</a>
</g>
</g>
<!-- Node1&#45;&gt;Node2 -->
<g id="edge1" class="edge"><title>Node1&#45;&gt;Node2</title>
<path fill="none" stroke="midnightblue" d="M384.293,-263.393C318.35,-253.914 217.976,-238.989 131.088,-224 128.283,-223.516 125.417,-223.01 122.523,-222.49"/>
<polygon fill="midnightblue" stroke="midnightblue" points="384.178,-266.912 394.573,-264.867 385.171,-259.983 384.178,-266.912"/>
</g>
<!-- Node3 -->
<g id="node3" class="node"><title>Node3</title>
<g id="a_node3"><a xlink:href="tspacefigofmerit_8h.html" target="_top" xlink:title="Implement some standard figures of merit for when integrating in T space densely represented density ...">
<polygon fill="none" stroke="black" points="140,-195.5 140,-223.5 262.177,-223.5 262.177,-195.5 140,-195.5"/>
<text text-anchor="start" x="148" y="-211.5" font-family="Helvetica,sans-Serif" font-size="10.00">tomographer2/densedm</text>
<text text-anchor="middle" x="201.088" y="-201.5" font-family="Helvetica,sans-Serif" font-size="10.00">/tspacefigofmerit.h</text>
</a>
</g>
</g>
<!-- Node1&#45;&gt;Node3 -->
<g id="edge2" class="edge"><title>Node1&#45;&gt;Node3</title>
<path fill="none" stroke="midnightblue" d="M393.494,-258.036C350.638,-247.448 294.441,-233.564 253.857,-223.537"/>
<polygon fill="midnightblue" stroke="midnightblue" points="392.705,-261.446 403.252,-260.446 394.384,-254.65 392.705,-261.446"/>
</g>
<!-- Node4 -->
<g id="node4" class="node"><title>Node4</title>
<g id="a_node4"><a xlink:href="tspacellhwalker_8h.html" target="_top" xlink:title="Definitions for a Metropolis&#45;Hastings random walk on a quantum state space with dense matrix type...">
<polygon fill="none" stroke="black" points="356,-65.5 356,-93.5 478.177,-93.5 478.177,-65.5 356,-65.5"/>
<text text-anchor="start" x="364" y="-81.5" font-family="Helvetica,sans-Serif" font-size="10.00">tomographer2/densedm</text>
<text text-anchor="middle" x="417.088" y="-71.5" font-family="Helvetica,sans-Serif" font-size="10.00">/tspacellhwalker.h</text>
</a>
</g>
</g>
<!-- Node1&#45;&gt;Node4 -->
<g id="edge3" class="edge"><title>Node1&#45;&gt;Node4</title>
<path fill="none" stroke="midnightblue" d="M417.093,-255.577C402.991,-247.548 387.897,-236.942 377.088,-224 357.145,-200.118 356.972,-189.553 351.088,-159 348.651,-146.344 345.324,-141.528 351.088,-130 359.095,-113.986 375.018,-101.809 389.218,-93.5403"/>
<polygon fill="midnightblue" stroke="midnightblue" points="415.701,-258.802 426.162,-260.478 419.029,-252.644 415.701,-258.802"/>
</g>
<!-- Node5 -->
<g id="node5" class="node"><title>Node5</title>
<g id="a_node5"><a xlink:href="histogram_8h.html" target="_top" xlink:title="Definitions for Histogram Types. ">
<polygon fill="none" stroke="black" points="536.446,-200.5 536.446,-218.5 669.731,-218.5 669.731,-200.5 536.446,-200.5"/>
<text text-anchor="middle" x="603.088" y="-206.5" font-family="Helvetica,sans-Serif" font-size="10.00">tomographer2/histogram.h</text>
</a>
</g>
</g>
<!-- Node1&#45;&gt;Node5 -->
<g id="edge4" class="edge"><title>Node1&#45;&gt;Node5</title>
<path fill="none" stroke="midnightblue" d="M495.92,-256.429C524.652,-244.116 562.139,-228.05 584.31,-218.548"/>
<polygon fill="midnightblue" stroke="midnightblue" points="494.36,-253.29 486.547,-260.446 497.117,-259.724 494.36,-253.29"/>
</g>
<!-- Node7 -->
<g id="node7" class="node"><title>Node7</title>
<g id="a_node7"><a xlink:href="mhrw__valuehist__tasks_8h.html" target="_top" xlink:title="Tasks for collecting a histogram of values during a Metropolis&#45;Hastings random walk. ">
<polygon fill="none" stroke="black" points="467.833,-0.5 467.833,-28.5 618.344,-28.5 618.344,-0.5 467.833,-0.5"/>
<text text-anchor="start" x="475.833" y="-16.5" font-family="Helvetica,sans-Serif" font-size="10.00">tomographer2/mhrw_valuehist</text>
<text text-anchor="middle" x="543.088" y="-6.5" font-family="Helvetica,sans-Serif" font-size="10.00">_tasks.h</text>
</a>
</g>
</g>
<!-- Node1&#45;&gt;Node7 -->
<g id="edge15" class="edge"><title>Node1&#45;&gt;Node7</title>
<path fill="none" stroke="midnightblue" d="M417.093,-255.577C402.991,-247.548 387.897,-236.942 377.088,-224 330.993,-168.803 302.9,-121.736 347.088,-65 362.13,-45.687 418.979,-32.7236 467.605,-24.9246"/>
<polygon fill="midnightblue" stroke="midnightblue" points="415.701,-258.802 426.162,-260.478 419.029,-252.644 415.701,-258.802"/>
</g>
<!-- Node8 -->
<g id="node8" class="node"><title>Node8</title>
<g id="a_node8"><a xlink:href="mhrwtasks_8h.html" target="_top" xlink:title="Multiprocessing tasks interface (see Task Manager/Dispatcher Interfaces) for parallel Metropolis&#45;Hast...">
<polygon fill="none" stroke="black" points="571.507,-70.5 571.507,-88.5 708.669,-88.5 708.669,-70.5 571.507,-70.5"/>
<text text-anchor="middle" x="640.088" y="-76.5" font-family="Helvetica,sans-Serif" font-size="10.00">tomographer2/mhrwtasks.h</text>
</a>
</g>
</g>
<!-- Node1&#45;&gt;Node8 -->
<g id="edge16" class="edge"><title>Node1&#45;&gt;Node8</title>
<path fill="none" stroke="midnightblue" d="M527.933,-267.19C585.73,-260.449 660.3,-247.417 679.088,-224 685.185,-216.401 690.224,-164.855 678.088,-130 672.246,-113.22 658.294,-97.6247 649.02,-88.5826"/>
<polygon fill="midnightblue" stroke="midnightblue" points="527.267,-263.743 517.72,-268.337 528.048,-270.699 527.267,-263.743"/>
</g>
<!-- Node9 -->
<g id="node9" class="node"><title>Node9</title>
<g id="a_node9"><a xlink:href="mhrw_8h.html" target="_top" xlink:title="Routines for performing a Metropolis&#45;Hastings random walk. ">
<polygon fill="none" stroke="black" points="360.451,-135.5 360.451,-153.5 473.726,-153.5 473.726,-135.5 360.451,-135.5"/>
<text text-anchor="middle" x="417.088" y="-141.5" font-family="Helvetica,sans-Serif" font-size="10.00">tomographer2/mhrw.h</text>
</a>
</g>
</g>
<!-- Node1&#45;&gt;Node9 -->
<g id="edge9" class="edge"><title>Node1&#45;&gt;Node9</title>
<path fill="none" stroke="midnightblue" d="M416.186,-255.168C403.945,-247.405 391.913,-237.078 385.088,-224 372.151,-199.21 396.045,-167.976 409.225,-153.519"/>
<polygon fill="midnightblue" stroke="midnightblue" points="414.668,-258.335 425.065,-260.37 418.206,-252.295 414.668,-258.335"/>
</g>
<!-- Node10 -->
<g id="node10" class="node"><title>Node10</title>
<g id="a_node10"><a xlink:href="mhrw__bin__err_8h.html" target="_top" xlink:title="Binning Analysis in a Metropolis&#45;Hastings random walk. ">
<polygon fill="none" stroke="black" points="393.894,-195.5 393.894,-223.5 518.283,-223.5 518.283,-195.5 393.894,-195.5"/>
<text text-anchor="start" x="401.894" y="-211.5" font-family="Helvetica,sans-Serif" font-size="10.00">tomographer2/mhrw_bin</text>
<text text-anchor="middle" x="456.088" y="-201.5" font-family="Helvetica,sans-Serif" font-size="10.00">_err.h</text>
</a>
</g>
</g>
<!-- Node1&#45;&gt;Node10 -->
<g id="edge12" class="edge"><title>Node1&#45;&gt;Node10</title>
<path fill="none" stroke="midnightblue" d="M456.088,-250.164C456.088,-241.169 456.088,-231.221 456.088,-223.537"/>
<polygon fill="midnightblue" stroke="midnightblue" points="452.588,-250.446 456.088,-260.446 459.588,-250.446 452.588,-250.446"/>
</g>
<!-- Node11 -->
<g id="node11" class="node"><title>Node11</title>
<g id="a_node11"><a xlink:href="multiproc_8h.html" target="_top" xlink:title="Some common definitions for multiprocessing interfaces. ">
<polygon fill="none" stroke="black" points="726.116,-200.5 726.116,-218.5 856.061,-218.5 856.061,-200.5 726.116,-200.5"/>
<text text-anchor="middle" x="791.088" y="-206.5" font-family="Helvetica,sans-Serif" font-size="10.00">tomographer2/multiproc.h</text>
</a>
</g>
</g>
<!-- Node1&#45;&gt;Node11 -->
<g id="edge17" class="edge"><title>Node1&#45;&gt;Node11</title>
<path fill="none" stroke="midnightblue" d="M527.592,-260.053C594.559,-247.459 692.432,-229.053 748.118,-218.581"/>
<polygon fill="midnightblue" stroke="midnightblue" points="526.713,-256.657 517.533,-261.945 528.007,-263.536 526.713,-256.657"/>
</g>
<!-- Node12 -->
<g id="node12" class="node"><title>Node12</title>
<g id="a_node12"><a xlink:href="multiprocomp_8h.html" target="_top" xlink:title="Multiprocessing with OpenMP parallel multithreading. ">
<polygon fill="none" stroke="black" points="898.389,-135.5 898.389,-153.5 1047.79,-153.5 1047.79,-135.5 898.389,-135.5"/>
<text text-anchor="middle" x="973.088" y="-141.5" font-family="Helvetica,sans-Serif" font-size="10.00">tomographer2/multiprocomp.h</text>
</a>
</g>
</g>
<!-- Node1&#45;&gt;Node12 -->
<g id="edge21" class="edge"><title>Node1&#45;&gt;Node12</title>
<path fill="none" stroke="midnightblue" d="M527.76,-269.367C628.303,-262.799 805.594,-248.188 865.088,-224 884.769,-215.998 885.968,-207.58 903.088,-195 923.239,-180.194 947.089,-163.503 961.104,-153.777"/>
<polygon fill="midnightblue" stroke="midnightblue" points="527.435,-265.881 517.68,-270.015 527.884,-272.866 527.435,-265.881"/>
</g>
<!-- Node14 -->
<g id="node14" class="node"><title>Node14</title>
<g id="a_node14"><a xlink:href="valuecalculator_8h.html" target="_top" xlink:title="Some elementary definitions which relate to the ValueCalculator Interface. ">
<polygon fill="none" stroke="black" points="912.32,-200.5 912.32,-218.5 1067.86,-218.5 1067.86,-200.5 912.32,-200.5"/>
<text text-anchor="middle" x="990.088" y="-206.5" font-family="Helvetica,sans-Serif" font-size="10.00">tomographer2/valuecalculator.h</text>
</a>
</g>
</g>
<!-- Node1&#45;&gt;Node14 -->
<g id="edge22" class="edge"><title>Node1&#45;&gt;Node14</title>
<path fill="none" stroke="midnightblue" d="M527.744,-266.236C615.246,-257.19 767.707,-240.862 898.088,-224 910.896,-222.344 924.684,-220.404 937.588,-218.52"/>
<polygon fill="midnightblue" stroke="midnightblue" points="527.25,-262.768 517.662,-267.276 527.968,-269.731 527.25,-262.768"/>
</g>
<!-- Node6 -->
<g id="node6" class="node"><title>Node6</title>
<g id="a_node6"><a xlink:href="mhrwstatscollectors_8h.html" target="_top" xlink:title="Definitions for MHRWStatsCollector Interface&#39;s. ">
<polygon fill="none" stroke="black" points="491.5,-135.5 491.5,-153.5 668.677,-153.5 668.677,-135.5 491.5,-135.5"/>
<text text-anchor="middle" x="580.088" y="-141.5" font-family="Helvetica,sans-Serif" font-size="10.00">tomographer2/mhrwstatscollectors.h</text>
</a>
</g>
</g>
<!-- Node5&#45;&gt;Node6 -->
<g id="edge5" class="edge"><title>Node5&#45;&gt;Node6</title>
<path fill="none" stroke="midnightblue" d="M596.572,-190.652C592.115,-178.442 586.419,-162.841 583.023,-153.539"/>
<polygon fill="midnightblue" stroke="midnightblue" points="593.364,-192.071 600.082,-200.264 599.94,-189.67 593.364,-192.071"/>
</g>
<!-- Node6&#45;&gt;Node7 -->
<g id="edge6" class="edge"><title>Node6&#45;&gt;Node7</title>
<path fill="none" stroke="midnightblue" d="M573.111,-125.804C569.555,-116.435 565.313,-104.686 562.088,-94 555.241,-71.3136 549.154,-44.3695 545.808,-28.6761"/>
<polygon fill="midnightblue" stroke="midnightblue" points="569.869,-127.125 576.743,-135.187 576.397,-124.598 569.869,-127.125"/>
</g>
<!-- Node6&#45;&gt;Node8 -->
<g id="edge7" class="edge"><title>Node6&#45;&gt;Node8</title>
<path fill="none" stroke="midnightblue" d="M595.01,-127.832C606.892,-115.357 623.036,-98.4046 632.432,-88.539"/>
<polygon fill="midnightblue" stroke="midnightblue" points="592.294,-125.609 587.932,-135.264 597.363,-130.436 592.294,-125.609"/>
</g>
<!-- Node8&#45;&gt;Node7 -->
<g id="edge8" class="edge"><title>Node8&#45;&gt;Node7</title>
<path fill="none" stroke="midnightblue" d="M618.938,-64.7631C602.374,-54.0054 579.488,-39.1413 563.198,-28.5608"/>
<polygon fill="midnightblue" stroke="midnightblue" points="617.114,-67.7522 627.407,-70.2639 620.927,-61.8817 617.114,-67.7522"/>
</g>
<!-- Node9&#45;&gt;Node4 -->
<g id="edge10" class="edge"><title>Node9&#45;&gt;Node4</title>
<path fill="none" stroke="midnightblue" d="M417.088,-125.137C417.088,-115.105 417.088,-102.906 417.088,-93.7981"/>
<polygon fill="midnightblue" stroke="midnightblue" points="413.588,-125.264 417.088,-135.264 420.588,-125.264 413.588,-125.264"/>
</g>
<!-- Node9&#45;&gt;Node8 -->
<g id="edge11" class="edge"><title>Node9&#45;&gt;Node8</title>
<path fill="none" stroke="midnightblue" d="M455.625,-132.613C499.992,-120.079 571.837,-99.7819 611.502,-88.5761"/>
<polygon fill="midnightblue" stroke="midnightblue" points="454.457,-129.306 445.785,-135.393 456.36,-136.042 454.457,-129.306"/>
</g>
<!-- Node10&#45;&gt;Node6 -->
<g id="edge14" class="edge"><title>Node10&#45;&gt;Node6</title>
<path fill="none" stroke="midnightblue" d="M490.959,-190.783C515.02,-178.559 545.871,-162.884 564.248,-153.548"/>
<polygon fill="midnightblue" stroke="midnightblue" points="489.111,-187.796 481.781,-195.446 492.282,-194.037 489.111,-187.796"/>
</g>
<!-- Node10&#45;&gt;Node9 -->
<g id="edge13" class="edge"><title>Node10&#45;&gt;Node9</title>
<path fill="none" stroke="midnightblue" d="M442.678,-186.837C435.614,-175.425 427.365,-162.1 422.183,-153.73"/>
<polygon fill="midnightblue" stroke="midnightblue" points="439.768,-188.786 448.008,-195.446 445.72,-185.101 439.768,-188.786"/>
</g>
<!-- Node11&#45;&gt;Node8 -->
<g id="edge18" class="edge"><title>Node11&#45;&gt;Node8</title>
<path fill="none" stroke="midnightblue" d="M776.407,-192.598C760.879,-176.148 735.322,-150.098 711.088,-130 691.888,-114.077 667.735,-97.9905 653.125,-88.6481"/>
<polygon fill="midnightblue" stroke="midnightblue" points="774.167,-195.328 783.553,-200.244 779.281,-190.548 774.167,-195.328"/>
</g>
<!-- Node11&#45;&gt;Node12 -->
<g id="edge19" class="edge"><title>Node11&#45;&gt;Node12</title>
<path fill="none" stroke="midnightblue" d="M824.155,-197.054C860.472,-184.483 917.862,-164.617 949.758,-153.576"/>
<polygon fill="midnightblue" stroke="midnightblue" points="822.814,-193.814 814.509,-200.393 825.104,-200.429 822.814,-193.814"/>
</g>
<!-- Node13 -->
<g id="node13" class="node"><title>Node13</title>
<g id="a_node13"><a xlink:href="signal__status__report_8h.html" target="_top" xlink:title="Basic common code for intercepting a signal to print status information of a task manager...">
<polygon fill="none" stroke="black" points="763.502,-130.5 763.502,-158.5 880.674,-158.5 880.674,-130.5 763.502,-130.5"/>
<text text-anchor="start" x="771.502" y="-146.5" font-family="Helvetica,sans-Serif" font-size="10.00">tomographer2/tools</text>
<text text-anchor="middle" x="822.088" y="-136.5" font-family="Helvetica,sans-Serif" font-size="10.00">/signal_status_report.h</text>
</a>
</g>
</g>
<!-- Node11&#45;&gt;Node13 -->
<g id="edge20" class="edge"><title>Node11&#45;&gt;Node13</title>
<path fill="none" stroke="midnightblue" d="M799.65,-191.101C804.672,-180.895 810.919,-168.2 815.545,-158.798"/>
<polygon fill="midnightblue" stroke="midnightblue" points="796.416,-189.746 795.141,-200.264 802.697,-192.837 796.416,-189.746"/>
</g>
</g>
</svg>
