<?xml version="1.0" encoding="UTF-8" standalone="no"?>
<!DOCTYPE svg PUBLIC "-//W3C//DTD SVG 1.1//EN"
 "http://www.w3.org/Graphics/SVG/1.1/DTD/svg11.dtd">
<!-- Generated by graphviz version 2.38.0 (20140413.2041)
 -->
<!-- Title: tomographer2/densedm/param_herm_x.h Pages: 1 -->
<svg width="410pt" height="102pt"
 viewBox="0.00 0.00 410.18 102.00" xmlns="http://www.w3.org/2000/svg" xmlns:xlink="http://www.w3.org/1999/xlink">
<g id="graph0" class="graph" transform="scale(1 1) rotate(0) translate(4 98)">
<title>tomographer2/densedm/param_herm_x.h</title>
<!-- Node1 -->
<g id="node1" class="node"><title>Node1</title>
<polygon fill="#bfbfbf" stroke="black" points="140,-65.5 140,-93.5 262.177,-93.5 262.177,-65.5 140,-65.5"/>
<text text-anchor="start" x="148" y="-81.5" font-family="Helvetica,sans-Serif" font-size="10.00">tomographer2/densedm</text>
<text text-anchor="middle" x="201.088" y="-71.5" font-family="Helvetica,sans-Serif" font-size="10.00">/param_herm_x.h</text>
</g>
<!-- Node2 -->
<g id="node2" class="node"><title>Node2</title>
<g id="a_node2"><a xlink:href="indepmeasllh_8h.html" target="_top" xlink:title="C++ types and functions for calculating the log&#45;likelihood for independent measurements. ">
<polygon fill="none" stroke="black" points="0,-0.5 0,-28.5 122.177,-28.5 122.177,-0.5 0,-0.5"/>
<text text-anchor="start" x="8" y="-16.5" font-family="Helvetica,sans-Serif" font-size="10.00">tomographer2/densedm</text>
<text text-anchor="middle" x="61.0884" y="-6.5" font-family="Helvetica,sans-Serif" font-size="10.00">/indepmeasllh.h</text>
</a>
</g>
</g>
<!-- Node1&#45;&gt;Node2 -->
<g id="edge1" class="edge"><title>Node1&#45;&gt;Node2</title>
<path fill="none" stroke="midnightblue" d="M162.949,-61.3374C139.97,-50.9968 111.168,-38.0359 90.0593,-28.5369"/>
<polygon fill="midnightblue" stroke="midnightblue" points="161.525,-64.5344 172.08,-65.4464 164.397,-58.1509 161.525,-64.5344"/>
</g>
<!-- Node3 -->
<g id="node3" class="node"><title>Node3</title>
<g id="a_node3"><a xlink:href="tspacefigofmerit_8h.html" target="_top" xlink:title="Implement some standard figures of merit for when integrating in T space densely represented density ...">
<polygon fill="none" stroke="black" points="140,-0.5 140,-28.5 262.177,-28.5 262.177,-0.5 140,-0.5"/>
<text text-anchor="start" x="148" y="-16.5" font-family="Helvetica,sans-Serif" font-size="10.00">tomographer2/densedm</text>
<text text-anchor="middle" x="201.088" y="-6.5" font-family="Helvetica,sans-Serif" font-size="10.00">/tspacefigofmerit.h</text>
</a>
</g>
</g>
<!-- Node1&#45;&gt;Node3 -->
<g id="edge2" class="edge"><title>Node1&#45;&gt;Node3</title>
<path fill="none" stroke="midnightblue" d="M201.088,-55.1641C201.088,-46.1693 201.088,-36.2205 201.088,-28.5369"/>
<polygon fill="midnightblue" stroke="midnightblue" points="197.588,-55.4463 201.088,-65.4464 204.588,-55.4464 197.588,-55.4463"/>
</g>
<!-- Node4 -->
<g id="node4" class="node"><title>Node4</title>
<g id="a_node4"><a xlink:href="tspacellhwalker_8h.html" target="_top" xlink:title="Definitions for a Metropolis&#45;Hastings random walk on a quantum state space with dense matrix type...">
<polygon fill="none" stroke="black" points="280,-0.5 280,-28.5 402.177,-28.5 402.177,-0.5 280,-0.5"/>
<text text-anchor="start" x="288" y="-16.5" font-family="Helvetica,sans-Serif" font-size="10.00">tomographer2/densedm</text>
<text text-anchor="middle" x="341.088" y="-6.5" font-family="Helvetica,sans-Serif" font-size="10.00">/tspacellhwalker.h</text>
</a>
</g>
</g>
<!-- Node1&#45;&gt;Node4 -->
<g id="edge3" class="edge"><title>Node1&#45;&gt;Node4</title>
<path fill="none" stroke="midnightblue" d="M239.228,-61.3374C262.207,-50.9968 291.009,-38.0359 312.117,-28.5369"/>
<polygon fill="midnightblue" stroke="midnightblue" points="237.779,-58.1509 230.096,-65.4464 240.652,-64.5344 237.779,-58.1509"/>
</g>
</g>
</svg>
