<?xml version="1.0" encoding="UTF-8" standalone="no"?>
<!DOCTYPE svg PUBLIC "-//W3C//DTD SVG 1.1//EN"
 "http://www.w3.org/Graphics/SVG/1.1/DTD/svg11.dtd">
<!-- Generated by graphviz version 2.38.0 (20140413.2041)
 -->
<!-- Title: tomographer2/mathtools/pos_semidef_util.h Pages: 1 -->
<svg width="468pt" height="222pt"
 viewBox="0.00 0.00 468.10 222.00" xmlns="http://www.w3.org/2000/svg" xmlns:xlink="http://www.w3.org/1999/xlink">
<g id="graph0" class="graph" transform="scale(1 1) rotate(0) translate(4 218)">
<title>tomographer2/mathtools/pos_semidef_util.h</title>
<!-- Node1 -->
<g id="node1" class="node"><title>Node1</title>
<polygon fill="#bfbfbf" stroke="black" points="47.8179,-185.5 47.8179,-213.5 172.211,-213.5 172.211,-185.5 47.8179,-185.5"/>
<text text-anchor="start" x="55.8179" y="-201.5" font-family="Helvetica,sans-Serif" font-size="10.00">tomographer2/mathtools</text>
<text text-anchor="middle" x="110.015" y="-191.5" font-family="Helvetica,sans-Serif" font-size="10.00">/pos_semidef_util.h</text>
</g>
<!-- Node2 -->
<g id="node2" class="node"><title>Node2</title>
<polygon fill="none" stroke="#bfbfbf" points="0,-60.5 0,-78.5 66.0293,-78.5 66.0293,-60.5 0,-60.5"/>
<text text-anchor="middle" x="33.0146" y="-66.5" font-family="Helvetica,sans-Serif" font-size="10.00">Eigen/Core</text>
</g>
<!-- Node1&#45;&gt;Node2 -->
<g id="edge1" class="edge"><title>Node1&#45;&gt;Node2</title>
<path fill="none" stroke="midnightblue" d="M88.8116,-185.39C76.296,-176.584 61.1614,-163.889 52.0146,-149 40.684,-130.556 36.1095,-105.811 34.2632,-89.0706"/>
<polygon fill="midnightblue" stroke="midnightblue" points="37.7346,-88.5908 33.3714,-78.9362 30.7616,-89.2045 37.7346,-88.5908"/>
</g>
<!-- Node3 -->
<g id="node3" class="node"><title>Node3</title>
<polygon fill="none" stroke="#bfbfbf" points="60.5962,-125.5 60.5962,-143.5 159.433,-143.5 159.433,-125.5 60.5962,-125.5"/>
<text text-anchor="middle" x="110.015" y="-131.5" font-family="Helvetica,sans-Serif" font-size="10.00">Eigen/Eigenvalues</text>
</g>
<!-- Node1&#45;&gt;Node3 -->
<g id="edge2" class="edge"><title>Node1&#45;&gt;Node3</title>
<path fill="none" stroke="midnightblue" d="M110.015,-185.446C110.015,-176.334 110.015,-164.041 110.015,-153.931"/>
<polygon fill="midnightblue" stroke="midnightblue" points="113.515,-153.73 110.015,-143.73 106.515,-153.73 113.515,-153.73"/>
</g>
<!-- Node4 -->
<g id="node4" class="node"><title>Node4</title>
<g id="a_node4"><a xlink:href="cxxutil_8h.html" target="_top" xlink:title="Some C++ utilities, with a tad of C++11 tricks. ">
<polygon fill="none" stroke="black" points="176.934,-120.5 176.934,-148.5 279.096,-148.5 279.096,-120.5 176.934,-120.5"/>
<text text-anchor="start" x="184.934" y="-136.5" font-family="Helvetica,sans-Serif" font-size="10.00">tomographer2/tools</text>
<text text-anchor="middle" x="228.015" y="-126.5" font-family="Helvetica,sans-Serif" font-size="10.00">/cxxutil.h</text>
</a>
</g>
</g>
<!-- Node1&#45;&gt;Node4 -->
<g id="edge3" class="edge"><title>Node1&#45;&gt;Node4</title>
<path fill="none" stroke="midnightblue" d="M134.464,-185.446C151.868,-176.154 175.465,-163.556 194.605,-153.337"/>
<polygon fill="midnightblue" stroke="midnightblue" points="196.423,-156.334 203.596,-148.537 193.126,-150.159 196.423,-156.334"/>
</g>
<!-- Node4&#45;&gt;Node2 -->
<g id="edge8" class="edge"><title>Node4&#45;&gt;Node2</title>
<path fill="none" stroke="midnightblue" d="M187.611,-120.446C152.226,-109.015 101.351,-92.5781 67.7592,-81.7252"/>
<polygon fill="midnightblue" stroke="midnightblue" points="68.5168,-78.2919 57.9251,-78.548 66.3648,-84.9529 68.5168,-78.2919"/>
</g>
<!-- Node5 -->
<g id="node5" class="node"><title>Node5</title>
<polygon fill="none" stroke="#bfbfbf" points="83.8989,-60.5 83.8989,-78.5 132.13,-78.5 132.13,-60.5 83.8989,-60.5"/>
<text text-anchor="middle" x="108.015" y="-66.5" font-family="Helvetica,sans-Serif" font-size="10.00">cassert</text>
</g>
<!-- Node4&#45;&gt;Node5 -->
<g id="edge4" class="edge"><title>Node4&#45;&gt;Node5</title>
<path fill="none" stroke="midnightblue" d="M203.151,-120.446C182.408,-109.557 153.015,-94.1254 132.406,-83.3054"/>
<polygon fill="midnightblue" stroke="midnightblue" points="133.825,-80.0975 123.344,-78.548 130.571,-86.2953 133.825,-80.0975"/>
</g>
<!-- Node6 -->
<g id="node6" class="node"><title>Node6</title>
<polygon fill="none" stroke="#bfbfbf" points="149.894,-60.5 149.894,-78.5 198.135,-78.5 198.135,-60.5 149.894,-60.5"/>
<text text-anchor="middle" x="174.015" y="-66.5" font-family="Helvetica,sans-Serif" font-size="10.00">cstddef</text>
</g>
<!-- Node4&#45;&gt;Node6 -->
<g id="edge5" class="edge"><title>Node4&#45;&gt;Node6</title>
<path fill="none" stroke="midnightblue" d="M216.826,-120.446C208.343,-110.55 196.645,-96.9022 187.621,-86.3737"/>
<polygon fill="midnightblue" stroke="midnightblue" points="190.234,-84.0449 181.069,-78.7301 184.92,-88.6005 190.234,-84.0449"/>
</g>
<!-- Node7 -->
<g id="node7" class="node"><title>Node7</title>
<polygon fill="none" stroke="#bfbfbf" points="215.842,-60.5 215.842,-78.5 260.187,-78.5 260.187,-60.5 215.842,-60.5"/>
<text text-anchor="middle" x="238.015" y="-66.5" font-family="Helvetica,sans-Serif" font-size="10.00">cstdlib</text>
</g>
<!-- Node4&#45;&gt;Node7 -->
<g id="edge6" class="edge"><title>Node4&#45;&gt;Node7</title>
<path fill="none" stroke="midnightblue" d="M230.087,-120.446C231.533,-111.334 233.484,-99.0406 235.089,-88.9308"/>
<polygon fill="midnightblue" stroke="midnightblue" points="238.597,-89.1552 236.708,-78.7301 231.684,-88.0577 238.597,-89.1552"/>
</g>
<!-- Node8 -->
<g id="node8" class="node"><title>Node8</title>
<polygon fill="none" stroke="#bfbfbf" points="277.948,-60.5 277.948,-78.5 340.081,-78.5 340.081,-60.5 277.948,-60.5"/>
<text text-anchor="middle" x="309.015" y="-66.5" font-family="Helvetica,sans-Serif" font-size="10.00">type_traits</text>
</g>
<!-- Node4&#45;&gt;Node8 -->
<g id="edge7" class="edge"><title>Node4&#45;&gt;Node8</title>
<path fill="none" stroke="midnightblue" d="M244.798,-120.446C258.026,-110.158 276.466,-95.8153 290.194,-85.1379"/>
<polygon fill="midnightblue" stroke="midnightblue" points="292.688,-87.6323 298.433,-78.7301 288.391,-82.1068 292.688,-87.6323"/>
</g>
<!-- Node9 -->
<g id="node9" class="node"><title>Node9</title>
<g id="a_node9"><a xlink:href="conststr_8h.html" target="_top" xlink:title="A constexpr string type, suitable for basic compile&#45;time string processing. ">
<polygon fill="none" stroke="black" points="357.934,-55.5 357.934,-83.5 460.096,-83.5 460.096,-55.5 357.934,-55.5"/>
<text text-anchor="start" x="365.934" y="-71.5" font-family="Helvetica,sans-Serif" font-size="10.00">tomographer2/tools</text>
<text text-anchor="middle" x="409.015" y="-61.5" font-family="Helvetica,sans-Serif" font-size="10.00">/conststr.h</text>
</a>
</g>
</g>
<!-- Node4&#45;&gt;Node9 -->
<g id="edge9" class="edge"><title>Node4&#45;&gt;Node9</title>
<path fill="none" stroke="midnightblue" d="M265.518,-120.446C293.427,-110.732 331.719,-97.4041 361.727,-86.9592"/>
<polygon fill="midnightblue" stroke="midnightblue" points="363.266,-90.1297 371.559,-83.5369 360.965,-83.5187 363.266,-90.1297"/>
</g>
<!-- Node10 -->
<g id="node10" class="node"><title>Node10</title>
<polygon fill="none" stroke="#bfbfbf" points="388.788,-0.5 388.788,-18.5 429.241,-18.5 429.241,-0.5 388.788,-0.5"/>
<text text-anchor="middle" x="409.015" y="-6.5" font-family="Helvetica,sans-Serif" font-size="10.00">string</text>
</g>
<!-- Node9&#45;&gt;Node10 -->
<g id="edge10" class="edge"><title>Node9&#45;&gt;Node10</title>
<path fill="none" stroke="midnightblue" d="M409.015,-55.3389C409.015,-47.5305 409.015,-37.5122 409.015,-28.9265"/>
<polygon fill="midnightblue" stroke="midnightblue" points="412.515,-28.7714 409.015,-18.7715 405.515,-28.7715 412.515,-28.7714"/>
</g>
</g>
</svg>
