<?xml version="1.0" encoding="UTF-8" standalone="no"?>
<!DOCTYPE svg PUBLIC "-//W3C//DTD SVG 1.1//EN"
 "http://www.w3.org/Graphics/SVG/1.1/DTD/svg11.dtd">
<!-- Generated by graphviz version 2.38.0 (20140413.2041)
 -->
<!-- Title: tomographer2/tools/signal_handler.h Pages: 1 -->
<svg width="241pt" height="92pt"
 viewBox="0.00 0.00 240.52 92.00" xmlns="http://www.w3.org/2000/svg" xmlns:xlink="http://www.w3.org/1999/xlink">
<g id="graph0" class="graph" transform="scale(1 1) rotate(0) translate(4 88)">
<title>tomographer2/tools/signal_handler.h</title>
<!-- Node1 -->
<g id="node1" class="node"><title>Node1</title>
<polygon fill="#bfbfbf" stroke="black" points="67.1528,-55.5 67.1528,-83.5 169.315,-83.5 169.315,-55.5 67.1528,-55.5"/>
<text text-anchor="start" x="75.1528" y="-71.5" font-family="Helvetica,sans-Serif" font-size="10.00">tomographer2/tools</text>
<text text-anchor="middle" x="118.234" y="-61.5" font-family="Helvetica,sans-Serif" font-size="10.00">/signal_handler.h</text>
</g>
<!-- Node2 -->
<g id="node2" class="node"><title>Node2</title>
<polygon fill="none" stroke="#bfbfbf" points="0,-0.5 0,-18.5 50.4678,-18.5 50.4678,-0.5 0,-0.5"/>
<text text-anchor="middle" x="25.2339" y="-6.5" font-family="Helvetica,sans-Serif" font-size="10.00">signal.h</text>
</g>
<!-- Node1&#45;&gt;Node2 -->
<g id="edge1" class="edge"><title>Node1&#45;&gt;Node2</title>
<path fill="none" stroke="midnightblue" d="M97.1307,-55.3389C82.1301,-45.9837 62.043,-33.4562 46.9141,-24.021"/>
<polygon fill="midnightblue" stroke="midnightblue" points="48.562,-20.9239 38.2248,-18.6018 44.8578,-26.8635 48.562,-20.9239"/>
</g>
<!-- Node3 -->
<g id="node3" class="node"><title>Node3</title>
<polygon fill="none" stroke="#bfbfbf" points="68.1724,-0.5 68.1724,-18.5 110.295,-18.5 110.295,-0.5 68.1724,-0.5"/>
<text text-anchor="middle" x="89.2339" y="-6.5" font-family="Helvetica,sans-Serif" font-size="10.00">cstdio</text>
</g>
<!-- Node1&#45;&gt;Node3 -->
<g id="edge2" class="edge"><title>Node1&#45;&gt;Node3</title>
<path fill="none" stroke="midnightblue" d="M111.653,-55.3389C107.574,-47.1796 102.287,-36.6072 97.8728,-27.7779"/>
<polygon fill="midnightblue" stroke="midnightblue" points="100.972,-26.1505 93.3696,-18.7715 94.7113,-29.281 100.972,-26.1505"/>
</g>
<!-- Node4 -->
<g id="node4" class="node"><title>Node4</title>
<polygon fill="none" stroke="#bfbfbf" points="128.288,-0.5 128.288,-18.5 168.18,-18.5 168.18,-0.5 128.288,-0.5"/>
<text text-anchor="middle" x="148.234" y="-6.5" font-family="Helvetica,sans-Serif" font-size="10.00">ctime</text>
</g>
<!-- Node1&#45;&gt;Node4 -->
<g id="edge3" class="edge"><title>Node1&#45;&gt;Node4</title>
<path fill="none" stroke="midnightblue" d="M125.041,-55.3389C129.262,-47.1796 134.73,-36.6072 139.297,-27.7779"/>
<polygon fill="midnightblue" stroke="midnightblue" points="142.47,-29.2617 143.956,-18.7715 136.252,-26.0457 142.47,-29.2617"/>
</g>
<!-- Node5 -->
<g id="node5" class="node"><title>Node5</title>
<polygon fill="none" stroke="#bfbfbf" points="185.946,-0.5 185.946,-18.5 232.522,-18.5 232.522,-0.5 185.946,-0.5"/>
<text text-anchor="middle" x="209.234" y="-6.5" font-family="Helvetica,sans-Serif" font-size="10.00">chrono</text>
</g>
<!-- Node1&#45;&gt;Node5 -->
<g id="edge4" class="edge"><title>Node1&#45;&gt;Node5</title>
<path fill="none" stroke="midnightblue" d="M138.883,-55.3389C153.561,-45.9837 173.216,-33.4562 188.02,-24.021"/>
<polygon fill="midnightblue" stroke="midnightblue" points="189.971,-26.9281 196.522,-18.6018 186.208,-21.0252 189.971,-26.9281"/>
</g>
</g>
</svg>
