<?xml version="1.0" encoding="UTF-8" standalone="no"?>
<!DOCTYPE svg PUBLIC "-//W3C//DTD SVG 1.1//EN"
 "http://www.w3.org/Graphics/SVG/1.1/DTD/svg11.dtd">
<!-- Generated by graphviz version 2.38.0 (20140413.2041)
 -->
<!-- Title: tomographer2/tools/signal_status_report.h Pages: 1 -->
<!--zoomable 352 -->
<svg id="main" version="1.1" xmlns="http://www.w3.org/2000/svg" xmlns:xlink="http://www.w3.org/1999/xlink" xml:space="preserve" onload="init(evt)">
<style type="text/css"><![CDATA[
.edge:hover path { stroke: red; }
.edge:hover polygon { stroke: red; fill: red; }
]]></style>
<script type="text/javascript"><![CDATA[
var edges = document.getElementsByTagName('g');
if (edges && edges.length) {
  for (var i=0;i<edges.length;i++) {
    if (edges[i].id.substr(0,4)=='edge') {
      edges[i].setAttribute('class','edge');
    }
  }
}
]]></script>
        <defs>
                <circle id="rim" cx="0" cy="0" r="7"/>
                <circle id="rim2" cx="0" cy="0" r="3.5"/>
                <g id="zoomPlus">
                        <use xlink:href="#rim" fill="#404040">
                                <set attributeName="fill" to="#808080" begin="zoomplus.mouseover" end="zoomplus.mouseout"/>
                        </use>
                        <path d="M-4,0h8M0,-4v8" fill="none" stroke="white" stroke-width="1.5" pointer-events="none"/>
                </g>
                <g id="zoomMin">
                        <use xlink:href="#rim" fill="#404040">
                                <set attributeName="fill" to="#808080" begin="zoomminus.mouseover" end="zoomminus.mouseout"/>
                        </use>
                        <path d="M-4,0h8" fill="none" stroke="white" stroke-width="1.5" pointer-events="none"/>
                </g>
                <g id="dirArrow">
                        <path fill="none" stroke="white" stroke-width="1.5" d="M0,-3.0v7 M-2.5,-0.5L0,-3.0L2.5,-0.5"/>
                </g>
               <g id="resetDef">
                       <use xlink:href="#rim2" fill="#404040">
                               <set attributeName="fill" to="#808080" begin="reset.mouseover" end="reset.mouseout"/>
                       </use>
               </g>
        </defs>

<script type="text/javascript">
var viewWidth = 822;
var viewHeight = 352;
var sectionId = 'dynsection-0';
</script>
<script xlink:href="svgpan.js"/>
<svg id="graph" class="graph">
<g id="viewport">
<title>tomographer2/tools/signal_status_report.h</title>
<!-- Node1 -->
<g id="node1" class="node"><title>Node1</title>
<polygon fill="#bfbfbf" stroke="black" points="167.648,-315.5 167.648,-343.5 284.82,-343.5 284.82,-315.5 167.648,-315.5"/>
<text text-anchor="start" x="175.648" y="-331.5" font-family="Helvetica,sans-Serif" font-size="10.00">tomographer2/tools</text>
<text text-anchor="middle" x="226.234" y="-321.5" font-family="Helvetica,sans-Serif" font-size="10.00">/signal_status_report.h</text>
</g>
<!-- Node2 -->
<g id="node2" class="node"><title>Node2</title>
<g id="a_node2"><a xlink:href="signal__handler_8h.html" target="_top" xlink:title="Basic common code for intercepting a signal and basic interfacing to C++. ">
<polygon fill="none" stroke="black" points="97.1528,-250.5 97.1528,-278.5 199.315,-278.5 199.315,-250.5 97.1528,-250.5"/>
<text text-anchor="start" x="105.153" y="-266.5" font-family="Helvetica,sans-Serif" font-size="10.00">tomographer2/tools</text>
<text text-anchor="middle" x="148.234" y="-256.5" font-family="Helvetica,sans-Serif" font-size="10.00">/signal_handler.h</text>
</a>
</g>
</g>
<!-- Node1&#45;&gt;Node2 -->
<g id="edge1" class="edge"><title>Node1&#45;&gt;Node2</title>
<path fill="none" stroke="midnightblue" d="M210.072,-315.446C199.196,-306.661 184.66,-294.921 172.414,-285.03"/>
<polygon fill="midnightblue" stroke="midnightblue" points="174.353,-282.098 164.375,-278.537 169.955,-287.543 174.353,-282.098"/>
</g>
<!-- Node7 -->
<g id="node7" class="node"><title>Node7</title>
<g id="a_node7"><a xlink:href="multiproc_8h.html" target="_top" xlink:title="Some common definitions for multiprocessing interfaces. ">
<polygon fill="none" stroke="black" points="239.261,-255.5 239.261,-273.5 369.207,-273.5 369.207,-255.5 239.261,-255.5"/>
<text text-anchor="middle" x="304.234" y="-261.5" font-family="Helvetica,sans-Serif" font-size="10.00">tomographer2/multiproc.h</text>
</a>
</g>
</g>
<!-- Node1&#45;&gt;Node7 -->
<g id="edge6" class="edge"><title>Node1&#45;&gt;Node7</title>
<path fill="none" stroke="midnightblue" d="M242.396,-315.446C255.134,-305.158 272.891,-290.815 286.111,-280.138"/>
<polygon fill="midnightblue" stroke="midnightblue" points="288.464,-282.736 294.044,-273.73 284.066,-277.291 288.464,-282.736"/>
</g>
<!-- Node3 -->
<g id="node3" class="node"><title>Node3</title>
<polygon fill="none" stroke="#bfbfbf" points="0,-190.5 0,-208.5 50.4678,-208.5 50.4678,-190.5 0,-190.5"/>
<text text-anchor="middle" x="25.2339" y="-196.5" font-family="Helvetica,sans-Serif" font-size="10.00">signal.h</text>
</g>
<!-- Node2&#45;&gt;Node3 -->
<g id="edge2" class="edge"><title>Node2&#45;&gt;Node3</title>
<path fill="none" stroke="midnightblue" d="M122.748,-250.446C101.391,-239.507 71.0869,-223.986 49.9487,-213.159"/>
<polygon fill="midnightblue" stroke="midnightblue" points="51.4427,-209.992 40.9466,-208.548 48.2515,-216.222 51.4427,-209.992"/>
</g>
<!-- Node4 -->
<g id="node4" class="node"><title>Node4</title>
<polygon fill="none" stroke="#bfbfbf" points="68.1724,-190.5 68.1724,-208.5 110.295,-208.5 110.295,-190.5 68.1724,-190.5"/>
<text text-anchor="middle" x="89.2339" y="-196.5" font-family="Helvetica,sans-Serif" font-size="10.00">cstdio</text>
</g>
<!-- Node2&#45;&gt;Node4 -->
<g id="edge3" class="edge"><title>Node2&#45;&gt;Node4</title>
<path fill="none" stroke="midnightblue" d="M136.009,-250.446C126.649,-240.452 113.706,-226.632 103.808,-216.062"/>
<polygon fill="midnightblue" stroke="midnightblue" points="106.332,-213.637 96.9414,-208.73 101.222,-218.422 106.332,-213.637"/>
</g>
<!-- Node5 -->
<g id="node5" class="node"><title>Node5</title>
<polygon fill="none" stroke="#bfbfbf" points="128.288,-190.5 128.288,-208.5 168.18,-208.5 168.18,-190.5 128.288,-190.5"/>
<text text-anchor="middle" x="148.234" y="-196.5" font-family="Helvetica,sans-Serif" font-size="10.00">ctime</text>
</g>
<!-- Node2&#45;&gt;Node5 -->
<g id="edge4" class="edge"><title>Node2&#45;&gt;Node5</title>
<path fill="none" stroke="midnightblue" d="M148.234,-250.446C148.234,-241.334 148.234,-229.041 148.234,-218.931"/>
<polygon fill="midnightblue" stroke="midnightblue" points="151.734,-218.73 148.234,-208.73 144.734,-218.73 151.734,-218.73"/>
</g>
<!-- Node6 -->
<g id="node6" class="node"><title>Node6</title>
<polygon fill="none" stroke="#bfbfbf" points="185.946,-190.5 185.946,-208.5 232.522,-208.5 232.522,-190.5 185.946,-190.5"/>
<text text-anchor="middle" x="209.234" y="-196.5" font-family="Helvetica,sans-Serif" font-size="10.00">chrono</text>
</g>
<!-- Node2&#45;&gt;Node6 -->
<g id="edge5" class="edge"><title>Node2&#45;&gt;Node6</title>
<path fill="none" stroke="midnightblue" d="M160.873,-250.446C170.551,-240.452 183.932,-226.632 194.166,-216.062"/>
<polygon fill="midnightblue" stroke="midnightblue" points="196.823,-218.349 201.265,-208.73 191.794,-213.48 196.823,-218.349"/>
</g>
<!-- Node8 -->
<g id="node8" class="node"><title>Node8</title>
<polygon fill="none" stroke="#bfbfbf" points="250.67,-190.5 250.67,-208.5 297.798,-208.5 297.798,-190.5 250.67,-190.5"/>
<text text-anchor="middle" x="274.234" y="-196.5" font-family="Helvetica,sans-Serif" font-size="10.00">csignal</text>
</g>
<!-- Node7&#45;&gt;Node8 -->
<g id="edge7" class="edge"><title>Node7&#45;&gt;Node8</title>
<path fill="none" stroke="midnightblue" d="M300.312,-255.264C295.795,-245.779 288.251,-229.936 282.436,-217.724"/>
<polygon fill="midnightblue" stroke="midnightblue" points="285.521,-216.063 278.062,-208.539 279.201,-219.072 285.521,-216.063"/>
</g>
<!-- Node9 -->
<g id="node9" class="node"><title>Node9</title>
<polygon fill="none" stroke="#bfbfbf" points="524.007,-0.5 524.007,-18.5 564.46,-18.5 564.46,-0.5 524.007,-0.5"/>
<text text-anchor="middle" x="544.234" y="-6.5" font-family="Helvetica,sans-Serif" font-size="10.00">string</text>
</g>
<!-- Node7&#45;&gt;Node9 -->
<g id="edge8" class="edge"><title>Node7&#45;&gt;Node9</title>
<path fill="none" stroke="midnightblue" d="M304.671,-255.468C306.722,-220.806 316.526,-84.4591 345.234,-55 368.31,-31.32 463.66,-18.5047 513.527,-13.3063"/>
<polygon fill="midnightblue" stroke="midnightblue" points="514.122,-16.7643 523.722,-12.2838 513.423,-9.79926 514.122,-16.7643"/>
</g>
<!-- Node10 -->
<g id="node10" class="node"><title>Node10</title>
<g id="a_node10"><a xlink:href="needownoperatornew_8h.html" target="_top" xlink:title="Managing the need for specific overrides to operator new() for some types (especially Eigen types) ...">
<polygon fill="none" stroke="black" points="364.857,-185.5 364.857,-213.5 487.61,-213.5 487.61,-185.5 364.857,-185.5"/>
<text text-anchor="start" x="372.857" y="-201.5" font-family="Helvetica,sans-Serif" font-size="10.00">tomographer2/tools</text>
<text text-anchor="middle" x="426.234" y="-191.5" font-family="Helvetica,sans-Serif" font-size="10.00">/needownoperatornew.h</text>
</a>
</g>
</g>
<!-- Node7&#45;&gt;Node10 -->
<g id="edge9" class="edge"><title>Node7&#45;&gt;Node10</title>
<path fill="none" stroke="midnightblue" d="M320.183,-255.264C338.316,-245.9 368.447,-230.341 391.968,-218.195"/>
<polygon fill="midnightblue" stroke="midnightblue" points="393.662,-221.259 400.942,-213.561 390.45,-215.039 393.662,-221.259"/>
</g>
<!-- Node11 -->
<g id="node11" class="node"><title>Node11</title>
<polygon fill="none" stroke="#bfbfbf" points="354.167,-60.5 354.167,-78.5 416.3,-78.5 416.3,-60.5 354.167,-60.5"/>
<text text-anchor="middle" x="385.234" y="-66.5" font-family="Helvetica,sans-Serif" font-size="10.00">type_traits</text>
</g>
<!-- Node10&#45;&gt;Node11 -->
<g id="edge10" class="edge"><title>Node10&#45;&gt;Node11</title>
<path fill="none" stroke="midnightblue" d="M414.734,-185.195C407.264,-175.751 398.051,-162.414 393.234,-149 386.155,-129.288 384.678,-105.122 384.637,-88.8523"/>
<polygon fill="midnightblue" stroke="midnightblue" points="388.141,-88.6327 384.801,-78.578 381.141,-88.5208 388.141,-88.6327"/>
</g>
<!-- Node12 -->
<g id="node12" class="node"><title>Node12</title>
<polygon fill="none" stroke="#bfbfbf" points="402.269,-125.5 402.269,-143.5 472.199,-143.5 472.199,-125.5 402.269,-125.5"/>
<text text-anchor="middle" x="437.234" y="-131.5" font-family="Helvetica,sans-Serif" font-size="10.00">Eigen/Eigen</text>
</g>
<!-- Node10&#45;&gt;Node12 -->
<g id="edge11" class="edge"><title>Node10&#45;&gt;Node12</title>
<path fill="none" stroke="midnightblue" d="M428.513,-185.446C430.121,-176.236 432.297,-163.776 434.073,-153.605"/>
<polygon fill="midnightblue" stroke="midnightblue" points="437.525,-154.183 435.797,-143.73 430.629,-152.979 437.525,-154.183"/>
</g>
<!-- Node13 -->
<g id="node13" class="node"><title>Node13</title>
<g id="a_node13"><a xlink:href="cxxutil_8h.html" target="_top" xlink:title="Some C++ utilities, with a tad of C++11 tricks. ">
<polygon fill="none" stroke="black" points="490.153,-120.5 490.153,-148.5 592.315,-148.5 592.315,-120.5 490.153,-120.5"/>
<text text-anchor="start" x="498.153" y="-136.5" font-family="Helvetica,sans-Serif" font-size="10.00">tomographer2/tools</text>
<text text-anchor="middle" x="541.234" y="-126.5" font-family="Helvetica,sans-Serif" font-size="10.00">/cxxutil.h</text>
</a>
</g>
</g>
<!-- Node10&#45;&gt;Node13 -->
<g id="edge12" class="edge"><title>Node10&#45;&gt;Node13</title>
<path fill="none" stroke="midnightblue" d="M450.062,-185.446C466.946,-176.197 489.811,-163.671 508.419,-153.477"/>
<polygon fill="midnightblue" stroke="midnightblue" points="510.348,-156.411 517.436,-148.537 506.985,-150.272 510.348,-156.411"/>
</g>
<!-- Node13&#45;&gt;Node11 -->
<g id="edge16" class="edge"><title>Node13&#45;&gt;Node11</title>
<path fill="none" stroke="midnightblue" d="M508.911,-120.446C481.213,-109.261 441.652,-93.2842 414.786,-82.4345"/>
<polygon fill="midnightblue" stroke="midnightblue" points="415.745,-79.0473 405.162,-78.548 413.124,-85.538 415.745,-79.0473"/>
</g>
<!-- Node14 -->
<g id="node14" class="node"><title>Node14</title>
<polygon fill="none" stroke="#bfbfbf" points="434.118,-60.5 434.118,-78.5 482.35,-78.5 482.35,-60.5 434.118,-60.5"/>
<text text-anchor="middle" x="458.234" y="-66.5" font-family="Helvetica,sans-Serif" font-size="10.00">cassert</text>
</g>
<!-- Node13&#45;&gt;Node14 -->
<g id="edge13" class="edge"><title>Node13&#45;&gt;Node14</title>
<path fill="none" stroke="midnightblue" d="M524.036,-120.446C510.352,-110.06 491.225,-95.5418 477.118,-84.8339"/>
<polygon fill="midnightblue" stroke="midnightblue" points="479.158,-81.9882 469.077,-78.7301 474.926,-87.564 479.158,-81.9882"/>
</g>
<!-- Node15 -->
<g id="node15" class="node"><title>Node15</title>
<polygon fill="none" stroke="#bfbfbf" points="500.113,-60.5 500.113,-78.5 548.354,-78.5 548.354,-60.5 500.113,-60.5"/>
<text text-anchor="middle" x="524.234" y="-66.5" font-family="Helvetica,sans-Serif" font-size="10.00">cstddef</text>
</g>
<!-- Node13&#45;&gt;Node15 -->
<g id="edge14" class="edge"><title>Node13&#45;&gt;Node15</title>
<path fill="none" stroke="midnightblue" d="M537.711,-120.446C535.226,-111.236 531.864,-98.7759 529.119,-88.6055"/>
<polygon fill="midnightblue" stroke="midnightblue" points="532.439,-87.4729 526.455,-78.7301 525.681,-89.2966 532.439,-87.4729"/>
</g>
<!-- Node16 -->
<g id="node16" class="node"><title>Node16</title>
<polygon fill="none" stroke="#bfbfbf" points="566.062,-60.5 566.062,-78.5 610.406,-78.5 610.406,-60.5 566.062,-60.5"/>
<text text-anchor="middle" x="588.234" y="-66.5" font-family="Helvetica,sans-Serif" font-size="10.00">cstdlib</text>
</g>
<!-- Node13&#45;&gt;Node16 -->
<g id="edge15" class="edge"><title>Node13&#45;&gt;Node16</title>
<path fill="none" stroke="midnightblue" d="M550.972,-120.446C558.209,-110.746 568.135,-97.4412 575.922,-87.0028"/>
<polygon fill="midnightblue" stroke="midnightblue" points="578.92,-88.8382 582.094,-78.7301 573.309,-84.6525 578.92,-88.8382"/>
</g>
<!-- Node17 -->
<g id="node17" class="node"><title>Node17</title>
<polygon fill="none" stroke="#bfbfbf" points="628.219,-60.5 628.219,-78.5 694.249,-78.5 694.249,-60.5 628.219,-60.5"/>
<text text-anchor="middle" x="661.234" y="-66.5" font-family="Helvetica,sans-Serif" font-size="10.00">Eigen/Core</text>
</g>
<!-- Node13&#45;&gt;Node17 -->
<g id="edge17" class="edge"><title>Node13&#45;&gt;Node17</title>
<path fill="none" stroke="midnightblue" d="M566.098,-120.446C586.84,-109.557 616.233,-94.1254 636.843,-83.3054"/>
<polygon fill="midnightblue" stroke="midnightblue" points="638.677,-86.2953 645.904,-78.548 635.423,-80.0975 638.677,-86.2953"/>
</g>
<!-- Node18 -->
<g id="node18" class="node"><title>Node18</title>
<g id="a_node18"><a xlink:href="conststr_8h.html" target="_top" xlink:title="A constexpr string type, suitable for basic compile&#45;time string processing. ">
<polygon fill="none" stroke="black" points="712.153,-55.5 712.153,-83.5 814.315,-83.5 814.315,-55.5 712.153,-55.5"/>
<text text-anchor="start" x="720.153" y="-71.5" font-family="Helvetica,sans-Serif" font-size="10.00">tomographer2/tools</text>
<text text-anchor="middle" x="763.234" y="-61.5" font-family="Helvetica,sans-Serif" font-size="10.00">/conststr.h</text>
</a>
</g>
</g>
<!-- Node13&#45;&gt;Node18 -->
<g id="edge18" class="edge"><title>Node13&#45;&gt;Node18</title>
<path fill="none" stroke="midnightblue" d="M587.232,-120.446C622.208,-110.521 670.477,-96.8229 707.621,-86.2822"/>
<polygon fill="midnightblue" stroke="midnightblue" points="708.63,-89.6341 717.294,-83.5369 706.719,-82.9 708.63,-89.6341"/>
</g>
<!-- Node18&#45;&gt;Node9 -->
<g id="edge19" class="edge"><title>Node18&#45;&gt;Node9</title>
<path fill="none" stroke="midnightblue" d="M714.086,-55.4837C671.273,-44.1451 610.56,-28.0657 574.507,-18.5175"/>
<polygon fill="midnightblue" stroke="midnightblue" points="575.155,-15.0685 564.592,-15.8916 573.363,-21.8352 575.155,-15.0685"/>
</g>
</g>
</svg>
        <g id="navigator" transform="translate(0 0)" fill="#404254">
                <rect fill="#f2f5e9" fill-opacity="0.5" stroke="#606060" stroke-width=".5" x="0" y="0" width="60" height="60"/>
                <use id="zoomplus" xlink:href="#zoomPlus" x="17" y="9" onmousedown="handleZoom(evt,'in')"/>
                <use id="zoomminus" xlink:href="#zoomMin" x="42" y="9" onmousedown="handleZoom(evt,'out')"/>
                <use id="reset" xlink:href="#resetDef" x="30" y="36" onmousedown="handleReset()"/>
                <g id="arrowUp" xlink:href="#dirArrow" transform="translate(30 24)" onmousedown="handlePan(0,-1)">
                  <use xlink:href="#rim" fill="#404040">
                        <set attributeName="fill" to="#808080" begin="arrowUp.mouseover" end="arrowUp.mouseout"/>
                  </use>
                  <path fill="none" stroke="white" stroke-width="1.5" d="M0,-3.0v7 M-2.5,-0.5L0,-3.0L2.5,-0.5"/>
                </g>
                <g id="arrowRight" xlink:href="#dirArrow" transform="rotate(90) translate(36 -43)" onmousedown="handlePan(1,0)">
                  <use xlink:href="#rim" fill="#404040">
                        <set attributeName="fill" to="#808080" begin="arrowRight.mouseover" end="arrowRight.mouseout"/>
                  </use>
                  <path fill="none" stroke="white" stroke-width="1.5" d="M0,-3.0v7 M-2.5,-0.5L0,-3.0L2.5,-0.5"/>
                </g>
                <g id="arrowDown" xlink:href="#dirArrow" transform="rotate(180) translate(-30 -48)" onmousedown="handlePan(0,1)">
                  <use xlink:href="#rim" fill="#404040">
                        <set attributeName="fill" to="#808080" begin="arrowDown.mouseover" end="arrowDown.mouseout"/>
                  </use>
                  <path fill="none" stroke="white" stroke-width="1.5" d="M0,-3.0v7 M-2.5,-0.5L0,-3.0L2.5,-0.5"/>
                </g>
                <g id="arrowLeft" xlink:href="#dirArrow" transform="rotate(270) translate(-36 17)" onmousedown="handlePan(-1,0)">
                  <use xlink:href="#rim" fill="#404040">
                        <set attributeName="fill" to="#808080" begin="arrowLeft.mouseover" end="arrowLeft.mouseout"/>
                  </use>
                  <path fill="none" stroke="white" stroke-width="1.5" d="M0,-3.0v7 M-2.5,-0.5L0,-3.0L2.5,-0.5"/>
                </g>
        </g>
        <svg viewBox="0 0 15 15" width="100%" height="30px" preserveAspectRatio="xMaxYMin meet">
         <g id="arrow_out" transform="scale(0.3 0.3)">
          <a xlink:href="signal__status__report_8h__incl_org.svg" target="_base">
           <rect id="button" ry="5" rx="5" y="6" x="6" height="38" width="38"
                fill="#f2f5e9" fill-opacity="0.5" stroke="#606060" stroke-width="1.0"/>
           <path id="arrow"
             d="M 11.500037,31.436501 C 11.940474,20.09759 22.043105,11.32322 32.158766,21.979434 L 37.068811,17.246167 C 37.068811,17.246167 37.088388,32 37.088388,32 L 22.160133,31.978069 C 22.160133,31.978069 26.997745,27.140456 26.997745,27.140456 C 18.528582,18.264221 13.291696,25.230495 11.500037,31.436501 z"
             style="fill:#404040;"/>
          </a>
         </g>
        </svg>
</svg>
