<?xml version="1.0" encoding="UTF-8" standalone="no"?>
<!DOCTYPE svg PUBLIC "-//W3C//DTD SVG 1.1//EN"
 "http://www.w3.org/Graphics/SVG/1.1/DTD/svg11.dtd">
<!-- Generated by graphviz version 2.38.0 (20140413.2041)
 -->
<!-- Title: tomographer2/mathtools/simple_find_zero.h Pages: 1 -->
<svg width="615pt" height="352pt"
 viewBox="0.00 0.00 614.80 352.00" xmlns="http://www.w3.org/2000/svg" xmlns:xlink="http://www.w3.org/1999/xlink">
<g id="graph0" class="graph" transform="scale(1 1) rotate(0) translate(4 348)">
<title>tomographer2/mathtools/simple_find_zero.h</title>
<!-- Node1 -->
<g id="node1" class="node"><title>Node1</title>
<polygon fill="#bfbfbf" stroke="black" points="199.366,-315.5 199.366,-343.5 323.76,-343.5 323.76,-315.5 199.366,-315.5"/>
<text text-anchor="start" x="207.366" y="-331.5" font-family="Helvetica,sans-Serif" font-size="10.00">tomographer2/mathtools</text>
<text text-anchor="middle" x="261.563" y="-321.5" font-family="Helvetica,sans-Serif" font-size="10.00">/simple_find_zero.h</text>
</g>
<!-- Node2 -->
<g id="node2" class="node"><title>Node2</title>
<polygon fill="none" stroke="#bfbfbf" points="104.947,-255.5 104.947,-273.5 148.179,-273.5 148.179,-255.5 104.947,-255.5"/>
<text text-anchor="middle" x="126.563" y="-261.5" font-family="Helvetica,sans-Serif" font-size="10.00">cmath</text>
</g>
<!-- Node1&#45;&gt;Node2 -->
<g id="edge1" class="edge"><title>Node1&#45;&gt;Node2</title>
<path fill="none" stroke="midnightblue" d="M233.591,-315.446C209.939,-304.409 176.29,-288.706 153.065,-277.867"/>
<polygon fill="midnightblue" stroke="midnightblue" points="154.351,-274.605 143.809,-273.548 151.391,-280.949 154.351,-274.605"/>
</g>
<!-- Node3 -->
<g id="node3" class="node"><title>Node3</title>
<polygon fill="none" stroke="#bfbfbf" points="545.502,-125.5 545.502,-143.5 587.625,-143.5 587.625,-125.5 545.502,-125.5"/>
<text text-anchor="middle" x="566.563" y="-131.5" font-family="Helvetica,sans-Serif" font-size="10.00">cstdio</text>
</g>
<!-- Node1&#45;&gt;Node3 -->
<g id="edge2" class="edge"><title>Node1&#45;&gt;Node3</title>
<path fill="none" stroke="midnightblue" d="M324.045,-323.436C393.654,-314.175 503.727,-287.993 559.563,-214 572.544,-196.798 572.202,-171.049 570.017,-153.781"/>
<polygon fill="midnightblue" stroke="midnightblue" points="573.462,-153.161 568.436,-143.834 566.549,-154.259 573.462,-153.161"/>
</g>
<!-- Node4 -->
<g id="node4" class="node"><title>Node4</title>
<polygon fill="none" stroke="#bfbfbf" points="286.176,-255.5 286.176,-273.5 324.95,-273.5 324.95,-255.5 286.176,-255.5"/>
<text text-anchor="middle" x="305.563" y="-261.5" font-family="Helvetica,sans-Serif" font-size="10.00">limits</text>
</g>
<!-- Node1&#45;&gt;Node4 -->
<g id="edge3" class="edge"><title>Node1&#45;&gt;Node4</title>
<path fill="none" stroke="midnightblue" d="M270.68,-315.446C277.455,-305.746 286.747,-292.441 294.037,-282.003"/>
<polygon fill="midnightblue" stroke="midnightblue" points="296.959,-283.933 299.815,-273.73 291.22,-279.924 296.959,-283.933"/>
</g>
<!-- Node5 -->
<g id="node5" class="node"><title>Node5</title>
<g id="a_node5"><a xlink:href="loggers_8h.html" target="_top" xlink:title="Utilities for logging messages. ">
<polygon fill="none" stroke="black" points="166.482,-250.5 166.482,-278.5 268.644,-278.5 268.644,-250.5 166.482,-250.5"/>
<text text-anchor="start" x="174.482" y="-266.5" font-family="Helvetica,sans-Serif" font-size="10.00">tomographer2/tools</text>
<text text-anchor="middle" x="217.563" y="-256.5" font-family="Helvetica,sans-Serif" font-size="10.00">/loggers.h</text>
</a>
</g>
</g>
<!-- Node1&#45;&gt;Node5 -->
<g id="edge4" class="edge"><title>Node1&#45;&gt;Node5</title>
<path fill="none" stroke="midnightblue" d="M252.446,-315.446C246.665,-307.168 239.05,-296.266 232.411,-286.759"/>
<polygon fill="midnightblue" stroke="midnightblue" points="235.264,-284.731 226.668,-278.537 229.525,-288.739 235.264,-284.731"/>
</g>
<!-- Node5&#45;&gt;Node3 -->
<g id="edge5" class="edge"><title>Node5&#45;&gt;Node3</title>
<path fill="none" stroke="midnightblue" d="M268.893,-251.656C271.821,-251.072 274.727,-250.515 277.563,-250 334.736,-239.613 491.086,-250.173 536.563,-214 555.002,-199.334 562.115,-171.935 564.855,-153.702"/>
<polygon fill="midnightblue" stroke="midnightblue" points="568.335,-154.078 566.057,-143.73 561.385,-153.239 568.335,-154.078"/>
</g>
<!-- Node6 -->
<g id="node6" class="node"><title>Node6</title>
<polygon fill="none" stroke="#bfbfbf" points="32.1666,-125.5 32.1666,-143.5 80.9596,-143.5 80.9596,-125.5 32.1666,-125.5"/>
<text text-anchor="middle" x="56.5631" y="-131.5" font-family="Helvetica,sans-Serif" font-size="10.00">cstdarg</text>
</g>
<!-- Node5&#45;&gt;Node6 -->
<g id="edge6" class="edge"><title>Node5&#45;&gt;Node6</title>
<path fill="none" stroke="midnightblue" d="M173.934,-250.471C142.29,-240.302 102.96,-225.946 90.5631,-214 73.4624,-197.522 64.4596,-171.003 60.1102,-153.415"/>
<polygon fill="midnightblue" stroke="midnightblue" points="63.5083,-152.572 57.929,-143.565 56.6739,-154.085 63.5083,-152.572"/>
</g>
<!-- Node7 -->
<g id="node7" class="node"><title>Node7</title>
<polygon fill="none" stroke="#bfbfbf" points="380.337,-0.5 380.337,-18.5 420.79,-18.5 420.79,-0.5 380.337,-0.5"/>
<text text-anchor="middle" x="400.563" y="-6.5" font-family="Helvetica,sans-Serif" font-size="10.00">string</text>
</g>
<!-- Node5&#45;&gt;Node7 -->
<g id="edge7" class="edge"><title>Node5&#45;&gt;Node7</title>
<path fill="none" stroke="midnightblue" d="M166.362,-250.413C129.44,-240.277 83.4238,-225.988 67.5631,-214 9.06982,-169.788 -25.1503,-109.802 23.5631,-55 46.5001,-29.1963 284.462,-15.8207 370.083,-11.8155"/>
<polygon fill="midnightblue" stroke="midnightblue" points="370.374,-15.3059 380.204,-11.3528 370.055,-8.3132 370.374,-15.3059"/>
</g>
<!-- Node8 -->
<g id="node8" class="node"><title>Node8</title>
<polygon fill="none" stroke="#bfbfbf" points="98.7823,-125.5 98.7823,-143.5 150.344,-143.5 150.344,-125.5 98.7823,-125.5"/>
<text text-anchor="middle" x="124.563" y="-131.5" font-family="Helvetica,sans-Serif" font-size="10.00">sstream</text>
</g>
<!-- Node5&#45;&gt;Node8 -->
<g id="edge8" class="edge"><title>Node5&#45;&gt;Node8</title>
<path fill="none" stroke="midnightblue" d="M172.77,-250.403C143.151,-240.734 108.235,-227.042 99.5631,-214 86.8671,-194.906 99.8759,-168.942 111.375,-152.2"/>
<polygon fill="midnightblue" stroke="midnightblue" points="114.335,-154.082 117.434,-143.95 108.694,-149.938 114.335,-154.082"/>
</g>
<!-- Node9 -->
<g id="node9" class="node"><title>Node9</title>
<polygon fill="none" stroke="#bfbfbf" points="168.391,-125.5 168.391,-143.5 222.735,-143.5 222.735,-125.5 168.391,-125.5"/>
<text text-anchor="middle" x="195.563" y="-131.5" font-family="Helvetica,sans-Serif" font-size="10.00">iostream</text>
</g>
<!-- Node5&#45;&gt;Node9 -->
<g id="edge9" class="edge"><title>Node5&#45;&gt;Node9</title>
<path fill="none" stroke="midnightblue" d="M215.292,-250.284C211.332,-227.249 203.163,-179.717 198.678,-153.625"/>
<polygon fill="midnightblue" stroke="midnightblue" points="202.099,-152.862 196.955,-143.6 195.2,-154.048 202.099,-152.862"/>
</g>
<!-- Node10 -->
<g id="node10" class="node"><title>Node10</title>
<polygon fill="none" stroke="#bfbfbf" points="108.159,-190.5 108.159,-208.5 166.967,-208.5 166.967,-190.5 108.159,-190.5"/>
<text text-anchor="middle" x="137.563" y="-196.5" font-family="Helvetica,sans-Serif" font-size="10.00">functional</text>
</g>
<!-- Node5&#45;&gt;Node10 -->
<g id="edge10" class="edge"><title>Node5&#45;&gt;Node10</title>
<path fill="none" stroke="midnightblue" d="M200.987,-250.446C187.922,-240.158 169.71,-225.815 156.151,-215.138"/>
<polygon fill="midnightblue" stroke="midnightblue" points="158.036,-212.167 148.014,-208.73 153.705,-217.667 158.036,-212.167"/>
</g>
<!-- Node11 -->
<g id="node11" class="node"><title>Node11</title>
<polygon fill="none" stroke="#bfbfbf" points="32.4967,-60.5 32.4967,-78.5 94.6295,-78.5 94.6295,-60.5 32.4967,-60.5"/>
<text text-anchor="middle" x="63.5631" y="-66.5" font-family="Helvetica,sans-Serif" font-size="10.00">type_traits</text>
</g>
<!-- Node5&#45;&gt;Node11 -->
<g id="edge11" class="edge"><title>Node5&#45;&gt;Node11</title>
<path fill="none" stroke="midnightblue" d="M166.362,-250.413C129.44,-240.277 83.4238,-225.988 67.5631,-214 30.7643,-186.185 8.1876,-163.49 23.5631,-120 28.1776,-106.948 37.8571,-94.8143 46.5382,-85.8269"/>
<polygon fill="midnightblue" stroke="midnightblue" points="49.0364,-88.2795 53.7576,-78.7948 44.1521,-83.2652 49.0364,-88.2795"/>
</g>
<!-- Node12 -->
<g id="node12" class="node"><title>Node12</title>
<polygon fill="none" stroke="#bfbfbf" points="222.837,-190.5 222.837,-208.5 258.29,-208.5 258.29,-190.5 222.837,-190.5"/>
<text text-anchor="middle" x="240.563" y="-196.5" font-family="Helvetica,sans-Serif" font-size="10.00">map</text>
</g>
<!-- Node5&#45;&gt;Node12 -->
<g id="edge12" class="edge"><title>Node5&#45;&gt;Node12</title>
<path fill="none" stroke="midnightblue" d="M222.329,-250.446C225.727,-241.138 230.337,-228.51 234.071,-218.282"/>
<polygon fill="midnightblue" stroke="midnightblue" points="237.417,-219.324 237.558,-208.73 230.841,-216.923 237.417,-219.324"/>
</g>
<!-- Node13 -->
<g id="node13" class="node"><title>Node13</title>
<polygon fill="none" stroke="#bfbfbf" points="276.031,-190.5 276.031,-208.5 407.095,-208.5 407.095,-190.5 276.031,-190.5"/>
<text text-anchor="middle" x="341.563" y="-196.5" font-family="Helvetica,sans-Serif" font-size="10.00">boost/algorithm/string.hpp</text>
</g>
<!-- Node5&#45;&gt;Node13 -->
<g id="edge13" class="edge"><title>Node5&#45;&gt;Node13</title>
<path fill="none" stroke="midnightblue" d="M243.256,-250.446C264.787,-239.507 295.337,-223.986 316.647,-213.159"/>
<polygon fill="midnightblue" stroke="midnightblue" points="318.393,-216.198 325.723,-208.548 315.222,-209.957 318.393,-216.198"/>
</g>
<!-- Node14 -->
<g id="node14" class="node"><title>Node14</title>
<g id="a_node14"><a xlink:href="fmt_8h.html" target="_top" xlink:title="Utilities for formatting strings. ">
<polygon fill="none" stroke="black" points="425.482,-185.5 425.482,-213.5 527.644,-213.5 527.644,-185.5 425.482,-185.5"/>
<text text-anchor="start" x="433.482" y="-201.5" font-family="Helvetica,sans-Serif" font-size="10.00">tomographer2/tools</text>
<text text-anchor="middle" x="476.563" y="-191.5" font-family="Helvetica,sans-Serif" font-size="10.00">/fmt.h</text>
</a>
</g>
</g>
<!-- Node5&#45;&gt;Node14 -->
<g id="edge14" class="edge"><title>Node5&#45;&gt;Node14</title>
<path fill="none" stroke="midnightblue" d="M268.733,-251.053C310.81,-240.818 370.558,-226.285 415.201,-215.426"/>
<polygon fill="midnightblue" stroke="midnightblue" points="416.167,-218.793 425.057,-213.029 414.513,-211.991 416.167,-218.793"/>
</g>
<!-- Node22 -->
<g id="node22" class="node"><title>Node22</title>
<g id="a_node22"><a xlink:href="conststr_8h.html" target="_top" xlink:title="A constexpr string type, suitable for basic compile&#45;time string processing. ">
<polygon fill="none" stroke="black" points="428.482,-55.5 428.482,-83.5 530.644,-83.5 530.644,-55.5 428.482,-55.5"/>
<text text-anchor="start" x="436.482" y="-71.5" font-family="Helvetica,sans-Serif" font-size="10.00">tomographer2/tools</text>
<text text-anchor="middle" x="479.563" y="-61.5" font-family="Helvetica,sans-Serif" font-size="10.00">/conststr.h</text>
</a>
</g>
</g>
<!-- Node5&#45;&gt;Node22 -->
<g id="edge30" class="edge"><title>Node5&#45;&gt;Node22</title>
<path fill="none" stroke="midnightblue" d="M268.886,-251.618C271.816,-251.044 274.724,-250.499 277.563,-250 339.783,-239.054 507.073,-249.156 559.563,-214 596.867,-189.015 621.366,-157.425 596.563,-120 583.831,-100.789 561.999,-89.0136 540.617,-81.8047"/>
<polygon fill="midnightblue" stroke="midnightblue" points="541.446,-78.3979 530.859,-78.8035 539.388,-85.0886 541.446,-78.3979"/>
</g>
<!-- Node14&#45;&gt;Node3 -->
<g id="edge15" class="edge"><title>Node14&#45;&gt;Node3</title>
<path fill="none" stroke="midnightblue" d="M495.211,-185.446C510.275,-174.901 531.422,-160.098 546.781,-149.347"/>
<polygon fill="midnightblue" stroke="midnightblue" points="548.881,-152.15 555.066,-143.548 544.866,-146.415 548.881,-152.15"/>
</g>
<!-- Node14&#45;&gt;Node6 -->
<g id="edge16" class="edge"><title>Node14&#45;&gt;Node6</title>
<path fill="none" stroke="midnightblue" d="M425.25,-186.559C422.318,-186 419.407,-185.475 416.563,-185 272.349,-160.915 231.266,-185.029 89.5631,-149 87.5009,-148.476 85.3975,-147.849 83.3012,-147.156"/>
<polygon fill="midnightblue" stroke="midnightblue" points="84.3174,-143.8 73.7249,-143.577 81.8666,-150.357 84.3174,-143.8"/>
</g>
<!-- Node14&#45;&gt;Node7 -->
<g id="edge18" class="edge"><title>Node14&#45;&gt;Node7</title>
<path fill="none" stroke="midnightblue" d="M452.631,-185.449C439.398,-176.901 423.975,-164.453 415.563,-149 394.518,-110.339 395.815,-56.6466 398.323,-28.8363"/>
<polygon fill="midnightblue" stroke="midnightblue" points="401.832,-28.9358 399.411,-18.6214 394.872,-28.1947 401.832,-28.9358"/>
</g>
<!-- Node14&#45;&gt;Node8 -->
<g id="edge19" class="edge"><title>Node14&#45;&gt;Node8</title>
<path fill="none" stroke="midnightblue" d="M425.233,-186.659C422.304,-186.075 419.399,-185.517 416.563,-185 303.094,-164.324 271.21,-177.943 159.563,-149 157.361,-148.429 155.107,-147.762 152.858,-147.037"/>
<polygon fill="midnightblue" stroke="midnightblue" points="153.789,-143.653 143.195,-143.594 151.44,-150.247 153.789,-143.653"/>
</g>
<!-- Node14&#45;&gt;Node9 -->
<g id="edge20" class="edge"><title>Node14&#45;&gt;Node9</title>
<path fill="none" stroke="midnightblue" d="M425.198,-186.839C422.278,-186.209 419.385,-185.592 416.563,-185 334.583,-167.805 312.169,-171.785 231.563,-149 229.287,-148.357 226.951,-147.633 224.616,-146.863"/>
<polygon fill="midnightblue" stroke="midnightblue" points="225.767,-143.557 215.172,-143.528 223.436,-150.158 225.767,-143.557"/>
</g>
<!-- Node15 -->
<g id="node15" class="node"><title>Node15</title>
<polygon fill="none" stroke="#bfbfbf" points="424.275,-125.5 424.275,-143.5 470.851,-143.5 470.851,-125.5 424.275,-125.5"/>
<text text-anchor="middle" x="447.563" y="-131.5" font-family="Helvetica,sans-Serif" font-size="10.00">chrono</text>
</g>
<!-- Node14&#45;&gt;Node15 -->
<g id="edge17" class="edge"><title>Node14&#45;&gt;Node15</title>
<path fill="none" stroke="midnightblue" d="M470.554,-185.446C466.224,-176.04 460.334,-163.244 455.6,-152.959"/>
<polygon fill="midnightblue" stroke="midnightblue" points="458.712,-151.35 451.352,-143.73 452.354,-154.277 458.712,-151.35"/>
</g>
<!-- Node16 -->
<g id="node16" class="node"><title>Node16</title>
<polygon fill="none" stroke="#bfbfbf" points="489.171,-125.5 489.171,-143.5 527.955,-143.5 527.955,-125.5 489.171,-125.5"/>
<text text-anchor="middle" x="508.563" y="-131.5" font-family="Helvetica,sans-Serif" font-size="10.00">utility</text>
</g>
<!-- Node14&#45;&gt;Node16 -->
<g id="edge21" class="edge"><title>Node14&#45;&gt;Node16</title>
<path fill="none" stroke="midnightblue" d="M483.194,-185.446C487.972,-176.04 494.471,-163.244 499.695,-152.959"/>
<polygon fill="midnightblue" stroke="midnightblue" points="502.975,-154.231 504.383,-143.73 496.733,-151.061 502.975,-154.231"/>
</g>
<!-- Node17 -->
<g id="node17" class="node"><title>Node17</title>
<g id="a_node17"><a xlink:href="cxxutil_8h.html" target="_top" xlink:title="Some C++ utilities, with a tad of C++11 tricks. ">
<polygon fill="none" stroke="black" points="240.482,-120.5 240.482,-148.5 342.644,-148.5 342.644,-120.5 240.482,-120.5"/>
<text text-anchor="start" x="248.482" y="-136.5" font-family="Helvetica,sans-Serif" font-size="10.00">tomographer2/tools</text>
<text text-anchor="middle" x="291.563" y="-126.5" font-family="Helvetica,sans-Serif" font-size="10.00">/cxxutil.h</text>
</a>
</g>
</g>
<!-- Node14&#45;&gt;Node17 -->
<g id="edge22" class="edge"><title>Node14&#45;&gt;Node17</title>
<path fill="none" stroke="midnightblue" d="M438.231,-185.446C409.581,-175.69 370.227,-162.288 339.496,-151.823"/>
<polygon fill="midnightblue" stroke="midnightblue" points="340.441,-148.447 329.846,-148.537 338.184,-155.074 340.441,-148.447"/>
</g>
<!-- Node17&#45;&gt;Node11 -->
<g id="edge26" class="edge"><title>Node17&#45;&gt;Node11</title>
<path fill="none" stroke="midnightblue" d="M240.233,-120.988C202.291,-111.496 149.468,-97.7725 103.563,-84 101.253,-83.3069 98.8759,-82.569 96.4872,-81.8091"/>
<polygon fill="midnightblue" stroke="midnightblue" points="97.3366,-78.4045 86.7439,-78.6212 95.1597,-85.0575 97.3366,-78.4045"/>
</g>
<!-- Node18 -->
<g id="node18" class="node"><title>Node18</title>
<polygon fill="none" stroke="#bfbfbf" points="196.447,-60.5 196.447,-78.5 244.679,-78.5 244.679,-60.5 196.447,-60.5"/>
<text text-anchor="middle" x="220.563" y="-66.5" font-family="Helvetica,sans-Serif" font-size="10.00">cassert</text>
</g>
<!-- Node17&#45;&gt;Node18 -->
<g id="edge23" class="edge"><title>Node17&#45;&gt;Node18</title>
<path fill="none" stroke="midnightblue" d="M276.852,-120.446C265.367,-110.256 249.401,-96.0881 237.405,-85.444"/>
<polygon fill="midnightblue" stroke="midnightblue" points="239.641,-82.7492 229.838,-78.7301 234.995,-87.9852 239.641,-82.7492"/>
</g>
<!-- Node19 -->
<g id="node19" class="node"><title>Node19</title>
<polygon fill="none" stroke="#bfbfbf" points="262.442,-60.5 262.442,-78.5 310.684,-78.5 310.684,-60.5 262.442,-60.5"/>
<text text-anchor="middle" x="286.563" y="-66.5" font-family="Helvetica,sans-Serif" font-size="10.00">cstddef</text>
</g>
<!-- Node17&#45;&gt;Node19 -->
<g id="edge24" class="edge"><title>Node17&#45;&gt;Node19</title>
<path fill="none" stroke="midnightblue" d="M290.527,-120.446C289.804,-111.334 288.828,-99.0406 288.026,-88.9308"/>
<polygon fill="midnightblue" stroke="midnightblue" points="291.497,-88.4218 287.216,-78.7301 284.519,-88.9757 291.497,-88.4218"/>
</g>
<!-- Node20 -->
<g id="node20" class="node"><title>Node20</title>
<polygon fill="none" stroke="#bfbfbf" points="328.391,-60.5 328.391,-78.5 372.735,-78.5 372.735,-60.5 328.391,-60.5"/>
<text text-anchor="middle" x="350.563" y="-66.5" font-family="Helvetica,sans-Serif" font-size="10.00">cstdlib</text>
</g>
<!-- Node17&#45;&gt;Node20 -->
<g id="edge25" class="edge"><title>Node17&#45;&gt;Node20</title>
<path fill="none" stroke="midnightblue" d="M303.788,-120.446C313.148,-110.452 326.091,-96.6316 335.989,-86.0619"/>
<polygon fill="midnightblue" stroke="midnightblue" points="338.575,-88.4216 342.856,-78.7301 333.465,-83.6366 338.575,-88.4216"/>
</g>
<!-- Node21 -->
<g id="node21" class="node"><title>Node21</title>
<polygon fill="none" stroke="#bfbfbf" points="112.548,-60.5 112.548,-78.5 178.578,-78.5 178.578,-60.5 112.548,-60.5"/>
<text text-anchor="middle" x="145.563" y="-66.5" font-family="Helvetica,sans-Serif" font-size="10.00">Eigen/Core</text>
</g>
<!-- Node17&#45;&gt;Node21 -->
<g id="edge27" class="edge"><title>Node17&#45;&gt;Node21</title>
<path fill="none" stroke="midnightblue" d="M261.312,-120.446C235.504,-109.31 198.691,-93.4249 173.554,-82.5782"/>
<polygon fill="midnightblue" stroke="midnightblue" points="174.782,-79.2964 164.214,-78.548 172.009,-85.7236 174.782,-79.2964"/>
</g>
<!-- Node17&#45;&gt;Node22 -->
<g id="edge28" class="edge"><title>Node17&#45;&gt;Node22</title>
<path fill="none" stroke="midnightblue" d="M330.517,-120.446C359.631,-110.69 399.624,-97.2882 430.853,-86.8231"/>
<polygon fill="midnightblue" stroke="midnightblue" points="432.29,-90.033 440.659,-83.5369 430.065,-83.3958 432.29,-90.033"/>
</g>
<!-- Node22&#45;&gt;Node7 -->
<g id="edge29" class="edge"><title>Node22&#45;&gt;Node7</title>
<path fill="none" stroke="midnightblue" d="M461.637,-55.3389C449.209,-46.2145 432.67,-34.0725 419.938,-24.7249"/>
<polygon fill="midnightblue" stroke="midnightblue" points="421.962,-21.8683 411.829,-18.7715 417.819,-27.5109 421.962,-21.8683"/>
</g>
</g>
</svg>
