<?xml version="1.0" encoding="UTF-8" standalone="no"?>
<!DOCTYPE svg PUBLIC "-//W3C//DTD SVG 1.1//EN"
 "http://www.w3.org/Graphics/SVG/1.1/DTD/svg11.dtd">
<!-- Generated by graphviz version 2.38.0 (20140413.2041)
 -->
<!-- Title: tomographer2/mathtools/solveclyap.h Pages: 1 -->
<svg width="488pt" height="222pt"
 viewBox="0.00 0.00 487.69 222.00" xmlns="http://www.w3.org/2000/svg" xmlns:xlink="http://www.w3.org/1999/xlink">
<g id="graph0" class="graph" transform="scale(1 1) rotate(0) translate(4 218)">
<title>tomographer2/mathtools/solveclyap.h</title>
<!-- Node1 -->
<g id="node1" class="node"><title>Node1</title>
<polygon fill="#bfbfbf" stroke="black" points="16.4098,-185.5 16.4098,-213.5 140.803,-213.5 140.803,-185.5 16.4098,-185.5"/>
<text text-anchor="start" x="24.4098" y="-201.5" font-family="Helvetica,sans-Serif" font-size="10.00">tomographer2/mathtools</text>
<text text-anchor="middle" x="78.6066" y="-191.5" font-family="Helvetica,sans-Serif" font-size="10.00">/solveclyap.h</text>
</g>
<!-- Node2 -->
<g id="node2" class="node"><title>Node2</title>
<polygon fill="none" stroke="#bfbfbf" points="189.38,-0.5 189.38,-18.5 229.833,-18.5 229.833,-0.5 189.38,-0.5"/>
<text text-anchor="middle" x="209.607" y="-6.5" font-family="Helvetica,sans-Serif" font-size="10.00">string</text>
</g>
<!-- Node1&#45;&gt;Node2 -->
<g id="edge1" class="edge"><title>Node1&#45;&gt;Node2</title>
<path fill="none" stroke="midnightblue" d="M63.5842,-185.497C34.6311,-158.885 -23.1765,-97.1719 10.6066,-55 31.3736,-29.0761 128.621,-17.2471 179.067,-12.7786"/>
<polygon fill="midnightblue" stroke="midnightblue" points="179.407,-16.2625 189.077,-11.9344 178.819,-9.28725 179.407,-16.2625"/>
</g>
<!-- Node3 -->
<g id="node3" class="node"><title>Node3</title>
<polygon fill="none" stroke="#bfbfbf" points="19.5919,-60.5 19.5919,-78.5 85.6212,-78.5 85.6212,-60.5 19.5919,-60.5"/>
<text text-anchor="middle" x="52.6066" y="-66.5" font-family="Helvetica,sans-Serif" font-size="10.00">Eigen/Core</text>
</g>
<!-- Node1&#45;&gt;Node3 -->
<g id="edge2" class="edge"><title>Node1&#45;&gt;Node3</title>
<path fill="none" stroke="midnightblue" d="M72.4144,-185.37C68.0806,-175.571 62.5574,-161.734 59.6066,-149 54.9336,-128.835 53.3391,-105.09 52.8165,-89.0372"/>
<polygon fill="midnightblue" stroke="midnightblue" points="56.3121,-88.7914 52.5967,-78.8694 49.3137,-88.9427 56.3121,-88.7914"/>
</g>
<!-- Node4 -->
<g id="node4" class="node"><title>Node4</title>
<polygon fill="none" stroke="#bfbfbf" points="68.1881,-125.5 68.1881,-143.5 167.025,-143.5 167.025,-125.5 68.1881,-125.5"/>
<text text-anchor="middle" x="117.607" y="-131.5" font-family="Helvetica,sans-Serif" font-size="10.00">Eigen/Eigenvalues</text>
</g>
<!-- Node1&#45;&gt;Node4 -->
<g id="edge3" class="edge"><title>Node1&#45;&gt;Node4</title>
<path fill="none" stroke="midnightblue" d="M86.6874,-185.446C92.6319,-175.844 100.763,-162.71 107.194,-152.32"/>
<polygon fill="midnightblue" stroke="midnightblue" points="110.224,-154.075 112.512,-143.73 104.272,-150.39 110.224,-154.075"/>
</g>
<!-- Node5 -->
<g id="node5" class="node"><title>Node5</title>
<g id="a_node5"><a xlink:href="cxxutil_8h.html" target="_top" xlink:title="Some C++ utilities, with a tad of C++11 tricks. ">
<polygon fill="none" stroke="black" points="184.525,-120.5 184.525,-148.5 286.688,-148.5 286.688,-120.5 184.525,-120.5"/>
<text text-anchor="start" x="192.525" y="-136.5" font-family="Helvetica,sans-Serif" font-size="10.00">tomographer2/tools</text>
<text text-anchor="middle" x="235.607" y="-126.5" font-family="Helvetica,sans-Serif" font-size="10.00">/cxxutil.h</text>
</a>
</g>
</g>
<!-- Node1&#45;&gt;Node5 -->
<g id="edge4" class="edge"><title>Node1&#45;&gt;Node5</title>
<path fill="none" stroke="midnightblue" d="M111.137,-185.446C135.03,-175.859 167.695,-162.751 193.567,-152.369"/>
<polygon fill="midnightblue" stroke="midnightblue" points="195.14,-155.509 203.118,-148.537 192.534,-149.013 195.14,-155.509"/>
</g>
<!-- Node5&#45;&gt;Node3 -->
<g id="edge9" class="edge"><title>Node5&#45;&gt;Node3</title>
<path fill="none" stroke="midnightblue" d="M197.689,-120.446C164.625,-109.064 117.149,-92.7197 85.6215,-81.8658"/>
<polygon fill="midnightblue" stroke="midnightblue" points="86.5788,-78.4938 75.9841,-78.548 84.3001,-85.1126 86.5788,-78.4938"/>
</g>
<!-- Node6 -->
<g id="node6" class="node"><title>Node6</title>
<polygon fill="none" stroke="#bfbfbf" points="103.491,-60.5 103.491,-78.5 151.722,-78.5 151.722,-60.5 103.491,-60.5"/>
<text text-anchor="middle" x="127.607" y="-66.5" font-family="Helvetica,sans-Serif" font-size="10.00">cassert</text>
</g>
<!-- Node5&#45;&gt;Node6 -->
<g id="edge5" class="edge"><title>Node5&#45;&gt;Node6</title>
<path fill="none" stroke="midnightblue" d="M213.229,-120.446C194.73,-109.655 168.585,-94.4044 150.064,-83.6003"/>
<polygon fill="midnightblue" stroke="midnightblue" points="151.804,-80.5635 141.403,-78.548 148.277,-86.61 151.804,-80.5635"/>
</g>
<!-- Node7 -->
<g id="node7" class="node"><title>Node7</title>
<polygon fill="none" stroke="#bfbfbf" points="169.486,-60.5 169.486,-78.5 217.727,-78.5 217.727,-60.5 169.486,-60.5"/>
<text text-anchor="middle" x="193.607" y="-66.5" font-family="Helvetica,sans-Serif" font-size="10.00">cstddef</text>
</g>
<!-- Node5&#45;&gt;Node7 -->
<g id="edge6" class="edge"><title>Node5&#45;&gt;Node7</title>
<path fill="none" stroke="midnightblue" d="M226.904,-120.446C220.502,-110.844 211.746,-97.7096 204.82,-87.32"/>
<polygon fill="midnightblue" stroke="midnightblue" points="207.553,-85.1091 199.093,-78.7301 201.728,-88.9921 207.553,-85.1091"/>
</g>
<!-- Node8 -->
<g id="node8" class="node"><title>Node8</title>
<polygon fill="none" stroke="#bfbfbf" points="235.434,-60.5 235.434,-78.5 279.779,-78.5 279.779,-60.5 235.434,-60.5"/>
<text text-anchor="middle" x="257.607" y="-66.5" font-family="Helvetica,sans-Serif" font-size="10.00">cstdlib</text>
</g>
<!-- Node5&#45;&gt;Node8 -->
<g id="edge7" class="edge"><title>Node5&#45;&gt;Node8</title>
<path fill="none" stroke="midnightblue" d="M240.165,-120.446C243.416,-111.138 247.825,-98.5104 251.397,-88.2817"/>
<polygon fill="midnightblue" stroke="midnightblue" points="254.74,-89.3249 254.733,-78.7301 248.131,-87.0171 254.74,-89.3249"/>
</g>
<!-- Node9 -->
<g id="node9" class="node"><title>Node9</title>
<polygon fill="none" stroke="#bfbfbf" points="297.54,-60.5 297.54,-78.5 359.673,-78.5 359.673,-60.5 297.54,-60.5"/>
<text text-anchor="middle" x="328.607" y="-66.5" font-family="Helvetica,sans-Serif" font-size="10.00">type_traits</text>
</g>
<!-- Node5&#45;&gt;Node9 -->
<g id="edge8" class="edge"><title>Node5&#45;&gt;Node9</title>
<path fill="none" stroke="midnightblue" d="M254.876,-120.446C270.442,-109.901 292.295,-95.0984 308.166,-84.3471"/>
<polygon fill="midnightblue" stroke="midnightblue" points="310.41,-87.0542 316.726,-78.548 306.484,-81.2588 310.41,-87.0542"/>
</g>
<!-- Node10 -->
<g id="node10" class="node"><title>Node10</title>
<g id="a_node10"><a xlink:href="conststr_8h.html" target="_top" xlink:title="A constexpr string type, suitable for basic compile&#45;time string processing. ">
<polygon fill="none" stroke="black" points="377.525,-55.5 377.525,-83.5 479.688,-83.5 479.688,-55.5 377.525,-55.5"/>
<text text-anchor="start" x="385.525" y="-71.5" font-family="Helvetica,sans-Serif" font-size="10.00">tomographer2/tools</text>
<text text-anchor="middle" x="428.607" y="-61.5" font-family="Helvetica,sans-Serif" font-size="10.00">/conststr.h</text>
</a>
</g>
</g>
<!-- Node5&#45;&gt;Node10 -->
<g id="edge10" class="edge"><title>Node5&#45;&gt;Node10</title>
<path fill="none" stroke="midnightblue" d="M275.596,-120.446C305.615,-110.648 346.897,-97.1721 379.017,-86.6874"/>
<polygon fill="midnightblue" stroke="midnightblue" points="380.248,-89.9673 388.668,-83.5369 378.076,-83.3129 380.248,-89.9673"/>
</g>
<!-- Node10&#45;&gt;Node2 -->
<g id="edge11" class="edge"><title>Node10&#45;&gt;Node2</title>
<path fill="none" stroke="midnightblue" d="M379.459,-55.4837C336.646,-44.1451 275.932,-28.0657 239.879,-18.5175"/>
<polygon fill="midnightblue" stroke="midnightblue" points="240.527,-15.0685 229.965,-15.8916 238.735,-21.8352 240.527,-15.0685"/>
</g>
</g>
</svg>
