<?xml version="1.0" encoding="UTF-8" standalone="no"?>
<!DOCTYPE svg PUBLIC "-//W3C//DTD SVG 1.1//EN"
 "http://www.w3.org/Graphics/SVG/1.1/DTD/svg11.dtd">
<!-- Generated by graphviz version 2.38.0 (20140413.2041)
 -->
<!-- Title: Tomographer::MHRWTasks::MHRandomWalkTask&lt; MHRandomWalkTaskCData, Rng &gt;::StatusReport Pages: 1 -->
<svg width="1125pt" height="115pt"
 viewBox="0.00 0.00 1124.92 115.00" xmlns="http://www.w3.org/2000/svg" xmlns:xlink="http://www.w3.org/1999/xlink">
<g id="graph0" class="graph" transform="scale(1 1) rotate(0) translate(4 111)">
<title>Tomographer::MHRWTasks::MHRandomWalkTask&lt; MHRandomWalkTaskCData, Rng &gt;::StatusReport</title>
<!-- Node1 -->
<g id="node1" class="node"><title>Node1</title>
<polygon fill="#bfbfbf" stroke="black" points="933.718,-52.5 933.718,-90.5 1116.92,-90.5 1116.92,-52.5 933.718,-52.5"/>
<text text-anchor="start" x="941.718" y="-78.5" font-family="Helvetica,sans-Serif" font-size="10.00">Tomographer::MHRWTasks</text>
<text text-anchor="start" x="941.718" y="-68.5" font-family="Helvetica,sans-Serif" font-size="10.00">::MHRandomWalkTask&lt; MHRandom</text>
<text text-anchor="middle" x="1025.32" y="-58.5" font-family="Helvetica,sans-Serif" font-size="10.00">WalkTaskCData, Rng &gt;::StatusReport</text>
</g>
<!-- Node2 -->
<g id="node2" class="node"><title>Node2</title>
<g id="a_node2"><a xlink:href="struct_tomographer_1_1_multi_proc_1_1_task_status_report.html" target="_top" xlink:title="Basic status report class. ">
<polygon fill="none" stroke="black" points="689.962,-78.5 689.962,-106.5 812.115,-106.5 812.115,-78.5 689.962,-78.5"/>
<text text-anchor="start" x="697.962" y="-94.5" font-family="Helvetica,sans-Serif" font-size="10.00">Tomographer::MultiProc</text>
<text text-anchor="middle" x="751.039" y="-84.5" font-family="Helvetica,sans-Serif" font-size="10.00">::TaskStatusReport</text>
</a>
</g>
</g>
<!-- Node2&#45;&gt;Node1 -->
<g id="edge1" class="edge"><title>Node2&#45;&gt;Node1</title>
<path fill="none" stroke="midnightblue" d="M822.406,-87.0728C856.304,-84.4584 897.364,-81.2916 933.582,-78.4982"/>
<polygon fill="midnightblue" stroke="midnightblue" points="821.83,-83.6068 812.129,-87.8655 822.368,-90.586 821.83,-83.6068"/>
</g>
<!-- Node3 -->
<g id="node3" class="node"><title>Node3</title>
<g id="a_node3"><a doxygen="/Users/philippe/Documents/ETH/PhD/projects/qtomo/tomographer/doc/cppreference-doxygen-web.tag.xml:http://en.cppreference.com/w/" xlink:href="http://en.cppreference.com/w/cpp/string/basic_string.html" target="_top" xlink:title="STL class. ">
<polygon fill="none" stroke="black" points="401.122,-83.5 401.122,-101.5 460.471,-101.5 460.471,-83.5 401.122,-83.5"/>
<text text-anchor="middle" x="430.796" y="-89.5" font-family="Helvetica,sans-Serif" font-size="10.00">std::string</text>
</a>
</g>
</g>
<!-- Node3&#45;&gt;Node2 -->
<g id="edge2" class="edge"><title>Node3&#45;&gt;Node2</title>
<path fill="none" stroke="#9a32cd" stroke-dasharray="5,2" d="M470.918,-92.5C525.639,-92.5 625.525,-92.5 689.784,-92.5"/>
<polygon fill="#9a32cd" stroke="#9a32cd" points="470.6,-89.0001 460.6,-92.5 470.6,-96.0001 470.6,-89.0001"/>
<text text-anchor="middle" x="593.698" y="-94.5" font-family="Helvetica,sans-Serif" font-size="10.00"> msg</text>
</g>
<!-- Node4 -->
<g id="node4" class="node"><title>Node4</title>
<g id="a_node4"><a doxygen="/Users/philippe/Documents/ETH/PhD/projects/qtomo/tomographer/doc/cppreference-doxygen-web.tag.xml:http://en.cppreference.com/w/" xlink:href="http://en.cppreference.com/w/cpp/string/basic_string.html" target="_top" xlink:title="std::basic_string\&lt;\l char \&gt;">
<polygon fill="none" stroke="black" points="169.563,-78.5 169.563,-106.5 263.659,-106.5 263.659,-78.5 169.563,-78.5"/>
<text text-anchor="start" x="177.563" y="-94.5" font-family="Helvetica,sans-Serif" font-size="10.00">std::basic_string&lt;</text>
<text text-anchor="middle" x="216.611" y="-84.5" font-family="Helvetica,sans-Serif" font-size="10.00"> char &gt;</text>
</a>
</g>
</g>
<!-- Node4&#45;&gt;Node3 -->
<g id="edge3" class="edge"><title>Node4&#45;&gt;Node3</title>
<path fill="none" stroke="midnightblue" d="M274.003,-92.5C314.842,-92.5 368.375,-92.5 400.87,-92.5"/>
<polygon fill="midnightblue" stroke="midnightblue" points="273.914,-89.0001 263.914,-92.5 273.914,-96.0001 273.914,-89.0001"/>
</g>
<!-- Node5 -->
<g id="node5" class="node"><title>Node5</title>
<g id="a_node5"><a doxygen="/Users/philippe/Documents/ETH/PhD/projects/qtomo/tomographer/doc/cppreference-doxygen-web.tag.xml:http://en.cppreference.com/w/" xlink:href="http://en.cppreference.com/w/cpp/string/basic_string.html" target="_top" xlink:title="STL class. ">
<polygon fill="none" stroke="black" points="0,-78.5 0,-106.5 94.0957,-106.5 94.0957,-78.5 0,-78.5"/>
<text text-anchor="start" x="8" y="-94.5" font-family="Helvetica,sans-Serif" font-size="10.00">std::basic_string&lt;</text>
<text text-anchor="middle" x="47.0479" y="-84.5" font-family="Helvetica,sans-Serif" font-size="10.00"> Char &gt;</text>
</a>
</g>
</g>
<!-- Node5&#45;&gt;Node4 -->
<g id="edge4" class="edge"><title>Node5&#45;&gt;Node4</title>
<path fill="none" stroke="orange" stroke-dasharray="5,2" d="M104.435,-92.5C125.608,-92.5 149.403,-92.5 169.531,-92.5"/>
<polygon fill="orange" stroke="orange" points="104.279,-89.0001 94.2789,-92.5 104.279,-96.0001 104.279,-89.0001"/>
<text text-anchor="middle" x="131.83" y="-94.5" font-family="Helvetica,sans-Serif" font-size="10.00"> &lt; char &gt;</text>
</g>
<!-- Node6 -->
<g id="node6" class="node"><title>Node6</title>
<g id="a_node6"><a xlink:href="struct_tomographer_1_1_m_h_r_w_params.html" target="_top" xlink:title="Tomographer::MHRWParams\l\&lt; CountIntType, StepRealType \&gt;">
<polygon fill="none" stroke="black" points="670.487,-31.5 670.487,-59.5 831.59,-59.5 831.59,-31.5 670.487,-31.5"/>
<text text-anchor="start" x="678.487" y="-47.5" font-family="Helvetica,sans-Serif" font-size="10.00">Tomographer::MHRWParams</text>
<text text-anchor="middle" x="751.039" y="-37.5" font-family="Helvetica,sans-Serif" font-size="10.00">&lt; CountIntType, StepRealType &gt;</text>
</a>
</g>
</g>
<!-- Node6&#45;&gt;Node1 -->
<g id="edge5" class="edge"><title>Node6&#45;&gt;Node1</title>
<path fill="none" stroke="#9a32cd" stroke-dasharray="5,2" d="M842.127,-54.1025C871.474,-56.9049 904.057,-60.0162 933.461,-62.824"/>
<polygon fill="#9a32cd" stroke="#9a32cd" points="842.179,-50.5917 831.892,-53.1252 841.514,-57.56 842.179,-50.5917"/>
<text text-anchor="middle" x="882.654" y="-63.5" font-family="Helvetica,sans-Serif" font-size="10.00"> mhrw_params</text>
</g>
<!-- Node7 -->
<g id="node7" class="node"><title>Node7</title>
<g id="a_node7"><a xlink:href="struct_tomographer_1_1_m_h_r_w_params.html" target="_top" xlink:title="Specify the parameters of a Metropolis&#45;Hastings random walk. ">
<polygon fill="none" stroke="black" points="344.684,-31.5 344.684,-59.5 516.909,-59.5 516.909,-31.5 344.684,-31.5"/>
<text text-anchor="start" x="352.684" y="-47.5" font-family="Helvetica,sans-Serif" font-size="10.00">Tomographer::MHRWParams</text>
<text text-anchor="middle" x="430.796" y="-37.5" font-family="Helvetica,sans-Serif" font-size="10.00">&lt; CountIntType_, StepRealType_ &gt;</text>
</a>
</g>
</g>
<!-- Node7&#45;&gt;Node6 -->
<g id="edge6" class="edge"><title>Node7&#45;&gt;Node6</title>
<path fill="none" stroke="orange" stroke-dasharray="5,2" d="M527.279,-45.5C572.898,-45.5 626.873,-45.5 670.267,-45.5"/>
<polygon fill="orange" stroke="orange" points="527.079,-42.0001 517.079,-45.5 527.079,-49.0001 527.079,-42.0001"/>
<text text-anchor="start" x="534.909" y="-57.5" font-family="Helvetica,sans-Serif" font-size="10.00"> &lt; CountIntType, StepReal</text>
<text text-anchor="middle" x="593.698" y="-47.5" font-family="Helvetica,sans-Serif" font-size="10.00">Type &gt;</text>
</g>
<!-- Node8 -->
<g id="node8" class="node"><title>Node8</title>
<polygon fill="none" stroke="#bfbfbf" points="176.087,-37.5 176.087,-55.5 257.136,-55.5 257.136,-37.5 176.087,-37.5"/>
<text text-anchor="middle" x="216.611" y="-43.5" font-family="Helvetica,sans-Serif" font-size="10.00">CountIntType_</text>
</g>
<!-- Node8&#45;&gt;Node7 -->
<g id="edge7" class="edge"><title>Node8&#45;&gt;Node7</title>
<path fill="none" stroke="#9a32cd" stroke-dasharray="5,2" d="M267.67,-46.2641C290.557,-46.1562 318.323,-46.0254 344.362,-45.9026"/>
<polygon fill="#9a32cd" stroke="#9a32cd" points="267.505,-42.7647 257.522,-46.3119 267.538,-49.7646 267.505,-42.7647"/>
<text text-anchor="middle" x="304.171" y="-68.5" font-family="Helvetica,sans-Serif" font-size="10.00"> n_run</text>
<text text-anchor="middle" x="304.171" y="-58.5" font-family="Helvetica,sans-Serif" font-size="10.00">n_therm</text>
<text text-anchor="middle" x="304.171" y="-48.5" font-family="Helvetica,sans-Serif" font-size="10.00">n_sweep</text>
</g>
<!-- Node9 -->
<g id="node9" class="node"><title>Node9</title>
<polygon fill="none" stroke="#bfbfbf" points="174.419,-0.5 174.419,-18.5 258.803,-18.5 258.803,-0.5 174.419,-0.5"/>
<text text-anchor="middle" x="216.611" y="-6.5" font-family="Helvetica,sans-Serif" font-size="10.00">StepRealType_</text>
</g>
<!-- Node9&#45;&gt;Node7 -->
<g id="edge8" class="edge"><title>Node9&#45;&gt;Node7</title>
<path fill="none" stroke="#9a32cd" stroke-dasharray="5,2" d="M269.094,-18.2347C292.547,-22.2138 320.894,-27.0232 347.21,-31.488"/>
<polygon fill="#9a32cd" stroke="#9a32cd" points="269.471,-14.7487 259.026,-16.5266 268.3,-21.6501 269.471,-14.7487"/>
<text text-anchor="middle" x="304.171" y="-29.5" font-family="Helvetica,sans-Serif" font-size="10.00"> step_size</text>
</g>
</g>
</svg>
