<?xml version="1.0" encoding="UTF-8" standalone="no"?>
<!DOCTYPE svg PUBLIC "-//W3C//DTD SVG 1.1//EN"
 "http://www.w3.org/Graphics/SVG/1.1/DTD/svg11.dtd">
<!-- Generated by graphviz version 2.38.0 (20140413.2041)
 -->
<!-- Title: Tomographer::MHRWTasks::MHRandomWalkTaskResult&lt; MHRWStatsCollectorResultType_, CountIntType, StepRealType &gt; Pages: 1 -->
<svg width="628pt" height="107pt"
 viewBox="0.00 0.00 627.84 107.00" xmlns="http://www.w3.org/2000/svg" xmlns:xlink="http://www.w3.org/1999/xlink">
<g id="graph0" class="graph" transform="scale(1 1) rotate(0) translate(4 103)">
<title>Tomographer::MHRWTasks::MHRandomWalkTaskResult&lt; MHRWStatsCollectorResultType_, CountIntType, StepRealType &gt;</title>
<!-- Node1 -->
<g id="node1" class="node"><title>Node1</title>
<polygon fill="#bfbfbf" stroke="black" points="450.914,-36.5 450.914,-84.5 619.844,-84.5 619.844,-36.5 450.914,-36.5"/>
<text text-anchor="start" x="458.914" y="-72.5" font-family="Helvetica,sans-Serif" font-size="10.00">Tomographer::MHRWTasks</text>
<text text-anchor="start" x="458.914" y="-62.5" font-family="Helvetica,sans-Serif" font-size="10.00">::MHRandomWalkTaskResult</text>
<text text-anchor="start" x="458.914" y="-52.5" font-family="Helvetica,sans-Serif" font-size="10.00">&lt; MHRWStatsCollectorResultType</text>
<text text-anchor="middle" x="535.379" y="-42.5" font-family="Helvetica,sans-Serif" font-size="10.00">_, CountIntType, StepRealType &gt;</text>
</g>
<!-- Node2 -->
<g id="node2" class="node"><title>Node2</title>
<polygon fill="none" stroke="#bfbfbf" points="165.408,-60.5 165.408,-98.5 348.786,-98.5 348.786,-60.5 165.408,-60.5"/>
<text text-anchor="start" x="173.408" y="-86.5" font-family="Helvetica,sans-Serif" font-size="10.00">Tools::NeedOwnOperatorNew</text>
<text text-anchor="start" x="173.408" y="-76.5" font-family="Helvetica,sans-Serif" font-size="10.00">::ProviderType&lt; MHRWStatsCollector</text>
<text text-anchor="middle" x="257.097" y="-66.5" font-family="Helvetica,sans-Serif" font-size="10.00">ResultType_ &gt;</text>
</g>
<!-- Node2&#45;&gt;Node1 -->
<g id="edge1" class="edge"><title>Node2&#45;&gt;Node1</title>
<path fill="none" stroke="midnightblue" d="M359.028,-72.559C389.073,-70.4928 421.655,-68.252 450.489,-66.2691"/>
<polygon fill="midnightblue" stroke="midnightblue" points="358.681,-69.0744 348.945,-73.2524 359.161,-76.058 358.681,-69.0744"/>
</g>
<!-- Node3 -->
<g id="node3" class="node"><title>Node3</title>
<g id="a_node3"><a xlink:href="struct_tomographer_1_1_m_h_r_w_params.html" target="_top" xlink:title="Specify the parameters of a Metropolis&#45;Hastings random walk. ">
<polygon fill="none" stroke="black" points="170.984,-13.5 170.984,-41.5 343.21,-41.5 343.21,-13.5 170.984,-13.5"/>
<text text-anchor="start" x="178.984" y="-29.5" font-family="Helvetica,sans-Serif" font-size="10.00">Tomographer::MHRWParams</text>
<text text-anchor="middle" x="257.097" y="-19.5" font-family="Helvetica,sans-Serif" font-size="10.00">&lt; CountIntType_, StepRealType_ &gt;</text>
</a>
</g>
</g>
<!-- Node3&#45;&gt;Node1 -->
<g id="edge2" class="edge"><title>Node3&#45;&gt;Node1</title>
<path fill="none" stroke="#9a32cd" stroke-dasharray="5,2" d="M353.368,-38.8794C384.933,-42.6497 419.813,-46.8159 450.461,-50.4766"/>
<polygon fill="#9a32cd" stroke="#9a32cd" points="353.59,-35.3811 343.245,-37.6704 352.759,-42.3317 353.59,-35.3811"/>
<text text-anchor="middle" x="399.85" y="-49.5" font-family="Helvetica,sans-Serif" font-size="10.00"> mhrw_params</text>
</g>
<!-- Node4 -->
<g id="node4" class="node"><title>Node4</title>
<polygon fill="none" stroke="#bfbfbf" points="1.66748,-37.5 1.66748,-55.5 82.7163,-55.5 82.7163,-37.5 1.66748,-37.5"/>
<text text-anchor="middle" x="42.1919" y="-43.5" font-family="Helvetica,sans-Serif" font-size="10.00">CountIntType_</text>
</g>
<!-- Node4&#45;&gt;Node3 -->
<g id="edge3" class="edge"><title>Node4&#45;&gt;Node3</title>
<path fill="none" stroke="#9a32cd" stroke-dasharray="5,2" d="M92.7014,-42.0817C115.954,-40.0066 144.342,-37.4732 170.892,-35.1038"/>
<polygon fill="#9a32cd" stroke="#9a32cd" points="92.3881,-38.5957 82.7388,-42.9708 93.0103,-45.5679 92.3881,-38.5957"/>
<text text-anchor="middle" x="124.896" y="-62.5" font-family="Helvetica,sans-Serif" font-size="10.00"> n_run</text>
<text text-anchor="middle" x="124.896" y="-52.5" font-family="Helvetica,sans-Serif" font-size="10.00">n_therm</text>
<text text-anchor="middle" x="124.896" y="-42.5" font-family="Helvetica,sans-Serif" font-size="10.00">n_sweep</text>
</g>
<!-- Node5 -->
<g id="node5" class="node"><title>Node5</title>
<polygon fill="none" stroke="#bfbfbf" points="0,-0.5 0,-18.5 84.3838,-18.5 84.3838,-0.5 0,-0.5"/>
<text text-anchor="middle" x="42.1919" y="-6.5" font-family="Helvetica,sans-Serif" font-size="10.00">StepRealType_</text>
</g>
<!-- Node5&#45;&gt;Node3 -->
<g id="edge4" class="edge"><title>Node5&#45;&gt;Node3</title>
<path fill="none" stroke="#9a32cd" stroke-dasharray="5,2" d="M94.7527,-11.2469C111.558,-12.0104 130.292,-13.0676 147.408,-14.5 154.983,-15.1339 162.845,-15.8871 170.718,-16.7069"/>
<polygon fill="#9a32cd" stroke="#9a32cd" points="94.7111,-7.74197 84.5698,-10.8088 94.4101,-14.7355 94.7111,-7.74197"/>
<text text-anchor="middle" x="124.896" y="-16.5" font-family="Helvetica,sans-Serif" font-size="10.00"> step_size</text>
</g>
</g>
</svg>
