<?xml version="1.0" encoding="UTF-8" standalone="no"?>
<!DOCTYPE svg PUBLIC "-//W3C//DTD SVG 1.1//EN"
 "http://www.w3.org/Graphics/SVG/1.1/DTD/svg11.dtd">
<!-- Generated by graphviz version 2.38.0 (20140413.2041)
 -->
<!-- Title: Tomographer::UniformBinsHistogramWithErrorBars&lt; Scalar_, CountType_ &gt; Pages: 1 -->
<!--zoomable 288 -->
<svg id="main" version="1.1" xmlns="http://www.w3.org/2000/svg" xmlns:xlink="http://www.w3.org/1999/xlink" xml:space="preserve" onload="init(evt)">
<style type="text/css"><![CDATA[
.edge:hover path { stroke: red; }
.edge:hover polygon { stroke: red; fill: red; }
]]></style>
<script type="text/javascript"><![CDATA[
var edges = document.getElementsByTagName('g');
if (edges && edges.length) {
  for (var i=0;i<edges.length;i++) {
    if (edges[i].id.substr(0,4)=='edge') {
      edges[i].setAttribute('class','edge');
    }
  }
}
]]></script>
        <defs>
                <circle id="rim" cx="0" cy="0" r="7"/>
                <circle id="rim2" cx="0" cy="0" r="3.5"/>
                <g id="zoomPlus">
                        <use xlink:href="#rim" fill="#404040">
                                <set attributeName="fill" to="#808080" begin="zoomplus.mouseover" end="zoomplus.mouseout"/>
                        </use>
                        <path d="M-4,0h8M0,-4v8" fill="none" stroke="white" stroke-width="1.5" pointer-events="none"/>
                </g>
                <g id="zoomMin">
                        <use xlink:href="#rim" fill="#404040">
                                <set attributeName="fill" to="#808080" begin="zoomminus.mouseover" end="zoomminus.mouseout"/>
                        </use>
                        <path d="M-4,0h8" fill="none" stroke="white" stroke-width="1.5" pointer-events="none"/>
                </g>
                <g id="dirArrow">
                        <path fill="none" stroke="white" stroke-width="1.5" d="M0,-3.0v7 M-2.5,-0.5L0,-3.0L2.5,-0.5"/>
                </g>
               <g id="resetDef">
                       <use xlink:href="#rim2" fill="#404040">
                               <set attributeName="fill" to="#808080" begin="reset.mouseover" end="reset.mouseout"/>
                       </use>
               </g>
        </defs>

<script type="text/javascript">
var viewWidth = 1653;
var viewHeight = 288;
var sectionId = 'dynsection-0';
</script>
<script xlink:href="svgpan.js"/>
<svg id="graph" class="graph">
<g id="viewport">
<title>Tomographer::UniformBinsHistogramWithErrorBars&lt; Scalar_, CountType_ &gt;</title>
<!-- Node1 -->
<g id="node1" class="node"><title>Node1</title>
<polygon fill="#bfbfbf" stroke="black" points="423.393,-114.5 423.393,-152.5 558.328,-152.5 558.328,-114.5 423.393,-114.5"/>
<text text-anchor="start" x="431.393" y="-140.5" font-family="Helvetica,sans-Serif" font-size="10.00">Tomographer::UniformBins</text>
<text text-anchor="start" x="431.393" y="-130.5" font-family="Helvetica,sans-Serif" font-size="10.00">HistogramWithErrorBars</text>
<text text-anchor="middle" x="490.86" y="-120.5" font-family="Helvetica,sans-Serif" font-size="10.00">&lt; Scalar_, CountType_ &gt;</text>
</g>
<!-- Node4 -->
<g id="node4" class="node"><title>Node4</title>
<g id="a_node4"><a xlink:href="struct_tomographer_1_1_uniform_bins_histogram_with_error_bars.html" target="_top" xlink:title="Tomographer::UniformBins\lHistogramWithErrorBars\l\&lt; SimpleNormalizedHistogramType\l::Scalar, double \&gt;">
<polygon fill="none" stroke="black" points="932.82,-227.5 932.82,-275.5 1105.83,-275.5 1105.83,-227.5 932.82,-227.5"/>
<text text-anchor="start" x="940.82" y="-263.5" font-family="Helvetica,sans-Serif" font-size="10.00">Tomographer::UniformBins</text>
<text text-anchor="start" x="940.82" y="-253.5" font-family="Helvetica,sans-Serif" font-size="10.00">HistogramWithErrorBars</text>
<text text-anchor="start" x="940.82" y="-243.5" font-family="Helvetica,sans-Serif" font-size="10.00">&lt; SimpleNormalizedHistogramType</text>
<text text-anchor="middle" x="1019.32" y="-233.5" font-family="Helvetica,sans-Serif" font-size="10.00">::Scalar, double &gt;</text>
</a>
</g>
</g>
<!-- Node1&#45;&gt;Node4 -->
<g id="edge4" class="edge"><title>Node1&#45;&gt;Node4</title>
<path fill="none" stroke="orange" stroke-dasharray="5,2" d="M515.696,-159.847C531.326,-175.308 553.113,-193.682 576.328,-203.5 692.561,-252.655 840.616,-258.602 932.433,-256.481"/>
<polygon fill="orange" stroke="orange" points="518.036,-157.235 508.537,-152.542 513.036,-162.134 518.036,-157.235"/>
<text text-anchor="start" x="583.401" y="-256.5" font-family="Helvetica,sans-Serif" font-size="10.00"> &lt; SimpleNormalizedHistogram</text>
<text text-anchor="middle" x="652.451" y="-246.5" font-family="Helvetica,sans-Serif" font-size="10.00">Type::Scalar, double &gt;</text>
</g>
<!-- Node6 -->
<g id="node6" class="node"><title>Node6</title>
<g id="a_node6"><a xlink:href="struct_tomographer_1_1_uniform_bins_histogram_with_error_bars.html" target="_top" xlink:title="Tomographer::UniformBins\lHistogramWithErrorBars\l\&lt; HistogramType_::Scalar,\l RealAvgType \&gt;">
<polygon fill="none" stroke="black" points="763.229,-164.5 763.229,-212.5 898.165,-212.5 898.165,-164.5 763.229,-164.5"/>
<text text-anchor="start" x="771.229" y="-200.5" font-family="Helvetica,sans-Serif" font-size="10.00">Tomographer::UniformBins</text>
<text text-anchor="start" x="771.229" y="-190.5" font-family="Helvetica,sans-Serif" font-size="10.00">HistogramWithErrorBars</text>
<text text-anchor="start" x="771.229" y="-180.5" font-family="Helvetica,sans-Serif" font-size="10.00">&lt; HistogramType_::Scalar,</text>
<text text-anchor="middle" x="830.697" y="-170.5" font-family="Helvetica,sans-Serif" font-size="10.00"> RealAvgType &gt;</text>
</a>
</g>
</g>
<!-- Node1&#45;&gt;Node6 -->
<g id="edge6" class="edge"><title>Node1&#45;&gt;Node6</title>
<path fill="none" stroke="orange" stroke-dasharray="5,2" d="M568.326,-154.828C571.02,-155.418 573.694,-155.978 576.328,-156.5 639.172,-168.961 711.796,-177.55 763.137,-182.668"/>
<polygon fill="orange" stroke="orange" points="569.041,-151.401 558.511,-152.576 567.475,-158.224 569.041,-151.401"/>
<text text-anchor="start" x="592.28" y="-191.5" font-family="Helvetica,sans-Serif" font-size="10.00"> &lt; HistogramType_::Scalar,</text>
<text text-anchor="middle" x="652.451" y="-181.5" font-family="Helvetica,sans-Serif" font-size="10.00"> RealAvgType &gt;</text>
</g>
<!-- Node10 -->
<g id="node10" class="node"><title>Node10</title>
<g id="a_node10"><a xlink:href="struct_tomographer_1_1_uniform_bins_histogram_with_error_bars.html" target="_top" xlink:title="Tomographer::UniformBins\lHistogramWithErrorBars\l\&lt; HistogramType::Scalar,\l CountRealType \&gt;">
<polygon fill="none" stroke="black" points="1141.82,-51.5 1141.82,-99.5 1276.75,-99.5 1276.75,-51.5 1141.82,-51.5"/>
<text text-anchor="start" x="1149.82" y="-87.5" font-family="Helvetica,sans-Serif" font-size="10.00">Tomographer::UniformBins</text>
<text text-anchor="start" x="1149.82" y="-77.5" font-family="Helvetica,sans-Serif" font-size="10.00">HistogramWithErrorBars</text>
<text text-anchor="start" x="1149.82" y="-67.5" font-family="Helvetica,sans-Serif" font-size="10.00">&lt; HistogramType::Scalar,</text>
<text text-anchor="middle" x="1209.28" y="-57.5" font-family="Helvetica,sans-Serif" font-size="10.00"> CountRealType &gt;</text>
</a>
</g>
</g>
<!-- Node1&#45;&gt;Node10 -->
<g id="edge11" class="edge"><title>Node1&#45;&gt;Node10</title>
<path fill="none" stroke="orange" stroke-dasharray="5,2" d="M568.762,-124.993C619.268,-119.567 686.805,-112.62 746.574,-107.5 887.074,-95.4636 1051.93,-84.891 1141.71,-79.4321"/>
<polygon fill="orange" stroke="orange" points="568.141,-121.539 558.574,-126.091 568.891,-128.499 568.141,-121.539"/>
<text text-anchor="start" x="773.307" y="-119.5" font-family="Helvetica,sans-Serif" font-size="10.00"> &lt; HistogramType::Scalar,</text>
<text text-anchor="middle" x="830.697" y="-109.5" font-family="Helvetica,sans-Serif" font-size="10.00"> CountRealType &gt;</text>
</g>
<!-- Node11 -->
<g id="node11" class="node"><title>Node11</title>
<g id="a_node11"><a xlink:href="struct_tomographer_1_1_uniform_bins_histogram_with_error_bars.html" target="_top" xlink:title="Tomographer::UniformBins\lHistogramWithErrorBars\l\&lt; typename ValueCalculator\l::ValueType, CountRealAvgType \&gt;">
<polygon fill="none" stroke="black" points="746.574,-0.5 746.574,-48.5 914.82,-48.5 914.82,-0.5 746.574,-0.5"/>
<text text-anchor="start" x="754.574" y="-36.5" font-family="Helvetica,sans-Serif" font-size="10.00">Tomographer::UniformBins</text>
<text text-anchor="start" x="754.574" y="-26.5" font-family="Helvetica,sans-Serif" font-size="10.00">HistogramWithErrorBars</text>
<text text-anchor="start" x="754.574" y="-16.5" font-family="Helvetica,sans-Serif" font-size="10.00">&lt; typename ValueCalculator</text>
<text text-anchor="middle" x="830.697" y="-6.5" font-family="Helvetica,sans-Serif" font-size="10.00">::ValueType, CountRealAvgType &gt;</text>
</a>
</g>
</g>
<!-- Node1&#45;&gt;Node11 -->
<g id="edge13" class="edge"><title>Node1&#45;&gt;Node11</title>
<path fill="none" stroke="orange" stroke-dasharray="5,2" d="M511.564,-106.524C526.939,-87.6971 550.052,-63.8178 576.328,-51.5 629.299,-26.6676 695.159,-20.2864 746.454,-19.9198"/>
<polygon fill="orange" stroke="orange" points="508.717,-104.481 505.261,-114.496 514.208,-108.822 508.717,-104.481"/>
<text text-anchor="start" x="576.328" y="-63.5" font-family="Helvetica,sans-Serif" font-size="10.00"> &lt; typename ValueCalculator</text>
<text text-anchor="middle" x="652.451" y="-53.5" font-family="Helvetica,sans-Serif" font-size="10.00">::ValueType, CountRealAvgType &gt;</text>
</g>
<!-- Node12 -->
<g id="node12" class="node"><title>Node12</title>
<g id="a_node12"><a xlink:href="struct_tomographer_1_1_uniform_bins_histogram_with_error_bars.html" target="_top" xlink:title="Tomographer::UniformBins\lHistogramWithErrorBars\l\&lt; NormalizedHistogramType\l::Scalar, CountRealType \&gt;">
<polygon fill="none" stroke="black" points="948.104,-107.5 948.104,-155.5 1090.54,-155.5 1090.54,-107.5 948.104,-107.5"/>
<text text-anchor="start" x="956.104" y="-143.5" font-family="Helvetica,sans-Serif" font-size="10.00">Tomographer::UniformBins</text>
<text text-anchor="start" x="956.104" y="-133.5" font-family="Helvetica,sans-Serif" font-size="10.00">HistogramWithErrorBars</text>
<text text-anchor="start" x="956.104" y="-123.5" font-family="Helvetica,sans-Serif" font-size="10.00">&lt; NormalizedHistogramType</text>
<text text-anchor="middle" x="1019.32" y="-113.5" font-family="Helvetica,sans-Serif" font-size="10.00">::Scalar, CountRealType &gt;</text>
</a>
</g>
</g>
<!-- Node1&#45;&gt;Node12 -->
<g id="edge14" class="edge"><title>Node1&#45;&gt;Node12</title>
<path fill="none" stroke="orange" stroke-dasharray="5,2" d="M568.988,-132.557C571.464,-132.536 573.915,-132.517 576.328,-132.5 707.543,-131.575 860.673,-131.439 947.896,-131.452"/>
<polygon fill="orange" stroke="orange" points="568.684,-129.059 558.716,-132.649 568.747,-136.059 568.684,-129.059"/>
<text text-anchor="start" x="587.842" y="-144.5" font-family="Helvetica,sans-Serif" font-size="10.00"> &lt; NormalizedHistogramType</text>
<text text-anchor="middle" x="652.451" y="-134.5" font-family="Helvetica,sans-Serif" font-size="10.00">::Scalar, CountRealType &gt;</text>
</g>
<!-- Node2 -->
<g id="node2" class="node"><title>Node2</title>
<g id="a_node2"><a xlink:href="struct_tomographer_1_1_uniform_bins_histogram.html" target="_top" xlink:title="Stores a histogram. ">
<polygon fill="none" stroke="black" points="214.196,-145.5 214.196,-173.5 386.393,-173.5 386.393,-145.5 214.196,-145.5"/>
<text text-anchor="start" x="222.196" y="-161.5" font-family="Helvetica,sans-Serif" font-size="10.00">Tomographer::UniformBins</text>
<text text-anchor="middle" x="300.294" y="-151.5" font-family="Helvetica,sans-Serif" font-size="10.00">Histogram&lt; Scalar_, CountType_ &gt;</text>
</a>
</g>
</g>
<!-- Node2&#45;&gt;Node1 -->
<g id="edge1" class="edge"><title>Node2&#45;&gt;Node1</title>
<path fill="none" stroke="midnightblue" d="M396.592,-146.36C405.564,-145.123 414.524,-143.888 423.146,-142.699"/>
<polygon fill="midnightblue" stroke="midnightblue" points="395.903,-142.922 386.475,-147.755 396.859,-149.856 395.903,-142.922"/>
</g>
<!-- Node3 -->
<g id="node3" class="node"><title>Node3</title>
<g id="a_node3"><a xlink:href="struct_tomographer_1_1_tools_1_1_eigen_aligned_operator_new_provider.html" target="_top" xlink:title="Provides correct operator&#45;new implementation for Eigen types via the NeedOwnOperatorNew mechanism...">
<polygon fill="none" stroke="black" points="0,-119.5 0,-147.5 177.196,-147.5 177.196,-119.5 0,-119.5"/>
<text text-anchor="start" x="8" y="-135.5" font-family="Helvetica,sans-Serif" font-size="10.00">Tomographer::Tools</text>
<text text-anchor="middle" x="88.5981" y="-125.5" font-family="Helvetica,sans-Serif" font-size="10.00">::EigenAlignedOperatorNewProvider</text>
</a>
</g>
</g>
<!-- Node3&#45;&gt;Node1 -->
<g id="edge3" class="edge"><title>Node3&#45;&gt;Node1</title>
<path fill="none" stroke="midnightblue" d="M187.601,-133.5C260.848,-133.5 359.029,-133.5 423.333,-133.5"/>
<polygon fill="midnightblue" stroke="midnightblue" points="187.437,-130 177.437,-133.5 187.437,-137 187.437,-130"/>
</g>
<!-- Node3&#45;&gt;Node2 -->
<g id="edge2" class="edge"><title>Node3&#45;&gt;Node2</title>
<path fill="none" stroke="midnightblue" d="M187.313,-145.616C196.208,-146.718 205.171,-147.83 213.946,-148.918"/>
<polygon fill="midnightblue" stroke="midnightblue" points="187.668,-142.133 177.313,-144.376 186.807,-149.08 187.668,-142.133"/>
</g>
<!-- Node5 -->
<g id="node5" class="node"><title>Node5</title>
<g id="a_node5"><a xlink:href="struct_tomographer_1_1_averaged_histogram.html" target="_top" xlink:title="Tomographer::AveragedHistogram\l\&lt; SimpleNormalizedHistogramType,\l double \&gt;">
<polygon fill="none" stroke="black" points="1468.84,-241.5 1468.84,-279.5 1644.62,-279.5 1644.62,-241.5 1468.84,-241.5"/>
<text text-anchor="start" x="1476.84" y="-267.5" font-family="Helvetica,sans-Serif" font-size="10.00">Tomographer::AveragedHistogram</text>
<text text-anchor="start" x="1476.84" y="-257.5" font-family="Helvetica,sans-Serif" font-size="10.00">&lt; SimpleNormalizedHistogramType,</text>
<text text-anchor="middle" x="1556.73" y="-247.5" font-family="Helvetica,sans-Serif" font-size="10.00"> double &gt;</text>
</a>
</g>
</g>
<!-- Node4&#45;&gt;Node5 -->
<g id="edge5" class="edge"><title>Node4&#45;&gt;Node5</title>
<path fill="none" stroke="midnightblue" d="M1116.23,-259.545C1203.48,-265.85 1335.8,-272.881 1450.84,-268.5 1456.68,-268.278 1462.7,-267.986 1468.76,-267.645"/>
<polygon fill="midnightblue" stroke="midnightblue" points="1116.32,-256.042 1106.09,-258.8 1115.8,-263.023 1116.32,-256.042"/>
</g>
<!-- Node7 -->
<g id="node7" class="node"><title>Node7</title>
<g id="a_node7"><a xlink:href="struct_tomographer_1_1_averaged_histogram.html" target="_top" xlink:title="Combines several histograms (with same parameters) into an averaged histogram. ">
<polygon fill="none" stroke="black" points="1123.83,-189.5 1123.83,-217.5 1294.74,-217.5 1294.74,-189.5 1123.83,-189.5"/>
<text text-anchor="start" x="1131.83" y="-205.5" font-family="Helvetica,sans-Serif" font-size="10.00">Tomographer::AveragedHistogram</text>
<text text-anchor="middle" x="1209.28" y="-195.5" font-family="Helvetica,sans-Serif" font-size="10.00">&lt; HistogramType_, RealAvgType &gt;</text>
</a>
</g>
</g>
<!-- Node6&#45;&gt;Node7 -->
<g id="edge7" class="edge"><title>Node6&#45;&gt;Node7</title>
<path fill="none" stroke="midnightblue" d="M908.774,-191.57C971.221,-194.057 1059.1,-197.558 1123.53,-200.124"/>
<polygon fill="midnightblue" stroke="midnightblue" points="908.721,-188.065 898.589,-191.164 908.442,-195.06 908.721,-188.065"/>
</g>
<!-- Node7&#45;&gt;Node5 -->
<g id="edge9" class="edge"><title>Node7&#45;&gt;Node5</title>
<path fill="none" stroke="orange" stroke-dasharray="5,2" d="M1286.11,-219.529C1295.07,-221.279 1304.1,-222.976 1312.74,-224.5 1364.29,-233.595 1422.27,-242.245 1468.67,-248.785"/>
<polygon fill="orange" stroke="orange" points="1286.53,-216.045 1276.04,-217.537 1285.17,-222.912 1286.53,-216.045"/>
<text text-anchor="start" x="1312.74" y="-258.5" font-family="Helvetica,sans-Serif" font-size="10.00"> &lt; SimpleNormalizedHistogram</text>
<text text-anchor="middle" x="1381.79" y="-248.5" font-family="Helvetica,sans-Serif" font-size="10.00">Type, double &gt;</text>
</g>
<!-- Node8 -->
<g id="node8" class="node"><title>Node8</title>
<g id="a_node8"><a xlink:href="struct_tomographer_1_1_averaged_histogram.html" target="_top" xlink:title="Tomographer::AveragedHistogram\l\&lt; NormalizedHistogramType,\l CountRealType \&gt;">
<polygon fill="none" stroke="black" points="1472.39,-172.5 1472.39,-210.5 1641.07,-210.5 1641.07,-172.5 1472.39,-172.5"/>
<text text-anchor="start" x="1480.39" y="-198.5" font-family="Helvetica,sans-Serif" font-size="10.00">Tomographer::AveragedHistogram</text>
<text text-anchor="start" x="1480.39" y="-188.5" font-family="Helvetica,sans-Serif" font-size="10.00">&lt; NormalizedHistogramType,</text>
<text text-anchor="middle" x="1556.73" y="-178.5" font-family="Helvetica,sans-Serif" font-size="10.00"> CountRealType &gt;</text>
</a>
</g>
</g>
<!-- Node7&#45;&gt;Node8 -->
<g id="edge8" class="edge"><title>Node7&#45;&gt;Node8</title>
<path fill="none" stroke="orange" stroke-dasharray="5,2" d="M1305.08,-200.207C1357.36,-198.391 1421.7,-196.156 1472.1,-194.405"/>
<polygon fill="orange" stroke="orange" points="1304.66,-196.719 1294.79,-200.564 1304.91,-203.715 1304.66,-196.719"/>
<text text-anchor="start" x="1315.79" y="-212.5" font-family="Helvetica,sans-Serif" font-size="10.00"> &lt; NormalizedHistogramType,</text>
<text text-anchor="middle" x="1381.79" y="-202.5" font-family="Helvetica,sans-Serif" font-size="10.00"> CountRealType &gt;</text>
</g>
<!-- Node9 -->
<g id="node9" class="node"><title>Node9</title>
<g id="a_node9"><a xlink:href="struct_tomographer_1_1_averaged_histogram.html" target="_top" xlink:title="Tomographer::AveragedHistogram\l\&lt; HistogramType, CountRealType \&gt;">
<polygon fill="none" stroke="black" points="1469.24,-101.5 1469.24,-129.5 1644.22,-129.5 1644.22,-101.5 1469.24,-101.5"/>
<text text-anchor="start" x="1477.24" y="-117.5" font-family="Helvetica,sans-Serif" font-size="10.00">Tomographer::AveragedHistogram</text>
<text text-anchor="middle" x="1556.73" y="-107.5" font-family="Helvetica,sans-Serif" font-size="10.00">&lt; HistogramType, CountRealType &gt;</text>
</a>
</g>
</g>
<!-- Node7&#45;&gt;Node9 -->
<g id="edge10" class="edge"><title>Node7&#45;&gt;Node9</title>
<path fill="none" stroke="orange" stroke-dasharray="5,2" d="M1262.66,-186.299C1278.66,-181.272 1296.35,-175.94 1312.74,-171.5 1371.76,-155.507 1439.63,-140.114 1488.61,-129.528"/>
<polygon fill="orange" stroke="orange" points="1261.42,-183.02 1252.94,-189.378 1263.53,-189.693 1261.42,-183.02"/>
<text text-anchor="start" x="1316.06" y="-183.5" font-family="Helvetica,sans-Serif" font-size="10.00"> &lt; HistogramType, CountReal</text>
<text text-anchor="middle" x="1381.79" y="-173.5" font-family="Helvetica,sans-Serif" font-size="10.00">Type &gt;</text>
</g>
<!-- Node10&#45;&gt;Node9 -->
<g id="edge12" class="edge"><title>Node10&#45;&gt;Node9</title>
<path fill="none" stroke="midnightblue" d="M1287.07,-84.3914C1340.95,-90.6306 1413.08,-98.9823 1469.03,-105.461"/>
<polygon fill="midnightblue" stroke="midnightblue" points="1287.23,-80.8859 1276.89,-83.2124 1286.42,-87.8395 1287.23,-80.8859"/>
</g>
<!-- Node12&#45;&gt;Node8 -->
<g id="edge15" class="edge"><title>Node12&#45;&gt;Node8</title>
<path fill="none" stroke="midnightblue" d="M1100.91,-123.851C1188.36,-117.784 1331.48,-114.392 1450.84,-142.5 1476.66,-148.582 1503.75,-161.419 1523.92,-172.429"/>
<polygon fill="midnightblue" stroke="midnightblue" points="1100.51,-120.371 1090.79,-124.583 1101.02,-127.353 1100.51,-120.371"/>
</g>
</g>
</svg>
        <g id="navigator" transform="translate(0 0)" fill="#404254">
                <rect fill="#f2f5e9" fill-opacity="0.5" stroke="#606060" stroke-width=".5" x="0" y="0" width="60" height="60"/>
                <use id="zoomplus" xlink:href="#zoomPlus" x="17" y="9" onmousedown="handleZoom(evt,'in')"/>
                <use id="zoomminus" xlink:href="#zoomMin" x="42" y="9" onmousedown="handleZoom(evt,'out')"/>
                <use id="reset" xlink:href="#resetDef" x="30" y="36" onmousedown="handleReset()"/>
                <g id="arrowUp" xlink:href="#dirArrow" transform="translate(30 24)" onmousedown="handlePan(0,-1)">
                  <use xlink:href="#rim" fill="#404040">
                        <set attributeName="fill" to="#808080" begin="arrowUp.mouseover" end="arrowUp.mouseout"/>
                  </use>
                  <path fill="none" stroke="white" stroke-width="1.5" d="M0,-3.0v7 M-2.5,-0.5L0,-3.0L2.5,-0.5"/>
                </g>
                <g id="arrowRight" xlink:href="#dirArrow" transform="rotate(90) translate(36 -43)" onmousedown="handlePan(1,0)">
                  <use xlink:href="#rim" fill="#404040">
                        <set attributeName="fill" to="#808080" begin="arrowRight.mouseover" end="arrowRight.mouseout"/>
                  </use>
                  <path fill="none" stroke="white" stroke-width="1.5" d="M0,-3.0v7 M-2.5,-0.5L0,-3.0L2.5,-0.5"/>
                </g>
                <g id="arrowDown" xlink:href="#dirArrow" transform="rotate(180) translate(-30 -48)" onmousedown="handlePan(0,1)">
                  <use xlink:href="#rim" fill="#404040">
                        <set attributeName="fill" to="#808080" begin="arrowDown.mouseover" end="arrowDown.mouseout"/>
                  </use>
                  <path fill="none" stroke="white" stroke-width="1.5" d="M0,-3.0v7 M-2.5,-0.5L0,-3.0L2.5,-0.5"/>
                </g>
                <g id="arrowLeft" xlink:href="#dirArrow" transform="rotate(270) translate(-36 17)" onmousedown="handlePan(-1,0)">
                  <use xlink:href="#rim" fill="#404040">
                        <set attributeName="fill" to="#808080" begin="arrowLeft.mouseover" end="arrowLeft.mouseout"/>
                  </use>
                  <path fill="none" stroke="white" stroke-width="1.5" d="M0,-3.0v7 M-2.5,-0.5L0,-3.0L2.5,-0.5"/>
                </g>
        </g>
        <svg viewBox="0 0 15 15" width="100%" height="30px" preserveAspectRatio="xMaxYMin meet">
         <g id="arrow_out" transform="scale(0.3 0.3)">
          <a xlink:href="struct_tomographer_1_1_uniform_bins_histogram_with_error_bars__inherit__graph_org.svg" target="_base">
           <rect id="button" ry="5" rx="5" y="6" x="6" height="38" width="38"
                fill="#f2f5e9" fill-opacity="0.5" stroke="#606060" stroke-width="1.0"/>
           <path id="arrow"
             d="M 11.500037,31.436501 C 11.940474,20.09759 22.043105,11.32322 32.158766,21.979434 L 37.068811,17.246167 C 37.068811,17.246167 37.088388,32 37.088388,32 L 22.160133,31.978069 C 22.160133,31.978069 26.997745,27.140456 26.997745,27.140456 C 18.528582,18.264221 13.291696,25.230495 11.500037,31.436501 z"
             style="fill:#404040;"/>
          </a>
         </g>
        </svg>
</svg>
