<?xml version="1.0" encoding="UTF-8" standalone="no"?>
<!DOCTYPE svg PUBLIC "-//W3C//DTD SVG 1.1//EN"
 "http://www.w3.org/Graphics/SVG/1.1/DTD/svg11.dtd">
<!-- Generated by graphviz version 2.38.0 (20140413.2041)
 -->
<!-- Title: Tomographer::UniformBinsHistogram&lt; Scalar_, CountType_ &gt; Pages: 1 -->
<svg width="1699pt" height="355pt"
 viewBox="0.00 0.00 1698.58 355.00" xmlns="http://www.w3.org/2000/svg" xmlns:xlink="http://www.w3.org/1999/xlink">
<g id="graph0" class="graph" transform="scale(1 1) rotate(0) translate(4 351)">
<title>Tomographer::UniformBinsHistogram&lt; Scalar_, CountType_ &gt;</title>
<!-- Node1 -->
<g id="node1" class="node"><title>Node1</title>
<polygon fill="#bfbfbf" stroke="black" points="214.196,-147.5 214.196,-175.5 386.393,-175.5 386.393,-147.5 214.196,-147.5"/>
<text text-anchor="start" x="222.196" y="-163.5" font-family="Helvetica,sans-Serif" font-size="10.00">Tomographer::UniformBins</text>
<text text-anchor="middle" x="300.294" y="-153.5" font-family="Helvetica,sans-Serif" font-size="10.00">Histogram&lt; Scalar_, CountType_ &gt;</text>
</g>
<!-- Node3 -->
<g id="node3" class="node"><title>Node3</title>
<g id="a_node3"><a xlink:href="struct_tomographer_1_1_uniform_bins_histogram_with_error_bars.html" target="_top" xlink:title="Stores a histogram along with error bars. ">
<polygon fill="none" stroke="black" points="605.615,-171.5 605.615,-209.5 740.551,-209.5 740.551,-171.5 605.615,-171.5"/>
<text text-anchor="start" x="613.615" y="-197.5" font-family="Helvetica,sans-Serif" font-size="10.00">Tomographer::UniformBins</text>
<text text-anchor="start" x="613.615" y="-187.5" font-family="Helvetica,sans-Serif" font-size="10.00">HistogramWithErrorBars</text>
<text text-anchor="middle" x="673.083" y="-177.5" font-family="Helvetica,sans-Serif" font-size="10.00">&lt; Scalar_, CountType_ &gt;</text>
</a>
</g>
</g>
<!-- Node1&#45;&gt;Node3 -->
<g id="edge2" class="edge"><title>Node1&#45;&gt;Node3</title>
<path fill="none" stroke="midnightblue" d="M396.66,-169.868C399.265,-170.083 401.846,-170.294 404.393,-170.5 472.908,-176.05 551.337,-181.844 605.509,-185.758"/>
<polygon fill="midnightblue" stroke="midnightblue" points="396.777,-166.366 386.521,-169.024 396.196,-173.341 396.777,-166.366"/>
</g>
<!-- Node13 -->
<g id="node13" class="node"><title>Node13</title>
<g id="a_node13"><a xlink:href="struct_tomographer_1_1_uniform_bins_histogram.html" target="_top" xlink:title="Tomographer::UniformBins\lHistogram\&lt; SimpleNormalizedHistogram\lType::Scalar, double \&gt;">
<polygon fill="none" stroke="black" points="574.639,-307.5 574.639,-345.5 771.527,-345.5 771.527,-307.5 574.639,-307.5"/>
<text text-anchor="start" x="582.639" y="-333.5" font-family="Helvetica,sans-Serif" font-size="10.00">Tomographer::UniformBins</text>
<text text-anchor="start" x="582.639" y="-323.5" font-family="Helvetica,sans-Serif" font-size="10.00">Histogram&lt; SimpleNormalizedHistogram</text>
<text text-anchor="middle" x="673.083" y="-313.5" font-family="Helvetica,sans-Serif" font-size="10.00">Type::Scalar, double &gt;</text>
</a>
</g>
</g>
<!-- Node1&#45;&gt;Node13 -->
<g id="edge15" class="edge"><title>Node1&#45;&gt;Node13</title>
<path fill="none" stroke="orange" stroke-dasharray="5,2" d="M319.323,-183.478C338.294,-205.183 370.114,-237.767 404.393,-256.5 456.978,-285.238 521.88,-302.59 574.608,-312.829"/>
<polygon fill="orange" stroke="orange" points="321.864,-181.065 312.702,-175.744 316.546,-185.617 321.864,-181.065"/>
<text text-anchor="start" x="411.465" y="-320.5" font-family="Helvetica,sans-Serif" font-size="10.00"> &lt; SimpleNormalizedHistogram</text>
<text text-anchor="middle" x="480.516" y="-310.5" font-family="Helvetica,sans-Serif" font-size="10.00">Type::Scalar, double &gt;</text>
</g>
<!-- Node14 -->
<g id="node14" class="node"><title>Node14</title>
<g id="a_node14"><a xlink:href="struct_tomographer_1_1_uniform_bins_histogram.html" target="_top" xlink:title="Tomographer::UniformBins\lHistogram\&lt; HistogramType\l_::Scalar, RealAvgType \&gt;">
<polygon fill="none" stroke="black" points="604.365,-243.5 604.365,-281.5 741.801,-281.5 741.801,-243.5 604.365,-243.5"/>
<text text-anchor="start" x="612.365" y="-269.5" font-family="Helvetica,sans-Serif" font-size="10.00">Tomographer::UniformBins</text>
<text text-anchor="start" x="612.365" y="-259.5" font-family="Helvetica,sans-Serif" font-size="10.00">Histogram&lt; HistogramType</text>
<text text-anchor="middle" x="673.083" y="-249.5" font-family="Helvetica,sans-Serif" font-size="10.00">_::Scalar, RealAvgType &gt;</text>
</a>
</g>
</g>
<!-- Node1&#45;&gt;Node14 -->
<g id="edge17" class="edge"><title>Node1&#45;&gt;Node14</title>
<path fill="none" stroke="orange" stroke-dasharray="5,2" d="M360.568,-178.298C374.906,-182.327 390.191,-186.593 404.393,-190.5 472.371,-209.202 550.211,-230.078 604.364,-244.515"/>
<polygon fill="orange" stroke="orange" points="361.392,-174.894 350.818,-175.554 359.496,-181.633 361.392,-174.894"/>
<text text-anchor="start" x="420.345" y="-244.5" font-family="Helvetica,sans-Serif" font-size="10.00"> &lt; HistogramType_::Scalar,</text>
<text text-anchor="middle" x="480.516" y="-234.5" font-family="Helvetica,sans-Serif" font-size="10.00"> RealAvgType &gt;</text>
</g>
<!-- Node15 -->
<g id="node15" class="node"><title>Node15</title>
<g id="a_node15"><a xlink:href="struct_tomographer_1_1_uniform_bins_histogram.html" target="_top" xlink:title="Tomographer::UniformBins\lHistogram\&lt; HistogramType\l::Scalar, CountRealType \&gt;">
<polygon fill="none" stroke="black" points="604.365,-0.5 604.365,-38.5 741.801,-38.5 741.801,-0.5 604.365,-0.5"/>
<text text-anchor="start" x="612.365" y="-26.5" font-family="Helvetica,sans-Serif" font-size="10.00">Tomographer::UniformBins</text>
<text text-anchor="start" x="612.365" y="-16.5" font-family="Helvetica,sans-Serif" font-size="10.00">Histogram&lt; HistogramType</text>
<text text-anchor="middle" x="673.083" y="-6.5" font-family="Helvetica,sans-Serif" font-size="10.00">::Scalar, CountRealType &gt;</text>
</a>
</g>
</g>
<!-- Node1&#45;&gt;Node15 -->
<g id="edge19" class="edge"><title>Node1&#45;&gt;Node15</title>
<path fill="none" stroke="orange" stroke-dasharray="5,2" d="M317.904,-139.259C336.347,-116.32 368.316,-81.4408 404.393,-63.5 467.333,-32.2001 547.871,-22.4409 604.095,-19.7443"/>
<polygon fill="orange" stroke="orange" points="314.933,-137.377 311.518,-147.406 320.442,-141.695 314.933,-137.377"/>
<text text-anchor="start" x="423.125" y="-75.5" font-family="Helvetica,sans-Serif" font-size="10.00"> &lt; HistogramType::Scalar,</text>
<text text-anchor="middle" x="480.516" y="-65.5" font-family="Helvetica,sans-Serif" font-size="10.00"> CountRealType &gt;</text>
</g>
<!-- Node16 -->
<g id="node16" class="node"><title>Node16</title>
<g id="a_node16"><a xlink:href="struct_tomographer_1_1_uniform_bins_histogram.html" target="_top" xlink:title="Tomographer::UniformBins\lHistogram\&lt; typename ValueCalculator\l::ValueType, CountRealAvgType \&gt;">
<polygon fill="none" stroke="black" points="579.714,-57.5 579.714,-95.5 766.452,-95.5 766.452,-57.5 579.714,-57.5"/>
<text text-anchor="start" x="587.714" y="-83.5" font-family="Helvetica,sans-Serif" font-size="10.00">Tomographer::UniformBins</text>
<text text-anchor="start" x="587.714" y="-73.5" font-family="Helvetica,sans-Serif" font-size="10.00">Histogram&lt; typename ValueCalculator</text>
<text text-anchor="middle" x="673.083" y="-63.5" font-family="Helvetica,sans-Serif" font-size="10.00">::ValueType, CountRealAvgType &gt;</text>
</a>
</g>
</g>
<!-- Node1&#45;&gt;Node16 -->
<g id="edge21" class="edge"><title>Node1&#45;&gt;Node16</title>
<path fill="none" stroke="orange" stroke-dasharray="5,2" d="M337.22,-143.032C356.648,-133.766 381.327,-123.131 404.393,-116.5 461.408,-100.109 527.293,-90.1561 579.432,-84.2782"/>
<polygon fill="orange" stroke="orange" points="335.599,-139.928 328.135,-147.447 338.659,-146.224 335.599,-139.928"/>
<text text-anchor="start" x="404.393" y="-128.5" font-family="Helvetica,sans-Serif" font-size="10.00"> &lt; typename ValueCalculator</text>
<text text-anchor="middle" x="480.516" y="-118.5" font-family="Helvetica,sans-Serif" font-size="10.00">::ValueType, CountRealAvgType &gt;</text>
</g>
<!-- Node17 -->
<g id="node17" class="node"><title>Node17</title>
<g id="a_node17"><a xlink:href="struct_tomographer_1_1_uniform_bins_histogram.html" target="_top" xlink:title="Tomographer::UniformBins\lHistogram\&lt; NormalizedHistogram\lType::Scalar, CountRealType \&gt;">
<polygon fill="none" stroke="black" points="589.922,-114.5 589.922,-152.5 756.244,-152.5 756.244,-114.5 589.922,-114.5"/>
<text text-anchor="start" x="597.922" y="-140.5" font-family="Helvetica,sans-Serif" font-size="10.00">Tomographer::UniformBins</text>
<text text-anchor="start" x="597.922" y="-130.5" font-family="Helvetica,sans-Serif" font-size="10.00">Histogram&lt; NormalizedHistogram</text>
<text text-anchor="middle" x="673.083" y="-120.5" font-family="Helvetica,sans-Serif" font-size="10.00">Type::Scalar, CountRealType &gt;</text>
</a>
</g>
</g>
<!-- Node1&#45;&gt;Node17 -->
<g id="edge23" class="edge"><title>Node1&#45;&gt;Node17</title>
<path fill="none" stroke="orange" stroke-dasharray="5,2" d="M396.649,-151.179C399.257,-150.944 401.842,-150.717 404.393,-150.5 466.453,-145.221 536.735,-140.818 589.708,-137.816"/>
<polygon fill="orange" stroke="orange" points="396.134,-147.711 386.5,-152.121 396.781,-154.681 396.134,-147.711"/>
<text text-anchor="start" x="415.906" y="-162.5" font-family="Helvetica,sans-Serif" font-size="10.00"> &lt; NormalizedHistogramType</text>
<text text-anchor="middle" x="480.516" y="-152.5" font-family="Helvetica,sans-Serif" font-size="10.00">::Scalar, CountRealType &gt;</text>
</g>
<!-- Node2 -->
<g id="node2" class="node"><title>Node2</title>
<g id="a_node2"><a xlink:href="struct_tomographer_1_1_tools_1_1_eigen_aligned_operator_new_provider.html" target="_top" xlink:title="Provides correct operator&#45;new implementation for Eigen types via the NeedOwnOperatorNew mechanism...">
<polygon fill="none" stroke="black" points="0,-147.5 0,-175.5 177.196,-175.5 177.196,-147.5 0,-147.5"/>
<text text-anchor="start" x="8" y="-163.5" font-family="Helvetica,sans-Serif" font-size="10.00">Tomographer::Tools</text>
<text text-anchor="middle" x="88.5981" y="-153.5" font-family="Helvetica,sans-Serif" font-size="10.00">::EigenAlignedOperatorNewProvider</text>
</a>
</g>
</g>
<!-- Node2&#45;&gt;Node1 -->
<g id="edge1" class="edge"><title>Node2&#45;&gt;Node1</title>
<path fill="none" stroke="midnightblue" d="M187.6,-161.5C196.401,-161.5 205.266,-161.5 213.946,-161.5"/>
<polygon fill="midnightblue" stroke="midnightblue" points="187.313,-158 177.313,-161.5 187.313,-165 187.313,-158"/>
</g>
<!-- Node4 -->
<g id="node4" class="node"><title>Node4</title>
<g id="a_node4"><a xlink:href="struct_tomographer_1_1_uniform_bins_histogram_with_error_bars.html" target="_top" xlink:title="Tomographer::UniformBins\lHistogramWithErrorBars\l\&lt; SimpleNormalizedHistogramType\l::Scalar, double \&gt;">
<polygon fill="none" stroke="black" points="959.773,-298.5 959.773,-346.5 1132.78,-346.5 1132.78,-298.5 959.773,-298.5"/>
<text text-anchor="start" x="967.773" y="-334.5" font-family="Helvetica,sans-Serif" font-size="10.00">Tomographer::UniformBins</text>
<text text-anchor="start" x="967.773" y="-324.5" font-family="Helvetica,sans-Serif" font-size="10.00">HistogramWithErrorBars</text>
<text text-anchor="start" x="967.773" y="-314.5" font-family="Helvetica,sans-Serif" font-size="10.00">&lt; SimpleNormalizedHistogramType</text>
<text text-anchor="middle" x="1046.28" y="-304.5" font-family="Helvetica,sans-Serif" font-size="10.00">::Scalar, double &gt;</text>
</a>
</g>
</g>
<!-- Node3&#45;&gt;Node4 -->
<g id="edge3" class="edge"><title>Node3&#45;&gt;Node4</title>
<path fill="none" stroke="orange" stroke-dasharray="5,2" d="M737.542,-213.822C749.337,-219.435 761.187,-226.012 771.527,-233.5 781.213,-240.514 779.337,-247.242 789.527,-253.5 804.37,-262.615 891.214,-285.107 959.642,-301.951"/>
<polygon fill="orange" stroke="orange" points="738.677,-210.493 728.126,-209.529 735.773,-216.862 738.677,-210.493"/>
<text text-anchor="start" x="796.6" y="-309.5" font-family="Helvetica,sans-Serif" font-size="10.00"> &lt; SimpleNormalizedHistogram</text>
<text text-anchor="middle" x="865.65" y="-299.5" font-family="Helvetica,sans-Serif" font-size="10.00">Type::Scalar, double &gt;</text>
</g>
<!-- Node6 -->
<g id="node6" class="node"><title>Node6</title>
<g id="a_node6"><a xlink:href="struct_tomographer_1_1_uniform_bins_histogram_with_error_bars.html" target="_top" xlink:title="Tomographer::UniformBins\lHistogramWithErrorBars\l\&lt; HistogramType_::Scalar,\l RealAvgType \&gt;">
<polygon fill="none" stroke="black" points="978.809,-220.5 978.809,-268.5 1113.74,-268.5 1113.74,-220.5 978.809,-220.5"/>
<text text-anchor="start" x="986.809" y="-256.5" font-family="Helvetica,sans-Serif" font-size="10.00">Tomographer::UniformBins</text>
<text text-anchor="start" x="986.809" y="-246.5" font-family="Helvetica,sans-Serif" font-size="10.00">HistogramWithErrorBars</text>
<text text-anchor="start" x="986.809" y="-236.5" font-family="Helvetica,sans-Serif" font-size="10.00">&lt; HistogramType_::Scalar,</text>
<text text-anchor="middle" x="1046.28" y="-226.5" font-family="Helvetica,sans-Serif" font-size="10.00"> RealAvgType &gt;</text>
</a>
</g>
</g>
<!-- Node3&#45;&gt;Node6 -->
<g id="edge5" class="edge"><title>Node3&#45;&gt;Node6</title>
<path fill="none" stroke="orange" stroke-dasharray="5,2" d="M750.447,-203.368C763.476,-205.477 776.883,-207.595 789.527,-209.5 853.673,-219.166 927.044,-229.091 978.701,-235.892"/>
<polygon fill="orange" stroke="orange" points="751.008,-199.913 740.575,-201.76 749.882,-206.822 751.008,-199.913"/>
<text text-anchor="start" x="805.479" y="-243.5" font-family="Helvetica,sans-Serif" font-size="10.00"> &lt; HistogramType_::Scalar,</text>
<text text-anchor="middle" x="865.65" y="-233.5" font-family="Helvetica,sans-Serif" font-size="10.00"> RealAvgType &gt;</text>
</g>
<!-- Node10 -->
<g id="node10" class="node"><title>Node10</title>
<g id="a_node10"><a xlink:href="struct_tomographer_1_1_uniform_bins_histogram_with_error_bars.html" target="_top" xlink:title="Tomographer::UniformBins\lHistogramWithErrorBars\l\&lt; HistogramType::Scalar,\l CountRealType \&gt;">
<polygon fill="none" stroke="black" points="978.809,-15.5 978.809,-63.5 1113.74,-63.5 1113.74,-15.5 978.809,-15.5"/>
<text text-anchor="start" x="986.809" y="-51.5" font-family="Helvetica,sans-Serif" font-size="10.00">Tomographer::UniformBins</text>
<text text-anchor="start" x="986.809" y="-41.5" font-family="Helvetica,sans-Serif" font-size="10.00">HistogramWithErrorBars</text>
<text text-anchor="start" x="986.809" y="-31.5" font-family="Helvetica,sans-Serif" font-size="10.00">&lt; HistogramType::Scalar,</text>
<text text-anchor="middle" x="1046.28" y="-21.5" font-family="Helvetica,sans-Serif" font-size="10.00"> CountRealType &gt;</text>
</a>
</g>
</g>
<!-- Node3&#45;&gt;Node10 -->
<g id="edge10" class="edge"><title>Node3&#45;&gt;Node10</title>
<path fill="none" stroke="orange" stroke-dasharray="5,2" d="M749.857,-176.496C757.87,-172.638 765.336,-167.732 771.527,-161.5 791.748,-141.143 768.716,-119.254 789.527,-99.5 816.403,-73.9896 912.208,-56.6898 978.605,-47.4558"/>
<polygon fill="orange" stroke="orange" points="748.452,-173.29 740.618,-180.423 751.19,-179.733 748.452,-173.29"/>
<text text-anchor="start" x="808.26" y="-111.5" font-family="Helvetica,sans-Serif" font-size="10.00"> &lt; HistogramType::Scalar,</text>
<text text-anchor="middle" x="865.65" y="-101.5" font-family="Helvetica,sans-Serif" font-size="10.00"> CountRealType &gt;</text>
</g>
<!-- Node11 -->
<g id="node11" class="node"><title>Node11</title>
<g id="a_node11"><a xlink:href="struct_tomographer_1_1_uniform_bins_histogram_with_error_bars.html" target="_top" xlink:title="Tomographer::UniformBins\lHistogramWithErrorBars\l\&lt; typename ValueCalculator\l::ValueType, CountRealAvgType \&gt;">
<polygon fill="none" stroke="black" points="962.154,-82.5 962.154,-130.5 1130.4,-130.5 1130.4,-82.5 962.154,-82.5"/>
<text text-anchor="start" x="970.154" y="-118.5" font-family="Helvetica,sans-Serif" font-size="10.00">Tomographer::UniformBins</text>
<text text-anchor="start" x="970.154" y="-108.5" font-family="Helvetica,sans-Serif" font-size="10.00">HistogramWithErrorBars</text>
<text text-anchor="start" x="970.154" y="-98.5" font-family="Helvetica,sans-Serif" font-size="10.00">&lt; typename ValueCalculator</text>
<text text-anchor="middle" x="1046.28" y="-88.5" font-family="Helvetica,sans-Serif" font-size="10.00">::ValueType, CountRealAvgType &gt;</text>
</a>
</g>
</g>
<!-- Node3&#45;&gt;Node11 -->
<g id="edge12" class="edge"><title>Node3&#45;&gt;Node11</title>
<path fill="none" stroke="orange" stroke-dasharray="5,2" d="M748.857,-168.516C756.524,-166.181 764.189,-163.814 771.527,-161.5 779.57,-158.964 781.368,-157.631 789.527,-155.5 846.5,-140.617 911.703,-128.194 962.014,-119.581"/>
<polygon fill="orange" stroke="orange" points="747.725,-165.202 739.168,-171.45 749.754,-171.902 747.725,-165.202"/>
<text text-anchor="start" x="789.527" y="-167.5" font-family="Helvetica,sans-Serif" font-size="10.00"> &lt; typename ValueCalculator</text>
<text text-anchor="middle" x="865.65" y="-157.5" font-family="Helvetica,sans-Serif" font-size="10.00">::ValueType, CountRealAvgType &gt;</text>
</g>
<!-- Node12 -->
<g id="node12" class="node"><title>Node12</title>
<g id="a_node12"><a xlink:href="struct_tomographer_1_1_uniform_bins_histogram_with_error_bars.html" target="_top" xlink:title="Tomographer::UniformBins\lHistogramWithErrorBars\l\&lt; NormalizedHistogramType\l::Scalar, CountRealType \&gt;">
<polygon fill="none" stroke="black" points="975.057,-149.5 975.057,-197.5 1117.5,-197.5 1117.5,-149.5 975.057,-149.5"/>
<text text-anchor="start" x="983.057" y="-185.5" font-family="Helvetica,sans-Serif" font-size="10.00">Tomographer::UniformBins</text>
<text text-anchor="start" x="983.057" y="-175.5" font-family="Helvetica,sans-Serif" font-size="10.00">HistogramWithErrorBars</text>
<text text-anchor="start" x="983.057" y="-165.5" font-family="Helvetica,sans-Serif" font-size="10.00">&lt; NormalizedHistogramType</text>
<text text-anchor="middle" x="1046.28" y="-155.5" font-family="Helvetica,sans-Serif" font-size="10.00">::Scalar, CountRealType &gt;</text>
</a>
</g>
</g>
<!-- Node3&#45;&gt;Node12 -->
<g id="edge13" class="edge"><title>Node3&#45;&gt;Node12</title>
<path fill="none" stroke="orange" stroke-dasharray="5,2" d="M751.197,-186.968C817.078,-183.951 911.061,-179.647 974.921,-176.722"/>
<polygon fill="orange" stroke="orange" points="750.703,-183.487 740.874,-187.441 751.023,-190.48 750.703,-183.487"/>
<text text-anchor="start" x="801.041" y="-197.5" font-family="Helvetica,sans-Serif" font-size="10.00"> &lt; NormalizedHistogramType</text>
<text text-anchor="middle" x="865.65" y="-187.5" font-family="Helvetica,sans-Serif" font-size="10.00">::Scalar, CountRealType &gt;</text>
</g>
<!-- Node5 -->
<g id="node5" class="node"><title>Node5</title>
<g id="a_node5"><a xlink:href="struct_tomographer_1_1_averaged_histogram.html" target="_top" xlink:title="Tomographer::AveragedHistogram\l\&lt; SimpleNormalizedHistogramType,\l double \&gt;">
<polygon fill="none" stroke="black" points="1514.79,-285.5 1514.79,-323.5 1690.58,-323.5 1690.58,-285.5 1514.79,-285.5"/>
<text text-anchor="start" x="1522.79" y="-311.5" font-family="Helvetica,sans-Serif" font-size="10.00">Tomographer::AveragedHistogram</text>
<text text-anchor="start" x="1522.79" y="-301.5" font-family="Helvetica,sans-Serif" font-size="10.00">&lt; SimpleNormalizedHistogramType,</text>
<text text-anchor="middle" x="1602.69" y="-291.5" font-family="Helvetica,sans-Serif" font-size="10.00"> double &gt;</text>
</a>
</g>
</g>
<!-- Node4&#45;&gt;Node5 -->
<g id="edge4" class="edge"><title>Node4&#45;&gt;Node5</title>
<path fill="none" stroke="midnightblue" d="M1143.06,-319.711C1234.07,-317.014 1374.76,-312.727 1496.79,-308.5 1502.62,-308.298 1508.63,-308.084 1514.69,-307.864"/>
<polygon fill="midnightblue" stroke="midnightblue" points="1142.93,-316.213 1133.04,-320.007 1143.14,-323.21 1142.93,-316.213"/>
</g>
<!-- Node7 -->
<g id="node7" class="node"><title>Node7</title>
<g id="a_node7"><a xlink:href="struct_tomographer_1_1_averaged_histogram.html" target="_top" xlink:title="Combines several histograms (with same parameters) into an averaged histogram. ">
<polygon fill="none" stroke="black" points="1169.78,-230.5 1169.78,-258.5 1340.69,-258.5 1340.69,-230.5 1169.78,-230.5"/>
<text text-anchor="start" x="1177.78" y="-246.5" font-family="Helvetica,sans-Serif" font-size="10.00">Tomographer::AveragedHistogram</text>
<text text-anchor="middle" x="1255.24" y="-236.5" font-family="Helvetica,sans-Serif" font-size="10.00">&lt; HistogramType_, RealAvgType &gt;</text>
</a>
</g>
</g>
<!-- Node6&#45;&gt;Node7 -->
<g id="edge6" class="edge"><title>Node6&#45;&gt;Node7</title>
<path fill="none" stroke="midnightblue" d="M1124.03,-244.5C1138.86,-244.5 1154.49,-244.5 1169.56,-244.5"/>
<polygon fill="midnightblue" stroke="midnightblue" points="1123.9,-241 1113.9,-244.5 1123.9,-248 1123.9,-241"/>
</g>
<!-- Node7&#45;&gt;Node5 -->
<g id="edge8" class="edge"><title>Node7&#45;&gt;Node5</title>
<path fill="none" stroke="orange" stroke-dasharray="5,2" d="M1346,-260.285C1350.29,-261.035 1354.54,-261.776 1358.69,-262.5 1410.36,-271.504 1468.22,-281.507 1514.51,-289.493"/>
<polygon fill="orange" stroke="orange" points="1346.39,-256.8 1335.94,-258.524 1345.18,-263.695 1346.39,-256.8"/>
<text text-anchor="start" x="1358.69" y="-298.5" font-family="Helvetica,sans-Serif" font-size="10.00"> &lt; SimpleNormalizedHistogram</text>
<text text-anchor="middle" x="1427.74" y="-288.5" font-family="Helvetica,sans-Serif" font-size="10.00">Type, double &gt;</text>
</g>
<!-- Node8 -->
<g id="node8" class="node"><title>Node8</title>
<g id="a_node8"><a xlink:href="struct_tomographer_1_1_averaged_histogram.html" target="_top" xlink:title="Tomographer::AveragedHistogram\l\&lt; NormalizedHistogramType,\l CountRealType \&gt;">
<polygon fill="none" stroke="black" points="1518.35,-205.5 1518.35,-243.5 1687.02,-243.5 1687.02,-205.5 1518.35,-205.5"/>
<text text-anchor="start" x="1526.35" y="-231.5" font-family="Helvetica,sans-Serif" font-size="10.00">Tomographer::AveragedHistogram</text>
<text text-anchor="start" x="1526.35" y="-221.5" font-family="Helvetica,sans-Serif" font-size="10.00">&lt; NormalizedHistogramType,</text>
<text text-anchor="middle" x="1602.69" y="-211.5" font-family="Helvetica,sans-Serif" font-size="10.00"> CountRealType &gt;</text>
</a>
</g>
</g>
<!-- Node7&#45;&gt;Node8 -->
<g id="edge7" class="edge"><title>Node7&#45;&gt;Node8</title>
<path fill="none" stroke="orange" stroke-dasharray="5,2" d="M1351.03,-239.012C1403.31,-235.985 1467.65,-232.26 1518.05,-229.342"/>
<polygon fill="orange" stroke="orange" points="1350.52,-235.535 1340.74,-239.607 1350.93,-242.524 1350.52,-235.535"/>
<text text-anchor="start" x="1361.74" y="-250.5" font-family="Helvetica,sans-Serif" font-size="10.00"> &lt; NormalizedHistogramType,</text>
<text text-anchor="middle" x="1427.74" y="-240.5" font-family="Helvetica,sans-Serif" font-size="10.00"> CountRealType &gt;</text>
</g>
<!-- Node9 -->
<g id="node9" class="node"><title>Node9</title>
<g id="a_node9"><a xlink:href="struct_tomographer_1_1_averaged_histogram.html" target="_top" xlink:title="Tomographer::AveragedHistogram\l\&lt; HistogramType, CountRealType \&gt;">
<polygon fill="none" stroke="black" points="1515.2,-112.5 1515.2,-140.5 1690.18,-140.5 1690.18,-112.5 1515.2,-112.5"/>
<text text-anchor="start" x="1523.2" y="-128.5" font-family="Helvetica,sans-Serif" font-size="10.00">Tomographer::AveragedHistogram</text>
<text text-anchor="middle" x="1602.69" y="-118.5" font-family="Helvetica,sans-Serif" font-size="10.00">&lt; HistogramType, CountRealType &gt;</text>
</a>
</g>
</g>
<!-- Node7&#45;&gt;Node9 -->
<g id="edge9" class="edge"><title>Node7&#45;&gt;Node9</title>
<path fill="none" stroke="orange" stroke-dasharray="5,2" d="M1304.37,-226.838C1321.49,-220.632 1340.92,-213.67 1358.69,-207.5 1428.43,-183.29 1509.9,-156.419 1558.56,-140.518"/>
<polygon fill="orange" stroke="orange" points="1302.79,-223.688 1294.59,-230.394 1305.19,-230.267 1302.79,-223.688"/>
<text text-anchor="start" x="1362.02" y="-219.5" font-family="Helvetica,sans-Serif" font-size="10.00"> &lt; HistogramType, CountReal</text>
<text text-anchor="middle" x="1427.74" y="-209.5" font-family="Helvetica,sans-Serif" font-size="10.00">Type &gt;</text>
</g>
<!-- Node10&#45;&gt;Node9 -->
<g id="edge11" class="edge"><title>Node10&#45;&gt;Node9</title>
<path fill="none" stroke="midnightblue" d="M1123.84,-51.5151C1226.29,-67.5918 1407.49,-96.0267 1514.9,-112.881"/>
<polygon fill="midnightblue" stroke="midnightblue" points="1124.3,-48.0437 1113.88,-49.951 1123.21,-54.959 1124.3,-48.0437"/>
</g>
<!-- Node12&#45;&gt;Node8 -->
<g id="edge14" class="edge"><title>Node12&#45;&gt;Node8</title>
<path fill="none" stroke="midnightblue" d="M1128.04,-166.474C1218.76,-160.57 1369.92,-156.724 1496.79,-182.5 1519.67,-187.148 1543.94,-196.55 1563.37,-205.282"/>
<polygon fill="midnightblue" stroke="midnightblue" points="1127.56,-162.998 1117.82,-167.164 1128.04,-169.982 1127.56,-162.998"/>
</g>
<!-- Node13&#45;&gt;Node4 -->
<g id="edge16" class="edge"><title>Node13&#45;&gt;Node4</title>
<path fill="none" stroke="midnightblue" d="M781.678,-325.341C838.316,-324.73 906.801,-323.992 959.768,-323.421"/>
<polygon fill="midnightblue" stroke="midnightblue" points="781.571,-321.841 771.61,-325.449 781.647,-328.841 781.571,-321.841"/>
</g>
<!-- Node14&#45;&gt;Node6 -->
<g id="edge18" class="edge"><title>Node14&#45;&gt;Node6</title>
<path fill="none" stroke="midnightblue" d="M736.864,-284.526C753.751,-289.472 772.154,-293.995 789.527,-296.5 856.5,-306.157 875.934,-312.109 941.773,-296.5 945.014,-295.732 972.628,-281.829 998.516,-268.593"/>
<polygon fill="midnightblue" stroke="midnightblue" points="737.701,-281.123 727.116,-281.577 735.674,-287.823 737.701,-281.123"/>
</g>
<!-- Node15&#45;&gt;Node10 -->
<g id="edge20" class="edge"><title>Node15&#45;&gt;Node10</title>
<path fill="none" stroke="midnightblue" d="M752.265,-23.7124C819.36,-27.3276 915.016,-32.4815 978.563,-35.9055"/>
<polygon fill="midnightblue" stroke="midnightblue" points="752.34,-20.2115 742.166,-23.1683 751.963,-27.2014 752.34,-20.2115"/>
</g>
<!-- Node16&#45;&gt;Node11 -->
<g id="edge22" class="edge"><title>Node16&#45;&gt;Node11</title>
<path fill="none" stroke="midnightblue" d="M757.607,-55.5999C811.433,-45.8912 882.229,-40.246 941.773,-59.5 951.163,-62.5362 951.123,-67.7518 959.773,-72.5 966.075,-75.9589 972.804,-79.2524 979.614,-82.3317"/>
<polygon fill="midnightblue" stroke="midnightblue" points="756.939,-52.164 747.76,-57.455 758.235,-59.043 756.939,-52.164"/>
</g>
<!-- Node17&#45;&gt;Node12 -->
<g id="edge24" class="edge"><title>Node17&#45;&gt;Node12</title>
<path fill="none" stroke="midnightblue" d="M766.379,-117.441C818.884,-111.736 885.243,-110.384 941.773,-127.5 950.976,-130.286 951.26,-135.032 959.773,-139.5 966.422,-142.989 973.511,-146.342 980.655,-149.493"/>
<polygon fill="midnightblue" stroke="midnightblue" points="765.937,-113.968 756.406,-118.594 766.742,-120.922 765.937,-113.968"/>
</g>
</g>
</svg>
