<?xml version="1.0" encoding="UTF-8" standalone="no"?>
<!DOCTYPE svg PUBLIC "-//W3C//DTD SVG 1.1//EN"
 "http://www.w3.org/Graphics/SVG/1.1/DTD/svg11.dtd">
<!-- Generated by graphviz version 2.38.0 (20140413.2041)
 -->
<!-- Title: Tomographer::Tools::EigenAlignedOperatorNewProvider Pages: 1 -->
<svg width="1735pt" height="866pt"
 viewBox="0.00 0.00 1735.22 865.74" xmlns="http://www.w3.org/2000/svg" xmlns:xlink="http://www.w3.org/1999/xlink">
<g id="graph0" class="graph" transform="scale(1 1) rotate(0) translate(4 861.741)">
<title>Tomographer::Tools::EigenAlignedOperatorNewProvider</title>
<!-- Node1 -->
<g id="node1" class="node"><title>Node1</title>
<polygon fill="#bfbfbf" stroke="black" points="0,-428.241 0,-456.241 177.196,-456.241 177.196,-428.241 0,-428.241"/>
<text text-anchor="start" x="8" y="-444.241" font-family="Helvetica,sans-Serif" font-size="10.00">Tomographer::Tools</text>
<text text-anchor="middle" x="88.5981" y="-434.241" font-family="Helvetica,sans-Serif" font-size="10.00">::EigenAlignedOperatorNewProvider</text>
</g>
<!-- Node2 -->
<g id="node2" class="node"><title>Node2</title>
<g id="a_node2"><a xlink:href="class_tomographer_1_1_binning_analysis.html" target="_top" xlink:title="Tomographer::BinningAnalysis\l\&lt; BinningAnalysisParamsType,\l LoggerType \&gt;">
<polygon fill="none" stroke="black" points="632.659,-797.241 632.659,-835.241 786.789,-835.241 786.789,-797.241 632.659,-797.241"/>
<text text-anchor="start" x="640.659" y="-823.241" font-family="Helvetica,sans-Serif" font-size="10.00">Tomographer::BinningAnalysis</text>
<text text-anchor="start" x="640.659" y="-813.241" font-family="Helvetica,sans-Serif" font-size="10.00">&lt; BinningAnalysisParamsType,</text>
<text text-anchor="middle" x="709.724" y="-803.241" font-family="Helvetica,sans-Serif" font-size="10.00"> LoggerType &gt;</text>
</a>
</g>
</g>
<!-- Node1&#45;&gt;Node2 -->
<g id="edge1" class="edge"><title>Node1&#45;&gt;Node2</title>
<path fill="none" stroke="midnightblue" d="M90.159,-466.547C93.0826,-530.415 110.649,-703.4 214.196,-781.241 246.79,-805.743 502.104,-813.148 632.549,-815.343"/>
<polygon fill="midnightblue" stroke="midnightblue" points="93.646,-466.13 89.7754,-456.267 86.6509,-466.391 93.646,-466.13"/>
</g>
<!-- Node3 -->
<g id="node3" class="node"><title>Node3</title>
<g id="a_node3"><a xlink:href="class_tomographer_1_1_binning_analysis.html" target="_top" xlink:title="Simple binning analysis for determining error bars. ">
<polygon fill="none" stroke="black" points="243.078,-829.241 243.078,-857.241 394.151,-857.241 394.151,-829.241 243.078,-829.241"/>
<text text-anchor="start" x="251.078" y="-845.241" font-family="Helvetica,sans-Serif" font-size="10.00">Tomographer::BinningAnalysis</text>
<text text-anchor="middle" x="318.615" y="-835.241" font-family="Helvetica,sans-Serif" font-size="10.00">&lt; Params, LoggerType_ &gt;</text>
</a>
</g>
</g>
<!-- Node1&#45;&gt;Node3 -->
<g id="edge2" class="edge"><title>Node1&#45;&gt;Node3</title>
<path fill="none" stroke="midnightblue" d="M88.6952,-466.871C87.6846,-533.355 94.5522,-717.929 195.196,-814.241 208.136,-826.624 225.346,-834.049 242.764,-838.422"/>
<polygon fill="midnightblue" stroke="midnightblue" points="92.2015,-466.636 88.9331,-456.558 85.2033,-466.474 92.2015,-466.636"/>
</g>
<!-- Node4 -->
<g id="node4" class="node"><title>Node4</title>
<g id="a_node4"><a xlink:href="class_tomographer_1_1_dense_d_m_1_1_indep_meas_l_l_h.html" target="_top" xlink:title="C++ types and functions for calculating the log&#45;likelihood for POVM effects which can be written as a...">
<polygon fill="none" stroke="black" points="214.196,-713.241 214.196,-771.241 423.033,-771.241 423.033,-713.241 214.196,-713.241"/>
<text text-anchor="start" x="222.196" y="-759.241" font-family="Helvetica,sans-Serif" font-size="10.00">Tomographer::DenseDM</text>
<text text-anchor="start" x="222.196" y="-749.241" font-family="Helvetica,sans-Serif" font-size="10.00">::IndepMeasLLH&lt; DMTypes</text>
<text text-anchor="start" x="222.196" y="-739.241" font-family="Helvetica,sans-Serif" font-size="10.00">_, LLHValueType_, IntFreqType</text>
<text text-anchor="start" x="222.196" y="-729.241" font-family="Helvetica,sans-Serif" font-size="10.00">_, FixedMaxParamList_, UseNMeasAmplify</text>
<text text-anchor="middle" x="318.615" y="-719.241" font-family="Helvetica,sans-Serif" font-size="10.00">Factor_ &gt;</text>
</a>
</g>
</g>
<!-- Node1&#45;&gt;Node4 -->
<g id="edge4" class="edge"><title>Node1&#45;&gt;Node4</title>
<path fill="none" stroke="midnightblue" d="M92.9191,-466.312C101.078,-516.445 126.682,-632.82 195.196,-698.241 201.158,-703.934 207.909,-708.897 215.102,-713.225"/>
<polygon fill="midnightblue" stroke="midnightblue" points="96.3731,-465.745 91.3947,-456.392 89.4543,-466.808 96.3731,-465.745"/>
</g>
<!-- Node5 -->
<g id="node5" class="node"><title>Node5</title>
<g id="a_node5"><a xlink:href="struct_tomographer_1_1_uniform_bins_histogram.html" target="_top" xlink:title="Stores a histogram. ">
<polygon fill="none" stroke="black" points="232.517,-385.241 232.517,-413.241 404.713,-413.241 404.713,-385.241 232.517,-385.241"/>
<text text-anchor="start" x="240.517" y="-401.241" font-family="Helvetica,sans-Serif" font-size="10.00">Tomographer::UniformBins</text>
<text text-anchor="middle" x="318.615" y="-391.241" font-family="Helvetica,sans-Serif" font-size="10.00">Histogram&lt; Scalar_, CountType_ &gt;</text>
</a>
</g>
</g>
<!-- Node1&#45;&gt;Node5 -->
<g id="edge5" class="edge"><title>Node1&#45;&gt;Node5</title>
<path fill="none" stroke="midnightblue" d="M173.932,-426.337C196.711,-422.041 221.188,-417.425 243.37,-413.242"/>
<polygon fill="midnightblue" stroke="midnightblue" points="173.122,-422.928 163.944,-428.221 174.419,-429.807 173.122,-422.928"/>
</g>
<!-- Node6 -->
<g id="node6" class="node"><title>Node6</title>
<g id="a_node6"><a xlink:href="struct_tomographer_1_1_uniform_bins_histogram_with_error_bars.html" target="_top" xlink:title="Stores a histogram along with error bars. ">
<polygon fill="none" stroke="black" points="642.256,-354.241 642.256,-392.241 777.191,-392.241 777.191,-354.241 642.256,-354.241"/>
<text text-anchor="start" x="650.256" y="-380.241" font-family="Helvetica,sans-Serif" font-size="10.00">Tomographer::UniformBins</text>
<text text-anchor="start" x="650.256" y="-370.241" font-family="Helvetica,sans-Serif" font-size="10.00">HistogramWithErrorBars</text>
<text text-anchor="middle" x="709.724" y="-360.241" font-family="Helvetica,sans-Serif" font-size="10.00">&lt; Scalar_, CountType_ &gt;</text>
</a>
</g>
</g>
<!-- Node1&#45;&gt;Node6 -->
<g id="edge29" class="edge"><title>Node1&#45;&gt;Node6</title>
<path fill="none" stroke="midnightblue" d="M120.586,-422.686C145.174,-407.893 180.84,-388.011 214.196,-375.241 311.077,-338.151 338.029,-332.55 441.033,-320.241 508.22,-312.212 527.175,-305.792 593.279,-320.241 623.011,-326.74 654.235,-341.633 676.703,-353.982"/>
<polygon fill="midnightblue" stroke="midnightblue" points="118.451,-419.888 111.733,-428.081 122.094,-425.866 118.451,-419.888"/>
</g>
<!-- Node7 -->
<g id="node7" class="node"><title>Node7</title>
<g id="a_node7"><a xlink:href="struct_tomographer_1_1_uniform_bins_histogram_with_error_bars.html" target="_top" xlink:title="Tomographer::UniformBins\lHistogramWithErrorBars\l\&lt; SimpleNormalizedHistogramType\l::Scalar, double \&gt;">
<polygon fill="none" stroke="black" points="996.414,-570.241 996.414,-618.241 1169.42,-618.241 1169.42,-570.241 996.414,-570.241"/>
<text text-anchor="start" x="1004.41" y="-606.241" font-family="Helvetica,sans-Serif" font-size="10.00">Tomographer::UniformBins</text>
<text text-anchor="start" x="1004.41" y="-596.241" font-family="Helvetica,sans-Serif" font-size="10.00">HistogramWithErrorBars</text>
<text text-anchor="start" x="1004.41" y="-586.241" font-family="Helvetica,sans-Serif" font-size="10.00">&lt; SimpleNormalizedHistogramType</text>
<text text-anchor="middle" x="1082.92" y="-576.241" font-family="Helvetica,sans-Serif" font-size="10.00">::Scalar, double &gt;</text>
</a>
</g>
</g>
<!-- Node1&#45;&gt;Node7 -->
<g id="edge40" class="edge"><title>Node1&#45;&gt;Node7</title>
<path fill="none" stroke="midnightblue" d="M94.7791,-466.41C106.424,-513.683 139.69,-616.933 214.196,-653.241 332.9,-711.087 676.956,-685.078 808.168,-670.241 881.685,-661.928 963.033,-637.264 1017.8,-618.265"/>
<polygon fill="midnightblue" stroke="midnightblue" points="98.132,-465.377 92.4423,-456.44 91.3167,-466.975 98.132,-465.377"/>
</g>
<!-- Node9 -->
<g id="node9" class="node"><title>Node9</title>
<g id="a_node9"><a xlink:href="struct_tomographer_1_1_uniform_bins_histogram_with_error_bars.html" target="_top" xlink:title="Tomographer::UniformBins\lHistogramWithErrorBars\l\&lt; HistogramType_::Scalar,\l RealAvgType \&gt;">
<polygon fill="none" stroke="black" points="1015.45,-498.241 1015.45,-546.241 1150.39,-546.241 1150.39,-498.241 1015.45,-498.241"/>
<text text-anchor="start" x="1023.45" y="-534.241" font-family="Helvetica,sans-Serif" font-size="10.00">Tomographer::UniformBins</text>
<text text-anchor="start" x="1023.45" y="-524.241" font-family="Helvetica,sans-Serif" font-size="10.00">HistogramWithErrorBars</text>
<text text-anchor="start" x="1023.45" y="-514.241" font-family="Helvetica,sans-Serif" font-size="10.00">&lt; HistogramType_::Scalar,</text>
<text text-anchor="middle" x="1082.92" y="-504.241" font-family="Helvetica,sans-Serif" font-size="10.00"> RealAvgType &gt;</text>
</a>
</g>
</g>
<!-- Node1&#45;&gt;Node9 -->
<g id="edge38" class="edge"><title>Node1&#45;&gt;Node9</title>
<path fill="none" stroke="midnightblue" d="M109.812,-463.64C132.852,-486.695 172.717,-522.698 214.196,-542.241 307.334,-586.123 338.612,-578.742 441.033,-589.241 569.442,-602.404 937.525,-597.461 978.414,-579.241 989.039,-574.506 986.915,-566.955 996.414,-560.241 1003.58,-555.178 1011.52,-550.56 1019.6,-546.424"/>
<polygon fill="midnightblue" stroke="midnightblue" points="112.169,-461.044 102.666,-456.36 107.174,-465.948 112.169,-461.044"/>
</g>
<!-- Node13 -->
<g id="node13" class="node"><title>Node13</title>
<g id="a_node13"><a xlink:href="struct_tomographer_1_1_uniform_bins_histogram_with_error_bars.html" target="_top" xlink:title="Tomographer::UniformBins\lHistogramWithErrorBars\l\&lt; HistogramType::Scalar,\l CountRealType \&gt;">
<polygon fill="none" stroke="black" points="1015.45,-289.241 1015.45,-337.241 1150.39,-337.241 1150.39,-289.241 1015.45,-289.241"/>
<text text-anchor="start" x="1023.45" y="-325.241" font-family="Helvetica,sans-Serif" font-size="10.00">Tomographer::UniformBins</text>
<text text-anchor="start" x="1023.45" y="-315.241" font-family="Helvetica,sans-Serif" font-size="10.00">HistogramWithErrorBars</text>
<text text-anchor="start" x="1023.45" y="-305.241" font-family="Helvetica,sans-Serif" font-size="10.00">&lt; HistogramType::Scalar,</text>
<text text-anchor="middle" x="1082.92" y="-295.241" font-family="Helvetica,sans-Serif" font-size="10.00"> CountRealType &gt;</text>
</a>
</g>
</g>
<!-- Node1&#45;&gt;Node13 -->
<g id="edge37" class="edge"><title>Node1&#45;&gt;Node13</title>
<path fill="none" stroke="midnightblue" d="M95.8783,-418.536C109.131,-373.903 144.626,-278.371 214.196,-239.241 329.257,-174.524 676.833,-235.885 808.168,-249.241 884.317,-256.985 904.284,-256.178 978.414,-275.241 992.967,-278.983 1008.33,-284.004 1022.63,-289.166"/>
<polygon fill="midnightblue" stroke="midnightblue" points="92.4894,-417.657 93.1136,-428.233 99.2212,-419.576 92.4894,-417.657"/>
</g>
<!-- Node14 -->
<g id="node14" class="node"><title>Node14</title>
<g id="a_node14"><a xlink:href="struct_tomographer_1_1_uniform_bins_histogram_with_error_bars.html" target="_top" xlink:title="Tomographer::UniformBins\lHistogramWithErrorBars\l\&lt; typename ValueCalculator\l::ValueType, CountRealAvgType \&gt;">
<polygon fill="none" stroke="black" points="998.794,-158.241 998.794,-206.241 1167.04,-206.241 1167.04,-158.241 998.794,-158.241"/>
<text text-anchor="start" x="1006.79" y="-194.241" font-family="Helvetica,sans-Serif" font-size="10.00">Tomographer::UniformBins</text>
<text text-anchor="start" x="1006.79" y="-184.241" font-family="Helvetica,sans-Serif" font-size="10.00">HistogramWithErrorBars</text>
<text text-anchor="start" x="1006.79" y="-174.241" font-family="Helvetica,sans-Serif" font-size="10.00">&lt; typename ValueCalculator</text>
<text text-anchor="middle" x="1082.92" y="-164.241" font-family="Helvetica,sans-Serif" font-size="10.00">::ValueType, CountRealAvgType &gt;</text>
</a>
</g>
</g>
<!-- Node1&#45;&gt;Node14 -->
<g id="edge41" class="edge"><title>Node1&#45;&gt;Node14</title>
<path fill="none" stroke="midnightblue" d="M91.5083,-417.869C97.5057,-360.419 121.537,-217.222 214.196,-162.241 344.839,-84.7218 807.95,-141.717 998.788,-169.426"/>
<polygon fill="midnightblue" stroke="midnightblue" points="87.9919,-417.879 90.5343,-428.165 94.9607,-418.539 87.9919,-417.879"/>
</g>
<!-- Node15 -->
<g id="node15" class="node"><title>Node15</title>
<g id="a_node15"><a xlink:href="struct_tomographer_1_1_uniform_bins_histogram_with_error_bars.html" target="_top" xlink:title="Tomographer::UniformBins\lHistogramWithErrorBars\l\&lt; NormalizedHistogramType\l::Scalar, CountRealType \&gt;">
<polygon fill="none" stroke="black" points="1011.7,-411.241 1011.7,-459.241 1154.14,-459.241 1154.14,-411.241 1011.7,-411.241"/>
<text text-anchor="start" x="1019.7" y="-447.241" font-family="Helvetica,sans-Serif" font-size="10.00">Tomographer::UniformBins</text>
<text text-anchor="start" x="1019.7" y="-437.241" font-family="Helvetica,sans-Serif" font-size="10.00">HistogramWithErrorBars</text>
<text text-anchor="start" x="1019.7" y="-427.241" font-family="Helvetica,sans-Serif" font-size="10.00">&lt; NormalizedHistogramType</text>
<text text-anchor="middle" x="1082.92" y="-417.241" font-family="Helvetica,sans-Serif" font-size="10.00">::Scalar, CountRealType &gt;</text>
</a>
</g>
</g>
<!-- Node1&#45;&gt;Node15 -->
<g id="edge39" class="edge"><title>Node1&#45;&gt;Node15</title>
<path fill="none" stroke="midnightblue" d="M170.12,-458.192C241.092,-471.392 347.463,-489.094 441.033,-496.241 575.215,-506.49 951.878,-489.566 978.414,-483.241 999.609,-478.189 1021.7,-468.616 1040,-459.341"/>
<polygon fill="midnightblue" stroke="midnightblue" points="170.385,-454.681 159.912,-456.279 169.096,-461.561 170.385,-454.681"/>
</g>
<!-- Node16 -->
<g id="node16" class="node"><title>Node16</title>
<g id="a_node16"><a xlink:href="struct_tomographer_1_1_uniform_bins_histogram.html" target="_top" xlink:title="Tomographer::UniformBins\lHistogram\&lt; SimpleNormalizedHistogram\lType::Scalar, double \&gt;">
<polygon fill="none" stroke="black" points="611.279,-622.241 611.279,-660.241 808.168,-660.241 808.168,-622.241 611.279,-622.241"/>
<text text-anchor="start" x="619.279" y="-648.241" font-family="Helvetica,sans-Serif" font-size="10.00">Tomographer::UniformBins</text>
<text text-anchor="start" x="619.279" y="-638.241" font-family="Helvetica,sans-Serif" font-size="10.00">Histogram&lt; SimpleNormalizedHistogram</text>
<text text-anchor="middle" x="709.724" y="-628.241" font-family="Helvetica,sans-Serif" font-size="10.00">Type::Scalar, double &gt;</text>
</a>
</g>
</g>
<!-- Node1&#45;&gt;Node16 -->
<g id="edge35" class="edge"><title>Node1&#45;&gt;Node16</title>
<path fill="none" stroke="midnightblue" d="M96.0786,-466.21C108.163,-505.667 138.23,-583.303 195.196,-617.241 262.959,-657.61 481.946,-653.676 611.036,-647.371"/>
<polygon fill="midnightblue" stroke="midnightblue" points="99.3704,-464.997 93.2013,-456.383 92.6524,-466.964 99.3704,-464.997"/>
</g>
<!-- Node17 -->
<g id="node17" class="node"><title>Node17</title>
<g id="a_node17"><a xlink:href="struct_tomographer_1_1_uniform_bins_histogram.html" target="_top" xlink:title="Tomographer::UniformBins\lHistogram\&lt; HistogramType\l_::Scalar, RealAvgType \&gt;">
<polygon fill="none" stroke="black" points="641.006,-526.241 641.006,-564.241 778.441,-564.241 778.441,-526.241 641.006,-526.241"/>
<text text-anchor="start" x="649.006" y="-552.241" font-family="Helvetica,sans-Serif" font-size="10.00">Tomographer::UniformBins</text>
<text text-anchor="start" x="649.006" y="-542.241" font-family="Helvetica,sans-Serif" font-size="10.00">Histogram&lt; HistogramType</text>
<text text-anchor="middle" x="709.724" y="-532.241" font-family="Helvetica,sans-Serif" font-size="10.00">_::Scalar, RealAvgType &gt;</text>
</a>
</g>
</g>
<!-- Node1&#45;&gt;Node17 -->
<g id="edge33" class="edge"><title>Node1&#45;&gt;Node17</title>
<path fill="none" stroke="midnightblue" d="M113.132,-462.772C133.382,-479.102 164.161,-500.872 195.196,-511.241 275.915,-538.209 520.865,-543.869 640.926,-544.999"/>
<polygon fill="midnightblue" stroke="midnightblue" points="115.327,-460.045 105.388,-456.376 110.869,-465.442 115.327,-460.045"/>
</g>
<!-- Node18 -->
<g id="node18" class="node"><title>Node18</title>
<g id="a_node18"><a xlink:href="struct_tomographer_1_1_uniform_bins_histogram.html" target="_top" xlink:title="Tomographer::UniformBins\lHistogram\&lt; HistogramType\l::Scalar, CountRealType \&gt;">
<polygon fill="none" stroke="black" points="641.006,-259.241 641.006,-297.241 778.441,-297.241 778.441,-259.241 641.006,-259.241"/>
<text text-anchor="start" x="649.006" y="-285.241" font-family="Helvetica,sans-Serif" font-size="10.00">Tomographer::UniformBins</text>
<text text-anchor="start" x="649.006" y="-275.241" font-family="Helvetica,sans-Serif" font-size="10.00">Histogram&lt; HistogramType</text>
<text text-anchor="middle" x="709.724" y="-265.241" font-family="Helvetica,sans-Serif" font-size="10.00">::Scalar, CountRealType &gt;</text>
</a>
</g>
</g>
<!-- Node1&#45;&gt;Node18 -->
<g id="edge32" class="edge"><title>Node1&#45;&gt;Node18</title>
<path fill="none" stroke="midnightblue" d="M106.363,-419.951C128.237,-392.388 169.078,-345.863 214.196,-319.241 361.55,-232.295 423.235,-233.329 593.279,-252.241 608.797,-253.967 625.276,-256.959 640.778,-260.314"/>
<polygon fill="midnightblue" stroke="midnightblue" points="103.333,-418.146 99.9465,-428.185 108.854,-422.449 103.333,-418.146"/>
</g>
<!-- Node19 -->
<g id="node19" class="node"><title>Node19</title>
<g id="a_node19"><a xlink:href="struct_tomographer_1_1_uniform_bins_histogram.html" target="_top" xlink:title="Tomographer::UniformBins\lHistogram\&lt; typename ValueCalculator\l::ValueType, CountRealAvgType \&gt;">
<polygon fill="none" stroke="black" points="616.355,-163.241 616.355,-201.241 803.092,-201.241 803.092,-163.241 616.355,-163.241"/>
<text text-anchor="start" x="624.355" y="-189.241" font-family="Helvetica,sans-Serif" font-size="10.00">Tomographer::UniformBins</text>
<text text-anchor="start" x="624.355" y="-179.241" font-family="Helvetica,sans-Serif" font-size="10.00">Histogram&lt; typename ValueCalculator</text>
<text text-anchor="middle" x="709.724" y="-169.241" font-family="Helvetica,sans-Serif" font-size="10.00">::ValueType, CountRealAvgType &gt;</text>
</a>
</g>
</g>
<!-- Node1&#45;&gt;Node19 -->
<g id="edge36" class="edge"><title>Node1&#45;&gt;Node19</title>
<path fill="none" stroke="midnightblue" d="M91.8496,-417.979C98.0049,-367.221 120.059,-250.312 195.196,-199.241 261.409,-154.236 487.24,-163.985 616.297,-173.831"/>
<polygon fill="midnightblue" stroke="midnightblue" points="88.3584,-417.707 90.7367,-428.031 95.3159,-418.477 88.3584,-417.707"/>
</g>
<!-- Node20 -->
<g id="node20" class="node"><title>Node20</title>
<g id="a_node20"><a xlink:href="struct_tomographer_1_1_uniform_bins_histogram.html" target="_top" xlink:title="Tomographer::UniformBins\lHistogram\&lt; NormalizedHistogram\lType::Scalar, CountRealType \&gt;">
<polygon fill="none" stroke="black" points="626.562,-411.241 626.562,-449.241 792.885,-449.241 792.885,-411.241 626.562,-411.241"/>
<text text-anchor="start" x="634.562" y="-437.241" font-family="Helvetica,sans-Serif" font-size="10.00">Tomographer::UniformBins</text>
<text text-anchor="start" x="634.562" y="-427.241" font-family="Helvetica,sans-Serif" font-size="10.00">Histogram&lt; NormalizedHistogram</text>
<text text-anchor="middle" x="709.724" y="-417.241" font-family="Helvetica,sans-Serif" font-size="10.00">Type::Scalar, CountRealType &gt;</text>
</a>
</g>
</g>
<!-- Node1&#45;&gt;Node20 -->
<g id="edge34" class="edge"><title>Node1&#45;&gt;Node20</title>
<path fill="none" stroke="midnightblue" d="M187.333,-440.347C308.467,-437.999 512.753,-434.039 626.318,-431.838"/>
<polygon fill="midnightblue" stroke="midnightblue" points="187.248,-436.847 177.318,-440.541 187.384,-443.846 187.248,-436.847"/>
</g>
<!-- Node21 -->
<g id="node21" class="node"><title>Node21</title>
<g id="a_node21"><a xlink:href="class_tomographer_1_1_value_histogram_m_h_r_w_stats_collector.html" target="_top" xlink:title="A StatsCollector which builds a histogram of values calculated with a ValueCalculator for each data s...">
<polygon fill="none" stroke="black" points="224.235,-67.2409 224.235,-105.241 412.994,-105.241 412.994,-67.2409 224.235,-67.2409"/>
<text text-anchor="start" x="232.235" y="-93.2409" font-family="Helvetica,sans-Serif" font-size="10.00">Tomographer::ValueHistogram</text>
<text text-anchor="start" x="232.235" y="-83.2409" font-family="Helvetica,sans-Serif" font-size="10.00">MHRWStatsCollector&lt; ValueCalculator</text>
<text text-anchor="middle" x="318.615" y="-73.2409" font-family="Helvetica,sans-Serif" font-size="10.00">_, LoggerType, HistogramType_ &gt;</text>
</a>
</g>
</g>
<!-- Node1&#45;&gt;Node21 -->
<g id="edge30" class="edge"><title>Node1&#45;&gt;Node21</title>
<path fill="none" stroke="midnightblue" d="M90.1613,-417.92C92.9016,-358.178 108.461,-203.076 195.196,-120.241 203.491,-112.319 213.467,-106.212 224.099,-101.511"/>
<polygon fill="midnightblue" stroke="midnightblue" points="86.6517,-418.114 89.7756,-428.238 93.6468,-418.375 86.6517,-418.114"/>
</g>
<!-- Node22 -->
<g id="node22" class="node"><title>Node22</title>
<g id="a_node22"><a xlink:href="class_tomographer_1_1_value_histogram_m_h_r_w_stats_collector.html" target="_top" xlink:title="Tomographer::ValueHistogram\lMHRWStatsCollector\&lt; ValueCalculator,\l LoggerType, BaseHistogramType \&gt;">
<polygon fill="none" stroke="black" points="614.229,-40.2409 614.229,-78.2409 805.219,-78.2409 805.219,-40.2409 614.229,-40.2409"/>
<text text-anchor="start" x="622.229" y="-66.2409" font-family="Helvetica,sans-Serif" font-size="10.00">Tomographer::ValueHistogram</text>
<text text-anchor="start" x="622.229" y="-56.2409" font-family="Helvetica,sans-Serif" font-size="10.00">MHRWStatsCollector&lt; ValueCalculator,</text>
<text text-anchor="middle" x="709.724" y="-46.2409" font-family="Helvetica,sans-Serif" font-size="10.00"> LoggerType, BaseHistogramType &gt;</text>
</a>
</g>
</g>
<!-- Node1&#45;&gt;Node22 -->
<g id="edge42" class="edge"><title>Node1&#45;&gt;Node22</title>
<path fill="none" stroke="midnightblue" d="M93.7456,-417.579C107.398,-339.668 153.549,-101.358 214.196,-57.2409 346.633,39.0983 556.27,-9.24088 654.531,-40.1412"/>
<polygon fill="midnightblue" stroke="midnightblue" points="90.2217,-417.418 91.9693,-427.868 97.1196,-418.609 90.2217,-417.418"/>
</g>
<!-- Node3&#45;&gt;Node2 -->
<g id="edge3" class="edge"><title>Node3&#45;&gt;Node2</title>
<path fill="none" stroke="orange" stroke-dasharray="5,2" d="M404.424,-837.356C472.362,-832.642 566.834,-826.087 632.419,-821.536"/>
<polygon fill="orange" stroke="orange" points="403.912,-833.883 394.178,-838.067 404.397,-840.866 403.912,-833.883"/>
<text text-anchor="start" x="446.702" y="-846.241" font-family="Helvetica,sans-Serif" font-size="10.00"> &lt; BinningAnalysisParamsType,</text>
<text text-anchor="middle" x="517.156" y="-836.241" font-family="Helvetica,sans-Serif" font-size="10.00"> LoggerType &gt;</text>
</g>
<!-- Node5&#45;&gt;Node6 -->
<g id="edge6" class="edge"><title>Node5&#45;&gt;Node6</title>
<path fill="none" stroke="midnightblue" d="M414.819,-390.302C423.678,-389.565 432.521,-388.865 441.033,-388.241 509.506,-383.222 587.941,-379.007 642.127,-376.336"/>
<polygon fill="midnightblue" stroke="midnightblue" points="414.497,-386.817 404.828,-391.148 415.088,-393.792 414.497,-386.817"/>
</g>
<!-- Node5&#45;&gt;Node16 -->
<g id="edge19" class="edge"><title>Node5&#45;&gt;Node16</title>
<path fill="none" stroke="orange" stroke-dasharray="5,2" d="M336.596,-421.683C358.305,-449.12 398.237,-495.558 441.033,-525.241 505.543,-569.984 590.068,-603.071 646.723,-622.214"/>
<polygon fill="orange" stroke="orange" points="339.116,-419.223 330.207,-413.488 333.595,-423.526 339.116,-419.223"/>
<text text-anchor="start" x="448.106" y="-613.241" font-family="Helvetica,sans-Serif" font-size="10.00"> &lt; SimpleNormalizedHistogram</text>
<text text-anchor="middle" x="517.156" y="-603.241" font-family="Helvetica,sans-Serif" font-size="10.00">Type::Scalar, double &gt;</text>
</g>
<!-- Node5&#45;&gt;Node17 -->
<g id="edge21" class="edge"><title>Node5&#45;&gt;Node17</title>
<path fill="none" stroke="orange" stroke-dasharray="5,2" d="M367.141,-416.834C421.756,-437.079 514.057,-471.38 593.279,-501.241 614.855,-509.373 638.667,-518.434 659.033,-526.21"/>
<polygon fill="orange" stroke="orange" points="368.315,-413.536 357.722,-413.343 365.882,-420.1 368.315,-413.536"/>
<text text-anchor="start" x="456.985" y="-513.241" font-family="Helvetica,sans-Serif" font-size="10.00"> &lt; HistogramType_::Scalar,</text>
<text text-anchor="middle" x="517.156" y="-503.241" font-family="Helvetica,sans-Serif" font-size="10.00"> RealAvgType &gt;</text>
</g>
<!-- Node5&#45;&gt;Node18 -->
<g id="edge23" class="edge"><title>Node5&#45;&gt;Node18</title>
<path fill="none" stroke="orange" stroke-dasharray="5,2" d="M365.969,-381.61C388.5,-373.254 416.048,-363.351 441.033,-355.241 508.532,-333.33 586.609,-311.237 640.957,-296.371"/>
<polygon fill="orange" stroke="orange" points="364.468,-378.434 356.321,-385.207 366.913,-384.993 364.468,-378.434"/>
<text text-anchor="start" x="459.766" y="-367.241" font-family="Helvetica,sans-Serif" font-size="10.00"> &lt; HistogramType::Scalar,</text>
<text text-anchor="middle" x="517.156" y="-357.241" font-family="Helvetica,sans-Serif" font-size="10.00"> CountRealType &gt;</text>
</g>
<!-- Node5&#45;&gt;Node19 -->
<g id="edge25" class="edge"><title>Node5&#45;&gt;Node19</title>
<path fill="none" stroke="orange" stroke-dasharray="5,2" d="M338.329,-377.4C360.641,-352.494 400.086,-311.915 441.033,-286.241 503.445,-247.109 582.983,-218.504 639.089,-201.31"/>
<polygon fill="orange" stroke="orange" points="335.704,-375.085 331.706,-384.897 340.95,-379.719 335.704,-375.085"/>
<text text-anchor="start" x="441.033" y="-298.241" font-family="Helvetica,sans-Serif" font-size="10.00"> &lt; typename ValueCalculator</text>
<text text-anchor="middle" x="517.156" y="-288.241" font-family="Helvetica,sans-Serif" font-size="10.00">::ValueType, CountRealAvgType &gt;</text>
</g>
<!-- Node5&#45;&gt;Node20 -->
<g id="edge27" class="edge"><title>Node5&#45;&gt;Node20</title>
<path fill="none" stroke="orange" stroke-dasharray="5,2" d="M414.929,-398.748C467.647,-399.385 534.246,-401.685 593.279,-408.241 604.027,-409.434 615.272,-411.077 626.349,-412.931"/>
<polygon fill="orange" stroke="orange" points="414.951,-395.248 404.915,-398.645 414.879,-402.248 414.951,-395.248"/>
<text text-anchor="start" x="452.547" y="-420.241" font-family="Helvetica,sans-Serif" font-size="10.00"> &lt; NormalizedHistogramType</text>
<text text-anchor="middle" x="517.156" y="-410.241" font-family="Helvetica,sans-Serif" font-size="10.00">::Scalar, CountRealType &gt;</text>
</g>
<!-- Node6&#45;&gt;Node7 -->
<g id="edge7" class="edge"><title>Node6&#45;&gt;Node7</title>
<path fill="none" stroke="orange" stroke-dasharray="5,2" d="M786.833,-385.359C794.9,-389.316 802.289,-394.49 808.168,-401.241 845.317,-443.902 788.518,-485.021 826.168,-527.241 848.812,-552.634 930.998,-571.086 996.169,-582.12"/>
<polygon fill="orange" stroke="orange" points="788.053,-382.075 777.481,-381.389 785.318,-388.518 788.053,-382.075"/>
<text text-anchor="start" x="833.241" y="-591.241" font-family="Helvetica,sans-Serif" font-size="10.00"> &lt; SimpleNormalizedHistogram</text>
<text text-anchor="middle" x="902.291" y="-581.241" font-family="Helvetica,sans-Serif" font-size="10.00">Type::Scalar, double &gt;</text>
</g>
<!-- Node6&#45;&gt;Node9 -->
<g id="edge9" class="edge"><title>Node6&#45;&gt;Node9</title>
<path fill="none" stroke="orange" stroke-dasharray="5,2" d="M786.866,-388.756C794.48,-392.131 801.753,-396.239 808.168,-401.241 820.732,-411.038 813.896,-422.081 826.168,-432.241 880.733,-477.418 959.533,-500.582 1015.21,-512.002"/>
<polygon fill="orange" stroke="orange" points="788.029,-385.452 777.444,-384.993 785.433,-391.953 788.029,-385.452"/>
<text text-anchor="start" x="842.12" y="-515.241" font-family="Helvetica,sans-Serif" font-size="10.00"> &lt; HistogramType_::Scalar,</text>
<text text-anchor="middle" x="902.291" y="-505.241" font-family="Helvetica,sans-Serif" font-size="10.00"> RealAvgType &gt;</text>
</g>
<!-- Node6&#45;&gt;Node13 -->
<g id="edge14" class="edge"><title>Node6&#45;&gt;Node13</title>
<path fill="none" stroke="orange" stroke-dasharray="5,2" d="M787.077,-359.018C800.108,-356.686 813.518,-354.347 826.168,-352.241 893.672,-341.005 910.767,-339.579 978.414,-329.241 990.367,-327.414 1003.09,-325.457 1015.39,-323.56"/>
<polygon fill="orange" stroke="orange" points="786.427,-355.579 777.205,-360.796 787.667,-362.468 786.427,-355.579"/>
<text text-anchor="start" x="844.901" y="-364.241" font-family="Helvetica,sans-Serif" font-size="10.00"> &lt; HistogramType::Scalar,</text>
<text text-anchor="middle" x="902.291" y="-354.241" font-family="Helvetica,sans-Serif" font-size="10.00"> CountRealType &gt;</text>
</g>
<!-- Node6&#45;&gt;Node14 -->
<g id="edge16" class="edge"><title>Node6&#45;&gt;Node14</title>
<path fill="none" stroke="orange" stroke-dasharray="5,2" d="M750.428,-348.739C772.48,-335.414 800.557,-318.911 826.168,-305.241 894.842,-268.584 976.167,-230.323 1028.37,-206.4"/>
<polygon fill="orange" stroke="orange" points="748.411,-345.869 741.678,-354.05 752.043,-351.853 748.411,-345.869"/>
<text text-anchor="start" x="826.168" y="-317.241" font-family="Helvetica,sans-Serif" font-size="10.00"> &lt; typename ValueCalculator</text>
<text text-anchor="middle" x="902.291" y="-307.241" font-family="Helvetica,sans-Serif" font-size="10.00">::ValueType, CountRealAvgType &gt;</text>
</g>
<!-- Node6&#45;&gt;Node15 -->
<g id="edge17" class="edge"><title>Node6&#45;&gt;Node15</title>
<path fill="none" stroke="orange" stroke-dasharray="5,2" d="M787.516,-380.701C841.253,-386.55 914.56,-395.789 978.414,-408.241 989.168,-410.338 1000.46,-412.903 1011.48,-415.608"/>
<polygon fill="orange" stroke="orange" points="787.694,-377.2 777.377,-379.613 786.946,-384.16 787.694,-377.2"/>
<text text-anchor="start" x="837.682" y="-420.241" font-family="Helvetica,sans-Serif" font-size="10.00"> &lt; NormalizedHistogramType</text>
<text text-anchor="middle" x="902.291" y="-410.241" font-family="Helvetica,sans-Serif" font-size="10.00">::Scalar, CountRealType &gt;</text>
</g>
<!-- Node8 -->
<g id="node8" class="node"><title>Node8</title>
<g id="a_node8"><a xlink:href="struct_tomographer_1_1_averaged_histogram.html" target="_top" xlink:title="Tomographer::AveragedHistogram\l\&lt; SimpleNormalizedHistogramType,\l double \&gt;">
<polygon fill="none" stroke="black" points="1551.43,-554.241 1551.43,-592.241 1727.22,-592.241 1727.22,-554.241 1551.43,-554.241"/>
<text text-anchor="start" x="1559.43" y="-580.241" font-family="Helvetica,sans-Serif" font-size="10.00">Tomographer::AveragedHistogram</text>
<text text-anchor="start" x="1559.43" y="-570.241" font-family="Helvetica,sans-Serif" font-size="10.00">&lt; SimpleNormalizedHistogramType,</text>
<text text-anchor="middle" x="1639.33" y="-560.241" font-family="Helvetica,sans-Serif" font-size="10.00"> double &gt;</text>
</a>
</g>
</g>
<!-- Node7&#45;&gt;Node8 -->
<g id="edge8" class="edge"><title>Node7&#45;&gt;Node8</title>
<path fill="none" stroke="midnightblue" d="M1179.7,-590.627C1270.7,-587.192 1411.39,-581.876 1533.43,-577.241 1539.26,-577.02 1545.27,-576.791 1551.33,-576.561"/>
<polygon fill="midnightblue" stroke="midnightblue" points="1179.54,-587.131 1169.67,-591.006 1179.8,-594.126 1179.54,-587.131"/>
</g>
<!-- Node10 -->
<g id="node10" class="node"><title>Node10</title>
<g id="a_node10"><a xlink:href="struct_tomographer_1_1_averaged_histogram.html" target="_top" xlink:title="Combines several histograms (with same parameters) into an averaged histogram. ">
<polygon fill="none" stroke="black" points="1206.42,-501.241 1206.42,-529.241 1377.33,-529.241 1377.33,-501.241 1206.42,-501.241"/>
<text text-anchor="start" x="1214.42" y="-517.241" font-family="Helvetica,sans-Serif" font-size="10.00">Tomographer::AveragedHistogram</text>
<text text-anchor="middle" x="1291.88" y="-507.241" font-family="Helvetica,sans-Serif" font-size="10.00">&lt; HistogramType_, RealAvgType &gt;</text>
</a>
</g>
</g>
<!-- Node9&#45;&gt;Node10 -->
<g id="edge10" class="edge"><title>Node9&#45;&gt;Node10</title>
<path fill="none" stroke="midnightblue" d="M1160.67,-519.645C1175.5,-519.143 1191.13,-518.615 1206.2,-518.105"/>
<polygon fill="midnightblue" stroke="midnightblue" points="1160.42,-516.151 1150.54,-519.987 1160.65,-523.147 1160.42,-516.151"/>
</g>
<!-- Node10&#45;&gt;Node8 -->
<g id="edge12" class="edge"><title>Node10&#45;&gt;Node8</title>
<path fill="none" stroke="orange" stroke-dasharray="5,2" d="M1386.59,-530.976C1437.89,-539.589 1501.04,-550.191 1551.26,-558.623"/>
<polygon fill="orange" stroke="orange" points="1386.94,-527.485 1376.5,-529.281 1385.78,-534.389 1386.94,-527.485"/>
<text text-anchor="start" x="1395.33" y="-567.241" font-family="Helvetica,sans-Serif" font-size="10.00"> &lt; SimpleNormalizedHistogram</text>
<text text-anchor="middle" x="1464.38" y="-557.241" font-family="Helvetica,sans-Serif" font-size="10.00">Type, double &gt;</text>
</g>
<!-- Node11 -->
<g id="node11" class="node"><title>Node11</title>
<g id="a_node11"><a xlink:href="struct_tomographer_1_1_averaged_histogram.html" target="_top" xlink:title="Tomographer::AveragedHistogram\l\&lt; NormalizedHistogramType,\l CountRealType \&gt;">
<polygon fill="none" stroke="black" points="1554.99,-474.241 1554.99,-512.241 1723.66,-512.241 1723.66,-474.241 1554.99,-474.241"/>
<text text-anchor="start" x="1562.99" y="-500.241" font-family="Helvetica,sans-Serif" font-size="10.00">Tomographer::AveragedHistogram</text>
<text text-anchor="start" x="1562.99" y="-490.241" font-family="Helvetica,sans-Serif" font-size="10.00">&lt; NormalizedHistogramType,</text>
<text text-anchor="middle" x="1639.33" y="-480.241" font-family="Helvetica,sans-Serif" font-size="10.00"> CountRealType &gt;</text>
</a>
</g>
</g>
<!-- Node10&#45;&gt;Node11 -->
<g id="edge11" class="edge"><title>Node10&#45;&gt;Node11</title>
<path fill="none" stroke="orange" stroke-dasharray="5,2" d="M1387.67,-509.204C1439.95,-505.874 1504.29,-501.777 1554.69,-498.567"/>
<polygon fill="orange" stroke="orange" points="1387.14,-505.73 1377.38,-509.859 1387.59,-512.716 1387.14,-505.73"/>
<text text-anchor="start" x="1398.38" y="-520.241" font-family="Helvetica,sans-Serif" font-size="10.00"> &lt; NormalizedHistogramType,</text>
<text text-anchor="middle" x="1464.38" y="-510.241" font-family="Helvetica,sans-Serif" font-size="10.00"> CountRealType &gt;</text>
</g>
<!-- Node12 -->
<g id="node12" class="node"><title>Node12</title>
<g id="a_node12"><a xlink:href="struct_tomographer_1_1_averaged_histogram.html" target="_top" xlink:title="Tomographer::AveragedHistogram\l\&lt; HistogramType, CountRealType \&gt;">
<polygon fill="none" stroke="black" points="1551.84,-387.241 1551.84,-415.241 1726.82,-415.241 1726.82,-387.241 1551.84,-387.241"/>
<text text-anchor="start" x="1559.84" y="-403.241" font-family="Helvetica,sans-Serif" font-size="10.00">Tomographer::AveragedHistogram</text>
<text text-anchor="middle" x="1639.33" y="-393.241" font-family="Helvetica,sans-Serif" font-size="10.00">&lt; HistogramType, CountRealType &gt;</text>
</a>
</g>
</g>
<!-- Node10&#45;&gt;Node12 -->
<g id="edge13" class="edge"><title>Node10&#45;&gt;Node12</title>
<path fill="none" stroke="orange" stroke-dasharray="5,2" d="M1338.71,-497.663C1356.34,-491.054 1376.7,-483.605 1395.33,-477.241 1462.68,-454.238 1541.42,-430.109 1590.6,-415.368"/>
<polygon fill="orange" stroke="orange" points="1337.35,-494.435 1329.22,-501.236 1339.82,-500.986 1337.35,-494.435"/>
<text text-anchor="start" x="1398.66" y="-489.241" font-family="Helvetica,sans-Serif" font-size="10.00"> &lt; HistogramType, CountReal</text>
<text text-anchor="middle" x="1464.38" y="-479.241" font-family="Helvetica,sans-Serif" font-size="10.00">Type &gt;</text>
</g>
<!-- Node13&#45;&gt;Node12 -->
<g id="edge15" class="edge"><title>Node13&#45;&gt;Node12</title>
<path fill="none" stroke="midnightblue" d="M1160.48,-325.394C1262.93,-341.656 1444.13,-370.417 1551.54,-387.465"/>
<polygon fill="midnightblue" stroke="midnightblue" points="1160.94,-321.923 1150.52,-323.812 1159.84,-328.836 1160.94,-321.923"/>
</g>
<!-- Node15&#45;&gt;Node11 -->
<g id="edge18" class="edge"><title>Node15&#45;&gt;Node11</title>
<path fill="none" stroke="midnightblue" d="M1164.37,-429.432C1255.13,-424.83 1406.62,-423.052 1533.43,-450.241 1556.72,-455.233 1581.43,-465.113 1601.01,-474.144"/>
<polygon fill="midnightblue" stroke="midnightblue" points="1163.96,-425.949 1154.16,-429.975 1164.33,-432.939 1163.96,-425.949"/>
</g>
<!-- Node16&#45;&gt;Node7 -->
<g id="edge20" class="edge"><title>Node16&#45;&gt;Node7</title>
<path fill="none" stroke="midnightblue" d="M818.318,-627.617C874.956,-620.446 943.441,-611.775 996.409,-605.068"/>
<polygon fill="midnightblue" stroke="midnightblue" points="817.732,-624.164 808.25,-628.892 818.611,-631.108 817.732,-624.164"/>
</g>
<!-- Node17&#45;&gt;Node9 -->
<g id="edge22" class="edge"><title>Node17&#45;&gt;Node9</title>
<path fill="none" stroke="midnightblue" d="M788.49,-539.739C801.084,-538.88 813.986,-538.02 826.168,-537.241 890.417,-533.131 963.776,-528.873 1015.4,-525.948"/>
<polygon fill="midnightblue" stroke="midnightblue" points="788.212,-536.249 778.475,-540.425 788.691,-543.233 788.212,-536.249"/>
</g>
<!-- Node18&#45;&gt;Node13 -->
<g id="edge24" class="edge"><title>Node18&#45;&gt;Node13</title>
<path fill="none" stroke="midnightblue" d="M788.804,-277.617C842.377,-278.125 914.976,-280.659 978.414,-289.241 990.479,-290.873 1003.2,-293.259 1015.44,-295.901"/>
<polygon fill="midnightblue" stroke="midnightblue" points="788.716,-274.116 778.69,-277.543 788.664,-281.116 788.716,-274.116"/>
</g>
<!-- Node19&#45;&gt;Node14 -->
<g id="edge26" class="edge"><title>Node19&#45;&gt;Node14</title>
<path fill="none" stroke="midnightblue" d="M813.775,-182.241C872.041,-182.241 943.938,-182.241 998.613,-182.241"/>
<polygon fill="midnightblue" stroke="midnightblue" points="813.434,-178.741 803.434,-182.241 813.434,-185.741 813.434,-178.741"/>
</g>
<!-- Node20&#45;&gt;Node15 -->
<g id="edge28" class="edge"><title>Node20&#45;&gt;Node15</title>
<path fill="none" stroke="midnightblue" d="M803.281,-431.488C867.82,-432.357 952.607,-433.499 1011.63,-434.294"/>
<polygon fill="midnightblue" stroke="midnightblue" points="803.15,-427.986 793.104,-431.351 803.055,-434.985 803.15,-427.986"/>
</g>
<!-- Node21&#45;&gt;Node22 -->
<g id="edge31" class="edge"><title>Node21&#45;&gt;Node22</title>
<path fill="none" stroke="orange" stroke-dasharray="5,2" d="M423.448,-79.0359C482.728,-74.9225 556.487,-69.8044 614.153,-65.803"/>
<polygon fill="orange" stroke="orange" points="423.045,-75.5554 413.311,-79.7393 423.53,-82.5386 423.045,-75.5554"/>
<text text-anchor="start" x="452.398" y="-100.241" font-family="Helvetica,sans-Serif" font-size="10.00"> &lt; ValueCalculator,</text>
<text text-anchor="start" x="452.398" y="-90.2409" font-family="Helvetica,sans-Serif" font-size="10.00"> LoggerType, BaseHistogram</text>
<text text-anchor="middle" x="517.156" y="-80.2409" font-family="Helvetica,sans-Serif" font-size="10.00">Type &gt;</text>
</g>
</g>
</svg>
