<?xml version="1.0" encoding="UTF-8" standalone="no"?>
<!DOCTYPE svg PUBLIC "-//W3C//DTD SVG 1.1//EN"
 "http://www.w3.org/Graphics/SVG/1.1/DTD/svg11.dtd">
<!-- Generated by graphviz version 2.38.0 (20140413.2041)
 -->
<!-- Title: Tomographer::MHRWTasks::ValueHistogramTasks::ResultsCollectorSimple&lt; CDataBaseType_, LoggerType_ &gt;::RunTaskResult Pages: 1 -->
<svg width="1721pt" height="403pt"
 viewBox="0.00 0.00 1720.85 403.00" xmlns="http://www.w3.org/2000/svg" xmlns:xlink="http://www.w3.org/1999/xlink">
<g id="graph0" class="graph" transform="scale(1 1) rotate(0) translate(4 399)">
<title>Tomographer::MHRWTasks::ValueHistogramTasks::ResultsCollectorSimple&lt; CDataBaseType_, LoggerType_ &gt;::RunTaskResult</title>
<!-- Node1 -->
<g id="node1" class="node"><title>Node1</title>
<polygon fill="#bfbfbf" stroke="black" points="1551.47,-201.5 1551.47,-259.5 1712.85,-259.5 1712.85,-201.5 1551.47,-201.5"/>
<text text-anchor="start" x="1559.47" y="-247.5" font-family="Helvetica,sans-Serif" font-size="10.00">Tomographer::MHRWTasks</text>
<text text-anchor="start" x="1559.47" y="-237.5" font-family="Helvetica,sans-Serif" font-size="10.00">::ValueHistogramTasks</text>
<text text-anchor="start" x="1559.47" y="-227.5" font-family="Helvetica,sans-Serif" font-size="10.00">::ResultsCollectorSimple</text>
<text text-anchor="start" x="1559.47" y="-217.5" font-family="Helvetica,sans-Serif" font-size="10.00">&lt; CDataBaseType_, LoggerType</text>
<text text-anchor="middle" x="1632.16" y="-207.5" font-family="Helvetica,sans-Serif" font-size="10.00">_ &gt;::RunTaskResult</text>
</g>
<!-- Node2 -->
<g id="node2" class="node"><title>Node2</title>
<g id="a_node2"><a xlink:href="struct_tomographer_1_1_m_h_r_w_tasks_1_1_m_h_random_walk_task_result.html" target="_top" xlink:title="Tomographer::MHRWTasks\l::MHRandomWalkTaskResult\l\&lt; MHRWStatsCollectorResultType,\l CountIntType, StepRealType \&gt;">
<polygon fill="none" stroke="black" points="1290.31,-273.5 1290.31,-321.5 1462.02,-321.5 1462.02,-273.5 1290.31,-273.5"/>
<text text-anchor="start" x="1298.31" y="-309.5" font-family="Helvetica,sans-Serif" font-size="10.00">Tomographer::MHRWTasks</text>
<text text-anchor="start" x="1298.31" y="-299.5" font-family="Helvetica,sans-Serif" font-size="10.00">::MHRandomWalkTaskResult</text>
<text text-anchor="start" x="1298.31" y="-289.5" font-family="Helvetica,sans-Serif" font-size="10.00">&lt; MHRWStatsCollectorResultType,</text>
<text text-anchor="middle" x="1376.17" y="-279.5" font-family="Helvetica,sans-Serif" font-size="10.00"> CountIntType, StepRealType &gt;</text>
</a>
</g>
</g>
<!-- Node2&#45;&gt;Node1 -->
<g id="edge1" class="edge"><title>Node2&#45;&gt;Node1</title>
<path fill="none" stroke="midnightblue" d="M1472.01,-272.481C1498.17,-265.582 1526.26,-258.17 1551.46,-251.523"/>
<polygon fill="midnightblue" stroke="midnightblue" points="1470.87,-269.162 1462.1,-275.097 1472.66,-275.93 1470.87,-269.162"/>
</g>
<!-- Node3 -->
<g id="node3" class="node"><title>Node3</title>
<polygon fill="none" stroke="#bfbfbf" points="910.762,-356.5 910.762,-394.5 1079.69,-394.5 1079.69,-356.5 910.762,-356.5"/>
<text text-anchor="start" x="918.762" y="-382.5" font-family="Helvetica,sans-Serif" font-size="10.00">Tools::NeedOwnOperatorNew</text>
<text text-anchor="start" x="918.762" y="-372.5" font-family="Helvetica,sans-Serif" font-size="10.00">&lt; MHRWStatsCollectorResultType</text>
<text text-anchor="middle" x="995.227" y="-362.5" font-family="Helvetica,sans-Serif" font-size="10.00"> &gt;::ProviderType</text>
</g>
<!-- Node3&#45;&gt;Node2 -->
<g id="edge2" class="edge"><title>Node3&#45;&gt;Node2</title>
<path fill="none" stroke="midnightblue" d="M1090.2,-364.038C1142.25,-356.806 1207.9,-346.223 1265.55,-332.5 1278.47,-329.424 1292.08,-325.584 1305.14,-321.585"/>
<polygon fill="midnightblue" stroke="midnightblue" points="1089.4,-360.614 1079.97,-365.44 1090.36,-367.549 1089.4,-360.614"/>
</g>
<!-- Node4 -->
<g id="node4" class="node"><title>Node4</title>
<g id="a_node4"><a xlink:href="struct_tomographer_1_1_m_h_r_w_params.html" target="_top" xlink:title="Specify the parameters of a Metropolis&#45;Hastings random walk. ">
<polygon fill="none" stroke="black" points="601.929,-249.5 601.929,-277.5 774.154,-277.5 774.154,-249.5 601.929,-249.5"/>
<text text-anchor="start" x="609.929" y="-265.5" font-family="Helvetica,sans-Serif" font-size="10.00">Tomographer::MHRWParams</text>
<text text-anchor="middle" x="688.042" y="-255.5" font-family="Helvetica,sans-Serif" font-size="10.00">&lt; CountIntType_, StepRealType_ &gt;</text>
</a>
</g>
</g>
<!-- Node4&#45;&gt;Node2 -->
<g id="edge3" class="edge"><title>Node4&#45;&gt;Node2</title>
<path fill="none" stroke="#9a32cd" stroke-dasharray="5,2" d="M784.261,-263.198C864.267,-263.422 981.593,-264.864 1083.83,-270.5 1153.44,-274.337 1232.15,-281.821 1290.2,-287.938"/>
<polygon fill="#9a32cd" stroke="#9a32cd" points="784.212,-259.698 774.204,-263.176 784.197,-266.698 784.212,-259.698"/>
<text text-anchor="middle" x="995.227" y="-272.5" font-family="Helvetica,sans-Serif" font-size="10.00"> mhrw_params</text>
</g>
<!-- Node7 -->
<g id="node7" class="node"><title>Node7</title>
<g id="a_node7"><a xlink:href="struct_tomographer_1_1_m_h_r_w_tasks_1_1_m_h_random_walk_task_result.html" target="_top" xlink:title="Result of a task run. ">
<polygon fill="none" stroke="black" points="910.762,-289.5 910.762,-337.5 1079.69,-337.5 1079.69,-289.5 910.762,-289.5"/>
<text text-anchor="start" x="918.762" y="-325.5" font-family="Helvetica,sans-Serif" font-size="10.00">Tomographer::MHRWTasks</text>
<text text-anchor="start" x="918.762" y="-315.5" font-family="Helvetica,sans-Serif" font-size="10.00">::MHRandomWalkTaskResult</text>
<text text-anchor="start" x="918.762" y="-305.5" font-family="Helvetica,sans-Serif" font-size="10.00">&lt; MHRWStatsCollectorResultType</text>
<text text-anchor="middle" x="995.227" y="-295.5" font-family="Helvetica,sans-Serif" font-size="10.00">_, CountIntType, StepRealType &gt;</text>
</a>
</g>
</g>
<!-- Node4&#45;&gt;Node7 -->
<g id="edge8" class="edge"><title>Node4&#45;&gt;Node7</title>
<path fill="none" stroke="#9a32cd" stroke-dasharray="5,2" d="M784.334,-279.112C824.808,-285.743 871.575,-293.405 910.677,-299.812"/>
<polygon fill="#9a32cd" stroke="#9a32cd" points="784.893,-275.657 774.459,-277.494 783.761,-282.565 784.893,-275.657"/>
<text text-anchor="middle" x="843.18" y="-297.5" font-family="Helvetica,sans-Serif" font-size="10.00"> mhrw_params</text>
</g>
<!-- Node5 -->
<g id="node5" class="node"><title>Node5</title>
<polygon fill="none" stroke="#bfbfbf" points="309.886,-272.5 309.886,-290.5 390.935,-290.5 390.935,-272.5 309.886,-272.5"/>
<text text-anchor="middle" x="350.41" y="-278.5" font-family="Helvetica,sans-Serif" font-size="10.00">CountIntType_</text>
</g>
<!-- Node5&#45;&gt;Node4 -->
<g id="edge4" class="edge"><title>Node5&#45;&gt;Node4</title>
<path fill="none" stroke="#9a32cd" stroke-dasharray="5,2" d="M401.349,-278.822C454.119,-275.992 538.303,-271.477 601.646,-268.08"/>
<polygon fill="#9a32cd" stroke="#9a32cd" points="401.028,-275.334 391.229,-279.364 401.403,-282.324 401.028,-275.334"/>
<text text-anchor="middle" x="510.311" y="-297.5" font-family="Helvetica,sans-Serif" font-size="10.00"> n_run</text>
<text text-anchor="middle" x="510.311" y="-287.5" font-family="Helvetica,sans-Serif" font-size="10.00">n_therm</text>
<text text-anchor="middle" x="510.311" y="-277.5" font-family="Helvetica,sans-Serif" font-size="10.00">n_sweep</text>
</g>
<!-- Node6 -->
<g id="node6" class="node"><title>Node6</title>
<polygon fill="none" stroke="#bfbfbf" points="308.218,-235.5 308.218,-253.5 392.602,-253.5 392.602,-235.5 308.218,-235.5"/>
<text text-anchor="middle" x="350.41" y="-241.5" font-family="Helvetica,sans-Serif" font-size="10.00">StepRealType_</text>
</g>
<!-- Node6&#45;&gt;Node4 -->
<g id="edge5" class="edge"><title>Node6&#45;&gt;Node4</title>
<path fill="none" stroke="#9a32cd" stroke-dasharray="5,2" d="M402.876,-246.201C448.893,-247.858 518.16,-250.683 578.353,-254.5 586.006,-254.985 593.957,-255.542 601.922,-256.136"/>
<polygon fill="#9a32cd" stroke="#9a32cd" points="402.965,-242.703 392.848,-245.846 402.717,-249.698 402.965,-242.703"/>
<text text-anchor="middle" x="510.311" y="-256.5" font-family="Helvetica,sans-Serif" font-size="10.00"> step_size</text>
</g>
<!-- Node7&#45;&gt;Node2 -->
<g id="edge6" class="edge"><title>Node7&#45;&gt;Node2</title>
<path fill="none" stroke="orange" stroke-dasharray="5,2" d="M1089.92,-309.544C1151.21,-306.956 1230.64,-303.602 1290.11,-301.091"/>
<polygon fill="orange" stroke="orange" points="1089.7,-306.05 1079.86,-309.969 1090,-313.044 1089.7,-306.05"/>
<text text-anchor="start" x="1101.83" y="-320.5" font-family="Helvetica,sans-Serif" font-size="10.00"> &lt; MHRWStatsCollectorResult</text>
<text text-anchor="middle" x="1183.69" y="-310.5" font-family="Helvetica,sans-Serif" font-size="10.00">Type, CountIntType, StepRealType &gt;</text>
</g>
<!-- Node8 -->
<g id="node8" class="node"><title>Node8</title>
<polygon fill="none" stroke="#bfbfbf" points="596.353,-299.5 596.353,-337.5 779.73,-337.5 779.73,-299.5 596.353,-299.5"/>
<text text-anchor="start" x="604.353" y="-325.5" font-family="Helvetica,sans-Serif" font-size="10.00">Tools::NeedOwnOperatorNew</text>
<text text-anchor="start" x="604.353" y="-315.5" font-family="Helvetica,sans-Serif" font-size="10.00">::ProviderType&lt; MHRWStatsCollector</text>
<text text-anchor="middle" x="688.042" y="-305.5" font-family="Helvetica,sans-Serif" font-size="10.00">ResultType_ &gt;</text>
</g>
<!-- Node8&#45;&gt;Node7 -->
<g id="edge7" class="edge"><title>Node8&#45;&gt;Node7</title>
<path fill="none" stroke="midnightblue" d="M790.125,-316.844C829.198,-316.204 873.376,-315.48 910.613,-314.87"/>
<polygon fill="midnightblue" stroke="midnightblue" points="789.722,-313.35 779.781,-317.013 789.837,-320.349 789.722,-313.35"/>
</g>
<!-- Node9 -->
<g id="node9" class="node"><title>Node9</title>
<polygon fill="none" stroke="#bfbfbf" points="1283.55,-211.5 1283.55,-249.5 1468.78,-249.5 1468.78,-211.5 1283.55,-211.5"/>
<text text-anchor="start" x="1291.55" y="-237.5" font-family="Helvetica,sans-Serif" font-size="10.00">Tools::NeedOwnOperatorNew</text>
<text text-anchor="start" x="1291.55" y="-227.5" font-family="Helvetica,sans-Serif" font-size="10.00">::ProviderType&lt; NormalizedHistogram</text>
<text text-anchor="middle" x="1376.17" y="-217.5" font-family="Helvetica,sans-Serif" font-size="10.00">Type &gt;</text>
</g>
<!-- Node9&#45;&gt;Node1 -->
<g id="edge9" class="edge"><title>Node9&#45;&gt;Node1</title>
<path fill="none" stroke="midnightblue" d="M1479.09,-230.5C1503.14,-230.5 1528.45,-230.5 1551.36,-230.5"/>
<polygon fill="midnightblue" stroke="midnightblue" points="1478.86,-227 1468.86,-230.5 1478.86,-234 1478.86,-227"/>
</g>
<!-- Node10 -->
<g id="node10" class="node"><title>Node10</title>
<g id="a_node10"><a xlink:href="struct_tomographer_1_1_uniform_bins_histogram.html" target="_top" xlink:title="Stores a histogram. ">
<polygon fill="none" stroke="black" points="1290.07,-153.5 1290.07,-181.5 1462.27,-181.5 1462.27,-153.5 1290.07,-153.5"/>
<text text-anchor="start" x="1298.07" y="-169.5" font-family="Helvetica,sans-Serif" font-size="10.00">Tomographer::UniformBins</text>
<text text-anchor="middle" x="1376.17" y="-159.5" font-family="Helvetica,sans-Serif" font-size="10.00">Histogram&lt; Scalar_, CountType_ &gt;</text>
</a>
</g>
</g>
<!-- Node10&#45;&gt;Node1 -->
<g id="edge10" class="edge"><title>Node10&#45;&gt;Node1</title>
<path fill="none" stroke="#9a32cd" stroke-dasharray="5,2" d="M1443.81,-184.03C1476.66,-192.179 1516.54,-202.07 1551.05,-210.629"/>
<polygon fill="#9a32cd" stroke="#9a32cd" points="1444.4,-180.57 1433.85,-181.56 1442.72,-187.365 1444.4,-180.57"/>
<text text-anchor="middle" x="1510.13" y="-207.5" font-family="Helvetica,sans-Serif" font-size="10.00"> histogram</text>
</g>
<!-- Node11 -->
<g id="node11" class="node"><title>Node11</title>
<g id="a_node11"><a xlink:href="struct_tomographer_1_1_tools_1_1_eigen_aligned_operator_new_provider.html" target="_top" xlink:title="Provides correct operator&#45;new implementation for Eigen types via the NeedOwnOperatorNew mechanism...">
<polygon fill="none" stroke="black" points="906.629,-195.5 906.629,-223.5 1083.83,-223.5 1083.83,-195.5 906.629,-195.5"/>
<text text-anchor="start" x="914.629" y="-211.5" font-family="Helvetica,sans-Serif" font-size="10.00">Tomographer::Tools</text>
<text text-anchor="middle" x="995.227" y="-201.5" font-family="Helvetica,sans-Serif" font-size="10.00">::EigenAlignedOperatorNewProvider</text>
</a>
</g>
</g>
<!-- Node11&#45;&gt;Node10 -->
<g id="edge11" class="edge"><title>Node11&#45;&gt;Node10</title>
<path fill="none" stroke="midnightblue" d="M1093.98,-199.894C1145.12,-194.728 1208.75,-188.079 1265.55,-181.5 1273.46,-180.584 1281.69,-179.597 1289.92,-178.586"/>
<polygon fill="midnightblue" stroke="midnightblue" points="1093.52,-196.423 1083.92,-200.908 1094.22,-203.387 1093.52,-196.423"/>
</g>
<!-- Node12 -->
<g id="node12" class="node"><title>Node12</title>
<polygon fill="none" stroke="#bfbfbf" points="960.262,-158.5 960.262,-176.5 1030.19,-176.5 1030.19,-158.5 960.262,-158.5"/>
<text text-anchor="middle" x="995.227" y="-164.5" font-family="Helvetica,sans-Serif" font-size="10.00">CountType_</text>
</g>
<!-- Node12&#45;&gt;Node10 -->
<g id="edge12" class="edge"><title>Node12&#45;&gt;Node10</title>
<path fill="none" stroke="#9a32cd" stroke-dasharray="5,2" d="M1040.59,-167.5C1101.6,-167.5 1212.6,-167.5 1289.95,-167.5"/>
<polygon fill="#9a32cd" stroke="#9a32cd" points="1040.52,-164 1030.52,-167.5 1040.52,-171 1040.52,-164"/>
<text text-anchor="middle" x="1183.69" y="-169.5" font-family="Helvetica,sans-Serif" font-size="10.00"> off_chart</text>
</g>
<!-- Node13 -->
<g id="node13" class="node"><title>Node13</title>
<g id="a_node13"><a xlink:href="struct_tomographer_1_1_uniform_bins_histogram_1_1_params.html" target="_top" xlink:title="The parameters of a UniformBinsHistogram. ">
<polygon fill="none" stroke="black" points="916.219,-101.5 916.219,-139.5 1074.24,-139.5 1074.24,-101.5 916.219,-101.5"/>
<text text-anchor="start" x="924.219" y="-127.5" font-family="Helvetica,sans-Serif" font-size="10.00">Tomographer::UniformBins</text>
<text text-anchor="start" x="924.219" y="-117.5" font-family="Helvetica,sans-Serif" font-size="10.00">Histogram&lt; Scalar_, CountType</text>
<text text-anchor="middle" x="995.227" y="-107.5" font-family="Helvetica,sans-Serif" font-size="10.00">_ &gt;::Params</text>
</a>
</g>
</g>
<!-- Node13&#45;&gt;Node10 -->
<g id="edge13" class="edge"><title>Node13&#45;&gt;Node10</title>
<path fill="none" stroke="#9a32cd" stroke-dasharray="5,2" d="M1084.29,-131.175C1136.91,-137.582 1205.06,-145.931 1265.55,-153.5 1273.45,-154.489 1281.67,-155.524 1289.9,-156.566"/>
<polygon fill="#9a32cd" stroke="#9a32cd" points="1084.67,-127.695 1074.32,-129.962 1083.82,-134.644 1084.67,-127.695"/>
<text text-anchor="middle" x="1183.69" y="-155.5" font-family="Helvetica,sans-Serif" font-size="10.00"> params</text>
</g>
<!-- Node14 -->
<g id="node14" class="node"><title>Node14</title>
<g id="a_node14"><a doxygen="/Users/philippe/Documents/ETH/PhD/projects/qtomo/tomographer/doc/cppreference-doxygen-web.tag.xml:http://en.cppreference.com/w/" xlink:href="http://en.cppreference.com/w/cpp/types/size_t.html" target="_top" xlink:title="std::size_t">
<polygon fill="none" stroke="black" points="657.532,-111.5 657.532,-129.5 718.551,-129.5 718.551,-111.5 657.532,-111.5"/>
<text text-anchor="middle" x="688.042" y="-117.5" font-family="Helvetica,sans-Serif" font-size="10.00">std::size_t</text>
</a>
</g>
</g>
<!-- Node14&#45;&gt;Node13 -->
<g id="edge14" class="edge"><title>Node14&#45;&gt;Node13</title>
<path fill="none" stroke="#9a32cd" stroke-dasharray="5,2" d="M728.72,-120.5C775.986,-120.5 856.07,-120.5 915.952,-120.5"/>
<polygon fill="#9a32cd" stroke="#9a32cd" points="728.581,-117 718.581,-120.5 728.581,-124 728.581,-117"/>
<text text-anchor="middle" x="843.18" y="-122.5" font-family="Helvetica,sans-Serif" font-size="10.00"> num_bins</text>
</g>
<!-- Node15 -->
<g id="node15" class="node"><title>Node15</title>
<g id="a_node15"><a doxygen="/Users/philippe/Documents/ETH/PhD/projects/qtomo/tomographer/doc/Eigen.doxytags:http://eigen.tuxfamily.org/dox/" xlink:href="http://eigen.tuxfamily.org/dox/classEigen_1_1Array.html" target="_top" xlink:title="Eigen::Array\&lt; CountType,\l Eigen::Dynamic, 1 \&gt;">
<polygon fill="none" stroke="black" points="929.832,-54.5 929.832,-82.5 1060.62,-82.5 1060.62,-54.5 929.832,-54.5"/>
<text text-anchor="start" x="937.832" y="-70.5" font-family="Helvetica,sans-Serif" font-size="10.00">Eigen::Array&lt; CountType,</text>
<text text-anchor="middle" x="995.227" y="-60.5" font-family="Helvetica,sans-Serif" font-size="10.00"> Eigen::Dynamic, 1 &gt;</text>
</a>
</g>
</g>
<!-- Node15&#45;&gt;Node10 -->
<g id="edge15" class="edge"><title>Node15&#45;&gt;Node10</title>
<path fill="none" stroke="#9a32cd" stroke-dasharray="5,2" d="M1070.79,-78.5004C1125.45,-86.8861 1201.05,-100.697 1265.55,-120.5 1294.05,-129.251 1325.17,-143.029 1346.95,-153.409"/>
<polygon fill="#9a32cd" stroke="#9a32cd" points="1071.25,-75.0296 1060.84,-76.9975 1070.21,-81.9512 1071.25,-75.0296"/>
<text text-anchor="middle" x="1183.69" y="-122.5" font-family="Helvetica,sans-Serif" font-size="10.00"> bins</text>
</g>
<!-- Node16 -->
<g id="node16" class="node"><title>Node16</title>
<g id="a_node16"><a doxygen="/Users/philippe/Documents/ETH/PhD/projects/qtomo/tomographer/doc/Eigen.doxytags:http://eigen.tuxfamily.org/dox/" xlink:href="http://eigen.tuxfamily.org/dox/classEigen_1_1PlainObjectBase.html" target="_top" xlink:title="Eigen::PlainObjectBase\l\&lt; Array\&lt; CountType, Eigen\l::Dynamic, 1, _Options, \l_MaxRows, _MaxCols \&gt; \&gt;">
<polygon fill="none" stroke="black" points="442.27,-52.5 442.27,-100.5 578.353,-100.5 578.353,-52.5 442.27,-52.5"/>
<text text-anchor="start" x="450.27" y="-88.5" font-family="Helvetica,sans-Serif" font-size="10.00">Eigen::PlainObjectBase</text>
<text text-anchor="start" x="450.27" y="-78.5" font-family="Helvetica,sans-Serif" font-size="10.00">&lt; Array&lt; CountType, Eigen</text>
<text text-anchor="start" x="450.27" y="-68.5" font-family="Helvetica,sans-Serif" font-size="10.00">::Dynamic, 1, _Options, </text>
<text text-anchor="middle" x="510.311" y="-58.5" font-family="Helvetica,sans-Serif" font-size="10.00">_MaxRows, _MaxCols &gt; &gt;</text>
</a>
</g>
</g>
<!-- Node16&#45;&gt;Node15 -->
<g id="edge16" class="edge"><title>Node16&#45;&gt;Node15</title>
<path fill="none" stroke="midnightblue" d="M588.524,-75.2209C682.993,-73.6559 841.228,-71.0346 929.576,-69.571"/>
<polygon fill="midnightblue" stroke="midnightblue" points="588.399,-71.7224 578.458,-75.3876 588.515,-78.7214 588.399,-71.7224"/>
</g>
<!-- Node17 -->
<g id="node17" class="node"><title>Node17</title>
<g id="a_node17"><a doxygen="/Users/philippe/Documents/ETH/PhD/projects/qtomo/tomographer/doc/Eigen.doxytags:http://eigen.tuxfamily.org/dox/" xlink:href="http://eigen.tuxfamily.org/dox/classEigen_1_1PlainObjectBase.html" target="_top" xlink:title="Eigen::PlainObjectBase\l\&lt; Derived \&gt;">
<polygon fill="none" stroke="black" points="0,-36.5 0,-64.5 121.063,-64.5 121.063,-36.5 0,-36.5"/>
<text text-anchor="start" x="8" y="-52.5" font-family="Helvetica,sans-Serif" font-size="10.00">Eigen::PlainObjectBase</text>
<text text-anchor="middle" x="60.5317" y="-42.5" font-family="Helvetica,sans-Serif" font-size="10.00">&lt; Derived &gt;</text>
</a>
</g>
</g>
<!-- Node17&#45;&gt;Node16 -->
<g id="edge17" class="edge"><title>Node17&#45;&gt;Node16</title>
<path fill="none" stroke="orange" stroke-dasharray="5,2" d="M131.346,-55.0277C133.951,-55.1886 136.531,-55.3465 139.063,-55.5 244.939,-61.9164 367.884,-68.7716 442.078,-72.8434"/>
<polygon fill="orange" stroke="orange" points="131.411,-51.525 121.212,-54.3955 130.975,-58.5114 131.411,-51.525"/>
<text text-anchor="start" x="148.509" y="-94.5" font-family="Helvetica,sans-Serif" font-size="10.00"> &lt; Array&lt; CountType,</text>
<text text-anchor="start" x="148.509" y="-84.5" font-family="Helvetica,sans-Serif" font-size="10.00"> Eigen::Dynamic, 1,</text>
<text text-anchor="start" x="148.509" y="-74.5" font-family="Helvetica,sans-Serif" font-size="10.00"> _Options, _MaxRows,</text>
<text text-anchor="middle" x="198.807" y="-64.5" font-family="Helvetica,sans-Serif" font-size="10.00"> _MaxCols &gt; &gt;</text>
</g>
<!-- Node19 -->
<g id="node19" class="node"><title>Node19</title>
<g id="a_node19"><a doxygen="/Users/philippe/Documents/ETH/PhD/projects/qtomo/tomographer/doc/Eigen.doxytags:http://eigen.tuxfamily.org/dox/" xlink:href="http://eigen.tuxfamily.org/dox/classEigen_1_1PlainObjectBase.html" target="_top" xlink:title="Eigen::PlainObjectBase\l\&lt; Array\&lt; _Scalar, _Rows,\l _Cols, _Options, _MaxRows,\l _MaxCols \&gt; \&gt;">
<polygon fill="none" stroke="black" points="276.551,-0.5 276.551,-48.5 424.27,-48.5 424.27,-0.5 276.551,-0.5"/>
<text text-anchor="start" x="284.551" y="-36.5" font-family="Helvetica,sans-Serif" font-size="10.00">Eigen::PlainObjectBase</text>
<text text-anchor="start" x="284.551" y="-26.5" font-family="Helvetica,sans-Serif" font-size="10.00">&lt; Array&lt; _Scalar, _Rows,</text>
<text text-anchor="start" x="284.551" y="-16.5" font-family="Helvetica,sans-Serif" font-size="10.00"> _Cols, _Options, _MaxRows,</text>
<text text-anchor="middle" x="350.41" y="-6.5" font-family="Helvetica,sans-Serif" font-size="10.00"> _MaxCols &gt; &gt;</text>
</a>
</g>
</g>
<!-- Node17&#45;&gt;Node19 -->
<g id="edge20" class="edge"><title>Node17&#45;&gt;Node19</title>
<path fill="none" stroke="orange" stroke-dasharray="5,2" d="M106.969,-33.2876C117.368,-30.0701 128.48,-27.1899 139.063,-25.5 184.321,-18.2734 235.758,-17.892 276.438,-19.3809"/>
<polygon fill="orange" stroke="orange" points="105.683,-30.0254 97.2566,-36.4481 107.849,-36.6818 105.683,-30.0254"/>
<text text-anchor="start" x="139.063" y="-47.5" font-family="Helvetica,sans-Serif" font-size="10.00"> &lt; Array&lt; _Scalar, </text>
<text text-anchor="start" x="139.063" y="-37.5" font-family="Helvetica,sans-Serif" font-size="10.00">_Rows, _Cols, _Options,</text>
<text text-anchor="middle" x="198.807" y="-27.5" font-family="Helvetica,sans-Serif" font-size="10.00"> _MaxRows, _MaxCols &gt; &gt;</text>
</g>
<!-- Node18 -->
<g id="node18" class="node"><title>Node18</title>
<g id="a_node18"><a doxygen="/Users/philippe/Documents/ETH/PhD/projects/qtomo/tomographer/doc/Eigen.doxytags:http://eigen.tuxfamily.org/dox/" xlink:href="http://eigen.tuxfamily.org/dox/classEigen_1_1Array.html" target="_top" xlink:title="Eigen::Array\&lt; _Scalar,\l _Rows, _Cols, _Options,\l _MaxRows, _MaxCols \&gt;">
<polygon fill="none" stroke="black" points="623.628,-6.5 623.628,-44.5 752.455,-44.5 752.455,-6.5 623.628,-6.5"/>
<text text-anchor="start" x="631.628" y="-32.5" font-family="Helvetica,sans-Serif" font-size="10.00">Eigen::Array&lt; _Scalar,</text>
<text text-anchor="start" x="631.628" y="-22.5" font-family="Helvetica,sans-Serif" font-size="10.00"> _Rows, _Cols, _Options,</text>
<text text-anchor="middle" x="688.042" y="-12.5" font-family="Helvetica,sans-Serif" font-size="10.00"> _MaxRows, _MaxCols &gt;</text>
</a>
</g>
</g>
<!-- Node18&#45;&gt;Node15 -->
<g id="edge18" class="edge"><title>Node18&#45;&gt;Node15</title>
<path fill="none" stroke="orange" stroke-dasharray="5,2" d="M763.153,-28.4311C800.902,-30.6845 847.414,-34.6304 888.629,-41.5 907.761,-44.6889 928.501,-49.6526 946.494,-54.4587"/>
<polygon fill="orange" stroke="orange" points="762.933,-24.913 752.75,-27.8394 762.535,-31.9017 762.933,-24.913"/>
<text text-anchor="start" x="797.73" y="-53.5" font-family="Helvetica,sans-Serif" font-size="10.00"> &lt; CountType, Eigen</text>
<text text-anchor="middle" x="843.18" y="-43.5" font-family="Helvetica,sans-Serif" font-size="10.00">::Dynamic, 1 &gt;</text>
</g>
<!-- Node19&#45;&gt;Node18 -->
<g id="edge19" class="edge"><title>Node19&#45;&gt;Node18</title>
<path fill="none" stroke="midnightblue" d="M434.963,-24.7489C493.364,-24.9229 570.152,-25.1517 623.564,-25.3109"/>
<polygon fill="midnightblue" stroke="midnightblue" points="434.662,-21.2481 424.651,-24.7182 434.641,-28.2481 434.662,-21.2481"/>
</g>
</g>
</svg>
