<?xml version="1.0" encoding="UTF-8" standalone="no"?>
<!DOCTYPE svg PUBLIC "-//W3C//DTD SVG 1.1//EN"
 "http://www.w3.org/Graphics/SVG/1.1/DTD/svg11.dtd">
<!-- Generated by graphviz version 2.38.0 (20140413.2041)
 -->
<!-- Title: Tomographer::Tools::store_if_enabled&lt; T_, enabled &gt; Pages: 1 -->
<svg width="467pt" height="171pt"
 viewBox="0.00 0.00 466.92 171.00" xmlns="http://www.w3.org/2000/svg" xmlns:xlink="http://www.w3.org/1999/xlink">
<g id="graph0" class="graph" transform="scale(1 1) rotate(0) translate(4 167)">
<title>Tomographer::Tools::store_if_enabled&lt; T_, enabled &gt;</title>
<!-- Node1 -->
<g id="node1" class="node"><title>Node1</title>
<polygon fill="#bfbfbf" stroke="black" points="0,-57.5 0,-95.5 103.822,-95.5 103.822,-57.5 0,-57.5"/>
<text text-anchor="start" x="8" y="-83.5" font-family="Helvetica,sans-Serif" font-size="10.00">Tomographer::Tools</text>
<text text-anchor="start" x="8" y="-73.5" font-family="Helvetica,sans-Serif" font-size="10.00">::store_if_enabled&lt;</text>
<text text-anchor="middle" x="51.9111" y="-63.5" font-family="Helvetica,sans-Serif" font-size="10.00"> T_, enabled &gt;</text>
</g>
<!-- Node2 -->
<g id="node2" class="node"><title>Node2</title>
<g id="a_node2"><a xlink:href="struct_tomographer_1_1_tools_1_1store__if__enabled.html" target="_top" xlink:title="Tomographer::Tools\l::store_if_enabled\&lt;\l LLHValueType, UseNMeasAmplify\lFactor \&gt;">
<polygon fill="none" stroke="black" points="287.479,-114.5 287.479,-162.5 458.923,-162.5 458.923,-114.5 287.479,-114.5"/>
<text text-anchor="start" x="295.479" y="-150.5" font-family="Helvetica,sans-Serif" font-size="10.00">Tomographer::Tools</text>
<text text-anchor="start" x="295.479" y="-140.5" font-family="Helvetica,sans-Serif" font-size="10.00">::store_if_enabled&lt;</text>
<text text-anchor="start" x="295.479" y="-130.5" font-family="Helvetica,sans-Serif" font-size="10.00"> LLHValueType, UseNMeasAmplify</text>
<text text-anchor="middle" x="373.201" y="-120.5" font-family="Helvetica,sans-Serif" font-size="10.00">Factor &gt;</text>
</a>
</g>
</g>
<!-- Node1&#45;&gt;Node2 -->
<g id="edge1" class="edge"><title>Node1&#45;&gt;Node2</title>
<path fill="none" stroke="orange" stroke-dasharray="5,2" d="M114.149,-88.9775C116.741,-89.4941 119.307,-90.0034 121.822,-90.5 176.86,-101.366 238.775,-113.239 287.266,-122.458"/>
<polygon fill="orange" stroke="orange" points="114.57,-85.4924 104.077,-86.9602 113.195,-92.3561 114.57,-85.4924"/>
<text text-anchor="start" x="130.011" y="-129.5" font-family="Helvetica,sans-Serif" font-size="10.00"> &lt; LLHValueType, UseNMeas</text>
<text text-anchor="middle" x="195.65" y="-119.5" font-family="Helvetica,sans-Serif" font-size="10.00">AmplifyFactor &gt;</text>
</g>
<!-- Node3 -->
<g id="node3" class="node"><title>Node3</title>
<g id="a_node3"><a xlink:href="struct_tomographer_1_1_tools_1_1store__if__enabled.html" target="_top" xlink:title="Tomographer::Tools\l::store_if_enabled\&lt;\l BinSumArray, StoreBinSums \&gt;">
<polygon fill="none" stroke="black" points="295.682,-57.5 295.682,-95.5 450.72,-95.5 450.72,-57.5 295.682,-57.5"/>
<text text-anchor="start" x="303.682" y="-83.5" font-family="Helvetica,sans-Serif" font-size="10.00">Tomographer::Tools</text>
<text text-anchor="start" x="303.682" y="-73.5" font-family="Helvetica,sans-Serif" font-size="10.00">::store_if_enabled&lt;</text>
<text text-anchor="middle" x="373.201" y="-63.5" font-family="Helvetica,sans-Serif" font-size="10.00"> BinSumArray, StoreBinSums &gt;</text>
</a>
</g>
</g>
<!-- Node1&#45;&gt;Node3 -->
<g id="edge2" class="edge"><title>Node1&#45;&gt;Node3</title>
<path fill="none" stroke="orange" stroke-dasharray="5,2" d="M113.872,-76.5C165.524,-76.5 239.853,-76.5 295.532,-76.5"/>
<polygon fill="orange" stroke="orange" points="113.857,-73.0001 103.857,-76.5 113.857,-80.0001 113.857,-73.0001"/>
<text text-anchor="middle" x="195.65" y="-78.5" font-family="Helvetica,sans-Serif" font-size="10.00"> &lt; BinSumArray, StoreBinSums &gt;</text>
</g>
<!-- Node4 -->
<g id="node4" class="node"><title>Node4</title>
<g id="a_node4"><a xlink:href="struct_tomographer_1_1_tools_1_1store__if__enabled.html" target="_top" xlink:title="Tomographer::Tools\l::store_if_enabled\&lt;\l int, UseBinningAnalysis \&gt;">
<polygon fill="none" stroke="black" points="307.254,-0.5 307.254,-38.5 439.147,-38.5 439.147,-0.5 307.254,-0.5"/>
<text text-anchor="start" x="315.254" y="-26.5" font-family="Helvetica,sans-Serif" font-size="10.00">Tomographer::Tools</text>
<text text-anchor="start" x="315.254" y="-16.5" font-family="Helvetica,sans-Serif" font-size="10.00">::store_if_enabled&lt;</text>
<text text-anchor="middle" x="373.201" y="-6.5" font-family="Helvetica,sans-Serif" font-size="10.00"> int, UseBinningAnalysis &gt;</text>
</a>
</g>
</g>
<!-- Node1&#45;&gt;Node4 -->
<g id="edge3" class="edge"><title>Node1&#45;&gt;Node4</title>
<path fill="none" stroke="orange" stroke-dasharray="5,2" d="M114.137,-63.961C116.732,-63.4612 119.302,-62.9722 121.822,-62.5 184.572,-50.7404 256.409,-38.5317 306.995,-30.1414"/>
<polygon fill="orange" stroke="orange" points="113.2,-60.5778 104.056,-65.9297 114.541,-67.448 113.2,-60.5778"/>
<text text-anchor="middle" x="195.65" y="-64.5" font-family="Helvetica,sans-Serif" font-size="10.00"> &lt; int, UseBinningAnalysis &gt;</text>
</g>
</g>
</svg>
