<?xml version="1.0" encoding="UTF-8" standalone="no"?>
<!DOCTYPE svg PUBLIC "-//W3C//DTD SVG 1.1//EN"
 "http://www.w3.org/Graphics/SVG/1.1/DTD/svg11.dtd">
<!-- Generated by graphviz version 2.38.0 (20140413.2041)
 -->
<!-- Title: Tomographer::MHRWTasks::CDataBase&lt; CountIntType_, StepRealType_ &gt; Pages: 1 -->
<svg width="216pt" height="292pt"
 viewBox="0.00 0.00 216.10 292.00" xmlns="http://www.w3.org/2000/svg" xmlns:xlink="http://www.w3.org/1999/xlink">
<g id="graph0" class="graph" transform="scale(1 1) rotate(0) translate(4 288)">
<title>Tomographer::MHRWTasks::CDataBase&lt; CountIntType_, StepRealType_ &gt;</title>
<!-- Node1 -->
<g id="node1" class="node"><title>Node1</title>
<polygon fill="#bfbfbf" stroke="black" points="20.1245,-0.5 20.1245,-38.5 160.924,-38.5 160.924,-0.5 20.1245,-0.5"/>
<text text-anchor="start" x="28.1245" y="-26.5" font-family="Helvetica,sans-Serif" font-size="10.00">Tomographer::MHRWTasks</text>
<text text-anchor="start" x="28.1245" y="-16.5" font-family="Helvetica,sans-Serif" font-size="10.00">::CDataBase&lt; CountIntType</text>
<text text-anchor="middle" x="90.5244" y="-6.5" font-family="Helvetica,sans-Serif" font-size="10.00">_, StepRealType_ &gt;</text>
</g>
<!-- Node2 -->
<g id="node2" class="node"><title>Node2</title>
<g id="a_node2"><a xlink:href="struct_tomographer_1_1_m_h_r_w_params.html" target="_top" xlink:title="Tomographer::MHRWParams\l\&lt; CountIntType, StepRealType \&gt;">
<polygon fill="none" stroke="black" points="9.97314,-85.5 9.97314,-113.5 171.076,-113.5 171.076,-85.5 9.97314,-85.5"/>
<text text-anchor="start" x="17.9731" y="-101.5" font-family="Helvetica,sans-Serif" font-size="10.00">Tomographer::MHRWParams</text>
<text text-anchor="middle" x="90.5244" y="-91.5" font-family="Helvetica,sans-Serif" font-size="10.00">&lt; CountIntType, StepRealType &gt;</text>
</a>
</g>
</g>
<!-- Node2&#45;&gt;Node1 -->
<g id="edge1" class="edge"><title>Node2&#45;&gt;Node1</title>
<path fill="none" stroke="#9a32cd" stroke-dasharray="5,2" d="M90.5244,-74.9773C90.5244,-63.3697 90.5244,-49.5786 90.5244,-38.7768"/>
<polygon fill="#9a32cd" stroke="#9a32cd" points="87.0245,-75.2683 90.5244,-85.2684 94.0245,-75.2684 87.0245,-75.2683"/>
<text text-anchor="middle" x="123.588" y="-59" font-family="Helvetica,sans-Serif" font-size="10.00"> mhrw_params</text>
</g>
<!-- Node3 -->
<g id="node3" class="node"><title>Node3</title>
<g id="a_node3"><a xlink:href="struct_tomographer_1_1_m_h_r_w_params.html" target="_top" xlink:title="Specify the parameters of a Metropolis&#45;Hastings random walk. ">
<polygon fill="none" stroke="black" points="4.41162,-170.5 4.41162,-198.5 176.637,-198.5 176.637,-170.5 4.41162,-170.5"/>
<text text-anchor="start" x="12.4116" y="-186.5" font-family="Helvetica,sans-Serif" font-size="10.00">Tomographer::MHRWParams</text>
<text text-anchor="middle" x="90.5244" y="-176.5" font-family="Helvetica,sans-Serif" font-size="10.00">&lt; CountIntType_, StepRealType_ &gt;</text>
</a>
</g>
</g>
<!-- Node3&#45;&gt;Node2 -->
<g id="edge2" class="edge"><title>Node3&#45;&gt;Node2</title>
<path fill="none" stroke="orange" stroke-dasharray="5,2" d="M90.5244,-160.038C90.5244,-144.969 90.5244,-125.959 90.5244,-113.529"/>
<polygon fill="orange" stroke="orange" points="87.0245,-160.165 90.5244,-170.165 94.0245,-160.165 87.0245,-160.165"/>
<text text-anchor="start" x="90.5244" y="-144" font-family="Helvetica,sans-Serif" font-size="10.00"> &lt; CountIntType, StepReal</text>
<text text-anchor="middle" x="149.313" y="-134" font-family="Helvetica,sans-Serif" font-size="10.00">Type &gt;</text>
</g>
<!-- Node4 -->
<g id="node4" class="node"><title>Node4</title>
<polygon fill="none" stroke="#bfbfbf" points="0,-265.5 0,-283.5 81.0488,-283.5 81.0488,-265.5 0,-265.5"/>
<text text-anchor="middle" x="40.5244" y="-271.5" font-family="Helvetica,sans-Serif" font-size="10.00">CountIntType_</text>
</g>
<!-- Node4&#45;&gt;Node3 -->
<g id="edge3" class="edge"><title>Node4&#45;&gt;Node3</title>
<path fill="none" stroke="#9a32cd" stroke-dasharray="5,2" d="M50.132,-256.591C59.7209,-239.714 74.2557,-214.133 83.0254,-198.698"/>
<polygon fill="#9a32cd" stroke="#9a32cd" points="47.0357,-254.955 45.1387,-265.379 53.1219,-258.413 47.0357,-254.955"/>
<text text-anchor="middle" x="91.5391" y="-239" font-family="Helvetica,sans-Serif" font-size="10.00"> n_run</text>
<text text-anchor="middle" x="91.5391" y="-229" font-family="Helvetica,sans-Serif" font-size="10.00">n_therm</text>
<text text-anchor="middle" x="91.5391" y="-219" font-family="Helvetica,sans-Serif" font-size="10.00">n_sweep</text>
</g>
<!-- Node5 -->
<g id="node5" class="node"><title>Node5</title>
<polygon fill="none" stroke="#bfbfbf" points="99.3325,-265.5 99.3325,-283.5 183.716,-283.5 183.716,-265.5 99.3325,-265.5"/>
<text text-anchor="middle" x="141.524" y="-271.5" font-family="Helvetica,sans-Serif" font-size="10.00">StepRealType_</text>
</g>
<!-- Node5&#45;&gt;Node3 -->
<g id="edge4" class="edge"><title>Node5&#45;&gt;Node3</title>
<path fill="none" stroke="#9a32cd" stroke-dasharray="5,2" d="M134.679,-255.825C129.945,-244.396 123.143,-229.396 115.524,-217 111.649,-210.695 106.697,-204.211 102.224,-198.776"/>
<polygon fill="#9a32cd" stroke="#9a32cd" points="131.442,-257.157 138.409,-265.139 137.94,-254.555 131.442,-257.157"/>
<text text-anchor="middle" x="153.037" y="-229" font-family="Helvetica,sans-Serif" font-size="10.00"> step_size</text>
</g>
</g>
</svg>
