<?xml version="1.0" encoding="UTF-8" standalone="no"?>
<!DOCTYPE svg PUBLIC "-//W3C//DTD SVG 1.1//EN"
 "http://www.w3.org/Graphics/SVG/1.1/DTD/svg11.dtd">
<!-- Generated by graphviz version 2.38.0 (20140413.2041)
 -->
<!-- Title: Tomographer::Logger::DefaultLoggerTraits Pages: 1 -->
<svg width="317pt" height="131pt"
 viewBox="0.00 0.00 317.26 131.00" xmlns="http://www.w3.org/2000/svg" xmlns:xlink="http://www.w3.org/1999/xlink">
<g id="graph0" class="graph" transform="scale(1 1) rotate(0) translate(4 127)">
<title>Tomographer::Logger::DefaultLoggerTraits</title>
<!-- Node1 -->
<g id="node1" class="node"><title>Node1</title>
<polygon fill="#bfbfbf" stroke="black" points="0,-47.5 0,-75.5 111.615,-75.5 111.615,-47.5 0,-47.5"/>
<text text-anchor="start" x="8" y="-63.5" font-family="Helvetica,sans-Serif" font-size="10.00">Tomographer::Logger</text>
<text text-anchor="middle" x="55.8076" y="-53.5" font-family="Helvetica,sans-Serif" font-size="10.00">::DefaultLoggerTraits</text>
</g>
<!-- Node2 -->
<g id="node2" class="node"><title>Node2</title>
<g id="a_node2"><a xlink:href="struct_tomographer_1_1_logger_1_1_logger_traits_3_01_buffer_logger_01_4.html" target="_top" xlink:title="Specialized Traits for BufferLogger – see LoggerTraits. ">
<polygon fill="none" stroke="black" points="152.337,-94.5 152.337,-122.5 304.543,-122.5 304.543,-94.5 152.337,-94.5"/>
<text text-anchor="start" x="160.337" y="-110.5" font-family="Helvetica,sans-Serif" font-size="10.00">Tomographer::Logger</text>
<text text-anchor="middle" x="228.44" y="-100.5" font-family="Helvetica,sans-Serif" font-size="10.00">::LoggerTraits&lt; BufferLogger &gt;</text>
</a>
</g>
</g>
<!-- Node1&#45;&gt;Node2 -->
<g id="edge1" class="edge"><title>Node1&#45;&gt;Node2</title>
<path fill="none" stroke="midnightblue" d="M117.874,-78.3204C137.106,-83.6179 158.131,-89.4092 176.575,-94.4894"/>
<polygon fill="midnightblue" stroke="midnightblue" points="118.573,-74.8828 108.003,-75.6015 116.714,-81.6315 118.573,-74.8828"/>
</g>
<!-- Node3 -->
<g id="node3" class="node"><title>Node3</title>
<g id="a_node3"><a xlink:href="struct_tomographer_1_1_logger_1_1_logger_traits_3_01_file_logger_01_4.html" target="_top" xlink:title="Specialized Traits for FileLogger – see LoggerTraits. ">
<polygon fill="none" stroke="black" points="157.532,-47.5 157.532,-75.5 299.348,-75.5 299.348,-47.5 157.532,-47.5"/>
<text text-anchor="start" x="165.532" y="-63.5" font-family="Helvetica,sans-Serif" font-size="10.00">Tomographer::Logger</text>
<text text-anchor="middle" x="228.44" y="-53.5" font-family="Helvetica,sans-Serif" font-size="10.00">::LoggerTraits&lt; FileLogger &gt;</text>
</a>
</g>
</g>
<!-- Node1&#45;&gt;Node3 -->
<g id="edge2" class="edge"><title>Node1&#45;&gt;Node3</title>
<path fill="none" stroke="midnightblue" d="M121.787,-61.5C133.408,-61.5 145.563,-61.5 157.32,-61.5"/>
<polygon fill="midnightblue" stroke="midnightblue" points="121.736,-58.0001 111.736,-61.5 121.736,-65.0001 121.736,-58.0001"/>
</g>
<!-- Node4 -->
<g id="node4" class="node"><title>Node4</title>
<g id="a_node4"><a xlink:href="struct_tomographer_1_1_logger_1_1_logger_traits_3_01_vacuum_logger_01_4.html" target="_top" xlink:title="Specialied Traits for VacuumLogger. See LoggerTraits&lt;BaseLogger&gt;. ">
<polygon fill="none" stroke="black" points="147.615,-0.5 147.615,-28.5 309.265,-28.5 309.265,-0.5 147.615,-0.5"/>
<text text-anchor="start" x="155.615" y="-16.5" font-family="Helvetica,sans-Serif" font-size="10.00">Tomographer::Logger</text>
<text text-anchor="middle" x="228.44" y="-6.5" font-family="Helvetica,sans-Serif" font-size="10.00">::LoggerTraits&lt; VacuumLogger &gt;</text>
</a>
</g>
</g>
<!-- Node1&#45;&gt;Node4 -->
<g id="edge3" class="edge"><title>Node1&#45;&gt;Node4</title>
<path fill="none" stroke="midnightblue" d="M117.874,-44.6796C137.106,-39.3821 158.131,-33.5908 176.575,-28.5106"/>
<polygon fill="midnightblue" stroke="midnightblue" points="116.714,-41.3685 108.003,-47.3985 118.573,-48.1172 116.714,-41.3685"/>
</g>
</g>
</svg>
