<?xml version="1.0" encoding="UTF-8" standalone="no"?>
<!DOCTYPE svg PUBLIC "-//W3C//DTD SVG 1.1//EN"
 "http://www.w3.org/Graphics/SVG/1.1/DTD/svg11.dtd">
<!-- Generated by graphviz version 2.38.0 (20140413.2041)
 -->
<!-- Title: Tomographer::MultiProc::FullStatusReport&lt; TaskStatusReportType &gt; Pages: 1 -->
<!--zoomable 94 -->
<svg id="main" version="1.1" xmlns="http://www.w3.org/2000/svg" xmlns:xlink="http://www.w3.org/1999/xlink" xml:space="preserve" onload="init(evt)">
<style type="text/css"><![CDATA[
.edge:hover path { stroke: red; }
.edge:hover polygon { stroke: red; fill: red; }
]]></style>
<script type="text/javascript"><![CDATA[
var edges = document.getElementsByTagName('g');
if (edges && edges.length) {
  for (var i=0;i<edges.length;i++) {
    if (edges[i].id.substr(0,4)=='edge') {
      edges[i].setAttribute('class','edge');
    }
  }
}
]]></script>
        <defs>
                <circle id="rim" cx="0" cy="0" r="7"/>
                <circle id="rim2" cx="0" cy="0" r="3.5"/>
                <g id="zoomPlus">
                        <use xlink:href="#rim" fill="#404040">
                                <set attributeName="fill" to="#808080" begin="zoomplus.mouseover" end="zoomplus.mouseout"/>
                        </use>
                        <path d="M-4,0h8M0,-4v8" fill="none" stroke="white" stroke-width="1.5" pointer-events="none"/>
                </g>
                <g id="zoomMin">
                        <use xlink:href="#rim" fill="#404040">
                                <set attributeName="fill" to="#808080" begin="zoomminus.mouseover" end="zoomminus.mouseout"/>
                        </use>
                        <path d="M-4,0h8" fill="none" stroke="white" stroke-width="1.5" pointer-events="none"/>
                </g>
                <g id="dirArrow">
                        <path fill="none" stroke="white" stroke-width="1.5" d="M0,-3.0v7 M-2.5,-0.5L0,-3.0L2.5,-0.5"/>
                </g>
               <g id="resetDef">
                       <use xlink:href="#rim2" fill="#404040">
                               <set attributeName="fill" to="#808080" begin="reset.mouseover" end="reset.mouseout"/>
                       </use>
               </g>
        </defs>

<script type="text/javascript">
var viewWidth = 894;
var viewHeight = 94;
var sectionId = 'dynsection-0';
</script>
<script xlink:href="svgpan.js"/>
<svg id="graph" class="graph">
<g id="viewport">
<title>Tomographer::MultiProc::FullStatusReport&lt; TaskStatusReportType &gt;</title>
<!-- Node1 -->
<g id="node1" class="node"><title>Node1</title>
<polygon fill="#bfbfbf" stroke="black" points="732.75,-15.5 732.75,-53.5 886.138,-53.5 886.138,-15.5 732.75,-15.5"/>
<text text-anchor="start" x="740.75" y="-41.5" font-family="Helvetica,sans-Serif" font-size="10.00">Tomographer::MultiProc</text>
<text text-anchor="start" x="740.75" y="-31.5" font-family="Helvetica,sans-Serif" font-size="10.00">::FullStatusReport&lt; TaskStatus</text>
<text text-anchor="middle" x="809.444" y="-21.5" font-family="Helvetica,sans-Serif" font-size="10.00">ReportType &gt;</text>
</g>
<!-- Node2 -->
<g id="node2" class="node"><title>Node2</title>
<g id="a_node2"><a doxygen="/Users/philippe/Documents/ETH/PhD/projects/qtomo/tomographer/doc/cppreference-doxygen-web.tag.xml:http://en.cppreference.com/w/" xlink:href="http://en.cppreference.com/w/cpp/container/vector.html" target="_top" xlink:title="std::vector\&lt; TaskStatusReport\lType, typename Tools::NeedOwnOperator\lNew\&lt; TaskStatusReportType \&gt;::AllocatorType \&gt;">
<polygon fill="none" stroke="black" points="391.604,-37.5 391.604,-75.5 620.046,-75.5 620.046,-37.5 391.604,-37.5"/>
<text text-anchor="start" x="399.604" y="-63.5" font-family="Helvetica,sans-Serif" font-size="10.00">std::vector&lt; TaskStatusReport</text>
<text text-anchor="start" x="399.604" y="-53.5" font-family="Helvetica,sans-Serif" font-size="10.00">Type, typename Tools::NeedOwnOperator</text>
<text text-anchor="middle" x="505.825" y="-43.5" font-family="Helvetica,sans-Serif" font-size="10.00">New&lt; TaskStatusReportType &gt;::AllocatorType &gt;</text>
</a>
</g>
</g>
<!-- Node2&#45;&gt;Node1 -->
<g id="edge1" class="edge"><title>Node2&#45;&gt;Node1</title>
<path fill="none" stroke="#9a32cd" stroke-dasharray="5,2" d="M630.578,-47.4735C665.083,-44.9567 701.541,-42.2975 732.406,-40.0462"/>
<polygon fill="#9a32cd" stroke="#9a32cd" points="630.143,-43.9958 620.424,-48.2141 630.653,-50.9773 630.143,-43.9958"/>
<text text-anchor="middle" x="676.398" y="-48.5" font-family="Helvetica,sans-Serif" font-size="10.00"> workers_reports</text>
</g>
<!-- Node3 -->
<g id="node3" class="node"><title>Node3</title>
<g id="a_node3"><a doxygen="/Users/philippe/Documents/ETH/PhD/projects/qtomo/tomographer/doc/cppreference-doxygen-web.tag.xml:http://en.cppreference.com/w/" xlink:href="http://en.cppreference.com/w/cpp/container/vector.html" target="_top" xlink:title="STL class. ">
<polygon fill="none" stroke="black" points="108.354,-19.5 108.354,-37.5 193.476,-37.5 193.476,-19.5 108.354,-19.5"/>
<text text-anchor="middle" x="150.915" y="-25.5" font-family="Helvetica,sans-Serif" font-size="10.00">std::vector&lt; T &gt;</text>
</a>
</g>
</g>
<!-- Node3&#45;&gt;Node2 -->
<g id="edge2" class="edge"><title>Node3&#45;&gt;Node2</title>
<path fill="none" stroke="orange" stroke-dasharray="5,2" d="M203.849,-32.6205C252.947,-36.5159 328.273,-42.4923 391.284,-47.4916"/>
<polygon fill="orange" stroke="orange" points="204.03,-29.1239 193.784,-31.8219 203.476,-36.102 204.03,-29.1239"/>
<text text-anchor="start" x="211.476" y="-77.5" font-family="Helvetica,sans-Serif" font-size="10.00"> &lt; TaskStatusReportType,</text>
<text text-anchor="start" x="211.476" y="-67.5" font-family="Helvetica,sans-Serif" font-size="10.00"> typename Tools::NeedOwnOperator</text>
<text text-anchor="start" x="211.476" y="-57.5" font-family="Helvetica,sans-Serif" font-size="10.00">New&lt; TaskStatusReportType &gt;</text>
<text text-anchor="middle" x="292.54" y="-47.5" font-family="Helvetica,sans-Serif" font-size="10.00">::AllocatorType &gt;</text>
</g>
<!-- Node5 -->
<g id="node5" class="node"><title>Node5</title>
<g id="a_node5"><a doxygen="/Users/philippe/Documents/ETH/PhD/projects/qtomo/tomographer/doc/cppreference-doxygen-web.tag.xml:http://en.cppreference.com/w/" xlink:href="http://en.cppreference.com/w/cpp/container/vector.html" target="_top" xlink:title="std::vector\&lt; bool \&gt;">
<polygon fill="none" stroke="black" points="456.69,-0.5 456.69,-18.5 554.96,-18.5 554.96,-0.5 456.69,-0.5"/>
<text text-anchor="middle" x="505.825" y="-6.5" font-family="Helvetica,sans-Serif" font-size="10.00">std::vector&lt; bool &gt;</text>
</a>
</g>
</g>
<!-- Node3&#45;&gt;Node5 -->
<g id="edge5" class="edge"><title>Node3&#45;&gt;Node5</title>
<path fill="none" stroke="orange" stroke-dasharray="5,2" d="M203.695,-21.2413C206.324,-20.9681 208.929,-20.7183 211.476,-20.5 297.545,-13.1232 398.241,-10.6926 456.463,-9.89227"/>
<polygon fill="orange" stroke="orange" points="203.056,-17.7913 193.513,-22.3945 203.844,-24.7468 203.056,-17.7913"/>
<text text-anchor="middle" x="292.54" y="-22.5" font-family="Helvetica,sans-Serif" font-size="10.00"> &lt; bool &gt;</text>
</g>
<!-- Node4 -->
<g id="node4" class="node"><title>Node4</title>
<polygon fill="none" stroke="#bfbfbf" points="0,-19.5 0,-37.5 29,-37.5 29,-19.5 0,-19.5"/>
<text text-anchor="middle" x="14.5" y="-25.5" font-family="Helvetica,sans-Serif" font-size="10.00">T</text>
</g>
<!-- Node4&#45;&gt;Node3 -->
<g id="edge3" class="edge"><title>Node4&#45;&gt;Node3</title>
<path fill="none" stroke="#9a32cd" stroke-dasharray="5,2" d="M39.5707,-28.5C58.612,-28.5 85.6537,-28.5 108.201,-28.5"/>
<polygon fill="#9a32cd" stroke="#9a32cd" points="39.3785,-25.0001 29.3785,-28.5 39.3785,-32.0001 39.3785,-25.0001"/>
<text text-anchor="middle" x="68.6772" y="-30.5" font-family="Helvetica,sans-Serif" font-size="10.00"> elements</text>
</g>
<!-- Node5&#45;&gt;Node1 -->
<g id="edge4" class="edge"><title>Node5&#45;&gt;Node1</title>
<path fill="none" stroke="#9a32cd" stroke-dasharray="5,2" d="M565.455,-14.3596C613.184,-18.3156 680.896,-23.9281 732.724,-28.2238"/>
<polygon fill="#9a32cd" stroke="#9a32cd" points="565.54,-10.8548 555.285,-13.5167 564.962,-17.8308 565.54,-10.8548"/>
<text text-anchor="middle" x="676.398" y="-28.5" font-family="Helvetica,sans-Serif" font-size="10.00"> workers_running</text>
</g>
</g>
</svg>
        <g id="navigator" transform="translate(0 0)" fill="#404254">
                <rect fill="#f2f5e9" fill-opacity="0.5" stroke="#606060" stroke-width=".5" x="0" y="0" width="60" height="60"/>
                <use id="zoomplus" xlink:href="#zoomPlus" x="17" y="9" onmousedown="handleZoom(evt,'in')"/>
                <use id="zoomminus" xlink:href="#zoomMin" x="42" y="9" onmousedown="handleZoom(evt,'out')"/>
                <use id="reset" xlink:href="#resetDef" x="30" y="36" onmousedown="handleReset()"/>
                <g id="arrowUp" xlink:href="#dirArrow" transform="translate(30 24)" onmousedown="handlePan(0,-1)">
                  <use xlink:href="#rim" fill="#404040">
                        <set attributeName="fill" to="#808080" begin="arrowUp.mouseover" end="arrowUp.mouseout"/>
                  </use>
                  <path fill="none" stroke="white" stroke-width="1.5" d="M0,-3.0v7 M-2.5,-0.5L0,-3.0L2.5,-0.5"/>
                </g>
                <g id="arrowRight" xlink:href="#dirArrow" transform="rotate(90) translate(36 -43)" onmousedown="handlePan(1,0)">
                  <use xlink:href="#rim" fill="#404040">
                        <set attributeName="fill" to="#808080" begin="arrowRight.mouseover" end="arrowRight.mouseout"/>
                  </use>
                  <path fill="none" stroke="white" stroke-width="1.5" d="M0,-3.0v7 M-2.5,-0.5L0,-3.0L2.5,-0.5"/>
                </g>
                <g id="arrowDown" xlink:href="#dirArrow" transform="rotate(180) translate(-30 -48)" onmousedown="handlePan(0,1)">
                  <use xlink:href="#rim" fill="#404040">
                        <set attributeName="fill" to="#808080" begin="arrowDown.mouseover" end="arrowDown.mouseout"/>
                  </use>
                  <path fill="none" stroke="white" stroke-width="1.5" d="M0,-3.0v7 M-2.5,-0.5L0,-3.0L2.5,-0.5"/>
                </g>
                <g id="arrowLeft" xlink:href="#dirArrow" transform="rotate(270) translate(-36 17)" onmousedown="handlePan(-1,0)">
                  <use xlink:href="#rim" fill="#404040">
                        <set attributeName="fill" to="#808080" begin="arrowLeft.mouseover" end="arrowLeft.mouseout"/>
                  </use>
                  <path fill="none" stroke="white" stroke-width="1.5" d="M0,-3.0v7 M-2.5,-0.5L0,-3.0L2.5,-0.5"/>
                </g>
        </g>
        <svg viewBox="0 0 15 15" width="100%" height="30px" preserveAspectRatio="xMaxYMin meet">
         <g id="arrow_out" transform="scale(0.3 0.3)">
          <a xlink:href="struct_tomographer_1_1_multi_proc_1_1_full_status_report__coll__graph_org.svg" target="_base">
           <rect id="button" ry="5" rx="5" y="6" x="6" height="38" width="38"
                fill="#f2f5e9" fill-opacity="0.5" stroke="#606060" stroke-width="1.0"/>
           <path id="arrow"
             d="M 11.500037,31.436501 C 11.940474,20.09759 22.043105,11.32322 32.158766,21.979434 L 37.068811,17.246167 C 37.068811,17.246167 37.088388,32 37.088388,32 L 22.160133,31.978069 C 22.160133,31.978069 26.997745,27.140456 26.997745,27.140456 C 18.528582,18.264221 13.291696,25.230495 11.500037,31.436501 z"
             style="fill:#404040;"/>
          </a>
         </g>
        </svg>
</svg>
