<?xml version="1.0" encoding="UTF-8" standalone="no"?>
<!DOCTYPE svg PUBLIC "-//W3C//DTD SVG 1.1//EN"
 "http://www.w3.org/Graphics/SVG/1.1/DTD/svg11.dtd">
<!-- Generated by graphviz version 2.38.0 (20140413.2041)
 -->
<!-- Title: Tomographer::MHRWTasks::ValueHistogramTasks::ResultsCollectorSimple&lt; CDataBaseType_, LoggerType_ &gt;::RunTaskResult Pages: 1 -->
<!--zoomable 140 -->
<svg id="main" version="1.1" xmlns="http://www.w3.org/2000/svg" xmlns:xlink="http://www.w3.org/1999/xlink" xml:space="preserve" onload="init(evt)">
<style type="text/css"><![CDATA[
.edge:hover path { stroke: red; }
.edge:hover polygon { stroke: red; fill: red; }
]]></style>
<script type="text/javascript"><![CDATA[
var edges = document.getElementsByTagName('g');
if (edges && edges.length) {
  for (var i=0;i<edges.length;i++) {
    if (edges[i].id.substr(0,4)=='edge') {
      edges[i].setAttribute('class','edge');
    }
  }
}
]]></script>
        <defs>
                <circle id="rim" cx="0" cy="0" r="7"/>
                <circle id="rim2" cx="0" cy="0" r="3.5"/>
                <g id="zoomPlus">
                        <use xlink:href="#rim" fill="#404040">
                                <set attributeName="fill" to="#808080" begin="zoomplus.mouseover" end="zoomplus.mouseout"/>
                        </use>
                        <path d="M-4,0h8M0,-4v8" fill="none" stroke="white" stroke-width="1.5" pointer-events="none"/>
                </g>
                <g id="zoomMin">
                        <use xlink:href="#rim" fill="#404040">
                                <set attributeName="fill" to="#808080" begin="zoomminus.mouseover" end="zoomminus.mouseout"/>
                        </use>
                        <path d="M-4,0h8" fill="none" stroke="white" stroke-width="1.5" pointer-events="none"/>
                </g>
                <g id="dirArrow">
                        <path fill="none" stroke="white" stroke-width="1.5" d="M0,-3.0v7 M-2.5,-0.5L0,-3.0L2.5,-0.5"/>
                </g>
               <g id="resetDef">
                       <use xlink:href="#rim2" fill="#404040">
                               <set attributeName="fill" to="#808080" begin="reset.mouseover" end="reset.mouseout"/>
                       </use>
               </g>
        </defs>

<script type="text/javascript">
var viewWidth = 981;
var viewHeight = 140;
var sectionId = 'dynsection-0';
</script>
<script xlink:href="svgpan.js"/>
<svg id="graph" class="graph">
<g id="viewport">
<title>Tomographer::MHRWTasks::ValueHistogramTasks::ResultsCollectorSimple&lt; CDataBaseType_, LoggerType_ &gt;::RunTaskResult</title>
<!-- Node1 -->
<g id="node1" class="node"><title>Node1</title>
<polygon fill="#bfbfbf" stroke="black" points="811.267,-11.5 811.267,-69.5 972.647,-69.5 972.647,-11.5 811.267,-11.5"/>
<text text-anchor="start" x="819.267" y="-57.5" font-family="Helvetica,sans-Serif" font-size="10.00">Tomographer::MHRWTasks</text>
<text text-anchor="start" x="819.267" y="-47.5" font-family="Helvetica,sans-Serif" font-size="10.00">::ValueHistogramTasks</text>
<text text-anchor="start" x="819.267" y="-37.5" font-family="Helvetica,sans-Serif" font-size="10.00">::ResultsCollectorSimple</text>
<text text-anchor="start" x="819.267" y="-27.5" font-family="Helvetica,sans-Serif" font-size="10.00">&lt; CDataBaseType_, LoggerType</text>
<text text-anchor="middle" x="891.957" y="-17.5" font-family="Helvetica,sans-Serif" font-size="10.00">_ &gt;::RunTaskResult</text>
</g>
<!-- Node2 -->
<g id="node2" class="node"><title>Node2</title>
<g id="a_node2"><a xlink:href="struct_tomographer_1_1_m_h_r_w_tasks_1_1_m_h_random_walk_task_result.html" target="_top" xlink:title="Tomographer::MHRWTasks\l::MHRandomWalkTaskResult\l\&lt; MHRWStatsCollectorResultType,\l CountIntType, StepRealType \&gt;">
<polygon fill="none" stroke="black" points="595.796,-57.5 595.796,-105.5 767.504,-105.5 767.504,-57.5 595.796,-57.5"/>
<text text-anchor="start" x="603.796" y="-93.5" font-family="Helvetica,sans-Serif" font-size="10.00">Tomographer::MHRWTasks</text>
<text text-anchor="start" x="603.796" y="-83.5" font-family="Helvetica,sans-Serif" font-size="10.00">::MHRandomWalkTaskResult</text>
<text text-anchor="start" x="603.796" y="-73.5" font-family="Helvetica,sans-Serif" font-size="10.00">&lt; MHRWStatsCollectorResultType,</text>
<text text-anchor="middle" x="681.65" y="-63.5" font-family="Helvetica,sans-Serif" font-size="10.00"> CountIntType, StepRealType &gt;</text>
</a>
</g>
</g>
<!-- Node2&#45;&gt;Node1 -->
<g id="edge1" class="edge"><title>Node2&#45;&gt;Node1</title>
<path fill="none" stroke="midnightblue" d="M777.529,-62.8255C788.797,-60.6076 800.212,-58.3609 811.239,-56.1905"/>
<polygon fill="midnightblue" stroke="midnightblue" points="776.813,-59.3992 767.677,-64.7646 778.165,-66.2674 776.813,-59.3992"/>
</g>
<!-- Node3 -->
<g id="node3" class="node"><title>Node3</title>
<polygon fill="none" stroke="#bfbfbf" points="220.378,-93.5 220.378,-131.5 389.308,-131.5 389.308,-93.5 220.378,-93.5"/>
<text text-anchor="start" x="228.378" y="-119.5" font-family="Helvetica,sans-Serif" font-size="10.00">Tools::NeedOwnOperatorNew</text>
<text text-anchor="start" x="228.378" y="-109.5" font-family="Helvetica,sans-Serif" font-size="10.00">&lt; MHRWStatsCollectorResultType</text>
<text text-anchor="middle" x="304.843" y="-99.5" font-family="Helvetica,sans-Serif" font-size="10.00"> &gt;::ProviderType</text>
</g>
<!-- Node3&#45;&gt;Node2 -->
<g id="edge2" class="edge"><title>Node3&#45;&gt;Node2</title>
<path fill="none" stroke="midnightblue" d="M399.748,-104.733C459.893,-99.7587 537.311,-93.3554 595.637,-88.5314"/>
<polygon fill="midnightblue" stroke="midnightblue" points="399.168,-101.269 389.49,-105.582 399.745,-108.245 399.168,-101.269"/>
</g>
<!-- Node4 -->
<g id="node4" class="node"><title>Node4</title>
<g id="a_node4"><a xlink:href="struct_tomographer_1_1_m_h_r_w_tasks_1_1_m_h_random_walk_task_result.html" target="_top" xlink:title="Result of a task run. ">
<polygon fill="none" stroke="black" points="220.378,-26.5 220.378,-74.5 389.308,-74.5 389.308,-26.5 220.378,-26.5"/>
<text text-anchor="start" x="228.378" y="-62.5" font-family="Helvetica,sans-Serif" font-size="10.00">Tomographer::MHRWTasks</text>
<text text-anchor="start" x="228.378" y="-52.5" font-family="Helvetica,sans-Serif" font-size="10.00">::MHRandomWalkTaskResult</text>
<text text-anchor="start" x="228.378" y="-42.5" font-family="Helvetica,sans-Serif" font-size="10.00">&lt; MHRWStatsCollectorResultType</text>
<text text-anchor="middle" x="304.843" y="-32.5" font-family="Helvetica,sans-Serif" font-size="10.00">_, CountIntType, StepRealType &gt;</text>
</a>
</g>
</g>
<!-- Node4&#45;&gt;Node2 -->
<g id="edge3" class="edge"><title>Node4&#45;&gt;Node2</title>
<path fill="none" stroke="orange" stroke-dasharray="5,2" d="M399.878,-54.4372C450.642,-56.9999 514.348,-60.9197 571.033,-66.5 579.062,-67.2904 587.406,-68.2251 595.747,-69.2357"/>
<polygon fill="orange" stroke="orange" points="399.739,-50.9261 389.578,-53.9268 399.392,-57.9175 399.739,-50.9261"/>
<text text-anchor="start" x="407.308" y="-78.5" font-family="Helvetica,sans-Serif" font-size="10.00"> &lt; MHRWStatsCollectorResult</text>
<text text-anchor="middle" x="489.17" y="-68.5" font-family="Helvetica,sans-Serif" font-size="10.00">Type, CountIntType, StepRealType &gt;</text>
</g>
<!-- Node5 -->
<g id="node5" class="node"><title>Node5</title>
<polygon fill="none" stroke="#bfbfbf" points="0,-31.5 0,-69.5 183.378,-69.5 183.378,-31.5 0,-31.5"/>
<text text-anchor="start" x="8" y="-57.5" font-family="Helvetica,sans-Serif" font-size="10.00">Tools::NeedOwnOperatorNew</text>
<text text-anchor="start" x="8" y="-47.5" font-family="Helvetica,sans-Serif" font-size="10.00">::ProviderType&lt; MHRWStatsCollector</text>
<text text-anchor="middle" x="91.689" y="-37.5" font-family="Helvetica,sans-Serif" font-size="10.00">ResultType_ &gt;</text>
</g>
<!-- Node5&#45;&gt;Node4 -->
<g id="edge4" class="edge"><title>Node5&#45;&gt;Node4</title>
<path fill="none" stroke="midnightblue" d="M193.504,-50.5C202.426,-50.5 211.394,-50.5 220.152,-50.5"/>
<polygon fill="midnightblue" stroke="midnightblue" points="193.463,-47.0001 183.463,-50.5 193.463,-54.0001 193.463,-47.0001"/>
</g>
<!-- Node6 -->
<g id="node6" class="node"><title>Node6</title>
<polygon fill="none" stroke="#bfbfbf" points="589.033,-0.5 589.033,-38.5 774.267,-38.5 774.267,-0.5 589.033,-0.5"/>
<text text-anchor="start" x="597.033" y="-26.5" font-family="Helvetica,sans-Serif" font-size="10.00">Tools::NeedOwnOperatorNew</text>
<text text-anchor="start" x="597.033" y="-16.5" font-family="Helvetica,sans-Serif" font-size="10.00">::ProviderType&lt; NormalizedHistogram</text>
<text text-anchor="middle" x="681.65" y="-6.5" font-family="Helvetica,sans-Serif" font-size="10.00">Type &gt;</text>
</g>
<!-- Node6&#45;&gt;Node1 -->
<g id="edge5" class="edge"><title>Node6&#45;&gt;Node1</title>
<path fill="none" stroke="midnightblue" d="M784.386,-29.7563C793.324,-30.6573 802.285,-31.5607 811.006,-32.44"/>
<polygon fill="midnightblue" stroke="midnightblue" points="784.62,-26.2622 774.32,-28.7415 783.918,-33.2269 784.62,-26.2622"/>
</g>
</g>
</svg>
        <g id="navigator" transform="translate(0 0)" fill="#404254">
                <rect fill="#f2f5e9" fill-opacity="0.5" stroke="#606060" stroke-width=".5" x="0" y="0" width="60" height="60"/>
                <use id="zoomplus" xlink:href="#zoomPlus" x="17" y="9" onmousedown="handleZoom(evt,'in')"/>
                <use id="zoomminus" xlink:href="#zoomMin" x="42" y="9" onmousedown="handleZoom(evt,'out')"/>
                <use id="reset" xlink:href="#resetDef" x="30" y="36" onmousedown="handleReset()"/>
                <g id="arrowUp" xlink:href="#dirArrow" transform="translate(30 24)" onmousedown="handlePan(0,-1)">
                  <use xlink:href="#rim" fill="#404040">
                        <set attributeName="fill" to="#808080" begin="arrowUp.mouseover" end="arrowUp.mouseout"/>
                  </use>
                  <path fill="none" stroke="white" stroke-width="1.5" d="M0,-3.0v7 M-2.5,-0.5L0,-3.0L2.5,-0.5"/>
                </g>
                <g id="arrowRight" xlink:href="#dirArrow" transform="rotate(90) translate(36 -43)" onmousedown="handlePan(1,0)">
                  <use xlink:href="#rim" fill="#404040">
                        <set attributeName="fill" to="#808080" begin="arrowRight.mouseover" end="arrowRight.mouseout"/>
                  </use>
                  <path fill="none" stroke="white" stroke-width="1.5" d="M0,-3.0v7 M-2.5,-0.5L0,-3.0L2.5,-0.5"/>
                </g>
                <g id="arrowDown" xlink:href="#dirArrow" transform="rotate(180) translate(-30 -48)" onmousedown="handlePan(0,1)">
                  <use xlink:href="#rim" fill="#404040">
                        <set attributeName="fill" to="#808080" begin="arrowDown.mouseover" end="arrowDown.mouseout"/>
                  </use>
                  <path fill="none" stroke="white" stroke-width="1.5" d="M0,-3.0v7 M-2.5,-0.5L0,-3.0L2.5,-0.5"/>
                </g>
                <g id="arrowLeft" xlink:href="#dirArrow" transform="rotate(270) translate(-36 17)" onmousedown="handlePan(-1,0)">
                  <use xlink:href="#rim" fill="#404040">
                        <set attributeName="fill" to="#808080" begin="arrowLeft.mouseover" end="arrowLeft.mouseout"/>
                  </use>
                  <path fill="none" stroke="white" stroke-width="1.5" d="M0,-3.0v7 M-2.5,-0.5L0,-3.0L2.5,-0.5"/>
                </g>
        </g>
        <svg viewBox="0 0 15 15" width="100%" height="30px" preserveAspectRatio="xMaxYMin meet">
         <g id="arrow_out" transform="scale(0.3 0.3)">
          <a xlink:href="struct_tomographer_1_1_m_h_r_w_tasks_1_1_value_histogram_tasks_1_1_results_collector_simple_1_1_run_task_result__inherit__graph_org.svg" target="_base">
           <rect id="button" ry="5" rx="5" y="6" x="6" height="38" width="38"
                fill="#f2f5e9" fill-opacity="0.5" stroke="#606060" stroke-width="1.0"/>
           <path id="arrow"
             d="M 11.500037,31.436501 C 11.940474,20.09759 22.043105,11.32322 32.158766,21.979434 L 37.068811,17.246167 C 37.068811,17.246167 37.088388,32 37.088388,32 L 22.160133,31.978069 C 22.160133,31.978069 26.997745,27.140456 26.997745,27.140456 C 18.528582,18.264221 13.291696,25.230495 11.500037,31.436501 z"
             style="fill:#404040;"/>
          </a>
         </g>
        </svg>
</svg>
