<?xml version="1.0" encoding="UTF-8" standalone="no"?>
<!DOCTYPE svg PUBLIC "-//W3C//DTD SVG 1.1//EN"
 "http://www.w3.org/Graphics/SVG/1.1/DTD/svg11.dtd">
<!-- Generated by graphviz version 2.38.0 (20140413.2041)
 -->
<!-- Title: Tomographer::MultiProc::OMP::FullStatusReport&lt; TaskStatusReportType &gt; Pages: 1 -->
<svg width="863pt" height="94pt"
 viewBox="0.00 0.00 862.76 93.50" xmlns="http://www.w3.org/2000/svg" xmlns:xlink="http://www.w3.org/1999/xlink">
<g id="graph0" class="graph" transform="scale(1 1) rotate(0) translate(4 89.5)">
<title>Tomographer::MultiProc::OMP::FullStatusReport&lt; TaskStatusReportType &gt;</title>
<!-- Node1 -->
<g id="node1" class="node"><title>Node1</title>
<polygon fill="#bfbfbf" stroke="black" points="721.085,-15.5 721.085,-53.5 854.756,-53.5 854.756,-15.5 721.085,-15.5"/>
<text text-anchor="start" x="729.085" y="-41.5" font-family="Helvetica,sans-Serif" font-size="10.00">Tomographer::MultiProc</text>
<text text-anchor="start" x="729.085" y="-31.5" font-family="Helvetica,sans-Serif" font-size="10.00">::OMP::FullStatusReport</text>
<text text-anchor="middle" x="787.92" y="-21.5" font-family="Helvetica,sans-Serif" font-size="10.00">&lt; TaskStatusReportType &gt;</text>
</g>
<!-- Node2 -->
<g id="node2" class="node"><title>Node2</title>
<g id="a_node2"><a doxygen="/Users/philippe/Documents/ETH/PhD/projects/qtomo/tomographer/doc/cppreference-doxygen-web.tag.xml:http://en.cppreference.com/w/" xlink:href="http://en.cppreference.com/w/cpp/container/vector.html" target="_top" xlink:title="std::vector\&lt; TaskStatusReport\lType, typename Tools::NeedOwnOperator\lNew\&lt; TaskStatusReportType \&gt;::AllocatorType \&gt;">
<polygon fill="none" stroke="black" points="391.604,-37.5 391.604,-75.5 620.046,-75.5 620.046,-37.5 391.604,-37.5"/>
<text text-anchor="start" x="399.604" y="-63.5" font-family="Helvetica,sans-Serif" font-size="10.00">std::vector&lt; TaskStatusReport</text>
<text text-anchor="start" x="399.604" y="-53.5" font-family="Helvetica,sans-Serif" font-size="10.00">Type, typename Tools::NeedOwnOperator</text>
<text text-anchor="middle" x="505.825" y="-43.5" font-family="Helvetica,sans-Serif" font-size="10.00">New&lt; TaskStatusReportType &gt;::AllocatorType &gt;</text>
</a>
</g>
</g>
<!-- Node2&#45;&gt;Node1 -->
<g id="edge1" class="edge"><title>Node2&#45;&gt;Node1</title>
<path fill="none" stroke="#9a32cd" stroke-dasharray="5,2" d="M630.397,-46.7941C661.496,-44.3514 693.694,-41.8224 720.742,-39.698"/>
<polygon fill="#9a32cd" stroke="#9a32cd" points="630.042,-43.3111 620.347,-47.5835 630.59,-50.2896 630.042,-43.3111"/>
<text text-anchor="middle" x="670.565" y="-47.5" font-family="Helvetica,sans-Serif" font-size="10.00"> tasks_reports</text>
</g>
<!-- Node3 -->
<g id="node3" class="node"><title>Node3</title>
<g id="a_node3"><a doxygen="/Users/philippe/Documents/ETH/PhD/projects/qtomo/tomographer/doc/cppreference-doxygen-web.tag.xml:http://en.cppreference.com/w/" xlink:href="http://en.cppreference.com/w/cpp/container/vector.html" target="_top" xlink:title="STL class. ">
<polygon fill="none" stroke="black" points="108.354,-19.5 108.354,-37.5 193.476,-37.5 193.476,-19.5 108.354,-19.5"/>
<text text-anchor="middle" x="150.915" y="-25.5" font-family="Helvetica,sans-Serif" font-size="10.00">std::vector&lt; T &gt;</text>
</a>
</g>
</g>
<!-- Node3&#45;&gt;Node2 -->
<g id="edge2" class="edge"><title>Node3&#45;&gt;Node2</title>
<path fill="none" stroke="orange" stroke-dasharray="5,2" d="M203.849,-32.6205C252.947,-36.5159 328.273,-42.4923 391.284,-47.4916"/>
<polygon fill="orange" stroke="orange" points="204.03,-29.1239 193.784,-31.8219 203.476,-36.102 204.03,-29.1239"/>
<text text-anchor="start" x="211.476" y="-77.5" font-family="Helvetica,sans-Serif" font-size="10.00"> &lt; TaskStatusReportType,</text>
<text text-anchor="start" x="211.476" y="-67.5" font-family="Helvetica,sans-Serif" font-size="10.00"> typename Tools::NeedOwnOperator</text>
<text text-anchor="start" x="211.476" y="-57.5" font-family="Helvetica,sans-Serif" font-size="10.00">New&lt; TaskStatusReportType &gt;</text>
<text text-anchor="middle" x="292.54" y="-47.5" font-family="Helvetica,sans-Serif" font-size="10.00">::AllocatorType &gt;</text>
</g>
<!-- Node5 -->
<g id="node5" class="node"><title>Node5</title>
<g id="a_node5"><a doxygen="/Users/philippe/Documents/ETH/PhD/projects/qtomo/tomographer/doc/cppreference-doxygen-web.tag.xml:http://en.cppreference.com/w/" xlink:href="http://en.cppreference.com/w/cpp/container/vector.html" target="_top" xlink:title="std::vector\&lt; bool \&gt;">
<polygon fill="none" stroke="black" points="456.69,-0.5 456.69,-18.5 554.96,-18.5 554.96,-0.5 456.69,-0.5"/>
<text text-anchor="middle" x="505.825" y="-6.5" font-family="Helvetica,sans-Serif" font-size="10.00">std::vector&lt; bool &gt;</text>
</a>
</g>
</g>
<!-- Node3&#45;&gt;Node5 -->
<g id="edge5" class="edge"><title>Node3&#45;&gt;Node5</title>
<path fill="none" stroke="orange" stroke-dasharray="5,2" d="M203.695,-21.2413C206.324,-20.9681 208.929,-20.7183 211.476,-20.5 297.545,-13.1232 398.241,-10.6926 456.463,-9.89227"/>
<polygon fill="orange" stroke="orange" points="203.056,-17.7913 193.513,-22.3945 203.844,-24.7468 203.056,-17.7913"/>
<text text-anchor="middle" x="292.54" y="-22.5" font-family="Helvetica,sans-Serif" font-size="10.00"> &lt; bool &gt;</text>
</g>
<!-- Node4 -->
<g id="node4" class="node"><title>Node4</title>
<polygon fill="none" stroke="#bfbfbf" points="0,-19.5 0,-37.5 29,-37.5 29,-19.5 0,-19.5"/>
<text text-anchor="middle" x="14.5" y="-25.5" font-family="Helvetica,sans-Serif" font-size="10.00">T</text>
</g>
<!-- Node4&#45;&gt;Node3 -->
<g id="edge3" class="edge"><title>Node4&#45;&gt;Node3</title>
<path fill="none" stroke="#9a32cd" stroke-dasharray="5,2" d="M39.5707,-28.5C58.612,-28.5 85.6537,-28.5 108.201,-28.5"/>
<polygon fill="#9a32cd" stroke="#9a32cd" points="39.3785,-25.0001 29.3785,-28.5 39.3785,-32.0001 39.3785,-25.0001"/>
<text text-anchor="middle" x="68.6772" y="-30.5" font-family="Helvetica,sans-Serif" font-size="10.00"> elements</text>
</g>
<!-- Node5&#45;&gt;Node1 -->
<g id="edge4" class="edge"><title>Node5&#45;&gt;Node1</title>
<path fill="none" stroke="#9a32cd" stroke-dasharray="5,2" d="M564.976,-14.6903C610.464,-18.7503 673.721,-24.3963 721.069,-28.6224"/>
<polygon fill="#9a32cd" stroke="#9a32cd" points="565.247,-11.2006 554.975,-13.7977 564.624,-18.1729 565.247,-11.2006"/>
<text text-anchor="middle" x="670.565" y="-28.5" font-family="Helvetica,sans-Serif" font-size="10.00"> tasks_running</text>
</g>
</g>
</svg>
