<?xml version="1.0" encoding="UTF-8" standalone="no"?>
<!DOCTYPE svg PUBLIC "-//W3C//DTD SVG 1.1//EN"
 "http://www.w3.org/Graphics/SVG/1.1/DTD/svg11.dtd">
<!-- Generated by graphviz version 2.38.0 (20140413.2041)
 -->
<!-- Title: Tomographer::MHRWTasks::ValueHistogramTasks::CDataBase&lt; ValueCalculator_, UseBinningAnalysis_, CountIntType_, StepRealType_, CountRealType_ &gt; Pages: 1 -->
<!--zoomable 232 -->
<svg id="main" version="1.1" xmlns="http://www.w3.org/2000/svg" xmlns:xlink="http://www.w3.org/1999/xlink" xml:space="preserve" onload="init(evt)">
<style type="text/css"><![CDATA[
.edge:hover path { stroke: red; }
.edge:hover polygon { stroke: red; fill: red; }
]]></style>
<script type="text/javascript"><![CDATA[
var edges = document.getElementsByTagName('g');
if (edges && edges.length) {
  for (var i=0;i<edges.length;i++) {
    if (edges[i].id.substr(0,4)=='edge') {
      edges[i].setAttribute('class','edge');
    }
  }
}
]]></script>
        <defs>
                <circle id="rim" cx="0" cy="0" r="7"/>
                <circle id="rim2" cx="0" cy="0" r="3.5"/>
                <g id="zoomPlus">
                        <use xlink:href="#rim" fill="#404040">
                                <set attributeName="fill" to="#808080" begin="zoomplus.mouseover" end="zoomplus.mouseout"/>
                        </use>
                        <path d="M-4,0h8M0,-4v8" fill="none" stroke="white" stroke-width="1.5" pointer-events="none"/>
                </g>
                <g id="zoomMin">
                        <use xlink:href="#rim" fill="#404040">
                                <set attributeName="fill" to="#808080" begin="zoomminus.mouseover" end="zoomminus.mouseout"/>
                        </use>
                        <path d="M-4,0h8" fill="none" stroke="white" stroke-width="1.5" pointer-events="none"/>
                </g>
                <g id="dirArrow">
                        <path fill="none" stroke="white" stroke-width="1.5" d="M0,-3.0v7 M-2.5,-0.5L0,-3.0L2.5,-0.5"/>
                </g>
               <g id="resetDef">
                       <use xlink:href="#rim2" fill="#404040">
                               <set attributeName="fill" to="#808080" begin="reset.mouseover" end="reset.mouseout"/>
                       </use>
               </g>
        </defs>

<script type="text/javascript">
var viewWidth = 1302;
var viewHeight = 232;
var sectionId = 'dynsection-1';
</script>
<script xlink:href="svgpan.js"/>
<svg id="graph" class="graph">
<g id="viewport">
<title>Tomographer::MHRWTasks::ValueHistogramTasks::CDataBase&lt; ValueCalculator_, UseBinningAnalysis_, CountIntType_, StepRealType_, CountRealType_ &gt;</title>
<!-- Node1 -->
<g id="node1" class="node"><title>Node1</title>
<polygon fill="#bfbfbf" stroke="black" points="1107.55,-79.5 1107.55,-137.5 1293.65,-137.5 1293.65,-79.5 1107.55,-79.5"/>
<text text-anchor="start" x="1115.55" y="-125.5" font-family="Helvetica,sans-Serif" font-size="10.00">Tomographer::MHRWTasks</text>
<text text-anchor="start" x="1115.55" y="-115.5" font-family="Helvetica,sans-Serif" font-size="10.00">::ValueHistogramTasks</text>
<text text-anchor="start" x="1115.55" y="-105.5" font-family="Helvetica,sans-Serif" font-size="10.00">::CDataBase&lt; ValueCalculator</text>
<text text-anchor="start" x="1115.55" y="-95.5" font-family="Helvetica,sans-Serif" font-size="10.00">_, UseBinningAnalysis_, CountIntType</text>
<text text-anchor="middle" x="1200.6" y="-85.5" font-family="Helvetica,sans-Serif" font-size="10.00">_, StepRealType_, CountRealType_ &gt;</text>
</g>
<!-- Node2 -->
<g id="node2" class="node"><title>Node2</title>
<g id="a_node2"><a xlink:href="struct_tomographer_1_1_m_h_r_w_tasks_1_1_c_data_base.html" target="_top" xlink:title="Data needed to be accessible to the working code. ">
<polygon fill="none" stroke="black" points="828.993,-161.5 828.993,-199.5 969.793,-199.5 969.793,-161.5 828.993,-161.5"/>
<text text-anchor="start" x="836.993" y="-187.5" font-family="Helvetica,sans-Serif" font-size="10.00">Tomographer::MHRWTasks</text>
<text text-anchor="start" x="836.993" y="-177.5" font-family="Helvetica,sans-Serif" font-size="10.00">::CDataBase&lt; CountIntType</text>
<text text-anchor="middle" x="899.393" y="-167.5" font-family="Helvetica,sans-Serif" font-size="10.00">_, StepRealType_ &gt;</text>
</a>
</g>
</g>
<!-- Node2&#45;&gt;Node1 -->
<g id="edge1" class="edge"><title>Node2&#45;&gt;Node1</title>
<path fill="none" stroke="midnightblue" d="M979.935,-161.359C1019.09,-151.937 1066.52,-140.523 1107.28,-130.717"/>
<polygon fill="midnightblue" stroke="midnightblue" points="979.07,-157.968 970.167,-163.71 980.708,-164.773 979.07,-157.968"/>
</g>
<!-- Node3 -->
<g id="node3" class="node"><title>Node3</title>
<g id="a_node3"><a xlink:href="struct_tomographer_1_1_m_h_r_w_params.html" target="_top" xlink:title="Tomographer::MHRWParams\l\&lt; CountIntType, StepRealType \&gt;">
<polygon fill="none" stroke="black" points="491.212,-166.5 491.212,-194.5 652.314,-194.5 652.314,-166.5 491.212,-166.5"/>
<text text-anchor="start" x="499.212" y="-182.5" font-family="Helvetica,sans-Serif" font-size="10.00">Tomographer::MHRWParams</text>
<text text-anchor="middle" x="571.763" y="-172.5" font-family="Helvetica,sans-Serif" font-size="10.00">&lt; CountIntType, StepRealType &gt;</text>
</a>
</g>
</g>
<!-- Node3&#45;&gt;Node2 -->
<g id="edge2" class="edge"><title>Node3&#45;&gt;Node2</title>
<path fill="none" stroke="#9a32cd" stroke-dasharray="5,2" d="M662.74,-180.5C715.228,-180.5 780.437,-180.5 828.944,-180.5"/>
<polygon fill="#9a32cd" stroke="#9a32cd" points="662.421,-177 652.421,-180.5 662.421,-184 662.421,-177"/>
<text text-anchor="middle" x="732.57" y="-182.5" font-family="Helvetica,sans-Serif" font-size="10.00"> mhrw_params</text>
</g>
<!-- Node4 -->
<g id="node4" class="node"><title>Node4</title>
<g id="a_node4"><a xlink:href="struct_tomographer_1_1_m_h_r_w_params.html" target="_top" xlink:title="Specify the parameters of a Metropolis&#45;Hastings random walk. ">
<polygon fill="none" stroke="black" points="165.408,-166.5 165.408,-194.5 337.634,-194.5 337.634,-166.5 165.408,-166.5"/>
<text text-anchor="start" x="173.408" y="-182.5" font-family="Helvetica,sans-Serif" font-size="10.00">Tomographer::MHRWParams</text>
<text text-anchor="middle" x="251.521" y="-172.5" font-family="Helvetica,sans-Serif" font-size="10.00">&lt; CountIntType_, StepRealType_ &gt;</text>
</a>
</g>
</g>
<!-- Node4&#45;&gt;Node3 -->
<g id="edge3" class="edge"><title>Node4&#45;&gt;Node3</title>
<path fill="none" stroke="orange" stroke-dasharray="5,2" d="M348.003,-180.5C393.623,-180.5 447.598,-180.5 490.991,-180.5"/>
<polygon fill="orange" stroke="orange" points="347.804,-177 337.804,-180.5 347.804,-184 347.804,-177"/>
<text text-anchor="start" x="355.634" y="-192.5" font-family="Helvetica,sans-Serif" font-size="10.00"> &lt; CountIntType, StepReal</text>
<text text-anchor="middle" x="414.423" y="-182.5" font-family="Helvetica,sans-Serif" font-size="10.00">Type &gt;</text>
</g>
<!-- Node5 -->
<g id="node5" class="node"><title>Node5</title>
<polygon fill="none" stroke="#bfbfbf" points="1.66748,-190.5 1.66748,-208.5 82.7163,-208.5 82.7163,-190.5 1.66748,-190.5"/>
<text text-anchor="middle" x="42.1919" y="-196.5" font-family="Helvetica,sans-Serif" font-size="10.00">CountIntType_</text>
</g>
<!-- Node5&#45;&gt;Node4 -->
<g id="edge4" class="edge"><title>Node5&#45;&gt;Node4</title>
<path fill="none" stroke="#9a32cd" stroke-dasharray="5,2" d="M93.3872,-194.9C114.952,-192.924 140.768,-190.558 165.182,-188.321"/>
<polygon fill="#9a32cd" stroke="#9a32cd" points="92.8059,-191.439 83.167,-195.837 93.4447,-198.409 92.8059,-191.439"/>
<text text-anchor="middle" x="124.896" y="-215.5" font-family="Helvetica,sans-Serif" font-size="10.00"> n_run</text>
<text text-anchor="middle" x="124.896" y="-205.5" font-family="Helvetica,sans-Serif" font-size="10.00">n_therm</text>
<text text-anchor="middle" x="124.896" y="-195.5" font-family="Helvetica,sans-Serif" font-size="10.00">n_sweep</text>
</g>
<!-- Node6 -->
<g id="node6" class="node"><title>Node6</title>
<polygon fill="none" stroke="#bfbfbf" points="0,-153.5 0,-171.5 84.3838,-171.5 84.3838,-153.5 0,-153.5"/>
<text text-anchor="middle" x="42.1919" y="-159.5" font-family="Helvetica,sans-Serif" font-size="10.00">StepRealType_</text>
</g>
<!-- Node6&#45;&gt;Node4 -->
<g id="edge5" class="edge"><title>Node6&#45;&gt;Node4</title>
<path fill="none" stroke="#9a32cd" stroke-dasharray="5,2" d="M94.7582,-164.182C111.564,-164.942 130.297,-166.013 147.408,-167.5 153.25,-168.008 159.271,-168.596 165.33,-169.236"/>
<polygon fill="#9a32cd" stroke="#9a32cd" points="94.7148,-160.677 84.575,-163.748 94.417,-167.671 94.7148,-160.677"/>
<text text-anchor="middle" x="124.896" y="-169.5" font-family="Helvetica,sans-Serif" font-size="10.00"> step_size</text>
</g>
<!-- Node7 -->
<g id="node7" class="node"><title>Node7</title>
<polygon fill="none" stroke="#bfbfbf" points="812.826,-114.5 812.826,-142.5 985.96,-142.5 985.96,-114.5 812.826,-114.5"/>
<text text-anchor="start" x="820.826" y="-130.5" font-family="Helvetica,sans-Serif" font-size="10.00">Tools::NeedOwnOperatorNew</text>
<text text-anchor="middle" x="899.393" y="-120.5" font-family="Helvetica,sans-Serif" font-size="10.00">::ProviderType&lt; ValueCalculator_ &gt;</text>
</g>
<!-- Node7&#45;&gt;Node1 -->
<g id="edge6" class="edge"><title>Node7&#45;&gt;Node1</title>
<path fill="none" stroke="midnightblue" d="M996.505,-122.076C1032.01,-119.702 1072.15,-117.019 1107.31,-114.669"/>
<polygon fill="midnightblue" stroke="midnightblue" points="995.879,-118.61 986.134,-122.769 996.346,-125.594 995.879,-118.61"/>
</g>
<!-- Node8 -->
<g id="node8" class="node"><title>Node8</title>
<g id="a_node8"><a xlink:href="struct_tomographer_1_1_tools_1_1_store_if_enabled.html" target="_top" xlink:title="Tomographer::Tools\l::StoreIfEnabled\&lt; int,\l UseBinningAnalysis \&gt;">
<polygon fill="none" stroke="black" points="841.505,-57.5 841.505,-95.5 957.281,-95.5 957.281,-57.5 841.505,-57.5"/>
<text text-anchor="start" x="849.505" y="-83.5" font-family="Helvetica,sans-Serif" font-size="10.00">Tomographer::Tools</text>
<text text-anchor="start" x="849.505" y="-73.5" font-family="Helvetica,sans-Serif" font-size="10.00">::StoreIfEnabled&lt; int,</text>
<text text-anchor="middle" x="899.393" y="-63.5" font-family="Helvetica,sans-Serif" font-size="10.00"> UseBinningAnalysis &gt;</text>
</a>
</g>
</g>
<!-- Node8&#45;&gt;Node1 -->
<g id="edge7" class="edge"><title>Node8&#45;&gt;Node1</title>
<path fill="none" stroke="#9a32cd" stroke-dasharray="5,2" d="M967.336,-83.6595C1008.66,-88.0788 1062.24,-93.8097 1107.53,-98.6532"/>
<polygon fill="#9a32cd" stroke="#9a32cd" points="967.692,-80.1776 957.376,-82.5943 966.947,-87.1379 967.692,-80.1776"/>
<text text-anchor="middle" x="1046.76" y="-98.5" font-family="Helvetica,sans-Serif" font-size="10.00"> binningNumLevels</text>
</g>
<!-- Node9 -->
<g id="node9" class="node"><title>Node9</title>
<g id="a_node9"><a xlink:href="struct_tomographer_1_1_tools_1_1_store_if_enabled.html" target="_top" xlink:title="Utility that stores a data type if a compile&#45;time flag is enabled. ">
<polygon fill="none" stroke="black" points="519.852,-57.5 519.852,-95.5 623.674,-95.5 623.674,-57.5 519.852,-57.5"/>
<text text-anchor="start" x="527.852" y="-83.5" font-family="Helvetica,sans-Serif" font-size="10.00">Tomographer::Tools</text>
<text text-anchor="start" x="527.852" y="-73.5" font-family="Helvetica,sans-Serif" font-size="10.00">::StoreIfEnabled&lt; T</text>
<text text-anchor="middle" x="571.763" y="-63.5" font-family="Helvetica,sans-Serif" font-size="10.00">_, enabled &gt;</text>
</a>
</g>
</g>
<!-- Node9&#45;&gt;Node8 -->
<g id="edge8" class="edge"><title>Node9&#45;&gt;Node8</title>
<path fill="none" stroke="orange" stroke-dasharray="5,2" d="M634.025,-76.5C693.598,-76.5 783.368,-76.5 841.433,-76.5"/>
<polygon fill="orange" stroke="orange" points="634.001,-73.0001 624.001,-76.5 634.001,-80.0001 634.001,-73.0001"/>
<text text-anchor="middle" x="732.57" y="-78.5" font-family="Helvetica,sans-Serif" font-size="10.00"> &lt; int, UseBinningAnalysis &gt;</text>
</g>
<!-- Node10 -->
<g id="node10" class="node"><title>Node10</title>
<g id="a_node10"><a xlink:href="struct_tomographer_1_1_uniform_bins_histogram_1_1_params.html" target="_top" xlink:title="The parameters of a UniformBinsHistogram. ">
<polygon fill="none" stroke="black" points="820.385,-0.5 820.385,-38.5 978.401,-38.5 978.401,-0.5 820.385,-0.5"/>
<text text-anchor="start" x="828.385" y="-26.5" font-family="Helvetica,sans-Serif" font-size="10.00">Tomographer::UniformBins</text>
<text text-anchor="start" x="828.385" y="-16.5" font-family="Helvetica,sans-Serif" font-size="10.00">Histogram&lt; Scalar_, CountType</text>
<text text-anchor="middle" x="899.393" y="-6.5" font-family="Helvetica,sans-Serif" font-size="10.00">_ &gt;::Params</text>
</a>
</g>
</g>
<!-- Node10&#45;&gt;Node1 -->
<g id="edge9" class="edge"><title>Node10&#45;&gt;Node1</title>
<path fill="none" stroke="#9a32cd" stroke-dasharray="5,2" d="M976.998,-41.4594C1011.44,-51.4139 1052.58,-63.4147 1089.55,-74.5 1095.39,-76.2517 1101.41,-78.0686 1107.46,-79.9103"/>
<polygon fill="#9a32cd" stroke="#9a32cd" points="977.582,-37.9852 967.004,-38.5741 975.641,-44.7106 977.582,-37.9852"/>
<text text-anchor="middle" x="1046.76" y="-76.5" font-family="Helvetica,sans-Serif" font-size="10.00"> histogram_params</text>
</g>
<!-- Node11 -->
<g id="node11" class="node"><title>Node11</title>
<g id="a_node11"><a doxygen="/Users/philippe/Documents/ETH/PhD/projects/qtomo/tomographer/doc/cppreference-doxygen-web.tag.xml:http://en.cppreference.com/w/" xlink:href="http://en.cppreference.com/w/cpp/types/size_t.html" target="_top" xlink:title="std::size_t">
<polygon fill="none" stroke="black" points="541.253,-10.5 541.253,-28.5 602.273,-28.5 602.273,-10.5 541.253,-10.5"/>
<text text-anchor="middle" x="571.763" y="-16.5" font-family="Helvetica,sans-Serif" font-size="10.00">std::size_t</text>
</a>
</g>
</g>
<!-- Node11&#45;&gt;Node10 -->
<g id="edge10" class="edge"><title>Node11&#45;&gt;Node10</title>
<path fill="none" stroke="#9a32cd" stroke-dasharray="5,2" d="M612.582,-19.5C664.061,-19.5 754.853,-19.5 820.312,-19.5"/>
<polygon fill="#9a32cd" stroke="#9a32cd" points="612.524,-16.0001 602.524,-19.5 612.524,-23.0001 612.524,-16.0001"/>
<text text-anchor="middle" x="732.57" y="-21.5" font-family="Helvetica,sans-Serif" font-size="10.00"> num_bins</text>
</g>
</g>
</svg>
        <g id="navigator" transform="translate(0 0)" fill="#404254">
                <rect fill="#f2f5e9" fill-opacity="0.5" stroke="#606060" stroke-width=".5" x="0" y="0" width="60" height="60"/>
                <use id="zoomplus" xlink:href="#zoomPlus" x="17" y="9" onmousedown="handleZoom(evt,'in')"/>
                <use id="zoomminus" xlink:href="#zoomMin" x="42" y="9" onmousedown="handleZoom(evt,'out')"/>
                <use id="reset" xlink:href="#resetDef" x="30" y="36" onmousedown="handleReset()"/>
                <g id="arrowUp" xlink:href="#dirArrow" transform="translate(30 24)" onmousedown="handlePan(0,-1)">
                  <use xlink:href="#rim" fill="#404040">
                        <set attributeName="fill" to="#808080" begin="arrowUp.mouseover" end="arrowUp.mouseout"/>
                  </use>
                  <path fill="none" stroke="white" stroke-width="1.5" d="M0,-3.0v7 M-2.5,-0.5L0,-3.0L2.5,-0.5"/>
                </g>
                <g id="arrowRight" xlink:href="#dirArrow" transform="rotate(90) translate(36 -43)" onmousedown="handlePan(1,0)">
                  <use xlink:href="#rim" fill="#404040">
                        <set attributeName="fill" to="#808080" begin="arrowRight.mouseover" end="arrowRight.mouseout"/>
                  </use>
                  <path fill="none" stroke="white" stroke-width="1.5" d="M0,-3.0v7 M-2.5,-0.5L0,-3.0L2.5,-0.5"/>
                </g>
                <g id="arrowDown" xlink:href="#dirArrow" transform="rotate(180) translate(-30 -48)" onmousedown="handlePan(0,1)">
                  <use xlink:href="#rim" fill="#404040">
                        <set attributeName="fill" to="#808080" begin="arrowDown.mouseover" end="arrowDown.mouseout"/>
                  </use>
                  <path fill="none" stroke="white" stroke-width="1.5" d="M0,-3.0v7 M-2.5,-0.5L0,-3.0L2.5,-0.5"/>
                </g>
                <g id="arrowLeft" xlink:href="#dirArrow" transform="rotate(270) translate(-36 17)" onmousedown="handlePan(-1,0)">
                  <use xlink:href="#rim" fill="#404040">
                        <set attributeName="fill" to="#808080" begin="arrowLeft.mouseover" end="arrowLeft.mouseout"/>
                  </use>
                  <path fill="none" stroke="white" stroke-width="1.5" d="M0,-3.0v7 M-2.5,-0.5L0,-3.0L2.5,-0.5"/>
                </g>
        </g>
        <svg viewBox="0 0 15 15" width="100%" height="30px" preserveAspectRatio="xMaxYMin meet">
         <g id="arrow_out" transform="scale(0.3 0.3)">
          <a xlink:href="struct_tomographer_1_1_m_h_r_w_tasks_1_1_value_histogram_tasks_1_1_c_data_base__coll__graph_org.svg" target="_base">
           <rect id="button" ry="5" rx="5" y="6" x="6" height="38" width="38"
                fill="#f2f5e9" fill-opacity="0.5" stroke="#606060" stroke-width="1.0"/>
           <path id="arrow"
             d="M 11.500037,31.436501 C 11.940474,20.09759 22.043105,11.32322 32.158766,21.979434 L 37.068811,17.246167 C 37.068811,17.246167 37.088388,32 37.088388,32 L 22.160133,31.978069 C 22.160133,31.978069 26.997745,27.140456 26.997745,27.140456 C 18.528582,18.264221 13.291696,25.230495 11.500037,31.436501 z"
             style="fill:#404040;"/>
          </a>
         </g>
        </svg>
</svg>
