<?xml version="1.0" encoding="UTF-8" standalone="no"?>
<!DOCTYPE svg PUBLIC "-//W3C//DTD SVG 1.1//EN"
 "http://www.w3.org/Graphics/SVG/1.1/DTD/svg11.dtd">
<!-- Generated by graphviz version 2.38.0 (20140413.2041)
 -->
<!-- Title: Tomographer::MHRWTasks::ValueHistogramTasks::CDataBase&lt; ValueCalculator_, UseBinningAnalysis_, CountIntType_, StepRealType_, CountRealType_ &gt; Pages: 1 -->
<svg width="403pt" height="94pt"
 viewBox="0.00 0.00 403.24 94.00" xmlns="http://www.w3.org/2000/svg" xmlns:xlink="http://www.w3.org/1999/xlink">
<g id="graph0" class="graph" transform="scale(1 1) rotate(0) translate(4 90)">
<title>Tomographer::MHRWTasks::ValueHistogramTasks::CDataBase&lt; ValueCalculator_, UseBinningAnalysis_, CountIntType_, StepRealType_, CountRealType_ &gt;</title>
<!-- Node1 -->
<g id="node1" class="node"><title>Node1</title>
<polygon fill="#bfbfbf" stroke="black" points="209.134,-11.5 209.134,-69.5 395.236,-69.5 395.236,-11.5 209.134,-11.5"/>
<text text-anchor="start" x="217.134" y="-57.5" font-family="Helvetica,sans-Serif" font-size="10.00">Tomographer::MHRWTasks</text>
<text text-anchor="start" x="217.134" y="-47.5" font-family="Helvetica,sans-Serif" font-size="10.00">::ValueHistogramTasks</text>
<text text-anchor="start" x="217.134" y="-37.5" font-family="Helvetica,sans-Serif" font-size="10.00">::CDataBase&lt; ValueCalculator</text>
<text text-anchor="start" x="217.134" y="-27.5" font-family="Helvetica,sans-Serif" font-size="10.00">_, UseBinningAnalysis_, CountIntType</text>
<text text-anchor="middle" x="302.185" y="-17.5" font-family="Helvetica,sans-Serif" font-size="10.00">_, StepRealType_, CountRealType_ &gt;</text>
</g>
<!-- Node2 -->
<g id="node2" class="node"><title>Node2</title>
<g id="a_node2"><a xlink:href="struct_tomographer_1_1_m_h_r_w_tasks_1_1_c_data_base.html" target="_top" xlink:title="Data needed to be accessible to the working code. ">
<polygon fill="none" stroke="black" points="16.167,-47.5 16.167,-85.5 156.967,-85.5 156.967,-47.5 16.167,-47.5"/>
<text text-anchor="start" x="24.167" y="-73.5" font-family="Helvetica,sans-Serif" font-size="10.00">Tomographer::MHRWTasks</text>
<text text-anchor="start" x="24.167" y="-63.5" font-family="Helvetica,sans-Serif" font-size="10.00">::CDataBase&lt; CountIntType</text>
<text text-anchor="middle" x="86.5669" y="-53.5" font-family="Helvetica,sans-Serif" font-size="10.00">_, StepRealType_ &gt;</text>
</a>
</g>
</g>
<!-- Node2&#45;&gt;Node1 -->
<g id="edge1" class="edge"><title>Node2&#45;&gt;Node1</title>
<path fill="none" stroke="midnightblue" d="M167.461,-56.7759C181.034,-55.1238 195.228,-53.3963 209.085,-51.7097"/>
<polygon fill="midnightblue" stroke="midnightblue" points="166.722,-53.3399 157.218,-58.0226 167.568,-60.2887 166.722,-53.3399"/>
</g>
<!-- Node3 -->
<g id="node3" class="node"><title>Node3</title>
<polygon fill="none" stroke="#bfbfbf" points="0,-0.5 0,-28.5 173.134,-28.5 173.134,-0.5 0,-0.5"/>
<text text-anchor="start" x="8" y="-16.5" font-family="Helvetica,sans-Serif" font-size="10.00">Tools::NeedOwnOperatorNew</text>
<text text-anchor="middle" x="86.5669" y="-6.5" font-family="Helvetica,sans-Serif" font-size="10.00">::ProviderType&lt; ValueCalculator_ &gt;</text>
</g>
<!-- Node3&#45;&gt;Node1 -->
<g id="edge2" class="edge"><title>Node3&#45;&gt;Node1</title>
<path fill="none" stroke="midnightblue" d="M183.185,-26.1379C191.721,-27.1768 200.353,-28.2275 208.86,-29.2629"/>
<polygon fill="midnightblue" stroke="midnightblue" points="183.572,-22.6593 173.223,-24.9254 182.727,-29.608 183.572,-22.6593"/>
</g>
</g>
</svg>
