<?xml version="1.0" encoding="UTF-8" standalone="no"?>
<!DOCTYPE svg PUBLIC "-//W3C//DTD SVG 1.1//EN"
 "http://www.w3.org/Graphics/SVG/1.1/DTD/svg11.dtd">
<!-- Generated by graphviz version 2.38.0 (20140413.2041)
 -->
<!-- Title: tomographer/tools/util.h Pages: 1 -->
<svg width="314pt" height="137pt"
 viewBox="0.00 0.00 314.16 137.00" xmlns="http://www.w3.org/2000/svg" xmlns:xlink="http://www.w3.org/1999/xlink">
<g id="graph0" class="graph" transform="scale(1 1) rotate(0) translate(4 133)">
<title>tomographer/tools/util.h</title>
<!-- Node1 -->
<g id="node1" class="node"><title>Node1</title>
<polygon fill="#bfbfbf" stroke="black" points="52.8154,-110.5 52.8154,-128.5 173.317,-128.5 173.317,-110.5 52.8154,-110.5"/>
<text text-anchor="middle" x="113.066" y="-116.5" font-family="Helvetica,sans-Serif" font-size="10.00">tomographer/tools/util.h</text>
</g>
<!-- Node2 -->
<g id="node2" class="node"><title>Node2</title>
<polygon fill="none" stroke="#bfbfbf" points="0,-55.5 0,-73.5 62.1328,-73.5 62.1328,-55.5 0,-55.5"/>
<text text-anchor="middle" x="31.0664" y="-61.5" font-family="Helvetica,sans-Serif" font-size="10.00">type_traits</text>
</g>
<!-- Node1&#45;&gt;Node2 -->
<g id="edge1" class="edge"><title>Node1&#45;&gt;Node2</title>
<path fill="none" stroke="midnightblue" d="M100.612,-110.45C87.8491,-102.201 67.7588,-89.2158 52.4463,-79.3187"/>
<polygon fill="midnightblue" stroke="midnightblue" points="53.936,-76.1142 43.6376,-73.6253 50.1362,-81.9931 53.936,-76.1142"/>
</g>
<!-- Node3 -->
<g id="node3" class="node"><title>Node3</title>
<polygon fill="none" stroke="#bfbfbf" points="80.0518,-55.5 80.0518,-73.5 146.081,-73.5 146.081,-55.5 80.0518,-55.5"/>
<text text-anchor="middle" x="113.066" y="-61.5" font-family="Helvetica,sans-Serif" font-size="10.00">Eigen/Core</text>
</g>
<!-- Node1&#45;&gt;Node3 -->
<g id="edge2" class="edge"><title>Node1&#45;&gt;Node3</title>
<path fill="none" stroke="midnightblue" d="M113.066,-110.219C113.066,-103.177 113.066,-92.8083 113.066,-83.8277"/>
<polygon fill="midnightblue" stroke="midnightblue" points="116.567,-83.5495 113.066,-73.5496 109.567,-83.5496 116.567,-83.5495"/>
</g>
<!-- Node4 -->
<g id="node4" class="node"><title>Node4</title>
<g id="a_node4"><a xlink:href="conststr_8h.html" target="_top" xlink:title="A constexpr string type, suitable for basic compile&#45;time string processing. ">
<polygon fill="none" stroke="black" points="163.976,-55.5 163.976,-73.5 306.157,-73.5 306.157,-55.5 163.976,-55.5"/>
<text text-anchor="middle" x="235.066" y="-61.5" font-family="Helvetica,sans-Serif" font-size="10.00">tomographer/tools/conststr.h</text>
</a>
</g>
</g>
<!-- Node1&#45;&gt;Node4 -->
<g id="edge3" class="edge"><title>Node1&#45;&gt;Node4</title>
<path fill="none" stroke="midnightblue" d="M131.596,-110.45C151.66,-101.734 183.894,-87.7306 207.054,-77.6691"/>
<polygon fill="midnightblue" stroke="midnightblue" points="208.586,-80.8201 216.363,-73.6253 205.796,-74.3997 208.586,-80.8201"/>
</g>
<!-- Node5 -->
<g id="node5" class="node"><title>Node5</title>
<polygon fill="none" stroke="#bfbfbf" points="214.84,-0.5 214.84,-18.5 255.293,-18.5 255.293,-0.5 214.84,-0.5"/>
<text text-anchor="middle" x="235.066" y="-6.5" font-family="Helvetica,sans-Serif" font-size="10.00">string</text>
</g>
<!-- Node4&#45;&gt;Node5 -->
<g id="edge4" class="edge"><title>Node4&#45;&gt;Node5</title>
<path fill="none" stroke="midnightblue" d="M235.066,-55.2188C235.066,-48.1769 235.066,-37.8083 235.066,-28.8277"/>
<polygon fill="midnightblue" stroke="midnightblue" points="238.567,-28.5495 235.066,-18.5496 231.567,-28.5496 238.567,-28.5495"/>
</g>
</g>
</svg>
