<?xml version="1.0" encoding="UTF-8" standalone="no"?>
<!DOCTYPE svg PUBLIC "-//W3C//DTD SVG 1.1//EN"
 "http://www.w3.org/Graphics/SVG/1.1/DTD/svg11.dtd">
<!-- Generated by graphviz version 2.38.0 (20140413.2041)
 -->
<!-- Title: tpy::Histogram Pages: 1 -->
<svg width="168pt" height="252pt"
 viewBox="0.00 0.00 168.50 252.00" xmlns="http://www.w3.org/2000/svg" xmlns:xlink="http://www.w3.org/1999/xlink">
<g id="graph0" class="graph" transform="scale(1 1) rotate(0) translate(4 248)">
<title>tpy::Histogram</title>
<!-- Node2 -->
<g id="node1" class="node"><title>Node2</title>
<polygon fill="#bfbfbf" stroke="black" points="40.0171,-0.5 40.0171,-18.5 120.48,-18.5 120.48,-0.5 40.0171,-0.5"/>
<text text-anchor="middle" x="80.2485" y="-6.5" font-family="Helvetica,sans-Serif" font-size="10.00">tpy::Histogram</text>
</g>
<!-- Node3 -->
<g id="node2" class="node"><title>Node3</title>
<g id="a_node2"><a xlink:href="struct_tomographer_1_1_histogram_params.html" target="_top" xlink:title="Tomographer::HistogramParams\l\&lt; RealScalar \&gt;">
<polygon fill="none" stroke="black" points="0,-65.5 0,-93.5 160.497,-93.5 160.497,-65.5 0,-65.5"/>
<text text-anchor="start" x="8" y="-81.5" font-family="Helvetica,sans-Serif" font-size="10.00">Tomographer::HistogramParams</text>
<text text-anchor="middle" x="80.2485" y="-71.5" font-family="Helvetica,sans-Serif" font-size="10.00">&lt; RealScalar &gt;</text>
</a>
</g>
</g>
<!-- Node3&#45;&gt;Node2 -->
<g id="edge1" class="edge"><title>Node3&#45;&gt;Node2</title>
<path fill="none" stroke="#9a32cd" stroke-dasharray="5,2" d="M80.2485,-55.1036C80.2485,-42.547 80.2485,-27.8462 80.2485,-18.8552"/>
<polygon fill="#9a32cd" stroke="#9a32cd" points="76.7486,-55.3889 80.2485,-65.3889 83.7486,-55.389 76.7486,-55.3889"/>
<text text-anchor="middle" x="98.3101" y="-39" font-family="Helvetica,sans-Serif" font-size="10.00"> params</text>
</g>
<!-- Node4 -->
<g id="node3" class="node"><title>Node4</title>
<g id="a_node3"><a xlink:href="struct_tomographer_1_1_histogram_params.html" target="_top" xlink:title="The parameters of a Histogram. ">
<polygon fill="none" stroke="black" points="0,-140.5 0,-168.5 160.497,-168.5 160.497,-140.5 0,-140.5"/>
<text text-anchor="start" x="8" y="-156.5" font-family="Helvetica,sans-Serif" font-size="10.00">Tomographer::HistogramParams</text>
<text text-anchor="middle" x="80.2485" y="-146.5" font-family="Helvetica,sans-Serif" font-size="10.00">&lt; Scalar_ &gt;</text>
</a>
</g>
</g>
<!-- Node4&#45;&gt;Node3 -->
<g id="edge2" class="edge"><title>Node4&#45;&gt;Node3</title>
<path fill="none" stroke="orange" stroke-dasharray="5,2" d="M80.2485,-130.245C80.2485,-118.265 80.2485,-104.082 80.2485,-93.9318"/>
<polygon fill="orange" stroke="orange" points="76.7486,-130.449 80.2485,-140.449 83.7486,-130.449 76.7486,-130.449"/>
<text text-anchor="middle" x="114.711" y="-114" font-family="Helvetica,sans-Serif" font-size="10.00"> &lt; RealScalar &gt;</text>
</g>
<!-- Node5 -->
<g id="node4" class="node"><title>Node5</title>
<polygon fill="none" stroke="#bfbfbf" points="55.2954,-225.5 55.2954,-243.5 105.202,-243.5 105.202,-225.5 55.2954,-225.5"/>
<text text-anchor="middle" x="80.2485" y="-231.5" font-family="Helvetica,sans-Serif" font-size="10.00">Scalar_</text>
</g>
<!-- Node5&#45;&gt;Node4 -->
<g id="edge3" class="edge"><title>Node5&#45;&gt;Node4</title>
<path fill="none" stroke="#9a32cd" stroke-dasharray="5,2" d="M80.2485,-215.322C80.2485,-200.989 80.2485,-181.347 80.2485,-168.543"/>
<polygon fill="#9a32cd" stroke="#9a32cd" points="76.7486,-215.446 80.2485,-225.446 83.7486,-215.446 76.7486,-215.446"/>
<text text-anchor="middle" x="89.6943" y="-199" font-family="Helvetica,sans-Serif" font-size="10.00"> min</text>
<text text-anchor="middle" x="89.6943" y="-189" font-family="Helvetica,sans-Serif" font-size="10.00">max</text>
</g>
</g>
</svg>
