<?xml version="1.0" encoding="UTF-8" standalone="no"?>
<!DOCTYPE svg PUBLIC "-//W3C//DTD SVG 1.1//EN"
 "http://www.w3.org/Graphics/SVG/1.1/DTD/svg11.dtd">
<!-- Generated by graphviz version 2.38.0 (20140413.2041)
 -->
<!-- Title: tomographer/tools/cxxdefs.h Pages: 1 -->
<svg width="282pt" height="82pt"
 viewBox="0.00 0.00 282.08 82.00" xmlns="http://www.w3.org/2000/svg" xmlns:xlink="http://www.w3.org/1999/xlink">
<g id="graph0" class="graph" transform="scale(1 1) rotate(0) translate(4 78)">
<title>tomographer/tools/cxxdefs.h</title>
<!-- Node0 -->
<g id="node1" class="node"><title>Node0</title>
<polygon fill="#bfbfbf" stroke="black" points="51.3057,-55.5 51.3057,-73.5 192.926,-73.5 192.926,-55.5 51.3057,-55.5"/>
<text text-anchor="middle" x="122.116" y="-61.5" font-family="Helvetica,sans-Serif" font-size="10.00">tomographer/tools/cxxdefs.h</text>
</g>
<!-- Node1 -->
<g id="node2" class="node"><title>Node1</title>
<polygon fill="none" stroke="#bfbfbf" points="0,-0.5 0,-18.5 48.2314,-18.5 48.2314,-0.5 0,-0.5"/>
<text text-anchor="middle" x="24.1157" y="-6.5" font-family="Helvetica,sans-Serif" font-size="10.00">cassert</text>
</g>
<!-- Node0&#45;&gt;Node1 -->
<g id="edge1" class="edge"><title>Node0&#45;&gt;Node1</title>
<path fill="none" stroke="midnightblue" d="M107.232,-55.4504C91.5462,-46.9675 66.6016,-33.477 48.1275,-23.486"/>
<polygon fill="midnightblue" stroke="midnightblue" points="49.6009,-20.3038 39.1399,-18.6253 46.271,-26.461 49.6009,-20.3038"/>
</g>
<!-- Node2 -->
<g id="node3" class="node"><title>Node2</title>
<polygon fill="none" stroke="#bfbfbf" points="65.9951,-0.5 65.9951,-18.5 114.236,-18.5 114.236,-0.5 65.9951,-0.5"/>
<text text-anchor="middle" x="90.1157" y="-6.5" font-family="Helvetica,sans-Serif" font-size="10.00">cstddef</text>
</g>
<!-- Node0&#45;&gt;Node2 -->
<g id="edge2" class="edge"><title>Node0&#45;&gt;Node2</title>
<path fill="none" stroke="midnightblue" d="M117.116,-55.2188C112.628,-47.7856 105.902,-36.646 100.286,-27.3446"/>
<polygon fill="midnightblue" stroke="midnightblue" points="103.141,-25.3012 94.9758,-18.5496 97.1483,-28.9193 103.141,-25.3012"/>
</g>
<!-- Node3 -->
<g id="node4" class="node"><title>Node3</title>
<polygon fill="none" stroke="#bfbfbf" points="131.943,-0.5 131.943,-18.5 176.288,-18.5 176.288,-0.5 131.943,-0.5"/>
<text text-anchor="middle" x="154.116" y="-6.5" font-family="Helvetica,sans-Serif" font-size="10.00">cstdlib</text>
</g>
<!-- Node0&#45;&gt;Node3 -->
<g id="edge3" class="edge"><title>Node0&#45;&gt;Node3</title>
<path fill="none" stroke="midnightblue" d="M127.116,-55.2188C131.604,-47.7856 138.329,-36.646 143.945,-27.3446"/>
<polygon fill="midnightblue" stroke="midnightblue" points="147.083,-28.9193 149.256,-18.5496 141.091,-25.3012 147.083,-28.9193"/>
</g>
<!-- Node4 -->
<g id="node5" class="node"><title>Node4</title>
<polygon fill="none" stroke="#bfbfbf" points="194.148,-0.5 194.148,-18.5 274.083,-18.5 274.083,-0.5 194.148,-0.5"/>
<text text-anchor="middle" x="234.116" y="-6.5" font-family="Helvetica,sans-Serif" font-size="10.00">boost/predef.h</text>
</g>
<!-- Node0&#45;&gt;Node4 -->
<g id="edge4" class="edge"><title>Node0&#45;&gt;Node4</title>
<path fill="none" stroke="midnightblue" d="M139.126,-55.4504C157.381,-46.8119 186.61,-32.9803 207.828,-22.9396"/>
<polygon fill="midnightblue" stroke="midnightblue" points="209.403,-26.0664 216.945,-18.6253 206.409,-19.7391 209.403,-26.0664"/>
</g>
</g>
</svg>
