<?xml version="1.0" encoding="UTF-8" standalone="no"?>
<!DOCTYPE svg PUBLIC "-//W3C//DTD SVG 1.1//EN"
 "http://www.w3.org/Graphics/SVG/1.1/DTD/svg11.dtd">
<!-- Generated by graphviz version 2.38.0 (20140413.2041)
 -->
<!-- Title: tomographer/tools/cxxutil.h Pages: 1 -->
<svg width="1122pt" height="147pt"
 viewBox="0.00 0.00 1122.13 147.00" xmlns="http://www.w3.org/2000/svg" xmlns:xlink="http://www.w3.org/1999/xlink">
<g id="graph0" class="graph" transform="scale(1 1) rotate(0) translate(4 143)">
<title>tomographer/tools/cxxutil.h</title>
<!-- Node0 -->
<g id="node1" class="node"><title>Node0</title>
<polygon fill="#bfbfbf" stroke="black" points="395.365,-120.5 395.365,-138.5 530.867,-138.5 530.867,-120.5 395.365,-120.5"/>
<text text-anchor="middle" x="463.116" y="-126.5" font-family="Helvetica,sans-Serif" font-size="10.00">tomographer/tools/cxxutil.h</text>
</g>
<!-- Node1 -->
<g id="node2" class="node"><title>Node1</title>
<polygon fill="none" stroke="#bfbfbf" points="0,-0.5 0,-18.5 48.2314,-18.5 48.2314,-0.5 0,-0.5"/>
<text text-anchor="middle" x="24.1157" y="-6.5" font-family="Helvetica,sans-Serif" font-size="10.00">cassert</text>
</g>
<!-- Node0&#45;&gt;Node1 -->
<g id="edge1" class="edge"><title>Node0&#45;&gt;Node1</title>
<path fill="none" stroke="midnightblue" d="M395.224,-127.808C297.381,-125.653 122.694,-117.123 70.1157,-84 49.6534,-71.1092 36.7574,-45.4511 29.9899,-28.1271"/>
<polygon fill="midnightblue" stroke="midnightblue" points="33.241,-26.825 26.5552,-18.6061 26.6564,-29.2004 33.241,-26.825"/>
</g>
<!-- Node2 -->
<g id="node3" class="node"><title>Node2</title>
<polygon fill="none" stroke="#bfbfbf" points="65.9951,-0.5 65.9951,-18.5 114.236,-18.5 114.236,-0.5 65.9951,-0.5"/>
<text text-anchor="middle" x="90.1157" y="-6.5" font-family="Helvetica,sans-Serif" font-size="10.00">cstddef</text>
</g>
<!-- Node0&#45;&gt;Node2 -->
<g id="edge2" class="edge"><title>Node0&#45;&gt;Node2</title>
<path fill="none" stroke="midnightblue" d="M395.158,-125.408C290.97,-119.963 101.594,-107.002 81.1157,-84 67.5239,-68.733 74.2875,-44.0773 81.3644,-27.5848"/>
<polygon fill="midnightblue" stroke="midnightblue" points="84.5357,-29.0657 85.6321,-18.5277 78.2034,-26.0819 84.5357,-29.0657"/>
</g>
<!-- Node3 -->
<g id="node4" class="node"><title>Node3</title>
<polygon fill="none" stroke="#bfbfbf" points="233.943,-0.5 233.943,-18.5 278.288,-18.5 278.288,-0.5 233.943,-0.5"/>
<text text-anchor="middle" x="256.116" y="-6.5" font-family="Helvetica,sans-Serif" font-size="10.00">cstdlib</text>
</g>
<!-- Node0&#45;&gt;Node3 -->
<g id="edge3" class="edge"><title>Node0&#45;&gt;Node3</title>
<path fill="none" stroke="midnightblue" d="M402.921,-120.446C356.39,-113.062 296.991,-100.733 279.116,-84 263.888,-69.7456 258.679,-45.5704 256.932,-28.8586"/>
<polygon fill="midnightblue" stroke="midnightblue" points="260.409,-28.4158 256.195,-18.6949 253.427,-28.9217 260.409,-28.4158"/>
</g>
<!-- Node4 -->
<g id="node5" class="node"><title>Node4</title>
<polygon fill="none" stroke="#bfbfbf" points="287.943,-60.5 287.943,-78.5 342.288,-78.5 342.288,-60.5 287.943,-60.5"/>
<text text-anchor="middle" x="315.116" y="-66.5" font-family="Helvetica,sans-Serif" font-size="10.00">iostream</text>
</g>
<!-- Node0&#45;&gt;Node4 -->
<g id="edge4" class="edge"><title>Node0&#45;&gt;Node4</title>
<path fill="none" stroke="midnightblue" d="M442.537,-120.435C417.385,-110.579 374.604,-93.813 345.621,-82.4549"/>
<polygon fill="midnightblue" stroke="midnightblue" points="346.584,-79.0732 335.997,-78.6831 344.03,-85.5906 346.584,-79.0732"/>
</g>
<!-- Node5 -->
<g id="node6" class="node"><title>Node5</title>
<polygon fill="none" stroke="#bfbfbf" points="360.498,-60.5 360.498,-78.5 413.734,-78.5 413.734,-60.5 360.498,-60.5"/>
<text text-anchor="middle" x="387.116" y="-66.5" font-family="Helvetica,sans-Serif" font-size="10.00">complex</text>
</g>
<!-- Node0&#45;&gt;Node5 -->
<g id="edge5" class="edge"><title>Node0&#45;&gt;Node5</title>
<path fill="none" stroke="midnightblue" d="M452.548,-120.435C440.547,-111.276 420.728,-96.1518 406.042,-84.9437"/>
<polygon fill="midnightblue" stroke="midnightblue" points="408.159,-82.1562 398.086,-78.8718 403.912,-87.7209 408.159,-82.1562"/>
</g>
<!-- Node6 -->
<g id="node7" class="node"><title>Node6</title>
<polygon fill="none" stroke="#bfbfbf" points="432.049,-60.5 432.049,-78.5 494.182,-78.5 494.182,-60.5 432.049,-60.5"/>
<text text-anchor="middle" x="463.116" y="-66.5" font-family="Helvetica,sans-Serif" font-size="10.00">type_traits</text>
</g>
<!-- Node0&#45;&gt;Node6 -->
<g id="edge6" class="edge"><title>Node0&#45;&gt;Node6</title>
<path fill="none" stroke="midnightblue" d="M463.116,-120.435C463.116,-112.389 463.116,-99.7388 463.116,-89.1846"/>
<polygon fill="midnightblue" stroke="midnightblue" points="466.616,-88.8717 463.116,-78.8718 459.616,-88.8718 466.616,-88.8717"/>
</g>
<!-- Node7 -->
<g id="node8" class="node"><title>Node7</title>
<polygon fill="none" stroke="#bfbfbf" points="511.712,-60.5 511.712,-78.5 570.52,-78.5 570.52,-60.5 511.712,-60.5"/>
<text text-anchor="middle" x="541.116" y="-66.5" font-family="Helvetica,sans-Serif" font-size="10.00">exception</text>
</g>
<!-- Node0&#45;&gt;Node7 -->
<g id="edge7" class="edge"><title>Node0&#45;&gt;Node7</title>
<path fill="none" stroke="midnightblue" d="M473.961,-120.435C486.279,-111.276 506.619,-96.1518 521.691,-84.9437"/>
<polygon fill="midnightblue" stroke="midnightblue" points="523.921,-87.6474 529.857,-78.8718 519.744,-82.0302 523.921,-87.6474"/>
</g>
<!-- Node8 -->
<g id="node9" class="node"><title>Node8</title>
<polygon fill="none" stroke="#bfbfbf" points="588.714,-60.5 588.714,-78.5 647.517,-78.5 647.517,-60.5 588.714,-60.5"/>
<text text-anchor="middle" x="618.116" y="-66.5" font-family="Helvetica,sans-Serif" font-size="10.00">stdexcept</text>
</g>
<!-- Node0&#45;&gt;Node8 -->
<g id="edge8" class="edge"><title>Node0&#45;&gt;Node8</title>
<path fill="none" stroke="midnightblue" d="M484.668,-120.435C511.124,-110.536 556.205,-93.6664 586.564,-82.3064"/>
<polygon fill="midnightblue" stroke="midnightblue" points="588.108,-85.4658 596.247,-78.6831 585.655,-78.9098 588.108,-85.4658"/>
</g>
<!-- Node9 -->
<g id="node10" class="node"><title>Node9</title>
<g id="a_node10"><a xlink:href="cxxdefs_8h.html" target="_top" xlink:title="Basic definitions, which may have to be defined before any Eigen headers or further utilities are inc...">
<polygon fill="none" stroke="black" points="90.3057,-60.5 90.3057,-78.5 231.926,-78.5 231.926,-60.5 90.3057,-60.5"/>
<text text-anchor="middle" x="161.116" y="-66.5" font-family="Helvetica,sans-Serif" font-size="10.00">tomographer/tools/cxxdefs.h</text>
</a>
</g>
</g>
<!-- Node0&#45;&gt;Node9 -->
<g id="edge9" class="edge"><title>Node0&#45;&gt;Node9</title>
<path fill="none" stroke="midnightblue" d="M421.441,-120.496C366.987,-110.038 271.649,-91.7283 212.698,-80.4066"/>
<polygon fill="midnightblue" stroke="midnightblue" points="213.328,-76.9636 202.847,-78.5147 212.008,-83.838 213.328,-76.9636"/>
</g>
<!-- Node11 -->
<g id="node12" class="node"><title>Node11</title>
<g id="a_node12"><a xlink:href="conststr_8h.html" target="_top" xlink:title="A constexpr string type, suitable for basic compile&#45;time string processing. ">
<polygon fill="none" stroke="black" points="665.025,-60.5 665.025,-78.5 807.207,-78.5 807.207,-60.5 665.025,-60.5"/>
<text text-anchor="middle" x="736.116" y="-66.5" font-family="Helvetica,sans-Serif" font-size="10.00">tomographer/tools/conststr.h</text>
</a>
</g>
</g>
<!-- Node0&#45;&gt;Node11 -->
<g id="edge14" class="edge"><title>Node0&#45;&gt;Node11</title>
<path fill="none" stroke="midnightblue" d="M500.789,-120.496C549.708,-110.103 635.129,-91.955 688.492,-80.6179"/>
<polygon fill="midnightblue" stroke="midnightblue" points="689.337,-84.0165 698.391,-78.5147 687.882,-77.1693 689.337,-84.0165"/>
</g>
<!-- Node13 -->
<g id="node14" class="node"><title>Node13</title>
<polygon fill="none" stroke="#bfbfbf" points="825.646,-60.5 825.646,-78.5 920.586,-78.5 920.586,-60.5 825.646,-60.5"/>
<text text-anchor="middle" x="873.116" y="-66.5" font-family="Helvetica,sans-Serif" font-size="10.00">boost/version.hpp</text>
</g>
<!-- Node0&#45;&gt;Node13 -->
<g id="edge16" class="edge"><title>Node0&#45;&gt;Node13</title>
<path fill="none" stroke="midnightblue" d="M531.117,-122.112C602.443,-114.903 717.647,-101.814 816.116,-84 821.238,-83.0733 826.591,-81.9774 831.877,-80.8171"/>
<polygon fill="midnightblue" stroke="midnightblue" points="832.912,-84.171 841.883,-78.5339 831.355,-77.3464 832.912,-84.171"/>
</g>
<!-- Node14 -->
<g id="node15" class="node"><title>Node14</title>
<polygon fill="none" stroke="#bfbfbf" points="938.591,-55.5 938.591,-83.5 1029.64,-83.5 1029.64,-55.5 938.591,-55.5"/>
<text text-anchor="start" x="946.591" y="-71.5" font-family="Helvetica,sans-Serif" font-size="10.00">boost/units/detail</text>
<text text-anchor="middle" x="984.116" y="-61.5" font-family="Helvetica,sans-Serif" font-size="10.00">/utility.hpp</text>
</g>
<!-- Node0&#45;&gt;Node14 -->
<g id="edge17" class="edge"><title>Node0&#45;&gt;Node14</title>
<path fill="none" stroke="midnightblue" d="M531.047,-125.117C620.098,-119.992 781.249,-108.347 928.198,-83.9737"/>
<polygon fill="midnightblue" stroke="midnightblue" points="929.023,-87.3841 938.304,-82.2733 927.862,-80.4811 929.023,-87.3841"/>
</g>
<!-- Node15 -->
<g id="node16" class="node"><title>Node15</title>
<polygon fill="none" stroke="#bfbfbf" points="1048.1,-60.5 1048.1,-78.5 1114.13,-78.5 1114.13,-60.5 1048.1,-60.5"/>
<text text-anchor="middle" x="1081.12" y="-66.5" font-family="Helvetica,sans-Serif" font-size="10.00">Eigen/Core</text>
</g>
<!-- Node0&#45;&gt;Node15 -->
<g id="edge18" class="edge"><title>Node0&#45;&gt;Node15</title>
<path fill="none" stroke="midnightblue" d="M531.202,-128.365C639.693,-127.007 858.031,-119.587 1039.12,-84 1042.53,-83.3298 1046.05,-82.4731 1049.53,-81.517"/>
<polygon fill="midnightblue" stroke="midnightblue" points="1050.57,-84.8607 1059.14,-78.6319 1048.55,-78.1566 1050.57,-84.8607"/>
</g>
<!-- Node9&#45;&gt;Node1 -->
<g id="edge10" class="edge"><title>Node9&#45;&gt;Node1</title>
<path fill="none" stroke="midnightblue" d="M142.066,-60.4353C118.886,-50.6217 79.5281,-33.9593 52.7062,-22.604"/>
<polygon fill="midnightblue" stroke="midnightblue" points="54.0181,-19.3587 43.4449,-18.6831 51.2891,-25.8049 54.0181,-19.3587"/>
</g>
<!-- Node9&#45;&gt;Node2 -->
<g id="edge11" class="edge"><title>Node9&#45;&gt;Node2</title>
<path fill="none" stroke="midnightblue" d="M151.243,-60.4353C140.136,-51.3619 121.862,-36.434 108.183,-25.2589"/>
<polygon fill="midnightblue" stroke="midnightblue" points="110.323,-22.4877 100.364,-18.8718 105.894,-27.9088 110.323,-22.4877"/>
</g>
<!-- Node9&#45;&gt;Node3 -->
<g id="edge12" class="edge"><title>Node9&#45;&gt;Node3</title>
<path fill="none" stroke="midnightblue" d="M174.325,-60.4353C189.765,-51.0091 215.554,-35.2641 234.048,-23.9728"/>
<polygon fill="midnightblue" stroke="midnightblue" points="236.001,-26.8813 242.712,-18.6831 232.353,-20.9068 236.001,-26.8813"/>
</g>
<!-- Node10 -->
<g id="node11" class="node"><title>Node10</title>
<polygon fill="none" stroke="#bfbfbf" points="132.148,-0.5 132.148,-18.5 212.083,-18.5 212.083,-0.5 132.148,-0.5"/>
<text text-anchor="middle" x="172.116" y="-6.5" font-family="Helvetica,sans-Serif" font-size="10.00">boost/predef.h</text>
</g>
<!-- Node9&#45;&gt;Node10 -->
<g id="edge13" class="edge"><title>Node9&#45;&gt;Node10</title>
<path fill="none" stroke="midnightblue" d="M162.645,-60.4353C164.187,-52.3035 166.622,-39.4692 168.636,-28.8485"/>
<polygon fill="midnightblue" stroke="midnightblue" points="172.103,-29.3488 170.528,-18.8718 165.226,-28.0444 172.103,-29.3488"/>
</g>
<!-- Node12 -->
<g id="node13" class="node"><title>Node12</title>
<polygon fill="none" stroke="#bfbfbf" points="715.889,-0.5 715.889,-18.5 756.342,-18.5 756.342,-0.5 715.889,-0.5"/>
<text text-anchor="middle" x="736.116" y="-6.5" font-family="Helvetica,sans-Serif" font-size="10.00">string</text>
</g>
<!-- Node11&#45;&gt;Node12 -->
<g id="edge15" class="edge"><title>Node11&#45;&gt;Node12</title>
<path fill="none" stroke="midnightblue" d="M736.116,-60.4353C736.116,-52.3891 736.116,-39.7388 736.116,-29.1846"/>
<polygon fill="midnightblue" stroke="midnightblue" points="739.616,-28.8717 736.116,-18.8718 732.616,-28.8718 739.616,-28.8717"/>
</g>
</g>
</svg>
