<?xml version="1.0" encoding="UTF-8" standalone="no"?>
<!DOCTYPE svg PUBLIC "-//W3C//DTD SVG 1.1//EN"
 "http://www.w3.org/Graphics/SVG/1.1/DTD/svg11.dtd">
<!-- Generated by graphviz version 2.38.0 (20140413.2041)
 -->
<!-- Title: tomographer Pages: 1 -->
<svg width="260pt" height="220pt"
 viewBox="0.00 0.00 260.00 220.00" xmlns="http://www.w3.org/2000/svg" xmlns:xlink="http://www.w3.org/1999/xlink">
<g id="graph0" class="graph" transform="scale(1 1) rotate(0) translate(4 216)">
<title>tomographer</title>
<g id="clust1" class="cluster"><title>clusterdir_61eaaaa7d94d2ffe6b1a45a4325e50e9</title>
<g id="a_clust1"><a xlink:href="dir_61eaaaa7d94d2ffe6b1a45a4325e50e9.html" target="_top">
<polygon fill="#eeeeff" stroke="black" points="8,-8 8,-204 244,-204 244,-8 8,-8"/>
</a>
</g>
</g>
<!-- dir_61eaaaa7d94d2ffe6b1a45a4325e50e9 -->
<g id="node1" class="node"><title>dir_61eaaaa7d94d2ffe6b1a45a4325e50e9</title>
<text text-anchor="middle" x="200" y="-175" font-family="Helvetica,sans-Serif" font-size="10.00">tomographer</text>
</g>
<!-- dir_0fb69ea6cfa283c0affb5911938a57ce -->
<g id="node2" class="node"><title>dir_0fb69ea6cfa283c0affb5911938a57ce</title>
<g id="a_node2"><a xlink:href="dir_0fb69ea6cfa283c0affb5911938a57ce.html" target="_top" xlink:title="densedm">
<polygon fill="white" stroke="black" points="145.638,-196 88.3621,-196 88.3621,-160 145.638,-160 145.638,-196"/>
<text text-anchor="middle" x="117" y="-175" font-family="Helvetica,sans-Serif" font-size="10.00">densedm</text>
</a>
</g>
</g>
<!-- dir_6ece64007dd0b8447983c5c4d040b7f1 -->
<g id="node5" class="node"><title>dir_6ece64007dd0b8447983c5c4d040b7f1</title>
<g id="a_node5"><a xlink:href="dir_6ece64007dd0b8447983c5c4d040b7f1.html" target="_top" xlink:title="tools">
<polygon fill="white" stroke="black" points="108,-124 54,-124 54,-88 108,-88 108,-124"/>
<text text-anchor="middle" x="81" y="-103" font-family="Helvetica,sans-Serif" font-size="10.00">tools</text>
</a>
</g>
</g>
<!-- dir_0fb69ea6cfa283c0affb5911938a57ce&#45;&gt;dir_6ece64007dd0b8447983c5c4d040b7f1 -->
<g id="edge4" class="edge"><title>dir_0fb69ea6cfa283c0affb5911938a57ce&#45;&gt;dir_6ece64007dd0b8447983c5c4d040b7f1</title>
<path fill="none" stroke="black" d="M108.101,-159.697C104.003,-151.728 99.0512,-142.1 94.5073,-133.264"/>
<polygon fill="black" stroke="black" points="97.4826,-131.396 89.7965,-124.104 91.2575,-134.598 97.4826,-131.396"/>
<g id="a_edge4&#45;headlabel"><a xlink:href="dir_000006_000009.html" target="_top" xlink:title="10">
<text text-anchor="middle" x="101.651" y="-130.295" font-family="Helvetica,sans-Serif" font-size="10.00">10</text>
</a>
</g>
</g>
<!-- dir_4b0e29da7833b7e8c5d9679501391165 -->
<g id="node3" class="node"><title>dir_4b0e29da7833b7e8c5d9679501391165</title>
<g id="a_node3"><a xlink:href="dir_4b0e29da7833b7e8c5d9679501391165.html" target="_top" xlink:title="mathtools">
<polygon fill="white" stroke="black" points="110.856,-52 51.1444,-52 51.1444,-16 110.856,-16 110.856,-52"/>
<text text-anchor="middle" x="81" y="-31" font-family="Helvetica,sans-Serif" font-size="10.00">mathtools</text>
</a>
</g>
</g>
<!-- dir_4b0e29da7833b7e8c5d9679501391165&#45;&gt;dir_6ece64007dd0b8447983c5c4d040b7f1 -->
<g id="edge1" class="edge"><title>dir_4b0e29da7833b7e8c5d9679501391165&#45;&gt;dir_6ece64007dd0b8447983c5c4d040b7f1</title>
<path fill="none" stroke="black" d="M86.895,-52.1043C87.7005,-59.7913 87.9369,-69.0537 87.604,-77.6651"/>
<polygon fill="black" stroke="black" points="84.1085,-77.4805 86.9157,-87.6966 91.0921,-77.9597 84.1085,-77.4805"/>
<g id="a_edge1&#45;headlabel"><a xlink:href="dir_000007_000009.html" target="_top" xlink:title="8">
<text text-anchor="middle" x="81.5219" y="-70.7" font-family="Helvetica,sans-Serif" font-size="10.00">8</text>
</a>
</g>
</g>
<!-- dir_ba6289ff761be66e8c406ec5c1c58521 -->
<g id="node4" class="node"><title>dir_ba6289ff761be66e8c406ec5c1c58521</title>
<g id="a_node4"><a xlink:href="dir_ba6289ff761be66e8c406ec5c1c58521.html" target="_top" xlink:title="mpi">
<polygon fill="white" stroke="black" points="70,-196 16,-196 16,-160 70,-160 70,-196"/>
<text text-anchor="middle" x="43" y="-175" font-family="Helvetica,sans-Serif" font-size="10.00">mpi</text>
</a>
</g>
</g>
<!-- dir_ba6289ff761be66e8c406ec5c1c58521&#45;&gt;dir_6ece64007dd0b8447983c5c4d040b7f1 -->
<g id="edge3" class="edge"><title>dir_ba6289ff761be66e8c406ec5c1c58521&#45;&gt;dir_6ece64007dd0b8447983c5c4d040b7f1</title>
<path fill="none" stroke="black" d="M52.3933,-159.697C56.7649,-151.644 62.0573,-141.894 66.8953,-132.982"/>
<polygon fill="black" stroke="black" points="70.0198,-134.563 71.7148,-124.104 63.8678,-131.223 70.0198,-134.563"/>
<g id="a_edge3&#45;headlabel"><a xlink:href="dir_000008_000009.html" target="_top" xlink:title="2">
<text text-anchor="middle" x="70.8002" y="-136.076" font-family="Helvetica,sans-Serif" font-size="10.00">2</text>
</a>
</g>
</g>
<!-- dir_6ece64007dd0b8447983c5c4d040b7f1&#45;&gt;dir_4b0e29da7833b7e8c5d9679501391165 -->
<g id="edge2" class="edge"><title>dir_6ece64007dd0b8447983c5c4d040b7f1&#45;&gt;dir_4b0e29da7833b7e8c5d9679501391165</title>
<path fill="none" stroke="black" d="M75.0843,-87.6966C74.2886,-79.9827 74.0621,-70.7125 74.4047,-62.1124"/>
<polygon fill="black" stroke="black" points="77.8984,-62.3243 75.105,-52.1043 70.9154,-61.8356 77.8984,-62.3243"/>
<g id="a_edge2&#45;headlabel"><a xlink:href="dir_000009_000007.html" target="_top" xlink:title="1">
<text text-anchor="middle" x="80.4799" y="-63.1083" font-family="Helvetica,sans-Serif" font-size="10.00">1</text>
</a>
</g>
</g>
</g>
</svg>
