<?xml version="1.0" encoding="UTF-8" standalone="no"?>
<!DOCTYPE svg PUBLIC "-//W3C//DTD SVG 1.1//EN"
 "http://www.w3.org/Graphics/SVG/1.1/DTD/svg11.dtd">
<!-- Generated by graphviz version 2.38.0 (20140413.2041)
 -->
<!-- Title: tomographer/tools/fmt.h Pages: 1 -->
<!--zoomable 202 -->
<svg id="main" version="1.1" xmlns="http://www.w3.org/2000/svg" xmlns:xlink="http://www.w3.org/1999/xlink" xml:space="preserve" onload="init(evt)">
<style type="text/css"><![CDATA[
.edge:hover path { stroke: red; }
.edge:hover polygon { stroke: red; fill: red; }
]]></style>
<script type="text/javascript"><![CDATA[
var edges = document.getElementsByTagName('g');
if (edges && edges.length) {
  for (var i=0;i<edges.length;i++) {
    if (edges[i].id.substr(0,4)=='edge') {
      edges[i].setAttribute('class','edge');
    }
  }
}
]]></script>
        <defs>
                <circle id="rim" cx="0" cy="0" r="7"/>
                <circle id="rim2" cx="0" cy="0" r="3.5"/>
                <g id="zoomPlus">
                        <use xlink:href="#rim" fill="#404040">
                                <set attributeName="fill" to="#808080" begin="zoomplus.mouseover" end="zoomplus.mouseout"/>
                        </use>
                        <path d="M-4,0h8M0,-4v8" fill="none" stroke="white" stroke-width="1.5" pointer-events="none"/>
                </g>
                <g id="zoomMin">
                        <use xlink:href="#rim" fill="#404040">
                                <set attributeName="fill" to="#808080" begin="zoomminus.mouseover" end="zoomminus.mouseout"/>
                        </use>
                        <path d="M-4,0h8" fill="none" stroke="white" stroke-width="1.5" pointer-events="none"/>
                </g>
                <g id="dirArrow">
                        <path fill="none" stroke="white" stroke-width="1.5" d="M0,-3.0v7 M-2.5,-0.5L0,-3.0L2.5,-0.5"/>
                </g>
               <g id="resetDef">
                       <use xlink:href="#rim2" fill="#404040">
                               <set attributeName="fill" to="#808080" begin="reset.mouseover" end="reset.mouseout"/>
                       </use>
               </g>
        </defs>

<script type="text/javascript">
var viewWidth = 1304;
var viewHeight = 202;
var sectionId = 'dynsection-0';
</script>
<script xlink:href="svgpan.js"/>
<svg id="graph" class="graph">
<g id="viewport">
<title>tomographer/tools/fmt.h</title>
<!-- Node0 -->
<g id="node1" class="node"><title>Node0</title>
<polygon fill="#bfbfbf" stroke="black" points="455.259,-175.5 455.259,-193.5 576.864,-193.5 576.864,-175.5 455.259,-175.5"/>
<text text-anchor="middle" x="516.062" y="-181.5" font-family="Helvetica,sans-Serif" font-size="10.00">tomographer/tools/fmt.h</text>
</g>
<!-- Node1 -->
<g id="node2" class="node"><title>Node1</title>
<polygon fill="none" stroke="#bfbfbf" points="0,-120.5 0,-138.5 42.123,-138.5 42.123,-120.5 0,-120.5"/>
<text text-anchor="middle" x="21.0615" y="-126.5" font-family="Helvetica,sans-Serif" font-size="10.00">cstdio</text>
</g>
<!-- Node0&#45;&gt;Node1 -->
<g id="edge1" class="edge"><title>Node0&#45;&gt;Node1</title>
<path fill="none" stroke="midnightblue" d="M455.007,-181.174C367.663,-177.071 201.983,-166.416 52.5291,-138.937"/>
<polygon fill="midnightblue" stroke="midnightblue" points="52.7268,-135.414 42.2539,-137.017 51.4405,-142.295 52.7268,-135.414"/>
</g>
<!-- Node2 -->
<g id="node3" class="node"><title>Node2</title>
<polygon fill="none" stroke="#bfbfbf" points="59.665,-120.5 59.665,-138.5 108.458,-138.5 108.458,-120.5 59.665,-120.5"/>
<text text-anchor="middle" x="84.0615" y="-126.5" font-family="Helvetica,sans-Serif" font-size="10.00">cstdarg</text>
</g>
<!-- Node0&#45;&gt;Node2 -->
<g id="edge2" class="edge"><title>Node0&#45;&gt;Node2</title>
<path fill="none" stroke="midnightblue" d="M455.011,-179.222C378.65,-173.305 243.788,-160.989 118.636,-138.843"/>
<polygon fill="midnightblue" stroke="midnightblue" points="118.952,-135.344 108.491,-137.022 117.715,-142.234 118.952,-135.344"/>
</g>
<!-- Node3 -->
<g id="node4" class="node"><title>Node3</title>
<polygon fill="none" stroke="#bfbfbf" points="126.773,-120.5 126.773,-138.5 173.35,-138.5 173.35,-120.5 126.773,-120.5"/>
<text text-anchor="middle" x="150.062" y="-126.5" font-family="Helvetica,sans-Serif" font-size="10.00">chrono</text>
</g>
<!-- Node0&#45;&gt;Node3 -->
<g id="edge3" class="edge"><title>Node0&#45;&gt;Node3</title>
<path fill="none" stroke="midnightblue" d="M455.162,-176.951C388.925,-169.435 280.059,-155.935 187.062,-139 185.821,-138.774 184.56,-138.535 183.288,-138.285"/>
<polygon fill="midnightblue" stroke="midnightblue" points="183.989,-134.856 173.483,-136.22 182.547,-141.706 183.989,-134.856"/>
</g>
<!-- Node4 -->
<g id="node5" class="node"><title>Node4</title>
<polygon fill="none" stroke="#bfbfbf" points="502.835,-0.5 502.835,-18.5 543.288,-18.5 543.288,-0.5 502.835,-0.5"/>
<text text-anchor="middle" x="523.062" y="-6.5" font-family="Helvetica,sans-Serif" font-size="10.00">string</text>
</g>
<!-- Node0&#45;&gt;Node4 -->
<g id="edge4" class="edge"><title>Node0&#45;&gt;Node4</title>
<path fill="none" stroke="midnightblue" d="M455.057,-180.377C339.802,-172.345 108.357,-144.816 187.062,-55 207.062,-32.1757 413.023,-17.2393 492.245,-12.2999"/>
<polygon fill="midnightblue" stroke="midnightblue" points="492.782,-15.7736 502.549,-11.6694 492.354,-8.78668 492.782,-15.7736"/>
</g>
<!-- Node5 -->
<g id="node6" class="node"><title>Node5</title>
<polygon fill="none" stroke="#bfbfbf" points="602.281,-120.5 602.281,-138.5 653.842,-138.5 653.842,-120.5 602.281,-120.5"/>
<text text-anchor="middle" x="628.062" y="-126.5" font-family="Helvetica,sans-Serif" font-size="10.00">sstream</text>
</g>
<!-- Node0&#45;&gt;Node5 -->
<g id="edge5" class="edge"><title>Node0&#45;&gt;Node5</title>
<path fill="none" stroke="midnightblue" d="M533.072,-175.45C551.327,-166.812 580.556,-152.98 601.774,-142.94"/>
<polygon fill="midnightblue" stroke="midnightblue" points="603.349,-146.066 610.891,-138.625 600.355,-139.739 603.349,-146.066"/>
</g>
<!-- Node6 -->
<g id="node7" class="node"><title>Node6</title>
<polygon fill="none" stroke="#bfbfbf" points="195.889,-60.5 195.889,-78.5 250.234,-78.5 250.234,-60.5 195.889,-60.5"/>
<text text-anchor="middle" x="223.062" y="-66.5" font-family="Helvetica,sans-Serif" font-size="10.00">iostream</text>
</g>
<!-- Node0&#45;&gt;Node6 -->
<g id="edge6" class="edge"><title>Node0&#45;&gt;Node6</title>
<path fill="none" stroke="midnightblue" d="M494.99,-175.373C443.885,-155.664 313.182,-105.256 253.549,-82.258"/>
<polygon fill="midnightblue" stroke="midnightblue" points="254.532,-78.8859 243.942,-78.553 252.013,-85.417 254.532,-78.8859"/>
</g>
<!-- Node7 -->
<g id="node8" class="node"><title>Node7</title>
<polygon fill="none" stroke="#bfbfbf" points="671.67,-120.5 671.67,-138.5 710.453,-138.5 710.453,-120.5 671.67,-120.5"/>
<text text-anchor="middle" x="691.062" y="-126.5" font-family="Helvetica,sans-Serif" font-size="10.00">utility</text>
</g>
<!-- Node0&#45;&gt;Node7 -->
<g id="edge7" class="edge"><title>Node0&#45;&gt;Node7</title>
<path fill="none" stroke="midnightblue" d="M542.619,-175.467C570.163,-167.135 614.735,-153.647 661.736,-139.4"/>
<polygon fill="midnightblue" stroke="midnightblue" points="662.925,-142.697 671.48,-136.447 660.895,-135.998 662.925,-142.697"/>
</g>
<!-- Node8 -->
<g id="node9" class="node"><title>Node8</title>
<polygon fill="none" stroke="#bfbfbf" points="728.446,-120.5 728.446,-138.5 771.677,-138.5 771.677,-120.5 728.446,-120.5"/>
<text text-anchor="middle" x="750.062" y="-126.5" font-family="Helvetica,sans-Serif" font-size="10.00">vector</text>
</g>
<!-- Node0&#45;&gt;Node8 -->
<g id="edge8" class="edge"><title>Node0&#45;&gt;Node8</title>
<path fill="none" stroke="midnightblue" d="M555.497,-175.487C594.42,-167.438 655.849,-154.361 718.377,-139.062"/>
<polygon fill="midnightblue" stroke="midnightblue" points="719.546,-142.379 728.419,-136.588 717.872,-135.582 719.546,-142.379"/>
</g>
<!-- Node9 -->
<g id="node10" class="node"><title>Node9</title>
<polygon fill="none" stroke="#bfbfbf" points="789.552,-120.5 789.552,-138.5 840.571,-138.5 840.571,-120.5 789.552,-120.5"/>
<text text-anchor="middle" x="815.062" y="-126.5" font-family="Helvetica,sans-Serif" font-size="10.00">iomanip</text>
</g>
<!-- Node0&#45;&gt;Node9 -->
<g id="edge9" class="edge"><title>Node0&#45;&gt;Node9</title>
<path fill="none" stroke="midnightblue" d="M571.622,-175.47C623.2,-167.723 702.317,-155.095 779.589,-139.181"/>
<polygon fill="midnightblue" stroke="midnightblue" points="780.414,-142.585 789.491,-137.121 778.988,-135.731 780.414,-142.585"/>
</g>
<!-- Node10 -->
<g id="node11" class="node"><title>Node10</title>
<polygon fill="none" stroke="#bfbfbf" points="858.658,-120.5 858.658,-138.5 917.465,-138.5 917.465,-120.5 858.658,-120.5"/>
<text text-anchor="middle" x="888.062" y="-126.5" font-family="Helvetica,sans-Serif" font-size="10.00">functional</text>
</g>
<!-- Node0&#45;&gt;Node10 -->
<g id="edge10" class="edge"><title>Node0&#45;&gt;Node10</title>
<path fill="none" stroke="midnightblue" d="M576.951,-177.01C641.926,-169.72 748.064,-156.768 848.628,-139.123"/>
<polygon fill="midnightblue" stroke="midnightblue" points="849.419,-142.538 858.654,-137.345 848.197,-135.645 849.419,-142.538"/>
</g>
<!-- Node11 -->
<g id="node12" class="node"><title>Node11</title>
<g id="a_node12"><a xlink:href="cxxutil_8h.html" target="_top" xlink:title="Some C++ utilities, with a tad of C++11 tricks. ">
<polygon fill="none" stroke="black" points="448.311,-120.5 448.311,-138.5 583.812,-138.5 583.812,-120.5 448.311,-120.5"/>
<text text-anchor="middle" x="516.062" y="-126.5" font-family="Helvetica,sans-Serif" font-size="10.00">tomographer/tools/cxxutil.h</text>
</a>
</g>
</g>
<!-- Node0&#45;&gt;Node11 -->
<g id="edge11" class="edge"><title>Node0&#45;&gt;Node11</title>
<path fill="none" stroke="midnightblue" d="M516.062,-175.219C516.062,-168.177 516.062,-157.808 516.062,-148.828"/>
<polygon fill="midnightblue" stroke="midnightblue" points="519.562,-148.55 516.062,-138.55 512.562,-148.55 519.562,-148.55"/>
</g>
<!-- Node11&#45;&gt;Node6 -->
<g id="edge15" class="edge"><title>Node11&#45;&gt;Node6</title>
<path fill="none" stroke="midnightblue" d="M449.559,-120.47C397.227,-113.319 322.754,-101.293 259.062,-84 256.779,-83.3802 254.438,-82.6733 252.099,-81.9153"/>
<polygon fill="midnightblue" stroke="midnightblue" points="253.244,-78.6078 242.649,-78.6038 250.929,-85.214 253.244,-78.6078"/>
</g>
<!-- Node12 -->
<g id="node13" class="node"><title>Node12</title>
<polygon fill="none" stroke="#bfbfbf" points="1123.95,-0.5 1123.95,-18.5 1172.18,-18.5 1172.18,-0.5 1123.95,-0.5"/>
<text text-anchor="middle" x="1148.06" y="-6.5" font-family="Helvetica,sans-Serif" font-size="10.00">cassert</text>
</g>
<!-- Node11&#45;&gt;Node12 -->
<g id="edge12" class="edge"><title>Node11&#45;&gt;Node12</title>
<path fill="none" stroke="midnightblue" d="M584.065,-120.821C587.104,-120.532 590.114,-120.257 593.062,-120 655.619,-114.554 1114.1,-129.795 1157.06,-84 1171.05,-69.0931 1164.19,-44.3502 1156.98,-27.7399"/>
<polygon fill="midnightblue" stroke="midnightblue" points="1160.09,-26.1329 1152.63,-18.6092 1153.77,-29.1426 1160.09,-26.1329"/>
</g>
<!-- Node13 -->
<g id="node14" class="node"><title>Node13</title>
<polygon fill="none" stroke="#bfbfbf" points="1189.94,-0.5 1189.94,-18.5 1238.18,-18.5 1238.18,-0.5 1189.94,-0.5"/>
<text text-anchor="middle" x="1214.06" y="-6.5" font-family="Helvetica,sans-Serif" font-size="10.00">cstddef</text>
</g>
<!-- Node11&#45;&gt;Node13 -->
<g id="edge13" class="edge"><title>Node11&#45;&gt;Node13</title>
<path fill="none" stroke="midnightblue" d="M584.064,-120.813C587.104,-120.526 590.114,-120.254 593.062,-120 657.724,-114.438 1121.69,-119.44 1176.06,-84 1195.21,-71.5168 1205.24,-46.1505 1210.08,-28.7424"/>
<polygon fill="midnightblue" stroke="midnightblue" points="1213.57,-29.2141 1212.56,-18.6674 1206.77,-27.5413 1213.57,-29.2141"/>
</g>
<!-- Node14 -->
<g id="node15" class="node"><title>Node14</title>
<polygon fill="none" stroke="#bfbfbf" points="959.889,-0.5 959.889,-18.5 1004.23,-18.5 1004.23,-0.5 959.889,-0.5"/>
<text text-anchor="middle" x="982.062" y="-6.5" font-family="Helvetica,sans-Serif" font-size="10.00">cstdlib</text>
</g>
<!-- Node11&#45;&gt;Node14 -->
<g id="edge14" class="edge"><title>Node11&#45;&gt;Node14</title>
<path fill="none" stroke="midnightblue" d="M584.077,-120.947C587.113,-120.624 590.119,-120.307 593.062,-120 674.346,-111.516 895.657,-135.565 959.062,-84 975.244,-70.8394 980.245,-46.425 981.682,-29.3593"/>
<polygon fill="midnightblue" stroke="midnightblue" points="985.199,-29.1094 982.202,-18.9473 978.208,-28.7604 985.199,-29.1094"/>
</g>
<!-- Node15 -->
<g id="node16" class="node"><title>Node15</title>
<polygon fill="none" stroke="#bfbfbf" points="1242.44,-60.5 1242.44,-78.5 1295.68,-78.5 1295.68,-60.5 1242.44,-60.5"/>
<text text-anchor="middle" x="1269.06" y="-66.5" font-family="Helvetica,sans-Serif" font-size="10.00">complex</text>
</g>
<!-- Node11&#45;&gt;Node15 -->
<g id="edge16" class="edge"><title>Node11&#45;&gt;Node15</title>
<path fill="none" stroke="midnightblue" d="M584.063,-120.795C587.102,-120.513 590.113,-120.246 593.062,-120 874.757,-96.4836 950.333,-136.653 1228.06,-84 1231.48,-83.3522 1235,-82.4957 1238.49,-81.5274"/>
<polygon fill="midnightblue" stroke="midnightblue" points="1239.53,-84.868 1248.06,-78.5829 1237.47,-78.1773 1239.53,-84.868"/>
</g>
<!-- Node16 -->
<g id="node17" class="node"><title>Node16</title>
<polygon fill="none" stroke="#bfbfbf" points="267.995,-60.5 267.995,-78.5 330.128,-78.5 330.128,-60.5 267.995,-60.5"/>
<text text-anchor="middle" x="299.062" y="-66.5" font-family="Helvetica,sans-Serif" font-size="10.00">type_traits</text>
</g>
<!-- Node11&#45;&gt;Node16 -->
<g id="edge17" class="edge"><title>Node11&#45;&gt;Node16</title>
<path fill="none" stroke="midnightblue" d="M480.577,-120.452C444.681,-112.106 387.7,-98.2976 339.062,-84 336.6,-83.2765 334.065,-82.4986 331.52,-81.6945"/>
<polygon fill="midnightblue" stroke="midnightblue" points="332.4,-78.2999 321.808,-78.5241 330.228,-84.9544 332.4,-78.2999"/>
</g>
<!-- Node17 -->
<g id="node18" class="node"><title>Node17</title>
<polygon fill="none" stroke="#bfbfbf" points="347.658,-60.5 347.658,-78.5 406.465,-78.5 406.465,-60.5 347.658,-60.5"/>
<text text-anchor="middle" x="377.062" y="-66.5" font-family="Helvetica,sans-Serif" font-size="10.00">exception</text>
</g>
<!-- Node11&#45;&gt;Node17 -->
<g id="edge18" class="edge"><title>Node11&#45;&gt;Node17</title>
<path fill="none" stroke="midnightblue" d="M496.734,-120.435C473.215,-110.622 433.283,-93.9593 406.069,-82.604"/>
<polygon fill="midnightblue" stroke="midnightblue" points="407.249,-79.304 396.673,-78.6831 404.554,-85.7641 407.249,-79.304"/>
</g>
<!-- Node18 -->
<g id="node19" class="node"><title>Node18</title>
<polygon fill="none" stroke="#bfbfbf" points="424.66,-60.5 424.66,-78.5 483.463,-78.5 483.463,-60.5 424.66,-60.5"/>
<text text-anchor="middle" x="454.062" y="-66.5" font-family="Helvetica,sans-Serif" font-size="10.00">stdexcept</text>
</g>
<!-- Node11&#45;&gt;Node18 -->
<g id="edge19" class="edge"><title>Node11&#45;&gt;Node18</title>
<path fill="none" stroke="midnightblue" d="M507.441,-120.435C497.925,-111.533 482.384,-96.9952 470.519,-85.8954"/>
<polygon fill="midnightblue" stroke="midnightblue" points="472.704,-83.1474 463.011,-78.8718 467.922,-88.2593 472.704,-83.1474"/>
</g>
<!-- Node19 -->
<g id="node20" class="node"><title>Node19</title>
<g id="a_node20"><a xlink:href="cxxdefs_8h.html" target="_top" xlink:title="Basic definitions, which may have to be defined before any Eigen headers or further utilities are inc...">
<polygon fill="none" stroke="black" points="1006.25,-60.5 1006.25,-78.5 1147.87,-78.5 1147.87,-60.5 1006.25,-60.5"/>
<text text-anchor="middle" x="1077.06" y="-66.5" font-family="Helvetica,sans-Serif" font-size="10.00">tomographer/tools/cxxdefs.h</text>
</a>
</g>
</g>
<!-- Node11&#45;&gt;Node19 -->
<g id="edge20" class="edge"><title>Node11&#45;&gt;Node19</title>
<path fill="none" stroke="midnightblue" d="M584.074,-120.918C587.111,-120.603 590.117,-120.295 593.062,-120 770.226,-102.231 815.369,-105.977 992.062,-84 1001.1,-82.8759 1010.65,-81.5217 1019.96,-80.1108"/>
<polygon fill="midnightblue" stroke="midnightblue" points="1020.59,-83.5558 1029.93,-78.5657 1019.52,-76.6383 1020.59,-83.5558"/>
</g>
<!-- Node21 -->
<g id="node22" class="node"><title>Node21</title>
<g id="a_node22"><a xlink:href="conststr_8h.html" target="_top" xlink:title="A constexpr string type, suitable for basic compile&#45;time string processing. ">
<polygon fill="none" stroke="black" points="807.971,-60.5 807.971,-78.5 950.152,-78.5 950.152,-60.5 807.971,-60.5"/>
<text text-anchor="middle" x="879.062" y="-66.5" font-family="Helvetica,sans-Serif" font-size="10.00">tomographer/tools/conststr.h</text>
</a>
</g>
</g>
<!-- Node11&#45;&gt;Node21 -->
<g id="edge25" class="edge"><title>Node11&#45;&gt;Node21</title>
<path fill="none" stroke="midnightblue" d="M568.249,-120.473C625.056,-111.694 718.557,-97.1215 799.062,-84 806.504,-82.7869 814.333,-81.4907 822.061,-80.1993"/>
<polygon fill="midnightblue" stroke="midnightblue" points="822.838,-83.618 832.121,-78.5117 821.679,-76.7144 822.838,-83.618"/>
</g>
<!-- Node22 -->
<g id="node23" class="node"><title>Node22</title>
<polygon fill="none" stroke="#bfbfbf" points="501.591,-60.5 501.591,-78.5 596.532,-78.5 596.532,-60.5 501.591,-60.5"/>
<text text-anchor="middle" x="549.062" y="-66.5" font-family="Helvetica,sans-Serif" font-size="10.00">boost/version.hpp</text>
</g>
<!-- Node11&#45;&gt;Node22 -->
<g id="edge27" class="edge"><title>Node11&#45;&gt;Node22</title>
<path fill="none" stroke="midnightblue" d="M520.65,-120.435C525.423,-112.047 533.043,-98.6539 539.19,-87.8491"/>
<polygon fill="midnightblue" stroke="midnightblue" points="542.395,-89.2943 544.298,-78.8718 536.311,-85.8326 542.395,-89.2943"/>
</g>
<!-- Node23 -->
<g id="node24" class="node"><title>Node23</title>
<polygon fill="none" stroke="#bfbfbf" points="614.537,-55.5 614.537,-83.5 705.586,-83.5 705.586,-55.5 614.537,-55.5"/>
<text text-anchor="start" x="622.537" y="-71.5" font-family="Helvetica,sans-Serif" font-size="10.00">boost/units/detail</text>
<text text-anchor="middle" x="660.062" y="-61.5" font-family="Helvetica,sans-Serif" font-size="10.00">/utility.hpp</text>
</g>
<!-- Node11&#45;&gt;Node23 -->
<g id="edge28" class="edge"><title>Node11&#45;&gt;Node23</title>
<path fill="none" stroke="midnightblue" d="M536.084,-120.435C557.214,-111.925 591.133,-98.263 618.155,-87.3791"/>
<polygon fill="midnightblue" stroke="midnightblue" points="619.794,-90.4923 627.762,-83.5096 617.178,-83.9992 619.794,-90.4923"/>
</g>
<!-- Node24 -->
<g id="node25" class="node"><title>Node24</title>
<polygon fill="none" stroke="#bfbfbf" points="724.047,-60.5 724.047,-78.5 790.076,-78.5 790.076,-60.5 724.047,-60.5"/>
<text text-anchor="middle" x="757.062" y="-66.5" font-family="Helvetica,sans-Serif" font-size="10.00">Eigen/Core</text>
</g>
<!-- Node11&#45;&gt;Node24 -->
<g id="edge29" class="edge"><title>Node11&#45;&gt;Node24</title>
<path fill="none" stroke="midnightblue" d="M557.109,-120.459C597.534,-112.273 660.916,-98.7232 715.062,-84 717.833,-83.2464 720.694,-82.4239 723.558,-81.5688"/>
<polygon fill="midnightblue" stroke="midnightblue" points="724.668,-84.8891 733.187,-78.5892 722.599,-78.202 724.668,-84.8891"/>
</g>
<!-- Node19&#45;&gt;Node12 -->
<g id="edge21" class="edge"><title>Node19&#45;&gt;Node12</title>
<path fill="none" stroke="midnightblue" d="M1086.93,-60.4353C1098.04,-51.3619 1116.31,-36.434 1129.99,-25.2589"/>
<polygon fill="midnightblue" stroke="midnightblue" points="1132.28,-27.9088 1137.81,-18.8718 1127.85,-22.4877 1132.28,-27.9088"/>
</g>
<!-- Node19&#45;&gt;Node13 -->
<g id="edge22" class="edge"><title>Node19&#45;&gt;Node13</title>
<path fill="none" stroke="midnightblue" d="M1096.11,-60.4353C1119.29,-50.6217 1158.65,-33.9593 1185.47,-22.604"/>
<polygon fill="midnightblue" stroke="midnightblue" points="1186.89,-25.8049 1194.73,-18.6831 1184.16,-19.3587 1186.89,-25.8049"/>
</g>
<!-- Node19&#45;&gt;Node14 -->
<g id="edge23" class="edge"><title>Node19&#45;&gt;Node14</title>
<path fill="none" stroke="midnightblue" d="M1063.85,-60.4353C1048.41,-51.0091 1022.62,-35.2641 1004.13,-23.9728"/>
<polygon fill="midnightblue" stroke="midnightblue" points="1005.82,-20.9068 995.465,-18.6831 1002.18,-26.8813 1005.82,-20.9068"/>
</g>
<!-- Node20 -->
<g id="node21" class="node"><title>Node20</title>
<polygon fill="none" stroke="#bfbfbf" points="1026.09,-0.5 1026.09,-18.5 1106.03,-18.5 1106.03,-0.5 1026.09,-0.5"/>
<text text-anchor="middle" x="1066.06" y="-6.5" font-family="Helvetica,sans-Serif" font-size="10.00">boost/predef.h</text>
</g>
<!-- Node19&#45;&gt;Node20 -->
<g id="edge24" class="edge"><title>Node19&#45;&gt;Node20</title>
<path fill="none" stroke="midnightblue" d="M1075.53,-60.4353C1073.99,-52.3035 1071.56,-39.4692 1069.54,-28.8485"/>
<polygon fill="midnightblue" stroke="midnightblue" points="1072.95,-28.0444 1067.65,-18.8718 1066.07,-29.3488 1072.95,-28.0444"/>
</g>
<!-- Node21&#45;&gt;Node4 -->
<g id="edge26" class="edge"><title>Node21&#45;&gt;Node4</title>
<path fill="none" stroke="midnightblue" d="M831.693,-60.4476C820.965,-58.6404 809.624,-56.7426 799.062,-55 709.869,-40.2843 604.366,-23.4264 553.498,-15.3328"/>
<polygon fill="midnightblue" stroke="midnightblue" points="553.924,-11.8565 543.498,-13.7426 552.825,-18.7697 553.924,-11.8565"/>
</g>
</g>
</svg>
        <g id="navigator" transform="translate(0 0)" fill="#404254">
                <rect fill="#f2f5e9" fill-opacity="0.5" stroke="#606060" stroke-width=".5" x="0" y="0" width="60" height="60"/>
                <use id="zoomplus" xlink:href="#zoomPlus" x="17" y="9" onmousedown="handleZoom(evt,'in')"/>
                <use id="zoomminus" xlink:href="#zoomMin" x="42" y="9" onmousedown="handleZoom(evt,'out')"/>
                <use id="reset" xlink:href="#resetDef" x="30" y="36" onmousedown="handleReset()"/>
                <g id="arrowUp" xlink:href="#dirArrow" transform="translate(30 24)" onmousedown="handlePan(0,-1)">
                  <use xlink:href="#rim" fill="#404040">
                        <set attributeName="fill" to="#808080" begin="arrowUp.mouseover" end="arrowUp.mouseout"/>
                  </use>
                  <path fill="none" stroke="white" stroke-width="1.5" d="M0,-3.0v7 M-2.5,-0.5L0,-3.0L2.5,-0.5"/>
                </g>
                <g id="arrowRight" xlink:href="#dirArrow" transform="rotate(90) translate(36 -43)" onmousedown="handlePan(1,0)">
                  <use xlink:href="#rim" fill="#404040">
                        <set attributeName="fill" to="#808080" begin="arrowRight.mouseover" end="arrowRight.mouseout"/>
                  </use>
                  <path fill="none" stroke="white" stroke-width="1.5" d="M0,-3.0v7 M-2.5,-0.5L0,-3.0L2.5,-0.5"/>
                </g>
                <g id="arrowDown" xlink:href="#dirArrow" transform="rotate(180) translate(-30 -48)" onmousedown="handlePan(0,1)">
                  <use xlink:href="#rim" fill="#404040">
                        <set attributeName="fill" to="#808080" begin="arrowDown.mouseover" end="arrowDown.mouseout"/>
                  </use>
                  <path fill="none" stroke="white" stroke-width="1.5" d="M0,-3.0v7 M-2.5,-0.5L0,-3.0L2.5,-0.5"/>
                </g>
                <g id="arrowLeft" xlink:href="#dirArrow" transform="rotate(270) translate(-36 17)" onmousedown="handlePan(-1,0)">
                  <use xlink:href="#rim" fill="#404040">
                        <set attributeName="fill" to="#808080" begin="arrowLeft.mouseover" end="arrowLeft.mouseout"/>
                  </use>
                  <path fill="none" stroke="white" stroke-width="1.5" d="M0,-3.0v7 M-2.5,-0.5L0,-3.0L2.5,-0.5"/>
                </g>
        </g>
        <svg viewBox="0 0 15 15" width="100%" height="30px" preserveAspectRatio="xMaxYMin meet">
         <g id="arrow_out" transform="scale(0.3 0.3)">
          <a xlink:href="fmt_8h__incl_org.svg" target="_base">
           <rect id="button" ry="5" rx="5" y="6" x="6" height="38" width="38"
                fill="#f2f5e9" fill-opacity="0.5" stroke="#606060" stroke-width="1.0"/>
           <path id="arrow"
             d="M 11.500037,31.436501 C 11.940474,20.09759 22.043105,11.32322 32.158766,21.979434 L 37.068811,17.246167 C 37.068811,17.246167 37.088388,32 37.088388,32 L 22.160133,31.978069 C 22.160133,31.978069 26.997745,27.140456 26.997745,27.140456 C 18.528582,18.264221 13.291696,25.230495 11.500037,31.436501 z"
             style="fill:#404040;"/>
          </a>
         </g>
        </svg>
</svg>
