<?xml version="1.0" encoding="UTF-8" standalone="no"?>
<!DOCTYPE svg PUBLIC "-//W3C//DTD SVG 1.1//EN"
 "http://www.w3.org/Graphics/SVG/1.1/DTD/svg11.dtd">
<!-- Generated by graphviz version 2.38.0 (20140413.2041)
 -->
<!-- Title: tomographer/tools/loggers.h Pages: 1 -->
<svg width="2027pt" height="342pt"
 viewBox="0.00 0.00 2026.92 342.00" xmlns="http://www.w3.org/2000/svg" xmlns:xlink="http://www.w3.org/1999/xlink">
<g id="graph0" class="graph" transform="scale(1 1) rotate(0) translate(4 338)">
<title>tomographer/tools/loggers.h</title>
<!-- Node28 -->
<g id="node1" class="node"><title>Node28</title>
<polygon fill="#bfbfbf" stroke="black" points="1155.74,-315.5 1155.74,-333.5 1296.26,-333.5 1296.26,-315.5 1155.74,-315.5"/>
<text text-anchor="middle" x="1226" y="-321.5" font-family="Helvetica,sans-Serif" font-size="10.00">tomographer/tools/loggers.h</text>
</g>
<!-- Node29 -->
<g id="node2" class="node"><title>Node29</title>
<g id="a_node2"><a xlink:href="tspacellhwalker_8h.html" target="_top" xlink:title="Definitions for a Metropolis&#45;Hastings random walk on a quantum state space with dense matrix type...">
<polygon fill="none" stroke="black" points="407.692,-130.5 407.692,-158.5 524.308,-158.5 524.308,-130.5 407.692,-130.5"/>
<text text-anchor="start" x="415.692" y="-146.5" font-family="Helvetica,sans-Serif" font-size="10.00">tomographer/densedm</text>
<text text-anchor="middle" x="466" y="-136.5" font-family="Helvetica,sans-Serif" font-size="10.00">/tspacellhwalker.h</text>
</a>
</g>
</g>
<!-- Node28&#45;&gt;Node29 -->
<g id="edge1" class="edge"><title>Node28&#45;&gt;Node29</title>
<path fill="none" stroke="midnightblue" d="M1145.48,-320.686C1062.63,-316.401 930.312,-305.678 819,-279 693.16,-248.84 551.386,-185.758 493.162,-158.503"/>
<polygon fill="midnightblue" stroke="midnightblue" points="1145.42,-324.187 1155.59,-321.189 1145.77,-317.196 1145.42,-324.187"/>
</g>
<!-- Node30 -->
<g id="node3" class="node"><title>Node30</title>
<g id="a_node3"><a xlink:href="random__unitary_8h.html" target="_top" xlink:title="Produce a random unitary according to the Haar measure. ">
<polygon fill="none" stroke="black" points="1335.58,-250.5 1335.58,-278.5 1454.42,-278.5 1454.42,-250.5 1335.58,-250.5"/>
<text text-anchor="start" x="1343.58" y="-266.5" font-family="Helvetica,sans-Serif" font-size="10.00">tomographer/mathtools</text>
<text text-anchor="middle" x="1395" y="-256.5" font-family="Helvetica,sans-Serif" font-size="10.00">/random_unitary.h</text>
</a>
</g>
</g>
<!-- Node28&#45;&gt;Node30 -->
<g id="edge2" class="edge"><title>Node28&#45;&gt;Node30</title>
<path fill="none" stroke="midnightblue" d="M1259.27,-312.081C1287.41,-302.425 1327.72,-288.592 1357.09,-278.51"/>
<polygon fill="midnightblue" stroke="midnightblue" points="1257.82,-308.879 1249.5,-315.435 1260.09,-315.5 1257.82,-308.879"/>
</g>
<!-- Node31 -->
<g id="node4" class="node"><title>Node31</title>
<g id="a_node4"><a xlink:href="simple__find__zero_8h.html" target="_top" xlink:title="A very simplistic tool for finding a relatively straightforward zero with few iterations. ">
<polygon fill="none" stroke="black" points="1472.58,-250.5 1472.58,-278.5 1591.42,-278.5 1591.42,-250.5 1472.58,-250.5"/>
<text text-anchor="start" x="1480.58" y="-266.5" font-family="Helvetica,sans-Serif" font-size="10.00">tomographer/mathtools</text>
<text text-anchor="middle" x="1532" y="-256.5" font-family="Helvetica,sans-Serif" font-size="10.00">/simple_find_zero.h</text>
</a>
</g>
</g>
<!-- Node28&#45;&gt;Node31 -->
<g id="edge3" class="edge"><title>Node28&#45;&gt;Node31</title>
<path fill="none" stroke="midnightblue" d="M1279.13,-313.643C1327.18,-304.701 1399.86,-291.105 1463,-279 1466.12,-278.402 1469.31,-277.787 1472.54,-277.164"/>
<polygon fill="midnightblue" stroke="midnightblue" points="1278.46,-310.209 1269.27,-315.478 1279.74,-317.091 1278.46,-310.209"/>
</g>
<!-- Node32 -->
<g id="node5" class="node"><title>Node32</title>
<g id="a_node5"><a xlink:href="mhrw_8h.html" target="_top" xlink:title="Routines for performing a Metropolis&#45;Hastings random walk. ">
<polygon fill="none" stroke="black" points="802.143,-195.5 802.143,-213.5 909.857,-213.5 909.857,-195.5 802.143,-195.5"/>
<text text-anchor="middle" x="856" y="-201.5" font-family="Helvetica,sans-Serif" font-size="10.00">tomographer/mhrw.h</text>
</a>
</g>
</g>
<!-- Node28&#45;&gt;Node32 -->
<g id="edge4" class="edge"><title>Node28&#45;&gt;Node32</title>
<path fill="none" stroke="midnightblue" d="M1145.66,-317.359C1094.84,-311.55 1028.5,-300.369 973,-279 929.794,-262.366 885.235,-229.037 865.92,-213.641"/>
<polygon fill="midnightblue" stroke="midnightblue" points="1145.28,-320.839 1155.6,-318.451 1146.05,-313.881 1145.28,-320.839"/>
</g>
<!-- Node33 -->
<g id="node6" class="node"><title>Node33</title>
<g id="a_node6"><a xlink:href="mhrwacceptratiowalkerparamscontroller_8h.html" target="_top" xlink:title="Tools for automatically and dynamically adjusting the step size of the random walk. ">
<polygon fill="none" stroke="black" points="66.0005,-70.5 66.0005,-88.5 326,-88.5 326,-70.5 66.0005,-70.5"/>
<text text-anchor="middle" x="196" y="-76.5" font-family="Helvetica,sans-Serif" font-size="10.00">tomographer/mhrwacceptratiowalkerparamscontroller.h</text>
</a>
</g>
</g>
<!-- Node28&#45;&gt;Node33 -->
<g id="edge30" class="edge"><title>Node28&#45;&gt;Node33</title>
<path fill="none" stroke="midnightblue" d="M1145.24,-323.26C985.6,-321.992 635.227,-315.045 521,-279 382.289,-235.228 241.967,-120.092 205.244,-88.5754"/>
<polygon fill="midnightblue" stroke="midnightblue" points="1145.45,-326.762 1155.47,-323.336 1145.5,-319.762 1145.45,-326.762"/>
</g>
<!-- Node34 -->
<g id="node7" class="node"><title>Node34</title>
<g id="a_node7"><a xlink:href="mhrwstepsizecontroller_8h.html" target="_top" xlink:title="Tools for automatically and dynamically adjusting the step size of the random walk. ">
<polygon fill="none" stroke="black" points="247.237,-5.5 247.237,-23.5 432.763,-23.5 432.763,-5.5 247.237,-5.5"/>
<text text-anchor="middle" x="340" y="-11.5" font-family="Helvetica,sans-Serif" font-size="10.00">tomographer/mhrwstepsizecontroller.h</text>
</a>
</g>
</g>
<!-- Node28&#45;&gt;Node34 -->
<g id="edge32" class="edge"><title>Node28&#45;&gt;Node34</title>
<path fill="none" stroke="midnightblue" d="M1145.59,-323.087C904.095,-321.462 195.798,-313.756 98,-279 46.6989,-260.768 0,-259.944 0,-205.5 0,-205.5 0,-205.5 0,-143.5 0,-105.3 4.73246,-88.3042 35,-65 67.4633,-40.0052 169.774,-27.2149 247.022,-20.9635"/>
<polygon fill="midnightblue" stroke="midnightblue" points="1145.68,-326.588 1155.7,-323.153 1145.73,-319.588 1145.68,-326.588"/>
</g>
<!-- Node35 -->
<g id="node8" class="node"><title>Node35</title>
<g id="a_node8"><a xlink:href="mhrwstatscollectors_8h.html" target="_top" xlink:title="Definitions for MHRWStatsCollector Interface&#39;s. ">
<polygon fill="none" stroke="black" points="580.192,-135.5 580.192,-153.5 751.808,-153.5 751.808,-135.5 580.192,-135.5"/>
<text text-anchor="middle" x="666" y="-141.5" font-family="Helvetica,sans-Serif" font-size="10.00">tomographer/mhrwstatscollectors.h</text>
</a>
</g>
</g>
<!-- Node28&#45;&gt;Node35 -->
<g id="edge31" class="edge"><title>Node28&#45;&gt;Node35</title>
<path fill="none" stroke="midnightblue" d="M1145.42,-320.127C1045.29,-312.715 872.237,-289.098 746,-214 716.457,-196.425 687.161,-167.721 673.682,-153.712"/>
<polygon fill="midnightblue" stroke="midnightblue" points="1145.25,-323.624 1155.47,-320.834 1145.74,-316.641 1145.25,-323.624"/>
</g>
<!-- Node36 -->
<g id="node9" class="node"><title>Node36</title>
<g id="a_node9"><a xlink:href="mhrw__valuehist__tools_8h.html" target="_top" xlink:title="Tools for collecting a histogram of values during a Metropolis&#45;Hastings random walk using the tools o...">
<polygon fill="none" stroke="black" points="595.525,-0.5 595.525,-28.5 740.475,-28.5 740.475,-0.5 595.525,-0.5"/>
<text text-anchor="start" x="603.525" y="-16.5" font-family="Helvetica,sans-Serif" font-size="10.00">tomographer/mhrw_valuehist</text>
<text text-anchor="middle" x="668" y="-6.5" font-family="Helvetica,sans-Serif" font-size="10.00">_tools.h</text>
</a>
</g>
</g>
<!-- Node28&#45;&gt;Node36 -->
<g id="edge29" class="edge"><title>Node28&#45;&gt;Node36</title>
<path fill="none" stroke="midnightblue" d="M1145.67,-323.96C878.717,-324.439 38,-317.089 38,-205.5 38,-205.5 38,-205.5 38,-143.5 38,-107.604 29.7095,-88.3189 57,-65 67.1327,-56.3419 435.728,-30.9117 595.43,-20.2692"/>
<polygon fill="midnightblue" stroke="midnightblue" points="1145.69,-327.46 1155.68,-323.938 1145.67,-320.46 1145.69,-327.46"/>
</g>
<!-- Node40 -->
<g id="node13" class="node"><title>Node40</title>
<g id="a_node13"><a xlink:href="mhrwvalueerrorbinsconvergedcontroller_8h.html" target="_top" xlink:title="Tools for automatically stopping the random walk when enough samples have been taken to make all binn...">
<polygon fill="none" stroke="black" points="343.547,-70.5 343.547,-88.5 602.453,-88.5 602.453,-70.5 343.547,-70.5"/>
<text text-anchor="middle" x="473" y="-76.5" font-family="Helvetica,sans-Serif" font-size="10.00">tomographer/mhrwvalueerrorbinsconvergedcontroller.h</text>
</a>
</g>
</g>
<!-- Node28&#45;&gt;Node40 -->
<g id="edge33" class="edge"><title>Node28&#45;&gt;Node40</title>
<path fill="none" stroke="midnightblue" d="M1145.17,-323.256C1043.71,-321.402 864.904,-312.995 716,-279 569.133,-245.47 484.615,-282.953 399,-159 391.675,-148.395 392.927,-141.369 399,-130 409.851,-109.686 433.139,-96.2505 450.711,-88.5676"/>
<polygon fill="midnightblue" stroke="midnightblue" points="1145.29,-326.758 1155.35,-323.425 1145.41,-319.759 1145.29,-326.758"/>
</g>
<!-- Node42 -->
<g id="node15" class="node"><title>Node42</title>
<g id="a_node15"><a xlink:href="mhrw__bin__err_8h.html" target="_top" xlink:title="Binning Analysis in a Metropolis&#45;Hastings random walk. ">
<polygon fill="none" stroke="black" points="981.586,-250.5 981.586,-278.5 1100.41,-278.5 1100.41,-250.5 981.586,-250.5"/>
<text text-anchor="start" x="989.586" y="-266.5" font-family="Helvetica,sans-Serif" font-size="10.00">tomographer/mhrw_bin</text>
<text text-anchor="middle" x="1041" y="-256.5" font-family="Helvetica,sans-Serif" font-size="10.00">_err.h</text>
</a>
</g>
</g>
<!-- Node28&#45;&gt;Node42 -->
<g id="edge25" class="edge"><title>Node28&#45;&gt;Node42</title>
<path fill="none" stroke="midnightblue" d="M1190.39,-312.335C1159.55,-302.668 1114.94,-288.68 1082.5,-278.51"/>
<polygon fill="midnightblue" stroke="midnightblue" points="1189.69,-315.783 1200.28,-315.435 1191.78,-309.104 1189.69,-315.783"/>
</g>
<!-- Node43 -->
<g id="node16" class="node"><title>Node43</title>
<g id="a_node16"><a xlink:href="multiprocomp_8h.html" target="_top" xlink:title="Multiprocessing with OpenMP parallel multithreading. ">
<polygon fill="none" stroke="black" points="1501.08,-195.5 1501.08,-213.5 1644.92,-213.5 1644.92,-195.5 1501.08,-195.5"/>
<text text-anchor="middle" x="1573" y="-201.5" font-family="Helvetica,sans-Serif" font-size="10.00">tomographer/multiprocomp.h</text>
</a>
</g>
</g>
<!-- Node28&#45;&gt;Node43 -->
<g id="edge34" class="edge"><title>Node28&#45;&gt;Node43</title>
<path fill="none" stroke="midnightblue" d="M1306.48,-319.52C1410.56,-313.534 1580.85,-300.558 1600,-279 1617.15,-259.687 1593.97,-228.555 1580.88,-213.786"/>
<polygon fill="midnightblue" stroke="midnightblue" points="1306.1,-316.036 1296.31,-320.095 1306.49,-323.025 1306.1,-316.036"/>
</g>
<!-- Node44 -->
<g id="node17" class="node"><title>Node44</title>
<g id="a_node17"><a xlink:href="multiprocthreadcommon_8h.html" target="_top" xlink:title="Basic multiprocessing templates for thread&#45;based Tomographer::MultiProc implementations. ">
<polygon fill="none" stroke="black" points="1647.46,-255.5 1647.46,-273.5 1838.54,-273.5 1838.54,-255.5 1647.46,-255.5"/>
<text text-anchor="middle" x="1743" y="-261.5" font-family="Helvetica,sans-Serif" font-size="10.00">tomographer/multiprocthreadcommon.h</text>
</a>
</g>
</g>
<!-- Node28&#45;&gt;Node44 -->
<g id="edge35" class="edge"><title>Node28&#45;&gt;Node44</title>
<path fill="none" stroke="midnightblue" d="M1306.64,-315.001C1388.77,-306.269 1519.81,-292.133 1633,-279 1647.81,-277.281 1663.74,-275.366 1678.74,-273.531"/>
<polygon fill="midnightblue" stroke="midnightblue" points="1306.19,-311.528 1296.62,-316.065 1306.93,-318.489 1306.19,-311.528"/>
</g>
<!-- Node46 -->
<g id="node19" class="node"><title>Node46</title>
<g id="a_node19"><a xlink:href="multiprocthreads_8h.html" target="_top" xlink:title="Multiprocessing with native C++11 threads. ">
<polygon fill="none" stroke="black" points="1841.13,-195.5 1841.13,-213.5 1998.87,-213.5 1998.87,-195.5 1841.13,-195.5"/>
<text text-anchor="middle" x="1920" y="-201.5" font-family="Helvetica,sans-Serif" font-size="10.00">tomographer/multiprocthreads.h</text>
</a>
</g>
</g>
<!-- Node28&#45;&gt;Node46 -->
<g id="edge39" class="edge"><title>Node28&#45;&gt;Node46</title>
<path fill="none" stroke="midnightblue" d="M1306.44,-320.919C1463.54,-315.417 1800.05,-301.197 1848,-279 1864.13,-271.533 1898.69,-231.262 1913.28,-213.698"/>
<polygon fill="midnightblue" stroke="midnightblue" points="1306.23,-317.424 1296.36,-321.269 1306.47,-324.42 1306.23,-317.424"/>
</g>
<!-- Node47 -->
<g id="node20" class="node"><title>Node47</title>
<g id="a_node20"><a xlink:href="boost__test__logger_8h.html" target="_top" xlink:title="Provide a logger class for when using the Boost Unit Test Framework (see Tomographer::Logger::BoostTe...">
<polygon fill="none" stroke="black" points="1895.08,-250.5 1895.08,-278.5 2018.92,-278.5 2018.92,-250.5 1895.08,-250.5"/>
<text text-anchor="start" x="1903.08" y="-266.5" font-family="Helvetica,sans-Serif" font-size="10.00">tomographer/tools/boost</text>
<text text-anchor="middle" x="1957" y="-256.5" font-family="Helvetica,sans-Serif" font-size="10.00">_test_logger.h</text>
</a>
</g>
</g>
<!-- Node28&#45;&gt;Node47 -->
<g id="edge40" class="edge"><title>Node28&#45;&gt;Node47</title>
<path fill="none" stroke="midnightblue" d="M1306.67,-320.824C1430.56,-316.081 1674.95,-304.225 1881,-279 1885.52,-278.446 1890.18,-277.802 1894.87,-277.1"/>
<polygon fill="midnightblue" stroke="midnightblue" points="1306.37,-317.332 1296.51,-321.207 1306.64,-324.327 1306.37,-317.332"/>
</g>
<!-- Node48 -->
<g id="node21" class="node"><title>Node48</title>
<g id="a_node21"><a xlink:href="common_8h_source.html" target="_top" xlink:title="py/cxx/tomographerpy\l/common.h">
<polygon fill="none" stroke="black" points="1168.81,-130.5 1168.81,-158.5 1283.19,-158.5 1283.19,-130.5 1168.81,-130.5"/>
<text text-anchor="start" x="1176.81" y="-146.5" font-family="Helvetica,sans-Serif" font-size="10.00">py/cxx/tomographerpy</text>
<text text-anchor="middle" x="1226" y="-136.5" font-family="Helvetica,sans-Serif" font-size="10.00">/common.h</text>
</a>
</g>
</g>
<!-- Node28&#45;&gt;Node48 -->
<g id="edge41" class="edge"><title>Node28&#45;&gt;Node48</title>
<path fill="none" stroke="midnightblue" d="M1226,-305.381C1226,-269.493 1226,-190.131 1226,-158.695"/>
<polygon fill="midnightblue" stroke="midnightblue" points="1222.5,-305.389 1226,-315.389 1229.5,-305.389 1222.5,-305.389"/>
</g>
<!-- Node51 -->
<g id="node24" class="node"><title>Node51</title>
<g id="a_node24"><a xlink:href="pygil_8h_source.html" target="_top" xlink:title="py/cxx/tomographerpy\l/pygil.h">
<polygon fill="none" stroke="black" points="1639.81,-0.5 1639.81,-28.5 1754.19,-28.5 1754.19,-0.5 1639.81,-0.5"/>
<text text-anchor="start" x="1647.81" y="-16.5" font-family="Helvetica,sans-Serif" font-size="10.00">py/cxx/tomographerpy</text>
<text text-anchor="middle" x="1697" y="-6.5" font-family="Helvetica,sans-Serif" font-size="10.00">/pygil.h</text>
</a>
</g>
</g>
<!-- Node28&#45;&gt;Node51 -->
<g id="edge54" class="edge"><title>Node28&#45;&gt;Node51</title>
<path fill="none" stroke="midnightblue" d="M1243,-308.766C1262.3,-292.621 1295.25,-266.789 1327,-250 1349.74,-237.976 1748.19,-115.033 1763,-94 1780.12,-69.6893 1746.82,-43.6906 1721.59,-28.5517"/>
<polygon fill="midnightblue" stroke="midnightblue" points="1240.5,-306.295 1235.15,-315.435 1245.03,-311.631 1240.5,-306.295"/>
</g>
<!-- Node53 -->
<g id="node26" class="node"><title>Node53</title>
<g id="a_node26"><a xlink:href="pylogger_8h_source.html" target="_top" xlink:title="py/cxx/tomographerpy\l/pylogger.h">
<polygon fill="none" stroke="black" points="1639.81,-65.5 1639.81,-93.5 1754.19,-93.5 1754.19,-65.5 1639.81,-65.5"/>
<text text-anchor="start" x="1647.81" y="-81.5" font-family="Helvetica,sans-Serif" font-size="10.00">py/cxx/tomographerpy</text>
<text text-anchor="middle" x="1697" y="-71.5" font-family="Helvetica,sans-Serif" font-size="10.00">/pylogger.h</text>
</a>
</g>
</g>
<!-- Node28&#45;&gt;Node53 -->
<g id="edge55" class="edge"><title>Node28&#45;&gt;Node53</title>
<path fill="none" stroke="midnightblue" d="M1234.39,-306.317C1248.73,-278.742 1280.56,-224.702 1323,-195 1374.67,-158.838 1548.26,-114.872 1639.64,-93.4651"/>
<polygon fill="midnightblue" stroke="midnightblue" points="1231.15,-304.979 1229.77,-315.484 1237.4,-308.132 1231.15,-304.979"/>
</g>
<!-- Node32&#45;&gt;Node29 -->
<g id="edge5" class="edge"><title>Node32&#45;&gt;Node29</title>
<path fill="none" stroke="midnightblue" d="M791.876,-195.413C727.558,-187.094 625.731,-173.355 538,-159 533.607,-158.281 529.07,-157.507 524.509,-156.705"/>
<polygon fill="midnightblue" stroke="midnightblue" points="791.503,-198.894 801.869,-196.701 792.398,-191.952 791.503,-198.894"/>
</g>
<!-- Node32&#45;&gt;Node33 -->
<g id="edge6" class="edge"><title>Node32&#45;&gt;Node33</title>
<path fill="none" stroke="midnightblue" d="M792.106,-202.457C732.666,-199.449 642.733,-189.614 571,-159 551.46,-150.661 552.578,-138.251 533,-130 508.682,-119.752 354.434,-99.729 263.27,-88.5452"/>
<polygon fill="midnightblue" stroke="midnightblue" points="791.958,-205.954 802.107,-202.913 792.277,-198.961 791.958,-205.954"/>
</g>
<!-- Node32&#45;&gt;Node34 -->
<g id="edge17" class="edge"><title>Node32&#45;&gt;Node34</title>
<path fill="none" stroke="midnightblue" d="M845.703,-186.517C835.034,-170.143 816.995,-145.611 796,-130 765.698,-107.469 675.308,-75.3735 639,-65 565.642,-44.0408 479.461,-30.9441 418.517,-23.5271"/>
<polygon fill="midnightblue" stroke="midnightblue" points="842.809,-188.49 851.1,-195.087 848.733,-184.76 842.809,-188.49"/>
</g>
<!-- Node32&#45;&gt;Node35 -->
<g id="edge8" class="edge"><title>Node32&#45;&gt;Node35</title>
<path fill="none" stroke="midnightblue" d="M819.655,-192.405C782.483,-181.058 725.626,-163.702 692.5,-153.589"/>
<polygon fill="midnightblue" stroke="midnightblue" points="818.995,-195.863 829.581,-195.435 821.039,-189.168 818.995,-195.863"/>
</g>
<!-- Node37 -->
<g id="node10" class="node"><title>Node37</title>
<g id="a_node10"><a xlink:href="mhrwtasks_8h.html" target="_top" xlink:title="Multiprocessing tasks interface (see Multiprocessing Task Interfaces) for parallel Metropolis&#45;Hasting...">
<polygon fill="none" stroke="black" points="734.2,-70.5 734.2,-88.5 865.8,-88.5 865.8,-70.5 734.2,-70.5"/>
<text text-anchor="middle" x="800" y="-76.5" font-family="Helvetica,sans-Serif" font-size="10.00">tomographer/mhrwtasks.h</text>
</a>
</g>
</g>
<!-- Node32&#45;&gt;Node37 -->
<g id="edge18" class="edge"><title>Node32&#45;&gt;Node37</title>
<path fill="none" stroke="midnightblue" d="M851.492,-185.38C847.384,-170.19 840.644,-148.137 832,-130 824.604,-114.481 813.134,-98.0127 806.122,-88.5247"/>
<polygon fill="midnightblue" stroke="midnightblue" points="848.108,-186.274 854.007,-195.075 854.884,-184.516 848.108,-186.274"/>
</g>
<!-- Node38 -->
<g id="node11" class="node"><title>Node38</title>
<g id="a_node11"><a xlink:href="pymhrwtasks_8h_source.html" target="_top" xlink:title="py/cxx/tomographerpy\l/pymhrwtasks.h">
<polygon fill="none" stroke="black" points="1063.81,-0.5 1063.81,-28.5 1178.19,-28.5 1178.19,-0.5 1063.81,-0.5"/>
<text text-anchor="start" x="1071.81" y="-16.5" font-family="Helvetica,sans-Serif" font-size="10.00">py/cxx/tomographerpy</text>
<text text-anchor="middle" x="1121" y="-6.5" font-family="Helvetica,sans-Serif" font-size="10.00">/pymhrwtasks.h</text>
</a>
</g>
</g>
<!-- Node32&#45;&gt;Node38 -->
<g id="edge23" class="edge"><title>Node32&#45;&gt;Node38</title>
<path fill="none" stroke="midnightblue" d="M897.605,-192.616C947.31,-177.739 1030.34,-146.702 1083,-94 1101.62,-75.3631 1112.48,-45.7957 1117.53,-28.7662"/>
<polygon fill="midnightblue" stroke="midnightblue" points="896.45,-189.306 887.827,-195.462 898.407,-196.027 896.45,-189.306"/>
</g>
<!-- Node39 -->
<g id="node12" class="node"><title>Node39</title>
<g id="a_node12"><a xlink:href="pymultiproc_8h_source.html" target="_top" xlink:title="py/cxx/tomographerpy\l/pymultiproc.h">
<polygon fill="none" stroke="black" points="874.811,-0.5 874.811,-28.5 989.189,-28.5 989.189,-0.5 874.811,-0.5"/>
<text text-anchor="start" x="882.811" y="-16.5" font-family="Helvetica,sans-Serif" font-size="10.00">py/cxx/tomographerpy</text>
<text text-anchor="middle" x="932" y="-6.5" font-family="Helvetica,sans-Serif" font-size="10.00">/pymultiproc.h</text>
</a>
</g>
</g>
<!-- Node32&#45;&gt;Node39 -->
<g id="edge24" class="edge"><title>Node32&#45;&gt;Node39</title>
<path fill="none" stroke="midnightblue" d="M863.12,-185.887C878.234,-148.501 913.233,-61.9238 926.641,-28.7572"/>
<polygon fill="midnightblue" stroke="midnightblue" points="859.769,-184.839 859.266,-195.422 866.258,-187.463 859.769,-184.839"/>
</g>
<!-- Node32&#45;&gt;Node40 -->
<g id="edge19" class="edge"><title>Node32&#45;&gt;Node40</title>
<path fill="none" stroke="midnightblue" d="M839.062,-188.767C816.602,-169.524 777.841,-137.407 761,-130 709.916,-107.533 649.558,-95.2339 597.329,-88.5133"/>
<polygon fill="midnightblue" stroke="midnightblue" points="836.934,-191.553 846.793,-195.434 841.506,-186.252 836.934,-191.553"/>
</g>
<!-- Node41 -->
<g id="node14" class="node"><title>Node41</title>
<g id="a_node14"><a xlink:href="pymhrw_8h_source.html" target="_top" xlink:title="py/cxx/tomographerpy\l/pymhrw.h">
<polygon fill="none" stroke="black" points="959.811,-65.5 959.811,-93.5 1074.19,-93.5 1074.19,-65.5 959.811,-65.5"/>
<text text-anchor="start" x="967.811" y="-81.5" font-family="Helvetica,sans-Serif" font-size="10.00">py/cxx/tomographerpy</text>
<text text-anchor="middle" x="1017" y="-71.5" font-family="Helvetica,sans-Serif" font-size="10.00">/pymhrw.h</text>
</a>
</g>
</g>
<!-- Node32&#45;&gt;Node41 -->
<g id="edge20" class="edge"><title>Node32&#45;&gt;Node41</title>
<path fill="none" stroke="midnightblue" d="M874.534,-189.341C905.982,-165.315 969.344,-116.908 999.837,-93.6122"/>
<polygon fill="midnightblue" stroke="midnightblue" points="872.385,-186.578 866.564,-195.43 876.635,-192.14 872.385,-186.578"/>
</g>
<!-- Node33&#45;&gt;Node34 -->
<g id="edge7" class="edge"><title>Node33&#45;&gt;Node34</title>
<path fill="none" stroke="midnightblue" d="M224.027,-66.2382C252.828,-53.6376 296.844,-34.3808 321.54,-23.5761"/>
<polygon fill="midnightblue" stroke="midnightblue" points="222.289,-63.178 214.531,-70.3928 225.095,-69.5911 222.289,-63.178"/>
</g>
<!-- Node35&#45;&gt;Node33 -->
<g id="edge10" class="edge"><title>Node35&#45;&gt;Node33</title>
<path fill="none" stroke="midnightblue" d="M596.606,-134.121C586.344,-132.737 575.897,-131.33 566,-130 456.807,-115.325 329.474,-98.312 256.245,-88.5373"/>
<polygon fill="midnightblue" stroke="midnightblue" points="596.4,-137.625 606.778,-135.493 597.336,-130.688 596.4,-137.625"/>
</g>
<!-- Node35&#45;&gt;Node34 -->
<g id="edge11" class="edge"><title>Node35&#45;&gt;Node34</title>
<path fill="none" stroke="midnightblue" d="M658.793,-126.283C650.204,-108.013 634.059,-79.7852 611,-65 580.2,-45.2514 489.416,-31.4275 421.35,-23.5005"/>
<polygon fill="midnightblue" stroke="midnightblue" points="655.621,-127.766 662.877,-135.486 662.02,-124.926 655.621,-127.766"/>
</g>
<!-- Node35&#45;&gt;Node36 -->
<g id="edge9" class="edge"><title>Node35&#45;&gt;Node36</title>
<path fill="none" stroke="midnightblue" d="M666.282,-125.477C666.689,-99.3829 667.435,-51.689 667.795,-28.6489"/>
<polygon fill="midnightblue" stroke="midnightblue" points="662.782,-125.44 666.125,-135.493 669.781,-125.549 662.782,-125.44"/>
</g>
<!-- Node35&#45;&gt;Node37 -->
<g id="edge12" class="edge"><title>Node35&#45;&gt;Node37</title>
<path fill="none" stroke="midnightblue" d="M692.433,-131.073C719.239,-118.47 759.941,-99.3337 782.822,-88.5761"/>
<polygon fill="midnightblue" stroke="midnightblue" points="690.804,-127.971 683.244,-135.393 693.783,-134.305 690.804,-127.971"/>
</g>
<!-- Node35&#45;&gt;Node40 -->
<g id="edge16" class="edge"><title>Node35&#45;&gt;Node40</title>
<path fill="none" stroke="midnightblue" d="M631.427,-132.215C592.943,-119.653 531.709,-99.6639 497.741,-88.5761"/>
<polygon fill="midnightblue" stroke="midnightblue" points="630.571,-135.617 641.164,-135.393 632.743,-128.962 630.571,-135.617"/>
</g>
<!-- Node37&#45;&gt;Node36 -->
<g id="edge13" class="edge"><title>Node37&#45;&gt;Node36</title>
<path fill="none" stroke="midnightblue" d="M773.977,-66.08C751.317,-55.2649 718.569,-39.6351 695.487,-28.6188"/>
<polygon fill="midnightblue" stroke="midnightblue" points="772.481,-69.2442 783.014,-70.3928 775.496,-62.9268 772.481,-69.2442"/>
</g>
<!-- Node37&#45;&gt;Node38 -->
<g id="edge14" class="edge"><title>Node37&#45;&gt;Node38</title>
<path fill="none" stroke="midnightblue" d="M851.012,-68.4883C908.971,-57.1132 1003.33,-38.5943 1063.76,-26.7348"/>
<polygon fill="midnightblue" stroke="midnightblue" points="850.12,-65.0966 840.981,-70.457 851.468,-71.9655 850.12,-65.0966"/>
</g>
<!-- Node37&#45;&gt;Node39 -->
<g id="edge15" class="edge"><title>Node37&#45;&gt;Node39</title>
<path fill="none" stroke="midnightblue" d="M826.023,-66.08C848.683,-55.2649 881.431,-39.6351 904.513,-28.6188"/>
<polygon fill="midnightblue" stroke="midnightblue" points="824.504,-62.9268 816.986,-70.3928 827.519,-69.2442 824.504,-62.9268"/>
</g>
<!-- Node41&#45;&gt;Node38 -->
<g id="edge21" class="edge"><title>Node41&#45;&gt;Node38</title>
<path fill="none" stroke="midnightblue" d="M1047.4,-60.0843C1064.1,-49.9655 1084.43,-37.6559 1099.48,-28.5369"/>
<polygon fill="midnightblue" stroke="midnightblue" points="1045.29,-57.2715 1038.55,-65.4464 1048.92,-63.2587 1045.29,-57.2715"/>
</g>
<!-- Node41&#45;&gt;Node39 -->
<g id="edge22" class="edge"><title>Node41&#45;&gt;Node39</title>
<path fill="none" stroke="midnightblue" d="M991.009,-59.2361C977.582,-49.2841 961.551,-37.4026 949.589,-28.5369"/>
<polygon fill="midnightblue" stroke="midnightblue" points="989.27,-62.3037 999.388,-65.4464 993.438,-56.6799 989.27,-62.3037"/>
</g>
<!-- Node42&#45;&gt;Node32 -->
<g id="edge26" class="edge"><title>Node42&#45;&gt;Node32</title>
<path fill="none" stroke="midnightblue" d="M989.86,-247.467C954.723,-236.451 909.557,-222.291 881.704,-213.559"/>
<polygon fill="midnightblue" stroke="midnightblue" points="988.893,-250.832 999.482,-250.484 990.987,-244.152 988.893,-250.832"/>
</g>
<!-- Node42&#45;&gt;Node35 -->
<g id="edge27" class="edge"><title>Node42&#45;&gt;Node35</title>
<path fill="none" stroke="midnightblue" d="M971.372,-255.253C920.822,-247.918 851.351,-235.024 793,-214 748.22,-197.866 699.954,-167.948 678.042,-153.594"/>
<polygon fill="midnightblue" stroke="midnightblue" points="971.148,-258.756 981.54,-256.691 972.128,-251.825 971.148,-258.756"/>
</g>
<!-- Node42&#45;&gt;Node38 -->
<g id="edge28" class="edge"><title>Node42&#45;&gt;Node38</title>
<path fill="none" stroke="midnightblue" d="M1051.47,-240.825C1065.9,-208.76 1091.82,-148.043 1107,-94 1113.33,-71.4766 1117.4,-44.4803 1119.44,-28.7326"/>
<polygon fill="midnightblue" stroke="midnightblue" points="1048.17,-239.632 1047.22,-250.184 1054.54,-242.527 1048.17,-239.632"/>
</g>
<!-- Node44&#45;&gt;Node43 -->
<g id="edge37" class="edge"><title>Node44&#45;&gt;Node43</title>
<path fill="none" stroke="midnightblue" d="M1709.62,-252.113C1676.35,-240.762 1626.1,-223.615 1596.71,-213.589"/>
<polygon fill="midnightblue" stroke="midnightblue" points="1708.77,-255.519 1719.36,-255.435 1711.03,-248.894 1708.77,-255.519"/>
</g>
<!-- Node45 -->
<g id="node18" class="node"><title>Node45</title>
<g id="a_node18"><a xlink:href="multiprocmpi_8h.html" target="_top" xlink:title="MPI Implementation for multi&#45;processing ">
<polygon fill="none" stroke="black" points="1663.31,-195.5 1663.31,-213.5 1822.69,-213.5 1822.69,-195.5 1663.31,-195.5"/>
<text text-anchor="middle" x="1743" y="-201.5" font-family="Helvetica,sans-Serif" font-size="10.00">tomographer/mpi/multiprocmpi.h</text>
</a>
</g>
</g>
<!-- Node44&#45;&gt;Node45 -->
<g id="edge36" class="edge"><title>Node44&#45;&gt;Node45</title>
<path fill="none" stroke="midnightblue" d="M1743,-245.214C1743,-234.714 1743,-222.033 1743,-213.872"/>
<polygon fill="midnightblue" stroke="midnightblue" points="1739.5,-245.435 1743,-255.435 1746.5,-245.435 1739.5,-245.435"/>
</g>
<!-- Node44&#45;&gt;Node46 -->
<g id="edge38" class="edge"><title>Node44&#45;&gt;Node46</title>
<path fill="none" stroke="midnightblue" d="M1777.3,-252.259C1811.94,-240.91 1864.59,-223.658 1895.31,-213.589"/>
<polygon fill="midnightblue" stroke="midnightblue" points="1776.02,-248.995 1767.61,-255.435 1778.2,-255.647 1776.02,-248.995"/>
</g>
<!-- Node48&#45;&gt;Node38 -->
<g id="edge52" class="edge"><title>Node48&#45;&gt;Node38</title>
<path fill="none" stroke="midnightblue" d="M1293.16,-128.68C1348.6,-116.128 1418.83,-99.3451 1423,-94 1430.93,-83.8362 1431.34,-74.8233 1423,-65 1392.26,-28.8092 1257.21,-19.0249 1178.5,-16.4154"/>
<polygon fill="midnightblue" stroke="midnightblue" points="1292.34,-125.277 1283.36,-130.892 1293.88,-132.106 1292.34,-125.277"/>
</g>
<!-- Node48&#45;&gt;Node39 -->
<g id="edge53" class="edge"><title>Node48&#45;&gt;Node39</title>
<path fill="none" stroke="midnightblue" d="M1158.29,-139.647C1086.73,-134.169 980.234,-121.547 951,-94 933.039,-77.0752 930.794,-46.3185 931.145,-28.7484"/>
<polygon fill="midnightblue" stroke="midnightblue" points="1158.35,-143.161 1168.58,-140.405 1158.86,-136.18 1158.35,-143.161"/>
</g>
<!-- Node48&#45;&gt;Node41 -->
<g id="edge51" class="edge"><title>Node48&#45;&gt;Node41</title>
<path fill="none" stroke="midnightblue" d="M1172.69,-127.43C1137.83,-116.923 1092.88,-103.374 1060.25,-93.5369"/>
<polygon fill="midnightblue" stroke="midnightblue" points="1172.11,-130.911 1182.7,-130.446 1174.13,-124.209 1172.11,-130.911"/>
</g>
<!-- Node49 -->
<g id="node22" class="node"><title>Node49</title>
<g id="a_node22"><a xlink:href="exc_8h_source.html" target="_top" xlink:title="py/cxx/tomographerpy\l/exc.h">
<polygon fill="none" stroke="black" points="1167.81,-65.5 1167.81,-93.5 1282.19,-93.5 1282.19,-65.5 1167.81,-65.5"/>
<text text-anchor="start" x="1175.81" y="-81.5" font-family="Helvetica,sans-Serif" font-size="10.00">py/cxx/tomographerpy</text>
<text text-anchor="middle" x="1225" y="-71.5" font-family="Helvetica,sans-Serif" font-size="10.00">/exc.h</text>
</a>
</g>
</g>
<!-- Node48&#45;&gt;Node49 -->
<g id="edge42" class="edge"><title>Node48&#45;&gt;Node49</title>
<path fill="none" stroke="midnightblue" d="M1225.63,-120.164C1225.49,-111.169 1225.33,-101.221 1225.21,-93.5369"/>
<polygon fill="midnightblue" stroke="midnightblue" points="1222.13,-120.503 1225.79,-130.446 1229.13,-120.392 1222.13,-120.503"/>
</g>
<!-- Node50 -->
<g id="node23" class="node"><title>Node50</title>
<g id="a_node23"><a xlink:href="pydensedm_8h_source.html" target="_top" xlink:title="py/cxx/tomographerpy\l/pydensedm.h">
<polygon fill="none" stroke="black" points="1299.81,-65.5 1299.81,-93.5 1414.19,-93.5 1414.19,-65.5 1299.81,-65.5"/>
<text text-anchor="start" x="1307.81" y="-81.5" font-family="Helvetica,sans-Serif" font-size="10.00">py/cxx/tomographerpy</text>
<text text-anchor="middle" x="1357" y="-71.5" font-family="Helvetica,sans-Serif" font-size="10.00">/pydensedm.h</text>
</a>
</g>
</g>
<!-- Node48&#45;&gt;Node50 -->
<g id="edge44" class="edge"><title>Node48&#45;&gt;Node50</title>
<path fill="none" stroke="midnightblue" d="M1262.26,-126.061C1283.67,-115.767 1310.32,-102.951 1329.89,-93.5369"/>
<polygon fill="midnightblue" stroke="midnightblue" points="1260.64,-122.958 1253.14,-130.446 1263.67,-129.266 1260.64,-122.958"/>
</g>
<!-- Node48&#45;&gt;Node51 -->
<g id="edge45" class="edge"><title>Node48&#45;&gt;Node51</title>
<path fill="none" stroke="midnightblue" d="M1293.2,-130.603C1294.48,-130.397 1295.74,-130.195 1297,-130 1427.95,-109.611 1470.25,-143.949 1593,-94 1612.68,-85.9927 1614.06,-77.8181 1631,-65 1647.33,-52.6425 1666.01,-38.6453 1679.32,-28.6961"/>
<polygon fill="midnightblue" stroke="midnightblue" points="1292.58,-127.158 1283.29,-132.266 1293.74,-134.062 1292.58,-127.158"/>
</g>
<!-- Node52 -->
<g id="node25" class="node"><title>Node52</title>
<g id="a_node25"><a xlink:href="pyhistogram_8h_source.html" target="_top" xlink:title="py/cxx/tomographerpy\l/pyhistogram.h">
<polygon fill="none" stroke="black" points="1469.81,-65.5 1469.81,-93.5 1584.19,-93.5 1584.19,-65.5 1469.81,-65.5"/>
<text text-anchor="start" x="1477.81" y="-81.5" font-family="Helvetica,sans-Serif" font-size="10.00">py/cxx/tomographerpy</text>
<text text-anchor="middle" x="1527" y="-71.5" font-family="Helvetica,sans-Serif" font-size="10.00">/pyhistogram.h</text>
</a>
</g>
</g>
<!-- Node48&#45;&gt;Node52 -->
<g id="edge46" class="edge"><title>Node48&#45;&gt;Node52</title>
<path fill="none" stroke="midnightblue" d="M1293.31,-129.412C1346.31,-118.318 1419.38,-103.024 1469.63,-92.507"/>
<polygon fill="midnightblue" stroke="midnightblue" points="1292.4,-126.027 1283.32,-131.502 1293.83,-132.879 1292.4,-126.027"/>
</g>
<!-- Node48&#45;&gt;Node53 -->
<g id="edge48" class="edge"><title>Node48&#45;&gt;Node53</title>
<path fill="none" stroke="midnightblue" d="M1293.43,-129.225C1435.24,-108.567 1474.79,-115.267 1617,-94 1624.32,-92.9051 1632.04,-91.5979 1639.69,-90.2342"/>
<polygon fill="midnightblue" stroke="midnightblue" points="1292.87,-125.77 1283.49,-130.693 1293.89,-132.694 1292.87,-125.77"/>
</g>
<!-- Node49&#45;&gt;Node39 -->
<g id="edge43" class="edge"><title>Node49&#45;&gt;Node39</title>
<path fill="none" stroke="midnightblue" d="M1157.54,-63.9952C1106.67,-53.0569 1037.65,-38.216 989.406,-27.8433"/>
<polygon fill="midnightblue" stroke="midnightblue" points="1156.95,-67.448 1167.46,-66.1284 1158.42,-60.6044 1156.95,-67.448"/>
</g>
<!-- Node52&#45;&gt;Node38 -->
<g id="edge47" class="edge"><title>Node52&#45;&gt;Node38</title>
<path fill="none" stroke="midnightblue" d="M1459.79,-65.6471C1458.52,-65.4275 1457.25,-65.2115 1456,-65 1358.75,-48.5775 1245.11,-32.423 1178.31,-23.2368"/>
<polygon fill="midnightblue" stroke="midnightblue" points="1459.23,-69.102 1469.69,-67.3923 1460.45,-62.2084 1459.23,-69.102"/>
</g>
<!-- Node53&#45;&gt;Node48 -->
<g id="edge49" class="edge"><title>Node53&#45;&gt;Node48</title>
<path fill="none" stroke="midnightblue" d="M1629.57,-94.7749C1487.76,-115.433 1448.21,-108.733 1306,-130 1298.68,-131.095 1290.96,-132.402 1283.31,-133.766"/>
<polygon fill="midnightblue" stroke="midnightblue" points="1630.13,-98.2304 1639.51,-93.3069 1629.11,-91.3056 1630.13,-98.2304"/>
</g>
<!-- Node53&#45;&gt;Node51 -->
<g id="edge50" class="edge"><title>Node53&#45;&gt;Node51</title>
<path fill="none" stroke="midnightblue" d="M1697,-55.1641C1697,-46.1693 1697,-36.2205 1697,-28.5369"/>
<polygon fill="midnightblue" stroke="midnightblue" points="1693.5,-55.4463 1697,-65.4464 1700.5,-55.4464 1693.5,-55.4463"/>
</g>
</g>
</svg>
