<?xml version="1.0" encoding="UTF-8" standalone="no"?>
<!DOCTYPE svg PUBLIC "-//W3C//DTD SVG 1.1//EN"
 "http://www.w3.org/Graphics/SVG/1.1/DTD/svg11.dtd">
<!-- Generated by graphviz version 2.38.0 (20140413.2041)
 -->
<!-- Title: tomographer/mhrwstatscollectors.h Pages: 1 -->
<svg width="786pt" height="147pt"
 viewBox="0.00 0.00 786.22 147.00" xmlns="http://www.w3.org/2000/svg" xmlns:xlink="http://www.w3.org/1999/xlink">
<g id="graph0" class="graph" transform="scale(1 1) rotate(0) translate(4 143)">
<title>tomographer/mhrwstatscollectors.h</title>
<!-- Node51 -->
<g id="node1" class="node"><title>Node51</title>
<polygon fill="#bfbfbf" stroke="black" points="255.956,-120.5 255.956,-138.5 427.571,-138.5 427.571,-120.5 255.956,-120.5"/>
<text text-anchor="middle" x="341.763" y="-126.5" font-family="Helvetica,sans-Serif" font-size="10.00">tomographer/mhrwstatscollectors.h</text>
</g>
<!-- Node52 -->
<g id="node2" class="node"><title>Node52</title>
<g id="a_node2"><a xlink:href="mhrw__valuehist__tools_8h.html" target="_top" xlink:title="Tools for collecting a histogram of values during a Metropolis&#45;Hastings random walk using the tools o...">
<polygon fill="none" stroke="black" points="242.288,-0.5 242.288,-28.5 387.238,-28.5 387.238,-0.5 242.288,-0.5"/>
<text text-anchor="start" x="250.288" y="-16.5" font-family="Helvetica,sans-Serif" font-size="10.00">tomographer/mhrw_valuehist</text>
<text text-anchor="middle" x="314.763" y="-6.5" font-family="Helvetica,sans-Serif" font-size="10.00">_tools.h</text>
</a>
</g>
</g>
<!-- Node51&#45;&gt;Node52 -->
<g id="edge1" class="edge"><title>Node51&#45;&gt;Node52</title>
<path fill="none" stroke="midnightblue" d="M337.491,-110.618C332.038,-87.7994 322.735,-48.8642 317.896,-28.611"/>
<polygon fill="midnightblue" stroke="midnightblue" points="334.093,-111.461 339.821,-120.373 340.902,-109.834 334.093,-111.461"/>
</g>
<!-- Node53 -->
<g id="node3" class="node"><title>Node53</title>
<g id="a_node3"><a xlink:href="mhrwacceptratiowalkerparamscontroller_8h.html" target="_top" xlink:title="Tools for automatically and dynamically adjusting the step size of the random walk. ">
<polygon fill="none" stroke="black" points="53.7637,-65.5 53.7637,-83.5 313.763,-83.5 313.763,-65.5 53.7637,-65.5"/>
<text text-anchor="middle" x="183.763" y="-71.5" font-family="Helvetica,sans-Serif" font-size="10.00">tomographer/mhrwacceptratiowalkerparamscontroller.h</text>
</a>
</g>
</g>
<!-- Node51&#45;&gt;Node53 -->
<g id="edge2" class="edge"><title>Node51&#45;&gt;Node53</title>
<path fill="none" stroke="midnightblue" d="M308.094,-117.206C277.941,-107.091 234.471,-92.5095 207.726,-83.5383"/>
<polygon fill="midnightblue" stroke="midnightblue" points="307.172,-120.588 317.766,-120.45 309.399,-113.952 307.172,-120.588"/>
</g>
<!-- Node54 -->
<g id="node4" class="node"><title>Node54</title>
<g id="a_node4"><a xlink:href="mhrwstepsizecontroller_8h.html" target="_top" xlink:title="Tools for automatically and dynamically adjusting the step size of the random walk. ">
<polygon fill="none" stroke="black" points="0,-5.5 0,-23.5 185.526,-23.5 185.526,-5.5 0,-5.5"/>
<text text-anchor="middle" x="92.7632" y="-11.5" font-family="Helvetica,sans-Serif" font-size="10.00">tomographer/mhrwstepsizecontroller.h</text>
</a>
</g>
</g>
<!-- Node51&#45;&gt;Node54 -->
<g id="edge4" class="edge"><title>Node51&#45;&gt;Node54</title>
<path fill="none" stroke="midnightblue" d="M245.415,-127.218C168.818,-123.913 70.4075,-113.773 44.7632,-84 27.2308,-63.645 60.1053,-36.9364 79.689,-23.6872"/>
<polygon fill="midnightblue" stroke="midnightblue" points="245.461,-130.722 255.592,-127.623 245.739,-123.728 245.461,-130.722"/>
</g>
<!-- Node55 -->
<g id="node5" class="node"><title>Node55</title>
<g id="a_node5"><a xlink:href="mhrwtasks_8h.html" target="_top" xlink:title="Multiprocessing tasks interface (see Multiprocessing Task Interfaces) for parallel Metropolis&#45;Hasting...">
<polygon fill="none" stroke="black" points="369.963,-65.5 369.963,-83.5 501.563,-83.5 501.563,-65.5 369.963,-65.5"/>
<text text-anchor="middle" x="435.763" y="-71.5" font-family="Helvetica,sans-Serif" font-size="10.00">tomographer/mhrwtasks.h</text>
</a>
</g>
</g>
<!-- Node51&#45;&gt;Node55 -->
<g id="edge5" class="edge"><title>Node51&#45;&gt;Node55</title>
<path fill="none" stroke="midnightblue" d="M365.125,-115.328C382.759,-105.386 406.393,-92.0598 421.352,-83.6253"/>
<polygon fill="midnightblue" stroke="midnightblue" points="363.032,-112.49 356.04,-120.45 366.47,-118.588 363.032,-112.49"/>
</g>
<!-- Node58 -->
<g id="node8" class="node"><title>Node58</title>
<g id="a_node8"><a xlink:href="mhrwvalueerrorbinsconvergedcontroller_8h.html" target="_top" xlink:title="Tools for automatically stopping the random walk when enough samples have been taken to make all binn...">
<polygon fill="none" stroke="black" points="519.311,-65.5 519.311,-83.5 778.216,-83.5 778.216,-65.5 519.311,-65.5"/>
<text text-anchor="middle" x="648.763" y="-71.5" font-family="Helvetica,sans-Serif" font-size="10.00">tomographer/mhrwvalueerrorbinsconvergedcontroller.h</text>
</a>
</g>
</g>
<!-- Node51&#45;&gt;Node58 -->
<g id="edge9" class="edge"><title>Node51&#45;&gt;Node58</title>
<path fill="none" stroke="midnightblue" d="M398.596,-118.689C457.244,-108.564 547.638,-92.9581 602.202,-83.5383"/>
<polygon fill="midnightblue" stroke="midnightblue" points="397.649,-115.3 388.39,-120.45 398.84,-122.198 397.649,-115.3"/>
</g>
<!-- Node53&#45;&gt;Node54 -->
<g id="edge3" class="edge"><title>Node53&#45;&gt;Node54</title>
<path fill="none" stroke="midnightblue" d="M162.604,-60.0141C144.964,-48.7709 120.406,-33.1187 105.602,-23.6831"/>
<polygon fill="midnightblue" stroke="midnightblue" points="160.796,-63.012 171.11,-65.4353 164.558,-57.1091 160.796,-63.012"/>
</g>
<!-- Node55&#45;&gt;Node52 -->
<g id="edge6" class="edge"><title>Node55&#45;&gt;Node52</title>
<path fill="none" stroke="midnightblue" d="M409.822,-61.0653C389.886,-51.5095 362.419,-38.3433 342.135,-28.6203"/>
<polygon fill="midnightblue" stroke="midnightblue" points="408.408,-64.269 418.939,-65.4353 411.434,-57.9567 408.408,-64.269"/>
</g>
<!-- Node56 -->
<g id="node6" class="node"><title>Node56</title>
<g id="a_node6"><a xlink:href="pymhrwtasks_8h_source.html" target="_top" xlink:title="py/cxx/tomographerpy\l/pymhrwtasks.h">
<polygon fill="none" stroke="black" points="405.574,-0.5 405.574,-28.5 519.953,-28.5 519.953,-0.5 405.574,-0.5"/>
<text text-anchor="start" x="413.574" y="-16.5" font-family="Helvetica,sans-Serif" font-size="10.00">py/cxx/tomographerpy</text>
<text text-anchor="middle" x="462.763" y="-6.5" font-family="Helvetica,sans-Serif" font-size="10.00">/pymhrwtasks.h</text>
</a>
</g>
</g>
<!-- Node55&#45;&gt;Node56 -->
<g id="edge7" class="edge"><title>Node55&#45;&gt;Node56</title>
<path fill="none" stroke="midnightblue" d="M443.825,-56.1828C447.901,-47.4268 452.771,-36.9648 456.552,-28.8428"/>
<polygon fill="midnightblue" stroke="midnightblue" points="440.565,-54.8924 439.517,-65.4353 446.911,-57.8466 440.565,-54.8924"/>
</g>
<!-- Node57 -->
<g id="node7" class="node"><title>Node57</title>
<g id="a_node7"><a xlink:href="pymultiproc_8h_source.html" target="_top" xlink:title="py/cxx/tomographerpy\l/pymultiproc.h">
<polygon fill="none" stroke="black" points="537.574,-0.5 537.574,-28.5 651.953,-28.5 651.953,-0.5 537.574,-0.5"/>
<text text-anchor="start" x="545.574" y="-16.5" font-family="Helvetica,sans-Serif" font-size="10.00">py/cxx/tomographerpy</text>
<text text-anchor="middle" x="594.763" y="-6.5" font-family="Helvetica,sans-Serif" font-size="10.00">/pymultiproc.h</text>
</a>
</g>
</g>
<!-- Node55&#45;&gt;Node57 -->
<g id="edge8" class="edge"><title>Node55&#45;&gt;Node57</title>
<path fill="none" stroke="midnightblue" d="M467.415,-61.9542C493.87,-52.3039 531.581,-38.5475 559.099,-28.5096"/>
<polygon fill="midnightblue" stroke="midnightblue" points="466.066,-58.7203 457.871,-65.4353 468.465,-65.2964 466.066,-58.7203"/>
</g>
</g>
</svg>
