<?xml version="1.0" encoding="UTF-8" standalone="no"?>
<!DOCTYPE svg PUBLIC "-//W3C//DTD SVG 1.1//EN"
 "http://www.w3.org/Graphics/SVG/1.1/DTD/svg11.dtd">
<!-- Generated by graphviz version 2.38.0 (20140413.2041)
 -->
<!-- Title: tomographer/tools/needownoperatornew.h Pages: 1 -->
<!--zoomable 352 -->
<svg id="main" version="1.1" xmlns="http://www.w3.org/2000/svg" xmlns:xlink="http://www.w3.org/1999/xlink" xml:space="preserve" onload="init(evt)">
<style type="text/css"><![CDATA[
.edge:hover path { stroke: red; }
.edge:hover polygon { stroke: red; fill: red; }
]]></style>
<script type="text/javascript"><![CDATA[
var edges = document.getElementsByTagName('g');
if (edges && edges.length) {
  for (var i=0;i<edges.length;i++) {
    if (edges[i].id.substr(0,4)=='edge') {
      edges[i].setAttribute('class','edge');
    }
  }
}
]]></script>
        <defs>
                <circle id="rim" cx="0" cy="0" r="7"/>
                <circle id="rim2" cx="0" cy="0" r="3.5"/>
                <g id="zoomPlus">
                        <use xlink:href="#rim" fill="#404040">
                                <set attributeName="fill" to="#808080" begin="zoomplus.mouseover" end="zoomplus.mouseout"/>
                        </use>
                        <path d="M-4,0h8M0,-4v8" fill="none" stroke="white" stroke-width="1.5" pointer-events="none"/>
                </g>
                <g id="zoomMin">
                        <use xlink:href="#rim" fill="#404040">
                                <set attributeName="fill" to="#808080" begin="zoomminus.mouseover" end="zoomminus.mouseout"/>
                        </use>
                        <path d="M-4,0h8" fill="none" stroke="white" stroke-width="1.5" pointer-events="none"/>
                </g>
                <g id="dirArrow">
                        <path fill="none" stroke="white" stroke-width="1.5" d="M0,-3.0v7 M-2.5,-0.5L0,-3.0L2.5,-0.5"/>
                </g>
               <g id="resetDef">
                       <use xlink:href="#rim2" fill="#404040">
                               <set attributeName="fill" to="#808080" begin="reset.mouseover" end="reset.mouseout"/>
                       </use>
               </g>
        </defs>

<script type="text/javascript">
var viewWidth = 1951;
var viewHeight = 352;
var sectionId = 'dynsection-1';
</script>
<script xlink:href="svgpan.js"/>
<svg id="graph" class="graph">
<g id="viewport">
<title>tomographer/tools/needownoperatornew.h</title>
<!-- Node18 -->
<g id="node1" class="node"><title>Node18</title>
<polygon fill="#bfbfbf" stroke="black" points="864.631,-325.5 864.631,-343.5 1067.98,-343.5 1067.98,-325.5 864.631,-325.5"/>
<text text-anchor="middle" x="966.308" y="-331.5" font-family="Helvetica,sans-Serif" font-size="10.00">tomographer/tools/needownoperatornew.h</text>
</g>
<!-- Node19 -->
<g id="node2" class="node"><title>Node19</title>
<g id="a_node2"><a xlink:href="indepmeasllh_8h.html" target="_top" xlink:title="C++ types and functions for calculating the log&#45;likelihood for independent measurements. ">
<polygon fill="none" stroke="black" points="0,-260.5 0,-288.5 116.615,-288.5 116.615,-260.5 0,-260.5"/>
<text text-anchor="start" x="8" y="-276.5" font-family="Helvetica,sans-Serif" font-size="10.00">tomographer/densedm</text>
<text text-anchor="middle" x="58.3076" y="-266.5" font-family="Helvetica,sans-Serif" font-size="10.00">/indepmeasllh.h</text>
</a>
</g>
</g>
<!-- Node18&#45;&gt;Node19 -->
<g id="edge1" class="edge"><title>Node18&#45;&gt;Node19</title>
<path fill="none" stroke="midnightblue" d="M853.962,-332.644C692.421,-330.259 385.438,-321.417 126.308,-289 123.202,-288.612 120.027,-288.163 116.827,-287.67"/>
<polygon fill="midnightblue" stroke="midnightblue" points="854.342,-336.15 864.39,-332.792 854.441,-329.15 854.342,-336.15"/>
</g>
<!-- Node21 -->
<g id="node4" class="node"><title>Node21</title>
<g id="a_node4"><a xlink:href="tspacefigofmerit_8h.html" target="_top" xlink:title="Implement some standard figures of merit for when integrating in T space densely represented density ...">
<polygon fill="none" stroke="black" points="135,-260.5 135,-288.5 251.615,-288.5 251.615,-260.5 135,-260.5"/>
<text text-anchor="start" x="143" y="-276.5" font-family="Helvetica,sans-Serif" font-size="10.00">tomographer/densedm</text>
<text text-anchor="middle" x="193.308" y="-266.5" font-family="Helvetica,sans-Serif" font-size="10.00">/tspacefigofmerit.h</text>
</a>
</g>
</g>
<!-- Node18&#45;&gt;Node21 -->
<g id="edge3" class="edge"><title>Node18&#45;&gt;Node21</title>
<path fill="none" stroke="midnightblue" d="M854.148,-330.593C715.406,-326.03 472.191,-314.864 265.308,-289 260.891,-288.448 256.336,-287.794 251.763,-287.077"/>
<polygon fill="midnightblue" stroke="midnightblue" points="854.258,-334.099 864.365,-330.924 854.484,-327.102 854.258,-334.099"/>
</g>
<!-- Node22 -->
<g id="node5" class="node"><title>Node22</title>
<g id="a_node5"><a xlink:href="tspacellhwalker_8h.html" target="_top" xlink:title="Definitions for a Metropolis&#45;Hastings random walk on a quantum state space with dense matrix type...">
<polygon fill="none" stroke="black" points="507,-130.5 507,-158.5 623.615,-158.5 623.615,-130.5 507,-130.5"/>
<text text-anchor="start" x="515" y="-146.5" font-family="Helvetica,sans-Serif" font-size="10.00">tomographer/densedm</text>
<text text-anchor="middle" x="565.308" y="-136.5" font-family="Helvetica,sans-Serif" font-size="10.00">/tspacellhwalker.h</text>
</a>
</g>
</g>
<!-- Node18&#45;&gt;Node22 -->
<g id="edge4" class="edge"><title>Node18&#45;&gt;Node22</title>
<path fill="none" stroke="midnightblue" d="M901.142,-323.631C864.159,-316.675 817.561,-305.591 778.308,-289 728.793,-268.072 720.932,-253.973 676.308,-224 642.999,-201.627 604.979,-174.352 583.194,-158.55"/>
<polygon fill="midnightblue" stroke="midnightblue" points="900.839,-327.134 911.305,-325.485 902.095,-320.247 900.839,-327.134"/>
</g>
<!-- Node23 -->
<g id="node6" class="node"><title>Node23</title>
<g id="a_node6"><a xlink:href="histogram_8h.html" target="_top" xlink:title="Definitions for Histogram Types. ">
<polygon fill="none" stroke="black" points="685.446,-200.5 685.446,-218.5 813.169,-218.5 813.169,-200.5 685.446,-200.5"/>
<text text-anchor="middle" x="749.308" y="-206.5" font-family="Helvetica,sans-Serif" font-size="10.00">tomographer/histogram.h</text>
</a>
</g>
</g>
<!-- Node18&#45;&gt;Node23 -->
<g id="edge5" class="edge"><title>Node18&#45;&gt;Node23</title>
<path fill="none" stroke="midnightblue" d="M897.543,-323.335C869.112,-316.792 836.888,-306.162 811.308,-289 783.33,-270.229 762.151,-234.827 753.533,-218.78"/>
<polygon fill="midnightblue" stroke="midnightblue" points="896.909,-326.779 907.424,-325.482 898.396,-319.938 896.909,-326.779"/>
</g>
<!-- Node25 -->
<g id="node8" class="node"><title>Node25</title>
<g id="a_node8"><a xlink:href="mhrw__valuehist__tools_8h.html" target="_top" xlink:title="Tools for collecting a histogram of values during a Metropolis&#45;Hastings random walk using the tools o...">
<polygon fill="none" stroke="black" points="732.833,-0.5 732.833,-28.5 877.783,-28.5 877.783,-0.5 732.833,-0.5"/>
<text text-anchor="start" x="740.833" y="-16.5" font-family="Helvetica,sans-Serif" font-size="10.00">tomographer/mhrw_valuehist</text>
<text text-anchor="middle" x="805.308" y="-6.5" font-family="Helvetica,sans-Serif" font-size="10.00">_tools.h</text>
</a>
</g>
</g>
<!-- Node18&#45;&gt;Node25 -->
<g id="edge34" class="edge"><title>Node18&#45;&gt;Node25</title>
<path fill="none" stroke="midnightblue" d="M864.187,-324.534C681.42,-307.102 317.308,-265.474 317.308,-210.5 317.308,-210.5 317.308,-210.5 317.308,-143.5 317.308,-107.604 309.303,-88.6489 336.308,-65 343.685,-58.5397 602.801,-34.0159 732.651,-22.0906"/>
<polygon fill="midnightblue" stroke="midnightblue" points="864.069,-328.039 874.355,-325.497 864.729,-321.07 864.069,-328.039"/>
</g>
<!-- Node26 -->
<g id="node9" class="node"><title>Node26</title>
<g id="a_node9"><a xlink:href="mhrwacceptratiowalkerparamscontroller_8h.html" target="_top" xlink:title="Tools for automatically and dynamically adjusting the step size of the random walk. ">
<polygon fill="none" stroke="black" points="345.308,-70.5 345.308,-88.5 605.307,-88.5 605.307,-70.5 345.308,-70.5"/>
<text text-anchor="middle" x="475.308" y="-76.5" font-family="Helvetica,sans-Serif" font-size="10.00">tomographer/mhrwacceptratiowalkerparamscontroller.h</text>
</a>
</g>
</g>
<!-- Node18&#45;&gt;Node26 -->
<g id="edge35" class="edge"><title>Node18&#45;&gt;Node26</title>
<path fill="none" stroke="midnightblue" d="M876.288,-324.091C829.682,-317.464 772.411,-306.547 723.308,-289 610.908,-248.834 557.155,-256.503 488.308,-159 473.009,-137.334 473.346,-104.011 474.47,-88.7032"/>
<polygon fill="midnightblue" stroke="midnightblue" points="875.983,-327.582 886.367,-325.481 876.939,-320.647 875.983,-327.582"/>
</g>
<!-- Node27 -->
<g id="node10" class="node"><title>Node27</title>
<g id="a_node10"><a xlink:href="mhrwstepsizecontroller_8h.html" target="_top" xlink:title="Tools for automatically and dynamically adjusting the step size of the random walk. ">
<polygon fill="none" stroke="black" points="455.544,-5.5 455.544,-23.5 641.071,-23.5 641.071,-5.5 455.544,-5.5"/>
<text text-anchor="middle" x="548.308" y="-11.5" font-family="Helvetica,sans-Serif" font-size="10.00">tomographer/mhrwstepsizecontroller.h</text>
</a>
</g>
</g>
<!-- Node18&#45;&gt;Node27 -->
<g id="edge36" class="edge"><title>Node18&#45;&gt;Node27</title>
<path fill="none" stroke="midnightblue" d="M853.999,-329.834C718.834,-324.46 500.309,-312.432 422.308,-289 352.871,-268.141 279.308,-283.002 279.308,-210.5 279.308,-210.5 279.308,-210.5 279.308,-143.5 279.308,-105.3 284.603,-89.0175 314.308,-65 338.888,-45.1255 416.997,-31.3827 476.271,-23.5078"/>
<polygon fill="midnightblue" stroke="midnightblue" points="854.26,-333.347 864.39,-330.241 854.534,-326.352 854.26,-333.347"/>
</g>
<!-- Node28 -->
<g id="node11" class="node"><title>Node28</title>
<g id="a_node11"><a xlink:href="mhrwtasks_8h.html" target="_top" xlink:title="Multiprocessing tasks interface (see Multiprocessing Task Interfaces) for parallel Metropolis&#45;Hasting...">
<polygon fill="none" stroke="black" points="1221.51,-70.5 1221.51,-88.5 1353.11,-88.5 1353.11,-70.5 1221.51,-70.5"/>
<text text-anchor="middle" x="1287.31" y="-76.5" font-family="Helvetica,sans-Serif" font-size="10.00">tomographer/mhrwtasks.h</text>
</a>
</g>
</g>
<!-- Node18&#45;&gt;Node28 -->
<g id="edge37" class="edge"><title>Node18&#45;&gt;Node28</title>
<path fill="none" stroke="midnightblue" d="M984.771,-318.947C1044.41,-271.943 1230.69,-125.127 1276.87,-88.7281"/>
<polygon fill="midnightblue" stroke="midnightblue" points="982.312,-316.43 976.624,-325.369 986.645,-321.928 982.312,-316.43"/>
</g>
<!-- Node31 -->
<g id="node14" class="node"><title>Node31</title>
<g id="a_node14"><a xlink:href="mhrwvalueerrorbinsconvergedcontroller_8h.html" target="_top" xlink:title="Tools for automatically stopping the random walk when enough samples have been taken to make all binn...">
<polygon fill="none" stroke="black" points="944.855,-70.5 944.855,-88.5 1203.76,-88.5 1203.76,-70.5 944.855,-70.5"/>
<text text-anchor="middle" x="1074.31" y="-76.5" font-family="Helvetica,sans-Serif" font-size="10.00">tomographer/mhrwvalueerrorbinsconvergedcontroller.h</text>
</a>
</g>
</g>
<!-- Node18&#45;&gt;Node31 -->
<g id="edge38" class="edge"><title>Node18&#45;&gt;Node31</title>
<path fill="none" stroke="midnightblue" d="M977.1,-316.55C990.205,-295.465 1012.4,-258.078 1027.31,-224 1049.06,-174.283 1066.36,-111.144 1072.19,-88.7951"/>
<polygon fill="midnightblue" stroke="midnightblue" points="973.982,-314.935 971.623,-325.264 979.908,-318.66 973.982,-314.935"/>
</g>
<!-- Node33 -->
<g id="node16" class="node"><title>Node33</title>
<g id="a_node16"><a xlink:href="mhrw_8h.html" target="_top" xlink:title="Routines for performing a Metropolis&#45;Hastings random walk. ">
<polygon fill="none" stroke="black" points="910.451,-200.5 910.451,-218.5 1018.16,-218.5 1018.16,-200.5 910.451,-200.5"/>
<text text-anchor="middle" x="964.308" y="-206.5" font-family="Helvetica,sans-Serif" font-size="10.00">tomographer/mhrw.h</text>
</a>
</g>
</g>
<!-- Node18&#45;&gt;Node33 -->
<g id="edge18" class="edge"><title>Node18&#45;&gt;Node33</title>
<path fill="none" stroke="midnightblue" d="M966.013,-315.384C965.573,-288.32 964.761,-238.413 964.442,-218.761"/>
<polygon fill="midnightblue" stroke="midnightblue" points="962.514,-315.488 966.176,-325.43 969.513,-315.374 962.514,-315.488"/>
</g>
<!-- Node35 -->
<g id="node18" class="node"><title>Node35</title>
<g id="a_node18"><a xlink:href="mhrw__bin__err_8h.html" target="_top" xlink:title="Binning Analysis in a Metropolis&#45;Hastings random walk. ">
<polygon fill="none" stroke="black" points="819.894,-260.5 819.894,-288.5 938.721,-288.5 938.721,-260.5 819.894,-260.5"/>
<text text-anchor="start" x="827.894" y="-276.5" font-family="Helvetica,sans-Serif" font-size="10.00">tomographer/mhrw_bin</text>
<text text-anchor="middle" x="879.308" y="-266.5" font-family="Helvetica,sans-Serif" font-size="10.00">_err.h</text>
</a>
</g>
</g>
<!-- Node18&#45;&gt;Node35 -->
<g id="edge30" class="edge"><title>Node18&#45;&gt;Node35</title>
<path fill="none" stroke="midnightblue" d="M945.668,-319.74C931.537,-310.32 912.91,-297.901 898.988,-288.62"/>
<polygon fill="midnightblue" stroke="midnightblue" points="943.949,-322.8 954.211,-325.435 947.832,-316.976 943.949,-322.8"/>
</g>
<!-- Node36 -->
<g id="node19" class="node"><title>Node36</title>
<g id="a_node19"><a xlink:href="multiprocmpi_8h.html" target="_top" xlink:title="MPI Implementation for multi&#45;processing ">
<polygon fill="none" stroke="black" points="1315.61,-135.5 1315.61,-153.5 1475,-153.5 1475,-135.5 1315.61,-135.5"/>
<text text-anchor="middle" x="1395.31" y="-141.5" font-family="Helvetica,sans-Serif" font-size="10.00">tomographer/mpi/multiprocmpi.h</text>
</a>
</g>
</g>
<!-- Node18&#45;&gt;Node36 -->
<g id="edge39" class="edge"><title>Node18&#45;&gt;Node36</title>
<path fill="none" stroke="midnightblue" d="M1078.37,-331.124C1173.93,-327.171 1302.45,-316.693 1345.31,-289 1392.51,-258.504 1395.78,-179.414 1395.54,-153.705"/>
<polygon fill="midnightblue" stroke="midnightblue" points="1078.2,-327.628 1068.35,-331.52 1078.48,-334.623 1078.2,-327.628"/>
</g>
<!-- Node37 -->
<g id="node20" class="node"><title>Node37</title>
<g id="a_node20"><a xlink:href="multiproc_8h.html" target="_top" xlink:title="Some common definitions for multiprocessing interfaces. ">
<polygon fill="none" stroke="black" points="1212.12,-265.5 1212.12,-283.5 1336.5,-283.5 1336.5,-265.5 1212.12,-265.5"/>
<text text-anchor="middle" x="1274.31" y="-271.5" font-family="Helvetica,sans-Serif" font-size="10.00">tomographer/multiproc.h</text>
</a>
</g>
</g>
<!-- Node18&#45;&gt;Node37 -->
<g id="edge40" class="edge"><title>Node18&#45;&gt;Node37</title>
<path fill="none" stroke="midnightblue" d="M1018.85,-323.605C1078.95,-312.288 1176.18,-293.978 1231.75,-283.515"/>
<polygon fill="midnightblue" stroke="midnightblue" points="1017.99,-320.206 1008.81,-325.496 1019.29,-327.085 1017.99,-320.206"/>
</g>
<!-- Node38 -->
<g id="node21" class="node"><title>Node38</title>
<g id="a_node21"><a xlink:href="multiprocomp_8h.html" target="_top" xlink:title="Multiprocessing with OpenMP parallel multithreading. ">
<polygon fill="none" stroke="black" points="1493.39,-135.5 1493.39,-153.5 1637.23,-153.5 1637.23,-135.5 1493.39,-135.5"/>
<text text-anchor="middle" x="1565.31" y="-141.5" font-family="Helvetica,sans-Serif" font-size="10.00">tomographer/multiprocomp.h</text>
</a>
</g>
</g>
<!-- Node18&#45;&gt;Node38 -->
<g id="edge51" class="edge"><title>Node18&#45;&gt;Node38</title>
<path fill="none" stroke="midnightblue" d="M1078.5,-332.765C1186.3,-330.02 1353.17,-320.403 1494.31,-289 1575.7,-270.89 1622.64,-292.419 1670.31,-224 1693.53,-190.665 1633.32,-165.652 1594.74,-153.562"/>
<polygon fill="midnightblue" stroke="midnightblue" points="1078.17,-329.272 1068.26,-333.009 1078.34,-336.27 1078.17,-329.272"/>
</g>
<!-- Node39 -->
<g id="node22" class="node"><title>Node39</title>
<g id="a_node22"><a xlink:href="multiprocthreadcommon_8h.html" target="_top" xlink:title="Basic multiprocessing templates for thread&#45;based Tomographer::MultiProc implementations. ">
<polygon fill="none" stroke="black" points="1469.77,-200.5 1469.77,-218.5 1660.85,-218.5 1660.85,-200.5 1469.77,-200.5"/>
<text text-anchor="middle" x="1565.31" y="-206.5" font-family="Helvetica,sans-Serif" font-size="10.00">tomographer/multiprocthreadcommon.h</text>
</a>
</g>
</g>
<!-- Node18&#45;&gt;Node39 -->
<g id="edge52" class="edge"><title>Node18&#45;&gt;Node39</title>
<path fill="none" stroke="midnightblue" d="M1078.21,-330.087C1200.69,-325.161 1388.55,-313.769 1455.31,-289 1498.64,-272.922 1540.42,-235.103 1557.38,-218.525"/>
<polygon fill="midnightblue" stroke="midnightblue" points="1077.89,-326.597 1068.03,-330.487 1078.16,-333.591 1077.89,-326.597"/>
</g>
<!-- Node40 -->
<g id="node23" class="node"><title>Node40</title>
<g id="a_node23"><a xlink:href="multiprocthreads_8h.html" target="_top" xlink:title="Multiprocessing with native C++11 threads. ">
<polygon fill="none" stroke="black" points="1655.44,-135.5 1655.44,-153.5 1813.18,-153.5 1813.18,-135.5 1655.44,-135.5"/>
<text text-anchor="middle" x="1734.31" y="-141.5" font-family="Helvetica,sans-Serif" font-size="10.00">tomographer/multiprocthreads.h</text>
</a>
</g>
</g>
<!-- Node18&#45;&gt;Node40 -->
<g id="edge53" class="edge"><title>Node18&#45;&gt;Node40</title>
<path fill="none" stroke="midnightblue" d="M1078.34,-330.842C1228.51,-326.334 1486.68,-315.005 1577.31,-289 1636.74,-271.947 1658.31,-269.38 1700.31,-224 1719.68,-203.071 1729.12,-169.379 1732.63,-153.841"/>
<polygon fill="midnightblue" stroke="midnightblue" points="1078.05,-327.349 1068.16,-331.142 1078.26,-334.346 1078.05,-327.349"/>
</g>
<!-- Node42 -->
<g id="node25" class="node"><title>Node42</title>
<g id="a_node25"><a xlink:href="valuecalculator_8h.html" target="_top" xlink:title="Some elementary definitions which relate to the ValueCalculator Interface. ">
<polygon fill="none" stroke="black" points="1793.32,-265.5 1793.32,-283.5 1943.29,-283.5 1943.29,-265.5 1793.32,-265.5"/>
<text text-anchor="middle" x="1868.31" y="-271.5" font-family="Helvetica,sans-Serif" font-size="10.00">tomographer/valuecalculator.h</text>
</a>
</g>
</g>
<!-- Node18&#45;&gt;Node42 -->
<g id="edge54" class="edge"><title>Node18&#45;&gt;Node42</title>
<path fill="none" stroke="midnightblue" d="M1078.41,-330.761C1235.46,-326.152 1529.75,-314.697 1779.31,-289 1792.83,-287.607 1807.44,-285.602 1820.84,-283.561"/>
<polygon fill="midnightblue" stroke="midnightblue" points="1078.16,-327.267 1068.27,-331.055 1078.37,-334.264 1078.16,-327.267"/>
</g>
<!-- Node20 -->
<g id="node3" class="node"><title>Node20</title>
<g id="a_node3"><a xlink:href="pydensedm_8h_source.html" target="_top" xlink:title="py/cxx/tomographerpy\l/pydensedm.h">
<polygon fill="none" stroke="black" points="1.11816,-195.5 1.11816,-223.5 115.497,-223.5 115.497,-195.5 1.11816,-195.5"/>
<text text-anchor="start" x="9.11816" y="-211.5" font-family="Helvetica,sans-Serif" font-size="10.00">py/cxx/tomographerpy</text>
<text text-anchor="middle" x="58.3076" y="-201.5" font-family="Helvetica,sans-Serif" font-size="10.00">/pydensedm.h</text>
</a>
</g>
</g>
<!-- Node19&#45;&gt;Node20 -->
<g id="edge2" class="edge"><title>Node19&#45;&gt;Node20</title>
<path fill="none" stroke="midnightblue" d="M58.3076,-250.164C58.3076,-241.169 58.3076,-231.221 58.3076,-223.537"/>
<polygon fill="midnightblue" stroke="midnightblue" points="54.8077,-250.446 58.3076,-260.446 61.8077,-250.446 54.8077,-250.446"/>
</g>
<!-- Node24 -->
<g id="node7" class="node"><title>Node24</title>
<g id="a_node7"><a xlink:href="mhrwstatscollectors_8h.html" target="_top" xlink:title="Definitions for MHRWStatsCollector Interface&#39;s. ">
<polygon fill="none" stroke="black" points="679.5,-135.5 679.5,-153.5 851.115,-153.5 851.115,-135.5 679.5,-135.5"/>
<text text-anchor="middle" x="765.308" y="-141.5" font-family="Helvetica,sans-Serif" font-size="10.00">tomographer/mhrwstatscollectors.h</text>
</a>
</g>
</g>
<!-- Node23&#45;&gt;Node24 -->
<g id="edge6" class="edge"><title>Node23&#45;&gt;Node24</title>
<path fill="none" stroke="midnightblue" d="M753.935,-190.281C757.021,-178.128 760.927,-162.747 763.266,-153.539"/>
<polygon fill="midnightblue" stroke="midnightblue" points="750.469,-189.71 751.399,-200.264 757.253,-191.433 750.469,-189.71"/>
</g>
<!-- Node32 -->
<g id="node15" class="node"><title>Node32</title>
<g id="a_node15"><a xlink:href="pyhistogram_8h_source.html" target="_top" xlink:title="py/cxx/tomographerpy\l/pyhistogram.h">
<polygon fill="none" stroke="black" points="623.118,-65.5 623.118,-93.5 737.497,-93.5 737.497,-65.5 623.118,-65.5"/>
<text text-anchor="start" x="631.118" y="-81.5" font-family="Helvetica,sans-Serif" font-size="10.00">py/cxx/tomographerpy</text>
<text text-anchor="middle" x="680.308" y="-71.5" font-family="Helvetica,sans-Serif" font-size="10.00">/pyhistogram.h</text>
</a>
</g>
</g>
<!-- Node23&#45;&gt;Node32 -->
<g id="edge16" class="edge"><title>Node23&#45;&gt;Node32</title>
<path fill="none" stroke="midnightblue" d="M674.886,-204.034C609.136,-198.351 520.362,-185.828 498.308,-159 490.123,-149.043 490.481,-140.24 498.308,-130 506.088,-119.821 572.373,-103.588 622.724,-92.5075"/>
<polygon fill="midnightblue" stroke="midnightblue" points="674.972,-207.553 685.227,-204.889 675.549,-200.577 674.972,-207.553"/>
</g>
<!-- Node24&#45;&gt;Node25 -->
<g id="edge7" class="edge"><title>Node24&#45;&gt;Node25</title>
<path fill="none" stroke="midnightblue" d="M770.83,-125.827C778.96,-99.8111 793.966,-51.7923 801.199,-28.6489"/>
<polygon fill="midnightblue" stroke="midnightblue" points="767.452,-124.904 767.81,-135.493 774.133,-126.992 767.452,-124.904"/>
</g>
<!-- Node24&#45;&gt;Node26 -->
<g id="edge8" class="edge"><title>Node24&#45;&gt;Node26</title>
<path fill="none" stroke="midnightblue" d="M718.388,-133.307C661.031,-120.847 565.133,-100.014 512.569,-88.5946"/>
<polygon fill="midnightblue" stroke="midnightblue" points="717.769,-136.754 728.284,-135.457 719.255,-129.914 717.769,-136.754"/>
</g>
<!-- Node24&#45;&gt;Node27 -->
<g id="edge10" class="edge"><title>Node24&#45;&gt;Node27</title>
<path fill="none" stroke="midnightblue" d="M765.957,-125.093C765.545,-107.32 762.027,-80.838 746.308,-65 727.026,-45.5726 658.9,-31.5652 607.909,-23.5118"/>
<polygon fill="midnightblue" stroke="midnightblue" points="762.455,-125.287 765.876,-135.314 769.455,-125.342 762.455,-125.287"/>
</g>
<!-- Node24&#45;&gt;Node28 -->
<g id="edge11" class="edge"><title>Node24&#45;&gt;Node28</title>
<path fill="none" stroke="midnightblue" d="M861.208,-134.778C951.887,-126.082 1091.66,-111.518 1212.31,-94 1223.17,-92.4221 1234.88,-90.4483 1245.74,-88.5012"/>
<polygon fill="midnightblue" stroke="midnightblue" points="860.843,-131.297 851.221,-135.731 861.508,-138.265 860.843,-131.297"/>
</g>
<!-- Node24&#45;&gt;Node31 -->
<g id="edge15" class="edge"><title>Node24&#45;&gt;Node31</title>
<path fill="none" stroke="midnightblue" d="M814.923,-133.384C875.993,-120.933 978.481,-100.037 1034.61,-88.5946"/>
<polygon fill="midnightblue" stroke="midnightblue" points="813.856,-130.03 804.757,-135.457 815.254,-136.889 813.856,-130.03"/>
</g>
<!-- Node26&#45;&gt;Node27 -->
<g id="edge9" class="edge"><title>Node26&#45;&gt;Node27</title>
<path fill="none" stroke="midnightblue" d="M492.643,-63.5397C507.167,-51.005 527.343,-33.5925 538.993,-23.539"/>
<polygon fill="midnightblue" stroke="midnightblue" points="490.135,-61.0806 484.851,-70.2639 494.708,-66.38 490.135,-61.0806"/>
</g>
<!-- Node28&#45;&gt;Node25 -->
<g id="edge12" class="edge"><title>Node28&#45;&gt;Node25</title>
<path fill="none" stroke="midnightblue" d="M1235.62,-68.7238C1227.82,-67.3858 1219.86,-66.0972 1212.31,-65 1068.49,-44.1154 1031.28,-48.811 887.308,-29 884.306,-28.587 881.245,-28.1509 878.155,-27.6983"/>
<polygon fill="midnightblue" stroke="midnightblue" points="1235.28,-72.217 1245.74,-70.4991 1236.49,-65.3225 1235.28,-72.217"/>
</g>
<!-- Node29 -->
<g id="node12" class="node"><title>Node29</title>
<g id="a_node12"><a xlink:href="pymhrwtasks_8h_source.html" target="_top" xlink:title="py/cxx/tomographerpy\l/pymhrwtasks.h">
<polygon fill="none" stroke="black" points="896.118,-0.5 896.118,-28.5 1010.5,-28.5 1010.5,-0.5 896.118,-0.5"/>
<text text-anchor="start" x="904.118" y="-16.5" font-family="Helvetica,sans-Serif" font-size="10.00">py/cxx/tomographerpy</text>
<text text-anchor="middle" x="953.308" y="-6.5" font-family="Helvetica,sans-Serif" font-size="10.00">/pymhrwtasks.h</text>
</a>
</g>
</g>
<!-- Node28&#45;&gt;Node29 -->
<g id="edge13" class="edge"><title>Node28&#45;&gt;Node29</title>
<path fill="none" stroke="midnightblue" d="M1234.49,-68.5382C1173.54,-57.0415 1073.65,-38.1997 1010.79,-26.3427"/>
<polygon fill="midnightblue" stroke="midnightblue" points="1234.19,-72.0427 1244.67,-70.457 1235.49,-65.164 1234.19,-72.0427"/>
</g>
<!-- Node30 -->
<g id="node13" class="node"><title>Node30</title>
<g id="a_node13"><a xlink:href="pymultiproc_8h_source.html" target="_top" xlink:title="py/cxx/tomographerpy\l/pymultiproc.h">
<polygon fill="none" stroke="black" points="1371.12,-0.5 1371.12,-28.5 1485.5,-28.5 1485.5,-0.5 1371.12,-0.5"/>
<text text-anchor="start" x="1379.12" y="-16.5" font-family="Helvetica,sans-Serif" font-size="10.00">py/cxx/tomographerpy</text>
<text text-anchor="middle" x="1428.31" y="-6.5" font-family="Helvetica,sans-Serif" font-size="10.00">/pymultiproc.h</text>
</a>
</g>
</g>
<!-- Node28&#45;&gt;Node30 -->
<g id="edge14" class="edge"><title>Node28&#45;&gt;Node30</title>
<path fill="none" stroke="midnightblue" d="M1314.81,-66.2105C1339.11,-55.3522 1374.44,-39.567 1399.21,-28.5002"/>
<polygon fill="midnightblue" stroke="midnightblue" points="1313.15,-63.1178 1305.45,-70.3928 1316.01,-69.5089 1313.15,-63.1178"/>
</g>
<!-- Node32&#45;&gt;Node29 -->
<g id="edge17" class="edge"><title>Node32&#45;&gt;Node29</title>
<path fill="none" stroke="midnightblue" d="M746.742,-63.1691C792.694,-52.5646 853.182,-38.6058 896.814,-28.5369"/>
<polygon fill="midnightblue" stroke="midnightblue" points="745.83,-59.7873 736.873,-65.4464 747.404,-66.6081 745.83,-59.7873"/>
</g>
<!-- Node33&#45;&gt;Node22 -->
<g id="edge19" class="edge"><title>Node33&#45;&gt;Node22</title>
<path fill="none" stroke="midnightblue" d="M900.158,-199.468C834.148,-190.016 728.391,-174.428 637.308,-159 632.919,-158.257 628.384,-157.464 623.826,-156.65"/>
<polygon fill="midnightblue" stroke="midnightblue" points="900.008,-202.982 910.402,-200.932 900.998,-196.053 900.008,-202.982"/>
</g>
<!-- Node33&#45;&gt;Node24 -->
<g id="edge21" class="edge"><title>Node33&#45;&gt;Node24</title>
<path fill="none" stroke="midnightblue" d="M929.166,-197.375C889.518,-184.823 825.99,-164.711 790.818,-153.576"/>
<polygon fill="midnightblue" stroke="midnightblue" points="928.109,-200.711 938.699,-200.393 930.222,-194.038 928.109,-200.711"/>
</g>
<!-- Node33&#45;&gt;Node26 -->
<g id="edge20" class="edge"><title>Node33&#45;&gt;Node26</title>
<path fill="none" stroke="midnightblue" d="M900.111,-201.349C826.425,-192.504 710.557,-176.462 670.308,-159 650.818,-150.544 651.165,-139.785 632.308,-130 593.875,-110.058 545.946,-96.3831 513.22,-88.5418"/>
<polygon fill="midnightblue" stroke="midnightblue" points="899.873,-204.845 910.216,-202.549 900.698,-197.894 899.873,-204.845"/>
</g>
<!-- Node33&#45;&gt;Node27 -->
<g id="edge22" class="edge"><title>Node33&#45;&gt;Node27</title>
<path fill="none" stroke="midnightblue" d="M945.794,-194.248C925.097,-178.381 890.518,-152.065 860.308,-130 819.879,-100.471 814.058,-85.3322 768.308,-65 719.295,-43.218 659.735,-30.5732 614.953,-23.524"/>
<polygon fill="midnightblue" stroke="midnightblue" points="943.697,-197.051 953.76,-200.365 947.96,-191.499 943.697,-197.051"/>
</g>
<!-- Node33&#45;&gt;Node28 -->
<g id="edge23" class="edge"><title>Node33&#45;&gt;Node28</title>
<path fill="none" stroke="midnightblue" d="M983.425,-194.347C1007.79,-176.92 1051.74,-147.489 1093.31,-130 1141.37,-109.78 1199.71,-96.261 1239.79,-88.5321"/>
<polygon fill="midnightblue" stroke="midnightblue" points="981.134,-191.684 975.093,-200.388 985.243,-197.351 981.134,-191.684"/>
</g>
<!-- Node33&#45;&gt;Node29 -->
<g id="edge28" class="edge"><title>Node33&#45;&gt;Node29</title>
<path fill="none" stroke="midnightblue" d="M956.723,-190.853C946.05,-163.834 928.704,-110.55 936.308,-65 938.432,-52.2734 943.43,-38.4353 947.46,-28.6345"/>
<polygon fill="midnightblue" stroke="midnightblue" points="953.626,-192.524 960.672,-200.437 960.098,-189.857 953.626,-192.524"/>
</g>
<!-- Node33&#45;&gt;Node30 -->
<g id="edge29" class="edge"><title>Node33&#45;&gt;Node30</title>
<path fill="none" stroke="midnightblue" d="M1007.57,-198.037C1072.36,-182.489 1198.51,-152.684 1306.31,-130 1347.93,-121.24 1467.21,-126.785 1494.31,-94 1513.48,-70.8078 1478.58,-44.0257 1452.64,-28.5009"/>
<polygon fill="midnightblue" stroke="midnightblue" points="1006.62,-194.666 997.714,-200.406 1008.26,-201.472 1006.62,-194.666"/>
</g>
<!-- Node33&#45;&gt;Node31 -->
<g id="edge24" class="edge"><title>Node33&#45;&gt;Node31</title>
<path fill="none" stroke="midnightblue" d="M974.212,-191.141C984.065,-174.584 1000.15,-149.37 1017.31,-130 1031.73,-113.712 1051.42,-97.7341 1063.47,-88.5129"/>
<polygon fill="midnightblue" stroke="midnightblue" points="970.943,-189.8 968.929,-200.201 976.99,-193.325 970.943,-189.8"/>
</g>
<!-- Node34 -->
<g id="node17" class="node"><title>Node34</title>
<g id="a_node17"><a xlink:href="pymhrw_8h_source.html" target="_top" xlink:title="py/cxx/tomographerpy\l/pymhrw.h">
<polygon fill="none" stroke="black" points="1371.12,-65.5 1371.12,-93.5 1485.5,-93.5 1485.5,-65.5 1371.12,-65.5"/>
<text text-anchor="start" x="1379.12" y="-81.5" font-family="Helvetica,sans-Serif" font-size="10.00">py/cxx/tomographerpy</text>
<text text-anchor="middle" x="1428.31" y="-71.5" font-family="Helvetica,sans-Serif" font-size="10.00">/pymhrw.h</text>
</a>
</g>
</g>
<!-- Node33&#45;&gt;Node34 -->
<g id="edge25" class="edge"><title>Node33&#45;&gt;Node34</title>
<path fill="none" stroke="midnightblue" d="M994.655,-196.653C1018.31,-187.156 1051.81,-173.124 1080.31,-159 1103.67,-147.42 1106.69,-138.593 1131.31,-130 1229.41,-95.7588 1260.05,-112.416 1362.31,-94 1365.19,-93.4818 1368.13,-92.936 1371.1,-92.373"/>
<polygon fill="midnightblue" stroke="midnightblue" points="993.159,-193.482 985.163,-200.433 995.749,-199.985 993.159,-193.482"/>
</g>
<!-- Node34&#45;&gt;Node29 -->
<g id="edge26" class="edge"><title>Node34&#45;&gt;Node29</title>
<path fill="none" stroke="midnightblue" d="M1360.59,-64.7998C1230.08,-43.9205 1088.07,-28.6482 1010.75,-20.9641"/>
<polygon fill="midnightblue" stroke="midnightblue" points="1360.34,-68.304 1370.77,-66.4431 1361.45,-61.3935 1360.34,-68.304"/>
</g>
<!-- Node34&#45;&gt;Node30 -->
<g id="edge27" class="edge"><title>Node34&#45;&gt;Node30</title>
<path fill="none" stroke="midnightblue" d="M1428.31,-55.1641C1428.31,-46.1693 1428.31,-36.2205 1428.31,-28.5369"/>
<polygon fill="midnightblue" stroke="midnightblue" points="1424.81,-55.4463 1428.31,-65.4464 1431.81,-55.4464 1424.81,-55.4463"/>
</g>
<!-- Node35&#45;&gt;Node24 -->
<g id="edge32" class="edge"><title>Node35&#45;&gt;Node24</title>
<path fill="none" stroke="midnightblue" d="M865.597,-251.933C854.744,-235.571 838.727,-212.914 822.308,-195 807.607,-178.961 788.005,-162.909 776.038,-153.605"/>
<polygon fill="midnightblue" stroke="midnightblue" points="862.666,-253.847 871.065,-260.306 868.527,-250.02 862.666,-253.847"/>
</g>
<!-- Node35&#45;&gt;Node29 -->
<g id="edge33" class="edge"><title>Node35&#45;&gt;Node29</title>
<path fill="none" stroke="midnightblue" d="M883.724,-250.27C891.426,-211.355 908.679,-130.782 931.308,-65 935.652,-52.3722 941.945,-38.5233 946.689,-28.6932"/>
<polygon fill="midnightblue" stroke="midnightblue" points="880.287,-249.61 881.808,-260.095 887.157,-250.95 880.287,-249.61"/>
</g>
<!-- Node35&#45;&gt;Node33 -->
<g id="edge31" class="edge"><title>Node35&#45;&gt;Node33</title>
<path fill="none" stroke="midnightblue" d="M905.375,-254.179C921.408,-242.296 941.128,-227.68 953.204,-218.73"/>
<polygon fill="midnightblue" stroke="midnightblue" points="902.869,-251.68 896.92,-260.446 907.038,-257.304 902.869,-251.68"/>
</g>
<!-- Node37&#45;&gt;Node28 -->
<g id="edge42" class="edge"><title>Node37&#45;&gt;Node28</title>
<path fill="none" stroke="midnightblue" d="M1256.31,-258.683C1246.92,-249.746 1236.35,-237.496 1231.31,-224 1226.8,-211.927 1228.4,-207.557 1231.31,-195 1241.24,-152.098 1269.57,-106.707 1281.69,-88.6208"/>
<polygon fill="midnightblue" stroke="midnightblue" points="1254,-261.308 1263.78,-265.367 1258.66,-256.091 1254,-261.308"/>
</g>
<!-- Node37&#45;&gt;Node33 -->
<g id="edge41" class="edge"><title>Node37&#45;&gt;Node33</title>
<path fill="none" stroke="midnightblue" d="M1224.91,-263.461C1163.69,-251.02 1060.56,-230.061 1004.14,-218.595"/>
<polygon fill="midnightblue" stroke="midnightblue" points="1224.23,-266.895 1234.73,-265.457 1225.63,-260.035 1224.23,-266.895"/>
</g>
<!-- Node37&#45;&gt;Node36 -->
<g id="edge43" class="edge"><title>Node37&#45;&gt;Node36</title>
<path fill="none" stroke="midnightblue" d="M1258.53,-257.773C1243.78,-241.12 1226,-214.583 1240.31,-195 1257.8,-171.048 1287.02,-158.416 1315.4,-151.849"/>
<polygon fill="midnightblue" stroke="midnightblue" points="1255.98,-260.175 1265.37,-265.081 1261.09,-255.39 1255.98,-260.175"/>
</g>
<!-- Node37&#45;&gt;Node38 -->
<g id="edge44" class="edge"><title>Node37&#45;&gt;Node38</title>
<path fill="none" stroke="midnightblue" d="M1301.93,-261.35C1360.89,-235.414 1497.72,-175.23 1547.11,-153.504"/>
<polygon fill="midnightblue" stroke="midnightblue" points="1300.26,-258.263 1292.51,-265.493 1303.07,-264.67 1300.26,-258.263"/>
</g>
<!-- Node37&#45;&gt;Node39 -->
<g id="edge45" class="edge"><title>Node37&#45;&gt;Node39</title>
<path fill="none" stroke="midnightblue" d="M1321.39,-263.307C1378.94,-250.847 1475.17,-230.014 1527.92,-218.595"/>
<polygon fill="midnightblue" stroke="midnightblue" points="1320.49,-259.92 1311.46,-265.457 1321.97,-266.762 1320.49,-259.92"/>
</g>
<!-- Node37&#45;&gt;Node40 -->
<g id="edge49" class="edge"><title>Node37&#45;&gt;Node40</title>
<path fill="none" stroke="midnightblue" d="M1346.85,-270.847C1445.61,-266.157 1616.3,-253.897 1670.31,-224 1700.46,-207.308 1721.96,-170.161 1730.38,-153.664"/>
<polygon fill="midnightblue" stroke="midnightblue" points="1346.47,-267.361 1336.64,-271.317 1346.79,-274.353 1346.47,-267.361"/>
</g>
<!-- Node41 -->
<g id="node24" class="node"><title>Node41</title>
<g id="a_node24"><a xlink:href="signal__status__report_8h.html" target="_top" xlink:title="Basic common code for intercepting a signal to print status information of a task manager...">
<polygon fill="none" stroke="black" points="1249.55,-195.5 1249.55,-223.5 1375.06,-223.5 1375.06,-195.5 1249.55,-195.5"/>
<text text-anchor="start" x="1257.55" y="-211.5" font-family="Helvetica,sans-Serif" font-size="10.00">tomographer/tools/signal</text>
<text text-anchor="middle" x="1312.31" y="-201.5" font-family="Helvetica,sans-Serif" font-size="10.00">_status_report.h</text>
</a>
</g>
</g>
<!-- Node37&#45;&gt;Node41 -->
<g id="edge50" class="edge"><title>Node37&#45;&gt;Node41</title>
<path fill="none" stroke="midnightblue" d="M1284.61,-256.419C1290.8,-246.16 1298.56,-233.298 1304.29,-223.798"/>
<polygon fill="midnightblue" stroke="midnightblue" points="1281.44,-254.893 1279.28,-265.264 1287.44,-258.509 1281.44,-254.893"/>
</g>
<!-- Node39&#45;&gt;Node36 -->
<g id="edge46" class="edge"><title>Node39&#45;&gt;Node36</title>
<path fill="none" stroke="midnightblue" d="M1533.99,-196.892C1500.04,-184.313 1446.77,-164.57 1417.1,-153.576"/>
<polygon fill="midnightblue" stroke="midnightblue" points="1532.84,-200.2 1543.43,-200.393 1535.27,-193.636 1532.84,-200.2"/>
</g>
<!-- Node39&#45;&gt;Node38 -->
<g id="edge47" class="edge"><title>Node39&#45;&gt;Node38</title>
<path fill="none" stroke="midnightblue" d="M1565.31,-189.907C1565.31,-177.815 1565.31,-162.653 1565.31,-153.539"/>
<polygon fill="midnightblue" stroke="midnightblue" points="1561.81,-190.264 1565.31,-200.264 1568.81,-190.264 1561.81,-190.264"/>
</g>
<!-- Node39&#45;&gt;Node40 -->
<g id="edge48" class="edge"><title>Node39&#45;&gt;Node40</title>
<path fill="none" stroke="midnightblue" d="M1596.45,-196.892C1630.19,-184.313 1683.15,-164.57 1712.64,-153.576"/>
<polygon fill="midnightblue" stroke="midnightblue" points="1595.2,-193.62 1587.06,-200.393 1597.65,-200.179 1595.2,-193.62"/>
</g>
</g>
</svg>
        <g id="navigator" transform="translate(0 0)" fill="#404254">
                <rect fill="#f2f5e9" fill-opacity="0.5" stroke="#606060" stroke-width=".5" x="0" y="0" width="60" height="60"/>
                <use id="zoomplus" xlink:href="#zoomPlus" x="17" y="9" onmousedown="handleZoom(evt,'in')"/>
                <use id="zoomminus" xlink:href="#zoomMin" x="42" y="9" onmousedown="handleZoom(evt,'out')"/>
                <use id="reset" xlink:href="#resetDef" x="30" y="36" onmousedown="handleReset()"/>
                <g id="arrowUp" xlink:href="#dirArrow" transform="translate(30 24)" onmousedown="handlePan(0,-1)">
                  <use xlink:href="#rim" fill="#404040">
                        <set attributeName="fill" to="#808080" begin="arrowUp.mouseover" end="arrowUp.mouseout"/>
                  </use>
                  <path fill="none" stroke="white" stroke-width="1.5" d="M0,-3.0v7 M-2.5,-0.5L0,-3.0L2.5,-0.5"/>
                </g>
                <g id="arrowRight" xlink:href="#dirArrow" transform="rotate(90) translate(36 -43)" onmousedown="handlePan(1,0)">
                  <use xlink:href="#rim" fill="#404040">
                        <set attributeName="fill" to="#808080" begin="arrowRight.mouseover" end="arrowRight.mouseout"/>
                  </use>
                  <path fill="none" stroke="white" stroke-width="1.5" d="M0,-3.0v7 M-2.5,-0.5L0,-3.0L2.5,-0.5"/>
                </g>
                <g id="arrowDown" xlink:href="#dirArrow" transform="rotate(180) translate(-30 -48)" onmousedown="handlePan(0,1)">
                  <use xlink:href="#rim" fill="#404040">
                        <set attributeName="fill" to="#808080" begin="arrowDown.mouseover" end="arrowDown.mouseout"/>
                  </use>
                  <path fill="none" stroke="white" stroke-width="1.5" d="M0,-3.0v7 M-2.5,-0.5L0,-3.0L2.5,-0.5"/>
                </g>
                <g id="arrowLeft" xlink:href="#dirArrow" transform="rotate(270) translate(-36 17)" onmousedown="handlePan(-1,0)">
                  <use xlink:href="#rim" fill="#404040">
                        <set attributeName="fill" to="#808080" begin="arrowLeft.mouseover" end="arrowLeft.mouseout"/>
                  </use>
                  <path fill="none" stroke="white" stroke-width="1.5" d="M0,-3.0v7 M-2.5,-0.5L0,-3.0L2.5,-0.5"/>
                </g>
        </g>
        <svg viewBox="0 0 15 15" width="100%" height="30px" preserveAspectRatio="xMaxYMin meet">
         <g id="arrow_out" transform="scale(0.3 0.3)">
          <a xlink:href="needownoperatornew_8h__dep__incl_org.svg" target="_base">
           <rect id="button" ry="5" rx="5" y="6" x="6" height="38" width="38"
                fill="#f2f5e9" fill-opacity="0.5" stroke="#606060" stroke-width="1.0"/>
           <path id="arrow"
             d="M 11.500037,31.436501 C 11.940474,20.09759 22.043105,11.32322 32.158766,21.979434 L 37.068811,17.246167 C 37.068811,17.246167 37.088388,32 37.088388,32 L 22.160133,31.978069 C 22.160133,31.978069 26.997745,27.140456 26.997745,27.140456 C 18.528582,18.264221 13.291696,25.230495 11.500037,31.436501 z"
             style="fill:#404040;"/>
          </a>
         </g>
        </svg>
</svg>
