<?xml version="1.0" encoding="UTF-8" standalone="no"?>
<!DOCTYPE svg PUBLIC "-//W3C//DTD SVG 1.1//EN"
 "http://www.w3.org/Graphics/SVG/1.1/DTD/svg11.dtd">
<!-- Generated by graphviz version 2.38.0 (20140413.2041)
 -->
<!-- Title: tomographer/tools/signal_status_report.h Pages: 1 -->
<!--zoomable 332 -->
<svg id="main" version="1.1" xmlns="http://www.w3.org/2000/svg" xmlns:xlink="http://www.w3.org/1999/xlink" xml:space="preserve" onload="init(evt)">
<style type="text/css"><![CDATA[
.edge:hover path { stroke: red; }
.edge:hover polygon { stroke: red; fill: red; }
]]></style>
<script type="text/javascript"><![CDATA[
var edges = document.getElementsByTagName('g');
if (edges && edges.length) {
  for (var i=0;i<edges.length;i++) {
    if (edges[i].id.substr(0,4)=='edge') {
      edges[i].setAttribute('class','edge');
    }
  }
}
]]></script>
        <defs>
                <circle id="rim" cx="0" cy="0" r="7"/>
                <circle id="rim2" cx="0" cy="0" r="3.5"/>
                <g id="zoomPlus">
                        <use xlink:href="#rim" fill="#404040">
                                <set attributeName="fill" to="#808080" begin="zoomplus.mouseover" end="zoomplus.mouseout"/>
                        </use>
                        <path d="M-4,0h8M0,-4v8" fill="none" stroke="white" stroke-width="1.5" pointer-events="none"/>
                </g>
                <g id="zoomMin">
                        <use xlink:href="#rim" fill="#404040">
                                <set attributeName="fill" to="#808080" begin="zoomminus.mouseover" end="zoomminus.mouseout"/>
                        </use>
                        <path d="M-4,0h8" fill="none" stroke="white" stroke-width="1.5" pointer-events="none"/>
                </g>
                <g id="dirArrow">
                        <path fill="none" stroke="white" stroke-width="1.5" d="M0,-3.0v7 M-2.5,-0.5L0,-3.0L2.5,-0.5"/>
                </g>
               <g id="resetDef">
                       <use xlink:href="#rim2" fill="#404040">
                               <set attributeName="fill" to="#808080" begin="reset.mouseover" end="reset.mouseout"/>
                       </use>
               </g>
        </defs>

<script type="text/javascript">
var viewWidth = 1879;
var viewHeight = 332;
var sectionId = 'dynsection-0';
</script>
<script xlink:href="svgpan.js"/>
<svg id="graph" class="graph">
<g id="viewport">
<title>tomographer/tools/signal_status_report.h</title>
<!-- Node0 -->
<g id="node1" class="node"><title>Node0</title>
<polygon fill="#bfbfbf" stroke="black" points="312.48,-295.5 312.48,-323.5 437.987,-323.5 437.987,-295.5 312.48,-295.5"/>
<text text-anchor="start" x="320.48" y="-311.5" font-family="Helvetica,sans-Serif" font-size="10.00">tomographer/tools/signal</text>
<text text-anchor="middle" x="375.234" y="-301.5" font-family="Helvetica,sans-Serif" font-size="10.00">_status_report.h</text>
</g>
<!-- Node1 -->
<g id="node2" class="node"><title>Node1</title>
<g id="a_node2"><a xlink:href="signal__handler_8h.html" target="_top" xlink:title="Basic common code for intercepting a signal and basic interfacing to C++. ">
<polygon fill="none" stroke="black" points="74.4805,-175.5 74.4805,-203.5 199.987,-203.5 199.987,-175.5 74.4805,-175.5"/>
<text text-anchor="start" x="82.4805" y="-191.5" font-family="Helvetica,sans-Serif" font-size="10.00">tomographer/tools/signal</text>
<text text-anchor="middle" x="137.234" y="-181.5" font-family="Helvetica,sans-Serif" font-size="10.00">_handler.h</text>
</a>
</g>
</g>
<!-- Node0&#45;&gt;Node1 -->
<g id="edge1" class="edge"><title>Node0&#45;&gt;Node1</title>
<path fill="none" stroke="midnightblue" d="M348.854,-295.421C305.965,-274.157 221.068,-232.065 172.861,-208.164"/>
<polygon fill="midnightblue" stroke="midnightblue" points="174.246,-204.944 163.732,-203.637 171.136,-211.215 174.246,-204.944"/>
</g>
<!-- Node7 -->
<g id="node8" class="node"><title>Node7</title>
<g id="a_node8"><a xlink:href="multiproc_8h.html" target="_top" xlink:title="Some common definitions for multiprocessing interfaces. ">
<polygon fill="none" stroke="black" points="396.042,-240.5 396.042,-258.5 520.426,-258.5 520.426,-240.5 396.042,-240.5"/>
<text text-anchor="middle" x="458.234" y="-246.5" font-family="Helvetica,sans-Serif" font-size="10.00">tomographer/multiproc.h</text>
</a>
</g>
</g>
<!-- Node0&#45;&gt;Node7 -->
<g id="edge7" class="edge"><title>Node0&#45;&gt;Node7</title>
<path fill="none" stroke="midnightblue" d="M394.068,-295.339C407.125,-286.215 424.501,-274.072 437.878,-264.725"/>
<polygon fill="midnightblue" stroke="midnightblue" points="440.205,-267.368 446.397,-258.771 436.195,-261.631 440.205,-267.368"/>
</g>
<!-- Node2 -->
<g id="node3" class="node"><title>Node2</title>
<polygon fill="none" stroke="#bfbfbf" points="0,-120.5 0,-138.5 50.4678,-138.5 50.4678,-120.5 0,-120.5"/>
<text text-anchor="middle" x="25.2339" y="-126.5" font-family="Helvetica,sans-Serif" font-size="10.00">signal.h</text>
</g>
<!-- Node1&#45;&gt;Node2 -->
<g id="edge2" class="edge"><title>Node1&#45;&gt;Node2</title>
<path fill="none" stroke="midnightblue" d="M112.099,-175.484C93.5355,-165.87 68.3916,-152.85 49.9325,-143.29"/>
<polygon fill="midnightblue" stroke="midnightblue" points="51.4486,-140.134 40.9591,-138.643 48.2295,-146.35 51.4486,-140.134"/>
</g>
<!-- Node3 -->
<g id="node4" class="node"><title>Node3</title>
<polygon fill="none" stroke="#bfbfbf" points="68.5024,-120.5 68.5024,-138.5 113.965,-138.5 113.965,-120.5 68.5024,-120.5"/>
<text text-anchor="middle" x="91.2339" y="-126.5" font-family="Helvetica,sans-Serif" font-size="10.00">stdio.h</text>
</g>
<!-- Node1&#45;&gt;Node3 -->
<g id="edge3" class="edge"><title>Node1&#45;&gt;Node3</title>
<path fill="none" stroke="midnightblue" d="M126.796,-175.339C120.046,-166.829 111.215,-155.693 104.041,-146.649"/>
<polygon fill="midnightblue" stroke="midnightblue" points="106.75,-144.432 97.794,-138.771 101.266,-148.781 106.75,-144.432"/>
</g>
<!-- Node4 -->
<g id="node5" class="node"><title>Node4</title>
<polygon fill="none" stroke="#bfbfbf" points="292.172,-120.5 292.172,-138.5 334.295,-138.5 334.295,-120.5 292.172,-120.5"/>
<text text-anchor="middle" x="313.234" y="-126.5" font-family="Helvetica,sans-Serif" font-size="10.00">cstdio</text>
</g>
<!-- Node1&#45;&gt;Node4 -->
<g id="edge4" class="edge"><title>Node1&#45;&gt;Node4</title>
<path fill="none" stroke="midnightblue" d="M176.732,-175.484C208.644,-164.967 252.932,-150.372 282.304,-140.693"/>
<polygon fill="midnightblue" stroke="midnightblue" points="283.624,-143.943 292.026,-137.489 281.433,-137.295 283.624,-143.943"/>
</g>
<!-- Node5 -->
<g id="node6" class="node"><title>Node5</title>
<polygon fill="none" stroke="#bfbfbf" points="132.288,-120.5 132.288,-138.5 172.18,-138.5 172.18,-120.5 132.288,-120.5"/>
<text text-anchor="middle" x="152.234" y="-126.5" font-family="Helvetica,sans-Serif" font-size="10.00">ctime</text>
</g>
<!-- Node1&#45;&gt;Node5 -->
<g id="edge5" class="edge"><title>Node1&#45;&gt;Node5</title>
<path fill="none" stroke="midnightblue" d="M140.638,-175.339C142.68,-167.443 145.306,-157.287 147.543,-148.638"/>
<polygon fill="midnightblue" stroke="midnightblue" points="150.979,-149.329 150.095,-138.771 144.202,-147.577 150.979,-149.329"/>
</g>
<!-- Node6 -->
<g id="node7" class="node"><title>Node6</title>
<polygon fill="none" stroke="#bfbfbf" points="189.946,-120.5 189.946,-138.5 236.522,-138.5 236.522,-120.5 189.946,-120.5"/>
<text text-anchor="middle" x="213.234" y="-126.5" font-family="Helvetica,sans-Serif" font-size="10.00">chrono</text>
</g>
<!-- Node1&#45;&gt;Node6 -->
<g id="edge6" class="edge"><title>Node1&#45;&gt;Node6</title>
<path fill="none" stroke="midnightblue" d="M154.479,-175.339C166.321,-166.302 182.04,-154.306 194.24,-144.995"/>
<polygon fill="midnightblue" stroke="midnightblue" points="196.569,-147.621 202.395,-138.771 192.323,-142.056 196.569,-147.621"/>
</g>
<!-- Node7&#45;&gt;Node6 -->
<g id="edge10" class="edge"><title>Node7&#45;&gt;Node6</title>
<path fill="none" stroke="midnightblue" d="M395.957,-241.594C342.257,-234.538 269.891,-222.049 247.234,-204 229.914,-190.202 221.036,-165.562 216.769,-148.642"/>
<polygon fill="midnightblue" stroke="midnightblue" points="220.174,-147.833 214.588,-138.831 213.341,-149.352 220.174,-147.833"/>
</g>
<!-- Node8 -->
<g id="node9" class="node"><title>Node8</title>
<polygon fill="none" stroke="#bfbfbf" points="599.67,-180.5 599.67,-198.5 646.798,-198.5 646.798,-180.5 599.67,-180.5"/>
<text text-anchor="middle" x="623.234" y="-186.5" font-family="Helvetica,sans-Serif" font-size="10.00">csignal</text>
</g>
<!-- Node7&#45;&gt;Node8 -->
<g id="edge8" class="edge"><title>Node7&#45;&gt;Node8</title>
<path fill="none" stroke="midnightblue" d="M484.185,-240.464C511.143,-231.966 554.446,-217.891 591.234,-204 592.609,-203.481 594.012,-202.938 595.426,-202.381"/>
<polygon fill="midnightblue" stroke="midnightblue" points="596.778,-205.61 604.717,-198.594 594.136,-199.127 596.778,-205.61"/>
</g>
<!-- Node9 -->
<g id="node10" class="node"><title>Node9</title>
<polygon fill="none" stroke="#bfbfbf" points="725.007,-0.5 725.007,-18.5 765.46,-18.5 765.46,-0.5 725.007,-0.5"/>
<text text-anchor="middle" x="745.234" y="-6.5" font-family="Helvetica,sans-Serif" font-size="10.00">string</text>
</g>
<!-- Node7&#45;&gt;Node9 -->
<g id="edge9" class="edge"><title>Node7&#45;&gt;Node9</title>
<path fill="none" stroke="midnightblue" d="M449.08,-240.481C432.415,-226.137 395.658,-195.654 361.234,-175 328.494,-155.356 303.812,-171.161 283.234,-139 278.683,-131.887 277.996,-126.624 283.234,-120 337.632,-51.2022 620.821,-21.119 714.851,-12.9249"/>
<polygon fill="midnightblue" stroke="midnightblue" points="715.189,-16.4089 724.856,-12.0741 714.595,-9.43411 715.189,-16.4089"/>
</g>
<!-- Node10 -->
<g id="node11" class="node"><title>Node10</title>
<polygon fill="none" stroke="#bfbfbf" points="1732.83,-60.5 1732.83,-78.5 1791.64,-78.5 1791.64,-60.5 1732.83,-60.5"/>
<text text-anchor="middle" x="1762.23" y="-66.5" font-family="Helvetica,sans-Serif" font-size="10.00">exception</text>
</g>
<!-- Node7&#45;&gt;Node10 -->
<g id="edge11" class="edge"><title>Node7&#45;&gt;Node10</title>
<path fill="none" stroke="midnightblue" d="M520.637,-242.573C671.347,-227.961 1066.99,-187.83 1395.23,-139 1442.14,-132.022 1453.49,-127.985 1500.23,-120 1599.63,-103.022 1626.54,-108.981 1724.23,-84 1726.73,-83.3626 1729.29,-82.6299 1731.84,-81.8426"/>
<polygon fill="midnightblue" stroke="midnightblue" points="1733.15,-85.0956 1741.54,-78.6202 1730.95,-78.4529 1733.15,-85.0956"/>
</g>
<!-- Node11 -->
<g id="node12" class="node"><title>Node11</title>
<polygon fill="none" stroke="#bfbfbf" points="256.212,-175.5 256.212,-203.5 352.256,-203.5 352.256,-175.5 256.212,-175.5"/>
<text text-anchor="start" x="264.212" y="-191.5" font-family="Helvetica,sans-Serif" font-size="10.00">boost/serialization</text>
<text text-anchor="middle" x="304.234" y="-181.5" font-family="Helvetica,sans-Serif" font-size="10.00">/serialization.hpp</text>
</g>
<!-- Node7&#45;&gt;Node11 -->
<g id="edge12" class="edge"><title>Node7&#45;&gt;Node11</title>
<path fill="none" stroke="midnightblue" d="M436.821,-240.435C414.025,-231.85 377.312,-218.023 348.292,-207.093"/>
<polygon fill="midnightblue" stroke="midnightblue" points="349.368,-203.759 338.777,-203.51 346.901,-210.31 349.368,-203.759"/>
</g>
<!-- Node12 -->
<g id="node13" class="node"><title>Node12</title>
<g id="a_node13"><a xlink:href="fmt_8h.html" target="_top" xlink:title="Utilities for formatting strings. ">
<polygon fill="none" stroke="black" points="460.431,-180.5 460.431,-198.5 582.037,-198.5 582.037,-180.5 460.431,-180.5"/>
<text text-anchor="middle" x="521.234" y="-186.5" font-family="Helvetica,sans-Serif" font-size="10.00">tomographer/tools/fmt.h</text>
</a>
</g>
</g>
<!-- Node7&#45;&gt;Node12 -->
<g id="edge13" class="edge"><title>Node7&#45;&gt;Node12</title>
<path fill="none" stroke="midnightblue" d="M466.994,-240.435C476.663,-231.533 492.455,-216.995 504.511,-205.895"/>
<polygon fill="midnightblue" stroke="midnightblue" points="507.154,-208.22 512.14,-198.872 502.413,-203.07 507.154,-208.22"/>
</g>
<!-- Node33 -->
<g id="node34" class="node"><title>Node33</title>
<g id="a_node34"><a xlink:href="needownoperatornew_8h.html" target="_top" xlink:title="Managing the need for specific overrides to operator new() for some types (especially Eigen types) ...">
<polygon fill="none" stroke="black" points="1442.56,-180.5 1442.56,-198.5 1645.91,-198.5 1645.91,-180.5 1442.56,-180.5"/>
<text text-anchor="middle" x="1544.23" y="-186.5" font-family="Helvetica,sans-Serif" font-size="10.00">tomographer/tools/needownoperatornew.h</text>
</a>
</g>
</g>
<!-- Node7&#45;&gt;Node33 -->
<g id="edge43" class="edge"><title>Node7&#45;&gt;Node33</title>
<path fill="none" stroke="midnightblue" d="M520.46,-247.156C674.536,-243.498 1086.08,-231.724 1428.23,-204 1442.52,-202.843 1457.76,-201.295 1472.34,-199.661"/>
<polygon fill="midnightblue" stroke="midnightblue" points="1472.77,-203.135 1482.31,-198.52 1471.97,-196.18 1472.77,-203.135"/>
</g>
<!-- Node12&#45;&gt;Node4 -->
<g id="edge14" class="edge"><title>Node12&#45;&gt;Node4</title>
<path fill="none" stroke="midnightblue" d="M492.241,-180.484C458.859,-171.244 402.122,-155.509 344.214,-139.266"/>
<polygon fill="midnightblue" stroke="midnightblue" points="345.109,-135.882 334.536,-136.549 343.218,-142.621 345.109,-135.882"/>
</g>
<!-- Node12&#45;&gt;Node6 -->
<g id="edge16" class="edge"><title>Node12&#45;&gt;Node6</title>
<path fill="none" stroke="midnightblue" d="M478.731,-180.496C416.873,-168.848 303.286,-147.458 246.867,-136.834"/>
<polygon fill="midnightblue" stroke="midnightblue" points="247.176,-133.33 236.701,-134.919 245.88,-140.209 247.176,-133.33"/>
</g>
<!-- Node12&#45;&gt;Node9 -->
<g id="edge17" class="edge"><title>Node12&#45;&gt;Node9</title>
<path fill="none" stroke="midnightblue" d="M560.036,-180.483C622.894,-167.408 740.316,-142.583 743.234,-139 768.992,-107.374 758.982,-55.3875 751.153,-28.2479"/>
<polygon fill="midnightblue" stroke="midnightblue" points="754.453,-27.0726 748.14,-18.5635 747.769,-29.1518 754.453,-27.0726"/>
</g>
<!-- Node13 -->
<g id="node14" class="node"><title>Node13</title>
<polygon fill="none" stroke="#bfbfbf" points="428.837,-120.5 428.837,-138.5 477.63,-138.5 477.63,-120.5 428.837,-120.5"/>
<text text-anchor="middle" x="453.234" y="-126.5" font-family="Helvetica,sans-Serif" font-size="10.00">cstdarg</text>
</g>
<!-- Node12&#45;&gt;Node13 -->
<g id="edge15" class="edge"><title>Node12&#45;&gt;Node13</title>
<path fill="none" stroke="midnightblue" d="M511.779,-180.435C501.241,-171.448 483.969,-156.715 470.909,-145.576"/>
<polygon fill="midnightblue" stroke="midnightblue" points="472.929,-142.698 463.049,-138.872 468.386,-148.024 472.929,-142.698"/>
</g>
<!-- Node14 -->
<g id="node15" class="node"><title>Node14</title>
<polygon fill="none" stroke="#bfbfbf" points="495.453,-120.5 495.453,-138.5 547.015,-138.5 547.015,-120.5 495.453,-120.5"/>
<text text-anchor="middle" x="521.234" y="-126.5" font-family="Helvetica,sans-Serif" font-size="10.00">sstream</text>
</g>
<!-- Node12&#45;&gt;Node14 -->
<g id="edge18" class="edge"><title>Node12&#45;&gt;Node14</title>
<path fill="none" stroke="midnightblue" d="M521.234,-180.435C521.234,-172.389 521.234,-159.739 521.234,-149.185"/>
<polygon fill="midnightblue" stroke="midnightblue" points="524.734,-148.872 521.234,-138.872 517.734,-148.872 524.734,-148.872"/>
</g>
<!-- Node15 -->
<g id="node16" class="node"><title>Node15</title>
<polygon fill="none" stroke="#bfbfbf" points="773.062,-60.5 773.062,-78.5 827.406,-78.5 827.406,-60.5 773.062,-60.5"/>
<text text-anchor="middle" x="800.234" y="-66.5" font-family="Helvetica,sans-Serif" font-size="10.00">iostream</text>
</g>
<!-- Node12&#45;&gt;Node15 -->
<g id="edge19" class="edge"><title>Node12&#45;&gt;Node15</title>
<path fill="none" stroke="midnightblue" d="M562.095,-180.491C571.347,-178.682 581.128,-176.772 590.234,-175 672.884,-158.916 712.516,-194.044 776.234,-139 790.813,-126.405 796.538,-104.422 798.785,-88.7562"/>
<polygon fill="midnightblue" stroke="midnightblue" points="802.278,-89.0111 799.884,-78.6904 795.32,-88.2518 802.278,-89.0111"/>
</g>
<!-- Node16 -->
<g id="node17" class="node"><title>Node16</title>
<polygon fill="none" stroke="#bfbfbf" points="564.842,-120.5 564.842,-138.5 603.625,-138.5 603.625,-120.5 564.842,-120.5"/>
<text text-anchor="middle" x="584.234" y="-126.5" font-family="Helvetica,sans-Serif" font-size="10.00">utility</text>
</g>
<!-- Node12&#45;&gt;Node16 -->
<g id="edge20" class="edge"><title>Node12&#45;&gt;Node16</title>
<path fill="none" stroke="midnightblue" d="M529.994,-180.435C539.663,-171.533 555.455,-156.995 567.511,-145.895"/>
<polygon fill="midnightblue" stroke="midnightblue" points="570.154,-148.22 575.14,-138.872 565.413,-143.07 570.154,-148.22"/>
</g>
<!-- Node17 -->
<g id="node18" class="node"><title>Node17</title>
<polygon fill="none" stroke="#bfbfbf" points="621.618,-120.5 621.618,-138.5 664.85,-138.5 664.85,-120.5 621.618,-120.5"/>
<text text-anchor="middle" x="643.234" y="-126.5" font-family="Helvetica,sans-Serif" font-size="10.00">vector</text>
</g>
<!-- Node12&#45;&gt;Node17 -->
<g id="edge21" class="edge"><title>Node12&#45;&gt;Node17</title>
<path fill="none" stroke="midnightblue" d="M538.197,-180.435C558.568,-170.751 592.969,-154.397 616.825,-143.055"/>
<polygon fill="midnightblue" stroke="midnightblue" points="618.493,-146.138 626.021,-138.683 615.487,-139.816 618.493,-146.138"/>
</g>
<!-- Node18 -->
<g id="node19" class="node"><title>Node18</title>
<polygon fill="none" stroke="#bfbfbf" points="682.724,-120.5 682.724,-138.5 733.744,-138.5 733.744,-120.5 682.724,-120.5"/>
<text text-anchor="middle" x="708.234" y="-126.5" font-family="Helvetica,sans-Serif" font-size="10.00">iomanip</text>
</g>
<!-- Node12&#45;&gt;Node18 -->
<g id="edge22" class="edge"><title>Node12&#45;&gt;Node18</title>
<path fill="none" stroke="midnightblue" d="M547.235,-180.435C579.892,-170.307 636.071,-152.882 672.682,-141.527"/>
<polygon fill="midnightblue" stroke="midnightblue" points="673.939,-144.802 682.453,-138.496 671.865,-138.116 673.939,-144.802"/>
</g>
<!-- Node19 -->
<g id="node20" class="node"><title>Node19</title>
<polygon fill="none" stroke="#bfbfbf" points="351.83,-120.5 351.83,-138.5 410.638,-138.5 410.638,-120.5 351.83,-120.5"/>
<text text-anchor="middle" x="381.234" y="-126.5" font-family="Helvetica,sans-Serif" font-size="10.00">functional</text>
</g>
<!-- Node12&#45;&gt;Node19 -->
<g id="edge23" class="edge"><title>Node12&#45;&gt;Node19</title>
<path fill="none" stroke="midnightblue" d="M501.767,-180.435C478.079,-170.622 437.86,-153.959 410.45,-142.604"/>
<polygon fill="midnightblue" stroke="midnightblue" points="411.564,-139.277 400.986,-138.683 408.885,-145.744 411.564,-139.277"/>
</g>
<!-- Node20 -->
<g id="node21" class="node"><title>Node20</title>
<g id="a_node21"><a xlink:href="cxxutil_8h.html" target="_top" xlink:title="Some C++ utilities, with a tad of C++11 tricks. ">
<polygon fill="none" stroke="black" points="1250.48,-120.5 1250.48,-138.5 1385.98,-138.5 1385.98,-120.5 1250.48,-120.5"/>
<text text-anchor="middle" x="1318.23" y="-126.5" font-family="Helvetica,sans-Serif" font-size="10.00">tomographer/tools/cxxutil.h</text>
</a>
</g>
</g>
<!-- Node12&#45;&gt;Node20 -->
<g id="edge24" class="edge"><title>Node12&#45;&gt;Node20</title>
<path fill="none" stroke="midnightblue" d="M557.613,-180.449C568.096,-178.383 579.579,-176.362 590.234,-175 825.727,-144.899 1106.77,-135.02 1240.32,-131.888"/>
<polygon fill="midnightblue" stroke="midnightblue" points="1240.54,-135.384 1250.46,-131.657 1240.38,-128.386 1240.54,-135.384"/>
</g>
<!-- Node20&#45;&gt;Node10 -->
<g id="edge31" class="edge"><title>Node20&#45;&gt;Node10</title>
<path fill="none" stroke="midnightblue" d="M1386.33,-121.239C1499.82,-109.111 1716.09,-85.8659 1724.23,-84 1727.05,-83.3549 1729.94,-82.5672 1732.82,-81.6996"/>
<polygon fill="midnightblue" stroke="midnightblue" points="1733.98,-85.0005 1742.38,-78.5331 1731.78,-78.3557 1733.98,-85.0005"/>
</g>
<!-- Node20&#45;&gt;Node15 -->
<g id="edge28" class="edge"><title>Node20&#45;&gt;Node15</title>
<path fill="none" stroke="midnightblue" d="M1250.28,-127.9C1156.13,-125.792 981.215,-117.246 836.234,-84 833.729,-83.4256 831.163,-82.7186 828.612,-81.932"/>
<polygon fill="midnightblue" stroke="midnightblue" points="829.594,-78.5685 819,-78.6148 827.311,-85.1856 829.594,-78.5685"/>
</g>
<!-- Node21 -->
<g id="node22" class="node"><title>Node21</title>
<polygon fill="none" stroke="#bfbfbf" points="1382.12,-0.5 1382.12,-18.5 1430.35,-18.5 1430.35,-0.5 1382.12,-0.5"/>
<text text-anchor="middle" x="1406.23" y="-6.5" font-family="Helvetica,sans-Serif" font-size="10.00">cassert</text>
</g>
<!-- Node20&#45;&gt;Node21 -->
<g id="edge25" class="edge"><title>Node20&#45;&gt;Node21</title>
<path fill="none" stroke="midnightblue" d="M1328.45,-120.408C1338.6,-112.029 1354.2,-98.1948 1365.23,-84 1378.93,-66.3787 1390.88,-43.618 1398.29,-28.1247"/>
<polygon fill="midnightblue" stroke="midnightblue" points="1401.62,-29.256 1402.66,-18.7121 1395.27,-26.308 1401.62,-29.256"/>
</g>
<!-- Node22 -->
<g id="node23" class="node"><title>Node22</title>
<polygon fill="none" stroke="#bfbfbf" points="1115.11,-0.5 1115.11,-18.5 1163.35,-18.5 1163.35,-0.5 1115.11,-0.5"/>
<text text-anchor="middle" x="1139.23" y="-6.5" font-family="Helvetica,sans-Serif" font-size="10.00">cstddef</text>
</g>
<!-- Node20&#45;&gt;Node22 -->
<g id="edge26" class="edge"><title>Node20&#45;&gt;Node22</title>
<path fill="none" stroke="midnightblue" d="M1250.27,-122.387C1198.97,-116.2 1134.7,-104.535 1118.23,-84 1105.05,-67.5564 1116.31,-43.2249 1126.75,-27.1226"/>
<polygon fill="midnightblue" stroke="midnightblue" points="1129.77,-28.9184 1132.62,-18.7146 1124.03,-24.9128 1129.77,-28.9184"/>
</g>
<!-- Node23 -->
<g id="node24" class="node"><title>Node23</title>
<polygon fill="none" stroke="#bfbfbf" points="1320.06,-0.5 1320.06,-18.5 1364.41,-18.5 1364.41,-0.5 1320.06,-0.5"/>
<text text-anchor="middle" x="1342.23" y="-6.5" font-family="Helvetica,sans-Serif" font-size="10.00">cstdlib</text>
</g>
<!-- Node20&#45;&gt;Node23 -->
<g id="edge27" class="edge"><title>Node20&#45;&gt;Node23</title>
<path fill="none" stroke="midnightblue" d="M1326.14,-120.484C1333.74,-112.163 1344.72,-98.373 1349.23,-84 1354.98,-65.6958 1351.62,-43.671 1347.83,-28.5329"/>
<polygon fill="midnightblue" stroke="midnightblue" points="1351.19,-27.5619 1345.12,-18.8788 1344.45,-29.4525 1351.19,-27.5619"/>
</g>
<!-- Node24 -->
<g id="node25" class="node"><title>Node24</title>
<polygon fill="none" stroke="#bfbfbf" points="1127.62,-60.5 1127.62,-78.5 1180.85,-78.5 1180.85,-60.5 1127.62,-60.5"/>
<text text-anchor="middle" x="1154.23" y="-66.5" font-family="Helvetica,sans-Serif" font-size="10.00">complex</text>
</g>
<!-- Node20&#45;&gt;Node24 -->
<g id="edge29" class="edge"><title>Node20&#45;&gt;Node24</title>
<path fill="none" stroke="midnightblue" d="M1293.89,-120.393C1267.89,-111.666 1225.51,-97.247 1189.23,-84 1187.64,-83.4163 1186,-82.8112 1184.35,-82.195"/>
<polygon fill="midnightblue" stroke="midnightblue" points="1185.51,-78.8911 1174.92,-78.6187 1183.03,-85.4365 1185.51,-78.8911"/>
</g>
<!-- Node25 -->
<g id="node26" class="node"><title>Node25</title>
<polygon fill="none" stroke="#bfbfbf" points="1809.17,-60.5 1809.17,-78.5 1871.3,-78.5 1871.3,-60.5 1809.17,-60.5"/>
<text text-anchor="middle" x="1840.23" y="-66.5" font-family="Helvetica,sans-Serif" font-size="10.00">type_traits</text>
</g>
<!-- Node20&#45;&gt;Node25 -->
<g id="edge30" class="edge"><title>Node20&#45;&gt;Node25</title>
<path fill="none" stroke="midnightblue" d="M1386.29,-124.184C1499.83,-116.654 1723.06,-100.351 1800.23,-84 1803.29,-83.3525 1806.44,-82.5463 1809.56,-81.6523"/>
<polygon fill="midnightblue" stroke="midnightblue" points="1810.83,-84.9232 1819.32,-78.5839 1808.73,-78.2458 1810.83,-84.9232"/>
</g>
<!-- Node26 -->
<g id="node27" class="node"><title>Node26</title>
<polygon fill="none" stroke="#bfbfbf" points="1433.83,-60.5 1433.83,-78.5 1492.64,-78.5 1492.64,-60.5 1433.83,-60.5"/>
<text text-anchor="middle" x="1463.23" y="-66.5" font-family="Helvetica,sans-Serif" font-size="10.00">stdexcept</text>
</g>
<!-- Node20&#45;&gt;Node26 -->
<g id="edge32" class="edge"><title>Node20&#45;&gt;Node26</title>
<path fill="none" stroke="midnightblue" d="M1338.4,-120.435C1363.04,-110.579 1404.95,-93.813 1433.35,-82.4549"/>
<polygon fill="midnightblue" stroke="midnightblue" points="1434.79,-85.6468 1442.78,-78.6831 1432.19,-79.1474 1434.79,-85.6468"/>
</g>
<!-- Node27 -->
<g id="node28" class="node"><title>Node27</title>
<g id="a_node28"><a xlink:href="cxxdefs_8h.html" target="_top" xlink:title="Basic definitions, which may have to be defined before any Eigen headers or further utilities are inc...">
<polygon fill="none" stroke="black" points="1198.42,-60.5 1198.42,-78.5 1340.04,-78.5 1340.04,-60.5 1198.42,-60.5"/>
<text text-anchor="middle" x="1269.23" y="-66.5" font-family="Helvetica,sans-Serif" font-size="10.00">tomographer/tools/cxxdefs.h</text>
</a>
</g>
</g>
<!-- Node20&#45;&gt;Node27 -->
<g id="edge33" class="edge"><title>Node20&#45;&gt;Node27</title>
<path fill="none" stroke="midnightblue" d="M1311.42,-120.435C1304.04,-111.704 1292.09,-97.5523 1282.78,-86.5395"/>
<polygon fill="midnightblue" stroke="midnightblue" points="1285.43,-84.2519 1276.31,-78.8718 1280.09,-88.7694 1285.43,-84.2519"/>
</g>
<!-- Node29 -->
<g id="node30" class="node"><title>Node29</title>
<g id="a_node30"><a xlink:href="conststr_8h.html" target="_top" xlink:title="A constexpr string type, suitable for basic compile&#45;time string processing. ">
<polygon fill="none" stroke="black" points="845.143,-60.5 845.143,-78.5 987.325,-78.5 987.325,-60.5 845.143,-60.5"/>
<text text-anchor="middle" x="916.234" y="-66.5" font-family="Helvetica,sans-Serif" font-size="10.00">tomographer/tools/conststr.h</text>
</a>
</g>
</g>
<!-- Node20&#45;&gt;Node29 -->
<g id="edge38" class="edge"><title>Node20&#45;&gt;Node29</title>
<path fill="none" stroke="midnightblue" d="M1256.12,-120.476C1191.22,-111.959 1086.46,-97.8443 996.234,-84 988.5,-82.8134 980.357,-81.5061 972.345,-80.1865"/>
<polygon fill="midnightblue" stroke="midnightblue" points="972.746,-76.7052 962.307,-78.5164 971.597,-83.6103 972.746,-76.7052"/>
</g>
<!-- Node30 -->
<g id="node31" class="node"><title>Node30</title>
<polygon fill="none" stroke="#bfbfbf" points="1510.76,-60.5 1510.76,-78.5 1605.7,-78.5 1605.7,-60.5 1510.76,-60.5"/>
<text text-anchor="middle" x="1558.23" y="-66.5" font-family="Helvetica,sans-Serif" font-size="10.00">boost/version.hpp</text>
</g>
<!-- Node20&#45;&gt;Node30 -->
<g id="edge40" class="edge"><title>Node20&#45;&gt;Node30</title>
<path fill="none" stroke="midnightblue" d="M1351.35,-120.496C1394,-110.189 1468.21,-92.2563 1515.19,-80.9022"/>
<polygon fill="midnightblue" stroke="midnightblue" points="1516.17,-84.2659 1525.07,-78.5147 1514.53,-77.4617 1516.17,-84.2659"/>
</g>
<!-- Node31 -->
<g id="node32" class="node"><title>Node31</title>
<polygon fill="none" stroke="#bfbfbf" points="1623.71,-55.5 1623.71,-83.5 1714.76,-83.5 1714.76,-55.5 1623.71,-55.5"/>
<text text-anchor="start" x="1631.71" y="-71.5" font-family="Helvetica,sans-Serif" font-size="10.00">boost/units/detail</text>
<text text-anchor="middle" x="1669.23" y="-61.5" font-family="Helvetica,sans-Serif" font-size="10.00">/utility.hpp</text>
</g>
<!-- Node20&#45;&gt;Node31 -->
<g id="edge41" class="edge"><title>Node20&#45;&gt;Node31</title>
<path fill="none" stroke="midnightblue" d="M1383.2,-120.472C1441.14,-112.917 1528.44,-100.564 1613.82,-83.9587"/>
<polygon fill="midnightblue" stroke="midnightblue" points="1614.55,-87.3833 1623.69,-82.02 1613.2,-80.5147 1614.55,-87.3833"/>
</g>
<!-- Node32 -->
<g id="node33" class="node"><title>Node32</title>
<polygon fill="none" stroke="#bfbfbf" points="1005.22,-60.5 1005.22,-78.5 1071.25,-78.5 1071.25,-60.5 1005.22,-60.5"/>
<text text-anchor="middle" x="1038.23" y="-66.5" font-family="Helvetica,sans-Serif" font-size="10.00">Eigen/Core</text>
</g>
<!-- Node20&#45;&gt;Node32 -->
<g id="edge42" class="edge"><title>Node20&#45;&gt;Node32</title>
<path fill="none" stroke="midnightblue" d="M1269.32,-120.491C1221.98,-112.428 1148.33,-99.0529 1085.23,-84 1081.83,-83.1873 1078.3,-82.286 1074.78,-81.3457"/>
<polygon fill="midnightblue" stroke="midnightblue" points="1075.54,-77.925 1064.97,-78.6339 1073.67,-84.6719 1075.54,-77.925"/>
</g>
<!-- Node27&#45;&gt;Node21 -->
<g id="edge34" class="edge"><title>Node27&#45;&gt;Node21</title>
<path fill="none" stroke="midnightblue" d="M1288.28,-60.4353C1311.46,-50.6217 1350.82,-33.9593 1377.64,-22.604"/>
<polygon fill="midnightblue" stroke="midnightblue" points="1379.06,-25.8049 1386.9,-18.6831 1376.33,-19.3587 1379.06,-25.8049"/>
</g>
<!-- Node27&#45;&gt;Node22 -->
<g id="edge35" class="edge"><title>Node27&#45;&gt;Node22</title>
<path fill="none" stroke="midnightblue" d="M1251.16,-60.4353C1229.35,-50.7078 1192.47,-34.2511 1167.04,-22.9041"/>
<polygon fill="midnightblue" stroke="midnightblue" points="1168.13,-19.5613 1157.58,-18.6831 1165.28,-25.9539 1168.13,-19.5613"/>
</g>
<!-- Node27&#45;&gt;Node23 -->
<g id="edge36" class="edge"><title>Node27&#45;&gt;Node23</title>
<path fill="none" stroke="midnightblue" d="M1279.38,-60.4353C1290.8,-51.3619 1309.59,-36.434 1323.66,-25.2589"/>
<polygon fill="midnightblue" stroke="midnightblue" points="1326.04,-27.8329 1331.7,-18.8718 1321.69,-22.3522 1326.04,-27.8329"/>
</g>
<!-- Node28 -->
<g id="node29" class="node"><title>Node28</title>
<polygon fill="none" stroke="#bfbfbf" points="1222.27,-0.5 1222.27,-18.5 1302.2,-18.5 1302.2,-0.5 1222.27,-0.5"/>
<text text-anchor="middle" x="1262.23" y="-6.5" font-family="Helvetica,sans-Serif" font-size="10.00">boost/predef.h</text>
</g>
<!-- Node27&#45;&gt;Node28 -->
<g id="edge37" class="edge"><title>Node27&#45;&gt;Node28</title>
<path fill="none" stroke="midnightblue" d="M1268.26,-60.4353C1267.28,-52.3035 1265.73,-39.4692 1264.45,-28.8485"/>
<polygon fill="midnightblue" stroke="midnightblue" points="1267.92,-28.3803 1263.24,-18.8718 1260.97,-29.2191 1267.92,-28.3803"/>
</g>
<!-- Node29&#45;&gt;Node9 -->
<g id="edge39" class="edge"><title>Node29&#45;&gt;Node9</title>
<path fill="none" stroke="midnightblue" d="M892.457,-60.4353C861.852,-50.0546 808.653,-32.0107 775.28,-20.691"/>
<polygon fill="midnightblue" stroke="midnightblue" points="776.2,-17.3074 765.606,-17.4098 773.952,-23.9365 776.2,-17.3074"/>
</g>
<!-- Node33&#45;&gt;Node20 -->
<g id="edge46" class="edge"><title>Node33&#45;&gt;Node20</title>
<path fill="none" stroke="midnightblue" d="M1512.81,-180.435C1472.86,-170.184 1403.8,-152.459 1359.6,-141.117"/>
<polygon fill="midnightblue" stroke="midnightblue" points="1360.31,-137.685 1349.75,-138.589 1358.57,-144.465 1360.31,-137.685"/>
</g>
<!-- Node33&#45;&gt;Node25 -->
<g id="edge44" class="edge"><title>Node33&#45;&gt;Node25</title>
<path fill="none" stroke="midnightblue" d="M1564.58,-180.389C1615.82,-159.962 1750.37,-106.323 1810.48,-82.3601"/>
<polygon fill="midnightblue" stroke="midnightblue" points="1812.14,-85.4657 1820.14,-78.5113 1809.55,-78.9633 1812.14,-85.4657"/>
</g>
<!-- Node34 -->
<g id="node35" class="node"><title>Node34</title>
<polygon fill="none" stroke="#bfbfbf" points="1509.27,-120.5 1509.27,-138.5 1579.2,-138.5 1579.2,-120.5 1509.27,-120.5"/>
<text text-anchor="middle" x="1544.23" y="-126.5" font-family="Helvetica,sans-Serif" font-size="10.00">Eigen/Eigen</text>
</g>
<!-- Node33&#45;&gt;Node34 -->
<g id="edge45" class="edge"><title>Node33&#45;&gt;Node34</title>
<path fill="none" stroke="midnightblue" d="M1544.23,-180.435C1544.23,-172.389 1544.23,-159.739 1544.23,-149.185"/>
<polygon fill="midnightblue" stroke="midnightblue" points="1547.73,-148.872 1544.23,-138.872 1540.73,-148.872 1547.73,-148.872"/>
</g>
</g>
</svg>
        <g id="navigator" transform="translate(0 0)" fill="#404254">
                <rect fill="#f2f5e9" fill-opacity="0.5" stroke="#606060" stroke-width=".5" x="0" y="0" width="60" height="60"/>
                <use id="zoomplus" xlink:href="#zoomPlus" x="17" y="9" onmousedown="handleZoom(evt,'in')"/>
                <use id="zoomminus" xlink:href="#zoomMin" x="42" y="9" onmousedown="handleZoom(evt,'out')"/>
                <use id="reset" xlink:href="#resetDef" x="30" y="36" onmousedown="handleReset()"/>
                <g id="arrowUp" xlink:href="#dirArrow" transform="translate(30 24)" onmousedown="handlePan(0,-1)">
                  <use xlink:href="#rim" fill="#404040">
                        <set attributeName="fill" to="#808080" begin="arrowUp.mouseover" end="arrowUp.mouseout"/>
                  </use>
                  <path fill="none" stroke="white" stroke-width="1.5" d="M0,-3.0v7 M-2.5,-0.5L0,-3.0L2.5,-0.5"/>
                </g>
                <g id="arrowRight" xlink:href="#dirArrow" transform="rotate(90) translate(36 -43)" onmousedown="handlePan(1,0)">
                  <use xlink:href="#rim" fill="#404040">
                        <set attributeName="fill" to="#808080" begin="arrowRight.mouseover" end="arrowRight.mouseout"/>
                  </use>
                  <path fill="none" stroke="white" stroke-width="1.5" d="M0,-3.0v7 M-2.5,-0.5L0,-3.0L2.5,-0.5"/>
                </g>
                <g id="arrowDown" xlink:href="#dirArrow" transform="rotate(180) translate(-30 -48)" onmousedown="handlePan(0,1)">
                  <use xlink:href="#rim" fill="#404040">
                        <set attributeName="fill" to="#808080" begin="arrowDown.mouseover" end="arrowDown.mouseout"/>
                  </use>
                  <path fill="none" stroke="white" stroke-width="1.5" d="M0,-3.0v7 M-2.5,-0.5L0,-3.0L2.5,-0.5"/>
                </g>
                <g id="arrowLeft" xlink:href="#dirArrow" transform="rotate(270) translate(-36 17)" onmousedown="handlePan(-1,0)">
                  <use xlink:href="#rim" fill="#404040">
                        <set attributeName="fill" to="#808080" begin="arrowLeft.mouseover" end="arrowLeft.mouseout"/>
                  </use>
                  <path fill="none" stroke="white" stroke-width="1.5" d="M0,-3.0v7 M-2.5,-0.5L0,-3.0L2.5,-0.5"/>
                </g>
        </g>
        <svg viewBox="0 0 15 15" width="100%" height="30px" preserveAspectRatio="xMaxYMin meet">
         <g id="arrow_out" transform="scale(0.3 0.3)">
          <a xlink:href="signal__status__report_8h__incl_org.svg" target="_base">
           <rect id="button" ry="5" rx="5" y="6" x="6" height="38" width="38"
                fill="#f2f5e9" fill-opacity="0.5" stroke="#606060" stroke-width="1.0"/>
           <path id="arrow"
             d="M 11.500037,31.436501 C 11.940474,20.09759 22.043105,11.32322 32.158766,21.979434 L 37.068811,17.246167 C 37.068811,17.246167 37.088388,32 37.088388,32 L 22.160133,31.978069 C 22.160133,31.978069 26.997745,27.140456 26.997745,27.140456 C 18.528582,18.264221 13.291696,25.230495 11.500037,31.436501 z"
             style="fill:#404040;"/>
          </a>
         </g>
        </svg>
</svg>
