<?xml version="1.0" encoding="UTF-8" standalone="no"?>
<!DOCTYPE svg PUBLIC "-//W3C//DTD SVG 1.1//EN"
 "http://www.w3.org/Graphics/SVG/1.1/DTD/svg11.dtd">
<!-- Generated by graphviz version 2.38.0 (20140413.2041)
 -->
<!-- Title: tomographer/tools/signal_handler.h Pages: 1 -->
<svg width="305pt" height="92pt"
 viewBox="0.00 0.00 304.52 92.00" xmlns="http://www.w3.org/2000/svg" xmlns:xlink="http://www.w3.org/1999/xlink">
<g id="graph0" class="graph" transform="scale(1 1) rotate(0) translate(4 88)">
<title>tomographer/tools/signal_handler.h</title>
<!-- Node0 -->
<g id="node1" class="node"><title>Node0</title>
<polygon fill="#bfbfbf" stroke="black" points="90.4805,-55.5 90.4805,-83.5 215.987,-83.5 215.987,-55.5 90.4805,-55.5"/>
<text text-anchor="start" x="98.4805" y="-71.5" font-family="Helvetica,sans-Serif" font-size="10.00">tomographer/tools/signal</text>
<text text-anchor="middle" x="153.234" y="-61.5" font-family="Helvetica,sans-Serif" font-size="10.00">_handler.h</text>
</g>
<!-- Node1 -->
<g id="node2" class="node"><title>Node1</title>
<polygon fill="none" stroke="#bfbfbf" points="0,-0.5 0,-18.5 50.4678,-18.5 50.4678,-0.5 0,-0.5"/>
<text text-anchor="middle" x="25.2339" y="-6.5" font-family="Helvetica,sans-Serif" font-size="10.00">signal.h</text>
</g>
<!-- Node0&#45;&gt;Node1 -->
<g id="edge1" class="edge"><title>Node0&#45;&gt;Node1</title>
<path fill="none" stroke="midnightblue" d="M124.508,-55.4837C103.001,-45.7382 73.7647,-32.4905 52.5943,-22.8977"/>
<polygon fill="midnightblue" stroke="midnightblue" points="53.7587,-19.5828 43.2055,-18.6434 50.8695,-25.9588 53.7587,-19.5828"/>
</g>
<!-- Node2 -->
<g id="node3" class="node"><title>Node2</title>
<polygon fill="none" stroke="#bfbfbf" points="68.5024,-0.5 68.5024,-18.5 113.965,-18.5 113.965,-0.5 68.5024,-0.5"/>
<text text-anchor="middle" x="91.2339" y="-6.5" font-family="Helvetica,sans-Serif" font-size="10.00">stdio.h</text>
</g>
<!-- Node0&#45;&gt;Node2 -->
<g id="edge2" class="edge"><title>Node0&#45;&gt;Node2</title>
<path fill="none" stroke="midnightblue" d="M139.165,-55.3389C129.787,-46.5654 117.426,-35.002 107.606,-25.8156"/>
<polygon fill="midnightblue" stroke="midnightblue" points="109.77,-23.0471 100.076,-18.7715 104.987,-28.159 109.77,-23.0471"/>
</g>
<!-- Node3 -->
<g id="node4" class="node"><title>Node3</title>
<polygon fill="none" stroke="#bfbfbf" points="132.172,-0.5 132.172,-18.5 174.295,-18.5 174.295,-0.5 132.172,-0.5"/>
<text text-anchor="middle" x="153.234" y="-6.5" font-family="Helvetica,sans-Serif" font-size="10.00">cstdio</text>
</g>
<!-- Node0&#45;&gt;Node3 -->
<g id="edge3" class="edge"><title>Node0&#45;&gt;Node3</title>
<path fill="none" stroke="midnightblue" d="M153.234,-55.3389C153.234,-47.5305 153.234,-37.5122 153.234,-28.9265"/>
<polygon fill="midnightblue" stroke="midnightblue" points="156.734,-28.7714 153.234,-18.7715 149.734,-28.7715 156.734,-28.7714"/>
</g>
<!-- Node4 -->
<g id="node5" class="node"><title>Node4</title>
<polygon fill="none" stroke="#bfbfbf" points="192.288,-0.5 192.288,-18.5 232.18,-18.5 232.18,-0.5 192.288,-0.5"/>
<text text-anchor="middle" x="212.234" y="-6.5" font-family="Helvetica,sans-Serif" font-size="10.00">ctime</text>
</g>
<!-- Node0&#45;&gt;Node4 -->
<g id="edge4" class="edge"><title>Node0&#45;&gt;Node4</title>
<path fill="none" stroke="midnightblue" d="M166.622,-55.3389C175.547,-46.5654 187.309,-35.002 196.654,-25.8156"/>
<polygon fill="midnightblue" stroke="midnightblue" points="199.142,-28.2778 203.82,-18.7715 194.235,-23.2859 199.142,-28.2778"/>
</g>
<!-- Node5 -->
<g id="node6" class="node"><title>Node5</title>
<polygon fill="none" stroke="#bfbfbf" points="249.946,-0.5 249.946,-18.5 296.522,-18.5 296.522,-0.5 249.946,-0.5"/>
<text text-anchor="middle" x="273.234" y="-6.5" font-family="Helvetica,sans-Serif" font-size="10.00">chrono</text>
</g>
<!-- Node0&#45;&gt;Node5 -->
<g id="edge5" class="edge"><title>Node0&#45;&gt;Node5</title>
<path fill="none" stroke="midnightblue" d="M180.164,-55.4837C200.236,-45.7823 227.488,-32.6103 247.314,-23.0281"/>
<polygon fill="midnightblue" stroke="midnightblue" points="248.905,-26.1464 256.385,-18.6434 245.859,-19.8439 248.905,-26.1464"/>
</g>
</g>
</svg>
