<?xml version="1.0" encoding="UTF-8" standalone="no"?>
<!DOCTYPE svg PUBLIC "-//W3C//DTD SVG 1.1//EN"
 "http://www.w3.org/Graphics/SVG/1.1/DTD/svg11.dtd">
<!-- Generated by graphviz version 2.38.0 (20140413.2041)
 -->
<!-- Title: Tomographer::MHRWTasks::ValueHistogramTools::CDataBase&lt; ValueCalculator_, UseBinningAnalysis_, MHWalkerParams_, RngSeedType_, IterCountIntType_, CountRealType_, HistCountIntType_ &gt; Pages: 1 -->
<svg width="1563pt" height="233pt"
 viewBox="0.00 0.00 1563.05 232.50" xmlns="http://www.w3.org/2000/svg" xmlns:xlink="http://www.w3.org/1999/xlink">
<g id="graph0" class="graph" transform="scale(1 1) rotate(0) translate(4 228.5)">
<title>Tomographer::MHRWTasks::ValueHistogramTools::CDataBase&lt; ValueCalculator_, UseBinningAnalysis_, MHWalkerParams_, RngSeedType_, IterCountIntType_, CountRealType_, HistCountIntType_ &gt;</title>
<!-- Node3 -->
<g id="node1" class="node"><title>Node3</title>
<polygon fill="#bfbfbf" stroke="black" points="1347.69,-83.5 1347.69,-151.5 1555.05,-151.5 1555.05,-83.5 1347.69,-83.5"/>
<text text-anchor="start" x="1355.69" y="-139.5" font-family="Helvetica,sans-Serif" font-size="10.00">Tomographer::MHRWTasks</text>
<text text-anchor="start" x="1355.69" y="-129.5" font-family="Helvetica,sans-Serif" font-size="10.00">::ValueHistogramTools</text>
<text text-anchor="start" x="1355.69" y="-119.5" font-family="Helvetica,sans-Serif" font-size="10.00">::CDataBase&lt; ValueCalculator</text>
<text text-anchor="start" x="1355.69" y="-109.5" font-family="Helvetica,sans-Serif" font-size="10.00">_, UseBinningAnalysis_, MHWalkerParams</text>
<text text-anchor="start" x="1355.69" y="-99.5" font-family="Helvetica,sans-Serif" font-size="10.00">_, RngSeedType_, IterCountIntType</text>
<text text-anchor="middle" x="1451.37" y="-89.5" font-family="Helvetica,sans-Serif" font-size="10.00">_, CountRealType_, HistCountIntType_ &gt;</text>
</g>
<!-- Node4 -->
<g id="node2" class="node"><title>Node4</title>
<g id="a_node2"><a xlink:href="struct_tomographer_1_1_m_h_r_w_tasks_1_1_c_data_base.html" target="_top" xlink:title="Data needed to be accessible to the working code. ">
<polygon fill="none" stroke="black" points="1027.34,-171.5 1027.34,-209.5 1217.08,-209.5 1217.08,-171.5 1027.34,-171.5"/>
<text text-anchor="start" x="1035.34" y="-197.5" font-family="Helvetica,sans-Serif" font-size="10.00">Tomographer::MHRWTasks</text>
<text text-anchor="start" x="1035.34" y="-187.5" font-family="Helvetica,sans-Serif" font-size="10.00">::CDataBase&lt; MHWalkerParams</text>
<text text-anchor="middle" x="1122.21" y="-177.5" font-family="Helvetica,sans-Serif" font-size="10.00">_, IterCountIntType_, RngSeedType_ &gt;</text>
</a>
</g>
</g>
<!-- Node4&#45;&gt;Node3 -->
<g id="edge1" class="edge"><title>Node4&#45;&gt;Node3</title>
<path fill="none" stroke="midnightblue" d="M1218.61,-169.214C1259.08,-160.184 1306.33,-149.64 1347.57,-140.437"/>
<polygon fill="midnightblue" stroke="midnightblue" points="1217.74,-165.822 1208.74,-171.415 1219.26,-172.654 1217.74,-165.822"/>
</g>
<!-- Node5 -->
<g id="node3" class="node"><title>Node5</title>
<g id="a_node3"><a doxygen="/Users/philippe/Research/projects/tomographer/doc/cppreference-doxygen-web.tag.xml:http://en.cppreference.com/w/" xlink:href="http://en.cppreference.com/w/cpp/container/vector.html" target="_top" xlink:title="std::vector\&lt; RngSeedType \&gt;">
<polygon fill="none" stroke="black" points="631.134,-205.5 631.134,-223.5 773.882,-223.5 773.882,-205.5 631.134,-205.5"/>
<text text-anchor="middle" x="702.508" y="-211.5" font-family="Helvetica,sans-Serif" font-size="10.00">std::vector&lt; RngSeedType &gt;</text>
</a>
</g>
</g>
<!-- Node5&#45;&gt;Node4 -->
<g id="edge2" class="edge"><title>Node5&#45;&gt;Node4</title>
<path fill="none" stroke="#9a32cd" stroke-dasharray="5,2" d="M783.908,-209.88C853.356,-205.89 953.783,-200.12 1026.99,-195.914"/>
<polygon fill="#9a32cd" stroke="#9a32cd" points="783.676,-206.388 773.893,-210.456 784.077,-213.376 783.676,-206.388"/>
<text text-anchor="middle" x="917.78" y="-208.5" font-family="Helvetica,sans-Serif" font-size="10.00"> task_seeds</text>
</g>
<!-- Node6 -->
<g id="node4" class="node"><title>Node6</title>
<g id="a_node4"><a doxygen="/Users/philippe/Research/projects/tomographer/doc/cppreference-doxygen-web.tag.xml:http://en.cppreference.com/w/" xlink:href="http://en.cppreference.com/w/cpp/container/vector.html" target="_top" xlink:title="STL class. ">
<polygon fill="none" stroke="black" points="275.303,-205.5 275.303,-223.5 360.424,-223.5 360.424,-205.5 275.303,-205.5"/>
<text text-anchor="middle" x="317.864" y="-211.5" font-family="Helvetica,sans-Serif" font-size="10.00">std::vector&lt; T &gt;</text>
</a>
</g>
</g>
<!-- Node6&#45;&gt;Node5 -->
<g id="edge3" class="edge"><title>Node6&#45;&gt;Node5</title>
<path fill="none" stroke="orange" stroke-dasharray="5,2" d="M370.902,-214.5C438.226,-214.5 555.778,-214.5 631.054,-214.5"/>
<polygon fill="orange" stroke="orange" points="370.542,-211 360.542,-214.5 370.542,-218 370.542,-211"/>
<text text-anchor="middle" x="500.36" y="-216.5" font-family="Helvetica,sans-Serif" font-size="10.00"> &lt; RngSeedType &gt;</text>
</g>
<!-- Node7 -->
<g id="node5" class="node"><title>Node7</title>
<polygon fill="none" stroke="#bfbfbf" points="36.6567,-205.5 36.6567,-223.5 65.6567,-223.5 65.6567,-205.5 36.6567,-205.5"/>
<text text-anchor="middle" x="51.1567" y="-211.5" font-family="Helvetica,sans-Serif" font-size="10.00">T</text>
</g>
<!-- Node7&#45;&gt;Node6 -->
<g id="edge4" class="edge"><title>Node7&#45;&gt;Node6</title>
<path fill="none" stroke="#9a32cd" stroke-dasharray="5,2" d="M76.2992,-214.5C121.42,-214.5 219.027,-214.5 275.055,-214.5"/>
<polygon fill="#9a32cd" stroke="#9a32cd" points="76.0159,-211 66.0158,-214.5 76.0158,-218 76.0159,-211"/>
<text text-anchor="middle" x="162.55" y="-216.5" font-family="Helvetica,sans-Serif" font-size="10.00"> elements</text>
</g>
<!-- Node8 -->
<g id="node6" class="node"><title>Node8</title>
<g id="a_node6"><a xlink:href="struct_tomographer_1_1_m_h_r_w_params.html" target="_top" xlink:title="Tomographer::MHRWParams\l\&lt; MHWalkerParams, IterCountInt\lType \&gt;">
<polygon fill="none" stroke="black" points="620.919,-148.5 620.919,-186.5 784.097,-186.5 784.097,-148.5 620.919,-148.5"/>
<text text-anchor="start" x="628.919" y="-174.5" font-family="Helvetica,sans-Serif" font-size="10.00">Tomographer::MHRWParams</text>
<text text-anchor="start" x="628.919" y="-164.5" font-family="Helvetica,sans-Serif" font-size="10.00">&lt; MHWalkerParams, IterCountInt</text>
<text text-anchor="middle" x="702.508" y="-154.5" font-family="Helvetica,sans-Serif" font-size="10.00">Type &gt;</text>
</a>
</g>
</g>
<!-- Node8&#45;&gt;Node4 -->
<g id="edge5" class="edge"><title>Node8&#45;&gt;Node4</title>
<path fill="none" stroke="#9a32cd" stroke-dasharray="5,2" d="M794.21,-169.407C853.02,-171.002 931.265,-173.797 1000.32,-178.5 1009.06,-179.095 1018.13,-179.812 1027.22,-180.596"/>
<polygon fill="#9a32cd" stroke="#9a32cd" points="794.293,-165.908 784.204,-169.142 794.108,-172.905 794.293,-165.908"/>
<text text-anchor="middle" x="917.78" y="-180.5" font-family="Helvetica,sans-Serif" font-size="10.00"> mhrw_params</text>
</g>
<!-- Node9 -->
<g id="node7" class="node"><title>Node9</title>
<g id="a_node7"><a xlink:href="struct_tomographer_1_1_m_h_r_w_params.html" target="_top" xlink:title="Specify the parameters of a Metropolis&#45;Hastings random walk. ">
<polygon fill="none" stroke="black" points="222.786,-153.5 222.786,-181.5 412.941,-181.5 412.941,-153.5 222.786,-153.5"/>
<text text-anchor="start" x="230.786" y="-169.5" font-family="Helvetica,sans-Serif" font-size="10.00">Tomographer::MHRWParams</text>
<text text-anchor="middle" x="317.864" y="-159.5" font-family="Helvetica,sans-Serif" font-size="10.00">&lt; MHWalkerParams_, CountIntType_ &gt;</text>
</a>
</g>
</g>
<!-- Node9&#45;&gt;Node8 -->
<g id="edge6" class="edge"><title>Node9&#45;&gt;Node8</title>
<path fill="none" stroke="orange" stroke-dasharray="5,2" d="M423.199,-167.5C485.415,-167.5 563.223,-167.5 620.739,-167.5"/>
<polygon fill="orange" stroke="orange" points="422.959,-164 412.959,-167.5 422.959,-171 422.959,-164"/>
<text text-anchor="start" x="430.941" y="-179.5" font-family="Helvetica,sans-Serif" font-size="10.00"> &lt; MHWalkerParams, IterCount</text>
<text text-anchor="middle" x="500.36" y="-169.5" font-family="Helvetica,sans-Serif" font-size="10.00">IntType &gt;</text>
</g>
<!-- Node10 -->
<g id="node8" class="node"><title>Node10</title>
<polygon fill="none" stroke="#bfbfbf" points="0,-163.5 0,-181.5 102.313,-181.5 102.313,-163.5 0,-163.5"/>
<text text-anchor="middle" x="51.1567" y="-169.5" font-family="Helvetica,sans-Serif" font-size="10.00">MHWalkerParams_</text>
</g>
<!-- Node10&#45;&gt;Node9 -->
<g id="edge7" class="edge"><title>Node10&#45;&gt;Node9</title>
<path fill="none" stroke="#9a32cd" stroke-dasharray="5,2" d="M112.824,-171.354C145.351,-170.74 186.152,-169.969 222.702,-169.279"/>
<polygon fill="#9a32cd" stroke="#9a32cd" points="112.501,-167.859 102.569,-171.548 112.634,-174.858 112.501,-167.859"/>
<text text-anchor="middle" x="162.55" y="-172.5" font-family="Helvetica,sans-Serif" font-size="10.00"> mhwalker_params</text>
</g>
<!-- Node11 -->
<g id="node9" class="node"><title>Node11</title>
<polygon fill="none" stroke="#bfbfbf" points="10.6323,-110.5 10.6323,-128.5 91.6812,-128.5 91.6812,-110.5 10.6323,-110.5"/>
<text text-anchor="middle" x="51.1567" y="-116.5" font-family="Helvetica,sans-Serif" font-size="10.00">CountIntType_</text>
</g>
<!-- Node11&#45;&gt;Node9 -->
<g id="edge8" class="edge"><title>Node11&#45;&gt;Node9</title>
<path fill="none" stroke="#9a32cd" stroke-dasharray="5,2" d="M102.173,-122.543C132.129,-124.91 170.858,-128.93 204.786,-135.5 228.03,-140.001 253.438,-147.072 274.177,-153.424"/>
<polygon fill="#9a32cd" stroke="#9a32cd" points="102.201,-119.035 91.9656,-121.773 101.674,-126.015 102.201,-119.035"/>
<text text-anchor="middle" x="162.55" y="-157.5" font-family="Helvetica,sans-Serif" font-size="10.00"> n_run</text>
<text text-anchor="middle" x="162.55" y="-147.5" font-family="Helvetica,sans-Serif" font-size="10.00">n_therm</text>
<text text-anchor="middle" x="162.55" y="-137.5" font-family="Helvetica,sans-Serif" font-size="10.00">n_sweep</text>
</g>
<!-- Node12 -->
<g id="node10" class="node"><title>Node12</title>
<polygon fill="none" stroke="#bfbfbf" points="1035.64,-124.5 1035.64,-152.5 1208.78,-152.5 1208.78,-124.5 1035.64,-124.5"/>
<text text-anchor="start" x="1043.64" y="-140.5" font-family="Helvetica,sans-Serif" font-size="10.00">Tools::NeedOwnOperatorNew</text>
<text text-anchor="middle" x="1122.21" y="-130.5" font-family="Helvetica,sans-Serif" font-size="10.00">::ProviderType&lt; ValueCalculator_ &gt;</text>
</g>
<!-- Node12&#45;&gt;Node3 -->
<g id="edge9" class="edge"><title>Node12&#45;&gt;Node3</title>
<path fill="none" stroke="midnightblue" d="M1219.27,-132.334C1259.58,-129.747 1306.52,-126.734 1347.53,-124.101"/>
<polygon fill="midnightblue" stroke="midnightblue" points="1218.92,-128.849 1209.17,-132.982 1219.37,-135.835 1218.92,-128.849"/>
</g>
<!-- Node13 -->
<g id="node11" class="node"><title>Node13</title>
<polygon fill="none" stroke="#bfbfbf" points="1018.32,-57.5 1018.32,-105.5 1226.1,-105.5 1226.1,-57.5 1018.32,-57.5"/>
<text text-anchor="start" x="1026.32" y="-93.5" font-family="Helvetica,sans-Serif" font-size="10.00">Tomographer::MHRWTasks</text>
<text text-anchor="start" x="1026.32" y="-83.5" font-family="Helvetica,sans-Serif" font-size="10.00">::ValueHistogramTools</text>
<text text-anchor="start" x="1026.32" y="-73.5" font-family="Helvetica,sans-Serif" font-size="10.00">::tomo_internal::valuehist</text>
<text text-anchor="middle" x="1122.21" y="-63.5" font-family="Helvetica,sans-Serif" font-size="10.00">_types&lt; CDataBase, UseBinningAnalysis &gt;</text>
</g>
<!-- Node13&#45;&gt;Node3 -->
<g id="edge10" class="edge"><title>Node13&#45;&gt;Node3</title>
<path fill="none" stroke="#9a32cd" stroke-dasharray="5,2" d="M1236.36,-93.9505C1272.47,-97.9237 1312.21,-102.297 1347.54,-106.185"/>
<polygon fill="#9a32cd" stroke="#9a32cd" points="1236.6,-90.4561 1226.28,-92.8412 1235.83,-97.4141 1236.6,-90.4561"/>
<text text-anchor="middle" x="1286.89" y="-106.5" font-family="Helvetica,sans-Serif" font-size="10.00"> histogram_params</text>
</g>
<!-- Node14 -->
<g id="node12" class="node"><title>Node14</title>
<polygon fill="none" stroke="#bfbfbf" points="587.779,-57.5 587.779,-105.5 817.236,-105.5 817.236,-57.5 587.779,-57.5"/>
<text text-anchor="start" x="595.779" y="-93.5" font-family="Helvetica,sans-Serif" font-size="10.00">Tomographer::MHRWTasks</text>
<text text-anchor="start" x="595.779" y="-83.5" font-family="Helvetica,sans-Serif" font-size="10.00">::ValueHistogramTools</text>
<text text-anchor="start" x="595.779" y="-73.5" font-family="Helvetica,sans-Serif" font-size="10.00">::tomo_internal::valuehist</text>
<text text-anchor="middle" x="702.508" y="-63.5" font-family="Helvetica,sans-Serif" font-size="10.00">_types&lt; CDataBaseType, UseBinningAnalysis &gt;</text>
</g>
<!-- Node14&#45;&gt;Node13 -->
<g id="edge11" class="edge"><title>Node14&#45;&gt;Node13</title>
<path fill="none" stroke="orange" stroke-dasharray="5,2" d="M827.405,-81.5C888.154,-81.5 960.463,-81.5 1018.14,-81.5"/>
<polygon fill="orange" stroke="orange" points="827.371,-78.0001 817.371,-81.5 827.371,-85.0001 827.371,-78.0001"/>
<text text-anchor="middle" x="917.78" y="-83.5" font-family="Helvetica,sans-Serif" font-size="10.00"> &lt; CDataBase, UseBinningAnalysis &gt;</text>
</g>
<!-- Node15 -->
<g id="node13" class="node"><title>Node15</title>
<g id="a_node13"><a xlink:href="struct_tomographer_1_1_tools_1_1_store_if_enabled.html" target="_top" xlink:title="Tomographer::Tools\l::StoreIfEnabled\&lt; int,\l UseBinningAnalysis \&gt;">
<polygon fill="none" stroke="black" points="1064.32,-0.5 1064.32,-38.5 1180.1,-38.5 1180.1,-0.5 1064.32,-0.5"/>
<text text-anchor="start" x="1072.32" y="-26.5" font-family="Helvetica,sans-Serif" font-size="10.00">Tomographer::Tools</text>
<text text-anchor="start" x="1072.32" y="-16.5" font-family="Helvetica,sans-Serif" font-size="10.00">::StoreIfEnabled&lt; int,</text>
<text text-anchor="middle" x="1122.21" y="-6.5" font-family="Helvetica,sans-Serif" font-size="10.00"> UseBinningAnalysis &gt;</text>
</a>
</g>
</g>
<!-- Node15&#45;&gt;Node3 -->
<g id="edge12" class="edge"><title>Node15&#45;&gt;Node3</title>
<path fill="none" stroke="#9a32cd" stroke-dasharray="5,2" d="M1190.15,-37.333C1202.14,-40.6368 1214.5,-44.1149 1226.1,-47.5 1265.94,-59.1339 1309.54,-72.578 1347.61,-84.5555"/>
<polygon fill="#9a32cd" stroke="#9a32cd" points="1190.76,-33.8711 1180.19,-34.6046 1188.91,-40.6224 1190.76,-33.8711"/>
<text text-anchor="middle" x="1286.89" y="-79.5" font-family="Helvetica,sans-Serif" font-size="10.00"> binningNumLevels</text>
</g>
<!-- Node16 -->
<g id="node14" class="node"><title>Node16</title>
<g id="a_node14"><a xlink:href="struct_tomographer_1_1_tools_1_1_store_if_enabled.html" target="_top" xlink:title="Utility that stores a data type if a compile&#45;time flag is enabled. ">
<polygon fill="none" stroke="black" points="650.597,-0.5 650.597,-38.5 754.419,-38.5 754.419,-0.5 650.597,-0.5"/>
<text text-anchor="start" x="658.597" y="-26.5" font-family="Helvetica,sans-Serif" font-size="10.00">Tomographer::Tools</text>
<text text-anchor="start" x="658.597" y="-16.5" font-family="Helvetica,sans-Serif" font-size="10.00">::StoreIfEnabled&lt; T</text>
<text text-anchor="middle" x="702.508" y="-6.5" font-family="Helvetica,sans-Serif" font-size="10.00">_, enabled &gt;</text>
</a>
</g>
</g>
<!-- Node16&#45;&gt;Node15 -->
<g id="edge13" class="edge"><title>Node16&#45;&gt;Node15</title>
<path fill="none" stroke="orange" stroke-dasharray="5,2" d="M765.218,-19.5C845.86,-19.5 985.988,-19.5 1064.22,-19.5"/>
<polygon fill="orange" stroke="orange" points="764.726,-16.0001 754.726,-19.5 764.726,-23.0001 764.726,-16.0001"/>
<text text-anchor="middle" x="917.78" y="-21.5" font-family="Helvetica,sans-Serif" font-size="10.00"> &lt; int, UseBinningAnalysis &gt;</text>
</g>
</g>
</svg>
