<?xml version="1.0" encoding="UTF-8" standalone="no"?>
<!DOCTYPE svg PUBLIC "-//W3C//DTD SVG 1.1//EN"
 "http://www.w3.org/Graphics/SVG/1.1/DTD/svg11.dtd">
<!-- Generated by graphviz version 2.38.0 (20140413.2041)
 -->
<!-- Title: Tomographer::Logger::LoggerTraits&lt; LoggerType &gt; Pages: 1 -->
<!--zoomable 352 -->
<svg id="main" version="1.1" xmlns="http://www.w3.org/2000/svg" xmlns:xlink="http://www.w3.org/1999/xlink" xml:space="preserve" onload="init(evt)">
<style type="text/css"><![CDATA[
.edge:hover path { stroke: red; }
.edge:hover polygon { stroke: red; fill: red; }
]]></style>
<script type="text/javascript"><![CDATA[
var edges = document.getElementsByTagName('g');
if (edges && edges.length) {
  for (var i=0;i<edges.length;i++) {
    if (edges[i].id.substr(0,4)=='edge') {
      edges[i].setAttribute('class','edge');
    }
  }
}
]]></script>
        <defs>
                <circle id="rim" cx="0" cy="0" r="7"/>
                <circle id="rim2" cx="0" cy="0" r="3.5"/>
                <g id="zoomPlus">
                        <use xlink:href="#rim" fill="#404040">
                                <set attributeName="fill" to="#808080" begin="zoomplus.mouseover" end="zoomplus.mouseout"/>
                        </use>
                        <path d="M-4,0h8M0,-4v8" fill="none" stroke="white" stroke-width="1.5" pointer-events="none"/>
                </g>
                <g id="zoomMin">
                        <use xlink:href="#rim" fill="#404040">
                                <set attributeName="fill" to="#808080" begin="zoomminus.mouseover" end="zoomminus.mouseout"/>
                        </use>
                        <path d="M-4,0h8" fill="none" stroke="white" stroke-width="1.5" pointer-events="none"/>
                </g>
                <g id="dirArrow">
                        <path fill="none" stroke="white" stroke-width="1.5" d="M0,-3.0v7 M-2.5,-0.5L0,-3.0L2.5,-0.5"/>
                </g>
               <g id="resetDef">
                       <use xlink:href="#rim2" fill="#404040">
                               <set attributeName="fill" to="#808080" begin="reset.mouseover" end="reset.mouseout"/>
                       </use>
               </g>
        </defs>

<script type="text/javascript">
var viewWidth = 661;
var viewHeight = 352;
var sectionId = 'dynsection-0';
</script>
<script xlink:href="svgpan.js"/>
<svg id="graph" class="graph">
<g id="viewport">
<title>Tomographer::Logger::LoggerTraits&lt; LoggerType &gt;</title>
<!-- Node0 -->
<g id="node1" class="node"><title>Node0</title>
<polygon fill="#bfbfbf" stroke="black" points="0,-108.5 0,-136.5 147.387,-136.5 147.387,-108.5 0,-108.5"/>
<text text-anchor="start" x="8" y="-124.5" font-family="Helvetica,sans-Serif" font-size="10.00">Tomographer::Logger</text>
<text text-anchor="middle" x="73.6934" y="-114.5" font-family="Helvetica,sans-Serif" font-size="10.00">::LoggerTraits&lt; LoggerType &gt;</text>
</g>
<!-- Node1 -->
<g id="node2" class="node"><title>Node1</title>
<g id="a_node2"><a xlink:href="struct_tomographer_1_1_logger_1_1_logger_traits.html" target="_top" xlink:title="Tomographer::Logger\l::LoggerTraits\&lt; BaseLogger \&gt;">
<polygon fill="none" stroke="black" points="284.578,-150.5 284.578,-178.5 433.073,-178.5 433.073,-150.5 284.578,-150.5"/>
<text text-anchor="start" x="292.578" y="-166.5" font-family="Helvetica,sans-Serif" font-size="10.00">Tomographer::Logger</text>
<text text-anchor="middle" x="358.826" y="-156.5" font-family="Helvetica,sans-Serif" font-size="10.00">::LoggerTraits&lt; BaseLogger &gt;</text>
</a>
</g>
</g>
<!-- Node0&#45;&gt;Node1 -->
<g id="edge1" class="edge"><title>Node0&#45;&gt;Node1</title>
<path fill="none" stroke="orange" stroke-dasharray="5,2" d="M157.622,-134.802C197.7,-140.747 245.393,-147.822 284.175,-153.575"/>
<polygon fill="orange" stroke="orange" points="158.012,-131.321 147.607,-133.316 156.985,-138.246 158.012,-131.321"/>
<text text-anchor="middle" x="215.982" y="-152.5" font-family="Helvetica,sans-Serif" font-size="10.00"> &lt; BaseLogger &gt;</text>
</g>
<!-- Node7 -->
<g id="node8" class="node"><title>Node7</title>
<g id="a_node8"><a xlink:href="struct_tomographer_1_1_logger_1_1_logger_traits.html" target="_top" xlink:title="Tomographer::Logger\l::LoggerTraits\&lt; BaseLogger\lType_ \&gt;">
<polygon fill="none" stroke="black" points="288.887,-47.5 288.887,-85.5 428.764,-85.5 428.764,-47.5 288.887,-47.5"/>
<text text-anchor="start" x="296.887" y="-73.5" font-family="Helvetica,sans-Serif" font-size="10.00">Tomographer::Logger</text>
<text text-anchor="start" x="296.887" y="-63.5" font-family="Helvetica,sans-Serif" font-size="10.00">::LoggerTraits&lt; BaseLogger</text>
<text text-anchor="middle" x="358.826" y="-53.5" font-family="Helvetica,sans-Serif" font-size="10.00">Type_ &gt;</text>
</a>
</g>
</g>
<!-- Node0&#45;&gt;Node7 -->
<g id="edge7" class="edge"><title>Node0&#45;&gt;Node7</title>
<path fill="none" stroke="orange" stroke-dasharray="5,2" d="M155.701,-106.478C197.723,-98.1662 248.517,-88.1198 288.673,-80.1775"/>
<polygon fill="orange" stroke="orange" points="154.905,-103.067 145.774,-108.441 156.263,-109.934 154.905,-103.067"/>
<text text-anchor="middle" x="215.982" y="-105.5" font-family="Helvetica,sans-Serif" font-size="10.00"> &lt; BaseLoggerType_ &gt;</text>
</g>
<!-- Node2 -->
<g id="node3" class="node"><title>Node2</title>
<g id="a_node3"><a xlink:href="struct_tomographer_1_1_logger_1_1_logger_traits_3_01_minimum_severity_logger_3_01_base_logger_00_01_level_01_4_01_4.html" target="_top" xlink:title="Specialized Traits for MinimumSeverityLogger – see LoggerTraits. ">
<polygon fill="none" stroke="black" points="480.134,-305.5 480.134,-343.5 642.76,-343.5 642.76,-305.5 480.134,-305.5"/>
<text text-anchor="start" x="488.134" y="-331.5" font-family="Helvetica,sans-Serif" font-size="10.00">Tomographer::Logger</text>
<text text-anchor="start" x="488.134" y="-321.5" font-family="Helvetica,sans-Serif" font-size="10.00">::LoggerTraits&lt; MinimumSeverity</text>
<text text-anchor="middle" x="561.447" y="-311.5" font-family="Helvetica,sans-Serif" font-size="10.00">Logger&lt; BaseLogger, Level &gt; &gt;</text>
</a>
</g>
</g>
<!-- Node1&#45;&gt;Node2 -->
<g id="edge2" class="edge"><title>Node1&#45;&gt;Node2</title>
<path fill="none" stroke="midnightblue" d="M373.157,-187.51C391.381,-216.977 426.799,-267.669 470.073,-296.5 475.131,-299.87 480.615,-302.85 486.295,-305.484"/>
<polygon fill="midnightblue" stroke="midnightblue" points="376.026,-185.489 367.857,-178.743 370.036,-189.111 376.026,-185.489"/>
</g>
<!-- Node3 -->
<g id="node4" class="node"><title>Node3</title>
<g id="a_node4"><a xlink:href="struct_tomographer_1_1_logger_1_1_logger_traits_3_01_multi_proc_1_1_cxx_threads_1_1_thread_sanitb4e4ff0abba6a39822cce1c99e885e9a.html" target="_top" xlink:title="Specialized Traits for Tomographer::MultiProc::OMP::ThreadSanitizerLogger&lt;BaseLogger&gt; – see Tomograp...">
<polygon fill="none" stroke="black" points="470.073,-238.5 470.073,-286.5 652.821,-286.5 652.821,-238.5 470.073,-238.5"/>
<text text-anchor="start" x="478.073" y="-274.5" font-family="Helvetica,sans-Serif" font-size="10.00">Tomographer::Logger</text>
<text text-anchor="start" x="478.073" y="-264.5" font-family="Helvetica,sans-Serif" font-size="10.00">::LoggerTraits&lt; MultiProc</text>
<text text-anchor="start" x="478.073" y="-254.5" font-family="Helvetica,sans-Serif" font-size="10.00">::CxxThreads::ThreadSanitizerLogger</text>
<text text-anchor="middle" x="561.447" y="-244.5" font-family="Helvetica,sans-Serif" font-size="10.00">&lt; BaseLogger &gt; &gt;</text>
</a>
</g>
</g>
<!-- Node1&#45;&gt;Node3 -->
<g id="edge3" class="edge"><title>Node1&#45;&gt;Node3</title>
<path fill="none" stroke="midnightblue" d="M389.606,-184.073C411.342,-197.854 441.822,-216.151 470.073,-229.5 476.567,-232.568 483.429,-235.537 490.353,-238.353"/>
<polygon fill="midnightblue" stroke="midnightblue" points="391.457,-181.103 381.148,-178.659 387.683,-186.998 391.457,-181.103"/>
</g>
<!-- Node4 -->
<g id="node5" class="node"><title>Node4</title>
<g id="a_node5"><a xlink:href="struct_tomographer_1_1_logger_1_1_logger_traits_3_01_multi_proc_1_1_o_m_p_1_1_thread_sanitizer_l7f0064bd162e246a0e99630591611d67.html" target="_top" xlink:title="Specialized Traits for Tomographer::MultiProc::OMP::ThreadSanitizerLogger&lt;typename BaseLogger&gt; – see...">
<polygon fill="none" stroke="black" points="485.637,-171.5 485.637,-219.5 637.257,-219.5 637.257,-171.5 485.637,-171.5"/>
<text text-anchor="start" x="493.637" y="-207.5" font-family="Helvetica,sans-Serif" font-size="10.00">Tomographer::Logger</text>
<text text-anchor="start" x="493.637" y="-197.5" font-family="Helvetica,sans-Serif" font-size="10.00">::LoggerTraits&lt; MultiProc</text>
<text text-anchor="start" x="493.637" y="-187.5" font-family="Helvetica,sans-Serif" font-size="10.00">::OMP::ThreadSanitizerLogger</text>
<text text-anchor="middle" x="561.447" y="-177.5" font-family="Helvetica,sans-Serif" font-size="10.00">&lt; BaseLogger &gt; &gt;</text>
</a>
</g>
</g>
<!-- Node1&#45;&gt;Node4 -->
<g id="edge4" class="edge"><title>Node1&#45;&gt;Node4</title>
<path fill="none" stroke="midnightblue" d="M443.188,-177.381C457.164,-179.541 471.593,-181.77 485.346,-183.895"/>
<polygon fill="midnightblue" stroke="midnightblue" points="443.524,-173.892 433.106,-175.823 442.454,-180.809 443.524,-173.892"/>
</g>
<!-- Node5 -->
<g id="node6" class="node"><title>Node5</title>
<g id="a_node6"><a xlink:href="struct_tomographer_1_1_logger_1_1_logger_traits_3_01_origin_filtered_logger_3_01_base_logger_01_4_01_4.html" target="_top" xlink:title="Specialized Logger Traits for OriginFilteredLogger – see LoggerTraits. ">
<polygon fill="none" stroke="black" points="488.464,-114.5 488.464,-152.5 634.43,-152.5 634.43,-114.5 488.464,-114.5"/>
<text text-anchor="start" x="496.464" y="-140.5" font-family="Helvetica,sans-Serif" font-size="10.00">Tomographer::Logger</text>
<text text-anchor="start" x="496.464" y="-130.5" font-family="Helvetica,sans-Serif" font-size="10.00">::LoggerTraits&lt; OriginFiltered</text>
<text text-anchor="middle" x="561.447" y="-120.5" font-family="Helvetica,sans-Serif" font-size="10.00">Logger&lt; BaseLogger &gt; &gt;</text>
</a>
</g>
</g>
<!-- Node1&#45;&gt;Node5 -->
<g id="edge5" class="edge"><title>Node1&#45;&gt;Node5</title>
<path fill="none" stroke="midnightblue" d="M443.359,-151.592C458.311,-149.282 473.775,-146.893 488.371,-144.637"/>
<polygon fill="midnightblue" stroke="midnightblue" points="442.454,-148.191 433.106,-153.177 443.524,-155.108 442.454,-148.191"/>
</g>
<!-- Node6 -->
<g id="node7" class="node"><title>Node6</title>
<g id="a_node7"><a xlink:href="struct_tomographer_1_1_logger_1_1_logger_traits_3_01_origin_prefixed_logger_3_01_base_logger_01_4_01_4.html" target="_top" xlink:title="Specialized Traits for OriginPrefixedLogger – see LoggerTraits. ">
<polygon fill="none" stroke="black" points="486.794,-57.5 486.794,-95.5 636.1,-95.5 636.1,-57.5 486.794,-57.5"/>
<text text-anchor="start" x="494.794" y="-83.5" font-family="Helvetica,sans-Serif" font-size="10.00">Tomographer::Logger</text>
<text text-anchor="start" x="494.794" y="-73.5" font-family="Helvetica,sans-Serif" font-size="10.00">::LoggerTraits&lt; OriginPrefixed</text>
<text text-anchor="middle" x="561.447" y="-63.5" font-family="Helvetica,sans-Serif" font-size="10.00">Logger&lt; BaseLogger &gt; &gt;</text>
</a>
</g>
</g>
<!-- Node1&#45;&gt;Node6 -->
<g id="edge6" class="edge"><title>Node1&#45;&gt;Node6</title>
<path fill="none" stroke="midnightblue" d="M392.049,-145.255C413.637,-132.866 442.966,-116.991 470.073,-105.5 478.417,-101.963 487.348,-98.607 496.227,-95.5179"/>
<polygon fill="midnightblue" stroke="midnightblue" points="390.195,-142.284 383.3,-150.328 393.707,-148.34 390.195,-142.284"/>
</g>
<!-- Node8 -->
<g id="node9" class="node"><title>Node8</title>
<g id="a_node9"><a xlink:href="struct_tomographer_1_1_logger_1_1_logger_traits_3_01_local_logger_3_01_base_logger_type___01_4_01_4.html" target="_top" xlink:title="Specialized Traits for LocalLogger. See LoggerTraits&lt;BaseLoggerType_&gt; ">
<polygon fill="none" stroke="black" points="490.952,-0.5 490.952,-38.5 631.942,-38.5 631.942,-0.5 490.952,-0.5"/>
<text text-anchor="start" x="498.952" y="-26.5" font-family="Helvetica,sans-Serif" font-size="10.00">Tomographer::Logger</text>
<text text-anchor="start" x="498.952" y="-16.5" font-family="Helvetica,sans-Serif" font-size="10.00">::LoggerTraits&lt; LocalLogger</text>
<text text-anchor="middle" x="561.447" y="-6.5" font-family="Helvetica,sans-Serif" font-size="10.00">&lt; BaseLoggerType_ &gt; &gt;</text>
</a>
</g>
</g>
<!-- Node7&#45;&gt;Node8 -->
<g id="edge8" class="edge"><title>Node7&#45;&gt;Node8</title>
<path fill="none" stroke="midnightblue" d="M438.876,-47.9807C456.072,-43.9521 474.143,-39.7188 490.937,-35.7843"/>
<polygon fill="midnightblue" stroke="midnightblue" points="437.806,-44.6365 428.868,-50.3253 439.403,-51.452 437.806,-44.6365"/>
</g>
</g>
</svg>
        <g id="navigator" transform="translate(0 0)" fill="#404254">
                <rect fill="#f2f5e9" fill-opacity="0.5" stroke="#606060" stroke-width=".5" x="0" y="0" width="60" height="60"/>
                <use id="zoomplus" xlink:href="#zoomPlus" x="17" y="9" onmousedown="handleZoom(evt,'in')"/>
                <use id="zoomminus" xlink:href="#zoomMin" x="42" y="9" onmousedown="handleZoom(evt,'out')"/>
                <use id="reset" xlink:href="#resetDef" x="30" y="36" onmousedown="handleReset()"/>
                <g id="arrowUp" xlink:href="#dirArrow" transform="translate(30 24)" onmousedown="handlePan(0,-1)">
                  <use xlink:href="#rim" fill="#404040">
                        <set attributeName="fill" to="#808080" begin="arrowUp.mouseover" end="arrowUp.mouseout"/>
                  </use>
                  <path fill="none" stroke="white" stroke-width="1.5" d="M0,-3.0v7 M-2.5,-0.5L0,-3.0L2.5,-0.5"/>
                </g>
                <g id="arrowRight" xlink:href="#dirArrow" transform="rotate(90) translate(36 -43)" onmousedown="handlePan(1,0)">
                  <use xlink:href="#rim" fill="#404040">
                        <set attributeName="fill" to="#808080" begin="arrowRight.mouseover" end="arrowRight.mouseout"/>
                  </use>
                  <path fill="none" stroke="white" stroke-width="1.5" d="M0,-3.0v7 M-2.5,-0.5L0,-3.0L2.5,-0.5"/>
                </g>
                <g id="arrowDown" xlink:href="#dirArrow" transform="rotate(180) translate(-30 -48)" onmousedown="handlePan(0,1)">
                  <use xlink:href="#rim" fill="#404040">
                        <set attributeName="fill" to="#808080" begin="arrowDown.mouseover" end="arrowDown.mouseout"/>
                  </use>
                  <path fill="none" stroke="white" stroke-width="1.5" d="M0,-3.0v7 M-2.5,-0.5L0,-3.0L2.5,-0.5"/>
                </g>
                <g id="arrowLeft" xlink:href="#dirArrow" transform="rotate(270) translate(-36 17)" onmousedown="handlePan(-1,0)">
                  <use xlink:href="#rim" fill="#404040">
                        <set attributeName="fill" to="#808080" begin="arrowLeft.mouseover" end="arrowLeft.mouseout"/>
                  </use>
                  <path fill="none" stroke="white" stroke-width="1.5" d="M0,-3.0v7 M-2.5,-0.5L0,-3.0L2.5,-0.5"/>
                </g>
        </g>
        <svg viewBox="0 0 15 15" width="100%" height="30px" preserveAspectRatio="xMaxYMin meet">
         <g id="arrow_out" transform="scale(0.3 0.3)">
          <a xlink:href="struct_tomographer_1_1_logger_1_1_logger_traits__inherit__graph_org.svg" target="_base">
           <rect id="button" ry="5" rx="5" y="6" x="6" height="38" width="38"
                fill="#f2f5e9" fill-opacity="0.5" stroke="#606060" stroke-width="1.0"/>
           <path id="arrow"
             d="M 11.500037,31.436501 C 11.940474,20.09759 22.043105,11.32322 32.158766,21.979434 L 37.068811,17.246167 C 37.068811,17.246167 37.088388,32 37.088388,32 L 22.160133,31.978069 C 22.160133,31.978069 26.997745,27.140456 26.997745,27.140456 C 18.528582,18.264221 13.291696,25.230495 11.500037,31.436501 z"
             style="fill:#404040;"/>
          </a>
         </g>
        </svg>
</svg>
