<?xml version="1.0" encoding="UTF-8" standalone="no"?>
<!DOCTYPE svg PUBLIC "-//W3C//DTD SVG 1.1//EN"
 "http://www.w3.org/Graphics/SVG/1.1/DTD/svg11.dtd">
<!-- Generated by graphviz version 2.38.0 (20140413.2041)
 -->
<!-- Title: Tomographer::Logger::DefaultLoggerTraits Pages: 1 -->
<svg width="325pt" height="292pt"
 viewBox="0.00 0.00 325.23 292.00" xmlns="http://www.w3.org/2000/svg" xmlns:xlink="http://www.w3.org/1999/xlink">
<g id="graph0" class="graph" transform="scale(1 1) rotate(0) translate(4 288)">
<title>Tomographer::Logger::DefaultLoggerTraits</title>
<!-- Node0 -->
<g id="node1" class="node"><title>Node0</title>
<polygon fill="#bfbfbf" stroke="black" points="0,-135.5 0,-163.5 111.615,-163.5 111.615,-135.5 0,-135.5"/>
<text text-anchor="start" x="8" y="-151.5" font-family="Helvetica,sans-Serif" font-size="10.00">Tomographer::Logger</text>
<text text-anchor="middle" x="55.8076" y="-141.5" font-family="Helvetica,sans-Serif" font-size="10.00">::DefaultLoggerTraits</text>
</g>
<!-- Node1 -->
<g id="node2" class="node"><title>Node1</title>
<g id="a_node2"><a xlink:href="struct_tomographer_1_1_logger_1_1_logger_traits_3_01_boost_test_logger_01_4.html" target="_top" xlink:title="Tomographer::Logger\l::LoggerTraits\&lt; BoostTestLogger \&gt;">
<polygon fill="none" stroke="black" points="147.615,-255.5 147.615,-283.5 317.229,-283.5 317.229,-255.5 147.615,-255.5"/>
<text text-anchor="start" x="155.615" y="-271.5" font-family="Helvetica,sans-Serif" font-size="10.00">Tomographer::Logger</text>
<text text-anchor="middle" x="232.422" y="-261.5" font-family="Helvetica,sans-Serif" font-size="10.00">::LoggerTraits&lt; BoostTestLogger &gt;</text>
</a>
</g>
</g>
<!-- Node0&#45;&gt;Node1 -->
<g id="edge1" class="edge"><title>Node0&#45;&gt;Node1</title>
<path fill="none" stroke="midnightblue" d="M72.0053,-171.866C88.2134,-194.025 115.884,-227.346 147.615,-246.5 153.299,-249.931 159.504,-252.862 165.884,-255.363"/>
<polygon fill="midnightblue" stroke="midnightblue" points="74.8305,-169.799 66.1741,-163.691 69.1316,-173.864 74.8305,-169.799"/>
</g>
<!-- Node2 -->
<g id="node3" class="node"><title>Node2</title>
<g id="a_node3"><a xlink:href="struct_tomographer_1_1_logger_1_1_logger_traits_3_01_buffer_logger_01_4.html" target="_top" xlink:title="Specialized Traits for BufferLogger – see LoggerTraits. ">
<polygon fill="none" stroke="black" points="156.319,-208.5 156.319,-236.5 308.525,-236.5 308.525,-208.5 156.319,-208.5"/>
<text text-anchor="start" x="164.319" y="-224.5" font-family="Helvetica,sans-Serif" font-size="10.00">Tomographer::Logger</text>
<text text-anchor="middle" x="232.422" y="-214.5" font-family="Helvetica,sans-Serif" font-size="10.00">::LoggerTraits&lt; BufferLogger &gt;</text>
</a>
</g>
</g>
<!-- Node0&#45;&gt;Node2 -->
<g id="edge2" class="edge"><title>Node0&#45;&gt;Node2</title>
<path fill="none" stroke="midnightblue" d="M87.8332,-168.969C104.975,-179.108 126.932,-191.105 147.615,-199.5 155.724,-202.791 164.46,-205.772 173.123,-208.413"/>
<polygon fill="midnightblue" stroke="midnightblue" points="89.2176,-165.718 78.8442,-163.563 85.6098,-171.716 89.2176,-165.718"/>
</g>
<!-- Node3 -->
<g id="node4" class="node"><title>Node3</title>
<g id="a_node4"><a xlink:href="struct_tomographer_1_1_logger_1_1_logger_traits_3_01_file_logger_01_4.html" target="_top" xlink:title="Specialized Traits for FileLogger – see LoggerTraits. ">
<polygon fill="none" stroke="black" points="161.514,-161.5 161.514,-189.5 303.33,-189.5 303.33,-161.5 161.514,-161.5"/>
<text text-anchor="start" x="169.514" y="-177.5" font-family="Helvetica,sans-Serif" font-size="10.00">Tomographer::Logger</text>
<text text-anchor="middle" x="232.422" y="-167.5" font-family="Helvetica,sans-Serif" font-size="10.00">::LoggerTraits&lt; FileLogger &gt;</text>
</a>
</g>
</g>
<!-- Node0&#45;&gt;Node3 -->
<g id="edge3" class="edge"><title>Node0&#45;&gt;Node3</title>
<path fill="none" stroke="midnightblue" d="M122.174,-159.233C135,-161.143 148.5,-163.153 161.469,-165.084"/>
<polygon fill="midnightblue" stroke="midnightblue" points="122.463,-155.738 112.057,-157.727 121.432,-162.661 122.463,-155.738"/>
</g>
<!-- Node4 -->
<g id="node5" class="node"><title>Node4</title>
<g id="a_node5"><a xlink:href="struct_tomographer_1_1_logger_1_1_logger_traits_3_01tpy_1_1_gil_protected_py_logger_01_4.html" target="_top" xlink:title="Tomographer::Logger\l::LoggerTraits\&lt; tpy\l::GilProtectedPyLogger \&gt;">
<polygon fill="none" stroke="black" points="168.418,-104.5 168.418,-142.5 296.425,-142.5 296.425,-104.5 168.418,-104.5"/>
<text text-anchor="start" x="176.418" y="-130.5" font-family="Helvetica,sans-Serif" font-size="10.00">Tomographer::Logger</text>
<text text-anchor="start" x="176.418" y="-120.5" font-family="Helvetica,sans-Serif" font-size="10.00">::LoggerTraits&lt; tpy</text>
<text text-anchor="middle" x="232.422" y="-110.5" font-family="Helvetica,sans-Serif" font-size="10.00">::GilProtectedPyLogger &gt;</text>
</a>
</g>
</g>
<!-- Node0&#45;&gt;Node4 -->
<g id="edge4" class="edge"><title>Node0&#45;&gt;Node4</title>
<path fill="none" stroke="midnightblue" d="M122.313,-139.746C137.375,-137.504 153.362,-135.123 168.32,-132.896"/>
<polygon fill="midnightblue" stroke="midnightblue" points="121.432,-136.339 112.057,-141.273 122.463,-143.262 121.432,-136.339"/>
</g>
<!-- Node5 -->
<g id="node6" class="node"><title>Node5</title>
<g id="a_node6"><a xlink:href="struct_tomographer_1_1_logger_1_1_logger_traits_3_01tpy_1_1_py_logger_01_4.html" target="_top" xlink:title="Tomographer::Logger\l::LoggerTraits\&lt; tpy\l::PyLogger \&gt;">
<polygon fill="none" stroke="black" points="176.614,-47.5 176.614,-85.5 288.229,-85.5 288.229,-47.5 176.614,-47.5"/>
<text text-anchor="start" x="184.614" y="-73.5" font-family="Helvetica,sans-Serif" font-size="10.00">Tomographer::Logger</text>
<text text-anchor="start" x="184.614" y="-63.5" font-family="Helvetica,sans-Serif" font-size="10.00">::LoggerTraits&lt; tpy</text>
<text text-anchor="middle" x="232.422" y="-53.5" font-family="Helvetica,sans-Serif" font-size="10.00">::PyLogger &gt;</text>
</a>
</g>
</g>
<!-- Node0&#45;&gt;Node5 -->
<g id="edge5" class="edge"><title>Node0&#45;&gt;Node5</title>
<path fill="none" stroke="midnightblue" d="M86.3498,-129.849C103.714,-118.834 126.366,-105.369 147.615,-95.5 156.692,-91.2844 166.562,-87.34 176.237,-83.8008"/>
<polygon fill="midnightblue" stroke="midnightblue" points="84.3058,-127.002 77.7866,-135.353 88.0911,-132.89 84.3058,-127.002"/>
</g>
<!-- Node6 -->
<g id="node7" class="node"><title>Node6</title>
<g id="a_node7"><a xlink:href="struct_tomographer_1_1_logger_1_1_logger_traits_3_01_vacuum_logger_01_4.html" target="_top" xlink:title="Specialied Traits for VacuumLogger. See LoggerTraits&lt;BaseLogger&gt;. ">
<polygon fill="none" stroke="black" points="151.597,-0.5 151.597,-28.5 313.247,-28.5 313.247,-0.5 151.597,-0.5"/>
<text text-anchor="start" x="159.597" y="-16.5" font-family="Helvetica,sans-Serif" font-size="10.00">Tomographer::Logger</text>
<text text-anchor="middle" x="232.422" y="-6.5" font-family="Helvetica,sans-Serif" font-size="10.00">::LoggerTraits&lt; VacuumLogger &gt;</text>
</a>
</g>
</g>
<!-- Node0&#45;&gt;Node6 -->
<g id="edge6" class="edge"><title>Node0&#45;&gt;Node6</title>
<path fill="none" stroke="midnightblue" d="M69.8358,-126.329C85.2191,-101.059 113.128,-61.1947 147.615,-38.5 153.557,-34.5898 160.142,-31.3064 166.934,-28.5514"/>
<polygon fill="midnightblue" stroke="midnightblue" points="66.6472,-124.845 64.5657,-135.233 72.6711,-128.41 66.6472,-124.845"/>
</g>
</g>
</svg>
