<?xml version="1.0" encoding="UTF-8" standalone="no"?>
<!DOCTYPE svg PUBLIC "-//W3C//DTD SVG 1.1//EN"
 "http://www.w3.org/Graphics/SVG/1.1/DTD/svg11.dtd">
<!-- Generated by graphviz version 2.38.0 (20140413.2041)
 -->
<!-- Title: tomographer/valuecalculator.h Pages: 1 -->
<svg width="1086pt" height="257pt"
 viewBox="0.00 0.00 1086.25 257.00" xmlns="http://www.w3.org/2000/svg" xmlns:xlink="http://www.w3.org/1999/xlink">
<g id="graph0" class="graph" transform="scale(1 1) rotate(0) translate(4 253)">
<title>tomographer/valuecalculator.h</title>
<!-- Node0 -->
<g id="node1" class="node"><title>Node0</title>
<polygon fill="#bfbfbf" stroke="black" points="501.195,-230.5 501.195,-248.5 651.17,-248.5 651.17,-230.5 501.195,-230.5"/>
<text text-anchor="middle" x="576.183" y="-236.5" font-family="Helvetica,sans-Serif" font-size="10.00">tomographer/valuecalculator.h</text>
</g>
<!-- Node1 -->
<g id="node2" class="node"><title>Node1</title>
<polygon fill="none" stroke="#bfbfbf" points="510.34,-175.5 510.34,-193.5 548.025,-193.5 548.025,-175.5 510.34,-175.5"/>
<text text-anchor="middle" x="529.183" y="-181.5" font-family="Helvetica,sans-Serif" font-size="10.00">tuple</text>
</g>
<!-- Node0&#45;&gt;Node1 -->
<g id="edge1" class="edge"><title>Node0&#45;&gt;Node1</title>
<path fill="none" stroke="midnightblue" d="M568.839,-230.219C561.97,-222.473 551.531,-210.701 543.088,-201.18"/>
<polygon fill="midnightblue" stroke="midnightblue" points="545.575,-198.709 536.321,-193.55 540.337,-203.354 545.575,-198.709"/>
</g>
<!-- Node2 -->
<g id="node3" class="node"><title>Node2</title>
<g id="a_node3"><a xlink:href="cxxutil_8h.html" target="_top" xlink:title="Some C++ utilities, with a tad of C++11 tricks. ">
<polygon fill="none" stroke="black" points="508.432,-120.5 508.432,-138.5 643.934,-138.5 643.934,-120.5 508.432,-120.5"/>
<text text-anchor="middle" x="576.183" y="-126.5" font-family="Helvetica,sans-Serif" font-size="10.00">tomographer/tools/cxxutil.h</text>
</a>
</g>
</g>
<!-- Node0&#45;&gt;Node2 -->
<g id="edge2" class="edge"><title>Node0&#45;&gt;Node2</title>
<path fill="none" stroke="midnightblue" d="M576.183,-230.382C576.183,-213.182 576.183,-172.698 576.183,-148.887"/>
<polygon fill="midnightblue" stroke="midnightblue" points="579.683,-148.712 576.183,-138.712 572.683,-148.712 579.683,-148.712"/>
</g>
<!-- Node18 -->
<g id="node19" class="node"><title>Node18</title>
<g id="a_node19"><a xlink:href="needownoperatornew_8h.html" target="_top" xlink:title="Managing the need for specific overrides to operator new() for some types (especially Eigen types) ...">
<polygon fill="none" stroke="black" points="604.506,-175.5 604.506,-193.5 807.859,-193.5 807.859,-175.5 604.506,-175.5"/>
<text text-anchor="middle" x="706.183" y="-181.5" font-family="Helvetica,sans-Serif" font-size="10.00">tomographer/tools/needownoperatornew.h</text>
</a>
</g>
</g>
<!-- Node0&#45;&gt;Node18 -->
<g id="edge21" class="edge"><title>Node0&#45;&gt;Node18</title>
<path fill="none" stroke="midnightblue" d="M595.927,-230.45C617.498,-221.656 652.269,-207.48 676.993,-197.401"/>
<polygon fill="midnightblue" stroke="midnightblue" points="678.314,-200.642 686.253,-193.625 675.671,-194.16 678.314,-200.642"/>
</g>
<!-- Node3 -->
<g id="node4" class="node"><title>Node3</title>
<polygon fill="none" stroke="#bfbfbf" points="122.067,-0.5 122.067,-18.5 170.298,-18.5 170.298,-0.5 122.067,-0.5"/>
<text text-anchor="middle" x="146.183" y="-6.5" font-family="Helvetica,sans-Serif" font-size="10.00">cassert</text>
</g>
<!-- Node2&#45;&gt;Node3 -->
<g id="edge3" class="edge"><title>Node2&#45;&gt;Node3</title>
<path fill="none" stroke="midnightblue" d="M508.404,-128.23C365.059,-126.953 41.5295,-120.062 8.18272,-84 -25.783,-47.2691 60.6831,-25.3305 111.78,-15.923"/>
<polygon fill="midnightblue" stroke="midnightblue" points="112.547,-19.3418 121.786,-14.1563 111.33,-12.4484 112.547,-19.3418"/>
</g>
<!-- Node4 -->
<g id="node5" class="node"><title>Node4</title>
<polygon fill="none" stroke="#bfbfbf" points="517.062,-0.5 517.062,-18.5 565.303,-18.5 565.303,-0.5 517.062,-0.5"/>
<text text-anchor="middle" x="541.183" y="-6.5" font-family="Helvetica,sans-Serif" font-size="10.00">cstddef</text>
</g>
<!-- Node2&#45;&gt;Node4 -->
<g id="edge4" class="edge"><title>Node2&#45;&gt;Node4</title>
<path fill="none" stroke="midnightblue" d="M643.988,-121.955C693.755,-115.585 755.323,-103.886 771.183,-84 779.219,-73.9232 779.385,-64.9418 771.183,-55 746.816,-25.4666 633.879,-15.3043 575.835,-11.9944"/>
<polygon fill="midnightblue" stroke="midnightblue" points="575.842,-8.48991 565.67,-11.453 575.469,-15.48 575.842,-8.48991"/>
</g>
<!-- Node5 -->
<g id="node6" class="node"><title>Node5</title>
<polygon fill="none" stroke="#bfbfbf" points="731.01,-0.5 731.01,-18.5 775.355,-18.5 775.355,-0.5 731.01,-0.5"/>
<text text-anchor="middle" x="753.183" y="-6.5" font-family="Helvetica,sans-Serif" font-size="10.00">cstdlib</text>
</g>
<!-- Node2&#45;&gt;Node5 -->
<g id="edge5" class="edge"><title>Node2&#45;&gt;Node5</title>
<path fill="none" stroke="midnightblue" d="M632.445,-120.461C692.148,-111.357 779.265,-96.2033 789.183,-84 803.529,-66.3469 785.853,-42.0285 770.595,-26.2851"/>
<polygon fill="midnightblue" stroke="midnightblue" points="772.628,-23.3793 763.019,-18.9147 767.746,-28.3966 772.628,-23.3793"/>
</g>
<!-- Node6 -->
<g id="node7" class="node"><title>Node6</title>
<polygon fill="none" stroke="#bfbfbf" points="17.0104,-60.5 17.0104,-78.5 71.3551,-78.5 71.3551,-60.5 17.0104,-60.5"/>
<text text-anchor="middle" x="44.1827" y="-66.5" font-family="Helvetica,sans-Serif" font-size="10.00">iostream</text>
</g>
<!-- Node2&#45;&gt;Node6 -->
<g id="edge6" class="edge"><title>Node2&#45;&gt;Node6</title>
<path fill="none" stroke="midnightblue" d="M508.298,-128.157C411.921,-126.379 230.438,-118.251 80.1827,-84 77.6771,-83.4288 75.1109,-82.7241 72.5591,-81.939"/>
<polygon fill="midnightblue" stroke="midnightblue" points="73.5409,-78.5754 62.9462,-78.6244 71.259,-85.193 73.5409,-78.5754"/>
</g>
<!-- Node7 -->
<g id="node8" class="node"><title>Node7</title>
<polygon fill="none" stroke="#bfbfbf" points="89.5646,-60.5 89.5646,-78.5 142.801,-78.5 142.801,-60.5 89.5646,-60.5"/>
<text text-anchor="middle" x="116.183" y="-66.5" font-family="Helvetica,sans-Serif" font-size="10.00">complex</text>
</g>
<!-- Node2&#45;&gt;Node7 -->
<g id="edge7" class="edge"><title>Node2&#45;&gt;Node7</title>
<path fill="none" stroke="midnightblue" d="M508.104,-126.667C423.599,-123.182 275.548,-113.103 152.183,-84 149.682,-83.4099 147.118,-82.692 144.569,-81.8981"/>
<polygon fill="midnightblue" stroke="midnightblue" points="145.554,-78.5354 134.959,-78.5686 143.262,-85.1496 145.554,-78.5354"/>
</g>
<!-- Node8 -->
<g id="node9" class="node"><title>Node8</title>
<polygon fill="none" stroke="#bfbfbf" points="1016.12,-60.5 1016.12,-78.5 1078.25,-78.5 1078.25,-60.5 1016.12,-60.5"/>
<text text-anchor="middle" x="1047.18" y="-66.5" font-family="Helvetica,sans-Serif" font-size="10.00">type_traits</text>
</g>
<!-- Node2&#45;&gt;Node8 -->
<g id="edge8" class="edge"><title>Node2&#45;&gt;Node8</title>
<path fill="none" stroke="midnightblue" d="M644.201,-121.672C763.425,-109.678 998.42,-85.9062 1007.18,-84 1010.24,-83.336 1013.38,-82.5188 1016.5,-81.6179"/>
<polygon fill="midnightblue" stroke="midnightblue" points="1017.77,-84.8873 1026.26,-78.5398 1015.67,-78.2118 1017.77,-84.8873"/>
</g>
<!-- Node9 -->
<g id="node10" class="node"><title>Node9</title>
<polygon fill="none" stroke="#bfbfbf" points="160.779,-60.5 160.779,-78.5 219.587,-78.5 219.587,-60.5 160.779,-60.5"/>
<text text-anchor="middle" x="190.183" y="-66.5" font-family="Helvetica,sans-Serif" font-size="10.00">exception</text>
</g>
<!-- Node2&#45;&gt;Node9 -->
<g id="edge9" class="edge"><title>Node2&#45;&gt;Node9</title>
<path fill="none" stroke="midnightblue" d="M508.279,-123.942C437.787,-118.248 324.68,-106.4 229.183,-84 226.371,-83.3404 223.477,-82.5538 220.598,-81.6965"/>
<polygon fill="midnightblue" stroke="midnightblue" points="221.591,-78.3395 211,-78.5915 219.437,-84.9996 221.591,-78.3395"/>
</g>
<!-- Node10 -->
<g id="node11" class="node"><title>Node10</title>
<polygon fill="none" stroke="#bfbfbf" points="237.781,-60.5 237.781,-78.5 296.584,-78.5 296.584,-60.5 237.781,-60.5"/>
<text text-anchor="middle" x="267.183" y="-66.5" font-family="Helvetica,sans-Serif" font-size="10.00">stdexcept</text>
</g>
<!-- Node2&#45;&gt;Node10 -->
<g id="edge10" class="edge"><title>Node2&#45;&gt;Node10</title>
<path fill="none" stroke="midnightblue" d="M508.388,-120.783C453.146,-113.681 373.402,-101.569 305.183,-84 302.691,-83.3583 300.132,-82.6227 297.575,-81.8332"/>
<polygon fill="midnightblue" stroke="midnightblue" points="298.475,-78.4438 287.881,-78.6071 296.264,-85.0857 298.475,-78.4438"/>
</g>
<!-- Node11 -->
<g id="node12" class="node"><title>Node11</title>
<g id="a_node12"><a xlink:href="cxxdefs_8h.html" target="_top" xlink:title="Basic definitions, which may have to be defined before any Eigen headers or further utilities are inc...">
<polygon fill="none" stroke="black" points="314.373,-60.5 314.373,-78.5 455.993,-78.5 455.993,-60.5 314.373,-60.5"/>
<text text-anchor="middle" x="385.183" y="-66.5" font-family="Helvetica,sans-Serif" font-size="10.00">tomographer/tools/cxxdefs.h</text>
</a>
</g>
</g>
<!-- Node2&#45;&gt;Node11 -->
<g id="edge11" class="edge"><title>Node2&#45;&gt;Node11</title>
<path fill="none" stroke="midnightblue" d="M549.625,-120.435C516.364,-110.335 459.211,-92.9798 421.811,-81.6227"/>
<polygon fill="midnightblue" stroke="midnightblue" points="422.408,-78.1461 411.822,-78.5894 420.374,-84.8441 422.408,-78.1461"/>
</g>
<!-- Node13 -->
<g id="node14" class="node"><title>Node13</title>
<g id="a_node14"><a xlink:href="conststr_8h.html" target="_top" xlink:title="A constexpr string type, suitable for basic compile&#45;time string processing. ">
<polygon fill="none" stroke="black" points="856.092,-60.5 856.092,-78.5 998.274,-78.5 998.274,-60.5 856.092,-60.5"/>
<text text-anchor="middle" x="927.183" y="-66.5" font-family="Helvetica,sans-Serif" font-size="10.00">tomographer/tools/conststr.h</text>
</a>
</g>
</g>
<!-- Node2&#45;&gt;Node13 -->
<g id="edge16" class="edge"><title>Node2&#45;&gt;Node13</title>
<path fill="none" stroke="midnightblue" d="M624.619,-120.496C688.301,-109.973 800.09,-91.501 868.5,-80.1969"/>
<polygon fill="midnightblue" stroke="midnightblue" points="869.384,-83.5983 878.68,-78.5147 868.243,-76.6919 869.384,-83.5983"/>
</g>
<!-- Node15 -->
<g id="node16" class="node"><title>Node15</title>
<polygon fill="none" stroke="#bfbfbf" points="473.713,-60.5 473.713,-78.5 568.653,-78.5 568.653,-60.5 473.713,-60.5"/>
<text text-anchor="middle" x="521.183" y="-66.5" font-family="Helvetica,sans-Serif" font-size="10.00">boost/version.hpp</text>
</g>
<!-- Node2&#45;&gt;Node15 -->
<g id="edge18" class="edge"><title>Node2&#45;&gt;Node15</title>
<path fill="none" stroke="midnightblue" d="M568.535,-120.435C560.175,-111.619 546.572,-97.2743 536.086,-86.2165"/>
<polygon fill="midnightblue" stroke="midnightblue" points="538.542,-83.7197 529.121,-78.8718 533.463,-88.5364 538.542,-83.7197"/>
</g>
<!-- Node16 -->
<g id="node17" class="node"><title>Node16</title>
<polygon fill="none" stroke="#bfbfbf" points="586.658,-55.5 586.658,-83.5 677.707,-83.5 677.707,-55.5 586.658,-55.5"/>
<text text-anchor="start" x="594.658" y="-71.5" font-family="Helvetica,sans-Serif" font-size="10.00">boost/units/detail</text>
<text text-anchor="middle" x="632.183" y="-61.5" font-family="Helvetica,sans-Serif" font-size="10.00">/utility.hpp</text>
</g>
<!-- Node2&#45;&gt;Node16 -->
<g id="edge19" class="edge"><title>Node2&#45;&gt;Node16</title>
<path fill="none" stroke="midnightblue" d="M583.969,-120.435C591.25,-112.895 602.434,-101.311 612.198,-91.1982"/>
<polygon fill="midnightblue" stroke="midnightblue" points="614.872,-93.4679 619.3,-83.8428 609.836,-88.6057 614.872,-93.4679"/>
</g>
<!-- Node17 -->
<g id="node18" class="node"><title>Node17</title>
<polygon fill="none" stroke="#bfbfbf" points="696.168,-60.5 696.168,-78.5 762.197,-78.5 762.197,-60.5 696.168,-60.5"/>
<text text-anchor="middle" x="729.183" y="-66.5" font-family="Helvetica,sans-Serif" font-size="10.00">Eigen/Core</text>
</g>
<!-- Node2&#45;&gt;Node17 -->
<g id="edge20" class="edge"><title>Node2&#45;&gt;Node17</title>
<path fill="none" stroke="midnightblue" d="M597.457,-120.435C623.571,-110.536 668.071,-93.6664 698.038,-82.3064"/>
<polygon fill="midnightblue" stroke="midnightblue" points="699.486,-85.5006 707.596,-78.6831 697.005,-78.9552 699.486,-85.5006"/>
</g>
<!-- Node11&#45;&gt;Node3 -->
<g id="edge12" class="edge"><title>Node11&#45;&gt;Node3</title>
<path fill="none" stroke="midnightblue" d="M351.951,-60.4353C306.638,-49.4389 225.89,-29.8432 180.181,-18.7507"/>
<polygon fill="midnightblue" stroke="midnightblue" points="180.986,-15.3444 170.442,-16.3873 179.335,-22.1469 180.986,-15.3444"/>
</g>
<!-- Node11&#45;&gt;Node4 -->
<g id="edge13" class="edge"><title>Node11&#45;&gt;Node4</title>
<path fill="none" stroke="midnightblue" d="M406.874,-60.4353C433.576,-50.5077 479.13,-33.5711 509.686,-22.2103"/>
<polygon fill="midnightblue" stroke="midnightblue" points="511.272,-25.355 519.425,-18.5894 508.832,-18.7938 511.272,-25.355"/>
</g>
<!-- Node11&#45;&gt;Node5 -->
<g id="edge14" class="edge"><title>Node11&#45;&gt;Node5</title>
<path fill="none" stroke="midnightblue" d="M432.12,-60.4674C442.973,-58.6413 454.476,-56.7305 465.183,-55 557.7,-40.0469 667.119,-23.4343 720.54,-15.3929"/>
<polygon fill="midnightblue" stroke="midnightblue" points="721.392,-18.8043 730.76,-13.8563 720.351,-11.8821 721.392,-18.8043"/>
</g>
<!-- Node12 -->
<g id="node13" class="node"><title>Node12</title>
<polygon fill="none" stroke="#bfbfbf" points="345.215,-0.5 345.215,-18.5 425.15,-18.5 425.15,-0.5 345.215,-0.5"/>
<text text-anchor="middle" x="385.183" y="-6.5" font-family="Helvetica,sans-Serif" font-size="10.00">boost/predef.h</text>
</g>
<!-- Node11&#45;&gt;Node12 -->
<g id="edge15" class="edge"><title>Node11&#45;&gt;Node12</title>
<path fill="none" stroke="midnightblue" d="M385.183,-60.4353C385.183,-52.3891 385.183,-39.7388 385.183,-29.1846"/>
<polygon fill="midnightblue" stroke="midnightblue" points="388.683,-28.8717 385.183,-18.8718 381.683,-28.8718 388.683,-28.8717"/>
</g>
<!-- Node14 -->
<g id="node15" class="node"><title>Node14</title>
<polygon fill="none" stroke="#bfbfbf" points="906.956,-0.5 906.956,-18.5 947.409,-18.5 947.409,-0.5 906.956,-0.5"/>
<text text-anchor="middle" x="927.183" y="-6.5" font-family="Helvetica,sans-Serif" font-size="10.00">string</text>
</g>
<!-- Node13&#45;&gt;Node14 -->
<g id="edge17" class="edge"><title>Node13&#45;&gt;Node14</title>
<path fill="none" stroke="midnightblue" d="M927.183,-60.4353C927.183,-52.3891 927.183,-39.7388 927.183,-29.1846"/>
<polygon fill="midnightblue" stroke="midnightblue" points="930.683,-28.8717 927.183,-18.8718 923.683,-28.8718 930.683,-28.8717"/>
</g>
<!-- Node18&#45;&gt;Node2 -->
<g id="edge24" class="edge"><title>Node18&#45;&gt;Node2</title>
<path fill="none" stroke="midnightblue" d="M686.439,-175.45C664.868,-166.656 630.096,-152.48 605.373,-142.401"/>
<polygon fill="midnightblue" stroke="midnightblue" points="606.694,-139.16 596.113,-138.625 604.051,-145.642 606.694,-139.16"/>
</g>
<!-- Node18&#45;&gt;Node8 -->
<g id="edge22" class="edge"><title>Node18&#45;&gt;Node8</title>
<path fill="none" stroke="midnightblue" d="M730.781,-175.426C782.158,-158.551 904.604,-118.264 1007.18,-84 1009.33,-83.2831 1011.54,-82.5427 1013.77,-81.795"/>
<polygon fill="midnightblue" stroke="midnightblue" points="1015.14,-85.026 1023.5,-78.5196 1012.91,-78.3915 1015.14,-85.026"/>
</g>
<!-- Node19 -->
<g id="node20" class="node"><title>Node19</title>
<polygon fill="none" stroke="#bfbfbf" points="671.217,-120.5 671.217,-138.5 741.148,-138.5 741.148,-120.5 671.217,-120.5"/>
<text text-anchor="middle" x="706.183" y="-126.5" font-family="Helvetica,sans-Serif" font-size="10.00">Eigen/Eigen</text>
</g>
<!-- Node18&#45;&gt;Node19 -->
<g id="edge23" class="edge"><title>Node18&#45;&gt;Node19</title>
<path fill="none" stroke="midnightblue" d="M706.183,-175.219C706.183,-168.177 706.183,-157.808 706.183,-148.828"/>
<polygon fill="midnightblue" stroke="midnightblue" points="709.683,-148.55 706.183,-138.55 702.683,-148.55 709.683,-148.55"/>
</g>
</g>
</svg>
