<?xml version="1.0" encoding="UTF-8" standalone="no"?>
<!DOCTYPE svg PUBLIC "-//W3C//DTD SVG 1.1//EN"
 "http://www.w3.org/Graphics/SVG/1.1/DTD/svg11.dtd">
<!-- Generated by graphviz version 2.38.0 (20140413.2041)
 -->
<!-- Title: Tomographer::UniformBinsHistogramWithErrorBars&lt; Scalar_, CountType_ &gt; Pages: 1 -->
<svg width="1621pt" height="233pt"
 viewBox="0.00 0.00 1621.10 233.00" xmlns="http://www.w3.org/2000/svg" xmlns:xlink="http://www.w3.org/1999/xlink">
<g id="graph0" class="graph" transform="scale(1 1) rotate(0) translate(4 229)">
<title>Tomographer::UniformBinsHistogramWithErrorBars&lt; Scalar_, CountType_ &gt;</title>
<!-- Node0 -->
<g id="node1" class="node"><title>Node0</title>
<polygon fill="#bfbfbf" stroke="black" points="423.393,-85.5 423.393,-123.5 558.328,-123.5 558.328,-85.5 423.393,-85.5"/>
<text text-anchor="start" x="431.393" y="-111.5" font-family="Helvetica,sans-Serif" font-size="10.00">Tomographer::UniformBins</text>
<text text-anchor="start" x="431.393" y="-101.5" font-family="Helvetica,sans-Serif" font-size="10.00">HistogramWithErrorBars</text>
<text text-anchor="middle" x="490.86" y="-91.5" font-family="Helvetica,sans-Serif" font-size="10.00">&lt; Scalar_, CountType_ &gt;</text>
</g>
<!-- Node3 -->
<g id="node4" class="node"><title>Node3</title>
<g id="a_node4"><a xlink:href="class_tomographer_1_1_uniform_bins_histogram_with_error_bars.html" target="_top" xlink:title="Tomographer::UniformBins\lHistogramWithErrorBars\l\&lt; HistogramType_::Scalar,\l RealAvgType \&gt;">
<polygon fill="none" stroke="black" points="734.118,-113.5 734.118,-161.5 869.054,-161.5 869.054,-113.5 734.118,-113.5"/>
<text text-anchor="start" x="742.118" y="-149.5" font-family="Helvetica,sans-Serif" font-size="10.00">Tomographer::UniformBins</text>
<text text-anchor="start" x="742.118" y="-139.5" font-family="Helvetica,sans-Serif" font-size="10.00">HistogramWithErrorBars</text>
<text text-anchor="start" x="742.118" y="-129.5" font-family="Helvetica,sans-Serif" font-size="10.00">&lt; HistogramType_::Scalar,</text>
<text text-anchor="middle" x="801.586" y="-119.5" font-family="Helvetica,sans-Serif" font-size="10.00"> RealAvgType &gt;</text>
</a>
</g>
</g>
<!-- Node0&#45;&gt;Node3 -->
<g id="edge4" class="edge"><title>Node0&#45;&gt;Node3</title>
<path fill="none" stroke="orange" stroke-dasharray="5,2" d="M568.43,-112.685C619.301,-118.122 685.434,-125.191 734.097,-130.393"/>
<polygon fill="orange" stroke="orange" points="568.785,-109.203 558.469,-111.62 568.04,-116.163 568.785,-109.203"/>
<text text-anchor="start" x="586.052" y="-140.5" font-family="Helvetica,sans-Serif" font-size="10.00"> &lt; HistogramType_::Scalar,</text>
<text text-anchor="middle" x="646.223" y="-130.5" font-family="Helvetica,sans-Serif" font-size="10.00"> RealAvgType &gt;</text>
</g>
<!-- Node8 -->
<g id="node9" class="node"><title>Node8</title>
<g id="a_node9"><a xlink:href="class_tomographer_1_1_uniform_bins_histogram_with_error_bars.html" target="_top" xlink:title="Tomographer::UniformBins\lHistogramWithErrorBars\l\&lt; ScaledHistogramType \l::Scalar, CountRealType \&gt;">
<polygon fill="none" stroke="black" points="896.092,-176.5 896.092,-224.5 1031.03,-224.5 1031.03,-176.5 896.092,-176.5"/>
<text text-anchor="start" x="904.092" y="-212.5" font-family="Helvetica,sans-Serif" font-size="10.00">Tomographer::UniformBins</text>
<text text-anchor="start" x="904.092" y="-202.5" font-family="Helvetica,sans-Serif" font-size="10.00">HistogramWithErrorBars</text>
<text text-anchor="start" x="904.092" y="-192.5" font-family="Helvetica,sans-Serif" font-size="10.00">&lt; ScaledHistogramType </text>
<text text-anchor="middle" x="963.56" y="-182.5" font-family="Helvetica,sans-Serif" font-size="10.00">::Scalar, CountRealType &gt;</text>
</a>
</g>
</g>
<!-- Node0&#45;&gt;Node8 -->
<g id="edge9" class="edge"><title>Node0&#45;&gt;Node8</title>
<path fill="none" stroke="orange" stroke-dasharray="5,2" d="M527.739,-129.038C542.231,-137.819 559.491,-146.916 576.328,-152.5 684.396,-188.337 817.531,-197.793 895.915,-200.07"/>
<polygon fill="orange" stroke="orange" points="529.437,-125.972 519.101,-123.645 525.73,-131.91 529.437,-125.972"/>
<text text-anchor="start" x="586.602" y="-196.5" font-family="Helvetica,sans-Serif" font-size="10.00"> &lt; ScaledHistogramType</text>
<text text-anchor="middle" x="646.223" y="-186.5" font-family="Helvetica,sans-Serif" font-size="10.00"> ::Scalar, CountRealType &gt;</text>
</g>
<!-- Node9 -->
<g id="node10" class="node"><title>Node9</title>
<g id="a_node10"><a xlink:href="class_tomographer_1_1_uniform_bins_histogram_with_error_bars.html" target="_top" xlink:title="Tomographer::UniformBins\lHistogramWithErrorBars\l\&lt; HistogramType ::Scalar,\l CountRealType \&gt;">
<polygon fill="none" stroke="black" points="1076.05,-0.5 1076.05,-48.5 1210.99,-48.5 1210.99,-0.5 1076.05,-0.5"/>
<text text-anchor="start" x="1084.05" y="-36.5" font-family="Helvetica,sans-Serif" font-size="10.00">Tomographer::UniformBins</text>
<text text-anchor="start" x="1084.05" y="-26.5" font-family="Helvetica,sans-Serif" font-size="10.00">HistogramWithErrorBars</text>
<text text-anchor="start" x="1084.05" y="-16.5" font-family="Helvetica,sans-Serif" font-size="10.00">&lt; HistogramType ::Scalar,</text>
<text text-anchor="middle" x="1143.52" y="-6.5" font-family="Helvetica,sans-Serif" font-size="10.00"> CountRealType &gt;</text>
</a>
</g>
</g>
<!-- Node0&#45;&gt;Node9 -->
<g id="edge11" class="edge"><title>Node0&#45;&gt;Node9</title>
<path fill="none" stroke="orange" stroke-dasharray="5,2" d="M559.733,-82.6196C565.319,-81.1208 570.902,-79.7229 576.328,-78.5 753.811,-38.4991 969.107,-28.1053 1075.85,-25.4212"/>
<polygon fill="orange" stroke="orange" points="558.401,-79.3571 549.705,-85.4104 560.278,-86.1008 558.401,-79.3571"/>
<text text-anchor="start" x="742.807" y="-62.5" font-family="Helvetica,sans-Serif" font-size="10.00"> &lt; HistogramType ::Scalar,</text>
<text text-anchor="middle" x="801.586" y="-52.5" font-family="Helvetica,sans-Serif" font-size="10.00"> CountRealType &gt;</text>
</g>
<!-- Node10 -->
<g id="node11" class="node"><title>Node10</title>
<g id="a_node11"><a xlink:href="class_tomographer_1_1_uniform_bins_histogram_with_error_bars.html" target="_top" xlink:title="Tomographer::UniformBins\lHistogramWithErrorBars\l\&lt; SimpleScaledHistogramType\l ::Scalar, double \&gt;">
<polygon fill="none" stroke="black" points="887.054,-56.5 887.054,-104.5 1040.07,-104.5 1040.07,-56.5 887.054,-56.5"/>
<text text-anchor="start" x="895.054" y="-92.5" font-family="Helvetica,sans-Serif" font-size="10.00">Tomographer::UniformBins</text>
<text text-anchor="start" x="895.054" y="-82.5" font-family="Helvetica,sans-Serif" font-size="10.00">HistogramWithErrorBars</text>
<text text-anchor="start" x="895.054" y="-72.5" font-family="Helvetica,sans-Serif" font-size="10.00">&lt; SimpleScaledHistogramType</text>
<text text-anchor="middle" x="963.56" y="-62.5" font-family="Helvetica,sans-Serif" font-size="10.00"> ::Scalar, double &gt;</text>
</a>
</g>
</g>
<!-- Node0&#45;&gt;Node10 -->
<g id="edge13" class="edge"><title>Node0&#45;&gt;Node10</title>
<path fill="none" stroke="orange" stroke-dasharray="5,2" d="M568.654,-91.3075C571.24,-91.0116 573.803,-90.7408 576.328,-90.5 683.834,-80.2488 808.881,-78.9364 886.885,-79.3741"/>
<polygon fill="orange" stroke="orange" points="568.094,-87.8501 558.604,-92.562 568.961,-94.7962 568.094,-87.8501"/>
<text text-anchor="start" x="576.328" y="-102.5" font-family="Helvetica,sans-Serif" font-size="10.00"> &lt; SimpleScaledHistogramType</text>
<text text-anchor="middle" x="646.223" y="-92.5" font-family="Helvetica,sans-Serif" font-size="10.00"> ::Scalar, double &gt;</text>
</g>
<!-- Node1 -->
<g id="node2" class="node"><title>Node1</title>
<g id="a_node2"><a xlink:href="class_tomographer_1_1_uniform_bins_histogram.html" target="_top" xlink:title="Stores a histogram. ">
<polygon fill="none" stroke="black" points="214.196,-116.5 214.196,-144.5 386.393,-144.5 386.393,-116.5 214.196,-116.5"/>
<text text-anchor="start" x="222.196" y="-132.5" font-family="Helvetica,sans-Serif" font-size="10.00">Tomographer::UniformBins</text>
<text text-anchor="middle" x="300.294" y="-122.5" font-family="Helvetica,sans-Serif" font-size="10.00">Histogram&lt; Scalar_, CountType_ &gt;</text>
</a>
</g>
</g>
<!-- Node1&#45;&gt;Node0 -->
<g id="edge1" class="edge"><title>Node1&#45;&gt;Node0</title>
<path fill="none" stroke="midnightblue" d="M396.592,-117.36C405.564,-116.123 414.524,-114.888 423.146,-113.699"/>
<polygon fill="midnightblue" stroke="midnightblue" points="395.903,-113.922 386.475,-118.755 396.859,-120.856 395.903,-113.922"/>
</g>
<!-- Node2 -->
<g id="node3" class="node"><title>Node2</title>
<g id="a_node3"><a xlink:href="struct_tomographer_1_1_tools_1_1_eigen_aligned_operator_new_provider.html" target="_top" xlink:title="Provides correct operator&#45;new implementation for Eigen types via the NeedOwnOperatorNew mechanism...">
<polygon fill="none" stroke="black" points="0,-90.5 0,-118.5 177.196,-118.5 177.196,-90.5 0,-90.5"/>
<text text-anchor="start" x="8" y="-106.5" font-family="Helvetica,sans-Serif" font-size="10.00">Tomographer::Tools</text>
<text text-anchor="middle" x="88.5981" y="-96.5" font-family="Helvetica,sans-Serif" font-size="10.00">::EigenAlignedOperatorNewProvider</text>
</a>
</g>
</g>
<!-- Node2&#45;&gt;Node0 -->
<g id="edge3" class="edge"><title>Node2&#45;&gt;Node0</title>
<path fill="none" stroke="midnightblue" d="M187.601,-104.5C260.848,-104.5 359.029,-104.5 423.333,-104.5"/>
<polygon fill="midnightblue" stroke="midnightblue" points="187.437,-101 177.437,-104.5 187.437,-108 187.437,-101"/>
</g>
<!-- Node2&#45;&gt;Node1 -->
<g id="edge2" class="edge"><title>Node2&#45;&gt;Node1</title>
<path fill="none" stroke="midnightblue" d="M187.313,-116.616C196.208,-117.718 205.171,-118.83 213.946,-119.918"/>
<polygon fill="midnightblue" stroke="midnightblue" points="187.668,-113.133 177.313,-115.376 186.807,-120.08 187.668,-113.133"/>
</g>
<!-- Node4 -->
<g id="node5" class="node"><title>Node4</title>
<g id="a_node5"><a xlink:href="class_tomographer_1_1_averaged_histogram.html" target="_top" xlink:title="Combines several histograms (with same parameters) into an averaged histogram. ">
<polygon fill="none" stroke="black" points="1058.07,-138.5 1058.07,-166.5 1228.98,-166.5 1228.98,-138.5 1058.07,-138.5"/>
<text text-anchor="start" x="1066.07" y="-154.5" font-family="Helvetica,sans-Serif" font-size="10.00">Tomographer::AveragedHistogram</text>
<text text-anchor="middle" x="1143.52" y="-144.5" font-family="Helvetica,sans-Serif" font-size="10.00">&lt; HistogramType_, RealAvgType &gt;</text>
</a>
</g>
</g>
<!-- Node3&#45;&gt;Node4 -->
<g id="edge5" class="edge"><title>Node3&#45;&gt;Node4</title>
<path fill="none" stroke="midnightblue" d="M879.376,-140.888C932.457,-143.231 1003.09,-146.347 1057.81,-148.762"/>
<polygon fill="midnightblue" stroke="midnightblue" points="879.485,-137.39 869.341,-140.446 879.177,-144.383 879.485,-137.39"/>
</g>
<!-- Node5 -->
<g id="node6" class="node"><title>Node5</title>
<g id="a_node6"><a xlink:href="class_tomographer_1_1_averaged_histogram.html" target="_top" xlink:title="Tomographer::AveragedHistogram\l\&lt; ScaledHistogramType, CountRealType \&gt;">
<polygon fill="none" stroke="black" points="1407.55,-193.5 1407.55,-221.5 1613.1,-221.5 1613.1,-193.5 1407.55,-193.5"/>
<text text-anchor="start" x="1415.55" y="-209.5" font-family="Helvetica,sans-Serif" font-size="10.00">Tomographer::AveragedHistogram</text>
<text text-anchor="middle" x="1510.32" y="-199.5" font-family="Helvetica,sans-Serif" font-size="10.00">&lt; ScaledHistogramType, CountRealType &gt;</text>
</a>
</g>
</g>
<!-- Node4&#45;&gt;Node5 -->
<g id="edge6" class="edge"><title>Node4&#45;&gt;Node5</title>
<path fill="none" stroke="orange" stroke-dasharray="5,2" d="M1215.56,-168.583C1226.07,-170.72 1236.78,-172.768 1246.98,-174.5 1299.7,-183.459 1358.77,-191.098 1407.49,-196.764"/>
<polygon fill="orange" stroke="orange" points="1216.08,-165.116 1205.58,-166.513 1214.66,-171.97 1216.08,-165.116"/>
<text text-anchor="start" x="1262.26" y="-207.5" font-family="Helvetica,sans-Serif" font-size="10.00"> &lt; ScaledHistogramType,</text>
<text text-anchor="middle" x="1318.26" y="-197.5" font-family="Helvetica,sans-Serif" font-size="10.00"> CountRealType &gt;</text>
</g>
<!-- Node6 -->
<g id="node7" class="node"><title>Node6</title>
<g id="a_node7"><a xlink:href="class_tomographer_1_1_averaged_histogram.html" target="_top" xlink:title="Tomographer::AveragedHistogram\l\&lt; SimpleScaledHistogramType,\l double \&gt;">
<polygon fill="none" stroke="black" points="1425.99,-123.5 1425.99,-161.5 1594.66,-161.5 1594.66,-123.5 1425.99,-123.5"/>
<text text-anchor="start" x="1433.99" y="-149.5" font-family="Helvetica,sans-Serif" font-size="10.00">Tomographer::AveragedHistogram</text>
<text text-anchor="start" x="1433.99" y="-139.5" font-family="Helvetica,sans-Serif" font-size="10.00">&lt; SimpleScaledHistogramType,</text>
<text text-anchor="middle" x="1510.32" y="-129.5" font-family="Helvetica,sans-Serif" font-size="10.00"> double &gt;</text>
</a>
</g>
</g>
<!-- Node4&#45;&gt;Node6 -->
<g id="edge7" class="edge"><title>Node4&#45;&gt;Node6</title>
<path fill="none" stroke="orange" stroke-dasharray="5,2" d="M1239.36,-149.9C1297.12,-148.317 1370.23,-146.313 1425.8,-144.789"/>
<polygon fill="orange" stroke="orange" points="1239.03,-146.408 1229.13,-150.181 1239.22,-153.405 1239.03,-146.408"/>
<text text-anchor="start" x="1246.98" y="-162.5" font-family="Helvetica,sans-Serif" font-size="10.00"> &lt; SimpleScaledHistogramType,</text>
<text text-anchor="middle" x="1318.26" y="-152.5" font-family="Helvetica,sans-Serif" font-size="10.00"> double &gt;</text>
</g>
<!-- Node7 -->
<g id="node8" class="node"><title>Node7</title>
<g id="a_node8"><a xlink:href="class_tomographer_1_1_averaged_histogram.html" target="_top" xlink:title="Tomographer::AveragedHistogram\l\&lt; HistogramType, CountRealType \&gt;">
<polygon fill="none" stroke="black" points="1422.83,-49.5 1422.83,-77.5 1597.81,-77.5 1597.81,-49.5 1422.83,-49.5"/>
<text text-anchor="start" x="1430.83" y="-65.5" font-family="Helvetica,sans-Serif" font-size="10.00">Tomographer::AveragedHistogram</text>
<text text-anchor="middle" x="1510.32" y="-55.5" font-family="Helvetica,sans-Serif" font-size="10.00">&lt; HistogramType, CountRealType &gt;</text>
</a>
</g>
</g>
<!-- Node4&#45;&gt;Node7 -->
<g id="edge8" class="edge"><title>Node4&#45;&gt;Node7</title>
<path fill="none" stroke="orange" stroke-dasharray="5,2" d="M1200.01,-135.554C1215.19,-131.11 1231.67,-126.458 1246.98,-122.5 1312.63,-105.525 1388.23,-88.8192 1441.37,-77.5417"/>
<polygon fill="orange" stroke="orange" points="1198.85,-132.246 1190.25,-138.434 1200.83,-138.96 1198.85,-132.246"/>
<text text-anchor="start" x="1252.53" y="-134.5" font-family="Helvetica,sans-Serif" font-size="10.00"> &lt; HistogramType, CountReal</text>
<text text-anchor="middle" x="1318.26" y="-124.5" font-family="Helvetica,sans-Serif" font-size="10.00">Type &gt;</text>
</g>
<!-- Node8&#45;&gt;Node5 -->
<g id="edge10" class="edge"><title>Node8&#45;&gt;Node5</title>
<path fill="none" stroke="midnightblue" d="M1041.27,-207.335C1126.38,-214.04 1267.78,-222.574 1389.55,-217.5 1395.38,-217.257 1401.38,-216.947 1407.42,-216.588"/>
<polygon fill="midnightblue" stroke="midnightblue" points="1041.43,-203.836 1031.18,-206.527 1040.87,-210.814 1041.43,-203.836"/>
</g>
<!-- Node9&#45;&gt;Node7 -->
<g id="edge12" class="edge"><title>Node9&#45;&gt;Node7</title>
<path fill="none" stroke="midnightblue" d="M1220.99,-32.6755C1279.89,-38.972 1361.34,-47.6791 1422.65,-54.2337"/>
<polygon fill="midnightblue" stroke="midnightblue" points="1221.32,-29.1908 1211.01,-31.6079 1220.58,-36.1511 1221.32,-29.1908"/>
</g>
<!-- Node10&#45;&gt;Node6 -->
<g id="edge14" class="edge"><title>Node10&#45;&gt;Node6</title>
<path fill="none" stroke="midnightblue" d="M1050.48,-73.3824C1137.13,-68.3738 1274.21,-66.4098 1389.55,-91.5 1419.36,-97.986 1451.04,-111.814 1474.32,-123.437"/>
<polygon fill="midnightblue" stroke="midnightblue" points="1050.2,-69.8929 1040.43,-73.9902 1050.62,-76.8801 1050.2,-69.8929"/>
</g>
</g>
</svg>
