<?xml version="1.0" encoding="UTF-8" standalone="no"?>
<!DOCTYPE svg PUBLIC "-//W3C//DTD SVG 1.1//EN"
 "http://www.w3.org/Graphics/SVG/1.1/DTD/svg11.dtd">
<!-- Generated by graphviz version 2.38.0 (20140413.2041)
 -->
<!-- Title: tomographer/tools/eigen_assert_exception.h Pages: 1 -->
<svg width="133pt" height="92pt"
 viewBox="0.00 0.00 133.32 92.00" xmlns="http://www.w3.org/2000/svg" xmlns:xlink="http://www.w3.org/1999/xlink">
<g id="graph0" class="graph" transform="scale(1 1) rotate(0) translate(4 88)">
<title>tomographer/tools/eigen_assert_exception.h</title>
<!-- Node0 -->
<g id="node1" class="node"><title>Node0</title>
<polygon fill="#bfbfbf" stroke="black" points="0,-55.5 0,-83.5 123.847,-83.5 123.847,-55.5 0,-55.5"/>
<text text-anchor="start" x="8" y="-71.5" font-family="Helvetica,sans-Serif" font-size="10.00">tomographer/tools/eigen</text>
<text text-anchor="middle" x="61.9233" y="-61.5" font-family="Helvetica,sans-Serif" font-size="10.00">_assert_exception.h</text>
</g>
<!-- Node1 -->
<g id="node2" class="node"><title>Node1</title>
<polygon fill="none" stroke="#bfbfbf" points="7.69678,-0.5 7.69678,-18.5 48.1499,-18.5 48.1499,-0.5 7.69678,-0.5"/>
<text text-anchor="middle" x="27.9233" y="-6.5" font-family="Helvetica,sans-Serif" font-size="10.00">string</text>
</g>
<!-- Node0&#45;&gt;Node1 -->
<g id="edge1" class="edge"><title>Node0&#45;&gt;Node1</title>
<path fill="none" stroke="midnightblue" d="M54.2082,-55.3389C49.3737,-47.0918 43.0941,-36.3796 37.8852,-27.4937"/>
<polygon fill="midnightblue" stroke="midnightblue" points="40.8488,-25.6284 32.7721,-18.7715 34.8099,-29.1685 40.8488,-25.6284"/>
</g>
<!-- Node2 -->
<g id="node3" class="node"><title>Node2</title>
<polygon fill="none" stroke="#bfbfbf" points="66.522,-0.5 66.522,-18.5 125.325,-18.5 125.325,-0.5 66.522,-0.5"/>
<text text-anchor="middle" x="95.9233" y="-6.5" font-family="Helvetica,sans-Serif" font-size="10.00">stdexcept</text>
</g>
<!-- Node0&#45;&gt;Node2 -->
<g id="edge2" class="edge"><title>Node0&#45;&gt;Node2</title>
<path fill="none" stroke="midnightblue" d="M69.6385,-55.3389C74.4729,-47.0918 80.7526,-36.3796 85.9615,-27.4937"/>
<polygon fill="midnightblue" stroke="midnightblue" points="89.0368,-29.1685 91.0745,-18.7715 82.9979,-25.6284 89.0368,-29.1685"/>
</g>
</g>
</svg>
