<?xml version="1.0" encoding="UTF-8" standalone="no"?>
<!DOCTYPE svg PUBLIC "-//W3C//DTD SVG 1.1//EN"
 "http://www.w3.org/Graphics/SVG/1.1/DTD/svg11.dtd">
<!-- Generated by graphviz version 2.38.0 (20140413.2041)
 -->
<!-- Title: tomographer/densedm/indepmeasllh.h Pages: 1 -->
<!--zoomable 277 -->
<svg id="main" version="1.1" xmlns="http://www.w3.org/2000/svg" xmlns:xlink="http://www.w3.org/1999/xlink" xml:space="preserve" onload="init(evt)">
<style type="text/css"><![CDATA[
.edge:hover path { stroke: red; }
.edge:hover polygon { stroke: red; fill: red; }
]]></style>
<script type="text/javascript"><![CDATA[
var edges = document.getElementsByTagName('g');
if (edges && edges.length) {
  for (var i=0;i<edges.length;i++) {
    if (edges[i].id.substr(0,4)=='edge') {
      edges[i].setAttribute('class','edge');
    }
  }
}
]]></script>
        <defs>
                <circle id="rim" cx="0" cy="0" r="7"/>
                <circle id="rim2" cx="0" cy="0" r="3.5"/>
                <g id="zoomPlus">
                        <use xlink:href="#rim" fill="#404040">
                                <set attributeName="fill" to="#808080" begin="zoomplus.mouseover" end="zoomplus.mouseout"/>
                        </use>
                        <path d="M-4,0h8M0,-4v8" fill="none" stroke="white" stroke-width="1.5" pointer-events="none"/>
                </g>
                <g id="zoomMin">
                        <use xlink:href="#rim" fill="#404040">
                                <set attributeName="fill" to="#808080" begin="zoomminus.mouseover" end="zoomminus.mouseout"/>
                        </use>
                        <path d="M-4,0h8" fill="none" stroke="white" stroke-width="1.5" pointer-events="none"/>
                </g>
                <g id="dirArrow">
                        <path fill="none" stroke="white" stroke-width="1.5" d="M0,-3.0v7 M-2.5,-0.5L0,-3.0L2.5,-0.5"/>
                </g>
               <g id="resetDef">
                       <use xlink:href="#rim2" fill="#404040">
                               <set attributeName="fill" to="#808080" begin="reset.mouseover" end="reset.mouseout"/>
                       </use>
               </g>
        </defs>

<script type="text/javascript">
var viewWidth = 1248;
var viewHeight = 277;
var sectionId = 'dynsection-0';
</script>
<script xlink:href="svgpan.js"/>
<svg id="graph" class="graph">
<g id="viewport">
<title>tomographer/densedm/indepmeasllh.h</title>
<!-- Node0 -->
<g id="node1" class="node"><title>Node0</title>
<polygon fill="#bfbfbf" stroke="black" points="411.477,-240.5 411.477,-268.5 528.092,-268.5 528.092,-240.5 411.477,-240.5"/>
<text text-anchor="start" x="419.477" y="-256.5" font-family="Helvetica,sans-Serif" font-size="10.00">tomographer/densedm</text>
<text text-anchor="middle" x="469.785" y="-246.5" font-family="Helvetica,sans-Serif" font-size="10.00">/indepmeasllh.h</text>
</g>
<!-- Node1 -->
<g id="node2" class="node"><title>Node1</title>
<polygon fill="none" stroke="#bfbfbf" points="15.6642,-55.5 15.6642,-73.5 63.9054,-73.5 63.9054,-55.5 15.6642,-55.5"/>
<text text-anchor="middle" x="39.7848" y="-61.5" font-family="Helvetica,sans-Serif" font-size="10.00">cstddef</text>
</g>
<!-- Node0&#45;&gt;Node1 -->
<g id="edge1" class="edge"><title>Node0&#45;&gt;Node1</title>
<path fill="none" stroke="midnightblue" d="M411.123,-251.421C293.946,-246.664 39.8778,-233.079 13.7848,-204 -16.9089,-169.794 11.443,-111.212 28.713,-82.4469"/>
<polygon fill="midnightblue" stroke="midnightblue" points="31.9082,-83.9386 34.2444,-73.6045 25.9737,-80.2261 31.9082,-83.9386"/>
</g>
<!-- Node2 -->
<g id="node3" class="node"><title>Node2</title>
<polygon fill="none" stroke="#bfbfbf" points="781.558,-0.5 781.558,-18.5 822.011,-18.5 822.011,-0.5 781.558,-0.5"/>
<text text-anchor="middle" x="801.785" y="-6.5" font-family="Helvetica,sans-Serif" font-size="10.00">string</text>
</g>
<!-- Node0&#45;&gt;Node2 -->
<g id="edge2" class="edge"><title>Node0&#45;&gt;Node2</title>
<path fill="none" stroke="midnightblue" d="M528.269,-250.83C579.911,-246.404 655.928,-234.724 714.785,-204 751.847,-184.653 763.576,-176.135 782.785,-139 801.294,-103.218 803.223,-54.8016 802.699,-28.808"/>
<polygon fill="midnightblue" stroke="midnightblue" points="806.188,-28.4385 802.336,-18.5687 799.193,-28.6864 806.188,-28.4385"/>
</g>
<!-- Node3 -->
<g id="node4" class="node"><title>Node3</title>
<polygon fill="none" stroke="#bfbfbf" points="1023.28,-180.5 1023.28,-198.5 1074.29,-198.5 1074.29,-180.5 1023.28,-180.5"/>
<text text-anchor="middle" x="1048.78" y="-186.5" font-family="Helvetica,sans-Serif" font-size="10.00">iomanip</text>
</g>
<!-- Node0&#45;&gt;Node3 -->
<g id="edge3" class="edge"><title>Node0&#45;&gt;Node3</title>
<path fill="none" stroke="midnightblue" d="M528.344,-253.65C629.131,-252.703 841.281,-245.408 1014.78,-204 1016.99,-203.473 1019.25,-202.83 1021.49,-202.113"/>
<polygon fill="midnightblue" stroke="midnightblue" points="1022.89,-205.331 1031.1,-198.635 1020.5,-198.749 1022.89,-205.331"/>
</g>
<!-- Node4 -->
<g id="node5" class="node"><title>Node4</title>
<polygon fill="none" stroke="#bfbfbf" points="105.819,-115.5 105.819,-133.5 175.75,-133.5 175.75,-115.5 105.819,-115.5"/>
<text text-anchor="middle" x="140.785" y="-121.5" font-family="Helvetica,sans-Serif" font-size="10.00">Eigen/Eigen</text>
</g>
<!-- Node0&#45;&gt;Node4 -->
<g id="edge4" class="edge"><title>Node0&#45;&gt;Node4</title>
<path fill="none" stroke="midnightblue" d="M411.387,-249.156C339.147,-242.8 221.336,-228.923 185.785,-204 164.808,-189.295 152.296,-161.469 145.976,-143.207"/>
<polygon fill="midnightblue" stroke="midnightblue" points="149.255,-141.97 142.887,-133.502 142.585,-144.093 149.255,-141.97"/>
</g>
<!-- Node5 -->
<g id="node6" class="node"><title>Node5</title>
<g id="a_node6"><a xlink:href="cxxutil_8h.html" target="_top" xlink:title="Some C++ utilities, with a tad of C++11 tricks. ">
<polygon fill="none" stroke="black" points="232.034,-115.5 232.034,-133.5 367.536,-133.5 367.536,-115.5 232.034,-115.5"/>
<text text-anchor="middle" x="299.785" y="-121.5" font-family="Helvetica,sans-Serif" font-size="10.00">tomographer/tools/cxxutil.h</text>
</a>
</g>
</g>
<!-- Node0&#45;&gt;Node5 -->
<g id="edge5" class="edge"><title>Node0&#45;&gt;Node5</title>
<path fill="none" stroke="midnightblue" d="M462.09,-240.244C451.648,-223.226 431.544,-193.671 407.785,-175 386.171,-158.015 357.789,-145.299 335.546,-137.01"/>
<polygon fill="midnightblue" stroke="midnightblue" points="336.71,-133.71 326.116,-133.622 334.343,-140.297 336.71,-133.71"/>
</g>
<!-- Node13 -->
<g id="node14" class="node"><title>Node13</title>
<g id="a_node14"><a xlink:href="needownoperatornew_8h.html" target="_top" xlink:title="Managing the need for specific overrides to operator new() for some types (especially Eigen types) ...">
<polygon fill="none" stroke="black" points="195.108,-180.5 195.108,-198.5 398.462,-198.5 398.462,-180.5 195.108,-180.5"/>
<text text-anchor="middle" x="296.785" y="-186.5" font-family="Helvetica,sans-Serif" font-size="10.00">tomographer/tools/needownoperatornew.h</text>
</a>
</g>
</g>
<!-- Node0&#45;&gt;Node13 -->
<g id="edge15" class="edge"><title>Node0&#45;&gt;Node13</title>
<path fill="none" stroke="midnightblue" d="M433.939,-240.446C402.818,-229.113 358.189,-212.861 328.384,-202.007"/>
<polygon fill="midnightblue" stroke="midnightblue" points="329.479,-198.681 318.885,-198.548 327.084,-205.259 329.479,-198.681"/>
</g>
<!-- Node14 -->
<g id="node15" class="node"><title>Node14</title>
<g id="a_node15"><a xlink:href="fmt_8h.html" target="_top" xlink:title="Utilities for formatting strings. ">
<polygon fill="none" stroke="black" points="883.982,-180.5 883.982,-198.5 1005.59,-198.5 1005.59,-180.5 883.982,-180.5"/>
<text text-anchor="middle" x="944.785" y="-186.5" font-family="Helvetica,sans-Serif" font-size="10.00">tomographer/tools/fmt.h</text>
</a>
</g>
</g>
<!-- Node0&#45;&gt;Node14 -->
<g id="edge19" class="edge"><title>Node0&#45;&gt;Node14</title>
<path fill="none" stroke="midnightblue" d="M528.506,-245.712C616.039,-234.102 780.476,-212.292 874.353,-199.841"/>
<polygon fill="midnightblue" stroke="midnightblue" points="874.874,-203.303 884.327,-198.519 873.953,-196.364 874.874,-203.303"/>
</g>
<!-- Node21 -->
<g id="node22" class="node"><title>Node21</title>
<g id="a_node22"><a xlink:href="dmtypes_8h.html" target="_top" xlink:title="C++ types for describing dense density matrices in various parameterizations. ">
<polygon fill="none" stroke="black" points="22.4772,-175.5 22.4772,-203.5 139.092,-203.5 139.092,-175.5 22.4772,-175.5"/>
<text text-anchor="start" x="30.4772" y="-191.5" font-family="Helvetica,sans-Serif" font-size="10.00">tomographer/densedm</text>
<text text-anchor="middle" x="80.7848" y="-181.5" font-family="Helvetica,sans-Serif" font-size="10.00">/dmtypes.h</text>
</a>
</g>
</g>
<!-- Node0&#45;&gt;Node21 -->
<g id="edge28" class="edge"><title>Node0&#45;&gt;Node21</title>
<path fill="none" stroke="midnightblue" d="M411.272,-244.908C347.592,-235.431 242.817,-219.466 152.785,-204 151.688,-203.812 150.582,-203.62 149.469,-203.427"/>
<polygon fill="midnightblue" stroke="midnightblue" points="149.764,-199.924 139.307,-201.627 148.544,-206.817 149.764,-199.924"/>
</g>
<!-- Node22 -->
<g id="node23" class="node"><title>Node22</title>
<g id="a_node23"><a xlink:href="param__herm__x_8h.html" target="_top" xlink:title="Tools for parameterizing hermitian matrices with the X Parameterization. ">
<polygon fill="none" stroke="black" points="454.477,-175.5 454.477,-203.5 571.092,-203.5 571.092,-175.5 454.477,-175.5"/>
<text text-anchor="start" x="462.477" y="-191.5" font-family="Helvetica,sans-Serif" font-size="10.00">tomographer/densedm</text>
<text text-anchor="middle" x="512.785" y="-181.5" font-family="Helvetica,sans-Serif" font-size="10.00">/param_herm_x.h</text>
</a>
</g>
</g>
<!-- Node0&#45;&gt;Node22 -->
<g id="edge33" class="edge"><title>Node0&#45;&gt;Node22</title>
<path fill="none" stroke="midnightblue" d="M478.694,-240.446C484.287,-232.253 491.634,-221.488 498.076,-212.051"/>
<polygon fill="midnightblue" stroke="midnightblue" points="501.14,-213.77 503.887,-203.537 495.358,-209.823 501.14,-213.77"/>
</g>
<!-- Node26 -->
<g id="node27" class="node"><title>Node26</title>
<g id="a_node27"><a xlink:href="densellh_8h.html" target="_top" xlink:title="Some declarations for the DenseLLH type interface. ">
<polygon fill="none" stroke="black" points="589.477,-175.5 589.477,-203.5 706.092,-203.5 706.092,-175.5 589.477,-175.5"/>
<text text-anchor="start" x="597.477" y="-191.5" font-family="Helvetica,sans-Serif" font-size="10.00">tomographer/densedm</text>
<text text-anchor="middle" x="647.785" y="-181.5" font-family="Helvetica,sans-Serif" font-size="10.00">/densellh.h</text>
</a>
</g>
</g>
<!-- Node0&#45;&gt;Node26 -->
<g id="edge39" class="edge"><title>Node0&#45;&gt;Node26</title>
<path fill="none" stroke="midnightblue" d="M506.667,-240.446C534.113,-230.732 571.77,-217.404 601.281,-206.959"/>
<polygon fill="midnightblue" stroke="midnightblue" points="602.691,-210.173 610.95,-203.537 600.356,-203.574 602.691,-210.173"/>
</g>
<!-- Node5&#45;&gt;Node1 -->
<g id="edge7" class="edge"><title>Node5&#45;&gt;Node1</title>
<path fill="none" stroke="midnightblue" d="M260.722,-115.445C217.447,-106.42 145.36,-91.0829 73.9746,-74.2147"/>
<polygon fill="midnightblue" stroke="midnightblue" points="74.4476,-70.7298 63.9095,-71.8249 72.8305,-77.5404 74.4476,-70.7298"/>
</g>
<!-- Node6 -->
<g id="node7" class="node"><title>Node6</title>
<polygon fill="none" stroke="#bfbfbf" points="81.6691,-55.5 81.6691,-73.5 129.901,-73.5 129.901,-55.5 81.6691,-55.5"/>
<text text-anchor="middle" x="105.785" y="-61.5" font-family="Helvetica,sans-Serif" font-size="10.00">cassert</text>
</g>
<!-- Node5&#45;&gt;Node6 -->
<g id="edge6" class="edge"><title>Node5&#45;&gt;Node6</title>
<path fill="none" stroke="midnightblue" d="M272.81,-115.435C238.17,-105.079 178.017,-87.0952 140.138,-75.7707"/>
<polygon fill="midnightblue" stroke="midnightblue" points="140.669,-72.2762 130.085,-72.765 138.664,-78.9829 140.669,-72.2762"/>
</g>
<!-- Node7 -->
<g id="node8" class="node"><title>Node7</title>
<polygon fill="none" stroke="#bfbfbf" points="540.612,-55.5 540.612,-73.5 584.957,-73.5 584.957,-55.5 540.612,-55.5"/>
<text text-anchor="middle" x="562.785" y="-61.5" font-family="Helvetica,sans-Serif" font-size="10.00">cstdlib</text>
</g>
<!-- Node5&#45;&gt;Node7 -->
<g id="edge8" class="edge"><title>Node5&#45;&gt;Node7</title>
<path fill="none" stroke="midnightblue" d="M340.396,-115.419C384.65,-106.475 457.756,-91.2999 530.629,-73.9351"/>
<polygon fill="midnightblue" stroke="midnightblue" points="531.532,-77.3179 540.44,-71.5832 529.9,-70.5107 531.532,-77.3179"/>
</g>
<!-- Node8 -->
<g id="node9" class="node"><title>Node8</title>
<polygon fill="none" stroke="#bfbfbf" points="147.718,-55.5 147.718,-73.5 209.851,-73.5 209.851,-55.5 147.718,-55.5"/>
<text text-anchor="middle" x="178.785" y="-61.5" font-family="Helvetica,sans-Serif" font-size="10.00">type_traits</text>
</g>
<!-- Node5&#45;&gt;Node8 -->
<g id="edge9" class="edge"><title>Node5&#45;&gt;Node8</title>
<path fill="none" stroke="midnightblue" d="M282.96,-115.435C262.756,-105.751 228.638,-89.3966 204.977,-78.055"/>
<polygon fill="midnightblue" stroke="midnightblue" points="206.387,-74.8495 195.857,-73.6831 203.361,-81.1618 206.387,-74.8495"/>
</g>
<!-- Node9 -->
<g id="node10" class="node"><title>Node9</title>
<polygon fill="none" stroke="#bfbfbf" points="227.381,-55.5 227.381,-73.5 286.189,-73.5 286.189,-55.5 227.381,-55.5"/>
<text text-anchor="middle" x="256.785" y="-61.5" font-family="Helvetica,sans-Serif" font-size="10.00">exception</text>
</g>
<!-- Node5&#45;&gt;Node9 -->
<g id="edge10" class="edge"><title>Node5&#45;&gt;Node9</title>
<path fill="none" stroke="midnightblue" d="M293.806,-115.435C287.46,-106.876 277.251,-93.1052 269.159,-82.1909"/>
<polygon fill="midnightblue" stroke="midnightblue" points="271.759,-79.8204 262.991,-73.8718 266.135,-83.9894 271.759,-79.8204"/>
</g>
<!-- Node10 -->
<g id="node11" class="node"><title>Node10</title>
<polygon fill="none" stroke="#bfbfbf" points="463.383,-55.5 463.383,-73.5 522.186,-73.5 522.186,-55.5 463.383,-55.5"/>
<text text-anchor="middle" x="492.785" y="-61.5" font-family="Helvetica,sans-Serif" font-size="10.00">stdexcept</text>
</g>
<!-- Node5&#45;&gt;Node10 -->
<g id="edge11" class="edge"><title>Node5&#45;&gt;Node10</title>
<path fill="none" stroke="midnightblue" d="M326.621,-115.435C360.374,-105.292 418.475,-87.8314 456.257,-76.4774"/>
<polygon fill="midnightblue" stroke="midnightblue" points="457.297,-79.8195 465.867,-73.5894 455.282,-73.1156 457.297,-79.8195"/>
</g>
<!-- Node11 -->
<g id="node12" class="node"><title>Node11</title>
<polygon fill="none" stroke="#bfbfbf" points="602.77,-55.5 602.77,-73.5 668.799,-73.5 668.799,-55.5 602.77,-55.5"/>
<text text-anchor="middle" x="635.785" y="-61.5" font-family="Helvetica,sans-Serif" font-size="10.00">Eigen/Core</text>
</g>
<!-- Node5&#45;&gt;Node11 -->
<g id="edge12" class="edge"><title>Node5&#45;&gt;Node11</title>
<path fill="none" stroke="midnightblue" d="M344.377,-115.486C354.686,-113.659 365.614,-111.743 375.785,-110 469.456,-93.9469 495.538,-91.8656 592.416,-74.2003"/>
<polygon fill="midnightblue" stroke="midnightblue" points="593.13,-77.6279 602.335,-72.3826 591.868,-70.7425 593.13,-77.6279"/>
</g>
<!-- Node12 -->
<g id="node13" class="node"><title>Node12</title>
<g id="a_node13"><a xlink:href="conststr_8h.html" target="_top" xlink:title="A constexpr string type, suitable for basic compile&#45;time string processing. ">
<polygon fill="none" stroke="black" points="303.694,-55.5 303.694,-73.5 445.876,-73.5 445.876,-55.5 303.694,-55.5"/>
<text text-anchor="middle" x="374.785" y="-61.5" font-family="Helvetica,sans-Serif" font-size="10.00">tomographer/tools/conststr.h</text>
</a>
</g>
</g>
<!-- Node5&#45;&gt;Node12 -->
<g id="edge13" class="edge"><title>Node5&#45;&gt;Node12</title>
<path fill="none" stroke="midnightblue" d="M310.213,-115.435C321.946,-106.362 341.25,-91.434 355.7,-80.2589"/>
<polygon fill="midnightblue" stroke="midnightblue" points="358.19,-82.758 363.959,-73.8718 353.908,-77.2206 358.19,-82.758"/>
</g>
<!-- Node12&#45;&gt;Node2 -->
<g id="edge14" class="edge"><title>Node12&#45;&gt;Node2</title>
<path fill="none" stroke="midnightblue" d="M439.637,-55.4504C533.092,-43.8507 701.984,-22.8875 771.071,-14.3123"/>
<polygon fill="midnightblue" stroke="midnightblue" points="771.782,-17.7509 781.275,-13.0457 770.92,-10.8042 771.782,-17.7509"/>
</g>
<!-- Node13&#45;&gt;Node4 -->
<g id="edge17" class="edge"><title>Node13&#45;&gt;Node4</title>
<path fill="none" stroke="midnightblue" d="M276.71,-180.393C249.681,-169.477 201.393,-149.976 170.245,-137.397"/>
<polygon fill="midnightblue" stroke="midnightblue" points="171.366,-134.075 160.783,-133.576 168.744,-140.566 171.366,-134.075"/>
</g>
<!-- Node13&#45;&gt;Node5 -->
<g id="edge18" class="edge"><title>Node13&#45;&gt;Node5</title>
<path fill="none" stroke="midnightblue" d="M297.177,-180.264C297.615,-171.064 298.338,-155.881 298.912,-143.833"/>
<polygon fill="midnightblue" stroke="midnightblue" points="302.422,-143.694 299.402,-133.539 295.43,-143.361 302.422,-143.694"/>
</g>
<!-- Node13&#45;&gt;Node8 -->
<g id="edge16" class="edge"><title>Node13&#45;&gt;Node8</title>
<path fill="none" stroke="midnightblue" d="M280.561,-180.398C264.473,-171.776 239.828,-156.92 222.785,-139 206.81,-122.204 193.978,-98.6154 186.383,-82.7311"/>
<polygon fill="midnightblue" stroke="midnightblue" points="189.522,-81.1805 182.167,-73.5542 183.161,-84.1024 189.522,-81.1805"/>
</g>
<!-- Node14&#45;&gt;Node2 -->
<g id="edge23" class="edge"><title>Node14&#45;&gt;Node2</title>
<path fill="none" stroke="midnightblue" d="M948.043,-180.104C953.321,-165.049 961.983,-132.9 949.785,-110 924.837,-63.1665 866.959,-34.445 831.425,-20.5751"/>
<polygon fill="midnightblue" stroke="midnightblue" points="832.633,-17.2902 822.041,-17.0542 830.174,-23.8441 832.633,-17.2902"/>
</g>
<!-- Node14&#45;&gt;Node5 -->
<g id="edge27" class="edge"><title>Node14&#45;&gt;Node5</title>
<path fill="none" stroke="midnightblue" d="M883.96,-184.992C779.661,-178.579 560.106,-163.339 375.785,-139 367.756,-137.94 359.283,-136.628 351.023,-135.242"/>
<polygon fill="midnightblue" stroke="midnightblue" points="351.547,-131.781 341.097,-133.527 350.355,-138.679 351.547,-131.781"/>
</g>
<!-- Node15 -->
<g id="node16" class="node"><title>Node15</title>
<polygon fill="none" stroke="#bfbfbf" points="996.723,-115.5 996.723,-133.5 1038.85,-133.5 1038.85,-115.5 996.723,-115.5"/>
<text text-anchor="middle" x="1017.78" y="-121.5" font-family="Helvetica,sans-Serif" font-size="10.00">cstdio</text>
</g>
<!-- Node14&#45;&gt;Node15 -->
<g id="edge20" class="edge"><title>Node14&#45;&gt;Node15</title>
<path fill="none" stroke="midnightblue" d="M954.328,-180.264C966.088,-170.115 986.282,-152.687 1000.73,-140.216"/>
<polygon fill="midnightblue" stroke="midnightblue" points="1003.19,-142.722 1008.47,-133.539 998.612,-137.423 1003.19,-142.722"/>
</g>
<!-- Node16 -->
<g id="node17" class="node"><title>Node16</title>
<polygon fill="none" stroke="#bfbfbf" points="1056.39,-115.5 1056.39,-133.5 1105.18,-133.5 1105.18,-115.5 1056.39,-115.5"/>
<text text-anchor="middle" x="1080.78" y="-121.5" font-family="Helvetica,sans-Serif" font-size="10.00">cstdarg</text>
</g>
<!-- Node14&#45;&gt;Node16 -->
<g id="edge21" class="edge"><title>Node14&#45;&gt;Node16</title>
<path fill="none" stroke="midnightblue" d="M962.286,-180.393C985.544,-169.619 1026.86,-150.481 1054.04,-137.891"/>
<polygon fill="midnightblue" stroke="midnightblue" points="1055.75,-140.955 1063.35,-133.576 1052.81,-134.604 1055.75,-140.955"/>
</g>
<!-- Node17 -->
<g id="node18" class="node"><title>Node17</title>
<polygon fill="none" stroke="#bfbfbf" points="1123.5,-115.5 1123.5,-133.5 1170.07,-133.5 1170.07,-115.5 1123.5,-115.5"/>
<text text-anchor="middle" x="1146.78" y="-121.5" font-family="Helvetica,sans-Serif" font-size="10.00">chrono</text>
</g>
<!-- Node14&#45;&gt;Node17 -->
<g id="edge22" class="edge"><title>Node14&#45;&gt;Node17</title>
<path fill="none" stroke="midnightblue" d="M975.617,-180.499C1009.73,-171.409 1066.17,-155.662 1113.78,-139 1115.39,-138.438 1117.03,-137.84 1118.69,-137.222"/>
<polygon fill="midnightblue" stroke="midnightblue" points="1120.03,-140.454 1128.07,-133.55 1117.48,-133.936 1120.03,-140.454"/>
</g>
<!-- Node18 -->
<g id="node19" class="node"><title>Node18</title>
<polygon fill="none" stroke="#bfbfbf" points="1188,-115.5 1188,-133.5 1239.57,-133.5 1239.57,-115.5 1188,-115.5"/>
<text text-anchor="middle" x="1213.78" y="-121.5" font-family="Helvetica,sans-Serif" font-size="10.00">sstream</text>
</g>
<!-- Node14&#45;&gt;Node18 -->
<g id="edge24" class="edge"><title>Node14&#45;&gt;Node18</title>
<path fill="none" stroke="midnightblue" d="M984.55,-180.449C1046.37,-167.879 1160.37,-144.46 1178.78,-139 1180.7,-138.431 1182.67,-137.803 1184.64,-137.14"/>
<polygon fill="midnightblue" stroke="midnightblue" points="1186.14,-140.319 1194.35,-133.628 1183.76,-133.736 1186.14,-140.319"/>
</g>
<!-- Node19 -->
<g id="node20" class="node"><title>Node19</title>
<polygon fill="none" stroke="#bfbfbf" points="829.612,-115.5 829.612,-133.5 883.957,-133.5 883.957,-115.5 829.612,-115.5"/>
<text text-anchor="middle" x="856.785" y="-121.5" font-family="Helvetica,sans-Serif" font-size="10.00">iostream</text>
</g>
<!-- Node14&#45;&gt;Node19 -->
<g id="edge25" class="edge"><title>Node14&#45;&gt;Node19</title>
<path fill="none" stroke="midnightblue" d="M933.28,-180.264C918.839,-169.925 893.847,-152.033 876.371,-139.522"/>
<polygon fill="midnightblue" stroke="midnightblue" points="878.182,-136.514 868.014,-133.539 874.108,-142.206 878.182,-136.514"/>
</g>
<!-- Node20 -->
<g id="node21" class="node"><title>Node20</title>
<polygon fill="none" stroke="#bfbfbf" points="902.393,-115.5 902.393,-133.5 941.176,-133.5 941.176,-115.5 902.393,-115.5"/>
<text text-anchor="middle" x="921.785" y="-121.5" font-family="Helvetica,sans-Serif" font-size="10.00">utility</text>
</g>
<!-- Node14&#45;&gt;Node20 -->
<g id="edge26" class="edge"><title>Node14&#45;&gt;Node20</title>
<path fill="none" stroke="midnightblue" d="M941.778,-180.264C938.35,-170.874 932.647,-155.252 928.207,-143.091"/>
<polygon fill="midnightblue" stroke="midnightblue" points="931.437,-141.732 924.72,-133.539 924.861,-144.133 931.437,-141.732"/>
</g>
<!-- Node21&#45;&gt;Node1 -->
<g id="edge29" class="edge"><title>Node21&#45;&gt;Node1</title>
<path fill="none" stroke="midnightblue" d="M76.3971,-175.337C68.9831,-153.095 53.9738,-108.067 45.6599,-83.1253"/>
<polygon fill="midnightblue" stroke="midnightblue" points="48.9379,-81.8911 42.4552,-73.5111 42.2971,-84.1047 48.9379,-81.8911"/>
</g>
<!-- Node21&#45;&gt;Node4 -->
<g id="edge31" class="edge"><title>Node21&#45;&gt;Node4</title>
<path fill="none" stroke="midnightblue" d="M93.2169,-175.446C102.736,-165.452 115.898,-151.632 125.964,-141.062"/>
<polygon fill="midnightblue" stroke="midnightblue" points="128.585,-143.385 132.947,-133.73 123.516,-138.558 128.585,-143.385"/>
</g>
<!-- Node21&#45;&gt;Node5 -->
<g id="edge32" class="edge"><title>Node21&#45;&gt;Node5</title>
<path fill="none" stroke="midnightblue" d="M126.162,-175.446C166.243,-163.916 224.024,-147.294 261.735,-136.446"/>
<polygon fill="midnightblue" stroke="midnightblue" points="263.166,-139.676 271.808,-133.548 261.231,-132.949 263.166,-139.676"/>
</g>
<!-- Node21&#45;&gt;Node6 -->
<g id="edge30" class="edge"><title>Node21&#45;&gt;Node6</title>
<path fill="none" stroke="midnightblue" d="M83.4603,-175.337C87.9607,-153.195 97.051,-108.47 102.134,-83.462"/>
<polygon fill="midnightblue" stroke="midnightblue" points="105.595,-84.0079 104.157,-73.5111 98.7348,-82.6136 105.595,-84.0079"/>
</g>
<!-- Node22&#45;&gt;Node5 -->
<g id="edge38" class="edge"><title>Node22&#45;&gt;Node5</title>
<path fill="none" stroke="midnightblue" d="M468.651,-175.446C429.667,-163.916 373.47,-147.294 336.792,-136.446"/>
<polygon fill="midnightblue" stroke="midnightblue" points="337.577,-133.028 326.995,-133.548 335.591,-139.741 337.577,-133.028"/>
</g>
<!-- Node22&#45;&gt;Node11 -->
<g id="edge37" class="edge"><title>Node22&#45;&gt;Node11</title>
<path fill="none" stroke="midnightblue" d="M501.408,-175.396C488.445,-158.806 470.871,-129.981 485.785,-110 492.385,-101.158 551.027,-85.6148 592.995,-75.438"/>
<polygon fill="midnightblue" stroke="midnightblue" points="593.825,-78.8382 602.731,-73.1001 592.19,-72.0317 593.825,-78.8382"/>
</g>
<!-- Node23 -->
<g id="node24" class="node"><title>Node23</title>
<polygon fill="none" stroke="#bfbfbf" points="495.169,-115.5 495.169,-133.5 538.401,-133.5 538.401,-115.5 495.169,-115.5"/>
<text text-anchor="middle" x="516.785" y="-121.5" font-family="Helvetica,sans-Serif" font-size="10.00">cmath</text>
</g>
<!-- Node22&#45;&gt;Node23 -->
<g id="edge34" class="edge"><title>Node22&#45;&gt;Node23</title>
<path fill="none" stroke="midnightblue" d="M513.614,-175.446C514.192,-166.334 514.973,-154.041 515.615,-143.931"/>
<polygon fill="midnightblue" stroke="midnightblue" points="519.121,-143.932 516.262,-133.73 512.136,-143.488 519.121,-143.932"/>
</g>
<!-- Node24 -->
<g id="node25" class="node"><title>Node24</title>
<polygon fill="none" stroke="#bfbfbf" points="385.167,-115.5 385.167,-133.5 438.403,-133.5 438.403,-115.5 385.167,-115.5"/>
<text text-anchor="middle" x="411.785" y="-121.5" font-family="Helvetica,sans-Serif" font-size="10.00">complex</text>
</g>
<!-- Node22&#45;&gt;Node24 -->
<g id="edge35" class="edge"><title>Node22&#45;&gt;Node24</title>
<path fill="none" stroke="midnightblue" d="M491.858,-175.446C474.794,-164.803 450.776,-149.821 433.503,-139.047"/>
<polygon fill="midnightblue" stroke="midnightblue" points="435.024,-135.871 424.687,-133.548 431.319,-141.81 435.024,-135.871"/>
</g>
<!-- Node25 -->
<g id="node26" class="node"><title>Node25</title>
<polygon fill="none" stroke="#bfbfbf" points="556.258,-110.5 556.258,-138.5 667.312,-138.5 667.312,-110.5 556.258,-110.5"/>
<text text-anchor="start" x="564.258" y="-126.5" font-family="Helvetica,sans-Serif" font-size="10.00">boost/math/constants</text>
<text text-anchor="middle" x="611.785" y="-116.5" font-family="Helvetica,sans-Serif" font-size="10.00">/constants.hpp</text>
</g>
<!-- Node22&#45;&gt;Node25 -->
<g id="edge36" class="edge"><title>Node22&#45;&gt;Node25</title>
<path fill="none" stroke="midnightblue" d="M533.298,-175.446C547.501,-166.408 566.62,-154.241 582.433,-144.179"/>
<polygon fill="midnightblue" stroke="midnightblue" points="584.741,-146.859 591.298,-138.537 580.983,-140.953 584.741,-146.859"/>
</g>
<!-- Node26&#45;&gt;Node1 -->
<g id="edge40" class="edge"><title>Node26&#45;&gt;Node1</title>
<path fill="none" stroke="midnightblue" d="M659.894,-175.455C674.266,-158.394 694.22,-128.505 676.785,-110 632.393,-62.8831 175.064,-82.7985 74.2115,-73.5478"/>
<polygon fill="midnightblue" stroke="midnightblue" points="74.5297,-70.061 64.1835,-72.3428 73.6945,-77.011 74.5297,-70.061"/>
</g>
<!-- Node26&#45;&gt;Node23 -->
<g id="edge41" class="edge"><title>Node26&#45;&gt;Node23</title>
<path fill="none" stroke="midnightblue" d="M620.642,-175.446C597.793,-164.458 565.329,-148.846 542.803,-138.013"/>
<polygon fill="midnightblue" stroke="midnightblue" points="544.048,-134.728 533.52,-133.548 541.015,-141.036 544.048,-134.728"/>
</g>
<!-- Node26&#45;&gt;Node25 -->
<g id="edge43" class="edge"><title>Node26&#45;&gt;Node25</title>
<path fill="none" stroke="midnightblue" d="M640.326,-175.446C635.692,-167.337 629.619,-156.71 624.267,-147.343"/>
<polygon fill="midnightblue" stroke="midnightblue" points="627.235,-145.483 619.234,-138.537 621.157,-148.956 627.235,-145.483"/>
</g>
<!-- Node27 -->
<g id="node28" class="node"><title>Node27</title>
<polygon fill="none" stroke="#bfbfbf" points="723.832,-115.5 723.832,-133.5 773.738,-133.5 773.738,-115.5 723.832,-115.5"/>
<text text-anchor="middle" x="748.785" y="-121.5" font-family="Helvetica,sans-Serif" font-size="10.00">random</text>
</g>
<!-- Node26&#45;&gt;Node27 -->
<g id="edge42" class="edge"><title>Node26&#45;&gt;Node27</title>
<path fill="none" stroke="midnightblue" d="M668.712,-175.446C685.775,-164.803 709.793,-149.821 727.067,-139.047"/>
<polygon fill="midnightblue" stroke="midnightblue" points="729.25,-141.81 735.882,-133.548 725.545,-135.871 729.25,-141.81"/>
</g>
</g>
</svg>
        <g id="navigator" transform="translate(0 0)" fill="#404254">
                <rect fill="#f2f5e9" fill-opacity="0.5" stroke="#606060" stroke-width=".5" x="0" y="0" width="60" height="60"/>
                <use id="zoomplus" xlink:href="#zoomPlus" x="17" y="9" onmousedown="handleZoom(evt,'in')"/>
                <use id="zoomminus" xlink:href="#zoomMin" x="42" y="9" onmousedown="handleZoom(evt,'out')"/>
                <use id="reset" xlink:href="#resetDef" x="30" y="36" onmousedown="handleReset()"/>
                <g id="arrowUp" xlink:href="#dirArrow" transform="translate(30 24)" onmousedown="handlePan(0,-1)">
                  <use xlink:href="#rim" fill="#404040">
                        <set attributeName="fill" to="#808080" begin="arrowUp.mouseover" end="arrowUp.mouseout"/>
                  </use>
                  <path fill="none" stroke="white" stroke-width="1.5" d="M0,-3.0v7 M-2.5,-0.5L0,-3.0L2.5,-0.5"/>
                </g>
                <g id="arrowRight" xlink:href="#dirArrow" transform="rotate(90) translate(36 -43)" onmousedown="handlePan(1,0)">
                  <use xlink:href="#rim" fill="#404040">
                        <set attributeName="fill" to="#808080" begin="arrowRight.mouseover" end="arrowRight.mouseout"/>
                  </use>
                  <path fill="none" stroke="white" stroke-width="1.5" d="M0,-3.0v7 M-2.5,-0.5L0,-3.0L2.5,-0.5"/>
                </g>
                <g id="arrowDown" xlink:href="#dirArrow" transform="rotate(180) translate(-30 -48)" onmousedown="handlePan(0,1)">
                  <use xlink:href="#rim" fill="#404040">
                        <set attributeName="fill" to="#808080" begin="arrowDown.mouseover" end="arrowDown.mouseout"/>
                  </use>
                  <path fill="none" stroke="white" stroke-width="1.5" d="M0,-3.0v7 M-2.5,-0.5L0,-3.0L2.5,-0.5"/>
                </g>
                <g id="arrowLeft" xlink:href="#dirArrow" transform="rotate(270) translate(-36 17)" onmousedown="handlePan(-1,0)">
                  <use xlink:href="#rim" fill="#404040">
                        <set attributeName="fill" to="#808080" begin="arrowLeft.mouseover" end="arrowLeft.mouseout"/>
                  </use>
                  <path fill="none" stroke="white" stroke-width="1.5" d="M0,-3.0v7 M-2.5,-0.5L0,-3.0L2.5,-0.5"/>
                </g>
        </g>
        <svg viewBox="0 0 15 15" width="100%" height="30px" preserveAspectRatio="xMaxYMin meet">
         <g id="arrow_out" transform="scale(0.3 0.3)">
          <a xlink:href="indepmeasllh_8h__incl_org.svg" target="_base">
           <rect id="button" ry="5" rx="5" y="6" x="6" height="38" width="38"
                fill="#f2f5e9" fill-opacity="0.5" stroke="#606060" stroke-width="1.0"/>
           <path id="arrow"
             d="M 11.500037,31.436501 C 11.940474,20.09759 22.043105,11.32322 32.158766,21.979434 L 37.068811,17.246167 C 37.068811,17.246167 37.088388,32 37.088388,32 L 22.160133,31.978069 C 22.160133,31.978069 26.997745,27.140456 26.997745,27.140456 C 18.528582,18.264221 13.291696,25.230495 11.500037,31.436501 z"
             style="fill:#404040;"/>
          </a>
         </g>
        </svg>
</svg>
