<?xml version="1.0" encoding="UTF-8" standalone="no"?>
<!DOCTYPE svg PUBLIC "-//W3C//DTD SVG 1.1//EN"
 "http://www.w3.org/Graphics/SVG/1.1/DTD/svg11.dtd">
<!-- Generated by graphviz version 2.38.0 (20140413.2041)
 -->
<!-- Title: tomographer/tools/loggers.h Pages: 1 -->
<svg width="886pt" height="247pt"
 viewBox="0.00 0.00 886.17 247.00" xmlns="http://www.w3.org/2000/svg" xmlns:xlink="http://www.w3.org/1999/xlink">
<g id="graph0" class="graph" transform="scale(1 1) rotate(0) translate(4 243)">
<title>tomographer/tools/loggers.h</title>
<!-- Node0 -->
<g id="node1" class="node"><title>Node0</title>
<polygon fill="#bfbfbf" stroke="black" points="462.803,-220.5 462.803,-238.5 603.32,-238.5 603.32,-220.5 462.803,-220.5"/>
<text text-anchor="middle" x="533.062" y="-226.5" font-family="Helvetica,sans-Serif" font-size="10.00">tomographer/tools/loggers.h</text>
</g>
<!-- Node1 -->
<g id="node2" class="node"><title>Node1</title>
<polygon fill="none" stroke="#bfbfbf" points="0,-110.5 0,-128.5 42.123,-128.5 42.123,-110.5 0,-110.5"/>
<text text-anchor="middle" x="21.0615" y="-116.5" font-family="Helvetica,sans-Serif" font-size="10.00">cstdio</text>
</g>
<!-- Node0&#45;&gt;Node1 -->
<g id="edge1" class="edge"><title>Node0&#45;&gt;Node1</title>
<path fill="none" stroke="midnightblue" d="M462.62,-229.154C381.285,-227.989 244.402,-220.069 133.062,-184 97.8958,-172.608 61.4251,-149.435 40.0104,-134.456"/>
<polygon fill="midnightblue" stroke="midnightblue" points="41.9748,-131.558 31.8023,-128.597 37.9076,-137.255 41.9748,-131.558"/>
</g>
<!-- Node2 -->
<g id="node3" class="node"><title>Node2</title>
<polygon fill="none" stroke="#bfbfbf" points="59.665,-110.5 59.665,-128.5 108.458,-128.5 108.458,-110.5 59.665,-110.5"/>
<text text-anchor="middle" x="84.0615" y="-116.5" font-family="Helvetica,sans-Serif" font-size="10.00">cstdarg</text>
</g>
<!-- Node0&#45;&gt;Node2 -->
<g id="edge2" class="edge"><title>Node0&#45;&gt;Node2</title>
<path fill="none" stroke="midnightblue" d="M462.537,-224.128C372.353,-217.802 221.675,-204.555 170.062,-184 142.457,-173.007 115.746,-150.929 99.6054,-135.93"/>
<polygon fill="midnightblue" stroke="midnightblue" points="101.826,-133.211 92.1801,-128.828 96.9876,-138.27 101.826,-133.211"/>
</g>
<!-- Node3 -->
<g id="node4" class="node"><title>Node3</title>
<polygon fill="none" stroke="#bfbfbf" points="762.835,-0.5 762.835,-18.5 803.288,-18.5 803.288,-0.5 762.835,-0.5"/>
<text text-anchor="middle" x="783.062" y="-6.5" font-family="Helvetica,sans-Serif" font-size="10.00">string</text>
</g>
<!-- Node0&#45;&gt;Node3 -->
<g id="edge3" class="edge"><title>Node0&#45;&gt;Node3</title>
<path fill="none" stroke="midnightblue" d="M603.45,-226.555C680.674,-222.977 798.067,-212.82 831.062,-184 875.551,-145.14 893.005,-105.92 863.062,-55 852.254,-36.6208 830.803,-25.2839 812.833,-18.6557"/>
<polygon fill="midnightblue" stroke="midnightblue" points="813.891,-15.319 803.297,-15.443 811.656,-21.9526 813.891,-15.319"/>
</g>
<!-- Node4 -->
<g id="node5" class="node"><title>Node4</title>
<polygon fill="none" stroke="#bfbfbf" points="126.281,-110.5 126.281,-128.5 177.842,-128.5 177.842,-110.5 126.281,-110.5"/>
<text text-anchor="middle" x="152.062" y="-116.5" font-family="Helvetica,sans-Serif" font-size="10.00">sstream</text>
</g>
<!-- Node0&#45;&gt;Node4 -->
<g id="edge4" class="edge"><title>Node0&#45;&gt;Node4</title>
<path fill="none" stroke="midnightblue" d="M462.487,-226.278C375.997,-222.371 235.562,-211.834 192.062,-184 175.459,-173.376 164.51,-153.134 158.331,-138.35"/>
<polygon fill="midnightblue" stroke="midnightblue" points="161.506,-136.854 154.662,-128.766 154.968,-139.357 161.506,-136.854"/>
</g>
<!-- Node5 -->
<g id="node6" class="node"><title>Node5</title>
<polygon fill="none" stroke="#bfbfbf" points="507.889,-110.5 507.889,-128.5 562.234,-128.5 562.234,-110.5 507.889,-110.5"/>
<text text-anchor="middle" x="535.062" y="-116.5" font-family="Helvetica,sans-Serif" font-size="10.00">iostream</text>
</g>
<!-- Node0&#45;&gt;Node5 -->
<g id="edge5" class="edge"><title>Node0&#45;&gt;Node5</title>
<path fill="none" stroke="midnightblue" d="M522.348,-220.354C508.444,-208.712 486.875,-186.353 495.062,-165 499.458,-153.533 508.324,-143.167 516.594,-135.331"/>
<polygon fill="midnightblue" stroke="midnightblue" points="518.994,-137.881 524.175,-128.639 514.362,-132.633 518.994,-137.881"/>
</g>
<!-- Node6 -->
<g id="node7" class="node"><title>Node6</title>
<polygon fill="none" stroke="#bfbfbf" points="503.658,-165.5 503.658,-183.5 562.465,-183.5 562.465,-165.5 503.658,-165.5"/>
<text text-anchor="middle" x="533.062" y="-171.5" font-family="Helvetica,sans-Serif" font-size="10.00">functional</text>
</g>
<!-- Node0&#45;&gt;Node6 -->
<g id="edge6" class="edge"><title>Node0&#45;&gt;Node6</title>
<path fill="none" stroke="midnightblue" d="M533.062,-220.219C533.062,-213.177 533.062,-202.808 533.062,-193.828"/>
<polygon fill="midnightblue" stroke="midnightblue" points="536.562,-193.55 533.062,-183.55 529.562,-193.55 536.562,-193.55"/>
</g>
<!-- Node7 -->
<g id="node8" class="node"><title>Node7</title>
<polygon fill="none" stroke="#bfbfbf" points="631.995,-55.5 631.995,-73.5 694.128,-73.5 694.128,-55.5 631.995,-55.5"/>
<text text-anchor="middle" x="663.062" y="-61.5" font-family="Helvetica,sans-Serif" font-size="10.00">type_traits</text>
</g>
<!-- Node0&#45;&gt;Node7 -->
<g id="edge7" class="edge"><title>Node0&#45;&gt;Node7</title>
<path fill="none" stroke="midnightblue" d="M540.181,-220.395C547.904,-211.548 560.54,-196.919 571.062,-184 600.392,-147.986 633.502,-104.645 650.893,-81.6604"/>
<polygon fill="midnightblue" stroke="midnightblue" points="653.71,-83.7378 656.943,-73.6481 648.124,-79.52 653.71,-83.7378"/>
</g>
<!-- Node8 -->
<g id="node9" class="node"><title>Node8</title>
<polygon fill="none" stroke="#bfbfbf" points="618.335,-165.5 618.335,-183.5 653.788,-183.5 653.788,-165.5 618.335,-165.5"/>
<text text-anchor="middle" x="636.062" y="-171.5" font-family="Helvetica,sans-Serif" font-size="10.00">map</text>
</g>
<!-- Node0&#45;&gt;Node8 -->
<g id="edge8" class="edge"><title>Node0&#45;&gt;Node8</title>
<path fill="none" stroke="midnightblue" d="M548.705,-220.45C565.342,-211.89 591.89,-198.229 611.357,-188.212"/>
<polygon fill="midnightblue" stroke="midnightblue" points="612.98,-191.313 620.271,-183.625 609.778,-185.089 612.98,-191.313"/>
</g>
<!-- Node9 -->
<g id="node10" class="node"><title>Node9</title>
<polygon fill="none" stroke="#bfbfbf" points="671.53,-165.5 671.53,-183.5 802.593,-183.5 802.593,-165.5 671.53,-165.5"/>
<text text-anchor="middle" x="737.062" y="-171.5" font-family="Helvetica,sans-Serif" font-size="10.00">boost/algorithm/string.hpp</text>
</g>
<!-- Node0&#45;&gt;Node9 -->
<g id="edge9" class="edge"><title>Node0&#45;&gt;Node9</title>
<path fill="none" stroke="midnightblue" d="M564.045,-220.45C599.345,-211.279 657.172,-196.256 696.153,-186.128"/>
<polygon fill="midnightblue" stroke="midnightblue" points="697.323,-189.44 706.122,-183.538 695.563,-182.665 697.323,-189.44"/>
</g>
<!-- Node10 -->
<g id="node11" class="node"><title>Node10</title>
<g id="a_node11"><a xlink:href="fmt_8h.html" target="_top" xlink:title="Utilities for formatting strings. ">
<polygon fill="none" stroke="black" points="201.259,-165.5 201.259,-183.5 322.864,-183.5 322.864,-165.5 201.259,-165.5"/>
<text text-anchor="middle" x="262.062" y="-171.5" font-family="Helvetica,sans-Serif" font-size="10.00">tomographer/tools/fmt.h</text>
</a>
</g>
</g>
<!-- Node0&#45;&gt;Node10 -->
<g id="edge10" class="edge"><title>Node0&#45;&gt;Node10</title>
<path fill="none" stroke="midnightblue" d="M491.902,-220.45C444.011,-211.084 364.906,-195.614 313.135,-185.489"/>
<polygon fill="midnightblue" stroke="midnightblue" points="313.649,-182.023 303.163,-183.538 312.305,-188.893 313.649,-182.023"/>
</g>
<!-- Node20 -->
<g id="node21" class="node"><title>Node20</title>
<g id="a_node21"><a xlink:href="conststr_8h.html" target="_top" xlink:title="A constexpr string type, suitable for basic compile&#45;time string processing. ">
<polygon fill="none" stroke="black" points="711.971,-55.5 711.971,-73.5 854.152,-73.5 854.152,-55.5 711.971,-55.5"/>
<text text-anchor="middle" x="783.062" y="-61.5" font-family="Helvetica,sans-Serif" font-size="10.00">tomographer/tools/conststr.h</text>
</a>
</g>
</g>
<!-- Node0&#45;&gt;Node20 -->
<g id="edge28" class="edge"><title>Node0&#45;&gt;Node20</title>
<path fill="none" stroke="midnightblue" d="M603.469,-227.312C677.159,-224.401 785.758,-214.832 812.062,-184 837.05,-154.71 811.93,-107.269 795.263,-82.2211"/>
<polygon fill="midnightblue" stroke="midnightblue" points="797.993,-80.016 789.411,-73.8024 792.245,-84.0113 797.993,-80.016"/>
</g>
<!-- Node10&#45;&gt;Node1 -->
<g id="edge11" class="edge"><title>Node10&#45;&gt;Node1</title>
<path fill="none" stroke="midnightblue" d="M219.834,-165.475C179.187,-157.554 115.786,-144.687 52.1225,-129.133"/>
<polygon fill="midnightblue" stroke="midnightblue" points="52.8661,-125.712 42.3191,-126.717 51.1908,-132.508 52.8661,-125.712"/>
</g>
<!-- Node10&#45;&gt;Node2 -->
<g id="edge12" class="edge"><title>Node10&#45;&gt;Node2</title>
<path fill="none" stroke="midnightblue" d="M235.027,-165.45C203.826,-156.16 152.455,-140.864 118.44,-130.736"/>
<polygon fill="midnightblue" stroke="midnightblue" points="119.065,-127.271 108.482,-127.771 117.067,-133.98 119.065,-127.271"/>
</g>
<!-- Node10&#45;&gt;Node3 -->
<g id="edge14" class="edge"><title>Node10&#45;&gt;Node3</title>
<path fill="none" stroke="midnightblue" d="M261.35,-165.322C259.874,-152.442 255.501,-127.134 243.062,-110 223.297,-82.7782 168.183,-79.6625 191.062,-55 229.47,-13.5959 636.063,-10.47 752.228,-10.4273"/>
<polygon fill="midnightblue" stroke="midnightblue" points="752.54,-13.9274 762.541,-10.4316 752.543,-6.92736 752.54,-13.9274"/>
</g>
<!-- Node10&#45;&gt;Node4 -->
<g id="edge15" class="edge"><title>Node10&#45;&gt;Node4</title>
<path fill="none" stroke="midnightblue" d="M245.355,-165.45C227.507,-156.851 198.977,-143.105 178.162,-133.075"/>
<polygon fill="midnightblue" stroke="midnightblue" points="179.453,-129.813 168.925,-128.625 176.415,-136.119 179.453,-129.813"/>
</g>
<!-- Node10&#45;&gt;Node5 -->
<g id="edge16" class="edge"><title>Node10&#45;&gt;Node5</title>
<path fill="none" stroke="midnightblue" d="M308.509,-165.434C354.233,-157.347 426.286,-144.214 497.529,-129.251"/>
<polygon fill="midnightblue" stroke="midnightblue" points="498.514,-132.621 507.574,-127.128 497.066,-125.772 498.514,-132.621"/>
</g>
<!-- Node11 -->
<g id="node12" class="node"><title>Node11</title>
<polygon fill="none" stroke="#bfbfbf" points="443.773,-110.5 443.773,-128.5 490.35,-128.5 490.35,-110.5 443.773,-110.5"/>
<text text-anchor="middle" x="467.062" y="-116.5" font-family="Helvetica,sans-Serif" font-size="10.00">chrono</text>
</g>
<!-- Node10&#45;&gt;Node11 -->
<g id="edge13" class="edge"><title>Node10&#45;&gt;Node11</title>
<path fill="none" stroke="midnightblue" d="M293.649,-165.454C326.381,-157.1 379.28,-143.549 433.812,-129.313"/>
<polygon fill="midnightblue" stroke="midnightblue" points="434.858,-132.657 443.648,-126.742 433.088,-125.884 434.858,-132.657"/>
</g>
<!-- Node12 -->
<g id="node13" class="node"><title>Node12</title>
<polygon fill="none" stroke="#bfbfbf" points="195.67,-110.5 195.67,-128.5 234.453,-128.5 234.453,-110.5 195.67,-110.5"/>
<text text-anchor="middle" x="215.062" y="-116.5" font-family="Helvetica,sans-Serif" font-size="10.00">utility</text>
</g>
<!-- Node10&#45;&gt;Node12 -->
<g id="edge17" class="edge"><title>Node10&#45;&gt;Node12</title>
<path fill="none" stroke="midnightblue" d="M254.718,-165.219C247.849,-157.473 237.41,-145.701 228.966,-136.18"/>
<polygon fill="midnightblue" stroke="midnightblue" points="231.453,-133.709 222.2,-128.55 226.216,-138.354 231.453,-133.709"/>
</g>
<!-- Node13 -->
<g id="node14" class="node"><title>Node13</title>
<g id="a_node14"><a xlink:href="cxxutil_8h.html" target="_top" xlink:title="Some C++ utilities, with a tad of C++11 tricks. ">
<polygon fill="none" stroke="black" points="290.311,-110.5 290.311,-128.5 425.812,-128.5 425.812,-110.5 290.311,-110.5"/>
<text text-anchor="middle" x="358.062" y="-116.5" font-family="Helvetica,sans-Serif" font-size="10.00">tomographer/tools/cxxutil.h</text>
</a>
</g>
</g>
<!-- Node10&#45;&gt;Node13 -->
<g id="edge18" class="edge"><title>Node10&#45;&gt;Node13</title>
<path fill="none" stroke="midnightblue" d="M276.642,-165.45C292.007,-156.968 316.443,-143.477 334.54,-133.486"/>
<polygon fill="midnightblue" stroke="midnightblue" points="336.281,-136.523 343.344,-128.625 332.898,-130.394 336.281,-136.523"/>
</g>
<!-- Node13&#45;&gt;Node7 -->
<g id="edge22" class="edge"><title>Node13&#45;&gt;Node7</title>
<path fill="none" stroke="midnightblue" d="M409.973,-110.459C461.29,-102.359 542.292,-89.1662 621.494,-74.2346"/>
<polygon fill="midnightblue" stroke="midnightblue" points="622.472,-77.6117 631.644,-72.3095 621.167,-70.7343 622.472,-77.6117"/>
</g>
<!-- Node14 -->
<g id="node15" class="node"><title>Node14</title>
<polygon fill="none" stroke="#bfbfbf" points="565.946,-55.5 565.946,-73.5 614.177,-73.5 614.177,-55.5 565.946,-55.5"/>
<text text-anchor="middle" x="590.062" y="-61.5" font-family="Helvetica,sans-Serif" font-size="10.00">cassert</text>
</g>
<!-- Node13&#45;&gt;Node14 -->
<g id="edge19" class="edge"><title>Node13&#45;&gt;Node14</title>
<path fill="none" stroke="midnightblue" d="M395.555,-110.491C433.586,-102.285 494.386,-88.9378 556.035,-74.1887"/>
<polygon fill="midnightblue" stroke="midnightblue" points="557.028,-77.5498 565.933,-71.8101 555.392,-70.7436 557.028,-77.5498"/>
</g>
<!-- Node15 -->
<g id="node16" class="node"><title>Node15</title>
<polygon fill="none" stroke="#bfbfbf" points="199.941,-55.5 199.941,-73.5 248.182,-73.5 248.182,-55.5 199.941,-55.5"/>
<text text-anchor="middle" x="224.062" y="-61.5" font-family="Helvetica,sans-Serif" font-size="10.00">cstddef</text>
</g>
<!-- Node13&#45;&gt;Node15 -->
<g id="edge20" class="edge"><title>Node13&#45;&gt;Node15</title>
<path fill="none" stroke="midnightblue" d="M337.71,-110.45C315.475,-101.656 279.634,-87.4802 254.15,-77.4006"/>
<polygon fill="midnightblue" stroke="midnightblue" points="255.191,-74.0487 244.605,-73.6253 252.617,-80.558 255.191,-74.0487"/>
</g>
<!-- Node16 -->
<g id="node17" class="node"><title>Node16</title>
<polygon fill="none" stroke="#bfbfbf" points="265.889,-55.5 265.889,-73.5 310.234,-73.5 310.234,-55.5 265.889,-55.5"/>
<text text-anchor="middle" x="288.062" y="-61.5" font-family="Helvetica,sans-Serif" font-size="10.00">cstdlib</text>
</g>
<!-- Node13&#45;&gt;Node16 -->
<g id="edge21" class="edge"><title>Node13&#45;&gt;Node16</title>
<path fill="none" stroke="midnightblue" d="M347.43,-110.45C336.74,-102.357 320.029,-89.7042 307.057,-79.8822"/>
<polygon fill="midnightblue" stroke="midnightblue" points="308.878,-76.8713 298.793,-73.6253 304.653,-82.4521 308.878,-76.8713"/>
</g>
<!-- Node17 -->
<g id="node18" class="node"><title>Node17</title>
<polygon fill="none" stroke="#bfbfbf" points="328.658,-55.5 328.658,-73.5 387.465,-73.5 387.465,-55.5 328.658,-55.5"/>
<text text-anchor="middle" x="358.062" y="-61.5" font-family="Helvetica,sans-Serif" font-size="10.00">exception</text>
</g>
<!-- Node13&#45;&gt;Node17 -->
<g id="edge23" class="edge"><title>Node13&#45;&gt;Node17</title>
<path fill="none" stroke="midnightblue" d="M358.062,-110.219C358.062,-103.177 358.062,-92.8083 358.062,-83.8277"/>
<polygon fill="midnightblue" stroke="midnightblue" points="361.562,-83.5495 358.062,-73.5496 354.562,-83.5496 361.562,-83.5495"/>
</g>
<!-- Node18 -->
<g id="node19" class="node"><title>Node18</title>
<polygon fill="none" stroke="#bfbfbf" points="405.66,-55.5 405.66,-73.5 464.463,-73.5 464.463,-55.5 405.66,-55.5"/>
<text text-anchor="middle" x="435.062" y="-61.5" font-family="Helvetica,sans-Serif" font-size="10.00">stdexcept</text>
</g>
<!-- Node13&#45;&gt;Node18 -->
<g id="edge24" class="edge"><title>Node13&#45;&gt;Node18</title>
<path fill="none" stroke="midnightblue" d="M369.756,-110.45C381.741,-102.201 400.606,-89.2158 414.985,-79.3187"/>
<polygon fill="midnightblue" stroke="midnightblue" points="417.004,-82.1782 423.257,-73.6253 413.035,-76.4121 417.004,-82.1782"/>
</g>
<!-- Node19 -->
<g id="node20" class="node"><title>Node19</title>
<polygon fill="none" stroke="#bfbfbf" points="482.047,-55.5 482.047,-73.5 548.076,-73.5 548.076,-55.5 482.047,-55.5"/>
<text text-anchor="middle" x="515.062" y="-61.5" font-family="Helvetica,sans-Serif" font-size="10.00">Eigen/Core</text>
</g>
<!-- Node13&#45;&gt;Node19 -->
<g id="edge25" class="edge"><title>Node13&#45;&gt;Node19</title>
<path fill="none" stroke="midnightblue" d="M381.906,-110.45C408.495,-101.475 451.692,-86.8922 481.643,-76.7813"/>
<polygon fill="midnightblue" stroke="midnightblue" points="482.895,-80.053 491.25,-73.5383 480.656,-73.4207 482.895,-80.053"/>
</g>
<!-- Node13&#45;&gt;Node20 -->
<g id="edge26" class="edge"><title>Node13&#45;&gt;Node20</title>
<path fill="none" stroke="midnightblue" d="M422.61,-110.45C499.437,-100.87 627.485,-84.9013 708.477,-74.8011"/>
<polygon fill="midnightblue" stroke="midnightblue" points="709.113,-78.249 718.603,-73.5383 708.247,-71.3028 709.113,-78.249"/>
</g>
<!-- Node20&#45;&gt;Node3 -->
<g id="edge27" class="edge"><title>Node20&#45;&gt;Node3</title>
<path fill="none" stroke="midnightblue" d="M783.062,-55.2188C783.062,-48.1769 783.062,-37.8083 783.062,-28.8277"/>
<polygon fill="midnightblue" stroke="midnightblue" points="786.562,-28.5495 783.062,-18.5496 779.562,-28.5496 786.562,-28.5495"/>
</g>
</g>
</svg>
