<?xml version="1.0" encoding="UTF-8" standalone="no"?>
<!DOCTYPE svg PUBLIC "-//W3C//DTD SVG 1.1//EN"
 "http://www.w3.org/Graphics/SVG/1.1/DTD/svg11.dtd">
<!-- Generated by graphviz version 2.38.0 (20140413.2041)
 -->
<!-- Title: tomographer/mhrw_bin_err.h Pages: 1 -->
<svg width="349pt" height="222pt"
 viewBox="0.00 0.00 349.12 222.00" xmlns="http://www.w3.org/2000/svg" xmlns:xlink="http://www.w3.org/1999/xlink">
<g id="graph0" class="graph" transform="scale(1 1) rotate(0) translate(4 218)">
<title>tomographer/mhrw_bin_err.h</title>
<!-- Node30 -->
<g id="node1" class="node"><title>Node30</title>
<polygon fill="#bfbfbf" stroke="black" points="116.894,-185.5 116.894,-213.5 235.721,-213.5 235.721,-185.5 116.894,-185.5"/>
<text text-anchor="start" x="124.894" y="-201.5" font-family="Helvetica,sans-Serif" font-size="10.00">tomographer/mhrw_bin</text>
<text text-anchor="middle" x="176.308" y="-191.5" font-family="Helvetica,sans-Serif" font-size="10.00">_err.h</text>
</g>
<!-- Node31 -->
<g id="node2" class="node"><title>Node31</title>
<g id="a_node2"><a xlink:href="mhrw_8h.html" target="_top" xlink:title="Routines for performing a Metropolis&#45;Hastings random walk. ">
<polygon fill="none" stroke="black" points="43.4507,-130.5 43.4507,-148.5 151.165,-148.5 151.165,-130.5 43.4507,-130.5"/>
<text text-anchor="middle" x="97.3076" y="-136.5" font-family="Helvetica,sans-Serif" font-size="10.00">tomographer/mhrw.h</text>
</a>
</g>
</g>
<!-- Node30&#45;&gt;Node31 -->
<g id="edge1" class="edge"><title>Node30&#45;&gt;Node31</title>
<path fill="none" stroke="midnightblue" d="M150.017,-179.198C135.939,-168.862 119.331,-156.669 108.574,-148.771"/>
<polygon fill="midnightblue" stroke="midnightblue" points="148.249,-182.242 158.381,-185.339 152.392,-176.6 148.249,-182.242"/>
</g>
<!-- Node35 -->
<g id="node6" class="node"><title>Node35</title>
<g id="a_node6"><a xlink:href="mhrwstatscollectors_8h.html" target="_top" xlink:title="Definitions for MHRWStatsCollector Interface&#39;s. ">
<polygon fill="none" stroke="black" points="169.5,-130.5 169.5,-148.5 341.115,-148.5 341.115,-130.5 169.5,-130.5"/>
<text text-anchor="middle" x="255.308" y="-136.5" font-family="Helvetica,sans-Serif" font-size="10.00">tomographer/mhrwstatscollectors.h</text>
</a>
</g>
</g>
<!-- Node30&#45;&gt;Node35 -->
<g id="edge5" class="edge"><title>Node30&#45;&gt;Node35</title>
<path fill="none" stroke="midnightblue" d="M202.598,-179.198C216.676,-168.862 233.285,-156.669 244.041,-148.771"/>
<polygon fill="midnightblue" stroke="midnightblue" points="200.223,-176.6 194.234,-185.339 204.366,-182.242 200.223,-176.6"/>
</g>
<!-- Node32 -->
<g id="node3" class="node"><title>Node32</title>
<g id="a_node3"><a xlink:href="tspacellhwalker_8h.html" target="_top" xlink:title="Definitions for a Metropolis&#45;Hastings random walk on a quantum state space with dense matrix type...">
<polygon fill="none" stroke="black" points="0,-65.5 0,-93.5 116.615,-93.5 116.615,-65.5 0,-65.5"/>
<text text-anchor="start" x="8" y="-81.5" font-family="Helvetica,sans-Serif" font-size="10.00">tomographer/densedm</text>
<text text-anchor="middle" x="58.3076" y="-71.5" font-family="Helvetica,sans-Serif" font-size="10.00">/tspacellhwalker.h</text>
</a>
</g>
</g>
<!-- Node31&#45;&gt;Node32 -->
<g id="edge2" class="edge"><title>Node31&#45;&gt;Node32</title>
<path fill="none" stroke="midnightblue" d="M86.2355,-122.034C80.2361,-113.112 72.9189,-102.23 67.2795,-93.8428"/>
<polygon fill="midnightblue" stroke="midnightblue" points="83.4004,-124.09 91.8848,-130.435 89.2093,-120.184 83.4004,-124.09"/>
</g>
<!-- Node33 -->
<g id="node4" class="node"><title>Node33</title>
<g id="a_node4"><a xlink:href="mhrwtasks_8h.html" target="_top" xlink:title="Multiprocessing tasks interface (see Multiprocessing Task Interfaces) for parallel Metropolis&#45;Hasting...">
<polygon fill="none" stroke="black" points="134.507,-70.5 134.507,-88.5 266.108,-88.5 266.108,-70.5 134.507,-70.5"/>
<text text-anchor="middle" x="200.308" y="-76.5" font-family="Helvetica,sans-Serif" font-size="10.00">tomographer/mhrwtasks.h</text>
</a>
</g>
</g>
<!-- Node31&#45;&gt;Node33 -->
<g id="edge3" class="edge"><title>Node31&#45;&gt;Node33</title>
<path fill="none" stroke="midnightblue" d="M120.437,-125.476C140.456,-114.203 168.789,-98.2486 185.775,-88.6831"/>
<polygon fill="midnightblue" stroke="midnightblue" points="118.625,-122.479 111.629,-130.435 122.06,-128.578 118.625,-122.479"/>
</g>
<!-- Node34 -->
<g id="node5" class="node"><title>Node34</title>
<g id="a_node5"><a xlink:href="mhrw__valuehist__tasks_8h.html" target="_top" xlink:title="Tasks for collecting a histogram of values during a Metropolis&#45;Hastings random walk. ">
<polygon fill="none" stroke="black" points="174.833,-0.5 174.833,-28.5 319.783,-28.5 319.783,-0.5 174.833,-0.5"/>
<text text-anchor="start" x="182.833" y="-16.5" font-family="Helvetica,sans-Serif" font-size="10.00">tomographer/mhrw_valuehist</text>
<text text-anchor="middle" x="247.308" y="-6.5" font-family="Helvetica,sans-Serif" font-size="10.00">_tasks.h</text>
</a>
</g>
</g>
<!-- Node33&#45;&gt;Node34 -->
<g id="edge4" class="edge"><title>Node33&#45;&gt;Node34</title>
<path fill="none" stroke="midnightblue" d="M212.579,-62.0506C220.308,-51.6916 230.154,-38.4937 237.387,-28.7981"/>
<polygon fill="midnightblue" stroke="midnightblue" points="209.626,-60.1557 206.452,-70.2639 215.237,-64.3415 209.626,-60.1557"/>
</g>
<!-- Node35&#45;&gt;Node33 -->
<g id="edge7" class="edge"><title>Node35&#45;&gt;Node33</title>
<path fill="none" stroke="midnightblue" d="M240.765,-123.165C230.353,-112.184 216.727,-97.8146 208.246,-88.8718"/>
<polygon fill="midnightblue" stroke="midnightblue" points="238.239,-125.587 247.66,-130.435 243.319,-120.771 238.239,-125.587"/>
</g>
<!-- Node35&#45;&gt;Node34 -->
<g id="edge6" class="edge"><title>Node35&#45;&gt;Node34</title>
<path fill="none" stroke="midnightblue" d="M265.083,-121.309C269.103,-113.282 273.285,-103.434 275.308,-94 278.009,-81.3975 278.589,-77.4643 275.308,-65 271.789,-51.6327 263.745,-38.0818 257.177,-28.5459"/>
<polygon fill="midnightblue" stroke="midnightblue" points="261.886,-119.865 260.254,-130.334 268.058,-123.168 261.886,-119.865"/>
</g>
</g>
</svg>
