<?xml version="1.0" encoding="UTF-8" standalone="no"?>
<!DOCTYPE svg PUBLIC "-//W3C//DTD SVG 1.1//EN"
 "http://www.w3.org/Graphics/SVG/1.1/DTD/svg11.dtd">
<!-- Generated by graphviz version 2.38.0 (20140413.2041)
 -->
<!-- Title: tomographer/densedm/param_herm_x.h Pages: 1 -->
<svg width="395pt" height="102pt"
 viewBox="0.00 0.00 394.62 102.00" xmlns="http://www.w3.org/2000/svg" xmlns:xlink="http://www.w3.org/1999/xlink">
<g id="graph0" class="graph" transform="scale(1 1) rotate(0) translate(4 98)">
<title>tomographer/densedm/param_herm_x.h</title>
<!-- Node14 -->
<g id="node1" class="node"><title>Node14</title>
<polygon fill="#bfbfbf" stroke="black" points="135,-65.5 135,-93.5 251.615,-93.5 251.615,-65.5 135,-65.5"/>
<text text-anchor="start" x="143" y="-81.5" font-family="Helvetica,sans-Serif" font-size="10.00">tomographer/densedm</text>
<text text-anchor="middle" x="193.308" y="-71.5" font-family="Helvetica,sans-Serif" font-size="10.00">/param_herm_x.h</text>
</g>
<!-- Node15 -->
<g id="node2" class="node"><title>Node15</title>
<g id="a_node2"><a xlink:href="indepmeasllh_8h.html" target="_top" xlink:title="C++ types and functions for calculating the log&#45;likelihood for independent measurements. ">
<polygon fill="none" stroke="black" points="0,-0.5 0,-28.5 116.615,-28.5 116.615,-0.5 0,-0.5"/>
<text text-anchor="start" x="8" y="-16.5" font-family="Helvetica,sans-Serif" font-size="10.00">tomographer/densedm</text>
<text text-anchor="middle" x="58.3076" y="-6.5" font-family="Helvetica,sans-Serif" font-size="10.00">/indepmeasllh.h</text>
</a>
</g>
</g>
<!-- Node14&#45;&gt;Node15 -->
<g id="edge1" class="edge"><title>Node14&#45;&gt;Node15</title>
<path fill="none" stroke="midnightblue" d="M156.235,-61.1994C134.126,-50.8817 106.508,-37.9937 86.2439,-28.5369"/>
<polygon fill="midnightblue" stroke="midnightblue" points="154.794,-64.3891 165.336,-65.4464 157.754,-58.0458 154.794,-64.3891"/>
</g>
<!-- Node16 -->
<g id="node3" class="node"><title>Node16</title>
<g id="a_node3"><a xlink:href="tspacefigofmerit_8h.html" target="_top" xlink:title="Implement some standard figures of merit for when integrating in T space densely represented density ...">
<polygon fill="none" stroke="black" points="135,-0.5 135,-28.5 251.615,-28.5 251.615,-0.5 135,-0.5"/>
<text text-anchor="start" x="143" y="-16.5" font-family="Helvetica,sans-Serif" font-size="10.00">tomographer/densedm</text>
<text text-anchor="middle" x="193.308" y="-6.5" font-family="Helvetica,sans-Serif" font-size="10.00">/tspacefigofmerit.h</text>
</a>
</g>
</g>
<!-- Node14&#45;&gt;Node16 -->
<g id="edge2" class="edge"><title>Node14&#45;&gt;Node16</title>
<path fill="none" stroke="midnightblue" d="M193.308,-55.1641C193.308,-46.1693 193.308,-36.2205 193.308,-28.5369"/>
<polygon fill="midnightblue" stroke="midnightblue" points="189.808,-55.4463 193.308,-65.4464 196.808,-55.4464 189.808,-55.4463"/>
</g>
<!-- Node17 -->
<g id="node4" class="node"><title>Node17</title>
<g id="a_node4"><a xlink:href="tspacellhwalker_8h.html" target="_top" xlink:title="Definitions for a Metropolis&#45;Hastings random walk on a quantum state space with dense matrix type...">
<polygon fill="none" stroke="black" points="270,-0.5 270,-28.5 386.615,-28.5 386.615,-0.5 270,-0.5"/>
<text text-anchor="start" x="278" y="-16.5" font-family="Helvetica,sans-Serif" font-size="10.00">tomographer/densedm</text>
<text text-anchor="middle" x="328.308" y="-6.5" font-family="Helvetica,sans-Serif" font-size="10.00">/tspacellhwalker.h</text>
</a>
</g>
</g>
<!-- Node14&#45;&gt;Node17 -->
<g id="edge3" class="edge"><title>Node14&#45;&gt;Node17</title>
<path fill="none" stroke="midnightblue" d="M230.38,-61.1994C252.49,-50.8817 280.107,-37.9937 300.371,-28.5369"/>
<polygon fill="midnightblue" stroke="midnightblue" points="228.861,-58.0458 221.28,-65.4464 231.822,-64.3891 228.861,-58.0458"/>
</g>
</g>
</svg>
