<?xml version="1.0" encoding="UTF-8" standalone="no"?>
<!DOCTYPE svg PUBLIC "-//W3C//DTD SVG 1.1//EN"
 "http://www.w3.org/Graphics/SVG/1.1/DTD/svg11.dtd">
<!-- Generated by graphviz version 2.38.0 (20140413.2041)
 -->
<!-- Title: tomographer/densedm/param_herm_x.h Pages: 1 -->
<svg width="845pt" height="212pt"
 viewBox="0.00 0.00 844.71 212.00" xmlns="http://www.w3.org/2000/svg" xmlns:xlink="http://www.w3.org/1999/xlink">
<g id="graph0" class="graph" transform="scale(1 1) rotate(0) translate(4 208)">
<title>tomographer/densedm/param_herm_x.h</title>
<!-- Node0 -->
<g id="node1" class="node"><title>Node0</title>
<polygon fill="#bfbfbf" stroke="black" points="129.308,-175.5 129.308,-203.5 245.923,-203.5 245.923,-175.5 129.308,-175.5"/>
<text text-anchor="start" x="137.308" y="-191.5" font-family="Helvetica,sans-Serif" font-size="10.00">tomographer/densedm</text>
<text text-anchor="middle" x="187.616" y="-181.5" font-family="Helvetica,sans-Serif" font-size="10.00">/param_herm_x.h</text>
</g>
<!-- Node1 -->
<g id="node2" class="node"><title>Node1</title>
<polygon fill="none" stroke="#bfbfbf" points="0,-115.5 0,-133.5 43.2314,-133.5 43.2314,-115.5 0,-115.5"/>
<text text-anchor="middle" x="21.6157" y="-121.5" font-family="Helvetica,sans-Serif" font-size="10.00">cmath</text>
</g>
<!-- Node0&#45;&gt;Node1 -->
<g id="edge1" class="edge"><title>Node0&#45;&gt;Node1</title>
<path fill="none" stroke="midnightblue" d="M149.517,-175.48C122.092,-165.902 84.3214,-152.29 51.6157,-139 50.5839,-138.581 49.5353,-138.147 48.4783,-137.703"/>
<polygon fill="midnightblue" stroke="midnightblue" points="49.5382,-134.348 38.9718,-133.572 46.7478,-140.768 49.5382,-134.348"/>
</g>
<!-- Node2 -->
<g id="node3" class="node"><title>Node2</title>
<polygon fill="none" stroke="#bfbfbf" points="60.9976,-115.5 60.9976,-133.5 114.234,-133.5 114.234,-115.5 60.9976,-115.5"/>
<text text-anchor="middle" x="87.6157" y="-121.5" font-family="Helvetica,sans-Serif" font-size="10.00">complex</text>
</g>
<!-- Node0&#45;&gt;Node2 -->
<g id="edge2" class="edge"><title>Node0&#45;&gt;Node2</title>
<path fill="none" stroke="midnightblue" d="M166.896,-175.446C150.001,-164.803 126.221,-149.821 109.119,-139.047"/>
<polygon fill="midnightblue" stroke="midnightblue" points="110.717,-135.917 100.39,-133.548 106.986,-141.84 110.717,-135.917"/>
</g>
<!-- Node3 -->
<g id="node4" class="node"><title>Node3</title>
<polygon fill="none" stroke="#bfbfbf" points="132.089,-110.5 132.089,-138.5 243.143,-138.5 243.143,-110.5 132.089,-110.5"/>
<text text-anchor="start" x="140.089" y="-126.5" font-family="Helvetica,sans-Serif" font-size="10.00">boost/math/constants</text>
<text text-anchor="middle" x="187.616" y="-116.5" font-family="Helvetica,sans-Serif" font-size="10.00">/constants.hpp</text>
</g>
<!-- Node0&#45;&gt;Node3 -->
<g id="edge3" class="edge"><title>Node0&#45;&gt;Node3</title>
<path fill="none" stroke="midnightblue" d="M187.616,-175.446C187.616,-167.759 187.616,-157.81 187.616,-148.816"/>
<polygon fill="midnightblue" stroke="midnightblue" points="191.116,-148.537 187.616,-138.537 184.116,-148.537 191.116,-148.537"/>
</g>
<!-- Node4 -->
<g id="node5" class="node"><title>Node4</title>
<polygon fill="none" stroke="#bfbfbf" points="183.601,-55.5 183.601,-73.5 249.63,-73.5 249.63,-55.5 183.601,-55.5"/>
<text text-anchor="middle" x="216.616" y="-61.5" font-family="Helvetica,sans-Serif" font-size="10.00">Eigen/Core</text>
</g>
<!-- Node0&#45;&gt;Node4 -->
<g id="edge4" class="edge"><title>Node0&#45;&gt;Node4</title>
<path fill="none" stroke="midnightblue" d="M215.075,-175.361C229.063,-167.062 244.745,-154.888 252.616,-139 258.337,-127.451 256.915,-122.151 252.616,-110 248.688,-98.8989 240.682,-88.54 233.216,-80.6149"/>
<polygon fill="midnightblue" stroke="midnightblue" points="235.668,-78.1166 226.101,-73.5637 230.74,-83.0887 235.668,-78.1166"/>
</g>
<!-- Node5 -->
<g id="node6" class="node"><title>Node5</title>
<g id="a_node6"><a xlink:href="cxxutil_8h.html" target="_top" xlink:title="Some C++ utilities, with a tad of C++11 tricks. ">
<polygon fill="none" stroke="black" points="353.865,-115.5 353.865,-133.5 489.367,-133.5 489.367,-115.5 353.865,-115.5"/>
<text text-anchor="middle" x="421.616" y="-121.5" font-family="Helvetica,sans-Serif" font-size="10.00">tomographer/tools/cxxutil.h</text>
</a>
</g>
</g>
<!-- Node0&#45;&gt;Node5 -->
<g id="edge5" class="edge"><title>Node0&#45;&gt;Node5</title>
<path fill="none" stroke="midnightblue" d="M236.101,-175.446C279.294,-163.817 341.722,-147.01 381.989,-136.169"/>
<polygon fill="midnightblue" stroke="midnightblue" points="382.977,-139.527 391.723,-133.548 381.157,-132.768 382.977,-139.527"/>
</g>
<!-- Node5&#45;&gt;Node4 -->
<g id="edge12" class="edge"><title>Node5&#45;&gt;Node4</title>
<path fill="none" stroke="midnightblue" d="M393.111,-115.435C357.107,-105.249 295.02,-87.6826 254.904,-76.3328"/>
<polygon fill="midnightblue" stroke="midnightblue" points="255.783,-72.9441 245.208,-73.5894 253.877,-79.6797 255.783,-72.9441"/>
</g>
<!-- Node6 -->
<g id="node7" class="node"><title>Node6</title>
<polygon fill="none" stroke="#bfbfbf" points="267.5,-55.5 267.5,-73.5 315.731,-73.5 315.731,-55.5 267.5,-55.5"/>
<text text-anchor="middle" x="291.616" y="-61.5" font-family="Helvetica,sans-Serif" font-size="10.00">cassert</text>
</g>
<!-- Node5&#45;&gt;Node6 -->
<g id="edge6" class="edge"><title>Node5&#45;&gt;Node6</title>
<path fill="none" stroke="midnightblue" d="M403.54,-115.435C381.737,-105.708 344.851,-89.2511 319.418,-77.9041"/>
<polygon fill="midnightblue" stroke="midnightblue" points="320.516,-74.5613 309.957,-73.6831 317.663,-80.9539 320.516,-74.5613"/>
</g>
<!-- Node7 -->
<g id="node8" class="node"><title>Node7</title>
<polygon fill="none" stroke="#bfbfbf" points="333.495,-55.5 333.495,-73.5 381.736,-73.5 381.736,-55.5 333.495,-55.5"/>
<text text-anchor="middle" x="357.616" y="-61.5" font-family="Helvetica,sans-Serif" font-size="10.00">cstddef</text>
</g>
<!-- Node5&#45;&gt;Node7 -->
<g id="edge7" class="edge"><title>Node5&#45;&gt;Node7</title>
<path fill="none" stroke="midnightblue" d="M412.717,-115.435C402.894,-106.533 386.852,-91.9952 374.604,-80.8954"/>
<polygon fill="midnightblue" stroke="midnightblue" points="376.614,-77.9935 366.854,-73.8718 371.913,-83.1804 376.614,-77.9935"/>
</g>
<!-- Node8 -->
<g id="node9" class="node"><title>Node8</title>
<polygon fill="none" stroke="#bfbfbf" points="399.443,-55.5 399.443,-73.5 443.788,-73.5 443.788,-55.5 399.443,-55.5"/>
<text text-anchor="middle" x="421.616" y="-61.5" font-family="Helvetica,sans-Serif" font-size="10.00">cstdlib</text>
</g>
<!-- Node5&#45;&gt;Node8 -->
<g id="edge8" class="edge"><title>Node5&#45;&gt;Node8</title>
<path fill="none" stroke="midnightblue" d="M421.616,-115.435C421.616,-107.389 421.616,-94.7388 421.616,-84.1846"/>
<polygon fill="midnightblue" stroke="midnightblue" points="425.116,-83.8717 421.616,-73.8718 418.116,-83.8718 425.116,-83.8717"/>
</g>
<!-- Node9 -->
<g id="node10" class="node"><title>Node9</title>
<polygon fill="none" stroke="#bfbfbf" points="461.549,-55.5 461.549,-73.5 523.682,-73.5 523.682,-55.5 461.549,-55.5"/>
<text text-anchor="middle" x="492.616" y="-61.5" font-family="Helvetica,sans-Serif" font-size="10.00">type_traits</text>
</g>
<!-- Node5&#45;&gt;Node9 -->
<g id="edge9" class="edge"><title>Node5&#45;&gt;Node9</title>
<path fill="none" stroke="midnightblue" d="M431.488,-115.435C442.595,-106.362 460.869,-91.434 474.549,-80.2589"/>
<polygon fill="midnightblue" stroke="midnightblue" points="476.837,-82.9088 482.368,-73.8718 472.409,-77.4877 476.837,-82.9088"/>
</g>
<!-- Node10 -->
<g id="node11" class="node"><title>Node10</title>
<polygon fill="none" stroke="#bfbfbf" points="541.212,-55.5 541.212,-73.5 600.02,-73.5 600.02,-55.5 541.212,-55.5"/>
<text text-anchor="middle" x="570.616" y="-61.5" font-family="Helvetica,sans-Serif" font-size="10.00">exception</text>
</g>
<!-- Node5&#45;&gt;Node10 -->
<g id="edge10" class="edge"><title>Node5&#45;&gt;Node10</title>
<path fill="none" stroke="midnightblue" d="M442.334,-115.435C467.655,-105.579 510.725,-88.813 539.904,-77.4549"/>
<polygon fill="midnightblue" stroke="midnightblue" points="541.544,-80.5723 549.594,-73.6831 539.005,-74.0491 541.544,-80.5723"/>
</g>
<!-- Node11 -->
<g id="node12" class="node"><title>Node11</title>
<polygon fill="none" stroke="#bfbfbf" points="618.214,-55.5 618.214,-73.5 677.017,-73.5 677.017,-55.5 618.214,-55.5"/>
<text text-anchor="middle" x="647.616" y="-61.5" font-family="Helvetica,sans-Serif" font-size="10.00">stdexcept</text>
</g>
<!-- Node5&#45;&gt;Node11 -->
<g id="edge11" class="edge"><title>Node5&#45;&gt;Node11</title>
<path fill="none" stroke="midnightblue" d="M453.04,-115.435C493.548,-105.04 564.002,-86.9583 608.098,-75.6417"/>
<polygon fill="midnightblue" stroke="midnightblue" points="609.08,-79.0032 617.896,-73.1272 607.34,-72.223 609.08,-79.0032"/>
</g>
<!-- Node12 -->
<g id="node13" class="node"><title>Node12</title>
<g id="a_node13"><a xlink:href="conststr_8h.html" target="_top" xlink:title="A constexpr string type, suitable for basic compile&#45;time string processing. ">
<polygon fill="none" stroke="black" points="694.525,-55.5 694.525,-73.5 836.707,-73.5 836.707,-55.5 694.525,-55.5"/>
<text text-anchor="middle" x="765.616" y="-61.5" font-family="Helvetica,sans-Serif" font-size="10.00">tomographer/tools/conststr.h</text>
</a>
</g>
</g>
<!-- Node5&#45;&gt;Node12 -->
<g id="edge13" class="edge"><title>Node5&#45;&gt;Node12</title>
<path fill="none" stroke="midnightblue" d="M469.086,-115.496C531.498,-104.973 641.058,-86.501 708.103,-75.1969"/>
<polygon fill="midnightblue" stroke="midnightblue" points="708.801,-78.6286 718.08,-73.5147 707.638,-71.7261 708.801,-78.6286"/>
</g>
<!-- Node13 -->
<g id="node14" class="node"><title>Node13</title>
<polygon fill="none" stroke="#bfbfbf" points="745.389,-0.5 745.389,-18.5 785.842,-18.5 785.842,-0.5 745.389,-0.5"/>
<text text-anchor="middle" x="765.616" y="-6.5" font-family="Helvetica,sans-Serif" font-size="10.00">string</text>
</g>
<!-- Node12&#45;&gt;Node13 -->
<g id="edge14" class="edge"><title>Node12&#45;&gt;Node13</title>
<path fill="none" stroke="midnightblue" d="M765.616,-55.2188C765.616,-48.1769 765.616,-37.8083 765.616,-28.8277"/>
<polygon fill="midnightblue" stroke="midnightblue" points="769.116,-28.5495 765.616,-18.5496 762.116,-28.5496 769.116,-28.5495"/>
</g>
</g>
</svg>
