<?xml version="1.0" encoding="UTF-8" standalone="no"?>
<!DOCTYPE svg PUBLIC "-//W3C//DTD SVG 1.1//EN"
 "http://www.w3.org/Graphics/SVG/1.1/DTD/svg11.dtd">
<!-- Generated by graphviz version 2.38.0 (20140413.2041)
 -->
<!-- Title: Tomographer::UniformBinsHistogramWithErrorBars&lt; Scalar_, CountType_ &gt; Pages: 1 -->
<!--zoomable 237 -->
<svg id="main" version="1.1" xmlns="http://www.w3.org/2000/svg" xmlns:xlink="http://www.w3.org/1999/xlink" xml:space="preserve" onload="init(evt)">
<style type="text/css"><![CDATA[
.edge:hover path { stroke: red; }
.edge:hover polygon { stroke: red; fill: red; }
]]></style>
<script type="text/javascript"><![CDATA[
var edges = document.getElementsByTagName('g');
if (edges && edges.length) {
  for (var i=0;i<edges.length;i++) {
    if (edges[i].id.substr(0,4)=='edge') {
      edges[i].setAttribute('class','edge');
    }
  }
}
]]></script>
        <defs>
                <circle id="rim" cx="0" cy="0" r="7"/>
                <circle id="rim2" cx="0" cy="0" r="3.5"/>
                <g id="zoomPlus">
                        <use xlink:href="#rim" fill="#404040">
                                <set attributeName="fill" to="#808080" begin="zoomplus.mouseover" end="zoomplus.mouseout"/>
                        </use>
                        <path d="M-4,0h8M0,-4v8" fill="none" stroke="white" stroke-width="1.5" pointer-events="none"/>
                </g>
                <g id="zoomMin">
                        <use xlink:href="#rim" fill="#404040">
                                <set attributeName="fill" to="#808080" begin="zoomminus.mouseover" end="zoomminus.mouseout"/>
                        </use>
                        <path d="M-4,0h8" fill="none" stroke="white" stroke-width="1.5" pointer-events="none"/>
                </g>
                <g id="dirArrow">
                        <path fill="none" stroke="white" stroke-width="1.5" d="M0,-3.0v7 M-2.5,-0.5L0,-3.0L2.5,-0.5"/>
                </g>
               <g id="resetDef">
                       <use xlink:href="#rim2" fill="#404040">
                               <set attributeName="fill" to="#808080" begin="reset.mouseover" end="reset.mouseout"/>
                       </use>
               </g>
        </defs>

<script type="text/javascript">
var viewWidth = 1605;
var viewHeight = 237;
var sectionId = 'dynsection-0';
</script>
<script xlink:href="svgpan.js"/>
<svg id="graph" class="graph">
<g id="viewport">
<title>Tomographer::UniformBinsHistogramWithErrorBars&lt; Scalar_, CountType_ &gt;</title>
<!-- Node0 -->
<g id="node1" class="node"><title>Node0</title>
<polygon fill="#bfbfbf" stroke="black" points="423.393,-85.5 423.393,-123.5 558.328,-123.5 558.328,-85.5 423.393,-85.5"/>
<text text-anchor="start" x="431.393" y="-111.5" font-family="Helvetica,sans-Serif" font-size="10.00">Tomographer::UniformBins</text>
<text text-anchor="start" x="431.393" y="-101.5" font-family="Helvetica,sans-Serif" font-size="10.00">HistogramWithErrorBars</text>
<text text-anchor="middle" x="490.86" y="-91.5" font-family="Helvetica,sans-Serif" font-size="10.00">&lt; Scalar_, CountType_ &gt;</text>
</g>
<!-- Node3 -->
<g id="node4" class="node"><title>Node3</title>
<g id="a_node4"><a xlink:href="struct_tomographer_1_1_uniform_bins_histogram_with_error_bars.html" target="_top" xlink:title="Tomographer::UniformBins\lHistogramWithErrorBars\l\&lt; HistogramType_::Scalar,\l RealAvgType \&gt;">
<polygon fill="none" stroke="black" points="732.429,-113.5 732.429,-161.5 867.364,-161.5 867.364,-113.5 732.429,-113.5"/>
<text text-anchor="start" x="740.429" y="-149.5" font-family="Helvetica,sans-Serif" font-size="10.00">Tomographer::UniformBins</text>
<text text-anchor="start" x="740.429" y="-139.5" font-family="Helvetica,sans-Serif" font-size="10.00">HistogramWithErrorBars</text>
<text text-anchor="start" x="740.429" y="-129.5" font-family="Helvetica,sans-Serif" font-size="10.00">&lt; HistogramType_::Scalar,</text>
<text text-anchor="middle" x="799.896" y="-119.5" font-family="Helvetica,sans-Serif" font-size="10.00"> RealAvgType &gt;</text>
</a>
</g>
</g>
<!-- Node0&#45;&gt;Node3 -->
<g id="edge4" class="edge"><title>Node0&#45;&gt;Node3</title>
<path fill="none" stroke="orange" stroke-dasharray="5,2" d="M568.673,-112.756C619.048,-118.17 684.254,-125.178 732.404,-130.353"/>
<polygon fill="orange" stroke="orange" points="568.799,-109.249 558.483,-111.661 568.051,-116.209 568.799,-109.249"/>
<text text-anchor="start" x="585.208" y="-140.5" font-family="Helvetica,sans-Serif" font-size="10.00"> &lt; HistogramType_::Scalar,</text>
<text text-anchor="middle" x="645.378" y="-130.5" font-family="Helvetica,sans-Serif" font-size="10.00"> RealAvgType &gt;</text>
</g>
<!-- Node8 -->
<g id="node9" class="node"><title>Node8</title>
<g id="a_node9"><a xlink:href="struct_tomographer_1_1_uniform_bins_histogram_with_error_bars.html" target="_top" xlink:title="Tomographer::UniformBins\lHistogramWithErrorBars\l\&lt; HistogramType ::Scalar,\l CountRealType \&gt;">
<polygon fill="none" stroke="black" points="1094.36,-0.5 1094.36,-48.5 1229.29,-48.5 1229.29,-0.5 1094.36,-0.5"/>
<text text-anchor="start" x="1102.36" y="-36.5" font-family="Helvetica,sans-Serif" font-size="10.00">Tomographer::UniformBins</text>
<text text-anchor="start" x="1102.36" y="-26.5" font-family="Helvetica,sans-Serif" font-size="10.00">HistogramWithErrorBars</text>
<text text-anchor="start" x="1102.36" y="-16.5" font-family="Helvetica,sans-Serif" font-size="10.00">&lt; HistogramType ::Scalar,</text>
<text text-anchor="middle" x="1161.83" y="-6.5" font-family="Helvetica,sans-Serif" font-size="10.00"> CountRealType &gt;</text>
</a>
</g>
</g>
<!-- Node0&#45;&gt;Node8 -->
<g id="edge9" class="edge"><title>Node0&#45;&gt;Node8</title>
<path fill="none" stroke="orange" stroke-dasharray="5,2" d="M559.735,-82.6289C565.321,-81.128 570.903,-79.7271 576.328,-78.5 760.709,-36.7948 984.778,-27.1764 1094.21,-25.0417"/>
<polygon fill="orange" stroke="orange" points="558.402,-79.3668 549.708,-85.4225 560.281,-86.11 558.402,-79.3668"/>
<text text-anchor="start" x="741.117" y="-63.5" font-family="Helvetica,sans-Serif" font-size="10.00"> &lt; HistogramType ::Scalar,</text>
<text text-anchor="middle" x="799.896" y="-53.5" font-family="Helvetica,sans-Serif" font-size="10.00"> CountRealType &gt;</text>
</g>
<!-- Node9 -->
<g id="node10" class="node"><title>Node9</title>
<g id="a_node10"><a xlink:href="struct_tomographer_1_1_uniform_bins_histogram_with_error_bars.html" target="_top" xlink:title="Tomographer::UniformBins\lHistogramWithErrorBars\l\&lt; NormalizedHistogramType\l ::Scalar, CountRealType \&gt;">
<polygon fill="none" stroke="black" points="900.647,-176.5 900.647,-224.5 1043.09,-224.5 1043.09,-176.5 900.647,-176.5"/>
<text text-anchor="start" x="908.647" y="-212.5" font-family="Helvetica,sans-Serif" font-size="10.00">Tomographer::UniformBins</text>
<text text-anchor="start" x="908.647" y="-202.5" font-family="Helvetica,sans-Serif" font-size="10.00">HistogramWithErrorBars</text>
<text text-anchor="start" x="908.647" y="-192.5" font-family="Helvetica,sans-Serif" font-size="10.00">&lt; NormalizedHistogramType</text>
<text text-anchor="middle" x="971.868" y="-182.5" font-family="Helvetica,sans-Serif" font-size="10.00"> ::Scalar, CountRealType &gt;</text>
</a>
</g>
</g>
<!-- Node0&#45;&gt;Node9 -->
<g id="edge11" class="edge"><title>Node0&#45;&gt;Node9</title>
<path fill="none" stroke="orange" stroke-dasharray="5,2" d="M527.731,-129.06C542.223,-137.845 559.483,-146.938 576.328,-152.5 685.75,-188.629 820.308,-198.048 900.642,-200.23"/>
<polygon fill="orange" stroke="orange" points="529.43,-125.995 519.094,-123.665 525.721,-131.932 529.43,-125.995"/>
<text text-anchor="start" x="580.769" y="-196.5" font-family="Helvetica,sans-Serif" font-size="10.00"> &lt; NormalizedHistogramType</text>
<text text-anchor="middle" x="645.378" y="-186.5" font-family="Helvetica,sans-Serif" font-size="10.00"> ::Scalar, CountRealType &gt;</text>
</g>
<!-- Node10 -->
<g id="node11" class="node"><title>Node10</title>
<g id="a_node11"><a xlink:href="struct_tomographer_1_1_uniform_bins_histogram_with_error_bars.html" target="_top" xlink:title="Tomographer::UniformBins\lHistogramWithErrorBars\l\&lt; SimpleNormalizedHistogramType\l ::Scalar, double \&gt;">
<polygon fill="none" stroke="black" points="885.364,-56.5 885.364,-104.5 1058.37,-104.5 1058.37,-56.5 885.364,-56.5"/>
<text text-anchor="start" x="893.364" y="-92.5" font-family="Helvetica,sans-Serif" font-size="10.00">Tomographer::UniformBins</text>
<text text-anchor="start" x="893.364" y="-82.5" font-family="Helvetica,sans-Serif" font-size="10.00">HistogramWithErrorBars</text>
<text text-anchor="start" x="893.364" y="-72.5" font-family="Helvetica,sans-Serif" font-size="10.00">&lt; SimpleNormalizedHistogramType</text>
<text text-anchor="middle" x="971.868" y="-62.5" font-family="Helvetica,sans-Serif" font-size="10.00"> ::Scalar, double &gt;</text>
</a>
</g>
</g>
<!-- Node0&#45;&gt;Node10 -->
<g id="edge13" class="edge"><title>Node0&#45;&gt;Node10</title>
<path fill="none" stroke="orange" stroke-dasharray="5,2" d="M568.654,-91.3057C571.24,-91.0103 573.803,-90.7401 576.328,-90.5 682.396,-80.415 805.178,-78.8921 885.234,-79.2506"/>
<polygon fill="orange" stroke="orange" points="568.094,-87.8483 558.604,-92.5586 568.96,-94.7945 568.094,-87.8483"/>
<text text-anchor="start" x="576.328" y="-102.5" font-family="Helvetica,sans-Serif" font-size="10.00"> &lt; SimpleNormalizedHistogram</text>
<text text-anchor="middle" x="645.378" y="-92.5" font-family="Helvetica,sans-Serif" font-size="10.00">Type ::Scalar, double &gt;</text>
</g>
<!-- Node1 -->
<g id="node2" class="node"><title>Node1</title>
<g id="a_node2"><a xlink:href="struct_tomographer_1_1_uniform_bins_histogram.html" target="_top" xlink:title="Stores a histogram. ">
<polygon fill="none" stroke="black" points="214.196,-116.5 214.196,-144.5 386.393,-144.5 386.393,-116.5 214.196,-116.5"/>
<text text-anchor="start" x="222.196" y="-132.5" font-family="Helvetica,sans-Serif" font-size="10.00">Tomographer::UniformBins</text>
<text text-anchor="middle" x="300.294" y="-122.5" font-family="Helvetica,sans-Serif" font-size="10.00">Histogram&lt; Scalar_, CountType_ &gt;</text>
</a>
</g>
</g>
<!-- Node1&#45;&gt;Node0 -->
<g id="edge1" class="edge"><title>Node1&#45;&gt;Node0</title>
<path fill="none" stroke="midnightblue" d="M396.592,-117.36C405.564,-116.123 414.524,-114.888 423.146,-113.699"/>
<polygon fill="midnightblue" stroke="midnightblue" points="395.903,-113.922 386.475,-118.755 396.859,-120.856 395.903,-113.922"/>
</g>
<!-- Node2 -->
<g id="node3" class="node"><title>Node2</title>
<g id="a_node3"><a xlink:href="struct_tomographer_1_1_tools_1_1_eigen_aligned_operator_new_provider.html" target="_top" xlink:title="Provides correct operator&#45;new implementation for Eigen types via the NeedOwnOperatorNew mechanism...">
<polygon fill="none" stroke="black" points="0,-90.5 0,-118.5 177.196,-118.5 177.196,-90.5 0,-90.5"/>
<text text-anchor="start" x="8" y="-106.5" font-family="Helvetica,sans-Serif" font-size="10.00">Tomographer::Tools</text>
<text text-anchor="middle" x="88.5981" y="-96.5" font-family="Helvetica,sans-Serif" font-size="10.00">::EigenAlignedOperatorNewProvider</text>
</a>
</g>
</g>
<!-- Node2&#45;&gt;Node0 -->
<g id="edge3" class="edge"><title>Node2&#45;&gt;Node0</title>
<path fill="none" stroke="midnightblue" d="M187.601,-104.5C260.848,-104.5 359.029,-104.5 423.333,-104.5"/>
<polygon fill="midnightblue" stroke="midnightblue" points="187.437,-101 177.437,-104.5 187.437,-108 187.437,-101"/>
</g>
<!-- Node2&#45;&gt;Node1 -->
<g id="edge2" class="edge"><title>Node2&#45;&gt;Node1</title>
<path fill="none" stroke="midnightblue" d="M187.313,-116.616C196.208,-117.718 205.171,-118.83 213.946,-119.918"/>
<polygon fill="midnightblue" stroke="midnightblue" points="187.668,-113.133 177.313,-115.376 186.807,-120.08 187.668,-113.133"/>
</g>
<!-- Node4 -->
<g id="node5" class="node"><title>Node4</title>
<g id="a_node5"><a xlink:href="struct_tomographer_1_1_averaged_histogram.html" target="_top" xlink:title="Combines several histograms (with same parameters) into an averaged histogram. ">
<polygon fill="none" stroke="black" points="1076.37,-138.5 1076.37,-166.5 1247.28,-166.5 1247.28,-138.5 1076.37,-138.5"/>
<text text-anchor="start" x="1084.37" y="-154.5" font-family="Helvetica,sans-Serif" font-size="10.00">Tomographer::AveragedHistogram</text>
<text text-anchor="middle" x="1161.83" y="-144.5" font-family="Helvetica,sans-Serif" font-size="10.00">&lt; HistogramType_, RealAvgType &gt;</text>
</a>
</g>
</g>
<!-- Node3&#45;&gt;Node4 -->
<g id="edge5" class="edge"><title>Node3&#45;&gt;Node4</title>
<path fill="none" stroke="midnightblue" d="M878.006,-140.714C936.278,-143.142 1016.21,-146.473 1076.23,-148.975"/>
<polygon fill="midnightblue" stroke="midnightblue" points="877.89,-137.206 867.753,-140.286 877.599,-144.2 877.89,-137.206"/>
</g>
<!-- Node5 -->
<g id="node6" class="node"><title>Node5</title>
<g id="a_node6"><a xlink:href="struct_tomographer_1_1_averaged_histogram.html" target="_top" xlink:title="Tomographer::AveragedHistogram\l\&lt; NormalizedHistogramType,\l CountRealType \&gt;">
<polygon fill="none" stroke="black" points="1424.94,-190.5 1424.94,-228.5 1593.61,-228.5 1593.61,-190.5 1424.94,-190.5"/>
<text text-anchor="start" x="1432.94" y="-216.5" font-family="Helvetica,sans-Serif" font-size="10.00">Tomographer::AveragedHistogram</text>
<text text-anchor="start" x="1432.94" y="-206.5" font-family="Helvetica,sans-Serif" font-size="10.00">&lt; NormalizedHistogramType,</text>
<text text-anchor="middle" x="1509.28" y="-196.5" font-family="Helvetica,sans-Serif" font-size="10.00"> CountRealType &gt;</text>
</a>
</g>
</g>
<!-- Node4&#45;&gt;Node5 -->
<g id="edge6" class="edge"><title>Node4&#45;&gt;Node5</title>
<path fill="none" stroke="orange" stroke-dasharray="5,2" d="M1238.65,-168.529C1247.62,-170.279 1256.64,-171.976 1265.28,-173.5 1318.2,-182.836 1377.89,-191.703 1424.87,-198.301"/>
<polygon fill="orange" stroke="orange" points="1239.08,-165.045 1228.59,-166.537 1237.72,-171.912 1239.08,-165.045"/>
<text text-anchor="start" x="1268.33" y="-207.5" font-family="Helvetica,sans-Serif" font-size="10.00"> &lt; NormalizedHistogramType,</text>
<text text-anchor="middle" x="1334.33" y="-197.5" font-family="Helvetica,sans-Serif" font-size="10.00"> CountRealType &gt;</text>
</g>
<!-- Node6 -->
<g id="node7" class="node"><title>Node6</title>
<g id="a_node7"><a xlink:href="struct_tomographer_1_1_averaged_histogram.html" target="_top" xlink:title="Tomographer::AveragedHistogram\l\&lt; SimpleNormalizedHistogramType,\l double \&gt;">
<polygon fill="none" stroke="black" points="1421.38,-121.5 1421.38,-159.5 1597.17,-159.5 1597.17,-121.5 1421.38,-121.5"/>
<text text-anchor="start" x="1429.38" y="-147.5" font-family="Helvetica,sans-Serif" font-size="10.00">Tomographer::AveragedHistogram</text>
<text text-anchor="start" x="1429.38" y="-137.5" font-family="Helvetica,sans-Serif" font-size="10.00">&lt; SimpleNormalizedHistogramType,</text>
<text text-anchor="middle" x="1509.28" y="-127.5" font-family="Helvetica,sans-Serif" font-size="10.00"> double &gt;</text>
</a>
</g>
</g>
<!-- Node4&#45;&gt;Node6 -->
<g id="edge7" class="edge"><title>Node4&#45;&gt;Node6</title>
<path fill="none" stroke="orange" stroke-dasharray="5,2" d="M1257.41,-149.214C1308.59,-147.436 1371.38,-145.255 1421.34,-143.52"/>
<polygon fill="orange" stroke="orange" points="1257.21,-145.719 1247.33,-149.564 1257.45,-152.715 1257.21,-145.719"/>
<text text-anchor="start" x="1265.28" y="-161.5" font-family="Helvetica,sans-Serif" font-size="10.00"> &lt; SimpleNormalizedHistogram</text>
<text text-anchor="middle" x="1334.33" y="-151.5" font-family="Helvetica,sans-Serif" font-size="10.00">Type, double &gt;</text>
</g>
<!-- Node7 -->
<g id="node8" class="node"><title>Node7</title>
<g id="a_node8"><a xlink:href="struct_tomographer_1_1_averaged_histogram.html" target="_top" xlink:title="Tomographer::AveragedHistogram\l\&lt; HistogramType, CountRealType \&gt;">
<polygon fill="none" stroke="black" points="1421.79,-50.5 1421.79,-78.5 1596.77,-78.5 1596.77,-50.5 1421.79,-50.5"/>
<text text-anchor="start" x="1429.79" y="-66.5" font-family="Helvetica,sans-Serif" font-size="10.00">Tomographer::AveragedHistogram</text>
<text text-anchor="middle" x="1509.28" y="-56.5" font-family="Helvetica,sans-Serif" font-size="10.00">&lt; HistogramType, CountRealType &gt;</text>
</a>
</g>
</g>
<!-- Node4&#45;&gt;Node7 -->
<g id="edge8" class="edge"><title>Node4&#45;&gt;Node7</title>
<path fill="none" stroke="orange" stroke-dasharray="5,2" d="M1215.2,-135.299C1231.2,-130.272 1248.9,-124.94 1265.28,-120.5 1324.3,-104.507 1392.17,-89.1139 1441.15,-78.5278"/>
<polygon fill="orange" stroke="orange" points="1213.96,-132.02 1205.48,-138.378 1216.07,-138.693 1213.96,-132.02"/>
<text text-anchor="start" x="1268.61" y="-132.5" font-family="Helvetica,sans-Serif" font-size="10.00"> &lt; HistogramType, CountReal</text>
<text text-anchor="middle" x="1334.33" y="-122.5" font-family="Helvetica,sans-Serif" font-size="10.00">Type &gt;</text>
</g>
<!-- Node8&#45;&gt;Node7 -->
<g id="edge10" class="edge"><title>Node8&#45;&gt;Node7</title>
<path fill="none" stroke="midnightblue" d="M1239.61,-33.3914C1293.5,-39.6306 1365.63,-47.9823 1421.58,-54.4612"/>
<polygon fill="midnightblue" stroke="midnightblue" points="1239.77,-29.8859 1229.43,-32.2124 1238.96,-36.8395 1239.77,-29.8859"/>
</g>
<!-- Node9&#45;&gt;Node5 -->
<g id="edge12" class="edge"><title>Node9&#45;&gt;Node5</title>
<path fill="none" stroke="midnightblue" d="M1053.35,-207.403C1139.83,-213.95 1281.33,-222.148 1403.38,-217.5 1410.32,-217.236 1417.51,-216.874 1424.72,-216.449"/>
<polygon fill="midnightblue" stroke="midnightblue" points="1053.58,-203.91 1043.34,-206.634 1053.04,-210.89 1053.58,-203.91"/>
</g>
<!-- Node10&#45;&gt;Node6 -->
<g id="edge14" class="edge"><title>Node10&#45;&gt;Node6</title>
<path fill="none" stroke="midnightblue" d="M1068.72,-71.8584C1156.92,-66.502 1290.74,-64.9723 1403.38,-91.5 1429.21,-97.5817 1456.29,-110.419 1476.46,-121.429"/>
<polygon fill="midnightblue" stroke="midnightblue" points="1068.49,-68.3661 1058.73,-72.4934 1068.93,-75.352 1068.49,-68.3661"/>
</g>
</g>
</svg>
        <g id="navigator" transform="translate(0 0)" fill="#404254">
                <rect fill="#f2f5e9" fill-opacity="0.5" stroke="#606060" stroke-width=".5" x="0" y="0" width="60" height="60"/>
                <use id="zoomplus" xlink:href="#zoomPlus" x="17" y="9" onmousedown="handleZoom(evt,'in')"/>
                <use id="zoomminus" xlink:href="#zoomMin" x="42" y="9" onmousedown="handleZoom(evt,'out')"/>
                <use id="reset" xlink:href="#resetDef" x="30" y="36" onmousedown="handleReset()"/>
                <g id="arrowUp" xlink:href="#dirArrow" transform="translate(30 24)" onmousedown="handlePan(0,-1)">
                  <use xlink:href="#rim" fill="#404040">
                        <set attributeName="fill" to="#808080" begin="arrowUp.mouseover" end="arrowUp.mouseout"/>
                  </use>
                  <path fill="none" stroke="white" stroke-width="1.5" d="M0,-3.0v7 M-2.5,-0.5L0,-3.0L2.5,-0.5"/>
                </g>
                <g id="arrowRight" xlink:href="#dirArrow" transform="rotate(90) translate(36 -43)" onmousedown="handlePan(1,0)">
                  <use xlink:href="#rim" fill="#404040">
                        <set attributeName="fill" to="#808080" begin="arrowRight.mouseover" end="arrowRight.mouseout"/>
                  </use>
                  <path fill="none" stroke="white" stroke-width="1.5" d="M0,-3.0v7 M-2.5,-0.5L0,-3.0L2.5,-0.5"/>
                </g>
                <g id="arrowDown" xlink:href="#dirArrow" transform="rotate(180) translate(-30 -48)" onmousedown="handlePan(0,1)">
                  <use xlink:href="#rim" fill="#404040">
                        <set attributeName="fill" to="#808080" begin="arrowDown.mouseover" end="arrowDown.mouseout"/>
                  </use>
                  <path fill="none" stroke="white" stroke-width="1.5" d="M0,-3.0v7 M-2.5,-0.5L0,-3.0L2.5,-0.5"/>
                </g>
                <g id="arrowLeft" xlink:href="#dirArrow" transform="rotate(270) translate(-36 17)" onmousedown="handlePan(-1,0)">
                  <use xlink:href="#rim" fill="#404040">
                        <set attributeName="fill" to="#808080" begin="arrowLeft.mouseover" end="arrowLeft.mouseout"/>
                  </use>
                  <path fill="none" stroke="white" stroke-width="1.5" d="M0,-3.0v7 M-2.5,-0.5L0,-3.0L2.5,-0.5"/>
                </g>
        </g>
        <svg viewBox="0 0 15 15" width="100%" height="30px" preserveAspectRatio="xMaxYMin meet">
         <g id="arrow_out" transform="scale(0.3 0.3)">
          <a xlink:href="struct_tomographer_1_1_uniform_bins_histogram_with_error_bars__inherit__graph_org.svg" target="_base">
           <rect id="button" ry="5" rx="5" y="6" x="6" height="38" width="38"
                fill="#f2f5e9" fill-opacity="0.5" stroke="#606060" stroke-width="1.0"/>
           <path id="arrow"
             d="M 11.500037,31.436501 C 11.940474,20.09759 22.043105,11.32322 32.158766,21.979434 L 37.068811,17.246167 C 37.068811,17.246167 37.088388,32 37.088388,32 L 22.160133,31.978069 C 22.160133,31.978069 26.997745,27.140456 26.997745,27.140456 C 18.528582,18.264221 13.291696,25.230495 11.500037,31.436501 z"
             style="fill:#404040;"/>
          </a>
         </g>
        </svg>
</svg>
