<?xml version="1.0" encoding="UTF-8" standalone="no"?>
<!DOCTYPE svg PUBLIC "-//W3C//DTD SVG 1.1//EN"
 "http://www.w3.org/Graphics/SVG/1.1/DTD/svg11.dtd">
<!-- Generated by graphviz version 2.38.0 (20140413.2041)
 -->
<!-- Title: Tomographer::AveragedHistogram&lt; HistogramType_, RealAvgType &gt; Pages: 1 -->
<svg width="2165pt" height="344pt"
 viewBox="0.00 0.00 2165.17 344.46" xmlns="http://www.w3.org/2000/svg" xmlns:xlink="http://www.w3.org/1999/xlink">
<g id="graph0" class="graph" transform="scale(1 1) rotate(0) translate(4 340.457)">
<title>Tomographer::AveragedHistogram&lt; HistogramType_, RealAvgType &gt;</title>
<!-- Node9 -->
<g id="node1" class="node"><title>Node9</title>
<polygon fill="#bfbfbf" stroke="black" points="1986.25,-87.4568 1986.25,-115.457 2157.17,-115.457 2157.17,-87.4568 1986.25,-87.4568"/>
<text text-anchor="start" x="1994.25" y="-103.457" font-family="Helvetica,sans-Serif" font-size="10.00">Tomographer::AveragedHistogram</text>
<text text-anchor="middle" x="2071.71" y="-93.4568" font-family="Helvetica,sans-Serif" font-size="10.00">&lt; HistogramType_, RealAvgType &gt;</text>
</g>
<!-- Node10 -->
<g id="node2" class="node"><title>Node10</title>
<g id="a_node2"><a xlink:href="struct_tomographer_1_1_uniform_bins_histogram_with_error_bars.html" target="_top" xlink:title="Tomographer::UniformBins\lHistogramWithErrorBars\l\&lt; HistogramType_::Scalar,\l RealAvgType \&gt;">
<polygon fill="none" stroke="black" points="1814.32,-77.4568 1814.32,-125.457 1949.25,-125.457 1949.25,-77.4568 1814.32,-77.4568"/>
<text text-anchor="start" x="1822.32" y="-113.457" font-family="Helvetica,sans-Serif" font-size="10.00">Tomographer::UniformBins</text>
<text text-anchor="start" x="1822.32" y="-103.457" font-family="Helvetica,sans-Serif" font-size="10.00">HistogramWithErrorBars</text>
<text text-anchor="start" x="1822.32" y="-93.4568" font-family="Helvetica,sans-Serif" font-size="10.00">&lt; HistogramType_::Scalar,</text>
<text text-anchor="middle" x="1881.79" y="-83.4568" font-family="Helvetica,sans-Serif" font-size="10.00"> RealAvgType &gt;</text>
</a>
</g>
</g>
<!-- Node10&#45;&gt;Node9 -->
<g id="edge1" class="edge"><title>Node10&#45;&gt;Node9</title>
<path fill="none" stroke="midnightblue" d="M1959.51,-101.457C1968.29,-101.457 1977.29,-101.457 1986.17,-101.457"/>
<polygon fill="midnightblue" stroke="midnightblue" points="1959.31,-97.9569 1949.31,-101.457 1959.31,-104.957 1959.31,-97.9569"/>
</g>
<!-- Node11 -->
<g id="node3" class="node"><title>Node11</title>
<g id="a_node3"><a xlink:href="struct_tomographer_1_1_uniform_bins_histogram.html" target="_top" xlink:title="Tomographer::UniformBins\lHistogram\&lt; HistogramType\l_::Scalar, RealAvgType \&gt;">
<polygon fill="none" stroke="black" points="1520.54,-114.457 1520.54,-152.457 1657.98,-152.457 1657.98,-114.457 1520.54,-114.457"/>
<text text-anchor="start" x="1528.54" y="-140.457" font-family="Helvetica,sans-Serif" font-size="10.00">Tomographer::UniformBins</text>
<text text-anchor="start" x="1528.54" y="-130.457" font-family="Helvetica,sans-Serif" font-size="10.00">Histogram&lt; HistogramType</text>
<text text-anchor="middle" x="1589.26" y="-120.457" font-family="Helvetica,sans-Serif" font-size="10.00">_::Scalar, RealAvgType &gt;</text>
</a>
</g>
</g>
<!-- Node11&#45;&gt;Node10 -->
<g id="edge2" class="edge"><title>Node11&#45;&gt;Node10</title>
<path fill="none" stroke="midnightblue" d="M1668.13,-124.88C1713.63,-119.868 1770.47,-113.608 1813.93,-108.82"/>
<polygon fill="midnightblue" stroke="midnightblue" points="1667.56,-121.421 1658.01,-125.995 1668.33,-128.379 1667.56,-121.421"/>
</g>
<!-- Node12 -->
<g id="node4" class="node"><title>Node12</title>
<g id="a_node4"><a xlink:href="struct_tomographer_1_1_tools_1_1_eigen_aligned_operator_new_provider.html" target="_top" xlink:title="Provides correct operator&#45;new implementation for Eigen types via the NeedOwnOperatorNew mechanism...">
<polygon fill="none" stroke="black" points="852.078,-10.4568 852.078,-38.4568 1029.27,-38.4568 1029.27,-10.4568 852.078,-10.4568"/>
<text text-anchor="start" x="860.078" y="-26.4568" font-family="Helvetica,sans-Serif" font-size="10.00">Tomographer::Tools</text>
<text text-anchor="middle" x="940.676" y="-16.4568" font-family="Helvetica,sans-Serif" font-size="10.00">::EigenAlignedOperatorNewProvider</text>
</a>
</g>
</g>
<!-- Node12&#45;&gt;Node10 -->
<g id="edge19" class="edge"><title>Node12&#45;&gt;Node10</title>
<path fill="none" stroke="midnightblue" d="M1012.12,-8.52844C1023.81,-6.43989 1035.84,-4.62261 1047.27,-3.4568 1111.27,3.06791 1127.68,-2.67902 1192,-2.4568 1268.53,-2.19241 1287.71,0.0286945 1364.2,-2.4568 1558.95,-8.78483 1607.66,-27.7311 1796.32,-76.4568 1802.09,-77.9483 1808.07,-79.5656 1814.05,-81.2357"/>
<polygon fill="midnightblue" stroke="midnightblue" points="1011.15,-5.14849 1001.97,-10.4241 1012.44,-12.0296 1011.15,-5.14849"/>
</g>
<!-- Node12&#45;&gt;Node11 -->
<g id="edge3" class="edge"><title>Node12&#45;&gt;Node11</title>
<path fill="none" stroke="midnightblue" d="M1039.6,-30.9325C1125.59,-37.5583 1253.83,-49.7211 1364.2,-69.4568 1426.63,-80.6209 1441.71,-86.5025 1502.54,-104.457 1512.79,-107.481 1523.64,-110.945 1534.05,-114.401"/>
<polygon fill="midnightblue" stroke="midnightblue" points="1039.82,-27.4396 1029.58,-30.1714 1039.29,-34.4194 1039.82,-27.4396"/>
</g>
<!-- Node22 -->
<g id="node14" class="node"><title>Node22</title>
<g id="a_node14"><a xlink:href="struct_tomographer_1_1_uniform_bins_histogram.html" target="_top" xlink:title="Stores a histogram. ">
<polygon fill="none" stroke="black" points="1192,-79.4568 1192,-107.457 1364.2,-107.457 1364.2,-79.4568 1192,-79.4568"/>
<text text-anchor="start" x="1200" y="-95.4568" font-family="Helvetica,sans-Serif" font-size="10.00">Tomographer::UniformBins</text>
<text text-anchor="middle" x="1278.1" y="-85.4568" font-family="Helvetica,sans-Serif" font-size="10.00">Histogram&lt; Scalar_, CountType_ &gt;</text>
</a>
</g>
</g>
<!-- Node12&#45;&gt;Node22 -->
<g id="edge16" class="edge"><title>Node12&#45;&gt;Node22</title>
<path fill="none" stroke="midnightblue" d="M1015.12,-40.6205C1025.9,-42.9439 1036.87,-45.2824 1047.27,-47.4568 1100.15,-58.506 1159.99,-70.4653 1205.35,-79.4198"/>
<polygon fill="midnightblue" stroke="midnightblue" points="1015.81,-37.1894 1005.3,-38.4961 1014.33,-44.0311 1015.81,-37.1894"/>
</g>
<!-- Node24 -->
<g id="node16" class="node"><title>Node24</title>
<g id="a_node16"><a xlink:href="struct_tomographer_1_1_uniform_bins_histogram_with_error_bars.html" target="_top" xlink:title="Stores a histogram along with error bars. ">
<polygon fill="none" stroke="black" points="1521.79,-57.4568 1521.79,-95.4568 1656.73,-95.4568 1656.73,-57.4568 1521.79,-57.4568"/>
<text text-anchor="start" x="1529.79" y="-83.4568" font-family="Helvetica,sans-Serif" font-size="10.00">Tomographer::UniformBins</text>
<text text-anchor="start" x="1529.79" y="-73.4568" font-family="Helvetica,sans-Serif" font-size="10.00">HistogramWithErrorBars</text>
<text text-anchor="middle" x="1589.26" y="-63.4568" font-family="Helvetica,sans-Serif" font-size="10.00">&lt; Scalar_, CountType_ &gt;</text>
</a>
</g>
</g>
<!-- Node12&#45;&gt;Node24 -->
<g id="edge23" class="edge"><title>Node12&#45;&gt;Node24</title>
<path fill="none" stroke="midnightblue" d="M1039.69,-13.6772C1152.95,-4.12032 1344.07,3.03606 1502.54,-35.4568 1521.3,-40.0125 1540.81,-48.968 1556.48,-57.35"/>
<polygon fill="midnightblue" stroke="midnightblue" points="1039.32,-10.1968 1029.65,-14.5479 1039.92,-17.1706 1039.32,-10.1968"/>
</g>
<!-- Node13 -->
<g id="node5" class="node"><title>Node13</title>
<g id="a_node5"><a xlink:href="struct_tomographer_1_1_uniform_bins_histogram_params.html" target="_top" xlink:title="Tomographer::UniformBins\lHistogramParams\&lt; HistogramType\l_::Scalar \&gt;">
<polygon fill="none" stroke="black" points="1192.16,-257.457 1192.16,-295.457 1364.05,-295.457 1364.05,-257.457 1192.16,-257.457"/>
<text text-anchor="start" x="1200.16" y="-283.457" font-family="Helvetica,sans-Serif" font-size="10.00">Tomographer::UniformBins</text>
<text text-anchor="start" x="1200.16" y="-273.457" font-family="Helvetica,sans-Serif" font-size="10.00">HistogramParams&lt; HistogramType</text>
<text text-anchor="middle" x="1278.1" y="-263.457" font-family="Helvetica,sans-Serif" font-size="10.00">_::Scalar &gt;</text>
</a>
</g>
</g>
<!-- Node13&#45;&gt;Node11 -->
<g id="edge4" class="edge"><title>Node13&#45;&gt;Node11</title>
<path fill="none" stroke="#9a32cd" stroke-dasharray="5,2" d="M1374.32,-277.397C1416.07,-274.052 1464.18,-264.817 1502.54,-242.457 1539.15,-221.121 1565.94,-177.602 1579.1,-152.487"/>
<polygon fill="#9a32cd" stroke="#9a32cd" points="1373.87,-273.92 1364.14,-278.108 1374.36,-280.903 1373.87,-273.92"/>
<text text-anchor="middle" x="1442.37" y="-278.457" font-family="Helvetica,sans-Serif" font-size="10.00"> params</text>
</g>
<!-- Node14 -->
<g id="node6" class="node"><title>Node14</title>
<g id="a_node6"><a doxygen="/Users/philippe/Research/projects/tomographer/doc/cppreference-doxygen-web.tag.xml:http://en.cppreference.com/w/" xlink:href="http://en.cppreference.com/w/cpp/types/size_t.html" target="_top" xlink:title="std::size_t">
<polygon fill="none" stroke="black" points="630.256,-267.457 630.256,-285.457 691.276,-285.457 691.276,-267.457 630.256,-267.457"/>
<text text-anchor="middle" x="660.766" y="-273.457" font-family="Helvetica,sans-Serif" font-size="10.00">std::size_t</text>
</a>
</g>
</g>
<!-- Node14&#45;&gt;Node13 -->
<g id="edge5" class="edge"><title>Node14&#45;&gt;Node13</title>
<path fill="none" stroke="#9a32cd" stroke-dasharray="5,2" d="M701.674,-273.478C740.162,-270.765 800.068,-266.959 852.078,-265.457 930.799,-263.184 950.54,-263.71 1029.27,-265.457 1083.42,-266.658 1144.17,-269.333 1191.97,-271.745"/>
<polygon fill="#9a32cd" stroke="#9a32cd" points="701.136,-270.008 691.411,-274.212 701.635,-276.99 701.136,-270.008"/>
<text text-anchor="middle" x="940.676" y="-267.457" font-family="Helvetica,sans-Serif" font-size="10.00"> num_bins</text>
</g>
<!-- Node15 -->
<g id="node7" class="node"><title>Node15</title>
<g id="a_node7"><a xlink:href="struct_tomographer_1_1_uniform_bins_histogram_params.html" target="_top" xlink:title="The parameters of a UniformBinsHistogram. ">
<polygon fill="none" stroke="black" points="867.095,-285.457 867.095,-313.457 1014.26,-313.457 1014.26,-285.457 867.095,-285.457"/>
<text text-anchor="start" x="875.095" y="-301.457" font-family="Helvetica,sans-Serif" font-size="10.00">Tomographer::UniformBins</text>
<text text-anchor="middle" x="940.676" y="-291.457" font-family="Helvetica,sans-Serif" font-size="10.00">HistogramParams&lt; Scalar_ &gt;</text>
</a>
</g>
</g>
<!-- Node14&#45;&gt;Node15 -->
<g id="edge8" class="edge"><title>Node14&#45;&gt;Node15</title>
<path fill="none" stroke="#9a32cd" stroke-dasharray="5,2" d="M701.582,-279.752C744.59,-283.311 814.038,-289.059 866.857,-293.43"/>
<polygon fill="#9a32cd" stroke="#9a32cd" points="701.762,-276.255 691.507,-278.918 701.185,-283.231 701.762,-276.255"/>
<text text-anchor="middle" x="788.629" y="-293.457" font-family="Helvetica,sans-Serif" font-size="10.00"> num_bins</text>
</g>
<!-- Node15&#45;&gt;Node13 -->
<g id="edge6" class="edge"><title>Node15&#45;&gt;Node13</title>
<path fill="none" stroke="orange" stroke-dasharray="5,2" d="M1024.46,-293.781C1075.43,-290.285 1140.62,-285.815 1192.02,-282.291"/>
<polygon fill="orange" stroke="orange" points="1024.2,-290.29 1014.46,-294.466 1024.67,-297.274 1024.2,-290.29"/>
<text text-anchor="middle" x="1110.64" y="-294.457" font-family="Helvetica,sans-Serif" font-size="10.00"> &lt; HistogramType_::Scalar &gt;</text>
</g>
<!-- Node16 -->
<g id="node8" class="node"><title>Node16</title>
<polygon fill="none" stroke="#bfbfbf" points="635.813,-313.457 635.813,-331.457 685.719,-331.457 685.719,-313.457 635.813,-313.457"/>
<text text-anchor="middle" x="660.766" y="-319.457" font-family="Helvetica,sans-Serif" font-size="10.00">Scalar_</text>
</g>
<!-- Node16&#45;&gt;Node15 -->
<g id="edge7" class="edge"><title>Node16&#45;&gt;Node15</title>
<path fill="none" stroke="#9a32cd" stroke-dasharray="5,2" d="M696.033,-319.621C738.465,-316.109 811.881,-310.033 867.061,-305.467"/>
<polygon fill="#9a32cd" stroke="#9a32cd" points="695.62,-316.143 685.943,-320.456 696.197,-323.119 695.62,-316.143"/>
<text text-anchor="middle" x="788.629" y="-328.457" font-family="Helvetica,sans-Serif" font-size="10.00"> min</text>
<text text-anchor="middle" x="788.629" y="-318.457" font-family="Helvetica,sans-Serif" font-size="10.00">max</text>
</g>
<!-- Node17 -->
<g id="node9" class="node"><title>Node17</title>
<g id="a_node9"><a doxygen="/Users/philippe/Research/projects/tomographer/doc/Eigen.doxytags:http://eigen.tuxfamily.org/dox/" xlink:href="http://eigen.tuxfamily.org/dox/classEigen_1_1Array.html" target="_top" xlink:title="Eigen::Array\&lt; CountType,\l Eigen::Dynamic, 1 \&gt;">
<polygon fill="none" stroke="black" points="875.281,-170.457 875.281,-198.457 1006.07,-198.457 1006.07,-170.457 875.281,-170.457"/>
<text text-anchor="start" x="883.281" y="-186.457" font-family="Helvetica,sans-Serif" font-size="10.00">Eigen::Array&lt; CountType,</text>
<text text-anchor="middle" x="940.676" y="-176.457" font-family="Helvetica,sans-Serif" font-size="10.00"> Eigen::Dynamic, 1 &gt;</text>
</a>
</g>
</g>
<!-- Node17&#45;&gt;Node10 -->
<g id="edge20" class="edge"><title>Node17&#45;&gt;Node10</title>
<path fill="none" stroke="#9a32cd" stroke-dasharray="5,2" d="M1016.17,-197.969C1026.58,-199.413 1037.17,-200.649 1047.27,-201.457 1103.42,-205.947 1117.68,-201.753 1174,-201.457 1258.54,-201.012 1279.87,-205.334 1364.2,-199.457 1495.54,-190.304 1528.24,-183.872 1657.98,-161.457 1719.97,-150.745 1735.81,-148.687 1796.32,-131.457 1802.6,-129.667 1809.1,-127.657 1815.57,-125.547"/>
<polygon fill="#9a32cd" stroke="#9a32cd" points="1016.66,-194.503 1006.26,-196.527 1015.65,-201.431 1016.66,-194.503"/>
<text text-anchor="middle" x="1442.37" y="-200.457" font-family="Helvetica,sans-Serif" font-size="10.00"> delta</text>
</g>
<!-- Node17&#45;&gt;Node11 -->
<g id="edge9" class="edge"><title>Node17&#45;&gt;Node11</title>
<path fill="none" stroke="#9a32cd" stroke-dasharray="5,2" d="M1016.27,-186.589C1124.29,-188.417 1330.22,-187.16 1502.54,-158.457 1511.41,-156.98 1520.66,-154.888 1529.66,-152.537"/>
<polygon fill="#9a32cd" stroke="#9a32cd" points="1016.19,-183.087 1006.12,-186.404 1016.06,-190.086 1016.19,-183.087"/>
<text text-anchor="middle" x="1278.1" y="-187.457" font-family="Helvetica,sans-Serif" font-size="10.00"> bins</text>
</g>
<!-- Node17&#45;&gt;Node22 -->
<g id="edge18" class="edge"><title>Node17&#45;&gt;Node22</title>
<path fill="none" stroke="#9a32cd" stroke-dasharray="5,2" d="M971.526,-165.126C992.036,-152.739 1020.33,-137.367 1047.27,-128.457 1073.62,-119.745 1137.97,-110.295 1191.89,-103.412"/>
<polygon fill="#9a32cd" stroke="#9a32cd" points="969.642,-162.176 962.961,-170.399 973.312,-168.137 969.642,-162.176"/>
<text text-anchor="middle" x="1110.64" y="-130.457" font-family="Helvetica,sans-Serif" font-size="10.00"> bins</text>
</g>
<!-- Node17&#45;&gt;Node24 -->
<g id="edge24" class="edge"><title>Node17&#45;&gt;Node24</title>
<path fill="none" stroke="#9a32cd" stroke-dasharray="5,2" d="M1016.27,-177.68C1167.69,-163.869 1497.34,-133.506 1502.54,-130.457 1514.66,-123.344 1509.6,-113.28 1520.54,-104.457 1524.6,-101.182 1529.1,-98.2387 1533.79,-95.6037"/>
<polygon fill="#9a32cd" stroke="#9a32cd" points="1015.76,-174.212 1006.12,-178.605 1016.39,-181.183 1015.76,-174.212"/>
<text text-anchor="middle" x="1278.1" y="-163.457" font-family="Helvetica,sans-Serif" font-size="10.00"> delta</text>
</g>
<!-- Node18 -->
<g id="node10" class="node"><title>Node18</title>
<g id="a_node10"><a doxygen="/Users/philippe/Research/projects/tomographer/doc/Eigen.doxytags:http://eigen.tuxfamily.org/dox/" xlink:href="http://eigen.tuxfamily.org/dox/classEigen_1_1PlainObjectBase.html" target="_top" xlink:title="Eigen::PlainObjectBase\l\&lt; Array\&lt; CountType, Eigen\l::Dynamic, 1, _Options, \l_MaxRows, _MaxCols \&gt; \&gt;">
<polygon fill="none" stroke="black" points="442.27,-207.457 442.27,-255.457 578.353,-255.457 578.353,-207.457 442.27,-207.457"/>
<text text-anchor="start" x="450.27" y="-243.457" font-family="Helvetica,sans-Serif" font-size="10.00">Eigen::PlainObjectBase</text>
<text text-anchor="start" x="450.27" y="-233.457" font-family="Helvetica,sans-Serif" font-size="10.00">&lt; Array&lt; CountType, Eigen</text>
<text text-anchor="start" x="450.27" y="-223.457" font-family="Helvetica,sans-Serif" font-size="10.00">::Dynamic, 1, _Options, </text>
<text text-anchor="middle" x="510.311" y="-213.457" font-family="Helvetica,sans-Serif" font-size="10.00">_MaxRows, _MaxCols &gt; &gt;</text>
</a>
</g>
</g>
<!-- Node18&#45;&gt;Node17 -->
<g id="edge10" class="edge"><title>Node18&#45;&gt;Node17</title>
<path fill="none" stroke="midnightblue" d="M588.627,-228.754C654.221,-225.734 750.682,-219.578 834.078,-207.457 849.861,-205.163 866.804,-201.857 882.398,-198.463"/>
<polygon fill="midnightblue" stroke="midnightblue" points="588.205,-225.27 578.371,-229.213 588.518,-232.263 588.205,-225.27"/>
</g>
<!-- Node19 -->
<g id="node11" class="node"><title>Node19</title>
<g id="a_node11"><a doxygen="/Users/philippe/Research/projects/tomographer/doc/Eigen.doxytags:http://eigen.tuxfamily.org/dox/" xlink:href="http://eigen.tuxfamily.org/dox/classEigen_1_1PlainObjectBase.html" target="_top" xlink:title="Eigen::PlainObjectBase\l\&lt; Derived \&gt;">
<polygon fill="none" stroke="black" points="0,-191.457 0,-219.457 121.063,-219.457 121.063,-191.457 0,-191.457"/>
<text text-anchor="start" x="8" y="-207.457" font-family="Helvetica,sans-Serif" font-size="10.00">Eigen::PlainObjectBase</text>
<text text-anchor="middle" x="60.5317" y="-197.457" font-family="Helvetica,sans-Serif" font-size="10.00">&lt; Derived &gt;</text>
</a>
</g>
</g>
<!-- Node19&#45;&gt;Node18 -->
<g id="edge11" class="edge"><title>Node19&#45;&gt;Node18</title>
<path fill="none" stroke="orange" stroke-dasharray="5,2" d="M131.346,-209.984C133.951,-210.145 136.531,-210.303 139.063,-210.457 244.939,-216.873 367.884,-223.728 442.078,-227.8"/>
<polygon fill="orange" stroke="orange" points="131.411,-206.482 121.212,-209.352 130.975,-213.468 131.411,-206.482"/>
<text text-anchor="start" x="148.509" y="-249.457" font-family="Helvetica,sans-Serif" font-size="10.00"> &lt; Array&lt; CountType,</text>
<text text-anchor="start" x="148.509" y="-239.457" font-family="Helvetica,sans-Serif" font-size="10.00"> Eigen::Dynamic, 1,</text>
<text text-anchor="start" x="148.509" y="-229.457" font-family="Helvetica,sans-Serif" font-size="10.00"> _Options, _MaxRows,</text>
<text text-anchor="middle" x="198.807" y="-219.457" font-family="Helvetica,sans-Serif" font-size="10.00"> _MaxCols &gt; &gt;</text>
</g>
<!-- Node21 -->
<g id="node13" class="node"><title>Node21</title>
<g id="a_node13"><a doxygen="/Users/philippe/Research/projects/tomographer/doc/Eigen.doxytags:http://eigen.tuxfamily.org/dox/" xlink:href="http://eigen.tuxfamily.org/dox/classEigen_1_1PlainObjectBase.html" target="_top" xlink:title="Eigen::PlainObjectBase\l\&lt; Array\&lt; _Scalar, _Rows,\l _Cols, _Options, _MaxRows,\l _MaxCols \&gt; \&gt;">
<polygon fill="none" stroke="black" points="276.551,-155.457 276.551,-203.457 424.27,-203.457 424.27,-155.457 276.551,-155.457"/>
<text text-anchor="start" x="284.551" y="-191.457" font-family="Helvetica,sans-Serif" font-size="10.00">Eigen::PlainObjectBase</text>
<text text-anchor="start" x="284.551" y="-181.457" font-family="Helvetica,sans-Serif" font-size="10.00">&lt; Array&lt; _Scalar, _Rows,</text>
<text text-anchor="start" x="284.551" y="-171.457" font-family="Helvetica,sans-Serif" font-size="10.00"> _Cols, _Options, _MaxRows,</text>
<text text-anchor="middle" x="350.41" y="-161.457" font-family="Helvetica,sans-Serif" font-size="10.00"> _MaxCols &gt; &gt;</text>
</a>
</g>
</g>
<!-- Node19&#45;&gt;Node21 -->
<g id="edge14" class="edge"><title>Node19&#45;&gt;Node21</title>
<path fill="none" stroke="orange" stroke-dasharray="5,2" d="M106.969,-188.244C117.368,-185.027 128.48,-182.147 139.063,-180.457 184.321,-173.23 235.758,-172.849 276.438,-174.338"/>
<polygon fill="orange" stroke="orange" points="105.683,-184.982 97.2566,-191.405 107.849,-191.639 105.683,-184.982"/>
<text text-anchor="start" x="139.063" y="-202.457" font-family="Helvetica,sans-Serif" font-size="10.00"> &lt; Array&lt; _Scalar, </text>
<text text-anchor="start" x="139.063" y="-192.457" font-family="Helvetica,sans-Serif" font-size="10.00">_Rows, _Cols, _Options,</text>
<text text-anchor="middle" x="198.807" y="-182.457" font-family="Helvetica,sans-Serif" font-size="10.00"> _MaxRows, _MaxCols &gt; &gt;</text>
</g>
<!-- Node20 -->
<g id="node12" class="node"><title>Node20</title>
<g id="a_node12"><a doxygen="/Users/philippe/Research/projects/tomographer/doc/Eigen.doxytags:http://eigen.tuxfamily.org/dox/" xlink:href="http://eigen.tuxfamily.org/dox/classEigen_1_1Array.html" target="_top" xlink:title="Eigen::Array\&lt; _Scalar,\l _Rows, _Cols, _Options,\l _MaxRows, _MaxCols \&gt;">
<polygon fill="none" stroke="black" points="596.353,-161.457 596.353,-199.457 725.18,-199.457 725.18,-161.457 596.353,-161.457"/>
<text text-anchor="start" x="604.353" y="-187.457" font-family="Helvetica,sans-Serif" font-size="10.00">Eigen::Array&lt; _Scalar,</text>
<text text-anchor="start" x="604.353" y="-177.457" font-family="Helvetica,sans-Serif" font-size="10.00"> _Rows, _Cols, _Options,</text>
<text text-anchor="middle" x="660.766" y="-167.457" font-family="Helvetica,sans-Serif" font-size="10.00"> _MaxRows, _MaxCols &gt;</text>
</a>
</g>
</g>
<!-- Node20&#45;&gt;Node17 -->
<g id="edge12" class="edge"><title>Node20&#45;&gt;Node17</title>
<path fill="none" stroke="orange" stroke-dasharray="5,2" d="M735.75,-181.522C779.196,-182.147 833.576,-182.93 875.252,-183.53"/>
<polygon fill="orange" stroke="orange" points="735.574,-178.019 725.524,-181.374 735.473,-185.018 735.574,-178.019"/>
<text text-anchor="start" x="743.18" y="-195.457" font-family="Helvetica,sans-Serif" font-size="10.00"> &lt; CountType, Eigen</text>
<text text-anchor="middle" x="788.629" y="-185.457" font-family="Helvetica,sans-Serif" font-size="10.00">::Dynamic, 1 &gt;</text>
</g>
<!-- Node21&#45;&gt;Node20 -->
<g id="edge13" class="edge"><title>Node21&#45;&gt;Node20</title>
<path fill="none" stroke="midnightblue" d="M434.8,-179.727C485.655,-179.892 549.633,-180.1 596.349,-180.251"/>
<polygon fill="midnightblue" stroke="midnightblue" points="434.498,-176.226 424.486,-179.694 434.475,-183.226 434.498,-176.226"/>
</g>
<!-- Node22&#45;&gt;Node11 -->
<g id="edge15" class="edge"><title>Node22&#45;&gt;Node11</title>
<path fill="none" stroke="orange" stroke-dasharray="5,2" d="M1374.34,-105.779C1421.57,-111.891 1477.53,-119.13 1520.36,-124.672"/>
<polygon fill="orange" stroke="orange" points="1374.76,-102.305 1364.4,-104.493 1373.87,-109.247 1374.76,-102.305"/>
<text text-anchor="start" x="1382.2" y="-134.457" font-family="Helvetica,sans-Serif" font-size="10.00"> &lt; HistogramType_::Scalar,</text>
<text text-anchor="middle" x="1442.37" y="-124.457" font-family="Helvetica,sans-Serif" font-size="10.00"> RealAvgType &gt;</text>
</g>
<!-- Node22&#45;&gt;Node24 -->
<g id="edge22" class="edge"><title>Node22&#45;&gt;Node24</title>
<path fill="none" stroke="midnightblue" d="M1374.41,-88.2159C1422,-85.599 1478.42,-82.4965 1521.36,-80.1355"/>
<polygon fill="midnightblue" stroke="midnightblue" points="1374.19,-84.7226 1364.4,-88.7665 1374.58,-91.712 1374.19,-84.7226"/>
</g>
<!-- Node23 -->
<g id="node15" class="node"><title>Node23</title>
<polygon fill="none" stroke="#bfbfbf" points="905.711,-85.4568 905.711,-103.457 975.642,-103.457 975.642,-85.4568 905.711,-85.4568"/>
<text text-anchor="middle" x="940.676" y="-91.4568" font-family="Helvetica,sans-Serif" font-size="10.00">CountType_</text>
</g>
<!-- Node23&#45;&gt;Node22 -->
<g id="edge17" class="edge"><title>Node23&#45;&gt;Node22</title>
<path fill="none" stroke="#9a32cd" stroke-dasharray="5,2" d="M985.959,-94.3248C1038.23,-94.1689 1126.33,-93.9063 1191.96,-93.7106"/>
<polygon fill="#9a32cd" stroke="#9a32cd" points="985.674,-90.8255 975.684,-94.3554 985.695,-97.8255 985.674,-90.8255"/>
<text text-anchor="middle" x="1110.64" y="-96.4568" font-family="Helvetica,sans-Serif" font-size="10.00"> off_chart</text>
</g>
<!-- Node24&#45;&gt;Node10 -->
<g id="edge21" class="edge"><title>Node24&#45;&gt;Node10</title>
<path fill="none" stroke="orange" stroke-dasharray="5,2" d="M1666.93,-79.1962C1705.77,-81.0216 1753.63,-83.9389 1796.32,-88.4568 1802.07,-89.0658 1808.03,-89.7909 1814.01,-90.5827"/>
<polygon fill="orange" stroke="orange" points="1666.89,-75.6909 1656.74,-78.7326 1666.57,-82.6837 1666.89,-75.6909"/>
<text text-anchor="start" x="1675.98" y="-100.457" font-family="Helvetica,sans-Serif" font-size="10.00"> &lt; HistogramType_::Scalar,</text>
<text text-anchor="middle" x="1736.15" y="-90.4568" font-family="Helvetica,sans-Serif" font-size="10.00"> RealAvgType &gt;</text>
</g>
</g>
</svg>
