<?xml version="1.0" encoding="UTF-8" standalone="no"?>
<!DOCTYPE svg PUBLIC "-//W3C//DTD SVG 1.1//EN"
 "http://www.w3.org/Graphics/SVG/1.1/DTD/svg11.dtd">
<!-- Generated by graphviz version 2.38.0 (20140413.2041)
 -->
<!-- Title: Tomographer::MHRWTasks::ValueHistogramTasks::ResultsCollectorSimple&lt; CDataBaseType_, LoggerType_ &gt;::RunTaskResult Pages: 1 -->
<!--zoomable 305 -->
<svg id="main" version="1.1" xmlns="http://www.w3.org/2000/svg" xmlns:xlink="http://www.w3.org/1999/xlink" xml:space="preserve" onload="init(evt)">
<style type="text/css"><![CDATA[
.edge:hover path { stroke: red; }
.edge:hover polygon { stroke: red; fill: red; }
]]></style>
<script type="text/javascript"><![CDATA[
var edges = document.getElementsByTagName('g');
if (edges && edges.length) {
  for (var i=0;i<edges.length;i++) {
    if (edges[i].id.substr(0,4)=='edge') {
      edges[i].setAttribute('class','edge');
    }
  }
}
]]></script>
        <defs>
                <circle id="rim" cx="0" cy="0" r="7"/>
                <circle id="rim2" cx="0" cy="0" r="3.5"/>
                <g id="zoomPlus">
                        <use xlink:href="#rim" fill="#404040">
                                <set attributeName="fill" to="#808080" begin="zoomplus.mouseover" end="zoomplus.mouseout"/>
                        </use>
                        <path d="M-4,0h8M0,-4v8" fill="none" stroke="white" stroke-width="1.5" pointer-events="none"/>
                </g>
                <g id="zoomMin">
                        <use xlink:href="#rim" fill="#404040">
                                <set attributeName="fill" to="#808080" begin="zoomminus.mouseover" end="zoomminus.mouseout"/>
                        </use>
                        <path d="M-4,0h8" fill="none" stroke="white" stroke-width="1.5" pointer-events="none"/>
                </g>
                <g id="dirArrow">
                        <path fill="none" stroke="white" stroke-width="1.5" d="M0,-3.0v7 M-2.5,-0.5L0,-3.0L2.5,-0.5"/>
                </g>
               <g id="resetDef">
                       <use xlink:href="#rim2" fill="#404040">
                               <set attributeName="fill" to="#808080" begin="reset.mouseover" end="reset.mouseout"/>
                       </use>
               </g>
        </defs>

<script type="text/javascript">
var viewWidth = 1679;
var viewHeight = 305;
var sectionId = 'dynsection-1';
</script>
<script xlink:href="svgpan.js"/>
<svg id="graph" class="graph">
<g id="viewport">
<title>Tomographer::MHRWTasks::ValueHistogramTasks::ResultsCollectorSimple&lt; CDataBaseType_, LoggerType_ &gt;::RunTaskResult</title>
<!-- Node6 -->
<g id="node1" class="node"><title>Node6</title>
<polygon fill="#bfbfbf" stroke="black" points="1509.58,-106.5 1509.58,-164.5 1670.96,-164.5 1670.96,-106.5 1509.58,-106.5"/>
<text text-anchor="start" x="1517.58" y="-152.5" font-family="Helvetica,sans-Serif" font-size="10.00">Tomographer::MHRWTasks</text>
<text text-anchor="start" x="1517.58" y="-142.5" font-family="Helvetica,sans-Serif" font-size="10.00">::ValueHistogramTasks</text>
<text text-anchor="start" x="1517.58" y="-132.5" font-family="Helvetica,sans-Serif" font-size="10.00">::ResultsCollectorSimple</text>
<text text-anchor="start" x="1517.58" y="-122.5" font-family="Helvetica,sans-Serif" font-size="10.00">&lt; CDataBaseType_, LoggerType</text>
<text text-anchor="middle" x="1590.27" y="-112.5" font-family="Helvetica,sans-Serif" font-size="10.00">_ &gt;::RunTaskResult</text>
</g>
<!-- Node7 -->
<g id="node2" class="node"><title>Node7</title>
<g id="a_node2"><a xlink:href="struct_tomographer_1_1_m_h_r_w_tasks_1_1_m_h_random_walk_task_result.html" target="_top" xlink:title="Tomographer::MHRWTasks\l::MHRandomWalkTaskResult\l\&lt; MHRWStatsCollectorResultType,\l IterCountIntType, StepRealType \&gt;">
<polygon fill="none" stroke="black" points="1254.95,-178.5 1254.95,-226.5 1426.66,-226.5 1426.66,-178.5 1254.95,-178.5"/>
<text text-anchor="start" x="1262.95" y="-214.5" font-family="Helvetica,sans-Serif" font-size="10.00">Tomographer::MHRWTasks</text>
<text text-anchor="start" x="1262.95" y="-204.5" font-family="Helvetica,sans-Serif" font-size="10.00">::MHRandomWalkTaskResult</text>
<text text-anchor="start" x="1262.95" y="-194.5" font-family="Helvetica,sans-Serif" font-size="10.00">&lt; MHRWStatsCollectorResultType,</text>
<text text-anchor="middle" x="1340.8" y="-184.5" font-family="Helvetica,sans-Serif" font-size="10.00"> IterCountIntType, StepRealType &gt;</text>
</a>
</g>
</g>
<!-- Node7&#45;&gt;Node6 -->
<g id="edge1" class="edge"><title>Node7&#45;&gt;Node6</title>
<path fill="none" stroke="midnightblue" d="M1436.78,-176.787C1460.74,-170.299 1486.23,-163.398 1509.37,-157.134"/>
<polygon fill="midnightblue" stroke="midnightblue" points="1435.71,-173.451 1426.97,-179.442 1437.53,-180.207 1435.71,-173.451"/>
</g>
<!-- Node8 -->
<g id="node3" class="node"><title>Node8</title>
<polygon fill="none" stroke="#bfbfbf" points="911.189,-258.5 911.189,-296.5 1080.12,-296.5 1080.12,-258.5 911.189,-258.5"/>
<text text-anchor="start" x="919.189" y="-284.5" font-family="Helvetica,sans-Serif" font-size="10.00">Tools::NeedOwnOperatorNew</text>
<text text-anchor="start" x="919.189" y="-274.5" font-family="Helvetica,sans-Serif" font-size="10.00">&lt; MHRWStatsCollectorResultType</text>
<text text-anchor="middle" x="995.654" y="-264.5" font-family="Helvetica,sans-Serif" font-size="10.00"> &gt;::ProviderType</text>
</g>
<!-- Node8&#45;&gt;Node7 -->
<g id="edge2" class="edge"><title>Node8&#45;&gt;Node7</title>
<path fill="none" stroke="midnightblue" d="M1090.17,-270.131C1135.02,-265.21 1189.2,-257.226 1236.7,-244.5 1253.79,-239.924 1271.83,-233.254 1287.96,-226.571"/>
<polygon fill="midnightblue" stroke="midnightblue" points="1089.73,-266.657 1080.16,-271.195 1090.47,-273.618 1089.73,-266.657"/>
</g>
<!-- Node9 -->
<g id="node4" class="node"><title>Node9</title>
<g id="a_node4"><a xlink:href="struct_tomographer_1_1_m_h_r_w_params.html" target="_top" xlink:title="Specify the parameters of a Metropolis&#45;Hastings random walk. ">
<polygon fill="none" stroke="black" points="601.929,-149.5 601.929,-177.5 774.154,-177.5 774.154,-149.5 601.929,-149.5"/>
<text text-anchor="start" x="609.929" y="-165.5" font-family="Helvetica,sans-Serif" font-size="10.00">Tomographer::MHRWParams</text>
<text text-anchor="middle" x="688.042" y="-155.5" font-family="Helvetica,sans-Serif" font-size="10.00">&lt; CountIntType_, StepRealType_ &gt;</text>
</a>
</g>
</g>
<!-- Node9&#45;&gt;Node7 -->
<g id="edge3" class="edge"><title>Node9&#45;&gt;Node7</title>
<path fill="none" stroke="#9a32cd" stroke-dasharray="5,2" d="M784.517,-162.742C864.726,-162.749 982.322,-164.265 1084.68,-171.5 1141.54,-175.519 1205.18,-183.247 1254.68,-189.981"/>
<polygon fill="#9a32cd" stroke="#9a32cd" points="784.432,-159.242 774.434,-162.749 784.437,-166.242 784.432,-159.242"/>
<text text-anchor="middle" x="995.654" y="-173.5" font-family="Helvetica,sans-Serif" font-size="10.00"> mhrw_params</text>
</g>
<!-- Node12 -->
<g id="node7" class="node"><title>Node12</title>
<g id="a_node7"><a xlink:href="struct_tomographer_1_1_m_h_r_w_tasks_1_1_m_h_random_walk_task_result.html" target="_top" xlink:title="Result of a task run. ">
<polygon fill="none" stroke="black" points="906.629,-191.5 906.629,-239.5 1084.68,-239.5 1084.68,-191.5 906.629,-191.5"/>
<text text-anchor="start" x="914.629" y="-227.5" font-family="Helvetica,sans-Serif" font-size="10.00">Tomographer::MHRWTasks</text>
<text text-anchor="start" x="914.629" y="-217.5" font-family="Helvetica,sans-Serif" font-size="10.00">::MHRandomWalkTaskResult</text>
<text text-anchor="start" x="914.629" y="-207.5" font-family="Helvetica,sans-Serif" font-size="10.00">&lt; MHRWStatsCollectorResultType</text>
<text text-anchor="middle" x="995.654" y="-197.5" font-family="Helvetica,sans-Serif" font-size="10.00">_, IterCountIntType, StepRealType &gt;</text>
</a>
</g>
</g>
<!-- Node9&#45;&gt;Node12 -->
<g id="edge8" class="edge"><title>Node9&#45;&gt;Node12</title>
<path fill="none" stroke="#9a32cd" stroke-dasharray="5,2" d="M781.299,-179.198C821.046,-185.961 867.313,-193.833 906.583,-200.515"/>
<polygon fill="#9a32cd" stroke="#9a32cd" points="781.788,-175.731 771.342,-177.503 780.613,-182.631 781.788,-175.731"/>
<text text-anchor="middle" x="843.18" y="-198.5" font-family="Helvetica,sans-Serif" font-size="10.00"> mhrw_params</text>
</g>
<!-- Node10 -->
<g id="node5" class="node"><title>Node10</title>
<polygon fill="none" stroke="#bfbfbf" points="309.886,-154.5 309.886,-172.5 390.935,-172.5 390.935,-154.5 309.886,-154.5"/>
<text text-anchor="middle" x="350.41" y="-160.5" font-family="Helvetica,sans-Serif" font-size="10.00">CountIntType_</text>
</g>
<!-- Node10&#45;&gt;Node9 -->
<g id="edge4" class="edge"><title>Node10&#45;&gt;Node9</title>
<path fill="none" stroke="#9a32cd" stroke-dasharray="5,2" d="M401.349,-163.5C454.119,-163.5 538.303,-163.5 601.646,-163.5"/>
<polygon fill="#9a32cd" stroke="#9a32cd" points="401.23,-160 391.229,-163.5 401.229,-167 401.23,-160"/>
<text text-anchor="middle" x="510.311" y="-185.5" font-family="Helvetica,sans-Serif" font-size="10.00"> n_run</text>
<text text-anchor="middle" x="510.311" y="-175.5" font-family="Helvetica,sans-Serif" font-size="10.00">n_therm</text>
<text text-anchor="middle" x="510.311" y="-165.5" font-family="Helvetica,sans-Serif" font-size="10.00">n_sweep</text>
</g>
<!-- Node11 -->
<g id="node6" class="node"><title>Node11</title>
<polygon fill="none" stroke="#bfbfbf" points="308.218,-117.5 308.218,-135.5 392.602,-135.5 392.602,-117.5 308.218,-117.5"/>
<text text-anchor="middle" x="350.41" y="-123.5" font-family="Helvetica,sans-Serif" font-size="10.00">StepRealType_</text>
</g>
<!-- Node11&#45;&gt;Node9 -->
<g id="edge5" class="edge"><title>Node11&#45;&gt;Node9</title>
<path fill="none" stroke="#9a32cd" stroke-dasharray="5,2" d="M402.888,-131.316C448.914,-135.718 518.185,-142.577 578.353,-149.5 586.007,-150.381 593.96,-151.333 601.926,-152.313"/>
<polygon fill="#9a32cd" stroke="#9a32cd" points="403.145,-127.825 392.858,-130.361 402.481,-134.793 403.145,-127.825"/>
<text text-anchor="middle" x="510.311" y="-151.5" font-family="Helvetica,sans-Serif" font-size="10.00"> step_size</text>
</g>
<!-- Node12&#45;&gt;Node7 -->
<g id="edge6" class="edge"><title>Node12&#45;&gt;Node7</title>
<path fill="none" stroke="orange" stroke-dasharray="5,2" d="M1095.28,-211.763C1145.67,-209.855 1206.38,-207.555 1254.69,-205.724"/>
<polygon fill="orange" stroke="orange" points="1094.88,-208.276 1085.02,-212.152 1095.15,-215.271 1094.88,-208.276"/>
<text text-anchor="start" x="1102.68" y="-232.5" font-family="Helvetica,sans-Serif" font-size="10.00"> &lt; MHRWStatsCollectorResult</text>
<text text-anchor="start" x="1102.68" y="-222.5" font-family="Helvetica,sans-Serif" font-size="10.00">Type, IterCountIntType,</text>
<text text-anchor="middle" x="1169.69" y="-212.5" font-family="Helvetica,sans-Serif" font-size="10.00"> StepRealType &gt;</text>
</g>
<!-- Node13 -->
<g id="node8" class="node"><title>Node13</title>
<polygon fill="none" stroke="#bfbfbf" points="596.353,-201.5 596.353,-239.5 779.73,-239.5 779.73,-201.5 596.353,-201.5"/>
<text text-anchor="start" x="604.353" y="-227.5" font-family="Helvetica,sans-Serif" font-size="10.00">Tools::NeedOwnOperatorNew</text>
<text text-anchor="start" x="604.353" y="-217.5" font-family="Helvetica,sans-Serif" font-size="10.00">::ProviderType&lt; MHRWStatsCollector</text>
<text text-anchor="middle" x="688.042" y="-207.5" font-family="Helvetica,sans-Serif" font-size="10.00">ResultType_ &gt;</text>
</g>
<!-- Node13&#45;&gt;Node12 -->
<g id="edge7" class="edge"><title>Node13&#45;&gt;Node12</title>
<path fill="none" stroke="midnightblue" d="M790.37,-218.842C827.937,-218.228 870.204,-217.536 906.503,-216.942"/>
<polygon fill="midnightblue" stroke="midnightblue" points="789.849,-215.35 779.908,-219.013 789.964,-222.349 789.849,-215.35"/>
</g>
<!-- Node14 -->
<g id="node9" class="node"><title>Node14</title>
<polygon fill="none" stroke="#bfbfbf" points="1258.18,-116.5 1258.18,-154.5 1423.42,-154.5 1423.42,-116.5 1258.18,-116.5"/>
<text text-anchor="start" x="1266.18" y="-142.5" font-family="Helvetica,sans-Serif" font-size="10.00">Tools::NeedOwnOperatorNew</text>
<text text-anchor="start" x="1266.18" y="-132.5" font-family="Helvetica,sans-Serif" font-size="10.00">::ProviderType&lt; ScaledHistogram</text>
<text text-anchor="middle" x="1340.8" y="-122.5" font-family="Helvetica,sans-Serif" font-size="10.00">Type &gt;</text>
</g>
<!-- Node14&#45;&gt;Node6 -->
<g id="edge9" class="edge"><title>Node14&#45;&gt;Node6</title>
<path fill="none" stroke="midnightblue" d="M1433.67,-135.5C1458.51,-135.5 1485.2,-135.5 1509.33,-135.5"/>
<polygon fill="midnightblue" stroke="midnightblue" points="1433.52,-132 1423.52,-135.5 1433.52,-139 1433.52,-132"/>
</g>
<!-- Node15 -->
<g id="node10" class="node"><title>Node15</title>
<g id="a_node10"><a xlink:href="class_tomographer_1_1_uniform_bins_histogram.html" target="_top" xlink:title="Stores a histogram. ">
<polygon fill="none" stroke="black" points="1254.7,-58.5 1254.7,-86.5 1426.9,-86.5 1426.9,-58.5 1254.7,-58.5"/>
<text text-anchor="start" x="1262.7" y="-74.5" font-family="Helvetica,sans-Serif" font-size="10.00">Tomographer::UniformBins</text>
<text text-anchor="middle" x="1340.8" y="-64.5" font-family="Helvetica,sans-Serif" font-size="10.00">Histogram&lt; Scalar_, CountType_ &gt;</text>
</a>
</g>
</g>
<!-- Node15&#45;&gt;Node6 -->
<g id="edge10" class="edge"><title>Node15&#45;&gt;Node6</title>
<path fill="none" stroke="#9a32cd" stroke-dasharray="5,2" d="M1406.97,-89.0906C1438.34,-97.0758 1476.23,-106.722 1509.33,-115.148"/>
<polygon fill="#9a32cd" stroke="#9a32cd" points="1407.59,-85.6353 1397.03,-86.56 1405.86,-92.419 1407.59,-85.6353"/>
<text text-anchor="middle" x="1468.24" y="-112.5" font-family="Helvetica,sans-Serif" font-size="10.00"> histogram</text>
</g>
<!-- Node16 -->
<g id="node11" class="node"><title>Node16</title>
<g id="a_node11"><a xlink:href="struct_tomographer_1_1_tools_1_1_eigen_aligned_operator_new_provider.html" target="_top" xlink:title="Provides correct operator&#45;new implementation for Eigen types via the NeedOwnOperatorNew mechanism...">
<polygon fill="none" stroke="black" points="907.056,-97.5 907.056,-125.5 1084.25,-125.5 1084.25,-97.5 907.056,-97.5"/>
<text text-anchor="start" x="915.056" y="-113.5" font-family="Helvetica,sans-Serif" font-size="10.00">Tomographer::Tools</text>
<text text-anchor="middle" x="995.654" y="-103.5" font-family="Helvetica,sans-Serif" font-size="10.00">::EigenAlignedOperatorNewProvider</text>
</a>
</g>
</g>
<!-- Node16&#45;&gt;Node15 -->
<g id="edge11" class="edge"><title>Node16&#45;&gt;Node15</title>
<path fill="none" stroke="midnightblue" d="M1094.54,-102.003C1138.1,-97.5973 1190,-92.1013 1236.7,-86.5 1242.53,-85.8009 1248.54,-85.0537 1254.59,-84.2818"/>
<polygon fill="midnightblue" stroke="midnightblue" points="1094.12,-98.5281 1084.52,-103.013 1094.82,-105.493 1094.12,-98.5281"/>
</g>
<!-- Node17 -->
<g id="node12" class="node"><title>Node17</title>
<polygon fill="none" stroke="#bfbfbf" points="960.689,-60.5 960.689,-78.5 1030.62,-78.5 1030.62,-60.5 960.689,-60.5"/>
<text text-anchor="middle" x="995.654" y="-66.5" font-family="Helvetica,sans-Serif" font-size="10.00">CountType_</text>
</g>
<!-- Node17&#45;&gt;Node15 -->
<g id="edge12" class="edge"><title>Node17&#45;&gt;Node15</title>
<path fill="none" stroke="#9a32cd" stroke-dasharray="5,2" d="M1041.05,-69.8881C1094.88,-70.3587 1186.78,-71.1622 1254.48,-71.754"/>
<polygon fill="#9a32cd" stroke="#9a32cd" points="1040.84,-66.3863 1030.81,-69.7986 1040.78,-73.386 1040.84,-66.3863"/>
<text text-anchor="middle" x="1169.69" y="-74.5" font-family="Helvetica,sans-Serif" font-size="10.00"> off_chart</text>
</g>
<!-- Node18 -->
<g id="node13" class="node"><title>Node18</title>
<g id="a_node13"><a doxygen="/Users/philippe/Research/projects/tomographer/doc/Eigen.doxytags:http://eigen.tuxfamily.org/dox/" xlink:href="http://eigen.tuxfamily.org/dox/classEigen_1_1Array.html" target="_top" xlink:title="Eigen::Array\&lt; CountType,\l Eigen::Dynamic, 1 \&gt;">
<polygon fill="none" stroke="black" points="930.259,-13.5 930.259,-41.5 1061.05,-41.5 1061.05,-13.5 930.259,-13.5"/>
<text text-anchor="start" x="938.259" y="-29.5" font-family="Helvetica,sans-Serif" font-size="10.00">Eigen::Array&lt; CountType,</text>
<text text-anchor="middle" x="995.654" y="-19.5" font-family="Helvetica,sans-Serif" font-size="10.00"> Eigen::Dynamic, 1 &gt;</text>
</a>
</g>
</g>
<!-- Node18&#45;&gt;Node15 -->
<g id="edge13" class="edge"><title>Node18&#45;&gt;Node15</title>
<path fill="none" stroke="#9a32cd" stroke-dasharray="5,2" d="M1071.36,-35.8676C1118.77,-41.3413 1181.4,-48.8703 1236.7,-56.5 1242.53,-57.3045 1248.55,-58.1627 1254.6,-59.0478"/>
<polygon fill="#9a32cd" stroke="#9a32cd" points="1071.51,-32.362 1061.17,-34.6966 1070.71,-39.3162 1071.51,-32.362"/>
<text text-anchor="middle" x="1169.69" y="-58.5" font-family="Helvetica,sans-Serif" font-size="10.00"> bins</text>
</g>
<!-- Node19 -->
<g id="node14" class="node"><title>Node19</title>
<g id="a_node14"><a doxygen="/Users/philippe/Research/projects/tomographer/doc/Eigen.doxytags:http://eigen.tuxfamily.org/dox/" xlink:href="http://eigen.tuxfamily.org/dox/classEigen_1_1PlainObjectBase.html" target="_top" xlink:title="Eigen::PlainObjectBase\l\&lt; Array\&lt; CountType, Eigen\l::Dynamic, 1, _Options, \l_MaxRows, _MaxCols \&gt; \&gt;">
<polygon fill="none" stroke="black" points="442.27,-52.5 442.27,-100.5 578.353,-100.5 578.353,-52.5 442.27,-52.5"/>
<text text-anchor="start" x="450.27" y="-88.5" font-family="Helvetica,sans-Serif" font-size="10.00">Eigen::PlainObjectBase</text>
<text text-anchor="start" x="450.27" y="-78.5" font-family="Helvetica,sans-Serif" font-size="10.00">&lt; Array&lt; CountType, Eigen</text>
<text text-anchor="start" x="450.27" y="-68.5" font-family="Helvetica,sans-Serif" font-size="10.00">::Dynamic, 1, _Options, </text>
<text text-anchor="middle" x="510.311" y="-58.5" font-family="Helvetica,sans-Serif" font-size="10.00">_MaxRows, _MaxCols &gt; &gt;</text>
</a>
</g>
</g>
<!-- Node19&#45;&gt;Node18 -->
<g id="edge14" class="edge"><title>Node19&#45;&gt;Node18</title>
<path fill="none" stroke="midnightblue" d="M588.474,-74.9151C664.997,-72.5156 785.418,-66.5066 888.629,-51.5 905.531,-49.0425 923.733,-45.3231 940.204,-41.5413"/>
<polygon fill="midnightblue" stroke="midnightblue" points="588.328,-71.4178 578.438,-75.217 588.539,-78.4147 588.328,-71.4178"/>
</g>
<!-- Node20 -->
<g id="node15" class="node"><title>Node20</title>
<g id="a_node15"><a doxygen="/Users/philippe/Research/projects/tomographer/doc/Eigen.doxytags:http://eigen.tuxfamily.org/dox/" xlink:href="http://eigen.tuxfamily.org/dox/classEigen_1_1PlainObjectBase.html" target="_top" xlink:title="Eigen::PlainObjectBase\l\&lt; Derived \&gt;">
<polygon fill="none" stroke="black" points="0,-36.5 0,-64.5 121.063,-64.5 121.063,-36.5 0,-36.5"/>
<text text-anchor="start" x="8" y="-52.5" font-family="Helvetica,sans-Serif" font-size="10.00">Eigen::PlainObjectBase</text>
<text text-anchor="middle" x="60.5317" y="-42.5" font-family="Helvetica,sans-Serif" font-size="10.00">&lt; Derived &gt;</text>
</a>
</g>
</g>
<!-- Node20&#45;&gt;Node19 -->
<g id="edge15" class="edge"><title>Node20&#45;&gt;Node19</title>
<path fill="none" stroke="orange" stroke-dasharray="5,2" d="M131.346,-55.0277C133.951,-55.1886 136.531,-55.3465 139.063,-55.5 244.939,-61.9164 367.884,-68.7716 442.078,-72.8434"/>
<polygon fill="orange" stroke="orange" points="131.411,-51.525 121.212,-54.3955 130.975,-58.5114 131.411,-51.525"/>
<text text-anchor="start" x="148.509" y="-94.5" font-family="Helvetica,sans-Serif" font-size="10.00"> &lt; Array&lt; CountType,</text>
<text text-anchor="start" x="148.509" y="-84.5" font-family="Helvetica,sans-Serif" font-size="10.00"> Eigen::Dynamic, 1,</text>
<text text-anchor="start" x="148.509" y="-74.5" font-family="Helvetica,sans-Serif" font-size="10.00"> _Options, _MaxRows,</text>
<text text-anchor="middle" x="198.807" y="-64.5" font-family="Helvetica,sans-Serif" font-size="10.00"> _MaxCols &gt; &gt;</text>
</g>
<!-- Node22 -->
<g id="node17" class="node"><title>Node22</title>
<g id="a_node17"><a doxygen="/Users/philippe/Research/projects/tomographer/doc/Eigen.doxytags:http://eigen.tuxfamily.org/dox/" xlink:href="http://eigen.tuxfamily.org/dox/classEigen_1_1PlainObjectBase.html" target="_top" xlink:title="Eigen::PlainObjectBase\l\&lt; Array\&lt; _Scalar, _Rows,\l _Cols, _Options, _MaxRows,\l _MaxCols \&gt; \&gt;">
<polygon fill="none" stroke="black" points="276.551,-0.5 276.551,-48.5 424.27,-48.5 424.27,-0.5 276.551,-0.5"/>
<text text-anchor="start" x="284.551" y="-36.5" font-family="Helvetica,sans-Serif" font-size="10.00">Eigen::PlainObjectBase</text>
<text text-anchor="start" x="284.551" y="-26.5" font-family="Helvetica,sans-Serif" font-size="10.00">&lt; Array&lt; _Scalar, _Rows,</text>
<text text-anchor="start" x="284.551" y="-16.5" font-family="Helvetica,sans-Serif" font-size="10.00"> _Cols, _Options, _MaxRows,</text>
<text text-anchor="middle" x="350.41" y="-6.5" font-family="Helvetica,sans-Serif" font-size="10.00"> _MaxCols &gt; &gt;</text>
</a>
</g>
</g>
<!-- Node20&#45;&gt;Node22 -->
<g id="edge18" class="edge"><title>Node20&#45;&gt;Node22</title>
<path fill="none" stroke="orange" stroke-dasharray="5,2" d="M106.969,-33.2876C117.368,-30.0701 128.48,-27.1899 139.063,-25.5 184.321,-18.2734 235.758,-17.892 276.438,-19.3809"/>
<polygon fill="orange" stroke="orange" points="105.683,-30.0254 97.2566,-36.4481 107.849,-36.6818 105.683,-30.0254"/>
<text text-anchor="start" x="139.063" y="-47.5" font-family="Helvetica,sans-Serif" font-size="10.00"> &lt; Array&lt; _Scalar, </text>
<text text-anchor="start" x="139.063" y="-37.5" font-family="Helvetica,sans-Serif" font-size="10.00">_Rows, _Cols, _Options,</text>
<text text-anchor="middle" x="198.807" y="-27.5" font-family="Helvetica,sans-Serif" font-size="10.00"> _MaxRows, _MaxCols &gt; &gt;</text>
</g>
<!-- Node21 -->
<g id="node16" class="node"><title>Node21</title>
<g id="a_node16"><a doxygen="/Users/philippe/Research/projects/tomographer/doc/Eigen.doxytags:http://eigen.tuxfamily.org/dox/" xlink:href="http://eigen.tuxfamily.org/dox/classEigen_1_1Array.html" target="_top" xlink:title="Eigen::Array\&lt; _Scalar,\l _Rows, _Cols, _Options,\l _MaxRows, _MaxCols \&gt;">
<polygon fill="none" stroke="black" points="623.628,-6.5 623.628,-44.5 752.455,-44.5 752.455,-6.5 623.628,-6.5"/>
<text text-anchor="start" x="631.628" y="-32.5" font-family="Helvetica,sans-Serif" font-size="10.00">Eigen::Array&lt; _Scalar,</text>
<text text-anchor="start" x="631.628" y="-22.5" font-family="Helvetica,sans-Serif" font-size="10.00"> _Rows, _Cols, _Options,</text>
<text text-anchor="middle" x="688.042" y="-12.5" font-family="Helvetica,sans-Serif" font-size="10.00"> _MaxRows, _MaxCols &gt;</text>
</a>
</g>
</g>
<!-- Node21&#45;&gt;Node18 -->
<g id="edge16" class="edge"><title>Node21&#45;&gt;Node18</title>
<path fill="none" stroke="orange" stroke-dasharray="5,2" d="M763.052,-25.9843C814.133,-26.3186 881.386,-26.7587 930.253,-27.0785"/>
<polygon fill="orange" stroke="orange" points="762.759,-22.4824 752.736,-25.9168 762.713,-29.4823 762.759,-22.4824"/>
<text text-anchor="start" x="797.73" y="-39.5" font-family="Helvetica,sans-Serif" font-size="10.00"> &lt; CountType, Eigen</text>
<text text-anchor="middle" x="843.18" y="-29.5" font-family="Helvetica,sans-Serif" font-size="10.00">::Dynamic, 1 &gt;</text>
</g>
<!-- Node22&#45;&gt;Node21 -->
<g id="edge17" class="edge"><title>Node22&#45;&gt;Node21</title>
<path fill="none" stroke="midnightblue" d="M434.963,-24.7489C493.364,-24.9229 570.152,-25.1517 623.564,-25.3109"/>
<polygon fill="midnightblue" stroke="midnightblue" points="434.662,-21.2481 424.651,-24.7182 434.641,-28.2481 434.662,-21.2481"/>
</g>
</g>
</svg>
        <g id="navigator" transform="translate(0 0)" fill="#404254">
                <rect fill="#f2f5e9" fill-opacity="0.5" stroke="#606060" stroke-width=".5" x="0" y="0" width="60" height="60"/>
                <use id="zoomplus" xlink:href="#zoomPlus" x="17" y="9" onmousedown="handleZoom(evt,'in')"/>
                <use id="zoomminus" xlink:href="#zoomMin" x="42" y="9" onmousedown="handleZoom(evt,'out')"/>
                <use id="reset" xlink:href="#resetDef" x="30" y="36" onmousedown="handleReset()"/>
                <g id="arrowUp" xlink:href="#dirArrow" transform="translate(30 24)" onmousedown="handlePan(0,-1)">
                  <use xlink:href="#rim" fill="#404040">
                        <set attributeName="fill" to="#808080" begin="arrowUp.mouseover" end="arrowUp.mouseout"/>
                  </use>
                  <path fill="none" stroke="white" stroke-width="1.5" d="M0,-3.0v7 M-2.5,-0.5L0,-3.0L2.5,-0.5"/>
                </g>
                <g id="arrowRight" xlink:href="#dirArrow" transform="rotate(90) translate(36 -43)" onmousedown="handlePan(1,0)">
                  <use xlink:href="#rim" fill="#404040">
                        <set attributeName="fill" to="#808080" begin="arrowRight.mouseover" end="arrowRight.mouseout"/>
                  </use>
                  <path fill="none" stroke="white" stroke-width="1.5" d="M0,-3.0v7 M-2.5,-0.5L0,-3.0L2.5,-0.5"/>
                </g>
                <g id="arrowDown" xlink:href="#dirArrow" transform="rotate(180) translate(-30 -48)" onmousedown="handlePan(0,1)">
                  <use xlink:href="#rim" fill="#404040">
                        <set attributeName="fill" to="#808080" begin="arrowDown.mouseover" end="arrowDown.mouseout"/>
                  </use>
                  <path fill="none" stroke="white" stroke-width="1.5" d="M0,-3.0v7 M-2.5,-0.5L0,-3.0L2.5,-0.5"/>
                </g>
                <g id="arrowLeft" xlink:href="#dirArrow" transform="rotate(270) translate(-36 17)" onmousedown="handlePan(-1,0)">
                  <use xlink:href="#rim" fill="#404040">
                        <set attributeName="fill" to="#808080" begin="arrowLeft.mouseover" end="arrowLeft.mouseout"/>
                  </use>
                  <path fill="none" stroke="white" stroke-width="1.5" d="M0,-3.0v7 M-2.5,-0.5L0,-3.0L2.5,-0.5"/>
                </g>
        </g>
        <svg viewBox="0 0 15 15" width="100%" height="30px" preserveAspectRatio="xMaxYMin meet">
         <g id="arrow_out" transform="scale(0.3 0.3)">
          <a xlink:href="struct_tomographer_1_1_m_h_r_w_tasks_1_1_value_histogram_tasks_1_1_results_collector_simple_1_1_run_task_result__coll__graph_org.svg" target="_base">
           <rect id="button" ry="5" rx="5" y="6" x="6" height="38" width="38"
                fill="#f2f5e9" fill-opacity="0.5" stroke="#606060" stroke-width="1.0"/>
           <path id="arrow"
             d="M 11.500037,31.436501 C 11.940474,20.09759 22.043105,11.32322 32.158766,21.979434 L 37.068811,17.246167 C 37.068811,17.246167 37.088388,32 37.088388,32 L 22.160133,31.978069 C 22.160133,31.978069 26.997745,27.140456 26.997745,27.140456 C 18.528582,18.264221 13.291696,25.230495 11.500037,31.436501 z"
             style="fill:#404040;"/>
          </a>
         </g>
        </svg>
</svg>
