<?xml version="1.0" encoding="UTF-8" standalone="no"?>
<!DOCTYPE svg PUBLIC "-//W3C//DTD SVG 1.1//EN"
 "http://www.w3.org/Graphics/SVG/1.1/DTD/svg11.dtd">
<!-- Generated by graphviz version 2.38.0 (20140413.2041)
 -->
<!-- Title: tomographer/densedm/tspacellhwalker.h Pages: 1 -->
<svg width="1668pt" height="452pt"
 viewBox="0.00 0.00 1668.15 452.00" xmlns="http://www.w3.org/2000/svg" xmlns:xlink="http://www.w3.org/1999/xlink">
<g id="graph0" class="graph" transform="scale(1 1) rotate(0) translate(4 448)">
<title>tomographer/densedm/tspacellhwalker.h</title>
<!-- Node0 -->
<g id="node1" class="node"><title>Node0</title>
<polygon fill="#bfbfbf" stroke="black" points="342.692,-415.5 342.692,-443.5 459.308,-443.5 459.308,-415.5 342.692,-415.5"/>
<text text-anchor="start" x="350.692" y="-431.5" font-family="Helvetica,sans-Serif" font-size="10.00">tomographer/densedm</text>
<text text-anchor="middle" x="401" y="-421.5" font-family="Helvetica,sans-Serif" font-size="10.00">/tspacellhwalker.h</text>
</g>
<!-- Node1 -->
<g id="node2" class="node"><title>Node1</title>
<polygon fill="none" stroke="#bfbfbf" points="131.879,-55.5 131.879,-73.5 180.121,-73.5 180.121,-55.5 131.879,-55.5"/>
<text text-anchor="middle" x="156" y="-61.5" font-family="Helvetica,sans-Serif" font-size="10.00">cstddef</text>
</g>
<!-- Node0&#45;&gt;Node1 -->
<g id="edge1" class="edge"><title>Node0&#45;&gt;Node1</title>
<path fill="none" stroke="midnightblue" d="M342.691,-423.561C231.475,-412.523 0,-381.074 0,-310.5 0,-310.5 0,-310.5 0,-178.5 0,-118.806 75.844,-87.4188 121.765,-73.8858"/>
<polygon fill="midnightblue" stroke="midnightblue" points="122.944,-77.1903 131.625,-71.1171 121.051,-70.4509 122.944,-77.1903"/>
</g>
<!-- Node2 -->
<g id="node3" class="node"><title>Node2</title>
<polygon fill="none" stroke="#bfbfbf" points="799.384,-235.5 799.384,-253.5 842.616,-253.5 842.616,-235.5 799.384,-235.5"/>
<text text-anchor="middle" x="821" y="-241.5" font-family="Helvetica,sans-Serif" font-size="10.00">cmath</text>
</g>
<!-- Node0&#45;&gt;Node2 -->
<g id="edge2" class="edge"><title>Node0&#45;&gt;Node2</title>
<path fill="none" stroke="midnightblue" d="M459.547,-428.641C519.983,-426.518 615.421,-416.696 688,-379 743.016,-350.425 789.457,-291.008 809.874,-262.064"/>
<polygon fill="midnightblue" stroke="midnightblue" points="812.767,-264.033 815.566,-253.815 807.006,-260.057 812.767,-264.033"/>
</g>
<!-- Node3 -->
<g id="node4" class="node"><title>Node3</title>
<polygon fill="none" stroke="#bfbfbf" points="66.0469,-235.5 66.0469,-253.5 115.953,-253.5 115.953,-235.5 66.0469,-235.5"/>
<text text-anchor="middle" x="91" y="-241.5" font-family="Helvetica,sans-Serif" font-size="10.00">random</text>
</g>
<!-- Node0&#45;&gt;Node3 -->
<g id="edge3" class="edge"><title>Node0&#45;&gt;Node3</title>
<path fill="none" stroke="midnightblue" d="M342.46,-424.147C275.67,-415.94 167.966,-392.269 108,-324 93.3552,-307.327 90.3486,-281.048 90.1699,-263.549"/>
<polygon fill="midnightblue" stroke="midnightblue" points="93.67,-263.573 90.367,-253.507 86.6714,-263.436 93.67,-263.573"/>
</g>
<!-- Node4 -->
<g id="node5" class="node"><title>Node4</title>
<polygon fill="none" stroke="#bfbfbf" points="670.473,-230.5 670.473,-258.5 781.527,-258.5 781.527,-230.5 670.473,-230.5"/>
<text text-anchor="start" x="678.473" y="-246.5" font-family="Helvetica,sans-Serif" font-size="10.00">boost/math/constants</text>
<text text-anchor="middle" x="726" y="-236.5" font-family="Helvetica,sans-Serif" font-size="10.00">/constants.hpp</text>
</g>
<!-- Node0&#45;&gt;Node4 -->
<g id="edge4" class="edge"><title>Node0&#45;&gt;Node4</title>
<path fill="none" stroke="midnightblue" d="M459.315,-428.34C533.994,-424.634 661.13,-405.795 723,-324 734.744,-308.475 734.324,-285.859 731.655,-268.885"/>
<polygon fill="midnightblue" stroke="midnightblue" points="735.016,-267.831 729.68,-258.677 728.143,-269.16 735.016,-267.831"/>
</g>
<!-- Node5 -->
<g id="node6" class="node"><title>Node5</title>
<g id="a_node6"><a xlink:href="loggers_8h.html" target="_top" xlink:title="Utilities for logging messages. ">
<polygon fill="none" stroke="black" points="1156.74,-235.5 1156.74,-253.5 1297.26,-253.5 1297.26,-235.5 1156.74,-235.5"/>
<text text-anchor="middle" x="1227" y="-241.5" font-family="Helvetica,sans-Serif" font-size="10.00">tomographer/tools/loggers.h</text>
</a>
</g>
</g>
<!-- Node0&#45;&gt;Node5 -->
<g id="edge5" class="edge"><title>Node0&#45;&gt;Node5</title>
<path fill="none" stroke="midnightblue" d="M459.309,-424.817C541.348,-418.926 695.227,-405.274 824,-379 908.883,-361.681 928.694,-351.031 1011,-324 1077.89,-302.033 1155.19,-273.054 1196.77,-257.165"/>
<polygon fill="midnightblue" stroke="midnightblue" points="1198.21,-260.36 1206.3,-253.513 1195.71,-253.823 1198.21,-260.36"/>
</g>
<!-- Node25 -->
<g id="node26" class="node"><title>Node25</title>
<g id="a_node26"><a xlink:href="needownoperatornew_8h.html" target="_top" xlink:title="Managing the need for specific overrides to operator new() for some types (especially Eigen types) ...">
<polygon fill="none" stroke="black" points="210.323,-235.5 210.323,-253.5 413.677,-253.5 413.677,-235.5 210.323,-235.5"/>
<text text-anchor="middle" x="312" y="-241.5" font-family="Helvetica,sans-Serif" font-size="10.00">tomographer/tools/needownoperatornew.h</text>
</a>
</g>
</g>
<!-- Node0&#45;&gt;Node25 -->
<g id="edge34" class="edge"><title>Node0&#45;&gt;Node25</title>
<path fill="none" stroke="midnightblue" d="M365.808,-415.447C329.54,-399.868 275.016,-370 251,-324 245.035,-312.575 245.457,-306.636 251,-295 258.386,-279.494 273.268,-267.264 286.483,-258.84"/>
<polygon fill="midnightblue" stroke="midnightblue" points="288.448,-261.744 295.252,-253.623 284.869,-255.728 288.448,-261.744"/>
</g>
<!-- Node27 -->
<g id="node28" class="node"><title>Node27</title>
<g id="a_node28"><a xlink:href="densellh_8h.html" target="_top" xlink:title="Some declarations for the DenseLLH type interface. ">
<polygon fill="none" stroke="black" points="259.692,-295.5 259.692,-323.5 376.308,-323.5 376.308,-295.5 259.692,-295.5"/>
<text text-anchor="start" x="267.692" y="-311.5" font-family="Helvetica,sans-Serif" font-size="10.00">tomographer/densedm</text>
<text text-anchor="middle" x="318" y="-301.5" font-family="Helvetica,sans-Serif" font-size="10.00">/densellh.h</text>
</a>
</g>
</g>
<!-- Node0&#45;&gt;Node27 -->
<g id="edge38" class="edge"><title>Node0&#45;&gt;Node27</title>
<path fill="none" stroke="midnightblue" d="M391.8,-415.421C377.591,-395.22 350.16,-356.222 333.039,-331.88"/>
<polygon fill="midnightblue" stroke="midnightblue" points="335.857,-329.803 327.241,-323.637 330.131,-333.83 335.857,-329.803"/>
</g>
<!-- Node28 -->
<g id="node29" class="node"><title>Node28</title>
<g id="a_node29"><a xlink:href="dmtypes_8h.html" target="_top" xlink:title="C++ types for describing dense density matrices in various parameterizations. ">
<polygon fill="none" stroke="black" points="183.692,-165.5 183.692,-193.5 300.308,-193.5 300.308,-165.5 183.692,-165.5"/>
<text text-anchor="start" x="191.692" y="-181.5" font-family="Helvetica,sans-Serif" font-size="10.00">tomographer/densedm</text>
<text text-anchor="middle" x="242" y="-171.5" font-family="Helvetica,sans-Serif" font-size="10.00">/dmtypes.h</text>
</a>
</g>
</g>
<!-- Node0&#45;&gt;Node28 -->
<g id="edge43" class="edge"><title>Node0&#45;&gt;Node28</title>
<path fill="none" stroke="midnightblue" d="M342.502,-426.101C289.434,-421.872 210.349,-410.329 149,-379 89.1486,-348.436 72.6408,-324.358 57,-259 54.0003,-246.465 49.1519,-240.224 57,-230 71.3814,-211.265 126.781,-198.079 173.24,-190.053"/>
<polygon fill="midnightblue" stroke="midnightblue" points="174.018,-193.472 183.303,-188.37 172.862,-186.568 174.018,-193.472"/>
</g>
<!-- Node29 -->
<g id="node30" class="node"><title>Node29</title>
<g id="a_node30"><a xlink:href="param__herm__x_8h.html" target="_top" xlink:title="Tools for parameterizing hermitian matrices with the X Parameterization. ">
<polygon fill="none" stroke="black" points="810.692,-295.5 810.692,-323.5 927.308,-323.5 927.308,-295.5 810.692,-295.5"/>
<text text-anchor="start" x="818.692" y="-311.5" font-family="Helvetica,sans-Serif" font-size="10.00">tomographer/densedm</text>
<text text-anchor="middle" x="869" y="-301.5" font-family="Helvetica,sans-Serif" font-size="10.00">/param_herm_x.h</text>
</a>
</g>
</g>
<!-- Node0&#45;&gt;Node29 -->
<g id="edge48" class="edge"><title>Node0&#45;&gt;Node29</title>
<path fill="none" stroke="midnightblue" d="M459.633,-425.594C554.687,-420.149 737.667,-406.4 796,-379 819.04,-368.177 839.612,-347.316 852.998,-331.445"/>
<polygon fill="midnightblue" stroke="midnightblue" points="855.72,-333.646 859.318,-323.68 850.291,-329.227 855.72,-333.646"/>
</g>
<!-- Node31 -->
<g id="node32" class="node"><title>Node31</title>
<g id="a_node32"><a xlink:href="mhrw_8h.html" target="_top" xlink:title="Routines for performing a Metropolis&#45;Hastings random walk. ">
<polygon fill="none" stroke="black" points="411.143,-360.5 411.143,-378.5 518.857,-378.5 518.857,-360.5 411.143,-360.5"/>
<text text-anchor="middle" x="465" y="-366.5" font-family="Helvetica,sans-Serif" font-size="10.00">tomographer/mhrw.h</text>
</a>
</g>
</g>
<!-- Node0&#45;&gt;Node31 -->
<g id="edge54" class="edge"><title>Node0&#45;&gt;Node31</title>
<path fill="none" stroke="midnightblue" d="M415.523,-415.339C425.3,-406.478 438.219,-394.77 448.403,-385.541"/>
<polygon fill="midnightblue" stroke="midnightblue" points="450.813,-388.08 455.873,-378.771 446.113,-382.893 450.813,-388.08"/>
</g>
<!-- Node6 -->
<g id="node7" class="node"><title>Node6</title>
<polygon fill="none" stroke="#bfbfbf" points="1235.94,-110.5 1235.94,-128.5 1278.06,-128.5 1278.06,-110.5 1235.94,-110.5"/>
<text text-anchor="middle" x="1257" y="-116.5" font-family="Helvetica,sans-Serif" font-size="10.00">cstdio</text>
</g>
<!-- Node5&#45;&gt;Node6 -->
<g id="edge6" class="edge"><title>Node5&#45;&gt;Node6</title>
<path fill="none" stroke="midnightblue" d="M1248.07,-235.346C1264.99,-227.542 1287.57,-213.982 1298,-194 1303.96,-182.573 1302.69,-177.006 1298,-165 1293.48,-153.432 1284.39,-143.058 1275.92,-135.243"/>
<polygon fill="midnightblue" stroke="midnightblue" points="1278.02,-132.433 1268.15,-128.578 1273.46,-137.746 1278.02,-132.433"/>
</g>
<!-- Node7 -->
<g id="node8" class="node"><title>Node7</title>
<polygon fill="none" stroke="#bfbfbf" points="1368.6,-110.5 1368.6,-128.5 1417.4,-128.5 1417.4,-110.5 1368.6,-110.5"/>
<text text-anchor="middle" x="1393" y="-116.5" font-family="Helvetica,sans-Serif" font-size="10.00">cstdarg</text>
</g>
<!-- Node5&#45;&gt;Node7 -->
<g id="edge7" class="edge"><title>Node5&#45;&gt;Node7</title>
<path fill="none" stroke="midnightblue" d="M1252.6,-235.437C1275.5,-227.389 1309.17,-213.421 1334,-194 1354.47,-177.987 1372.25,-153.552 1382.8,-137.309"/>
<polygon fill="midnightblue" stroke="midnightblue" points="1385.78,-139.146 1388.14,-128.817 1379.85,-135.419 1385.78,-139.146"/>
</g>
<!-- Node8 -->
<g id="node9" class="node"><title>Node8</title>
<polygon fill="none" stroke="#bfbfbf" points="1546.77,-0.5 1546.77,-18.5 1587.23,-18.5 1587.23,-0.5 1546.77,-0.5"/>
<text text-anchor="middle" x="1567" y="-6.5" font-family="Helvetica,sans-Serif" font-size="10.00">string</text>
</g>
<!-- Node5&#45;&gt;Node8 -->
<g id="edge8" class="edge"><title>Node5&#45;&gt;Node8</title>
<path fill="none" stroke="midnightblue" d="M1297.3,-238.753C1386.69,-231.867 1535.38,-217.319 1585,-194 1629.24,-173.207 1673.44,-155.665 1656,-110 1642.13,-73.6844 1608.23,-42.242 1586.5,-24.8772"/>
<polygon fill="midnightblue" stroke="midnightblue" points="1588.61,-22.0874 1578.56,-18.7277 1584.32,-27.6202 1588.61,-22.0874"/>
</g>
<!-- Node9 -->
<g id="node10" class="node"><title>Node9</title>
<polygon fill="none" stroke="#bfbfbf" points="1595.22,-110.5 1595.22,-128.5 1646.78,-128.5 1646.78,-110.5 1595.22,-110.5"/>
<text text-anchor="middle" x="1621" y="-116.5" font-family="Helvetica,sans-Serif" font-size="10.00">sstream</text>
</g>
<!-- Node5&#45;&gt;Node9 -->
<g id="edge9" class="edge"><title>Node5&#45;&gt;Node9</title>
<path fill="none" stroke="midnightblue" d="M1297.49,-238.17C1379.45,-231.04 1509,-216.61 1552,-194 1577.36,-180.668 1598.5,-154.335 1610.45,-137.078"/>
<polygon fill="midnightblue" stroke="midnightblue" points="1613.48,-138.83 1616.11,-128.565 1607.66,-134.954 1613.48,-138.83"/>
</g>
<!-- Node10 -->
<g id="node11" class="node"><title>Node10</title>
<polygon fill="none" stroke="#bfbfbf" points="1295.83,-110.5 1295.83,-128.5 1350.17,-128.5 1350.17,-110.5 1295.83,-110.5"/>
<text text-anchor="middle" x="1323" y="-116.5" font-family="Helvetica,sans-Serif" font-size="10.00">iostream</text>
</g>
<!-- Node5&#45;&gt;Node10 -->
<g id="edge10" class="edge"><title>Node5&#45;&gt;Node10</title>
<path fill="none" stroke="midnightblue" d="M1254.81,-235.463C1274.99,-228.095 1301.1,-215.066 1315,-194 1325.81,-177.621 1326.56,-154.59 1325.41,-138.695"/>
<polygon fill="midnightblue" stroke="midnightblue" points="1328.88,-138.161 1324.36,-128.578 1321.91,-138.888 1328.88,-138.161"/>
</g>
<!-- Node11 -->
<g id="node12" class="node"><title>Node11</title>
<polygon fill="none" stroke="#bfbfbf" points="1230.6,-170.5 1230.6,-188.5 1289.4,-188.5 1289.4,-170.5 1230.6,-170.5"/>
<text text-anchor="middle" x="1260" y="-176.5" font-family="Helvetica,sans-Serif" font-size="10.00">functional</text>
</g>
<!-- Node5&#45;&gt;Node11 -->
<g id="edge11" class="edge"><title>Node5&#45;&gt;Node11</title>
<path fill="none" stroke="midnightblue" d="M1231.31,-235.264C1236.28,-225.779 1244.58,-209.936 1250.98,-197.724"/>
<polygon fill="midnightblue" stroke="midnightblue" points="1254.25,-199.021 1255.79,-188.539 1248.05,-195.773 1254.25,-199.021"/>
</g>
<!-- Node12 -->
<g id="node13" class="node"><title>Node12</title>
<polygon fill="none" stroke="#bfbfbf" points="508.934,-55.5 508.934,-73.5 571.066,-73.5 571.066,-55.5 508.934,-55.5"/>
<text text-anchor="middle" x="540" y="-61.5" font-family="Helvetica,sans-Serif" font-size="10.00">type_traits</text>
</g>
<!-- Node5&#45;&gt;Node12 -->
<g id="edge12" class="edge"><title>Node5&#45;&gt;Node12</title>
<path fill="none" stroke="midnightblue" d="M1186.47,-235.456C1140.75,-226.206 1064.26,-210.203 999,-194 916.668,-173.557 671.796,-103.435 577.55,-76.3224"/>
<polygon fill="midnightblue" stroke="midnightblue" points="578.441,-72.9368 567.863,-73.5345 576.505,-79.6638 578.441,-72.9368"/>
</g>
<!-- Node13 -->
<g id="node14" class="node"><title>Node13</title>
<polygon fill="none" stroke="#bfbfbf" points="1177.27,-170.5 1177.27,-188.5 1212.73,-188.5 1212.73,-170.5 1177.27,-170.5"/>
<text text-anchor="middle" x="1195" y="-176.5" font-family="Helvetica,sans-Serif" font-size="10.00">map</text>
</g>
<!-- Node5&#45;&gt;Node13 -->
<g id="edge13" class="edge"><title>Node5&#45;&gt;Node13</title>
<path fill="none" stroke="midnightblue" d="M1222.82,-235.264C1218,-225.779 1209.95,-209.936 1203.75,-197.724"/>
<polygon fill="midnightblue" stroke="midnightblue" points="1206.73,-195.87 1199.08,-188.539 1200.49,-199.04 1206.73,-195.87"/>
</g>
<!-- Node14 -->
<g id="node15" class="node"><title>Node14</title>
<polygon fill="none" stroke="#bfbfbf" points="1028.47,-170.5 1028.47,-188.5 1159.53,-188.5 1159.53,-170.5 1028.47,-170.5"/>
<text text-anchor="middle" x="1094" y="-176.5" font-family="Helvetica,sans-Serif" font-size="10.00">boost/algorithm/string.hpp</text>
</g>
<!-- Node5&#45;&gt;Node14 -->
<g id="edge14" class="edge"><title>Node5&#45;&gt;Node14</title>
<path fill="none" stroke="midnightblue" d="M1209.88,-235.393C1187.14,-224.619 1146.74,-205.481 1120.16,-192.891"/>
<polygon fill="midnightblue" stroke="midnightblue" points="1121.59,-189.694 1111.05,-188.576 1118.59,-196.02 1121.59,-189.694"/>
</g>
<!-- Node15 -->
<g id="node16" class="node"><title>Node15</title>
<g id="a_node16"><a xlink:href="fmt_8h.html" target="_top" xlink:title="Utilities for formatting strings. ">
<polygon fill="none" stroke="black" points="1421.2,-170.5 1421.2,-188.5 1542.8,-188.5 1542.8,-170.5 1421.2,-170.5"/>
<text text-anchor="middle" x="1482" y="-176.5" font-family="Helvetica,sans-Serif" font-size="10.00">tomographer/tools/fmt.h</text>
</a>
</g>
</g>
<!-- Node5&#45;&gt;Node15 -->
<g id="edge15" class="edge"><title>Node5&#45;&gt;Node15</title>
<path fill="none" stroke="midnightblue" d="M1259.55,-235.457C1305.28,-224.161 1388.58,-203.579 1439.25,-191.061"/>
<polygon fill="midnightblue" stroke="midnightblue" points="1440.37,-194.391 1449.24,-188.595 1438.69,-187.595 1440.37,-194.391"/>
</g>
<!-- Node24 -->
<g id="node25" class="node"><title>Node24</title>
<g id="a_node25"><a xlink:href="conststr_8h.html" target="_top" xlink:title="A constexpr string type, suitable for basic compile&#45;time string processing. ">
<polygon fill="none" stroke="black" points="928.909,-55.5 928.909,-73.5 1071.09,-73.5 1071.09,-55.5 928.909,-55.5"/>
<text text-anchor="middle" x="1000" y="-61.5" font-family="Helvetica,sans-Serif" font-size="10.00">tomographer/tools/conststr.h</text>
</a>
</g>
</g>
<!-- Node5&#45;&gt;Node24 -->
<g id="edge33" class="edge"><title>Node5&#45;&gt;Node24</title>
<path fill="none" stroke="midnightblue" d="M1158.16,-235.47C1105.08,-227.809 1037.69,-214.385 1019,-194 991.265,-163.745 993.362,-111.561 996.892,-83.9199"/>
<polygon fill="midnightblue" stroke="midnightblue" points="1000.4,-84.1179 998.41,-73.7119 993.478,-83.0883 1000.4,-84.1179"/>
</g>
<!-- Node15&#45;&gt;Node6 -->
<g id="edge16" class="edge"><title>Node15&#45;&gt;Node6</title>
<path fill="none" stroke="midnightblue" d="M1449.15,-170.454C1412.31,-161.365 1350.52,-145.933 1288.28,-129.29"/>
<polygon fill="midnightblue" stroke="midnightblue" points="1288.85,-125.82 1278.29,-126.609 1287.04,-132.581 1288.85,-125.82"/>
</g>
<!-- Node15&#45;&gt;Node7 -->
<g id="edge17" class="edge"><title>Node15&#45;&gt;Node7</title>
<path fill="none" stroke="midnightblue" d="M1469.62,-170.435C1455.36,-161.138 1431.66,-145.694 1414.39,-134.439"/>
<polygon fill="midnightblue" stroke="midnightblue" points="1415.85,-131.211 1405.56,-128.683 1412.02,-137.075 1415.85,-131.211"/>
</g>
<!-- Node15&#45;&gt;Node8 -->
<g id="edge19" class="edge"><title>Node15&#45;&gt;Node8</title>
<path fill="none" stroke="midnightblue" d="M1499.06,-170.498C1514.47,-162.325 1536.45,-148.128 1548,-129 1566.96,-97.587 1568.83,-53.3143 1568.14,-28.741"/>
<polygon fill="midnightblue" stroke="midnightblue" points="1571.64,-28.5077 1567.69,-18.6775 1564.64,-28.8265 1571.64,-28.5077"/>
</g>
<!-- Node15&#45;&gt;Node9 -->
<g id="edge20" class="edge"><title>Node15&#45;&gt;Node9</title>
<path fill="none" stroke="midnightblue" d="M1501.33,-170.435C1524.85,-160.622 1564.78,-143.959 1591.99,-132.604"/>
<polygon fill="midnightblue" stroke="midnightblue" points="1593.51,-135.764 1601.39,-128.683 1590.81,-129.304 1593.51,-135.764"/>
</g>
<!-- Node15&#45;&gt;Node10 -->
<g id="edge21" class="edge"><title>Node15&#45;&gt;Node10</title>
<path fill="none" stroke="midnightblue" d="M1459.89,-170.435C1432.56,-160.465 1385.84,-143.424 1354.7,-132.062"/>
<polygon fill="midnightblue" stroke="midnightblue" points="1355.77,-128.728 1345.18,-128.589 1353.37,-135.304 1355.77,-128.728"/>
</g>
<!-- Node16 -->
<g id="node17" class="node"><title>Node16</title>
<polygon fill="none" stroke="#bfbfbf" points="1492.71,-110.5 1492.71,-128.5 1539.29,-128.5 1539.29,-110.5 1492.71,-110.5"/>
<text text-anchor="middle" x="1516" y="-116.5" font-family="Helvetica,sans-Serif" font-size="10.00">chrono</text>
</g>
<!-- Node15&#45;&gt;Node16 -->
<g id="edge18" class="edge"><title>Node15&#45;&gt;Node16</title>
<path fill="none" stroke="midnightblue" d="M1486.73,-170.435C1491.7,-161.961 1499.66,-148.38 1506.02,-137.519"/>
<polygon fill="midnightblue" stroke="midnightblue" points="1509.05,-139.269 1511.09,-128.872 1503.02,-135.729 1509.05,-139.269"/>
</g>
<!-- Node17 -->
<g id="node18" class="node"><title>Node17</title>
<polygon fill="none" stroke="#bfbfbf" points="1435.61,-110.5 1435.61,-128.5 1474.39,-128.5 1474.39,-110.5 1435.61,-110.5"/>
<text text-anchor="middle" x="1455" y="-116.5" font-family="Helvetica,sans-Serif" font-size="10.00">utility</text>
</g>
<!-- Node15&#45;&gt;Node17 -->
<g id="edge22" class="edge"><title>Node15&#45;&gt;Node17</title>
<path fill="none" stroke="midnightblue" d="M1478.25,-170.435C1474.38,-162.132 1468.23,-148.927 1463.23,-138.181"/>
<polygon fill="midnightblue" stroke="midnightblue" points="1466.29,-136.46 1458.9,-128.872 1459.94,-139.415 1466.29,-136.46"/>
</g>
<!-- Node18 -->
<g id="node19" class="node"><title>Node18</title>
<g id="a_node19"><a xlink:href="cxxutil_8h.html" target="_top" xlink:title="Some C++ utilities, with a tad of C++11 tricks. ">
<polygon fill="none" stroke="black" points="437.249,-110.5 437.249,-128.5 572.751,-128.5 572.751,-110.5 437.249,-110.5"/>
<text text-anchor="middle" x="505" y="-116.5" font-family="Helvetica,sans-Serif" font-size="10.00">tomographer/tools/cxxutil.h</text>
</a>
</g>
</g>
<!-- Node15&#45;&gt;Node18 -->
<g id="edge23" class="edge"><title>Node15&#45;&gt;Node18</title>
<path fill="none" stroke="midnightblue" d="M1421.1,-173.768C1385.27,-171.05 1339.07,-167.659 1298,-165 1036.23,-148.053 725.594,-131.719 583.278,-124.446"/>
<polygon fill="midnightblue" stroke="midnightblue" points="583.078,-120.931 572.913,-123.917 582.721,-127.922 583.078,-120.931"/>
</g>
<!-- Node18&#45;&gt;Node1 -->
<g id="edge25" class="edge"><title>Node18&#45;&gt;Node1</title>
<path fill="none" stroke="midnightblue" d="M451.994,-110.45C379.53,-99.4459 251.575,-80.0142 190.421,-70.7273"/>
<polygon fill="midnightblue" stroke="midnightblue" points="190.914,-67.2621 180.502,-69.2209 189.863,-74.1827 190.914,-67.2621"/>
</g>
<!-- Node18&#45;&gt;Node12 -->
<g id="edge27" class="edge"><title>Node18&#45;&gt;Node12</title>
<path fill="none" stroke="midnightblue" d="M510.469,-110.219C515.429,-102.707 522.889,-91.411 529.07,-82.0515"/>
<polygon fill="midnightblue" stroke="midnightblue" points="532.094,-83.823 534.684,-73.5496 526.253,-79.9655 532.094,-83.823"/>
</g>
<!-- Node19 -->
<g id="node20" class="node"><title>Node19</title>
<polygon fill="none" stroke="#bfbfbf" points="258.884,-55.5 258.884,-73.5 307.116,-73.5 307.116,-55.5 258.884,-55.5"/>
<text text-anchor="middle" x="283" y="-61.5" font-family="Helvetica,sans-Serif" font-size="10.00">cassert</text>
</g>
<!-- Node18&#45;&gt;Node19 -->
<g id="edge24" class="edge"><title>Node18&#45;&gt;Node19</title>
<path fill="none" stroke="midnightblue" d="M471.283,-110.45C429.598,-100.499 359.044,-83.6547 317.157,-73.6546"/>
<polygon fill="midnightblue" stroke="midnightblue" points="317.952,-70.2462 307.413,-71.3283 316.327,-77.0548 317.952,-70.2462"/>
</g>
<!-- Node20 -->
<g id="node21" class="node"><title>Node20</title>
<polygon fill="none" stroke="#bfbfbf" points="446.828,-55.5 446.828,-73.5 491.172,-73.5 491.172,-55.5 446.828,-55.5"/>
<text text-anchor="middle" x="469" y="-61.5" font-family="Helvetica,sans-Serif" font-size="10.00">cstdlib</text>
</g>
<!-- Node18&#45;&gt;Node20 -->
<g id="edge26" class="edge"><title>Node18&#45;&gt;Node20</title>
<path fill="none" stroke="midnightblue" d="M499.375,-110.219C494.273,-102.707 486.6,-91.411 480.243,-82.0515"/>
<polygon fill="midnightblue" stroke="midnightblue" points="482.982,-79.8551 474.468,-73.5496 477.191,-83.7883 482.982,-79.8551"/>
</g>
<!-- Node21 -->
<g id="node22" class="node"><title>Node21</title>
<polygon fill="none" stroke="#bfbfbf" points="588.596,-55.5 588.596,-73.5 647.404,-73.5 647.404,-55.5 588.596,-55.5"/>
<text text-anchor="middle" x="618" y="-61.5" font-family="Helvetica,sans-Serif" font-size="10.00">exception</text>
</g>
<!-- Node18&#45;&gt;Node21 -->
<g id="edge28" class="edge"><title>Node18&#45;&gt;Node21</title>
<path fill="none" stroke="midnightblue" d="M522.162,-110.45C540.58,-101.812 570.07,-87.9803 591.478,-77.9396"/>
<polygon fill="midnightblue" stroke="midnightblue" points="593.109,-81.0405 600.676,-73.6253 590.136,-74.703 593.109,-81.0405"/>
</g>
<!-- Node22 -->
<g id="node23" class="node"><title>Node22</title>
<polygon fill="none" stroke="#bfbfbf" points="369.599,-55.5 369.599,-73.5 428.401,-73.5 428.401,-55.5 369.599,-55.5"/>
<text text-anchor="middle" x="399" y="-61.5" font-family="Helvetica,sans-Serif" font-size="10.00">stdexcept</text>
</g>
<!-- Node18&#45;&gt;Node22 -->
<g id="edge29" class="edge"><title>Node18&#45;&gt;Node22</title>
<path fill="none" stroke="midnightblue" d="M488.901,-110.45C471.779,-101.89 444.458,-88.2291 424.424,-78.2119"/>
<polygon fill="midnightblue" stroke="midnightblue" points="425.76,-74.967 415.251,-73.6253 422.63,-81.228 425.76,-74.967"/>
</g>
<!-- Node23 -->
<g id="node24" class="node"><title>Node23</title>
<polygon fill="none" stroke="#bfbfbf" points="742.985,-55.5 742.985,-73.5 809.015,-73.5 809.015,-55.5 742.985,-55.5"/>
<text text-anchor="middle" x="776" y="-61.5" font-family="Helvetica,sans-Serif" font-size="10.00">Eigen/Core</text>
</g>
<!-- Node18&#45;&gt;Node23 -->
<g id="edge30" class="edge"><title>Node18&#45;&gt;Node23</title>
<path fill="none" stroke="midnightblue" d="M546.159,-110.45C596.444,-100.616 681.141,-84.0518 732.477,-74.0119"/>
<polygon fill="midnightblue" stroke="midnightblue" points="733.447,-77.3885 742.59,-72.0341 732.104,-70.5186 733.447,-77.3885"/>
</g>
<!-- Node18&#45;&gt;Node24 -->
<g id="edge31" class="edge"><title>Node18&#45;&gt;Node24</title>
<path fill="none" stroke="midnightblue" d="M572.79,-111.242C662.935,-101.59 822.089,-84.5491 918.619,-74.2135"/>
<polygon fill="midnightblue" stroke="midnightblue" points="919.056,-77.6868 928.627,-73.142 918.311,-70.7266 919.056,-77.6868"/>
</g>
<!-- Node24&#45;&gt;Node8 -->
<g id="edge32" class="edge"><title>Node24&#45;&gt;Node8</title>
<path fill="none" stroke="midnightblue" d="M1071.24,-56.8412C1196.01,-45.1781 1449.14,-21.5173 1536.52,-13.3489"/>
<polygon fill="midnightblue" stroke="midnightblue" points="1536.94,-16.8253 1546.57,-12.4097 1536.29,-9.85567 1536.94,-16.8253"/>
</g>
<!-- Node25&#45;&gt;Node12 -->
<g id="edge35" class="edge"><title>Node25&#45;&gt;Node12</title>
<path fill="none" stroke="midnightblue" d="M317.001,-235.406C331.463,-212.61 375.653,-147.119 428,-110 449.313,-94.8869 476.483,-83.9295 498.724,-76.6696"/>
<polygon fill="midnightblue" stroke="midnightblue" points="500.06,-79.9192 508.558,-73.5925 497.969,-73.2387 500.06,-79.9192"/>
</g>
<!-- Node25&#45;&gt;Node18 -->
<g id="edge37" class="edge"><title>Node25&#45;&gt;Node18</title>
<path fill="none" stroke="midnightblue" d="M323.347,-235.427C343.912,-220.885 388.842,-189.522 428,-165 445.664,-153.938 466.108,-142.17 481.49,-133.515"/>
<polygon fill="midnightblue" stroke="midnightblue" points="483.324,-136.5 490.342,-128.563 479.906,-130.39 483.324,-136.5"/>
</g>
<!-- Node26 -->
<g id="node27" class="node"><title>Node26</title>
<polygon fill="none" stroke="#bfbfbf" points="268.035,-110.5 268.035,-128.5 337.965,-128.5 337.965,-110.5 268.035,-110.5"/>
<text text-anchor="middle" x="303" y="-116.5" font-family="Helvetica,sans-Serif" font-size="10.00">Eigen/Eigen</text>
</g>
<!-- Node25&#45;&gt;Node26 -->
<g id="edge36" class="edge"><title>Node25&#45;&gt;Node26</title>
<path fill="none" stroke="midnightblue" d="M311.944,-235.234C311.789,-220.906 311.205,-190.545 309,-165 308.253,-156.343 307.019,-146.787 305.863,-138.758"/>
<polygon fill="midnightblue" stroke="midnightblue" points="309.295,-138.041 304.342,-128.676 302.373,-139.086 309.295,-138.041"/>
</g>
<!-- Node27&#45;&gt;Node1 -->
<g id="edge39" class="edge"><title>Node27&#45;&gt;Node1</title>
<path fill="none" stroke="midnightblue" d="M263.815,-295.468C241.976,-287.899 217.985,-276.324 201,-259 153.515,-210.568 152.43,-122.359 154.478,-84.0656"/>
<polygon fill="midnightblue" stroke="midnightblue" points="157.984,-84.0967 155.167,-73.8833 151,-83.6244 157.984,-84.0967"/>
</g>
<!-- Node27&#45;&gt;Node2 -->
<g id="edge40" class="edge"><title>Node27&#45;&gt;Node2</title>
<path fill="none" stroke="midnightblue" d="M376.336,-302.893C498.421,-291.091 771.246,-264.331 791,-259 792.668,-258.55 794.361,-258.018 796.049,-257.429"/>
<polygon fill="midnightblue" stroke="midnightblue" points="797.509,-260.614 805.467,-253.619 794.884,-254.125 797.509,-260.614"/>
</g>
<!-- Node27&#45;&gt;Node3 -->
<g id="edge41" class="edge"><title>Node27&#45;&gt;Node3</title>
<path fill="none" stroke="midnightblue" d="M270.965,-295.446C227.811,-283.47 164.865,-266 125.996,-255.213"/>
<polygon fill="midnightblue" stroke="midnightblue" points="126.756,-251.791 116.184,-252.489 124.884,-258.536 126.756,-251.791"/>
</g>
<!-- Node27&#45;&gt;Node4 -->
<g id="edge42" class="edge"><title>Node27&#45;&gt;Node4</title>
<path fill="none" stroke="midnightblue" d="M376.456,-299.474C451.528,-287.882 581.469,-267.817 660.012,-255.689"/>
<polygon fill="midnightblue" stroke="midnightblue" points="660.923,-259.09 670.271,-254.105 659.854,-252.172 660.923,-259.09"/>
</g>
<!-- Node28&#45;&gt;Node1 -->
<g id="edge44" class="edge"><title>Node28&#45;&gt;Node1</title>
<path fill="none" stroke="midnightblue" d="M231.797,-165.094C215.998,-144.335 185.658,-104.469 168.543,-81.9815"/>
<polygon fill="midnightblue" stroke="midnightblue" points="171.137,-79.6098 162.295,-73.772 165.567,-83.8492 171.137,-79.6098"/>
</g>
<!-- Node28&#45;&gt;Node18 -->
<g id="edge47" class="edge"><title>Node28&#45;&gt;Node18</title>
<path fill="none" stroke="midnightblue" d="M300.368,-165.628C348.103,-155.101 414.689,-140.417 458.781,-130.693"/>
<polygon fill="midnightblue" stroke="midnightblue" points="459.644,-134.087 468.655,-128.515 458.136,-127.251 459.644,-134.087"/>
</g>
<!-- Node28&#45;&gt;Node19 -->
<g id="edge45" class="edge"><title>Node28&#45;&gt;Node19</title>
<path fill="none" stroke="midnightblue" d="M244.249,-165.323C246.875,-151.306 251.797,-128.629 259,-110 262.646,-100.571 267.869,-90.619 272.512,-82.5233"/>
<polygon fill="midnightblue" stroke="midnightblue" points="275.639,-84.1125 277.743,-73.7287 269.623,-80.534 275.639,-84.1125"/>
</g>
<!-- Node28&#45;&gt;Node26 -->
<g id="edge46" class="edge"><title>Node28&#45;&gt;Node26</title>
<path fill="none" stroke="midnightblue" d="M255.842,-165.339C265.069,-156.565 277.231,-145.002 286.892,-135.816"/>
<polygon fill="midnightblue" stroke="midnightblue" points="289.465,-138.199 294.301,-128.771 284.642,-133.126 289.465,-138.199"/>
</g>
<!-- Node29&#45;&gt;Node2 -->
<g id="edge49" class="edge"><title>Node29&#45;&gt;Node2</title>
<path fill="none" stroke="midnightblue" d="M859.054,-295.446C851.589,-285.648 841.322,-272.172 833.333,-261.687"/>
<polygon fill="midnightblue" stroke="midnightblue" points="836.115,-259.563 827.271,-253.73 830.547,-263.806 836.115,-259.563"/>
</g>
<!-- Node29&#45;&gt;Node4 -->
<g id="edge51" class="edge"><title>Node29&#45;&gt;Node4</title>
<path fill="none" stroke="midnightblue" d="M839.37,-295.446C817.8,-285.943 788.38,-272.982 764.915,-262.644"/>
<polygon fill="midnightblue" stroke="midnightblue" points="766.154,-259.366 755.592,-258.537 763.332,-265.772 766.154,-259.366"/>
</g>
<!-- Node29&#45;&gt;Node18 -->
<g id="edge53" class="edge"><title>Node29&#45;&gt;Node18</title>
<path fill="none" stroke="midnightblue" d="M873.902,-295.312C883.39,-267.24 900.53,-201.187 867,-165 848.043,-144.54 683.693,-131.164 583.072,-124.812"/>
<polygon fill="midnightblue" stroke="midnightblue" points="583.136,-121.31 572.939,-124.183 582.702,-128.296 583.136,-121.31"/>
</g>
<!-- Node29&#45;&gt;Node23 -->
<g id="edge52" class="edge"><title>Node29&#45;&gt;Node23</title>
<path fill="none" stroke="midnightblue" d="M880.225,-295.217C887.43,-285.782 896.136,-272.449 900,-259 911.614,-218.572 909.47,-201.746 889,-165 867.494,-126.393 825.109,-95.3825 798.802,-78.7732"/>
<polygon fill="midnightblue" stroke="midnightblue" points="800.582,-75.7589 790.229,-73.5101 796.92,-81.7245 800.582,-75.7589"/>
</g>
<!-- Node30 -->
<g id="node31" class="node"><title>Node30</title>
<polygon fill="none" stroke="#bfbfbf" points="804.382,-170.5 804.382,-188.5 857.618,-188.5 857.618,-170.5 804.382,-170.5"/>
<text text-anchor="middle" x="831" y="-176.5" font-family="Helvetica,sans-Serif" font-size="10.00">complex</text>
</g>
<!-- Node29&#45;&gt;Node30 -->
<g id="edge50" class="edge"><title>Node29&#45;&gt;Node30</title>
<path fill="none" stroke="midnightblue" d="M866.914,-295.246C864.253,-279.478 859.127,-252.462 852,-230 848.554,-219.139 843.62,-207.382 839.4,-198.052"/>
<polygon fill="midnightblue" stroke="midnightblue" points="842.452,-196.314 835.057,-188.727 836.106,-199.27 842.452,-196.314"/>
</g>
<!-- Node31&#45;&gt;Node1 -->
<g id="edge55" class="edge"><title>Node31&#45;&gt;Node1</title>
<path fill="none" stroke="midnightblue" d="M411.061,-364.956C366.217,-360.253 301.762,-349.332 251,-324 211.831,-304.453 201.289,-295.418 177,-259 140.456,-204.208 147.385,-120.684 152.773,-83.9394"/>
<polygon fill="midnightblue" stroke="midnightblue" points="156.28,-84.1775 154.412,-73.7487 149.369,-83.0663 156.28,-84.1775"/>
</g>
<!-- Node31&#45;&gt;Node3 -->
<g id="edge57" class="edge"><title>Node31&#45;&gt;Node3</title>
<path fill="none" stroke="midnightblue" d="M411.069,-366.752C330.052,-363.207 181.756,-352.874 138,-324 116.277,-309.666 103.108,-281.525 96.4419,-263.122"/>
<polygon fill="midnightblue" stroke="midnightblue" points="99.7448,-261.962 93.2528,-253.589 93.1065,-264.183 99.7448,-261.962"/>
</g>
<!-- Node31&#45;&gt;Node5 -->
<g id="edge59" class="edge"><title>Node31&#45;&gt;Node5</title>
<path fill="none" stroke="midnightblue" d="M519.087,-366.367C607.088,-362.233 786.474,-351.031 936,-324 1030.57,-306.904 1139.23,-273.933 1193.08,-256.666"/>
<polygon fill="midnightblue" stroke="midnightblue" points="1194.35,-259.934 1202.79,-253.531 1192.2,-253.272 1194.35,-259.934"/>
</g>
<!-- Node31&#45;&gt;Node15 -->
<g id="edge60" class="edge"><title>Node31&#45;&gt;Node15</title>
<path fill="none" stroke="midnightblue" d="M519.189,-368.42C655.164,-366.744 1020.36,-353.09 1306,-259 1362.11,-240.517 1424.55,-210.186 1457.89,-193.144"/>
<polygon fill="midnightblue" stroke="midnightblue" points="1459.59,-196.203 1466.88,-188.51 1456.39,-189.981 1459.59,-196.203"/>
</g>
<!-- Node31&#45;&gt;Node18 -->
<g id="edge61" class="edge"><title>Node31&#45;&gt;Node18</title>
<path fill="none" stroke="midnightblue" d="M462.613,-360.319C454.782,-331.937 431.99,-235.599 461,-165 465.869,-153.151 475.586,-142.777 484.653,-135.033"/>
<polygon fill="midnightblue" stroke="midnightblue" points="486.983,-137.652 492.64,-128.693 482.631,-132.17 486.983,-137.652"/>
</g>
<!-- Node31&#45;&gt;Node25 -->
<g id="edge73" class="edge"><title>Node31&#45;&gt;Node25</title>
<path fill="none" stroke="midnightblue" d="M456.95,-360.355C442.916,-346.329 412.805,-317.004 385,-295 368.394,-281.858 348.426,-268.469 333.574,-258.936"/>
<polygon fill="midnightblue" stroke="midnightblue" points="335.382,-255.938 325.064,-253.534 331.631,-261.848 335.382,-255.938"/>
</g>
<!-- Node32 -->
<g id="node33" class="node"><title>Node32</title>
<polygon fill="none" stroke="#bfbfbf" points="469.613,-300.5 469.613,-318.5 508.387,-318.5 508.387,-300.5 469.613,-300.5"/>
<text text-anchor="middle" x="489" y="-306.5" font-family="Helvetica,sans-Serif" font-size="10.00">limits</text>
</g>
<!-- Node31&#45;&gt;Node32 -->
<g id="edge56" class="edge"><title>Node31&#45;&gt;Node32</title>
<path fill="none" stroke="midnightblue" d="M468.337,-360.435C471.773,-352.132 477.237,-338.927 481.684,-328.181"/>
<polygon fill="midnightblue" stroke="midnightblue" points="484.946,-329.45 485.536,-318.872 478.478,-326.774 484.946,-329.45"/>
</g>
<!-- Node33 -->
<g id="node34" class="node"><title>Node33</title>
<polygon fill="none" stroke="#bfbfbf" points="526.49,-300.5 526.49,-318.5 577.51,-318.5 577.51,-300.5 526.49,-300.5"/>
<text text-anchor="middle" x="552" y="-306.5" font-family="Helvetica,sans-Serif" font-size="10.00">iomanip</text>
</g>
<!-- Node31&#45;&gt;Node33 -->
<g id="edge58" class="edge"><title>Node31&#45;&gt;Node33</title>
<path fill="none" stroke="midnightblue" d="M477.097,-360.435C491.043,-351.138 514.209,-335.694 531.091,-324.439"/>
<polygon fill="midnightblue" stroke="midnightblue" points="533.346,-327.142 539.725,-318.683 529.463,-321.318 533.346,-327.142"/>
</g>
<!-- Node34 -->
<g id="node35" class="node"><title>Node34</title>
<g id="a_node35"><a xlink:href="mhrw__bin__err_8h.html" target="_top" xlink:title="Binning Analysis in a Metropolis&#45;Hastings random walk. ">
<polygon fill="none" stroke="black" points="595.586,-295.5 595.586,-323.5 714.414,-323.5 714.414,-295.5 595.586,-295.5"/>
<text text-anchor="start" x="603.586" y="-311.5" font-family="Helvetica,sans-Serif" font-size="10.00">tomographer/mhrw_bin</text>
<text text-anchor="middle" x="655" y="-301.5" font-family="Helvetica,sans-Serif" font-size="10.00">_err.h</text>
</a>
</g>
</g>
<!-- Node31&#45;&gt;Node34 -->
<g id="edge62" class="edge"><title>Node31&#45;&gt;Node34</title>
<path fill="none" stroke="midnightblue" d="M491.419,-360.435C520.032,-351.701 566.419,-337.54 602.502,-326.526"/>
<polygon fill="midnightblue" stroke="midnightblue" points="603.84,-329.777 612.382,-323.51 601.796,-323.082 603.84,-329.777"/>
</g>
<!-- Node34&#45;&gt;Node4 -->
<g id="edge72" class="edge"><title>Node34&#45;&gt;Node4</title>
<path fill="none" stroke="midnightblue" d="M669.711,-295.446C679.517,-286.746 692.589,-275.146 703.668,-265.316"/>
<polygon fill="midnightblue" stroke="midnightblue" points="706.151,-267.792 711.308,-258.537 701.505,-262.556 706.151,-267.792"/>
</g>
<!-- Node34&#45;&gt;Node5 -->
<g id="edge63" class="edge"><title>Node34&#45;&gt;Node5</title>
<path fill="none" stroke="midnightblue" d="M714.595,-301.936C817.782,-290.571 1029.81,-267.219 1146.17,-254.403"/>
<polygon fill="midnightblue" stroke="midnightblue" points="1146.88,-257.846 1156.43,-253.272 1146.11,-250.888 1146.88,-257.846"/>
</g>
<!-- Node34&#45;&gt;Node18 -->
<g id="edge70" class="edge"><title>Node34&#45;&gt;Node18</title>
<path fill="none" stroke="midnightblue" d="M652.612,-295.469C650.301,-278.955 648.725,-250.211 661,-230 676.749,-204.068 704.251,-220.513 719,-194 725.266,-182.737 727.133,-174.999 719,-165 701.875,-143.947 637.082,-132.528 583.234,-126.55"/>
<polygon fill="midnightblue" stroke="midnightblue" points="583.288,-123.036 572.974,-125.461 582.549,-129.997 583.288,-123.036"/>
</g>
<!-- Node34&#45;&gt;Node25 -->
<g id="edge71" class="edge"><title>Node34&#45;&gt;Node25</title>
<path fill="none" stroke="midnightblue" d="M595.308,-296.587C592.5,-296.046 589.72,-295.515 587,-295 511.392,-280.691 423.897,-265.109 368.275,-255.326"/>
<polygon fill="midnightblue" stroke="midnightblue" points="368.726,-251.852 358.271,-253.568 367.514,-258.746 368.726,-251.852"/>
</g>
<!-- Node35 -->
<g id="node36" class="node"><title>Node35</title>
<g id="a_node36"><a xlink:href="eigenutil_8h.html" target="_top" xlink:title="Basic utilities for dealing with Eigen matrices and other types. ">
<polygon fill="none" stroke="black" points="469.515,-235.5 469.515,-253.5 614.485,-253.5 614.485,-235.5 469.515,-235.5"/>
<text text-anchor="middle" x="542" y="-241.5" font-family="Helvetica,sans-Serif" font-size="10.00">tomographer/tools/eigenutil.h</text>
</a>
</g>
</g>
<!-- Node34&#45;&gt;Node35 -->
<g id="edge64" class="edge"><title>Node34&#45;&gt;Node35</title>
<path fill="none" stroke="midnightblue" d="M631.586,-295.446C612.142,-284.606 584.626,-269.265 565.232,-258.453"/>
<polygon fill="midnightblue" stroke="midnightblue" points="566.874,-255.361 556.435,-253.548 563.465,-261.475 566.874,-255.361"/>
</g>
<!-- Node35&#45;&gt;Node23 -->
<g id="edge67" class="edge"><title>Node35&#45;&gt;Node23</title>
<path fill="none" stroke="midnightblue" d="M614.703,-237.561C649.675,-231.383 690.158,-218.941 719,-194 752.91,-164.676 767.504,-111.274 773.043,-83.4458"/>
<polygon fill="midnightblue" stroke="midnightblue" points="776.5,-83.9942 774.843,-73.5298 769.613,-82.7436 776.5,-83.9942"/>
</g>
<!-- Node35&#45;&gt;Node30 -->
<g id="edge65" class="edge"><title>Node35&#45;&gt;Node30</title>
<path fill="none" stroke="midnightblue" d="M591.339,-235.467C641.677,-226.848 721.857,-211.949 790,-194 792.785,-193.266 795.659,-192.449 798.531,-191.589"/>
<polygon fill="midnightblue" stroke="midnightblue" points="799.67,-194.9 808.161,-188.563 797.571,-188.221 799.67,-194.9"/>
</g>
<!-- Node36 -->
<g id="node37" class="node"><title>Node36</title>
<polygon fill="none" stroke="#bfbfbf" points="575.384,-170.5 575.384,-188.5 618.616,-188.5 618.616,-170.5 575.384,-170.5"/>
<text text-anchor="middle" x="597" y="-176.5" font-family="Helvetica,sans-Serif" font-size="10.00">vector</text>
</g>
<!-- Node35&#45;&gt;Node36 -->
<g id="edge66" class="edge"><title>Node35&#45;&gt;Node36</title>
<path fill="none" stroke="midnightblue" d="M549.19,-235.264C557.802,-225.4 572.417,-208.659 583.227,-196.277"/>
<polygon fill="midnightblue" stroke="midnightblue" points="586.042,-198.374 589.982,-188.539 580.769,-193.77 586.042,-198.374"/>
</g>
<!-- Node37 -->
<g id="node38" class="node"><title>Node37</title>
<polygon fill="none" stroke="#bfbfbf" points="636.37,-170.5 636.37,-188.5 709.63,-188.5 709.63,-170.5 636.37,-170.5"/>
<text text-anchor="middle" x="673" y="-176.5" font-family="Helvetica,sans-Serif" font-size="10.00">Eigen/Dense</text>
</g>
<!-- Node35&#45;&gt;Node37 -->
<g id="edge68" class="edge"><title>Node35&#45;&gt;Node37</title>
<path fill="none" stroke="midnightblue" d="M558.858,-235.393C581.162,-224.666 620.706,-205.649 646.89,-193.057"/>
<polygon fill="midnightblue" stroke="midnightblue" points="648.712,-196.064 656.207,-188.576 645.678,-189.756 648.712,-196.064"/>
</g>
<!-- Node38 -->
<g id="node39" class="node"><title>Node38</title>
<polygon fill="none" stroke="#bfbfbf" points="470.141,-170.5 470.141,-188.5 557.859,-188.5 557.859,-170.5 470.141,-170.5"/>
<text text-anchor="middle" x="514" y="-176.5" font-family="Helvetica,sans-Serif" font-size="10.00">Eigen/StdVector</text>
</g>
<!-- Node35&#45;&gt;Node38 -->
<g id="edge69" class="edge"><title>Node35&#45;&gt;Node38</title>
<path fill="none" stroke="midnightblue" d="M538.339,-235.264C534.124,-225.779 527.083,-209.936 521.655,-197.724"/>
<polygon fill="midnightblue" stroke="midnightblue" points="524.833,-196.256 517.573,-188.539 518.436,-199.099 524.833,-196.256"/>
</g>
</g>
</svg>
