<?xml version="1.0" encoding="UTF-8" standalone="no"?>
<!DOCTYPE svg PUBLIC "-//W3C//DTD SVG 1.1//EN"
 "http://www.w3.org/Graphics/SVG/1.1/DTD/svg11.dtd">
<!-- Generated by graphviz version 2.38.0 (20140413.2041)
 -->
<!-- Title: tomographer/densedm/tspacefigofmerit.h Pages: 1 -->
<!--zoomable 277 -->
<svg id="main" version="1.1" xmlns="http://www.w3.org/2000/svg" xmlns:xlink="http://www.w3.org/1999/xlink" xml:space="preserve" onload="init(evt)">
<style type="text/css"><![CDATA[
.edge:hover path { stroke: red; }
.edge:hover polygon { stroke: red; fill: red; }
]]></style>
<script type="text/javascript"><![CDATA[
var edges = document.getElementsByTagName('g');
if (edges && edges.length) {
  for (var i=0;i<edges.length;i++) {
    if (edges[i].id.substr(0,4)=='edge') {
      edges[i].setAttribute('class','edge');
    }
  }
}
]]></script>
        <defs>
                <circle id="rim" cx="0" cy="0" r="7"/>
                <circle id="rim2" cx="0" cy="0" r="3.5"/>
                <g id="zoomPlus">
                        <use xlink:href="#rim" fill="#404040">
                                <set attributeName="fill" to="#808080" begin="zoomplus.mouseover" end="zoomplus.mouseout"/>
                        </use>
                        <path d="M-4,0h8M0,-4v8" fill="none" stroke="white" stroke-width="1.5" pointer-events="none"/>
                </g>
                <g id="zoomMin">
                        <use xlink:href="#rim" fill="#404040">
                                <set attributeName="fill" to="#808080" begin="zoomminus.mouseover" end="zoomminus.mouseout"/>
                        </use>
                        <path d="M-4,0h8" fill="none" stroke="white" stroke-width="1.5" pointer-events="none"/>
                </g>
                <g id="dirArrow">
                        <path fill="none" stroke="white" stroke-width="1.5" d="M0,-3.0v7 M-2.5,-0.5L0,-3.0L2.5,-0.5"/>
                </g>
               <g id="resetDef">
                       <use xlink:href="#rim2" fill="#404040">
                               <set attributeName="fill" to="#808080" begin="reset.mouseover" end="reset.mouseout"/>
                       </use>
               </g>
        </defs>

<script type="text/javascript">
var viewWidth = 1108;
var viewHeight = 277;
var sectionId = 'dynsection-0';
</script>
<script xlink:href="svgpan.js"/>
<svg id="graph" class="graph">
<g id="viewport">
<title>tomographer/densedm/tspacefigofmerit.h</title>
<!-- Node0 -->
<g id="node1" class="node"><title>Node0</title>
<polygon fill="#bfbfbf" stroke="black" points="396.759,-240.5 396.759,-268.5 513.374,-268.5 513.374,-240.5 396.759,-240.5"/>
<text text-anchor="start" x="404.759" y="-256.5" font-family="Helvetica,sans-Serif" font-size="10.00">tomographer/densedm</text>
<text text-anchor="middle" x="455.066" y="-246.5" font-family="Helvetica,sans-Serif" font-size="10.00">/tspacefigofmerit.h</text>
</g>
<!-- Node1 -->
<g id="node2" class="node"><title>Node1</title>
<g id="a_node2"><a xlink:href="needownoperatornew_8h.html" target="_top" xlink:title="Managing the need for specific overrides to operator new() for some types (especially Eigen types) ...">
<polygon fill="none" stroke="black" points="48.3896,-180.5 48.3896,-198.5 251.743,-198.5 251.743,-180.5 48.3896,-180.5"/>
<text text-anchor="middle" x="150.066" y="-186.5" font-family="Helvetica,sans-Serif" font-size="10.00">tomographer/tools/needownoperatornew.h</text>
</a>
</g>
</g>
<!-- Node0&#45;&gt;Node1 -->
<g id="edge1" class="edge"><title>Node0&#45;&gt;Node1</title>
<path fill="none" stroke="midnightblue" d="M396.62,-241.428C339.258,-229.579 252.768,-211.714 198.948,-200.597"/>
<polygon fill="midnightblue" stroke="midnightblue" points="199.467,-197.13 188.965,-198.535 198.051,-203.985 199.467,-197.13"/>
</g>
<!-- Node13 -->
<g id="node14" class="node"><title>Node13</title>
<g id="a_node14"><a xlink:href="dmtypes_8h.html" target="_top" xlink:title="C++ types for describing dense density matrices in various parameterizations. ">
<polygon fill="none" stroke="black" points="269.759,-175.5 269.759,-203.5 386.374,-203.5 386.374,-175.5 269.759,-175.5"/>
<text text-anchor="start" x="277.759" y="-191.5" font-family="Helvetica,sans-Serif" font-size="10.00">tomographer/densedm</text>
<text text-anchor="middle" x="328.066" y="-181.5" font-family="Helvetica,sans-Serif" font-size="10.00">/dmtypes.h</text>
</a>
</g>
</g>
<!-- Node0&#45;&gt;Node13 -->
<g id="edge14" class="edge"><title>Node0&#45;&gt;Node13</title>
<path fill="none" stroke="midnightblue" d="M428.752,-240.446C409.85,-231.07 384.162,-218.327 363.464,-208.059"/>
<polygon fill="midnightblue" stroke="midnightblue" points="364.861,-204.845 354.347,-203.537 361.75,-211.116 364.861,-204.845"/>
</g>
<!-- Node14 -->
<g id="node15" class="node"><title>Node14</title>
<g id="a_node15"><a xlink:href="distmeasures_8h.html" target="_top" xlink:title="Distance measures in quantum information for states represented as dense matrices. ">
<polygon fill="none" stroke="black" points="523.759,-175.5 523.759,-203.5 640.374,-203.5 640.374,-175.5 523.759,-175.5"/>
<text text-anchor="start" x="531.759" y="-191.5" font-family="Helvetica,sans-Serif" font-size="10.00">tomographer/densedm</text>
<text text-anchor="middle" x="582.066" y="-181.5" font-family="Helvetica,sans-Serif" font-size="10.00">/distmeasures.h</text>
</a>
</g>
</g>
<!-- Node0&#45;&gt;Node14 -->
<g id="edge19" class="edge"><title>Node0&#45;&gt;Node14</title>
<path fill="none" stroke="midnightblue" d="M481.381,-240.446C500.282,-231.07 525.971,-218.327 546.669,-208.059"/>
<polygon fill="midnightblue" stroke="midnightblue" points="548.383,-211.116 555.786,-203.537 545.272,-204.845 548.383,-211.116"/>
</g>
<!-- Node18 -->
<g id="node19" class="node"><title>Node18</title>
<g id="a_node19"><a xlink:href="param__herm__x_8h.html" target="_top" xlink:title="Tools for parameterizing hermitian matrices with the X Parameterization. ">
<polygon fill="none" stroke="black" points="794.759,-175.5 794.759,-203.5 911.374,-203.5 911.374,-175.5 794.759,-175.5"/>
<text text-anchor="start" x="802.759" y="-191.5" font-family="Helvetica,sans-Serif" font-size="10.00">tomographer/densedm</text>
<text text-anchor="middle" x="853.066" y="-181.5" font-family="Helvetica,sans-Serif" font-size="10.00">/param_herm_x.h</text>
</a>
</g>
</g>
<!-- Node0&#45;&gt;Node18 -->
<g id="edge24" class="edge"><title>Node0&#45;&gt;Node18</title>
<path fill="none" stroke="midnightblue" d="M513.793,-244.204C586.015,-232.772 708.391,-213.401 784.749,-201.314"/>
<polygon fill="midnightblue" stroke="midnightblue" points="785.418,-204.752 794.748,-199.731 784.323,-197.838 785.418,-204.752"/>
</g>
<!-- Node2 -->
<g id="node3" class="node"><title>Node2</title>
<polygon fill="none" stroke="#bfbfbf" points="0,-55.5 0,-73.5 62.1328,-73.5 62.1328,-55.5 0,-55.5"/>
<text text-anchor="middle" x="31.0664" y="-61.5" font-family="Helvetica,sans-Serif" font-size="10.00">type_traits</text>
</g>
<!-- Node1&#45;&gt;Node2 -->
<g id="edge2" class="edge"><title>Node1&#45;&gt;Node2</title>
<path fill="none" stroke="midnightblue" d="M142.258,-180.43C122.765,-160.281 71.6925,-107.492 46.1152,-81.0547"/>
<polygon fill="midnightblue" stroke="midnightblue" points="48.5278,-78.5147 39.0591,-73.7614 43.4969,-83.382 48.5278,-78.5147"/>
</g>
<!-- Node3 -->
<g id="node4" class="node"><title>Node3</title>
<polygon fill="none" stroke="#bfbfbf" points="115.101,-115.5 115.101,-133.5 185.032,-133.5 185.032,-115.5 115.101,-115.5"/>
<text text-anchor="middle" x="150.066" y="-121.5" font-family="Helvetica,sans-Serif" font-size="10.00">Eigen/Eigen</text>
</g>
<!-- Node1&#45;&gt;Node3 -->
<g id="edge3" class="edge"><title>Node1&#45;&gt;Node3</title>
<path fill="none" stroke="midnightblue" d="M150.066,-180.264C150.066,-171.064 150.066,-155.881 150.066,-143.833"/>
<polygon fill="midnightblue" stroke="midnightblue" points="153.567,-143.539 150.066,-133.539 146.567,-143.539 153.567,-143.539"/>
</g>
<!-- Node4 -->
<g id="node5" class="node"><title>Node4</title>
<g id="a_node5"><a xlink:href="cxxutil_8h.html" target="_top" xlink:title="Some C++ utilities, with a tad of C++11 tricks. ">
<polygon fill="none" stroke="black" points="241.315,-115.5 241.315,-133.5 376.817,-133.5 376.817,-115.5 241.315,-115.5"/>
<text text-anchor="middle" x="309.066" y="-121.5" font-family="Helvetica,sans-Serif" font-size="10.00">tomographer/tools/cxxutil.h</text>
</a>
</g>
</g>
<!-- Node1&#45;&gt;Node4 -->
<g id="edge4" class="edge"><title>Node1&#45;&gt;Node4</title>
<path fill="none" stroke="midnightblue" d="M170.527,-180.393C198.076,-169.477 247.293,-149.976 279.04,-137.397"/>
<polygon fill="midnightblue" stroke="midnightblue" points="280.676,-140.514 288.684,-133.576 278.098,-134.006 280.676,-140.514"/>
</g>
<!-- Node4&#45;&gt;Node2 -->
<g id="edge8" class="edge"><title>Node4&#45;&gt;Node2</title>
<path fill="none" stroke="midnightblue" d="M270.306,-115.492C225.217,-106.165 148.253,-90.2075 72.6751,-74.3317"/>
<polygon fill="midnightblue" stroke="midnightblue" points="73.0127,-70.8263 62.5066,-72.1944 71.5728,-77.6766 73.0127,-70.8263"/>
</g>
<!-- Node5 -->
<g id="node6" class="node"><title>Node5</title>
<polygon fill="none" stroke="#bfbfbf" points="522.951,-55.5 522.951,-73.5 571.182,-73.5 571.182,-55.5 522.951,-55.5"/>
<text text-anchor="middle" x="547.066" y="-61.5" font-family="Helvetica,sans-Serif" font-size="10.00">cassert</text>
</g>
<!-- Node4&#45;&gt;Node5 -->
<g id="edge5" class="edge"><title>Node4&#45;&gt;Node5</title>
<path fill="none" stroke="midnightblue" d="M342.655,-115.425C383.101,-105.685 453.086,-88.7744 513.066,-74 513.166,-73.9754 513.266,-73.9508 513.366,-73.9262"/>
<polygon fill="midnightblue" stroke="midnightblue" points="514.061,-77.3599 522.926,-71.5571 512.377,-70.5654 514.061,-77.3599"/>
</g>
<!-- Node6 -->
<g id="node7" class="node"><title>Node6</title>
<polygon fill="none" stroke="#bfbfbf" points="79.9458,-55.5 79.9458,-73.5 128.187,-73.5 128.187,-55.5 79.9458,-55.5"/>
<text text-anchor="middle" x="104.066" y="-61.5" font-family="Helvetica,sans-Serif" font-size="10.00">cstddef</text>
</g>
<!-- Node4&#45;&gt;Node6 -->
<g id="edge6" class="edge"><title>Node4&#45;&gt;Node6</title>
<path fill="none" stroke="midnightblue" d="M280.562,-115.435C243.318,-104.898 178.165,-86.4645 138.292,-75.1833"/>
<polygon fill="midnightblue" stroke="midnightblue" points="139.064,-71.7645 128.489,-72.4098 137.158,-78.5001 139.064,-71.7645"/>
</g>
<!-- Node7 -->
<g id="node8" class="node"><title>Node7</title>
<polygon fill="none" stroke="#bfbfbf" points="305.894,-55.5 305.894,-73.5 350.239,-73.5 350.239,-55.5 305.894,-55.5"/>
<text text-anchor="middle" x="328.066" y="-61.5" font-family="Helvetica,sans-Serif" font-size="10.00">cstdlib</text>
</g>
<!-- Node4&#45;&gt;Node7 -->
<g id="edge7" class="edge"><title>Node4&#45;&gt;Node7</title>
<path fill="none" stroke="midnightblue" d="M311.708,-115.435C314.4,-107.218 318.665,-94.1985 322.165,-83.5138"/>
<polygon fill="midnightblue" stroke="midnightblue" points="325.537,-84.4645 325.324,-73.8718 318.885,-82.2852 325.537,-84.4645"/>
</g>
<!-- Node8 -->
<g id="node9" class="node"><title>Node8</title>
<polygon fill="none" stroke="#bfbfbf" points="368.663,-55.5 368.663,-73.5 427.47,-73.5 427.47,-55.5 368.663,-55.5"/>
<text text-anchor="middle" x="398.066" y="-61.5" font-family="Helvetica,sans-Serif" font-size="10.00">exception</text>
</g>
<!-- Node4&#45;&gt;Node8 -->
<g id="edge9" class="edge"><title>Node4&#45;&gt;Node8</title>
<path fill="none" stroke="midnightblue" d="M321.441,-115.435C335.708,-106.138 359.406,-90.6942 376.677,-79.4393"/>
<polygon fill="midnightblue" stroke="midnightblue" points="379.042,-82.0753 385.51,-73.6831 375.221,-76.2107 379.042,-82.0753"/>
</g>
<!-- Node9 -->
<g id="node10" class="node"><title>Node9</title>
<polygon fill="none" stroke="#bfbfbf" points="445.665,-55.5 445.665,-73.5 504.468,-73.5 504.468,-55.5 445.665,-55.5"/>
<text text-anchor="middle" x="475.066" y="-61.5" font-family="Helvetica,sans-Serif" font-size="10.00">stdexcept</text>
</g>
<!-- Node4&#45;&gt;Node9 -->
<g id="edge10" class="edge"><title>Node4&#45;&gt;Node9</title>
<path fill="none" stroke="midnightblue" d="M332.148,-115.435C360.809,-105.421 409.88,-88.276 442.395,-76.9152"/>
<polygon fill="midnightblue" stroke="midnightblue" points="443.628,-80.1921 451.914,-73.5894 441.319,-73.5838 443.628,-80.1921"/>
</g>
<!-- Node10 -->
<g id="node11" class="node"><title>Node10</title>
<polygon fill="none" stroke="#bfbfbf" points="757.052,-55.5 757.052,-73.5 823.081,-73.5 823.081,-55.5 757.052,-55.5"/>
<text text-anchor="middle" x="790.066" y="-61.5" font-family="Helvetica,sans-Serif" font-size="10.00">Eigen/Core</text>
</g>
<!-- Node4&#45;&gt;Node10 -->
<g id="edge11" class="edge"><title>Node4&#45;&gt;Node10</title>
<path fill="none" stroke="midnightblue" d="M375.442,-115.496C475.639,-103.414 662.742,-80.8531 746.994,-70.6938"/>
<polygon fill="midnightblue" stroke="midnightblue" points="747.476,-74.1611 756.985,-69.489 746.638,-67.2114 747.476,-74.1611"/>
</g>
<!-- Node11 -->
<g id="node12" class="node"><title>Node11</title>
<g id="a_node12"><a xlink:href="conststr_8h.html" target="_top" xlink:title="A constexpr string type, suitable for basic compile&#45;time string processing. ">
<polygon fill="none" stroke="black" points="145.976,-55.5 145.976,-73.5 288.157,-73.5 288.157,-55.5 145.976,-55.5"/>
<text text-anchor="middle" x="217.066" y="-61.5" font-family="Helvetica,sans-Serif" font-size="10.00">tomographer/tools/conststr.h</text>
</a>
</g>
</g>
<!-- Node4&#45;&gt;Node11 -->
<g id="edge12" class="edge"><title>Node4&#45;&gt;Node11</title>
<path fill="none" stroke="midnightblue" d="M296.274,-115.435C281.39,-106.052 256.575,-90.4077 238.683,-79.1277"/>
<polygon fill="midnightblue" stroke="midnightblue" points="240.372,-76.0554 230.047,-73.6831 236.639,-81.9769 240.372,-76.0554"/>
</g>
<!-- Node12 -->
<g id="node13" class="node"><title>Node12</title>
<polygon fill="none" stroke="#bfbfbf" points="196.84,-0.5 196.84,-18.5 237.293,-18.5 237.293,-0.5 196.84,-0.5"/>
<text text-anchor="middle" x="217.066" y="-6.5" font-family="Helvetica,sans-Serif" font-size="10.00">string</text>
</g>
<!-- Node11&#45;&gt;Node12 -->
<g id="edge13" class="edge"><title>Node11&#45;&gt;Node12</title>
<path fill="none" stroke="midnightblue" d="M217.066,-55.2188C217.066,-48.1769 217.066,-37.8083 217.066,-28.8277"/>
<polygon fill="midnightblue" stroke="midnightblue" points="220.567,-28.5495 217.066,-18.5496 213.567,-28.5496 220.567,-28.5495"/>
</g>
<!-- Node13&#45;&gt;Node3 -->
<g id="edge17" class="edge"><title>Node13&#45;&gt;Node3</title>
<path fill="none" stroke="midnightblue" d="M291.185,-175.446C259.164,-164.113 213.245,-147.861 182.578,-137.007"/>
<polygon fill="midnightblue" stroke="midnightblue" points="183.4,-133.585 172.805,-133.548 181.064,-140.184 183.4,-133.585"/>
</g>
<!-- Node13&#45;&gt;Node4 -->
<g id="edge18" class="edge"><title>Node13&#45;&gt;Node4</title>
<path fill="none" stroke="midnightblue" d="M324.13,-175.446C321.352,-166.236 317.594,-153.776 314.527,-143.605"/>
<polygon fill="midnightblue" stroke="midnightblue" points="317.787,-142.294 311.548,-133.73 311.085,-144.315 317.787,-142.294"/>
</g>
<!-- Node13&#45;&gt;Node5 -->
<g id="edge16" class="edge"><title>Node13&#45;&gt;Node5</title>
<path fill="none" stroke="midnightblue" d="M343.721,-175.21C368.627,-154.142 415.36,-114.942 424.066,-110 452.359,-93.9398 487.505,-81.9186 512.974,-74.4455"/>
<polygon fill="midnightblue" stroke="midnightblue" points="514.248,-77.7219 522.907,-71.6169 512.331,-70.9896 514.248,-77.7219"/>
</g>
<!-- Node13&#45;&gt;Node6 -->
<g id="edge15" class="edge"><title>Node13&#45;&gt;Node6</title>
<path fill="none" stroke="midnightblue" d="M299.62,-175.461C280.124,-166.136 253.937,-152.833 232.066,-139 214.111,-127.643 212.117,-121.205 194.066,-110 174.199,-97.6673 150.438,-86.0395 132.32,-77.7648"/>
<polygon fill="midnightblue" stroke="midnightblue" points="133.452,-74.4364 122.896,-73.5295 130.583,-80.8212 133.452,-74.4364"/>
</g>
<!-- Node14&#45;&gt;Node10 -->
<g id="edge20" class="edge"><title>Node14&#45;&gt;Node10</title>
<path fill="none" stroke="midnightblue" d="M640.455,-188.124C682.247,-184.692 736.943,-173.232 771.066,-139 785.582,-124.438 789.462,-100.33 790.278,-83.7179"/>
<polygon fill="midnightblue" stroke="midnightblue" points="793.779,-83.6812 790.447,-73.624 786.78,-83.564 793.779,-83.6812"/>
</g>
<!-- Node15 -->
<g id="node16" class="node"><title>Node15</title>
<polygon fill="none" stroke="#bfbfbf" points="432.648,-115.5 432.648,-133.5 531.485,-133.5 531.485,-115.5 432.648,-115.5"/>
<text text-anchor="middle" x="482.066" y="-121.5" font-family="Helvetica,sans-Serif" font-size="10.00">Eigen/Eigenvalues</text>
</g>
<!-- Node14&#45;&gt;Node15 -->
<g id="edge21" class="edge"><title>Node14&#45;&gt;Node15</title>
<path fill="none" stroke="midnightblue" d="M561.346,-175.446C544.452,-164.803 520.672,-149.821 503.569,-139.047"/>
<polygon fill="midnightblue" stroke="midnightblue" points="505.168,-135.917 494.841,-133.548 501.436,-141.84 505.168,-135.917"/>
</g>
<!-- Node16 -->
<g id="node17" class="node"><title>Node16</title>
<polygon fill="none" stroke="#bfbfbf" points="549.608,-115.5 549.608,-133.5 614.524,-133.5 614.524,-115.5 549.608,-115.5"/>
<text text-anchor="middle" x="582.066" y="-121.5" font-family="Helvetica,sans-Serif" font-size="10.00">Eigen/SVD</text>
</g>
<!-- Node14&#45;&gt;Node16 -->
<g id="edge22" class="edge"><title>Node14&#45;&gt;Node16</title>
<path fill="none" stroke="midnightblue" d="M582.066,-175.446C582.066,-166.334 582.066,-154.041 582.066,-143.931"/>
<polygon fill="midnightblue" stroke="midnightblue" points="585.567,-143.73 582.066,-133.73 578.567,-143.73 585.567,-143.73"/>
</g>
<!-- Node17 -->
<g id="node18" class="node"><title>Node17</title>
<polygon fill="none" stroke="#bfbfbf" points="632.089,-110.5 632.089,-138.5 762.044,-138.5 762.044,-110.5 632.089,-110.5"/>
<text text-anchor="start" x="640.089" y="-126.5" font-family="Helvetica,sans-Serif" font-size="10.00">unsupported/Eigen/Matrix</text>
<text text-anchor="middle" x="697.066" y="-116.5" font-family="Helvetica,sans-Serif" font-size="10.00">Functions</text>
</g>
<!-- Node14&#45;&gt;Node17 -->
<g id="edge23" class="edge"><title>Node14&#45;&gt;Node17</title>
<path fill="none" stroke="midnightblue" d="M605.894,-175.446C622.779,-166.197 645.644,-153.671 664.251,-143.477"/>
<polygon fill="midnightblue" stroke="midnightblue" points="666.18,-146.411 673.269,-138.537 662.817,-140.272 666.18,-146.411"/>
</g>
<!-- Node18&#45;&gt;Node4 -->
<g id="edge29" class="edge"><title>Node18&#45;&gt;Node4</title>
<path fill="none" stroke="midnightblue" d="M794.427,-181.771C711.811,-172.282 556.438,-154.406 424.066,-139 412.133,-137.611 399.503,-136.135 387.153,-134.688"/>
<polygon fill="midnightblue" stroke="midnightblue" points="387.206,-131.17 376.866,-133.482 386.391,-138.122 387.206,-131.17"/>
</g>
<!-- Node18&#45;&gt;Node10 -->
<g id="edge28" class="edge"><title>Node18&#45;&gt;Node10</title>
<path fill="none" stroke="midnightblue" d="M846.324,-175.337C834.83,-152.896 811.454,-107.257 798.753,-82.4591"/>
<polygon fill="midnightblue" stroke="midnightblue" points="801.844,-80.8159 794.17,-73.5111 795.613,-84.0071 801.844,-80.8159"/>
</g>
<!-- Node19 -->
<g id="node20" class="node"><title>Node19</title>
<polygon fill="none" stroke="#bfbfbf" points="856.451,-115.5 856.451,-133.5 899.682,-133.5 899.682,-115.5 856.451,-115.5"/>
<text text-anchor="middle" x="878.066" y="-121.5" font-family="Helvetica,sans-Serif" font-size="10.00">cmath</text>
</g>
<!-- Node18&#45;&gt;Node19 -->
<g id="edge25" class="edge"><title>Node18&#45;&gt;Node19</title>
<path fill="none" stroke="midnightblue" d="M858.246,-175.446C861.94,-166.138 866.951,-153.51 871.01,-143.282"/>
<polygon fill="midnightblue" stroke="midnightblue" points="874.365,-144.316 874.8,-133.73 867.859,-141.734 874.365,-144.316"/>
</g>
<!-- Node20 -->
<g id="node21" class="node"><title>Node20</title>
<polygon fill="none" stroke="#bfbfbf" points="917.448,-115.5 917.448,-133.5 970.685,-133.5 970.685,-115.5 917.448,-115.5"/>
<text text-anchor="middle" x="944.066" y="-121.5" font-family="Helvetica,sans-Serif" font-size="10.00">complex</text>
</g>
<!-- Node18&#45;&gt;Node20 -->
<g id="edge26" class="edge"><title>Node18&#45;&gt;Node20</title>
<path fill="none" stroke="midnightblue" d="M871.922,-175.446C887.153,-164.901 908.535,-150.098 924.065,-139.347"/>
<polygon fill="midnightblue" stroke="midnightblue" points="926.212,-142.118 932.442,-133.548 922.227,-136.362 926.212,-142.118"/>
</g>
<!-- Node21 -->
<g id="node22" class="node"><title>Node21</title>
<polygon fill="none" stroke="#bfbfbf" points="988.54,-110.5 988.54,-138.5 1099.59,-138.5 1099.59,-110.5 988.54,-110.5"/>
<text text-anchor="start" x="996.54" y="-126.5" font-family="Helvetica,sans-Serif" font-size="10.00">boost/math/constants</text>
<text text-anchor="middle" x="1044.07" y="-116.5" font-family="Helvetica,sans-Serif" font-size="10.00">/constants.hpp</text>
</g>
<!-- Node18&#45;&gt;Node21 -->
<g id="edge27" class="edge"><title>Node18&#45;&gt;Node21</title>
<path fill="none" stroke="midnightblue" d="M892.642,-175.446C922.349,-165.648 963.203,-152.172 994.99,-141.687"/>
<polygon fill="midnightblue" stroke="midnightblue" points="996.141,-144.993 1004.54,-138.537 993.949,-138.346 996.141,-144.993"/>
</g>
</g>
</svg>
        <g id="navigator" transform="translate(0 0)" fill="#404254">
                <rect fill="#f2f5e9" fill-opacity="0.5" stroke="#606060" stroke-width=".5" x="0" y="0" width="60" height="60"/>
                <use id="zoomplus" xlink:href="#zoomPlus" x="17" y="9" onmousedown="handleZoom(evt,'in')"/>
                <use id="zoomminus" xlink:href="#zoomMin" x="42" y="9" onmousedown="handleZoom(evt,'out')"/>
                <use id="reset" xlink:href="#resetDef" x="30" y="36" onmousedown="handleReset()"/>
                <g id="arrowUp" xlink:href="#dirArrow" transform="translate(30 24)" onmousedown="handlePan(0,-1)">
                  <use xlink:href="#rim" fill="#404040">
                        <set attributeName="fill" to="#808080" begin="arrowUp.mouseover" end="arrowUp.mouseout"/>
                  </use>
                  <path fill="none" stroke="white" stroke-width="1.5" d="M0,-3.0v7 M-2.5,-0.5L0,-3.0L2.5,-0.5"/>
                </g>
                <g id="arrowRight" xlink:href="#dirArrow" transform="rotate(90) translate(36 -43)" onmousedown="handlePan(1,0)">
                  <use xlink:href="#rim" fill="#404040">
                        <set attributeName="fill" to="#808080" begin="arrowRight.mouseover" end="arrowRight.mouseout"/>
                  </use>
                  <path fill="none" stroke="white" stroke-width="1.5" d="M0,-3.0v7 M-2.5,-0.5L0,-3.0L2.5,-0.5"/>
                </g>
                <g id="arrowDown" xlink:href="#dirArrow" transform="rotate(180) translate(-30 -48)" onmousedown="handlePan(0,1)">
                  <use xlink:href="#rim" fill="#404040">
                        <set attributeName="fill" to="#808080" begin="arrowDown.mouseover" end="arrowDown.mouseout"/>
                  </use>
                  <path fill="none" stroke="white" stroke-width="1.5" d="M0,-3.0v7 M-2.5,-0.5L0,-3.0L2.5,-0.5"/>
                </g>
                <g id="arrowLeft" xlink:href="#dirArrow" transform="rotate(270) translate(-36 17)" onmousedown="handlePan(-1,0)">
                  <use xlink:href="#rim" fill="#404040">
                        <set attributeName="fill" to="#808080" begin="arrowLeft.mouseover" end="arrowLeft.mouseout"/>
                  </use>
                  <path fill="none" stroke="white" stroke-width="1.5" d="M0,-3.0v7 M-2.5,-0.5L0,-3.0L2.5,-0.5"/>
                </g>
        </g>
        <svg viewBox="0 0 15 15" width="100%" height="30px" preserveAspectRatio="xMaxYMin meet">
         <g id="arrow_out" transform="scale(0.3 0.3)">
          <a xlink:href="tspacefigofmerit_8h__incl_org.svg" target="_base">
           <rect id="button" ry="5" rx="5" y="6" x="6" height="38" width="38"
                fill="#f2f5e9" fill-opacity="0.5" stroke="#606060" stroke-width="1.0"/>
           <path id="arrow"
             d="M 11.500037,31.436501 C 11.940474,20.09759 22.043105,11.32322 32.158766,21.979434 L 37.068811,17.246167 C 37.068811,17.246167 37.088388,32 37.088388,32 L 22.160133,31.978069 C 22.160133,31.978069 26.997745,27.140456 26.997745,27.140456 C 18.528582,18.264221 13.291696,25.230495 11.500037,31.436501 z"
             style="fill:#404040;"/>
          </a>
         </g>
        </svg>
</svg>
