<?xml version="1.0" encoding="UTF-8" standalone="no"?>
<!DOCTYPE svg PUBLIC "-//W3C//DTD SVG 1.1//EN"
 "http://www.w3.org/Graphics/SVG/1.1/DTD/svg11.dtd">
<!-- Generated by graphviz version 2.38.0 (20140413.2041)
 -->
<!-- Title: tomographer/valuecalculator.h Pages: 1 -->
<svg width="662pt" height="247pt"
 viewBox="0.00 0.00 662.18 247.00" xmlns="http://www.w3.org/2000/svg" xmlns:xlink="http://www.w3.org/1999/xlink">
<g id="graph0" class="graph" transform="scale(1 1) rotate(0) translate(4 243)">
<title>tomographer/valuecalculator.h</title>
<!-- Node0 -->
<g id="node1" class="node"><title>Node0</title>
<polygon fill="#bfbfbf" stroke="black" points="291.128,-220.5 291.128,-238.5 441.103,-238.5 441.103,-220.5 291.128,-220.5"/>
<text text-anchor="middle" x="366.116" y="-226.5" font-family="Helvetica,sans-Serif" font-size="10.00">tomographer/valuecalculator.h</text>
</g>
<!-- Node1 -->
<g id="node2" class="node"><title>Node1</title>
<g id="a_node2"><a xlink:href="cxxutil_8h.html" target="_top" xlink:title="Some C++ utilities, with a tad of C++11 tricks. ">
<polygon fill="none" stroke="black" points="233.365,-110.5 233.365,-128.5 368.867,-128.5 368.867,-110.5 233.365,-110.5"/>
<text text-anchor="middle" x="301.116" y="-116.5" font-family="Helvetica,sans-Serif" font-size="10.00">tomographer/tools/cxxutil.h</text>
</a>
</g>
</g>
<!-- Node0&#45;&gt;Node1 -->
<g id="edge1" class="edge"><title>Node0&#45;&gt;Node1</title>
<path fill="none" stroke="midnightblue" d="M354.665,-220.214C344.233,-212.095 329.122,-198.81 320.116,-184 311.7,-170.16 306.794,-152.341 304.083,-139.103"/>
<polygon fill="midnightblue" stroke="midnightblue" points="307.456,-138.083 302.233,-128.865 300.567,-139.328 307.456,-138.083"/>
</g>
<!-- Node11 -->
<g id="node12" class="node"><title>Node11</title>
<g id="a_node12"><a xlink:href="needownoperatornew_8h.html" target="_top" xlink:title="Managing the need for specific overrides to operator new() for some types (especially Eigen types) ...">
<polygon fill="none" stroke="black" points="329.439,-165.5 329.439,-183.5 532.792,-183.5 532.792,-165.5 329.439,-165.5"/>
<text text-anchor="middle" x="431.116" y="-171.5" font-family="Helvetica,sans-Serif" font-size="10.00">tomographer/tools/needownoperatornew.h</text>
</a>
</g>
</g>
<!-- Node0&#45;&gt;Node11 -->
<g id="edge11" class="edge"><title>Node0&#45;&gt;Node11</title>
<path fill="none" stroke="midnightblue" d="M375.988,-220.45C385.819,-212.434 401.133,-199.947 413.129,-190.166"/>
<polygon fill="midnightblue" stroke="midnightblue" points="415.612,-192.657 421.151,-183.625 411.189,-187.232 415.612,-192.657"/>
</g>
<!-- Node2 -->
<g id="node3" class="node"><title>Node2</title>
<polygon fill="none" stroke="#bfbfbf" points="0,-55.5 0,-73.5 48.2314,-73.5 48.2314,-55.5 0,-55.5"/>
<text text-anchor="middle" x="24.1157" y="-61.5" font-family="Helvetica,sans-Serif" font-size="10.00">cassert</text>
</g>
<!-- Node1&#45;&gt;Node2 -->
<g id="edge2" class="edge"><title>Node1&#45;&gt;Node2</title>
<path fill="none" stroke="midnightblue" d="M250.904,-110.425C203.649,-102.582 130.696,-89.8522 58.7235,-74.2319"/>
<polygon fill="midnightblue" stroke="midnightblue" points="59.0946,-70.7303 48.5772,-72.0089 57.5964,-77.5681 59.0946,-70.7303"/>
</g>
<!-- Node3 -->
<g id="node4" class="node"><title>Node3</title>
<polygon fill="none" stroke="#bfbfbf" points="65.9951,-55.5 65.9951,-73.5 114.236,-73.5 114.236,-55.5 65.9951,-55.5"/>
<text text-anchor="middle" x="90.1157" y="-61.5" font-family="Helvetica,sans-Serif" font-size="10.00">cstddef</text>
</g>
<!-- Node1&#45;&gt;Node3 -->
<g id="edge3" class="edge"><title>Node1&#45;&gt;Node3</title>
<path fill="none" stroke="midnightblue" d="M268.617,-110.449C234.872,-102.073 180.29,-88.4798 124.037,-74.2209"/>
<polygon fill="midnightblue" stroke="midnightblue" points="124.815,-70.8074 114.261,-71.7404 123.093,-77.5924 124.815,-70.8074"/>
</g>
<!-- Node4 -->
<g id="node5" class="node"><title>Node4</title>
<polygon fill="none" stroke="#bfbfbf" points="131.943,-55.5 131.943,-73.5 176.288,-73.5 176.288,-55.5 131.943,-55.5"/>
<text text-anchor="middle" x="154.116" y="-61.5" font-family="Helvetica,sans-Serif" font-size="10.00">cstdlib</text>
</g>
<!-- Node1&#45;&gt;Node4 -->
<g id="edge4" class="edge"><title>Node1&#45;&gt;Node4</title>
<path fill="none" stroke="midnightblue" d="M278.79,-110.45C254.182,-101.578 214.383,-87.2288 186.383,-77.134"/>
<polygon fill="midnightblue" stroke="midnightblue" points="187.246,-73.7246 176.652,-73.6253 184.872,-80.3096 187.246,-73.7246"/>
</g>
<!-- Node5 -->
<g id="node6" class="node"><title>Node5</title>
<polygon fill="none" stroke="#bfbfbf" points="592.049,-55.5 592.049,-73.5 654.182,-73.5 654.182,-55.5 592.049,-55.5"/>
<text text-anchor="middle" x="623.116" y="-61.5" font-family="Helvetica,sans-Serif" font-size="10.00">type_traits</text>
</g>
<!-- Node1&#45;&gt;Node5 -->
<g id="edge5" class="edge"><title>Node1&#45;&gt;Node5</title>
<path fill="none" stroke="midnightblue" d="M357.712,-110.468C412.586,-102.477 498.413,-89.4448 581.811,-74.1643"/>
<polygon fill="midnightblue" stroke="midnightblue" points="582.505,-77.5955 591.704,-72.3389 581.235,-70.7117 582.505,-77.5955"/>
</g>
<!-- Node6 -->
<g id="node7" class="node"><title>Node6</title>
<polygon fill="none" stroke="#bfbfbf" points="194.712,-55.5 194.712,-73.5 253.52,-73.5 253.52,-55.5 194.712,-55.5"/>
<text text-anchor="middle" x="224.116" y="-61.5" font-family="Helvetica,sans-Serif" font-size="10.00">exception</text>
</g>
<!-- Node1&#45;&gt;Node6 -->
<g id="edge6" class="edge"><title>Node1&#45;&gt;Node6</title>
<path fill="none" stroke="midnightblue" d="M289.421,-110.45C277.436,-102.201 258.571,-89.2158 244.192,-79.3187"/>
<polygon fill="midnightblue" stroke="midnightblue" points="246.142,-76.4121 235.92,-73.6253 242.173,-82.1782 246.142,-76.4121"/>
</g>
<!-- Node7 -->
<g id="node8" class="node"><title>Node7</title>
<polygon fill="none" stroke="#bfbfbf" points="271.714,-55.5 271.714,-73.5 330.517,-73.5 330.517,-55.5 271.714,-55.5"/>
<text text-anchor="middle" x="301.116" y="-61.5" font-family="Helvetica,sans-Serif" font-size="10.00">stdexcept</text>
</g>
<!-- Node1&#45;&gt;Node7 -->
<g id="edge7" class="edge"><title>Node1&#45;&gt;Node7</title>
<path fill="none" stroke="midnightblue" d="M301.116,-110.219C301.116,-103.177 301.116,-92.8083 301.116,-83.8277"/>
<polygon fill="midnightblue" stroke="midnightblue" points="304.616,-83.5495 301.116,-73.5496 297.616,-83.5496 304.616,-83.5495"/>
</g>
<!-- Node8 -->
<g id="node9" class="node"><title>Node8</title>
<polygon fill="none" stroke="#bfbfbf" points="348.101,-55.5 348.101,-73.5 414.13,-73.5 414.13,-55.5 348.101,-55.5"/>
<text text-anchor="middle" x="381.116" y="-61.5" font-family="Helvetica,sans-Serif" font-size="10.00">Eigen/Core</text>
</g>
<!-- Node1&#45;&gt;Node8 -->
<g id="edge8" class="edge"><title>Node1&#45;&gt;Node8</title>
<path fill="none" stroke="midnightblue" d="M313.266,-110.45C325.718,-102.201 345.318,-89.2158 360.257,-79.3187"/>
<polygon fill="midnightblue" stroke="midnightblue" points="362.448,-82.0661 368.851,-73.6253 358.582,-76.2305 362.448,-82.0661"/>
</g>
<!-- Node9 -->
<g id="node10" class="node"><title>Node9</title>
<g id="a_node10"><a xlink:href="conststr_8h.html" target="_top" xlink:title="A constexpr string type, suitable for basic compile&#45;time string processing. ">
<polygon fill="none" stroke="black" points="432.025,-55.5 432.025,-73.5 574.207,-73.5 574.207,-55.5 432.025,-55.5"/>
<text text-anchor="middle" x="503.116" y="-61.5" font-family="Helvetica,sans-Serif" font-size="10.00">tomographer/tools/conststr.h</text>
</a>
</g>
</g>
<!-- Node1&#45;&gt;Node9 -->
<g id="edge9" class="edge"><title>Node1&#45;&gt;Node9</title>
<path fill="none" stroke="midnightblue" d="M331.795,-110.45C366.749,-101.279 424.01,-86.2555 462.608,-76.1283"/>
<polygon fill="midnightblue" stroke="midnightblue" points="463.695,-79.4617 472.479,-73.5383 461.918,-72.6908 463.695,-79.4617"/>
</g>
<!-- Node10 -->
<g id="node11" class="node"><title>Node10</title>
<polygon fill="none" stroke="#bfbfbf" points="482.889,-0.5 482.889,-18.5 523.342,-18.5 523.342,-0.5 482.889,-0.5"/>
<text text-anchor="middle" x="503.116" y="-6.5" font-family="Helvetica,sans-Serif" font-size="10.00">string</text>
</g>
<!-- Node9&#45;&gt;Node10 -->
<g id="edge10" class="edge"><title>Node9&#45;&gt;Node10</title>
<path fill="none" stroke="midnightblue" d="M503.116,-55.2188C503.116,-48.1769 503.116,-37.8083 503.116,-28.8277"/>
<polygon fill="midnightblue" stroke="midnightblue" points="506.616,-28.5495 503.116,-18.5496 499.616,-28.5496 506.616,-28.5495"/>
</g>
<!-- Node11&#45;&gt;Node1 -->
<g id="edge14" class="edge"><title>Node11&#45;&gt;Node1</title>
<path fill="none" stroke="midnightblue" d="M411.372,-165.45C389.801,-156.656 355.029,-142.48 330.306,-132.401"/>
<polygon fill="midnightblue" stroke="midnightblue" points="331.627,-129.16 321.046,-128.625 328.984,-135.642 331.627,-129.16"/>
</g>
<!-- Node11&#45;&gt;Node5 -->
<g id="edge12" class="edge"><title>Node11&#45;&gt;Node5</title>
<path fill="none" stroke="midnightblue" d="M431.14,-165.181C431.649,-151.635 434.689,-124.837 450.116,-110 454.952,-105.349 532.324,-86.6468 581.942,-75.0186"/>
<polygon fill="midnightblue" stroke="midnightblue" points="582.827,-78.4061 591.769,-72.7229 581.234,-71.5896 582.827,-78.4061"/>
</g>
<!-- Node12 -->
<g id="node13" class="node"><title>Node12</title>
<polygon fill="none" stroke="#bfbfbf" points="459.15,-110.5 459.15,-128.5 529.081,-128.5 529.081,-110.5 459.15,-110.5"/>
<text text-anchor="middle" x="494.116" y="-116.5" font-family="Helvetica,sans-Serif" font-size="10.00">Eigen/Eigen</text>
</g>
<!-- Node11&#45;&gt;Node12 -->
<g id="edge13" class="edge"><title>Node11&#45;&gt;Node12</title>
<path fill="none" stroke="midnightblue" d="M440.684,-165.45C450.213,-157.434 465.056,-144.947 476.682,-135.166"/>
<polygon fill="midnightblue" stroke="midnightblue" points="479.058,-137.741 484.457,-128.625 474.552,-132.385 479.058,-137.741"/>
</g>
</g>
</svg>
