<?xml version="1.0" encoding="UTF-8" standalone="no"?>
<!DOCTYPE svg PUBLIC "-//W3C//DTD SVG 1.1//EN"
 "http://www.w3.org/Graphics/SVG/1.1/DTD/svg11.dtd">
<!-- Generated by graphviz version 2.38.0 (20140413.2041)
 -->
<!-- Title: Tomographer::AveragedHistogram&lt; HistogramType_, RealAvgType &gt; Pages: 1 -->
<!--zoomable 199 -->
<svg id="main" version="1.1" xmlns="http://www.w3.org/2000/svg" xmlns:xlink="http://www.w3.org/1999/xlink" xml:space="preserve" onload="init(evt)">
<style type="text/css"><![CDATA[
.edge:hover path { stroke: red; }
.edge:hover polygon { stroke: red; fill: red; }
]]></style>
<script type="text/javascript"><![CDATA[
var edges = document.getElementsByTagName('g');
if (edges && edges.length) {
  for (var i=0;i<edges.length;i++) {
    if (edges[i].id.substr(0,4)=='edge') {
      edges[i].setAttribute('class','edge');
    }
  }
}
]]></script>
        <defs>
                <circle id="rim" cx="0" cy="0" r="7"/>
                <circle id="rim2" cx="0" cy="0" r="3.5"/>
                <g id="zoomPlus">
                        <use xlink:href="#rim" fill="#404040">
                                <set attributeName="fill" to="#808080" begin="zoomplus.mouseover" end="zoomplus.mouseout"/>
                        </use>
                        <path d="M-4,0h8M0,-4v8" fill="none" stroke="white" stroke-width="1.5" pointer-events="none"/>
                </g>
                <g id="zoomMin">
                        <use xlink:href="#rim" fill="#404040">
                                <set attributeName="fill" to="#808080" begin="zoomminus.mouseover" end="zoomminus.mouseout"/>
                        </use>
                        <path d="M-4,0h8" fill="none" stroke="white" stroke-width="1.5" pointer-events="none"/>
                </g>
                <g id="dirArrow">
                        <path fill="none" stroke="white" stroke-width="1.5" d="M0,-3.0v7 M-2.5,-0.5L0,-3.0L2.5,-0.5"/>
                </g>
               <g id="resetDef">
                       <use xlink:href="#rim2" fill="#404040">
                               <set attributeName="fill" to="#808080" begin="reset.mouseover" end="reset.mouseout"/>
                       </use>
               </g>
        </defs>

<script type="text/javascript">
var viewWidth = 2135;
var viewHeight = 199;
var sectionId = 'dynsection-1';
</script>
<script xlink:href="svgpan.js"/>
<svg id="graph" class="graph">
<g id="viewport">
<title>Tomographer::AveragedHistogram&lt; HistogramType_, RealAvgType &gt;</title>
<!-- Node8 -->
<g id="node1" class="node"><title>Node8</title>
<polygon fill="#bfbfbf" stroke="black" points="1956.22,-25.5 1956.22,-53.5 2127.13,-53.5 2127.13,-25.5 1956.22,-25.5"/>
<text text-anchor="start" x="1964.22" y="-41.5" font-family="Helvetica,sans-Serif" font-size="10.00">Tomographer::AveragedHistogram</text>
<text text-anchor="middle" x="2041.68" y="-31.5" font-family="Helvetica,sans-Serif" font-size="10.00">&lt; HistogramType_, RealAvgType &gt;</text>
</g>
<!-- Node9 -->
<g id="node2" class="node"><title>Node9</title>
<g id="a_node2"><a xlink:href="class_tomographer_1_1_uniform_bins_histogram_with_error_bars.html" target="_top" xlink:title="Tomographer::UniformBins\lHistogramWithErrorBars\l\&lt; HistogramType_::Scalar,\l RealAvgType \&gt;">
<polygon fill="none" stroke="black" points="1784.28,-15.5 1784.28,-63.5 1919.22,-63.5 1919.22,-15.5 1784.28,-15.5"/>
<text text-anchor="start" x="1792.28" y="-51.5" font-family="Helvetica,sans-Serif" font-size="10.00">Tomographer::UniformBins</text>
<text text-anchor="start" x="1792.28" y="-41.5" font-family="Helvetica,sans-Serif" font-size="10.00">HistogramWithErrorBars</text>
<text text-anchor="start" x="1792.28" y="-31.5" font-family="Helvetica,sans-Serif" font-size="10.00">&lt; HistogramType_::Scalar,</text>
<text text-anchor="middle" x="1851.75" y="-21.5" font-family="Helvetica,sans-Serif" font-size="10.00"> RealAvgType &gt;</text>
</a>
</g>
</g>
<!-- Node9&#45;&gt;Node8 -->
<g id="edge1" class="edge"><title>Node9&#45;&gt;Node8</title>
<path fill="none" stroke="midnightblue" d="M1929.47,-39.5C1938.26,-39.5 1947.26,-39.5 1956.14,-39.5"/>
<polygon fill="midnightblue" stroke="midnightblue" points="1929.27,-36.0001 1919.27,-39.5 1929.27,-43.0001 1929.27,-36.0001"/>
</g>
<!-- Node10 -->
<g id="node3" class="node"><title>Node10</title>
<g id="a_node3"><a xlink:href="class_tomographer_1_1_uniform_bins_histogram.html" target="_top" xlink:title="Tomographer::UniformBins\lHistogram\&lt; HistogramType\l_::Scalar, RealAvgType \&gt;">
<polygon fill="none" stroke="black" points="1490.51,-88.5 1490.51,-126.5 1627.94,-126.5 1627.94,-88.5 1490.51,-88.5"/>
<text text-anchor="start" x="1498.51" y="-114.5" font-family="Helvetica,sans-Serif" font-size="10.00">Tomographer::UniformBins</text>
<text text-anchor="start" x="1498.51" y="-104.5" font-family="Helvetica,sans-Serif" font-size="10.00">Histogram&lt; HistogramType</text>
<text text-anchor="middle" x="1559.22" y="-94.5" font-family="Helvetica,sans-Serif" font-size="10.00">_::Scalar, RealAvgType &gt;</text>
</a>
</g>
</g>
<!-- Node10&#45;&gt;Node9 -->
<g id="edge2" class="edge"><title>Node10&#45;&gt;Node9</title>
<path fill="none" stroke="midnightblue" d="M1638.38,-92.0877C1677.01,-84.1453 1724.25,-73.9484 1766.28,-63.5 1772.05,-62.0659 1778.03,-60.5118 1784.01,-58.9075"/>
<polygon fill="midnightblue" stroke="midnightblue" points="1637.33,-88.7288 1628.23,-94.1615 1638.73,-95.5869 1637.33,-88.7288"/>
</g>
<!-- Node11 -->
<g id="node4" class="node"><title>Node11</title>
<g id="a_node4"><a xlink:href="struct_tomographer_1_1_uniform_bins_histogram_params.html" target="_top" xlink:title="Tomographer::UniformBins\lHistogramParams\&lt; HistogramType\l_::Scalar \&gt;">
<polygon fill="none" stroke="black" points="1162.12,-148.5 1162.12,-186.5 1334.01,-186.5 1334.01,-148.5 1162.12,-148.5"/>
<text text-anchor="start" x="1170.12" y="-174.5" font-family="Helvetica,sans-Serif" font-size="10.00">Tomographer::UniformBins</text>
<text text-anchor="start" x="1170.12" y="-164.5" font-family="Helvetica,sans-Serif" font-size="10.00">HistogramParams&lt; HistogramType</text>
<text text-anchor="middle" x="1248.07" y="-154.5" font-family="Helvetica,sans-Serif" font-size="10.00">_::Scalar &gt;</text>
</a>
</g>
</g>
<!-- Node11&#45;&gt;Node10 -->
<g id="edge3" class="edge"><title>Node11&#45;&gt;Node10</title>
<path fill="none" stroke="#9a32cd" stroke-dasharray="5,2" d="M1344.2,-156.091C1384.08,-150.517 1430.79,-142.95 1472.51,-133.5 1481.3,-131.507 1490.51,-129.083 1499.5,-126.525"/>
<polygon fill="#9a32cd" stroke="#9a32cd" points="1343.65,-152.634 1334.22,-157.465 1344.6,-159.569 1343.65,-152.634"/>
<text text-anchor="middle" x="1412.34" y="-156.5" font-family="Helvetica,sans-Serif" font-size="10.00"> params</text>
</g>
<!-- Node12 -->
<g id="node5" class="node"><title>Node12</title>
<g id="a_node5"><a doxygen="/Users/philippe/Research/projects/tomographer/doc/cppreference-doxygen-web.tag.xml:http://en.cppreference.com/w/" xlink:href="http://en.cppreference.com/w/cpp/types/size_t.html" target="_top" xlink:title="std::size_t">
<polygon fill="none" stroke="black" points="630.256,-171.5 630.256,-189.5 691.276,-189.5 691.276,-171.5 630.256,-171.5"/>
<text text-anchor="middle" x="660.766" y="-177.5" font-family="Helvetica,sans-Serif" font-size="10.00">std::size_t</text>
</a>
</g>
</g>
<!-- Node12&#45;&gt;Node11 -->
<g id="edge4" class="edge"><title>Node12&#45;&gt;Node11</title>
<path fill="none" stroke="#9a32cd" stroke-dasharray="5,2" d="M701.6,-180.574C784.143,-180.584 979.865,-179.861 1143.97,-173.5 1149.79,-173.274 1155.8,-173.009 1161.85,-172.718"/>
<polygon fill="#9a32cd" stroke="#9a32cd" points="701.412,-177.074 691.41,-180.569 701.408,-184.074 701.412,-177.074"/>
<text text-anchor="middle" x="925.659" y="-182.5" font-family="Helvetica,sans-Serif" font-size="10.00"> num_bins</text>
</g>
<!-- Node13 -->
<g id="node6" class="node"><title>Node13</title>
<g id="a_node6"><a xlink:href="struct_tomographer_1_1_uniform_bins_histogram_params.html" target="_top" xlink:title="The parameters of a UniformBinsHistogram. ">
<polygon fill="none" stroke="black" points="852.078,-128.5 852.078,-156.5 999.24,-156.5 999.24,-128.5 852.078,-128.5"/>
<text text-anchor="start" x="860.078" y="-144.5" font-family="Helvetica,sans-Serif" font-size="10.00">Tomographer::UniformBins</text>
<text text-anchor="middle" x="925.659" y="-134.5" font-family="Helvetica,sans-Serif" font-size="10.00">HistogramParams&lt; Scalar_ &gt;</text>
</a>
</g>
</g>
<!-- Node12&#45;&gt;Node13 -->
<g id="edge7" class="edge"><title>Node12&#45;&gt;Node13</title>
<path fill="none" stroke="#9a32cd" stroke-dasharray="5,2" d="M701.516,-174.754C741.293,-169.005 803.396,-160.028 851.996,-153.003"/>
<polygon fill="#9a32cd" stroke="#9a32cd" points="700.809,-171.32 691.412,-176.215 701.81,-178.248 700.809,-171.32"/>
<text text-anchor="middle" x="788.629" y="-170.5" font-family="Helvetica,sans-Serif" font-size="10.00"> num_bins</text>
</g>
<!-- Node13&#45;&gt;Node11 -->
<g id="edge5" class="edge"><title>Node13&#45;&gt;Node11</title>
<path fill="none" stroke="orange" stroke-dasharray="5,2" d="M1009.47,-148.961C1056.28,-152.614 1114.69,-157.171 1161.88,-160.853"/>
<polygon fill="orange" stroke="orange" points="1009.61,-145.461 999.365,-148.173 1009.06,-152.44 1009.61,-145.461"/>
<text text-anchor="middle" x="1080.6" y="-161.5" font-family="Helvetica,sans-Serif" font-size="10.00"> &lt; HistogramType_::Scalar &gt;</text>
</g>
<!-- Node14 -->
<g id="node7" class="node"><title>Node14</title>
<polygon fill="none" stroke="#bfbfbf" points="635.813,-116.5 635.813,-134.5 685.719,-134.5 685.719,-116.5 635.813,-116.5"/>
<text text-anchor="middle" x="660.766" y="-122.5" font-family="Helvetica,sans-Serif" font-size="10.00">Scalar_</text>
</g>
<!-- Node14&#45;&gt;Node13 -->
<g id="edge6" class="edge"><title>Node14&#45;&gt;Node13</title>
<path fill="none" stroke="#9a32cd" stroke-dasharray="5,2" d="M695.911,-124.004C730.735,-122.875 786.287,-122.172 834.078,-126.5 839.804,-127.019 845.71,-127.708 851.633,-128.509"/>
<polygon fill="#9a32cd" stroke="#9a32cd" points="695.67,-120.51 685.8,-124.362 695.918,-127.505 695.67,-120.51"/>
<text text-anchor="middle" x="788.629" y="-138.5" font-family="Helvetica,sans-Serif" font-size="10.00"> min</text>
<text text-anchor="middle" x="788.629" y="-128.5" font-family="Helvetica,sans-Serif" font-size="10.00">max</text>
</g>
<!-- Node15 -->
<g id="node8" class="node"><title>Node15</title>
<g id="a_node8"><a doxygen="/Users/philippe/Research/projects/tomographer/doc/Eigen.doxytags:http://eigen.tuxfamily.org/dox/" xlink:href="http://eigen.tuxfamily.org/dox/classEigen_1_1Array.html" target="_top" xlink:title="Eigen::Array\&lt; CountType,\l Eigen::Dynamic, 1 \&gt;">
<polygon fill="none" stroke="black" points="860.264,-15.5 860.264,-43.5 991.054,-43.5 991.054,-15.5 860.264,-15.5"/>
<text text-anchor="start" x="868.264" y="-31.5" font-family="Helvetica,sans-Serif" font-size="10.00">Eigen::Array&lt; CountType,</text>
<text text-anchor="middle" x="925.659" y="-21.5" font-family="Helvetica,sans-Serif" font-size="10.00"> Eigen::Dynamic, 1 &gt;</text>
</a>
</g>
</g>
<!-- Node15&#45;&gt;Node9 -->
<g id="edge17" class="edge"><title>Node15&#45;&gt;Node9</title>
<path fill="none" stroke="#9a32cd" stroke-dasharray="5,2" d="M1001.63,-22.9625C1130.01,-12.7753 1400.15,4.26225 1627.94,-10.5 1680.69,-13.9182 1740.02,-21.8424 1784.19,-28.545"/>
<polygon fill="#9a32cd" stroke="#9a32cd" points="1001.2,-19.4853 991.512,-23.7743 1001.76,-26.4629 1001.2,-19.4853"/>
<text text-anchor="middle" x="1412.34" y="-7.5" font-family="Helvetica,sans-Serif" font-size="10.00"> delta</text>
</g>
<!-- Node15&#45;&gt;Node10 -->
<g id="edge8" class="edge"><title>Node15&#45;&gt;Node10</title>
<path fill="none" stroke="#9a32cd" stroke-dasharray="5,2" d="M965.994,-48.518C977.462,-55.1508 989.512,-63.2759 999.24,-72.5 1009.71,-82.4234 1004.59,-92.5812 1017.24,-99.5 1096.67,-142.929 1363.17,-125.495 1490.02,-114.229"/>
<polygon fill="#9a32cd" stroke="#9a32cd" points="967.421,-45.3075 956.977,-43.5261 964.03,-51.4317 967.421,-45.3075"/>
<text text-anchor="middle" x="1248.07" y="-129.5" font-family="Helvetica,sans-Serif" font-size="10.00"> bins</text>
</g>
<!-- Node20 -->
<g id="node13" class="node"><title>Node20</title>
<g id="a_node13"><a xlink:href="class_tomographer_1_1_uniform_bins_histogram.html" target="_top" xlink:title="Stores a histogram. ">
<polygon fill="none" stroke="black" points="1161.97,-54.5 1161.97,-82.5 1334.17,-82.5 1334.17,-54.5 1161.97,-54.5"/>
<text text-anchor="start" x="1169.97" y="-70.5" font-family="Helvetica,sans-Serif" font-size="10.00">Tomographer::UniformBins</text>
<text text-anchor="middle" x="1248.07" y="-60.5" font-family="Helvetica,sans-Serif" font-size="10.00">Histogram&lt; Scalar_, CountType_ &gt;</text>
</a>
</g>
</g>
<!-- Node15&#45;&gt;Node20 -->
<g id="edge16" class="edge"><title>Node15&#45;&gt;Node20</title>
<path fill="none" stroke="#9a32cd" stroke-dasharray="5,2" d="M1001.13,-38.5644C1049.15,-44.4091 1111.73,-52.027 1161.75,-58.1152"/>
<polygon fill="#9a32cd" stroke="#9a32cd" points="1001.46,-35.0793 991.113,-37.3453 1000.62,-42.028 1001.46,-35.0793"/>
<text text-anchor="middle" x="1080.6" y="-58.5" font-family="Helvetica,sans-Serif" font-size="10.00"> bins</text>
</g>
<!-- Node22 -->
<g id="node15" class="node"><title>Node22</title>
<g id="a_node15"><a xlink:href="class_tomographer_1_1_uniform_bins_histogram_with_error_bars.html" target="_top" xlink:title="Stores a histogram along with error bars. ">
<polygon fill="none" stroke="black" points="1491.76,-20.5 1491.76,-58.5 1626.69,-58.5 1626.69,-20.5 1491.76,-20.5"/>
<text text-anchor="start" x="1499.76" y="-46.5" font-family="Helvetica,sans-Serif" font-size="10.00">Tomographer::UniformBins</text>
<text text-anchor="start" x="1499.76" y="-36.5" font-family="Helvetica,sans-Serif" font-size="10.00">HistogramWithErrorBars</text>
<text text-anchor="middle" x="1559.22" y="-26.5" font-family="Helvetica,sans-Serif" font-size="10.00">&lt; Scalar_, CountType_ &gt;</text>
</a>
</g>
</g>
<!-- Node15&#45;&gt;Node22 -->
<g id="edge20" class="edge"><title>Node15&#45;&gt;Node22</title>
<path fill="none" stroke="#9a32cd" stroke-dasharray="5,2" d="M1001.43,-30.1925C1083.17,-31.0019 1217.99,-32.491 1334.17,-34.5 1387.07,-35.4149 1447,-36.7689 1491.56,-37.8372"/>
<polygon fill="#9a32cd" stroke="#9a32cd" points="1001.27,-26.6909 991.241,-30.0924 1001.21,-33.6905 1001.27,-26.6909"/>
<text text-anchor="middle" x="1248.07" y="-36.5" font-family="Helvetica,sans-Serif" font-size="10.00"> delta</text>
</g>
<!-- Node16 -->
<g id="node9" class="node"><title>Node16</title>
<g id="a_node9"><a doxygen="/Users/philippe/Research/projects/tomographer/doc/Eigen.doxytags:http://eigen.tuxfamily.org/dox/" xlink:href="http://eigen.tuxfamily.org/dox/classEigen_1_1PlainObjectBase.html" target="_top" xlink:title="Eigen::PlainObjectBase\l\&lt; Array\&lt; CountType, Eigen\l::Dynamic, 1, _Options, \l_MaxRows, _MaxCols \&gt; \&gt;">
<polygon fill="none" stroke="black" points="442.27,-0.5 442.27,-48.5 578.353,-48.5 578.353,-0.5 442.27,-0.5"/>
<text text-anchor="start" x="450.27" y="-36.5" font-family="Helvetica,sans-Serif" font-size="10.00">Eigen::PlainObjectBase</text>
<text text-anchor="start" x="450.27" y="-26.5" font-family="Helvetica,sans-Serif" font-size="10.00">&lt; Array&lt; CountType, Eigen</text>
<text text-anchor="start" x="450.27" y="-16.5" font-family="Helvetica,sans-Serif" font-size="10.00">::Dynamic, 1, _Options, </text>
<text text-anchor="middle" x="510.311" y="-6.5" font-family="Helvetica,sans-Serif" font-size="10.00">_MaxRows, _MaxCols &gt; &gt;</text>
</a>
</g>
</g>
<!-- Node16&#45;&gt;Node15 -->
<g id="edge9" class="edge"><title>Node16&#45;&gt;Node15</title>
<path fill="none" stroke="midnightblue" d="M588.934,-25.439C667.249,-26.3863 786.778,-27.8321 860.081,-28.7188"/>
<polygon fill="midnightblue" stroke="midnightblue" points="588.684,-21.9358 578.643,-25.3145 588.599,-28.9353 588.684,-21.9358"/>
</g>
<!-- Node17 -->
<g id="node10" class="node"><title>Node17</title>
<g id="a_node10"><a doxygen="/Users/philippe/Research/projects/tomographer/doc/Eigen.doxytags:http://eigen.tuxfamily.org/dox/" xlink:href="http://eigen.tuxfamily.org/dox/classEigen_1_1PlainObjectBase.html" target="_top" xlink:title="Eigen::PlainObjectBase\l\&lt; Derived \&gt;">
<polygon fill="none" stroke="black" points="0,-41.5 0,-69.5 121.063,-69.5 121.063,-41.5 0,-41.5"/>
<text text-anchor="start" x="8" y="-57.5" font-family="Helvetica,sans-Serif" font-size="10.00">Eigen::PlainObjectBase</text>
<text text-anchor="middle" x="60.5317" y="-47.5" font-family="Helvetica,sans-Serif" font-size="10.00">&lt; Derived &gt;</text>
</a>
</g>
</g>
<!-- Node17&#45;&gt;Node16 -->
<g id="edge10" class="edge"><title>Node17&#45;&gt;Node16</title>
<path fill="none" stroke="orange" stroke-dasharray="5,2" d="M95.6332,-36.9112C108.802,-30.7166 124.247,-24.606 139.063,-21.5 243.186,0.327085 367.423,-7.32139 442.25,-15.4569"/>
<polygon fill="orange" stroke="orange" points="93.9261,-33.8501 86.4879,-41.3949 97.0076,-40.1353 93.9261,-33.8501"/>
<text text-anchor="start" x="148.509" y="-53.5" font-family="Helvetica,sans-Serif" font-size="10.00"> &lt; Array&lt; CountType,</text>
<text text-anchor="start" x="148.509" y="-43.5" font-family="Helvetica,sans-Serif" font-size="10.00"> Eigen::Dynamic, 1,</text>
<text text-anchor="start" x="148.509" y="-33.5" font-family="Helvetica,sans-Serif" font-size="10.00"> _Options, _MaxRows,</text>
<text text-anchor="middle" x="198.807" y="-23.5" font-family="Helvetica,sans-Serif" font-size="10.00"> _MaxCols &gt; &gt;</text>
</g>
<!-- Node19 -->
<g id="node12" class="node"><title>Node19</title>
<g id="a_node12"><a doxygen="/Users/philippe/Research/projects/tomographer/doc/Eigen.doxytags:http://eigen.tuxfamily.org/dox/" xlink:href="http://eigen.tuxfamily.org/dox/classEigen_1_1PlainObjectBase.html" target="_top" xlink:title="Eigen::PlainObjectBase\l\&lt; Array\&lt; _Scalar, _Rows,\l _Cols, _Options, _MaxRows,\l _MaxCols \&gt; \&gt;">
<polygon fill="none" stroke="black" points="276.551,-58.5 276.551,-106.5 424.27,-106.5 424.27,-58.5 276.551,-58.5"/>
<text text-anchor="start" x="284.551" y="-94.5" font-family="Helvetica,sans-Serif" font-size="10.00">Eigen::PlainObjectBase</text>
<text text-anchor="start" x="284.551" y="-84.5" font-family="Helvetica,sans-Serif" font-size="10.00">&lt; Array&lt; _Scalar, _Rows,</text>
<text text-anchor="start" x="284.551" y="-74.5" font-family="Helvetica,sans-Serif" font-size="10.00"> _Cols, _Options, _MaxRows,</text>
<text text-anchor="middle" x="350.41" y="-64.5" font-family="Helvetica,sans-Serif" font-size="10.00"> _MaxCols &gt; &gt;</text>
</a>
</g>
</g>
<!-- Node17&#45;&gt;Node19 -->
<g id="edge13" class="edge"><title>Node17&#45;&gt;Node19</title>
<path fill="none" stroke="orange" stroke-dasharray="5,2" d="M131.33,-64.6603C133.939,-64.9527 136.524,-65.2338 139.063,-65.5 184.611,-70.2751 235.829,-74.4402 276.321,-77.4524"/>
<polygon fill="orange" stroke="orange" points="131.518,-61.1589 121.182,-63.4846 130.713,-68.1124 131.518,-61.1589"/>
<text text-anchor="start" x="139.063" y="-98.5" font-family="Helvetica,sans-Serif" font-size="10.00"> &lt; Array&lt; _Scalar, </text>
<text text-anchor="start" x="139.063" y="-88.5" font-family="Helvetica,sans-Serif" font-size="10.00">_Rows, _Cols, _Options,</text>
<text text-anchor="middle" x="198.807" y="-78.5" font-family="Helvetica,sans-Serif" font-size="10.00"> _MaxRows, _MaxCols &gt; &gt;</text>
</g>
<!-- Node18 -->
<g id="node11" class="node"><title>Node18</title>
<g id="a_node11"><a doxygen="/Users/philippe/Research/projects/tomographer/doc/Eigen.doxytags:http://eigen.tuxfamily.org/dox/" xlink:href="http://eigen.tuxfamily.org/dox/classEigen_1_1Array.html" target="_top" xlink:title="Eigen::Array\&lt; _Scalar,\l _Rows, _Cols, _Options,\l _MaxRows, _MaxCols \&gt;">
<polygon fill="none" stroke="black" points="596.353,-56.5 596.353,-94.5 725.18,-94.5 725.18,-56.5 596.353,-56.5"/>
<text text-anchor="start" x="604.353" y="-82.5" font-family="Helvetica,sans-Serif" font-size="10.00">Eigen::Array&lt; _Scalar,</text>
<text text-anchor="start" x="604.353" y="-72.5" font-family="Helvetica,sans-Serif" font-size="10.00"> _Rows, _Cols, _Options,</text>
<text text-anchor="middle" x="660.766" y="-62.5" font-family="Helvetica,sans-Serif" font-size="10.00"> _MaxRows, _MaxCols &gt;</text>
</a>
</g>
</g>
<!-- Node18&#45;&gt;Node15 -->
<g id="edge11" class="edge"><title>Node18&#45;&gt;Node15</title>
<path fill="none" stroke="orange" stroke-dasharray="5,2" d="M735.445,-62.608C774.683,-55.7423 822.494,-47.3765 860.238,-40.7722"/>
<polygon fill="orange" stroke="orange" points="734.652,-59.1934 725.405,-64.3647 735.859,-66.0886 734.652,-59.1934"/>
<text text-anchor="start" x="743.18" y="-73.5" font-family="Helvetica,sans-Serif" font-size="10.00"> &lt; CountType, Eigen</text>
<text text-anchor="middle" x="788.629" y="-63.5" font-family="Helvetica,sans-Serif" font-size="10.00">::Dynamic, 1 &gt;</text>
</g>
<!-- Node19&#45;&gt;Node18 -->
<g id="edge12" class="edge"><title>Node19&#45;&gt;Node18</title>
<path fill="none" stroke="midnightblue" d="M434.8,-80.607C485.655,-79.4525 549.633,-78.0001 596.349,-76.9396"/>
<polygon fill="midnightblue" stroke="midnightblue" points="434.404,-77.115 424.486,-80.8411 434.563,-84.1131 434.404,-77.115"/>
</g>
<!-- Node20&#45;&gt;Node10 -->
<g id="edge14" class="edge"><title>Node20&#45;&gt;Node10</title>
<path fill="none" stroke="orange" stroke-dasharray="5,2" d="M1344.59,-72.0777C1384.34,-74.5209 1430.84,-78.6225 1472.51,-85.5 1478.27,-86.4508 1484.21,-87.6041 1490.14,-88.8788"/>
<polygon fill="orange" stroke="orange" points="1344.56,-68.5699 1334.37,-71.4766 1344.14,-75.5578 1344.56,-68.5699"/>
<text text-anchor="start" x="1352.17" y="-97.5" font-family="Helvetica,sans-Serif" font-size="10.00"> &lt; HistogramType_::Scalar,</text>
<text text-anchor="middle" x="1412.34" y="-87.5" font-family="Helvetica,sans-Serif" font-size="10.00"> RealAvgType &gt;</text>
</g>
<!-- Node20&#45;&gt;Node22 -->
<g id="edge19" class="edge"><title>Node20&#45;&gt;Node22</title>
<path fill="none" stroke="midnightblue" d="M1344.38,-59.5596C1391.97,-55.0956 1448.39,-49.803 1491.32,-45.7754"/>
<polygon fill="midnightblue" stroke="midnightblue" points="1343.99,-56.0801 1334.36,-60.4989 1344.65,-63.0495 1343.99,-56.0801"/>
</g>
<!-- Node21 -->
<g id="node14" class="node"><title>Node21</title>
<polygon fill="none" stroke="#bfbfbf" points="890.694,-82.5 890.694,-100.5 960.625,-100.5 960.625,-82.5 890.694,-82.5"/>
<text text-anchor="middle" x="925.659" y="-88.5" font-family="Helvetica,sans-Serif" font-size="10.00">CountType_</text>
</g>
<!-- Node21&#45;&gt;Node20 -->
<g id="edge15" class="edge"><title>Node21&#45;&gt;Node20</title>
<path fill="none" stroke="#9a32cd" stroke-dasharray="5,2" d="M970.626,-88.3439C1019.73,-84.8193 1100.38,-79.0296 1161.93,-74.6113"/>
<polygon fill="#9a32cd" stroke="#9a32cd" points="970.369,-84.8533 960.645,-89.0604 970.87,-91.8353 970.369,-84.8533"/>
<text text-anchor="middle" x="1080.6" y="-87.5" font-family="Helvetica,sans-Serif" font-size="10.00"> off_chart</text>
</g>
<!-- Node22&#45;&gt;Node9 -->
<g id="edge18" class="edge"><title>Node22&#45;&gt;Node9</title>
<path fill="none" stroke="orange" stroke-dasharray="5,2" d="M1637.05,-39.5C1682.81,-39.5 1740.33,-39.5 1784.16,-39.5"/>
<polygon fill="orange" stroke="orange" points="1636.88,-36.0001 1626.88,-39.5 1636.88,-43.0001 1636.88,-36.0001"/>
<text text-anchor="start" x="1645.94" y="-51.5" font-family="Helvetica,sans-Serif" font-size="10.00"> &lt; HistogramType_::Scalar,</text>
<text text-anchor="middle" x="1706.11" y="-41.5" font-family="Helvetica,sans-Serif" font-size="10.00"> RealAvgType &gt;</text>
</g>
</g>
</svg>
        <g id="navigator" transform="translate(0 0)" fill="#404254">
                <rect fill="#f2f5e9" fill-opacity="0.5" stroke="#606060" stroke-width=".5" x="0" y="0" width="60" height="60"/>
                <use id="zoomplus" xlink:href="#zoomPlus" x="17" y="9" onmousedown="handleZoom(evt,'in')"/>
                <use id="zoomminus" xlink:href="#zoomMin" x="42" y="9" onmousedown="handleZoom(evt,'out')"/>
                <use id="reset" xlink:href="#resetDef" x="30" y="36" onmousedown="handleReset()"/>
                <g id="arrowUp" xlink:href="#dirArrow" transform="translate(30 24)" onmousedown="handlePan(0,-1)">
                  <use xlink:href="#rim" fill="#404040">
                        <set attributeName="fill" to="#808080" begin="arrowUp.mouseover" end="arrowUp.mouseout"/>
                  </use>
                  <path fill="none" stroke="white" stroke-width="1.5" d="M0,-3.0v7 M-2.5,-0.5L0,-3.0L2.5,-0.5"/>
                </g>
                <g id="arrowRight" xlink:href="#dirArrow" transform="rotate(90) translate(36 -43)" onmousedown="handlePan(1,0)">
                  <use xlink:href="#rim" fill="#404040">
                        <set attributeName="fill" to="#808080" begin="arrowRight.mouseover" end="arrowRight.mouseout"/>
                  </use>
                  <path fill="none" stroke="white" stroke-width="1.5" d="M0,-3.0v7 M-2.5,-0.5L0,-3.0L2.5,-0.5"/>
                </g>
                <g id="arrowDown" xlink:href="#dirArrow" transform="rotate(180) translate(-30 -48)" onmousedown="handlePan(0,1)">
                  <use xlink:href="#rim" fill="#404040">
                        <set attributeName="fill" to="#808080" begin="arrowDown.mouseover" end="arrowDown.mouseout"/>
                  </use>
                  <path fill="none" stroke="white" stroke-width="1.5" d="M0,-3.0v7 M-2.5,-0.5L0,-3.0L2.5,-0.5"/>
                </g>
                <g id="arrowLeft" xlink:href="#dirArrow" transform="rotate(270) translate(-36 17)" onmousedown="handlePan(-1,0)">
                  <use xlink:href="#rim" fill="#404040">
                        <set attributeName="fill" to="#808080" begin="arrowLeft.mouseover" end="arrowLeft.mouseout"/>
                  </use>
                  <path fill="none" stroke="white" stroke-width="1.5" d="M0,-3.0v7 M-2.5,-0.5L0,-3.0L2.5,-0.5"/>
                </g>
        </g>
        <svg viewBox="0 0 15 15" width="100%" height="30px" preserveAspectRatio="xMaxYMin meet">
         <g id="arrow_out" transform="scale(0.3 0.3)">
          <a xlink:href="class_tomographer_1_1_averaged_histogram__coll__graph_org.svg" target="_base">
           <rect id="button" ry="5" rx="5" y="6" x="6" height="38" width="38"
                fill="#f2f5e9" fill-opacity="0.5" stroke="#606060" stroke-width="1.0"/>
           <path id="arrow"
             d="M 11.500037,31.436501 C 11.940474,20.09759 22.043105,11.32322 32.158766,21.979434 L 37.068811,17.246167 C 37.068811,17.246167 37.088388,32 37.088388,32 L 22.160133,31.978069 C 22.160133,31.978069 26.997745,27.140456 26.997745,27.140456 C 18.528582,18.264221 13.291696,25.230495 11.500037,31.436501 z"
             style="fill:#404040;"/>
          </a>
         </g>
        </svg>
</svg>
