<?xml version="1.0" encoding="UTF-8" standalone="no"?>
<!DOCTYPE svg PUBLIC "-//W3C//DTD SVG 1.1//EN"
 "http://www.w3.org/Graphics/SVG/1.1/DTD/svg11.dtd">
<!-- Generated by graphviz version 2.38.0 (20140413.2041)
 -->
<!-- Title: Tomographer::Logger::LocalLogger&lt; BaseLoggerType_ &gt; Pages: 1 -->
<svg width="224pt" height="198pt"
 viewBox="0.00 0.00 224.50 198.00" xmlns="http://www.w3.org/2000/svg" xmlns:xlink="http://www.w3.org/1999/xlink">
<g id="graph0" class="graph" transform="scale(1 1) rotate(0) translate(4 194)">
<title>Tomographer::Logger::LocalLogger&lt; BaseLoggerType_ &gt;</title>
<!-- Node4 -->
<g id="node1" class="node"><title>Node4</title>
<polygon fill="#bfbfbf" stroke="black" points="0,-0.5 0,-28.5 175.014,-28.5 175.014,-0.5 0,-0.5"/>
<text text-anchor="start" x="8" y="-16.5" font-family="Helvetica,sans-Serif" font-size="10.00">Tomographer::Logger</text>
<text text-anchor="middle" x="87.5068" y="-6.5" font-family="Helvetica,sans-Serif" font-size="10.00">::LocalLogger&lt; BaseLoggerType_ &gt;</text>
</g>
<!-- Node5 -->
<g id="node2" class="node"><title>Node5</title>
<g id="a_node2"><a xlink:href="class_tomographer_1_1_logger_1_1_logger_base.html" target="_top" xlink:title="Tomographer::Logger\l::LoggerBase\&lt; LocalLogger\l\&lt; BaseLoggerType_ \&gt; \&gt;">
<polygon fill="none" stroke="black" points="17.9321,-66.5 17.9321,-104.5 157.082,-104.5 157.082,-66.5 17.9321,-66.5"/>
<text text-anchor="start" x="25.9321" y="-92.5" font-family="Helvetica,sans-Serif" font-size="10.00">Tomographer::Logger</text>
<text text-anchor="start" x="25.9321" y="-82.5" font-family="Helvetica,sans-Serif" font-size="10.00">::LoggerBase&lt; LocalLogger</text>
<text text-anchor="middle" x="87.5068" y="-72.5" font-family="Helvetica,sans-Serif" font-size="10.00">&lt; BaseLoggerType_ &gt; &gt;</text>
</a>
</g>
</g>
<!-- Node5&#45;&gt;Node4 -->
<g id="edge1" class="edge"><title>Node5&#45;&gt;Node4</title>
<path fill="none" stroke="midnightblue" d="M87.5068,-56.087C87.5068,-46.5981 87.5068,-36.4748 87.5068,-28.7121"/>
<polygon fill="midnightblue" stroke="midnightblue" points="84.0069,-56.371 87.5068,-66.3711 91.0069,-56.3711 84.0069,-56.371"/>
</g>
<!-- Node6 -->
<g id="node3" class="node"><title>Node6</title>
<g id="a_node3"><a xlink:href="class_tomographer_1_1_logger_1_1_logger_base.html" target="_top" xlink:title="Base logger class. ">
<polygon fill="none" stroke="black" points="23.916,-161.5 23.916,-189.5 151.098,-189.5 151.098,-161.5 23.916,-161.5"/>
<text text-anchor="start" x="31.916" y="-177.5" font-family="Helvetica,sans-Serif" font-size="10.00">Tomographer::Logger</text>
<text text-anchor="middle" x="87.5068" y="-167.5" font-family="Helvetica,sans-Serif" font-size="10.00">::LoggerBase&lt; Derived &gt;</text>
</a>
</g>
</g>
<!-- Node6&#45;&gt;Node5 -->
<g id="edge2" class="edge"><title>Node6&#45;&gt;Node5</title>
<path fill="none" stroke="orange" stroke-dasharray="5,2" d="M87.5068,-150.898C87.5068,-136.346 87.5068,-117.972 87.5068,-104.579"/>
<polygon fill="orange" stroke="orange" points="84.0069,-151.135 87.5068,-161.135 91.0069,-151.135 84.0069,-151.135"/>
<text text-anchor="start" x="87.5068" y="-135" font-family="Helvetica,sans-Serif" font-size="10.00"> &lt; LocalLogger&lt; BaseLogger</text>
<text text-anchor="middle" x="152.001" y="-125" font-family="Helvetica,sans-Serif" font-size="10.00">Type_ &gt; &gt;</text>
</g>
</g>
</svg>
