<?xml version="1.0" encoding="UTF-8" standalone="no"?>
<!DOCTYPE svg PUBLIC "-//W3C//DTD SVG 1.1//EN"
 "http://www.w3.org/Graphics/SVG/1.1/DTD/svg11.dtd">
<!-- Generated by graphviz version 2.38.0 (20140413.2041)
 -->
<!-- Title: Tomographer::AveragedHistogram&lt; HistogramType_, RealAvgType &gt; Pages: 1 -->
<svg width="1357pt" height="141pt"
 viewBox="0.00 0.00 1357.29 141.00" xmlns="http://www.w3.org/2000/svg" xmlns:xlink="http://www.w3.org/1999/xlink">
<g id="graph0" class="graph" transform="scale(1 1) rotate(0) translate(4 137)">
<title>Tomographer::AveragedHistogram&lt; HistogramType_, RealAvgType &gt;</title>
<!-- Node0 -->
<g id="node1" class="node"><title>Node0</title>
<polygon fill="#bfbfbf" stroke="black" points="794.251,-52.5 794.251,-80.5 965.163,-80.5 965.163,-52.5 794.251,-52.5"/>
<text text-anchor="start" x="802.251" y="-68.5" font-family="Helvetica,sans-Serif" font-size="10.00">Tomographer::AveragedHistogram</text>
<text text-anchor="middle" x="879.707" y="-58.5" font-family="Helvetica,sans-Serif" font-size="10.00">&lt; HistogramType_, RealAvgType &gt;</text>
</g>
<!-- Node5 -->
<g id="node6" class="node"><title>Node5</title>
<g id="a_node6"><a xlink:href="class_tomographer_1_1_averaged_histogram.html" target="_top" xlink:title="Tomographer::AveragedHistogram\l\&lt; ScaledHistogramType, CountRealType \&gt;">
<polygon fill="none" stroke="black" points="1143.73,-104.5 1143.73,-132.5 1349.29,-132.5 1349.29,-104.5 1143.73,-104.5"/>
<text text-anchor="start" x="1151.73" y="-120.5" font-family="Helvetica,sans-Serif" font-size="10.00">Tomographer::AveragedHistogram</text>
<text text-anchor="middle" x="1246.51" y="-110.5" font-family="Helvetica,sans-Serif" font-size="10.00">&lt; ScaledHistogramType, CountRealType &gt;</text>
</a>
</g>
</g>
<!-- Node0&#45;&gt;Node5 -->
<g id="edge6" class="edge"><title>Node0&#45;&gt;Node5</title>
<path fill="none" stroke="orange" stroke-dasharray="5,2" d="M944.929,-82.8257C957.547,-85.6699 970.728,-88.3883 983.163,-90.5 1035.77,-99.434 1094.83,-106.035 1143.57,-110.577"/>
<polygon fill="orange" stroke="orange" points="945.485,-79.3621 934.954,-80.5269 943.913,-86.1833 945.485,-79.3621"/>
<text text-anchor="start" x="998.446" y="-120.5" font-family="Helvetica,sans-Serif" font-size="10.00"> &lt; ScaledHistogramType,</text>
<text text-anchor="middle" x="1054.45" y="-110.5" font-family="Helvetica,sans-Serif" font-size="10.00"> CountRealType &gt;</text>
</g>
<!-- Node6 -->
<g id="node7" class="node"><title>Node6</title>
<g id="a_node7"><a xlink:href="class_tomographer_1_1_averaged_histogram.html" target="_top" xlink:title="Tomographer::AveragedHistogram\l\&lt; SimpleScaledHistogramType,\l double \&gt;">
<polygon fill="none" stroke="black" points="1162.17,-47.5 1162.17,-85.5 1330.85,-85.5 1330.85,-47.5 1162.17,-47.5"/>
<text text-anchor="start" x="1170.17" y="-73.5" font-family="Helvetica,sans-Serif" font-size="10.00">Tomographer::AveragedHistogram</text>
<text text-anchor="start" x="1170.17" y="-63.5" font-family="Helvetica,sans-Serif" font-size="10.00">&lt; SimpleScaledHistogramType,</text>
<text text-anchor="middle" x="1246.51" y="-53.5" font-family="Helvetica,sans-Serif" font-size="10.00"> double &gt;</text>
</a>
</g>
</g>
<!-- Node0&#45;&gt;Node6 -->
<g id="edge7" class="edge"><title>Node0&#45;&gt;Node6</title>
<path fill="none" stroke="orange" stroke-dasharray="5,2" d="M975.547,-66.5C1033.31,-66.5 1106.42,-66.5 1161.99,-66.5"/>
<polygon fill="orange" stroke="orange" points="975.317,-63.0001 965.317,-66.5 975.317,-70.0001 975.317,-63.0001"/>
<text text-anchor="start" x="983.163" y="-78.5" font-family="Helvetica,sans-Serif" font-size="10.00"> &lt; SimpleScaledHistogramType,</text>
<text text-anchor="middle" x="1054.45" y="-68.5" font-family="Helvetica,sans-Serif" font-size="10.00"> double &gt;</text>
</g>
<!-- Node7 -->
<g id="node8" class="node"><title>Node7</title>
<g id="a_node8"><a xlink:href="class_tomographer_1_1_averaged_histogram.html" target="_top" xlink:title="Tomographer::AveragedHistogram\l\&lt; HistogramType, CountRealType \&gt;">
<polygon fill="none" stroke="black" points="1159.02,-0.5 1159.02,-28.5 1334,-28.5 1334,-0.5 1159.02,-0.5"/>
<text text-anchor="start" x="1167.02" y="-16.5" font-family="Helvetica,sans-Serif" font-size="10.00">Tomographer::AveragedHistogram</text>
<text text-anchor="middle" x="1246.51" y="-6.5" font-family="Helvetica,sans-Serif" font-size="10.00">&lt; HistogramType, CountRealType &gt;</text>
</a>
</g>
</g>
<!-- Node0&#45;&gt;Node7 -->
<g id="edge8" class="edge"><title>Node0&#45;&gt;Node7</title>
<path fill="none" stroke="orange" stroke-dasharray="5,2" d="M944.929,-50.1743C957.547,-47.3301 970.728,-44.6117 983.163,-42.5 1041.42,-32.6074 1107.58,-25.5749 1158.88,-21.032"/>
<polygon fill="orange" stroke="orange" points="943.913,-46.8167 934.954,-52.4731 945.485,-53.6379 943.913,-46.8167"/>
<text text-anchor="start" x="988.72" y="-54.5" font-family="Helvetica,sans-Serif" font-size="10.00"> &lt; HistogramType, CountReal</text>
<text text-anchor="middle" x="1054.45" y="-44.5" font-family="Helvetica,sans-Serif" font-size="10.00">Type &gt;</text>
</g>
<!-- Node1 -->
<g id="node2" class="node"><title>Node1</title>
<g id="a_node2"><a xlink:href="class_tomographer_1_1_uniform_bins_histogram_with_error_bars.html" target="_top" xlink:title="Tomographer::UniformBins\lHistogramWithErrorBars\l\&lt; HistogramType_::Scalar,\l RealAvgType \&gt;">
<polygon fill="none" stroke="black" points="622.315,-42.5 622.315,-90.5 757.251,-90.5 757.251,-42.5 622.315,-42.5"/>
<text text-anchor="start" x="630.315" y="-78.5" font-family="Helvetica,sans-Serif" font-size="10.00">Tomographer::UniformBins</text>
<text text-anchor="start" x="630.315" y="-68.5" font-family="Helvetica,sans-Serif" font-size="10.00">HistogramWithErrorBars</text>
<text text-anchor="start" x="630.315" y="-58.5" font-family="Helvetica,sans-Serif" font-size="10.00">&lt; HistogramType_::Scalar,</text>
<text text-anchor="middle" x="689.783" y="-48.5" font-family="Helvetica,sans-Serif" font-size="10.00"> RealAvgType &gt;</text>
</a>
</g>
</g>
<!-- Node1&#45;&gt;Node0 -->
<g id="edge1" class="edge"><title>Node1&#45;&gt;Node0</title>
<path fill="none" stroke="midnightblue" d="M767.504,-66.5C776.292,-66.5 785.288,-66.5 794.171,-66.5"/>
<polygon fill="midnightblue" stroke="midnightblue" points="767.303,-63.0001 757.303,-66.5 767.303,-70.0001 767.303,-63.0001"/>
</g>
<!-- Node2 -->
<g id="node3" class="node"><title>Node2</title>
<g id="a_node3"><a xlink:href="class_tomographer_1_1_uniform_bins_histogram.html" target="_top" xlink:title="Tomographer::UniformBins\lHistogram\&lt; HistogramType\l_::Scalar, RealAvgType \&gt;">
<polygon fill="none" stroke="black" points="328.538,-76.5 328.538,-114.5 465.974,-114.5 465.974,-76.5 328.538,-76.5"/>
<text text-anchor="start" x="336.538" y="-102.5" font-family="Helvetica,sans-Serif" font-size="10.00">Tomographer::UniformBins</text>
<text text-anchor="start" x="336.538" y="-92.5" font-family="Helvetica,sans-Serif" font-size="10.00">Histogram&lt; HistogramType</text>
<text text-anchor="middle" x="397.256" y="-82.5" font-family="Helvetica,sans-Serif" font-size="10.00">_::Scalar, RealAvgType &gt;</text>
</a>
</g>
</g>
<!-- Node2&#45;&gt;Node1 -->
<g id="edge2" class="edge"><title>Node2&#45;&gt;Node1</title>
<path fill="none" stroke="midnightblue" d="M476.143,-88.1143C514.711,-84.4128 561.972,-79.8106 604.315,-75.5 610.037,-74.9175 615.976,-74.3036 621.933,-73.6814"/>
<polygon fill="midnightblue" stroke="midnightblue" points="475.642,-84.6462 466.021,-89.0843 476.31,-91.6143 475.642,-84.6462"/>
</g>
<!-- Node3 -->
<g id="node4" class="node"><title>Node3</title>
<g id="a_node4"><a xlink:href="class_tomographer_1_1_uniform_bins_histogram.html" target="_top" xlink:title="Stores a histogram. ">
<polygon fill="none" stroke="black" points="0,-55.5 0,-83.5 172.196,-83.5 172.196,-55.5 0,-55.5"/>
<text text-anchor="start" x="8" y="-71.5" font-family="Helvetica,sans-Serif" font-size="10.00">Tomographer::UniformBins</text>
<text text-anchor="middle" x="86.0981" y="-61.5" font-family="Helvetica,sans-Serif" font-size="10.00">Histogram&lt; Scalar_, CountType_ &gt;</text>
</a>
</g>
</g>
<!-- Node3&#45;&gt;Node2 -->
<g id="edge3" class="edge"><title>Node3&#45;&gt;Node2</title>
<path fill="none" stroke="orange" stroke-dasharray="5,2" d="M182.631,-77.5343C229.806,-81.5016 285.615,-86.1951 328.358,-89.7898"/>
<polygon fill="orange" stroke="orange" points="182.653,-74.0239 172.395,-76.6734 182.067,-80.9993 182.653,-74.0239"/>
<text text-anchor="start" x="190.196" y="-99.5" font-family="Helvetica,sans-Serif" font-size="10.00"> &lt; HistogramType_::Scalar,</text>
<text text-anchor="middle" x="250.367" y="-89.5" font-family="Helvetica,sans-Serif" font-size="10.00"> RealAvgType &gt;</text>
</g>
<!-- Node4 -->
<g id="node5" class="node"><title>Node4</title>
<g id="a_node5"><a xlink:href="class_tomographer_1_1_uniform_bins_histogram_with_error_bars.html" target="_top" xlink:title="Stores a histogram along with error bars. ">
<polygon fill="none" stroke="black" points="329.788,-19.5 329.788,-57.5 464.724,-57.5 464.724,-19.5 329.788,-19.5"/>
<text text-anchor="start" x="337.788" y="-45.5" font-family="Helvetica,sans-Serif" font-size="10.00">Tomographer::UniformBins</text>
<text text-anchor="start" x="337.788" y="-35.5" font-family="Helvetica,sans-Serif" font-size="10.00">HistogramWithErrorBars</text>
<text text-anchor="middle" x="397.256" y="-25.5" font-family="Helvetica,sans-Serif" font-size="10.00">&lt; Scalar_, CountType_ &gt;</text>
</a>
</g>
</g>
<!-- Node3&#45;&gt;Node4 -->
<g id="edge5" class="edge"><title>Node3&#45;&gt;Node4</title>
<path fill="none" stroke="midnightblue" d="M182.408,-59.943C229.998,-55.1711 286.419,-49.5136 329.356,-45.2082"/>
<polygon fill="midnightblue" stroke="midnightblue" points="181.996,-56.4667 172.395,-60.9471 182.695,-63.4318 181.996,-56.4667"/>
</g>
<!-- Node4&#45;&gt;Node1 -->
<g id="edge4" class="edge"><title>Node4&#45;&gt;Node1</title>
<path fill="none" stroke="orange" stroke-dasharray="5,2" d="M475.312,-43.9903C514.059,-46.9712 561.719,-50.9718 604.315,-55.5 610.051,-56.1097 615.999,-56.7889 621.962,-57.5023"/>
<polygon fill="orange" stroke="orange" points="475.385,-40.4858 465.148,-43.2159 474.853,-47.4655 475.385,-40.4858"/>
<text text-anchor="start" x="483.974" y="-67.5" font-family="Helvetica,sans-Serif" font-size="10.00"> &lt; HistogramType_::Scalar,</text>
<text text-anchor="middle" x="544.145" y="-57.5" font-family="Helvetica,sans-Serif" font-size="10.00"> RealAvgType &gt;</text>
</g>
</g>
</svg>
