<?xml version="1.0" encoding="UTF-8" standalone="no"?>
<!DOCTYPE svg PUBLIC "-//W3C//DTD SVG 1.1//EN"
 "http://www.w3.org/Graphics/SVG/1.1/DTD/svg11.dtd">
<!-- Generated by graphviz version 2.38.0 (20140413.2041)
 -->
<!-- Title: Tomographer::MAT::VarError Pages: 1 -->
<svg width="629pt" height="131pt"
 viewBox="0.00 0.00 629.29 131.00" xmlns="http://www.w3.org/2000/svg" xmlns:xlink="http://www.w3.org/1999/xlink">
<g id="graph0" class="graph" transform="scale(1 1) rotate(0) translate(4 127)">
<title>Tomographer::MAT::VarError</title>
<!-- Node0 -->
<g id="node1" class="node"><title>Node0</title>
<polygon fill="#bfbfbf" stroke="black" points="298.917,-52.5 298.917,-70.5 441.26,-70.5 441.26,-52.5 298.917,-52.5"/>
<text text-anchor="middle" x="370.088" y="-58.5" font-family="Helvetica,sans-Serif" font-size="10.00">Tomographer::MAT::VarError</text>
</g>
<!-- Node3 -->
<g id="node4" class="node"><title>Node3</title>
<g id="a_node4"><a xlink:href="class_tomographer_1_1_m_a_t_1_1_var_mat_type_error.html" target="_top" xlink:title="Unknown type of a variable present in the data file. ">
<polygon fill="none" stroke="black" points="480.878,-94.5 480.878,-122.5 617.669,-122.5 617.669,-94.5 480.878,-94.5"/>
<text text-anchor="start" x="488.878" y="-110.5" font-family="Helvetica,sans-Serif" font-size="10.00">Tomographer::MAT::VarMat</text>
<text text-anchor="middle" x="549.273" y="-100.5" font-family="Helvetica,sans-Serif" font-size="10.00">TypeError</text>
</a>
</g>
</g>
<!-- Node0&#45;&gt;Node3 -->
<g id="edge3" class="edge"><title>Node0&#45;&gt;Node3</title>
<path fill="none" stroke="midnightblue" d="M414.936,-73.1309C439.276,-79.5875 469.727,-87.6649 495.382,-94.4701"/>
<polygon fill="midnightblue" stroke="midnightblue" points="415.815,-69.7431 405.251,-70.5621 414.02,-76.5091 415.815,-69.7431"/>
</g>
<!-- Node4 -->
<g id="node5" class="node"><title>Node4</title>
<g id="a_node5"><a xlink:href="class_tomographer_1_1_m_a_t_1_1_var_read_error.html" target="_top" xlink:title="Error while reading a variable from the MATLAB data file. ">
<polygon fill="none" stroke="black" points="477.26,-47.5 477.26,-75.5 621.287,-75.5 621.287,-47.5 477.26,-47.5"/>
<text text-anchor="start" x="485.26" y="-63.5" font-family="Helvetica,sans-Serif" font-size="10.00">Tomographer::MAT::VarRead</text>
<text text-anchor="middle" x="549.273" y="-53.5" font-family="Helvetica,sans-Serif" font-size="10.00">Error</text>
</a>
</g>
</g>
<!-- Node0&#45;&gt;Node4 -->
<g id="edge4" class="edge"><title>Node0&#45;&gt;Node4</title>
<path fill="none" stroke="midnightblue" d="M451.404,-61.5C460.009,-61.5 468.719,-61.5 477.206,-61.5"/>
<polygon fill="midnightblue" stroke="midnightblue" points="451.371,-58.0001 441.371,-61.5 451.371,-65.0001 451.371,-58.0001"/>
</g>
<!-- Node5 -->
<g id="node6" class="node"><title>Node5</title>
<g id="a_node6"><a xlink:href="class_tomographer_1_1_m_a_t_1_1_var_type_error.html" target="_top" xlink:title="Type mismatch (wrong type requested) in a variable read from the MATLAB data file. ">
<polygon fill="none" stroke="black" points="478.371,-0.5 478.371,-28.5 620.176,-28.5 620.176,-0.5 478.371,-0.5"/>
<text text-anchor="start" x="486.371" y="-16.5" font-family="Helvetica,sans-Serif" font-size="10.00">Tomographer::MAT::VarType</text>
<text text-anchor="middle" x="549.273" y="-6.5" font-family="Helvetica,sans-Serif" font-size="10.00">Error</text>
</a>
</g>
</g>
<!-- Node0&#45;&gt;Node5 -->
<g id="edge5" class="edge"><title>Node0&#45;&gt;Node5</title>
<path fill="none" stroke="midnightblue" d="M414.936,-49.8691C439.276,-43.4125 469.727,-35.3351 495.382,-28.5299"/>
<polygon fill="midnightblue" stroke="midnightblue" points="414.02,-46.4909 405.251,-52.4379 415.815,-53.2569 414.02,-46.4909"/>
</g>
<!-- Node1 -->
<g id="node2" class="node"><title>Node1</title>
<g id="a_node2"><a xlink:href="class_tomographer_1_1_m_a_t_1_1_exception.html" target="_top" xlink:title="Base Exception class for errors within our MAT routines. ">
<polygon fill="none" stroke="black" points="113.704,-52.5 113.704,-70.5 262.917,-70.5 262.917,-52.5 113.704,-52.5"/>
<text text-anchor="middle" x="188.311" y="-58.5" font-family="Helvetica,sans-Serif" font-size="10.00">Tomographer::MAT::Exception</text>
</a>
</g>
</g>
<!-- Node1&#45;&gt;Node0 -->
<g id="edge1" class="edge"><title>Node1&#45;&gt;Node0</title>
<path fill="none" stroke="midnightblue" d="M273.007,-61.5C281.618,-61.5 290.305,-61.5 298.751,-61.5"/>
<polygon fill="midnightblue" stroke="midnightblue" points="272.952,-58.0001 262.952,-61.5 272.952,-65.0001 272.952,-58.0001"/>
</g>
<!-- Node2 -->
<g id="node3" class="node"><title>Node2</title>
<g id="a_node3"><a doxygen="/Users/philippe/Research/projects/tomographer/doc/cppreference-doxygen-web.tag.xml:http://en.cppreference.com/w/" xlink:href="http://en.cppreference.com/w/cpp/error/exception.html" target="_top" xlink:title="STL class. ">
<polygon fill="none" stroke="black" points="0,-52.5 0,-70.5 77.7041,-70.5 77.7041,-52.5 0,-52.5"/>
<text text-anchor="middle" x="38.8521" y="-58.5" font-family="Helvetica,sans-Serif" font-size="10.00">std::exception</text>
</a>
</g>
</g>
<!-- Node2&#45;&gt;Node1 -->
<g id="edge2" class="edge"><title>Node2&#45;&gt;Node1</title>
<path fill="none" stroke="midnightblue" d="M87.9645,-61.5C96.2032,-61.5 104.929,-61.5 113.654,-61.5"/>
<polygon fill="midnightblue" stroke="midnightblue" points="87.8263,-58.0001 77.8263,-61.5 87.8262,-65.0001 87.8263,-58.0001"/>
</g>
</g>
</svg>
