<?xml version="1.0" encoding="UTF-8" standalone="no"?>
<!DOCTYPE svg PUBLIC "-//W3C//DTD SVG 1.1//EN"
 "http://www.w3.org/Graphics/SVG/1.1/DTD/svg11.dtd">
<!-- Generated by graphviz version 2.38.0 (20140413.2041)
 -->
<!-- Title: tomographer/mhrw.h Pages: 1 -->
<svg width="1348pt" height="377pt"
 viewBox="0.00 0.00 1348.33 377.00" xmlns="http://www.w3.org/2000/svg" xmlns:xlink="http://www.w3.org/1999/xlink">
<g id="graph0" class="graph" transform="scale(1 1) rotate(0) translate(4 373)">
<title>tomographer/mhrw.h</title>
<!-- Node0 -->
<g id="node1" class="node"><title>Node0</title>
<polygon fill="#bfbfbf" stroke="black" points="574.507,-350.5 574.507,-368.5 682.221,-368.5 682.221,-350.5 574.507,-350.5"/>
<text text-anchor="middle" x="628.364" y="-356.5" font-family="Helvetica,sans-Serif" font-size="10.00">tomographer/mhrw.h</text>
</g>
<!-- Node1 -->
<g id="node2" class="node"><title>Node1</title>
<polygon fill="none" stroke="#bfbfbf" points="783.243,-0.5 783.243,-18.5 831.485,-18.5 831.485,-0.5 783.243,-0.5"/>
<text text-anchor="middle" x="807.364" y="-6.5" font-family="Helvetica,sans-Serif" font-size="10.00">cstddef</text>
</g>
<!-- Node0&#45;&gt;Node1 -->
<g id="edge1" class="edge"><title>Node0&#45;&gt;Node1</title>
<path fill="none" stroke="midnightblue" d="M682.388,-354.859C848.311,-342.963 1339.36,-302.128 1339.36,-235.5 1339.36,-235.5 1339.36,-235.5 1339.36,-118.5 1339.36,-89.0415 1343.21,-73.5987 1320.36,-55 1283.34,-24.8555 950.848,-14.0326 841.818,-11.276"/>
<polygon fill="midnightblue" stroke="midnightblue" points="841.772,-7.77394 831.689,-11.0271 841.6,-14.7718 841.772,-7.77394"/>
</g>
<!-- Node2 -->
<g id="node3" class="node"><title>Node2</title>
<polygon fill="none" stroke="#bfbfbf" points="424.977,-290.5 424.977,-308.5 463.751,-308.5 463.751,-290.5 424.977,-290.5"/>
<text text-anchor="middle" x="444.364" y="-296.5" font-family="Helvetica,sans-Serif" font-size="10.00">limits</text>
</g>
<!-- Node0&#45;&gt;Node2 -->
<g id="edge2" class="edge"><title>Node0&#45;&gt;Node2</title>
<path fill="none" stroke="midnightblue" d="M593.73,-350.435C561.746,-342.563 513.164,-329.524 472.364,-314 471.33,-313.607 470.282,-313.19 469.229,-312.755"/>
<polygon fill="midnightblue" stroke="midnightblue" points="470.411,-309.449 459.854,-308.551 467.546,-315.837 470.411,-309.449"/>
</g>
<!-- Node3 -->
<g id="node4" class="node"><title>Node3</title>
<polygon fill="none" stroke="#bfbfbf" points="481.411,-290.5 481.411,-308.5 531.317,-308.5 531.317,-290.5 481.411,-290.5"/>
<text text-anchor="middle" x="506.364" y="-296.5" font-family="Helvetica,sans-Serif" font-size="10.00">random</text>
</g>
<!-- Node0&#45;&gt;Node3 -->
<g id="edge3" class="edge"><title>Node0&#45;&gt;Node3</title>
<path fill="none" stroke="midnightblue" d="M611.4,-350.435C591.03,-340.751 556.629,-324.397 532.773,-313.055"/>
<polygon fill="midnightblue" stroke="midnightblue" points="534.111,-309.816 523.577,-308.683 531.105,-316.138 534.111,-309.816"/>
</g>
<!-- Node4 -->
<g id="node5" class="node"><title>Node4</title>
<polygon fill="none" stroke="#bfbfbf" points="548.854,-290.5 548.854,-308.5 599.874,-308.5 599.874,-290.5 548.854,-290.5"/>
<text text-anchor="middle" x="574.364" y="-296.5" font-family="Helvetica,sans-Serif" font-size="10.00">iomanip</text>
</g>
<!-- Node0&#45;&gt;Node4 -->
<g id="edge4" class="edge"><title>Node0&#45;&gt;Node4</title>
<path fill="none" stroke="midnightblue" d="M620.856,-350.435C612.647,-341.619 599.292,-327.274 588.997,-316.217"/>
<polygon fill="midnightblue" stroke="midnightblue" points="591.534,-313.806 582.158,-308.872 586.411,-318.576 591.534,-313.806"/>
</g>
<!-- Node5 -->
<g id="node6" class="node"><title>Node5</title>
<g id="a_node6"><a xlink:href="loggers_8h.html" target="_top" xlink:title="Utilities for logging messages. ">
<polygon fill="none" stroke="black" points="324.106,-225.5 324.106,-243.5 464.622,-243.5 464.622,-225.5 324.106,-225.5"/>
<text text-anchor="middle" x="394.364" y="-231.5" font-family="Helvetica,sans-Serif" font-size="10.00">tomographer/tools/loggers.h</text>
</a>
</g>
</g>
<!-- Node0&#45;&gt;Node5 -->
<g id="edge5" class="edge"><title>Node0&#45;&gt;Node5</title>
<path fill="none" stroke="midnightblue" d="M628.795,-350.326C629.117,-335.17 627.495,-302.653 609.364,-285 589.931,-266.079 526.2,-252.943 473.13,-244.983"/>
<polygon fill="midnightblue" stroke="midnightblue" points="473.417,-241.488 463.017,-243.508 472.407,-248.414 473.417,-241.488"/>
</g>
<!-- Node15 -->
<g id="node16" class="node"><title>Node15</title>
<g id="a_node16"><a xlink:href="fmt_8h.html" target="_top" xlink:title="Utilities for formatting strings. ">
<polygon fill="none" stroke="black" points="46.5613,-165.5 46.5613,-183.5 168.167,-183.5 168.167,-165.5 46.5613,-165.5"/>
<text text-anchor="middle" x="107.364" y="-171.5" font-family="Helvetica,sans-Serif" font-size="10.00">tomographer/tools/fmt.h</text>
</a>
</g>
</g>
<!-- Node0&#45;&gt;Node15 -->
<g id="edge40" class="edge"><title>Node0&#45;&gt;Node15</title>
<path fill="none" stroke="midnightblue" d="M574.388,-350.458C531.04,-343.22 468.942,-331.082 416.364,-314 306.06,-278.163 182.253,-215.307 131.264,-188.359"/>
<polygon fill="midnightblue" stroke="midnightblue" points="132.809,-185.217 122.336,-183.613 129.523,-191.398 132.809,-185.217"/>
</g>
<!-- Node18 -->
<g id="node19" class="node"><title>Node18</title>
<g id="a_node19"><a xlink:href="cxxutil_8h.html" target="_top" xlink:title="Some C++ utilities, with a tad of C++11 tricks. ">
<polygon fill="none" stroke="black" points="540.613,-110.5 540.613,-128.5 676.115,-128.5 676.115,-110.5 540.613,-110.5"/>
<text text-anchor="middle" x="608.364" y="-116.5" font-family="Helvetica,sans-Serif" font-size="10.00">tomographer/tools/cxxutil.h</text>
</a>
</g>
</g>
<!-- Node0&#45;&gt;Node18 -->
<g id="edge41" class="edge"><title>Node0&#45;&gt;Node18</title>
<path fill="none" stroke="midnightblue" d="M631.636,-350.427C642.148,-323.241 672.917,-232.926 647.364,-165 643.132,-153.75 634.622,-143.489 626.629,-135.662"/>
<polygon fill="midnightblue" stroke="midnightblue" points="628.735,-132.846 618.985,-128.7 624.021,-138.021 628.735,-132.846"/>
</g>
<!-- Node27 -->
<g id="node28" class="node"><title>Node27</title>
<g id="a_node28"><a xlink:href="mhrw__bin__err_8h.html" target="_top" xlink:title="Binning Analysis in a Metropolis&#45;Hastings random walk. ">
<polygon fill="none" stroke="black" points="711.95,-285.5 711.95,-313.5 830.778,-313.5 830.778,-285.5 711.95,-285.5"/>
<text text-anchor="start" x="719.95" y="-301.5" font-family="Helvetica,sans-Serif" font-size="10.00">tomographer/mhrw_bin</text>
<text text-anchor="middle" x="771.364" y="-291.5" font-family="Helvetica,sans-Serif" font-size="10.00">_err.h</text>
</a>
</g>
</g>
<!-- Node0&#45;&gt;Node27 -->
<g id="edge42" class="edge"><title>Node0&#45;&gt;Node27</title>
<path fill="none" stroke="midnightblue" d="M648.248,-350.435C669.231,-341.925 702.914,-328.263 729.748,-317.379"/>
<polygon fill="midnightblue" stroke="midnightblue" points="731.337,-320.512 739.289,-313.51 728.706,-314.025 731.337,-320.512"/>
</g>
<!-- Node32 -->
<g id="node33" class="node"><title>Node32</title>
<g id="a_node33"><a xlink:href="needownoperatornew_8h.html" target="_top" xlink:title="Managing the need for specific overrides to operator new() for some types (especially Eigen types) ...">
<polygon fill="none" stroke="black" points="861.687,-225.5 861.687,-243.5 1065.04,-243.5 1065.04,-225.5 861.687,-225.5"/>
<text text-anchor="middle" x="963.364" y="-231.5" font-family="Helvetica,sans-Serif" font-size="10.00">tomographer/tools/needownoperatornew.h</text>
</a>
</g>
</g>
<!-- Node0&#45;&gt;Node32 -->
<g id="edge56" class="edge"><title>Node0&#45;&gt;Node32</title>
<path fill="none" stroke="midnightblue" d="M682.375,-352.502C725.955,-346.4 788.209,-334.796 839.364,-314 879.997,-297.482 922.054,-267.682 945.247,-249.932"/>
<polygon fill="midnightblue" stroke="midnightblue" points="947.694,-252.463 953.438,-243.56 943.396,-246.938 947.694,-252.463"/>
</g>
<!-- Node6 -->
<g id="node7" class="node"><title>Node6</title>
<polygon fill="none" stroke="#bfbfbf" points="212.303,-110.5 212.303,-128.5 254.426,-128.5 254.426,-110.5 212.303,-110.5"/>
<text text-anchor="middle" x="233.364" y="-116.5" font-family="Helvetica,sans-Serif" font-size="10.00">cstdio</text>
</g>
<!-- Node5&#45;&gt;Node6 -->
<g id="edge6" class="edge"><title>Node5&#45;&gt;Node6</title>
<path fill="none" stroke="midnightblue" d="M338.005,-225.441C291.321,-217.476 230.301,-203.628 215.364,-184 204.99,-170.368 212.871,-151.002 221.224,-137.248"/>
<polygon fill="midnightblue" stroke="midnightblue" points="224.244,-139.028 226.864,-128.762 218.414,-135.153 224.244,-139.028"/>
</g>
<!-- Node7 -->
<g id="node8" class="node"><title>Node7</title>
<polygon fill="none" stroke="#bfbfbf" points="271.968,-110.5 271.968,-128.5 320.761,-128.5 320.761,-110.5 271.968,-110.5"/>
<text text-anchor="middle" x="296.364" y="-116.5" font-family="Helvetica,sans-Serif" font-size="10.00">cstdarg</text>
</g>
<!-- Node5&#45;&gt;Node7 -->
<g id="edge7" class="edge"><title>Node5&#45;&gt;Node7</title>
<path fill="none" stroke="midnightblue" d="M382.281,-225.423C369.365,-216.385 348.802,-200.793 334.364,-184 322.217,-169.871 311.637,-151.37 304.747,-137.986"/>
<polygon fill="midnightblue" stroke="midnightblue" points="307.818,-136.302 300.233,-128.906 301.55,-139.418 307.818,-136.302"/>
</g>
<!-- Node8 -->
<g id="node9" class="node"><title>Node8</title>
<polygon fill="none" stroke="#bfbfbf" points="126.138,-0.5 126.138,-18.5 166.591,-18.5 166.591,-0.5 126.138,-0.5"/>
<text text-anchor="middle" x="146.364" y="-6.5" font-family="Helvetica,sans-Serif" font-size="10.00">string</text>
</g>
<!-- Node5&#45;&gt;Node8 -->
<g id="edge8" class="edge"><title>Node5&#45;&gt;Node8</title>
<path fill="none" stroke="midnightblue" d="M323.741,-231.041C233.261,-226.661 82.6885,-214.853 37.3641,-184 7.88707,-163.935 -9.99001,-141.687 6.36406,-110 29.4537,-65.2628 82.9808,-36.2571 116.755,-21.6913"/>
<polygon fill="midnightblue" stroke="midnightblue" points="118.237,-24.8655 126.131,-17.7986 115.553,-18.4005 118.237,-24.8655"/>
</g>
<!-- Node9 -->
<g id="node10" class="node"><title>Node9</title>
<polygon fill="none" stroke="#bfbfbf" points="387.583,-110.5 387.583,-128.5 439.145,-128.5 439.145,-110.5 387.583,-110.5"/>
<text text-anchor="middle" x="413.364" y="-116.5" font-family="Helvetica,sans-Serif" font-size="10.00">sstream</text>
</g>
<!-- Node5&#45;&gt;Node9 -->
<g id="edge9" class="edge"><title>Node5&#45;&gt;Node9</title>
<path fill="none" stroke="midnightblue" d="M400.54,-225.286C407.188,-215.885 417.349,-199.746 421.364,-184 425.186,-169.01 422.485,-151.544 419.226,-138.729"/>
<polygon fill="midnightblue" stroke="midnightblue" points="422.507,-137.477 416.367,-128.842 415.783,-139.421 422.507,-137.477"/>
</g>
<!-- Node10 -->
<g id="node11" class="node"><title>Node10</title>
<polygon fill="none" stroke="#bfbfbf" points="177.192,-55.5 177.192,-73.5 231.536,-73.5 231.536,-55.5 177.192,-55.5"/>
<text text-anchor="middle" x="204.364" y="-61.5" font-family="Helvetica,sans-Serif" font-size="10.00">iostream</text>
</g>
<!-- Node5&#45;&gt;Node10 -->
<g id="edge10" class="edge"><title>Node5&#45;&gt;Node10</title>
<path fill="none" stroke="midnightblue" d="M389.906,-225.474C384.502,-215.71 375.15,-198.708 367.364,-184 350.066,-151.324 357.179,-134.356 329.364,-110 315.994,-98.2921 273.329,-84.5312 241.542,-75.4456"/>
<polygon fill="midnightblue" stroke="midnightblue" points="242.228,-72.003 231.654,-72.6686 240.335,-78.7423 242.228,-72.003"/>
</g>
<!-- Node11 -->
<g id="node12" class="node"><title>Node11</title>
<polygon fill="none" stroke="#bfbfbf" points="223.96,-165.5 223.96,-183.5 282.768,-183.5 282.768,-165.5 223.96,-165.5"/>
<text text-anchor="middle" x="253.364" y="-171.5" font-family="Helvetica,sans-Serif" font-size="10.00">functional</text>
</g>
<!-- Node5&#45;&gt;Node11 -->
<g id="edge11" class="edge"><title>Node5&#45;&gt;Node11</title>
<path fill="none" stroke="midnightblue" d="M374.759,-225.435C350.901,-215.622 310.394,-198.959 282.789,-187.604"/>
<polygon fill="midnightblue" stroke="midnightblue" points="283.837,-184.251 273.258,-183.683 281.174,-190.724 283.837,-184.251"/>
</g>
<!-- Node12 -->
<g id="node13" class="node"><title>Node12</title>
<polygon fill="none" stroke="#bfbfbf" points="835.298,-55.5 835.298,-73.5 897.43,-73.5 897.43,-55.5 835.298,-55.5"/>
<text text-anchor="middle" x="866.364" y="-61.5" font-family="Helvetica,sans-Serif" font-size="10.00">type_traits</text>
</g>
<!-- Node5&#45;&gt;Node12 -->
<g id="edge12" class="edge"><title>Node5&#45;&gt;Node12</title>
<path fill="none" stroke="midnightblue" d="M464.88,-225.529C516.497,-218.306 587.652,-205.432 647.364,-184 725.009,-156.132 808.586,-103.966 846.107,-79.2112"/>
<polygon fill="midnightblue" stroke="midnightblue" points="848.24,-81.9961 854.623,-73.5397 844.359,-76.17 848.24,-81.9961"/>
</g>
<!-- Node13 -->
<g id="node14" class="node"><title>Node13</title>
<polygon fill="none" stroke="#bfbfbf" points="376.638,-165.5 376.638,-183.5 412.091,-183.5 412.091,-165.5 376.638,-165.5"/>
<text text-anchor="middle" x="394.364" y="-171.5" font-family="Helvetica,sans-Serif" font-size="10.00">map</text>
</g>
<!-- Node5&#45;&gt;Node13 -->
<g id="edge13" class="edge"><title>Node5&#45;&gt;Node13</title>
<path fill="none" stroke="midnightblue" d="M394.364,-225.435C394.364,-217.389 394.364,-204.739 394.364,-194.185"/>
<polygon fill="midnightblue" stroke="midnightblue" points="397.864,-193.872 394.364,-183.872 390.864,-193.872 397.864,-193.872"/>
</g>
<!-- Node14 -->
<g id="node15" class="node"><title>Node14</title>
<polygon fill="none" stroke="#bfbfbf" points="506.832,-165.5 506.832,-183.5 637.896,-183.5 637.896,-165.5 506.832,-165.5"/>
<text text-anchor="middle" x="572.364" y="-171.5" font-family="Helvetica,sans-Serif" font-size="10.00">boost/algorithm/string.hpp</text>
</g>
<!-- Node5&#45;&gt;Node14 -->
<g id="edge14" class="edge"><title>Node5&#45;&gt;Node14</title>
<path fill="none" stroke="midnightblue" d="M419.114,-225.435C449.979,-215.378 502.919,-198.128 537.781,-186.769"/>
<polygon fill="midnightblue" stroke="midnightblue" points="539.114,-190.015 547.538,-183.589 536.946,-183.36 539.114,-190.015"/>
</g>
<!-- Node5&#45;&gt;Node15 -->
<g id="edge15" class="edge"><title>Node5&#45;&gt;Node15</title>
<path fill="none" stroke="midnightblue" d="M354.759,-225.496C303.224,-215.081 213.156,-196.879 157.081,-185.547"/>
<polygon fill="midnightblue" stroke="midnightblue" points="157.518,-182.065 147.023,-183.515 156.131,-188.926 157.518,-182.065"/>
</g>
<!-- Node25 -->
<g id="node26" class="node"><title>Node25</title>
<g id="a_node26"><a xlink:href="conststr_8h.html" target="_top" xlink:title="A constexpr string type, suitable for basic compile&#45;time string processing. ">
<polygon fill="none" stroke="black" points="249.273,-55.5 249.273,-73.5 391.455,-73.5 391.455,-55.5 249.273,-55.5"/>
<text text-anchor="middle" x="320.364" y="-61.5" font-family="Helvetica,sans-Serif" font-size="10.00">tomographer/tools/conststr.h</text>
</a>
</g>
</g>
<!-- Node5&#45;&gt;Node25 -->
<g id="edge39" class="edge"><title>Node5&#45;&gt;Node25</title>
<path fill="none" stroke="midnightblue" d="M403.25,-225.403C424.813,-204.772 476.163,-149.096 448.364,-110 436.701,-93.5973 418.539,-83.1879 399.524,-76.5979"/>
<polygon fill="midnightblue" stroke="midnightblue" points="400.43,-73.214 389.841,-73.5744 398.343,-79.8959 400.43,-73.214"/>
</g>
<!-- Node15&#45;&gt;Node6 -->
<g id="edge16" class="edge"><title>Node15&#45;&gt;Node6</title>
<path fill="none" stroke="midnightblue" d="M126.501,-165.45C147.315,-156.695 180.811,-142.606 204.753,-132.535"/>
<polygon fill="midnightblue" stroke="midnightblue" points="206.187,-135.729 214.047,-128.625 203.472,-129.276 206.187,-135.729"/>
</g>
<!-- Node15&#45;&gt;Node7 -->
<g id="edge17" class="edge"><title>Node15&#45;&gt;Node7</title>
<path fill="none" stroke="midnightblue" d="M136.069,-165.45C169.811,-155.988 225.769,-140.296 261.846,-130.18"/>
<polygon fill="midnightblue" stroke="midnightblue" points="263.225,-133.428 271.908,-127.358 261.335,-126.688 263.225,-133.428"/>
</g>
<!-- Node15&#45;&gt;Node8 -->
<g id="edge19" class="edge"><title>Node15&#45;&gt;Node8</title>
<path fill="none" stroke="midnightblue" d="M111.883,-165.224C116.467,-156.474 123.431,-142.146 127.364,-129 137.683,-94.5055 142.729,-52.5853 144.918,-28.9818"/>
<polygon fill="midnightblue" stroke="midnightblue" points="148.431,-28.9726 145.795,-18.7111 141.457,-28.3771 148.431,-28.9726"/>
</g>
<!-- Node15&#45;&gt;Node9 -->
<g id="edge20" class="edge"><title>Node15&#45;&gt;Node9</title>
<path fill="none" stroke="midnightblue" d="M153.839,-165.45C215.096,-154.841 321.58,-136.397 377.194,-126.765"/>
<polygon fill="midnightblue" stroke="midnightblue" points="378.031,-130.172 387.287,-125.017 376.836,-123.275 378.031,-130.172"/>
</g>
<!-- Node15&#45;&gt;Node10 -->
<g id="edge21" class="edge"><title>Node15&#45;&gt;Node10</title>
<path fill="none" stroke="midnightblue" d="M118.67,-165.413C129.948,-157.038 147.414,-143.207 160.364,-129 173.597,-114.483 186.089,-95.794 194.358,-82.4571"/>
<polygon fill="midnightblue" stroke="midnightblue" points="197.397,-84.1951 199.582,-73.828 191.409,-80.5697 197.397,-84.1951"/>
</g>
<!-- Node16 -->
<g id="node17" class="node"><title>Node16</title>
<polygon fill="none" stroke="#bfbfbf" points="15.076,-110.5 15.076,-128.5 61.6521,-128.5 61.6521,-110.5 15.076,-110.5"/>
<text text-anchor="middle" x="38.3641" y="-116.5" font-family="Helvetica,sans-Serif" font-size="10.00">chrono</text>
</g>
<!-- Node15&#45;&gt;Node16 -->
<g id="edge18" class="edge"><title>Node15&#45;&gt;Node16</title>
<path fill="none" stroke="midnightblue" d="M96.8844,-165.45C86.3472,-157.357 69.8751,-144.704 57.088,-134.882"/>
<polygon fill="midnightblue" stroke="midnightblue" points="59.0049,-131.941 48.9423,-128.625 54.7408,-137.493 59.0049,-131.941"/>
</g>
<!-- Node17 -->
<g id="node18" class="node"><title>Node17</title>
<polygon fill="none" stroke="#bfbfbf" points="79.9725,-110.5 79.9725,-128.5 118.756,-128.5 118.756,-110.5 79.9725,-110.5"/>
<text text-anchor="middle" x="99.3641" y="-116.5" font-family="Helvetica,sans-Serif" font-size="10.00">utility</text>
</g>
<!-- Node15&#45;&gt;Node17 -->
<g id="edge22" class="edge"><title>Node15&#45;&gt;Node17</title>
<path fill="none" stroke="midnightblue" d="M106.114,-165.219C105.039,-158.099 103.451,-147.577 102.085,-138.529"/>
<polygon fill="midnightblue" stroke="midnightblue" points="105.532,-137.915 100.579,-128.55 98.6109,-138.96 105.532,-137.915"/>
</g>
<!-- Node15&#45;&gt;Node18 -->
<g id="edge23" class="edge"><title>Node15&#45;&gt;Node18</title>
<path fill="none" stroke="midnightblue" d="M168.296,-167.054C259.184,-157.439 430.253,-139.342 530.225,-128.766"/>
<polygon fill="midnightblue" stroke="midnightblue" points="530.692,-132.236 540.268,-127.704 529.955,-125.275 530.692,-132.236"/>
</g>
<!-- Node18&#45;&gt;Node1 -->
<g id="edge25" class="edge"><title>Node18&#45;&gt;Node1</title>
<path fill="none" stroke="midnightblue" d="M666.399,-110.496C712.091,-103.069 770.884,-90.6539 788.364,-74 800.591,-62.3502 805.044,-43.1872 806.617,-28.9547"/>
<polygon fill="midnightblue" stroke="midnightblue" points="810.118,-29.0634 807.355,-18.8352 803.137,-28.5541 810.118,-29.0634"/>
</g>
<!-- Node18&#45;&gt;Node10 -->
<g id="edge27" class="edge"><title>Node18&#45;&gt;Node10</title>
<path fill="none" stroke="midnightblue" d="M540.541,-112.585C468.618,-105.797 351.539,-93.2791 241.736,-74.0719"/>
<polygon fill="midnightblue" stroke="midnightblue" points="242.273,-70.6126 231.816,-72.3146 241.052,-77.5053 242.273,-70.6126"/>
</g>
<!-- Node18&#45;&gt;Node12 -->
<g id="edge29" class="edge"><title>Node18&#45;&gt;Node12</title>
<path fill="none" stroke="midnightblue" d="M647.549,-110.45C695.453,-100.61 776.162,-84.0299 825.026,-73.992"/>
<polygon fill="midnightblue" stroke="midnightblue" points="825.855,-77.3949 834.946,-71.9541 824.446,-70.538 825.855,-77.3949"/>
</g>
<!-- Node19 -->
<g id="node20" class="node"><title>Node19</title>
<polygon fill="none" stroke="#bfbfbf" points="610.248,-0.5 610.248,-18.5 658.48,-18.5 658.48,-0.5 610.248,-0.5"/>
<text text-anchor="middle" x="634.364" y="-6.5" font-family="Helvetica,sans-Serif" font-size="10.00">cassert</text>
</g>
<!-- Node18&#45;&gt;Node19 -->
<g id="edge24" class="edge"><title>Node18&#45;&gt;Node19</title>
<path fill="none" stroke="midnightblue" d="M591.856,-110.478C570.923,-99.1546 539.059,-77.3578 552.364,-55 562.847,-37.3835 583.007,-26.3091 600.713,-19.614"/>
<polygon fill="midnightblue" stroke="midnightblue" points="601.911,-22.9034 610.221,-16.3313 599.626,-16.2867 601.911,-22.9034"/>
</g>
<!-- Node20 -->
<g id="node21" class="node"><title>Node20</title>
<polygon fill="none" stroke="#bfbfbf" points="510.192,-0.5 510.192,-18.5 554.536,-18.5 554.536,-0.5 510.192,-0.5"/>
<text text-anchor="middle" x="532.364" y="-6.5" font-family="Helvetica,sans-Serif" font-size="10.00">cstdlib</text>
</g>
<!-- Node18&#45;&gt;Node20 -->
<g id="edge26" class="edge"><title>Node18&#45;&gt;Node20</title>
<path fill="none" stroke="midnightblue" d="M590.267,-110.43C575.831,-103.036 556.28,-90.7017 545.364,-74 536.603,-60.5947 533.565,-42.47 532.595,-29.0157"/>
<polygon fill="midnightblue" stroke="midnightblue" points="536.077,-28.4837 532.182,-18.6305 529.082,-28.7615 536.077,-28.4837"/>
</g>
<!-- Node21 -->
<g id="node22" class="node"><title>Node21</title>
<polygon fill="none" stroke="#bfbfbf" points="915.746,-55.5 915.746,-73.5 968.982,-73.5 968.982,-55.5 915.746,-55.5"/>
<text text-anchor="middle" x="942.364" y="-61.5" font-family="Helvetica,sans-Serif" font-size="10.00">complex</text>
</g>
<!-- Node18&#45;&gt;Node21 -->
<g id="edge28" class="edge"><title>Node18&#45;&gt;Node21</title>
<path fill="none" stroke="midnightblue" d="M672.571,-110.491C730.854,-102.862 819.363,-90.3844 905.709,-73.9768"/>
<polygon fill="midnightblue" stroke="midnightblue" points="906.52,-77.3851 915.681,-72.0623 905.201,-70.5107 906.52,-77.3851"/>
</g>
<!-- Node22 -->
<g id="node23" class="node"><title>Node22</title>
<polygon fill="none" stroke="#bfbfbf" points="408.96,-55.5 408.96,-73.5 467.768,-73.5 467.768,-55.5 408.96,-55.5"/>
<text text-anchor="middle" x="438.364" y="-61.5" font-family="Helvetica,sans-Serif" font-size="10.00">exception</text>
</g>
<!-- Node18&#45;&gt;Node22 -->
<g id="edge30" class="edge"><title>Node18&#45;&gt;Node22</title>
<path fill="none" stroke="midnightblue" d="M582.545,-110.45C553.504,-101.396 506.166,-86.6382 473.706,-76.5185"/>
<polygon fill="midnightblue" stroke="midnightblue" points="474.736,-73.1734 464.147,-73.5383 472.652,-79.8561 474.736,-73.1734"/>
</g>
<!-- Node23 -->
<g id="node24" class="node"><title>Node23</title>
<polygon fill="none" stroke="#bfbfbf" points="560.963,-55.5 560.963,-73.5 619.765,-73.5 619.765,-55.5 560.963,-55.5"/>
<text text-anchor="middle" x="590.364" y="-61.5" font-family="Helvetica,sans-Serif" font-size="10.00">stdexcept</text>
</g>
<!-- Node18&#45;&gt;Node23 -->
<g id="edge31" class="edge"><title>Node18&#45;&gt;Node23</title>
<path fill="none" stroke="midnightblue" d="M605.552,-110.219C603.107,-103.02 599.482,-92.3458 596.386,-83.2311"/>
<polygon fill="midnightblue" stroke="midnightblue" points="599.628,-81.8928 593.098,-73.5496 593,-84.1439 599.628,-81.8928"/>
</g>
<!-- Node24 -->
<g id="node25" class="node"><title>Node24</title>
<g id="a_node25"><a xlink:href="cxxdefs_8h.html" target="_top" xlink:title="Basic definitions, which may have to be defined before any Eigen headers or further utilities are inc...">
<polygon fill="none" stroke="black" points="637.554,-55.5 637.554,-73.5 779.174,-73.5 779.174,-55.5 637.554,-55.5"/>
<text text-anchor="middle" x="708.364" y="-61.5" font-family="Helvetica,sans-Serif" font-size="10.00">tomographer/tools/cxxdefs.h</text>
</a>
</g>
</g>
<!-- Node18&#45;&gt;Node24 -->
<g id="edge32" class="edge"><title>Node18&#45;&gt;Node24</title>
<path fill="none" stroke="midnightblue" d="M623.552,-110.45C639.631,-101.929 665.245,-88.3532 684.121,-78.3487"/>
<polygon fill="midnightblue" stroke="midnightblue" points="685.837,-81.4008 693.033,-73.6253 682.558,-75.2158 685.837,-81.4008"/>
</g>
<!-- Node18&#45;&gt;Node25 -->
<g id="edge36" class="edge"><title>Node18&#45;&gt;Node25</title>
<path fill="none" stroke="midnightblue" d="M564.623,-110.45C513.516,-101.045 428.959,-85.4845 373.956,-75.3623"/>
<polygon fill="midnightblue" stroke="midnightblue" points="374.512,-71.9061 364.044,-73.5383 373.245,-78.7905 374.512,-71.9061"/>
</g>
<!-- Node26 -->
<g id="node27" class="node"><title>Node26</title>
<polygon fill="none" stroke="#bfbfbf" points="987.349,-55.5 987.349,-73.5 1053.38,-73.5 1053.38,-55.5 987.349,-55.5"/>
<text text-anchor="middle" x="1020.36" y="-61.5" font-family="Helvetica,sans-Serif" font-size="10.00">Eigen/Core</text>
</g>
<!-- Node18&#45;&gt;Node26 -->
<g id="edge38" class="edge"><title>Node18&#45;&gt;Node26</title>
<path fill="none" stroke="midnightblue" d="M676.447,-111.961C748.669,-104.651 866.306,-91.6857 976.941,-74.1189"/>
<polygon fill="midnightblue" stroke="midnightblue" points="977.618,-77.5551 986.937,-72.5158 976.509,-70.6434 977.618,-77.5551"/>
</g>
<!-- Node24&#45;&gt;Node1 -->
<g id="edge34" class="edge"><title>Node24&#45;&gt;Node1</title>
<path fill="none" stroke="midnightblue" d="M723.4,-55.4504C739.318,-46.9286 764.676,-33.3532 783.364,-23.3487"/>
<polygon fill="midnightblue" stroke="midnightblue" points="785.022,-26.4308 792.187,-18.6253 781.719,-20.2595 785.022,-26.4308"/>
</g>
<!-- Node24&#45;&gt;Node19 -->
<g id="edge33" class="edge"><title>Node24&#45;&gt;Node19</title>
<path fill="none" stroke="midnightblue" d="M697.125,-55.4504C685.716,-47.2788 667.818,-34.4604 654.05,-24.5996"/>
<polygon fill="midnightblue" stroke="midnightblue" points="655.877,-21.6027 645.709,-18.6253 651.801,-27.2936 655.877,-21.6027"/>
</g>
<!-- Node24&#45;&gt;Node20 -->
<g id="edge35" class="edge"><title>Node24&#45;&gt;Node20</title>
<path fill="none" stroke="midnightblue" d="M681.633,-55.4504C650.173,-45.9766 597.972,-30.257 564.381,-20.1415"/>
<polygon fill="midnightblue" stroke="midnightblue" points="565.182,-16.7275 554.597,-17.1953 563.163,-23.4302 565.182,-16.7275"/>
</g>
<!-- Node25&#45;&gt;Node8 -->
<g id="edge37" class="edge"><title>Node25&#45;&gt;Node8</title>
<path fill="none" stroke="midnightblue" d="M293.937,-55.4504C262.317,-45.8191 209.506,-29.7327 176.377,-19.6419"/>
<polygon fill="midnightblue" stroke="midnightblue" points="177.359,-16.2822 166.773,-16.7165 175.319,-22.9785 177.359,-16.2822"/>
</g>
<!-- Node27&#45;&gt;Node5 -->
<g id="edge43" class="edge"><title>Node27&#45;&gt;Node5</title>
<path fill="none" stroke="midnightblue" d="M711.627,-288.517C640.584,-276.646 522.798,-256.962 452.477,-245.211"/>
<polygon fill="midnightblue" stroke="midnightblue" points="452.897,-241.733 442.457,-243.537 451.743,-248.637 452.897,-241.733"/>
</g>
<!-- Node27&#45;&gt;Node18 -->
<g id="edge50" class="edge"><title>Node27&#45;&gt;Node18</title>
<path fill="none" stroke="midnightblue" d="M756.302,-285.205C746.18,-275.765 732.984,-262.43 723.364,-249 698.942,-214.904 708.804,-195.825 680.364,-165 668.021,-151.622 650.766,-140.772 636.243,-133.135"/>
<polygon fill="midnightblue" stroke="midnightblue" points="637.68,-129.941 627.172,-128.587 634.542,-136.198 637.68,-129.941"/>
</g>
<!-- Node28 -->
<g id="node29" class="node"><title>Node28</title>
<g id="a_node29"><a xlink:href="eigenutil_8h.html" target="_top" xlink:title="Basic utilities for dealing with Eigen matrices and other types. ">
<polygon fill="none" stroke="black" points="1020.88,-110.5 1020.88,-128.5 1165.85,-128.5 1165.85,-110.5 1020.88,-110.5"/>
<text text-anchor="middle" x="1093.36" y="-116.5" font-family="Helvetica,sans-Serif" font-size="10.00">tomographer/tools/eigenutil.h</text>
</a>
</g>
</g>
<!-- Node27&#45;&gt;Node28 -->
<g id="edge44" class="edge"><title>Node27&#45;&gt;Node28</title>
<path fill="none" stroke="midnightblue" d="M830.995,-296.854C909.46,-293.374 1041.31,-282.56 1074.36,-249 1103.43,-219.487 1100.57,-166.167 1096.63,-138.4"/>
<polygon fill="midnightblue" stroke="midnightblue" points="1100.08,-137.817 1095.02,-128.508 1093.17,-138.94 1100.08,-137.817"/>
</g>
<!-- Node27&#45;&gt;Node32 -->
<g id="edge51" class="edge"><title>Node27&#45;&gt;Node32</title>
<path fill="none" stroke="midnightblue" d="M811.147,-285.446C845.986,-274.015 896.079,-257.578 929.154,-246.725"/>
<polygon fill="midnightblue" stroke="midnightblue" points="930.426,-249.991 938.837,-243.548 928.244,-243.34 930.426,-249.991"/>
</g>
<!-- Node34 -->
<g id="node35" class="node"><title>Node34</title>
<polygon fill="none" stroke="#bfbfbf" points="732.837,-220.5 732.837,-248.5 843.891,-248.5 843.891,-220.5 732.837,-220.5"/>
<text text-anchor="start" x="740.837" y="-236.5" font-family="Helvetica,sans-Serif" font-size="10.00">boost/math/constants</text>
<text text-anchor="middle" x="788.364" y="-226.5" font-family="Helvetica,sans-Serif" font-size="10.00">/constants.hpp</text>
</g>
<!-- Node27&#45;&gt;Node34 -->
<g id="edge55" class="edge"><title>Node27&#45;&gt;Node34</title>
<path fill="none" stroke="midnightblue" d="M774.886,-285.446C777.006,-277.591 779.764,-267.371 782.232,-258.225"/>
<polygon fill="midnightblue" stroke="midnightblue" points="785.62,-259.103 784.846,-248.537 778.862,-257.28 785.62,-259.103"/>
</g>
<!-- Node28&#45;&gt;Node21 -->
<g id="edge45" class="edge"><title>Node28&#45;&gt;Node21</title>
<path fill="none" stroke="midnightblue" d="M1070.43,-110.45C1045.04,-101.539 1003.91,-87.1029 975.132,-77.0014"/>
<polygon fill="midnightblue" stroke="midnightblue" points="976.108,-73.6347 965.514,-73.6253 973.79,-80.2397 976.108,-73.6347"/>
</g>
<!-- Node28&#45;&gt;Node26 -->
<g id="edge47" class="edge"><title>Node28&#45;&gt;Node26</title>
<path fill="none" stroke="midnightblue" d="M1082.28,-110.45C1071.02,-102.279 1053.37,-89.4604 1039.78,-79.5996"/>
<polygon fill="midnightblue" stroke="midnightblue" points="1041.7,-76.6682 1031.56,-73.6253 1037.59,-82.3327 1041.7,-76.6682"/>
</g>
<!-- Node29 -->
<g id="node30" class="node"><title>Node29</title>
<polygon fill="none" stroke="#bfbfbf" points="1071.75,-55.5 1071.75,-73.5 1114.98,-73.5 1114.98,-55.5 1071.75,-55.5"/>
<text text-anchor="middle" x="1093.36" y="-61.5" font-family="Helvetica,sans-Serif" font-size="10.00">vector</text>
</g>
<!-- Node28&#45;&gt;Node29 -->
<g id="edge46" class="edge"><title>Node28&#45;&gt;Node29</title>
<path fill="none" stroke="midnightblue" d="M1093.36,-110.219C1093.36,-103.177 1093.36,-92.8083 1093.36,-83.8277"/>
<polygon fill="midnightblue" stroke="midnightblue" points="1096.86,-83.5495 1093.36,-73.5496 1089.86,-83.5496 1096.86,-83.5495"/>
</g>
<!-- Node30 -->
<g id="node31" class="node"><title>Node30</title>
<polygon fill="none" stroke="#bfbfbf" points="1132.73,-55.5 1132.73,-73.5 1205.99,-73.5 1205.99,-55.5 1132.73,-55.5"/>
<text text-anchor="middle" x="1169.36" y="-61.5" font-family="Helvetica,sans-Serif" font-size="10.00">Eigen/Dense</text>
</g>
<!-- Node28&#45;&gt;Node30 -->
<g id="edge48" class="edge"><title>Node28&#45;&gt;Node30</title>
<path fill="none" stroke="midnightblue" d="M1104.91,-110.45C1116.62,-102.279 1135.01,-89.4604 1149.15,-79.5996"/>
<polygon fill="midnightblue" stroke="midnightblue" points="1151.51,-82.2163 1157.71,-73.6253 1147.51,-76.4746 1151.51,-82.2163"/>
</g>
<!-- Node31 -->
<g id="node32" class="node"><title>Node31</title>
<polygon fill="none" stroke="#bfbfbf" points="1223.5,-55.5 1223.5,-73.5 1311.22,-73.5 1311.22,-55.5 1223.5,-55.5"/>
<text text-anchor="middle" x="1267.36" y="-61.5" font-family="Helvetica,sans-Serif" font-size="10.00">Eigen/StdVector</text>
</g>
<!-- Node28&#45;&gt;Node31 -->
<g id="edge49" class="edge"><title>Node28&#45;&gt;Node31</title>
<path fill="none" stroke="midnightblue" d="M1119.79,-110.45C1149.52,-101.396 1197.97,-86.6382 1231.19,-76.5185"/>
<polygon fill="midnightblue" stroke="midnightblue" points="1232.43,-79.8003 1240.97,-73.5383 1230.39,-73.1041 1232.43,-79.8003"/>
</g>
<!-- Node32&#45;&gt;Node12 -->
<g id="edge52" class="edge"><title>Node32&#45;&gt;Node12</title>
<path fill="none" stroke="midnightblue" d="M962.13,-225.103C959.938,-211.789 954.602,-185.269 944.364,-165 927.813,-132.232 899.596,-99.8108 882.02,-81.2694"/>
<polygon fill="midnightblue" stroke="midnightblue" points="884.455,-78.7524 874.989,-73.9937 879.422,-83.6168 884.455,-78.7524"/>
</g>
<!-- Node32&#45;&gt;Node18 -->
<g id="edge54" class="edge"><title>Node32&#45;&gt;Node18</title>
<path fill="none" stroke="midnightblue" d="M939.839,-225.481C901.508,-212.468 823.145,-186.085 756.364,-165 718.78,-153.134 675.598,-140.233 645.618,-131.393"/>
<polygon fill="midnightblue" stroke="midnightblue" points="646.565,-128.023 635.983,-128.558 644.589,-134.739 646.565,-128.023"/>
</g>
<!-- Node33 -->
<g id="node34" class="node"><title>Node33</title>
<polygon fill="none" stroke="#bfbfbf" points="865.399,-165.5 865.399,-183.5 935.329,-183.5 935.329,-165.5 865.399,-165.5"/>
<text text-anchor="middle" x="900.364" y="-171.5" font-family="Helvetica,sans-Serif" font-size="10.00">Eigen/Eigen</text>
</g>
<!-- Node32&#45;&gt;Node33 -->
<g id="edge53" class="edge"><title>Node32&#45;&gt;Node33</title>
<path fill="none" stroke="midnightblue" d="M954.604,-225.435C944.935,-216.533 929.143,-201.995 917.087,-190.895"/>
<polygon fill="midnightblue" stroke="midnightblue" points="919.185,-188.07 909.458,-183.872 914.444,-193.22 919.185,-188.07"/>
</g>
</g>
</svg>
