<?xml version="1.0" encoding="UTF-8" standalone="no"?>
<!DOCTYPE svg PUBLIC "-//W3C//DTD SVG 1.1//EN"
 "http://www.w3.org/Graphics/SVG/1.1/DTD/svg11.dtd">
<!-- Generated by graphviz version 2.38.0 (20140413.2041)
 -->
<!-- Title: tomographer/mathtools/sphcoords.h Pages: 1 -->
<!--zoomable 202 -->
<svg id="main" version="1.1" xmlns="http://www.w3.org/2000/svg" xmlns:xlink="http://www.w3.org/1999/xlink" xml:space="preserve" onload="init(evt)">
<style type="text/css"><![CDATA[
.edge:hover path { stroke: red; }
.edge:hover polygon { stroke: red; fill: red; }
]]></style>
<script type="text/javascript"><![CDATA[
var edges = document.getElementsByTagName('g');
if (edges && edges.length) {
  for (var i=0;i<edges.length;i++) {
    if (edges[i].id.substr(0,4)=='edge') {
      edges[i].setAttribute('class','edge');
    }
  }
}
]]></script>
        <defs>
                <circle id="rim" cx="0" cy="0" r="7"/>
                <circle id="rim2" cx="0" cy="0" r="3.5"/>
                <g id="zoomPlus">
                        <use xlink:href="#rim" fill="#404040">
                                <set attributeName="fill" to="#808080" begin="zoomplus.mouseover" end="zoomplus.mouseout"/>
                        </use>
                        <path d="M-4,0h8M0,-4v8" fill="none" stroke="white" stroke-width="1.5" pointer-events="none"/>
                </g>
                <g id="zoomMin">
                        <use xlink:href="#rim" fill="#404040">
                                <set attributeName="fill" to="#808080" begin="zoomminus.mouseover" end="zoomminus.mouseout"/>
                        </use>
                        <path d="M-4,0h8" fill="none" stroke="white" stroke-width="1.5" pointer-events="none"/>
                </g>
                <g id="dirArrow">
                        <path fill="none" stroke="white" stroke-width="1.5" d="M0,-3.0v7 M-2.5,-0.5L0,-3.0L2.5,-0.5"/>
                </g>
               <g id="resetDef">
                       <use xlink:href="#rim2" fill="#404040">
                               <set attributeName="fill" to="#808080" begin="reset.mouseover" end="reset.mouseout"/>
                       </use>
               </g>
        </defs>

<script type="text/javascript">
var viewWidth = 897;
var viewHeight = 202;
var sectionId = 'dynsection-0';
</script>
<script xlink:href="svgpan.js"/>
<svg id="graph" class="graph">
<g id="viewport">
<title>tomographer/mathtools/sphcoords.h</title>
<!-- Node0 -->
<g id="node1" class="node"><title>Node0</title>
<polygon fill="#bfbfbf" stroke="black" points="204.7,-165.5 204.7,-193.5 323.532,-193.5 323.532,-165.5 204.7,-165.5"/>
<text text-anchor="start" x="212.7" y="-181.5" font-family="Helvetica,sans-Serif" font-size="10.00">tomographer/mathtools</text>
<text text-anchor="middle" x="264.116" y="-171.5" font-family="Helvetica,sans-Serif" font-size="10.00">/sphcoords.h</text>
</g>
<!-- Node1 -->
<g id="node2" class="node"><title>Node1</title>
<polygon fill="none" stroke="#bfbfbf" points="167.5,-110.5 167.5,-128.5 210.731,-128.5 210.731,-110.5 167.5,-110.5"/>
<text text-anchor="middle" x="189.116" y="-116.5" font-family="Helvetica,sans-Serif" font-size="10.00">cmath</text>
</g>
<!-- Node0&#45;&gt;Node1 -->
<g id="edge1" class="edge"><title>Node0&#45;&gt;Node1</title>
<path fill="none" stroke="midnightblue" d="M247.097,-165.339C235.412,-156.302 219.899,-144.306 207.86,-134.995"/>
<polygon fill="midnightblue" stroke="midnightblue" points="209.863,-132.12 199.812,-128.771 205.581,-137.658 209.863,-132.12"/>
</g>
<!-- Node2 -->
<g id="node3" class="node"><title>Node2</title>
<polygon fill="none" stroke="#bfbfbf" points="229.15,-110.5 229.15,-128.5 299.081,-128.5 299.081,-110.5 229.15,-110.5"/>
<text text-anchor="middle" x="264.116" y="-116.5" font-family="Helvetica,sans-Serif" font-size="10.00">Eigen/Eigen</text>
</g>
<!-- Node0&#45;&gt;Node2 -->
<g id="edge2" class="edge"><title>Node0&#45;&gt;Node2</title>
<path fill="none" stroke="midnightblue" d="M264.116,-165.339C264.116,-157.531 264.116,-147.512 264.116,-138.927"/>
<polygon fill="midnightblue" stroke="midnightblue" points="267.616,-138.771 264.116,-128.771 260.616,-138.772 267.616,-138.771"/>
</g>
<!-- Node3 -->
<g id="node4" class="node"><title>Node3</title>
<g id="a_node4"><a xlink:href="cxxutil_8h.html" target="_top" xlink:title="Some C++ utilities, with a tad of C++11 tricks. ">
<polygon fill="none" stroke="black" points="317.365,-110.5 317.365,-128.5 452.867,-128.5 452.867,-110.5 317.365,-110.5"/>
<text text-anchor="middle" x="385.116" y="-116.5" font-family="Helvetica,sans-Serif" font-size="10.00">tomographer/tools/cxxutil.h</text>
</a>
</g>
</g>
<!-- Node0&#45;&gt;Node3 -->
<g id="edge3" class="edge"><title>Node0&#45;&gt;Node3</title>
<path fill="none" stroke="midnightblue" d="M291.27,-165.484C311.51,-155.782 338.989,-142.61 358.979,-133.028"/>
<polygon fill="midnightblue" stroke="midnightblue" points="360.622,-136.122 368.127,-128.643 357.596,-129.81 360.622,-136.122"/>
</g>
<!-- Node4 -->
<g id="node5" class="node"><title>Node4</title>
<polygon fill="none" stroke="#bfbfbf" points="0,-0.5 0,-18.5 48.2314,-18.5 48.2314,-0.5 0,-0.5"/>
<text text-anchor="middle" x="24.1157" y="-6.5" font-family="Helvetica,sans-Serif" font-size="10.00">cassert</text>
</g>
<!-- Node3&#45;&gt;Node4 -->
<g id="edge4" class="edge"><title>Node3&#45;&gt;Node4</title>
<path fill="none" stroke="midnightblue" d="M318.89,-110.482C229.654,-99.4846 80.6721,-80.3581 70.1157,-74 52.3033,-63.2716 39.3702,-42.7383 31.8354,-27.9205"/>
<polygon fill="midnightblue" stroke="midnightblue" points="34.9394,-26.2976 27.4879,-18.7659 28.6162,-29.3005 34.9394,-26.2976"/>
</g>
<!-- Node5 -->
<g id="node6" class="node"><title>Node5</title>
<polygon fill="none" stroke="#bfbfbf" points="68.9951,-0.5 68.9951,-18.5 117.236,-18.5 117.236,-0.5 68.9951,-0.5"/>
<text text-anchor="middle" x="93.1157" y="-6.5" font-family="Helvetica,sans-Serif" font-size="10.00">cstddef</text>
</g>
<!-- Node3&#45;&gt;Node5 -->
<g id="edge5" class="edge"><title>Node3&#45;&gt;Node5</title>
<path fill="none" stroke="midnightblue" d="M317.155,-110.882C229.384,-100.716 86.8647,-82.9573 79.1157,-74 67.9538,-61.0975 74.8493,-41.2992 82.3722,-27.2433"/>
<polygon fill="midnightblue" stroke="midnightblue" points="85.412,-28.9787 87.4665,-18.5849 79.3788,-25.4289 85.412,-28.9787"/>
</g>
<!-- Node6 -->
<g id="node7" class="node"><title>Node6</title>
<polygon fill="none" stroke="#bfbfbf" points="185.943,-0.5 185.943,-18.5 230.288,-18.5 230.288,-0.5 185.943,-0.5"/>
<text text-anchor="middle" x="208.116" y="-6.5" font-family="Helvetica,sans-Serif" font-size="10.00">cstdlib</text>
</g>
<!-- Node3&#45;&gt;Node6 -->
<g id="edge6" class="edge"><title>Node3&#45;&gt;Node6</title>
<path fill="none" stroke="midnightblue" d="M358.547,-110.488C335.874,-102.982 302.939,-90.4568 277.116,-74 255.999,-60.5427 235.348,-40.3332 222.227,-26.3434"/>
<polygon fill="midnightblue" stroke="midnightblue" points="224.762,-23.9295 215.425,-18.9232 219.602,-28.6597 224.762,-23.9295"/>
</g>
<!-- Node7 -->
<g id="node8" class="node"><title>Node7</title>
<polygon fill="none" stroke="#bfbfbf" points="285.943,-55.5 285.943,-73.5 340.288,-73.5 340.288,-55.5 285.943,-55.5"/>
<text text-anchor="middle" x="313.116" y="-61.5" font-family="Helvetica,sans-Serif" font-size="10.00">iostream</text>
</g>
<!-- Node3&#45;&gt;Node7 -->
<g id="edge7" class="edge"><title>Node3&#45;&gt;Node7</title>
<path fill="none" stroke="midnightblue" d="M374.18,-110.45C363.079,-102.279 345.666,-89.4604 332.27,-79.5996"/>
<polygon fill="midnightblue" stroke="midnightblue" points="334.282,-76.7348 324.154,-73.6253 330.132,-82.3722 334.282,-76.7348"/>
</g>
<!-- Node8 -->
<g id="node9" class="node"><title>Node8</title>
<polygon fill="none" stroke="#bfbfbf" points="358.498,-55.5 358.498,-73.5 411.734,-73.5 411.734,-55.5 358.498,-55.5"/>
<text text-anchor="middle" x="385.116" y="-61.5" font-family="Helvetica,sans-Serif" font-size="10.00">complex</text>
</g>
<!-- Node3&#45;&gt;Node8 -->
<g id="edge8" class="edge"><title>Node3&#45;&gt;Node8</title>
<path fill="none" stroke="midnightblue" d="M385.116,-110.219C385.116,-103.177 385.116,-92.8083 385.116,-83.8277"/>
<polygon fill="midnightblue" stroke="midnightblue" points="388.616,-83.5495 385.116,-73.5496 381.616,-83.5496 388.616,-83.5495"/>
</g>
<!-- Node9 -->
<g id="node10" class="node"><title>Node9</title>
<polygon fill="none" stroke="#bfbfbf" points="430.049,-55.5 430.049,-73.5 492.182,-73.5 492.182,-55.5 430.049,-55.5"/>
<text text-anchor="middle" x="461.116" y="-61.5" font-family="Helvetica,sans-Serif" font-size="10.00">type_traits</text>
</g>
<!-- Node3&#45;&gt;Node9 -->
<g id="edge9" class="edge"><title>Node3&#45;&gt;Node9</title>
<path fill="none" stroke="midnightblue" d="M396.658,-110.45C408.376,-102.279 426.757,-89.4604 440.897,-79.5996"/>
<polygon fill="midnightblue" stroke="midnightblue" points="443.264,-82.2163 449.464,-73.6253 439.26,-76.4746 443.264,-82.2163"/>
</g>
<!-- Node10 -->
<g id="node11" class="node"><title>Node10</title>
<polygon fill="none" stroke="#bfbfbf" points="509.712,-55.5 509.712,-73.5 568.52,-73.5 568.52,-55.5 509.712,-55.5"/>
<text text-anchor="middle" x="539.116" y="-61.5" font-family="Helvetica,sans-Serif" font-size="10.00">exception</text>
</g>
<!-- Node3&#45;&gt;Node10 -->
<g id="edge10" class="edge"><title>Node3&#45;&gt;Node10</title>
<path fill="none" stroke="midnightblue" d="M408.505,-110.45C434.473,-101.514 476.589,-87.0189 505.952,-76.9134"/>
<polygon fill="midnightblue" stroke="midnightblue" points="507.442,-80.1021 515.759,-73.5383 505.164,-73.4831 507.442,-80.1021"/>
</g>
<!-- Node11 -->
<g id="node12" class="node"><title>Node11</title>
<polygon fill="none" stroke="#bfbfbf" points="586.714,-55.5 586.714,-73.5 645.517,-73.5 645.517,-55.5 586.714,-55.5"/>
<text text-anchor="middle" x="616.116" y="-61.5" font-family="Helvetica,sans-Serif" font-size="10.00">stdexcept</text>
</g>
<!-- Node3&#45;&gt;Node11 -->
<g id="edge11" class="edge"><title>Node3&#45;&gt;Node11</title>
<path fill="none" stroke="midnightblue" d="M420.2,-110.45C462.353,-100.779 532.877,-84.5981 576.821,-74.5156"/>
<polygon fill="midnightblue" stroke="midnightblue" points="577.617,-77.9241 586.581,-72.2764 576.051,-71.1014 577.617,-77.9241"/>
</g>
<!-- Node12 -->
<g id="node13" class="node"><title>Node12</title>
<g id="a_node13"><a xlink:href="cxxdefs_8h.html" target="_top" xlink:title="Basic definitions, which may have to be defined before any Eigen headers or further utilities are inc...">
<polygon fill="none" stroke="black" points="88.3057,-55.5 88.3057,-73.5 229.926,-73.5 229.926,-55.5 88.3057,-55.5"/>
<text text-anchor="middle" x="159.116" y="-61.5" font-family="Helvetica,sans-Serif" font-size="10.00">tomographer/tools/cxxdefs.h</text>
</a>
</g>
</g>
<!-- Node3&#45;&gt;Node12 -->
<g id="edge12" class="edge"><title>Node3&#45;&gt;Node12</title>
<path fill="none" stroke="midnightblue" d="M350.791,-110.45C311.352,-101.201 246.528,-85.9994 203.338,-75.8708"/>
<polygon fill="midnightblue" stroke="midnightblue" points="203.927,-72.414 193.392,-73.5383 202.329,-79.2291 203.927,-72.414"/>
</g>
<!-- Node13 -->
<g id="node14" class="node"><title>Node13</title>
<g id="a_node14"><a xlink:href="conststr_8h.html" target="_top" xlink:title="A constexpr string type, suitable for basic compile&#45;time string processing. ">
<polygon fill="none" stroke="black" points="663.025,-55.5 663.025,-73.5 805.207,-73.5 805.207,-55.5 663.025,-55.5"/>
<text text-anchor="middle" x="734.116" y="-61.5" font-family="Helvetica,sans-Serif" font-size="10.00">tomographer/tools/conststr.h</text>
</a>
</g>
</g>
<!-- Node3&#45;&gt;Node13 -->
<g id="edge16" class="edge"><title>Node3&#45;&gt;Node13</title>
<path fill="none" stroke="midnightblue" d="M438.121,-110.45C500.696,-100.948 604.65,-85.161 671.236,-75.0491"/>
<polygon fill="midnightblue" stroke="midnightblue" points="671.823,-78.5001 681.184,-73.5383 670.772,-71.5795 671.823,-78.5001"/>
</g>
<!-- Node15 -->
<g id="node16" class="node"><title>Node15</title>
<polygon fill="none" stroke="#bfbfbf" points="823.101,-55.5 823.101,-73.5 889.13,-73.5 889.13,-55.5 823.101,-55.5"/>
<text text-anchor="middle" x="856.116" y="-61.5" font-family="Helvetica,sans-Serif" font-size="10.00">Eigen/Core</text>
</g>
<!-- Node3&#45;&gt;Node15 -->
<g id="edge18" class="edge"><title>Node3&#45;&gt;Node15</title>
<path fill="none" stroke="midnightblue" d="M452.988,-113.491C535.708,-106.932 679.914,-94.0332 812.747,-74.0769"/>
<polygon fill="midnightblue" stroke="midnightblue" points="813.336,-77.5277 822.697,-72.5654 812.285,-70.6071 813.336,-77.5277"/>
</g>
<!-- Node12&#45;&gt;Node4 -->
<g id="edge13" class="edge"><title>Node12&#45;&gt;Node4</title>
<path fill="none" stroke="midnightblue" d="M138.612,-55.4504C116.212,-46.6562 80.1029,-32.4802 54.4285,-22.4006"/>
<polygon fill="midnightblue" stroke="midnightblue" points="55.3997,-19.0218 44.8123,-18.6253 52.8416,-25.5377 55.3997,-19.0218"/>
</g>
<!-- Node12&#45;&gt;Node5 -->
<g id="edge14" class="edge"><title>Node12&#45;&gt;Node5</title>
<path fill="none" stroke="midnightblue" d="M149.092,-55.4504C139.11,-47.4345 123.559,-34.9471 111.379,-25.1663"/>
<polygon fill="midnightblue" stroke="midnightblue" points="113.223,-22.1577 103.234,-18.6253 108.84,-27.6157 113.223,-22.1577"/>
</g>
<!-- Node12&#45;&gt;Node6 -->
<g id="edge15" class="edge"><title>Node12&#45;&gt;Node6</title>
<path fill="none" stroke="midnightblue" d="M166.772,-55.2188C173.933,-47.4727 184.816,-35.7013 193.619,-26.1799"/>
<polygon fill="midnightblue" stroke="midnightblue" points="196.455,-28.2683 200.674,-18.5496 191.315,-23.5163 196.455,-28.2683"/>
</g>
<!-- Node14 -->
<g id="node15" class="node"><title>Node14</title>
<polygon fill="none" stroke="#bfbfbf" points="713.889,-0.5 713.889,-18.5 754.342,-18.5 754.342,-0.5 713.889,-0.5"/>
<text text-anchor="middle" x="734.116" y="-6.5" font-family="Helvetica,sans-Serif" font-size="10.00">string</text>
</g>
<!-- Node13&#45;&gt;Node14 -->
<g id="edge17" class="edge"><title>Node13&#45;&gt;Node14</title>
<path fill="none" stroke="midnightblue" d="M734.116,-55.2188C734.116,-48.1769 734.116,-37.8083 734.116,-28.8277"/>
<polygon fill="midnightblue" stroke="midnightblue" points="737.616,-28.5495 734.116,-18.5496 730.616,-28.5496 737.616,-28.5495"/>
</g>
</g>
</svg>
        <g id="navigator" transform="translate(0 0)" fill="#404254">
                <rect fill="#f2f5e9" fill-opacity="0.5" stroke="#606060" stroke-width=".5" x="0" y="0" width="60" height="60"/>
                <use id="zoomplus" xlink:href="#zoomPlus" x="17" y="9" onmousedown="handleZoom(evt,'in')"/>
                <use id="zoomminus" xlink:href="#zoomMin" x="42" y="9" onmousedown="handleZoom(evt,'out')"/>
                <use id="reset" xlink:href="#resetDef" x="30" y="36" onmousedown="handleReset()"/>
                <g id="arrowUp" xlink:href="#dirArrow" transform="translate(30 24)" onmousedown="handlePan(0,-1)">
                  <use xlink:href="#rim" fill="#404040">
                        <set attributeName="fill" to="#808080" begin="arrowUp.mouseover" end="arrowUp.mouseout"/>
                  </use>
                  <path fill="none" stroke="white" stroke-width="1.5" d="M0,-3.0v7 M-2.5,-0.5L0,-3.0L2.5,-0.5"/>
                </g>
                <g id="arrowRight" xlink:href="#dirArrow" transform="rotate(90) translate(36 -43)" onmousedown="handlePan(1,0)">
                  <use xlink:href="#rim" fill="#404040">
                        <set attributeName="fill" to="#808080" begin="arrowRight.mouseover" end="arrowRight.mouseout"/>
                  </use>
                  <path fill="none" stroke="white" stroke-width="1.5" d="M0,-3.0v7 M-2.5,-0.5L0,-3.0L2.5,-0.5"/>
                </g>
                <g id="arrowDown" xlink:href="#dirArrow" transform="rotate(180) translate(-30 -48)" onmousedown="handlePan(0,1)">
                  <use xlink:href="#rim" fill="#404040">
                        <set attributeName="fill" to="#808080" begin="arrowDown.mouseover" end="arrowDown.mouseout"/>
                  </use>
                  <path fill="none" stroke="white" stroke-width="1.5" d="M0,-3.0v7 M-2.5,-0.5L0,-3.0L2.5,-0.5"/>
                </g>
                <g id="arrowLeft" xlink:href="#dirArrow" transform="rotate(270) translate(-36 17)" onmousedown="handlePan(-1,0)">
                  <use xlink:href="#rim" fill="#404040">
                        <set attributeName="fill" to="#808080" begin="arrowLeft.mouseover" end="arrowLeft.mouseout"/>
                  </use>
                  <path fill="none" stroke="white" stroke-width="1.5" d="M0,-3.0v7 M-2.5,-0.5L0,-3.0L2.5,-0.5"/>
                </g>
        </g>
        <svg viewBox="0 0 15 15" width="100%" height="30px" preserveAspectRatio="xMaxYMin meet">
         <g id="arrow_out" transform="scale(0.3 0.3)">
          <a xlink:href="sphcoords_8h__incl_org.svg" target="_base">
           <rect id="button" ry="5" rx="5" y="6" x="6" height="38" width="38"
                fill="#f2f5e9" fill-opacity="0.5" stroke="#606060" stroke-width="1.0"/>
           <path id="arrow"
             d="M 11.500037,31.436501 C 11.940474,20.09759 22.043105,11.32322 32.158766,21.979434 L 37.068811,17.246167 C 37.068811,17.246167 37.088388,32 37.088388,32 L 22.160133,31.978069 C 22.160133,31.978069 26.997745,27.140456 26.997745,27.140456 C 18.528582,18.264221 13.291696,25.230495 11.500037,31.436501 z"
             style="fill:#404040;"/>
          </a>
         </g>
        </svg>
</svg>
