<?xml version="1.0" encoding="UTF-8" standalone="no"?>
<!DOCTYPE svg PUBLIC "-//W3C//DTD SVG 1.1//EN"
 "http://www.w3.org/Graphics/SVG/1.1/DTD/svg11.dtd">
<!-- Generated by graphviz version 2.38.0 (20140413.2041)
 -->
<!-- Title: Tomographer::MHRWTasks::ValueHistogramTasks::CDataBase&lt; ValueCalculator_, UseBinningAnalysis_, IterCountIntType_, StepRealType_, CountRealType_, HistCountIntType_ &gt; Pages: 1 -->
<svg width="1264pt" height="251pt"
 viewBox="0.00 0.00 1263.63 250.50" xmlns="http://www.w3.org/2000/svg" xmlns:xlink="http://www.w3.org/1999/xlink">
<g id="graph0" class="graph" transform="scale(1 1) rotate(0) translate(4 246.5)">
<title>Tomographer::MHRWTasks::ValueHistogramTasks::CDataBase&lt; ValueCalculator_, UseBinningAnalysis_, IterCountIntType_, StepRealType_, CountRealType_, HistCountIntType_ &gt;</title>
<!-- Node3 -->
<g id="node1" class="node"><title>Node3</title>
<polygon fill="#bfbfbf" stroke="black" points="1063.95,-93.5 1063.95,-161.5 1255.63,-161.5 1255.63,-93.5 1063.95,-93.5"/>
<text text-anchor="start" x="1071.95" y="-149.5" font-family="Helvetica,sans-Serif" font-size="10.00">Tomographer::MHRWTasks</text>
<text text-anchor="start" x="1071.95" y="-139.5" font-family="Helvetica,sans-Serif" font-size="10.00">::ValueHistogramTasks</text>
<text text-anchor="start" x="1071.95" y="-129.5" font-family="Helvetica,sans-Serif" font-size="10.00">::CDataBase&lt; ValueCalculator</text>
<text text-anchor="start" x="1071.95" y="-119.5" font-family="Helvetica,sans-Serif" font-size="10.00">_, UseBinningAnalysis_, IterCountInt</text>
<text text-anchor="start" x="1071.95" y="-109.5" font-family="Helvetica,sans-Serif" font-size="10.00">Type_, StepRealType_, CountRealType</text>
<text text-anchor="middle" x="1159.79" y="-99.5" font-family="Helvetica,sans-Serif" font-size="10.00">_, HistCountIntType_ &gt;</text>
</g>
<!-- Node4 -->
<g id="node2" class="node"><title>Node4</title>
<g id="a_node2"><a xlink:href="struct_tomographer_1_1_m_h_r_w_tasks_1_1_c_data_base.html" target="_top" xlink:title="Data needed to be accessible to the working code. ">
<polygon fill="none" stroke="black" points="778.166,-180.5 778.166,-218.5 933.414,-218.5 933.414,-180.5 778.166,-180.5"/>
<text text-anchor="start" x="786.166" y="-206.5" font-family="Helvetica,sans-Serif" font-size="10.00">Tomographer::MHRWTasks</text>
<text text-anchor="start" x="786.166" y="-196.5" font-family="Helvetica,sans-Serif" font-size="10.00">::CDataBase&lt; IterCountIntType</text>
<text text-anchor="middle" x="855.79" y="-186.5" font-family="Helvetica,sans-Serif" font-size="10.00">_, StepRealType_ &gt;</text>
</a>
</g>
</g>
<!-- Node4&#45;&gt;Node3 -->
<g id="edge1" class="edge"><title>Node4&#45;&gt;Node3</title>
<path fill="none" stroke="midnightblue" d="M943.692,-178.781C981.287,-169.818 1025.39,-159.303 1063.84,-150.136"/>
<polygon fill="midnightblue" stroke="midnightblue" points="942.693,-175.421 933.778,-181.145 944.317,-182.23 942.693,-175.421"/>
</g>
<!-- Node5 -->
<g id="node3" class="node"><title>Node5</title>
<g id="a_node3"><a xlink:href="struct_tomographer_1_1_m_h_r_w_params.html" target="_top" xlink:title="Tomographer::MHRWParams\l\&lt; IterCountIntType, StepReal\lType \&gt;">
<polygon fill="none" stroke="black" points="461.744,-180.5 461.744,-218.5 608.711,-218.5 608.711,-180.5 461.744,-180.5"/>
<text text-anchor="start" x="469.744" y="-206.5" font-family="Helvetica,sans-Serif" font-size="10.00">Tomographer::MHRWParams</text>
<text text-anchor="start" x="469.744" y="-196.5" font-family="Helvetica,sans-Serif" font-size="10.00">&lt; IterCountIntType, StepReal</text>
<text text-anchor="middle" x="535.228" y="-186.5" font-family="Helvetica,sans-Serif" font-size="10.00">Type &gt;</text>
</a>
</g>
</g>
<!-- Node5&#45;&gt;Node4 -->
<g id="edge2" class="edge"><title>Node5&#45;&gt;Node4</title>
<path fill="none" stroke="#9a32cd" stroke-dasharray="5,2" d="M619.184,-199.5C668.265,-199.5 730.008,-199.5 777.974,-199.5"/>
<polygon fill="#9a32cd" stroke="#9a32cd" points="618.913,-196 608.913,-199.5 618.913,-203 618.913,-196"/>
<text text-anchor="middle" x="688.967" y="-201.5" font-family="Helvetica,sans-Serif" font-size="10.00"> mhrw_params</text>
</g>
<!-- Node6 -->
<g id="node4" class="node"><title>Node6</title>
<g id="a_node4"><a xlink:href="struct_tomographer_1_1_m_h_r_w_params.html" target="_top" xlink:title="Specify the parameters of a Metropolis&#45;Hastings random walk. ">
<polygon fill="none" stroke="black" points="165.408,-185.5 165.408,-213.5 337.634,-213.5 337.634,-185.5 165.408,-185.5"/>
<text text-anchor="start" x="173.408" y="-201.5" font-family="Helvetica,sans-Serif" font-size="10.00">Tomographer::MHRWParams</text>
<text text-anchor="middle" x="251.521" y="-191.5" font-family="Helvetica,sans-Serif" font-size="10.00">&lt; CountIntType_, StepRealType_ &gt;</text>
</a>
</g>
</g>
<!-- Node6&#45;&gt;Node5 -->
<g id="edge3" class="edge"><title>Node6&#45;&gt;Node5</title>
<path fill="none" stroke="orange" stroke-dasharray="5,2" d="M348.138,-199.5C385.242,-199.5 427.031,-199.5 461.595,-199.5"/>
<polygon fill="orange" stroke="orange" points="347.807,-196 337.807,-199.5 347.807,-203 347.807,-196"/>
<text text-anchor="start" x="355.634" y="-211.5" font-family="Helvetica,sans-Serif" font-size="10.00"> &lt; IterCountIntType,</text>
<text text-anchor="middle" x="399.689" y="-201.5" font-family="Helvetica,sans-Serif" font-size="10.00"> StepRealType &gt;</text>
</g>
<!-- Node7 -->
<g id="node5" class="node"><title>Node7</title>
<polygon fill="none" stroke="#bfbfbf" points="1.66748,-209.5 1.66748,-227.5 82.7163,-227.5 82.7163,-209.5 1.66748,-209.5"/>
<text text-anchor="middle" x="42.1919" y="-215.5" font-family="Helvetica,sans-Serif" font-size="10.00">CountIntType_</text>
</g>
<!-- Node7&#45;&gt;Node6 -->
<g id="edge4" class="edge"><title>Node7&#45;&gt;Node6</title>
<path fill="none" stroke="#9a32cd" stroke-dasharray="5,2" d="M93.3872,-213.9C114.952,-211.924 140.768,-209.558 165.182,-207.321"/>
<polygon fill="#9a32cd" stroke="#9a32cd" points="92.8059,-210.439 83.167,-214.837 93.4447,-217.409 92.8059,-210.439"/>
<text text-anchor="middle" x="124.896" y="-234.5" font-family="Helvetica,sans-Serif" font-size="10.00"> n_run</text>
<text text-anchor="middle" x="124.896" y="-224.5" font-family="Helvetica,sans-Serif" font-size="10.00">n_therm</text>
<text text-anchor="middle" x="124.896" y="-214.5" font-family="Helvetica,sans-Serif" font-size="10.00">n_sweep</text>
</g>
<!-- Node8 -->
<g id="node6" class="node"><title>Node8</title>
<polygon fill="none" stroke="#bfbfbf" points="0,-172.5 0,-190.5 84.3838,-190.5 84.3838,-172.5 0,-172.5"/>
<text text-anchor="middle" x="42.1919" y="-178.5" font-family="Helvetica,sans-Serif" font-size="10.00">StepRealType_</text>
</g>
<!-- Node8&#45;&gt;Node6 -->
<g id="edge5" class="edge"><title>Node8&#45;&gt;Node6</title>
<path fill="none" stroke="#9a32cd" stroke-dasharray="5,2" d="M94.7582,-183.182C111.564,-183.942 130.297,-185.013 147.408,-186.5 153.25,-187.008 159.271,-187.596 165.33,-188.236"/>
<polygon fill="#9a32cd" stroke="#9a32cd" points="94.7148,-179.677 84.575,-182.748 94.417,-186.671 94.7148,-179.677"/>
<text text-anchor="middle" x="124.896" y="-188.5" font-family="Helvetica,sans-Serif" font-size="10.00"> step_size</text>
</g>
<!-- Node9 -->
<g id="node7" class="node"><title>Node9</title>
<polygon fill="none" stroke="#bfbfbf" points="769.223,-133.5 769.223,-161.5 942.356,-161.5 942.356,-133.5 769.223,-133.5"/>
<text text-anchor="start" x="777.223" y="-149.5" font-family="Helvetica,sans-Serif" font-size="10.00">Tools::NeedOwnOperatorNew</text>
<text text-anchor="middle" x="855.79" y="-139.5" font-family="Helvetica,sans-Serif" font-size="10.00">::ProviderType&lt; ValueCalculator_ &gt;</text>
</g>
<!-- Node9&#45;&gt;Node3 -->
<g id="edge6" class="edge"><title>Node9&#45;&gt;Node3</title>
<path fill="none" stroke="midnightblue" d="M952.876,-141.137C988.333,-138.788 1028.47,-136.131 1063.82,-133.789"/>
<polygon fill="midnightblue" stroke="midnightblue" points="952.269,-137.669 942.522,-141.822 952.731,-144.654 952.269,-137.669"/>
</g>
<!-- Node10 -->
<g id="node8" class="node"><title>Node10</title>
<g id="a_node8"><a xlink:href="struct_tomographer_1_1_tools_1_1_store_if_enabled.html" target="_top" xlink:title="Tomographer::Tools\l::StoreIfEnabled\&lt; int,\l UseBinningAnalysis \&gt;">
<polygon fill="none" stroke="black" points="797.902,-76.5 797.902,-114.5 913.677,-114.5 913.677,-76.5 797.902,-76.5"/>
<text text-anchor="start" x="805.902" y="-102.5" font-family="Helvetica,sans-Serif" font-size="10.00">Tomographer::Tools</text>
<text text-anchor="start" x="805.902" y="-92.5" font-family="Helvetica,sans-Serif" font-size="10.00">::StoreIfEnabled&lt; int,</text>
<text text-anchor="middle" x="855.79" y="-82.5" font-family="Helvetica,sans-Serif" font-size="10.00"> UseBinningAnalysis &gt;</text>
</a>
</g>
</g>
<!-- Node10&#45;&gt;Node3 -->
<g id="edge7" class="edge"><title>Node10&#45;&gt;Node3</title>
<path fill="none" stroke="#9a32cd" stroke-dasharray="5,2" d="M924.132,-102.636C965.264,-106.994 1018.5,-112.635 1063.86,-117.441"/>
<polygon fill="#9a32cd" stroke="#9a32cd" points="924.261,-99.1299 913.948,-101.557 923.523,-106.091 924.261,-99.1299"/>
<text text-anchor="middle" x="1003.15" y="-117.5" font-family="Helvetica,sans-Serif" font-size="10.00"> binningNumLevels</text>
</g>
<!-- Node11 -->
<g id="node9" class="node"><title>Node11</title>
<g id="a_node9"><a xlink:href="struct_tomographer_1_1_tools_1_1_store_if_enabled.html" target="_top" xlink:title="Utility that stores a data type if a compile&#45;time flag is enabled. ">
<polygon fill="none" stroke="black" points="483.316,-76.5 483.316,-114.5 587.139,-114.5 587.139,-76.5 483.316,-76.5"/>
<text text-anchor="start" x="491.316" y="-102.5" font-family="Helvetica,sans-Serif" font-size="10.00">Tomographer::Tools</text>
<text text-anchor="start" x="491.316" y="-92.5" font-family="Helvetica,sans-Serif" font-size="10.00">::StoreIfEnabled&lt; T</text>
<text text-anchor="middle" x="535.228" y="-82.5" font-family="Helvetica,sans-Serif" font-size="10.00">_, enabled &gt;</text>
</a>
</g>
</g>
<!-- Node11&#45;&gt;Node10 -->
<g id="edge8" class="edge"><title>Node11&#45;&gt;Node10</title>
<path fill="none" stroke="orange" stroke-dasharray="5,2" d="M597.513,-95.5C655.364,-95.5 741.422,-95.5 797.817,-95.5"/>
<polygon fill="orange" stroke="orange" points="597.41,-92.0001 587.41,-95.5 597.41,-99.0001 597.41,-92.0001"/>
<text text-anchor="middle" x="688.967" y="-97.5" font-family="Helvetica,sans-Serif" font-size="10.00"> &lt; int, UseBinningAnalysis &gt;</text>
</g>
<!-- Node12 -->
<g id="node10" class="node"><title>Node12</title>
<g id="a_node10"><a xlink:href="struct_tomographer_1_1_uniform_bins_histogram_params.html" target="_top" xlink:title="The parameters of a UniformBinsHistogram. ">
<polygon fill="none" stroke="black" points="782.208,-29.5 782.208,-57.5 929.371,-57.5 929.371,-29.5 782.208,-29.5"/>
<text text-anchor="start" x="790.208" y="-45.5" font-family="Helvetica,sans-Serif" font-size="10.00">Tomographer::UniformBins</text>
<text text-anchor="middle" x="855.79" y="-35.5" font-family="Helvetica,sans-Serif" font-size="10.00">HistogramParams&lt; Scalar_ &gt;</text>
</a>
</g>
</g>
<!-- Node12&#45;&gt;Node3 -->
<g id="edge9" class="edge"><title>Node12&#45;&gt;Node3</title>
<path fill="none" stroke="#9a32cd" stroke-dasharray="5,2" d="M921.999,-60.1491C958.529,-69.6231 1004.87,-81.8849 1045.95,-93.5 1051.76,-95.1421 1057.72,-96.8573 1063.74,-98.6068"/>
<polygon fill="#9a32cd" stroke="#9a32cd" points="922.526,-56.6703 911.968,-57.5538 920.773,-63.4472 922.526,-56.6703"/>
<text text-anchor="middle" x="1003.15" y="-95.5" font-family="Helvetica,sans-Serif" font-size="10.00"> histogram_params</text>
</g>
<!-- Node13 -->
<g id="node11" class="node"><title>Node13</title>
<polygon fill="none" stroke="#bfbfbf" points="510.274,-37.5 510.274,-55.5 560.181,-55.5 560.181,-37.5 510.274,-37.5"/>
<text text-anchor="middle" x="535.228" y="-43.5" font-family="Helvetica,sans-Serif" font-size="10.00">Scalar_</text>
</g>
<!-- Node13&#45;&gt;Node12 -->
<g id="edge10" class="edge"><title>Node13&#45;&gt;Node12</title>
<path fill="none" stroke="#9a32cd" stroke-dasharray="5,2" d="M570.449,-46.1777C620.692,-45.7046 715.625,-44.8106 781.92,-44.1862"/>
<polygon fill="#9a32cd" stroke="#9a32cd" points="570.399,-42.6779 560.433,-46.2721 570.465,-49.6776 570.399,-42.6779"/>
<text text-anchor="middle" x="688.967" y="-58.5" font-family="Helvetica,sans-Serif" font-size="10.00"> min</text>
<text text-anchor="middle" x="688.967" y="-48.5" font-family="Helvetica,sans-Serif" font-size="10.00">max</text>
</g>
<!-- Node14 -->
<g id="node12" class="node"><title>Node14</title>
<g id="a_node12"><a doxygen="/Users/philippe/Research/projects/tomographer/doc/cppreference-doxygen-web.tag.xml:http://en.cppreference.com/w/" xlink:href="http://en.cppreference.com/w/cpp/types/size_t.html" target="_top" xlink:title="std::size_t">
<polygon fill="none" stroke="black" points="504.718,-0.5 504.718,-18.5 565.737,-18.5 565.737,-0.5 504.718,-0.5"/>
<text text-anchor="middle" x="535.228" y="-6.5" font-family="Helvetica,sans-Serif" font-size="10.00">std::size_t</text>
</a>
</g>
</g>
<!-- Node14&#45;&gt;Node12 -->
<g id="edge11" class="edge"><title>Node14&#45;&gt;Node12</title>
<path fill="none" stroke="#9a32cd" stroke-dasharray="5,2" d="M575.886,-13.3978C619.04,-17.6766 690.06,-24.8276 751.223,-31.5 761.209,-32.5895 771.733,-33.7706 782.093,-34.9523"/>
<polygon fill="#9a32cd" stroke="#9a32cd" points="576.097,-9.90166 565.801,-12.3998 575.408,-16.8676 576.097,-9.90166"/>
<text text-anchor="middle" x="688.967" y="-33.5" font-family="Helvetica,sans-Serif" font-size="10.00"> num_bins</text>
</g>
</g>
</svg>
