<?xml version="1.0" encoding="UTF-8" standalone="no"?>
<!DOCTYPE svg PUBLIC "-//W3C//DTD SVG 1.1//EN"
 "http://www.w3.org/Graphics/SVG/1.1/DTD/svg11.dtd">
<!-- Generated by graphviz version 2.38.0 (20140413.2041)
 -->
<!-- Title: Tomographer::Logger::DefaultLoggerTraits Pages: 1 -->
<svg width="325pt" height="178pt"
 viewBox="0.00 0.00 325.23 178.00" xmlns="http://www.w3.org/2000/svg" xmlns:xlink="http://www.w3.org/1999/xlink">
<g id="graph0" class="graph" transform="scale(1 1) rotate(0) translate(4 174)">
<title>Tomographer::Logger::DefaultLoggerTraits</title>
<!-- Node0 -->
<g id="node1" class="node"><title>Node0</title>
<polygon fill="#bfbfbf" stroke="black" points="0,-70.5 0,-98.5 111.615,-98.5 111.615,-70.5 0,-70.5"/>
<text text-anchor="start" x="8" y="-86.5" font-family="Helvetica,sans-Serif" font-size="10.00">Tomographer::Logger</text>
<text text-anchor="middle" x="55.8076" y="-76.5" font-family="Helvetica,sans-Serif" font-size="10.00">::DefaultLoggerTraits</text>
</g>
<!-- Node1 -->
<g id="node2" class="node"><title>Node1</title>
<g id="a_node2"><a xlink:href="struct_tomographer_1_1_logger_1_1_logger_traits_3_01_boost_test_logger_01_4.html" target="_top" xlink:title="Tomographer::Logger\l::LoggerTraits\&lt; BoostTestLogger \&gt;">
<polygon fill="none" stroke="black" points="147.615,-141.5 147.615,-169.5 317.229,-169.5 317.229,-141.5 147.615,-141.5"/>
<text text-anchor="start" x="155.615" y="-157.5" font-family="Helvetica,sans-Serif" font-size="10.00">Tomographer::Logger</text>
<text text-anchor="middle" x="232.422" y="-147.5" font-family="Helvetica,sans-Serif" font-size="10.00">::LoggerTraits&lt; BoostTestLogger &gt;</text>
</a>
</g>
</g>
<!-- Node0&#45;&gt;Node1 -->
<g id="edge1" class="edge"><title>Node0&#45;&gt;Node1</title>
<path fill="none" stroke="midnightblue" d="M88.9855,-103.721C105.993,-113.306 127.471,-124.523 147.615,-132.5 155.892,-135.777 164.805,-138.766 173.621,-141.424"/>
<polygon fill="midnightblue" stroke="midnightblue" points="90.4506,-100.526 80.0333,-98.5946 86.9721,-106.601 90.4506,-100.526"/>
</g>
<!-- Node2 -->
<g id="node3" class="node"><title>Node2</title>
<g id="a_node3"><a xlink:href="struct_tomographer_1_1_logger_1_1_logger_traits_3_01_buffer_logger_01_4.html" target="_top" xlink:title="Specialized Traits for BufferLogger – see LoggerTraits. ">
<polygon fill="none" stroke="black" points="156.319,-94.5 156.319,-122.5 308.525,-122.5 308.525,-94.5 156.319,-94.5"/>
<text text-anchor="start" x="164.319" y="-110.5" font-family="Helvetica,sans-Serif" font-size="10.00">Tomographer::Logger</text>
<text text-anchor="middle" x="232.422" y="-100.5" font-family="Helvetica,sans-Serif" font-size="10.00">::LoggerTraits&lt; BufferLogger &gt;</text>
</a>
</g>
</g>
<!-- Node0&#45;&gt;Node2 -->
<g id="edge2" class="edge"><title>Node0&#45;&gt;Node2</title>
<path fill="none" stroke="midnightblue" d="M122.08,-93.4714C133.174,-94.9962 144.775,-96.5908 156.103,-98.1477"/>
<polygon fill="midnightblue" stroke="midnightblue" points="122.44,-89.9881 112.057,-92.0938 121.487,-96.9229 122.44,-89.9881"/>
</g>
<!-- Node3 -->
<g id="node4" class="node"><title>Node3</title>
<g id="a_node4"><a xlink:href="struct_tomographer_1_1_logger_1_1_logger_traits_3_01_file_logger_01_4.html" target="_top" xlink:title="Specialized Traits for FileLogger – see LoggerTraits. ">
<polygon fill="none" stroke="black" points="161.514,-47.5 161.514,-75.5 303.33,-75.5 303.33,-47.5 161.514,-47.5"/>
<text text-anchor="start" x="169.514" y="-63.5" font-family="Helvetica,sans-Serif" font-size="10.00">Tomographer::Logger</text>
<text text-anchor="middle" x="232.422" y="-53.5" font-family="Helvetica,sans-Serif" font-size="10.00">::LoggerTraits&lt; FileLogger &gt;</text>
</a>
</g>
</g>
<!-- Node0&#45;&gt;Node3 -->
<g id="edge3" class="edge"><title>Node0&#45;&gt;Node3</title>
<path fill="none" stroke="midnightblue" d="M122.174,-75.89C135,-74.2006 148.5,-72.4224 161.469,-70.7142"/>
<polygon fill="midnightblue" stroke="midnightblue" points="121.514,-72.4466 112.057,-77.2227 122.428,-79.3867 121.514,-72.4466"/>
</g>
<!-- Node4 -->
<g id="node5" class="node"><title>Node4</title>
<g id="a_node5"><a xlink:href="struct_tomographer_1_1_logger_1_1_logger_traits_3_01_vacuum_logger_01_4.html" target="_top" xlink:title="Specialied Traits for VacuumLogger. See LoggerTraits&lt;BaseLogger&gt;. ">
<polygon fill="none" stroke="black" points="151.597,-0.5 151.597,-28.5 313.247,-28.5 313.247,-0.5 151.597,-0.5"/>
<text text-anchor="start" x="159.597" y="-16.5" font-family="Helvetica,sans-Serif" font-size="10.00">Tomographer::Logger</text>
<text text-anchor="middle" x="232.422" y="-6.5" font-family="Helvetica,sans-Serif" font-size="10.00">::LoggerTraits&lt; VacuumLogger &gt;</text>
</a>
</g>
</g>
<!-- Node0&#45;&gt;Node4 -->
<g id="edge4" class="edge"><title>Node0&#45;&gt;Node4</title>
<path fill="none" stroke="midnightblue" d="M90.5445,-65.4786C107.348,-56.5071 128.182,-46.1248 147.615,-38.5 156.914,-34.8516 166.988,-31.4892 176.821,-28.5078"/>
<polygon fill="midnightblue" stroke="midnightblue" points="88.7846,-62.4514 81.6581,-70.2913 92.1182,-68.6067 88.7846,-62.4514"/>
</g>
</g>
</svg>
