<?xml version="1.0" encoding="UTF-8" standalone="no"?>
<!DOCTYPE svg PUBLIC "-//W3C//DTD SVG 1.1//EN"
 "http://www.w3.org/Graphics/SVG/1.1/DTD/svg11.dtd">
<!-- Generated by graphviz version 2.38.0 (20140413.2041)
 -->
<!-- Title: Tomographer::MAT::InvalidIndexError Pages: 1 -->
<svg width="157pt" height="147pt"
 viewBox="0.00 0.00 157.21 147.00" xmlns="http://www.w3.org/2000/svg" xmlns:xlink="http://www.w3.org/1999/xlink">
<g id="graph0" class="graph" transform="scale(1 1) rotate(0) translate(4 143)">
<title>Tomographer::MAT::InvalidIndexError</title>
<!-- Node1 -->
<g id="node1" class="node"><title>Node1</title>
<polygon fill="#bfbfbf" stroke="black" points="7.50488,-0.5 7.50488,-28.5 141.708,-28.5 141.708,-0.5 7.50488,-0.5"/>
<text text-anchor="start" x="15.5049" y="-16.5" font-family="Helvetica,sans-Serif" font-size="10.00">Tomographer::MAT::Invalid</text>
<text text-anchor="middle" x="74.6064" y="-6.5" font-family="Helvetica,sans-Serif" font-size="10.00">IndexError</text>
</g>
<!-- Node2 -->
<g id="node2" class="node"><title>Node2</title>
<g id="a_node2"><a xlink:href="class_tomographer_1_1_m_a_t_1_1_exception.html" target="_top" xlink:title="Base Exception class for errors within our MAT routines. ">
<polygon fill="none" stroke="black" points="0,-65.5 0,-83.5 149.213,-83.5 149.213,-65.5 0,-65.5"/>
<text text-anchor="middle" x="74.6064" y="-71.5" font-family="Helvetica,sans-Serif" font-size="10.00">Tomographer::MAT::Exception</text>
</a>
</g>
</g>
<!-- Node2&#45;&gt;Node1 -->
<g id="edge1" class="edge"><title>Node2&#45;&gt;Node1</title>
<path fill="none" stroke="midnightblue" d="M74.6064,-55.3209C74.6064,-46.747 74.6064,-36.6999 74.6064,-28.8428"/>
<polygon fill="midnightblue" stroke="midnightblue" points="71.1065,-55.4353 74.6064,-65.4353 78.1065,-55.4354 71.1065,-55.4353"/>
</g>
<!-- Node3 -->
<g id="node3" class="node"><title>Node3</title>
<g id="a_node3"><a doxygen="/Users/philippe/Documents/ETH/PhD/projects/qtomo/tomographer/doc/cppreference-doxygen-web.tag.xml:http://en.cppreference.com/w//" xlink:href="http://en.cppreference.com/w/cpp/error/exception.html" target="_top" xlink:title="STL class. ">
<polygon fill="none" stroke="black" points="35.7544,-120.5 35.7544,-138.5 113.458,-138.5 113.458,-120.5 35.7544,-120.5"/>
<text text-anchor="middle" x="74.6064" y="-126.5" font-family="Helvetica,sans-Serif" font-size="10.00">std::exception</text>
</a>
</g>
</g>
<!-- Node3&#45;&gt;Node2 -->
<g id="edge2" class="edge"><title>Node3&#45;&gt;Node2</title>
<path fill="none" stroke="midnightblue" d="M74.6064,-110.175C74.6064,-101.094 74.6064,-90.5949 74.6064,-83.5496"/>
<polygon fill="midnightblue" stroke="midnightblue" points="71.1065,-110.219 74.6064,-120.219 78.1065,-110.219 71.1065,-110.219"/>
</g>
</g>
</svg>
