<?xml version="1.0" encoding="UTF-8" standalone="no"?>
<!DOCTYPE svg PUBLIC "-//W3C//DTD SVG 1.1//EN"
 "http://www.w3.org/Graphics/SVG/1.1/DTD/svg11.dtd">
<!-- Generated by graphviz version 2.38.0 (20140413.2041)
 -->
<!-- Title: Tomographer::BinningAnalysis&lt; Params, LoggerType_ &gt; Pages: 1 -->
<svg width="714pt" height="171pt"
 viewBox="0.00 0.00 713.64 171.00" xmlns="http://www.w3.org/2000/svg" xmlns:xlink="http://www.w3.org/1999/xlink">
<g id="graph0" class="graph" transform="scale(1 1) rotate(0) translate(4 167)">
<title>Tomographer::BinningAnalysis&lt; Params, LoggerType_ &gt;</title>
<!-- Node1 -->
<g id="node1" class="node"><title>Node1</title>
<polygon fill="#bfbfbf" stroke="black" points="554.566,-62.5 554.566,-90.5 705.64,-90.5 705.64,-62.5 554.566,-62.5"/>
<text text-anchor="start" x="562.566" y="-78.5" font-family="Helvetica,sans-Serif" font-size="10.00">Tomographer::BinningAnalysis</text>
<text text-anchor="middle" x="630.103" y="-68.5" font-family="Helvetica,sans-Serif" font-size="10.00">&lt; Params, LoggerType_ &gt;</text>
</g>
<!-- Node2 -->
<g id="node2" class="node"><title>Node2</title>
<g id="a_node2"><a xlink:href="class_tomographer_1_1_tools_1_1static__or__dynamic.html" target="_top" xlink:title="Tomographer::Tools\l::static_or_dynamic\l\&lt; CountIntType, SamplesSize\lCTime \&gt;">
<polygon fill="none" stroke="black" points="283.616,-114.5 283.616,-162.5 431.638,-162.5 431.638,-114.5 283.616,-114.5"/>
<text text-anchor="start" x="291.616" y="-150.5" font-family="Helvetica,sans-Serif" font-size="10.00">Tomographer::Tools</text>
<text text-anchor="start" x="291.616" y="-140.5" font-family="Helvetica,sans-Serif" font-size="10.00">::static_or_dynamic</text>
<text text-anchor="start" x="291.616" y="-130.5" font-family="Helvetica,sans-Serif" font-size="10.00">&lt; CountIntType, SamplesSize</text>
<text text-anchor="middle" x="357.627" y="-120.5" font-family="Helvetica,sans-Serif" font-size="10.00">CTime &gt;</text>
</a>
</g>
</g>
<!-- Node2&#45;&gt;Node1 -->
<g id="edge1" class="edge"><title>Node2&#45;&gt;Node1</title>
<path fill="none" stroke="#9a32cd" stroke-dasharray="5,2" d="M441.718,-119.453C482.38,-110.133 530.468,-99.1096 567.749,-90.5639"/>
<polygon fill="#9a32cd" stroke="#9a32cd" points="440.787,-116.076 431.822,-121.722 442.351,-122.899 440.787,-116.076"/>
<text text-anchor="middle" x="494.601" y="-118.5" font-family="Helvetica,sans-Serif" font-size="10.00"> samples_size</text>
</g>
<!-- Node3 -->
<g id="node3" class="node"><title>Node3</title>
<g id="a_node3"><a xlink:href="class_tomographer_1_1_tools_1_1static__or__dynamic.html" target="_top" xlink:title="A type which stores a value possibly known at compile&#45;time. ">
<polygon fill="none" stroke="black" points="0,-57.5 0,-95.5 103.822,-95.5 103.822,-57.5 0,-57.5"/>
<text text-anchor="start" x="8" y="-83.5" font-family="Helvetica,sans-Serif" font-size="10.00">Tomographer::Tools</text>
<text text-anchor="start" x="8" y="-73.5" font-family="Helvetica,sans-Serif" font-size="10.00">::static_or_dynamic</text>
<text text-anchor="middle" x="51.9111" y="-63.5" font-family="Helvetica,sans-Serif" font-size="10.00">&lt; T_, Value &gt;</text>
</a>
</g>
</g>
<!-- Node3&#45;&gt;Node2 -->
<g id="edge2" class="edge"><title>Node3&#45;&gt;Node2</title>
<path fill="none" stroke="orange" stroke-dasharray="5,2" d="M113.909,-88.952C162.853,-98.9432 231.71,-113 283.589,-123.59"/>
<polygon fill="orange" stroke="orange" points="114.587,-85.5183 104.089,-86.9473 113.187,-92.3768 114.587,-85.5183"/>
<text text-anchor="start" x="124.82" y="-129.5" font-family="Helvetica,sans-Serif" font-size="10.00"> &lt; CountIntType, SamplesSize</text>
<text text-anchor="middle" x="192.22" y="-119.5" font-family="Helvetica,sans-Serif" font-size="10.00">CTime &gt;</text>
</g>
<!-- Node4 -->
<g id="node4" class="node"><title>Node4</title>
<g id="a_node4"><a xlink:href="class_tomographer_1_1_tools_1_1static__or__dynamic.html" target="_top" xlink:title="Tomographer::Tools\l::static_or_dynamic\l\&lt; int, NumTrackValuesCTime \&gt;">
<polygon fill="none" stroke="black" points="280.618,-57.5 280.618,-95.5 434.636,-95.5 434.636,-57.5 280.618,-57.5"/>
<text text-anchor="start" x="288.618" y="-83.5" font-family="Helvetica,sans-Serif" font-size="10.00">Tomographer::Tools</text>
<text text-anchor="start" x="288.618" y="-73.5" font-family="Helvetica,sans-Serif" font-size="10.00">::static_or_dynamic</text>
<text text-anchor="middle" x="357.627" y="-63.5" font-family="Helvetica,sans-Serif" font-size="10.00">&lt; int, NumTrackValuesCTime &gt;</text>
</a>
</g>
</g>
<!-- Node3&#45;&gt;Node4 -->
<g id="edge4" class="edge"><title>Node3&#45;&gt;Node4</title>
<path fill="none" stroke="orange" stroke-dasharray="5,2" d="M114.32,-76.5C162.246,-76.5 229.083,-76.5 280.424,-76.5"/>
<polygon fill="orange" stroke="orange" points="114.089,-73.0001 104.089,-76.5 114.089,-80.0001 114.089,-73.0001"/>
<text text-anchor="middle" x="192.22" y="-78.5" font-family="Helvetica,sans-Serif" font-size="10.00"> &lt; int, NumTrackValuesCTime &gt;</text>
</g>
<!-- Node5 -->
<g id="node5" class="node"><title>Node5</title>
<g id="a_node5"><a xlink:href="class_tomographer_1_1_tools_1_1static__or__dynamic.html" target="_top" xlink:title="Tomographer::Tools\l::static_or_dynamic\l\&lt; int, NumLevelsCTime \&gt;">
<polygon fill="none" stroke="black" points="293.401,-0.5 293.401,-38.5 421.853,-38.5 421.853,-0.5 293.401,-0.5"/>
<text text-anchor="start" x="301.401" y="-26.5" font-family="Helvetica,sans-Serif" font-size="10.00">Tomographer::Tools</text>
<text text-anchor="start" x="301.401" y="-16.5" font-family="Helvetica,sans-Serif" font-size="10.00">::static_or_dynamic</text>
<text text-anchor="middle" x="357.627" y="-6.5" font-family="Helvetica,sans-Serif" font-size="10.00">&lt; int, NumLevelsCTime &gt;</text>
</a>
</g>
</g>
<!-- Node3&#45;&gt;Node5 -->
<g id="edge6" class="edge"><title>Node3&#45;&gt;Node5</title>
<path fill="none" stroke="orange" stroke-dasharray="5,2" d="M114.144,-63.9961C116.737,-63.4867 119.305,-62.9861 121.822,-62.5 179.807,-51.3017 245.992,-39.2467 293.282,-30.7586"/>
<polygon fill="orange" stroke="orange" points="113.197,-60.6156 104.068,-65.9926 114.558,-67.4821 113.197,-60.6156"/>
<text text-anchor="middle" x="192.22" y="-64.5" font-family="Helvetica,sans-Serif" font-size="10.00"> &lt; int, NumLevelsCTime &gt;</text>
</g>
<!-- Node4&#45;&gt;Node1 -->
<g id="edge3" class="edge"><title>Node4&#45;&gt;Node1</title>
<path fill="none" stroke="#9a32cd" stroke-dasharray="5,2" d="M444.969,-76.5C480.224,-76.5 520.602,-76.5 554.545,-76.5"/>
<polygon fill="#9a32cd" stroke="#9a32cd" points="444.689,-73.0001 434.689,-76.5 444.689,-80.0001 444.689,-73.0001"/>
<text text-anchor="middle" x="494.601" y="-78.5" font-family="Helvetica,sans-Serif" font-size="10.00"> num_track_values</text>
</g>
<!-- Node5&#45;&gt;Node1 -->
<g id="edge5" class="edge"><title>Node5&#45;&gt;Node1</title>
<path fill="none" stroke="#9a32cd" stroke-dasharray="5,2" d="M431.892,-34.9399C472.549,-43.5078 522.739,-54.0849 562.312,-62.4244"/>
<polygon fill="#9a32cd" stroke="#9a32cd" points="432.548,-31.5014 422.042,-32.864 431.105,-38.3509 432.548,-31.5014"/>
<text text-anchor="middle" x="494.601" y="-57.5" font-family="Helvetica,sans-Serif" font-size="10.00"> num_levels</text>
</g>
</g>
</svg>
