<?xml version="1.0" encoding="UTF-8" standalone="no"?>
<!DOCTYPE svg PUBLIC "-//W3C//DTD SVG 1.1//EN"
 "http://www.w3.org/Graphics/SVG/1.1/DTD/svg11.dtd">
<!-- Generated by graphviz version 2.38.0 (20140413.2041)
 -->
<!-- Title: tomographer/tools/ezmatio.h Pages: 1 -->
<svg width="1190pt" height="247pt"
 viewBox="0.00 0.00 1189.85 247.00" xmlns="http://www.w3.org/2000/svg" xmlns:xlink="http://www.w3.org/1999/xlink">
<g id="graph0" class="graph" transform="scale(1 1) rotate(0) translate(4 243)">
<title>tomographer/tools/ezmatio.h</title>
<!-- Node1 -->
<g id="node1" class="node"><title>Node1</title>
<polygon fill="#bfbfbf" stroke="black" points="606.084,-220.5 606.084,-238.5 748.817,-238.5 748.817,-220.5 606.084,-220.5"/>
<text text-anchor="middle" x="677.451" y="-226.5" font-family="Helvetica,sans-Serif" font-size="10.00">tomographer/tools/ezmatio.h</text>
</g>
<!-- Node2 -->
<g id="node2" class="node"><title>Node2</title>
<polygon fill="none" stroke="#bfbfbf" points="0,-165.5 0,-183.5 44.9014,-183.5 44.9014,-165.5 0,-165.5"/>
<text text-anchor="middle" x="22.4507" y="-171.5" font-family="Helvetica,sans-Serif" font-size="10.00">cstdint</text>
</g>
<!-- Node1&#45;&gt;Node2 -->
<g id="edge1" class="edge"><title>Node1&#45;&gt;Node2</title>
<path fill="none" stroke="midnightblue" d="M605.928,-227.755C491.43,-225.603 259.93,-217.316 55.1026,-183.74"/>
<polygon fill="midnightblue" stroke="midnightblue" points="55.4999,-180.258 45.0612,-182.07 54.3514,-187.163 55.4999,-180.258"/>
</g>
<!-- Node3 -->
<g id="node3" class="node"><title>Node3</title>
<polygon fill="none" stroke="#bfbfbf" points="63.2783,-165.5 63.2783,-183.5 107.623,-183.5 107.623,-165.5 63.2783,-165.5"/>
<text text-anchor="middle" x="85.4507" y="-171.5" font-family="Helvetica,sans-Serif" font-size="10.00">cerrno</text>
</g>
<!-- Node1&#45;&gt;Node3 -->
<g id="edge2" class="edge"><title>Node1&#45;&gt;Node3</title>
<path fill="none" stroke="midnightblue" d="M605.951,-226.251C499.707,-222.127 294.122,-211.133 121.451,-184 120.202,-183.804 118.932,-183.587 117.652,-183.355"/>
<polygon fill="midnightblue" stroke="midnightblue" points="118.314,-179.918 107.815,-181.336 116.907,-186.775 118.314,-179.918"/>
</g>
<!-- Node4 -->
<g id="node4" class="node"><title>Node4</title>
<polygon fill="none" stroke="#bfbfbf" points="163.833,-110.5 163.833,-128.5 217.069,-128.5 217.069,-110.5 163.833,-110.5"/>
<text text-anchor="middle" x="190.451" y="-116.5" font-family="Helvetica,sans-Serif" font-size="10.00">complex</text>
</g>
<!-- Node1&#45;&gt;Node4 -->
<g id="edge3" class="edge"><title>Node1&#45;&gt;Node4</title>
<path fill="none" stroke="midnightblue" d="M605.832,-228.917C527.96,-227.37 400.801,-218.949 297.451,-184 263.761,-172.608 229.149,-149.605 208.735,-134.638"/>
<polygon fill="midnightblue" stroke="midnightblue" points="210.756,-131.779 200.654,-128.584 206.56,-137.381 210.756,-131.779"/>
</g>
<!-- Node5 -->
<g id="node5" class="node"><title>Node5</title>
<polygon fill="none" stroke="#bfbfbf" points="780.224,-0.5 780.224,-18.5 820.677,-18.5 820.677,-0.5 780.224,-0.5"/>
<text text-anchor="middle" x="800.451" y="-6.5" font-family="Helvetica,sans-Serif" font-size="10.00">string</text>
</g>
<!-- Node1&#45;&gt;Node5 -->
<g id="edge4" class="edge"><title>Node1&#45;&gt;Node5</title>
<path fill="none" stroke="midnightblue" d="M697.719,-220.487C719.352,-211.838 754.557,-197.484 784.451,-184 802.026,-176.072 805.103,-170.925 823.451,-165 912.73,-136.169 971.032,-200.774 1031.45,-129 1090.93,-58.3382 907.171,-24.8723 831.473,-14.3308"/>
<polygon fill="midnightblue" stroke="midnightblue" points="831.508,-10.804 821.131,-12.9401 830.575,-17.7416 831.508,-10.804"/>
</g>
<!-- Node6 -->
<g id="node6" class="node"><title>Node6</title>
<polygon fill="none" stroke="#bfbfbf" points="234.835,-110.5 234.835,-128.5 278.066,-128.5 278.066,-110.5 234.835,-110.5"/>
<text text-anchor="middle" x="256.451" y="-116.5" font-family="Helvetica,sans-Serif" font-size="10.00">vector</text>
</g>
<!-- Node1&#45;&gt;Node6 -->
<g id="edge5" class="edge"><title>Node1&#45;&gt;Node6</title>
<path fill="none" stroke="midnightblue" d="M605.832,-224.246C518.728,-218.227 377.385,-205.495 329.451,-184 305.363,-173.199 283.339,-151.728 269.922,-136.759"/>
<polygon fill="midnightblue" stroke="midnightblue" points="272.254,-134.104 263.067,-128.826 266.957,-138.681 272.254,-134.104"/>
</g>
<!-- Node7 -->
<g id="node7" class="node"><title>Node7</title>
<polygon fill="none" stroke="#bfbfbf" points="832.887,-165.5 832.887,-183.5 890.015,-183.5 890.015,-165.5 832.887,-165.5"/>
<text text-anchor="middle" x="861.451" y="-171.5" font-family="Helvetica,sans-Serif" font-size="10.00">algorithm</text>
</g>
<!-- Node1&#45;&gt;Node7 -->
<g id="edge6" class="edge"><title>Node1&#45;&gt;Node7</title>
<path fill="none" stroke="midnightblue" d="M705.396,-220.45C736.964,-211.357 788.507,-196.511 823.651,-186.388"/>
<polygon fill="midnightblue" stroke="midnightblue" points="824.904,-189.67 833.544,-183.538 822.966,-182.943 824.904,-189.67"/>
</g>
<!-- Node8 -->
<g id="node8" class="node"><title>Node8</title>
<polygon fill="none" stroke="#bfbfbf" points="531.278,-110.5 531.278,-128.5 585.623,-128.5 585.623,-110.5 531.278,-110.5"/>
<text text-anchor="middle" x="558.451" y="-116.5" font-family="Helvetica,sans-Serif" font-size="10.00">iostream</text>
</g>
<!-- Node1&#45;&gt;Node8 -->
<g id="edge7" class="edge"><title>Node1&#45;&gt;Node8</title>
<path fill="none" stroke="midnightblue" d="M661.347,-220.368C646.406,-212.358 624.041,-199.147 607.451,-184 592.076,-169.964 577.948,-150.666 568.853,-137.038"/>
<polygon fill="midnightblue" stroke="midnightblue" points="571.787,-135.129 563.408,-128.644 565.914,-138.938 571.787,-135.129"/>
</g>
<!-- Node9 -->
<g id="node9" class="node"><title>Node9</title>
<polygon fill="none" stroke="#bfbfbf" points="908.049,-165.5 908.049,-183.5 966.852,-183.5 966.852,-165.5 908.049,-165.5"/>
<text text-anchor="middle" x="937.451" y="-171.5" font-family="Helvetica,sans-Serif" font-size="10.00">stdexcept</text>
</g>
<!-- Node1&#45;&gt;Node9 -->
<g id="edge8" class="edge"><title>Node1&#45;&gt;Node9</title>
<path fill="none" stroke="midnightblue" d="M718.832,-220.491C761.37,-212.194 829.787,-198.674 897.954,-184.283"/>
<polygon fill="midnightblue" stroke="midnightblue" points="898.949,-187.65 908.006,-182.154 897.498,-180.802 898.949,-187.65"/>
</g>
<!-- Node10 -->
<g id="node10" class="node"><title>Node10</title>
<polygon fill="none" stroke="#bfbfbf" points="970.67,-110.5 970.67,-128.5 1022.23,-128.5 1022.23,-110.5 970.67,-110.5"/>
<text text-anchor="middle" x="996.451" y="-116.5" font-family="Helvetica,sans-Serif" font-size="10.00">sstream</text>
</g>
<!-- Node1&#45;&gt;Node10 -->
<g id="edge9" class="edge"><title>Node1&#45;&gt;Node10</title>
<path fill="none" stroke="midnightblue" d="M689.069,-220.376C708.923,-206.868 751.063,-179.814 790.451,-165 860.164,-138.781 883.771,-145.529 960.353,-129.136"/>
<polygon fill="midnightblue" stroke="midnightblue" points="961.467,-132.475 970.478,-126.902 959.959,-125.639 961.467,-132.475"/>
</g>
<!-- Node11 -->
<g id="node11" class="node"><title>Node11</title>
<polygon fill="none" stroke="#bfbfbf" points="985.108,-165.5 985.108,-183.5 1057.79,-183.5 1057.79,-165.5 985.108,-165.5"/>
<text text-anchor="middle" x="1021.45" y="-171.5" font-family="Helvetica,sans-Serif" font-size="10.00">initializer_list</text>
</g>
<!-- Node1&#45;&gt;Node11 -->
<g id="edge10" class="edge"><title>Node1&#45;&gt;Node11</title>
<path fill="none" stroke="midnightblue" d="M735.229,-220.474C793.162,-212.291 885.178,-198.925 974.751,-184.065"/>
<polygon fill="midnightblue" stroke="midnightblue" points="975.524,-187.485 984.812,-182.388 974.373,-180.58 975.524,-187.485"/>
</g>
<!-- Node12 -->
<g id="node12" class="node"><title>Node12</title>
<polygon fill="none" stroke="#bfbfbf" points="1076.06,-165.5 1076.06,-183.5 1114.84,-183.5 1114.84,-165.5 1076.06,-165.5"/>
<text text-anchor="middle" x="1095.45" y="-171.5" font-family="Helvetica,sans-Serif" font-size="10.00">utility</text>
</g>
<!-- Node1&#45;&gt;Node12 -->
<g id="edge11" class="edge"><title>Node1&#45;&gt;Node12</title>
<path fill="none" stroke="midnightblue" d="M749.007,-224.002C825.26,-218.38 949.563,-206.839 1065.77,-183.768"/>
<polygon fill="midnightblue" stroke="midnightblue" points="1066.8,-187.131 1075.91,-181.721 1065.41,-180.269 1066.8,-187.131"/>
</g>
<!-- Node13 -->
<g id="node13" class="node"><title>Node13</title>
<polygon fill="none" stroke="#bfbfbf" points="1133.05,-165.5 1133.05,-183.5 1181.85,-183.5 1181.85,-165.5 1133.05,-165.5"/>
<text text-anchor="middle" x="1157.45" y="-171.5" font-family="Helvetica,sans-Serif" font-size="10.00">matio.h</text>
</g>
<!-- Node1&#45;&gt;Node13 -->
<g id="edge12" class="edge"><title>Node1&#45;&gt;Node13</title>
<path fill="none" stroke="midnightblue" d="M748.949,-224.582C835.325,-219.128 985.128,-207.37 1123.11,-183.777"/>
<polygon fill="midnightblue" stroke="midnightblue" points="1123.77,-187.215 1133.03,-182.057 1122.58,-180.318 1123.77,-187.215"/>
</g>
<!-- Node14 -->
<g id="node14" class="node"><title>Node14</title>
<polygon fill="none" stroke="#bfbfbf" points="378.436,-55.5 378.436,-73.5 444.465,-73.5 444.465,-55.5 378.436,-55.5"/>
<text text-anchor="middle" x="411.451" y="-61.5" font-family="Helvetica,sans-Serif" font-size="10.00">Eigen/Core</text>
</g>
<!-- Node1&#45;&gt;Node14 -->
<g id="edge13" class="edge"><title>Node1&#45;&gt;Node14</title>
<path fill="none" stroke="midnightblue" d="M605.979,-227.347C473.618,-223.366 199.653,-205.822 154.451,-129 150.168,-121.722 149.013,-116.46 154.451,-110 181.23,-78.1848 301.879,-69.1156 367.913,-66.5305"/>
<polygon fill="midnightblue" stroke="midnightblue" points="368.152,-70.0243 378.02,-66.1688 367.901,-63.0288 368.152,-70.0243"/>
</g>
<!-- Node15 -->
<g id="node15" class="node"><title>Node15</title>
<g id="a_node15"><a xlink:href="qit_2util_8h.html" target="_top" xlink:title="Basic utilities for dealing with Eigen matrices and other types. ">
<polygon fill="none" stroke="black" points="338.48,-165.5 338.48,-183.5 448.421,-183.5 448.421,-165.5 338.48,-165.5"/>
<text text-anchor="middle" x="393.451" y="-171.5" font-family="Helvetica,sans-Serif" font-size="10.00">tomographer/qit/util.h</text>
</a>
</g>
</g>
<!-- Node1&#45;&gt;Node15 -->
<g id="edge14" class="edge"><title>Node1&#45;&gt;Node15</title>
<path fill="none" stroke="midnightblue" d="M634.317,-220.45C584.024,-211.065 500.883,-195.549 446.636,-185.425"/>
<polygon fill="midnightblue" stroke="midnightblue" points="446.996,-181.932 436.524,-183.538 445.712,-188.814 446.996,-181.932"/>
</g>
<!-- Node18 -->
<g id="node18" class="node"><title>Node18</title>
<g id="a_node18"><a xlink:href="fmt_8h.html" target="_top" xlink:title="Utilities for formatting strings. ">
<polygon fill="none" stroke="black" points="616.648,-165.5 616.648,-183.5 738.253,-183.5 738.253,-165.5 616.648,-165.5"/>
<text text-anchor="middle" x="677.451" y="-171.5" font-family="Helvetica,sans-Serif" font-size="10.00">tomographer/tools/fmt.h</text>
</a>
</g>
</g>
<!-- Node1&#45;&gt;Node18 -->
<g id="edge20" class="edge"><title>Node1&#45;&gt;Node18</title>
<path fill="none" stroke="midnightblue" d="M677.451,-220.219C677.451,-213.177 677.451,-202.808 677.451,-193.828"/>
<polygon fill="midnightblue" stroke="midnightblue" points="680.951,-193.55 677.451,-183.55 673.951,-193.55 680.951,-193.55"/>
</g>
<!-- Node15&#45;&gt;Node4 -->
<g id="edge15" class="edge"><title>Node15&#45;&gt;Node4</title>
<path fill="none" stroke="midnightblue" d="M362.619,-165.45C326.271,-155.96 265.918,-140.203 227.181,-130.09"/>
<polygon fill="midnightblue" stroke="midnightblue" points="227.907,-126.662 217.347,-127.522 226.138,-133.435 227.907,-126.662"/>
</g>
<!-- Node15&#45;&gt;Node6 -->
<g id="edge16" class="edge"><title>Node15&#45;&gt;Node6</title>
<path fill="none" stroke="midnightblue" d="M372.643,-165.45C349.81,-156.617 312.943,-142.355 286.867,-132.267"/>
<polygon fill="midnightblue" stroke="midnightblue" points="288.043,-128.969 277.454,-128.625 285.517,-135.498 288.043,-128.969"/>
</g>
<!-- Node15&#45;&gt;Node14 -->
<g id="edge17" class="edge"><title>Node15&#45;&gt;Node14</title>
<path fill="none" stroke="midnightblue" d="M394.804,-165.382C397.67,-148.182 404.418,-107.698 408.386,-83.8866"/>
<polygon fill="midnightblue" stroke="midnightblue" points="411.89,-84.1511 410.082,-73.7118 404.986,-83.0003 411.89,-84.1511"/>
</g>
<!-- Node16 -->
<g id="node16" class="node"><title>Node16</title>
<polygon fill="none" stroke="#bfbfbf" points="439.82,-110.5 439.82,-128.5 513.081,-128.5 513.081,-110.5 439.82,-110.5"/>
<text text-anchor="middle" x="476.451" y="-116.5" font-family="Helvetica,sans-Serif" font-size="10.00">Eigen/Dense</text>
</g>
<!-- Node15&#45;&gt;Node16 -->
<g id="edge18" class="edge"><title>Node15&#45;&gt;Node16</title>
<path fill="none" stroke="midnightblue" d="M406.057,-165.45C419.097,-157.123 439.695,-143.97 455.247,-134.039"/>
<polygon fill="midnightblue" stroke="midnightblue" points="457.182,-136.957 463.726,-128.625 453.414,-131.057 457.182,-136.957"/>
</g>
<!-- Node17 -->
<g id="node17" class="node"><title>Node17</title>
<polygon fill="none" stroke="#bfbfbf" points="295.591,-110.5 295.591,-128.5 383.31,-128.5 383.31,-110.5 295.591,-110.5"/>
<text text-anchor="middle" x="339.451" y="-116.5" font-family="Helvetica,sans-Serif" font-size="10.00">Eigen/StdVector</text>
</g>
<!-- Node15&#45;&gt;Node17 -->
<g id="edge19" class="edge"><title>Node15&#45;&gt;Node17</title>
<path fill="none" stroke="midnightblue" d="M385.013,-165.219C376.962,-157.316 364.641,-145.224 354.841,-135.606"/>
<polygon fill="midnightblue" stroke="midnightblue" points="357.241,-133.056 347.652,-128.55 352.337,-138.052 357.241,-133.056"/>
</g>
<!-- Node18&#45;&gt;Node5 -->
<g id="edge24" class="edge"><title>Node18&#45;&gt;Node5</title>
<path fill="none" stroke="midnightblue" d="M678.299,-165.219C680.859,-144.221 690.288,-88.2128 720.451,-55 734.116,-39.9524 754.096,-28.8331 770.669,-21.4729"/>
<polygon fill="midnightblue" stroke="midnightblue" points="772.094,-24.6705 779.96,-17.5724 769.384,-18.2162 772.094,-24.6705"/>
</g>
<!-- Node18&#45;&gt;Node8 -->
<g id="edge26" class="edge"><title>Node18&#45;&gt;Node8</title>
<path fill="none" stroke="midnightblue" d="M659.377,-165.45C639.894,-156.773 608.645,-142.856 586.077,-132.804"/>
<polygon fill="midnightblue" stroke="midnightblue" points="587.253,-129.497 576.694,-128.625 584.405,-135.891 587.253,-129.497"/>
</g>
<!-- Node18&#45;&gt;Node10 -->
<g id="edge25" class="edge"><title>Node18&#45;&gt;Node10</title>
<path fill="none" stroke="midnightblue" d="M738.095,-165.481C793.519,-157.816 877.943,-145.3 960.459,-129.053"/>
<polygon fill="midnightblue" stroke="midnightblue" points="961.385,-132.437 970.51,-127.053 960.019,-125.572 961.385,-132.437"/>
</g>
<!-- Node19 -->
<g id="node19" class="node"><title>Node19</title>
<polygon fill="none" stroke="#bfbfbf" points="705.389,-110.5 705.389,-128.5 747.512,-128.5 747.512,-110.5 705.389,-110.5"/>
<text text-anchor="middle" x="726.451" y="-116.5" font-family="Helvetica,sans-Serif" font-size="10.00">cstdio</text>
</g>
<!-- Node18&#45;&gt;Node19 -->
<g id="edge21" class="edge"><title>Node18&#45;&gt;Node19</title>
<path fill="none" stroke="midnightblue" d="M685.107,-165.219C692.268,-157.473 703.151,-145.701 711.954,-136.18"/>
<polygon fill="midnightblue" stroke="midnightblue" points="714.79,-138.268 719.009,-128.55 709.65,-133.516 714.79,-138.268"/>
</g>
<!-- Node20 -->
<g id="node20" class="node"><title>Node20</title>
<polygon fill="none" stroke="#bfbfbf" points="904.054,-110.5 904.054,-128.5 952.847,-128.5 952.847,-110.5 904.054,-110.5"/>
<text text-anchor="middle" x="928.451" y="-116.5" font-family="Helvetica,sans-Serif" font-size="10.00">cstdarg</text>
</g>
<!-- Node18&#45;&gt;Node20 -->
<g id="edge22" class="edge"><title>Node18&#45;&gt;Node20</title>
<path fill="none" stroke="midnightblue" d="M719.165,-165.495C760.887,-157.366 827.126,-144.13 894.085,-128.999"/>
<polygon fill="midnightblue" stroke="midnightblue" points="894.991,-132.383 903.967,-126.754 893.44,-125.557 894.991,-132.383"/>
</g>
<!-- Node21 -->
<g id="node21" class="node"><title>Node21</title>
<polygon fill="none" stroke="#bfbfbf" points="603.163,-110.5 603.163,-128.5 649.739,-128.5 649.739,-110.5 603.163,-110.5"/>
<text text-anchor="middle" x="626.451" y="-116.5" font-family="Helvetica,sans-Serif" font-size="10.00">chrono</text>
</g>
<!-- Node18&#45;&gt;Node21 -->
<g id="edge23" class="edge"><title>Node18&#45;&gt;Node21</title>
<path fill="none" stroke="midnightblue" d="M669.482,-165.219C661.953,-157.394 650.472,-145.463 641.262,-135.892"/>
<polygon fill="midnightblue" stroke="midnightblue" points="643.652,-133.328 634.196,-128.55 638.608,-138.182 643.652,-133.328"/>
</g>
<!-- Node22 -->
<g id="node22" class="node"><title>Node22</title>
<g id="a_node22"><a xlink:href="tools_2util_8h.html" target="_top" xlink:title="Some C++ utilities, with a tad of C++11 tricks. ">
<polygon fill="none" stroke="black" points="765.2,-110.5 765.2,-128.5 885.702,-128.5 885.702,-110.5 765.2,-110.5"/>
<text text-anchor="middle" x="825.451" y="-116.5" font-family="Helvetica,sans-Serif" font-size="10.00">tomographer/tools/util.h</text>
</a>
</g>
</g>
<!-- Node18&#45;&gt;Node22 -->
<g id="edge27" class="edge"><title>Node18&#45;&gt;Node22</title>
<path fill="none" stroke="midnightblue" d="M699.929,-165.45C724.812,-156.539 765.126,-142.103 793.334,-132.001"/>
<polygon fill="midnightblue" stroke="midnightblue" points="794.527,-135.292 802.761,-128.625 792.167,-128.702 794.527,-135.292"/>
</g>
<!-- Node22&#45;&gt;Node14 -->
<g id="edge29" class="edge"><title>Node22&#45;&gt;Node14</title>
<path fill="none" stroke="midnightblue" d="M764.808,-110.737C680.252,-99.9117 528.988,-80.5471 454.839,-71.0546"/>
<polygon fill="midnightblue" stroke="midnightblue" points="454.839,-67.5261 444.476,-69.7279 453.95,-74.4694 454.839,-67.5261"/>
</g>
<!-- Node23 -->
<g id="node23" class="node"><title>Node23</title>
<polygon fill="none" stroke="#bfbfbf" points="889.384,-55.5 889.384,-73.5 951.517,-73.5 951.517,-55.5 889.384,-55.5"/>
<text text-anchor="middle" x="920.451" y="-61.5" font-family="Helvetica,sans-Serif" font-size="10.00">type_traits</text>
</g>
<!-- Node22&#45;&gt;Node23 -->
<g id="edge28" class="edge"><title>Node22&#45;&gt;Node23</title>
<path fill="none" stroke="midnightblue" d="M839.879,-110.45C854.945,-102.045 878.822,-88.7241 896.679,-78.7618"/>
<polygon fill="midnightblue" stroke="midnightblue" points="898.859,-81.5539 905.886,-73.6253 895.448,-75.4409 898.859,-81.5539"/>
</g>
<!-- Node24 -->
<g id="node24" class="node"><title>Node24</title>
<g id="a_node24"><a xlink:href="conststr_8h.html" target="_top" xlink:title="A constexpr string type, suitable for basic compile&#45;time string processing. ">
<polygon fill="none" stroke="black" points="729.36,-55.5 729.36,-73.5 871.542,-73.5 871.542,-55.5 729.36,-55.5"/>
<text text-anchor="middle" x="800.451" y="-61.5" font-family="Helvetica,sans-Serif" font-size="10.00">tomographer/tools/conststr.h</text>
</a>
</g>
</g>
<!-- Node22&#45;&gt;Node24 -->
<g id="edge30" class="edge"><title>Node22&#45;&gt;Node24</title>
<path fill="none" stroke="midnightblue" d="M821.544,-110.219C818.075,-102.864 812.894,-91.8801 808.535,-82.639"/>
<polygon fill="midnightblue" stroke="midnightblue" points="811.679,-81.1007 804.248,-73.5496 805.348,-84.0871 811.679,-81.1007"/>
</g>
<!-- Node24&#45;&gt;Node5 -->
<g id="edge31" class="edge"><title>Node24&#45;&gt;Node5</title>
<path fill="none" stroke="midnightblue" d="M800.451,-55.2188C800.451,-48.1769 800.451,-37.8083 800.451,-28.8277"/>
<polygon fill="midnightblue" stroke="midnightblue" points="803.951,-28.5495 800.451,-18.5496 796.951,-28.5496 803.951,-28.5495"/>
</g>
</g>
</svg>
