<?xml version="1.0" encoding="UTF-8" standalone="no"?>
<!DOCTYPE svg PUBLIC "-//W3C//DTD SVG 1.1//EN"
 "http://www.w3.org/Graphics/SVG/1.1/DTD/svg11.dtd">
<!-- Generated by graphviz version 2.38.0 (20140413.2041)
 -->
<!-- Title: tomographer/histogram.h Pages: 1 -->
<svg width="280pt" height="137pt"
 viewBox="0.00 0.00 279.60 137.00" xmlns="http://www.w3.org/2000/svg" xmlns:xlink="http://www.w3.org/1999/xlink">
<g id="graph0" class="graph" transform="scale(1 1) rotate(0) translate(4 133)">
<title>tomographer/histogram.h</title>
<!-- Node1 -->
<g id="node1" class="node"><title>Node1</title>
<polygon fill="#bfbfbf" stroke="black" points="68.9409,-110.5 68.9409,-128.5 196.665,-128.5 196.665,-110.5 68.9409,-110.5"/>
<text text-anchor="middle" x="132.803" y="-116.5" font-family="Helvetica,sans-Serif" font-size="10.00">tomographer/histogram.h</text>
</g>
<!-- Node2 -->
<g id="node2" class="node"><title>Node2</title>
<g id="a_node2"><a xlink:href="mhrw_8h.html" target="_top" xlink:title="Routines for performing a Metropolis&#45;Hastings random walk. ">
<polygon fill="none" stroke="black" points="78.9458,-55.5 78.9458,-73.5 186.66,-73.5 186.66,-55.5 78.9458,-55.5"/>
<text text-anchor="middle" x="132.803" y="-61.5" font-family="Helvetica,sans-Serif" font-size="10.00">tomographer/mhrw.h</text>
</a>
</g>
</g>
<!-- Node1&#45;&gt;Node2 -->
<g id="edge1" class="edge"><title>Node1&#45;&gt;Node2</title>
<path fill="none" stroke="midnightblue" d="M132.803,-100.175C132.803,-91.0945 132.803,-80.5949 132.803,-73.5496"/>
<polygon fill="midnightblue" stroke="midnightblue" points="129.303,-100.219 132.803,-110.219 136.303,-100.219 129.303,-100.219"/>
</g>
<!-- Node3 -->
<g id="node3" class="node"><title>Node3</title>
<g id="a_node3"><a xlink:href="dmmhrw_8h.html" target="_top" xlink:title="Definitions for a Metropolis&#45;Hastings random walk on a quantum state space with dense matrix type...">
<polygon fill="none" stroke="black" points="0,-0.5 0,-18.5 121.605,-18.5 121.605,-0.5 0,-0.5"/>
<text text-anchor="middle" x="60.8027" y="-6.5" font-family="Helvetica,sans-Serif" font-size="10.00">tomographer/dmmhrw.h</text>
</a>
</g>
</g>
<!-- Node2&#45;&gt;Node3 -->
<g id="edge2" class="edge"><title>Node2&#45;&gt;Node3</title>
<path fill="none" stroke="midnightblue" d="M113.772,-49.4916C100.401,-39.6491 82.9808,-26.8255 71.8409,-18.6253"/>
<polygon fill="midnightblue" stroke="midnightblue" points="111.739,-52.3409 121.867,-55.4504 115.889,-46.7035 111.739,-52.3409"/>
</g>
<!-- Node4 -->
<g id="node4" class="node"><title>Node4</title>
<g id="a_node4"><a xlink:href="mhrwtasks_8h.html" target="_top" xlink:title="Multiprocessing tasks interface (see Task Manager/Dispatcher Interfaces) for parallel Metropolis&#45;Hast...">
<polygon fill="none" stroke="black" points="140.002,-0.5 140.002,-18.5 271.603,-18.5 271.603,-0.5 140.002,-0.5"/>
<text text-anchor="middle" x="205.803" y="-6.5" font-family="Helvetica,sans-Serif" font-size="10.00">tomographer/mhrwtasks.h</text>
</a>
</g>
</g>
<!-- Node2&#45;&gt;Node4 -->
<g id="edge3" class="edge"><title>Node2&#45;&gt;Node4</title>
<path fill="none" stroke="midnightblue" d="M152.097,-49.4916C165.654,-39.6491 183.317,-26.8255 194.611,-18.6253"/>
<polygon fill="midnightblue" stroke="midnightblue" points="149.926,-46.743 143.89,-55.4504 154.038,-52.4075 149.926,-46.743"/>
</g>
</g>
</svg>
