<?xml version="1.0" encoding="UTF-8" standalone="no"?>
<!DOCTYPE svg PUBLIC "-//W3C//DTD SVG 1.1//EN"
 "http://www.w3.org/Graphics/SVG/1.1/DTD/svg11.dtd">
<!-- Generated by graphviz version 2.38.0 (20140413.2041)
 -->
<!-- Title: tomographer/tools/loggers.h Pages: 1 -->
<svg width="530pt" height="202pt"
 viewBox="0.00 0.00 529.66 202.00" xmlns="http://www.w3.org/2000/svg" xmlns:xlink="http://www.w3.org/1999/xlink">
<g id="graph0" class="graph" transform="scale(1 1) rotate(0) translate(4 198)">
<title>tomographer/tools/loggers.h</title>
<!-- Node1 -->
<g id="node1" class="node"><title>Node1</title>
<polygon fill="#bfbfbf" stroke="black" points="115.544,-175.5 115.544,-193.5 256.061,-193.5 256.061,-175.5 115.544,-175.5"/>
<text text-anchor="middle" x="185.803" y="-181.5" font-family="Helvetica,sans-Serif" font-size="10.00">tomographer/tools/loggers.h</text>
</g>
<!-- Node2 -->
<g id="node2" class="node"><title>Node2</title>
<g id="a_node2"><a xlink:href="dmmhrw_8h.html" target="_top" xlink:title="Definitions for a Metropolis&#45;Hastings random walk on a quantum state space with dense matrix type...">
<polygon fill="none" stroke="black" points="0,-0.5 0,-18.5 121.605,-18.5 121.605,-0.5 0,-0.5"/>
<text text-anchor="middle" x="60.8027" y="-6.5" font-family="Helvetica,sans-Serif" font-size="10.00">tomographer/dmmhrw.h</text>
</a>
</g>
</g>
<!-- Node1&#45;&gt;Node2 -->
<g id="edge1" class="edge"><title>Node1&#45;&gt;Node2</title>
<path fill="none" stroke="midnightblue" d="M154.942,-171.339C139.606,-163.961 121.832,-153.204 109.803,-139 77.8617,-101.285 65.5379,-40.5459 61.9904,-18.6759"/>
<polygon fill="midnightblue" stroke="midnightblue" points="153.549,-174.55 164.102,-175.496 156.442,-168.176 153.549,-174.55"/>
</g>
<!-- Node3 -->
<g id="node3" class="node"><title>Node3</title>
<g id="a_node3"><a xlink:href="mhrw_8h.html" target="_top" xlink:title="Routines for performing a Metropolis&#45;Hastings random walk. ">
<polygon fill="none" stroke="black" points="109.946,-55.5 109.946,-73.5 217.66,-73.5 217.66,-55.5 109.946,-55.5"/>
<text text-anchor="middle" x="163.803" y="-61.5" font-family="Helvetica,sans-Serif" font-size="10.00">tomographer/mhrw.h</text>
</a>
</g>
</g>
<!-- Node1&#45;&gt;Node3 -->
<g id="edge2" class="edge"><title>Node1&#45;&gt;Node3</title>
<path fill="none" stroke="midnightblue" d="M153.797,-170.931C140.12,-163.77 125.545,-153.319 117.803,-139 111.673,-127.662 112.772,-121.867 117.803,-110 124.482,-94.2457 139.772,-81.3423 150.895,-73.5608"/>
<polygon fill="midnightblue" stroke="midnightblue" points="152.498,-174.19 163.027,-175.37 155.532,-167.882 152.498,-174.19"/>
</g>
<!-- Node5 -->
<g id="node5" class="node"><title>Node5</title>
<g id="a_node5"><a xlink:href="mhrw__bin__err_8h.html" target="_top" xlink:title="Binning Analysis in a Metropolis&#45;Hastings random walk. ">
<polygon fill="none" stroke="black" points="126.389,-110.5 126.389,-138.5 245.216,-138.5 245.216,-110.5 126.389,-110.5"/>
<text text-anchor="start" x="134.389" y="-126.5" font-family="Helvetica,sans-Serif" font-size="10.00">tomographer/mhrw_bin</text>
<text text-anchor="middle" x="185.803" y="-116.5" font-family="Helvetica,sans-Serif" font-size="10.00">_err.h</text>
</a>
</g>
</g>
<!-- Node1&#45;&gt;Node5 -->
<g id="edge5" class="edge"><title>Node1&#45;&gt;Node5</title>
<path fill="none" stroke="midnightblue" d="M185.803,-165.321C185.803,-156.747 185.803,-146.7 185.803,-138.843"/>
<polygon fill="midnightblue" stroke="midnightblue" points="182.303,-165.435 185.803,-175.435 189.303,-165.435 182.303,-165.435"/>
</g>
<!-- Node6 -->
<g id="node6" class="node"><title>Node6</title>
<g id="a_node6"><a xlink:href="random__unitary_8h.html" target="_top" xlink:title="Produce a random unitary according to the Haar measure. ">
<polygon fill="none" stroke="black" points="263.441,-110.5 263.441,-138.5 386.165,-138.5 386.165,-110.5 263.441,-110.5"/>
<text text-anchor="start" x="271.441" y="-126.5" font-family="Helvetica,sans-Serif" font-size="10.00">tomographer/qit/random</text>
<text text-anchor="middle" x="324.803" y="-116.5" font-family="Helvetica,sans-Serif" font-size="10.00">_unitary.h</text>
</a>
</g>
</g>
<!-- Node1&#45;&gt;Node6 -->
<g id="edge7" class="edge"><title>Node1&#45;&gt;Node6</title>
<path fill="none" stroke="midnightblue" d="M214.395,-171.569C237.47,-161.941 269.886,-148.415 293.625,-138.51"/>
<polygon fill="midnightblue" stroke="midnightblue" points="213.011,-168.354 205.13,-175.435 215.707,-174.815 213.011,-168.354"/>
</g>
<!-- Node7 -->
<g id="node7" class="node"><title>Node7</title>
<g id="a_node7"><a xlink:href="simple__find__zero_8h.html" target="_top" xlink:title="A very simplistic tool for finding a relatively straightforward zero with few iterations. ">
<polygon fill="none" stroke="black" points="403.946,-110.5 403.946,-138.5 521.66,-138.5 521.66,-110.5 403.946,-110.5"/>
<text text-anchor="start" x="411.946" y="-126.5" font-family="Helvetica,sans-Serif" font-size="10.00">tomographer/qit/simple</text>
<text text-anchor="middle" x="462.803" y="-116.5" font-family="Helvetica,sans-Serif" font-size="10.00">_find_zero.h</text>
</a>
</g>
</g>
<!-- Node1&#45;&gt;Node7 -->
<g id="edge8" class="edge"><title>Node1&#45;&gt;Node7</title>
<path fill="none" stroke="midnightblue" d="M234.007,-173.407C281.25,-163.515 353.339,-148.42 403.943,-137.824"/>
<polygon fill="midnightblue" stroke="midnightblue" points="233.098,-170.021 224.028,-175.496 234.533,-176.872 233.098,-170.021"/>
</g>
<!-- Node3&#45;&gt;Node2 -->
<g id="edge3" class="edge"><title>Node3&#45;&gt;Node2</title>
<path fill="none" stroke="midnightblue" d="M139.005,-50.74C119.604,-40.7567 93.2127,-27.177 76.5934,-18.6253"/>
<polygon fill="midnightblue" stroke="midnightblue" points="137.666,-53.9871 148.159,-55.4504 140.869,-47.7628 137.666,-53.9871"/>
</g>
<!-- Node4 -->
<g id="node4" class="node"><title>Node4</title>
<g id="a_node4"><a xlink:href="mhrwtasks_8h.html" target="_top" xlink:title="Multiprocessing tasks interface (see Task Manager/Dispatcher Interfaces) for parallel Metropolis&#45;Hast...">
<polygon fill="none" stroke="black" points="140.002,-0.5 140.002,-18.5 271.603,-18.5 271.603,-0.5 140.002,-0.5"/>
<text text-anchor="middle" x="205.803" y="-6.5" font-family="Helvetica,sans-Serif" font-size="10.00">tomographer/mhrwtasks.h</text>
</a>
</g>
</g>
<!-- Node3&#45;&gt;Node4 -->
<g id="edge4" class="edge"><title>Node3&#45;&gt;Node4</title>
<path fill="none" stroke="midnightblue" d="M176.686,-47.2426C184.224,-37.7302 193.411,-26.1369 199.424,-18.5496"/>
<polygon fill="midnightblue" stroke="midnightblue" points="173.833,-45.2075 170.365,-55.2188 179.319,-49.5551 173.833,-45.2075"/>
</g>
<!-- Node5&#45;&gt;Node3 -->
<g id="edge6" class="edge"><title>Node5&#45;&gt;Node3</title>
<path fill="none" stroke="midnightblue" d="M177.241,-100.927C173.618,-91.3778 169.625,-80.8492 166.94,-73.7715"/>
<polygon fill="midnightblue" stroke="midnightblue" points="173.991,-102.23 180.811,-110.339 180.536,-99.7476 173.991,-102.23"/>
</g>
</g>
</svg>
