<?xml version="1.0" encoding="UTF-8" standalone="no"?>
<!DOCTYPE svg PUBLIC "-//W3C//DTD SVG 1.1//EN"
 "http://www.w3.org/Graphics/SVG/1.1/DTD/svg11.dtd">
<!-- Generated by graphviz version 2.38.0 (20140413.2041)
 -->
<!-- Title: tomographer/qit/matrq.h Pages: 1 -->
<svg width="329pt" height="147pt"
 viewBox="0.00 0.00 329.38 147.00" xmlns="http://www.w3.org/2000/svg" xmlns:xlink="http://www.w3.org/1999/xlink">
<g id="graph0" class="graph" transform="scale(1 1) rotate(0) translate(4 143)">
<title>tomographer/qit/matrq.h</title>
<!-- Node1 -->
<g id="node1" class="node"><title>Node1</title>
<polygon fill="#bfbfbf" stroke="black" points="136.443,-120.5 136.443,-138.5 259.162,-138.5 259.162,-120.5 136.443,-120.5"/>
<text text-anchor="middle" x="197.803" y="-126.5" font-family="Helvetica,sans-Serif" font-size="10.00">tomographer/qit/matrq.h</text>
</g>
<!-- Node2 -->
<g id="node2" class="node"><title>Node2</title>
<g id="a_node2"><a xlink:href="mhrw_8h.html" target="_top" xlink:title="Routines for performing a Metropolis&#45;Hastings random walk. ">
<polygon fill="none" stroke="black" points="78.9458,-60.5 78.9458,-78.5 186.66,-78.5 186.66,-60.5 78.9458,-60.5"/>
<text text-anchor="middle" x="132.803" y="-66.5" font-family="Helvetica,sans-Serif" font-size="10.00">tomographer/mhrw.h</text>
</a>
</g>
</g>
<!-- Node1&#45;&gt;Node2 -->
<g id="edge1" class="edge"><title>Node1&#45;&gt;Node2</title>
<path fill="none" stroke="midnightblue" d="M180.974,-113.483C168.624,-102.463 152.304,-87.9015 142.185,-78.8718"/>
<polygon fill="midnightblue" stroke="midnightblue" points="178.973,-116.389 188.765,-120.435 183.634,-111.166 178.973,-116.389"/>
</g>
<!-- Node5 -->
<g id="node5" class="node"><title>Node5</title>
<g id="a_node5"><a xlink:href="param__rho__a_8h.html" target="_top" xlink:title="Tools for parameterizing density matrices with the A Parameterization. ">
<polygon fill="none" stroke="black" points="204.222,-55.5 204.222,-83.5 321.384,-83.5 321.384,-55.5 204.222,-55.5"/>
<text text-anchor="start" x="212.222" y="-71.5" font-family="Helvetica,sans-Serif" font-size="10.00">tomographer/qit/param</text>
<text text-anchor="middle" x="262.803" y="-61.5" font-family="Helvetica,sans-Serif" font-size="10.00">_rho_a.h</text>
</a>
</g>
</g>
<!-- Node1&#45;&gt;Node5 -->
<g id="edge4" class="edge"><title>Node1&#45;&gt;Node5</title>
<path fill="none" stroke="midnightblue" d="M214.389,-113.7C224.704,-104.496 237.857,-92.7593 247.85,-83.8428"/>
<polygon fill="midnightblue" stroke="midnightblue" points="211.972,-111.166 206.841,-120.435 216.632,-116.389 211.972,-111.166"/>
</g>
<!-- Node3 -->
<g id="node3" class="node"><title>Node3</title>
<g id="a_node3"><a xlink:href="dmmhrw_8h.html" target="_top" xlink:title="Definitions for a Metropolis&#45;Hastings random walk on a quantum state space with dense matrix type...">
<polygon fill="none" stroke="black" points="0,-0.5 0,-18.5 121.605,-18.5 121.605,-0.5 0,-0.5"/>
<text text-anchor="middle" x="60.8027" y="-6.5" font-family="Helvetica,sans-Serif" font-size="10.00">tomographer/dmmhrw.h</text>
</a>
</g>
</g>
<!-- Node2&#45;&gt;Node3 -->
<g id="edge2" class="edge"><title>Node2&#45;&gt;Node3</title>
<path fill="none" stroke="midnightblue" d="M114.946,-54.1152C101.179,-43.0254 82.6201,-28.0751 71.1953,-18.8718"/>
<polygon fill="midnightblue" stroke="midnightblue" points="112.808,-56.8877 122.791,-60.4353 117.2,-51.4364 112.808,-56.8877"/>
</g>
<!-- Node4 -->
<g id="node4" class="node"><title>Node4</title>
<g id="a_node4"><a xlink:href="mhrwtasks_8h.html" target="_top" xlink:title="Multiprocessing tasks interface (see Task Manager/Dispatcher Interfaces) for parallel Metropolis&#45;Hast...">
<polygon fill="none" stroke="black" points="140.002,-0.5 140.002,-18.5 271.603,-18.5 271.603,-0.5 140.002,-0.5"/>
<text text-anchor="middle" x="205.803" y="-6.5" font-family="Helvetica,sans-Serif" font-size="10.00">tomographer/mhrwtasks.h</text>
</a>
</g>
</g>
<!-- Node2&#45;&gt;Node4 -->
<g id="edge3" class="edge"><title>Node2&#45;&gt;Node4</title>
<path fill="none" stroke="midnightblue" d="M150.908,-54.1152C164.866,-43.0254 183.682,-28.0751 195.266,-18.8718"/>
<polygon fill="midnightblue" stroke="midnightblue" points="148.605,-51.4742 142.953,-60.4353 152.96,-56.9549 148.605,-51.4742"/>
</g>
</g>
</svg>
