<?xml version="1.0" encoding="UTF-8" standalone="no"?>
<!DOCTYPE svg PUBLIC "-//W3C//DTD SVG 1.1//EN"
 "http://www.w3.org/Graphics/SVG/1.1/DTD/svg11.dtd">
<!-- Generated by graphviz version 2.38.0 (20140413.2041)
 -->
<!-- Title: tomographer/mhrw.h Pages: 1 -->
<svg width="1843pt" height="387pt"
 viewBox="0.00 0.00 1842.67 387.00" xmlns="http://www.w3.org/2000/svg" xmlns:xlink="http://www.w3.org/1999/xlink">
<g id="graph0" class="graph" transform="scale(1 1) rotate(0) translate(4 383)">
<title>tomographer/mhrw.h</title>
<!-- Node1 -->
<g id="node1" class="node"><title>Node1</title>
<polygon fill="#bfbfbf" stroke="black" points="1302.72,-360.5 1302.72,-378.5 1410.44,-378.5 1410.44,-360.5 1302.72,-360.5"/>
<text text-anchor="middle" x="1356.58" y="-366.5" font-family="Helvetica,sans-Serif" font-size="10.00">tomographer/mhrw.h</text>
</g>
<!-- Node2 -->
<g id="node2" class="node"><title>Node2</title>
<polygon fill="none" stroke="#bfbfbf" points="135.46,-235.5 135.46,-253.5 183.702,-253.5 183.702,-235.5 135.46,-235.5"/>
<text text-anchor="middle" x="159.581" y="-241.5" font-family="Helvetica,sans-Serif" font-size="10.00">cstddef</text>
</g>
<!-- Node1&#45;&gt;Node2 -->
<g id="edge1" class="edge"><title>Node1&#45;&gt;Node2</title>
<path fill="none" stroke="midnightblue" d="M1302.53,-368.243C1077.39,-366.945 223.745,-359.681 179.581,-324 161.825,-309.654 158.545,-281.943 158.522,-263.582"/>
<polygon fill="midnightblue" stroke="midnightblue" points="162.021,-263.663 158.829,-253.56 155.024,-263.449 162.021,-263.663"/>
</g>
<!-- Node3 -->
<g id="node3" class="node"><title>Node3</title>
<polygon fill="none" stroke="#bfbfbf" points="1679.47,-170.5 1679.47,-188.5 1727.7,-188.5 1727.7,-170.5 1679.47,-170.5"/>
<text text-anchor="middle" x="1703.58" y="-176.5" font-family="Helvetica,sans-Serif" font-size="10.00">cassert</text>
</g>
<!-- Node1&#45;&gt;Node3 -->
<g id="edge2" class="edge"><title>Node1&#45;&gt;Node3</title>
<path fill="none" stroke="midnightblue" d="M1361.22,-360.041C1369.86,-344.997 1389.81,-313.443 1414.58,-295 1436.24,-278.873 1600.7,-217.97 1671.42,-192.166"/>
<polygon fill="midnightblue" stroke="midnightblue" points="1672.94,-195.335 1681.14,-188.623 1670.55,-188.758 1672.94,-195.335"/>
</g>
<!-- Node4 -->
<g id="node4" class="node"><title>Node4</title>
<polygon fill="none" stroke="#bfbfbf" points="1456.19,-300.5 1456.19,-318.5 1494.97,-318.5 1494.97,-300.5 1456.19,-300.5"/>
<text text-anchor="middle" x="1475.58" y="-306.5" font-family="Helvetica,sans-Serif" font-size="10.00">limits</text>
</g>
<!-- Node1&#45;&gt;Node4 -->
<g id="edge3" class="edge"><title>Node1&#45;&gt;Node4</title>
<path fill="none" stroke="midnightblue" d="M1373.13,-360.435C1392.91,-350.794 1426.25,-334.542 1449.51,-323.206"/>
<polygon fill="midnightblue" stroke="midnightblue" points="1451.34,-326.211 1458.79,-318.683 1448.27,-319.918 1451.34,-326.211"/>
</g>
<!-- Node5 -->
<g id="node5" class="node"><title>Node5</title>
<polygon fill="none" stroke="#bfbfbf" points="1512.63,-300.5 1512.63,-318.5 1562.53,-318.5 1562.53,-300.5 1512.63,-300.5"/>
<text text-anchor="middle" x="1537.58" y="-306.5" font-family="Helvetica,sans-Serif" font-size="10.00">random</text>
</g>
<!-- Node1&#45;&gt;Node5 -->
<g id="edge4" class="edge"><title>Node1&#45;&gt;Node5</title>
<path fill="none" stroke="midnightblue" d="M1385.82,-360.432C1415.65,-352.018 1463.18,-338.109 1503.58,-324 1505.19,-323.439 1506.83,-322.847 1508.49,-322.237"/>
<polygon fill="midnightblue" stroke="midnightblue" points="1509.82,-325.475 1517.91,-318.635 1507.32,-318.936 1509.82,-325.475"/>
</g>
<!-- Node6 -->
<g id="node6" class="node"><title>Node6</title>
<polygon fill="none" stroke="#bfbfbf" points="1580.74,-300.5 1580.74,-318.5 1618.42,-318.5 1618.42,-300.5 1580.74,-300.5"/>
<text text-anchor="middle" x="1599.58" y="-306.5" font-family="Helvetica,sans-Serif" font-size="10.00">tuple</text>
</g>
<!-- Node1&#45;&gt;Node6 -->
<g id="edge5" class="edge"><title>Node1&#45;&gt;Node6</title>
<path fill="none" stroke="midnightblue" d="M1410.56,-361.088C1454.64,-354.148 1518.15,-342.103 1571.58,-324 1572.79,-323.591 1574.01,-323.142 1575.24,-322.665"/>
<polygon fill="midnightblue" stroke="midnightblue" points="1576.71,-325.843 1584.46,-318.623 1573.9,-319.431 1576.71,-325.843"/>
</g>
<!-- Node7 -->
<g id="node7" class="node"><title>Node7</title>
<polygon fill="none" stroke="#bfbfbf" points="1636.19,-300.5 1636.19,-318.5 1674.97,-318.5 1674.97,-300.5 1636.19,-300.5"/>
<text text-anchor="middle" x="1655.58" y="-306.5" font-family="Helvetica,sans-Serif" font-size="10.00">utility</text>
</g>
<!-- Node1&#45;&gt;Node7 -->
<g id="edge6" class="edge"><title>Node1&#45;&gt;Node7</title>
<path fill="none" stroke="midnightblue" d="M1410.6,-364.218C1466.07,-358.764 1554.38,-347.125 1627.58,-324 1628.83,-323.607 1630.09,-323.167 1631.35,-322.694"/>
<polygon fill="midnightblue" stroke="midnightblue" points="1633.01,-325.789 1640.79,-318.603 1630.22,-319.365 1633.01,-325.789"/>
</g>
<!-- Node8 -->
<g id="node8" class="node"><title>Node8</title>
<polygon fill="none" stroke="#bfbfbf" points="1219.51,-55.5 1219.51,-73.5 1281.65,-73.5 1281.65,-55.5 1219.51,-55.5"/>
<text text-anchor="middle" x="1250.58" y="-61.5" font-family="Helvetica,sans-Serif" font-size="10.00">type_traits</text>
</g>
<!-- Node1&#45;&gt;Node8 -->
<g id="edge7" class="edge"><title>Node1&#45;&gt;Node8</title>
<path fill="none" stroke="midnightblue" d="M1367.87,-360.186C1379.69,-351.405 1398.69,-337.051 1414.58,-324 1429.67,-311.606 1430.72,-304.847 1447.58,-295 1569.2,-223.971 1825.63,-274.121 1736.58,-165 1680.39,-96.144 1398.95,-73.6414 1291.95,-67.5048"/>
<polygon fill="midnightblue" stroke="midnightblue" points="1292.03,-64.0042 1281.86,-66.9451 1291.65,-70.9935 1292.03,-64.0042"/>
</g>
<!-- Node9 -->
<g id="node9" class="node"><title>Node9</title>
<g id="a_node9"><a xlink:href="matrq_8h.html" target="_top" xlink:title="Define types for quantum objects. See Tomographer::MatrQ. ">
<polygon fill="none" stroke="black" points="188.222,-300.5 188.222,-318.5 310.94,-318.5 310.94,-300.5 188.222,-300.5"/>
<text text-anchor="middle" x="249.581" y="-306.5" font-family="Helvetica,sans-Serif" font-size="10.00">tomographer/qit/matrq.h</text>
</a>
</g>
</g>
<!-- Node1&#45;&gt;Node9 -->
<g id="edge8" class="edge"><title>Node1&#45;&gt;Node9</title>
<path fill="none" stroke="midnightblue" d="M1302.44,-365.663C1119.95,-356.102 527.302,-325.051 321.094,-314.247"/>
<polygon fill="midnightblue" stroke="midnightblue" points="321.154,-310.745 310.984,-313.717 320.787,-317.736 321.154,-310.745"/>
</g>
<!-- Node12 -->
<g id="node12" class="node"><title>Node12</title>
<g id="a_node12"><a xlink:href="qit_2util_8h.html" target="_top" xlink:title="Basic utilities for dealing with Eigen matrices and other types. ">
<polygon fill="none" stroke="black" points="714.611,-170.5 714.611,-188.5 824.551,-188.5 824.551,-170.5 714.611,-170.5"/>
<text text-anchor="middle" x="769.581" y="-176.5" font-family="Helvetica,sans-Serif" font-size="10.00">tomographer/qit/util.h</text>
</a>
</g>
</g>
<!-- Node1&#45;&gt;Node12 -->
<g id="edge12" class="edge"><title>Node1&#45;&gt;Node12</title>
<path fill="none" stroke="midnightblue" d="M1302.57,-361.528C1253.09,-354.446 1178.09,-341.954 1114.58,-324 1037.54,-302.221 1020.53,-289.682 946.581,-259 892.888,-236.722 830.968,-208.721 796.437,-192.895"/>
<polygon fill="midnightblue" stroke="midnightblue" points="797.594,-189.575 787.046,-188.582 794.672,-195.936 797.594,-189.575"/>
</g>
<!-- Node16 -->
<g id="node16" class="node"><title>Node16</title>
<g id="a_node16"><a xlink:href="param__herm__x_8h.html" target="_top" xlink:title="Tools for parameterizing hermitian matrices with the X Parameterization. ">
<polygon fill="none" stroke="black" points="0,-230.5 0,-258.5 117.162,-258.5 117.162,-230.5 0,-230.5"/>
<text text-anchor="start" x="8" y="-246.5" font-family="Helvetica,sans-Serif" font-size="10.00">tomographer/qit/param</text>
<text text-anchor="middle" x="58.5811" y="-236.5" font-family="Helvetica,sans-Serif" font-size="10.00">_herm_x.h</text>
</a>
</g>
</g>
<!-- Node1&#45;&gt;Node16 -->
<g id="edge18" class="edge"><title>Node1&#45;&gt;Node16</title>
<path fill="none" stroke="midnightblue" d="M1302.38,-368.437C1083.02,-367.915 267.675,-363.326 159.581,-324 126.564,-311.988 95.783,-284.843 77.0834,-265.857"/>
<polygon fill="midnightblue" stroke="midnightblue" points="79.5134,-263.334 70.068,-258.534 74.4589,-268.176 79.5134,-263.334"/>
</g>
<!-- Node19 -->
<g id="node19" class="node"><title>Node19</title>
<g id="a_node19"><a xlink:href="tomoproblem_8h.html" target="_top" xlink:title="Data corresponding to a quantum tomography setting. ">
<polygon fill="none" stroke="black" points="1692.49,-300.5 1692.49,-318.5 1834.67,-318.5 1834.67,-300.5 1692.49,-300.5"/>
<text text-anchor="middle" x="1763.58" y="-306.5" font-family="Helvetica,sans-Serif" font-size="10.00">tomographer/tomoproblem.h</text>
</a>
</g>
</g>
<!-- Node1&#45;&gt;Node19 -->
<g id="edge23" class="edge"><title>Node1&#45;&gt;Node19</title>
<path fill="none" stroke="midnightblue" d="M1410.47,-361.702C1475.35,-353.394 1587.58,-338.629 1683.58,-324 1691.32,-322.821 1699.46,-321.519 1707.47,-320.201"/>
<polygon fill="midnightblue" stroke="midnightblue" points="1708.22,-323.625 1717.51,-318.533 1707.07,-316.72 1708.22,-323.625"/>
</g>
<!-- Node20 -->
<g id="node20" class="node"><title>Node20</title>
<g id="a_node20"><a xlink:href="histogram_8h.html" target="_top" xlink:title="Definitions for Histogram Types. ">
<polygon fill="none" stroke="black" points="654.719,-235.5 654.719,-253.5 782.443,-253.5 782.443,-235.5 654.719,-235.5"/>
<text text-anchor="middle" x="718.581" y="-241.5" font-family="Helvetica,sans-Serif" font-size="10.00">tomographer/histogram.h</text>
</a>
</g>
</g>
<!-- Node1&#45;&gt;Node20 -->
<g id="edge24" class="edge"><title>Node1&#45;&gt;Node20</title>
<path fill="none" stroke="midnightblue" d="M1302.52,-367.722C1219.03,-365.471 1054.15,-356.837 918.581,-324 853.354,-308.201 781.022,-275.834 743.791,-257.992"/>
<polygon fill="midnightblue" stroke="midnightblue" points="745.206,-254.789 734.681,-253.579 742.154,-261.088 745.206,-254.789"/>
</g>
<!-- Node33 -->
<g id="node33" class="node"><title>Node33</title>
<g id="a_node33"><a xlink:href="loggers_8h.html" target="_top" xlink:title="Utilities for logging messages. ">
<polygon fill="none" stroke="black" points="1222.32,-235.5 1222.32,-253.5 1362.84,-253.5 1362.84,-235.5 1222.32,-235.5"/>
<text text-anchor="middle" x="1292.58" y="-241.5" font-family="Helvetica,sans-Serif" font-size="10.00">tomographer/tools/loggers.h</text>
</a>
</g>
</g>
<!-- Node1&#45;&gt;Node33 -->
<g id="edge47" class="edge"><title>Node1&#45;&gt;Node33</title>
<path fill="none" stroke="midnightblue" d="M1352.38,-360.43C1342.12,-340.715 1315.61,-289.752 1301.58,-262.8"/>
<polygon fill="midnightblue" stroke="midnightblue" points="1304.6,-261.017 1296.88,-253.761 1298.39,-264.248 1304.6,-261.017"/>
</g>
<!-- Node37 -->
<g id="node37" class="node"><title>Node37</title>
<g id="a_node37"><a xlink:href="mhrw__bin__err_8h.html" target="_top" xlink:title="Binning Analysis in a Metropolis&#45;Hastings random walk. ">
<polygon fill="none" stroke="black" points="1123.17,-295.5 1123.17,-323.5 1241.99,-323.5 1241.99,-295.5 1123.17,-295.5"/>
<text text-anchor="start" x="1131.17" y="-311.5" font-family="Helvetica,sans-Serif" font-size="10.00">tomographer/mhrw_bin</text>
<text text-anchor="middle" x="1182.58" y="-301.5" font-family="Helvetica,sans-Serif" font-size="10.00">_err.h</text>
</a>
</g>
</g>
<!-- Node1&#45;&gt;Node37 -->
<g id="edge60" class="edge"><title>Node1&#45;&gt;Node37</title>
<path fill="none" stroke="midnightblue" d="M1332.39,-360.435C1306.41,-351.775 1264.43,-337.782 1231.51,-326.809"/>
<polygon fill="midnightblue" stroke="midnightblue" points="1232.2,-323.352 1221.61,-323.51 1229.99,-329.992 1232.2,-323.352"/>
</g>
<!-- Node9&#45;&gt;Node2 -->
<g id="edge9" class="edge"><title>Node9&#45;&gt;Node2</title>
<path fill="none" stroke="midnightblue" d="M237.815,-300.264C223.046,-289.925 197.485,-272.033 179.613,-259.522"/>
<polygon fill="midnightblue" stroke="midnightblue" points="181.265,-256.406 171.065,-253.539 177.251,-262.141 181.265,-256.406"/>
</g>
<!-- Node10 -->
<g id="node10" class="node"><title>Node10</title>
<polygon fill="none" stroke="#bfbfbf" points="167.963,-110.5 167.963,-128.5 221.199,-128.5 221.199,-110.5 167.963,-110.5"/>
<text text-anchor="middle" x="194.581" y="-116.5" font-family="Helvetica,sans-Serif" font-size="10.00">complex</text>
</g>
<!-- Node9&#45;&gt;Node10 -->
<g id="edge10" class="edge"><title>Node9&#45;&gt;Node10</title>
<path fill="none" stroke="midnightblue" d="M247.218,-300.422C238.986,-272.284 211.443,-178.138 199.823,-138.419"/>
<polygon fill="midnightblue" stroke="midnightblue" points="203.165,-137.375 196.997,-128.76 196.446,-139.34 203.165,-137.375"/>
</g>
<!-- Node11 -->
<g id="node11" class="node"><title>Node11</title>
<polygon fill="none" stroke="#bfbfbf" points="445.566,-55.5 445.566,-73.5 511.596,-73.5 511.596,-55.5 445.566,-55.5"/>
<text text-anchor="middle" x="478.581" y="-61.5" font-family="Helvetica,sans-Serif" font-size="10.00">Eigen/Core</text>
</g>
<!-- Node9&#45;&gt;Node11 -->
<g id="edge11" class="edge"><title>Node9&#45;&gt;Node11</title>
<path fill="none" stroke="midnightblue" d="M248.189,-300.396C244.622,-276.888 237.49,-207.644 268.581,-165 308.522,-110.218 386.516,-84.4824 435.393,-73.265"/>
<polygon fill="midnightblue" stroke="midnightblue" points="436.336,-76.6418 445.357,-71.0865 434.84,-69.8033 436.336,-76.6418"/>
</g>
<!-- Node12&#45;&gt;Node10 -->
<g id="edge13" class="edge"><title>Node12&#45;&gt;Node10</title>
<path fill="none" stroke="midnightblue" d="M735.176,-170.444C725.633,-168.428 715.241,-166.434 705.581,-165 529.033,-138.791 315.706,-126.344 231.408,-122.175"/>
<polygon fill="midnightblue" stroke="midnightblue" points="231.471,-118.674 221.313,-121.685 231.131,-125.666 231.471,-118.674"/>
</g>
<!-- Node12&#45;&gt;Node11 -->
<g id="edge15" class="edge"><title>Node12&#45;&gt;Node11</title>
<path fill="none" stroke="midnightblue" d="M731.966,-170.45C683.853,-159.887 603.417,-141.255 575.581,-129 545.843,-115.907 515.038,-94.0759 496.337,-79.7335"/>
<polygon fill="midnightblue" stroke="midnightblue" points="498.451,-76.9435 488.415,-73.5472 494.142,-82.4606 498.451,-76.9435"/>
</g>
<!-- Node13 -->
<g id="node13" class="node"><title>Node13</title>
<polygon fill="none" stroke="#bfbfbf" points="584.965,-110.5 584.965,-128.5 628.197,-128.5 628.197,-110.5 584.965,-110.5"/>
<text text-anchor="middle" x="606.581" y="-116.5" font-family="Helvetica,sans-Serif" font-size="10.00">vector</text>
</g>
<!-- Node12&#45;&gt;Node13 -->
<g id="edge14" class="edge"><title>Node12&#45;&gt;Node13</title>
<path fill="none" stroke="midnightblue" d="M746.917,-170.435C718.579,-160.352 669.923,-143.039 638.002,-131.681"/>
<polygon fill="midnightblue" stroke="midnightblue" points="638.868,-128.274 628.274,-128.219 636.522,-134.869 638.868,-128.274"/>
</g>
<!-- Node14 -->
<g id="node14" class="node"><title>Node14</title>
<polygon fill="none" stroke="#bfbfbf" points="645.951,-110.5 645.951,-128.5 719.211,-128.5 719.211,-110.5 645.951,-110.5"/>
<text text-anchor="middle" x="682.581" y="-116.5" font-family="Helvetica,sans-Serif" font-size="10.00">Eigen/Dense</text>
</g>
<!-- Node12&#45;&gt;Node14 -->
<g id="edge16" class="edge"><title>Node12&#45;&gt;Node14</title>
<path fill="none" stroke="midnightblue" d="M757.484,-170.435C743.538,-161.138 720.372,-145.694 703.49,-134.439"/>
<polygon fill="midnightblue" stroke="midnightblue" points="705.118,-131.318 694.856,-128.683 701.235,-137.142 705.118,-131.318"/>
</g>
<!-- Node15 -->
<g id="node15" class="node"><title>Node15</title>
<polygon fill="none" stroke="#bfbfbf" points="736.722,-110.5 736.722,-128.5 824.44,-128.5 824.44,-110.5 736.722,-110.5"/>
<text text-anchor="middle" x="780.581" y="-116.5" font-family="Helvetica,sans-Serif" font-size="10.00">Eigen/StdVector</text>
</g>
<!-- Node12&#45;&gt;Node15 -->
<g id="edge17" class="edge"><title>Node12&#45;&gt;Node15</title>
<path fill="none" stroke="midnightblue" d="M771.111,-170.435C772.653,-162.304 775.087,-149.469 777.101,-138.848"/>
<polygon fill="midnightblue" stroke="midnightblue" points="780.569,-139.349 778.993,-128.872 773.691,-138.044 780.569,-139.349"/>
</g>
<!-- Node16&#45;&gt;Node10 -->
<g id="edge20" class="edge"><title>Node16&#45;&gt;Node10</title>
<path fill="none" stroke="midnightblue" d="M73.1354,-230.337C98.6103,-207.297 151.12,-159.807 177.973,-135.521"/>
<polygon fill="midnightblue" stroke="midnightblue" points="180.654,-137.815 185.723,-128.511 175.959,-132.623 180.654,-137.815"/>
</g>
<!-- Node16&#45;&gt;Node11 -->
<g id="edge22" class="edge"><title>Node16&#45;&gt;Node11</title>
<path fill="none" stroke="midnightblue" d="M63.8876,-230.247C75.9068,-202.219 108.145,-137.273 158.581,-110 205.468,-84.646 359.117,-72.4107 435.159,-67.7898"/>
<polygon fill="midnightblue" stroke="midnightblue" points="435.578,-71.2713 445.354,-67.1878 435.165,-64.2834 435.578,-71.2713"/>
</g>
<!-- Node17 -->
<g id="node17" class="node"><title>Node17</title>
<polygon fill="none" stroke="#bfbfbf" points="277.965,-170.5 277.965,-188.5 321.197,-188.5 321.197,-170.5 277.965,-170.5"/>
<text text-anchor="middle" x="299.581" y="-176.5" font-family="Helvetica,sans-Serif" font-size="10.00">cmath</text>
</g>
<!-- Node16&#45;&gt;Node17 -->
<g id="edge19" class="edge"><title>Node16&#45;&gt;Node17</title>
<path fill="none" stroke="midnightblue" d="M108.516,-230.446C156.459,-217.914 227.41,-199.366 268.003,-188.755"/>
<polygon fill="midnightblue" stroke="midnightblue" points="269.089,-192.089 277.879,-186.173 267.319,-185.316 269.089,-192.089"/>
</g>
<!-- Node18 -->
<g id="node18" class="node"><title>Node18</title>
<polygon fill="none" stroke="#bfbfbf" points="339.054,-165.5 339.054,-193.5 450.108,-193.5 450.108,-165.5 339.054,-165.5"/>
<text text-anchor="start" x="347.054" y="-181.5" font-family="Helvetica,sans-Serif" font-size="10.00">boost/math/constants</text>
<text text-anchor="middle" x="394.581" y="-171.5" font-family="Helvetica,sans-Serif" font-size="10.00">/constants.hpp</text>
</g>
<!-- Node16&#45;&gt;Node18 -->
<g id="edge21" class="edge"><title>Node16&#45;&gt;Node18</title>
<path fill="none" stroke="midnightblue" d="M117.171,-231.786C120.353,-231.175 123.505,-230.577 126.581,-230 213.979,-213.615 238.533,-211.626 328.908,-194.289"/>
<polygon fill="midnightblue" stroke="midnightblue" points="329.599,-197.72 338.756,-192.39 328.274,-190.847 329.599,-197.72"/>
</g>
<!-- Node20&#45;&gt;Node8 -->
<g id="edge31" class="edge"><title>Node20&#45;&gt;Node8</title>
<path fill="none" stroke="midnightblue" d="M752.752,-235.492C777.659,-228.191 810.882,-215.234 833.581,-194 864.209,-165.348 842.158,-133.959 876.581,-110 929.582,-73.1104 1123.43,-66.6547 1209.23,-65.6304"/>
<polygon fill="midnightblue" stroke="midnightblue" points="1209.43,-69.1287 1219.39,-65.5287 1209.36,-62.1291 1209.43,-69.1287"/>
</g>
<!-- Node20&#45;&gt;Node11 -->
<g id="edge33" class="edge"><title>Node20&#45;&gt;Node11</title>
<path fill="none" stroke="midnightblue" d="M669.196,-235.464C607.699,-225.001 509.256,-206.567 497.581,-194 469.645,-163.93 471.827,-111.668 475.423,-83.9662"/>
<polygon fill="midnightblue" stroke="midnightblue" points="478.936,-84.1445 476.967,-73.7342 472.014,-83.1 478.936,-84.1445"/>
</g>
<!-- Node20&#45;&gt;Node12 -->
<g id="edge46" class="edge"><title>Node20&#45;&gt;Node12</title>
<path fill="none" stroke="midnightblue" d="M725.248,-235.264C733.157,-225.494 746.526,-208.98 756.519,-196.635"/>
<polygon fill="midnightblue" stroke="midnightblue" points="759.502,-198.514 763.073,-188.539 754.061,-194.109 759.502,-198.514"/>
</g>
<!-- Node20&#45;&gt;Node17 -->
<g id="edge25" class="edge"><title>Node20&#45;&gt;Node17</title>
<path fill="none" stroke="midnightblue" d="M654.434,-241.142C576.363,-236.956 441.14,-225.441 329.581,-194 327.918,-193.531 326.229,-192.985 324.544,-192.386"/>
<polygon fill="midnightblue" stroke="midnightblue" points="325.715,-189.083 315.133,-188.55 323.072,-195.565 325.715,-189.083"/>
</g>
<!-- Node20&#45;&gt;Node18 -->
<g id="edge32" class="edge"><title>Node20&#45;&gt;Node18</title>
<path fill="none" stroke="midnightblue" d="M677.217,-235.457C622.483,-224.814 525.363,-205.93 460.47,-193.312"/>
<polygon fill="midnightblue" stroke="midnightblue" points="460.828,-189.816 450.343,-191.343 459.492,-196.687 460.828,-189.816"/>
</g>
<!-- Node21 -->
<g id="node21" class="node"><title>Node21</title>
<polygon fill="none" stroke="#bfbfbf" points="506.409,-170.5 506.409,-188.5 550.753,-188.5 550.753,-170.5 506.409,-170.5"/>
<text text-anchor="middle" x="528.581" y="-176.5" font-family="Helvetica,sans-Serif" font-size="10.00">cstdlib</text>
</g>
<!-- Node20&#45;&gt;Node21 -->
<g id="edge26" class="edge"><title>Node20&#45;&gt;Node21</title>
<path fill="none" stroke="midnightblue" d="M689.539,-235.489C657.417,-226.392 604.289,-210.638 559.581,-194 558.206,-193.488 556.803,-192.948 555.392,-192.389"/>
<polygon fill="midnightblue" stroke="midnightblue" points="556.728,-189.153 546.15,-188.546 554.041,-195.617 556.728,-189.153"/>
</g>
<!-- Node22 -->
<g id="node22" class="node"><title>Node22</title>
<polygon fill="none" stroke="#bfbfbf" points="885.409,-110.5 885.409,-128.5 939.753,-128.5 939.753,-110.5 885.409,-110.5"/>
<text text-anchor="middle" x="912.581" y="-116.5" font-family="Helvetica,sans-Serif" font-size="10.00">iostream</text>
</g>
<!-- Node20&#45;&gt;Node22 -->
<g id="edge27" class="edge"><title>Node20&#45;&gt;Node22</title>
<path fill="none" stroke="midnightblue" d="M769.339,-235.486C800.016,-228.598 838.486,-216.129 866.581,-194 885.206,-179.329 898.325,-154.89 905.664,-138.255"/>
<polygon fill="midnightblue" stroke="midnightblue" points="909.057,-139.209 909.651,-128.631 902.59,-136.53 909.057,-139.209"/>
</g>
<!-- Node23 -->
<g id="node23" class="node"><title>Node23</title>
<polygon fill="none" stroke="#bfbfbf" points="569.071,-170.5 569.071,-188.5 620.091,-188.5 620.091,-170.5 569.071,-170.5"/>
<text text-anchor="middle" x="594.581" y="-176.5" font-family="Helvetica,sans-Serif" font-size="10.00">iomanip</text>
</g>
<!-- Node20&#45;&gt;Node23 -->
<g id="edge28" class="edge"><title>Node20&#45;&gt;Node23</title>
<path fill="none" stroke="midnightblue" d="M702.624,-235.393C681.605,-224.714 644.41,-205.816 619.624,-193.224"/>
<polygon fill="midnightblue" stroke="midnightblue" points="620.977,-189.985 610.477,-188.576 617.807,-196.226 620.977,-189.985"/>
</g>
<!-- Node24 -->
<g id="node24" class="node"><title>Node24</title>
<polygon fill="none" stroke="#bfbfbf" points="957.8,-110.5 957.8,-128.5 1009.36,-128.5 1009.36,-110.5 957.8,-110.5"/>
<text text-anchor="middle" x="983.581" y="-116.5" font-family="Helvetica,sans-Serif" font-size="10.00">sstream</text>
</g>
<!-- Node20&#45;&gt;Node24 -->
<g id="edge29" class="edge"><title>Node20&#45;&gt;Node24</title>
<path fill="none" stroke="midnightblue" d="M766.606,-235.428C802.927,-228.042 853.258,-215.005 893.581,-194 923.102,-178.622 951.957,-152.534 968.74,-135.93"/>
<polygon fill="midnightblue" stroke="midnightblue" points="971.417,-138.201 975.96,-128.629 966.439,-133.279 971.417,-138.201"/>
</g>
<!-- Node25 -->
<g id="node25" class="node"><title>Node25</title>
<polygon fill="none" stroke="#bfbfbf" points="638.18,-170.5 638.18,-188.5 696.982,-188.5 696.982,-170.5 638.18,-170.5"/>
<text text-anchor="middle" x="667.581" y="-176.5" font-family="Helvetica,sans-Serif" font-size="10.00">stdexcept</text>
</g>
<!-- Node20&#45;&gt;Node25 -->
<g id="edge30" class="edge"><title>Node20&#45;&gt;Node25</title>
<path fill="none" stroke="midnightblue" d="M711.914,-235.264C704.005,-225.494 690.636,-208.98 680.643,-196.635"/>
<polygon fill="midnightblue" stroke="midnightblue" points="683.101,-194.109 674.089,-188.539 677.66,-198.514 683.101,-194.109"/>
</g>
<!-- Node26 -->
<g id="node26" class="node"><title>Node26</title>
<g id="a_node26"><a xlink:href="fmt_8h.html" target="_top" xlink:title="Utilities for formatting strings. ">
<polygon fill="none" stroke="black" points="1032.78,-170.5 1032.78,-188.5 1154.38,-188.5 1154.38,-170.5 1032.78,-170.5"/>
<text text-anchor="middle" x="1093.58" y="-176.5" font-family="Helvetica,sans-Serif" font-size="10.00">tomographer/tools/fmt.h</text>
</a>
</g>
</g>
<!-- Node20&#45;&gt;Node26 -->
<g id="edge34" class="edge"><title>Node20&#45;&gt;Node26</title>
<path fill="none" stroke="midnightblue" d="M766.456,-235.457C835.194,-223.909 961.691,-202.658 1035.62,-190.237"/>
<polygon fill="midnightblue" stroke="midnightblue" points="1036.41,-193.653 1045.7,-188.545 1035.25,-186.75 1036.41,-193.653"/>
</g>
<!-- Node26&#45;&gt;Node22 -->
<g id="edge40" class="edge"><title>Node26&#45;&gt;Node22</title>
<path fill="none" stroke="midnightblue" d="M1068.41,-170.435C1037.03,-160.378 983.196,-143.128 947.747,-131.769"/>
<polygon fill="midnightblue" stroke="midnightblue" points="948.417,-128.308 937.826,-128.589 946.281,-134.974 948.417,-128.308"/>
</g>
<!-- Node26&#45;&gt;Node24 -->
<g id="edge39" class="edge"><title>Node26&#45;&gt;Node24</title>
<path fill="none" stroke="midnightblue" d="M1078.29,-170.435C1060.08,-160.837 1029.45,-144.687 1007.97,-133.359"/>
<polygon fill="midnightblue" stroke="midnightblue" points="1009.58,-130.251 999.101,-128.683 1006.31,-136.443 1009.58,-130.251"/>
</g>
<!-- Node27 -->
<g id="node27" class="node"><title>Node27</title>
<polygon fill="none" stroke="#bfbfbf" points="1268.52,-110.5 1268.52,-128.5 1310.64,-128.5 1310.64,-110.5 1268.52,-110.5"/>
<text text-anchor="middle" x="1289.58" y="-116.5" font-family="Helvetica,sans-Serif" font-size="10.00">cstdio</text>
</g>
<!-- Node26&#45;&gt;Node27 -->
<g id="edge35" class="edge"><title>Node26&#45;&gt;Node27</title>
<path fill="none" stroke="midnightblue" d="M1120.83,-170.435C1156.89,-159.766 1220.3,-141.001 1258.28,-129.763"/>
<polygon fill="midnightblue" stroke="midnightblue" points="1259.68,-132.999 1268.27,-126.805 1257.69,-126.287 1259.68,-132.999"/>
</g>
<!-- Node28 -->
<g id="node28" class="node"><title>Node28</title>
<polygon fill="none" stroke="#bfbfbf" points="1328.18,-110.5 1328.18,-128.5 1376.98,-128.5 1376.98,-110.5 1328.18,-110.5"/>
<text text-anchor="middle" x="1352.58" y="-116.5" font-family="Helvetica,sans-Serif" font-size="10.00">cstdarg</text>
</g>
<!-- Node26&#45;&gt;Node28 -->
<g id="edge36" class="edge"><title>Node26&#45;&gt;Node28</title>
<path fill="none" stroke="midnightblue" d="M1132.47,-170.433C1175.55,-161.396 1247.32,-146.048 1318.12,-129.286"/>
<polygon fill="midnightblue" stroke="midnightblue" points="1319.18,-132.632 1328.1,-126.912 1317.56,-125.822 1319.18,-132.632"/>
</g>
<!-- Node29 -->
<g id="node29" class="node"><title>Node29</title>
<polygon fill="none" stroke="#bfbfbf" points="1065.29,-110.5 1065.29,-128.5 1111.87,-128.5 1111.87,-110.5 1065.29,-110.5"/>
<text text-anchor="middle" x="1088.58" y="-116.5" font-family="Helvetica,sans-Serif" font-size="10.00">chrono</text>
</g>
<!-- Node26&#45;&gt;Node29 -->
<g id="edge37" class="edge"><title>Node26&#45;&gt;Node29</title>
<path fill="none" stroke="midnightblue" d="M1092.89,-170.435C1092.18,-162.304 1091.08,-149.469 1090.16,-138.848"/>
<polygon fill="midnightblue" stroke="midnightblue" points="1093.65,-138.534 1089.3,-128.872 1086.67,-139.135 1093.65,-138.534"/>
</g>
<!-- Node30 -->
<g id="node30" class="node"><title>Node30</title>
<polygon fill="none" stroke="#bfbfbf" points="1471.35,-0.5 1471.35,-18.5 1511.81,-18.5 1511.81,-0.5 1471.35,-0.5"/>
<text text-anchor="middle" x="1491.58" y="-6.5" font-family="Helvetica,sans-Serif" font-size="10.00">string</text>
</g>
<!-- Node26&#45;&gt;Node30 -->
<g id="edge38" class="edge"><title>Node26&#45;&gt;Node30</title>
<path fill="none" stroke="midnightblue" d="M1083.05,-170.117C1067.64,-156.822 1042.25,-130.329 1056.58,-110 1103.75,-43.0622 1369.67,-18.8251 1460.88,-12.4123"/>
<polygon fill="midnightblue" stroke="midnightblue" points="1461.37,-15.8871 1471.11,-11.717 1460.89,-8.90323 1461.37,-15.8871"/>
</g>
<!-- Node31 -->
<g id="node31" class="node"><title>Node31</title>
<g id="a_node31"><a xlink:href="tools_2util_8h.html" target="_top" xlink:title="Some C++ utilities, with a tad of C++11 tricks. ">
<polygon fill="none" stroke="black" points="1130.33,-110.5 1130.33,-128.5 1250.83,-128.5 1250.83,-110.5 1130.33,-110.5"/>
<text text-anchor="middle" x="1190.58" y="-116.5" font-family="Helvetica,sans-Serif" font-size="10.00">tomographer/tools/util.h</text>
</a>
</g>
</g>
<!-- Node26&#45;&gt;Node31 -->
<g id="edge41" class="edge"><title>Node26&#45;&gt;Node31</title>
<path fill="none" stroke="midnightblue" d="M1107.07,-170.435C1122.91,-160.966 1149.41,-145.12 1168.31,-133.818"/>
<polygon fill="midnightblue" stroke="midnightblue" points="1170.11,-136.819 1176.9,-128.683 1166.52,-130.811 1170.11,-136.819"/>
</g>
<!-- Node31&#45;&gt;Node8 -->
<g id="edge42" class="edge"><title>Node31&#45;&gt;Node8</title>
<path fill="none" stroke="midnightblue" d="M1199.69,-110.45C1208.68,-102.512 1222.63,-90.1891 1233.65,-80.4519"/>
<polygon fill="midnightblue" stroke="midnightblue" points="1236.2,-82.8689 1241.38,-73.6253 1231.57,-77.6225 1236.2,-82.8689"/>
</g>
<!-- Node31&#45;&gt;Node11 -->
<g id="edge43" class="edge"><title>Node31&#45;&gt;Node11</title>
<path fill="none" stroke="midnightblue" d="M1130.27,-110.977C1127,-110.63 1123.75,-110.302 1120.58,-110 895.577,-88.5554 625.27,-73.2142 521.772,-67.7218"/>
<polygon fill="midnightblue" stroke="midnightblue" points="521.878,-64.2226 511.707,-67.1909 521.509,-71.2129 521.878,-64.2226"/>
</g>
<!-- Node32 -->
<g id="node32" class="node"><title>Node32</title>
<g id="a_node32"><a xlink:href="conststr_8h.html" target="_top" xlink:title="A constexpr string type, suitable for basic compile&#45;time string processing. ">
<polygon fill="none" stroke="black" points="1420.49,-55.5 1420.49,-73.5 1562.67,-73.5 1562.67,-55.5 1420.49,-55.5"/>
<text text-anchor="middle" x="1491.58" y="-61.5" font-family="Helvetica,sans-Serif" font-size="10.00">tomographer/tools/conststr.h</text>
</a>
</g>
</g>
<!-- Node31&#45;&gt;Node32 -->
<g id="edge44" class="edge"><title>Node31&#45;&gt;Node32</title>
<path fill="none" stroke="midnightblue" d="M1236.3,-110.45C1289.82,-101.026 1378.45,-85.4199 1435.93,-75.2994"/>
<polygon fill="midnightblue" stroke="midnightblue" points="1436.69,-78.7195 1445.93,-73.5383 1435.47,-71.8255 1436.69,-78.7195"/>
</g>
<!-- Node32&#45;&gt;Node30 -->
<g id="edge45" class="edge"><title>Node32&#45;&gt;Node30</title>
<path fill="none" stroke="midnightblue" d="M1491.58,-55.2188C1491.58,-48.1769 1491.58,-37.8083 1491.58,-28.8277"/>
<polygon fill="midnightblue" stroke="midnightblue" points="1495.08,-28.5495 1491.58,-18.5496 1488.08,-28.5496 1495.08,-28.5495"/>
</g>
<!-- Node33&#45;&gt;Node3 -->
<g id="edge48" class="edge"><title>Node33&#45;&gt;Node3</title>
<path fill="none" stroke="midnightblue" d="M1340.51,-235.496C1352.29,-233.612 1364.88,-231.668 1376.58,-230 1504.72,-211.728 1539.63,-223.842 1665.58,-194 1668.24,-193.371 1670.96,-192.621 1673.68,-191.801"/>
<polygon fill="midnightblue" stroke="midnightblue" points="1674.92,-195.077 1683.32,-188.617 1672.72,-188.43 1674.92,-195.077"/>
</g>
<!-- Node33&#45;&gt;Node8 -->
<g id="edge55" class="edge"><title>Node33&#45;&gt;Node8</title>
<path fill="none" stroke="midnightblue" d="M1333.53,-235.465C1386.06,-224.748 1471.52,-205.762 1480.58,-194 1488.45,-183.792 1487.02,-176.166 1480.58,-165 1442.2,-98.431 1347.3,-76.3557 1292.14,-69.066"/>
<polygon fill="midnightblue" stroke="midnightblue" points="1292.35,-65.5652 1282,-67.8328 1291.5,-72.514 1292.35,-65.5652"/>
</g>
<!-- Node33&#45;&gt;Node22 -->
<g id="edge53" class="edge"><title>Node33&#45;&gt;Node22</title>
<path fill="none" stroke="midnightblue" d="M1222.07,-242.461C1159.99,-239.099 1068.51,-228.062 996.581,-194 967.648,-180.299 941.076,-153.673 925.867,-136.509"/>
<polygon fill="midnightblue" stroke="midnightblue" points="928.169,-133.817 918.997,-128.514 922.86,-138.38 928.169,-133.817"/>
</g>
<!-- Node33&#45;&gt;Node24 -->
<g id="edge52" class="edge"><title>Node33&#45;&gt;Node24</title>
<path fill="none" stroke="midnightblue" d="M1222.05,-237.411C1153.25,-230.271 1054.58,-216.469 1023.58,-194 1005.05,-180.572 994.184,-155.846 988.561,-138.806"/>
<polygon fill="midnightblue" stroke="midnightblue" points="991.82,-137.489 985.596,-128.915 985.115,-139.499 991.82,-137.489"/>
</g>
<!-- Node33&#45;&gt;Node26 -->
<g id="edge58" class="edge"><title>Node33&#45;&gt;Node26</title>
<path fill="none" stroke="midnightblue" d="M1266.97,-235.393C1231.82,-224.265 1168.48,-204.213 1128.86,-191.67"/>
<polygon fill="midnightblue" stroke="midnightblue" points="1129.68,-188.258 1119.09,-188.576 1127.57,-194.931 1129.68,-188.258"/>
</g>
<!-- Node33&#45;&gt;Node27 -->
<g id="edge49" class="edge"><title>Node33&#45;&gt;Node27</title>
<path fill="none" stroke="midnightblue" d="M1280.43,-235.327C1268.73,-226.649 1251.77,-211.751 1244.58,-194 1239.74,-182.055 1239.62,-176.894 1244.58,-165 1249.57,-153.045 1259.51,-142.663 1268.78,-134.941"/>
<polygon fill="midnightblue" stroke="midnightblue" points="1271.18,-137.513 1276.95,-128.627 1266.89,-131.975 1271.18,-137.513"/>
</g>
<!-- Node33&#45;&gt;Node28 -->
<g id="edge50" class="edge"><title>Node33&#45;&gt;Node28</title>
<path fill="none" stroke="midnightblue" d="M1287.5,-235.105C1279.12,-220.053 1264.54,-187.909 1277.58,-165 1286.45,-149.42 1303.17,-138.731 1318.57,-131.743"/>
<polygon fill="midnightblue" stroke="midnightblue" points="1320.02,-134.931 1327.9,-127.86 1317.33,-128.468 1320.02,-134.931"/>
</g>
<!-- Node33&#45;&gt;Node30 -->
<g id="edge51" class="edge"><title>Node33&#45;&gt;Node30</title>
<path fill="none" stroke="midnightblue" d="M1363.2,-238.106C1457.62,-230.165 1615.22,-214.076 1632.58,-194 1668.91,-152 1641.56,-125.072 1571.58,-55 1557.44,-40.8449 1537.87,-29.8512 1521.62,-22.3323"/>
<polygon fill="midnightblue" stroke="midnightblue" points="1522.57,-18.9281 1512.01,-18.1025 1519.75,-25.3349 1522.57,-18.9281"/>
</g>
<!-- Node33&#45;&gt;Node32 -->
<g id="edge59" class="edge"><title>Node33&#45;&gt;Node32</title>
<path fill="none" stroke="midnightblue" d="M1338.68,-235.459C1396.04,-224.99 1487.7,-206.55 1497.58,-194 1522.84,-161.92 1508.96,-110.128 1498.96,-83.1369"/>
<polygon fill="midnightblue" stroke="midnightblue" points="1502.09,-81.5265 1495.17,-73.5091 1495.58,-84.0958 1502.09,-81.5265"/>
</g>
<!-- Node34 -->
<g id="node34" class="node"><title>Node34</title>
<polygon fill="none" stroke="#bfbfbf" points="1565.18,-170.5 1565.18,-188.5 1623.98,-188.5 1623.98,-170.5 1565.18,-170.5"/>
<text text-anchor="middle" x="1594.58" y="-176.5" font-family="Helvetica,sans-Serif" font-size="10.00">functional</text>
</g>
<!-- Node33&#45;&gt;Node34 -->
<g id="edge54" class="edge"><title>Node33&#45;&gt;Node34</title>
<path fill="none" stroke="midnightblue" d="M1344.07,-235.46C1396.61,-226.835 1480.33,-211.931 1551.58,-194 1554.59,-193.242 1557.71,-192.394 1560.82,-191.502"/>
<polygon fill="midnightblue" stroke="midnightblue" points="1562.04,-194.789 1570.61,-188.562 1560.03,-188.085 1562.04,-194.789"/>
</g>
<!-- Node35 -->
<g id="node35" class="node"><title>Node35</title>
<polygon fill="none" stroke="#bfbfbf" points="1286.85,-170.5 1286.85,-188.5 1322.31,-188.5 1322.31,-170.5 1286.85,-170.5"/>
<text text-anchor="middle" x="1304.58" y="-176.5" font-family="Helvetica,sans-Serif" font-size="10.00">map</text>
</g>
<!-- Node33&#45;&gt;Node35 -->
<g id="edge56" class="edge"><title>Node33&#45;&gt;Node35</title>
<path fill="none" stroke="midnightblue" d="M1294.15,-235.264C1295.92,-225.969 1298.85,-210.567 1301.16,-198.461"/>
<polygon fill="midnightblue" stroke="midnightblue" points="1304.62,-199.017 1303.05,-188.539 1297.74,-197.707 1304.62,-199.017"/>
</g>
<!-- Node36 -->
<g id="node36" class="node"><title>Node36</title>
<polygon fill="none" stroke="#bfbfbf" points="1340.05,-170.5 1340.05,-188.5 1471.11,-188.5 1471.11,-170.5 1340.05,-170.5"/>
<text text-anchor="middle" x="1405.58" y="-176.5" font-family="Helvetica,sans-Serif" font-size="10.00">boost/algorithm/string.hpp</text>
</g>
<!-- Node33&#45;&gt;Node36 -->
<g id="edge57" class="edge"><title>Node33&#45;&gt;Node36</title>
<path fill="none" stroke="midnightblue" d="M1307.35,-235.264C1326.41,-224.641 1359.77,-206.042 1382.26,-193.502"/>
<polygon fill="midnightblue" stroke="midnightblue" points="1384.13,-196.466 1391.16,-188.539 1380.72,-190.352 1384.13,-196.466"/>
</g>
<!-- Node37&#45;&gt;Node12 -->
<g id="edge61" class="edge"><title>Node37&#45;&gt;Node12</title>
<path fill="none" stroke="midnightblue" d="M1145.16,-295.429C1098.77,-279.37 1017.19,-251.602 946.581,-230 900.065,-215.769 846.18,-200.933 810.199,-191.259"/>
<polygon fill="midnightblue" stroke="midnightblue" points="810.657,-187.758 800.092,-188.551 808.845,-194.52 810.657,-187.758"/>
</g>
<!-- Node37&#45;&gt;Node18 -->
<g id="edge64" class="edge"><title>Node37&#45;&gt;Node18</title>
<path fill="none" stroke="midnightblue" d="M1122.79,-307.099C1023,-303.847 816.566,-293.218 645.581,-259 571.081,-244.091 487.379,-215.395 437.917,-197.136"/>
<polygon fill="midnightblue" stroke="midnightblue" points="439.087,-193.837 428.494,-193.631 436.646,-200.398 439.087,-193.837"/>
</g>
<!-- Node37&#45;&gt;Node31 -->
<g id="edge62" class="edge"><title>Node37&#45;&gt;Node31</title>
<path fill="none" stroke="midnightblue" d="M1183.14,-295.28C1184.55,-262.256 1188.21,-176.11 1189.82,-138.502"/>
<polygon fill="midnightblue" stroke="midnightblue" points="1193.31,-138.641 1190.24,-128.501 1186.32,-138.343 1193.31,-138.641"/>
</g>
<!-- Node37&#45;&gt;Node33 -->
<g id="edge63" class="edge"><title>Node37&#45;&gt;Node33</title>
<path fill="none" stroke="midnightblue" d="M1205.37,-295.446C1224.21,-284.655 1250.84,-269.404 1269.71,-258.6"/>
<polygon fill="midnightblue" stroke="midnightblue" points="1271.59,-261.555 1278.53,-253.548 1268.11,-255.481 1271.59,-261.555"/>
</g>
</g>
</svg>
