<?xml version="1.0" encoding="UTF-8" standalone="no"?>
<!DOCTYPE svg PUBLIC "-//W3C//DTD SVG 1.1//EN"
 "http://www.w3.org/Graphics/SVG/1.1/DTD/svg11.dtd">
<!-- Generated by graphviz version 2.38.0 (20140413.2041)
 -->
<!-- Title: tomographer/qit/param_rho_a.h Pages: 1 -->
<svg width="490pt" height="157pt"
 viewBox="0.00 0.00 489.65 157.00" xmlns="http://www.w3.org/2000/svg" xmlns:xlink="http://www.w3.org/1999/xlink">
<g id="graph0" class="graph" transform="scale(1 1) rotate(0) translate(4 153)">
<title>tomographer/qit/param_rho_a.h</title>
<!-- Node1 -->
<g id="node1" class="node"><title>Node1</title>
<polygon fill="#bfbfbf" stroke="black" points="200.54,-120.5 200.54,-148.5 317.702,-148.5 317.702,-120.5 200.54,-120.5"/>
<text text-anchor="start" x="208.54" y="-136.5" font-family="Helvetica,sans-Serif" font-size="10.00">tomographer/qit/param</text>
<text text-anchor="middle" x="259.121" y="-126.5" font-family="Helvetica,sans-Serif" font-size="10.00">_rho_a.h</text>
</g>
<!-- Node2 -->
<g id="node2" class="node"><title>Node2</title>
<polygon fill="none" stroke="#bfbfbf" points="138.106,-0.5 138.106,-18.5 204.135,-18.5 204.135,-0.5 138.106,-0.5"/>
<text text-anchor="middle" x="171.121" y="-6.5" font-family="Helvetica,sans-Serif" font-size="10.00">Eigen/Core</text>
</g>
<!-- Node1&#45;&gt;Node2 -->
<g id="edge1" class="edge"><title>Node1&#45;&gt;Node2</title>
<path fill="none" stroke="midnightblue" d="M235.829,-120.377C222.233,-111.649 205.723,-99.0398 195.121,-84 183.42,-67.4024 177.167,-44.7541 174.009,-29.0024"/>
<polygon fill="midnightblue" stroke="midnightblue" points="177.417,-28.1715 172.223,-18.9368 170.524,-29.3945 177.417,-28.1715"/>
</g>
<!-- Node3 -->
<g id="node3" class="node"><title>Node3</title>
<polygon fill="none" stroke="#bfbfbf" points="374.261,-0.5 374.261,-18.5 461.98,-18.5 461.98,-0.5 374.261,-0.5"/>
<text text-anchor="middle" x="418.121" y="-6.5" font-family="Helvetica,sans-Serif" font-size="10.00">Eigen/StdVector</text>
</g>
<!-- Node1&#45;&gt;Node3 -->
<g id="edge2" class="edge"><title>Node1&#45;&gt;Node3</title>
<path fill="none" stroke="midnightblue" d="M276.136,-120.337C306.177,-97.0976 368.375,-48.9826 399.513,-24.8949"/>
<polygon fill="midnightblue" stroke="midnightblue" points="401.997,-27.3982 407.765,-18.5111 397.714,-21.8615 401.997,-27.3982"/>
</g>
<!-- Node4 -->
<g id="node4" class="node"><title>Node4</title>
<g id="a_node4"><a xlink:href="matrq_8h.html" target="_top" xlink:title="Define types for quantum objects. See Tomographer::MatrQ. ">
<polygon fill="none" stroke="black" points="25.7612,-60.5 25.7612,-78.5 148.48,-78.5 148.48,-60.5 25.7612,-60.5"/>
<text text-anchor="middle" x="87.1206" y="-66.5" font-family="Helvetica,sans-Serif" font-size="10.00">tomographer/qit/matrq.h</text>
</a>
</g>
</g>
<!-- Node1&#45;&gt;Node4 -->
<g id="edge3" class="edge"><title>Node1&#45;&gt;Node4</title>
<path fill="none" stroke="midnightblue" d="M223.482,-120.446C192.54,-109.113 148.17,-92.8611 118.537,-82.0071"/>
<polygon fill="midnightblue" stroke="midnightblue" points="119.687,-78.7009 109.093,-78.548 117.279,-85.2739 119.687,-78.7009"/>
</g>
<!-- Node7 -->
<g id="node7" class="node"><title>Node7</title>
<g id="a_node7"><a xlink:href="qit_2util_8h.html" target="_top" xlink:title="Basic utilities for dealing with Eigen matrices and other types. ">
<polygon fill="none" stroke="black" points="204.15,-60.5 204.15,-78.5 314.091,-78.5 314.091,-60.5 204.15,-60.5"/>
<text text-anchor="middle" x="259.121" y="-66.5" font-family="Helvetica,sans-Serif" font-size="10.00">tomographer/qit/util.h</text>
</a>
</g>
</g>
<!-- Node1&#45;&gt;Node7 -->
<g id="edge7" class="edge"><title>Node1&#45;&gt;Node7</title>
<path fill="none" stroke="midnightblue" d="M259.121,-120.446C259.121,-111.334 259.121,-99.0406 259.121,-88.9308"/>
<polygon fill="midnightblue" stroke="midnightblue" points="262.621,-88.7301 259.121,-78.7301 255.621,-88.7301 262.621,-88.7301"/>
</g>
<!-- Node10 -->
<g id="node10" class="node"><title>Node10</title>
<polygon fill="none" stroke="#bfbfbf" points="370.594,-55.5 370.594,-83.5 481.647,-83.5 481.647,-55.5 370.594,-55.5"/>
<text text-anchor="start" x="378.594" y="-71.5" font-family="Helvetica,sans-Serif" font-size="10.00">boost/math/constants</text>
<text text-anchor="middle" x="426.121" y="-61.5" font-family="Helvetica,sans-Serif" font-size="10.00">/constants.hpp</text>
</g>
<!-- Node1&#45;&gt;Node10 -->
<g id="edge13" class="edge"><title>Node1&#45;&gt;Node10</title>
<path fill="none" stroke="midnightblue" d="M293.723,-120.446C319.362,-110.774 354.496,-97.52 382.129,-87.0956"/>
<polygon fill="midnightblue" stroke="midnightblue" points="383.441,-90.3414 391.562,-83.5369 380.971,-83.7919 383.441,-90.3414"/>
</g>
<!-- Node4&#45;&gt;Node2 -->
<g id="edge6" class="edge"><title>Node4&#45;&gt;Node2</title>
<path fill="none" stroke="midnightblue" d="M98.8004,-60.4353C112.265,-51.1382 134.632,-35.6942 150.933,-24.4393"/>
<polygon fill="midnightblue" stroke="midnightblue" points="153.029,-27.2452 159.269,-18.6831 149.051,-21.4849 153.029,-27.2452"/>
</g>
<!-- Node5 -->
<g id="node5" class="node"><title>Node5</title>
<polygon fill="none" stroke="#bfbfbf" points="0,-0.5 0,-18.5 48.2412,-18.5 48.2412,-0.5 0,-0.5"/>
<text text-anchor="middle" x="24.1206" y="-6.5" font-family="Helvetica,sans-Serif" font-size="10.00">cstddef</text>
</g>
<!-- Node4&#45;&gt;Node5 -->
<g id="edge4" class="edge"><title>Node4&#45;&gt;Node5</title>
<path fill="none" stroke="midnightblue" d="M78.3607,-60.4353C68.6911,-51.5331 52.8999,-36.9952 40.8432,-25.8954"/>
<polygon fill="midnightblue" stroke="midnightblue" points="42.9417,-23.0699 33.2141,-18.8718 38.2005,-28.2198 42.9417,-23.0699"/>
</g>
<!-- Node6 -->
<g id="node6" class="node"><title>Node6</title>
<polygon fill="none" stroke="#bfbfbf" points="66.5024,-0.5 66.5024,-18.5 119.739,-18.5 119.739,-0.5 66.5024,-0.5"/>
<text text-anchor="middle" x="93.1206" y="-6.5" font-family="Helvetica,sans-Serif" font-size="10.00">complex</text>
</g>
<!-- Node4&#45;&gt;Node6 -->
<g id="edge5" class="edge"><title>Node4&#45;&gt;Node6</title>
<path fill="none" stroke="midnightblue" d="M87.9549,-60.4353C88.7961,-52.3035 90.1238,-39.4692 91.2225,-28.8485"/>
<polygon fill="midnightblue" stroke="midnightblue" points="94.7069,-29.1789 92.2546,-18.8718 87.7441,-28.4585 94.7069,-29.1789"/>
</g>
<!-- Node7&#45;&gt;Node2 -->
<g id="edge10" class="edge"><title>Node7&#45;&gt;Node2</title>
<path fill="none" stroke="midnightblue" d="M246.885,-60.4353C232.779,-51.1382 209.346,-35.6942 192.27,-24.4393"/>
<polygon fill="midnightblue" stroke="midnightblue" points="193.812,-21.264 183.536,-18.6831 189.96,-27.1087 193.812,-21.264"/>
</g>
<!-- Node7&#45;&gt;Node3 -->
<g id="edge12" class="edge"><title>Node7&#45;&gt;Node3</title>
<path fill="none" stroke="midnightblue" d="M281.229,-60.4353C308.563,-50.4645 355.278,-33.4237 386.424,-22.0624"/>
<polygon fill="midnightblue" stroke="midnightblue" points="387.749,-25.3045 395.944,-18.5894 385.35,-18.7284 387.749,-25.3045"/>
</g>
<!-- Node7&#45;&gt;Node6 -->
<g id="edge8" class="edge"><title>Node7&#45;&gt;Node6</title>
<path fill="none" stroke="midnightblue" d="M236.039,-60.4353C207.378,-50.4213 158.307,-33.276 125.792,-21.9152"/>
<polygon fill="midnightblue" stroke="midnightblue" points="126.868,-18.5838 116.273,-18.5894 124.559,-25.1921 126.868,-18.5838"/>
</g>
<!-- Node8 -->
<g id="node8" class="node"><title>Node8</title>
<polygon fill="none" stroke="#bfbfbf" points="222.505,-0.5 222.505,-18.5 265.736,-18.5 265.736,-0.5 222.505,-0.5"/>
<text text-anchor="middle" x="244.121" y="-6.5" font-family="Helvetica,sans-Serif" font-size="10.00">vector</text>
</g>
<!-- Node7&#45;&gt;Node8 -->
<g id="edge9" class="edge"><title>Node7&#45;&gt;Node8</title>
<path fill="none" stroke="midnightblue" d="M257.035,-60.4353C254.932,-52.3035 251.613,-39.4692 248.866,-28.8485"/>
<polygon fill="midnightblue" stroke="midnightblue" points="252.178,-27.6769 246.286,-18.8718 245.401,-29.4296 252.178,-27.6769"/>
</g>
<!-- Node9 -->
<g id="node9" class="node"><title>Node9</title>
<polygon fill="none" stroke="#bfbfbf" points="283.49,-0.5 283.49,-18.5 356.751,-18.5 356.751,-0.5 283.49,-0.5"/>
<text text-anchor="middle" x="320.121" y="-6.5" font-family="Helvetica,sans-Serif" font-size="10.00">Eigen/Dense</text>
</g>
<!-- Node7&#45;&gt;Node9 -->
<g id="edge11" class="edge"><title>Node7&#45;&gt;Node9</title>
<path fill="none" stroke="midnightblue" d="M267.602,-60.4353C276.965,-51.5331 292.255,-36.9952 303.929,-25.8954"/>
<polygon fill="midnightblue" stroke="midnightblue" points="306.481,-28.2989 311.316,-18.8718 301.657,-23.2259 306.481,-28.2989"/>
</g>
</g>
</svg>
