<?xml version="1.0" encoding="UTF-8" standalone="no"?>
<!DOCTYPE svg PUBLIC "-//W3C//DTD SVG 1.1//EN"
 "http://www.w3.org/Graphics/SVG/1.1/DTD/svg11.dtd">
<!-- Generated by graphviz version 2.38.0 (20140413.2041)
 -->
<!-- Title: tomographer/qit/pos_semidef_util.h Pages: 1 -->
<svg width="190pt" height="92pt"
 viewBox="0.00 0.00 190.43 92.00" xmlns="http://www.w3.org/2000/svg" xmlns:xlink="http://www.w3.org/1999/xlink">
<g id="graph0" class="graph" transform="scale(1 1) rotate(0) translate(4 88)">
<title>tomographer/qit/pos_semidef_util.h</title>
<!-- Node1 -->
<g id="node1" class="node"><title>Node1</title>
<polygon fill="#bfbfbf" stroke="black" points="30.5444,-55.5 30.5444,-83.5 135.485,-83.5 135.485,-55.5 30.5444,-55.5"/>
<text text-anchor="start" x="38.5444" y="-71.5" font-family="Helvetica,sans-Serif" font-size="10.00">tomographer/qit/pos</text>
<text text-anchor="middle" x="83.0146" y="-61.5" font-family="Helvetica,sans-Serif" font-size="10.00">_semidef_util.h</text>
</g>
<!-- Node2 -->
<g id="node2" class="node"><title>Node2</title>
<polygon fill="none" stroke="#bfbfbf" points="0,-0.5 0,-18.5 66.0293,-18.5 66.0293,-0.5 0,-0.5"/>
<text text-anchor="middle" x="33.0146" y="-6.5" font-family="Helvetica,sans-Serif" font-size="10.00">Eigen/Core</text>
</g>
<!-- Node1&#45;&gt;Node2 -->
<g id="edge1" class="edge"><title>Node1&#45;&gt;Node2</title>
<path fill="none" stroke="midnightblue" d="M71.6689,-55.3389C64.2568,-46.7409 54.5348,-35.4634 46.6953,-26.3696"/>
<polygon fill="midnightblue" stroke="midnightblue" points="49.3256,-24.0603 40.1452,-18.7715 44.0237,-28.6309 49.3256,-24.0603"/>
</g>
<!-- Node3 -->
<g id="node3" class="node"><title>Node3</title>
<polygon fill="none" stroke="#bfbfbf" points="83.5962,-0.5 83.5962,-18.5 182.433,-18.5 182.433,-0.5 83.5962,-0.5"/>
<text text-anchor="middle" x="133.015" y="-6.5" font-family="Helvetica,sans-Serif" font-size="10.00">Eigen/Eigenvalues</text>
</g>
<!-- Node1&#45;&gt;Node3 -->
<g id="edge2" class="edge"><title>Node1&#45;&gt;Node3</title>
<path fill="none" stroke="midnightblue" d="M94.3604,-55.3389C101.772,-46.7409 111.494,-35.4634 119.334,-26.3696"/>
<polygon fill="midnightblue" stroke="midnightblue" points="122.006,-28.6309 125.884,-18.7715 116.704,-24.0603 122.006,-28.6309"/>
</g>
</g>
</svg>
