<?xml version="1.0" encoding="UTF-8" standalone="no"?>
<!DOCTYPE svg PUBLIC "-//W3C//DTD SVG 1.1//EN"
 "http://www.w3.org/Graphics/SVG/1.1/DTD/svg11.dtd">
<!-- Generated by graphviz version 2.38.0 (20140413.2041)
 -->
<!-- Title: tomographer/qit/solveclyap.h Pages: 1 -->
<svg width="249pt" height="82pt"
 viewBox="0.00 0.00 248.65 82.00" xmlns="http://www.w3.org/2000/svg" xmlns:xlink="http://www.w3.org/1999/xlink">
<g id="graph0" class="graph" transform="scale(1 1) rotate(0) translate(4 78)">
<title>tomographer/qit/solveclyap.h</title>
<!-- Node1 -->
<g id="node1" class="node"><title>Node1</title>
<polygon fill="#bfbfbf" stroke="black" points="19.3032,-55.5 19.3032,-73.5 163.15,-73.5 163.15,-55.5 19.3032,-55.5"/>
<text text-anchor="middle" x="91.2266" y="-61.5" font-family="Helvetica,sans-Serif" font-size="10.00">tomographer/qit/solveclyap.h</text>
</g>
<!-- Node2 -->
<g id="node2" class="node"><title>Node2</title>
<polygon fill="none" stroke="#bfbfbf" points="0,-0.5 0,-18.5 40.4531,-18.5 40.4531,-0.5 0,-0.5"/>
<text text-anchor="middle" x="20.2266" y="-6.5" font-family="Helvetica,sans-Serif" font-size="10.00">string</text>
</g>
<!-- Node1&#45;&gt;Node2 -->
<g id="edge1" class="edge"><title>Node1&#45;&gt;Node2</title>
<path fill="none" stroke="midnightblue" d="M80.4432,-55.4504C69.6005,-47.3566 52.651,-34.7042 39.4932,-24.8822"/>
<polygon fill="midnightblue" stroke="midnightblue" points="41.2186,-21.8025 31.1114,-18.6253 37.0313,-27.412 41.2186,-21.8025"/>
</g>
<!-- Node3 -->
<g id="node3" class="node"><title>Node3</title>
<polygon fill="none" stroke="#bfbfbf" points="58.2119,-0.5 58.2119,-18.5 124.241,-18.5 124.241,-0.5 58.2119,-0.5"/>
<text text-anchor="middle" x="91.2266" y="-6.5" font-family="Helvetica,sans-Serif" font-size="10.00">Eigen/Core</text>
</g>
<!-- Node1&#45;&gt;Node3 -->
<g id="edge2" class="edge"><title>Node1&#45;&gt;Node3</title>
<path fill="none" stroke="midnightblue" d="M91.2266,-55.2188C91.2266,-48.1769 91.2266,-37.8083 91.2266,-28.8277"/>
<polygon fill="midnightblue" stroke="midnightblue" points="94.7267,-28.5495 91.2266,-18.5496 87.7267,-28.5496 94.7267,-28.5495"/>
</g>
<!-- Node4 -->
<g id="node4" class="node"><title>Node4</title>
<polygon fill="none" stroke="#bfbfbf" points="141.808,-0.5 141.808,-18.5 240.645,-18.5 240.645,-0.5 141.808,-0.5"/>
<text text-anchor="middle" x="191.227" y="-6.5" font-family="Helvetica,sans-Serif" font-size="10.00">Eigen/Eigenvalues</text>
</g>
<!-- Node1&#45;&gt;Node4 -->
<g id="edge3" class="edge"><title>Node1&#45;&gt;Node4</title>
<path fill="none" stroke="midnightblue" d="M106.414,-55.4504C122.493,-46.9286 148.107,-33.3532 166.984,-23.3487"/>
<polygon fill="midnightblue" stroke="midnightblue" points="168.699,-26.4008 175.896,-18.6253 165.421,-20.2158 168.699,-26.4008"/>
</g>
</g>
</svg>
