<?xml version="1.0" encoding="UTF-8" standalone="no"?>
<!DOCTYPE svg PUBLIC "-//W3C//DTD SVG 1.1//EN"
 "http://www.w3.org/Graphics/SVG/1.1/DTD/svg11.dtd">
<!-- Generated by graphviz version 2.38.0 (20140413.2041)
 -->
<!-- Title: Tomographer::Logger::LoggerTraits&lt; MinimumSeverityLogger&lt; BaseLogger, Level &gt; &gt; Pages: 1 -->
<svg width="171pt" height="188pt"
 viewBox="0.00 0.00 170.63 188.00" xmlns="http://www.w3.org/2000/svg" xmlns:xlink="http://www.w3.org/1999/xlink">
<g id="graph0" class="graph" transform="scale(1 1) rotate(0) translate(4 184)">
<title>Tomographer::Logger::LoggerTraits&lt; MinimumSeverityLogger&lt; BaseLogger, Level &gt; &gt;</title>
<!-- Node1 -->
<g id="node1" class="node"><title>Node1</title>
<polygon fill="#bfbfbf" stroke="black" points="0,-0.5 0,-38.5 162.626,-38.5 162.626,-0.5 0,-0.5"/>
<text text-anchor="start" x="8" y="-26.5" font-family="Helvetica,sans-Serif" font-size="10.00">Tomographer::Logger</text>
<text text-anchor="start" x="8" y="-16.5" font-family="Helvetica,sans-Serif" font-size="10.00">::LoggerTraits&lt; MinimumSeverity</text>
<text text-anchor="middle" x="81.313" y="-6.5" font-family="Helvetica,sans-Serif" font-size="10.00">Logger&lt; BaseLogger, Level &gt; &gt;</text>
</g>
<!-- Node2 -->
<g id="node2" class="node"><title>Node2</title>
<g id="a_node2"><a xlink:href="struct_tomographer_1_1_logger_1_1_logger_traits.html" target="_top" xlink:title="Tomographer::Logger\l::LoggerTraits\&lt; BaseLogger \&gt;">
<polygon fill="none" stroke="black" points="7.06543,-76.5 7.06543,-104.5 155.561,-104.5 155.561,-76.5 7.06543,-76.5"/>
<text text-anchor="start" x="15.0654" y="-92.5" font-family="Helvetica,sans-Serif" font-size="10.00">Tomographer::Logger</text>
<text text-anchor="middle" x="81.313" y="-82.5" font-family="Helvetica,sans-Serif" font-size="10.00">::LoggerTraits&lt; BaseLogger &gt;</text>
</a>
</g>
</g>
<!-- Node2&#45;&gt;Node1 -->
<g id="edge1" class="edge"><title>Node2&#45;&gt;Node1</title>
<path fill="none" stroke="midnightblue" d="M81.313,-66.0412C81.313,-57.1158 81.313,-47.0882 81.313,-38.7192"/>
<polygon fill="midnightblue" stroke="midnightblue" points="77.8131,-66.1961 81.313,-76.1961 84.8131,-66.1961 77.8131,-66.1961"/>
</g>
<!-- Node3 -->
<g id="node3" class="node"><title>Node3</title>
<g id="a_node3"><a xlink:href="struct_tomographer_1_1_logger_1_1_logger_traits.html" target="_top" xlink:title="Traits template struct to be specialized for specific Logger implementations. ">
<polygon fill="none" stroke="black" points="7.61963,-151.5 7.61963,-179.5 155.006,-179.5 155.006,-151.5 7.61963,-151.5"/>
<text text-anchor="start" x="15.6196" y="-167.5" font-family="Helvetica,sans-Serif" font-size="10.00">Tomographer::Logger</text>
<text text-anchor="middle" x="81.313" y="-157.5" font-family="Helvetica,sans-Serif" font-size="10.00">::LoggerTraits&lt; LoggerType &gt;</text>
</a>
</g>
</g>
<!-- Node3&#45;&gt;Node2 -->
<g id="edge2" class="edge"><title>Node3&#45;&gt;Node2</title>
<path fill="none" stroke="orange" stroke-dasharray="5,2" d="M81.313,-141.245C81.313,-129.265 81.313,-115.082 81.313,-104.932"/>
<polygon fill="orange" stroke="orange" points="77.8131,-141.449 81.313,-151.449 84.8131,-141.449 77.8131,-141.449"/>
<text text-anchor="middle" x="118.286" y="-125" font-family="Helvetica,sans-Serif" font-size="10.00"> &lt; BaseLogger &gt;</text>
</g>
</g>
</svg>
