<?xml version="1.0" encoding="UTF-8" standalone="no"?>
<!DOCTYPE svg PUBLIC "-//W3C//DTD SVG 1.1//EN"
 "http://www.w3.org/Graphics/SVG/1.1/DTD/svg11.dtd">
<!-- Generated by graphviz version 2.38.0 (20140413.2041)
 -->
<!-- Title: Tomographer::MatrQ&lt; FixedDim_, FixedMaxParamList_, RealScalar_, IntFreqType_ &gt; Pages: 1 -->
<!--zoomable 97 -->
<svg id="main" version="1.1" xmlns="http://www.w3.org/2000/svg" xmlns:xlink="http://www.w3.org/1999/xlink" xml:space="preserve" onload="init(evt)">
<style type="text/css"><![CDATA[
.edge:hover path { stroke: red; }
.edge:hover polygon { stroke: red; fill: red; }
]]></style>
<script type="text/javascript"><![CDATA[
var edges = document.getElementsByTagName('g');
if (edges && edges.length) {
  for (var i=0;i<edges.length;i++) {
    if (edges[i].id.substr(0,4)=='edge') {
      edges[i].setAttribute('class','edge');
    }
  }
}
]]></script>
        <defs>
                <circle id="rim" cx="0" cy="0" r="7"/>
                <circle id="rim2" cx="0" cy="0" r="3.5"/>
                <g id="zoomPlus">
                        <use xlink:href="#rim" fill="#404040">
                                <set attributeName="fill" to="#808080" begin="zoomplus.mouseover" end="zoomplus.mouseout"/>
                        </use>
                        <path d="M-4,0h8M0,-4v8" fill="none" stroke="white" stroke-width="1.5" pointer-events="none"/>
                </g>
                <g id="zoomMin">
                        <use xlink:href="#rim" fill="#404040">
                                <set attributeName="fill" to="#808080" begin="zoomminus.mouseover" end="zoomminus.mouseout"/>
                        </use>
                        <path d="M-4,0h8" fill="none" stroke="white" stroke-width="1.5" pointer-events="none"/>
                </g>
                <g id="dirArrow">
                        <path fill="none" stroke="white" stroke-width="1.5" d="M0,-3.0v7 M-2.5,-0.5L0,-3.0L2.5,-0.5"/>
                </g>
               <g id="resetDef">
                       <use xlink:href="#rim2" fill="#404040">
                               <set attributeName="fill" to="#808080" begin="reset.mouseover" end="reset.mouseout"/>
                       </use>
               </g>
        </defs>

<script type="text/javascript">
var viewWidth = 1096;
var viewHeight = 97;
var sectionId = 'dynsection-0';
</script>
<script xlink:href="svgpan.js"/>
<svg id="graph" class="graph">
<g id="viewport">
<title>Tomographer::MatrQ&lt; FixedDim_, FixedMaxParamList_, RealScalar_, IntFreqType_ &gt;</title>
<!-- Node1 -->
<g id="node1" class="node"><title>Node1</title>
<polygon fill="#bfbfbf" stroke="black" points="917.64,-21.5 917.64,-59.5 1087.89,-59.5 1087.89,-21.5 917.64,-21.5"/>
<text text-anchor="start" x="925.64" y="-47.5" font-family="Helvetica,sans-Serif" font-size="10.00">Tomographer::MatrQ</text>
<text text-anchor="start" x="925.64" y="-37.5" font-family="Helvetica,sans-Serif" font-size="10.00">&lt; FixedDim_, FixedMaxParam</text>
<text text-anchor="middle" x="1002.77" y="-27.5" font-family="Helvetica,sans-Serif" font-size="10.00">List_, RealScalar_, IntFreqType_ &gt;</text>
</g>
<!-- Node2 -->
<g id="node2" class="node"><title>Node2</title>
<g id="a_node2"><a xlink:href="struct_tomographer_1_1_matr_q_base_dim_store.html" target="_top" xlink:title="Tomographer::MatrQBaseDim\lStore\&lt; MatrQ\&lt; FixedDim\l_, FixedMaxParamList_, RealScalar\l_, IntFreqType_ \&gt;, FixedDim_!\l=Eigen::Dynamic \&gt;">
<polygon fill="none" stroke="black" points="705.133,-11.5 705.133,-69.5 880.64,-69.5 880.64,-11.5 705.133,-11.5"/>
<text text-anchor="start" x="713.133" y="-57.5" font-family="Helvetica,sans-Serif" font-size="10.00">Tomographer::MatrQBaseDim</text>
<text text-anchor="start" x="713.133" y="-47.5" font-family="Helvetica,sans-Serif" font-size="10.00">Store&lt; MatrQ&lt; FixedDim</text>
<text text-anchor="start" x="713.133" y="-37.5" font-family="Helvetica,sans-Serif" font-size="10.00">_, FixedMaxParamList_, RealScalar</text>
<text text-anchor="start" x="713.133" y="-27.5" font-family="Helvetica,sans-Serif" font-size="10.00">_, IntFreqType_ &gt;, FixedDim_!</text>
<text text-anchor="middle" x="792.886" y="-17.5" font-family="Helvetica,sans-Serif" font-size="10.00">=Eigen::Dynamic &gt;</text>
</a>
</g>
</g>
<!-- Node2&#45;&gt;Node1 -->
<g id="edge1" class="edge"><title>Node2&#45;&gt;Node1</title>
<path fill="none" stroke="midnightblue" d="M890.847,-40.5C899.747,-40.5 908.715,-40.5 917.49,-40.5"/>
<polygon fill="midnightblue" stroke="midnightblue" points="890.842,-37.0001 880.842,-40.5 890.841,-44.0001 890.842,-37.0001"/>
</g>
<!-- Node3 -->
<g id="node3" class="node"><title>Node3</title>
<g id="a_node3"><a xlink:href="struct_tomographer_1_1_matr_q_base.html" target="_top" xlink:title="Tomographer::MatrQBase\l\&lt; MatrQ\&lt; FixedDim_, FixedMax\lParamList_, RealScalar_, IntFreqType_ \&gt; \&gt;">
<polygon fill="none" stroke="black" points="306.019,-48.5 306.019,-86.5 514.343,-86.5 514.343,-48.5 306.019,-48.5"/>
<text text-anchor="start" x="314.019" y="-74.5" font-family="Helvetica,sans-Serif" font-size="10.00">Tomographer::MatrQBase</text>
<text text-anchor="start" x="314.019" y="-64.5" font-family="Helvetica,sans-Serif" font-size="10.00">&lt; MatrQ&lt; FixedDim_, FixedMax</text>
<text text-anchor="middle" x="410.181" y="-54.5" font-family="Helvetica,sans-Serif" font-size="10.00">ParamList_, RealScalar_, IntFreqType_ &gt; &gt;</text>
</a>
</g>
</g>
<!-- Node3&#45;&gt;Node2 -->
<g id="edge2" class="edge"><title>Node3&#45;&gt;Node2</title>
<path fill="none" stroke="midnightblue" d="M524.694,-64.3459C574.59,-62.3937 633.841,-59.3075 687.133,-54.5 692.98,-53.9725 699.003,-53.3581 705.065,-52.6868"/>
<polygon fill="midnightblue" stroke="midnightblue" points="524.38,-60.8553 514.52,-64.7335 524.646,-67.8502 524.38,-60.8553"/>
</g>
<!-- Node4 -->
<g id="node4" class="node"><title>Node4</title>
<g id="a_node4"><a xlink:href="struct_tomographer_1_1_matr_q_base.html" target="_top" xlink:title="Basic definitions for MatrQ. ">
<polygon fill="none" stroke="black" points="0,-29.5 0,-57.5 131.049,-57.5 131.049,-29.5 0,-29.5"/>
<text text-anchor="start" x="8" y="-45.5" font-family="Helvetica,sans-Serif" font-size="10.00">Tomographer::MatrQBase</text>
<text text-anchor="middle" x="65.5244" y="-35.5" font-family="Helvetica,sans-Serif" font-size="10.00">&lt; Derived &gt;</text>
</a>
</g>
</g>
<!-- Node4&#45;&gt;Node3 -->
<g id="edge3" class="edge"><title>Node4&#45;&gt;Node3</title>
<path fill="none" stroke="orange" stroke-dasharray="5,2" d="M141.424,-48.7461C189.619,-52.1217 252.91,-56.5547 305.857,-60.2631"/>
<polygon fill="orange" stroke="orange" points="141.598,-45.2498 131.378,-48.0424 141.109,-52.2327 141.598,-45.2498"/>
<text text-anchor="start" x="149.049" y="-80.5" font-family="Helvetica,sans-Serif" font-size="10.00"> &lt; MatrQ&lt; FixedDim_,</text>
<text text-anchor="start" x="149.049" y="-70.5" font-family="Helvetica,sans-Serif" font-size="10.00"> FixedMaxParamList_,</text>
<text text-anchor="middle" x="218.534" y="-60.5" font-family="Helvetica,sans-Serif" font-size="10.00"> RealScalar_, IntFreqType_ &gt; &gt;</text>
</g>
<!-- Node5 -->
<g id="node5" class="node"><title>Node5</title>
<g id="a_node5"><a xlink:href="struct_tomographer_1_1_matr_q_base_dim_store.html" target="_top" xlink:title="Helper intermediate class for MatrQ. ">
<polygon fill="none" stroke="black" points="329.363,-0.5 329.363,-28.5 490.998,-28.5 490.998,-0.5 329.363,-0.5"/>
<text text-anchor="start" x="337.363" y="-16.5" font-family="Helvetica,sans-Serif" font-size="10.00">Tomographer::MatrQBaseDim</text>
<text text-anchor="middle" x="410.181" y="-6.5" font-family="Helvetica,sans-Serif" font-size="10.00">Store&lt; Derived, has_fixed_dim &gt;</text>
</a>
</g>
</g>
<!-- Node4&#45;&gt;Node5 -->
<g id="edge5" class="edge"><title>Node4&#45;&gt;Node5</title>
<path fill="none" stroke="midnightblue" d="M141.503,-37.1543C197.022,-32.4556 272.541,-26.0642 329.212,-21.268"/>
<polygon fill="midnightblue" stroke="midnightblue" points="141.047,-33.6803 131.378,-38.0112 141.638,-40.6554 141.047,-33.6803"/>
</g>
<!-- Node5&#45;&gt;Node2 -->
<g id="edge4" class="edge"><title>Node5&#45;&gt;Node2</title>
<path fill="none" stroke="orange" stroke-dasharray="5,2" d="M501.44,-8.9918C555.501,-7.06014 625.481,-6.96331 687.133,-14.5 692.992,-15.2162 698.995,-16.1499 705.018,-17.2365"/>
<polygon fill="orange" stroke="orange" points="501.05,-5.50413 491.192,-9.38659 501.319,-12.4989 501.05,-5.50413"/>
<text text-anchor="start" x="532.343" y="-46.5" font-family="Helvetica,sans-Serif" font-size="10.00"> &lt; MatrQ&lt; FixedDim_,</text>
<text text-anchor="start" x="532.343" y="-36.5" font-family="Helvetica,sans-Serif" font-size="10.00"> FixedMaxParamList_,</text>
<text text-anchor="start" x="532.343" y="-26.5" font-family="Helvetica,sans-Serif" font-size="10.00"> RealScalar_, IntFreqType</text>
<text text-anchor="middle" x="609.738" y="-16.5" font-family="Helvetica,sans-Serif" font-size="10.00">_ &gt;, FixedDim_!=Eigen::Dynamic &gt;</text>
</g>
</g>
</svg>
        <g id="navigator" transform="translate(0 0)" fill="#404254">
                <rect fill="#f2f5e9" fill-opacity="0.5" stroke="#606060" stroke-width=".5" x="0" y="0" width="60" height="60"/>
                <use id="zoomplus" xlink:href="#zoomPlus" x="17" y="9" onmousedown="handleZoom(evt,'in')"/>
                <use id="zoomminus" xlink:href="#zoomMin" x="42" y="9" onmousedown="handleZoom(evt,'out')"/>
                <use id="reset" xlink:href="#resetDef" x="30" y="36" onmousedown="handleReset()"/>
                <g id="arrowUp" xlink:href="#dirArrow" transform="translate(30 24)" onmousedown="handlePan(0,-1)">
                  <use xlink:href="#rim" fill="#404040">
                        <set attributeName="fill" to="#808080" begin="arrowUp.mouseover" end="arrowUp.mouseout"/>
                  </use>
                  <path fill="none" stroke="white" stroke-width="1.5" d="M0,-3.0v7 M-2.5,-0.5L0,-3.0L2.5,-0.5"/>
                </g>
                <g id="arrowRight" xlink:href="#dirArrow" transform="rotate(90) translate(36 -43)" onmousedown="handlePan(1,0)">
                  <use xlink:href="#rim" fill="#404040">
                        <set attributeName="fill" to="#808080" begin="arrowRight.mouseover" end="arrowRight.mouseout"/>
                  </use>
                  <path fill="none" stroke="white" stroke-width="1.5" d="M0,-3.0v7 M-2.5,-0.5L0,-3.0L2.5,-0.5"/>
                </g>
                <g id="arrowDown" xlink:href="#dirArrow" transform="rotate(180) translate(-30 -48)" onmousedown="handlePan(0,1)">
                  <use xlink:href="#rim" fill="#404040">
                        <set attributeName="fill" to="#808080" begin="arrowDown.mouseover" end="arrowDown.mouseout"/>
                  </use>
                  <path fill="none" stroke="white" stroke-width="1.5" d="M0,-3.0v7 M-2.5,-0.5L0,-3.0L2.5,-0.5"/>
                </g>
                <g id="arrowLeft" xlink:href="#dirArrow" transform="rotate(270) translate(-36 17)" onmousedown="handlePan(-1,0)">
                  <use xlink:href="#rim" fill="#404040">
                        <set attributeName="fill" to="#808080" begin="arrowLeft.mouseover" end="arrowLeft.mouseout"/>
                  </use>
                  <path fill="none" stroke="white" stroke-width="1.5" d="M0,-3.0v7 M-2.5,-0.5L0,-3.0L2.5,-0.5"/>
                </g>
        </g>
        <svg viewBox="0 0 15 15" width="100%" height="30px" preserveAspectRatio="xMaxYMin meet">
         <g id="arrow_out" transform="scale(0.3 0.3)">
          <a xlink:href="struct_tomographer_1_1_matr_q__inherit__graph_org.svg" target="_base">
           <rect id="button" ry="5" rx="5" y="6" x="6" height="38" width="38"
                fill="#f2f5e9" fill-opacity="0.5" stroke="#606060" stroke-width="1.0"/>
           <path id="arrow"
             d="M 11.500037,31.436501 C 11.940474,20.09759 22.043105,11.32322 32.158766,21.979434 L 37.068811,17.246167 C 37.068811,17.246167 37.088388,32 37.088388,32 L 22.160133,31.978069 C 22.160133,31.978069 26.997745,27.140456 26.997745,27.140456 C 18.528582,18.264221 13.291696,25.230495 11.500037,31.436501 z"
             style="fill:#404040;"/>
          </a>
         </g>
        </svg>
</svg>
