<?xml version="1.0" encoding="UTF-8" standalone="no"?>
<!DOCTYPE svg PUBLIC "-//W3C//DTD SVG 1.1//EN"
 "http://www.w3.org/Graphics/SVG/1.1/DTD/svg11.dtd">
<!-- Generated by graphviz version 2.38.0 (20140413.2041)
 -->
<!-- Title: Tomographer::UniformBinsHistogramWithErrorBars&lt; Scalar_, CountType_ &gt; Pages: 1 -->
<svg width="1440pt" height="185pt"
 viewBox="0.00 0.00 1439.74 185.00" xmlns="http://www.w3.org/2000/svg" xmlns:xlink="http://www.w3.org/1999/xlink">
<g id="graph0" class="graph" transform="scale(1 1) rotate(0) translate(4 181)">
<title>Tomographer::UniformBinsHistogramWithErrorBars&lt; Scalar_, CountType_ &gt;</title>
<!-- Node1 -->
<g id="node1" class="node"><title>Node1</title>
<polygon fill="#bfbfbf" stroke="black" points="1296.8,-61.5 1296.8,-99.5 1431.74,-99.5 1431.74,-61.5 1296.8,-61.5"/>
<text text-anchor="start" x="1304.8" y="-87.5" font-family="Helvetica,sans-Serif" font-size="10.00">Tomographer::UniformBins</text>
<text text-anchor="start" x="1304.8" y="-77.5" font-family="Helvetica,sans-Serif" font-size="10.00">HistogramWithErrorBars</text>
<text text-anchor="middle" x="1364.27" y="-67.5" font-family="Helvetica,sans-Serif" font-size="10.00">&lt; Scalar_, CountType_ &gt;</text>
</g>
<!-- Node2 -->
<g id="node2" class="node"><title>Node2</title>
<g id="a_node2"><a xlink:href="struct_tomographer_1_1_uniform_bins_histogram.html" target="_top" xlink:title="Stores a histogram. ">
<polygon fill="none" stroke="black" points="1087.61,-101.5 1087.61,-129.5 1259.8,-129.5 1259.8,-101.5 1087.61,-101.5"/>
<text text-anchor="start" x="1095.61" y="-117.5" font-family="Helvetica,sans-Serif" font-size="10.00">Tomographer::UniformBins</text>
<text text-anchor="middle" x="1173.71" y="-107.5" font-family="Helvetica,sans-Serif" font-size="10.00">Histogram&lt; Scalar_, CountType_ &gt;</text>
</a>
</g>
</g>
<!-- Node2&#45;&gt;Node1 -->
<g id="edge1" class="edge"><title>Node2&#45;&gt;Node1</title>
<path fill="none" stroke="midnightblue" d="M1260.48,-99.5787C1272.66,-97.3182 1285.03,-95.0223 1296.77,-92.8435"/>
<polygon fill="midnightblue" stroke="midnightblue" points="1259.51,-96.1996 1250.32,-101.466 1260.79,-103.082 1259.51,-96.1996"/>
</g>
<!-- Node3 -->
<g id="node3" class="node"><title>Node3</title>
<polygon fill="none" stroke="#bfbfbf" points="896.121,-158.5 896.121,-176.5 966.052,-176.5 966.052,-158.5 896.121,-158.5"/>
<text text-anchor="middle" x="931.086" y="-164.5" font-family="Helvetica,sans-Serif" font-size="10.00">CountType_</text>
</g>
<!-- Node3&#45;&gt;Node2 -->
<g id="edge2" class="edge"><title>Node3&#45;&gt;Node2</title>
<path fill="none" stroke="#9a32cd" stroke-dasharray="5,2" d="M976.247,-157.956C1013.1,-149.993 1066.13,-138.532 1107.81,-129.525"/>
<polygon fill="#9a32cd" stroke="#9a32cd" points="975.341,-154.571 966.306,-160.105 976.82,-161.414 975.341,-154.571"/>
<text text-anchor="middle" x="1048.85" y="-147.5" font-family="Helvetica,sans-Serif" font-size="10.00"> off_chart</text>
</g>
<!-- Node4 -->
<g id="node4" class="node"><title>Node4</title>
<g id="a_node4"><a xlink:href="struct_tomographer_1_1_uniform_bins_histogram_1_1_params.html" target="_top" xlink:title="The parameters of a UniformBinsHistogram. ">
<polygon fill="none" stroke="black" points="852.078,-101.5 852.078,-139.5 1010.09,-139.5 1010.09,-101.5 852.078,-101.5"/>
<text text-anchor="start" x="860.078" y="-127.5" font-family="Helvetica,sans-Serif" font-size="10.00">Tomographer::UniformBins</text>
<text text-anchor="start" x="860.078" y="-117.5" font-family="Helvetica,sans-Serif" font-size="10.00">Histogram&lt; Scalar_, CountType</text>
<text text-anchor="middle" x="931.086" y="-107.5" font-family="Helvetica,sans-Serif" font-size="10.00">_ &gt;::Params</text>
</a>
</g>
</g>
<!-- Node4&#45;&gt;Node2 -->
<g id="edge3" class="edge"><title>Node4&#45;&gt;Node2</title>
<path fill="none" stroke="#9a32cd" stroke-dasharray="5,2" d="M1020.48,-118.663C1042.36,-118.208 1065.77,-117.722 1087.5,-117.271"/>
<polygon fill="#9a32cd" stroke="#9a32cd" points="1020.13,-115.17 1010.21,-118.877 1020.28,-122.168 1020.13,-115.17"/>
<text text-anchor="middle" x="1048.85" y="-120.5" font-family="Helvetica,sans-Serif" font-size="10.00"> params</text>
</g>
<!-- Node5 -->
<g id="node5" class="node"><title>Node5</title>
<g id="a_node5"><a doxygen="/Users/philippe/Documents/ETH/PhD/projects/qtomo/tomographer/doc/cppreference-doxygen-web.tag.xml:http://en.cppreference.com/w//" xlink:href="http://en.cppreference.com/w/cpp/types/size_t.html" target="_top" xlink:title="std::size_t">
<polygon fill="none" stroke="black" points="630.256,-111.5 630.256,-129.5 691.276,-129.5 691.276,-111.5 630.256,-111.5"/>
<text text-anchor="middle" x="660.766" y="-117.5" font-family="Helvetica,sans-Serif" font-size="10.00">std::size_t</text>
</a>
</g>
</g>
<!-- Node5&#45;&gt;Node4 -->
<g id="edge4" class="edge"><title>Node5&#45;&gt;Node4</title>
<path fill="none" stroke="#9a32cd" stroke-dasharray="5,2" d="M701.537,-120.5C741.022,-120.5 802.615,-120.5 851.915,-120.5"/>
<polygon fill="#9a32cd" stroke="#9a32cd" points="701.506,-117 691.506,-120.5 701.506,-124 701.506,-117"/>
<text text-anchor="middle" x="788.629" y="-122.5" font-family="Helvetica,sans-Serif" font-size="10.00"> num_bins</text>
</g>
<!-- Node6 -->
<g id="node6" class="node"><title>Node6</title>
<g id="a_node6"><a doxygen="/Users/philippe/Documents/ETH/PhD/projects/qtomo/tomographer/doc/Eigen.doxytags:http://eigen.tuxfamily.org/dox//" xlink:href="http://eigen.tuxfamily.org/dox/classEigen_1_1Array.html" target="_top" xlink:title="Eigen::Array\&lt; CountType,\l Eigen::Dynamic, 1 \&gt;">
<polygon fill="none" stroke="black" points="865.691,-54.5 865.691,-82.5 996.481,-82.5 996.481,-54.5 865.691,-54.5"/>
<text text-anchor="start" x="873.691" y="-70.5" font-family="Helvetica,sans-Serif" font-size="10.00">Eigen::Array&lt; CountType,</text>
<text text-anchor="middle" x="931.086" y="-60.5" font-family="Helvetica,sans-Serif" font-size="10.00"> Eigen::Dynamic, 1 &gt;</text>
</a>
</g>
</g>
<!-- Node6&#45;&gt;Node1 -->
<g id="edge11" class="edge"><title>Node6&#45;&gt;Node1</title>
<path fill="none" stroke="#9a32cd" stroke-dasharray="5,2" d="M1006.85,-70.5806C1088.52,-72.8536 1218.13,-76.4607 1296.5,-78.6418"/>
<polygon fill="#9a32cd" stroke="#9a32cd" points="1006.73,-67.0762 996.639,-70.2965 1006.54,-74.0735 1006.73,-67.0762"/>
<text text-anchor="middle" x="1173.71" y="-80.5" font-family="Helvetica,sans-Serif" font-size="10.00"> delta</text>
</g>
<!-- Node6&#45;&gt;Node2 -->
<g id="edge5" class="edge"><title>Node6&#45;&gt;Node2</title>
<path fill="none" stroke="#9a32cd" stroke-dasharray="5,2" d="M1006.56,-83.0477C1036.59,-88.9116 1071.08,-95.65 1100.84,-101.462"/>
<polygon fill="#9a32cd" stroke="#9a32cd" points="1007.05,-79.5772 996.568,-81.0951 1005.71,-86.4474 1007.05,-79.5772"/>
<text text-anchor="middle" x="1048.85" y="-97.5" font-family="Helvetica,sans-Serif" font-size="10.00"> bins</text>
</g>
<!-- Node7 -->
<g id="node7" class="node"><title>Node7</title>
<g id="a_node7"><a doxygen="/Users/philippe/Documents/ETH/PhD/projects/qtomo/tomographer/doc/Eigen.doxytags:http://eigen.tuxfamily.org/dox//" xlink:href="http://eigen.tuxfamily.org/dox/classEigen_1_1PlainObjectBase.html" target="_top" xlink:title="Eigen::PlainObjectBase\l\&lt; Array\&lt; CountType, Eigen\l::Dynamic, 1, _Options, \l_MaxRows, _MaxCols \&gt; \&gt;">
<polygon fill="none" stroke="black" points="442.27,-52.5 442.27,-100.5 578.353,-100.5 578.353,-52.5 442.27,-52.5"/>
<text text-anchor="start" x="450.27" y="-88.5" font-family="Helvetica,sans-Serif" font-size="10.00">Eigen::PlainObjectBase</text>
<text text-anchor="start" x="450.27" y="-78.5" font-family="Helvetica,sans-Serif" font-size="10.00">&lt; Array&lt; CountType, Eigen</text>
<text text-anchor="start" x="450.27" y="-68.5" font-family="Helvetica,sans-Serif" font-size="10.00">::Dynamic, 1, _Options, </text>
<text text-anchor="middle" x="510.311" y="-58.5" font-family="Helvetica,sans-Serif" font-size="10.00">_MaxRows, _MaxCols &gt; &gt;</text>
</a>
</g>
</g>
<!-- Node7&#45;&gt;Node6 -->
<g id="edge6" class="edge"><title>Node7&#45;&gt;Node6</title>
<path fill="none" stroke="midnightblue" d="M589.047,-75.015C668.627,-73.4947 790.897,-71.159 865.379,-69.7361"/>
<polygon fill="midnightblue" stroke="midnightblue" points="588.526,-71.5242 578.595,-75.2147 588.66,-78.5229 588.526,-71.5242"/>
</g>
<!-- Node8 -->
<g id="node8" class="node"><title>Node8</title>
<g id="a_node8"><a doxygen="/Users/philippe/Documents/ETH/PhD/projects/qtomo/tomographer/doc/Eigen.doxytags:http://eigen.tuxfamily.org/dox//" xlink:href="http://eigen.tuxfamily.org/dox/classEigen_1_1PlainObjectBase.html" target="_top" xlink:title="Eigen::PlainObjectBase\l\&lt; Derived \&gt;">
<polygon fill="none" stroke="black" points="0,-36.5 0,-64.5 121.063,-64.5 121.063,-36.5 0,-36.5"/>
<text text-anchor="start" x="8" y="-52.5" font-family="Helvetica,sans-Serif" font-size="10.00">Eigen::PlainObjectBase</text>
<text text-anchor="middle" x="60.5317" y="-42.5" font-family="Helvetica,sans-Serif" font-size="10.00">&lt; Derived &gt;</text>
</a>
</g>
</g>
<!-- Node8&#45;&gt;Node7 -->
<g id="edge7" class="edge"><title>Node8&#45;&gt;Node7</title>
<path fill="none" stroke="orange" stroke-dasharray="5,2" d="M131.346,-55.0277C133.951,-55.1886 136.531,-55.3465 139.063,-55.5 244.939,-61.9164 367.884,-68.7716 442.078,-72.8434"/>
<polygon fill="orange" stroke="orange" points="131.411,-51.525 121.212,-54.3955 130.975,-58.5114 131.411,-51.525"/>
<text text-anchor="start" x="148.509" y="-94.5" font-family="Helvetica,sans-Serif" font-size="10.00"> &lt; Array&lt; CountType,</text>
<text text-anchor="start" x="148.509" y="-84.5" font-family="Helvetica,sans-Serif" font-size="10.00"> Eigen::Dynamic, 1,</text>
<text text-anchor="start" x="148.509" y="-74.5" font-family="Helvetica,sans-Serif" font-size="10.00"> _Options, _MaxRows,</text>
<text text-anchor="middle" x="198.807" y="-64.5" font-family="Helvetica,sans-Serif" font-size="10.00"> _MaxCols &gt; &gt;</text>
</g>
<!-- Node10 -->
<g id="node10" class="node"><title>Node10</title>
<g id="a_node10"><a doxygen="/Users/philippe/Documents/ETH/PhD/projects/qtomo/tomographer/doc/Eigen.doxytags:http://eigen.tuxfamily.org/dox//" xlink:href="http://eigen.tuxfamily.org/dox/classEigen_1_1PlainObjectBase.html" target="_top" xlink:title="Eigen::PlainObjectBase\l\&lt; Array\&lt; _Scalar, _Rows,\l _Cols, _Options, _MaxRows,\l _MaxCols \&gt; \&gt;">
<polygon fill="none" stroke="black" points="276.551,-0.5 276.551,-48.5 424.27,-48.5 424.27,-0.5 276.551,-0.5"/>
<text text-anchor="start" x="284.551" y="-36.5" font-family="Helvetica,sans-Serif" font-size="10.00">Eigen::PlainObjectBase</text>
<text text-anchor="start" x="284.551" y="-26.5" font-family="Helvetica,sans-Serif" font-size="10.00">&lt; Array&lt; _Scalar, _Rows,</text>
<text text-anchor="start" x="284.551" y="-16.5" font-family="Helvetica,sans-Serif" font-size="10.00"> _Cols, _Options, _MaxRows,</text>
<text text-anchor="middle" x="350.41" y="-6.5" font-family="Helvetica,sans-Serif" font-size="10.00"> _MaxCols &gt; &gt;</text>
</a>
</g>
</g>
<!-- Node8&#45;&gt;Node10 -->
<g id="edge10" class="edge"><title>Node8&#45;&gt;Node10</title>
<path fill="none" stroke="orange" stroke-dasharray="5,2" d="M106.969,-33.2876C117.368,-30.0701 128.48,-27.1899 139.063,-25.5 184.321,-18.2734 235.758,-17.892 276.438,-19.3809"/>
<polygon fill="orange" stroke="orange" points="105.683,-30.0254 97.2566,-36.4481 107.849,-36.6818 105.683,-30.0254"/>
<text text-anchor="start" x="139.063" y="-47.5" font-family="Helvetica,sans-Serif" font-size="10.00"> &lt; Array&lt; _Scalar, </text>
<text text-anchor="start" x="139.063" y="-37.5" font-family="Helvetica,sans-Serif" font-size="10.00">_Rows, _Cols, _Options,</text>
<text text-anchor="middle" x="198.807" y="-27.5" font-family="Helvetica,sans-Serif" font-size="10.00"> _MaxRows, _MaxCols &gt; &gt;</text>
</g>
<!-- Node9 -->
<g id="node9" class="node"><title>Node9</title>
<g id="a_node9"><a doxygen="/Users/philippe/Documents/ETH/PhD/projects/qtomo/tomographer/doc/Eigen.doxytags:http://eigen.tuxfamily.org/dox//" xlink:href="http://eigen.tuxfamily.org/dox/classEigen_1_1Array.html" target="_top" xlink:title="Eigen::Array\&lt; _Scalar,\l _Rows, _Cols, _Options,\l _MaxRows, _MaxCols \&gt;">
<polygon fill="none" stroke="black" points="596.353,-6.5 596.353,-44.5 725.18,-44.5 725.18,-6.5 596.353,-6.5"/>
<text text-anchor="start" x="604.353" y="-32.5" font-family="Helvetica,sans-Serif" font-size="10.00">Eigen::Array&lt; _Scalar,</text>
<text text-anchor="start" x="604.353" y="-22.5" font-family="Helvetica,sans-Serif" font-size="10.00"> _Rows, _Cols, _Options,</text>
<text text-anchor="middle" x="660.766" y="-12.5" font-family="Helvetica,sans-Serif" font-size="10.00"> _MaxRows, _MaxCols &gt;</text>
</a>
</g>
</g>
<!-- Node9&#45;&gt;Node6 -->
<g id="edge8" class="edge"><title>Node9&#45;&gt;Node6</title>
<path fill="none" stroke="orange" stroke-dasharray="5,2" d="M735.739,-29.41C766.349,-31.7931 802.097,-35.5691 834.078,-41.5 851.443,-44.7203 870.212,-49.6608 886.509,-54.4394"/>
<polygon fill="orange" stroke="orange" points="735.8,-25.905 725.569,-28.6542 735.282,-32.8858 735.8,-25.905"/>
<text text-anchor="start" x="743.18" y="-53.5" font-family="Helvetica,sans-Serif" font-size="10.00"> &lt; CountType, Eigen</text>
<text text-anchor="middle" x="788.629" y="-43.5" font-family="Helvetica,sans-Serif" font-size="10.00">::Dynamic, 1 &gt;</text>
</g>
<!-- Node10&#45;&gt;Node9 -->
<g id="edge9" class="edge"><title>Node10&#45;&gt;Node9</title>
<path fill="none" stroke="midnightblue" d="M434.8,-24.7704C485.655,-24.9354 549.633,-25.1428 596.349,-25.2943"/>
<polygon fill="midnightblue" stroke="midnightblue" points="434.498,-21.2695 424.486,-24.737 434.475,-28.2695 434.498,-21.2695"/>
</g>
</g>
</svg>
