<?xml version="1.0" encoding="UTF-8" standalone="no"?>
<!DOCTYPE svg PUBLIC "-//W3C//DTD SVG 1.1//EN"
 "http://www.w3.org/Graphics/SVG/1.1/DTD/svg11.dtd">
<!-- Generated by graphviz version 2.38.0 (20140413.2041)
 -->
<!-- Title: Tomographer::MHRWTasks::MHRandomWalkTask&lt; MHRandomWalkTaskCData, Rng &gt;::StatusReport Pages: 1 -->
<svg width="191pt" height="319pt"
 viewBox="0.00 0.00 191.20 319.00" xmlns="http://www.w3.org/2000/svg" xmlns:xlink="http://www.w3.org/1999/xlink">
<g id="graph0" class="graph" transform="scale(1 1) rotate(0) translate(4 315)">
<title>Tomographer::MHRWTasks::MHRandomWalkTask&lt; MHRandomWalkTaskCData, Rng &gt;::StatusReport</title>
<!-- Node1 -->
<g id="node1" class="node"><title>Node1</title>
<polygon fill="#bfbfbf" stroke="black" points="0,-0.5 0,-38.5 183.202,-38.5 183.202,-0.5 0,-0.5"/>
<text text-anchor="start" x="8" y="-26.5" font-family="Helvetica,sans-Serif" font-size="10.00">Tomographer::MHRWTasks</text>
<text text-anchor="start" x="8" y="-16.5" font-family="Helvetica,sans-Serif" font-size="10.00">::MHRandomWalkTask&lt; MHRandom</text>
<text text-anchor="middle" x="91.6011" y="-6.5" font-family="Helvetica,sans-Serif" font-size="10.00">WalkTaskCData, Rng &gt;::StatusReport</text>
</g>
<!-- Node2 -->
<g id="node2" class="node"><title>Node2</title>
<g id="a_node2"><a xlink:href="struct_tomographer_1_1_multi_proc_1_1_status_report.html" target="_top" xlink:title="Basic status report class. ">
<polygon fill="none" stroke="black" points="30.5249,-76.5 30.5249,-104.5 152.677,-104.5 152.677,-76.5 30.5249,-76.5"/>
<text text-anchor="start" x="38.5249" y="-92.5" font-family="Helvetica,sans-Serif" font-size="10.00">Tomographer::MultiProc</text>
<text text-anchor="middle" x="91.6011" y="-82.5" font-family="Helvetica,sans-Serif" font-size="10.00">::StatusReport</text>
</a>
</g>
</g>
<!-- Node2&#45;&gt;Node1 -->
<g id="edge1" class="edge"><title>Node2&#45;&gt;Node1</title>
<path fill="none" stroke="midnightblue" d="M91.6011,-66.0412C91.6011,-57.1158 91.6011,-47.0882 91.6011,-38.7192"/>
<polygon fill="midnightblue" stroke="midnightblue" points="88.1012,-66.1961 91.6011,-76.1961 95.1012,-66.1961 88.1012,-66.1961"/>
</g>
<!-- Node3 -->
<g id="node3" class="node"><title>Node3</title>
<g id="a_node3"><a doxygen="/Users/philippe/Documents/ETH/PhD/projects/qtomo/tomographer/doc/cppreference-doxygen-web.tag.xml:http://en.cppreference.com/w//" xlink:href="http://en.cppreference.com/w/cpp/string/basic_string.html" target="_top" xlink:title="STL class. ">
<polygon fill="none" stroke="black" points="61.9263,-151.5 61.9263,-169.5 121.276,-169.5 121.276,-151.5 61.9263,-151.5"/>
<text text-anchor="middle" x="91.6011" y="-157.5" font-family="Helvetica,sans-Serif" font-size="10.00">std::string</text>
</a>
</g>
</g>
<!-- Node3&#45;&gt;Node2 -->
<g id="edge2" class="edge"><title>Node3&#45;&gt;Node2</title>
<path fill="none" stroke="#9a32cd" stroke-dasharray="5,2" d="M91.6011,-141.209C91.6011,-129.686 91.6011,-115.078 91.6011,-104.687"/>
<polygon fill="#9a32cd" stroke="#9a32cd" points="88.1012,-141.432 91.6011,-151.432 95.1012,-141.433 88.1012,-141.432"/>
<text text-anchor="middle" x="102.436" y="-125" font-family="Helvetica,sans-Serif" font-size="10.00"> msg</text>
</g>
<!-- Node4 -->
<g id="node4" class="node"><title>Node4</title>
<g id="a_node4"><a doxygen="/Users/philippe/Documents/ETH/PhD/projects/qtomo/tomographer/doc/cppreference-doxygen-web.tag.xml:http://en.cppreference.com/w//" xlink:href="http://en.cppreference.com/w/cpp/string/basic_string.html" target="_top" xlink:title="std::basic_string\&lt;\l char \&gt;">
<polygon fill="none" stroke="black" points="44.5532,-207.5 44.5532,-235.5 138.649,-235.5 138.649,-207.5 44.5532,-207.5"/>
<text text-anchor="start" x="52.5532" y="-223.5" font-family="Helvetica,sans-Serif" font-size="10.00">std::basic_string&lt;</text>
<text text-anchor="middle" x="91.6011" y="-213.5" font-family="Helvetica,sans-Serif" font-size="10.00"> char &gt;</text>
</a>
</g>
</g>
<!-- Node4&#45;&gt;Node3 -->
<g id="edge3" class="edge"><title>Node4&#45;&gt;Node3</title>
<path fill="none" stroke="midnightblue" d="M91.6011,-197.386C91.6011,-187.594 91.6011,-176.816 91.6011,-169.653"/>
<polygon fill="midnightblue" stroke="midnightblue" points="88.1012,-197.406 91.6011,-207.406 95.1012,-197.406 88.1012,-197.406"/>
</g>
<!-- Node5 -->
<g id="node5" class="node"><title>Node5</title>
<g id="a_node5"><a doxygen="/Users/philippe/Documents/ETH/PhD/projects/qtomo/tomographer/doc/cppreference-doxygen-web.tag.xml:http://en.cppreference.com/w//" xlink:href="http://en.cppreference.com/w/cpp/string/basic_string.html" target="_top" xlink:title="STL class. ">
<polygon fill="none" stroke="black" points="44.5532,-282.5 44.5532,-310.5 138.649,-310.5 138.649,-282.5 44.5532,-282.5"/>
<text text-anchor="start" x="52.5532" y="-298.5" font-family="Helvetica,sans-Serif" font-size="10.00">std::basic_string&lt;</text>
<text text-anchor="middle" x="91.6011" y="-288.5" font-family="Helvetica,sans-Serif" font-size="10.00"> Char &gt;</text>
</a>
</g>
</g>
<!-- Node5&#45;&gt;Node4 -->
<g id="edge4" class="edge"><title>Node5&#45;&gt;Node4</title>
<path fill="none" stroke="orange" stroke-dasharray="5,2" d="M91.6011,-272.245C91.6011,-260.265 91.6011,-246.082 91.6011,-235.932"/>
<polygon fill="orange" stroke="orange" points="88.1012,-272.449 91.6011,-282.449 95.1012,-272.449 88.1012,-272.449"/>
<text text-anchor="middle" x="111.335" y="-256" font-family="Helvetica,sans-Serif" font-size="10.00"> &lt; char &gt;</text>
</g>
</g>
</svg>
