<?xml version="1.0" encoding="UTF-8" standalone="no"?>
<!DOCTYPE svg PUBLIC "-//W3C//DTD SVG 1.1//EN"
 "http://www.w3.org/Graphics/SVG/1.1/DTD/svg11.dtd">
<!-- Generated by graphviz version 2.38.0 (20140413.2041)
 -->
<!-- Title: Tomographer::MAT::VarShape Pages: 1 -->
<svg width="157pt" height="278pt"
 viewBox="0.00 0.00 157.04 278.00" xmlns="http://www.w3.org/2000/svg" xmlns:xlink="http://www.w3.org/1999/xlink">
<g id="graph0" class="graph" transform="scale(1 1) rotate(0) translate(4 274)">
<title>Tomographer::MAT::VarShape</title>
<!-- Node1 -->
<g id="node1" class="node"><title>Node1</title>
<polygon fill="#bfbfbf" stroke="black" points="0,-0.5 0,-18.5 149.037,-18.5 149.037,-0.5 0,-0.5"/>
<text text-anchor="middle" x="74.5186" y="-6.5" font-family="Helvetica,sans-Serif" font-size="10.00">Tomographer::MAT::VarShape</text>
</g>
<!-- Node2 -->
<g id="node2" class="node"><title>Node2</title>
<g id="a_node2"><a xlink:href="class_tomographer_1_1_m_a_t_1_1_dim_list.html" target="_top" xlink:title="An array of ints which specifies a list of dimensions. ">
<polygon fill="none" stroke="black" points="5.20264,-65.5 5.20264,-83.5 143.834,-83.5 143.834,-65.5 5.20264,-65.5"/>
<text text-anchor="middle" x="74.5186" y="-71.5" font-family="Helvetica,sans-Serif" font-size="10.00">Tomographer::MAT::DimList</text>
</a>
</g>
</g>
<!-- Node2&#45;&gt;Node1 -->
<g id="edge1" class="edge"><title>Node2&#45;&gt;Node1</title>
<path fill="none" stroke="#9a32cd" stroke-dasharray="5,2" d="M74.5186,-54.9075C74.5186,-42.8146 74.5186,-27.6529 74.5186,-18.539"/>
<polygon fill="#9a32cd" stroke="#9a32cd" points="71.0187,-55.2638 74.5186,-65.2639 78.0187,-55.2639 71.0187,-55.2638"/>
<text text-anchor="middle" x="86.4644" y="-39" font-family="Helvetica,sans-Serif" font-size="10.00"> dims</text>
</g>
<!-- Node3 -->
<g id="node3" class="node"><title>Node3</title>
<g id="a_node3"><a doxygen="/Users/philippe/Documents/ETH/PhD/projects/qtomo/tomographer/doc/cppreference-doxygen-web.tag.xml:http://en.cppreference.com/w//" xlink:href="http://en.cppreference.com/w/cpp/container/vector.html" target="_top" xlink:title="std::vector\&lt; int \&gt;">
<polygon fill="none" stroke="black" points="29.5557,-121.5 29.5557,-139.5 119.481,-139.5 119.481,-121.5 29.5557,-121.5"/>
<text text-anchor="middle" x="74.5186" y="-127.5" font-family="Helvetica,sans-Serif" font-size="10.00">std::vector&lt; int &gt;</text>
</a>
</g>
</g>
<!-- Node3&#45;&gt;Node2 -->
<g id="edge2" class="edge"><title>Node3&#45;&gt;Node2</title>
<path fill="none" stroke="midnightblue" d="M74.5186,-110.829C74.5186,-101.577 74.5186,-90.8798 74.5186,-83.7014"/>
<polygon fill="midnightblue" stroke="midnightblue" points="71.0187,-111.062 74.5186,-121.062 78.0187,-111.063 71.0187,-111.062"/>
</g>
<!-- Node4 -->
<g id="node4" class="node"><title>Node4</title>
<g id="a_node4"><a doxygen="/Users/philippe/Documents/ETH/PhD/projects/qtomo/tomographer/doc/cppreference-doxygen-web.tag.xml:http://en.cppreference.com/w//" xlink:href="http://en.cppreference.com/w/cpp/container/vector.html" target="_top" xlink:title="STL class. ">
<polygon fill="none" stroke="black" points="31.958,-186.5 31.958,-204.5 117.079,-204.5 117.079,-186.5 31.958,-186.5"/>
<text text-anchor="middle" x="74.5186" y="-192.5" font-family="Helvetica,sans-Serif" font-size="10.00">std::vector&lt; T &gt;</text>
</a>
</g>
</g>
<!-- Node4&#45;&gt;Node3 -->
<g id="edge3" class="edge"><title>Node4&#45;&gt;Node3</title>
<path fill="none" stroke="orange" stroke-dasharray="5,2" d="M74.5186,-175.907C74.5186,-163.815 74.5186,-148.653 74.5186,-139.539"/>
<polygon fill="orange" stroke="orange" points="71.0187,-176.264 74.5186,-186.264 78.0187,-176.264 71.0187,-176.264"/>
<text text-anchor="middle" x="89.8066" y="-160" font-family="Helvetica,sans-Serif" font-size="10.00"> &lt; int &gt;</text>
</g>
<!-- Node5 -->
<g id="node5" class="node"><title>Node5</title>
<polygon fill="none" stroke="#bfbfbf" points="60.0186,-251.5 60.0186,-269.5 89.0186,-269.5 89.0186,-251.5 60.0186,-251.5"/>
<text text-anchor="middle" x="74.0728" y="-257.5" font-family="Helvetica,sans-Serif" font-size="10.00">T</text>
</g>
<!-- Node5&#45;&gt;Node4 -->
<g id="edge4" class="edge"><title>Node5&#45;&gt;Node4</title>
<path fill="none" stroke="#9a32cd" stroke-dasharray="5,2" d="M74.5186,-240.907C74.5186,-228.815 74.5186,-213.653 74.5186,-204.539"/>
<polygon fill="#9a32cd" stroke="#9a32cd" points="71.0187,-241.264 74.5186,-251.264 78.0187,-241.264 71.0187,-241.264"/>
<text text-anchor="middle" x="96.1958" y="-225" font-family="Helvetica,sans-Serif" font-size="10.00"> elements</text>
</g>
</g>
</svg>
