<?xml version="1.0" encoding="UTF-8" standalone="no"?>
<!DOCTYPE svg PUBLIC "-//W3C//DTD SVG 1.1//EN"
 "http://www.w3.org/Graphics/SVG/1.1/DTD/svg11.dtd">
<!-- Generated by graphviz version 2.38.0 (20140413.2041)
 -->
<!-- Title: Tomographer::Logger::LocalLogger&lt; BaseLoggerType_ &gt; Pages: 1 -->
<svg width="952pt" height="84pt"
 viewBox="0.00 0.00 952.42 84.00" xmlns="http://www.w3.org/2000/svg" xmlns:xlink="http://www.w3.org/1999/xlink">
<g id="graph0" class="graph" transform="scale(1 1) rotate(0) translate(4 80)">
<title>Tomographer::Logger::LocalLogger&lt; BaseLoggerType_ &gt;</title>
<!-- Node0 -->
<g id="node1" class="node"><title>Node0</title>
<polygon fill="#bfbfbf" stroke="black" points="468.32,-23.5 468.32,-51.5 643.334,-51.5 643.334,-23.5 468.32,-23.5"/>
<text text-anchor="start" x="476.32" y="-39.5" font-family="Helvetica,sans-Serif" font-size="10.00">Tomographer::Logger</text>
<text text-anchor="middle" x="555.827" y="-29.5" font-family="Helvetica,sans-Serif" font-size="10.00">::LocalLogger&lt; BaseLoggerType_ &gt;</text>
</g>
<!-- Node3 -->
<g id="node4" class="node"><title>Node3</title>
<g id="a_node4"><a xlink:href="class_tomographer_1_1_logger_1_1_local_logger.html" target="_top" xlink:title="Tomographer::Logger\l::LocalLogger\&lt; LoggerType \&gt;">
<polygon fill="none" stroke="black" points="786.36,-47.5 786.36,-75.5 933.02,-75.5 933.02,-47.5 786.36,-47.5"/>
<text text-anchor="start" x="794.36" y="-63.5" font-family="Helvetica,sans-Serif" font-size="10.00">Tomographer::Logger</text>
<text text-anchor="middle" x="859.69" y="-53.5" font-family="Helvetica,sans-Serif" font-size="10.00">::LocalLogger&lt; LoggerType &gt;</text>
</a>
</g>
</g>
<!-- Node0&#45;&gt;Node3 -->
<g id="edge3" class="edge"><title>Node0&#45;&gt;Node3</title>
<path fill="none" stroke="orange" stroke-dasharray="5,2" d="M653.924,-45.2198C696.866,-48.634 746.5,-52.5802 786.146,-55.7323"/>
<polygon fill="orange" stroke="orange" points="653.979,-41.7133 643.733,-44.4096 653.425,-48.6912 653.979,-41.7133"/>
<text text-anchor="middle" x="709.149" y="-54.5" font-family="Helvetica,sans-Serif" font-size="10.00"> &lt; LoggerType &gt;</text>
</g>
<!-- Node4 -->
<g id="node5" class="node"><title>Node4</title>
<g id="a_node5"><a xlink:href="class_tomographer_1_1_logger_1_1_local_logger.html" target="_top" xlink:title="Tomographer::Logger\l::LocalLogger\&lt; BaseLoggerType \&gt;">
<polygon fill="none" stroke="black" points="774.964,-0.5 774.964,-28.5 944.416,-28.5 944.416,-0.5 774.964,-0.5"/>
<text text-anchor="start" x="782.964" y="-16.5" font-family="Helvetica,sans-Serif" font-size="10.00">Tomographer::Logger</text>
<text text-anchor="middle" x="859.69" y="-6.5" font-family="Helvetica,sans-Serif" font-size="10.00">::LocalLogger&lt; BaseLoggerType &gt;</text>
</a>
</g>
</g>
<!-- Node0&#45;&gt;Node4 -->
<g id="edge4" class="edge"><title>Node0&#45;&gt;Node4</title>
<path fill="none" stroke="orange" stroke-dasharray="5,2" d="M653.621,-30.0886C656.219,-29.8902 658.794,-29.6938 661.334,-29.5 698.509,-26.6644 739.623,-23.538 774.66,-20.8766"/>
<polygon fill="orange" stroke="orange" points="653.212,-26.6095 643.508,-30.861 653.745,-33.5892 653.212,-26.6095"/>
<text text-anchor="middle" x="709.149" y="-31.5" font-family="Helvetica,sans-Serif" font-size="10.00"> &lt; BaseLoggerType &gt;</text>
</g>
<!-- Node1 -->
<g id="node2" class="node"><title>Node1</title>
<g id="a_node2"><a xlink:href="class_tomographer_1_1_logger_1_1_logger_base.html" target="_top" xlink:title="Tomographer::Logger\l::LoggerBase\&lt; LocalLogger\l\&lt; BaseLoggerType_ \&gt; \&gt;">
<polygon fill="none" stroke="black" points="292.171,-18.5 292.171,-56.5 431.32,-56.5 431.32,-18.5 292.171,-18.5"/>
<text text-anchor="start" x="300.171" y="-44.5" font-family="Helvetica,sans-Serif" font-size="10.00">Tomographer::Logger</text>
<text text-anchor="start" x="300.171" y="-34.5" font-family="Helvetica,sans-Serif" font-size="10.00">::LoggerBase&lt; LocalLogger</text>
<text text-anchor="middle" x="361.746" y="-24.5" font-family="Helvetica,sans-Serif" font-size="10.00">&lt; BaseLoggerType_ &gt; &gt;</text>
</a>
</g>
</g>
<!-- Node1&#45;&gt;Node0 -->
<g id="edge1" class="edge"><title>Node1&#45;&gt;Node0</title>
<path fill="none" stroke="midnightblue" d="M441.665,-37.5C450.374,-37.5 459.276,-37.5 468.074,-37.5"/>
<polygon fill="midnightblue" stroke="midnightblue" points="441.549,-34.0001 431.549,-37.5 441.549,-41.0001 441.549,-34.0001"/>
</g>
<!-- Node2 -->
<g id="node3" class="node"><title>Node2</title>
<g id="a_node3"><a xlink:href="class_tomographer_1_1_logger_1_1_logger_base.html" target="_top" xlink:title="Base logger class. ">
<polygon fill="none" stroke="black" points="0,-23.5 0,-51.5 127.182,-51.5 127.182,-23.5 0,-23.5"/>
<text text-anchor="start" x="8" y="-39.5" font-family="Helvetica,sans-Serif" font-size="10.00">Tomographer::Logger</text>
<text text-anchor="middle" x="63.5908" y="-29.5" font-family="Helvetica,sans-Serif" font-size="10.00">::LoggerBase&lt; Derived &gt;</text>
</a>
</g>
</g>
<!-- Node2&#45;&gt;Node1 -->
<g id="edge2" class="edge"><title>Node2&#45;&gt;Node1</title>
<path fill="none" stroke="orange" stroke-dasharray="5,2" d="M137.55,-37.5C184.739,-37.5 245.773,-37.5 292.086,-37.5"/>
<polygon fill="orange" stroke="orange" points="137.398,-34.0001 127.398,-37.5 137.398,-41.0001 137.398,-34.0001"/>
<text text-anchor="start" x="145.182" y="-49.5" font-family="Helvetica,sans-Serif" font-size="10.00"> &lt; LocalLogger&lt; BaseLogger</text>
<text text-anchor="middle" x="209.676" y="-39.5" font-family="Helvetica,sans-Serif" font-size="10.00">Type_ &gt; &gt;</text>
</g>
</g>
</svg>
