<?xml version="1.0" encoding="UTF-8" standalone="no"?>
<!DOCTYPE svg PUBLIC "-//W3C//DTD SVG 1.1//EN"
 "http://www.w3.org/Graphics/SVG/1.1/DTD/svg11.dtd">
<!-- Generated by graphviz version 2.38.0 (20140413.2041)
 -->
<!-- Title: tomographer/densedm/dmtypes.h Pages: 1 -->
<svg width="1025pt" height="202pt"
 viewBox="0.00 0.00 1025.09 202.00" xmlns="http://www.w3.org/2000/svg" xmlns:xlink="http://www.w3.org/1999/xlink">
<g id="graph0" class="graph" transform="scale(1 1) rotate(0) translate(4 198)">
<title>tomographer/densedm/dmtypes.h</title>
<!-- Node0 -->
<g id="node1" class="node"><title>Node0</title>
<polygon fill="#bfbfbf" stroke="black" points="632.813,-165.5 632.813,-193.5 749.428,-193.5 749.428,-165.5 632.813,-165.5"/>
<text text-anchor="start" x="640.813" y="-181.5" font-family="Helvetica,sans-Serif" font-size="10.00">tomographer/densedm</text>
<text text-anchor="middle" x="691.121" y="-171.5" font-family="Helvetica,sans-Serif" font-size="10.00">/dmtypes.h</text>
</g>
<!-- Node1 -->
<g id="node2" class="node"><title>Node1</title>
<polygon fill="none" stroke="#bfbfbf" points="0,-0.5 0,-18.5 48.2412,-18.5 48.2412,-0.5 0,-0.5"/>
<text text-anchor="middle" x="24.1206" y="-6.5" font-family="Helvetica,sans-Serif" font-size="10.00">cstddef</text>
</g>
<!-- Node0&#45;&gt;Node1 -->
<g id="edge1" class="edge"><title>Node0&#45;&gt;Node1</title>
<path fill="none" stroke="midnightblue" d="M632.607,-178.32C485.649,-176.527 107.07,-163.166 27.1206,-74 16.3072,-61.94 16.9065,-42.8371 19.3867,-28.7306"/>
<polygon fill="midnightblue" stroke="midnightblue" points="22.8589,-29.238 21.597,-18.7186 16.0235,-27.729 22.8589,-29.238"/>
</g>
<!-- Node2 -->
<g id="node3" class="node"><title>Node2</title>
<polygon fill="none" stroke="#bfbfbf" points="697.005,-0.5 697.005,-18.5 745.236,-18.5 745.236,-0.5 697.005,-0.5"/>
<text text-anchor="middle" x="721.121" y="-6.5" font-family="Helvetica,sans-Serif" font-size="10.00">cassert</text>
</g>
<!-- Node0&#45;&gt;Node2 -->
<g id="edge2" class="edge"><title>Node0&#45;&gt;Node2</title>
<path fill="none" stroke="midnightblue" d="M749.548,-167.004C799.209,-153.813 867.489,-126.798 900.121,-74 904.56,-66.8167 905.322,-61.6525 900.121,-55 882.517,-32.4847 802.436,-19.7327 755.563,-14.0753"/>
<polygon fill="midnightblue" stroke="midnightblue" points="755.876,-10.5882 745.539,-12.9122 755.069,-17.5415 755.876,-10.5882"/>
</g>
<!-- Node3 -->
<g id="node4" class="node"><title>Node3</title>
<polygon fill="none" stroke="#bfbfbf" points="947.155,-110.5 947.155,-128.5 1017.09,-128.5 1017.09,-110.5 947.155,-110.5"/>
<text text-anchor="middle" x="982.121" y="-116.5" font-family="Helvetica,sans-Serif" font-size="10.00">Eigen/Eigen</text>
</g>
<!-- Node0&#45;&gt;Node3 -->
<g id="edge3" class="edge"><title>Node0&#45;&gt;Node3</title>
<path fill="none" stroke="midnightblue" d="M749.659,-166.833C804.936,-155.815 886.663,-139.526 937.039,-129.485"/>
<polygon fill="midnightblue" stroke="midnightblue" points="937.862,-132.89 946.985,-127.503 936.494,-126.025 937.862,-132.89"/>
</g>
<!-- Node4 -->
<g id="node5" class="node"><title>Node4</title>
<g id="a_node5"><a xlink:href="cxxutil_8h.html" target="_top" xlink:title="Some C++ utilities, with a tad of C++11 tricks. ">
<polygon fill="none" stroke="black" points="396.37,-110.5 396.37,-128.5 531.872,-128.5 531.872,-110.5 396.37,-110.5"/>
<text text-anchor="middle" x="464.121" y="-116.5" font-family="Helvetica,sans-Serif" font-size="10.00">tomographer/tools/cxxutil.h</text>
</a>
</g>
</g>
<!-- Node0&#45;&gt;Node4 -->
<g id="edge4" class="edge"><title>Node0&#45;&gt;Node4</title>
<path fill="none" stroke="midnightblue" d="M640.177,-165.484C599.499,-155.09 543.231,-140.713 505.351,-131.035"/>
<polygon fill="midnightblue" stroke="midnightblue" points="506.216,-127.643 495.661,-128.559 504.483,-134.425 506.216,-127.643"/>
</g>
<!-- Node4&#45;&gt;Node1 -->
<g id="edge6" class="edge"><title>Node4&#45;&gt;Node1</title>
<path fill="none" stroke="midnightblue" d="M395.967,-115.395C283.72,-109.682 69.6679,-96.0306 43.1206,-74 29.9845,-63.0988 25.6924,-43.5092 24.4056,-28.9609"/>
<polygon fill="midnightblue" stroke="midnightblue" points="27.8853,-28.4558 23.9063,-18.6366 20.8935,-28.794 27.8853,-28.4558"/>
</g>
<!-- Node4&#45;&gt;Node2 -->
<g id="edge5" class="edge"><title>Node4&#45;&gt;Node2</title>
<path fill="none" stroke="midnightblue" d="M532.071,-113.609C593.362,-107.841 677.546,-96.1006 702.121,-74 714.678,-62.7067 719.082,-43.4914 720.554,-29.1494"/>
<polygon fill="midnightblue" stroke="midnightblue" points="724.061,-29.1392 721.205,-18.9366 717.076,-28.6934 724.061,-29.1392"/>
</g>
<!-- Node5 -->
<g id="node6" class="node"><title>Node5</title>
<polygon fill="none" stroke="#bfbfbf" points="189.948,-0.5 189.948,-18.5 234.293,-18.5 234.293,-0.5 189.948,-0.5"/>
<text text-anchor="middle" x="212.121" y="-6.5" font-family="Helvetica,sans-Serif" font-size="10.00">cstdlib</text>
</g>
<!-- Node4&#45;&gt;Node5 -->
<g id="edge7" class="edge"><title>Node4&#45;&gt;Node5</title>
<path fill="none" stroke="midnightblue" d="M396.093,-111.756C339.583,-104.94 264.76,-92.7162 241.121,-74 226.885,-62.7296 219.38,-42.9037 215.602,-28.3954"/>
<polygon fill="midnightblue" stroke="midnightblue" points="219.001,-27.5548 213.391,-18.5672 212.172,-29.0916 219.001,-27.5548"/>
</g>
<!-- Node6 -->
<g id="node7" class="node"><title>Node6</title>
<polygon fill="none" stroke="#bfbfbf" points="249.948,-55.5 249.948,-73.5 304.293,-73.5 304.293,-55.5 249.948,-55.5"/>
<text text-anchor="middle" x="277.121" y="-61.5" font-family="Helvetica,sans-Serif" font-size="10.00">iostream</text>
</g>
<!-- Node4&#45;&gt;Node6 -->
<g id="edge8" class="edge"><title>Node4&#45;&gt;Node6</title>
<path fill="none" stroke="midnightblue" d="M435.719,-110.45C403.358,-101.278 350.341,-86.2522 314.609,-76.1249"/>
<polygon fill="midnightblue" stroke="midnightblue" points="315.144,-72.6389 304.569,-73.2794 313.235,-79.3737 315.144,-72.6389"/>
</g>
<!-- Node7 -->
<g id="node8" class="node"><title>Node7</title>
<polygon fill="none" stroke="#bfbfbf" points="322.502,-55.5 322.502,-73.5 375.739,-73.5 375.739,-55.5 322.502,-55.5"/>
<text text-anchor="middle" x="349.121" y="-61.5" font-family="Helvetica,sans-Serif" font-size="10.00">complex</text>
</g>
<!-- Node4&#45;&gt;Node7 -->
<g id="edge9" class="edge"><title>Node4&#45;&gt;Node7</title>
<path fill="none" stroke="midnightblue" d="M446.655,-110.45C427.91,-101.812 397.899,-87.9803 376.112,-77.9396"/>
<polygon fill="midnightblue" stroke="midnightblue" points="377.298,-74.6323 366.751,-73.6253 374.368,-80.9896 377.298,-74.6323"/>
</g>
<!-- Node8 -->
<g id="node9" class="node"><title>Node8</title>
<polygon fill="none" stroke="#bfbfbf" points="394.054,-55.5 394.054,-73.5 456.187,-73.5 456.187,-55.5 394.054,-55.5"/>
<text text-anchor="middle" x="425.121" y="-61.5" font-family="Helvetica,sans-Serif" font-size="10.00">type_traits</text>
</g>
<!-- Node4&#45;&gt;Node8 -->
<g id="edge10" class="edge"><title>Node4&#45;&gt;Node8</title>
<path fill="none" stroke="midnightblue" d="M458.027,-110.219C452.442,-102.629 444.014,-91.1753 437.085,-81.7597"/>
<polygon fill="midnightblue" stroke="midnightblue" points="439.79,-79.5296 431.044,-73.5496 434.152,-83.6784 439.79,-79.5296"/>
</g>
<!-- Node9 -->
<g id="node10" class="node"><title>Node9</title>
<polygon fill="none" stroke="#bfbfbf" points="473.717,-55.5 473.717,-73.5 532.524,-73.5 532.524,-55.5 473.717,-55.5"/>
<text text-anchor="middle" x="503.121" y="-61.5" font-family="Helvetica,sans-Serif" font-size="10.00">exception</text>
</g>
<!-- Node4&#45;&gt;Node9 -->
<g id="edge11" class="edge"><title>Node4&#45;&gt;Node9</title>
<path fill="none" stroke="midnightblue" d="M470.214,-110.219C475.799,-102.629 484.227,-91.1753 491.156,-81.7597"/>
<polygon fill="midnightblue" stroke="midnightblue" points="494.09,-83.6784 497.197,-73.5496 488.451,-79.5296 494.09,-83.6784"/>
</g>
<!-- Node10 -->
<g id="node11" class="node"><title>Node10</title>
<polygon fill="none" stroke="#bfbfbf" points="550.719,-55.5 550.719,-73.5 609.522,-73.5 609.522,-55.5 550.719,-55.5"/>
<text text-anchor="middle" x="580.121" y="-61.5" font-family="Helvetica,sans-Serif" font-size="10.00">stdexcept</text>
</g>
<!-- Node4&#45;&gt;Node10 -->
<g id="edge12" class="edge"><title>Node4&#45;&gt;Node10</title>
<path fill="none" stroke="midnightblue" d="M481.739,-110.45C500.731,-101.773 531.191,-87.8556 553.191,-77.8041"/>
<polygon fill="midnightblue" stroke="midnightblue" points="554.696,-80.9646 562.337,-73.6253 551.787,-74.5977 554.696,-80.9646"/>
</g>
<!-- Node11 -->
<g id="node12" class="node"><title>Node11</title>
<g id="a_node12"><a xlink:href="cxxdefs_8h.html" target="_top" xlink:title="Basic definitions, which may have to be defined before any Eigen headers or further utilities are inc...">
<polygon fill="none" stroke="black" points="52.3105,-55.5 52.3105,-73.5 193.931,-73.5 193.931,-55.5 52.3105,-55.5"/>
<text text-anchor="middle" x="123.121" y="-61.5" font-family="Helvetica,sans-Serif" font-size="10.00">tomographer/tools/cxxdefs.h</text>
</a>
</g>
</g>
<!-- Node4&#45;&gt;Node11 -->
<g id="edge13" class="edge"><title>Node4&#45;&gt;Node11</title>
<path fill="none" stroke="midnightblue" d="M412.33,-110.45C351.315,-100.967 250.036,-85.2258 184.96,-75.1115"/>
<polygon fill="midnightblue" stroke="midnightblue" points="185.258,-71.6157 174.839,-73.5383 184.183,-78.5327 185.258,-71.6157"/>
</g>
<!-- Node13 -->
<g id="node14" class="node"><title>Node13</title>
<g id="a_node14"><a xlink:href="conststr_8h.html" target="_top" xlink:title="A constexpr string type, suitable for basic compile&#45;time string processing. ">
<polygon fill="none" stroke="black" points="749.03,-55.5 749.03,-73.5 891.211,-73.5 891.211,-55.5 749.03,-55.5"/>
<text text-anchor="middle" x="820.121" y="-61.5" font-family="Helvetica,sans-Serif" font-size="10.00">tomographer/tools/conststr.h</text>
</a>
</g>
</g>
<!-- Node4&#45;&gt;Node13 -->
<g id="edge18" class="edge"><title>Node4&#45;&gt;Node13</title>
<path fill="none" stroke="midnightblue" d="M518.189,-110.45C582.019,-100.948 688.058,-85.161 755.979,-75.0491"/>
<polygon fill="midnightblue" stroke="midnightblue" points="756.752,-78.4728 766.127,-73.5383 755.721,-71.5491 756.752,-78.4728"/>
</g>
<!-- Node15 -->
<g id="node16" class="node"><title>Node15</title>
<polygon fill="none" stroke="#bfbfbf" points="627.106,-55.5 627.106,-73.5 693.135,-73.5 693.135,-55.5 627.106,-55.5"/>
<text text-anchor="middle" x="660.121" y="-61.5" font-family="Helvetica,sans-Serif" font-size="10.00">Eigen/Core</text>
</g>
<!-- Node4&#45;&gt;Node15 -->
<g id="edge20" class="edge"><title>Node4&#45;&gt;Node15</title>
<path fill="none" stroke="midnightblue" d="M493.889,-110.45C527.66,-101.318 582.892,-86.3833 620.337,-76.2578"/>
<polygon fill="midnightblue" stroke="midnightblue" points="621.654,-79.5274 630.394,-73.5383 619.827,-72.7701 621.654,-79.5274"/>
</g>
<!-- Node11&#45;&gt;Node1 -->
<g id="edge15" class="edge"><title>Node11&#45;&gt;Node1</title>
<path fill="none" stroke="midnightblue" d="M108.085,-55.4504C92.1665,-46.9286 66.8086,-33.3532 48.121,-23.3487"/>
<polygon fill="midnightblue" stroke="midnightblue" points="49.7661,-20.2595 39.2981,-18.6253 46.4623,-26.4308 49.7661,-20.2595"/>
</g>
<!-- Node11&#45;&gt;Node2 -->
<g id="edge14" class="edge"><title>Node11&#45;&gt;Node2</title>
<path fill="none" stroke="midnightblue" d="M194.067,-57.2121C323.059,-45.7797 591.467,-21.991 686.697,-13.551"/>
<polygon fill="midnightblue" stroke="midnightblue" points="687.265,-17.0144 696.917,-12.6451 686.647,-10.0417 687.265,-17.0144"/>
</g>
<!-- Node11&#45;&gt;Node5 -->
<g id="edge16" class="edge"><title>Node11&#45;&gt;Node5</title>
<path fill="none" stroke="midnightblue" d="M136.638,-55.4504C150.752,-47.0453 173.122,-33.7241 189.851,-23.7618"/>
<polygon fill="midnightblue" stroke="midnightblue" points="191.675,-26.7491 198.476,-18.6253 188.093,-20.7347 191.675,-26.7491"/>
</g>
<!-- Node12 -->
<g id="node13" class="node"><title>Node12</title>
<polygon fill="none" stroke="#bfbfbf" points="83.1528,-0.5 83.1528,-18.5 163.088,-18.5 163.088,-0.5 83.1528,-0.5"/>
<text text-anchor="middle" x="123.121" y="-6.5" font-family="Helvetica,sans-Serif" font-size="10.00">boost/predef.h</text>
</g>
<!-- Node11&#45;&gt;Node12 -->
<g id="edge17" class="edge"><title>Node11&#45;&gt;Node12</title>
<path fill="none" stroke="midnightblue" d="M123.121,-55.2188C123.121,-48.1769 123.121,-37.8083 123.121,-28.8277"/>
<polygon fill="midnightblue" stroke="midnightblue" points="126.621,-28.5495 123.121,-18.5496 119.621,-28.5496 126.621,-28.5495"/>
</g>
<!-- Node14 -->
<g id="node15" class="node"><title>Node14</title>
<polygon fill="none" stroke="#bfbfbf" points="799.894,-0.5 799.894,-18.5 840.347,-18.5 840.347,-0.5 799.894,-0.5"/>
<text text-anchor="middle" x="820.121" y="-6.5" font-family="Helvetica,sans-Serif" font-size="10.00">string</text>
</g>
<!-- Node13&#45;&gt;Node14 -->
<g id="edge19" class="edge"><title>Node13&#45;&gt;Node14</title>
<path fill="none" stroke="midnightblue" d="M820.121,-55.2188C820.121,-48.1769 820.121,-37.8083 820.121,-28.8277"/>
<polygon fill="midnightblue" stroke="midnightblue" points="823.621,-28.5495 820.121,-18.5496 816.621,-28.5496 823.621,-28.5495"/>
</g>
</g>
</svg>
