<?xml version="1.0" encoding="UTF-8" standalone="no"?>
<!DOCTYPE svg PUBLIC "-//W3C//DTD SVG 1.1//EN"
 "http://www.w3.org/Graphics/SVG/1.1/DTD/svg11.dtd">
<!-- Generated by graphviz version 2.38.0 (20140413.2041)
 -->
<!-- Title: tomographer/tools/eigenutil.h Pages: 1 -->
<svg width="403pt" height="82pt"
 viewBox="0.00 0.00 403.48 82.00" xmlns="http://www.w3.org/2000/svg" xmlns:xlink="http://www.w3.org/1999/xlink">
<g id="graph0" class="graph" transform="scale(1 1) rotate(0) translate(4 78)">
<title>tomographer/tools/eigenutil.h</title>
<!-- Node0 -->
<g id="node1" class="node"><title>Node0</title>
<polygon fill="#bfbfbf" stroke="black" points="93.1333,-55.5 93.1333,-73.5 238.103,-73.5 238.103,-55.5 93.1333,-55.5"/>
<text text-anchor="middle" x="165.618" y="-61.5" font-family="Helvetica,sans-Serif" font-size="10.00">tomographer/tools/eigenutil.h</text>
</g>
<!-- Node1 -->
<g id="node2" class="node"><title>Node1</title>
<polygon fill="none" stroke="#bfbfbf" points="0,-0.5 0,-18.5 53.2363,-18.5 53.2363,-0.5 0,-0.5"/>
<text text-anchor="middle" x="26.6182" y="-6.5" font-family="Helvetica,sans-Serif" font-size="10.00">complex</text>
</g>
<!-- Node0&#45;&gt;Node1 -->
<g id="edge1" class="edge"><title>Node0&#45;&gt;Node1</title>
<path fill="none" stroke="midnightblue" d="M144.507,-55.4504C121.341,-46.6173 83.935,-32.3546 57.4789,-22.267"/>
<polygon fill="midnightblue" stroke="midnightblue" points="58.5187,-18.9178 47.9279,-18.6253 56.0248,-25.4585 58.5187,-18.9178"/>
</g>
<!-- Node2 -->
<g id="node3" class="node"><title>Node2</title>
<polygon fill="none" stroke="#bfbfbf" points="71.0024,-0.5 71.0024,-18.5 114.234,-18.5 114.234,-0.5 71.0024,-0.5"/>
<text text-anchor="middle" x="92.6182" y="-6.5" font-family="Helvetica,sans-Serif" font-size="10.00">vector</text>
</g>
<!-- Node0&#45;&gt;Node2 -->
<g id="edge2" class="edge"><title>Node0&#45;&gt;Node2</title>
<path fill="none" stroke="midnightblue" d="M154.531,-55.4504C143.276,-47.2788 125.62,-34.4604 112.038,-24.5996"/>
<polygon fill="midnightblue" stroke="midnightblue" points="113.958,-21.6682 103.81,-18.6253 109.845,-27.3327 113.958,-21.6682"/>
</g>
<!-- Node3 -->
<g id="node4" class="node"><title>Node3</title>
<polygon fill="none" stroke="#bfbfbf" points="132.604,-0.5 132.604,-18.5 198.633,-18.5 198.633,-0.5 132.604,-0.5"/>
<text text-anchor="middle" x="165.618" y="-6.5" font-family="Helvetica,sans-Serif" font-size="10.00">Eigen/Core</text>
</g>
<!-- Node0&#45;&gt;Node3 -->
<g id="edge3" class="edge"><title>Node0&#45;&gt;Node3</title>
<path fill="none" stroke="midnightblue" d="M165.618,-55.2188C165.618,-48.1769 165.618,-37.8083 165.618,-28.8277"/>
<polygon fill="midnightblue" stroke="midnightblue" points="169.118,-28.5495 165.618,-18.5496 162.118,-28.5496 169.118,-28.5495"/>
</g>
<!-- Node4 -->
<g id="node5" class="node"><title>Node4</title>
<polygon fill="none" stroke="#bfbfbf" points="216.988,-0.5 216.988,-18.5 290.249,-18.5 290.249,-0.5 216.988,-0.5"/>
<text text-anchor="middle" x="253.618" y="-6.5" font-family="Helvetica,sans-Serif" font-size="10.00">Eigen/Dense</text>
</g>
<!-- Node0&#45;&gt;Node4 -->
<g id="edge4" class="edge"><title>Node0&#45;&gt;Node4</title>
<path fill="none" stroke="midnightblue" d="M178.983,-55.4504C192.81,-47.1232 214.648,-33.9704 231.138,-24.0394"/>
<polygon fill="midnightblue" stroke="midnightblue" points="233.366,-26.7828 240.127,-18.6253 229.755,-20.7864 233.366,-26.7828"/>
</g>
<!-- Node5 -->
<g id="node6" class="node"><title>Node5</title>
<polygon fill="none" stroke="#bfbfbf" points="307.759,-0.5 307.759,-18.5 395.478,-18.5 395.478,-0.5 307.759,-0.5"/>
<text text-anchor="middle" x="351.618" y="-6.5" font-family="Helvetica,sans-Serif" font-size="10.00">Eigen/StdVector</text>
</g>
<!-- Node0&#45;&gt;Node5 -->
<g id="edge5" class="edge"><title>Node0&#45;&gt;Node5</title>
<path fill="none" stroke="midnightblue" d="M193.868,-55.4504C225.779,-46.3575 277.882,-31.5108 313.408,-21.3879"/>
<polygon fill="midnightblue" stroke="midnightblue" points="314.75,-24.6448 323.408,-18.5383 312.832,-17.9127 314.75,-24.6448"/>
</g>
</g>
</svg>
