<?xml version="1.0" encoding="UTF-8" standalone="no"?>
<!DOCTYPE svg PUBLIC "-//W3C//DTD SVG 1.1//EN"
 "http://www.w3.org/Graphics/SVG/1.1/DTD/svg11.dtd">
<!-- Generated by graphviz version 2.38.0 (20140413.2041)
 -->
<!-- Title: tomographer/mhrw.h Pages: 1 -->
<svg width="1494pt" height="377pt"
 viewBox="0.00 0.00 1494.42 377.00" xmlns="http://www.w3.org/2000/svg" xmlns:xlink="http://www.w3.org/1999/xlink">
<g id="graph0" class="graph" transform="scale(1 1) rotate(0) translate(4 373)">
<title>tomographer/mhrw.h</title>
<!-- Node0 -->
<g id="node1" class="node"><title>Node0</title>
<polygon fill="#bfbfbf" stroke="black" points="371.247,-350.5 371.247,-368.5 478.961,-368.5 478.961,-350.5 371.247,-350.5"/>
<text text-anchor="middle" x="425.104" y="-356.5" font-family="Helvetica,sans-Serif" font-size="10.00">tomographer/mhrw.h</text>
</g>
<!-- Node1 -->
<g id="node2" class="node"><title>Node1</title>
<polygon fill="none" stroke="#bfbfbf" points="93.983,-0.5 93.983,-18.5 142.224,-18.5 142.224,-0.5 93.983,-0.5"/>
<text text-anchor="middle" x="118.104" y="-6.5" font-family="Helvetica,sans-Serif" font-size="10.00">cstddef</text>
</g>
<!-- Node0&#45;&gt;Node1 -->
<g id="edge1" class="edge"><title>Node0&#45;&gt;Node1</title>
<path fill="none" stroke="midnightblue" d="M371.117,-356.475C284.583,-352.455 119.342,-341.362 68.1036,-314 27.3868,-292.257 0.103618,-281.659 0.103618,-235.5 0.103618,-235.5 0.103618,-235.5 0.103618,-118.5 0.103618,-89.0415 -0.310853,-77.1558 19.1036,-55 35.9358,-35.7911 62.6947,-24.4485 84.1511,-18.0271"/>
<polygon fill="midnightblue" stroke="midnightblue" points="85.1807,-21.3739 93.8859,-15.3348 83.3147,-14.6271 85.1807,-21.3739"/>
</g>
<!-- Node2 -->
<g id="node3" class="node"><title>Node2</title>
<polygon fill="none" stroke="#bfbfbf" points="835.717,-290.5 835.717,-308.5 874.49,-308.5 874.49,-290.5 835.717,-290.5"/>
<text text-anchor="middle" x="855.104" y="-296.5" font-family="Helvetica,sans-Serif" font-size="10.00">limits</text>
</g>
<!-- Node0&#45;&gt;Node2 -->
<g id="edge2" class="edge"><title>Node0&#45;&gt;Node2</title>
<path fill="none" stroke="midnightblue" d="M479.247,-357.154C556.464,-354.177 702.152,-344.625 822.104,-314 824.165,-313.474 826.268,-312.845 828.364,-312.152"/>
<polygon fill="midnightblue" stroke="midnightblue" points="829.8,-315.352 837.94,-308.57 827.348,-308.795 829.8,-315.352"/>
</g>
<!-- Node3 -->
<g id="node4" class="node"><title>Node3</title>
<polygon fill="none" stroke="#bfbfbf" points="892.15,-290.5 892.15,-308.5 942.057,-308.5 942.057,-290.5 892.15,-290.5"/>
<text text-anchor="middle" x="917.104" y="-296.5" font-family="Helvetica,sans-Serif" font-size="10.00">random</text>
</g>
<!-- Node0&#45;&gt;Node3 -->
<g id="edge3" class="edge"><title>Node0&#45;&gt;Node3</title>
<path fill="none" stroke="midnightblue" d="M479.154,-358.131C565.662,-356.457 740.038,-348.618 883.104,-314 885.31,-313.466 887.564,-312.818 889.808,-312.098"/>
<polygon fill="midnightblue" stroke="midnightblue" points="891.206,-315.314 899.413,-308.613 888.818,-308.734 891.206,-315.314"/>
</g>
<!-- Node4 -->
<g id="node5" class="node"><title>Node4</title>
<polygon fill="none" stroke="#bfbfbf" points="592.594,-110.5 592.594,-128.5 643.613,-128.5 643.613,-110.5 592.594,-110.5"/>
<text text-anchor="middle" x="618.104" y="-116.5" font-family="Helvetica,sans-Serif" font-size="10.00">iomanip</text>
</g>
<!-- Node0&#45;&gt;Node4 -->
<g id="edge4" class="edge"><title>Node0&#45;&gt;Node4</title>
<path fill="none" stroke="midnightblue" d="M422.81,-350.28C415.19,-321.03 393.786,-220.781 441.104,-165 459.159,-143.715 536.191,-130.651 582.474,-124.573"/>
<polygon fill="midnightblue" stroke="midnightblue" points="582.929,-128.044 592.409,-123.314 582.048,-121.099 582.929,-128.044"/>
</g>
<!-- Node5 -->
<g id="node6" class="node"><title>Node5</title>
<polygon fill="none" stroke="#bfbfbf" points="28.0372,-55.5 28.0372,-73.5 90.17,-73.5 90.17,-55.5 28.0372,-55.5"/>
<text text-anchor="middle" x="59.1036" y="-61.5" font-family="Helvetica,sans-Serif" font-size="10.00">type_traits</text>
</g>
<!-- Node0&#45;&gt;Node5 -->
<g id="edge5" class="edge"><title>Node0&#45;&gt;Node5</title>
<path fill="none" stroke="midnightblue" d="M371.176,-355.847C316.951,-351.697 231.775,-341.086 163.104,-314 104.163,-290.752 44.1036,-298.86 44.1036,-235.5 44.1036,-235.5 44.1036,-235.5 44.1036,-173.5 44.1036,-141.568 50.6163,-104.826 55.0589,-83.4775"/>
<polygon fill="midnightblue" stroke="midnightblue" points="58.5073,-84.09 57.2039,-73.5756 51.666,-82.6079 58.5073,-84.09"/>
</g>
<!-- Node6 -->
<g id="node7" class="node"><title>Node6</title>
<g id="a_node7"><a xlink:href="loggers_8h.html" target="_top" xlink:title="Utilities for logging messages. ">
<polygon fill="none" stroke="black" points="1095.85,-225.5 1095.85,-243.5 1236.36,-243.5 1236.36,-225.5 1095.85,-225.5"/>
<text text-anchor="middle" x="1166.1" y="-231.5" font-family="Helvetica,sans-Serif" font-size="10.00">tomographer/tools/loggers.h</text>
</a>
</g>
</g>
<!-- Node0&#45;&gt;Node6 -->
<g id="edge6" class="edge"><title>Node0&#45;&gt;Node6</title>
<path fill="none" stroke="midnightblue" d="M479.028,-354.908C565.12,-348.655 729.48,-334.457 784.104,-314 805.691,-305.916 805.605,-293.318 827.104,-285 911.433,-252.372 1015.15,-241.04 1085.5,-237.217"/>
<polygon fill="midnightblue" stroke="midnightblue" points="1085.81,-240.705 1095.63,-236.706 1085.46,-233.714 1085.81,-240.705"/>
</g>
<!-- Node15 -->
<g id="node16" class="node"><title>Node15</title>
<g id="a_node16"><a xlink:href="fmt_8h.html" target="_top" xlink:title="Utilities for formatting strings. ">
<polygon fill="none" stroke="black" points="932.301,-165.5 932.301,-183.5 1053.91,-183.5 1053.91,-165.5 932.301,-165.5"/>
<text text-anchor="middle" x="993.104" y="-171.5" font-family="Helvetica,sans-Serif" font-size="10.00">tomographer/tools/fmt.h</text>
</a>
</g>
</g>
<!-- Node0&#45;&gt;Node15 -->
<g id="edge45" class="edge"><title>Node0&#45;&gt;Node15</title>
<path fill="none" stroke="midnightblue" d="M479.229,-352.163C529.223,-345.483 605.189,-333.224 669.104,-314 785.192,-279.082 915.699,-215.233 968.741,-188.166"/>
<polygon fill="midnightblue" stroke="midnightblue" points="970.425,-191.236 977.723,-183.555 967.228,-185.008 970.425,-191.236"/>
</g>
<!-- Node19 -->
<g id="node20" class="node"><title>Node19</title>
<g id="a_node20"><a xlink:href="cxxutil_8h.html" target="_top" xlink:title="Some C++ utilities, with a tad of C++11 tricks. ">
<polygon fill="none" stroke="black" points="324.353,-110.5 324.353,-128.5 459.855,-128.5 459.855,-110.5 324.353,-110.5"/>
<text text-anchor="middle" x="392.104" y="-116.5" font-family="Helvetica,sans-Serif" font-size="10.00">tomographer/tools/cxxutil.h</text>
</a>
</g>
</g>
<!-- Node0&#45;&gt;Node19 -->
<g id="edge46" class="edge"><title>Node0&#45;&gt;Node19</title>
<path fill="none" stroke="midnightblue" d="M408.705,-350.482C395.558,-343.047 378.039,-330.627 370.104,-314 341.582,-254.235 355.034,-229.485 370.104,-165 372.362,-155.335 377.042,-145.359 381.506,-137.309"/>
<polygon fill="midnightblue" stroke="midnightblue" points="384.583,-138.982 386.668,-128.594 378.56,-135.414 384.583,-138.982"/>
</g>
<!-- Node29 -->
<g id="node30" class="node"><title>Node29</title>
<g id="a_node30"><a xlink:href="statusprovider_8h_source.html" target="_top" xlink:title="tomographer/tools/statusprovider.h">
<polygon fill="none" stroke="black" points="148.114,-225.5 148.114,-243.5 318.093,-243.5 318.093,-225.5 148.114,-225.5"/>
<text text-anchor="middle" x="233.104" y="-231.5" font-family="Helvetica,sans-Serif" font-size="10.00">tomographer/tools/statusprovider.h</text>
</a>
</g>
</g>
<!-- Node0&#45;&gt;Node29 -->
<g id="edge47" class="edge"><title>Node0&#45;&gt;Node29</title>
<path fill="none" stroke="midnightblue" d="M404.829,-350.362C385.516,-342.252 355.937,-328.888 332.104,-314 300.989,-294.564 268.274,-267.018 249.33,-250.254"/>
<polygon fill="midnightblue" stroke="midnightblue" points="251.661,-247.643 241.875,-243.582 246.992,-252.859 251.661,-247.643"/>
</g>
<!-- Node30 -->
<g id="node31" class="node"><title>Node30</title>
<g id="a_node31"><a xlink:href="multiproc_8h.html" target="_top" xlink:title="Some common definitions for multiprocessing interfaces. ">
<polygon fill="none" stroke="black" points="449.912,-225.5 449.912,-243.5 574.296,-243.5 574.296,-225.5 449.912,-225.5"/>
<text text-anchor="middle" x="512.104" y="-231.5" font-family="Helvetica,sans-Serif" font-size="10.00">tomographer/multiproc.h</text>
</a>
</g>
</g>
<!-- Node0&#45;&gt;Node30 -->
<g id="edge49" class="edge"><title>Node0&#45;&gt;Node30</title>
<path fill="none" stroke="midnightblue" d="M430.812,-350.43C444.879,-330.541 481.44,-278.851 500.367,-252.093"/>
<polygon fill="midnightblue" stroke="midnightblue" points="503.343,-253.947 506.26,-243.761 497.628,-249.904 503.343,-253.947"/>
</g>
<!-- Node32 -->
<g id="node33" class="node"><title>Node32</title>
<g id="a_node33"><a xlink:href="needownoperatornew_8h.html" target="_top" xlink:title="Managing the need for specific overrides to operator new() for some types (especially Eigen types) ...">
<polygon fill="none" stroke="black" points="72.4269,-165.5 72.4269,-183.5 275.78,-183.5 275.78,-165.5 72.4269,-165.5"/>
<text text-anchor="middle" x="174.104" y="-171.5" font-family="Helvetica,sans-Serif" font-size="10.00">tomographer/tools/needownoperatornew.h</text>
</a>
</g>
</g>
<!-- Node0&#45;&gt;Node32 -->
<g id="edge70" class="edge"><title>Node0&#45;&gt;Node32</title>
<path fill="none" stroke="midnightblue" d="M371.2,-356.387C301.684,-350.394 183.401,-328.367 130.104,-249 116.78,-229.159 137.523,-205.264 154.812,-190.224"/>
<polygon fill="midnightblue" stroke="midnightblue" points="157.357,-192.663 162.858,-183.608 152.911,-187.256 157.357,-192.663"/>
</g>
<!-- Node34 -->
<g id="node35" class="node"><title>Node34</title>
<g id="a_node35"><a xlink:href="mhrw__bin__err_8h.html" target="_top" xlink:title="Binning Analysis in a Metropolis&#45;Hastings random walk. ">
<polygon fill="none" stroke="black" points="541.69,-285.5 541.69,-313.5 660.517,-313.5 660.517,-285.5 541.69,-285.5"/>
<text text-anchor="start" x="549.69" y="-301.5" font-family="Helvetica,sans-Serif" font-size="10.00">tomographer/mhrw_bin</text>
<text text-anchor="middle" x="601.104" y="-291.5" font-family="Helvetica,sans-Serif" font-size="10.00">_err.h</text>
</a>
</g>
</g>
<!-- Node0&#45;&gt;Node34 -->
<g id="edge59" class="edge"><title>Node0&#45;&gt;Node34</title>
<path fill="none" stroke="midnightblue" d="M449.576,-350.435C475.968,-341.738 518.683,-327.661 552.045,-316.667"/>
<polygon fill="midnightblue" stroke="midnightblue" points="553.224,-319.964 561.626,-313.51 551.033,-313.315 553.224,-319.964"/>
</g>
<!-- Node6&#45;&gt;Node5 -->
<g id="edge13" class="edge"><title>Node6&#45;&gt;Node5</title>
<path fill="none" stroke="midnightblue" d="M1095.75,-228.522C949.341,-217.36 601.665,-186.683 315.104,-129 237.408,-113.361 147.756,-89.8434 97.8279,-76.2489"/>
<polygon fill="midnightblue" stroke="midnightblue" points="98.6603,-72.8481 88.0912,-73.5863 96.8138,-79.6002 98.6603,-72.8481"/>
</g>
<!-- Node7 -->
<g id="node8" class="node"><title>Node7</title>
<polygon fill="none" stroke="#bfbfbf" points="1231.04,-110.5 1231.04,-128.5 1273.17,-128.5 1273.17,-110.5 1231.04,-110.5"/>
<text text-anchor="middle" x="1252.1" y="-116.5" font-family="Helvetica,sans-Serif" font-size="10.00">cstdio</text>
</g>
<!-- Node6&#45;&gt;Node7 -->
<g id="edge7" class="edge"><title>Node6&#45;&gt;Node7</title>
<path fill="none" stroke="midnightblue" d="M1158.15,-225.344C1146.04,-211.908 1125.72,-184.652 1139.1,-165 1143.99,-157.825 1189.35,-141.467 1221.09,-130.709"/>
<polygon fill="midnightblue" stroke="midnightblue" points="1222.48,-133.934 1230.85,-127.432 1220.25,-127.298 1222.48,-133.934"/>
</g>
<!-- Node8 -->
<g id="node9" class="node"><title>Node8</title>
<polygon fill="none" stroke="#bfbfbf" points="1290.71,-110.5 1290.71,-128.5 1339.5,-128.5 1339.5,-110.5 1290.71,-110.5"/>
<text text-anchor="middle" x="1315.1" y="-116.5" font-family="Helvetica,sans-Serif" font-size="10.00">cstdarg</text>
</g>
<!-- Node6&#45;&gt;Node8 -->
<g id="edge8" class="edge"><title>Node6&#45;&gt;Node8</title>
<path fill="none" stroke="midnightblue" d="M1220.63,-225.466C1266.65,-217.437 1327.35,-203.482 1342.1,-184 1353.13,-169.45 1341.46,-149.724 1330.21,-136.138"/>
<polygon fill="midnightblue" stroke="midnightblue" points="1332.74,-133.709 1323.47,-128.574 1327.51,-138.367 1332.74,-133.709"/>
</g>
<!-- Node9 -->
<g id="node10" class="node"><title>Node9</title>
<polygon fill="none" stroke="#bfbfbf" points="1155.88,-0.5 1155.88,-18.5 1196.33,-18.5 1196.33,-0.5 1155.88,-0.5"/>
<text text-anchor="middle" x="1176.1" y="-6.5" font-family="Helvetica,sans-Serif" font-size="10.00">string</text>
</g>
<!-- Node6&#45;&gt;Node9 -->
<g id="edge9" class="edge"><title>Node6&#45;&gt;Node9</title>
<path fill="none" stroke="midnightblue" d="M1236.59,-232.239C1317.12,-229.131 1441.6,-218.678 1471.1,-184 1492.42,-158.95 1490.29,-136.715 1471.1,-110 1409.24,-23.8526 1268.9,-11.3103 1206.73,-10.1503"/>
<polygon fill="midnightblue" stroke="midnightblue" points="1206.45,-6.64747 1196.41,-10.051 1206.38,-13.6471 1206.45,-6.64747"/>
</g>
<!-- Node10 -->
<g id="node11" class="node"><title>Node10</title>
<polygon fill="none" stroke="#bfbfbf" points="1357.32,-110.5 1357.32,-128.5 1408.88,-128.5 1408.88,-110.5 1357.32,-110.5"/>
<text text-anchor="middle" x="1383.1" y="-116.5" font-family="Helvetica,sans-Serif" font-size="10.00">sstream</text>
</g>
<!-- Node6&#45;&gt;Node10 -->
<g id="edge10" class="edge"><title>Node6&#45;&gt;Node10</title>
<path fill="none" stroke="midnightblue" d="M1236.46,-231.074C1276.73,-226.198 1325.73,-213.881 1359.1,-184 1371.99,-172.462 1377.99,-153.283 1380.76,-139.016"/>
<polygon fill="midnightblue" stroke="midnightblue" points="1384.26,-139.291 1382.36,-128.867 1377.35,-138.199 1384.26,-139.291"/>
</g>
<!-- Node11 -->
<g id="node12" class="node"><title>Node11</title>
<polygon fill="none" stroke="#bfbfbf" points="1044.93,-55.5 1044.93,-73.5 1099.28,-73.5 1099.28,-55.5 1044.93,-55.5"/>
<text text-anchor="middle" x="1072.1" y="-61.5" font-family="Helvetica,sans-Serif" font-size="10.00">iostream</text>
</g>
<!-- Node6&#45;&gt;Node11 -->
<g id="edge11" class="edge"><title>Node6&#45;&gt;Node11</title>
<path fill="none" stroke="midnightblue" d="M1229.88,-225.489C1322.49,-211.383 1477.07,-177.038 1418.1,-110 1415.56,-107.108 1198.47,-80.6999 1109.5,-69.9855"/>
<polygon fill="midnightblue" stroke="midnightblue" points="1109.65,-66.4789 1099.31,-68.7593 1108.82,-73.4288 1109.65,-66.4789"/>
</g>
<!-- Node12 -->
<g id="node13" class="node"><title>Node12</title>
<polygon fill="none" stroke="#bfbfbf" points="1154.7,-110.5 1154.7,-128.5 1213.51,-128.5 1213.51,-110.5 1154.7,-110.5"/>
<text text-anchor="middle" x="1184.1" y="-116.5" font-family="Helvetica,sans-Serif" font-size="10.00">functional</text>
</g>
<!-- Node6&#45;&gt;Node12 -->
<g id="edge12" class="edge"><title>Node6&#45;&gt;Node12</title>
<path fill="none" stroke="midnightblue" d="M1149.6,-225.479C1127.28,-213.476 1091.81,-189.608 1106.1,-165 1114.92,-149.816 1131.08,-139.38 1146.41,-132.452"/>
<polygon fill="midnightblue" stroke="midnightblue" points="1147.87,-135.635 1155.77,-128.581 1145.2,-129.166 1147.87,-135.635"/>
</g>
<!-- Node13 -->
<g id="node14" class="node"><title>Node13</title>
<polygon fill="none" stroke="#bfbfbf" points="1148.38,-165.5 1148.38,-183.5 1183.83,-183.5 1183.83,-165.5 1148.38,-165.5"/>
<text text-anchor="middle" x="1166.1" y="-171.5" font-family="Helvetica,sans-Serif" font-size="10.00">map</text>
</g>
<!-- Node6&#45;&gt;Node13 -->
<g id="edge14" class="edge"><title>Node6&#45;&gt;Node13</title>
<path fill="none" stroke="midnightblue" d="M1166.1,-225.435C1166.1,-217.389 1166.1,-204.739 1166.1,-194.185"/>
<polygon fill="midnightblue" stroke="midnightblue" points="1169.6,-193.872 1166.1,-183.872 1162.6,-193.872 1169.6,-193.872"/>
</g>
<!-- Node14 -->
<g id="node15" class="node"><title>Node14</title>
<polygon fill="none" stroke="#bfbfbf" points="1201.57,-165.5 1201.57,-183.5 1332.64,-183.5 1332.64,-165.5 1201.57,-165.5"/>
<text text-anchor="middle" x="1267.1" y="-171.5" font-family="Helvetica,sans-Serif" font-size="10.00">boost/algorithm/string.hpp</text>
</g>
<!-- Node6&#45;&gt;Node14 -->
<g id="edge15" class="edge"><title>Node6&#45;&gt;Node14</title>
<path fill="none" stroke="midnightblue" d="M1180.15,-225.435C1196.71,-215.923 1224.48,-199.976 1244.18,-188.665"/>
<polygon fill="midnightblue" stroke="midnightblue" points="1245.92,-191.698 1252.85,-183.683 1242.44,-185.628 1245.92,-191.698"/>
</g>
<!-- Node6&#45;&gt;Node15 -->
<g id="edge16" class="edge"><title>Node6&#45;&gt;Node15</title>
<path fill="none" stroke="midnightblue" d="M1142.05,-225.435C1112.05,-215.378 1060.6,-198.128 1026.72,-186.769"/>
<polygon fill="midnightblue" stroke="midnightblue" points="1027.83,-183.45 1017.23,-183.589 1025.6,-190.087 1027.83,-183.45"/>
</g>
<!-- Node27 -->
<g id="node28" class="node"><title>Node27</title>
<g id="a_node28"><a xlink:href="conststr_8h.html" target="_top" xlink:title="A constexpr string type, suitable for basic compile&#45;time string processing. ">
<polygon fill="none" stroke="black" points="1155.01,-55.5 1155.01,-73.5 1297.19,-73.5 1297.19,-55.5 1155.01,-55.5"/>
<text text-anchor="middle" x="1226.1" y="-61.5" font-family="Helvetica,sans-Serif" font-size="10.00">tomographer/tools/conststr.h</text>
</a>
</g>
</g>
<!-- Node6&#45;&gt;Node27 -->
<g id="edge44" class="edge"><title>Node6&#45;&gt;Node27</title>
<path fill="none" stroke="midnightblue" d="M1236.38,-231.311C1311.73,-227.309 1424.19,-215.992 1451.1,-184 1472.28,-158.833 1471.98,-135.412 1451.1,-110 1432.92,-87.8691 1364.12,-76.5585 1307.33,-70.8959"/>
<polygon fill="midnightblue" stroke="midnightblue" points="1307.53,-67.3994 1297.25,-69.9359 1306.87,-74.3679 1307.53,-67.3994"/>
</g>
<!-- Node15&#45;&gt;Node4 -->
<g id="edge25" class="edge"><title>Node15&#45;&gt;Node4</title>
<path fill="none" stroke="midnightblue" d="M932.094,-167.681C865.745,-160.872 756.427,-148.254 653.584,-129.097"/>
<polygon fill="midnightblue" stroke="midnightblue" points="654.129,-125.638 643.654,-127.223 652.831,-132.517 654.129,-125.638"/>
</g>
<!-- Node15&#45;&gt;Node7 -->
<g id="edge17" class="edge"><title>Node15&#45;&gt;Node7</title>
<path fill="none" stroke="midnightblue" d="M1040.72,-165.453C1085.04,-157.693 1153.1,-145.09 1220.86,-129.137"/>
<polygon fill="midnightblue" stroke="midnightblue" points="1221.94,-132.479 1230.86,-126.759 1220.32,-125.669 1221.94,-132.479"/>
</g>
<!-- Node15&#45;&gt;Node8 -->
<g id="edge18" class="edge"><title>Node15&#45;&gt;Node8</title>
<path fill="none" stroke="midnightblue" d="M1054.03,-165.909C1110.5,-158.467 1197.01,-146.042 1280.73,-129.116"/>
<polygon fill="midnightblue" stroke="midnightblue" points="1281.56,-132.518 1290.66,-127.085 1280.16,-125.66 1281.56,-132.518"/>
</g>
<!-- Node15&#45;&gt;Node9 -->
<g id="edge20" class="edge"><title>Node15&#45;&gt;Node9</title>
<path fill="none" stroke="midnightblue" d="M1018.83,-165.381C1039.12,-158.098 1067.37,-145.94 1088.1,-129 1097.68,-121.176 1142.85,-57.7767 1164.49,-27.0613"/>
<polygon fill="midnightblue" stroke="midnightblue" points="1167.5,-28.8696 1170.38,-18.676 1161.77,-24.8436 1167.5,-28.8696"/>
</g>
<!-- Node15&#45;&gt;Node10 -->
<g id="edge21" class="edge"><title>Node15&#45;&gt;Node10</title>
<path fill="none" stroke="midnightblue" d="M1054.04,-167.986C1122.86,-161.282 1238.36,-148.603 1347.02,-128.999"/>
<polygon fill="midnightblue" stroke="midnightblue" points="1347.97,-132.384 1357.18,-127.143 1346.71,-125.498 1347.97,-132.384"/>
</g>
<!-- Node15&#45;&gt;Node11 -->
<g id="edge22" class="edge"><title>Node15&#45;&gt;Node11</title>
<path fill="none" stroke="midnightblue" d="M1020.51,-165.36C1037.96,-158.62 1059.24,-147.152 1070.1,-129 1078.24,-115.394 1077.87,-97.0458 1075.98,-83.5715"/>
<polygon fill="midnightblue" stroke="midnightblue" points="1079.41,-82.8329 1074.19,-73.6105 1072.52,-84.0722 1079.41,-82.8329"/>
</g>
<!-- Node15&#45;&gt;Node12 -->
<g id="edge26" class="edge"><title>Node15&#45;&gt;Node12</title>
<path fill="none" stroke="midnightblue" d="M1022.11,-165.45C1055.02,-156.318 1108.85,-141.383 1145.33,-131.258"/>
<polygon fill="midnightblue" stroke="midnightblue" points="1146.44,-134.585 1155.14,-128.538 1144.56,-127.84 1146.44,-134.585"/>
</g>
<!-- Node16 -->
<g id="node17" class="node"><title>Node16</title>
<polygon fill="none" stroke="#bfbfbf" points="957.816,-110.5 957.816,-128.5 1004.39,-128.5 1004.39,-110.5 957.816,-110.5"/>
<text text-anchor="middle" x="981.104" y="-116.5" font-family="Helvetica,sans-Serif" font-size="10.00">chrono</text>
</g>
<!-- Node15&#45;&gt;Node16 -->
<g id="edge19" class="edge"><title>Node15&#45;&gt;Node16</title>
<path fill="none" stroke="midnightblue" d="M991.229,-165.219C989.617,-158.099 987.234,-147.577 985.186,-138.529"/>
<polygon fill="midnightblue" stroke="midnightblue" points="988.548,-137.53 982.926,-128.55 981.721,-139.076 988.548,-137.53"/>
</g>
<!-- Node17 -->
<g id="node18" class="node"><title>Node17</title>
<polygon fill="none" stroke="#bfbfbf" points="1022.71,-110.5 1022.71,-128.5 1061.5,-128.5 1061.5,-110.5 1022.71,-110.5"/>
<text text-anchor="middle" x="1042.1" y="-116.5" font-family="Helvetica,sans-Serif" font-size="10.00">utility</text>
</g>
<!-- Node15&#45;&gt;Node17 -->
<g id="edge23" class="edge"><title>Node15&#45;&gt;Node17</title>
<path fill="none" stroke="midnightblue" d="M1000.76,-165.219C1007.92,-157.473 1018.8,-145.701 1027.61,-136.18"/>
<polygon fill="midnightblue" stroke="midnightblue" points="1030.44,-138.268 1034.66,-128.55 1025.3,-133.516 1030.44,-138.268"/>
</g>
<!-- Node18 -->
<g id="node19" class="node"><title>Node18</title>
<polygon fill="none" stroke="#bfbfbf" points="896.488,-110.5 896.488,-128.5 939.719,-128.5 939.719,-110.5 896.488,-110.5"/>
<text text-anchor="middle" x="918.104" y="-116.5" font-family="Helvetica,sans-Serif" font-size="10.00">vector</text>
</g>
<!-- Node15&#45;&gt;Node18 -->
<g id="edge24" class="edge"><title>Node15&#45;&gt;Node18</title>
<path fill="none" stroke="midnightblue" d="M981.713,-165.45C970.149,-157.279 952.01,-144.46 938.056,-134.6"/>
<polygon fill="midnightblue" stroke="midnightblue" points="939.788,-131.538 929.602,-128.625 935.748,-137.255 939.788,-131.538"/>
</g>
<!-- Node15&#45;&gt;Node19 -->
<g id="edge27" class="edge"><title>Node15&#45;&gt;Node19</title>
<path fill="none" stroke="midnightblue" d="M932.169,-168.126C822.416,-158.448 591.672,-138.099 470.39,-127.404"/>
<polygon fill="midnightblue" stroke="midnightblue" points="470.339,-123.886 460.07,-126.494 469.724,-130.859 470.339,-123.886"/>
</g>
<!-- Node19&#45;&gt;Node1 -->
<g id="edge29" class="edge"><title>Node19&#45;&gt;Node1</title>
<path fill="none" stroke="midnightblue" d="M324.882,-110.46C254.127,-101.421 151.046,-86.3873 137.104,-74 124.343,-62.662 119.991,-43.1418 118.588,-28.7292"/>
<polygon fill="midnightblue" stroke="midnightblue" points="122.068,-28.2977 117.99,-18.5194 115.08,-28.7069 122.068,-28.2977"/>
</g>
<!-- Node19&#45;&gt;Node5 -->
<g id="edge33" class="edge"><title>Node19&#45;&gt;Node5</title>
<path fill="none" stroke="midnightblue" d="M336.534,-110.476C278.467,-101.959 184.759,-87.8446 104.104,-74 103.007,-73.8117 101.895,-73.6186 100.774,-73.4217"/>
<polygon fill="midnightblue" stroke="midnightblue" points="101.013,-69.9085 90.5507,-71.5785 99.771,-76.7974 101.013,-69.9085"/>
</g>
<!-- Node19&#45;&gt;Node11 -->
<g id="edge31" class="edge"><title>Node19&#45;&gt;Node11</title>
<path fill="none" stroke="midnightblue" d="M460.104,-113.2C601.707,-102.163 924.199,-77.0279 1034.38,-68.44"/>
<polygon fill="midnightblue" stroke="midnightblue" points="1034.97,-71.9048 1044.67,-67.6382 1034.43,-64.926 1034.97,-71.9048"/>
</g>
<!-- Node20 -->
<g id="node21" class="node"><title>Node20</title>
<polygon fill="none" stroke="#bfbfbf" points="265.988,-0.5 265.988,-18.5 314.219,-18.5 314.219,-0.5 265.988,-0.5"/>
<text text-anchor="middle" x="290.104" y="-6.5" font-family="Helvetica,sans-Serif" font-size="10.00">cassert</text>
</g>
<!-- Node19&#45;&gt;Node20 -->
<g id="edge28" class="edge"><title>Node19&#45;&gt;Node20</title>
<path fill="none" stroke="midnightblue" d="M384.437,-110.382C367.528,-92.4786 326.792,-49.3466 304.79,-26.0507"/>
<polygon fill="midnightblue" stroke="midnightblue" points="307.27,-23.5787 297.859,-18.7118 302.181,-28.3851 307.27,-23.5787"/>
</g>
<!-- Node21 -->
<g id="node22" class="node"><title>Node21</title>
<polygon fill="none" stroke="#bfbfbf" points="331.931,-0.5 331.931,-18.5 376.276,-18.5 376.276,-0.5 331.931,-0.5"/>
<text text-anchor="middle" x="354.104" y="-6.5" font-family="Helvetica,sans-Serif" font-size="10.00">cstdlib</text>
</g>
<!-- Node19&#45;&gt;Node21 -->
<g id="edge30" class="edge"><title>Node19&#45;&gt;Node21</title>
<path fill="none" stroke="midnightblue" d="M388.322,-110.409C384.27,-101.574 377.791,-86.9549 373.104,-74 367.653,-58.9354 362.512,-41.476 358.955,-28.6818"/>
<polygon fill="midnightblue" stroke="midnightblue" points="362.274,-27.5463 356.27,-18.8168 355.519,-29.385 362.274,-27.5463"/>
</g>
<!-- Node22 -->
<g id="node23" class="node"><title>Node22</title>
<polygon fill="none" stroke="#bfbfbf" points="749.485,-55.5 749.485,-73.5 802.722,-73.5 802.722,-55.5 749.485,-55.5"/>
<text text-anchor="middle" x="776.104" y="-61.5" font-family="Helvetica,sans-Serif" font-size="10.00">complex</text>
</g>
<!-- Node19&#45;&gt;Node22 -->
<g id="edge32" class="edge"><title>Node19&#45;&gt;Node22</title>
<path fill="none" stroke="midnightblue" d="M450.425,-110.45C530.486,-99.4004 672.108,-79.8535 739.061,-70.6127"/>
<polygon fill="midnightblue" stroke="midnightblue" points="739.717,-74.0554 749.144,-69.2209 738.76,-67.1211 739.717,-74.0554"/>
</g>
<!-- Node23 -->
<g id="node24" class="node"><title>Node23</title>
<polygon fill="none" stroke="#bfbfbf" points="458.7,-55.5 458.7,-73.5 517.507,-73.5 517.507,-55.5 458.7,-55.5"/>
<text text-anchor="middle" x="488.104" y="-61.5" font-family="Helvetica,sans-Serif" font-size="10.00">exception</text>
</g>
<!-- Node19&#45;&gt;Node23 -->
<g id="edge34" class="edge"><title>Node19&#45;&gt;Node23</title>
<path fill="none" stroke="midnightblue" d="M406.684,-110.45C422.049,-101.968 446.485,-88.477 464.582,-78.486"/>
<polygon fill="midnightblue" stroke="midnightblue" points="466.323,-81.5226 473.386,-73.6253 462.94,-75.3945 466.323,-81.5226"/>
</g>
<!-- Node24 -->
<g id="node25" class="node"><title>Node24</title>
<polygon fill="none" stroke="#bfbfbf" points="381.702,-55.5 381.702,-73.5 440.505,-73.5 440.505,-55.5 381.702,-55.5"/>
<text text-anchor="middle" x="411.104" y="-61.5" font-family="Helvetica,sans-Serif" font-size="10.00">stdexcept</text>
</g>
<!-- Node19&#45;&gt;Node24 -->
<g id="edge35" class="edge"><title>Node19&#45;&gt;Node24</title>
<path fill="none" stroke="midnightblue" d="M395.072,-110.219C397.653,-103.02 401.48,-92.3458 404.747,-83.2311"/>
<polygon fill="midnightblue" stroke="midnightblue" points="408.138,-84.1441 408.218,-73.5496 401.549,-81.7818 408.138,-84.1441"/>
</g>
<!-- Node25 -->
<g id="node26" class="node"><title>Node25</title>
<g id="a_node26"><a xlink:href="cxxdefs_8h.html" target="_top" xlink:title="Basic definitions, which may have to be defined before any Eigen headers or further utilities are inc...">
<polygon fill="none" stroke="black" points="146.294,-55.5 146.294,-73.5 287.914,-73.5 287.914,-55.5 146.294,-55.5"/>
<text text-anchor="middle" x="217.104" y="-61.5" font-family="Helvetica,sans-Serif" font-size="10.00">tomographer/tools/cxxdefs.h</text>
</a>
</g>
</g>
<!-- Node19&#45;&gt;Node25 -->
<g id="edge36" class="edge"><title>Node19&#45;&gt;Node25</title>
<path fill="none" stroke="midnightblue" d="M365.525,-110.45C335.63,-101.396 286.899,-86.6382 253.486,-76.5185"/>
<polygon fill="midnightblue" stroke="midnightblue" points="254.23,-73.0872 243.645,-73.5383 252.201,-79.7867 254.23,-73.0872"/>
</g>
<!-- Node19&#45;&gt;Node27 -->
<g id="edge41" class="edge"><title>Node19&#45;&gt;Node27</title>
<path fill="none" stroke="midnightblue" d="M460.237,-114.489C587.534,-106.946 870.134,-89.9655 1108.1,-74 1119.95,-73.2051 1132.47,-72.3358 1144.74,-71.4661"/>
<polygon fill="midnightblue" stroke="midnightblue" points="1145.25,-74.9388 1154.98,-70.7372 1144.75,-67.9565 1145.25,-74.9388"/>
</g>
<!-- Node28 -->
<g id="node29" class="node"><title>Node28</title>
<polygon fill="none" stroke="#bfbfbf" points="535.089,-55.5 535.089,-73.5 601.118,-73.5 601.118,-55.5 535.089,-55.5"/>
<text text-anchor="middle" x="568.104" y="-61.5" font-family="Helvetica,sans-Serif" font-size="10.00">Eigen/Core</text>
</g>
<!-- Node19&#45;&gt;Node28 -->
<g id="edge43" class="edge"><title>Node19&#45;&gt;Node28</title>
<path fill="none" stroke="midnightblue" d="M418.834,-110.45C448.9,-101.396 497.909,-86.6382 531.514,-76.5185"/>
<polygon fill="midnightblue" stroke="midnightblue" points="532.844,-79.7732 541.41,-73.5383 530.826,-73.0705 532.844,-79.7732"/>
</g>
<!-- Node25&#45;&gt;Node1 -->
<g id="edge38" class="edge"><title>Node25&#45;&gt;Node1</title>
<path fill="none" stroke="midnightblue" d="M202.068,-55.4504C186.149,-46.9286 160.792,-33.3532 142.104,-23.3487"/>
<polygon fill="midnightblue" stroke="midnightblue" points="143.749,-20.2595 133.281,-18.6253 140.445,-26.4308 143.749,-20.2595"/>
</g>
<!-- Node25&#45;&gt;Node20 -->
<g id="edge37" class="edge"><title>Node25&#45;&gt;Node20</title>
<path fill="none" stroke="midnightblue" d="M228.191,-55.4504C239.446,-47.2788 257.102,-34.4604 270.683,-24.5996"/>
<polygon fill="midnightblue" stroke="midnightblue" points="272.876,-27.3327 278.912,-18.6253 268.764,-21.6682 272.876,-27.3327"/>
</g>
<!-- Node25&#45;&gt;Node21 -->
<g id="edge39" class="edge"><title>Node25&#45;&gt;Node21</title>
<path fill="none" stroke="midnightblue" d="M237.911,-55.4504C260.744,-46.6173 297.612,-32.3546 323.687,-22.267"/>
<polygon fill="midnightblue" stroke="midnightblue" points="325.037,-25.4977 333.1,-18.6253 322.511,-18.9692 325.037,-25.4977"/>
</g>
<!-- Node26 -->
<g id="node27" class="node"><title>Node26</title>
<polygon fill="none" stroke="#bfbfbf" points="168.136,-0.5 168.136,-18.5 248.071,-18.5 248.071,-0.5 168.136,-0.5"/>
<text text-anchor="middle" x="208.104" y="-6.5" font-family="Helvetica,sans-Serif" font-size="10.00">boost/predef.h</text>
</g>
<!-- Node25&#45;&gt;Node26 -->
<g id="edge40" class="edge"><title>Node25&#45;&gt;Node26</title>
<path fill="none" stroke="midnightblue" d="M215.697,-55.2188C214.488,-48.0986 212.702,-37.5775 211.165,-28.5289"/>
<polygon fill="midnightblue" stroke="midnightblue" points="214.595,-27.8224 209.471,-18.5496 207.694,-28.9944 214.595,-27.8224"/>
</g>
<!-- Node27&#45;&gt;Node9 -->
<g id="edge42" class="edge"><title>Node27&#45;&gt;Node9</title>
<path fill="none" stroke="midnightblue" d="M1218.29,-55.2188C1210.91,-47.3944 1199.65,-35.4631 1190.62,-25.8921"/>
<polygon fill="midnightblue" stroke="midnightblue" points="1193.11,-23.4217 1183.7,-18.5496 1188.01,-28.2253 1193.11,-23.4217"/>
</g>
<!-- Node29&#45;&gt;Node19 -->
<g id="edge48" class="edge"><title>Node29&#45;&gt;Node19</title>
<path fill="none" stroke="midnightblue" d="M244.539,-225.373C271.354,-206.316 338.556,-158.556 372.226,-134.627"/>
<polygon fill="midnightblue" stroke="midnightblue" points="374.649,-137.199 380.772,-128.553 370.594,-131.493 374.649,-137.199"/>
</g>
<!-- Node30&#45;&gt;Node9 -->
<g id="edge51" class="edge"><title>Node30&#45;&gt;Node9</title>
<path fill="none" stroke="midnightblue" d="M514.583,-225.253C521.605,-203.267 543.718,-142.705 583.104,-110 670.357,-37.5459 1036.71,-16.4045 1145.51,-11.6673"/>
<polygon fill="midnightblue" stroke="midnightblue" points="1145.94,-15.1523 1155.79,-11.2358 1145.65,-8.15845 1145.94,-15.1523"/>
</g>
<!-- Node30&#45;&gt;Node15 -->
<g id="edge54" class="edge"><title>Node30&#45;&gt;Node15</title>
<path fill="none" stroke="midnightblue" d="M551.441,-225.441C561.719,-223.495 572.803,-221.536 583.104,-220 701.439,-202.357 839.98,-188.786 921.929,-181.489"/>
<polygon fill="midnightblue" stroke="midnightblue" points="922.474,-184.954 932.127,-180.587 921.857,-177.982 922.474,-184.954"/>
</g>
<!-- Node30&#45;&gt;Node16 -->
<g id="edge52" class="edge"><title>Node30&#45;&gt;Node16</title>
<path fill="none" stroke="midnightblue" d="M552.599,-225.483C562.558,-223.599 573.204,-221.659 583.104,-220 692.95,-201.593 723.83,-213.955 831.104,-184 877.109,-171.153 927.705,-147.616 956.807,-133.087"/>
<polygon fill="midnightblue" stroke="midnightblue" points="958.469,-136.169 965.814,-128.534 955.311,-129.922 958.469,-136.169"/>
</g>
<!-- Node30&#45;&gt;Node23 -->
<g id="edge53" class="edge"><title>Node30&#45;&gt;Node23</title>
<path fill="none" stroke="midnightblue" d="M511.819,-225.455C511.296,-212.623 509.965,-186.753 507.104,-165 503.329,-136.298 496.553,-103.368 492.196,-83.5147"/>
<polygon fill="midnightblue" stroke="midnightblue" points="495.6,-82.7 490.005,-73.7032 488.768,-84.2256 495.6,-82.7"/>
</g>
<!-- Node31 -->
<g id="node32" class="node"><title>Node31</title>
<polygon fill="none" stroke="#bfbfbf" points="450.54,-165.5 450.54,-183.5 497.668,-183.5 497.668,-165.5 450.54,-165.5"/>
<text text-anchor="middle" x="474.104" y="-171.5" font-family="Helvetica,sans-Serif" font-size="10.00">csignal</text>
</g>
<!-- Node30&#45;&gt;Node31 -->
<g id="edge50" class="edge"><title>Node30&#45;&gt;Node31</title>
<path fill="none" stroke="midnightblue" d="M506.82,-225.435C501.268,-216.961 492.37,-203.38 485.254,-192.519"/>
<polygon fill="midnightblue" stroke="midnightblue" points="487.996,-190.318 479.589,-183.872 482.141,-194.154 487.996,-190.318"/>
</g>
<!-- Node30&#45;&gt;Node32 -->
<g id="edge55" class="edge"><title>Node30&#45;&gt;Node32</title>
<path fill="none" stroke="midnightblue" d="M465.461,-225.496C404.264,-214.995 296.931,-196.577 231.019,-185.267"/>
<polygon fill="midnightblue" stroke="midnightblue" points="231.258,-181.756 220.81,-183.515 230.074,-188.656 231.258,-181.756"/>
</g>
<!-- Node32&#45;&gt;Node5 -->
<g id="edge56" class="edge"><title>Node32&#45;&gt;Node5</title>
<path fill="none" stroke="midnightblue" d="M173.762,-165.482C172.796,-152.369 169.116,-126.179 155.104,-110 140.868,-93.563 119.274,-82.8125 100.168,-76.0039"/>
<polygon fill="midnightblue" stroke="midnightblue" points="101.049,-72.6091 90.4562,-72.7936 98.8524,-79.2554 101.049,-72.6091"/>
</g>
<!-- Node32&#45;&gt;Node19 -->
<g id="edge58" class="edge"><title>Node32&#45;&gt;Node19</title>
<path fill="none" stroke="midnightblue" d="M207.213,-165.45C245.176,-156.221 307.522,-141.063 349.182,-130.935"/>
<polygon fill="midnightblue" stroke="midnightblue" points="350.15,-134.302 359.04,-128.538 348.497,-127.5 350.15,-134.302"/>
</g>
<!-- Node33 -->
<g id="node34" class="node"><title>Node33</title>
<polygon fill="none" stroke="#bfbfbf" points="76.1383,-110.5 76.1383,-128.5 146.069,-128.5 146.069,-110.5 76.1383,-110.5"/>
<text text-anchor="middle" x="111.104" y="-116.5" font-family="Helvetica,sans-Serif" font-size="10.00">Eigen/Eigen</text>
</g>
<!-- Node32&#45;&gt;Node33 -->
<g id="edge57" class="edge"><title>Node32&#45;&gt;Node33</title>
<path fill="none" stroke="midnightblue" d="M164.535,-165.45C155.007,-157.434 140.163,-144.947 128.537,-135.166"/>
<polygon fill="midnightblue" stroke="midnightblue" points="130.667,-132.385 120.762,-128.625 126.161,-137.741 130.667,-132.385"/>
</g>
<!-- Node34&#45;&gt;Node6 -->
<g id="edge60" class="edge"><title>Node34&#45;&gt;Node6</title>
<path fill="none" stroke="midnightblue" d="M660.767,-291.847C762.785,-280.472 970.821,-257.275 1085.6,-244.477"/>
<polygon fill="midnightblue" stroke="midnightblue" points="1086.18,-247.934 1095.73,-243.347 1085.4,-240.977 1086.18,-247.934"/>
</g>
<!-- Node34&#45;&gt;Node19 -->
<g id="edge67" class="edge"><title>Node34&#45;&gt;Node19</title>
<path fill="none" stroke="midnightblue" d="M541.466,-292.844C508.253,-286.833 468.253,-274.458 441.104,-249 409.406,-219.276 398.012,-166.868 394.074,-139.053"/>
<polygon fill="midnightblue" stroke="midnightblue" points="397.504,-138.272 392.805,-128.776 390.557,-139.129 397.504,-138.272"/>
</g>
<!-- Node34&#45;&gt;Node32 -->
<g id="edge68" class="edge"><title>Node34&#45;&gt;Node32</title>
<path fill="none" stroke="midnightblue" d="M541.673,-296.48C422.959,-291.832 165.556,-278.438 139.104,-249 123.679,-231.835 142.169,-206.666 157.586,-190.685"/>
<polygon fill="midnightblue" stroke="midnightblue" points="160.063,-193.158 164.745,-183.654 155.158,-188.164 160.063,-193.158"/>
</g>
<!-- Node35 -->
<g id="node36" class="node"><title>Node35</title>
<g id="a_node36"><a xlink:href="eigenutil_8h.html" target="_top" xlink:title="Basic utilities for dealing with Eigen matrices and other types. ">
<polygon fill="none" stroke="black" points="677.619,-165.5 677.619,-183.5 822.588,-183.5 822.588,-165.5 677.619,-165.5"/>
<text text-anchor="middle" x="750.104" y="-171.5" font-family="Helvetica,sans-Serif" font-size="10.00">tomographer/tools/eigenutil.h</text>
</a>
</g>
</g>
<!-- Node34&#45;&gt;Node35 -->
<g id="edge61" class="edge"><title>Node34&#45;&gt;Node35</title>
<path fill="none" stroke="midnightblue" d="M649.203,-285.426C670.775,-277.649 695.311,-265.921 713.104,-249 729.085,-233.802 739.247,-210.206 744.796,-193.867"/>
<polygon fill="midnightblue" stroke="midnightblue" points="748.267,-194.496 747.916,-183.907 741.587,-192.404 748.267,-194.496"/>
</g>
<!-- Node38 -->
<g id="node39" class="node"><title>Node38</title>
<polygon fill="none" stroke="#bfbfbf" points="592.577,-220.5 592.577,-248.5 703.63,-248.5 703.63,-220.5 592.577,-220.5"/>
<text text-anchor="start" x="600.577" y="-236.5" font-family="Helvetica,sans-Serif" font-size="10.00">boost/math/constants</text>
<text text-anchor="middle" x="648.104" y="-226.5" font-family="Helvetica,sans-Serif" font-size="10.00">/constants.hpp</text>
</g>
<!-- Node34&#45;&gt;Node38 -->
<g id="edge69" class="edge"><title>Node34&#45;&gt;Node38</title>
<path fill="none" stroke="midnightblue" d="M610.842,-285.446C617.018,-277.168 625.151,-266.266 632.243,-256.759"/>
<polygon fill="midnightblue" stroke="midnightblue" points="635.203,-258.645 638.378,-248.537 629.593,-254.459 635.203,-258.645"/>
</g>
<!-- Node35&#45;&gt;Node18 -->
<g id="edge63" class="edge"><title>Node35&#45;&gt;Node18</title>
<path fill="none" stroke="midnightblue" d="M775.619,-165.45C805.354,-156.07 854.5,-140.565 886.591,-130.441"/>
<polygon fill="midnightblue" stroke="midnightblue" points="887.881,-133.704 896.365,-127.358 885.775,-127.029 887.881,-133.704"/>
</g>
<!-- Node35&#45;&gt;Node22 -->
<g id="edge62" class="edge"><title>Node35&#45;&gt;Node22</title>
<path fill="none" stroke="midnightblue" d="M793.073,-165.476C813.736,-159.224 836.668,-148.224 849.104,-129 863.099,-107.364 834.109,-88.8569 808.625,-77.4974"/>
<polygon fill="midnightblue" stroke="midnightblue" points="809.701,-74.1531 799.126,-73.5021 806.987,-80.6056 809.701,-74.1531"/>
</g>
<!-- Node35&#45;&gt;Node28 -->
<g id="edge64" class="edge"><title>Node35&#45;&gt;Node28</title>
<path fill="none" stroke="midnightblue" d="M677.507,-170.654C644.557,-165.632 607.571,-154.174 583.104,-129 571.516,-117.078 568.285,-97.9551 567.637,-83.8061"/>
<polygon fill="midnightblue" stroke="midnightblue" points="571.137,-83.7311 567.561,-73.7579 564.137,-83.7841 571.137,-83.7311"/>
</g>
<!-- Node36 -->
<g id="node37" class="node"><title>Node36</title>
<polygon fill="none" stroke="#bfbfbf" points="766.473,-110.5 766.473,-128.5 839.734,-128.5 839.734,-110.5 766.473,-110.5"/>
<text text-anchor="middle" x="803.104" y="-116.5" font-family="Helvetica,sans-Serif" font-size="10.00">Eigen/Dense</text>
</g>
<!-- Node35&#45;&gt;Node36 -->
<g id="edge65" class="edge"><title>Node35&#45;&gt;Node36</title>
<path fill="none" stroke="midnightblue" d="M758.385,-165.219C766.209,-157.394 778.141,-145.463 787.712,-135.892"/>
<polygon fill="midnightblue" stroke="midnightblue" points="790.458,-138.096 795.054,-128.55 785.508,-133.146 790.458,-138.096"/>
</g>
<!-- Node37 -->
<g id="node38" class="node"><title>Node37</title>
<polygon fill="none" stroke="#bfbfbf" points="661.244,-110.5 661.244,-128.5 748.963,-128.5 748.963,-110.5 661.244,-110.5"/>
<text text-anchor="middle" x="705.104" y="-116.5" font-family="Helvetica,sans-Serif" font-size="10.00">Eigen/StdVector</text>
</g>
<!-- Node35&#45;&gt;Node37 -->
<g id="edge66" class="edge"><title>Node35&#45;&gt;Node37</title>
<path fill="none" stroke="midnightblue" d="M743.072,-165.219C736.496,-157.473 726.501,-145.701 718.417,-136.18"/>
<polygon fill="midnightblue" stroke="midnightblue" points="721.079,-133.907 711.938,-128.55 715.742,-138.438 721.079,-133.907"/>
</g>
</g>
</svg>
