<?xml version="1.0" encoding="UTF-8" standalone="no"?>
<!DOCTYPE svg PUBLIC "-//W3C//DTD SVG 1.1//EN"
 "http://www.w3.org/Graphics/SVG/1.1/DTD/svg11.dtd">
<!-- Generated by graphviz version 2.38.0 (20140413.2041)
 -->
<!-- Title: tomographer/multiprocthreads.h Pages: 1 -->
<svg width="1329pt" height="312pt"
 viewBox="0.00 0.00 1329.02 312.00" xmlns="http://www.w3.org/2000/svg" xmlns:xlink="http://www.w3.org/1999/xlink">
<g id="graph0" class="graph" transform="scale(1 1) rotate(0) translate(4 308)">
<title>tomographer/multiprocthreads.h</title>
<!-- Node0 -->
<g id="node1" class="node"><title>Node0</title>
<polygon fill="#bfbfbf" stroke="black" points="574.532,-285.5 574.532,-303.5 732.271,-303.5 732.271,-285.5 574.532,-285.5"/>
<text text-anchor="middle" x="653.401" y="-291.5" font-family="Helvetica,sans-Serif" font-size="10.00">tomographer/multiprocthreads.h</text>
</g>
<!-- Node1 -->
<g id="node2" class="node"><title>Node1</title>
<polygon fill="none" stroke="#bfbfbf" points="591.113,-110.5 591.113,-128.5 637.689,-128.5 637.689,-110.5 591.113,-110.5"/>
<text text-anchor="middle" x="614.401" y="-116.5" font-family="Helvetica,sans-Serif" font-size="10.00">chrono</text>
</g>
<!-- Node0&#45;&gt;Node1 -->
<g id="edge1" class="edge"><title>Node0&#45;&gt;Node1</title>
<path fill="none" stroke="midnightblue" d="M629.304,-285.493C612.863,-278.624 592.333,-266.947 582.401,-249 562.067,-212.256 587.043,-162.525 603.022,-137.048"/>
<polygon fill="midnightblue" stroke="midnightblue" points="606.038,-138.831 608.592,-128.549 600.183,-134.994 606.038,-138.831"/>
</g>
<!-- Node2 -->
<g id="node3" class="node"><title>Node2</title>
<polygon fill="none" stroke="#bfbfbf" points="0,-55.5 0,-73.5 58.8027,-73.5 58.8027,-55.5 0,-55.5"/>
<text text-anchor="middle" x="29.4014" y="-61.5" font-family="Helvetica,sans-Serif" font-size="10.00">stdexcept</text>
</g>
<!-- Node0&#45;&gt;Node2 -->
<g id="edge2" class="edge"><title>Node0&#45;&gt;Node2</title>
<path fill="none" stroke="midnightblue" d="M574.346,-290.941C509.378,-286.822 415.775,-276.206 338.401,-249 218.383,-206.8 93.5182,-115.408 47.6703,-79.9606"/>
<polygon fill="midnightblue" stroke="midnightblue" points="49.6165,-77.0398 39.5792,-73.6482 45.3107,-82.5589 49.6165,-77.0398"/>
</g>
<!-- Node3 -->
<g id="node4" class="node"><title>Node3</title>
<polygon fill="none" stroke="#bfbfbf" points="1063.47,-220.5 1063.47,-248.5 1197.33,-248.5 1197.33,-220.5 1063.47,-220.5"/>
<text text-anchor="start" x="1071.47" y="-236.5" font-family="Helvetica,sans-Serif" font-size="10.00">boost/exception/diagnostic</text>
<text text-anchor="middle" x="1130.4" y="-226.5" font-family="Helvetica,sans-Serif" font-size="10.00">_information.hpp</text>
</g>
<!-- Node0&#45;&gt;Node3 -->
<g id="edge3" class="edge"><title>Node0&#45;&gt;Node3</title>
<path fill="none" stroke="midnightblue" d="M732.346,-286.275C811.063,-278.721 935.654,-265.821 1053.06,-249.133"/>
<polygon fill="midnightblue" stroke="midnightblue" points="1053.9,-252.547 1063.3,-247.664 1052.91,-245.618 1053.9,-252.547"/>
</g>
<!-- Node4 -->
<g id="node5" class="node"><title>Node4</title>
<g id="a_node5"><a xlink:href="loggers_8h.html" target="_top" xlink:title="Utilities for logging messages. ">
<polygon fill="none" stroke="black" points="905.143,-225.5 905.143,-243.5 1045.66,-243.5 1045.66,-225.5 905.143,-225.5"/>
<text text-anchor="middle" x="975.401" y="-231.5" font-family="Helvetica,sans-Serif" font-size="10.00">tomographer/tools/loggers.h</text>
</a>
</g>
</g>
<!-- Node0&#45;&gt;Node4 -->
<g id="edge4" class="edge"><title>Node0&#45;&gt;Node4</title>
<path fill="none" stroke="midnightblue" d="M697.836,-285.496C756.016,-275.017 857.968,-256.653 920.792,-245.336"/>
<polygon fill="midnightblue" stroke="midnightblue" points="921.685,-248.732 930.906,-243.515 920.444,-241.843 921.685,-248.732"/>
</g>
<!-- Node18 -->
<g id="node19" class="node"><title>Node18</title>
<g id="a_node19"><a xlink:href="cxxutil_8h.html" target="_top" xlink:title="Some C++ utilities, with a tad of C++11 tricks. ">
<polygon fill="none" stroke="black" points="273.65,-110.5 273.65,-128.5 409.152,-128.5 409.152,-110.5 273.65,-110.5"/>
<text text-anchor="middle" x="341.401" y="-116.5" font-family="Helvetica,sans-Serif" font-size="10.00">tomographer/tools/cxxutil.h</text>
</a>
</g>
</g>
<!-- Node0&#45;&gt;Node18 -->
<g id="edge43" class="edge"><title>Node0&#45;&gt;Node18</title>
<path fill="none" stroke="midnightblue" d="M598.818,-285.472C505.48,-270.491 321.641,-235.103 284.401,-184 270.873,-165.436 294.643,-146.065 315.492,-133.674"/>
<polygon fill="midnightblue" stroke="midnightblue" points="317.421,-136.606 324.426,-128.657 313.993,-130.502 317.421,-136.606"/>
</g>
<!-- Node28 -->
<g id="node29" class="node"><title>Node28</title>
<g id="a_node29"><a xlink:href="needownoperatornew_8h.html" target="_top" xlink:title="Managing the need for specific overrides to operator new() for some types (especially Eigen types) ...">
<polygon fill="none" stroke="black" points="293.725,-165.5 293.725,-183.5 497.078,-183.5 497.078,-165.5 293.725,-165.5"/>
<text text-anchor="middle" x="395.401" y="-171.5" font-family="Helvetica,sans-Serif" font-size="10.00">tomographer/tools/needownoperatornew.h</text>
</a>
</g>
</g>
<!-- Node0&#45;&gt;Node28 -->
<g id="edge44" class="edge"><title>Node0&#45;&gt;Node28</title>
<path fill="none" stroke="midnightblue" d="M633.745,-285.372C612.755,-276.627 578.568,-262.193 549.401,-249 503.856,-228.397 451.445,-203.022 421.007,-188.116"/>
<polygon fill="midnightblue" stroke="midnightblue" points="422.452,-184.927 411.933,-183.664 419.369,-191.211 422.452,-184.927"/>
</g>
<!-- Node30 -->
<g id="node31" class="node"><title>Node30</title>
<g id="a_node31"><a xlink:href="multiproc_8h.html" target="_top" xlink:title="Some common definitions for multiprocessing interfaces. ">
<polygon fill="none" stroke="black" points="591.209,-225.5 591.209,-243.5 715.593,-243.5 715.593,-225.5 591.209,-225.5"/>
<text text-anchor="middle" x="653.401" y="-231.5" font-family="Helvetica,sans-Serif" font-size="10.00">tomographer/multiproc.h</text>
</a>
</g>
</g>
<!-- Node0&#45;&gt;Node30 -->
<g id="edge48" class="edge"><title>Node0&#45;&gt;Node30</title>
<path fill="none" stroke="midnightblue" d="M653.401,-285.435C653.401,-277.389 653.401,-264.739 653.401,-254.185"/>
<polygon fill="midnightblue" stroke="midnightblue" points="656.901,-253.872 653.401,-243.872 649.901,-253.872 656.901,-253.872"/>
</g>
<!-- Node32 -->
<g id="node33" class="node"><title>Node32</title>
<polygon fill="none" stroke="#bfbfbf" points="1215.22,-225.5 1215.22,-243.5 1259.58,-243.5 1259.58,-225.5 1215.22,-225.5"/>
<text text-anchor="middle" x="1237.4" y="-231.5" font-family="Helvetica,sans-Serif" font-size="10.00">thread</text>
</g>
<!-- Node0&#45;&gt;Node32 -->
<g id="edge55" class="edge"><title>Node0&#45;&gt;Node32</title>
<path fill="none" stroke="midnightblue" d="M732.441,-290.349C863.216,-284.598 1118.87,-270.932 1206.4,-249 1208.32,-248.518 1210.28,-247.929 1212.22,-247.269"/>
<polygon fill="midnightblue" stroke="midnightblue" points="1213.65,-250.47 1221.67,-243.548 1211.08,-243.957 1213.65,-250.47"/>
</g>
<!-- Node33 -->
<g id="node34" class="node"><title>Node33</title>
<polygon fill="none" stroke="#bfbfbf" points="1277.79,-225.5 1277.79,-243.5 1321.02,-243.5 1321.02,-225.5 1277.79,-225.5"/>
<text text-anchor="middle" x="1299.4" y="-231.5" font-family="Helvetica,sans-Serif" font-size="10.00">mutex</text>
</g>
<!-- Node0&#45;&gt;Node33 -->
<g id="edge56" class="edge"><title>Node0&#45;&gt;Node33</title>
<path fill="none" stroke="midnightblue" d="M732.454,-291.098C874.881,-286.219 1169,-273.479 1268.4,-249 1270.33,-248.526 1272.28,-247.943 1274.23,-247.287"/>
<polygon fill="midnightblue" stroke="midnightblue" points="1275.65,-250.489 1283.67,-243.574 1273.09,-243.974 1275.65,-250.489"/>
</g>
<!-- Node5 -->
<g id="node6" class="node"><title>Node5</title>
<polygon fill="none" stroke="#bfbfbf" points="995.34,-110.5 995.34,-128.5 1037.46,-128.5 1037.46,-110.5 995.34,-110.5"/>
<text text-anchor="middle" x="1016.4" y="-116.5" font-family="Helvetica,sans-Serif" font-size="10.00">cstdio</text>
</g>
<!-- Node4&#45;&gt;Node5 -->
<g id="edge5" class="edge"><title>Node4&#45;&gt;Node5</title>
<path fill="none" stroke="midnightblue" d="M978.137,-225.459C982.519,-212.634 991.43,-186.773 999.401,-165 1002.64,-156.144 1006.37,-146.348 1009.51,-138.207"/>
<polygon fill="midnightblue" stroke="midnightblue" points="1012.85,-139.265 1013.2,-128.676 1006.32,-136.736 1012.85,-139.265"/>
</g>
<!-- Node6 -->
<g id="node7" class="node"><title>Node6</title>
<polygon fill="none" stroke="#bfbfbf" points="1055,-110.5 1055,-128.5 1103.8,-128.5 1103.8,-110.5 1055,-110.5"/>
<text text-anchor="middle" x="1079.4" y="-116.5" font-family="Helvetica,sans-Serif" font-size="10.00">cstdarg</text>
</g>
<!-- Node4&#45;&gt;Node6 -->
<g id="edge6" class="edge"><title>Node4&#45;&gt;Node6</title>
<path fill="none" stroke="midnightblue" d="M981.77,-225.22C992.001,-212.067 1012.93,-185.763 1032.4,-165 1041.94,-154.834 1053.26,-144.073 1062.41,-135.68"/>
<polygon fill="midnightblue" stroke="midnightblue" points="1065.03,-138.033 1070.08,-128.723 1060.32,-132.848 1065.03,-138.033"/>
</g>
<!-- Node7 -->
<g id="node8" class="node"><title>Node7</title>
<polygon fill="none" stroke="#bfbfbf" points="994.175,-0.5 994.175,-18.5 1034.63,-18.5 1034.63,-0.5 994.175,-0.5"/>
<text text-anchor="middle" x="1014.4" y="-6.5" font-family="Helvetica,sans-Serif" font-size="10.00">string</text>
</g>
<!-- Node4&#45;&gt;Node7 -->
<g id="edge7" class="edge"><title>Node4&#45;&gt;Node7</title>
<path fill="none" stroke="midnightblue" d="M1022.18,-225.467C1032.77,-223.659 1043.97,-221.756 1054.4,-220 1150.81,-203.766 1195.22,-245.27 1271.4,-184 1291.92,-167.5 1288.42,-154.852 1293.4,-129 1313.84,-22.8585 1121.88,-10.7558 1045.19,-10.1183"/>
<polygon fill="midnightblue" stroke="midnightblue" points="1044.76,-6.6175 1034.75,-10.0976 1044.74,-13.6175 1044.76,-6.6175"/>
</g>
<!-- Node8 -->
<g id="node9" class="node"><title>Node8</title>
<polygon fill="none" stroke="#bfbfbf" points="1121.62,-110.5 1121.62,-128.5 1173.18,-128.5 1173.18,-110.5 1121.62,-110.5"/>
<text text-anchor="middle" x="1147.4" y="-116.5" font-family="Helvetica,sans-Serif" font-size="10.00">sstream</text>
</g>
<!-- Node4&#45;&gt;Node8 -->
<g id="edge8" class="edge"><title>Node4&#45;&gt;Node8</title>
<path fill="none" stroke="midnightblue" d="M1021.95,-225.491C1079.86,-215.057 1172.42,-196.655 1182.4,-184 1194.38,-168.825 1179.39,-149.007 1165.48,-135.576"/>
<polygon fill="midnightblue" stroke="midnightblue" points="1167.8,-132.958 1158.04,-128.842 1163.11,-138.148 1167.8,-132.958"/>
</g>
<!-- Node9 -->
<g id="node10" class="node"><title>Node9</title>
<polygon fill="none" stroke="#bfbfbf" points="957.229,-55.5 957.229,-73.5 1011.57,-73.5 1011.57,-55.5 957.229,-55.5"/>
<text text-anchor="middle" x="984.401" y="-61.5" font-family="Helvetica,sans-Serif" font-size="10.00">iostream</text>
</g>
<!-- Node4&#45;&gt;Node9 -->
<g id="edge9" class="edge"><title>Node4&#45;&gt;Node9</title>
<path fill="none" stroke="midnightblue" d="M1019.55,-225.464C1087.81,-212.914 1212.02,-189.523 1220.4,-184 1251.27,-163.653 1282.51,-138.03 1258.4,-110 1225.29,-71.5059 1087.92,-82.8031 1021.84,-73.8508"/>
<polygon fill="midnightblue" stroke="midnightblue" points="1022.3,-70.3806 1011.87,-72.2294 1021.18,-77.2898 1022.3,-70.3806"/>
</g>
<!-- Node10 -->
<g id="node11" class="node"><title>Node10</title>
<polygon fill="none" stroke="#bfbfbf" points="1191,-110.5 1191,-128.5 1249.81,-128.5 1249.81,-110.5 1191,-110.5"/>
<text text-anchor="middle" x="1220.4" y="-116.5" font-family="Helvetica,sans-Serif" font-size="10.00">functional</text>
</g>
<!-- Node4&#45;&gt;Node10 -->
<g id="edge10" class="edge"><title>Node4&#45;&gt;Node10</title>
<path fill="none" stroke="midnightblue" d="M1023.54,-225.46C1085.4,-214.737 1186.4,-195.744 1199.4,-184 1212.05,-172.579 1217.1,-153.382 1219.1,-139.08"/>
<polygon fill="midnightblue" stroke="midnightblue" points="1222.61,-139.205 1220.15,-128.9 1215.64,-138.492 1222.61,-139.205"/>
</g>
<!-- Node11 -->
<g id="node12" class="node"><title>Node11</title>
<polygon fill="none" stroke="#bfbfbf" points="582.335,-55.5 582.335,-73.5 644.468,-73.5 644.468,-55.5 582.335,-55.5"/>
<text text-anchor="middle" x="613.401" y="-61.5" font-family="Helvetica,sans-Serif" font-size="10.00">type_traits</text>
</g>
<!-- Node4&#45;&gt;Node11 -->
<g id="edge11" class="edge"><title>Node4&#45;&gt;Node11</title>
<path fill="none" stroke="midnightblue" d="M907.109,-225.491C864,-218.564 808.036,-206.05 762.401,-184 706.815,-157.141 653.022,-106.392 627.997,-80.9129"/>
<polygon fill="midnightblue" stroke="midnightblue" points="630.385,-78.3469 620.917,-73.5908 625.352,-83.2127 630.385,-78.3469"/>
</g>
<!-- Node12 -->
<g id="node13" class="node"><title>Node12</title>
<polygon fill="none" stroke="#bfbfbf" points="911.675,-165.5 911.675,-183.5 947.128,-183.5 947.128,-165.5 911.675,-165.5"/>
<text text-anchor="middle" x="929.401" y="-171.5" font-family="Helvetica,sans-Serif" font-size="10.00">map</text>
</g>
<!-- Node4&#45;&gt;Node12 -->
<g id="edge12" class="edge"><title>Node4&#45;&gt;Node12</title>
<path fill="none" stroke="midnightblue" d="M969.005,-225.435C962.149,-216.79 951.076,-202.829 942.38,-191.864"/>
<polygon fill="midnightblue" stroke="midnightblue" points="944.997,-189.532 936.041,-183.872 939.513,-193.882 944.997,-189.532"/>
</g>
<!-- Node13 -->
<g id="node14" class="node"><title>Node13</title>
<polygon fill="none" stroke="#bfbfbf" points="1041.87,-165.5 1041.87,-183.5 1172.93,-183.5 1172.93,-165.5 1041.87,-165.5"/>
<text text-anchor="middle" x="1107.4" y="-171.5" font-family="Helvetica,sans-Serif" font-size="10.00">boost/algorithm/string.hpp</text>
</g>
<!-- Node4&#45;&gt;Node13 -->
<g id="edge13" class="edge"><title>Node4&#45;&gt;Node13</title>
<path fill="none" stroke="midnightblue" d="M993.755,-225.435C1015.99,-215.665 1053.68,-199.105 1079.51,-187.754"/>
<polygon fill="midnightblue" stroke="midnightblue" points="1081.03,-190.91 1088.78,-183.683 1078.21,-184.502 1081.03,-190.91"/>
</g>
<!-- Node14 -->
<g id="node15" class="node"><title>Node14</title>
<g id="a_node15"><a xlink:href="fmt_8h.html" target="_top" xlink:title="Utilities for formatting strings. ">
<polygon fill="none" stroke="black" points="771.599,-165.5 771.599,-183.5 893.204,-183.5 893.204,-165.5 771.599,-165.5"/>
<text text-anchor="middle" x="832.401" y="-171.5" font-family="Helvetica,sans-Serif" font-size="10.00">tomographer/tools/fmt.h</text>
</a>
</g>
</g>
<!-- Node4&#45;&gt;Node14 -->
<g id="edge14" class="edge"><title>Node4&#45;&gt;Node14</title>
<path fill="none" stroke="midnightblue" d="M955.518,-225.435C931.216,-215.579 889.88,-198.813 861.876,-187.455"/>
<polygon fill="midnightblue" stroke="midnightblue" points="863.159,-184.198 852.577,-183.683 860.528,-190.685 863.159,-184.198"/>
</g>
<!-- Node26 -->
<g id="node27" class="node"><title>Node26</title>
<g id="a_node27"><a xlink:href="conststr_8h.html" target="_top" xlink:title="A constexpr string type, suitable for basic compile&#45;time string processing. ">
<polygon fill="none" stroke="black" points="1029.31,-55.5 1029.31,-73.5 1171.49,-73.5 1171.49,-55.5 1029.31,-55.5"/>
<text text-anchor="middle" x="1100.4" y="-61.5" font-family="Helvetica,sans-Serif" font-size="10.00">tomographer/tools/conststr.h</text>
</a>
</g>
</g>
<!-- Node4&#45;&gt;Node26 -->
<g id="edge42" class="edge"><title>Node4&#45;&gt;Node26</title>
<path fill="none" stroke="midnightblue" d="M1022.42,-225.472C1099.05,-212.317 1242.84,-187.294 1247.4,-184 1269.97,-167.692 1270.52,-155.981 1277.4,-129 1279.49,-120.817 1282.59,-116.659 1277.4,-110 1264.6,-93.5755 1218.27,-82.2849 1176.22,-75.1866"/>
<polygon fill="midnightblue" stroke="midnightblue" points="1176.64,-71.7093 1166.21,-73.5598 1175.52,-78.6187 1176.64,-71.7093"/>
</g>
<!-- Node14&#45;&gt;Node1 -->
<g id="edge17" class="edge"><title>Node14&#45;&gt;Node1</title>
<path fill="none" stroke="midnightblue" d="M799.292,-165.45C758.225,-155.466 688.625,-138.545 647.543,-128.557"/>
<polygon fill="midnightblue" stroke="midnightblue" points="648.291,-125.137 637.747,-126.176 646.637,-131.939 648.291,-125.137"/>
</g>
<!-- Node14&#45;&gt;Node5 -->
<g id="edge15" class="edge"><title>Node14&#45;&gt;Node5</title>
<path fill="none" stroke="midnightblue" d="M860.347,-165.45C894.02,-155.751 950.419,-139.506 985.401,-129.429"/>
<polygon fill="midnightblue" stroke="midnightblue" points="986.451,-132.769 995.092,-126.638 984.514,-126.043 986.451,-132.769"/>
</g>
<!-- Node14&#45;&gt;Node6 -->
<g id="edge16" class="edge"><title>Node14&#45;&gt;Node6</title>
<path fill="none" stroke="midnightblue" d="M873.953,-165.462C915.054,-157.377 979.981,-144.247 1044.93,-129.263"/>
<polygon fill="midnightblue" stroke="midnightblue" points="1045.98,-132.613 1054.92,-126.941 1044.39,-125.794 1045.98,-132.613"/>
</g>
<!-- Node14&#45;&gt;Node7 -->
<g id="edge18" class="edge"><title>Node14&#45;&gt;Node7</title>
<path fill="none" stroke="midnightblue" d="M853.473,-165.473C870.553,-158.105 894.341,-145.784 910.401,-129 935.962,-102.288 923.857,-82.6492 948.401,-55 959.806,-42.1524 975.698,-31.2891 989.029,-23.5124"/>
<polygon fill="midnightblue" stroke="midnightblue" points="990.739,-26.5666 997.763,-18.6352 987.326,-20.4549 990.739,-26.5666"/>
</g>
<!-- Node14&#45;&gt;Node8 -->
<g id="edge19" class="edge"><title>Node14&#45;&gt;Node8</title>
<path fill="none" stroke="midnightblue" d="M891.643,-165.5C946.267,-157.803 1029.79,-145.226 1111.51,-129.039"/>
<polygon fill="midnightblue" stroke="midnightblue" points="1112.34,-132.441 1121.46,-127.047 1110.97,-125.577 1112.34,-132.441"/>
</g>
<!-- Node14&#45;&gt;Node9 -->
<g id="edge20" class="edge"><title>Node14&#45;&gt;Node9</title>
<path fill="none" stroke="midnightblue" d="M867.319,-165.468C890.765,-158.731 921.293,-147.224 943.401,-129 958.557,-116.507 970.006,-96.9168 976.902,-82.7982"/>
<polygon fill="midnightblue" stroke="midnightblue" points="980.104,-84.2119 981.106,-73.6646 973.745,-81.2848 980.104,-84.2119"/>
</g>
<!-- Node14&#45;&gt;Node10 -->
<g id="edge24" class="edge"><title>Node14&#45;&gt;Node10</title>
<path fill="none" stroke="midnightblue" d="M893.299,-166.073C979.281,-155.541 1130.67,-136.823 1181.12,-128.987"/>
<polygon fill="midnightblue" stroke="midnightblue" points="1181.7,-132.439 1191,-127.363 1180.56,-125.532 1181.7,-132.439"/>
</g>
<!-- Node15 -->
<g id="node16" class="node"><title>Node15</title>
<polygon fill="none" stroke="#bfbfbf" points="801.01,-110.5 801.01,-128.5 839.793,-128.5 839.793,-110.5 801.01,-110.5"/>
<text text-anchor="middle" x="820.401" y="-116.5" font-family="Helvetica,sans-Serif" font-size="10.00">utility</text>
</g>
<!-- Node14&#45;&gt;Node15 -->
<g id="edge21" class="edge"><title>Node14&#45;&gt;Node15</title>
<path fill="none" stroke="midnightblue" d="M830.526,-165.219C828.914,-158.099 826.532,-147.577 824.483,-138.529"/>
<polygon fill="midnightblue" stroke="midnightblue" points="827.846,-137.53 822.224,-128.55 821.019,-139.076 827.846,-137.53"/>
</g>
<!-- Node16 -->
<g id="node17" class="node"><title>Node16</title>
<polygon fill="none" stroke="#bfbfbf" points="857.786,-110.5 857.786,-128.5 901.017,-128.5 901.017,-110.5 857.786,-110.5"/>
<text text-anchor="middle" x="879.401" y="-116.5" font-family="Helvetica,sans-Serif" font-size="10.00">vector</text>
</g>
<!-- Node14&#45;&gt;Node16 -->
<g id="edge22" class="edge"><title>Node14&#45;&gt;Node16</title>
<path fill="none" stroke="midnightblue" d="M839.745,-165.219C846.614,-157.473 857.053,-145.701 865.497,-136.18"/>
<polygon fill="midnightblue" stroke="midnightblue" points="868.247,-138.354 872.263,-128.55 863.01,-133.709 868.247,-138.354"/>
</g>
<!-- Node17 -->
<g id="node18" class="node"><title>Node17</title>
<polygon fill="none" stroke="#bfbfbf" points="731.892,-110.5 731.892,-128.5 782.911,-128.5 782.911,-110.5 731.892,-110.5"/>
<text text-anchor="middle" x="757.401" y="-116.5" font-family="Helvetica,sans-Serif" font-size="10.00">iomanip</text>
</g>
<!-- Node14&#45;&gt;Node17 -->
<g id="edge23" class="edge"><title>Node14&#45;&gt;Node17</title>
<path fill="none" stroke="midnightblue" d="M821.01,-165.45C809.447,-157.279 791.308,-144.46 777.354,-134.6"/>
<polygon fill="midnightblue" stroke="midnightblue" points="779.086,-131.538 768.899,-128.625 775.046,-137.255 779.086,-131.538"/>
</g>
<!-- Node14&#45;&gt;Node18 -->
<g id="edge25" class="edge"><title>Node14&#45;&gt;Node18</title>
<path fill="none" stroke="midnightblue" d="M771.368,-166.995C692.656,-158.593 551.216,-143.455 419.679,-129.137"/>
<polygon fill="midnightblue" stroke="midnightblue" points="419.74,-125.623 409.42,-128.019 418.983,-132.581 419.74,-125.623"/>
</g>
<!-- Node18&#45;&gt;Node2 -->
<g id="edge33" class="edge"><title>Node18&#45;&gt;Node2</title>
<path fill="none" stroke="midnightblue" d="M289.75,-110.446C235.533,-101.877 147.853,-87.6949 72.4014,-74 71.3157,-73.8029 70.2151,-73.6009 69.1046,-73.3952"/>
<polygon fill="midnightblue" stroke="midnightblue" points="69.4638,-69.9009 58.9864,-71.4742 68.1581,-76.7781 69.4638,-69.9009"/>
</g>
<!-- Node18&#45;&gt;Node9 -->
<g id="edge29" class="edge"><title>Node18&#45;&gt;Node9</title>
<path fill="none" stroke="midnightblue" d="M409.41,-110.875C412.448,-110.572 415.456,-110.278 418.401,-110 617.334,-91.2044 856.133,-74.2715 946.911,-68.0376"/>
<polygon fill="midnightblue" stroke="midnightblue" points="947.248,-71.5228 956.986,-67.348 946.77,-64.5392 947.248,-71.5228"/>
</g>
<!-- Node18&#45;&gt;Node11 -->
<g id="edge31" class="edge"><title>Node18&#45;&gt;Node11</title>
<path fill="none" stroke="midnightblue" d="M384.638,-110.473C429.176,-102.144 500.872,-88.5735 571.948,-74.2642"/>
<polygon fill="midnightblue" stroke="midnightblue" points="572.861,-77.6506 581.971,-72.2406 571.476,-70.7891 572.861,-77.6506"/>
</g>
<!-- Node19 -->
<g id="node20" class="node"><title>Node19</title>
<polygon fill="none" stroke="#bfbfbf" points="144.286,-0.5 144.286,-18.5 192.517,-18.5 192.517,-0.5 144.286,-0.5"/>
<text text-anchor="middle" x="168.401" y="-6.5" font-family="Helvetica,sans-Serif" font-size="10.00">cassert</text>
</g>
<!-- Node18&#45;&gt;Node19 -->
<g id="edge26" class="edge"><title>Node18&#45;&gt;Node19</title>
<path fill="none" stroke="midnightblue" d="M273.368,-115.077C211.394,-110.365 126.424,-99.3572 105.401,-74 89.8263,-55.2136 117.11,-35.5645 140.505,-23.1903"/>
<polygon fill="midnightblue" stroke="midnightblue" points="142.143,-26.2841 149.506,-18.6661 138.999,-20.0296 142.143,-26.2841"/>
</g>
<!-- Node20 -->
<g id="node21" class="node"><title>Node20</title>
<polygon fill="none" stroke="#bfbfbf" points="390.281,-0.5 390.281,-18.5 438.522,-18.5 438.522,-0.5 390.281,-0.5"/>
<text text-anchor="middle" x="414.401" y="-6.5" font-family="Helvetica,sans-Serif" font-size="10.00">cstddef</text>
</g>
<!-- Node18&#45;&gt;Node20 -->
<g id="edge27" class="edge"><title>Node18&#45;&gt;Node20</title>
<path fill="none" stroke="midnightblue" d="M370.834,-110.469C388.873,-103.858 410.526,-92.4948 421.401,-74 429.564,-60.1192 426.216,-41.5586 421.789,-28.091"/>
<polygon fill="midnightblue" stroke="midnightblue" points="425.003,-26.6956 418.206,-18.5689 418.452,-29.1609 425.003,-26.6956"/>
</g>
<!-- Node21 -->
<g id="node22" class="node"><title>Node21</title>
<polygon fill="none" stroke="#bfbfbf" points="456.229,-0.5 456.229,-18.5 500.574,-18.5 500.574,-0.5 456.229,-0.5"/>
<text text-anchor="middle" x="478.401" y="-6.5" font-family="Helvetica,sans-Serif" font-size="10.00">cstdlib</text>
</g>
<!-- Node18&#45;&gt;Node21 -->
<g id="edge28" class="edge"><title>Node18&#45;&gt;Node21</title>
<path fill="none" stroke="midnightblue" d="M369.331,-110.495C390.15,-103.463 418.332,-91.5802 438.401,-74 452.928,-61.275 464.042,-41.9987 470.826,-28.0229"/>
<polygon fill="midnightblue" stroke="midnightblue" points="474.175,-29.1146 475.154,-18.565 467.81,-26.2017 474.175,-29.1146"/>
</g>
<!-- Node22 -->
<g id="node23" class="node"><title>Node22</title>
<polygon fill="none" stroke="#bfbfbf" points="114.783,-55.5 114.783,-73.5 168.02,-73.5 168.02,-55.5 114.783,-55.5"/>
<text text-anchor="middle" x="141.401" y="-61.5" font-family="Helvetica,sans-Serif" font-size="10.00">complex</text>
</g>
<!-- Node18&#45;&gt;Node22 -->
<g id="edge30" class="edge"><title>Node18&#45;&gt;Node22</title>
<path fill="none" stroke="midnightblue" d="M311.026,-110.45C275.315,-100.987 216.086,-85.2915 177.91,-75.1749"/>
<polygon fill="midnightblue" stroke="midnightblue" points="178.775,-71.7833 168.212,-72.6048 176.982,-78.5497 178.775,-71.7833"/>
</g>
<!-- Node23 -->
<g id="node24" class="node"><title>Node23</title>
<polygon fill="none" stroke="#bfbfbf" points="505.998,-55.5 505.998,-73.5 564.805,-73.5 564.805,-55.5 505.998,-55.5"/>
<text text-anchor="middle" x="535.401" y="-61.5" font-family="Helvetica,sans-Serif" font-size="10.00">exception</text>
</g>
<!-- Node18&#45;&gt;Node23 -->
<g id="edge32" class="edge"><title>Node18&#45;&gt;Node23</title>
<path fill="none" stroke="midnightblue" d="M370.866,-110.45C404.292,-101.318 458.961,-86.3833 496.024,-76.2578"/>
<polygon fill="midnightblue" stroke="midnightblue" points="497.254,-79.55 505.978,-73.5383 495.409,-72.7975 497.254,-79.55"/>
</g>
<!-- Node24 -->
<g id="node25" class="node"><title>Node24</title>
<g id="a_node25"><a xlink:href="cxxdefs_8h.html" target="_top" xlink:title="Basic definitions, which may have to be defined before any Eigen headers or further utilities are inc...">
<polygon fill="none" stroke="black" points="270.591,-55.5 270.591,-73.5 412.211,-73.5 412.211,-55.5 270.591,-55.5"/>
<text text-anchor="middle" x="341.401" y="-61.5" font-family="Helvetica,sans-Serif" font-size="10.00">tomographer/tools/cxxdefs.h</text>
</a>
</g>
</g>
<!-- Node18&#45;&gt;Node24 -->
<g id="edge34" class="edge"><title>Node18&#45;&gt;Node24</title>
<path fill="none" stroke="midnightblue" d="M341.401,-110.219C341.401,-103.177 341.401,-92.8083 341.401,-83.8277"/>
<polygon fill="midnightblue" stroke="midnightblue" points="344.901,-83.5495 341.401,-73.5496 337.901,-83.5496 344.901,-83.5495"/>
</g>
<!-- Node18&#45;&gt;Node26 -->
<g id="edge39" class="edge"><title>Node18&#45;&gt;Node26</title>
<path fill="none" stroke="midnightblue" d="M409.403,-110.806C412.443,-110.521 415.453,-110.251 418.401,-110 682.211,-87.5654 751.601,-95.9535 1018.89,-74.0881"/>
<polygon fill="midnightblue" stroke="midnightblue" points="1019.21,-77.5735 1028.89,-73.2635 1018.63,-70.5972 1019.21,-77.5735"/>
</g>
<!-- Node27 -->
<g id="node28" class="node"><title>Node27</title>
<polygon fill="none" stroke="#bfbfbf" points="186.387,-55.5 186.387,-73.5 252.416,-73.5 252.416,-55.5 186.387,-55.5"/>
<text text-anchor="middle" x="219.401" y="-61.5" font-family="Helvetica,sans-Serif" font-size="10.00">Eigen/Core</text>
</g>
<!-- Node18&#45;&gt;Node27 -->
<g id="edge41" class="edge"><title>Node18&#45;&gt;Node27</title>
<path fill="none" stroke="midnightblue" d="M322.872,-110.45C302.808,-101.734 270.574,-87.7306 247.413,-77.6691"/>
<polygon fill="midnightblue" stroke="midnightblue" points="248.671,-74.3997 238.105,-73.6253 245.882,-80.8201 248.671,-74.3997"/>
</g>
<!-- Node24&#45;&gt;Node19 -->
<g id="edge35" class="edge"><title>Node24&#45;&gt;Node19</title>
<path fill="none" stroke="midnightblue" d="M315.126,-55.4504C284.973,-46.2128 235.437,-31.0369 202.376,-20.9084"/>
<polygon fill="midnightblue" stroke="midnightblue" points="203.271,-17.522 192.684,-17.9392 201.22,-24.215 203.271,-17.522"/>
</g>
<!-- Node24&#45;&gt;Node20 -->
<g id="edge36" class="edge"><title>Node24&#45;&gt;Node20</title>
<path fill="none" stroke="midnightblue" d="M352.488,-55.4504C363.744,-47.2788 381.399,-34.4604 394.981,-24.5996"/>
<polygon fill="midnightblue" stroke="midnightblue" points="397.174,-27.3327 403.21,-18.6253 393.061,-21.6682 397.174,-27.3327"/>
</g>
<!-- Node24&#45;&gt;Node21 -->
<g id="edge37" class="edge"><title>Node24&#45;&gt;Node21</title>
<path fill="none" stroke="midnightblue" d="M362.209,-55.4504C385.042,-46.6173 421.909,-32.3546 447.985,-22.267"/>
<polygon fill="midnightblue" stroke="midnightblue" points="449.335,-25.4977 457.398,-18.6253 446.809,-18.9692 449.335,-25.4977"/>
</g>
<!-- Node25 -->
<g id="node26" class="node"><title>Node25</title>
<polygon fill="none" stroke="#bfbfbf" points="292.434,-0.5 292.434,-18.5 372.369,-18.5 372.369,-0.5 292.434,-0.5"/>
<text text-anchor="middle" x="332.401" y="-6.5" font-family="Helvetica,sans-Serif" font-size="10.00">boost/predef.h</text>
</g>
<!-- Node24&#45;&gt;Node25 -->
<g id="edge38" class="edge"><title>Node24&#45;&gt;Node25</title>
<path fill="none" stroke="midnightblue" d="M339.995,-55.2188C338.786,-48.0986 336.999,-37.5775 335.463,-28.5289"/>
<polygon fill="midnightblue" stroke="midnightblue" points="338.893,-27.8224 333.768,-18.5496 331.992,-28.9944 338.893,-27.8224"/>
</g>
<!-- Node26&#45;&gt;Node7 -->
<g id="edge40" class="edge"><title>Node26&#45;&gt;Node7</title>
<path fill="none" stroke="midnightblue" d="M1087.34,-55.4504C1073.83,-47.1232 1052.49,-33.9704 1036.37,-24.0394"/>
<polygon fill="midnightblue" stroke="midnightblue" points="1037.94,-20.8922 1027.59,-18.6253 1034.26,-26.8515 1037.94,-20.8922"/>
</g>
<!-- Node28&#45;&gt;Node11 -->
<g id="edge45" class="edge"><title>Node28&#45;&gt;Node11</title>
<path fill="none" stroke="midnightblue" d="M418.383,-165.467C441.149,-157.237 476.799,-143.609 506.401,-129 537.449,-113.678 571.563,-92.65 592.733,-79.0675"/>
<polygon fill="midnightblue" stroke="midnightblue" points="594.735,-81.9408 601.229,-73.5693 590.932,-76.064 594.735,-81.9408"/>
</g>
<!-- Node28&#45;&gt;Node18 -->
<g id="edge47" class="edge"><title>Node28&#45;&gt;Node18</title>
<path fill="none" stroke="midnightblue" d="M386.964,-165.219C378.912,-157.316 366.592,-145.224 356.792,-135.606"/>
<polygon fill="midnightblue" stroke="midnightblue" points="359.191,-133.056 349.603,-128.55 354.288,-138.052 359.191,-133.056"/>
</g>
<!-- Node29 -->
<g id="node30" class="node"><title>Node29</title>
<polygon fill="none" stroke="#bfbfbf" points="427.436,-110.5 427.436,-128.5 497.367,-128.5 497.367,-110.5 427.436,-110.5"/>
<text text-anchor="middle" x="462.401" y="-116.5" font-family="Helvetica,sans-Serif" font-size="10.00">Eigen/Eigen</text>
</g>
<!-- Node28&#45;&gt;Node29 -->
<g id="edge46" class="edge"><title>Node28&#45;&gt;Node29</title>
<path fill="none" stroke="midnightblue" d="M405.577,-165.45C415.809,-157.357 431.804,-144.704 444.22,-134.882"/>
<polygon fill="midnightblue" stroke="midnightblue" points="446.458,-137.574 452.13,-128.625 442.115,-132.084 446.458,-137.574"/>
</g>
<!-- Node30&#45;&gt;Node1 -->
<g id="edge51" class="edge"><title>Node30&#45;&gt;Node1</title>
<path fill="none" stroke="midnightblue" d="M646.16,-225.439C638.31,-216.174 626.137,-200.157 620.401,-184 615.24,-169.459 613.919,-151.934 613.788,-138.982"/>
<polygon fill="midnightblue" stroke="midnightblue" points="617.293,-138.635 613.926,-128.589 610.293,-138.542 617.293,-138.635"/>
</g>
<!-- Node30&#45;&gt;Node7 -->
<g id="edge50" class="edge"><title>Node30&#45;&gt;Node7</title>
<path fill="none" stroke="midnightblue" d="M659.36,-225.311C666.258,-215.668 677.774,-199.055 686.401,-184 704.587,-152.267 694.982,-134.205 722.401,-110 799.726,-41.7395 925.966,-19.8712 983.762,-13.2258"/>
<polygon fill="midnightblue" stroke="midnightblue" points="984.482,-16.6687 994.052,-12.1223 983.736,-9.70861 984.482,-16.6687"/>
</g>
<!-- Node30&#45;&gt;Node14 -->
<g id="edge53" class="edge"><title>Node30&#45;&gt;Node14</title>
<path fill="none" stroke="midnightblue" d="M678.291,-225.435C709.329,-215.378 762.567,-198.128 797.624,-186.769"/>
<polygon fill="midnightblue" stroke="midnightblue" points="799.001,-190.002 807.436,-183.589 796.844,-183.342 799.001,-190.002"/>
</g>
<!-- Node30&#45;&gt;Node23 -->
<g id="edge52" class="edge"><title>Node30&#45;&gt;Node23</title>
<path fill="none" stroke="midnightblue" d="M646.135,-225.328C637.693,-215.702 623.506,-199.104 612.401,-184 586.714,-149.062 559.792,-105.88 545.585,-82.4931"/>
<polygon fill="midnightblue" stroke="midnightblue" points="548.48,-80.516 540.315,-73.7636 542.487,-84.1335 548.48,-80.516"/>
</g>
<!-- Node30&#45;&gt;Node28 -->
<g id="edge54" class="edge"><title>Node30&#45;&gt;Node28</title>
<path fill="none" stroke="midnightblue" d="M617.798,-225.496C571.759,-215.146 491.51,-197.106 441.039,-185.76"/>
<polygon fill="midnightblue" stroke="midnightblue" points="441.577,-182.293 431.053,-183.515 440.042,-189.123 441.577,-182.293"/>
</g>
<!-- Node31 -->
<g id="node32" class="node"><title>Node31</title>
<polygon fill="none" stroke="#bfbfbf" points="629.837,-165.5 629.837,-183.5 676.965,-183.5 676.965,-165.5 629.837,-165.5"/>
<text text-anchor="middle" x="653.401" y="-171.5" font-family="Helvetica,sans-Serif" font-size="10.00">csignal</text>
</g>
<!-- Node30&#45;&gt;Node31 -->
<g id="edge49" class="edge"><title>Node30&#45;&gt;Node31</title>
<path fill="none" stroke="midnightblue" d="M653.401,-225.435C653.401,-217.389 653.401,-204.739 653.401,-194.185"/>
<polygon fill="midnightblue" stroke="midnightblue" points="656.901,-193.872 653.401,-183.872 649.901,-193.872 656.901,-193.872"/>
</g>
</g>
</svg>
