<?xml version="1.0" encoding="UTF-8" standalone="no"?>
<!DOCTYPE svg PUBLIC "-//W3C//DTD SVG 1.1//EN"
 "http://www.w3.org/Graphics/SVG/1.1/DTD/svg11.dtd">
<!-- Generated by graphviz version 2.38.0 (20140413.2041)
 -->
<!-- Title: tomographer/multiprocomp.h Pages: 1 -->
<!--zoomable 312 -->
<svg id="main" version="1.1" xmlns="http://www.w3.org/2000/svg" xmlns:xlink="http://www.w3.org/1999/xlink" xml:space="preserve" onload="init(evt)">
<style type="text/css"><![CDATA[
.edge:hover path { stroke: red; }
.edge:hover polygon { stroke: red; fill: red; }
]]></style>
<script type="text/javascript"><![CDATA[
var edges = document.getElementsByTagName('g');
if (edges && edges.length) {
  for (var i=0;i<edges.length;i++) {
    if (edges[i].id.substr(0,4)=='edge') {
      edges[i].setAttribute('class','edge');
    }
  }
}
]]></script>
        <defs>
                <circle id="rim" cx="0" cy="0" r="7"/>
                <circle id="rim2" cx="0" cy="0" r="3.5"/>
                <g id="zoomPlus">
                        <use xlink:href="#rim" fill="#404040">
                                <set attributeName="fill" to="#808080" begin="zoomplus.mouseover" end="zoomplus.mouseout"/>
                        </use>
                        <path d="M-4,0h8M0,-4v8" fill="none" stroke="white" stroke-width="1.5" pointer-events="none"/>
                </g>
                <g id="zoomMin">
                        <use xlink:href="#rim" fill="#404040">
                                <set attributeName="fill" to="#808080" begin="zoomminus.mouseover" end="zoomminus.mouseout"/>
                        </use>
                        <path d="M-4,0h8" fill="none" stroke="white" stroke-width="1.5" pointer-events="none"/>
                </g>
                <g id="dirArrow">
                        <path fill="none" stroke="white" stroke-width="1.5" d="M0,-3.0v7 M-2.5,-0.5L0,-3.0L2.5,-0.5"/>
                </g>
               <g id="resetDef">
                       <use xlink:href="#rim2" fill="#404040">
                               <set attributeName="fill" to="#808080" begin="reset.mouseover" end="reset.mouseout"/>
                       </use>
               </g>
        </defs>

<script type="text/javascript">
var viewWidth = 1643;
var viewHeight = 312;
var sectionId = 'dynsection-0';
</script>
<script xlink:href="svgpan.js"/>
<svg id="graph" class="graph">
<g id="viewport">
<title>tomographer/multiprocomp.h</title>
<!-- Node0 -->
<g id="node1" class="node"><title>Node0</title>
<polygon fill="#bfbfbf" stroke="black" points="478.483,-285.5 478.483,-303.5 622.32,-303.5 622.32,-285.5 478.483,-285.5"/>
<text text-anchor="middle" x="550.401" y="-291.5" font-family="Helvetica,sans-Serif" font-size="10.00">tomographer/multiprocomp.h</text>
</g>
<!-- Node1 -->
<g id="node2" class="node"><title>Node1</title>
<polygon fill="none" stroke="#bfbfbf" points="336.837,-165.5 336.837,-183.5 383.965,-183.5 383.965,-165.5 336.837,-165.5"/>
<text text-anchor="middle" x="360.401" y="-171.5" font-family="Helvetica,sans-Serif" font-size="10.00">csignal</text>
</g>
<!-- Node0&#45;&gt;Node1 -->
<g id="edge1" class="edge"><title>Node0&#45;&gt;Node1</title>
<path fill="none" stroke="midnightblue" d="M478.058,-291.103C443.956,-286.266 405.193,-274.834 379.401,-249 364.875,-234.45 360.997,-210.339 360.184,-193.723"/>
<polygon fill="midnightblue" stroke="midnightblue" points="363.682,-193.568 360.018,-183.627 356.683,-193.683 363.682,-193.568"/>
</g>
<!-- Node2 -->
<g id="node3" class="node"><title>Node2</title>
<polygon fill="none" stroke="#bfbfbf" points="699.113,-110.5 699.113,-128.5 745.689,-128.5 745.689,-110.5 699.113,-110.5"/>
<text text-anchor="middle" x="722.401" y="-116.5" font-family="Helvetica,sans-Serif" font-size="10.00">chrono</text>
</g>
<!-- Node0&#45;&gt;Node2 -->
<g id="edge2" class="edge"><title>Node0&#45;&gt;Node2</title>
<path fill="none" stroke="midnightblue" d="M603.617,-285.46C644.968,-278.049 697.549,-265.673 711.401,-249 737.443,-217.656 732.017,-165.931 726.703,-138.647"/>
<polygon fill="midnightblue" stroke="midnightblue" points="730.061,-137.614 724.525,-128.581 723.219,-139.095 730.061,-137.614"/>
</g>
<!-- Node3 -->
<g id="node4" class="node"><title>Node3</title>
<polygon fill="none" stroke="#bfbfbf" points="0,-55.5 0,-73.5 58.8027,-73.5 58.8027,-55.5 0,-55.5"/>
<text text-anchor="middle" x="29.4014" y="-61.5" font-family="Helvetica,sans-Serif" font-size="10.00">stdexcept</text>
</g>
<!-- Node0&#45;&gt;Node3 -->
<g id="edge3" class="edge"><title>Node0&#45;&gt;Node3</title>
<path fill="none" stroke="midnightblue" d="M478.264,-285.708C433.675,-279.296 375.902,-268.06 327.401,-249 212.362,-203.79 91.9701,-114.552 47.3818,-79.8131"/>
<polygon fill="midnightblue" stroke="midnightblue" points="49.5249,-77.0459 39.4989,-73.6211 45.2009,-82.5507 49.5249,-77.0459"/>
</g>
<!-- Node4 -->
<g id="node5" class="node"><title>Node4</title>
<polygon fill="none" stroke="#bfbfbf" points="388.473,-220.5 388.473,-248.5 522.33,-248.5 522.33,-220.5 388.473,-220.5"/>
<text text-anchor="start" x="396.473" y="-236.5" font-family="Helvetica,sans-Serif" font-size="10.00">boost/exception/diagnostic</text>
<text text-anchor="middle" x="455.401" y="-226.5" font-family="Helvetica,sans-Serif" font-size="10.00">_information.hpp</text>
</g>
<!-- Node0&#45;&gt;Node4 -->
<g id="edge4" class="edge"><title>Node0&#45;&gt;Node4</title>
<path fill="none" stroke="midnightblue" d="M537.192,-285.435C523.907,-277.324 502.959,-264.535 485.589,-253.93"/>
<polygon fill="midnightblue" stroke="midnightblue" points="487.25,-250.844 476.892,-248.62 483.603,-256.819 487.25,-250.844"/>
</g>
<!-- Node5 -->
<g id="node6" class="node"><title>Node5</title>
<g id="a_node6"><a xlink:href="loggers_8h.html" target="_top" xlink:title="Utilities for logging messages. ">
<polygon fill="none" stroke="black" points="1181.14,-225.5 1181.14,-243.5 1321.66,-243.5 1321.66,-225.5 1181.14,-225.5"/>
<text text-anchor="middle" x="1251.4" y="-231.5" font-family="Helvetica,sans-Serif" font-size="10.00">tomographer/tools/loggers.h</text>
</a>
</g>
</g>
<!-- Node0&#45;&gt;Node5 -->
<g id="edge5" class="edge"><title>Node0&#45;&gt;Node5</title>
<path fill="none" stroke="midnightblue" d="M622.453,-287.539C754.192,-276.639 1033.01,-253.569 1170.82,-242.167"/>
<polygon fill="midnightblue" stroke="midnightblue" points="1171.22,-245.646 1180.9,-241.333 1170.65,-238.67 1171.22,-245.646"/>
</g>
<!-- Node19 -->
<g id="node20" class="node"><title>Node19</title>
<g id="a_node20"><a xlink:href="cxxutil_8h.html" target="_top" xlink:title="Some C++ utilities, with a tad of C++11 tricks. ">
<polygon fill="none" stroke="black" points="343.65,-110.5 343.65,-128.5 479.152,-128.5 479.152,-110.5 343.65,-110.5"/>
<text text-anchor="middle" x="411.401" y="-116.5" font-family="Helvetica,sans-Serif" font-size="10.00">tomographer/tools/cxxutil.h</text>
</a>
</g>
</g>
<!-- Node0&#45;&gt;Node19 -->
<g id="edge44" class="edge"><title>Node0&#45;&gt;Node19</title>
<path fill="none" stroke="midnightblue" d="M478.23,-291.01C439.792,-286.372 393.712,-275.149 360.401,-249 328.851,-224.232 306.717,-199.366 327.401,-165 336.792,-149.398 353.694,-138.978 369.887,-132.172"/>
<polygon fill="midnightblue" stroke="midnightblue" points="371.193,-135.419 379.277,-128.57 368.686,-128.884 371.193,-135.419"/>
</g>
<!-- Node29 -->
<g id="node30" class="node"><title>Node29</title>
<g id="a_node30"><a xlink:href="needownoperatornew_8h.html" target="_top" xlink:title="Managing the need for specific overrides to operator new() for some types (especially Eigen types) ...">
<polygon fill="none" stroke="black" points="401.725,-165.5 401.725,-183.5 605.078,-183.5 605.078,-165.5 401.725,-165.5"/>
<text text-anchor="middle" x="503.401" y="-171.5" font-family="Helvetica,sans-Serif" font-size="10.00">tomographer/tools/needownoperatornew.h</text>
</a>
</g>
</g>
<!-- Node0&#45;&gt;Node29 -->
<g id="edge45" class="edge"><title>Node0&#45;&gt;Node29</title>
<path fill="none" stroke="midnightblue" d="M549.095,-285.068C546.742,-271.11 541.112,-242.509 531.401,-220 527.145,-210.135 520.884,-199.934 515.361,-191.792"/>
<polygon fill="midnightblue" stroke="midnightblue" points="518.208,-189.757 509.585,-183.601 512.488,-193.791 518.208,-189.757"/>
</g>
<!-- Node31 -->
<g id="node32" class="node"><title>Node31</title>
<g id="a_node32"><a xlink:href="multiproc_8h.html" target="_top" xlink:title="Some common definitions for multiprocessing interfaces. ">
<polygon fill="none" stroke="black" points="578.209,-225.5 578.209,-243.5 702.593,-243.5 702.593,-225.5 578.209,-225.5"/>
<text text-anchor="middle" x="640.401" y="-231.5" font-family="Helvetica,sans-Serif" font-size="10.00">tomographer/multiproc.h</text>
</a>
</g>
</g>
<!-- Node0&#45;&gt;Node31 -->
<g id="edge49" class="edge"><title>Node0&#45;&gt;Node31</title>
<path fill="none" stroke="midnightblue" d="M562.915,-285.435C577.476,-276.052 601.751,-260.408 619.255,-249.128"/>
<polygon fill="midnightblue" stroke="midnightblue" points="621.194,-252.042 627.703,-243.683 617.402,-246.158 621.194,-252.042"/>
</g>
<!-- Node32 -->
<g id="node33" class="node"><title>Node32</title>
<polygon fill="none" stroke="#bfbfbf" points="1339.22,-225.5 1339.22,-243.5 1383.58,-243.5 1383.58,-225.5 1339.22,-225.5"/>
<text text-anchor="middle" x="1361.4" y="-231.5" font-family="Helvetica,sans-Serif" font-size="10.00">thread</text>
</g>
<!-- Node0&#45;&gt;Node32 -->
<g id="edge56" class="edge"><title>Node0&#45;&gt;Node32</title>
<path fill="none" stroke="midnightblue" d="M622.398,-292.628C789.043,-290.087 1197.22,-280.725 1330.4,-249 1332.33,-248.541 1334.29,-247.968 1336.23,-247.32"/>
<polygon fill="midnightblue" stroke="midnightblue" points="1337.65,-250.525 1345.68,-243.623 1335.1,-244.006 1337.65,-250.525"/>
</g>
<!-- Node6 -->
<g id="node7" class="node"><title>Node6</title>
<polygon fill="none" stroke="#bfbfbf" points="1026.34,-110.5 1026.34,-128.5 1068.46,-128.5 1068.46,-110.5 1026.34,-110.5"/>
<text text-anchor="middle" x="1047.4" y="-116.5" font-family="Helvetica,sans-Serif" font-size="10.00">cstdio</text>
</g>
<!-- Node5&#45;&gt;Node6 -->
<g id="edge6" class="edge"><title>Node5&#45;&gt;Node6</title>
<path fill="none" stroke="midnightblue" d="M1236.73,-225.373C1201.74,-205.99 1113.14,-156.914 1070.73,-133.421"/>
<polygon fill="midnightblue" stroke="midnightblue" points="1072.38,-130.337 1061.94,-128.553 1068.99,-136.46 1072.38,-130.337"/>
</g>
<!-- Node7 -->
<g id="node8" class="node"><title>Node7</title>
<polygon fill="none" stroke="#bfbfbf" points="1086,-110.5 1086,-128.5 1134.8,-128.5 1134.8,-110.5 1086,-110.5"/>
<text text-anchor="middle" x="1110.4" y="-116.5" font-family="Helvetica,sans-Serif" font-size="10.00">cstdarg</text>
</g>
<!-- Node5&#45;&gt;Node7 -->
<g id="edge7" class="edge"><title>Node5&#45;&gt;Node7</title>
<path fill="none" stroke="midnightblue" d="M1241.26,-225.373C1217.58,-206.397 1158.4,-158.963 1128.41,-134.935"/>
<polygon fill="midnightblue" stroke="midnightblue" points="1130.44,-132.076 1120.45,-128.553 1126.06,-137.538 1130.44,-132.076"/>
</g>
<!-- Node8 -->
<g id="node9" class="node"><title>Node8</title>
<polygon fill="none" stroke="#bfbfbf" points="799.175,-0.5 799.175,-18.5 839.628,-18.5 839.628,-0.5 799.175,-0.5"/>
<text text-anchor="middle" x="819.401" y="-6.5" font-family="Helvetica,sans-Serif" font-size="10.00">string</text>
</g>
<!-- Node5&#45;&gt;Node8 -->
<g id="edge8" class="edge"><title>Node5&#45;&gt;Node8</title>
<path fill="none" stroke="midnightblue" d="M1310.83,-225.432C1336.28,-218.728 1363.71,-206.459 1379.4,-184 1398.24,-157.04 1401.53,-135.207 1380.4,-110 1311.52,-27.8249 956.945,-13.4727 849.983,-11.0041"/>
<polygon fill="midnightblue" stroke="midnightblue" points="849.933,-7.50239 839.861,-10.7896 849.784,-14.5008 849.933,-7.50239"/>
</g>
<!-- Node9 -->
<g id="node10" class="node"><title>Node9</title>
<polygon fill="none" stroke="#bfbfbf" points="1152.62,-110.5 1152.62,-128.5 1204.18,-128.5 1204.18,-110.5 1152.62,-110.5"/>
<text text-anchor="middle" x="1178.4" y="-116.5" font-family="Helvetica,sans-Serif" font-size="10.00">sstream</text>
</g>
<!-- Node5&#45;&gt;Node9 -->
<g id="edge9" class="edge"><title>Node5&#45;&gt;Node9</title>
<path fill="none" stroke="midnightblue" d="M1246.15,-225.373C1234.26,-206.967 1205.07,-161.788 1189.17,-137.162"/>
<polygon fill="midnightblue" stroke="midnightblue" points="1191.97,-135.054 1183.6,-128.553 1186.09,-138.852 1191.97,-135.054"/>
</g>
<!-- Node10 -->
<g id="node11" class="node"><title>Node10</title>
<polygon fill="none" stroke="#bfbfbf" points="971.229,-55.5 971.229,-73.5 1025.57,-73.5 1025.57,-55.5 971.229,-55.5"/>
<text text-anchor="middle" x="998.401" y="-61.5" font-family="Helvetica,sans-Serif" font-size="10.00">iostream</text>
</g>
<!-- Node5&#45;&gt;Node10 -->
<g id="edge10" class="edge"><title>Node5&#45;&gt;Node10</title>
<path fill="none" stroke="midnightblue" d="M1295.37,-225.444C1318.96,-218.643 1346.05,-206.277 1360.4,-184 1378.21,-156.351 1382.19,-134.634 1360.4,-110 1339.11,-85.931 1123.96,-72.0525 1035.79,-67.3375"/>
<polygon fill="midnightblue" stroke="midnightblue" points="1035.86,-63.8363 1025.69,-66.8078 1035.49,-70.8267 1035.86,-63.8363"/>
</g>
<!-- Node11 -->
<g id="node12" class="node"><title>Node11</title>
<polygon fill="none" stroke="#bfbfbf" points="1222,-110.5 1222,-128.5 1280.81,-128.5 1280.81,-110.5 1222,-110.5"/>
<text text-anchor="middle" x="1251.4" y="-116.5" font-family="Helvetica,sans-Serif" font-size="10.00">functional</text>
</g>
<!-- Node5&#45;&gt;Node11 -->
<g id="edge11" class="edge"><title>Node5&#45;&gt;Node11</title>
<path fill="none" stroke="midnightblue" d="M1251.4,-225.373C1251.4,-207.374 1251.4,-163.774 1251.4,-138.826"/>
<polygon fill="midnightblue" stroke="midnightblue" points="1254.9,-138.553 1251.4,-128.553 1247.9,-138.553 1254.9,-138.553"/>
</g>
<!-- Node12 -->
<g id="node13" class="node"><title>Node12</title>
<polygon fill="none" stroke="#bfbfbf" points="581.335,-55.5 581.335,-73.5 643.468,-73.5 643.468,-55.5 581.335,-55.5"/>
<text text-anchor="middle" x="612.401" y="-61.5" font-family="Helvetica,sans-Serif" font-size="10.00">type_traits</text>
</g>
<!-- Node5&#45;&gt;Node12 -->
<g id="edge12" class="edge"><title>Node5&#45;&gt;Node12</title>
<path fill="none" stroke="midnightblue" d="M1258.54,-225.374C1276.74,-203.689 1321.24,-143.806 1289.4,-110 1243.69,-61.4596 756.84,-79.6132 690.401,-74 678.433,-72.9889 665.457,-71.6659 653.586,-70.3659"/>
<polygon fill="midnightblue" stroke="midnightblue" points="653.818,-66.8702 643.491,-69.2378 653.041,-73.8269 653.818,-66.8702"/>
</g>
<!-- Node13 -->
<g id="node14" class="node"><title>Node13</title>
<polygon fill="none" stroke="#bfbfbf" points="1450.67,-165.5 1450.67,-183.5 1486.13,-183.5 1486.13,-165.5 1450.67,-165.5"/>
<text text-anchor="middle" x="1468.4" y="-171.5" font-family="Helvetica,sans-Serif" font-size="10.00">map</text>
</g>
<!-- Node5&#45;&gt;Node13 -->
<g id="edge13" class="edge"><title>Node5&#45;&gt;Node13</title>
<path fill="none" stroke="midnightblue" d="M1281.57,-225.435C1323.78,-214.154 1399.86,-193.82 1440.7,-182.905"/>
<polygon fill="midnightblue" stroke="midnightblue" points="1441.76,-186.244 1450.52,-180.28 1439.95,-179.481 1441.76,-186.244"/>
</g>
<!-- Node14 -->
<g id="node15" class="node"><title>Node14</title>
<polygon fill="none" stroke="#bfbfbf" points="1503.87,-165.5 1503.87,-183.5 1634.93,-183.5 1634.93,-165.5 1503.87,-165.5"/>
<text text-anchor="middle" x="1569.4" y="-171.5" font-family="Helvetica,sans-Serif" font-size="10.00">boost/algorithm/string.hpp</text>
</g>
<!-- Node5&#45;&gt;Node14 -->
<g id="edge14" class="edge"><title>Node5&#45;&gt;Node14</title>
<path fill="none" stroke="midnightblue" d="M1295.28,-225.496C1352.74,-215.017 1453.43,-196.653 1515.47,-185.336"/>
<polygon fill="midnightblue" stroke="midnightblue" points="1516.25,-188.752 1525.46,-183.515 1514.99,-181.866 1516.25,-188.752"/>
</g>
<!-- Node15 -->
<g id="node16" class="node"><title>Node15</title>
<g id="a_node16"><a xlink:href="fmt_8h.html" target="_top" xlink:title="Utilities for formatting strings. ">
<polygon fill="none" stroke="black" points="883.599,-165.5 883.599,-183.5 1005.2,-183.5 1005.2,-165.5 883.599,-165.5"/>
<text text-anchor="middle" x="944.401" y="-171.5" font-family="Helvetica,sans-Serif" font-size="10.00">tomographer/tools/fmt.h</text>
</a>
</g>
</g>
<!-- Node5&#45;&gt;Node15 -->
<g id="edge15" class="edge"><title>Node5&#45;&gt;Node15</title>
<path fill="none" stroke="midnightblue" d="M1209.04,-225.496C1153.68,-215.038 1056.77,-196.728 996.838,-185.407"/>
<polygon fill="midnightblue" stroke="midnightblue" points="997.3,-181.932 986.824,-183.515 996,-188.81 997.3,-181.932"/>
</g>
<!-- Node27 -->
<g id="node28" class="node"><title>Node27</title>
<g id="a_node28"><a xlink:href="conststr_8h.html" target="_top" xlink:title="A constexpr string type, suitable for basic compile&#45;time string processing. ">
<polygon fill="none" stroke="black" points="699.311,-55.5 699.311,-73.5 841.492,-73.5 841.492,-55.5 699.311,-55.5"/>
<text text-anchor="middle" x="770.401" y="-61.5" font-family="Helvetica,sans-Serif" font-size="10.00">tomographer/tools/conststr.h</text>
</a>
</g>
</g>
<!-- Node5&#45;&gt;Node27 -->
<g id="edge43" class="edge"><title>Node5&#45;&gt;Node27</title>
<path fill="none" stroke="midnightblue" d="M1272.48,-225.346C1289.39,-217.542 1311.97,-203.982 1322.4,-184 1337.62,-154.843 1344.7,-134.172 1322.4,-110 1306.69,-92.9685 1001.49,-76.3479 851.8,-69.1814"/>
<polygon fill="midnightblue" stroke="midnightblue" points="851.889,-65.6817 841.734,-68.7025 851.556,-72.6738 851.889,-65.6817"/>
</g>
<!-- Node15&#45;&gt;Node2 -->
<g id="edge18" class="edge"><title>Node15&#45;&gt;Node2</title>
<path fill="none" stroke="midnightblue" d="M910.684,-165.45C868.752,-155.44 797.607,-138.455 755.816,-128.477"/>
<polygon fill="midnightblue" stroke="midnightblue" points="756.398,-125.018 745.859,-126.1 754.773,-131.827 756.398,-125.018"/>
</g>
<!-- Node15&#45;&gt;Node6 -->
<g id="edge16" class="edge"><title>Node15&#45;&gt;Node6</title>
<path fill="none" stroke="midnightblue" d="M960.045,-165.45C976.682,-156.89 1003.23,-143.229 1022.7,-133.212"/>
<polygon fill="midnightblue" stroke="midnightblue" points="1024.32,-136.313 1031.61,-128.625 1021.12,-130.089 1024.32,-136.313"/>
</g>
<!-- Node15&#45;&gt;Node7 -->
<g id="edge17" class="edge"><title>Node15&#45;&gt;Node7</title>
<path fill="none" stroke="midnightblue" d="M969.613,-165.45C998.012,-156.383 1044.33,-141.595 1076.03,-131.474"/>
<polygon fill="midnightblue" stroke="midnightblue" points="1077.3,-134.741 1085.77,-128.365 1075.18,-128.073 1077.3,-134.741"/>
</g>
<!-- Node15&#45;&gt;Node8 -->
<g id="edge19" class="edge"><title>Node15&#45;&gt;Node8</title>
<path fill="none" stroke="midnightblue" d="M894.555,-165.493C855.16,-158.028 804.808,-145.559 792.401,-129 765.79,-93.4811 839.3,-93.9573 850.401,-74 859.291,-58.0194 847.318,-39.1197 835.764,-26.1184"/>
<polygon fill="midnightblue" stroke="midnightblue" points="838.259,-23.664 828.814,-18.8644 833.205,-28.5067 838.259,-23.664"/>
</g>
<!-- Node15&#45;&gt;Node9 -->
<g id="edge20" class="edge"><title>Node15&#45;&gt;Node9</title>
<path fill="none" stroke="midnightblue" d="M981.124,-165.498C1019.06,-157.185 1080.25,-143.65 1142.43,-129.193"/>
<polygon fill="midnightblue" stroke="midnightblue" points="1143.48,-132.544 1152.42,-126.865 1141.89,-125.727 1143.48,-132.544"/>
</g>
<!-- Node15&#45;&gt;Node10 -->
<g id="edge21" class="edge"><title>Node15&#45;&gt;Node10</title>
<path fill="none" stroke="midnightblue" d="M952.42,-165.309C960.298,-156.852 972.159,-142.959 979.401,-129 986.861,-114.622 991.862,-96.8564 994.852,-83.7761"/>
<polygon fill="midnightblue" stroke="midnightblue" points="998.34,-84.1966 996.974,-73.6902 991.49,-82.7554 998.34,-84.1966"/>
</g>
<!-- Node15&#45;&gt;Node11 -->
<g id="edge25" class="edge"><title>Node15&#45;&gt;Node11</title>
<path fill="none" stroke="midnightblue" d="M998.405,-165.478C1050.6,-157.52 1132.14,-144.549 1211.77,-129.231"/>
<polygon fill="midnightblue" stroke="midnightblue" points="1212.83,-132.592 1221.98,-127.253 1211.49,-125.72 1212.83,-132.592"/>
</g>
<!-- Node16 -->
<g id="node17" class="node"><title>Node16</title>
<polygon fill="none" stroke="#bfbfbf" points="801.01,-110.5 801.01,-128.5 839.793,-128.5 839.793,-110.5 801.01,-110.5"/>
<text text-anchor="middle" x="820.401" y="-116.5" font-family="Helvetica,sans-Serif" font-size="10.00">utility</text>
</g>
<!-- Node15&#45;&gt;Node16 -->
<g id="edge22" class="edge"><title>Node15&#45;&gt;Node16</title>
<path fill="none" stroke="midnightblue" d="M925.568,-165.45C905.175,-156.734 872.413,-142.731 848.873,-132.669"/>
<polygon fill="midnightblue" stroke="midnightblue" points="849.982,-129.337 839.412,-128.625 847.231,-135.774 849.982,-129.337"/>
</g>
<!-- Node17 -->
<g id="node18" class="node"><title>Node17</title>
<polygon fill="none" stroke="#bfbfbf" points="857.786,-110.5 857.786,-128.5 901.017,-128.5 901.017,-110.5 857.786,-110.5"/>
<text text-anchor="middle" x="879.401" y="-116.5" font-family="Helvetica,sans-Serif" font-size="10.00">vector</text>
</g>
<!-- Node15&#45;&gt;Node17 -->
<g id="edge23" class="edge"><title>Node15&#45;&gt;Node17</title>
<path fill="none" stroke="midnightblue" d="M934.529,-165.45C924.698,-157.434 909.384,-144.947 897.388,-135.166"/>
<polygon fill="midnightblue" stroke="midnightblue" points="899.328,-132.232 889.366,-128.625 894.905,-137.657 899.328,-132.232"/>
</g>
<!-- Node18 -->
<g id="node19" class="node"><title>Node18</title>
<polygon fill="none" stroke="#bfbfbf" points="918.892,-110.5 918.892,-128.5 969.911,-128.5 969.911,-110.5 918.892,-110.5"/>
<text text-anchor="middle" x="944.401" y="-116.5" font-family="Helvetica,sans-Serif" font-size="10.00">iomanip</text>
</g>
<!-- Node15&#45;&gt;Node18 -->
<g id="edge24" class="edge"><title>Node15&#45;&gt;Node18</title>
<path fill="none" stroke="midnightblue" d="M944.401,-165.219C944.401,-158.177 944.401,-147.808 944.401,-138.828"/>
<polygon fill="midnightblue" stroke="midnightblue" points="947.901,-138.55 944.401,-128.55 940.901,-138.55 947.901,-138.55"/>
</g>
<!-- Node15&#45;&gt;Node19 -->
<g id="edge26" class="edge"><title>Node15&#45;&gt;Node19</title>
<path fill="none" stroke="midnightblue" d="M883.526,-167.806C798.034,-159.756 637.25,-144.414 489.574,-129.11"/>
<polygon fill="midnightblue" stroke="midnightblue" points="489.725,-125.607 479.416,-128.055 489.001,-132.57 489.725,-125.607"/>
</g>
<!-- Node19&#45;&gt;Node3 -->
<g id="edge34" class="edge"><title>Node19&#45;&gt;Node3</title>
<path fill="none" stroke="midnightblue" d="M343.355,-110.878C274.771,-102.889 165.973,-89.3734 72.4014,-74 71.3126,-73.8211 70.2091,-73.6352 69.0962,-73.4437"/>
<polygon fill="midnightblue" stroke="midnightblue" points="69.4282,-69.9468 58.9639,-71.6046 68.178,-76.8343 69.4282,-69.9468"/>
</g>
<!-- Node19&#45;&gt;Node10 -->
<g id="edge30" class="edge"><title>Node19&#45;&gt;Node10</title>
<path fill="none" stroke="midnightblue" d="M479.413,-110.907C482.45,-110.595 485.457,-110.291 488.401,-110 665.038,-92.5467 876.455,-75.2429 960.89,-68.477"/>
<polygon fill="midnightblue" stroke="midnightblue" points="961.326,-71.9534 971.015,-67.6675 960.768,-64.9757 961.326,-71.9534"/>
</g>
<!-- Node19&#45;&gt;Node12 -->
<g id="edge32" class="edge"><title>Node19&#45;&gt;Node12</title>
<path fill="none" stroke="midnightblue" d="M441.929,-110.45C476.71,-101.279 533.687,-86.2555 572.094,-76.1283"/>
<polygon fill="midnightblue" stroke="midnightblue" points="573.139,-79.4724 581.916,-73.5383 571.355,-72.7037 573.139,-79.4724"/>
</g>
<!-- Node20 -->
<g id="node21" class="node"><title>Node20</title>
<polygon fill="none" stroke="#bfbfbf" points="71.2856,-0.5 71.2856,-18.5 119.517,-18.5 119.517,-0.5 71.2856,-0.5"/>
<text text-anchor="middle" x="95.4014" y="-6.5" font-family="Helvetica,sans-Serif" font-size="10.00">cassert</text>
</g>
<!-- Node19&#45;&gt;Node20 -->
<g id="edge27" class="edge"><title>Node19&#45;&gt;Node20</title>
<path fill="none" stroke="midnightblue" d="M343.396,-117.711C263.613,-115.281 138.048,-106.264 105.401,-74 93.7514,-62.4865 92.1726,-43.3035 92.9464,-29.0291"/>
<polygon fill="midnightblue" stroke="midnightblue" points="96.4495,-29.1633 93.9238,-18.874 89.4817,-28.4926 96.4495,-29.1633"/>
</g>
<!-- Node21 -->
<g id="node22" class="node"><title>Node21</title>
<polygon fill="none" stroke="#bfbfbf" points="287.281,-0.5 287.281,-18.5 335.522,-18.5 335.522,-0.5 287.281,-0.5"/>
<text text-anchor="middle" x="311.401" y="-6.5" font-family="Helvetica,sans-Serif" font-size="10.00">cstddef</text>
</g>
<!-- Node19&#45;&gt;Node21 -->
<g id="edge28" class="edge"><title>Node19&#45;&gt;Node21</title>
<path fill="none" stroke="midnightblue" d="M403.885,-110.382C387.307,-92.4786 347.37,-49.3466 325.8,-26.0507"/>
<polygon fill="midnightblue" stroke="midnightblue" points="328.367,-23.6714 319.005,-18.7118 323.231,-28.4273 328.367,-23.6714"/>
</g>
<!-- Node22 -->
<g id="node23" class="node"><title>Node22</title>
<polygon fill="none" stroke="#bfbfbf" points="404.229,-0.5 404.229,-18.5 448.574,-18.5 448.574,-0.5 404.229,-0.5"/>
<text text-anchor="middle" x="426.401" y="-6.5" font-family="Helvetica,sans-Serif" font-size="10.00">cstdlib</text>
</g>
<!-- Node19&#45;&gt;Node22 -->
<g id="edge29" class="edge"><title>Node19&#45;&gt;Node22</title>
<path fill="none" stroke="midnightblue" d="M425.027,-110.202C436.347,-102.435 451.65,-89.6892 458.401,-74 465.606,-57.2562 453.854,-38.7024 442.616,-25.9969"/>
<polygon fill="midnightblue" stroke="midnightblue" points="444.952,-23.3756 435.51,-18.5698 439.895,-28.2149 444.952,-23.3756"/>
</g>
<!-- Node23 -->
<g id="node24" class="node"><title>Node23</title>
<polygon fill="none" stroke="#bfbfbf" points="273.783,-55.5 273.783,-73.5 327.02,-73.5 327.02,-55.5 273.783,-55.5"/>
<text text-anchor="middle" x="300.401" y="-61.5" font-family="Helvetica,sans-Serif" font-size="10.00">complex</text>
</g>
<!-- Node19&#45;&gt;Node23 -->
<g id="edge31" class="edge"><title>Node19&#45;&gt;Node23</title>
<path fill="none" stroke="midnightblue" d="M394.543,-110.45C376.451,-101.812 347.483,-87.9803 326.454,-77.9396"/>
<polygon fill="midnightblue" stroke="midnightblue" points="327.951,-74.7757 317.419,-73.6253 324.935,-81.0926 327.951,-74.7757"/>
</g>
<!-- Node24 -->
<g id="node25" class="node"><title>Node24</title>
<polygon fill="none" stroke="#bfbfbf" points="504.998,-55.5 504.998,-73.5 563.805,-73.5 563.805,-55.5 504.998,-55.5"/>
<text text-anchor="middle" x="534.401" y="-61.5" font-family="Helvetica,sans-Serif" font-size="10.00">exception</text>
</g>
<!-- Node19&#45;&gt;Node24 -->
<g id="edge33" class="edge"><title>Node19&#45;&gt;Node24</title>
<path fill="none" stroke="midnightblue" d="M430.082,-110.45C450.311,-101.734 482.809,-87.7306 506.16,-77.6691"/>
<polygon fill="midnightblue" stroke="midnightblue" points="507.746,-80.7969 515.545,-73.6253 504.976,-74.3683 507.746,-80.7969"/>
</g>
<!-- Node25 -->
<g id="node26" class="node"><title>Node25</title>
<g id="a_node26"><a xlink:href="cxxdefs_8h.html" target="_top" xlink:title="Basic definitions, which may have to be defined before any Eigen headers or further utilities are inc...">
<polygon fill="none" stroke="black" points="114.591,-55.5 114.591,-73.5 256.211,-73.5 256.211,-55.5 114.591,-55.5"/>
<text text-anchor="middle" x="185.401" y="-61.5" font-family="Helvetica,sans-Serif" font-size="10.00">tomographer/tools/cxxdefs.h</text>
</a>
</g>
</g>
<!-- Node19&#45;&gt;Node25 -->
<g id="edge35" class="edge"><title>Node19&#45;&gt;Node25</title>
<path fill="none" stroke="midnightblue" d="M377.077,-110.45C337.637,-101.201 272.814,-85.9994 229.624,-75.8708"/>
<polygon fill="midnightblue" stroke="midnightblue" points="230.213,-72.414 219.678,-73.5383 228.615,-79.2291 230.213,-72.414"/>
</g>
<!-- Node19&#45;&gt;Node27 -->
<g id="edge40" class="edge"><title>Node19&#45;&gt;Node27</title>
<path fill="none" stroke="midnightblue" d="M465.926,-110.45C530.293,-100.948 637.226,-85.161 705.72,-75.0491"/>
<polygon fill="midnightblue" stroke="midnightblue" points="706.572,-78.4614 715.953,-73.5383 705.549,-71.5364 706.572,-78.4614"/>
</g>
<!-- Node28 -->
<g id="node29" class="node"><title>Node28</title>
<polygon fill="none" stroke="#bfbfbf" points="383.387,-55.5 383.387,-73.5 449.416,-73.5 449.416,-55.5 383.387,-55.5"/>
<text text-anchor="middle" x="416.401" y="-61.5" font-family="Helvetica,sans-Serif" font-size="10.00">Eigen/Core</text>
</g>
<!-- Node19&#45;&gt;Node28 -->
<g id="edge42" class="edge"><title>Node19&#45;&gt;Node28</title>
<path fill="none" stroke="midnightblue" d="M412.183,-110.219C412.854,-103.099 413.847,-92.5775 414.701,-83.5289"/>
<polygon fill="midnightblue" stroke="midnightblue" points="418.187,-83.8341 415.642,-73.5496 411.218,-83.1766 418.187,-83.8341"/>
</g>
<!-- Node25&#45;&gt;Node20 -->
<g id="edge36" class="edge"><title>Node25&#45;&gt;Node20</title>
<path fill="none" stroke="midnightblue" d="M171.732,-55.4504C157.459,-47.0453 134.839,-33.7241 117.921,-23.7618"/>
<polygon fill="midnightblue" stroke="midnightblue" points="119.592,-20.6838 109.199,-18.6253 116.04,-26.7157 119.592,-20.6838"/>
</g>
<!-- Node25&#45;&gt;Node21 -->
<g id="edge37" class="edge"><title>Node25&#45;&gt;Node21</title>
<path fill="none" stroke="midnightblue" d="M204.538,-55.4504C225.353,-46.6951 258.849,-32.6055 282.791,-22.5346"/>
<polygon fill="midnightblue" stroke="midnightblue" points="284.224,-25.7289 292.085,-18.6253 281.51,-19.2765 284.224,-25.7289"/>
</g>
<!-- Node25&#45;&gt;Node22 -->
<g id="edge38" class="edge"><title>Node25&#45;&gt;Node22</title>
<path fill="none" stroke="midnightblue" d="M222.004,-55.4504C268.816,-45.1558 349.162,-27.4863 393.906,-17.6463"/>
<polygon fill="midnightblue" stroke="midnightblue" points="394.93,-21.0048 403.945,-15.4385 393.427,-14.1681 394.93,-21.0048"/>
</g>
<!-- Node26 -->
<g id="node27" class="node"><title>Node26</title>
<polygon fill="none" stroke="#bfbfbf" points="145.434,-0.5 145.434,-18.5 225.369,-18.5 225.369,-0.5 145.434,-0.5"/>
<text text-anchor="middle" x="185.401" y="-6.5" font-family="Helvetica,sans-Serif" font-size="10.00">boost/predef.h</text>
</g>
<!-- Node25&#45;&gt;Node26 -->
<g id="edge39" class="edge"><title>Node25&#45;&gt;Node26</title>
<path fill="none" stroke="midnightblue" d="M185.401,-55.2188C185.401,-48.1769 185.401,-37.8083 185.401,-28.8277"/>
<polygon fill="midnightblue" stroke="midnightblue" points="188.901,-28.5495 185.401,-18.5496 181.901,-28.5496 188.901,-28.5495"/>
</g>
<!-- Node27&#45;&gt;Node8 -->
<g id="edge41" class="edge"><title>Node27&#45;&gt;Node8</title>
<path fill="none" stroke="midnightblue" d="M778.058,-55.2188C785.219,-47.4727 796.102,-35.7013 804.905,-26.1799"/>
<polygon fill="midnightblue" stroke="midnightblue" points="807.741,-28.2683 811.959,-18.5496 802.601,-23.5163 807.741,-28.2683"/>
</g>
<!-- Node29&#45;&gt;Node12 -->
<g id="edge46" class="edge"><title>Node29&#45;&gt;Node12</title>
<path fill="none" stroke="midnightblue" d="M521.984,-165.457C537.911,-157.854 560.703,-145.204 576.401,-129 589.331,-115.654 599.259,-96.7653 605.383,-83.0608"/>
<polygon fill="midnightblue" stroke="midnightblue" points="608.64,-84.3428 609.31,-73.7692 602.193,-81.6172 608.64,-84.3428"/>
</g>
<!-- Node29&#45;&gt;Node19 -->
<g id="edge48" class="edge"><title>Node29&#45;&gt;Node19</title>
<path fill="none" stroke="midnightblue" d="M489.429,-165.45C474.839,-157.045 451.715,-143.724 434.422,-133.762"/>
<polygon fill="midnightblue" stroke="midnightblue" points="435.918,-130.584 425.506,-128.625 432.424,-136.65 435.918,-130.584"/>
</g>
<!-- Node30 -->
<g id="node31" class="node"><title>Node30</title>
<polygon fill="none" stroke="#bfbfbf" points="497.436,-110.5 497.436,-128.5 567.367,-128.5 567.367,-110.5 497.436,-110.5"/>
<text text-anchor="middle" x="532.401" y="-116.5" font-family="Helvetica,sans-Serif" font-size="10.00">Eigen/Eigen</text>
</g>
<!-- Node29&#45;&gt;Node30 -->
<g id="edge47" class="edge"><title>Node29&#45;&gt;Node30</title>
<path fill="none" stroke="midnightblue" d="M507.933,-165.219C512,-157.786 518.095,-146.646 523.184,-137.345"/>
<polygon fill="midnightblue" stroke="midnightblue" points="526.267,-139.002 527.997,-128.55 520.126,-135.642 526.267,-139.002"/>
</g>
<!-- Node31&#45;&gt;Node1 -->
<g id="edge50" class="edge"><title>Node31&#45;&gt;Node1</title>
<path fill="none" stroke="midnightblue" d="M595.87,-225.481C548.134,-216.692 469.924,-201.737 393.87,-184.238"/>
<polygon fill="midnightblue" stroke="midnightblue" points="394.658,-180.828 384.126,-181.979 393.077,-187.647 394.658,-180.828"/>
</g>
<!-- Node31&#45;&gt;Node2 -->
<g id="edge52" class="edge"><title>Node31&#45;&gt;Node2</title>
<path fill="none" stroke="midnightblue" d="M648.949,-225.213C658.464,-215.745 674.001,-199.548 685.401,-184 696.344,-169.077 706.763,-150.682 713.74,-137.539"/>
<polygon fill="midnightblue" stroke="midnightblue" points="716.851,-139.143 718.356,-128.656 710.639,-135.915 716.851,-139.143"/>
</g>
<!-- Node31&#45;&gt;Node8 -->
<g id="edge51" class="edge"><title>Node31&#45;&gt;Node8</title>
<path fill="none" stroke="midnightblue" d="M640.19,-225.493C639.905,-197.884 642.72,-105.584 690.401,-55 716.163,-27.6702 759.488,-17.1239 788.744,-13.0549"/>
<polygon fill="midnightblue" stroke="midnightblue" points="789.323,-16.5104 798.828,-11.8298 788.479,-9.56155 789.323,-16.5104"/>
</g>
<!-- Node31&#45;&gt;Node15 -->
<g id="edge54" class="edge"><title>Node31&#45;&gt;Node15</title>
<path fill="none" stroke="midnightblue" d="M682.352,-225.496C737.167,-215.038 833.136,-196.728 892.477,-185.407"/>
<polygon fill="midnightblue" stroke="midnightblue" points="893.226,-188.827 902.393,-183.515 891.915,-181.951 893.226,-188.827"/>
</g>
<!-- Node31&#45;&gt;Node24 -->
<g id="edge53" class="edge"><title>Node31&#45;&gt;Node24</title>
<path fill="none" stroke="midnightblue" d="M637.971,-225.21C633.955,-212.042 625.286,-185.72 614.401,-165 600.584,-138.697 595.096,-133.092 576.401,-110 568.195,-99.8636 558.201,-89.2154 550.021,-80.8773"/>
<polygon fill="midnightblue" stroke="midnightblue" points="552.389,-78.2956 542.851,-73.683 547.431,-83.2369 552.389,-78.2956"/>
</g>
<!-- Node31&#45;&gt;Node29 -->
<g id="edge55" class="edge"><title>Node31&#45;&gt;Node29</title>
<path fill="none" stroke="midnightblue" d="M621.352,-225.435C598.172,-215.622 558.814,-198.959 531.992,-187.604"/>
<polygon fill="midnightblue" stroke="midnightblue" points="533.304,-184.359 522.73,-183.683 530.575,-190.805 533.304,-184.359"/>
</g>
</g>
</svg>
        <g id="navigator" transform="translate(0 0)" fill="#404254">
                <rect fill="#f2f5e9" fill-opacity="0.5" stroke="#606060" stroke-width=".5" x="0" y="0" width="60" height="60"/>
                <use id="zoomplus" xlink:href="#zoomPlus" x="17" y="9" onmousedown="handleZoom(evt,'in')"/>
                <use id="zoomminus" xlink:href="#zoomMin" x="42" y="9" onmousedown="handleZoom(evt,'out')"/>
                <use id="reset" xlink:href="#resetDef" x="30" y="36" onmousedown="handleReset()"/>
                <g id="arrowUp" xlink:href="#dirArrow" transform="translate(30 24)" onmousedown="handlePan(0,-1)">
                  <use xlink:href="#rim" fill="#404040">
                        <set attributeName="fill" to="#808080" begin="arrowUp.mouseover" end="arrowUp.mouseout"/>
                  </use>
                  <path fill="none" stroke="white" stroke-width="1.5" d="M0,-3.0v7 M-2.5,-0.5L0,-3.0L2.5,-0.5"/>
                </g>
                <g id="arrowRight" xlink:href="#dirArrow" transform="rotate(90) translate(36 -43)" onmousedown="handlePan(1,0)">
                  <use xlink:href="#rim" fill="#404040">
                        <set attributeName="fill" to="#808080" begin="arrowRight.mouseover" end="arrowRight.mouseout"/>
                  </use>
                  <path fill="none" stroke="white" stroke-width="1.5" d="M0,-3.0v7 M-2.5,-0.5L0,-3.0L2.5,-0.5"/>
                </g>
                <g id="arrowDown" xlink:href="#dirArrow" transform="rotate(180) translate(-30 -48)" onmousedown="handlePan(0,1)">
                  <use xlink:href="#rim" fill="#404040">
                        <set attributeName="fill" to="#808080" begin="arrowDown.mouseover" end="arrowDown.mouseout"/>
                  </use>
                  <path fill="none" stroke="white" stroke-width="1.5" d="M0,-3.0v7 M-2.5,-0.5L0,-3.0L2.5,-0.5"/>
                </g>
                <g id="arrowLeft" xlink:href="#dirArrow" transform="rotate(270) translate(-36 17)" onmousedown="handlePan(-1,0)">
                  <use xlink:href="#rim" fill="#404040">
                        <set attributeName="fill" to="#808080" begin="arrowLeft.mouseover" end="arrowLeft.mouseout"/>
                  </use>
                  <path fill="none" stroke="white" stroke-width="1.5" d="M0,-3.0v7 M-2.5,-0.5L0,-3.0L2.5,-0.5"/>
                </g>
        </g>
        <svg viewBox="0 0 15 15" width="100%" height="30px" preserveAspectRatio="xMaxYMin meet">
         <g id="arrow_out" transform="scale(0.3 0.3)">
          <a xlink:href="multiprocomp_8h__incl_org.svg" target="_base">
           <rect id="button" ry="5" rx="5" y="6" x="6" height="38" width="38"
                fill="#f2f5e9" fill-opacity="0.5" stroke="#606060" stroke-width="1.0"/>
           <path id="arrow"
             d="M 11.500037,31.436501 C 11.940474,20.09759 22.043105,11.32322 32.158766,21.979434 L 37.068811,17.246167 C 37.068811,17.246167 37.088388,32 37.088388,32 L 22.160133,31.978069 C 22.160133,31.978069 26.997745,27.140456 26.997745,27.140456 C 18.528582,18.264221 13.291696,25.230495 11.500037,31.436501 z"
             style="fill:#404040;"/>
          </a>
         </g>
        </svg>
</svg>
