<?xml version="1.0" encoding="UTF-8" standalone="no"?>
<!DOCTYPE svg PUBLIC "-//W3C//DTD SVG 1.1//EN"
 "http://www.w3.org/Graphics/SVG/1.1/DTD/svg11.dtd">
<!-- Generated by graphviz version 2.38.0 (20140413.2041)
 -->
<!-- Title: tomographer/multiproc.h Pages: 1 -->
<svg width="1513pt" height="287pt"
 viewBox="0.00 0.00 1513.36 287.00" xmlns="http://www.w3.org/2000/svg" xmlns:xlink="http://www.w3.org/1999/xlink">
<g id="graph0" class="graph" transform="scale(1 1) rotate(0) translate(4 283)">
<title>tomographer/multiproc.h</title>
<!-- Node27 -->
<g id="node1" class="node"><title>Node27</title>
<polygon fill="#bfbfbf" stroke="black" points="1051.42,-260.5 1051.42,-278.5 1175.8,-278.5 1175.8,-260.5 1051.42,-260.5"/>
<text text-anchor="middle" x="1113.61" y="-266.5" font-family="Helvetica,sans-Serif" font-size="10.00">tomographer/multiproc.h</text>
</g>
<!-- Node28 -->
<g id="node2" class="node"><title>Node28</title>
<g id="a_node2"><a xlink:href="mhrw_8h.html" target="_top" xlink:title="Routines for performing a Metropolis&#45;Hastings random walk. ">
<polygon fill="none" stroke="black" points="558.754,-200.5 558.754,-218.5 666.468,-218.5 666.468,-200.5 558.754,-200.5"/>
<text text-anchor="middle" x="612.611" y="-206.5" font-family="Helvetica,sans-Serif" font-size="10.00">tomographer/mhrw.h</text>
</a>
</g>
</g>
<!-- Node27&#45;&gt;Node28 -->
<g id="edge1" class="edge"><title>Node27&#45;&gt;Node28</title>
<path fill="none" stroke="midnightblue" d="M1041,-260.093C939.392,-248.331 757.123,-227.23 666.632,-216.754"/>
<polygon fill="midnightblue" stroke="midnightblue" points="1040.84,-263.598 1051.17,-261.272 1041.64,-256.645 1040.84,-263.598"/>
</g>
<!-- Node34 -->
<g id="node8" class="node"><title>Node34</title>
<g id="a_node8"><a xlink:href="mhrwtasks_8h.html" target="_top" xlink:title="Multiprocessing tasks interface (see Multiprocessing Task Interfaces) for parallel Metropolis&#45;Hasting...">
<polygon fill="none" stroke="black" points="683.811,-70.5 683.811,-88.5 815.412,-88.5 815.412,-70.5 683.811,-70.5"/>
<text text-anchor="middle" x="749.611" y="-76.5" font-family="Helvetica,sans-Serif" font-size="10.00">tomographer/mhrwtasks.h</text>
</a>
</g>
</g>
<!-- Node27&#45;&gt;Node34 -->
<g id="edge22" class="edge"><title>Node27&#45;&gt;Node34</title>
<path fill="none" stroke="midnightblue" d="M1089.02,-255.798C1019.37,-219.826 822.153,-117.966 765.194,-88.548"/>
<polygon fill="midnightblue" stroke="midnightblue" points="1087.48,-258.943 1097.97,-260.422 1090.69,-252.723 1087.48,-258.943"/>
</g>
<!-- Node39 -->
<g id="node13" class="node"><title>Node39</title>
<g id="a_node13"><a xlink:href="multiprocomp_8h.html" target="_top" xlink:title="Multiprocessing with OpenMP parallel multithreading. ">
<polygon fill="none" stroke="black" points="1041.69,-200.5 1041.69,-218.5 1185.53,-218.5 1185.53,-200.5 1041.69,-200.5"/>
<text text-anchor="middle" x="1113.61" y="-206.5" font-family="Helvetica,sans-Serif" font-size="10.00">tomographer/multiprocomp.h</text>
</a>
</g>
</g>
<!-- Node27&#45;&gt;Node39 -->
<g id="edge23" class="edge"><title>Node27&#45;&gt;Node39</title>
<path fill="none" stroke="midnightblue" d="M1113.61,-250.214C1113.61,-239.714 1113.61,-227.033 1113.61,-218.872"/>
<polygon fill="midnightblue" stroke="midnightblue" points="1110.11,-250.435 1113.61,-260.435 1117.11,-250.435 1110.11,-250.435"/>
</g>
<!-- Node40 -->
<g id="node14" class="node"><title>Node40</title>
<g id="a_node14"><a xlink:href="multiprocthreads_8h.html" target="_top" xlink:title="Multiprocessing with native C++11 threads. ">
<polygon fill="none" stroke="black" points="1203.74,-200.5 1203.74,-218.5 1361.48,-218.5 1361.48,-200.5 1203.74,-200.5"/>
<text text-anchor="middle" x="1282.61" y="-206.5" font-family="Helvetica,sans-Serif" font-size="10.00">tomographer/multiprocthreads.h</text>
</a>
</g>
</g>
<!-- Node27&#45;&gt;Node40 -->
<g id="edge24" class="edge"><title>Node27&#45;&gt;Node40</title>
<path fill="none" stroke="midnightblue" d="M1146.79,-257.113C1179.87,-245.762 1229.83,-228.615 1259.04,-218.589"/>
<polygon fill="midnightblue" stroke="midnightblue" points="1145.43,-253.879 1137.11,-260.435 1147.7,-260.5 1145.43,-253.879"/>
</g>
<!-- Node41 -->
<g id="node15" class="node"><title>Node41</title>
<g id="a_node15"><a xlink:href="signal__status__report_8h.html" target="_top" xlink:title="Basic common code for intercepting a signal to print status information of a task manager...">
<polygon fill="none" stroke="black" points="1379.86,-195.5 1379.86,-223.5 1505.36,-223.5 1505.36,-195.5 1379.86,-195.5"/>
<text text-anchor="start" x="1387.86" y="-211.5" font-family="Helvetica,sans-Serif" font-size="10.00">tomographer/tools/signal</text>
<text text-anchor="middle" x="1442.61" y="-201.5" font-family="Helvetica,sans-Serif" font-size="10.00">_status_report.h</text>
</a>
</g>
</g>
<!-- Node27&#45;&gt;Node41 -->
<g id="edge25" class="edge"><title>Node27&#45;&gt;Node41</title>
<path fill="none" stroke="midnightblue" d="M1171.07,-258.786C1223.18,-249.921 1302.1,-236.355 1370.61,-224 1373.62,-223.458 1376.69,-222.9 1379.79,-222.332"/>
<polygon fill="midnightblue" stroke="midnightblue" points="1170.29,-255.369 1161.01,-260.495 1171.46,-262.27 1170.29,-255.369"/>
</g>
<!-- Node29 -->
<g id="node3" class="node"><title>Node29</title>
<g id="a_node3"><a xlink:href="tspacellhwalker_8h.html" target="_top" xlink:title="Definitions for a Metropolis&#45;Hastings random walk on a quantum state space with dense matrix type...">
<polygon fill="none" stroke="black" points="511.304,-130.5 511.304,-158.5 627.919,-158.5 627.919,-130.5 511.304,-130.5"/>
<text text-anchor="start" x="519.304" y="-146.5" font-family="Helvetica,sans-Serif" font-size="10.00">tomographer/densedm</text>
<text text-anchor="middle" x="569.611" y="-136.5" font-family="Helvetica,sans-Serif" font-size="10.00">/tspacellhwalker.h</text>
</a>
</g>
</g>
<!-- Node28&#45;&gt;Node29 -->
<g id="edge2" class="edge"><title>Node28&#45;&gt;Node29</title>
<path fill="none" stroke="midnightblue" d="M601.169,-191.736C594.132,-181.425 585.239,-168.396 578.688,-158.798"/>
<polygon fill="midnightblue" stroke="midnightblue" points="598.461,-193.977 606.99,-200.264 604.243,-190.031 598.461,-193.977"/>
</g>
<!-- Node30 -->
<g id="node4" class="node"><title>Node30</title>
<g id="a_node4"><a xlink:href="mhrwacceptratiowalkerparamscontroller_8h.html" target="_top" xlink:title="Tools for automatically and dynamically adjusting the step size of the random walk. ">
<polygon fill="none" stroke="black" points="15.6118,-70.5 15.6118,-88.5 275.611,-88.5 275.611,-70.5 15.6118,-70.5"/>
<text text-anchor="middle" x="145.611" y="-76.5" font-family="Helvetica,sans-Serif" font-size="10.00">tomographer/mhrwacceptratiowalkerparamscontroller.h</text>
</a>
</g>
</g>
<!-- Node28&#45;&gt;Node30 -->
<g id="edge3" class="edge"><title>Node28&#45;&gt;Node30</title>
<path fill="none" stroke="midnightblue" d="M548.214,-208.163C475.908,-205.825 356.193,-195.999 260.611,-159 216.427,-141.896 172.489,-104.967 154.32,-88.5965"/>
<polygon fill="midnightblue" stroke="midnightblue" points="548.434,-211.671 558.53,-208.456 548.633,-204.674 548.434,-211.671"/>
</g>
<!-- Node31 -->
<g id="node5" class="node"><title>Node31</title>
<g id="a_node5"><a xlink:href="mhrwstepsizecontroller_8h.html" target="_top" xlink:title="Tools for automatically and dynamically adjusting the step size of the random walk. ">
<polygon fill="none" stroke="black" points="52.8481,-5.5 52.8481,-23.5 238.374,-23.5 238.374,-5.5 52.8481,-5.5"/>
<text text-anchor="middle" x="145.611" y="-11.5" font-family="Helvetica,sans-Serif" font-size="10.00">tomographer/mhrwstepsizecontroller.h</text>
</a>
</g>
</g>
<!-- Node28&#45;&gt;Node31 -->
<g id="edge14" class="edge"><title>Node28&#45;&gt;Node31</title>
<path fill="none" stroke="midnightblue" d="M548.345,-206.952C405.549,-201.946 69.4999,-180.974 6.61128,-94 -20.6705,-56.27 47.7174,-34.2535 97.9578,-23.5755"/>
<polygon fill="midnightblue" stroke="midnightblue" points="548.584,-210.462 558.695,-207.298 548.818,-203.466 548.584,-210.462"/>
</g>
<!-- Node32 -->
<g id="node6" class="node"><title>Node32</title>
<g id="a_node6"><a xlink:href="mhrwstatscollectors_8h.html" target="_top" xlink:title="Definitions for MHRWStatsCollector Interface&#39;s. ">
<polygon fill="none" stroke="black" points="269.804,-135.5 269.804,-153.5 441.419,-153.5 441.419,-135.5 269.804,-135.5"/>
<text text-anchor="middle" x="355.611" y="-141.5" font-family="Helvetica,sans-Serif" font-size="10.00">tomographer/mhrwstatscollectors.h</text>
</a>
</g>
</g>
<!-- Node28&#45;&gt;Node32 -->
<g id="edge5" class="edge"><title>Node28&#45;&gt;Node32</title>
<path fill="none" stroke="midnightblue" d="M570.079,-198.074C519.146,-185.588 434.926,-164.943 388.632,-153.595"/>
<polygon fill="midnightblue" stroke="midnightblue" points="569.255,-201.475 579.801,-200.457 570.922,-194.677 569.255,-201.475"/>
</g>
<!-- Node28&#45;&gt;Node34 -->
<g id="edge15" class="edge"><title>Node28&#45;&gt;Node34</title>
<path fill="none" stroke="midnightblue" d="M630.349,-193.579C641.723,-183.893 656.719,-170.903 669.611,-159 696.49,-134.185 727.035,-103.481 741.366,-88.921"/>
<polygon fill="midnightblue" stroke="midnightblue" points="627.82,-191.134 622.452,-200.269 632.344,-196.476 627.82,-191.134"/>
</g>
<!-- Node35 -->
<g id="node9" class="node"><title>Node35</title>
<g id="a_node9"><a xlink:href="pymhrwtasks_8h_source.html" target="_top" xlink:title="py/cxx/tomographerpy\l/pymhrwtasks.h">
<polygon fill="none" stroke="black" points="692.422,-0.5 692.422,-28.5 806.801,-28.5 806.801,-0.5 692.422,-0.5"/>
<text text-anchor="start" x="700.422" y="-16.5" font-family="Helvetica,sans-Serif" font-size="10.00">py/cxx/tomographerpy</text>
<text text-anchor="middle" x="749.611" y="-6.5" font-family="Helvetica,sans-Serif" font-size="10.00">/pymhrwtasks.h</text>
</a>
</g>
</g>
<!-- Node28&#45;&gt;Node35 -->
<g id="edge20" class="edge"><title>Node28&#45;&gt;Node35</title>
<path fill="none" stroke="midnightblue" d="M621.412,-191.08C626.083,-181.655 631.83,-169.769 636.611,-159 654.896,-117.814 646.074,-99.8744 674.611,-65 687.258,-49.5454 706.008,-37.1704 721.596,-28.659"/>
<polygon fill="midnightblue" stroke="midnightblue" points="618.207,-189.663 616.861,-200.172 624.467,-192.796 618.207,-189.663"/>
</g>
<!-- Node36 -->
<g id="node10" class="node"><title>Node36</title>
<g id="a_node10"><a xlink:href="pymultiproc_8h_source.html" target="_top" xlink:title="py/cxx/tomographerpy\l/pymultiproc.h">
<polygon fill="none" stroke="black" points="833.422,-0.5 833.422,-28.5 947.801,-28.5 947.801,-0.5 833.422,-0.5"/>
<text text-anchor="start" x="841.422" y="-16.5" font-family="Helvetica,sans-Serif" font-size="10.00">py/cxx/tomographerpy</text>
<text text-anchor="middle" x="890.611" y="-6.5" font-family="Helvetica,sans-Serif" font-size="10.00">/pymultiproc.h</text>
</a>
</g>
</g>
<!-- Node28&#45;&gt;Node36 -->
<g id="edge21" class="edge"><title>Node28&#45;&gt;Node36</title>
<path fill="none" stroke="midnightblue" d="M676.537,-208.194C757.179,-203.932 892.99,-183.006 956.611,-94 973.902,-69.8096 940.548,-43.7742 915.266,-28.5953"/>
<polygon fill="midnightblue" stroke="midnightblue" points="676.332,-204.7 666.502,-208.654 676.652,-211.693 676.332,-204.7"/>
</g>
<!-- Node37 -->
<g id="node11" class="node"><title>Node37</title>
<g id="a_node11"><a xlink:href="mhrwvalueerrorbinsconvergedcontroller_8h.html" target="_top" xlink:title="Tools for automatically stopping the random walk when enough samples have been taken to make all binn...">
<polygon fill="none" stroke="black" points="369.159,-70.5 369.159,-88.5 628.064,-88.5 628.064,-70.5 369.159,-70.5"/>
<text text-anchor="middle" x="498.611" y="-76.5" font-family="Helvetica,sans-Serif" font-size="10.00">tomographer/mhrwvalueerrorbinsconvergedcontroller.h</text>
</a>
</g>
</g>
<!-- Node28&#45;&gt;Node37 -->
<g id="edge16" class="edge"><title>Node28&#45;&gt;Node37</title>
<path fill="none" stroke="midnightblue" d="M559.589,-197.405C538.323,-190.14 515.777,-178.268 502.611,-159 487.83,-137.367 492.97,-104.027 496.465,-88.7095"/>
<polygon fill="midnightblue" stroke="midnightblue" points="558.642,-200.776 569.231,-200.429 560.737,-194.097 558.642,-200.776"/>
</g>
<!-- Node38 -->
<g id="node12" class="node"><title>Node38</title>
<g id="a_node12"><a xlink:href="pymhrw_8h_source.html" target="_top" xlink:title="py/cxx/tomographerpy\l/pymhrw.h">
<polygon fill="none" stroke="black" points="833.422,-65.5 833.422,-93.5 947.801,-93.5 947.801,-65.5 833.422,-65.5"/>
<text text-anchor="start" x="841.422" y="-81.5" font-family="Helvetica,sans-Serif" font-size="10.00">py/cxx/tomographerpy</text>
<text text-anchor="middle" x="890.611" y="-71.5" font-family="Helvetica,sans-Serif" font-size="10.00">/pymhrw.h</text>
</a>
</g>
</g>
<!-- Node28&#45;&gt;Node38 -->
<g id="edge17" class="edge"><title>Node28&#45;&gt;Node38</title>
<path fill="none" stroke="midnightblue" d="M639.327,-196.199C691.841,-172.02 808.086,-118.497 862.053,-93.6489"/>
<polygon fill="midnightblue" stroke="midnightblue" points="637.621,-193.131 630.001,-200.493 640.549,-199.49 637.621,-193.131"/>
</g>
<!-- Node30&#45;&gt;Node31 -->
<g id="edge4" class="edge"><title>Node30&#45;&gt;Node31</title>
<path fill="none" stroke="midnightblue" d="M145.611,-59.9075C145.611,-47.8146 145.611,-32.6529 145.611,-23.539"/>
<polygon fill="midnightblue" stroke="midnightblue" points="142.111,-60.2638 145.611,-70.2639 149.111,-60.2639 142.111,-60.2638"/>
</g>
<!-- Node32&#45;&gt;Node30 -->
<g id="edge7" class="edge"><title>Node32&#45;&gt;Node30</title>
<path fill="none" stroke="midnightblue" d="M318.792,-132.454C276.971,-119.908 209.727,-99.7347 172.531,-88.5761"/>
<polygon fill="midnightblue" stroke="midnightblue" points="318.003,-135.872 328.587,-135.393 320.015,-129.167 318.003,-135.872"/>
</g>
<!-- Node32&#45;&gt;Node31 -->
<g id="edge8" class="edge"><title>Node32&#45;&gt;Node31</title>
<path fill="none" stroke="midnightblue" d="M344.331,-126.756C331.678,-109.141 309.625,-81.7053 284.611,-65 253.509,-44.2288 212.673,-31.0496 183.321,-23.5587"/>
<polygon fill="midnightblue" stroke="midnightblue" points="341.764,-129.195 350.352,-135.401 347.508,-125.195 341.764,-129.195"/>
</g>
<!-- Node33 -->
<g id="node7" class="node"><title>Node33</title>
<g id="a_node7"><a xlink:href="mhrw__valuehist__tools_8h.html" target="_top" xlink:title="Tools for collecting a histogram of values during a Metropolis&#45;Hastings random walk using the tools o...">
<polygon fill="none" stroke="black" points="399.136,-0.5 399.136,-28.5 544.086,-28.5 544.086,-0.5 399.136,-0.5"/>
<text text-anchor="start" x="407.136" y="-16.5" font-family="Helvetica,sans-Serif" font-size="10.00">tomographer/mhrw_valuehist</text>
<text text-anchor="middle" x="471.611" y="-6.5" font-family="Helvetica,sans-Serif" font-size="10.00">_tools.h</text>
</a>
</g>
</g>
<!-- Node32&#45;&gt;Node33 -->
<g id="edge6" class="edge"><title>Node32&#45;&gt;Node33</title>
<path fill="none" stroke="midnightblue" d="M351.81,-125.422C349.271,-108.304 348.335,-82.6605 360.611,-65 372.896,-47.3282 393.013,-35.8803 412.77,-28.5022"/>
<polygon fill="midnightblue" stroke="midnightblue" points="348.367,-126.051 353.586,-135.271 355.256,-124.809 348.367,-126.051"/>
</g>
<!-- Node32&#45;&gt;Node34 -->
<g id="edge9" class="edge"><title>Node32&#45;&gt;Node34</title>
<path fill="none" stroke="midnightblue" d="M416.017,-133.841C493.622,-121.432 626.924,-100.117 699.299,-88.5448"/>
<polygon fill="midnightblue" stroke="midnightblue" points="415.234,-130.422 405.912,-135.457 416.339,-137.334 415.234,-130.422"/>
</g>
<!-- Node32&#45;&gt;Node37 -->
<g id="edge13" class="edge"><title>Node32&#45;&gt;Node37</title>
<path fill="none" stroke="midnightblue" d="M383.444,-131.238C412.045,-118.638 455.755,-99.3808 480.28,-88.5761"/>
<polygon fill="midnightblue" stroke="midnightblue" points="381.753,-128.158 374.013,-135.393 384.576,-134.564 381.753,-128.158"/>
</g>
<!-- Node34&#45;&gt;Node33 -->
<g id="edge10" class="edge"><title>Node34&#45;&gt;Node33</title>
<path fill="none" stroke="midnightblue" d="M704.36,-68.2453C656.568,-57.4146 581.081,-40.3079 529.104,-28.529"/>
<polygon fill="midnightblue" stroke="midnightblue" points="703.594,-71.6602 714.12,-70.457 705.141,-64.8333 703.594,-71.6602"/>
</g>
<!-- Node34&#45;&gt;Node35 -->
<g id="edge11" class="edge"><title>Node34&#45;&gt;Node35</title>
<path fill="none" stroke="midnightblue" d="M749.611,-60.1373C749.611,-50.1047 749.611,-37.906 749.611,-28.7981"/>
<polygon fill="midnightblue" stroke="midnightblue" points="746.111,-60.2638 749.611,-70.2639 753.111,-60.2639 746.111,-60.2638"/>
</g>
<!-- Node34&#45;&gt;Node36 -->
<g id="edge12" class="edge"><title>Node34&#45;&gt;Node36</title>
<path fill="none" stroke="midnightblue" d="M777.116,-66.2105C801.418,-55.3522 836.747,-39.567 861.516,-28.5002"/>
<polygon fill="midnightblue" stroke="midnightblue" points="775.458,-63.1178 767.756,-70.3928 778.314,-69.5089 775.458,-63.1178"/>
</g>
<!-- Node38&#45;&gt;Node35 -->
<g id="edge18" class="edge"><title>Node38&#45;&gt;Node35</title>
<path fill="none" stroke="midnightblue" d="M852.2,-61.3374C829.057,-50.9968 800.049,-38.0359 778.789,-28.5369"/>
<polygon fill="midnightblue" stroke="midnightblue" points="850.838,-64.5624 861.396,-65.4464 853.694,-58.1714 850.838,-64.5624"/>
</g>
<!-- Node38&#45;&gt;Node36 -->
<g id="edge19" class="edge"><title>Node38&#45;&gt;Node36</title>
<path fill="none" stroke="midnightblue" d="M890.611,-55.1641C890.611,-46.1693 890.611,-36.2205 890.611,-28.5369"/>
<polygon fill="midnightblue" stroke="midnightblue" points="887.111,-55.4463 890.611,-65.4464 894.111,-55.4464 887.111,-55.4463"/>
</g>
</g>
</svg>
