<?xml version="1.0" encoding="UTF-8" standalone="no"?>
<!DOCTYPE svg PUBLIC "-//W3C//DTD SVG 1.1//EN"
 "http://www.w3.org/Graphics/SVG/1.1/DTD/svg11.dtd">
<!-- Generated by graphviz version 2.38.0 (20140413.2041)
 -->
<!-- Title: tomographer/tools/needownoperatornew.h Pages: 1 -->
<svg width="2012pt" height="352pt"
 viewBox="0.00 0.00 2012.29 352.00" xmlns="http://www.w3.org/2000/svg" xmlns:xlink="http://www.w3.org/1999/xlink">
<g id="graph0" class="graph" transform="scale(1 1) rotate(0) translate(4 348)">
<title>tomographer/tools/needownoperatornew.h</title>
<!-- Node16 -->
<g id="node1" class="node"><title>Node16</title>
<polygon fill="#bfbfbf" stroke="black" points="944.631,-325.5 944.631,-343.5 1147.98,-343.5 1147.98,-325.5 944.631,-325.5"/>
<text text-anchor="middle" x="1046.31" y="-331.5" font-family="Helvetica,sans-Serif" font-size="10.00">tomographer/tools/needownoperatornew.h</text>
</g>
<!-- Node17 -->
<g id="node2" class="node"><title>Node17</title>
<g id="a_node2"><a xlink:href="indepmeasllh_8h.html" target="_top" xlink:title="C++ types and functions for calculating the log&#45;likelihood for independent measurements. ">
<polygon fill="none" stroke="black" points="0,-260.5 0,-288.5 116.615,-288.5 116.615,-260.5 0,-260.5"/>
<text text-anchor="start" x="8" y="-276.5" font-family="Helvetica,sans-Serif" font-size="10.00">tomographer/densedm</text>
<text text-anchor="middle" x="58.3076" y="-266.5" font-family="Helvetica,sans-Serif" font-size="10.00">/indepmeasllh.h</text>
</a>
</g>
</g>
<!-- Node16&#45;&gt;Node17 -->
<g id="edge1" class="edge"><title>Node16&#45;&gt;Node17</title>
<path fill="none" stroke="midnightblue" d="M934.295,-333.398C760.615,-332.044 416.145,-324.583 126.308,-289 123.202,-288.619 120.025,-288.176 116.824,-287.687"/>
<polygon fill="midnightblue" stroke="midnightblue" points="934.444,-336.899 944.469,-333.472 934.495,-329.9 934.444,-336.899"/>
</g>
<!-- Node19 -->
<g id="node4" class="node"><title>Node19</title>
<g id="a_node4"><a xlink:href="tspacefigofmerit_8h.html" target="_top" xlink:title="Implement some standard figures of merit for when integrating in T space densely represented density ...">
<polygon fill="none" stroke="black" points="135,-260.5 135,-288.5 251.615,-288.5 251.615,-260.5 135,-260.5"/>
<text text-anchor="start" x="143" y="-276.5" font-family="Helvetica,sans-Serif" font-size="10.00">tomographer/densedm</text>
<text text-anchor="middle" x="193.308" y="-266.5" font-family="Helvetica,sans-Serif" font-size="10.00">/tspacefigofmerit.h</text>
</a>
</g>
</g>
<!-- Node16&#45;&gt;Node19 -->
<g id="edge3" class="edge"><title>Node16&#45;&gt;Node19</title>
<path fill="none" stroke="midnightblue" d="M934.253,-331.631C782.223,-328.066 502.359,-317.856 265.308,-289 260.889,-288.462 256.333,-287.819 251.759,-287.109"/>
<polygon fill="midnightblue" stroke="midnightblue" points="934.451,-335.136 944.529,-331.866 934.611,-328.138 934.451,-335.136"/>
</g>
<!-- Node20 -->
<g id="node5" class="node"><title>Node20</title>
<g id="a_node5"><a xlink:href="tspacellhwalker_8h.html" target="_top" xlink:title="Definitions for a Metropolis&#45;Hastings random walk on a quantum state space with dense matrix type...">
<polygon fill="none" stroke="black" points="451,-130.5 451,-158.5 567.615,-158.5 567.615,-130.5 451,-130.5"/>
<text text-anchor="start" x="459" y="-146.5" font-family="Helvetica,sans-Serif" font-size="10.00">tomographer/densedm</text>
<text text-anchor="middle" x="509.308" y="-136.5" font-family="Helvetica,sans-Serif" font-size="10.00">/tspacellhwalker.h</text>
</a>
</g>
</g>
<!-- Node16&#45;&gt;Node20 -->
<g id="edge4" class="edge"><title>Node16&#45;&gt;Node20</title>
<path fill="none" stroke="midnightblue" d="M991.521,-323.532C952.289,-315.768 898.461,-303.828 852.308,-289 731.239,-250.104 593.385,-186.094 536.274,-158.655"/>
<polygon fill="midnightblue" stroke="midnightblue" points="990.934,-326.984 1001.42,-325.464 992.275,-320.114 990.934,-326.984"/>
</g>
<!-- Node21 -->
<g id="node6" class="node"><title>Node21</title>
<g id="a_node6"><a xlink:href="histogram_8h.html" target="_top" xlink:title="Definitions for Histogram Types. ">
<polygon fill="none" stroke="black" points="1112.45,-200.5 1112.45,-218.5 1240.17,-218.5 1240.17,-200.5 1112.45,-200.5"/>
<text text-anchor="middle" x="1176.31" y="-206.5" font-family="Helvetica,sans-Serif" font-size="10.00">tomographer/histogram.h</text>
</a>
</g>
</g>
<!-- Node16&#45;&gt;Node21 -->
<g id="edge5" class="edge"><title>Node16&#45;&gt;Node21</title>
<path fill="none" stroke="midnightblue" d="M1062.13,-318.532C1089.77,-292.379 1145.97,-239.203 1167.58,-218.761"/>
<polygon fill="midnightblue" stroke="midnightblue" points="1059.7,-316.014 1054.84,-325.43 1064.51,-321.099 1059.7,-316.014"/>
</g>
<!-- Node23 -->
<g id="node8" class="node"><title>Node23</title>
<g id="a_node8"><a xlink:href="mhrw__valuehist__tools_8h.html" target="_top" xlink:title="Tools for collecting a histogram of values during a Metropolis&#45;Hastings random walk using the tools o...">
<polygon fill="none" stroke="black" points="1250.83,-0.5 1250.83,-28.5 1395.78,-28.5 1395.78,-0.5 1250.83,-0.5"/>
<text text-anchor="start" x="1258.83" y="-16.5" font-family="Helvetica,sans-Serif" font-size="10.00">tomographer/mhrw_valuehist</text>
<text text-anchor="middle" x="1323.31" y="-6.5" font-family="Helvetica,sans-Serif" font-size="10.00">_tools.h</text>
</a>
</g>
</g>
<!-- Node16&#45;&gt;Node23 -->
<g id="edge34" class="edge"><title>Node16&#45;&gt;Node23</title>
<path fill="none" stroke="midnightblue" d="M1158.5,-332.108C1317.11,-329.067 1598.37,-319.429 1695.31,-289 1760.07,-268.672 1826.31,-278.375 1826.31,-210.5 1826.31,-210.5 1826.31,-210.5 1826.31,-143.5 1826.31,-55.7559 1535.21,-27.4358 1395.91,-18.907"/>
<polygon fill="midnightblue" stroke="midnightblue" points="1158.17,-328.613 1148.24,-332.299 1158.3,-335.612 1158.17,-328.613"/>
</g>
<!-- Node24 -->
<g id="node9" class="node"><title>Node24</title>
<g id="a_node9"><a xlink:href="mhrwacceptratiowalkerparamscontroller_8h.html" target="_top" xlink:title="Tools for automatically and dynamically adjusting the step size of the random walk. ">
<polygon fill="none" stroke="black" points="307.308,-70.5 307.308,-88.5 567.307,-88.5 567.307,-70.5 307.308,-70.5"/>
<text text-anchor="middle" x="437.308" y="-76.5" font-family="Helvetica,sans-Serif" font-size="10.00">tomographer/mhrwacceptratiowalkerparamscontroller.h</text>
</a>
</g>
</g>
<!-- Node16&#45;&gt;Node24 -->
<g id="edge35" class="edge"><title>Node16&#45;&gt;Node24</title>
<path fill="none" stroke="midnightblue" d="M960.135,-324.221C905.897,-317.213 834.776,-305.874 773.308,-289 620.895,-247.161 535.433,-286.701 442.308,-159 426.859,-137.815 431.771,-104.251 435.192,-88.7934"/>
<polygon fill="midnightblue" stroke="midnightblue" points="959.699,-327.693 970.06,-325.479 960.58,-320.749 959.699,-327.693"/>
</g>
<!-- Node25 -->
<g id="node10" class="node"><title>Node25</title>
<g id="a_node10"><a xlink:href="mhrwstepsizecontroller_8h.html" target="_top" xlink:title="Tools for automatically and dynamically adjusting the step size of the random walk. ">
<polygon fill="none" stroke="black" points="419.544,-5.5 419.544,-23.5 605.071,-23.5 605.071,-5.5 419.544,-5.5"/>
<text text-anchor="middle" x="512.308" y="-11.5" font-family="Helvetica,sans-Serif" font-size="10.00">tomographer/mhrwstepsizecontroller.h</text>
</a>
</g>
</g>
<!-- Node16&#45;&gt;Node25 -->
<g id="edge36" class="edge"><title>Node16&#45;&gt;Node25</title>
<path fill="none" stroke="midnightblue" d="M934.18,-326.929C721.224,-312.939 279.308,-276.015 279.308,-210.5 279.308,-210.5 279.308,-210.5 279.308,-143.5 279.308,-107.604 272.796,-90.2532 298.308,-65 318.701,-44.8125 389.078,-31.2531 443.621,-23.5057"/>
<polygon fill="midnightblue" stroke="midnightblue" points="934.25,-330.441 944.456,-327.598 934.704,-323.456 934.25,-330.441"/>
</g>
<!-- Node26 -->
<g id="node11" class="node"><title>Node26</title>
<g id="a_node11"><a xlink:href="mhrwtasks_8h.html" target="_top" xlink:title="Multiprocessing tasks interface (see Multiprocessing Task Interfaces) for parallel Metropolis&#45;Hasting...">
<polygon fill="none" stroke="black" points="1183.51,-70.5 1183.51,-88.5 1315.11,-88.5 1315.11,-70.5 1183.51,-70.5"/>
<text text-anchor="middle" x="1249.31" y="-76.5" font-family="Helvetica,sans-Serif" font-size="10.00">tomographer/mhrwtasks.h</text>
</a>
</g>
</g>
<!-- Node16&#45;&gt;Node26 -->
<g id="edge37" class="edge"><title>Node16&#45;&gt;Node26</title>
<path fill="none" stroke="midnightblue" d="M1158.53,-334.22C1342.57,-332.663 1695.53,-317.254 1769.31,-224 1828.18,-149.591 1468.09,-103.073 1315.37,-86.9091"/>
<polygon fill="midnightblue" stroke="midnightblue" points="1158.25,-330.722 1148.28,-334.294 1158.3,-337.721 1158.25,-330.722"/>
</g>
<!-- Node29 -->
<g id="node14" class="node"><title>Node29</title>
<g id="a_node14"><a xlink:href="mhrwvalueerrorbinsconvergedcontroller_8h.html" target="_top" xlink:title="Tools for automatically stopping the random walk when enough samples have been taken to make all binn...">
<polygon fill="none" stroke="black" points="906.855,-70.5 906.855,-88.5 1165.76,-88.5 1165.76,-70.5 906.855,-70.5"/>
<text text-anchor="middle" x="1036.31" y="-76.5" font-family="Helvetica,sans-Serif" font-size="10.00">tomographer/mhrwvalueerrorbinsconvergedcontroller.h</text>
</a>
</g>
</g>
<!-- Node16&#45;&gt;Node29 -->
<g id="edge38" class="edge"><title>Node16&#45;&gt;Node29</title>
<path fill="none" stroke="midnightblue" d="M1045.59,-315.294C1043.59,-264.775 1038.04,-124.23 1036.63,-88.7281"/>
<polygon fill="midnightblue" stroke="midnightblue" points="1042.09,-315.515 1045.99,-325.369 1049.09,-315.238 1042.09,-315.515"/>
</g>
<!-- Node31 -->
<g id="node16" class="node"><title>Node31</title>
<g id="a_node16"><a xlink:href="mhrw_8h.html" target="_top" xlink:title="Routines for performing a Metropolis&#45;Hastings random walk. ">
<polygon fill="none" stroke="black" points="759.451,-200.5 759.451,-218.5 867.165,-218.5 867.165,-200.5 759.451,-200.5"/>
<text text-anchor="middle" x="813.308" y="-206.5" font-family="Helvetica,sans-Serif" font-size="10.00">tomographer/mhrw.h</text>
</a>
</g>
</g>
<!-- Node16&#45;&gt;Node31 -->
<g id="edge18" class="edge"><title>Node16&#45;&gt;Node31</title>
<path fill="none" stroke="midnightblue" d="M984.642,-323.333C954.982,-316.612 919.778,-305.838 891.308,-289 859.226,-270.027 830.974,-234.729 819.172,-218.744"/>
<polygon fill="midnightblue" stroke="midnightblue" points="983.956,-326.766 994.47,-325.46 985.437,-319.924 983.956,-326.766"/>
</g>
<!-- Node33 -->
<g id="node18" class="node"><title>Node33</title>
<g id="a_node18"><a xlink:href="mhrw__bin__err_8h.html" target="_top" xlink:title="Binning Analysis in a Metropolis&#45;Hastings random walk. ">
<polygon fill="none" stroke="black" points="899.894,-260.5 899.894,-288.5 1018.72,-288.5 1018.72,-260.5 899.894,-260.5"/>
<text text-anchor="start" x="907.894" y="-276.5" font-family="Helvetica,sans-Serif" font-size="10.00">tomographer/mhrw_bin</text>
<text text-anchor="middle" x="959.308" y="-266.5" font-family="Helvetica,sans-Serif" font-size="10.00">_err.h</text>
</a>
</g>
</g>
<!-- Node16&#45;&gt;Node33 -->
<g id="edge30" class="edge"><title>Node16&#45;&gt;Node33</title>
<path fill="none" stroke="midnightblue" d="M1025.67,-319.74C1011.54,-310.32 992.91,-297.901 978.988,-288.62"/>
<polygon fill="midnightblue" stroke="midnightblue" points="1023.95,-322.8 1034.21,-325.435 1027.83,-316.976 1023.95,-322.8"/>
</g>
<!-- Node34 -->
<g id="node19" class="node"><title>Node34</title>
<g id="a_node19"><a xlink:href="multiproc_8h.html" target="_top" xlink:title="Some common definitions for multiprocessing interfaces. ">
<polygon fill="none" stroke="black" points="1252.12,-265.5 1252.12,-283.5 1376.5,-283.5 1376.5,-265.5 1252.12,-265.5"/>
<text text-anchor="middle" x="1314.31" y="-271.5" font-family="Helvetica,sans-Serif" font-size="10.00">tomographer/multiproc.h</text>
</a>
</g>
</g>
<!-- Node16&#45;&gt;Node34 -->
<g id="edge39" class="edge"><title>Node16&#45;&gt;Node34</title>
<path fill="none" stroke="midnightblue" d="M1093.33,-323.323C1145.72,-311.986 1229.33,-293.892 1277.27,-283.515"/>
<polygon fill="midnightblue" stroke="midnightblue" points="1092.32,-319.96 1083.29,-325.496 1093.8,-326.802 1092.32,-319.96"/>
</g>
<!-- Node35 -->
<g id="node20" class="node"><title>Node35</title>
<g id="a_node20"><a xlink:href="multiprocomp_8h.html" target="_top" xlink:title="Multiprocessing with OpenMP parallel multithreading. ">
<polygon fill="none" stroke="black" points="1440.39,-200.5 1440.39,-218.5 1584.23,-218.5 1584.23,-200.5 1440.39,-200.5"/>
<text text-anchor="middle" x="1512.31" y="-206.5" font-family="Helvetica,sans-Serif" font-size="10.00">tomographer/multiprocomp.h</text>
</a>
</g>
</g>
<!-- Node16&#45;&gt;Node35 -->
<g id="edge45" class="edge"><title>Node16&#45;&gt;Node35</title>
<path fill="none" stroke="midnightblue" d="M1158.52,-330.616C1225.92,-326.009 1312.44,-314.947 1385.31,-289 1433.17,-271.958 1482.19,-234.996 1502.54,-218.607"/>
<polygon fill="midnightblue" stroke="midnightblue" points="1158.05,-327.139 1148.3,-331.276 1158.5,-334.125 1158.05,-327.139"/>
</g>
<!-- Node36 -->
<g id="node21" class="node"><title>Node36</title>
<g id="a_node21"><a xlink:href="multiprocthreads_8h.html" target="_top" xlink:title="Multiprocessing with native C++11 threads. ">
<polygon fill="none" stroke="black" points="1602.44,-200.5 1602.44,-218.5 1760.18,-218.5 1760.18,-200.5 1602.44,-200.5"/>
<text text-anchor="middle" x="1681.31" y="-206.5" font-family="Helvetica,sans-Serif" font-size="10.00">tomographer/multiprocthreads.h</text>
</a>
</g>
</g>
<!-- Node16&#45;&gt;Node36 -->
<g id="edge46" class="edge"><title>Node16&#45;&gt;Node36</title>
<path fill="none" stroke="midnightblue" d="M1158.22,-325.943C1234.84,-319.435 1338.44,-308.006 1428.31,-289 1516.05,-270.445 1616.92,-234.61 1660,-218.587"/>
<polygon fill="midnightblue" stroke="midnightblue" points="1157.75,-322.471 1148.07,-326.79 1158.33,-329.447 1157.75,-322.471"/>
</g>
<!-- Node38 -->
<g id="node23" class="node"><title>Node38</title>
<g id="a_node23"><a xlink:href="valuecalculator_8h.html" target="_top" xlink:title="Some elementary definitions which relate to the ValueCalculator Interface. ">
<polygon fill="none" stroke="black" points="1854.32,-265.5 1854.32,-283.5 2004.29,-283.5 2004.29,-265.5 1854.32,-265.5"/>
<text text-anchor="middle" x="1929.31" y="-271.5" font-family="Helvetica,sans-Serif" font-size="10.00">tomographer/valuecalculator.h</text>
</a>
</g>
</g>
<!-- Node16&#45;&gt;Node38 -->
<g id="edge47" class="edge"><title>Node16&#45;&gt;Node38</title>
<path fill="none" stroke="midnightblue" d="M1158.48,-330.554C1312.52,-325.747 1598,-314.111 1840.31,-289 1853.83,-287.598 1868.44,-285.59 1881.84,-283.55"/>
<polygon fill="midnightblue" stroke="midnightblue" points="1157.96,-327.068 1148.08,-330.874 1158.18,-334.065 1157.96,-327.068"/>
</g>
<!-- Node18 -->
<g id="node3" class="node"><title>Node18</title>
<g id="a_node3"><a xlink:href="pydensedm_8h_source.html" target="_top" xlink:title="py/cxx/tomographerpy\l/pydensedm.h">
<polygon fill="none" stroke="black" points="1.11816,-195.5 1.11816,-223.5 115.497,-223.5 115.497,-195.5 1.11816,-195.5"/>
<text text-anchor="start" x="9.11816" y="-211.5" font-family="Helvetica,sans-Serif" font-size="10.00">py/cxx/tomographerpy</text>
<text text-anchor="middle" x="58.3076" y="-201.5" font-family="Helvetica,sans-Serif" font-size="10.00">/pydensedm.h</text>
</a>
</g>
</g>
<!-- Node17&#45;&gt;Node18 -->
<g id="edge2" class="edge"><title>Node17&#45;&gt;Node18</title>
<path fill="none" stroke="midnightblue" d="M58.3076,-250.164C58.3076,-241.169 58.3076,-231.221 58.3076,-223.537"/>
<polygon fill="midnightblue" stroke="midnightblue" points="54.8077,-250.446 58.3076,-260.446 61.8077,-250.446 54.8077,-250.446"/>
</g>
<!-- Node22 -->
<g id="node7" class="node"><title>Node22</title>
<g id="a_node7"><a xlink:href="mhrwstatscollectors_8h.html" target="_top" xlink:title="Definitions for MHRWStatsCollector Interface&#39;s. ">
<polygon fill="none" stroke="black" points="784.5,-135.5 784.5,-153.5 956.115,-153.5 956.115,-135.5 784.5,-135.5"/>
<text text-anchor="middle" x="870.308" y="-141.5" font-family="Helvetica,sans-Serif" font-size="10.00">tomographer/mhrwstatscollectors.h</text>
</a>
</g>
</g>
<!-- Node21&#45;&gt;Node22 -->
<g id="edge6" class="edge"><title>Node21&#45;&gt;Node22</title>
<path fill="none" stroke="midnightblue" d="M1127.17,-198.384C1066.7,-185.933 965.203,-165.037 909.624,-153.595"/>
<polygon fill="midnightblue" stroke="midnightblue" points="1126.74,-201.869 1137.24,-200.457 1128.15,-195.012 1126.74,-201.869"/>
</g>
<!-- Node30 -->
<g id="node15" class="node"><title>Node30</title>
<g id="a_node15"><a xlink:href="pyhistogram_8h_source.html" target="_top" xlink:title="py/cxx/tomographerpy\l/pyhistogram.h">
<polygon fill="none" stroke="black" points="1126.12,-130.5 1126.12,-158.5 1240.5,-158.5 1240.5,-130.5 1126.12,-130.5"/>
<text text-anchor="start" x="1134.12" y="-146.5" font-family="Helvetica,sans-Serif" font-size="10.00">py/cxx/tomographerpy</text>
<text text-anchor="middle" x="1183.31" y="-136.5" font-family="Helvetica,sans-Serif" font-size="10.00">/pyhistogram.h</text>
</a>
</g>
</g>
<!-- Node21&#45;&gt;Node30 -->
<g id="edge16" class="edge"><title>Node21&#45;&gt;Node30</title>
<path fill="none" stroke="midnightblue" d="M1178.35,-190.137C1179.46,-180.105 1180.82,-167.906 1181.83,-158.798"/>
<polygon fill="midnightblue" stroke="midnightblue" points="1174.85,-189.938 1177.22,-200.264 1181.81,-190.712 1174.85,-189.938"/>
</g>
<!-- Node22&#45;&gt;Node23 -->
<g id="edge7" class="edge"><title>Node22&#45;&gt;Node23</title>
<path fill="none" stroke="midnightblue" d="M871.395,-125.487C873.539,-107.183 879.846,-79.5175 898.308,-65 958.553,-17.6252 1165.35,-39.2294 1241.31,-29 1244.31,-28.5956 1247.37,-28.1667 1250.46,-27.7201"/>
<polygon fill="midnightblue" stroke="midnightblue" points="867.907,-125.208 870.527,-135.474 874.88,-125.815 867.907,-125.208"/>
</g>
<!-- Node22&#45;&gt;Node24 -->
<g id="edge8" class="edge"><title>Node22&#45;&gt;Node24</title>
<path fill="none" stroke="midnightblue" d="M804.963,-133.993C719.833,-121.606 572.463,-100.165 492.6,-88.5448"/>
<polygon fill="midnightblue" stroke="midnightblue" points="804.628,-137.481 815.028,-135.457 805.636,-130.554 804.628,-137.481"/>
</g>
<!-- Node22&#45;&gt;Node25 -->
<g id="edge10" class="edge"><title>Node22&#45;&gt;Node25</title>
<path fill="none" stroke="midnightblue" d="M825.417,-133.104C788.655,-124.127 735.523,-110.089 690.308,-94 629.213,-72.2607 559.635,-38.9741 528.665,-23.6895"/>
<polygon fill="midnightblue" stroke="midnightblue" points="824.789,-136.553 835.332,-135.499 826.433,-129.748 824.789,-136.553"/>
</g>
<!-- Node22&#45;&gt;Node26 -->
<g id="edge11" class="edge"><title>Node22&#45;&gt;Node26</title>
<path fill="none" stroke="midnightblue" d="M931.091,-133.908C992.494,-124.147 1090.06,-108.44 1174.31,-94 1184.35,-92.279 1195.13,-90.3719 1205.31,-88.5465"/>
<polygon fill="midnightblue" stroke="midnightblue" points="930.508,-130.457 921.181,-135.482 931.606,-137.37 930.508,-130.457"/>
</g>
<!-- Node22&#45;&gt;Node29 -->
<g id="edge15" class="edge"><title>Node22&#45;&gt;Node29</title>
<path fill="none" stroke="midnightblue" d="M901.321,-131.73C934.485,-119.144 986.185,-99.5224 1015.03,-88.5761"/>
<polygon fill="midnightblue" stroke="midnightblue" points="899.777,-128.572 891.669,-135.393 902.261,-135.117 899.777,-128.572"/>
</g>
<!-- Node24&#45;&gt;Node25 -->
<g id="edge9" class="edge"><title>Node24&#45;&gt;Node25</title>
<path fill="none" stroke="midnightblue" d="M455.117,-63.5397C470.04,-51.005 490.769,-33.5925 502.737,-23.539"/>
<polygon fill="midnightblue" stroke="midnightblue" points="452.518,-61.1519 447.113,-70.2639 457.021,-66.5119 452.518,-61.1519"/>
</g>
<!-- Node26&#45;&gt;Node23 -->
<g id="edge12" class="edge"><title>Node26&#45;&gt;Node23</title>
<path fill="none" stroke="midnightblue" d="M1266.87,-63.5513C1279.37,-52.9102 1296,-38.7494 1307.97,-28.5608"/>
<polygon fill="midnightblue" stroke="midnightblue" points="1264.33,-61.1163 1258.98,-70.2639 1268.87,-66.4464 1264.33,-61.1163"/>
</g>
<!-- Node27 -->
<g id="node12" class="node"><title>Node27</title>
<g id="a_node12"><a xlink:href="pymhrwtasks_8h_source.html" target="_top" xlink:title="py/cxx/tomographerpy\l/pymhrwtasks.h">
<polygon fill="none" stroke="black" points="1118.12,-0.5 1118.12,-28.5 1232.5,-28.5 1232.5,-0.5 1118.12,-0.5"/>
<text text-anchor="start" x="1126.12" y="-16.5" font-family="Helvetica,sans-Serif" font-size="10.00">py/cxx/tomographerpy</text>
<text text-anchor="middle" x="1175.31" y="-6.5" font-family="Helvetica,sans-Serif" font-size="10.00">/pymhrwtasks.h</text>
</a>
</g>
</g>
<!-- Node26&#45;&gt;Node27 -->
<g id="edge13" class="edge"><title>Node26&#45;&gt;Node27</title>
<path fill="none" stroke="midnightblue" d="M1231.75,-63.5513C1219.25,-52.9102 1202.62,-38.7494 1190.65,-28.5608"/>
<polygon fill="midnightblue" stroke="midnightblue" points="1229.75,-66.4464 1239.63,-70.2639 1234.29,-61.1163 1229.75,-66.4464"/>
</g>
<!-- Node28 -->
<g id="node13" class="node"><title>Node28</title>
<g id="a_node13"><a xlink:href="pymultiproc_8h_source.html" target="_top" xlink:title="py/cxx/tomographerpy\l/pymultiproc.h">
<polygon fill="none" stroke="black" points="699.118,-0.5 699.118,-28.5 813.497,-28.5 813.497,-0.5 699.118,-0.5"/>
<text text-anchor="start" x="707.118" y="-16.5" font-family="Helvetica,sans-Serif" font-size="10.00">py/cxx/tomographerpy</text>
<text text-anchor="middle" x="756.308" y="-6.5" font-family="Helvetica,sans-Serif" font-size="10.00">/pymultiproc.h</text>
</a>
</g>
</g>
<!-- Node26&#45;&gt;Node28 -->
<g id="edge14" class="edge"><title>Node26&#45;&gt;Node28</title>
<path fill="none" stroke="midnightblue" d="M1197.33,-68.7265C1189.63,-67.3986 1181.77,-66.1122 1174.31,-65 1045.83,-45.8481 894.249,-29.4278 813.585,-21.179"/>
<polygon fill="midnightblue" stroke="midnightblue" points="1196.88,-72.2002 1207.33,-70.4848 1198.09,-65.3059 1196.88,-72.2002"/>
</g>
<!-- Node30&#45;&gt;Node27 -->
<g id="edge17" class="edge"><title>Node30&#45;&gt;Node27</title>
<path fill="none" stroke="midnightblue" d="M1250.75,-136.611C1312.5,-127.519 1389.72,-107.4 1357.31,-65 1349.53,-54.8213 1283.24,-38.5884 1232.89,-27.5075"/>
<polygon fill="midnightblue" stroke="midnightblue" points="1250.03,-133.179 1240.61,-138.029 1251,-140.112 1250.03,-133.179"/>
</g>
<!-- Node31&#45;&gt;Node20 -->
<g id="edge19" class="edge"><title>Node31&#45;&gt;Node20</title>
<path fill="none" stroke="midnightblue" d="M764.552,-198.396C710.934,-187.284 624.816,-169.438 567.654,-157.592"/>
<polygon fill="midnightblue" stroke="midnightblue" points="763.995,-201.855 774.497,-200.457 765.415,-195.001 763.995,-201.855"/>
</g>
<!-- Node31&#45;&gt;Node22 -->
<g id="edge21" class="edge"><title>Node31&#45;&gt;Node22</title>
<path fill="none" stroke="midnightblue" d="M827.484,-192.832C838.771,-180.357 854.108,-163.405 863.034,-153.539"/>
<polygon fill="midnightblue" stroke="midnightblue" points="824.873,-190.5 820.759,-200.264 830.064,-195.197 824.873,-190.5"/>
</g>
<!-- Node31&#45;&gt;Node24 -->
<g id="edge20" class="edge"><title>Node31&#45;&gt;Node24</title>
<path fill="none" stroke="midnightblue" d="M752.1,-198.479C712.986,-190.733 661.815,-178.063 619.308,-159 598.275,-149.567 596.883,-140.393 576.308,-130 539.952,-111.636 495.137,-96.9888 466.395,-88.5252"/>
<polygon fill="midnightblue" stroke="midnightblue" points="751.801,-201.986 762.282,-200.439 753.124,-195.112 751.801,-201.986"/>
</g>
<!-- Node31&#45;&gt;Node25 -->
<g id="edge22" class="edge"><title>Node31&#45;&gt;Node25</title>
<path fill="none" stroke="midnightblue" d="M782.105,-196.622C759.569,-187.532 728.752,-174.031 703.308,-159 683.935,-147.555 560.167,-52.4052 522.907,-23.6797"/>
<polygon fill="midnightblue" stroke="midnightblue" points="780.935,-199.924 791.521,-200.359 783.517,-193.417 780.935,-199.924"/>
</g>
<!-- Node31&#45;&gt;Node26 -->
<g id="edge23" class="edge"><title>Node31&#45;&gt;Node26</title>
<path fill="none" stroke="midnightblue" d="M855.173,-197.865C892.384,-188.249 948.183,-173.427 996.308,-159 1035.75,-147.175 1045.03,-142.362 1084.31,-130 1132.52,-114.827 1188.98,-98.1148 1221.8,-88.508"/>
<polygon fill="midnightblue" stroke="midnightblue" points="854.005,-194.552 845.193,-200.434 855.75,-201.33 854.005,-194.552"/>
</g>
<!-- Node31&#45;&gt;Node27 -->
<g id="edge28" class="edge"><title>Node31&#45;&gt;Node27</title>
<path fill="none" stroke="midnightblue" d="M796.415,-192.662C781.47,-176.644 763.697,-151.279 775.308,-130 781.7,-118.285 863.856,-69.8004 876.308,-65 956.577,-34.0555 1056.28,-22.4466 1117.85,-18.0975"/>
<polygon fill="midnightblue" stroke="midnightblue" points="794.277,-195.477 803.803,-200.116 799.249,-190.549 794.277,-195.477"/>
</g>
<!-- Node31&#45;&gt;Node28 -->
<g id="edge29" class="edge"><title>Node31&#45;&gt;Node28</title>
<path fill="none" stroke="midnightblue" d="M787.123,-195.702C770.747,-186.871 749.883,-174.034 734.308,-159 709.208,-134.772 700.535,-127.353 690.308,-94 686.529,-81.6774 684.544,-76.5282 690.308,-65 698.314,-48.9865 714.238,-36.8095 728.438,-28.5403"/>
<polygon fill="midnightblue" stroke="midnightblue" points="785.687,-198.901 796.172,-200.425 788.926,-192.695 785.687,-198.901"/>
</g>
<!-- Node31&#45;&gt;Node29 -->
<g id="edge24" class="edge"><title>Node31&#45;&gt;Node29</title>
<path fill="none" stroke="midnightblue" d="M867.576,-198.089C898.017,-190.531 935.703,-178.193 965.308,-159 995.221,-139.607 1020.57,-104.526 1031.09,-88.6705"/>
<polygon fill="midnightblue" stroke="midnightblue" points="866.472,-194.753 857.553,-200.471 868.092,-201.564 866.472,-194.753"/>
</g>
<!-- Node32 -->
<g id="node17" class="node"><title>Node32</title>
<g id="a_node17"><a xlink:href="pymhrw_8h_source.html" target="_top" xlink:title="py/cxx/tomographerpy\l/pymhrw.h">
<polygon fill="none" stroke="black" points="699.118,-65.5 699.118,-93.5 813.497,-93.5 813.497,-65.5 699.118,-65.5"/>
<text text-anchor="start" x="707.118" y="-81.5" font-family="Helvetica,sans-Serif" font-size="10.00">py/cxx/tomographerpy</text>
<text text-anchor="middle" x="756.308" y="-71.5" font-family="Helvetica,sans-Serif" font-size="10.00">/pymhrw.h</text>
</a>
</g>
</g>
<!-- Node31&#45;&gt;Node32 -->
<g id="edge25" class="edge"><title>Node31&#45;&gt;Node32</title>
<path fill="none" stroke="midnightblue" d="M783.1,-195.809C767.915,-187.691 750.943,-175.548 742.308,-159 731.356,-138.013 741.281,-110.038 749.08,-93.7747"/>
<polygon fill="midnightblue" stroke="midnightblue" points="781.72,-199.031 792.233,-200.346 784.835,-192.762 781.72,-199.031"/>
</g>
<!-- Node32&#45;&gt;Node27 -->
<g id="edge26" class="edge"><title>Node32&#45;&gt;Node27</title>
<path fill="none" stroke="midnightblue" d="M823.515,-65.6377C824.789,-65.421 826.054,-65.2082 827.308,-65 929.347,-48.0515 1048.82,-31.8463 1117.91,-22.8301"/>
<polygon fill="midnightblue" stroke="midnightblue" points="822.867,-62.1979 813.618,-67.3656 824.071,-69.0936 822.867,-62.1979"/>
</g>
<!-- Node32&#45;&gt;Node28 -->
<g id="edge27" class="edge"><title>Node32&#45;&gt;Node28</title>
<path fill="none" stroke="midnightblue" d="M756.308,-55.1641C756.308,-46.1693 756.308,-36.2205 756.308,-28.5369"/>
<polygon fill="midnightblue" stroke="midnightblue" points="752.808,-55.4463 756.308,-65.4464 759.808,-55.4464 752.808,-55.4463"/>
</g>
<!-- Node33&#45;&gt;Node22 -->
<g id="edge32" class="edge"><title>Node33&#45;&gt;Node22</title>
<path fill="none" stroke="midnightblue" d="M944.395,-252.053C924.302,-223.155 889.495,-173.095 875.939,-153.6"/>
<polygon fill="midnightblue" stroke="midnightblue" points="941.536,-254.072 950.118,-260.284 947.283,-250.075 941.536,-254.072"/>
</g>
<!-- Node33&#45;&gt;Node27 -->
<g id="edge33" class="edge"><title>Node33&#45;&gt;Node27</title>
<path fill="none" stroke="midnightblue" d="M975.802,-252.244C1002.02,-220.102 1056.5,-159.734 1117.31,-130 1201.2,-88.9822 1264.2,-165.464 1324.31,-94 1332.6,-84.1362 1331.85,-75.4522 1324.31,-65 1313.18,-49.5818 1269.94,-36.2685 1232.88,-27.3444"/>
<polygon fill="midnightblue" stroke="midnightblue" points="972.993,-250.152 969.466,-260.143 978.453,-254.533 972.993,-250.152"/>
</g>
<!-- Node33&#45;&gt;Node31 -->
<g id="edge31" class="edge"><title>Node33&#45;&gt;Node31</title>
<path fill="none" stroke="midnightblue" d="M919.747,-256.429C891.211,-244.116 853.978,-228.05 831.959,-218.548"/>
<polygon fill="midnightblue" stroke="midnightblue" points="918.488,-259.698 929.056,-260.446 921.261,-253.271 918.488,-259.698"/>
</g>
<!-- Node34&#45;&gt;Node26 -->
<g id="edge41" class="edge"><title>Node34&#45;&gt;Node26</title>
<path fill="none" stroke="midnightblue" d="M1303.85,-256.74C1298.35,-247.375 1291.82,-235.339 1287.31,-224 1267.56,-174.44 1254.9,-111.204 1250.78,-88.8123"/>
<polygon fill="midnightblue" stroke="midnightblue" points="1300.91,-258.649 1309.09,-265.39 1306.9,-255.023 1300.91,-258.649"/>
</g>
<!-- Node34&#45;&gt;Node31 -->
<g id="edge40" class="edge"><title>Node34&#45;&gt;Node31</title>
<path fill="none" stroke="midnightblue" d="M1241.69,-264.369C1140.09,-251.592 957.819,-228.672 867.329,-217.293"/>
<polygon fill="midnightblue" stroke="midnightblue" points="1241.51,-267.873 1251.87,-265.648 1242.38,-260.928 1241.51,-267.873"/>
</g>
<!-- Node34&#45;&gt;Node35 -->
<g id="edge42" class="edge"><title>Node34&#45;&gt;Node35</title>
<path fill="none" stroke="midnightblue" d="M1349.52,-262.295C1388.99,-249.738 1452,-229.688 1486.93,-218.576"/>
<polygon fill="midnightblue" stroke="midnightblue" points="1348.26,-259.025 1339.79,-265.393 1350.38,-265.696 1348.26,-259.025"/>
</g>
<!-- Node34&#45;&gt;Node36 -->
<g id="edge43" class="edge"><title>Node34&#45;&gt;Node36</title>
<path fill="none" stroke="midnightblue" d="M1371.02,-263.765C1443.37,-251.345 1567.17,-230.094 1634.44,-218.545"/>
<polygon fill="midnightblue" stroke="midnightblue" points="1370.42,-260.316 1361.16,-265.457 1371.61,-267.215 1370.42,-260.316"/>
</g>
<!-- Node37 -->
<g id="node22" class="node"><title>Node37</title>
<g id="a_node22"><a xlink:href="signal__status__report_8h.html" target="_top" xlink:title="Basic common code for intercepting a signal to print status information of a task manager...">
<polygon fill="none" stroke="black" points="1296.55,-195.5 1296.55,-223.5 1422.06,-223.5 1422.06,-195.5 1296.55,-195.5"/>
<text text-anchor="start" x="1304.55" y="-211.5" font-family="Helvetica,sans-Serif" font-size="10.00">tomographer/tools/signal</text>
<text text-anchor="middle" x="1359.31" y="-201.5" font-family="Helvetica,sans-Serif" font-size="10.00">_status_report.h</text>
</a>
</g>
</g>
<!-- Node34&#45;&gt;Node37 -->
<g id="edge44" class="edge"><title>Node34&#45;&gt;Node37</title>
<path fill="none" stroke="midnightblue" d="M1326.06,-257.051C1333.46,-246.692 1342.88,-233.494 1349.81,-223.798"/>
<polygon fill="midnightblue" stroke="midnightblue" points="1323.15,-255.092 1320.19,-265.264 1328.85,-259.161 1323.15,-255.092"/>
</g>
</g>
</svg>
