<?xml version="1.0" encoding="UTF-8" standalone="no"?>
<!DOCTYPE svg PUBLIC "-//W3C//DTD SVG 1.1//EN"
 "http://www.w3.org/Graphics/SVG/1.1/DTD/svg11.dtd">
<!-- Generated by graphviz version 2.38.0 (20140413.2041)
 -->
<!-- Title: tomographer/mathtools/random_unitary.h Pages: 1 -->
<!--zoomable 312 -->
<svg id="main" version="1.1" xmlns="http://www.w3.org/2000/svg" xmlns:xlink="http://www.w3.org/1999/xlink" xml:space="preserve" onload="init(evt)">
<style type="text/css"><![CDATA[
.edge:hover path { stroke: red; }
.edge:hover polygon { stroke: red; fill: red; }
]]></style>
<script type="text/javascript"><![CDATA[
var edges = document.getElementsByTagName('g');
if (edges && edges.length) {
  for (var i=0;i<edges.length;i++) {
    if (edges[i].id.substr(0,4)=='edge') {
      edges[i].setAttribute('class','edge');
    }
  }
}
]]></script>
        <defs>
                <circle id="rim" cx="0" cy="0" r="7"/>
                <circle id="rim2" cx="0" cy="0" r="3.5"/>
                <g id="zoomPlus">
                        <use xlink:href="#rim" fill="#404040">
                                <set attributeName="fill" to="#808080" begin="zoomplus.mouseover" end="zoomplus.mouseout"/>
                        </use>
                        <path d="M-4,0h8M0,-4v8" fill="none" stroke="white" stroke-width="1.5" pointer-events="none"/>
                </g>
                <g id="zoomMin">
                        <use xlink:href="#rim" fill="#404040">
                                <set attributeName="fill" to="#808080" begin="zoomminus.mouseover" end="zoomminus.mouseout"/>
                        </use>
                        <path d="M-4,0h8" fill="none" stroke="white" stroke-width="1.5" pointer-events="none"/>
                </g>
                <g id="dirArrow">
                        <path fill="none" stroke="white" stroke-width="1.5" d="M0,-3.0v7 M-2.5,-0.5L0,-3.0L2.5,-0.5"/>
                </g>
               <g id="resetDef">
                       <use xlink:href="#rim2" fill="#404040">
                               <set attributeName="fill" to="#808080" begin="reset.mouseover" end="reset.mouseout"/>
                       </use>
               </g>
        </defs>

<script type="text/javascript">
var viewWidth = 1425;
var viewHeight = 312;
var sectionId = 'dynsection-0';
</script>
<script xlink:href="svgpan.js"/>
<svg id="graph" class="graph">
<g id="viewport">
<title>tomographer/mathtools/random_unitary.h</title>
<!-- Node0 -->
<g id="node1" class="node"><title>Node0</title>
<polygon fill="#bfbfbf" stroke="black" points="463.599,-275.5 463.599,-303.5 582.431,-303.5 582.431,-275.5 463.599,-275.5"/>
<text text-anchor="start" x="471.599" y="-291.5" font-family="Helvetica,sans-Serif" font-size="10.00">tomographer/mathtools</text>
<text text-anchor="middle" x="523.015" y="-281.5" font-family="Helvetica,sans-Serif" font-size="10.00">/random_unitary.h</text>
</g>
<!-- Node1 -->
<g id="node2" class="node"><title>Node1</title>
<polygon fill="none" stroke="#bfbfbf" points="662.842,-55.5 662.842,-73.5 717.187,-73.5 717.187,-55.5 662.842,-55.5"/>
<text text-anchor="middle" x="690.015" y="-61.5" font-family="Helvetica,sans-Serif" font-size="10.00">iostream</text>
</g>
<!-- Node0&#45;&gt;Node1 -->
<g id="edge1" class="edge"><title>Node0&#45;&gt;Node1</title>
<path fill="none" stroke="midnightblue" d="M524.998,-275.049C530.431,-242.637 548.378,-159.259 595.015,-110 610.654,-93.4815 633.646,-82.4888 653.093,-75.562"/>
<polygon fill="midnightblue" stroke="midnightblue" points="654.216,-78.8772 662.594,-72.3923 652.001,-72.237 654.216,-78.8772"/>
</g>
<!-- Node2 -->
<g id="node3" class="node"><title>Node2</title>
<polygon fill="none" stroke="#bfbfbf" points="1119.06,-220.5 1119.06,-238.5 1168.97,-238.5 1168.97,-220.5 1119.06,-220.5"/>
<text text-anchor="middle" x="1144.01" y="-226.5" font-family="Helvetica,sans-Serif" font-size="10.00">random</text>
</g>
<!-- Node0&#45;&gt;Node2 -->
<g id="edge2" class="edge"><title>Node0&#45;&gt;Node2</title>
<path fill="none" stroke="midnightblue" d="M582.563,-286.642C687.275,-282.684 911.233,-271.139 1108.87,-238.918"/>
<polygon fill="midnightblue" stroke="midnightblue" points="1109.56,-242.351 1118.86,-237.268 1108.42,-235.445 1109.56,-242.351"/>
</g>
<!-- Node3 -->
<g id="node4" class="node"><title>Node3</title>
<polygon fill="none" stroke="#bfbfbf" points="0,-55.5 0,-73.5 66.0293,-73.5 66.0293,-55.5 0,-55.5"/>
<text text-anchor="middle" x="33.0146" y="-61.5" font-family="Helvetica,sans-Serif" font-size="10.00">Eigen/Core</text>
</g>
<!-- Node0&#45;&gt;Node3 -->
<g id="edge3" class="edge"><title>Node0&#45;&gt;Node3</title>
<path fill="none" stroke="midnightblue" d="M469.57,-275.441C399.373,-257.684 272.74,-223.565 168.015,-184 113.887,-163.551 87.2062,-173.325 50.0146,-129 39.4697,-116.432 35.407,-97.9567 33.8715,-84.1707"/>
<polygon fill="midnightblue" stroke="midnightblue" points="37.3406,-83.6305 33.0894,-73.926 30.3609,-84.1635 37.3406,-83.6305"/>
</g>
<!-- Node4 -->
<g id="node5" class="node"><title>Node4</title>
<g id="a_node5"><a xlink:href="eigenutil_8h.html" target="_top" xlink:title="Basic utilities for dealing with Eigen matrices and other types. ">
<polygon fill="none" stroke="black" points="176.53,-165.5 176.53,-183.5 321.5,-183.5 321.5,-165.5 176.53,-165.5"/>
<text text-anchor="middle" x="249.015" y="-171.5" font-family="Helvetica,sans-Serif" font-size="10.00">tomographer/tools/eigenutil.h</text>
</a>
</g>
</g>
<!-- Node0&#45;&gt;Node4 -->
<g id="edge4" class="edge"><title>Node0&#45;&gt;Node4</title>
<path fill="none" stroke="midnightblue" d="M491.316,-275.427C437.585,-253.268 329.441,-208.669 277.773,-187.36"/>
<polygon fill="midnightblue" stroke="midnightblue" points="279.096,-184.12 268.517,-183.543 276.427,-190.591 279.096,-184.12"/>
</g>
<!-- Node9 -->
<g id="node10" class="node"><title>Node9</title>
<g id="a_node10"><a xlink:href="loggers_8h.html" target="_top" xlink:title="Utilities for logging messages. ">
<polygon fill="none" stroke="black" points="960.756,-220.5 960.756,-238.5 1101.27,-238.5 1101.27,-220.5 960.756,-220.5"/>
<text text-anchor="middle" x="1031.01" y="-226.5" font-family="Helvetica,sans-Serif" font-size="10.00">tomographer/tools/loggers.h</text>
</a>
</g>
</g>
<!-- Node0&#45;&gt;Node9 -->
<g id="edge10" class="edge"><title>Node0&#45;&gt;Node9</title>
<path fill="none" stroke="midnightblue" d="M582.783,-281.676C674.159,-271.243 848.725,-251.313 950.955,-239.641"/>
<polygon fill="midnightblue" stroke="midnightblue" points="951.383,-243.115 960.921,-238.503 950.589,-236.16 951.383,-243.115"/>
</g>
<!-- Node22 -->
<g id="node23" class="node"><title>Node22</title>
<g id="a_node23"><a xlink:href="cxxutil_8h.html" target="_top" xlink:title="Some C++ utilities, with a tad of C++11 tricks. ">
<polygon fill="none" stroke="black" points="374.264,-110.5 374.264,-128.5 509.766,-128.5 509.766,-110.5 374.264,-110.5"/>
<text text-anchor="middle" x="442.015" y="-116.5" font-family="Helvetica,sans-Serif" font-size="10.00">tomographer/tools/cxxutil.h</text>
</a>
</g>
</g>
<!-- Node0&#45;&gt;Node22 -->
<g id="edge49" class="edge"><title>Node0&#45;&gt;Node22</title>
<path fill="none" stroke="midnightblue" d="M516.659,-275.317C502.125,-245.174 466.475,-171.232 450.271,-137.624"/>
<polygon fill="midnightblue" stroke="midnightblue" points="453.407,-136.069 445.911,-128.582 447.102,-139.11 453.407,-136.069"/>
</g>
<!-- Node4&#45;&gt;Node3 -->
<g id="edge7" class="edge"><title>Node4&#45;&gt;Node3</title>
<path fill="none" stroke="midnightblue" d="M176.208,-168.859C140.926,-163.481 99.6685,-152.241 69.0146,-129 53.8859,-117.53 44.1352,-97.738 38.6492,-83.2923"/>
<polygon fill="midnightblue" stroke="midnightblue" points="41.8436,-81.8205 35.2668,-73.5141 35.2282,-84.1089 41.8436,-81.8205"/>
</g>
<!-- Node5 -->
<g id="node6" class="node"><title>Node5</title>
<polygon fill="none" stroke="#bfbfbf" points="84.3965,-55.5 84.3965,-73.5 137.633,-73.5 137.633,-55.5 84.3965,-55.5"/>
<text text-anchor="middle" x="111.015" y="-61.5" font-family="Helvetica,sans-Serif" font-size="10.00">complex</text>
</g>
<!-- Node4&#45;&gt;Node5 -->
<g id="edge5" class="edge"><title>Node4&#45;&gt;Node5</title>
<path fill="none" stroke="midnightblue" d="M255.291,-165.237C264.34,-152.239 278.649,-126.773 266.015,-110 258.763,-100.373 191.138,-83.5636 147.64,-73.5894"/>
<polygon fill="midnightblue" stroke="midnightblue" points="148.214,-70.1307 137.687,-71.3296 146.664,-76.957 148.214,-70.1307"/>
</g>
<!-- Node6 -->
<g id="node7" class="node"><title>Node6</title>
<polygon fill="none" stroke="#bfbfbf" points="313.399,-110.5 313.399,-128.5 356.63,-128.5 356.63,-110.5 313.399,-110.5"/>
<text text-anchor="middle" x="335.015" y="-116.5" font-family="Helvetica,sans-Serif" font-size="10.00">vector</text>
</g>
<!-- Node4&#45;&gt;Node6 -->
<g id="edge6" class="edge"><title>Node4&#45;&gt;Node6</title>
<path fill="none" stroke="midnightblue" d="M262.076,-165.45C275.588,-157.123 296.931,-143.97 313.045,-134.039"/>
<polygon fill="midnightblue" stroke="midnightblue" points="315.153,-136.851 321.83,-128.625 311.481,-130.892 315.153,-136.851"/>
</g>
<!-- Node7 -->
<g id="node8" class="node"><title>Node7</title>
<polygon fill="none" stroke="#bfbfbf" points="78.3843,-110.5 78.3843,-128.5 151.645,-128.5 151.645,-110.5 78.3843,-110.5"/>
<text text-anchor="middle" x="115.015" y="-116.5" font-family="Helvetica,sans-Serif" font-size="10.00">Eigen/Dense</text>
</g>
<!-- Node4&#45;&gt;Node7 -->
<g id="edge8" class="edge"><title>Node4&#45;&gt;Node7</title>
<path fill="none" stroke="midnightblue" d="M228.663,-165.45C206.428,-156.656 170.587,-142.48 145.103,-132.401"/>
<polygon fill="midnightblue" stroke="midnightblue" points="146.144,-129.049 135.558,-128.625 143.57,-135.558 146.144,-129.049"/>
</g>
<!-- Node8 -->
<g id="node9" class="node"><title>Node8</title>
<polygon fill="none" stroke="#bfbfbf" points="169.155,-110.5 169.155,-128.5 256.874,-128.5 256.874,-110.5 169.155,-110.5"/>
<text text-anchor="middle" x="213.015" y="-116.5" font-family="Helvetica,sans-Serif" font-size="10.00">Eigen/StdVector</text>
</g>
<!-- Node4&#45;&gt;Node8 -->
<g id="edge9" class="edge"><title>Node4&#45;&gt;Node8</title>
<path fill="none" stroke="midnightblue" d="M243.39,-165.219C238.288,-157.707 230.615,-146.411 224.257,-137.052"/>
<polygon fill="midnightblue" stroke="midnightblue" points="226.996,-134.855 218.482,-128.55 221.206,-138.788 226.996,-134.855"/>
</g>
<!-- Node9&#45;&gt;Node1 -->
<g id="edge15" class="edge"><title>Node9&#45;&gt;Node1</title>
<path fill="none" stroke="midnightblue" d="M1047.51,-220.471C1085.15,-201.162 1171.29,-150.71 1134.01,-110 1104.84,-78.14 803.919,-80.8578 727.681,-73.6552"/>
<polygon fill="midnightblue" stroke="midnightblue" points="727.801,-70.1439 717.451,-72.4072 726.953,-77.0924 727.801,-70.1439"/>
</g>
<!-- Node10 -->
<g id="node11" class="node"><title>Node10</title>
<polygon fill="none" stroke="#bfbfbf" points="679.953,-110.5 679.953,-128.5 722.076,-128.5 722.076,-110.5 679.953,-110.5"/>
<text text-anchor="middle" x="701.015" y="-116.5" font-family="Helvetica,sans-Serif" font-size="10.00">cstdio</text>
</g>
<!-- Node9&#45;&gt;Node10 -->
<g id="edge11" class="edge"><title>Node9&#45;&gt;Node10</title>
<path fill="none" stroke="midnightblue" d="M960.557,-225.568C908.397,-221.179 836.686,-210.382 779.015,-184 753.826,-172.478 729.906,-150.854 715.352,-136.072"/>
<polygon fill="midnightblue" stroke="midnightblue" points="717.721,-133.484 708.282,-128.67 712.659,-138.319 717.721,-133.484"/>
</g>
<!-- Node11 -->
<g id="node12" class="node"><title>Node11</title>
<polygon fill="none" stroke="#bfbfbf" points="1006.62,-110.5 1006.62,-128.5 1055.41,-128.5 1055.41,-110.5 1006.62,-110.5"/>
<text text-anchor="middle" x="1031.01" y="-116.5" font-family="Helvetica,sans-Serif" font-size="10.00">cstdarg</text>
</g>
<!-- Node9&#45;&gt;Node11 -->
<g id="edge12" class="edge"><title>Node9&#45;&gt;Node11</title>
<path fill="none" stroke="midnightblue" d="M1031.01,-220.382C1031.01,-203.182 1031.01,-162.698 1031.01,-138.887"/>
<polygon fill="midnightblue" stroke="midnightblue" points="1034.51,-138.712 1031.01,-128.712 1027.51,-138.712 1034.51,-138.712"/>
</g>
<!-- Node12 -->
<g id="node13" class="node"><title>Node12</title>
<polygon fill="none" stroke="#bfbfbf" points="884.788,-0.5 884.788,-18.5 925.241,-18.5 925.241,-0.5 884.788,-0.5"/>
<text text-anchor="middle" x="905.015" y="-6.5" font-family="Helvetica,sans-Serif" font-size="10.00">string</text>
</g>
<!-- Node9&#45;&gt;Node12 -->
<g id="edge13" class="edge"><title>Node9&#45;&gt;Node12</title>
<path fill="none" stroke="midnightblue" d="M1101.39,-220.892C1211.02,-208.957 1410.44,-186.891 1413.01,-184 1418.63,-177.693 1418.04,-171.784 1413.01,-165 1354.03,-85.4134 1036.04,-30.5645 935.505,-15.0105"/>
<polygon fill="midnightblue" stroke="midnightblue" points="935.818,-11.5178 925.404,-13.4675 934.761,-18.4375 935.818,-11.5178"/>
</g>
<!-- Node13 -->
<g id="node14" class="node"><title>Node13</title>
<polygon fill="none" stroke="#bfbfbf" points="1073.23,-110.5 1073.23,-128.5 1124.8,-128.5 1124.8,-110.5 1073.23,-110.5"/>
<text text-anchor="middle" x="1099.01" y="-116.5" font-family="Helvetica,sans-Serif" font-size="10.00">sstream</text>
</g>
<!-- Node9&#45;&gt;Node13 -->
<g id="edge14" class="edge"><title>Node9&#45;&gt;Node13</title>
<path fill="none" stroke="midnightblue" d="M1036.13,-220.382C1047.2,-202.791 1073.61,-160.846 1088.44,-137.289"/>
<polygon fill="midnightblue" stroke="midnightblue" points="1091.48,-139.039 1093.84,-128.712 1085.55,-135.309 1091.48,-139.039"/>
</g>
<!-- Node14 -->
<g id="node15" class="node"><title>Node14</title>
<polygon fill="none" stroke="#bfbfbf" points="603.611,-110.5 603.611,-128.5 662.418,-128.5 662.418,-110.5 603.611,-110.5"/>
<text text-anchor="middle" x="633.015" y="-116.5" font-family="Helvetica,sans-Serif" font-size="10.00">functional</text>
</g>
<!-- Node9&#45;&gt;Node14 -->
<g id="edge16" class="edge"><title>Node9&#45;&gt;Node14</title>
<path fill="none" stroke="midnightblue" d="M960.541,-224.629C901.581,-219.73 815.961,-208.703 745.015,-184 710.29,-171.909 673.946,-149.137 652.403,-134.404"/>
<polygon fill="midnightblue" stroke="midnightblue" points="654.329,-131.48 644.123,-128.636 650.328,-137.224 654.329,-131.48"/>
</g>
<!-- Node15 -->
<g id="node16" class="node"><title>Node15</title>
<polygon fill="none" stroke="#bfbfbf" points="582.948,-55.5 582.948,-73.5 645.081,-73.5 645.081,-55.5 582.948,-55.5"/>
<text text-anchor="middle" x="614.015" y="-61.5" font-family="Helvetica,sans-Serif" font-size="10.00">type_traits</text>
</g>
<!-- Node9&#45;&gt;Node15 -->
<g id="edge17" class="edge"><title>Node9&#45;&gt;Node15</title>
<path fill="none" stroke="midnightblue" d="M960.689,-226.123C892.603,-222.186 787.175,-211.735 700.015,-184 649.814,-168.026 622.287,-174.073 595.015,-129 586.29,-114.581 593.766,-95.8778 601.762,-82.5109"/>
<polygon fill="midnightblue" stroke="midnightblue" points="604.882,-84.1369 607.452,-73.8586 599.033,-80.2908 604.882,-84.1369"/>
</g>
<!-- Node16 -->
<g id="node17" class="node"><title>Node16</title>
<polygon fill="none" stroke="#bfbfbf" points="1219.29,-165.5 1219.29,-183.5 1254.74,-183.5 1254.74,-165.5 1219.29,-165.5"/>
<text text-anchor="middle" x="1237.01" y="-171.5" font-family="Helvetica,sans-Serif" font-size="10.00">map</text>
</g>
<!-- Node9&#45;&gt;Node16 -->
<g id="edge18" class="edge"><title>Node9&#45;&gt;Node16</title>
<path fill="none" stroke="midnightblue" d="M1062.79,-220.468C1097.69,-211.623 1155.38,-196.938 1205.01,-184 1206.44,-183.628 1207.9,-183.246 1209.38,-182.859"/>
<polygon fill="midnightblue" stroke="midnightblue" points="1210.31,-186.233 1219.08,-180.295 1208.52,-179.465 1210.31,-186.233"/>
</g>
<!-- Node17 -->
<g id="node18" class="node"><title>Node17</title>
<polygon fill="none" stroke="#bfbfbf" points="1272.48,-165.5 1272.48,-183.5 1403.55,-183.5 1403.55,-165.5 1272.48,-165.5"/>
<text text-anchor="middle" x="1338.01" y="-171.5" font-family="Helvetica,sans-Serif" font-size="10.00">boost/algorithm/string.hpp</text>
</g>
<!-- Node9&#45;&gt;Node17 -->
<g id="edge19" class="edge"><title>Node9&#45;&gt;Node17</title>
<path fill="none" stroke="midnightblue" d="M1077.64,-220.45C1132.23,-211.026 1222.63,-195.42 1281.25,-185.299"/>
<polygon fill="midnightblue" stroke="midnightblue" points="1282.19,-188.689 1291.45,-183.538 1281,-181.791 1282.19,-188.689"/>
</g>
<!-- Node18 -->
<g id="node19" class="node"><title>Node18</title>
<g id="a_node19"><a xlink:href="fmt_8h.html" target="_top" xlink:title="Utilities for formatting strings. ">
<polygon fill="none" stroke="black" points="788.212,-165.5 788.212,-183.5 909.817,-183.5 909.817,-165.5 788.212,-165.5"/>
<text text-anchor="middle" x="849.015" y="-171.5" font-family="Helvetica,sans-Serif" font-size="10.00">tomographer/tools/fmt.h</text>
</a>
</g>
</g>
<!-- Node9&#45;&gt;Node18 -->
<g id="edge20" class="edge"><title>Node9&#45;&gt;Node18</title>
<path fill="none" stroke="midnightblue" d="M1003.37,-220.45C972.148,-211.357 921.165,-196.511 886.403,-186.388"/>
<polygon fill="midnightblue" stroke="midnightblue" points="887.198,-182.974 876.618,-183.538 885.24,-189.695 887.198,-182.974"/>
</g>
<!-- Node30 -->
<g id="node31" class="node"><title>Node30</title>
<g id="a_node31"><a xlink:href="conststr_8h.html" target="_top" xlink:title="A constexpr string type, suitable for basic compile&#45;time string processing. ">
<polygon fill="none" stroke="black" points="734.924,-55.5 734.924,-73.5 877.105,-73.5 877.105,-55.5 734.924,-55.5"/>
<text text-anchor="middle" x="806.015" y="-61.5" font-family="Helvetica,sans-Serif" font-size="10.00">tomographer/tools/conststr.h</text>
</a>
</g>
</g>
<!-- Node9&#45;&gt;Node30 -->
<g id="edge48" class="edge"><title>Node9&#45;&gt;Node30</title>
<path fill="none" stroke="midnightblue" d="M1072.54,-220.465C1108.24,-212.613 1155.71,-199.588 1167.01,-184 1186.32,-157.372 1188.8,-134.638 1167.01,-110 1148.79,-89.391 988.096,-76.2194 887.341,-69.9095"/>
<polygon fill="midnightblue" stroke="midnightblue" points="887.377,-66.4052 877.181,-69.2837 886.947,-73.392 887.377,-66.4052"/>
</g>
<!-- Node18&#45;&gt;Node1 -->
<g id="edge26" class="edge"><title>Node18&#45;&gt;Node1</title>
<path fill="none" stroke="midnightblue" d="M890.904,-165.498C931.5,-155.922 983.722,-137.634 960.015,-110 927.564,-72.1752 792.96,-82.7279 727.707,-73.8902"/>
<polygon fill="midnightblue" stroke="midnightblue" points="727.917,-70.3782 717.484,-72.2222 726.789,-77.2868 727.917,-70.3782"/>
</g>
<!-- Node18&#45;&gt;Node6 -->
<g id="edge28" class="edge"><title>Node18&#45;&gt;Node6</title>
<path fill="none" stroke="midnightblue" d="M788.158,-171.503C697.92,-167.751 523.295,-157.46 367.119,-129.088"/>
<polygon fill="midnightblue" stroke="midnightblue" points="367.329,-125.567 356.859,-127.192 366.057,-132.451 367.329,-125.567"/>
</g>
<!-- Node18&#45;&gt;Node10 -->
<g id="edge21" class="edge"><title>Node18&#45;&gt;Node10</title>
<path fill="none" stroke="midnightblue" d="M826.537,-165.45C801.33,-156.424 760.289,-141.727 732.038,-131.61"/>
<polygon fill="midnightblue" stroke="midnightblue" points="732.856,-128.185 722.261,-128.109 730.496,-134.775 732.856,-128.185"/>
</g>
<!-- Node18&#45;&gt;Node11 -->
<g id="edge22" class="edge"><title>Node18&#45;&gt;Node11</title>
<path fill="none" stroke="midnightblue" d="M876.657,-165.45C908.877,-156.068 962.135,-140.558 996.9,-130.434"/>
<polygon fill="midnightblue" stroke="midnightblue" points="997.994,-133.761 1006.62,-127.605 996.037,-127.04 997.994,-133.761"/>
</g>
<!-- Node18&#45;&gt;Node12 -->
<g id="edge24" class="edge"><title>Node18&#45;&gt;Node12</title>
<path fill="none" stroke="midnightblue" d="M823.234,-165.493C793.483,-154.883 750.842,-134.605 769.015,-110 801.337,-66.2365 847.694,-112.62 886.015,-74 897.91,-62.0117 902.411,-42.8983 904.086,-28.7697"/>
<polygon fill="midnightblue" stroke="midnightblue" points="907.58,-28.9923 904.911,-18.739 900.603,-28.4184 907.58,-28.9923"/>
</g>
<!-- Node18&#45;&gt;Node13 -->
<g id="edge25" class="edge"><title>Node18&#45;&gt;Node13</title>
<path fill="none" stroke="midnightblue" d="M889.921,-165.466C931.211,-157.259 997.047,-143.913 1063.27,-129.106"/>
<polygon fill="midnightblue" stroke="midnightblue" points="1064.05,-132.518 1073.04,-126.912 1062.52,-125.688 1064.05,-132.518"/>
</g>
<!-- Node18&#45;&gt;Node14 -->
<g id="edge30" class="edge"><title>Node18&#45;&gt;Node14</title>
<path fill="none" stroke="midnightblue" d="M816.209,-165.45C777.694,-156 713.852,-140.335 672.616,-130.217"/>
<polygon fill="midnightblue" stroke="midnightblue" points="673.195,-126.755 662.649,-127.771 671.526,-133.554 673.195,-126.755"/>
</g>
<!-- Node19 -->
<g id="node20" class="node"><title>Node19</title>
<polygon fill="none" stroke="#bfbfbf" points="777.727,-110.5 777.727,-128.5 824.303,-128.5 824.303,-110.5 777.727,-110.5"/>
<text text-anchor="middle" x="801.015" y="-116.5" font-family="Helvetica,sans-Serif" font-size="10.00">chrono</text>
</g>
<!-- Node18&#45;&gt;Node19 -->
<g id="edge23" class="edge"><title>Node18&#45;&gt;Node19</title>
<path fill="none" stroke="midnightblue" d="M841.515,-165.219C834.499,-157.473 823.838,-145.701 815.215,-136.18"/>
<polygon fill="midnightblue" stroke="midnightblue" points="817.612,-133.612 808.305,-128.55 812.423,-138.311 817.612,-133.612"/>
</g>
<!-- Node20 -->
<g id="node21" class="node"><title>Node20</title>
<polygon fill="none" stroke="#bfbfbf" points="842.623,-110.5 842.623,-128.5 881.406,-128.5 881.406,-110.5 842.623,-110.5"/>
<text text-anchor="middle" x="862.015" y="-116.5" font-family="Helvetica,sans-Serif" font-size="10.00">utility</text>
</g>
<!-- Node18&#45;&gt;Node20 -->
<g id="edge27" class="edge"><title>Node18&#45;&gt;Node20</title>
<path fill="none" stroke="midnightblue" d="M851.046,-165.219C852.792,-158.099 855.373,-147.577 857.592,-138.529"/>
<polygon fill="midnightblue" stroke="midnightblue" points="861.057,-139.095 860.04,-128.55 854.259,-137.428 861.057,-139.095"/>
</g>
<!-- Node21 -->
<g id="node22" class="node"><title>Node21</title>
<polygon fill="none" stroke="#bfbfbf" points="899.505,-110.5 899.505,-128.5 950.524,-128.5 950.524,-110.5 899.505,-110.5"/>
<text text-anchor="middle" x="925.015" y="-116.5" font-family="Helvetica,sans-Serif" font-size="10.00">iomanip</text>
</g>
<!-- Node18&#45;&gt;Node21 -->
<g id="edge29" class="edge"><title>Node18&#45;&gt;Node21</title>
<path fill="none" stroke="midnightblue" d="M860.557,-165.45C872.275,-157.279 890.656,-144.46 904.796,-134.6"/>
<polygon fill="midnightblue" stroke="midnightblue" points="907.163,-137.216 913.363,-128.625 903.159,-131.475 907.163,-137.216"/>
</g>
<!-- Node18&#45;&gt;Node22 -->
<g id="edge31" class="edge"><title>Node18&#45;&gt;Node22</title>
<path fill="none" stroke="midnightblue" d="M788.083,-165.565C714.758,-156.017 591.806,-140.006 513.908,-129.862"/>
<polygon fill="midnightblue" stroke="midnightblue" points="514.065,-126.353 503.697,-128.532 513.161,-133.294 514.065,-126.353"/>
</g>
<!-- Node22&#45;&gt;Node1 -->
<g id="edge35" class="edge"><title>Node22&#45;&gt;Node1</title>
<path fill="none" stroke="midnightblue" d="M481.933,-110.43C522.513,-102.158 587.452,-88.7327 652.499,-74.2982"/>
<polygon fill="midnightblue" stroke="midnightblue" points="653.513,-77.658 662.514,-72.0679 651.992,-70.8254 653.513,-77.658"/>
</g>
<!-- Node22&#45;&gt;Node3 -->
<g id="edge47" class="edge"><title>Node22&#45;&gt;Node3</title>
<path fill="none" stroke="midnightblue" d="M373.995,-110.904C288.58,-101.259 145.746,-84.747 76.5056,-74.1038"/>
<polygon fill="midnightblue" stroke="midnightblue" points="76.8657,-70.6174 66.4418,-72.5129 75.7726,-77.5315 76.8657,-70.6174"/>
</g>
<!-- Node22&#45;&gt;Node5 -->
<g id="edge36" class="edge"><title>Node22&#45;&gt;Node5</title>
<path fill="none" stroke="midnightblue" d="M383.819,-110.48C325.159,-102.183 232.095,-88.435 152.015,-74 150.727,-73.7679 149.418,-73.5264 148.096,-73.278"/>
<polygon fill="midnightblue" stroke="midnightblue" points="148.368,-69.7649 137.882,-71.2791 147.024,-76.6346 148.368,-69.7649"/>
</g>
<!-- Node22&#45;&gt;Node15 -->
<g id="edge37" class="edge"><title>Node22&#45;&gt;Node15</title>
<path fill="none" stroke="midnightblue" d="M468.138,-110.45C497.52,-101.396 545.415,-86.6382 578.256,-76.5185"/>
<polygon fill="midnightblue" stroke="midnightblue" points="579.402,-79.8279 587.928,-73.5383 577.341,-73.1383 579.402,-79.8279"/>
</g>
<!-- Node23 -->
<g id="node24" class="node"><title>Node23</title>
<polygon fill="none" stroke="#bfbfbf" points="377.899,-0.5 377.899,-18.5 426.13,-18.5 426.13,-0.5 377.899,-0.5"/>
<text text-anchor="middle" x="402.015" y="-6.5" font-family="Helvetica,sans-Serif" font-size="10.00">cassert</text>
</g>
<!-- Node22&#45;&gt;Node23 -->
<g id="edge32" class="edge"><title>Node22&#45;&gt;Node23</title>
<path fill="none" stroke="midnightblue" d="M437.769,-110.458C433.235,-101.666 426.026,-87.083 421.015,-74 415.284,-59.0399 410.167,-41.5714 406.691,-28.7471"/>
<polygon fill="midnightblue" stroke="midnightblue" points="410.017,-27.6312 404.085,-18.8525 403.248,-29.4142 410.017,-27.6312"/>
</g>
<!-- Node24 -->
<g id="node25" class="node"><title>Node24</title>
<polygon fill="none" stroke="#bfbfbf" points="146.894,-0.5 146.894,-18.5 195.135,-18.5 195.135,-0.5 146.894,-0.5"/>
<text text-anchor="middle" x="171.015" y="-6.5" font-family="Helvetica,sans-Serif" font-size="10.00">cstddef</text>
</g>
<!-- Node22&#45;&gt;Node24 -->
<g id="edge33" class="edge"><title>Node22&#45;&gt;Node24</title>
<path fill="none" stroke="midnightblue" d="M374.094,-110.681C302.629,-101.839 198.602,-86.9819 185.015,-74 173.035,-62.5542 170.19,-43.3612 169.943,-29.0661"/>
<polygon fill="midnightblue" stroke="midnightblue" points="173.446,-28.9711 170.177,-18.8932 166.448,-28.81 173.446,-28.9711"/>
</g>
<!-- Node25 -->
<g id="node26" class="node"><title>Node25</title>
<polygon fill="none" stroke="#bfbfbf" points="315.842,-0.5 315.842,-18.5 360.187,-18.5 360.187,-0.5 315.842,-0.5"/>
<text text-anchor="middle" x="338.015" y="-6.5" font-family="Helvetica,sans-Serif" font-size="10.00">cstdlib</text>
</g>
<!-- Node22&#45;&gt;Node25 -->
<g id="edge34" class="edge"><title>Node22&#45;&gt;Node25</title>
<path fill="none" stroke="midnightblue" d="M434.198,-110.382C416.957,-92.4786 375.423,-49.3466 352.989,-26.0507"/>
<polygon fill="midnightblue" stroke="midnightblue" points="355.38,-23.4872 345.922,-18.7118 350.338,-28.3427 355.38,-23.4872"/>
</g>
<!-- Node26 -->
<g id="node27" class="node"><title>Node26</title>
<polygon fill="none" stroke="#bfbfbf" points="429.611,-55.5 429.611,-73.5 488.418,-73.5 488.418,-55.5 429.611,-55.5"/>
<text text-anchor="middle" x="459.015" y="-61.5" font-family="Helvetica,sans-Serif" font-size="10.00">exception</text>
</g>
<!-- Node22&#45;&gt;Node26 -->
<g id="edge38" class="edge"><title>Node22&#45;&gt;Node26</title>
<path fill="none" stroke="midnightblue" d="M444.671,-110.219C446.98,-103.02 450.404,-92.3458 453.327,-83.2311"/>
<polygon fill="midnightblue" stroke="midnightblue" points="456.711,-84.1407 456.433,-73.5496 450.046,-82.0027 456.711,-84.1407"/>
</g>
<!-- Node27 -->
<g id="node28" class="node"><title>Node27</title>
<polygon fill="none" stroke="#bfbfbf" points="506.613,-55.5 506.613,-73.5 565.416,-73.5 565.416,-55.5 506.613,-55.5"/>
<text text-anchor="middle" x="536.015" y="-61.5" font-family="Helvetica,sans-Serif" font-size="10.00">stdexcept</text>
</g>
<!-- Node22&#45;&gt;Node27 -->
<g id="edge39" class="edge"><title>Node22&#45;&gt;Node27</title>
<path fill="none" stroke="midnightblue" d="M456.291,-110.45C471.198,-102.045 494.825,-88.7241 512.494,-78.7618"/>
<polygon fill="midnightblue" stroke="midnightblue" points="514.612,-81.5856 521.604,-73.6253 511.174,-75.488 514.612,-81.5856"/>
</g>
<!-- Node28 -->
<g id="node29" class="node"><title>Node28</title>
<g id="a_node29"><a xlink:href="cxxdefs_8h.html" target="_top" xlink:title="Basic definitions, which may have to be defined before any Eigen headers or further utilities are inc...">
<polygon fill="none" stroke="black" points="194.205,-55.5 194.205,-73.5 335.825,-73.5 335.825,-55.5 194.205,-55.5"/>
<text text-anchor="middle" x="265.015" y="-61.5" font-family="Helvetica,sans-Serif" font-size="10.00">tomographer/tools/cxxdefs.h</text>
</a>
</g>
</g>
<!-- Node22&#45;&gt;Node28 -->
<g id="edge40" class="edge"><title>Node22&#45;&gt;Node28</title>
<path fill="none" stroke="midnightblue" d="M415.132,-110.45C384.895,-101.396 335.608,-86.6382 301.812,-76.5185"/>
<polygon fill="midnightblue" stroke="midnightblue" points="302.443,-73.054 291.86,-73.5383 300.435,-79.7598 302.443,-73.054"/>
</g>
<!-- Node22&#45;&gt;Node30 -->
<g id="edge45" class="edge"><title>Node22&#45;&gt;Node30</title>
<path fill="none" stroke="midnightblue" d="M497.298,-110.45C562.697,-100.928 671.43,-85.0962 740.859,-74.9869"/>
<polygon fill="midnightblue" stroke="midnightblue" points="741.417,-78.4427 750.808,-73.5383 740.408,-71.5158 741.417,-78.4427"/>
</g>
<!-- Node28&#45;&gt;Node23 -->
<g id="edge41" class="edge"><title>Node28&#45;&gt;Node23</title>
<path fill="none" stroke="midnightblue" d="M285.822,-55.4504C308.655,-46.6173 345.523,-32.3546 371.598,-22.267"/>
<polygon fill="midnightblue" stroke="midnightblue" points="372.948,-25.4977 381.011,-18.6253 370.422,-18.9692 372.948,-25.4977"/>
</g>
<!-- Node28&#45;&gt;Node24 -->
<g id="edge42" class="edge"><title>Node28&#45;&gt;Node24</title>
<path fill="none" stroke="midnightblue" d="M250.738,-55.4504C235.831,-47.0453 212.205,-33.7241 194.536,-23.7618"/>
<polygon fill="midnightblue" stroke="midnightblue" points="195.855,-20.488 185.426,-18.6253 192.417,-26.5856 195.855,-20.488"/>
</g>
<!-- Node28&#45;&gt;Node25 -->
<g id="edge43" class="edge"><title>Node28&#45;&gt;Node25</title>
<path fill="none" stroke="midnightblue" d="M276.102,-55.4504C287.357,-47.2788 305.013,-34.4604 318.594,-24.5996"/>
<polygon fill="midnightblue" stroke="midnightblue" points="320.787,-27.3327 326.823,-18.6253 316.675,-21.6682 320.787,-27.3327"/>
</g>
<!-- Node29 -->
<g id="node30" class="node"><title>Node29</title>
<polygon fill="none" stroke="#bfbfbf" points="218.047,-0.5 218.047,-18.5 297.982,-18.5 297.982,-0.5 218.047,-0.5"/>
<text text-anchor="middle" x="258.015" y="-6.5" font-family="Helvetica,sans-Serif" font-size="10.00">boost/predef.h</text>
</g>
<!-- Node28&#45;&gt;Node29 -->
<g id="edge44" class="edge"><title>Node28&#45;&gt;Node29</title>
<path fill="none" stroke="midnightblue" d="M263.921,-55.2188C262.981,-48.0986 261.591,-37.5775 260.396,-28.5289"/>
<polygon fill="midnightblue" stroke="midnightblue" points="263.857,-28.0052 259.078,-18.5496 256.917,-28.9218 263.857,-28.0052"/>
</g>
<!-- Node30&#45;&gt;Node12 -->
<g id="edge46" class="edge"><title>Node30&#45;&gt;Node12</title>
<path fill="none" stroke="midnightblue" d="M821.051,-55.4504C836.969,-46.9286 862.327,-33.3532 881.014,-23.3487"/>
<polygon fill="midnightblue" stroke="midnightblue" points="882.673,-26.4308 889.837,-18.6253 879.369,-20.2595 882.673,-26.4308"/>
</g>
</g>
</svg>
        <g id="navigator" transform="translate(0 0)" fill="#404254">
                <rect fill="#f2f5e9" fill-opacity="0.5" stroke="#606060" stroke-width=".5" x="0" y="0" width="60" height="60"/>
                <use id="zoomplus" xlink:href="#zoomPlus" x="17" y="9" onmousedown="handleZoom(evt,'in')"/>
                <use id="zoomminus" xlink:href="#zoomMin" x="42" y="9" onmousedown="handleZoom(evt,'out')"/>
                <use id="reset" xlink:href="#resetDef" x="30" y="36" onmousedown="handleReset()"/>
                <g id="arrowUp" xlink:href="#dirArrow" transform="translate(30 24)" onmousedown="handlePan(0,-1)">
                  <use xlink:href="#rim" fill="#404040">
                        <set attributeName="fill" to="#808080" begin="arrowUp.mouseover" end="arrowUp.mouseout"/>
                  </use>
                  <path fill="none" stroke="white" stroke-width="1.5" d="M0,-3.0v7 M-2.5,-0.5L0,-3.0L2.5,-0.5"/>
                </g>
                <g id="arrowRight" xlink:href="#dirArrow" transform="rotate(90) translate(36 -43)" onmousedown="handlePan(1,0)">
                  <use xlink:href="#rim" fill="#404040">
                        <set attributeName="fill" to="#808080" begin="arrowRight.mouseover" end="arrowRight.mouseout"/>
                  </use>
                  <path fill="none" stroke="white" stroke-width="1.5" d="M0,-3.0v7 M-2.5,-0.5L0,-3.0L2.5,-0.5"/>
                </g>
                <g id="arrowDown" xlink:href="#dirArrow" transform="rotate(180) translate(-30 -48)" onmousedown="handlePan(0,1)">
                  <use xlink:href="#rim" fill="#404040">
                        <set attributeName="fill" to="#808080" begin="arrowDown.mouseover" end="arrowDown.mouseout"/>
                  </use>
                  <path fill="none" stroke="white" stroke-width="1.5" d="M0,-3.0v7 M-2.5,-0.5L0,-3.0L2.5,-0.5"/>
                </g>
                <g id="arrowLeft" xlink:href="#dirArrow" transform="rotate(270) translate(-36 17)" onmousedown="handlePan(-1,0)">
                  <use xlink:href="#rim" fill="#404040">
                        <set attributeName="fill" to="#808080" begin="arrowLeft.mouseover" end="arrowLeft.mouseout"/>
                  </use>
                  <path fill="none" stroke="white" stroke-width="1.5" d="M0,-3.0v7 M-2.5,-0.5L0,-3.0L2.5,-0.5"/>
                </g>
        </g>
        <svg viewBox="0 0 15 15" width="100%" height="30px" preserveAspectRatio="xMaxYMin meet">
         <g id="arrow_out" transform="scale(0.3 0.3)">
          <a xlink:href="random__unitary_8h__incl_org.svg" target="_base">
           <rect id="button" ry="5" rx="5" y="6" x="6" height="38" width="38"
                fill="#f2f5e9" fill-opacity="0.5" stroke="#606060" stroke-width="1.0"/>
           <path id="arrow"
             d="M 11.500037,31.436501 C 11.940474,20.09759 22.043105,11.32322 32.158766,21.979434 L 37.068811,17.246167 C 37.068811,17.246167 37.088388,32 37.088388,32 L 22.160133,31.978069 C 22.160133,31.978069 26.997745,27.140456 26.997745,27.140456 C 18.528582,18.264221 13.291696,25.230495 11.500037,31.436501 z"
             style="fill:#404040;"/>
          </a>
         </g>
        </svg>
</svg>
