<?xml version="1.0" encoding="UTF-8" standalone="no"?>
<!DOCTYPE svg PUBLIC "-//W3C//DTD SVG 1.1//EN"
 "http://www.w3.org/Graphics/SVG/1.1/DTD/svg11.dtd">
<!-- Generated by graphviz version 2.38.0 (20140413.2041)
 -->
<!-- Title: tomographer/mathtools/solveclyap.h Pages: 1 -->
<!--zoomable 202 -->
<svg id="main" version="1.1" xmlns="http://www.w3.org/2000/svg" xmlns:xlink="http://www.w3.org/1999/xlink" xml:space="preserve" onload="init(evt)">
<style type="text/css"><![CDATA[
.edge:hover path { stroke: red; }
.edge:hover polygon { stroke: red; fill: red; }
]]></style>
<script type="text/javascript"><![CDATA[
var edges = document.getElementsByTagName('g');
if (edges && edges.length) {
  for (var i=0;i<edges.length;i++) {
    if (edges[i].id.substr(0,4)=='edge') {
      edges[i].setAttribute('class','edge');
    }
  }
}
]]></script>
        <defs>
                <circle id="rim" cx="0" cy="0" r="7"/>
                <circle id="rim2" cx="0" cy="0" r="3.5"/>
                <g id="zoomPlus">
                        <use xlink:href="#rim" fill="#404040">
                                <set attributeName="fill" to="#808080" begin="zoomplus.mouseover" end="zoomplus.mouseout"/>
                        </use>
                        <path d="M-4,0h8M0,-4v8" fill="none" stroke="white" stroke-width="1.5" pointer-events="none"/>
                </g>
                <g id="zoomMin">
                        <use xlink:href="#rim" fill="#404040">
                                <set attributeName="fill" to="#808080" begin="zoomminus.mouseover" end="zoomminus.mouseout"/>
                        </use>
                        <path d="M-4,0h8" fill="none" stroke="white" stroke-width="1.5" pointer-events="none"/>
                </g>
                <g id="dirArrow">
                        <path fill="none" stroke="white" stroke-width="1.5" d="M0,-3.0v7 M-2.5,-0.5L0,-3.0L2.5,-0.5"/>
                </g>
               <g id="resetDef">
                       <use xlink:href="#rim2" fill="#404040">
                               <set attributeName="fill" to="#808080" begin="reset.mouseover" end="reset.mouseout"/>
                       </use>
               </g>
        </defs>

<script type="text/javascript">
var viewWidth = 898;
var viewHeight = 202;
var sectionId = 'dynsection-0';
</script>
<script xlink:href="svgpan.js"/>
<svg id="graph" class="graph">
<g id="viewport">
<title>tomographer/mathtools/solveclyap.h</title>
<!-- Node0 -->
<g id="node1" class="node"><title>Node0</title>
<polygon fill="#bfbfbf" stroke="black" points="193.413,-165.5 193.413,-193.5 312.245,-193.5 312.245,-165.5 193.413,-165.5"/>
<text text-anchor="start" x="201.413" y="-181.5" font-family="Helvetica,sans-Serif" font-size="10.00">tomographer/mathtools</text>
<text text-anchor="middle" x="252.829" y="-171.5" font-family="Helvetica,sans-Serif" font-size="10.00">/solveclyap.h</text>
</g>
<!-- Node1 -->
<g id="node2" class="node"><title>Node1</title>
<polygon fill="none" stroke="#bfbfbf" points="208.602,-0.5 208.602,-18.5 249.055,-18.5 249.055,-0.5 208.602,-0.5"/>
<text text-anchor="middle" x="228.829" y="-6.5" font-family="Helvetica,sans-Serif" font-size="10.00">string</text>
</g>
<!-- Node0&#45;&gt;Node1 -->
<g id="edge1" class="edge"><title>Node0&#45;&gt;Node1</title>
<path fill="none" stroke="midnightblue" d="M193.202,-172.311C133.607,-162.571 45.0783,-137.631 3.8287,-74 -0.764784,-66.9142 -1.53196,-61.5247 3.8287,-55 28.1103,-25.4457 142.665,-15.188 198.325,-11.909"/>
<polygon fill="midnightblue" stroke="midnightblue" points="198.521,-15.4037 208.313,-11.3587 198.136,-8.41427 198.521,-15.4037"/>
</g>
<!-- Node2 -->
<g id="node3" class="node"><title>Node2</title>
<polygon fill="none" stroke="#bfbfbf" points="12.8141,-55.5 12.8141,-73.5 78.8434,-73.5 78.8434,-55.5 12.8141,-55.5"/>
<text text-anchor="middle" x="45.8287" y="-61.5" font-family="Helvetica,sans-Serif" font-size="10.00">Eigen/Core</text>
</g>
<!-- Node0&#45;&gt;Node2 -->
<g id="edge2" class="edge"><title>Node0&#45;&gt;Node2</title>
<path fill="none" stroke="midnightblue" d="M228.678,-165.316C188.761,-143.526 109.492,-100.253 69.7358,-78.5508"/>
<polygon fill="midnightblue" stroke="midnightblue" points="70.9821,-75.2436 60.5277,-73.5241 67.628,-81.3877 70.9821,-75.2436"/>
</g>
<!-- Node3 -->
<g id="node4" class="node"><title>Node3</title>
<polygon fill="none" stroke="#bfbfbf" points="440.41,-110.5 440.41,-128.5 539.247,-128.5 539.247,-110.5 440.41,-110.5"/>
<text text-anchor="middle" x="489.829" y="-116.5" font-family="Helvetica,sans-Serif" font-size="10.00">Eigen/Eigenvalues</text>
</g>
<!-- Node0&#45;&gt;Node3 -->
<g id="edge3" class="edge"><title>Node0&#45;&gt;Node3</title>
<path fill="none" stroke="midnightblue" d="M306.016,-165.484C348.577,-155.068 407.483,-140.652 447.034,-130.973"/>
<polygon fill="midnightblue" stroke="midnightblue" points="448.018,-134.336 456.899,-128.559 446.354,-127.536 448.018,-134.336"/>
</g>
<!-- Node4 -->
<g id="node5" class="node"><title>Node4</title>
<g id="a_node5"><a xlink:href="cxxutil_8h.html" target="_top" xlink:title="Some C++ utilities, with a tad of C++11 tricks. ">
<polygon fill="none" stroke="black" points="287.078,-110.5 287.078,-128.5 422.58,-128.5 422.58,-110.5 287.078,-110.5"/>
<text text-anchor="middle" x="354.829" y="-116.5" font-family="Helvetica,sans-Serif" font-size="10.00">tomographer/tools/cxxutil.h</text>
</a>
</g>
</g>
<!-- Node0&#45;&gt;Node4 -->
<g id="edge4" class="edge"><title>Node0&#45;&gt;Node4</title>
<path fill="none" stroke="midnightblue" d="M275.719,-165.484C292.315,-156.047 314.686,-143.326 331.404,-133.82"/>
<polygon fill="midnightblue" stroke="midnightblue" points="333.545,-136.629 340.508,-128.643 330.085,-130.544 333.545,-136.629"/>
</g>
<!-- Node4&#45;&gt;Node2 -->
<g id="edge20" class="edge"><title>Node4&#45;&gt;Node2</title>
<path fill="none" stroke="midnightblue" d="M303.551,-110.493C251.937,-102.312 169.779,-88.9618 89.5589,-74.2702"/>
<polygon fill="midnightblue" stroke="midnightblue" points="89.7475,-70.7462 79.2791,-72.3781 88.4803,-77.6306 89.7475,-70.7462"/>
</g>
<!-- Node5 -->
<g id="node6" class="node"><title>Node5</title>
<polygon fill="none" stroke="#bfbfbf" points="717.713,-0.5 717.713,-18.5 765.944,-18.5 765.944,-0.5 717.713,-0.5"/>
<text text-anchor="middle" x="741.829" y="-6.5" font-family="Helvetica,sans-Serif" font-size="10.00">cassert</text>
</g>
<!-- Node4&#45;&gt;Node5 -->
<g id="edge5" class="edge"><title>Node4&#45;&gt;Node5</title>
<path fill="none" stroke="midnightblue" d="M422.833,-110.929C535.947,-98.3272 750.489,-74.3798 750.829,-74 761.935,-61.5754 756.978,-41.9733 750.945,-27.8334"/>
<polygon fill="midnightblue" stroke="midnightblue" points="754.043,-26.1992 746.575,-18.6836 747.726,-29.2157 754.043,-26.1992"/>
</g>
<!-- Node6 -->
<g id="node7" class="node"><title>Node6</title>
<polygon fill="none" stroke="#bfbfbf" points="783.708,-0.5 783.708,-18.5 831.949,-18.5 831.949,-0.5 783.708,-0.5"/>
<text text-anchor="middle" x="807.829" y="-6.5" font-family="Helvetica,sans-Serif" font-size="10.00">cstddef</text>
</g>
<!-- Node4&#45;&gt;Node6 -->
<g id="edge6" class="edge"><title>Node4&#45;&gt;Node6</title>
<path fill="none" stroke="midnightblue" d="M422.847,-110.978C425.883,-110.647 428.887,-110.319 431.829,-110 506.703,-101.868 705.147,-114.212 768.829,-74 785.378,-63.5502 795.987,-43.2759 801.897,-28.4376"/>
<polygon fill="midnightblue" stroke="midnightblue" points="805.269,-29.4063 805.389,-18.8121 798.689,-27.0195 805.269,-29.4063"/>
</g>
<!-- Node7 -->
<g id="node8" class="node"><title>Node7</title>
<polygon fill="none" stroke="#bfbfbf" points="553.656,-0.5 553.656,-18.5 598.001,-18.5 598.001,-0.5 553.656,-0.5"/>
<text text-anchor="middle" x="575.829" y="-6.5" font-family="Helvetica,sans-Serif" font-size="10.00">cstdlib</text>
</g>
<!-- Node4&#45;&gt;Node7 -->
<g id="edge7" class="edge"><title>Node4&#45;&gt;Node7</title>
<path fill="none" stroke="midnightblue" d="M421.38,-110.478C470.996,-103.25 533.397,-91.1178 552.829,-74 565.741,-62.6248 571.408,-43.4215 573.893,-29.1046"/>
<polygon fill="midnightblue" stroke="midnightblue" points="577.399,-29.2942 575.281,-18.9133 570.463,-28.3494 577.399,-29.2942"/>
</g>
<!-- Node8 -->
<g id="node9" class="node"><title>Node8</title>
<polygon fill="none" stroke="#bfbfbf" points="835.656,-55.5 835.656,-73.5 890.001,-73.5 890.001,-55.5 835.656,-55.5"/>
<text text-anchor="middle" x="862.829" y="-61.5" font-family="Helvetica,sans-Serif" font-size="10.00">iostream</text>
</g>
<!-- Node4&#45;&gt;Node8 -->
<g id="edge8" class="edge"><title>Node4&#45;&gt;Node8</title>
<path fill="none" stroke="midnightblue" d="M422.842,-110.925C425.878,-110.608 428.885,-110.298 431.829,-110 605.012,-92.4495 649.667,-99.7087 821.829,-74 823.082,-73.8128 824.356,-73.6116 825.64,-73.3993"/>
<polygon fill="midnightblue" stroke="midnightblue" points="826.344,-76.8287 835.558,-71.599 825.094,-69.9413 826.344,-76.8287"/>
</g>
<!-- Node9 -->
<g id="node10" class="node"><title>Node9</title>
<polygon fill="none" stroke="#bfbfbf" points="97.2105,-55.5 97.2105,-73.5 150.447,-73.5 150.447,-55.5 97.2105,-55.5"/>
<text text-anchor="middle" x="123.829" y="-61.5" font-family="Helvetica,sans-Serif" font-size="10.00">complex</text>
</g>
<!-- Node4&#45;&gt;Node9 -->
<g id="edge9" class="edge"><title>Node4&#45;&gt;Node9</title>
<path fill="none" stroke="midnightblue" d="M319.227,-110.46C282.107,-102.058 221.971,-88.3945 160.443,-74.129"/>
<polygon fill="midnightblue" stroke="midnightblue" points="161.092,-70.6867 150.56,-71.835 159.51,-77.5054 161.092,-70.6867"/>
</g>
<!-- Node10 -->
<g id="node11" class="node"><title>Node10</title>
<polygon fill="none" stroke="#bfbfbf" points="168.762,-55.5 168.762,-73.5 230.895,-73.5 230.895,-55.5 168.762,-55.5"/>
<text text-anchor="middle" x="199.829" y="-61.5" font-family="Helvetica,sans-Serif" font-size="10.00">type_traits</text>
</g>
<!-- Node4&#45;&gt;Node10 -->
<g id="edge10" class="edge"><title>Node4&#45;&gt;Node10</title>
<path fill="none" stroke="midnightblue" d="M331.288,-110.45C305.037,-101.475 262.391,-86.8922 232.821,-76.7813"/>
<polygon fill="midnightblue" stroke="midnightblue" points="233.932,-73.4621 223.337,-73.5383 231.667,-80.0856 233.932,-73.4621"/>
</g>
<!-- Node11 -->
<g id="node12" class="node"><title>Node11</title>
<polygon fill="none" stroke="#bfbfbf" points="248.425,-55.5 248.425,-73.5 307.233,-73.5 307.233,-55.5 248.425,-55.5"/>
<text text-anchor="middle" x="277.829" y="-61.5" font-family="Helvetica,sans-Serif" font-size="10.00">exception</text>
</g>
<!-- Node4&#45;&gt;Node11 -->
<g id="edge11" class="edge"><title>Node4&#45;&gt;Node11</title>
<path fill="none" stroke="midnightblue" d="M343.134,-110.45C331.149,-102.201 312.284,-89.2158 297.905,-79.3187"/>
<polygon fill="midnightblue" stroke="midnightblue" points="299.855,-76.4121 289.633,-73.6253 295.886,-82.1782 299.855,-76.4121"/>
</g>
<!-- Node12 -->
<g id="node13" class="node"><title>Node12</title>
<polygon fill="none" stroke="#bfbfbf" points="325.427,-55.5 325.427,-73.5 384.23,-73.5 384.23,-55.5 325.427,-55.5"/>
<text text-anchor="middle" x="354.829" y="-61.5" font-family="Helvetica,sans-Serif" font-size="10.00">stdexcept</text>
</g>
<!-- Node4&#45;&gt;Node12 -->
<g id="edge12" class="edge"><title>Node4&#45;&gt;Node12</title>
<path fill="none" stroke="midnightblue" d="M354.829,-110.219C354.829,-103.177 354.829,-92.8083 354.829,-83.8277"/>
<polygon fill="midnightblue" stroke="midnightblue" points="358.329,-83.5495 354.829,-73.5496 351.329,-83.5496 358.329,-83.5495"/>
</g>
<!-- Node13 -->
<g id="node14" class="node"><title>Node13</title>
<g id="a_node14"><a xlink:href="cxxdefs_8h.html" target="_top" xlink:title="Basic definitions, which may have to be defined before any Eigen headers or further utilities are inc...">
<polygon fill="none" stroke="black" points="600.019,-55.5 600.019,-73.5 741.639,-73.5 741.639,-55.5 600.019,-55.5"/>
<text text-anchor="middle" x="670.829" y="-61.5" font-family="Helvetica,sans-Serif" font-size="10.00">tomographer/tools/cxxdefs.h</text>
</a>
</g>
</g>
<!-- Node4&#45;&gt;Node13 -->
<g id="edge13" class="edge"><title>Node4&#45;&gt;Node13</title>
<path fill="none" stroke="midnightblue" d="M402.822,-110.45C459.131,-101.006 552.446,-85.3553 612.776,-75.2366"/>
<polygon fill="midnightblue" stroke="midnightblue" points="613.619,-78.6443 622.902,-73.5383 612.461,-71.7407 613.619,-78.6443"/>
</g>
<!-- Node15 -->
<g id="node16" class="node"><title>Node15</title>
<g id="a_node16"><a xlink:href="conststr_8h.html" target="_top" xlink:title="A constexpr string type, suitable for basic compile&#45;time string processing. ">
<polygon fill="none" stroke="black" points="401.738,-55.5 401.738,-73.5 543.92,-73.5 543.92,-55.5 401.738,-55.5"/>
<text text-anchor="middle" x="472.829" y="-61.5" font-family="Helvetica,sans-Serif" font-size="10.00">tomographer/tools/conststr.h</text>
</a>
</g>
</g>
<!-- Node4&#45;&gt;Node15 -->
<g id="edge18" class="edge"><title>Node4&#45;&gt;Node15</title>
<path fill="none" stroke="midnightblue" d="M372.75,-110.45C392.07,-101.773 423.056,-87.8556 445.435,-77.8041"/>
<polygon fill="midnightblue" stroke="midnightblue" points="447.05,-80.9153 454.738,-73.6253 444.182,-74.5298 447.05,-80.9153"/>
</g>
<!-- Node13&#45;&gt;Node5 -->
<g id="edge14" class="edge"><title>Node13&#45;&gt;Node5</title>
<path fill="none" stroke="midnightblue" d="M681.612,-55.4504C692.455,-47.3566 709.404,-34.7042 722.562,-24.8822"/>
<polygon fill="midnightblue" stroke="midnightblue" points="725.024,-27.412 730.944,-18.6253 720.837,-21.8025 725.024,-27.412"/>
</g>
<!-- Node13&#45;&gt;Node6 -->
<g id="edge15" class="edge"><title>Node13&#45;&gt;Node6</title>
<path fill="none" stroke="midnightblue" d="M691.636,-55.4504C714.469,-46.6173 751.337,-32.3546 777.412,-22.267"/>
<polygon fill="midnightblue" stroke="midnightblue" points="778.762,-25.4977 786.826,-18.6253 776.236,-18.9692 778.762,-25.4977"/>
</g>
<!-- Node13&#45;&gt;Node7 -->
<g id="edge16" class="edge"><title>Node13&#45;&gt;Node7</title>
<path fill="none" stroke="midnightblue" d="M656.4,-55.4504C641.334,-47.0453 617.457,-33.7241 599.6,-23.7618"/>
<polygon fill="midnightblue" stroke="midnightblue" points="600.831,-20.4409 590.393,-18.6253 597.421,-26.5539 600.831,-20.4409"/>
</g>
<!-- Node14 -->
<g id="node15" class="node"><title>Node14</title>
<polygon fill="none" stroke="#bfbfbf" points="619.861,-0.5 619.861,-18.5 699.796,-18.5 699.796,-0.5 619.861,-0.5"/>
<text text-anchor="middle" x="659.829" y="-6.5" font-family="Helvetica,sans-Serif" font-size="10.00">boost/predef.h</text>
</g>
<!-- Node13&#45;&gt;Node14 -->
<g id="edge17" class="edge"><title>Node13&#45;&gt;Node14</title>
<path fill="none" stroke="midnightblue" d="M669.11,-55.2188C667.632,-48.0986 665.449,-37.5775 663.571,-28.5289"/>
<polygon fill="midnightblue" stroke="midnightblue" points="666.959,-27.6296 661.499,-18.5496 660.105,-29.0522 666.959,-27.6296"/>
</g>
<!-- Node15&#45;&gt;Node1 -->
<g id="edge19" class="edge"><title>Node15&#45;&gt;Node1</title>
<path fill="none" stroke="midnightblue" d="M435.77,-55.4504C387.512,-44.9681 304.053,-26.8397 259.288,-17.1161"/>
<polygon fill="midnightblue" stroke="midnightblue" points="259.821,-13.6503 249.305,-14.9478 258.335,-20.4908 259.821,-13.6503"/>
</g>
</g>
</svg>
        <g id="navigator" transform="translate(0 0)" fill="#404254">
                <rect fill="#f2f5e9" fill-opacity="0.5" stroke="#606060" stroke-width=".5" x="0" y="0" width="60" height="60"/>
                <use id="zoomplus" xlink:href="#zoomPlus" x="17" y="9" onmousedown="handleZoom(evt,'in')"/>
                <use id="zoomminus" xlink:href="#zoomMin" x="42" y="9" onmousedown="handleZoom(evt,'out')"/>
                <use id="reset" xlink:href="#resetDef" x="30" y="36" onmousedown="handleReset()"/>
                <g id="arrowUp" xlink:href="#dirArrow" transform="translate(30 24)" onmousedown="handlePan(0,-1)">
                  <use xlink:href="#rim" fill="#404040">
                        <set attributeName="fill" to="#808080" begin="arrowUp.mouseover" end="arrowUp.mouseout"/>
                  </use>
                  <path fill="none" stroke="white" stroke-width="1.5" d="M0,-3.0v7 M-2.5,-0.5L0,-3.0L2.5,-0.5"/>
                </g>
                <g id="arrowRight" xlink:href="#dirArrow" transform="rotate(90) translate(36 -43)" onmousedown="handlePan(1,0)">
                  <use xlink:href="#rim" fill="#404040">
                        <set attributeName="fill" to="#808080" begin="arrowRight.mouseover" end="arrowRight.mouseout"/>
                  </use>
                  <path fill="none" stroke="white" stroke-width="1.5" d="M0,-3.0v7 M-2.5,-0.5L0,-3.0L2.5,-0.5"/>
                </g>
                <g id="arrowDown" xlink:href="#dirArrow" transform="rotate(180) translate(-30 -48)" onmousedown="handlePan(0,1)">
                  <use xlink:href="#rim" fill="#404040">
                        <set attributeName="fill" to="#808080" begin="arrowDown.mouseover" end="arrowDown.mouseout"/>
                  </use>
                  <path fill="none" stroke="white" stroke-width="1.5" d="M0,-3.0v7 M-2.5,-0.5L0,-3.0L2.5,-0.5"/>
                </g>
                <g id="arrowLeft" xlink:href="#dirArrow" transform="rotate(270) translate(-36 17)" onmousedown="handlePan(-1,0)">
                  <use xlink:href="#rim" fill="#404040">
                        <set attributeName="fill" to="#808080" begin="arrowLeft.mouseover" end="arrowLeft.mouseout"/>
                  </use>
                  <path fill="none" stroke="white" stroke-width="1.5" d="M0,-3.0v7 M-2.5,-0.5L0,-3.0L2.5,-0.5"/>
                </g>
        </g>
        <svg viewBox="0 0 15 15" width="100%" height="30px" preserveAspectRatio="xMaxYMin meet">
         <g id="arrow_out" transform="scale(0.3 0.3)">
          <a xlink:href="solveclyap_8h__incl_org.svg" target="_base">
           <rect id="button" ry="5" rx="5" y="6" x="6" height="38" width="38"
                fill="#f2f5e9" fill-opacity="0.5" stroke="#606060" stroke-width="1.0"/>
           <path id="arrow"
             d="M 11.500037,31.436501 C 11.940474,20.09759 22.043105,11.32322 32.158766,21.979434 L 37.068811,17.246167 C 37.068811,17.246167 37.088388,32 37.088388,32 L 22.160133,31.978069 C 22.160133,31.978069 26.997745,27.140456 26.997745,27.140456 C 18.528582,18.264221 13.291696,25.230495 11.500037,31.436501 z"
             style="fill:#404040;"/>
          </a>
         </g>
        </svg>
</svg>
