<?xml version="1.0" encoding="UTF-8" standalone="no"?>
<!DOCTYPE svg PUBLIC "-//W3C//DTD SVG 1.1//EN"
 "http://www.w3.org/Graphics/SVG/1.1/DTD/svg11.dtd">
<!-- Generated by graphviz version 2.38.0 (20140413.2041)
 -->
<!-- Title: tomographer/mathtools/check_derivatives.h Pages: 1 -->
<!--zoomable 212 -->
<svg id="main" version="1.1" xmlns="http://www.w3.org/2000/svg" xmlns:xlink="http://www.w3.org/1999/xlink" xml:space="preserve" onload="init(evt)">
<style type="text/css"><![CDATA[
.edge:hover path { stroke: red; }
.edge:hover polygon { stroke: red; fill: red; }
]]></style>
<script type="text/javascript"><![CDATA[
var edges = document.getElementsByTagName('g');
if (edges && edges.length) {
  for (var i=0;i<edges.length;i++) {
    if (edges[i].id.substr(0,4)=='edge') {
      edges[i].setAttribute('class','edge');
    }
  }
}
]]></script>
        <defs>
                <circle id="rim" cx="0" cy="0" r="7"/>
                <circle id="rim2" cx="0" cy="0" r="3.5"/>
                <g id="zoomPlus">
                        <use xlink:href="#rim" fill="#404040">
                                <set attributeName="fill" to="#808080" begin="zoomplus.mouseover" end="zoomplus.mouseout"/>
                        </use>
                        <path d="M-4,0h8M0,-4v8" fill="none" stroke="white" stroke-width="1.5" pointer-events="none"/>
                </g>
                <g id="zoomMin">
                        <use xlink:href="#rim" fill="#404040">
                                <set attributeName="fill" to="#808080" begin="zoomminus.mouseover" end="zoomminus.mouseout"/>
                        </use>
                        <path d="M-4,0h8" fill="none" stroke="white" stroke-width="1.5" pointer-events="none"/>
                </g>
                <g id="dirArrow">
                        <path fill="none" stroke="white" stroke-width="1.5" d="M0,-3.0v7 M-2.5,-0.5L0,-3.0L2.5,-0.5"/>
                </g>
               <g id="resetDef">
                       <use xlink:href="#rim2" fill="#404040">
                               <set attributeName="fill" to="#808080" begin="reset.mouseover" end="reset.mouseout"/>
                       </use>
               </g>
        </defs>

<script type="text/javascript">
var viewWidth = 1126;
var viewHeight = 212;
var sectionId = 'dynsection-0';
</script>
<script xlink:href="svgpan.js"/>
<svg id="graph" class="graph">
<g id="viewport">
<title>tomographer/mathtools/check_derivatives.h</title>
<!-- Node0 -->
<g id="node1" class="node"><title>Node0</title>
<polygon fill="#bfbfbf" stroke="black" points="314.756,-175.5 314.756,-203.5 433.588,-203.5 433.588,-175.5 314.756,-175.5"/>
<text text-anchor="start" x="322.756" y="-191.5" font-family="Helvetica,sans-Serif" font-size="10.00">tomographer/mathtools</text>
<text text-anchor="middle" x="374.172" y="-181.5" font-family="Helvetica,sans-Serif" font-size="10.00">/check_derivatives.h</text>
</g>
<!-- Node1 -->
<g id="node2" class="node"><title>Node1</title>
<polygon fill="none" stroke="#bfbfbf" points="1070.05,-0.5 1070.05,-18.5 1118.29,-18.5 1118.29,-0.5 1070.05,-0.5"/>
<text text-anchor="middle" x="1094.17" y="-6.5" font-family="Helvetica,sans-Serif" font-size="10.00">cstddef</text>
</g>
<!-- Node0&#45;&gt;Node1 -->
<g id="edge1" class="edge"><title>Node0&#45;&gt;Node1</title>
<path fill="none" stroke="midnightblue" d="M433.74,-187.96C585.972,-185.325 983.852,-170.162 1077.17,-84 1092.18,-70.1398 1095.21,-45.8784 1095.29,-29.0391"/>
<polygon fill="midnightblue" stroke="midnightblue" points="1098.78,-28.6761 1094.98,-18.7859 1091.78,-28.8866 1098.78,-28.6761"/>
</g>
<!-- Node2 -->
<g id="node3" class="node"><title>Node2</title>
<polygon fill="none" stroke="#bfbfbf" points="0,-60.5 0,-78.5 54.3447,-78.5 54.3447,-60.5 0,-60.5"/>
<text text-anchor="middle" x="27.1724" y="-66.5" font-family="Helvetica,sans-Serif" font-size="10.00">iostream</text>
</g>
<!-- Node0&#45;&gt;Node2 -->
<g id="edge2" class="edge"><title>Node0&#45;&gt;Node2</title>
<path fill="none" stroke="midnightblue" d="M332.572,-175.45C301.528,-165.634 258.109,-151.74 220.172,-139 150.083,-115.463 132.679,-109.204 63.1724,-84 61.533,-83.4055 59.8533,-82.7918 58.1585,-82.1689"/>
<polygon fill="midnightblue" stroke="midnightblue" points="59.0573,-78.7693 48.4643,-78.5721 56.6223,-85.3322 59.0573,-78.7693"/>
</g>
<!-- Node3 -->
<g id="node4" class="node"><title>Node3</title>
<polygon fill="none" stroke="#bfbfbf" points="72.1577,-60.5 72.1577,-78.5 138.187,-78.5 138.187,-60.5 72.1577,-60.5"/>
<text text-anchor="middle" x="105.172" y="-66.5" font-family="Helvetica,sans-Serif" font-size="10.00">Eigen/Core</text>
</g>
<!-- Node0&#45;&gt;Node3 -->
<g id="edge3" class="edge"><title>Node0&#45;&gt;Node3</title>
<path fill="none" stroke="midnightblue" d="M344.357,-175.421C291.906,-152.413 183.869,-105.021 132.92,-82.6717"/>
<polygon fill="midnightblue" stroke="midnightblue" points="134.088,-79.3624 123.525,-78.5504 131.276,-85.7728 134.088,-79.3624"/>
</g>
<!-- Node4 -->
<g id="node5" class="node"><title>Node4</title>
<g id="a_node5"><a xlink:href="cxxutil_8h.html" target="_top" xlink:title="Some C++ utilities, with a tad of C++11 tricks. ">
<polygon fill="none" stroke="black" points="428.421,-120.5 428.421,-138.5 563.923,-138.5 563.923,-120.5 428.421,-120.5"/>
<text text-anchor="middle" x="496.172" y="-126.5" font-family="Helvetica,sans-Serif" font-size="10.00">tomographer/tools/cxxutil.h</text>
</a>
</g>
</g>
<!-- Node0&#45;&gt;Node4 -->
<g id="edge4" class="edge"><title>Node0&#45;&gt;Node4</title>
<path fill="none" stroke="midnightblue" d="M401.552,-175.484C421.958,-165.782 449.664,-152.61 469.82,-143.028"/>
<polygon fill="midnightblue" stroke="midnightblue" points="471.515,-146.098 479.043,-138.643 468.509,-139.776 471.515,-146.098"/>
</g>
<!-- Node4&#45;&gt;Node1 -->
<g id="edge6" class="edge"><title>Node4&#45;&gt;Node1</title>
<path fill="none" stroke="midnightblue" d="M563.926,-126.511C702.72,-121.941 1009.75,-109.104 1050.17,-84 1070.47,-71.3942 1082.62,-45.6633 1088.86,-28.2456"/>
<polygon fill="midnightblue" stroke="midnightblue" points="1092.21,-29.2593 1091.99,-18.6666 1085.55,-27.0802 1092.21,-29.2593"/>
</g>
<!-- Node4&#45;&gt;Node2 -->
<g id="edge8" class="edge"><title>Node4&#45;&gt;Node2</title>
<path fill="none" stroke="midnightblue" d="M428.155,-126.88C342.119,-123.612 189.896,-113.75 63.1724,-84 60.6705,-83.4126 58.1069,-82.6966 55.5568,-81.9039"/>
<polygon fill="midnightblue" stroke="midnightblue" points="56.5417,-78.5411 45.9469,-78.5765 54.2513,-85.1558 56.5417,-78.5411"/>
</g>
<!-- Node4&#45;&gt;Node3 -->
<g id="edge22" class="edge"><title>Node4&#45;&gt;Node3</title>
<path fill="none" stroke="midnightblue" d="M428.305,-123.571C357.511,-117.564 243.613,-105.456 147.172,-84 143.958,-83.2848 140.638,-82.429 137.339,-81.4999"/>
<polygon fill="midnightblue" stroke="midnightblue" points="138.217,-78.1088 127.631,-78.5607 136.188,-84.8084 138.217,-78.1088"/>
</g>
<!-- Node5 -->
<g id="node6" class="node"><title>Node5</title>
<polygon fill="none" stroke="#bfbfbf" points="1004.06,-0.5 1004.06,-18.5 1052.29,-18.5 1052.29,-0.5 1004.06,-0.5"/>
<text text-anchor="middle" x="1028.17" y="-6.5" font-family="Helvetica,sans-Serif" font-size="10.00">cassert</text>
</g>
<!-- Node4&#45;&gt;Node5 -->
<g id="edge5" class="edge"><title>Node4&#45;&gt;Node5</title>
<path fill="none" stroke="midnightblue" d="M564.019,-127.883C701.172,-125.928 1001.07,-117.794 1032.17,-84 1045.8,-69.1907 1041.15,-44.7831 1035.55,-28.193"/>
<polygon fill="midnightblue" stroke="midnightblue" points="1038.73,-26.7111 1031.91,-18.5994 1032.18,-29.1908 1038.73,-26.7111"/>
</g>
<!-- Node6 -->
<g id="node7" class="node"><title>Node6</title>
<polygon fill="none" stroke="#bfbfbf" points="574,-0.5 574,-18.5 618.345,-18.5 618.345,-0.5 574,-0.5"/>
<text text-anchor="middle" x="596.172" y="-6.5" font-family="Helvetica,sans-Serif" font-size="10.00">cstdlib</text>
</g>
<!-- Node4&#45;&gt;Node6 -->
<g id="edge7" class="edge"><title>Node4&#45;&gt;Node6</title>
<path fill="none" stroke="midnightblue" d="M436.511,-120.463C382.305,-110.708 315.063,-90.9172 345.172,-55 372.664,-22.2058 501.857,-13.564 563.408,-11.2986"/>
<polygon fill="midnightblue" stroke="midnightblue" points="563.848,-14.786 573.726,-10.9556 563.615,-7.78983 563.848,-14.786"/>
</g>
<!-- Node7 -->
<g id="node8" class="node"><title>Node7</title>
<polygon fill="none" stroke="#bfbfbf" points="354.554,-60.5 354.554,-78.5 407.791,-78.5 407.791,-60.5 354.554,-60.5"/>
<text text-anchor="middle" x="381.172" y="-66.5" font-family="Helvetica,sans-Serif" font-size="10.00">complex</text>
</g>
<!-- Node4&#45;&gt;Node7 -->
<g id="edge9" class="edge"><title>Node4&#45;&gt;Node7</title>
<path fill="none" stroke="midnightblue" d="M480.182,-120.435C461.065,-110.794 428.841,-94.5418 406.366,-83.2065"/>
<polygon fill="midnightblue" stroke="midnightblue" points="407.902,-80.0613 397.398,-78.6831 404.75,-86.3114 407.902,-80.0613"/>
</g>
<!-- Node8 -->
<g id="node9" class="node"><title>Node8</title>
<polygon fill="none" stroke="#bfbfbf" points="426.106,-60.5 426.106,-78.5 488.239,-78.5 488.239,-60.5 426.106,-60.5"/>
<text text-anchor="middle" x="457.172" y="-66.5" font-family="Helvetica,sans-Serif" font-size="10.00">type_traits</text>
</g>
<!-- Node4&#45;&gt;Node8 -->
<g id="edge10" class="edge"><title>Node4&#45;&gt;Node8</title>
<path fill="none" stroke="midnightblue" d="M490.75,-120.435C484.994,-111.876 475.734,-98.1052 468.396,-87.1909"/>
<polygon fill="midnightblue" stroke="midnightblue" points="471.286,-85.2172 462.802,-78.8718 465.477,-89.1232 471.286,-85.2172"/>
</g>
<!-- Node9 -->
<g id="node10" class="node"><title>Node9</title>
<polygon fill="none" stroke="#bfbfbf" points="505.769,-60.5 505.769,-78.5 564.576,-78.5 564.576,-60.5 505.769,-60.5"/>
<text text-anchor="middle" x="535.172" y="-66.5" font-family="Helvetica,sans-Serif" font-size="10.00">exception</text>
</g>
<!-- Node4&#45;&gt;Node9 -->
<g id="edge11" class="edge"><title>Node4&#45;&gt;Node9</title>
<path fill="none" stroke="midnightblue" d="M501.595,-120.435C507.351,-111.876 516.61,-98.1052 523.949,-87.1909"/>
<polygon fill="midnightblue" stroke="midnightblue" points="526.868,-89.1232 529.543,-78.8718 521.059,-85.2172 526.868,-89.1232"/>
</g>
<!-- Node10 -->
<g id="node11" class="node"><title>Node10</title>
<polygon fill="none" stroke="#bfbfbf" points="582.771,-60.5 582.771,-78.5 641.574,-78.5 641.574,-60.5 582.771,-60.5"/>
<text text-anchor="middle" x="612.172" y="-66.5" font-family="Helvetica,sans-Serif" font-size="10.00">stdexcept</text>
</g>
<!-- Node4&#45;&gt;Node10 -->
<g id="edge12" class="edge"><title>Node4&#45;&gt;Node10</title>
<path fill="none" stroke="midnightblue" d="M512.302,-120.435C531.585,-110.794 564.089,-94.5418 586.759,-83.2065"/>
<polygon fill="midnightblue" stroke="midnightblue" points="588.427,-86.2858 595.806,-78.6831 585.297,-80.0248 588.427,-86.2858"/>
</g>
<!-- Node11 -->
<g id="node12" class="node"><title>Node11</title>
<g id="a_node12"><a xlink:href="cxxdefs_8h.html" target="_top" xlink:title="Basic definitions, which may have to be defined before any Eigen headers or further utilities are inc...">
<polygon fill="none" stroke="black" points="881.362,-60.5 881.362,-78.5 1022.98,-78.5 1022.98,-60.5 881.362,-60.5"/>
<text text-anchor="middle" x="952.172" y="-66.5" font-family="Helvetica,sans-Serif" font-size="10.00">tomographer/tools/cxxdefs.h</text>
</a>
</g>
</g>
<!-- Node4&#45;&gt;Node11 -->
<g id="edge13" class="edge"><title>Node4&#45;&gt;Node11</title>
<path fill="none" stroke="midnightblue" d="M564.074,-121.555C639.661,-113.575 765.381,-99.5611 873.172,-84 881.103,-82.8552 889.463,-81.5423 897.658,-80.1948"/>
<polygon fill="midnightblue" stroke="midnightblue" points="898.247,-83.6451 907.532,-78.5432 897.092,-76.741 898.247,-83.6451"/>
</g>
<!-- Node13 -->
<g id="node14" class="node"><title>Node13</title>
<g id="a_node14"><a xlink:href="conststr_8h.html" target="_top" xlink:title="A constexpr string type, suitable for basic compile&#45;time string processing. ">
<polygon fill="none" stroke="black" points="156.082,-60.5 156.082,-78.5 298.263,-78.5 298.263,-60.5 156.082,-60.5"/>
<text text-anchor="middle" x="227.172" y="-66.5" font-family="Helvetica,sans-Serif" font-size="10.00">tomographer/tools/conststr.h</text>
</a>
</g>
</g>
<!-- Node4&#45;&gt;Node13 -->
<g id="edge18" class="edge"><title>Node4&#45;&gt;Node13</title>
<path fill="none" stroke="midnightblue" d="M459.051,-120.496C410.949,-110.125 327.029,-92.0304 274.427,-80.6887"/>
<polygon fill="midnightblue" stroke="midnightblue" points="274.857,-77.2011 264.344,-78.5147 273.382,-84.0438 274.857,-77.2011"/>
</g>
<!-- Node15 -->
<g id="node16" class="node"><title>Node15</title>
<polygon fill="none" stroke="#bfbfbf" points="659.702,-60.5 659.702,-78.5 754.643,-78.5 754.643,-60.5 659.702,-60.5"/>
<text text-anchor="middle" x="707.172" y="-66.5" font-family="Helvetica,sans-Serif" font-size="10.00">boost/version.hpp</text>
</g>
<!-- Node4&#45;&gt;Node15 -->
<g id="edge20" class="edge"><title>Node4&#45;&gt;Node15</title>
<path fill="none" stroke="midnightblue" d="M525.511,-120.435C562.648,-110.227 626.744,-92.6082 668.026,-81.2607"/>
<polygon fill="midnightblue" stroke="midnightblue" points="669.029,-84.6148 677.744,-78.5894 667.173,-77.8652 669.029,-84.6148"/>
</g>
<!-- Node16 -->
<g id="node17" class="node"><title>Node16</title>
<polygon fill="none" stroke="#bfbfbf" points="772.648,-55.5 772.648,-83.5 863.697,-83.5 863.697,-55.5 772.648,-55.5"/>
<text text-anchor="start" x="780.648" y="-71.5" font-family="Helvetica,sans-Serif" font-size="10.00">boost/units/detail</text>
<text text-anchor="middle" x="818.172" y="-61.5" font-family="Helvetica,sans-Serif" font-size="10.00">/utility.hpp</text>
</g>
<!-- Node4&#45;&gt;Node16 -->
<g id="edge21" class="edge"><title>Node4&#45;&gt;Node16</title>
<path fill="none" stroke="midnightblue" d="M551.882,-120.469C603.832,-112.697 683.68,-100.032 762.507,-84.0344"/>
<polygon fill="midnightblue" stroke="midnightblue" points="763.52,-87.3997 772.614,-81.9635 762.115,-80.5422 763.52,-87.3997"/>
</g>
<!-- Node11&#45;&gt;Node1 -->
<g id="edge15" class="edge"><title>Node11&#45;&gt;Node1</title>
<path fill="none" stroke="midnightblue" d="M971.917,-60.4353C995.943,-50.6217 1036.74,-33.9593 1064.54,-22.604"/>
<polygon fill="midnightblue" stroke="midnightblue" points="1066.2,-25.7046 1074.14,-18.6831 1063.56,-19.2243 1066.2,-25.7046"/>
</g>
<!-- Node11&#45;&gt;Node5 -->
<g id="edge14" class="edge"><title>Node11&#45;&gt;Node5</title>
<path fill="none" stroke="midnightblue" d="M962.74,-60.4353C974.741,-51.2763 994.56,-36.1518 1009.25,-24.9437"/>
<polygon fill="midnightblue" stroke="midnightblue" points="1011.38,-27.7209 1017.2,-18.8718 1007.13,-22.1562 1011.38,-27.7209"/>
</g>
<!-- Node11&#45;&gt;Node6 -->
<g id="edge16" class="edge"><title>Node11&#45;&gt;Node6</title>
<path fill="none" stroke="midnightblue" d="M905.817,-60.4991C895.1,-58.6715 883.742,-56.7521 873.172,-55 784.613,-40.32 679.997,-23.7128 628.345,-15.5619"/>
<polygon fill="midnightblue" stroke="midnightblue" points="628.869,-12.1014 618.446,-14.0011 627.779,-19.016 628.869,-12.1014"/>
</g>
<!-- Node12 -->
<g id="node13" class="node"><title>Node12</title>
<polygon fill="none" stroke="#bfbfbf" points="906.205,-0.5 906.205,-18.5 986.14,-18.5 986.14,-0.5 906.205,-0.5"/>
<text text-anchor="middle" x="946.172" y="-6.5" font-family="Helvetica,sans-Serif" font-size="10.00">boost/predef.h</text>
</g>
<!-- Node11&#45;&gt;Node12 -->
<g id="edge17" class="edge"><title>Node11&#45;&gt;Node12</title>
<path fill="none" stroke="midnightblue" d="M951.338,-60.4353C950.497,-52.3035 949.169,-39.4692 948.07,-28.8485"/>
<polygon fill="midnightblue" stroke="midnightblue" points="951.549,-28.4585 947.038,-18.8718 944.586,-29.1789 951.549,-28.4585"/>
</g>
<!-- Node14 -->
<g id="node15" class="node"><title>Node14</title>
<polygon fill="none" stroke="#bfbfbf" points="206.946,-0.5 206.946,-18.5 247.399,-18.5 247.399,-0.5 206.946,-0.5"/>
<text text-anchor="middle" x="227.172" y="-6.5" font-family="Helvetica,sans-Serif" font-size="10.00">string</text>
</g>
<!-- Node13&#45;&gt;Node14 -->
<g id="edge19" class="edge"><title>Node13&#45;&gt;Node14</title>
<path fill="none" stroke="midnightblue" d="M227.172,-60.4353C227.172,-52.3891 227.172,-39.7388 227.172,-29.1846"/>
<polygon fill="midnightblue" stroke="midnightblue" points="230.672,-28.8717 227.172,-18.8718 223.672,-28.8718 230.672,-28.8717"/>
</g>
</g>
</svg>
        <g id="navigator" transform="translate(0 0)" fill="#404254">
                <rect fill="#f2f5e9" fill-opacity="0.5" stroke="#606060" stroke-width=".5" x="0" y="0" width="60" height="60"/>
                <use id="zoomplus" xlink:href="#zoomPlus" x="17" y="9" onmousedown="handleZoom(evt,'in')"/>
                <use id="zoomminus" xlink:href="#zoomMin" x="42" y="9" onmousedown="handleZoom(evt,'out')"/>
                <use id="reset" xlink:href="#resetDef" x="30" y="36" onmousedown="handleReset()"/>
                <g id="arrowUp" xlink:href="#dirArrow" transform="translate(30 24)" onmousedown="handlePan(0,-1)">
                  <use xlink:href="#rim" fill="#404040">
                        <set attributeName="fill" to="#808080" begin="arrowUp.mouseover" end="arrowUp.mouseout"/>
                  </use>
                  <path fill="none" stroke="white" stroke-width="1.5" d="M0,-3.0v7 M-2.5,-0.5L0,-3.0L2.5,-0.5"/>
                </g>
                <g id="arrowRight" xlink:href="#dirArrow" transform="rotate(90) translate(36 -43)" onmousedown="handlePan(1,0)">
                  <use xlink:href="#rim" fill="#404040">
                        <set attributeName="fill" to="#808080" begin="arrowRight.mouseover" end="arrowRight.mouseout"/>
                  </use>
                  <path fill="none" stroke="white" stroke-width="1.5" d="M0,-3.0v7 M-2.5,-0.5L0,-3.0L2.5,-0.5"/>
                </g>
                <g id="arrowDown" xlink:href="#dirArrow" transform="rotate(180) translate(-30 -48)" onmousedown="handlePan(0,1)">
                  <use xlink:href="#rim" fill="#404040">
                        <set attributeName="fill" to="#808080" begin="arrowDown.mouseover" end="arrowDown.mouseout"/>
                  </use>
                  <path fill="none" stroke="white" stroke-width="1.5" d="M0,-3.0v7 M-2.5,-0.5L0,-3.0L2.5,-0.5"/>
                </g>
                <g id="arrowLeft" xlink:href="#dirArrow" transform="rotate(270) translate(-36 17)" onmousedown="handlePan(-1,0)">
                  <use xlink:href="#rim" fill="#404040">
                        <set attributeName="fill" to="#808080" begin="arrowLeft.mouseover" end="arrowLeft.mouseout"/>
                  </use>
                  <path fill="none" stroke="white" stroke-width="1.5" d="M0,-3.0v7 M-2.5,-0.5L0,-3.0L2.5,-0.5"/>
                </g>
        </g>
        <svg viewBox="0 0 15 15" width="100%" height="30px" preserveAspectRatio="xMaxYMin meet">
         <g id="arrow_out" transform="scale(0.3 0.3)">
          <a xlink:href="check__derivatives_8h__incl_org.svg" target="_base">
           <rect id="button" ry="5" rx="5" y="6" x="6" height="38" width="38"
                fill="#f2f5e9" fill-opacity="0.5" stroke="#606060" stroke-width="1.0"/>
           <path id="arrow"
             d="M 11.500037,31.436501 C 11.940474,20.09759 22.043105,11.32322 32.158766,21.979434 L 37.068811,17.246167 C 37.068811,17.246167 37.088388,32 37.088388,32 L 22.160133,31.978069 C 22.160133,31.978069 26.997745,27.140456 26.997745,27.140456 C 18.528582,18.264221 13.291696,25.230495 11.500037,31.436501 z"
             style="fill:#404040;"/>
          </a>
         </g>
        </svg>
</svg>
