<?xml version="1.0" encoding="UTF-8" standalone="no"?>
<!DOCTYPE svg PUBLIC "-//W3C//DTD SVG 1.1//EN"
 "http://www.w3.org/Graphics/SVG/1.1/DTD/svg11.dtd">
<!-- Generated by graphviz version 2.38.0 (20140413.2041)
 -->
<!-- Title: tomographer/tools/ezmatio.h Pages: 1 -->
<svg width="1741pt" height="267pt"
 viewBox="0.00 0.00 1741.24 267.00" xmlns="http://www.w3.org/2000/svg" xmlns:xlink="http://www.w3.org/1999/xlink">
<g id="graph0" class="graph" transform="scale(1 1) rotate(0) translate(4 263)">
<title>tomographer/tools/ezmatio.h</title>
<!-- Node0 -->
<g id="node1" class="node"><title>Node0</title>
<polygon fill="#bfbfbf" stroke="black" points="492.084,-240.5 492.084,-258.5 634.817,-258.5 634.817,-240.5 492.084,-240.5"/>
<text text-anchor="middle" x="563.451" y="-246.5" font-family="Helvetica,sans-Serif" font-size="10.00">tomographer/tools/ezmatio.h</text>
</g>
<!-- Node1 -->
<g id="node2" class="node"><title>Node1</title>
<polygon fill="none" stroke="#bfbfbf" points="0,-180.5 0,-198.5 44.9014,-198.5 44.9014,-180.5 0,-180.5"/>
<text text-anchor="middle" x="22.4507" y="-186.5" font-family="Helvetica,sans-Serif" font-size="10.00">cstdint</text>
</g>
<!-- Node0&#45;&gt;Node1 -->
<g id="edge1" class="edge"><title>Node0&#45;&gt;Node1</title>
<path fill="none" stroke="midnightblue" d="M491.908,-249.207C392.348,-248.629 207.053,-241.864 54.4507,-204 52.4755,-203.51 50.465,-202.914 48.4628,-202.25"/>
<polygon fill="midnightblue" stroke="midnightblue" points="49.3128,-198.828 38.7225,-198.519 46.809,-205.364 49.3128,-198.828"/>
</g>
<!-- Node2 -->
<g id="node3" class="node"><title>Node2</title>
<polygon fill="none" stroke="#bfbfbf" points="63.2783,-180.5 63.2783,-198.5 107.623,-198.5 107.623,-180.5 63.2783,-180.5"/>
<text text-anchor="middle" x="85.4507" y="-186.5" font-family="Helvetica,sans-Serif" font-size="10.00">cerrno</text>
</g>
<!-- Node0&#45;&gt;Node2 -->
<g id="edge2" class="edge"><title>Node0&#45;&gt;Node2</title>
<path fill="none" stroke="midnightblue" d="M491.711,-246.951C403.493,-243.754 249.685,-233.965 121.451,-204 118.948,-203.415 116.384,-202.701 113.834,-201.91"/>
<polygon fill="midnightblue" stroke="midnightblue" points="114.818,-198.547 104.223,-198.584 112.529,-205.162 114.818,-198.547"/>
</g>
<!-- Node3 -->
<g id="node4" class="node"><title>Node3</title>
<polygon fill="none" stroke="#bfbfbf" points="146.833,-60.5 146.833,-78.5 200.069,-78.5 200.069,-60.5 146.833,-60.5"/>
<text text-anchor="middle" x="173.451" y="-66.5" font-family="Helvetica,sans-Serif" font-size="10.00">complex</text>
</g>
<!-- Node0&#45;&gt;Node3 -->
<g id="edge3" class="edge"><title>Node0&#45;&gt;Node3</title>
<path fill="none" stroke="midnightblue" d="M491.72,-248.193C402.257,-246.338 256.096,-237.999 215.451,-204 180.9,-175.099 174.365,-118.045 173.388,-88.7699"/>
<polygon fill="midnightblue" stroke="midnightblue" points="176.887,-88.6587 173.241,-78.7111 169.888,-88.7614 176.887,-88.6587"/>
</g>
<!-- Node4 -->
<g id="node5" class="node"><title>Node4</title>
<polygon fill="none" stroke="#bfbfbf" points="1626.22,-0.5 1626.22,-18.5 1666.68,-18.5 1666.68,-0.5 1626.22,-0.5"/>
<text text-anchor="middle" x="1646.45" y="-6.5" font-family="Helvetica,sans-Serif" font-size="10.00">string</text>
</g>
<!-- Node0&#45;&gt;Node4 -->
<g id="edge4" class="edge"><title>Node0&#45;&gt;Node4</title>
<path fill="none" stroke="midnightblue" d="M635.173,-247.356C877.123,-242.747 1652.16,-221.596 1723.45,-139 1755.45,-101.928 1698.72,-49.8714 1666.47,-24.9301"/>
<polygon fill="midnightblue" stroke="midnightblue" points="1668.22,-21.8628 1658.12,-18.6494 1664.01,-27.4572 1668.22,-21.8628"/>
</g>
<!-- Node5 -->
<g id="node6" class="node"><title>Node5</title>
<polygon fill="none" stroke="#bfbfbf" points="512.835,-120.5 512.835,-138.5 556.066,-138.5 556.066,-120.5 512.835,-120.5"/>
<text text-anchor="middle" x="534.451" y="-126.5" font-family="Helvetica,sans-Serif" font-size="10.00">vector</text>
</g>
<!-- Node0&#45;&gt;Node5 -->
<g id="edge5" class="edge"><title>Node0&#45;&gt;Node5</title>
<path fill="none" stroke="midnightblue" d="M560.614,-240.372C557.586,-231.505 552.776,-216.859 549.451,-204 544.618,-185.312 540.353,-163.625 537.618,-148.677"/>
<polygon fill="midnightblue" stroke="midnightblue" points="541.044,-147.95 535.842,-138.721 534.153,-149.18 541.044,-147.95"/>
</g>
<!-- Node6 -->
<g id="node7" class="node"><title>Node6</title>
<polygon fill="none" stroke="#bfbfbf" points="277.887,-180.5 277.887,-198.5 335.015,-198.5 335.015,-180.5 277.887,-180.5"/>
<text text-anchor="middle" x="306.451" y="-186.5" font-family="Helvetica,sans-Serif" font-size="10.00">algorithm</text>
</g>
<!-- Node0&#45;&gt;Node6 -->
<g id="edge6" class="edge"><title>Node0&#45;&gt;Node6</title>
<path fill="none" stroke="midnightblue" d="M513.837,-240.476C469.139,-232.762 401.833,-219.937 344.451,-204 342.117,-203.352 339.72,-202.632 337.32,-201.873"/>
<polygon fill="midnightblue" stroke="midnightblue" points="338.18,-198.469 327.586,-198.603 335.951,-205.105 338.18,-198.469"/>
</g>
<!-- Node7 -->
<g id="node8" class="node"><title>Node7</title>
<polygon fill="none" stroke="#bfbfbf" points="591.278,-60.5 591.278,-78.5 645.623,-78.5 645.623,-60.5 591.278,-60.5"/>
<text text-anchor="middle" x="618.451" y="-66.5" font-family="Helvetica,sans-Serif" font-size="10.00">iostream</text>
</g>
<!-- Node0&#45;&gt;Node7 -->
<g id="edge7" class="edge"><title>Node0&#45;&gt;Node7</title>
<path fill="none" stroke="midnightblue" d="M491.935,-249.3C405.648,-248.556 268.057,-241.329 235.451,-204 210.891,-175.883 210.802,-148.04 235.451,-120 258.071,-94.2675 488.748,-78.0695 580.809,-72.5857"/>
<polygon fill="midnightblue" stroke="midnightblue" points="581.292,-76.0635 591.07,-71.9848 580.883,-69.0754 581.292,-76.0635"/>
</g>
<!-- Node8 -->
<g id="node9" class="node"><title>Node8</title>
<polygon fill="none" stroke="#bfbfbf" points="664.049,-60.5 664.049,-78.5 722.852,-78.5 722.852,-60.5 664.049,-60.5"/>
<text text-anchor="middle" x="693.451" y="-66.5" font-family="Helvetica,sans-Serif" font-size="10.00">stdexcept</text>
</g>
<!-- Node0&#45;&gt;Node8 -->
<g id="edge8" class="edge"><title>Node0&#45;&gt;Node8</title>
<path fill="none" stroke="midnightblue" d="M491.855,-248.001C413.953,-245.758 296.701,-236.832 268.451,-204 244.1,-175.701 243.308,-147.597 268.451,-120 326.471,-56.3171 570.25,-102.222 654.451,-84 657.339,-83.3749 660.31,-82.6007 663.26,-81.7417"/>
<polygon fill="midnightblue" stroke="midnightblue" points="664.621,-84.9809 673.07,-78.588 662.478,-78.3168 664.621,-84.9809"/>
</g>
<!-- Node9 -->
<g id="node10" class="node"><title>Node9</title>
<polygon fill="none" stroke="#bfbfbf" points="573.67,-120.5 573.67,-138.5 625.231,-138.5 625.231,-120.5 573.67,-120.5"/>
<text text-anchor="middle" x="599.451" y="-126.5" font-family="Helvetica,sans-Serif" font-size="10.00">sstream</text>
</g>
<!-- Node0&#45;&gt;Node9 -->
<g id="edge9" class="edge"><title>Node0&#45;&gt;Node9</title>
<path fill="none" stroke="midnightblue" d="M565.264,-240.257C568.345,-226.572 574.997,-198.354 582.451,-175 585.318,-166.016 589.004,-156.206 592.21,-148.089"/>
<polygon fill="midnightblue" stroke="midnightblue" points="595.541,-149.188 596.04,-138.604 589.05,-146.567 595.541,-149.188"/>
</g>
<!-- Node10 -->
<g id="node11" class="node"><title>Node10</title>
<polygon fill="none" stroke="#bfbfbf" points="591.108,-180.5 591.108,-198.5 663.793,-198.5 663.793,-180.5 591.108,-180.5"/>
<text text-anchor="middle" x="627.451" y="-186.5" font-family="Helvetica,sans-Serif" font-size="10.00">initializer_list</text>
</g>
<!-- Node0&#45;&gt;Node10 -->
<g id="edge10" class="edge"><title>Node0&#45;&gt;Node10</title>
<path fill="none" stroke="midnightblue" d="M572.35,-240.435C582.173,-231.533 598.215,-216.995 610.463,-205.895"/>
<polygon fill="midnightblue" stroke="midnightblue" points="613.153,-208.18 618.213,-198.872 608.453,-202.994 613.153,-208.18"/>
</g>
<!-- Node11 -->
<g id="node12" class="node"><title>Node11</title>
<polygon fill="none" stroke="#bfbfbf" points="643.059,-120.5 643.059,-138.5 681.842,-138.5 681.842,-120.5 643.059,-120.5"/>
<text text-anchor="middle" x="662.451" y="-126.5" font-family="Helvetica,sans-Serif" font-size="10.00">utility</text>
</g>
<!-- Node0&#45;&gt;Node11 -->
<g id="edge11" class="edge"><title>Node0&#45;&gt;Node11</title>
<path fill="none" stroke="midnightblue" d="M614.862,-240.467C636.419,-234.281 659.456,-223.341 672.451,-204 683.644,-187.34 677.501,-163.722 670.983,-147.793"/>
<polygon fill="midnightblue" stroke="midnightblue" points="674.13,-146.259 666.823,-138.587 667.751,-149.141 674.13,-146.259"/>
</g>
<!-- Node12 -->
<g id="node13" class="node"><title>Node12</title>
<polygon fill="none" stroke="#bfbfbf" points="719.054,-180.5 719.054,-198.5 767.847,-198.5 767.847,-180.5 719.054,-180.5"/>
<text text-anchor="middle" x="743.451" y="-186.5" font-family="Helvetica,sans-Serif" font-size="10.00">matio.h</text>
</g>
<!-- Node0&#45;&gt;Node12 -->
<g id="edge12" class="edge"><title>Node0&#45;&gt;Node12</title>
<path fill="none" stroke="midnightblue" d="M590.242,-240.433C618.864,-231.739 665.511,-217.347 705.451,-204 707.343,-203.368 709.285,-202.709 711.242,-202.037"/>
<polygon fill="midnightblue" stroke="midnightblue" points="712.705,-205.234 720.994,-198.636 710.399,-198.624 712.705,-205.234"/>
</g>
<!-- Node13 -->
<g id="node14" class="node"><title>Node13</title>
<polygon fill="none" stroke="#bfbfbf" points="740.436,-60.5 740.436,-78.5 806.465,-78.5 806.465,-60.5 740.436,-60.5"/>
<text text-anchor="middle" x="773.451" y="-66.5" font-family="Helvetica,sans-Serif" font-size="10.00">Eigen/Core</text>
</g>
<!-- Node0&#45;&gt;Node13 -->
<g id="edge13" class="edge"><title>Node0&#45;&gt;Node13</title>
<path fill="none" stroke="midnightblue" d="M635.08,-244.691C762.312,-236.145 1018.79,-210.27 1065.45,-139 1103.25,-81.2751 1141.05,-141.136 835.451,-84 829.268,-82.8441 822.76,-81.5323 816.378,-80.1917"/>
<polygon fill="midnightblue" stroke="midnightblue" points="817.03,-76.7521 806.519,-78.0794 815.564,-83.5968 817.03,-76.7521"/>
</g>
<!-- Node14 -->
<g id="node15" class="node"><title>Node14</title>
<g id="a_node15"><a xlink:href="cxxutil_8h.html" target="_top" xlink:title="Some C++ utilities, with a tad of C++11 tricks. ">
<polygon fill="none" stroke="black" points="1150.7,-120.5 1150.7,-138.5 1286.2,-138.5 1286.2,-120.5 1150.7,-120.5"/>
<text text-anchor="middle" x="1218.45" y="-126.5" font-family="Helvetica,sans-Serif" font-size="10.00">tomographer/tools/cxxutil.h</text>
</a>
</g>
</g>
<!-- Node0&#45;&gt;Node14 -->
<g id="edge14" class="edge"><title>Node0&#45;&gt;Node14</title>
<path fill="none" stroke="midnightblue" d="M635.015,-246.643C760.36,-242.712 1014.3,-231.539 1098.45,-204 1103.81,-202.246 1163.86,-164.787 1196.93,-144.04"/>
<polygon fill="midnightblue" stroke="midnightblue" points="1198.86,-146.958 1205.47,-138.675 1195.14,-141.03 1198.86,-146.958"/>
</g>
<!-- Node25 -->
<g id="node26" class="node"><title>Node25</title>
<g id="a_node26"><a xlink:href="eigenutil_8h.html" target="_top" xlink:title="Basic utilities for dealing with Eigen matrices and other types. ">
<polygon fill="none" stroke="black" points="352.966,-180.5 352.966,-198.5 497.936,-198.5 497.936,-180.5 352.966,-180.5"/>
<text text-anchor="middle" x="425.451" y="-186.5" font-family="Helvetica,sans-Serif" font-size="10.00">tomographer/tools/eigenutil.h</text>
</a>
</g>
</g>
<!-- Node0&#45;&gt;Node25 -->
<g id="edge33" class="edge"><title>Node0&#45;&gt;Node25</title>
<path fill="none" stroke="midnightblue" d="M544.262,-240.435C520.913,-230.622 481.268,-213.959 454.25,-202.604"/>
<polygon fill="midnightblue" stroke="midnightblue" points="455.496,-199.331 444.921,-198.683 452.784,-205.784 455.496,-199.331"/>
</g>
<!-- Node28 -->
<g id="node29" class="node"><title>Node28</title>
<g id="a_node29"><a xlink:href="fmt_8h.html" target="_top" xlink:title="Utilities for formatting strings. ">
<polygon fill="none" stroke="black" points="785.648,-180.5 785.648,-198.5 907.253,-198.5 907.253,-180.5 785.648,-180.5"/>
<text text-anchor="middle" x="846.451" y="-186.5" font-family="Helvetica,sans-Serif" font-size="10.00">tomographer/tools/fmt.h</text>
</a>
</g>
</g>
<!-- Node0&#45;&gt;Node28 -->
<g id="edge39" class="edge"><title>Node0&#45;&gt;Node28</title>
<path fill="none" stroke="midnightblue" d="M602.503,-240.496C653.321,-230.081 742.133,-211.879 797.427,-200.547"/>
<polygon fill="midnightblue" stroke="midnightblue" points="798.251,-203.951 807.345,-198.515 796.845,-197.094 798.251,-203.951"/>
</g>
<!-- Node34 -->
<g id="node35" class="node"><title>Node34</title>
<g id="a_node35"><a xlink:href="pos__semidef__util_8h.html" target="_top" xlink:title="Tools for dealing with positive semidefinite matrices. ">
<polygon fill="none" stroke="black" points="1156.03,-175.5 1156.03,-203.5 1274.87,-203.5 1274.87,-175.5 1156.03,-175.5"/>
<text text-anchor="start" x="1164.03" y="-191.5" font-family="Helvetica,sans-Serif" font-size="10.00">tomographer/mathtools</text>
<text text-anchor="middle" x="1215.45" y="-181.5" font-family="Helvetica,sans-Serif" font-size="10.00">/pos_semidef_util.h</text>
</a>
</g>
</g>
<!-- Node0&#45;&gt;Node34 -->
<g id="edge51" class="edge"><title>Node0&#45;&gt;Node34</title>
<path fill="none" stroke="midnightblue" d="M635.201,-245.302C744.551,-239.902 959.327,-227.225 1140.45,-204 1142.16,-203.78 1143.9,-203.548 1145.65,-203.304"/>
<polygon fill="midnightblue" stroke="midnightblue" points="1146.39,-206.733 1155.77,-201.805 1145.36,-199.809 1146.39,-206.733"/>
</g>
<!-- Node14&#45;&gt;Node3 -->
<g id="edge19" class="edge"><title>Node14&#45;&gt;Node3</title>
<path fill="none" stroke="midnightblue" d="M1150.66,-124.733C1124.09,-123.257 1093.34,-121.549 1065.45,-120 733.611,-101.575 332.329,-79.3133 210.356,-72.5472"/>
<polygon fill="midnightblue" stroke="midnightblue" points="210.264,-69.0368 200.085,-71.9774 209.876,-76.026 210.264,-69.0368"/>
</g>
<!-- Node14&#45;&gt;Node7 -->
<g id="edge18" class="edge"><title>Node14&#45;&gt;Node7</title>
<path fill="none" stroke="midnightblue" d="M1150.57,-124.17C1011.38,-115.14 702.694,-94.2854 655.451,-84 652.632,-83.3863 649.738,-82.6083 646.869,-81.7368"/>
<polygon fill="midnightblue" stroke="midnightblue" points="647.956,-78.4098 637.362,-78.5162 645.71,-85.0397 647.956,-78.4098"/>
</g>
<!-- Node14&#45;&gt;Node8 -->
<g id="edge22" class="edge"><title>Node14&#45;&gt;Node8</title>
<path fill="none" stroke="midnightblue" d="M1150.58,-124.402C1036.1,-117.138 809.503,-101.146 731.451,-84 728.63,-83.3804 725.732,-82.6099 722.854,-81.7533"/>
<polygon fill="midnightblue" stroke="midnightblue" points="723.885,-78.4081 713.292,-78.6032 721.695,-85.0566 723.885,-78.4081"/>
</g>
<!-- Node14&#45;&gt;Node13 -->
<g id="edge32" class="edge"><title>Node14&#45;&gt;Node13</title>
<path fill="none" stroke="midnightblue" d="M1150.33,-121.185C1040.86,-109.387 836.372,-87.1533 820.451,-84 816.534,-83.2243 812.47,-82.2779 808.445,-81.2498"/>
<polygon fill="midnightblue" stroke="midnightblue" points="809.195,-77.8267 798.627,-78.5765 807.356,-84.5808 809.195,-77.8267"/>
</g>
<!-- Node15 -->
<g id="node16" class="node"><title>Node15</title>
<polygon fill="none" stroke="#bfbfbf" points="818.335,-0.5 818.335,-18.5 866.566,-18.5 866.566,-0.5 818.335,-0.5"/>
<text text-anchor="middle" x="842.451" y="-6.5" font-family="Helvetica,sans-Serif" font-size="10.00">cassert</text>
</g>
<!-- Node14&#45;&gt;Node15 -->
<g id="edge15" class="edge"><title>Node14&#45;&gt;Node15</title>
<path fill="none" stroke="midnightblue" d="M1150.6,-121.272C1046.49,-110.038 858.733,-89.1408 853.451,-84 839.026,-69.9625 838.096,-45.7399 839.571,-28.9579"/>
<polygon fill="midnightblue" stroke="midnightblue" points="843.081,-29.1003 840.841,-18.745 836.134,-28.237 843.081,-29.1003"/>
</g>
<!-- Node16 -->
<g id="node17" class="node"><title>Node16</title>
<polygon fill="none" stroke="#bfbfbf" points="999.33,-0.5 999.33,-18.5 1047.57,-18.5 1047.57,-0.5 999.33,-0.5"/>
<text text-anchor="middle" x="1023.45" y="-6.5" font-family="Helvetica,sans-Serif" font-size="10.00">cstddef</text>
</g>
<!-- Node14&#45;&gt;Node16 -->
<g id="edge16" class="edge"><title>Node14&#45;&gt;Node16</title>
<path fill="none" stroke="midnightblue" d="M1169.04,-120.456C1126.3,-112.599 1068.72,-99.5697 1051.45,-84 1035.63,-69.7372 1028.69,-45.5638 1025.69,-28.8547"/>
<polygon fill="midnightblue" stroke="midnightblue" points="1029.11,-28.0685 1024.17,-18.693 1022.19,-29.0994 1029.11,-28.0685"/>
</g>
<!-- Node17 -->
<g id="node18" class="node"><title>Node17</title>
<polygon fill="none" stroke="#bfbfbf" points="1171.28,-0.5 1171.28,-18.5 1215.62,-18.5 1215.62,-0.5 1171.28,-0.5"/>
<text text-anchor="middle" x="1193.45" y="-6.5" font-family="Helvetica,sans-Serif" font-size="10.00">cstdlib</text>
</g>
<!-- Node14&#45;&gt;Node17 -->
<g id="edge17" class="edge"><title>Node14&#45;&gt;Node17</title>
<path fill="none" stroke="midnightblue" d="M1234.85,-120.482C1248,-113.047 1265.52,-100.627 1273.45,-84 1279,-72.3678 1279.98,-66.1103 1273.45,-55 1263.15,-37.4781 1243.17,-26.3568 1225.76,-19.6142"/>
<polygon fill="midnightblue" stroke="midnightblue" points="1226.49,-16.1609 1215.89,-16.1349 1224.16,-22.7622 1226.49,-16.1609"/>
</g>
<!-- Node18 -->
<g id="node19" class="node"><title>Node18</title>
<polygon fill="none" stroke="#bfbfbf" points="1320.38,-60.5 1320.38,-78.5 1382.52,-78.5 1382.52,-60.5 1320.38,-60.5"/>
<text text-anchor="middle" x="1351.45" y="-66.5" font-family="Helvetica,sans-Serif" font-size="10.00">type_traits</text>
</g>
<!-- Node14&#45;&gt;Node18 -->
<g id="edge20" class="edge"><title>Node14&#45;&gt;Node18</title>
<path fill="none" stroke="midnightblue" d="M1236.94,-120.435C1259.35,-110.665 1297.32,-94.1053 1323.35,-82.7537"/>
<polygon fill="midnightblue" stroke="midnightblue" points="1324.92,-85.8887 1332.69,-78.6831 1322.12,-79.4723 1324.92,-85.8887"/>
</g>
<!-- Node19 -->
<g id="node20" class="node"><title>Node19</title>
<polygon fill="none" stroke="#bfbfbf" points="1400.05,-60.5 1400.05,-78.5 1458.85,-78.5 1458.85,-60.5 1400.05,-60.5"/>
<text text-anchor="middle" x="1429.45" y="-66.5" font-family="Helvetica,sans-Serif" font-size="10.00">exception</text>
</g>
<!-- Node14&#45;&gt;Node19 -->
<g id="edge21" class="edge"><title>Node14&#45;&gt;Node19</title>
<path fill="none" stroke="midnightblue" d="M1253.5,-120.46C1288.63,-112.172 1344.15,-98.4553 1391.45,-84 1393.71,-83.3095 1396.03,-82.5664 1398.37,-81.7966"/>
<polygon fill="midnightblue" stroke="midnightblue" points="1399.53,-85.0976 1407.86,-78.548 1397.26,-78.4747 1399.53,-85.0976"/>
</g>
<!-- Node20 -->
<g id="node21" class="node"><title>Node20</title>
<g id="a_node21"><a xlink:href="cxxdefs_8h.html" target="_top" xlink:title="Basic definitions, which may have to be defined before any Eigen headers or further utilities are inc...">
<polygon fill="none" stroke="black" points="862.641,-60.5 862.641,-78.5 1004.26,-78.5 1004.26,-60.5 862.641,-60.5"/>
<text text-anchor="middle" x="933.451" y="-66.5" font-family="Helvetica,sans-Serif" font-size="10.00">tomographer/tools/cxxdefs.h</text>
</a>
</g>
</g>
<!-- Node14&#45;&gt;Node20 -->
<g id="edge23" class="edge"><title>Node14&#45;&gt;Node20</title>
<path fill="none" stroke="midnightblue" d="M1179.12,-120.496C1127.95,-110.081 1038.51,-91.8795 982.821,-80.5473"/>
<polygon fill="midnightblue" stroke="midnightblue" points="983.33,-77.0793 972.833,-78.5147 981.934,-83.9387 983.33,-77.0793"/>
</g>
<!-- Node22 -->
<g id="node23" class="node"><title>Node22</title>
<g id="a_node23"><a xlink:href="conststr_8h.html" target="_top" xlink:title="A constexpr string type, suitable for basic compile&#45;time string processing. ">
<polygon fill="none" stroke="black" points="1476.36,-60.5 1476.36,-78.5 1618.54,-78.5 1618.54,-60.5 1476.36,-60.5"/>
<text text-anchor="middle" x="1547.45" y="-66.5" font-family="Helvetica,sans-Serif" font-size="10.00">tomographer/tools/conststr.h</text>
</a>
</g>
</g>
<!-- Node14&#45;&gt;Node22 -->
<g id="edge28" class="edge"><title>Node14&#45;&gt;Node22</title>
<path fill="none" stroke="midnightblue" d="M1263.85,-120.496C1323.42,-109.995 1427.89,-91.5769 1492.05,-80.2666"/>
<polygon fill="midnightblue" stroke="midnightblue" points="1492.75,-83.6978 1501.99,-78.5147 1491.53,-76.8041 1492.75,-83.6978"/>
</g>
<!-- Node23 -->
<g id="node24" class="node"><title>Node23</title>
<polygon fill="none" stroke="#bfbfbf" points="1059.98,-60.5 1059.98,-78.5 1154.92,-78.5 1154.92,-60.5 1059.98,-60.5"/>
<text text-anchor="middle" x="1107.45" y="-66.5" font-family="Helvetica,sans-Serif" font-size="10.00">boost/version.hpp</text>
</g>
<!-- Node14&#45;&gt;Node23 -->
<g id="edge30" class="edge"><title>Node14&#45;&gt;Node23</title>
<path fill="none" stroke="midnightblue" d="M1203.02,-120.435C1184.65,-110.837 1153.74,-94.6868 1132.06,-83.3586"/>
<polygon fill="midnightblue" stroke="midnightblue" points="1133.6,-80.2123 1123.11,-78.6831 1130.35,-86.4164 1133.6,-80.2123"/>
</g>
<!-- Node24 -->
<g id="node25" class="node"><title>Node24</title>
<polygon fill="none" stroke="#bfbfbf" points="1172.93,-55.5 1172.93,-83.5 1263.98,-83.5 1263.98,-55.5 1172.93,-55.5"/>
<text text-anchor="start" x="1180.93" y="-71.5" font-family="Helvetica,sans-Serif" font-size="10.00">boost/units/detail</text>
<text text-anchor="middle" x="1218.45" y="-61.5" font-family="Helvetica,sans-Serif" font-size="10.00">/utility.hpp</text>
</g>
<!-- Node14&#45;&gt;Node24 -->
<g id="edge31" class="edge"><title>Node14&#45;&gt;Node24</title>
<path fill="none" stroke="midnightblue" d="M1218.45,-120.435C1218.45,-113.56 1218.45,-103.324 1218.45,-93.9057"/>
<polygon fill="midnightblue" stroke="midnightblue" points="1221.95,-93.8427 1218.45,-83.8428 1214.95,-93.8428 1221.95,-93.8427"/>
</g>
<!-- Node20&#45;&gt;Node15 -->
<g id="edge24" class="edge"><title>Node20&#45;&gt;Node15</title>
<path fill="none" stroke="midnightblue" d="M920.798,-60.4353C906.076,-51.0521 881.53,-35.4077 863.832,-24.1277"/>
<polygon fill="midnightblue" stroke="midnightblue" points="865.604,-21.1064 855.29,-18.6831 861.841,-27.0094 865.604,-21.1064"/>
</g>
<!-- Node20&#45;&gt;Node16 -->
<g id="edge25" class="edge"><title>Node20&#45;&gt;Node16</title>
<path fill="none" stroke="midnightblue" d="M945.965,-60.4353C960.525,-51.0521 984.801,-35.4077 1002.3,-24.1277"/>
<polygon fill="midnightblue" stroke="midnightblue" points="1004.24,-27.0422 1010.75,-18.6831 1000.45,-21.1582 1004.24,-27.0422"/>
</g>
<!-- Node20&#45;&gt;Node17 -->
<g id="edge26" class="edge"><title>Node20&#45;&gt;Node17</title>
<path fill="none" stroke="midnightblue" d="M969.33,-60.4962C1020.07,-49.1761 1112.06,-28.6564 1160.92,-17.7576"/>
<polygon fill="midnightblue" stroke="midnightblue" points="1161.94,-21.1147 1170.94,-15.5213 1160.42,-14.2826 1161.94,-21.1147"/>
</g>
<!-- Node21 -->
<g id="node22" class="node"><title>Node21</title>
<polygon fill="none" stroke="#bfbfbf" points="893.483,-0.5 893.483,-18.5 973.418,-18.5 973.418,-0.5 893.483,-0.5"/>
<text text-anchor="middle" x="933.451" y="-6.5" font-family="Helvetica,sans-Serif" font-size="10.00">boost/predef.h</text>
</g>
<!-- Node20&#45;&gt;Node21 -->
<g id="edge27" class="edge"><title>Node20&#45;&gt;Node21</title>
<path fill="none" stroke="midnightblue" d="M933.451,-60.4353C933.451,-52.3891 933.451,-39.7388 933.451,-29.1846"/>
<polygon fill="midnightblue" stroke="midnightblue" points="936.951,-28.8717 933.451,-18.8718 929.951,-28.8718 936.951,-28.8717"/>
</g>
<!-- Node22&#45;&gt;Node4 -->
<g id="edge29" class="edge"><title>Node22&#45;&gt;Node4</title>
<path fill="none" stroke="midnightblue" d="M1561.22,-60.4353C1577.38,-50.9661 1604.43,-35.1201 1623.72,-23.8184"/>
<polygon fill="midnightblue" stroke="midnightblue" points="1625.62,-26.758 1632.48,-18.6831 1622.09,-20.7182 1625.62,-26.758"/>
</g>
<!-- Node25&#45;&gt;Node3 -->
<g id="edge34" class="edge"><title>Node25&#45;&gt;Node3</title>
<path fill="none" stroke="midnightblue" d="M388.636,-180.433C355.979,-172.462 307.533,-158.611 268.451,-139 238.932,-124.188 208.629,-100.598 190.419,-85.3299"/>
<polygon fill="midnightblue" stroke="midnightblue" points="192.387,-82.4075 182.508,-78.5784 187.843,-87.7322 192.387,-82.4075"/>
</g>
<!-- Node25&#45;&gt;Node5 -->
<g id="edge35" class="edge"><title>Node25&#45;&gt;Node5</title>
<path fill="none" stroke="midnightblue" d="M440.607,-180.435C458.564,-170.88 488.724,-154.832 509.998,-143.511"/>
<polygon fill="midnightblue" stroke="midnightblue" points="511.888,-146.47 519.072,-138.683 508.6,-140.291 511.888,-146.47"/>
</g>
<!-- Node25&#45;&gt;Node13 -->
<g id="edge36" class="edge"><title>Node25&#45;&gt;Node13</title>
<path fill="none" stroke="midnightblue" d="M432.149,-180.088C444.5,-165.231 472.45,-134.543 503.451,-120 596.328,-76.4313 631.653,-107.767 731.451,-84 734.482,-83.278 737.611,-82.4445 740.73,-81.5532"/>
<polygon fill="midnightblue" stroke="midnightblue" points="741.975,-84.8327 750.525,-78.5749 739.939,-78.1354 741.975,-84.8327"/>
</g>
<!-- Node26 -->
<g id="node27" class="node"><title>Node26</title>
<polygon fill="none" stroke="#bfbfbf" points="277.82,-120.5 277.82,-138.5 351.081,-138.5 351.081,-120.5 277.82,-120.5"/>
<text text-anchor="middle" x="314.451" y="-126.5" font-family="Helvetica,sans-Serif" font-size="10.00">Eigen/Dense</text>
</g>
<!-- Node25&#45;&gt;Node26 -->
<g id="edge37" class="edge"><title>Node25&#45;&gt;Node26</title>
<path fill="none" stroke="midnightblue" d="M410.017,-180.435C391.647,-170.837 360.739,-154.687 339.059,-143.359"/>
<polygon fill="midnightblue" stroke="midnightblue" points="340.595,-140.212 330.112,-138.683 337.354,-146.416 340.595,-140.212"/>
</g>
<!-- Node27 -->
<g id="node28" class="node"><title>Node27</title>
<polygon fill="none" stroke="#bfbfbf" points="368.591,-120.5 368.591,-138.5 456.31,-138.5 456.31,-120.5 368.591,-120.5"/>
<text text-anchor="middle" x="412.451" y="-126.5" font-family="Helvetica,sans-Serif" font-size="10.00">Eigen/StdVector</text>
</g>
<!-- Node25&#45;&gt;Node27 -->
<g id="edge38" class="edge"><title>Node25&#45;&gt;Node27</title>
<path fill="none" stroke="midnightblue" d="M423.643,-180.435C421.82,-172.304 418.944,-159.469 416.563,-148.848"/>
<polygon fill="midnightblue" stroke="midnightblue" points="419.93,-147.864 414.327,-138.872 413.099,-149.395 419.93,-147.864"/>
</g>
<!-- Node28&#45;&gt;Node4 -->
<g id="edge43" class="edge"><title>Node28&#45;&gt;Node4</title>
<path fill="none" stroke="midnightblue" d="M907.282,-184.331C1081.69,-171.835 1574.4,-132.538 1627.45,-84 1642.62,-70.121 1646.36,-45.8637 1646.96,-29.0305"/>
<polygon fill="midnightblue" stroke="midnightblue" points="1650.46,-28.7885 1646.98,-18.7815 1643.46,-28.7745 1650.46,-28.7885"/>
</g>
<!-- Node28&#45;&gt;Node5 -->
<g id="edge47" class="edge"><title>Node28&#45;&gt;Node5</title>
<path fill="none" stroke="midnightblue" d="M805.763,-180.494C796.159,-178.648 785.95,-176.722 776.451,-175 685.535,-158.516 659.392,-159.938 566.182,-139.211"/>
<polygon fill="midnightblue" stroke="midnightblue" points="566.86,-135.776 556.336,-136.995 565.323,-142.605 566.86,-135.776"/>
</g>
<!-- Node28&#45;&gt;Node7 -->
<g id="edge45" class="edge"><title>Node28&#45;&gt;Node7</title>
<path fill="none" stroke="midnightblue" d="M824.225,-180.398C800.141,-171.339 760.816,-155.73 728.451,-139 695.75,-122.097 659.913,-98.8172 638.309,-84.2178"/>
<polygon fill="midnightblue" stroke="midnightblue" points="640.206,-81.2755 629.971,-78.5362 636.264,-87.06 640.206,-81.2755"/>
</g>
<!-- Node28&#45;&gt;Node9 -->
<g id="edge44" class="edge"><title>Node28&#45;&gt;Node9</title>
<path fill="none" stroke="midnightblue" d="M811.54,-180.449C771.474,-171.186 703.522,-155.41 635.475,-139.228"/>
<polygon fill="midnightblue" stroke="midnightblue" points="635.977,-135.75 625.438,-136.838 634.356,-142.559 635.977,-135.75"/>
</g>
<!-- Node28&#45;&gt;Node11 -->
<g id="edge46" class="edge"><title>Node28&#45;&gt;Node11</title>
<path fill="none" stroke="midnightblue" d="M820.866,-180.435C786.984,-169.755 727.366,-150.962 691.725,-139.728"/>
<polygon fill="midnightblue" stroke="midnightblue" points="692.508,-136.305 681.919,-136.637 690.404,-142.981 692.508,-136.305"/>
</g>
<!-- Node28&#45;&gt;Node14 -->
<g id="edge50" class="edge"><title>Node28&#45;&gt;Node14</title>
<path fill="none" stroke="midnightblue" d="M897.785,-180.496C965.554,-169.93 1084.73,-151.349 1157.15,-140.058"/>
<polygon fill="midnightblue" stroke="midnightblue" points="1157.7,-143.514 1167.05,-138.515 1156.63,-136.597 1157.7,-143.514"/>
</g>
<!-- Node29 -->
<g id="node30" class="node"><title>Node29</title>
<polygon fill="none" stroke="#bfbfbf" points="883.389,-120.5 883.389,-138.5 925.512,-138.5 925.512,-120.5 883.389,-120.5"/>
<text text-anchor="middle" x="904.451" y="-126.5" font-family="Helvetica,sans-Serif" font-size="10.00">cstdio</text>
</g>
<!-- Node28&#45;&gt;Node29 -->
<g id="edge40" class="edge"><title>Node28&#45;&gt;Node29</title>
<path fill="none" stroke="midnightblue" d="M854.515,-180.435C863.332,-171.619 877.676,-157.274 888.734,-146.217"/>
<polygon fill="midnightblue" stroke="midnightblue" points="891.483,-148.418 896.079,-138.872 886.533,-143.468 891.483,-148.418"/>
</g>
<!-- Node30 -->
<g id="node31" class="node"><title>Node30</title>
<polygon fill="none" stroke="#bfbfbf" points="943.054,-120.5 943.054,-138.5 991.847,-138.5 991.847,-120.5 943.054,-120.5"/>
<text text-anchor="middle" x="967.451" y="-126.5" font-family="Helvetica,sans-Serif" font-size="10.00">cstdarg</text>
</g>
<!-- Node28&#45;&gt;Node30 -->
<g id="edge41" class="edge"><title>Node28&#45;&gt;Node30</title>
<path fill="none" stroke="midnightblue" d="M863.275,-180.435C883.479,-170.751 917.597,-154.397 941.258,-143.055"/>
<polygon fill="midnightblue" stroke="midnightblue" points="942.874,-146.162 950.379,-138.683 939.849,-139.85 942.874,-146.162"/>
</g>
<!-- Node31 -->
<g id="node32" class="node"><title>Node31</title>
<polygon fill="none" stroke="#bfbfbf" points="1010.16,-120.5 1010.16,-138.5 1056.74,-138.5 1056.74,-120.5 1010.16,-120.5"/>
<text text-anchor="middle" x="1033.45" y="-126.5" font-family="Helvetica,sans-Serif" font-size="10.00">chrono</text>
</g>
<!-- Node28&#45;&gt;Node31 -->
<g id="edge42" class="edge"><title>Node28&#45;&gt;Node31</title>
<path fill="none" stroke="midnightblue" d="M872.452,-180.435C905.843,-170.079 963.825,-152.095 1000.34,-140.771"/>
<polygon fill="midnightblue" stroke="midnightblue" points="1001.51,-144.07 1010.03,-137.765 999.439,-137.385 1001.51,-144.07"/>
</g>
<!-- Node32 -->
<g id="node33" class="node"><title>Node32</title>
<polygon fill="none" stroke="#bfbfbf" points="737.941,-120.5 737.941,-138.5 788.96,-138.5 788.96,-120.5 737.941,-120.5"/>
<text text-anchor="middle" x="763.451" y="-126.5" font-family="Helvetica,sans-Serif" font-size="10.00">iomanip</text>
</g>
<!-- Node28&#45;&gt;Node32 -->
<g id="edge48" class="edge"><title>Node28&#45;&gt;Node32</title>
<path fill="none" stroke="midnightblue" d="M834.91,-180.435C821.605,-171.138 799.505,-155.694 783.398,-144.439"/>
<polygon fill="midnightblue" stroke="midnightblue" points="785.363,-141.542 775.161,-138.683 781.353,-147.28 785.363,-141.542"/>
</g>
<!-- Node33 -->
<g id="node34" class="node"><title>Node33</title>
<polygon fill="none" stroke="#bfbfbf" points="807.047,-120.5 807.047,-138.5 865.854,-138.5 865.854,-120.5 807.047,-120.5"/>
<text text-anchor="middle" x="836.451" y="-126.5" font-family="Helvetica,sans-Serif" font-size="10.00">functional</text>
</g>
<!-- Node28&#45;&gt;Node33 -->
<g id="edge49" class="edge"><title>Node28&#45;&gt;Node33</title>
<path fill="none" stroke="midnightblue" d="M845.06,-180.435C843.658,-172.304 841.445,-159.469 839.614,-148.848"/>
<polygon fill="midnightblue" stroke="midnightblue" points="843.042,-148.132 837.894,-138.872 836.144,-149.321 843.042,-148.132"/>
</g>
<!-- Node34&#45;&gt;Node13 -->
<g id="edge52" class="edge"><title>Node34&#45;&gt;Node13</title>
<path fill="none" stroke="midnightblue" d="M1198.29,-175.487C1176.38,-159.603 1136.71,-133.228 1098.45,-120 986.947,-81.4516 951.623,-104.566 835.451,-84 829.257,-82.9036 822.743,-81.6248 816.358,-80.2994"/>
<polygon fill="midnightblue" stroke="midnightblue" points="817.007,-76.8592 806.497,-78.198 815.548,-83.7055 817.007,-76.8592"/>
</g>
<!-- Node34&#45;&gt;Node14 -->
<g id="edge54" class="edge"><title>Node34&#45;&gt;Node14</title>
<path fill="none" stroke="midnightblue" d="M1216.13,-175.339C1216.54,-167.531 1217.05,-157.512 1217.5,-148.927"/>
<polygon fill="midnightblue" stroke="midnightblue" points="1221,-148.939 1218.02,-138.771 1214.01,-148.577 1221,-148.939"/>
</g>
<!-- Node35 -->
<g id="node36" class="node"><title>Node35</title>
<polygon fill="none" stroke="#bfbfbf" points="1616.03,-120.5 1616.03,-138.5 1714.87,-138.5 1714.87,-120.5 1616.03,-120.5"/>
<text text-anchor="middle" x="1665.45" y="-126.5" font-family="Helvetica,sans-Serif" font-size="10.00">Eigen/Eigenvalues</text>
</g>
<!-- Node34&#45;&gt;Node35 -->
<g id="edge53" class="edge"><title>Node34&#45;&gt;Node35</title>
<path fill="none" stroke="midnightblue" d="M1275.13,-180.996C1351.16,-171.406 1486.6,-154.224 1602.45,-139 1603.54,-138.856 1604.65,-138.711 1605.76,-138.564"/>
<polygon fill="midnightblue" stroke="midnightblue" points="1606.48,-141.999 1615.93,-137.214 1605.56,-135.06 1606.48,-141.999"/>
</g>
</g>
</svg>
