<?xml version="1.0" encoding="UTF-8" standalone="no"?>
<!DOCTYPE svg PUBLIC "-//W3C//DTD SVG 1.1//EN"
 "http://www.w3.org/Graphics/SVG/1.1/DTD/svg11.dtd">
<!-- Generated by graphviz version 2.38.0 (20140413.2041)
 -->
<!-- Title: tomographer/histogram.h Pages: 1 -->
<svg width="1694pt" height="267pt"
 viewBox="0.00 0.00 1694.14 267.00" xmlns="http://www.w3.org/2000/svg" xmlns:xlink="http://www.w3.org/1999/xlink">
<g id="graph0" class="graph" transform="scale(1 1) rotate(0) translate(4 263)">
<title>tomographer/histogram.h</title>
<!-- Node0 -->
<g id="node1" class="node"><title>Node0</title>
<polygon fill="#bfbfbf" stroke="black" points="740.754,-240.5 740.754,-258.5 868.478,-258.5 868.478,-240.5 740.754,-240.5"/>
<text text-anchor="middle" x="804.616" y="-246.5" font-family="Helvetica,sans-Serif" font-size="10.00">tomographer/histogram.h</text>
</g>
<!-- Node1 -->
<g id="node2" class="node"><title>Node1</title>
<polygon fill="none" stroke="#bfbfbf" points="0,-180.5 0,-198.5 43.2314,-198.5 43.2314,-180.5 0,-180.5"/>
<text text-anchor="middle" x="21.6157" y="-186.5" font-family="Helvetica,sans-Serif" font-size="10.00">cmath</text>
</g>
<!-- Node0&#45;&gt;Node1 -->
<g id="edge1" class="edge"><title>Node0&#45;&gt;Node1</title>
<path fill="none" stroke="midnightblue" d="M740.719,-247.143C584.63,-243.435 187.244,-231.512 57.6157,-204 54.9529,-203.435 52.2249,-202.707 49.52,-201.883"/>
<polygon fill="midnightblue" stroke="midnightblue" points="50.5778,-198.546 39.983,-198.594 48.2957,-205.163 50.5778,-198.546"/>
</g>
<!-- Node2 -->
<g id="node3" class="node"><title>Node2</title>
<polygon fill="none" stroke="#bfbfbf" points="452.443,-0.5 452.443,-18.5 496.788,-18.5 496.788,-0.5 452.443,-0.5"/>
<text text-anchor="middle" x="474.616" y="-6.5" font-family="Helvetica,sans-Serif" font-size="10.00">cstdlib</text>
</g>
<!-- Node0&#45;&gt;Node2 -->
<g id="edge2" class="edge"><title>Node0&#45;&gt;Node2</title>
<path fill="none" stroke="midnightblue" d="M740.709,-247.55C586.875,-244.778 205.074,-234.841 156.616,-204 122.35,-182.192 101.003,-155.569 120.616,-120 146.754,-72.5977 173.132,-74.5347 223.616,-55 298.44,-26.0463 393.164,-15.784 442.079,-12.2601"/>
<polygon fill="midnightblue" stroke="midnightblue" points="442.619,-15.7318 452.363,-11.571 442.151,-8.74747 442.619,-15.7318"/>
</g>
<!-- Node3 -->
<g id="node4" class="node"><title>Node3</title>
<polygon fill="none" stroke="#bfbfbf" points="137.224,-120.5 137.224,-138.5 176.007,-138.5 176.007,-120.5 137.224,-120.5"/>
<text text-anchor="middle" x="156.616" y="-126.5" font-family="Helvetica,sans-Serif" font-size="10.00">utility</text>
</g>
<!-- Node0&#45;&gt;Node3 -->
<g id="edge3" class="edge"><title>Node0&#45;&gt;Node3</title>
<path fill="none" stroke="midnightblue" d="M740.56,-248.705C648.314,-247.612 473.354,-240.332 329.616,-204 273.992,-189.94 213.174,-160.526 180.531,-143.478"/>
<polygon fill="midnightblue" stroke="midnightblue" points="181.818,-140.199 171.342,-138.615 178.544,-146.386 181.818,-140.199"/>
</g>
<!-- Node4 -->
<g id="node5" class="node"><title>Node4</title>
<polygon fill="none" stroke="#bfbfbf" points="232.443,-60.5 232.443,-78.5 286.788,-78.5 286.788,-60.5 232.443,-60.5"/>
<text text-anchor="middle" x="259.616" y="-66.5" font-family="Helvetica,sans-Serif" font-size="10.00">iostream</text>
</g>
<!-- Node0&#45;&gt;Node4 -->
<g id="edge4" class="edge"><title>Node0&#45;&gt;Node4</title>
<path fill="none" stroke="midnightblue" d="M740.73,-246.899C613.955,-243.154 334.943,-231.931 243.616,-204 187.472,-186.829 158.203,-189.71 128.616,-139 105.89,-100.05 176.075,-82.2973 222.335,-74.9934"/>
<polygon fill="midnightblue" stroke="midnightblue" points="222.989,-78.4349 232.37,-73.5108 221.966,-71.51 222.989,-78.4349"/>
</g>
<!-- Node5 -->
<g id="node6" class="node"><title>Node5</title>
<polygon fill="none" stroke="#bfbfbf" points="194.106,-120.5 194.106,-138.5 245.125,-138.5 245.125,-120.5 194.106,-120.5"/>
<text text-anchor="middle" x="219.616" y="-126.5" font-family="Helvetica,sans-Serif" font-size="10.00">iomanip</text>
</g>
<!-- Node0&#45;&gt;Node5 -->
<g id="edge5" class="edge"><title>Node0&#45;&gt;Node5</title>
<path fill="none" stroke="midnightblue" d="M740.649,-245.458C664.504,-240.819 533.904,-229.637 424.616,-204 359.232,-188.662 285.888,-159.223 247.108,-142.636"/>
<polygon fill="midnightblue" stroke="midnightblue" points="248.138,-139.268 237.57,-138.516 245.362,-145.694 248.138,-139.268"/>
</g>
<!-- Node6 -->
<g id="node7" class="node"><title>Node6</title>
<polygon fill="none" stroke="#bfbfbf" points="606.835,-120.5 606.835,-138.5 658.396,-138.5 658.396,-120.5 606.835,-120.5"/>
<text text-anchor="middle" x="632.616" y="-126.5" font-family="Helvetica,sans-Serif" font-size="10.00">sstream</text>
</g>
<!-- Node0&#45;&gt;Node6 -->
<g id="edge6" class="edge"><title>Node0&#45;&gt;Node6</title>
<path fill="none" stroke="midnightblue" d="M792.793,-240.389C763.827,-220.517 689.041,-169.211 652.841,-144.376"/>
<polygon fill="midnightblue" stroke="midnightblue" points="654.747,-141.438 644.521,-138.667 650.787,-147.211 654.747,-141.438"/>
</g>
<!-- Node7 -->
<g id="node8" class="node"><title>Node7</title>
<polygon fill="none" stroke="#bfbfbf" points="1109.21,-60.5 1109.21,-78.5 1168.02,-78.5 1168.02,-60.5 1109.21,-60.5"/>
<text text-anchor="middle" x="1138.62" y="-66.5" font-family="Helvetica,sans-Serif" font-size="10.00">stdexcept</text>
</g>
<!-- Node0&#45;&gt;Node7 -->
<g id="edge7" class="edge"><title>Node0&#45;&gt;Node7</title>
<path fill="none" stroke="midnightblue" d="M868.582,-243.686C919.536,-238.278 991.964,-227.029 1051.62,-204 1102.47,-184.369 1129.19,-186.675 1155.62,-139 1164.59,-122.804 1157.05,-101.858 1149.36,-87.4148"/>
<polygon fill="midnightblue" stroke="midnightblue" points="1152.27,-85.4678 1144.21,-78.5927 1146.23,-88.9943 1152.27,-85.4678"/>
</g>
<!-- Node8 -->
<g id="node9" class="node"><title>Node8</title>
<polygon fill="none" stroke="#bfbfbf" points="1269.55,-60.5 1269.55,-78.5 1331.68,-78.5 1331.68,-60.5 1269.55,-60.5"/>
<text text-anchor="middle" x="1300.62" y="-66.5" font-family="Helvetica,sans-Serif" font-size="10.00">type_traits</text>
</g>
<!-- Node0&#45;&gt;Node8 -->
<g id="edge8" class="edge"><title>Node0&#45;&gt;Node8</title>
<path fill="none" stroke="midnightblue" d="M868.51,-243.977C950.602,-237.466 1088.07,-223.991 1134.62,-204 1199.87,-175.972 1260.64,-114.868 1286.93,-86.0859"/>
<polygon fill="midnightblue" stroke="midnightblue" points="1289.6,-88.3493 1293.68,-78.5702 1284.39,-83.6725 1289.6,-88.3493"/>
</g>
<!-- Node9 -->
<g id="node10" class="node"><title>Node9</title>
<polygon fill="none" stroke="#bfbfbf" points="1500.05,-180.5 1500.05,-198.5 1557.18,-198.5 1557.18,-180.5 1500.05,-180.5"/>
<text text-anchor="middle" x="1528.62" y="-186.5" font-family="Helvetica,sans-Serif" font-size="10.00">algorithm</text>
</g>
<!-- Node0&#45;&gt;Node9 -->
<g id="edge9" class="edge"><title>Node0&#45;&gt;Node9</title>
<path fill="none" stroke="midnightblue" d="M868.746,-246.678C1015.82,-242.121 1373.78,-228.781 1491.62,-204 1494.44,-203.406 1497.34,-202.642 1500.21,-201.779"/>
<polygon fill="midnightblue" stroke="midnightblue" points="1501.36,-205.083 1509.72,-198.57 1499.12,-198.451 1501.36,-205.083"/>
</g>
<!-- Node10 -->
<g id="node11" class="node"><title>Node10</title>
<polygon fill="none" stroke="#bfbfbf" points="1575.09,-175.5 1575.09,-203.5 1686.14,-203.5 1686.14,-175.5 1575.09,-175.5"/>
<text text-anchor="start" x="1583.09" y="-191.5" font-family="Helvetica,sans-Serif" font-size="10.00">boost/math/constants</text>
<text text-anchor="middle" x="1630.62" y="-181.5" font-family="Helvetica,sans-Serif" font-size="10.00">/constants.hpp</text>
</g>
<!-- Node0&#45;&gt;Node10 -->
<g id="edge10" class="edge"><title>Node0&#45;&gt;Node10</title>
<path fill="none" stroke="midnightblue" d="M868.647,-247.986C998.394,-246.246 1301.68,-238.624 1564.73,-204.12"/>
<polygon fill="midnightblue" stroke="midnightblue" points="1565.4,-207.561 1574.85,-202.775 1564.48,-200.622 1565.4,-207.561"/>
</g>
<!-- Node11 -->
<g id="node12" class="node"><title>Node11</title>
<polygon fill="none" stroke="#bfbfbf" points="1185.6,-60.5 1185.6,-78.5 1251.63,-78.5 1251.63,-60.5 1185.6,-60.5"/>
<text text-anchor="middle" x="1218.62" y="-66.5" font-family="Helvetica,sans-Serif" font-size="10.00">Eigen/Core</text>
</g>
<!-- Node0&#45;&gt;Node11 -->
<g id="edge11" class="edge"><title>Node0&#45;&gt;Node11</title>
<path fill="none" stroke="midnightblue" d="M868.8,-243.345C943.468,-236.575 1061.62,-223.247 1101.62,-204 1154.26,-178.664 1193.09,-117.646 1209.7,-87.6847"/>
<polygon fill="midnightblue" stroke="midnightblue" points="1212.82,-89.2763 1214.47,-78.8108 1206.66,-85.9627 1212.82,-89.2763"/>
</g>
<!-- Node12 -->
<g id="node13" class="node"><title>Node12</title>
<g id="a_node13"><a xlink:href="fmt_8h.html" target="_top" xlink:title="Utilities for formatting strings. ">
<polygon fill="none" stroke="black" points="433.813,-180.5 433.813,-198.5 555.418,-198.5 555.418,-180.5 433.813,-180.5"/>
<text text-anchor="middle" x="494.616" y="-186.5" font-family="Helvetica,sans-Serif" font-size="10.00">tomographer/tools/fmt.h</text>
</a>
</g>
</g>
<!-- Node0&#45;&gt;Node12 -->
<g id="edge12" class="edge"><title>Node0&#45;&gt;Node12</title>
<path fill="none" stroke="midnightblue" d="M761.837,-240.496C705.941,-230.038 608.077,-211.728 547.565,-200.407"/>
<polygon fill="midnightblue" stroke="midnightblue" points="547.926,-196.914 537.453,-198.515 546.639,-203.794 547.926,-196.914"/>
</g>
<!-- Node19 -->
<g id="node20" class="node"><title>Node19</title>
<g id="a_node20"><a xlink:href="cxxutil_8h.html" target="_top" xlink:title="Some C++ utilities, with a tad of C++11 tricks. ">
<polygon fill="none" stroke="black" points="736.865,-120.5 736.865,-138.5 872.367,-138.5 872.367,-120.5 736.865,-120.5"/>
<text text-anchor="middle" x="804.616" y="-126.5" font-family="Helvetica,sans-Serif" font-size="10.00">tomographer/tools/cxxutil.h</text>
</a>
</g>
</g>
<!-- Node0&#45;&gt;Node19 -->
<g id="edge48" class="edge"><title>Node0&#45;&gt;Node19</title>
<path fill="none" stroke="midnightblue" d="M804.616,-240.389C804.616,-221.611 804.616,-174.768 804.616,-148.711"/>
<polygon fill="midnightblue" stroke="midnightblue" points="808.116,-148.667 804.616,-138.667 801.116,-148.667 808.116,-148.667"/>
</g>
<!-- Node29 -->
<g id="node30" class="node"><title>Node29</title>
<g id="a_node30"><a xlink:href="eigenutil_8h.html" target="_top" xlink:title="Basic utilities for dealing with Eigen matrices and other types. ">
<polygon fill="none" stroke="black" points="898.131,-180.5 898.131,-198.5 1043.1,-198.5 1043.1,-180.5 898.131,-180.5"/>
<text text-anchor="middle" x="970.616" y="-186.5" font-family="Helvetica,sans-Serif" font-size="10.00">tomographer/tools/eigenutil.h</text>
</a>
</g>
</g>
<!-- Node0&#45;&gt;Node29 -->
<g id="edge42" class="edge"><title>Node0&#45;&gt;Node29</title>
<path fill="none" stroke="midnightblue" d="M827.697,-240.435C856.358,-230.421 905.429,-213.276 937.945,-201.915"/>
<polygon fill="midnightblue" stroke="midnightblue" points="939.177,-205.192 947.463,-198.589 936.868,-198.584 939.177,-205.192"/>
</g>
<!-- Node32 -->
<g id="node33" class="node"><title>Node32</title>
<g id="a_node33"><a xlink:href="needownoperatornew_8h.html" target="_top" xlink:title="Managing the need for specific overrides to operator new() for some types (especially Eigen types) ...">
<polygon fill="none" stroke="black" points="1278.94,-180.5 1278.94,-198.5 1482.29,-198.5 1482.29,-180.5 1278.94,-180.5"/>
<text text-anchor="middle" x="1380.62" y="-186.5" font-family="Helvetica,sans-Serif" font-size="10.00">tomographer/tools/needownoperatornew.h</text>
</a>
</g>
</g>
<!-- Node0&#45;&gt;Node32 -->
<g id="edge49" class="edge"><title>Node0&#45;&gt;Node32</title>
<path fill="none" stroke="midnightblue" d="M868.653,-242.701C957.56,-234.559 1123.4,-219.046 1264.62,-204 1277.18,-202.661 1290.51,-201.174 1303.48,-199.69"/>
<polygon fill="midnightblue" stroke="midnightblue" points="1304.25,-203.124 1313.78,-198.503 1303.44,-196.17 1304.25,-203.124"/>
</g>
<!-- Node12&#45;&gt;Node3 -->
<g id="edge19" class="edge"><title>Node12&#45;&gt;Node3</title>
<path fill="none" stroke="midnightblue" d="M433.554,-181.251C372.899,-173.488 277.145,-159.72 186.044,-139.072"/>
<polygon fill="midnightblue" stroke="midnightblue" points="186.636,-135.617 176.106,-136.788 185.068,-142.439 186.636,-135.617"/>
</g>
<!-- Node12&#45;&gt;Node4 -->
<g id="edge18" class="edge"><title>Node12&#45;&gt;Node4</title>
<path fill="none" stroke="midnightblue" d="M512.27,-180.48C537.652,-167.894 579.345,-142.602 559.616,-120 520.679,-75.3936 353.026,-98.4851 295.616,-84 293.268,-83.4075 290.862,-82.7118 288.462,-81.9541"/>
<polygon fill="midnightblue" stroke="midnightblue" points="289.388,-78.5707 278.794,-78.5952 287.091,-85.1831 289.388,-78.5707"/>
</g>
<!-- Node12&#45;&gt;Node5 -->
<g id="edge21" class="edge"><title>Node12&#45;&gt;Node5</title>
<path fill="none" stroke="midnightblue" d="M453.328,-180.439C407.492,-171.389 331.07,-156.003 255.392,-139.108"/>
<polygon fill="midnightblue" stroke="midnightblue" points="255.729,-135.597 245.206,-136.824 254.198,-142.427 255.729,-135.597"/>
</g>
<!-- Node12&#45;&gt;Node6 -->
<g id="edge17" class="edge"><title>Node12&#45;&gt;Node6</title>
<path fill="none" stroke="midnightblue" d="M513.804,-180.435C537.154,-170.622 576.799,-153.959 603.817,-142.604"/>
<polygon fill="midnightblue" stroke="midnightblue" points="605.283,-145.784 613.146,-138.683 602.57,-139.331 605.283,-145.784"/>
</g>
<!-- Node13 -->
<g id="node14" class="node"><title>Node13</title>
<polygon fill="none" stroke="#bfbfbf" points="339.554,-120.5 339.554,-138.5 381.677,-138.5 381.677,-120.5 339.554,-120.5"/>
<text text-anchor="middle" x="360.616" y="-126.5" font-family="Helvetica,sans-Serif" font-size="10.00">cstdio</text>
</g>
<!-- Node12&#45;&gt;Node13 -->
<g id="edge13" class="edge"><title>Node12&#45;&gt;Node13</title>
<path fill="none" stroke="midnightblue" d="M475.984,-180.435C453.41,-170.665 415.152,-154.105 388.926,-142.754"/>
<polygon fill="midnightblue" stroke="midnightblue" points="390.089,-139.443 379.522,-138.683 387.309,-145.867 390.089,-139.443"/>
</g>
<!-- Node14 -->
<g id="node15" class="node"><title>Node14</title>
<polygon fill="none" stroke="#bfbfbf" points="437.219,-120.5 437.219,-138.5 486.012,-138.5 486.012,-120.5 437.219,-120.5"/>
<text text-anchor="middle" x="461.616" y="-126.5" font-family="Helvetica,sans-Serif" font-size="10.00">cstdarg</text>
</g>
<!-- Node12&#45;&gt;Node14 -->
<g id="edge14" class="edge"><title>Node12&#45;&gt;Node14</title>
<path fill="none" stroke="midnightblue" d="M490.027,-180.435C485.254,-172.047 477.634,-158.654 471.487,-147.849"/>
<polygon fill="midnightblue" stroke="midnightblue" points="474.366,-145.833 466.379,-138.872 468.282,-149.294 474.366,-145.833"/>
</g>
<!-- Node15 -->
<g id="node16" class="node"><title>Node15</title>
<polygon fill="none" stroke="#bfbfbf" points="504.328,-120.5 504.328,-138.5 550.904,-138.5 550.904,-120.5 504.328,-120.5"/>
<text text-anchor="middle" x="527.616" y="-126.5" font-family="Helvetica,sans-Serif" font-size="10.00">chrono</text>
</g>
<!-- Node12&#45;&gt;Node15 -->
<g id="edge15" class="edge"><title>Node12&#45;&gt;Node15</title>
<path fill="none" stroke="midnightblue" d="M499.204,-180.435C503.977,-172.047 511.597,-158.654 517.745,-147.849"/>
<polygon fill="midnightblue" stroke="midnightblue" points="520.949,-149.294 522.852,-138.872 514.865,-145.833 520.949,-149.294"/>
</g>
<!-- Node16 -->
<g id="node17" class="node"><title>Node16</title>
<polygon fill="none" stroke="#bfbfbf" points="270.389,-0.5 270.389,-18.5 310.842,-18.5 310.842,-0.5 270.389,-0.5"/>
<text text-anchor="middle" x="290.616" y="-6.5" font-family="Helvetica,sans-Serif" font-size="10.00">string</text>
</g>
<!-- Node12&#45;&gt;Node16 -->
<g id="edge16" class="edge"><title>Node12&#45;&gt;Node16</title>
<path fill="none" stroke="midnightblue" d="M484.995,-180.359C467.434,-165.93 428.493,-135.897 390.616,-120 320.605,-90.6161 271.313,-143.075 223.616,-84 215.519,-73.9718 217.524,-66.3586 223.616,-55 231.552,-40.2022 246.815,-29.4876 260.771,-22.2853"/>
<polygon fill="midnightblue" stroke="midnightblue" points="262.582,-25.3002 270.119,-17.8532 259.583,-18.9752 262.582,-25.3002"/>
</g>
<!-- Node17 -->
<g id="node18" class="node"><title>Node17</title>
<polygon fill="none" stroke="#bfbfbf" points="676,-120.5 676,-138.5 719.231,-138.5 719.231,-120.5 676,-120.5"/>
<text text-anchor="middle" x="697.616" y="-126.5" font-family="Helvetica,sans-Serif" font-size="10.00">vector</text>
</g>
<!-- Node12&#45;&gt;Node17 -->
<g id="edge20" class="edge"><title>Node12&#45;&gt;Node17</title>
<path fill="none" stroke="midnightblue" d="M522.842,-180.435C560.444,-169.692 626.776,-150.74 666.013,-139.529"/>
<polygon fill="midnightblue" stroke="midnightblue" points="667.189,-142.833 675.843,-136.721 665.266,-136.103 667.189,-142.833"/>
</g>
<!-- Node18 -->
<g id="node19" class="node"><title>Node18</title>
<polygon fill="none" stroke="#bfbfbf" points="263.212,-120.5 263.212,-138.5 322.02,-138.5 322.02,-120.5 263.212,-120.5"/>
<text text-anchor="middle" x="292.616" y="-126.5" font-family="Helvetica,sans-Serif" font-size="10.00">functional</text>
</g>
<!-- Node12&#45;&gt;Node18 -->
<g id="edge22" class="edge"><title>Node12&#45;&gt;Node18</title>
<path fill="none" stroke="midnightblue" d="M466.528,-180.435C431.126,-170.27 370.132,-152.757 330.595,-141.405"/>
<polygon fill="midnightblue" stroke="midnightblue" points="331.367,-137.985 320.789,-138.589 329.435,-144.713 331.367,-137.985"/>
</g>
<!-- Node12&#45;&gt;Node19 -->
<g id="edge23" class="edge"><title>Node12&#45;&gt;Node19</title>
<path fill="none" stroke="midnightblue" d="M537.394,-180.496C593.291,-170.038 691.154,-151.728 751.667,-140.407"/>
<polygon fill="midnightblue" stroke="midnightblue" points="752.593,-143.794 761.779,-138.515 751.305,-136.914 752.593,-143.794"/>
</g>
<!-- Node19&#45;&gt;Node2 -->
<g id="edge26" class="edge"><title>Node19&#45;&gt;Node2</title>
<path fill="none" stroke="midnightblue" d="M736.614,-120.701C647.837,-110.24 502.608,-92.0473 493.616,-84 478.294,-70.2891 474.59,-45.995 474.035,-29.1074"/>
<polygon fill="midnightblue" stroke="midnightblue" points="477.535,-28.8252 474.049,-18.8203 470.535,-28.8155 477.535,-28.8252"/>
</g>
<!-- Node19&#45;&gt;Node4 -->
<g id="edge27" class="edge"><title>Node19&#45;&gt;Node4</title>
<path fill="none" stroke="midnightblue" d="M736.673,-120.804C733.952,-120.527 731.259,-120.258 728.616,-120 536.418,-101.266 484.033,-126.304 295.616,-84 292.96,-83.4037 290.236,-82.6547 287.534,-81.8169"/>
<polygon fill="midnightblue" stroke="midnightblue" points="288.597,-78.4809 278.002,-78.5075 286.301,-85.0937 288.597,-78.4809"/>
</g>
<!-- Node19&#45;&gt;Node7 -->
<g id="edge31" class="edge"><title>Node19&#45;&gt;Node7</title>
<path fill="none" stroke="midnightblue" d="M867.555,-120.482C940.954,-110.878 1057.7,-94.7422 1100.62,-84 1103.26,-83.3375 1105.98,-82.5638 1108.7,-81.7283"/>
<polygon fill="midnightblue" stroke="midnightblue" points="1109.95,-85.0009 1118.33,-78.5187 1107.73,-78.3599 1109.95,-85.0009"/>
</g>
<!-- Node19&#45;&gt;Node8 -->
<g id="edge29" class="edge"><title>Node19&#45;&gt;Node8</title>
<path fill="none" stroke="midnightblue" d="M872.63,-120.935C875.666,-120.615 878.672,-120.302 881.616,-120 1049.93,-102.717 1095.13,-119.288 1260.62,-84 1263.67,-83.3484 1266.82,-82.5396 1269.94,-81.6439"/>
<polygon fill="midnightblue" stroke="midnightblue" points="1271.21,-84.9145 1279.7,-78.5731 1269.11,-78.2375 1271.21,-84.9145"/>
</g>
<!-- Node19&#45;&gt;Node11 -->
<g id="edge41" class="edge"><title>Node19&#45;&gt;Node11</title>
<path fill="none" stroke="midnightblue" d="M872.452,-120.726C975.714,-108.843 1161.98,-87.1964 1176.62,-84 1179.83,-83.2973 1183.15,-82.4497 1186.45,-81.5259"/>
<polygon fill="midnightblue" stroke="midnightblue" points="1187.6,-84.8354 1196.16,-78.5937 1185.58,-78.1343 1187.6,-84.8354"/>
</g>
<!-- Node20 -->
<g id="node21" class="node"><title>Node20</title>
<polygon fill="none" stroke="#bfbfbf" points="976.5,-0.5 976.5,-18.5 1024.73,-18.5 1024.73,-0.5 976.5,-0.5"/>
<text text-anchor="middle" x="1000.62" y="-6.5" font-family="Helvetica,sans-Serif" font-size="10.00">cassert</text>
</g>
<!-- Node19&#45;&gt;Node20 -->
<g id="edge24" class="edge"><title>Node19&#45;&gt;Node20</title>
<path fill="none" stroke="midnightblue" d="M872.031,-120.432C918.515,-113.424 974.685,-101.602 990.616,-84 1004.1,-69.1049 1004.86,-45.0699 1003.4,-28.5653"/>
<polygon fill="midnightblue" stroke="midnightblue" points="1006.86,-28.0427 1002.16,-18.547 999.916,-28.9006 1006.86,-28.0427"/>
</g>
<!-- Node21 -->
<g id="node22" class="node"><title>Node21</title>
<polygon fill="none" stroke="#bfbfbf" points="795.495,-0.5 795.495,-18.5 843.736,-18.5 843.736,-0.5 795.495,-0.5"/>
<text text-anchor="middle" x="819.616" y="-6.5" font-family="Helvetica,sans-Serif" font-size="10.00">cstddef</text>
</g>
<!-- Node19&#45;&gt;Node21 -->
<g id="edge25" class="edge"><title>Node19&#45;&gt;Node21</title>
<path fill="none" stroke="midnightblue" d="M805.647,-120.389C808.034,-101.611 813.988,-54.7676 817.301,-28.7111"/>
<polygon fill="midnightblue" stroke="midnightblue" points="820.788,-29.0289 818.577,-18.6674 813.844,-28.1462 820.788,-29.0289"/>
</g>
<!-- Node22 -->
<g id="node23" class="node"><title>Node22</title>
<polygon fill="none" stroke="#bfbfbf" points="1038,-60.5 1038,-78.5 1091.23,-78.5 1091.23,-60.5 1038,-60.5"/>
<text text-anchor="middle" x="1064.62" y="-66.5" font-family="Helvetica,sans-Serif" font-size="10.00">complex</text>
</g>
<!-- Node19&#45;&gt;Node22 -->
<g id="edge28" class="edge"><title>Node19&#45;&gt;Node22</title>
<path fill="none" stroke="midnightblue" d="M852.409,-120.462C897.028,-112.563 965.302,-99.4677 1023.62,-84 1026.4,-83.2615 1029.27,-82.4404 1032.14,-81.5782"/>
<polygon fill="midnightblue" stroke="midnightblue" points="1033.28,-84.8886 1041.77,-78.5485 1031.18,-78.2113 1033.28,-84.8886"/>
</g>
<!-- Node23 -->
<g id="node24" class="node"><title>Node23</title>
<polygon fill="none" stroke="#bfbfbf" points="502.212,-60.5 502.212,-78.5 561.02,-78.5 561.02,-60.5 502.212,-60.5"/>
<text text-anchor="middle" x="531.616" y="-66.5" font-family="Helvetica,sans-Serif" font-size="10.00">exception</text>
</g>
<!-- Node19&#45;&gt;Node23 -->
<g id="edge30" class="edge"><title>Node19&#45;&gt;Node23</title>
<path fill="none" stroke="midnightblue" d="M750.207,-120.453C702.457,-112.846 631.35,-100.195 570.616,-84 568.132,-83.3377 565.579,-82.596 563.024,-81.81"/>
<polygon fill="midnightblue" stroke="midnightblue" points="563.9,-78.4141 553.307,-78.6341 561.725,-85.0677 563.9,-78.4141"/>
</g>
<!-- Node24 -->
<g id="node25" class="node"><title>Node24</title>
<g id="a_node25"><a xlink:href="cxxdefs_8h.html" target="_top" xlink:title="Basic definitions, which may have to be defined before any Eigen headers or further utilities are inc...">
<polygon fill="none" stroke="black" points="839.806,-60.5 839.806,-78.5 981.426,-78.5 981.426,-60.5 839.806,-60.5"/>
<text text-anchor="middle" x="910.616" y="-66.5" font-family="Helvetica,sans-Serif" font-size="10.00">tomographer/tools/cxxdefs.h</text>
</a>
</g>
</g>
<!-- Node19&#45;&gt;Node24 -->
<g id="edge32" class="edge"><title>Node19&#45;&gt;Node24</title>
<path fill="none" stroke="midnightblue" d="M819.355,-120.435C836.818,-110.88 866.148,-94.8315 886.836,-83.5113"/>
<polygon fill="midnightblue" stroke="midnightblue" points="888.568,-86.5537 895.66,-78.6831 885.208,-80.4129 888.568,-86.5537"/>
</g>
<!-- Node26 -->
<g id="node27" class="node"><title>Node26</title>
<g id="a_node27"><a xlink:href="conststr_8h.html" target="_top" xlink:title="A constexpr string type, suitable for basic compile&#45;time string processing. ">
<polygon fill="none" stroke="black" points="304.525,-60.5 304.525,-78.5 446.707,-78.5 446.707,-60.5 304.525,-60.5"/>
<text text-anchor="middle" x="375.616" y="-66.5" font-family="Helvetica,sans-Serif" font-size="10.00">tomographer/tools/conststr.h</text>
</a>
</g>
</g>
<!-- Node19&#45;&gt;Node26 -->
<g id="edge37" class="edge"><title>Node19&#45;&gt;Node26</title>
<path fill="none" stroke="midnightblue" d="M738.27,-120.494C668.936,-111.992 557.026,-97.889 460.616,-84 452.218,-82.7902 443.364,-81.453 434.669,-80.1043"/>
<polygon fill="midnightblue" stroke="midnightblue" points="434.993,-76.6125 424.572,-78.5228 433.91,-83.5282 434.993,-76.6125"/>
</g>
<!-- Node27 -->
<g id="node28" class="node"><title>Node27</title>
<polygon fill="none" stroke="#bfbfbf" points="579.146,-60.5 579.146,-78.5 674.086,-78.5 674.086,-60.5 579.146,-60.5"/>
<text text-anchor="middle" x="626.616" y="-66.5" font-family="Helvetica,sans-Serif" font-size="10.00">boost/version.hpp</text>
</g>
<!-- Node19&#45;&gt;Node27 -->
<g id="edge39" class="edge"><title>Node19&#45;&gt;Node27</title>
<path fill="none" stroke="midnightblue" d="M779.866,-120.435C749,-110.378 696.06,-93.128 661.199,-81.7686"/>
<polygon fill="midnightblue" stroke="midnightblue" points="662.034,-78.3598 651.442,-78.5894 659.866,-85.0154 662.034,-78.3598"/>
</g>
<!-- Node28 -->
<g id="node29" class="node"><title>Node28</title>
<polygon fill="none" stroke="#bfbfbf" points="692.091,-55.5 692.091,-83.5 783.14,-83.5 783.14,-55.5 692.091,-55.5"/>
<text text-anchor="start" x="700.091" y="-71.5" font-family="Helvetica,sans-Serif" font-size="10.00">boost/units/detail</text>
<text text-anchor="middle" x="737.616" y="-61.5" font-family="Helvetica,sans-Serif" font-size="10.00">/utility.hpp</text>
</g>
<!-- Node19&#45;&gt;Node28 -->
<g id="edge40" class="edge"><title>Node19&#45;&gt;Node28</title>
<path fill="none" stroke="midnightblue" d="M795.3,-120.435C786.36,-112.697 772.5,-100.699 760.607,-90.4029"/>
<polygon fill="midnightblue" stroke="midnightblue" points="762.623,-87.5191 752.772,-83.6203 758.042,-92.8116 762.623,-87.5191"/>
</g>
<!-- Node24&#45;&gt;Node2 -->
<g id="edge35" class="edge"><title>Node24&#45;&gt;Node2</title>
<path fill="none" stroke="midnightblue" d="M850.45,-60.4962C756.934,-48.0561 579.901,-24.5059 507.116,-14.8234"/>
<polygon fill="midnightblue" stroke="midnightblue" points="507.53,-11.3477 497.155,-13.4984 506.607,-18.2866 507.53,-11.3477"/>
</g>
<!-- Node24&#45;&gt;Node20 -->
<g id="edge33" class="edge"><title>Node24&#45;&gt;Node20</title>
<path fill="none" stroke="midnightblue" d="M923.13,-60.4353C937.69,-51.0521 961.966,-35.4077 979.469,-24.1277"/>
<polygon fill="midnightblue" stroke="midnightblue" points="981.408,-27.0422 987.918,-18.6831 977.616,-21.1582 981.408,-27.0422"/>
</g>
<!-- Node24&#45;&gt;Node21 -->
<g id="edge34" class="edge"><title>Node24&#45;&gt;Node21</title>
<path fill="none" stroke="midnightblue" d="M897.963,-60.4353C883.241,-51.0521 858.695,-35.4077 840.997,-24.1277"/>
<polygon fill="midnightblue" stroke="midnightblue" points="842.769,-21.1064 832.455,-18.6831 839.006,-27.0094 842.769,-21.1064"/>
</g>
<!-- Node25 -->
<g id="node26" class="node"><title>Node25</title>
<polygon fill="none" stroke="#bfbfbf" points="870.648,-0.5 870.648,-18.5 950.583,-18.5 950.583,-0.5 870.648,-0.5"/>
<text text-anchor="middle" x="910.616" y="-6.5" font-family="Helvetica,sans-Serif" font-size="10.00">boost/predef.h</text>
</g>
<!-- Node24&#45;&gt;Node25 -->
<g id="edge36" class="edge"><title>Node24&#45;&gt;Node25</title>
<path fill="none" stroke="midnightblue" d="M910.616,-60.4353C910.616,-52.3891 910.616,-39.7388 910.616,-29.1846"/>
<polygon fill="midnightblue" stroke="midnightblue" points="914.116,-28.8717 910.616,-18.8718 907.116,-28.8718 914.116,-28.8717"/>
</g>
<!-- Node26&#45;&gt;Node16 -->
<g id="edge38" class="edge"><title>Node26&#45;&gt;Node16</title>
<path fill="none" stroke="midnightblue" d="M363.797,-60.4353C350.172,-51.1382 327.538,-35.6942 311.044,-24.4393"/>
<polygon fill="midnightblue" stroke="midnightblue" points="312.841,-21.4285 302.608,-18.6831 308.896,-27.2106 312.841,-21.4285"/>
</g>
<!-- Node29&#45;&gt;Node11 -->
<g id="edge45" class="edge"><title>Node29&#45;&gt;Node11</title>
<path fill="none" stroke="midnightblue" d="M979.454,-180.418C995.253,-166.35 1029.85,-137.219 1063.62,-120 1110.57,-96.0521 1126.41,-100.065 1176.62,-84 1179.04,-83.2238 1181.55,-82.4215 1184.07,-81.613"/>
<polygon fill="midnightblue" stroke="midnightblue" points="1185.29,-84.8949 1193.75,-78.5057 1183.15,-78.23 1185.29,-84.8949"/>
</g>
<!-- Node29&#45;&gt;Node17 -->
<g id="edge44" class="edge"><title>Node29&#45;&gt;Node17</title>
<path fill="none" stroke="midnightblue" d="M926.052,-180.463C879.248,-171.79 803.312,-157.068 729.453,-139.32"/>
<polygon fill="midnightblue" stroke="midnightblue" points="730.064,-135.867 719.52,-136.912 728.414,-142.67 730.064,-135.867"/>
</g>
<!-- Node29&#45;&gt;Node22 -->
<g id="edge43" class="edge"><title>Node29&#45;&gt;Node22</title>
<path fill="none" stroke="midnightblue" d="M977.077,-180.389C992.438,-161.106 1031.38,-112.227 1051.75,-86.654"/>
<polygon fill="midnightblue" stroke="midnightblue" points="1054.62,-88.6698 1058.11,-78.6674 1049.14,-84.3082 1054.62,-88.6698"/>
</g>
<!-- Node30 -->
<g id="node31" class="node"><title>Node30</title>
<polygon fill="none" stroke="#bfbfbf" points="1072.99,-120.5 1072.99,-138.5 1146.25,-138.5 1146.25,-120.5 1072.99,-120.5"/>
<text text-anchor="middle" x="1109.62" y="-126.5" font-family="Helvetica,sans-Serif" font-size="10.00">Eigen/Dense</text>
</g>
<!-- Node29&#45;&gt;Node30 -->
<g id="edge46" class="edge"><title>Node29&#45;&gt;Node30</title>
<path fill="none" stroke="midnightblue" d="M989.943,-180.435C1013.46,-170.622 1053.39,-153.959 1080.61,-142.604"/>
<polygon fill="midnightblue" stroke="midnightblue" points="1082.12,-145.764 1090,-138.683 1079.43,-139.304 1082.12,-145.764"/>
</g>
<!-- Node31 -->
<g id="node32" class="node"><title>Node31</title>
<polygon fill="none" stroke="#bfbfbf" points="890.756,-120.5 890.756,-138.5 978.475,-138.5 978.475,-120.5 890.756,-120.5"/>
<text text-anchor="middle" x="934.616" y="-126.5" font-family="Helvetica,sans-Serif" font-size="10.00">Eigen/StdVector</text>
</g>
<!-- Node29&#45;&gt;Node31 -->
<g id="edge47" class="edge"><title>Node29&#45;&gt;Node31</title>
<path fill="none" stroke="midnightblue" d="M965.61,-180.435C960.35,-171.961 951.921,-158.38 945.179,-147.519"/>
<polygon fill="midnightblue" stroke="midnightblue" points="948.059,-145.522 939.812,-138.872 942.112,-149.214 948.059,-145.522"/>
</g>
<!-- Node32&#45;&gt;Node8 -->
<g id="edge50" class="edge"><title>Node32&#45;&gt;Node8</title>
<path fill="none" stroke="midnightblue" d="M1372.15,-180.268C1362.75,-170.85 1347.48,-154.696 1336.62,-139 1325.3,-122.642 1315.03,-102.292 1308.38,-88.0395"/>
<polygon fill="midnightblue" stroke="midnightblue" points="1311.54,-86.5379 1304.22,-78.8835 1305.17,-89.4353 1311.54,-86.5379"/>
</g>
<!-- Node32&#45;&gt;Node19 -->
<g id="edge52" class="edge"><title>Node32&#45;&gt;Node19</title>
<path fill="none" stroke="midnightblue" d="M1296.71,-180.463C1199.66,-171.101 1034.78,-154.999 882.634,-139.097"/>
<polygon fill="midnightblue" stroke="midnightblue" points="882.942,-135.61 872.631,-138.05 882.213,-142.572 882.942,-135.61"/>
</g>
<!-- Node33 -->
<g id="node34" class="node"><title>Node33</title>
<polygon fill="none" stroke="#bfbfbf" points="1345.65,-120.5 1345.65,-138.5 1415.58,-138.5 1415.58,-120.5 1345.65,-120.5"/>
<text text-anchor="middle" x="1380.62" y="-126.5" font-family="Helvetica,sans-Serif" font-size="10.00">Eigen/Eigen</text>
</g>
<!-- Node32&#45;&gt;Node33 -->
<g id="edge51" class="edge"><title>Node32&#45;&gt;Node33</title>
<path fill="none" stroke="midnightblue" d="M1380.62,-180.435C1380.62,-172.389 1380.62,-159.739 1380.62,-149.185"/>
<polygon fill="midnightblue" stroke="midnightblue" points="1384.12,-148.872 1380.62,-138.872 1377.12,-148.872 1384.12,-148.872"/>
</g>
</g>
</svg>
