<?xml version="1.0" encoding="UTF-8" standalone="no"?>
<!DOCTYPE svg PUBLIC "-//W3C//DTD SVG 1.1//EN"
 "http://www.w3.org/Graphics/SVG/1.1/DTD/svg11.dtd">
<!-- Generated by graphviz version 2.38.0 (20140413.2041)
 -->
<!-- Title: tomographer/tools/loggers.h Pages: 1 -->
<svg width="1158pt" height="257pt"
 viewBox="0.00 0.00 1158.41 257.00" xmlns="http://www.w3.org/2000/svg" xmlns:xlink="http://www.w3.org/1999/xlink">
<g id="graph0" class="graph" transform="scale(1 1) rotate(0) translate(4 253)">
<title>tomographer/tools/loggers.h</title>
<!-- Node0 -->
<g id="node1" class="node"><title>Node0</title>
<polygon fill="#bfbfbf" stroke="black" points="473.984,-230.5 473.984,-248.5 614.501,-248.5 614.501,-230.5 473.984,-230.5"/>
<text text-anchor="middle" x="544.243" y="-236.5" font-family="Helvetica,sans-Serif" font-size="10.00">tomographer/tools/loggers.h</text>
</g>
<!-- Node1 -->
<g id="node2" class="node"><title>Node1</title>
<polygon fill="none" stroke="#bfbfbf" points="127.181,-120.5 127.181,-138.5 169.304,-138.5 169.304,-120.5 127.181,-120.5"/>
<text text-anchor="middle" x="148.243" y="-126.5" font-family="Helvetica,sans-Serif" font-size="10.00">cstdio</text>
</g>
<!-- Node0&#45;&gt;Node1 -->
<g id="edge1" class="edge"><title>Node0&#45;&gt;Node1</title>
<path fill="none" stroke="midnightblue" d="M499.251,-230.424C456.878,-222.453 391.79,-209.269 336.243,-194 280.07,-178.56 216.077,-155.811 179.105,-142.146"/>
<polygon fill="midnightblue" stroke="midnightblue" points="180.016,-138.75 169.423,-138.546 177.576,-145.311 180.016,-138.75"/>
</g>
<!-- Node2 -->
<g id="node3" class="node"><title>Node2</title>
<polygon fill="none" stroke="#bfbfbf" points="186.846,-120.5 186.846,-138.5 235.639,-138.5 235.639,-120.5 186.846,-120.5"/>
<text text-anchor="middle" x="211.243" y="-126.5" font-family="Helvetica,sans-Serif" font-size="10.00">cstdarg</text>
</g>
<!-- Node0&#45;&gt;Node2 -->
<g id="edge2" class="edge"><title>Node0&#45;&gt;Node2</title>
<path fill="none" stroke="midnightblue" d="M516.32,-230.453C486.491,-221.775 437.874,-207.398 396.243,-194 342.32,-176.646 280.118,-154.946 243.323,-141.932"/>
<polygon fill="midnightblue" stroke="midnightblue" points="244.242,-138.544 233.647,-138.503 241.903,-145.142 244.242,-138.544"/>
</g>
<!-- Node3 -->
<g id="node4" class="node"><title>Node3</title>
<polygon fill="none" stroke="#bfbfbf" points="144.016,-0.5 144.016,-18.5 184.469,-18.5 184.469,-0.5 144.016,-0.5"/>
<text text-anchor="middle" x="164.243" y="-6.5" font-family="Helvetica,sans-Serif" font-size="10.00">string</text>
</g>
<!-- Node0&#45;&gt;Node3 -->
<g id="edge3" class="edge"><title>Node0&#45;&gt;Node3</title>
<path fill="none" stroke="midnightblue" d="M473.924,-235.669C373.936,-230.824 196.248,-218.945 137.243,-194 66.5881,-164.131 36.9078,-153.406 4.24258,-84 -20.6008,-31.2135 80.5246,-16.2825 133.603,-12.1017"/>
<polygon fill="midnightblue" stroke="midnightblue" points="134.103,-15.5752 143.833,-11.3818 133.612,-8.59251 134.103,-15.5752"/>
</g>
<!-- Node4 -->
<g id="node5" class="node"><title>Node4</title>
<polygon fill="none" stroke="#bfbfbf" points="734.462,-120.5 734.462,-138.5 786.023,-138.5 786.023,-120.5 734.462,-120.5"/>
<text text-anchor="middle" x="760.243" y="-126.5" font-family="Helvetica,sans-Serif" font-size="10.00">sstream</text>
</g>
<!-- Node0&#45;&gt;Node4 -->
<g id="edge4" class="edge"><title>Node0&#45;&gt;Node4</title>
<path fill="none" stroke="midnightblue" d="M560.478,-230.382C597.862,-211.69 690.245,-165.499 735.058,-143.092"/>
<polygon fill="midnightblue" stroke="midnightblue" points="736.735,-146.167 744.114,-138.564 733.604,-139.906 736.735,-146.167"/>
</g>
<!-- Node5 -->
<g id="node6" class="node"><title>Node5</title>
<polygon fill="none" stroke="#bfbfbf" points="1096.07,-60.5 1096.07,-78.5 1150.41,-78.5 1150.41,-60.5 1096.07,-60.5"/>
<text text-anchor="middle" x="1123.24" y="-66.5" font-family="Helvetica,sans-Serif" font-size="10.00">iostream</text>
</g>
<!-- Node0&#45;&gt;Node5 -->
<g id="edge5" class="edge"><title>Node0&#45;&gt;Node5</title>
<path fill="none" stroke="midnightblue" d="M597.743,-230.469C644.691,-222.873 714.591,-210.228 774.243,-194 895.599,-160.986 1035.34,-106.285 1094.46,-82.34"/>
<polygon fill="midnightblue" stroke="midnightblue" points="1095.94,-85.5135 1103.89,-78.5032 1093.31,-79.0296 1095.94,-85.5135"/>
</g>
<!-- Node6 -->
<g id="node7" class="node"><title>Node6</title>
<polygon fill="none" stroke="#bfbfbf" points="803.839,-120.5 803.839,-138.5 862.646,-138.5 862.646,-120.5 803.839,-120.5"/>
<text text-anchor="middle" x="833.243" y="-126.5" font-family="Helvetica,sans-Serif" font-size="10.00">functional</text>
</g>
<!-- Node0&#45;&gt;Node6 -->
<g id="edge6" class="edge"><title>Node0&#45;&gt;Node6</title>
<path fill="none" stroke="midnightblue" d="M566.762,-230.39C591.27,-221.539 631.593,-206.906 666.243,-194 714.054,-176.191 769.368,-155.053 802.806,-142.215"/>
<polygon fill="midnightblue" stroke="midnightblue" points="804.369,-145.364 812.449,-138.511 801.859,-138.83 804.369,-145.364"/>
</g>
<!-- Node7 -->
<g id="node8" class="node"><title>Node7</title>
<polygon fill="none" stroke="#bfbfbf" points="13.1762,-60.5 13.1762,-78.5 75.309,-78.5 75.309,-60.5 13.1762,-60.5"/>
<text text-anchor="middle" x="44.2426" y="-66.5" font-family="Helvetica,sans-Serif" font-size="10.00">type_traits</text>
</g>
<!-- Node0&#45;&gt;Node7 -->
<g id="edge7" class="edge"><title>Node0&#45;&gt;Node7</title>
<path fill="none" stroke="midnightblue" d="M473.693,-234.901C381.692,-229.374 226.349,-216.945 174.243,-194 120.745,-170.442 75.7865,-114.999 55.6223,-87.1204"/>
<polygon fill="midnightblue" stroke="midnightblue" points="58.3828,-84.9618 49.758,-78.8084 52.663,-88.9972 58.3828,-84.9618"/>
</g>
<!-- Node8 -->
<g id="node9" class="node"><title>Node8</title>
<polygon fill="none" stroke="#bfbfbf" points="956.516,-175.5 956.516,-193.5 991.969,-193.5 991.969,-175.5 956.516,-175.5"/>
<text text-anchor="middle" x="974.243" y="-181.5" font-family="Helvetica,sans-Serif" font-size="10.00">map</text>
</g>
<!-- Node0&#45;&gt;Node8 -->
<g id="edge8" class="edge"><title>Node0&#45;&gt;Node8</title>
<path fill="none" stroke="midnightblue" d="M614.807,-233.787C694.732,-227.715 828.635,-215.318 942.243,-194 943.69,-193.728 945.169,-193.426 946.657,-193.102"/>
<polygon fill="midnightblue" stroke="midnightblue" points="947.515,-196.495 956.409,-190.738 945.866,-189.692 947.515,-196.495"/>
</g>
<!-- Node9 -->
<g id="node10" class="node"><title>Node9</title>
<polygon fill="none" stroke="#bfbfbf" points="1009.71,-175.5 1009.71,-193.5 1140.77,-193.5 1140.77,-175.5 1009.71,-175.5"/>
<text text-anchor="middle" x="1075.24" y="-181.5" font-family="Helvetica,sans-Serif" font-size="10.00">boost/algorithm/string.hpp</text>
</g>
<!-- Node0&#45;&gt;Node9 -->
<g id="edge9" class="edge"><title>Node0&#45;&gt;Node9</title>
<path fill="none" stroke="midnightblue" d="M614.741,-232.017C702.437,-223.866 857.041,-209.217 999.264,-194.195"/>
<polygon fill="midnightblue" stroke="midnightblue" points="999.906,-197.647 1009.48,-193.113 999.169,-190.686 999.906,-197.647"/>
</g>
<!-- Node10 -->
<g id="node11" class="node"><title>Node10</title>
<g id="a_node11"><a xlink:href="cxxdefs_8h.html" target="_top" xlink:title="Basic definitions, which may have to be defined before any Eigen headers or further utilities are inc...">
<polygon fill="none" stroke="black" points="898.433,-60.5 898.433,-78.5 1040.05,-78.5 1040.05,-60.5 898.433,-60.5"/>
<text text-anchor="middle" x="969.243" y="-66.5" font-family="Helvetica,sans-Serif" font-size="10.00">tomographer/tools/cxxdefs.h</text>
</a>
</g>
</g>
<!-- Node0&#45;&gt;Node10 -->
<g id="edge10" class="edge"><title>Node0&#45;&gt;Node10</title>
<path fill="none" stroke="midnightblue" d="M586.493,-230.472C650.525,-217.257 774.886,-187.45 871.243,-139 901.342,-123.866 932.665,-100.389 951.563,-85.2309"/>
<polygon fill="midnightblue" stroke="midnightblue" points="954.011,-87.7511 959.552,-78.721 949.589,-82.3244 954.011,-87.7511"/>
</g>
<!-- Node15 -->
<g id="node16" class="node"><title>Node15</title>
<g id="a_node16"><a xlink:href="fmt_8h.html" target="_top" xlink:title="Utilities for formatting strings. ">
<polygon fill="none" stroke="black" points="405.44,-175.5 405.44,-193.5 527.045,-193.5 527.045,-175.5 405.44,-175.5"/>
<text text-anchor="middle" x="466.243" y="-181.5" font-family="Helvetica,sans-Serif" font-size="10.00">tomographer/tools/fmt.h</text>
</a>
</g>
</g>
<!-- Node0&#45;&gt;Node15 -->
<g id="edge15" class="edge"><title>Node0&#45;&gt;Node15</title>
<path fill="none" stroke="midnightblue" d="M532.396,-230.45C520.255,-222.201 501.145,-209.216 486.58,-199.319"/>
<polygon fill="midnightblue" stroke="midnightblue" points="488.439,-196.351 478.201,-193.625 484.505,-202.14 488.439,-196.351"/>
</g>
<!-- Node24 -->
<g id="node25" class="node"><title>Node24</title>
<g id="a_node25"><a xlink:href="conststr_8h.html" target="_top" xlink:title="A constexpr string type, suitable for basic compile&#45;time string processing. ">
<polygon fill="none" stroke="black" points="93.1518,-60.5 93.1518,-78.5 235.333,-78.5 235.333,-60.5 93.1518,-60.5"/>
<text text-anchor="middle" x="164.243" y="-66.5" font-family="Helvetica,sans-Serif" font-size="10.00">tomographer/tools/conststr.h</text>
</a>
</g>
</g>
<!-- Node0&#45;&gt;Node24 -->
<g id="edge41" class="edge"><title>Node0&#45;&gt;Node24</title>
<path fill="none" stroke="midnightblue" d="M473.873,-233.097C363.648,-222.933 158.647,-196.587 118.243,-139 105.233,-120.457 125.845,-98.687 143.507,-84.7508"/>
<polygon fill="midnightblue" stroke="midnightblue" points="145.853,-87.3682 151.781,-78.5872 141.671,-81.7546 145.853,-87.3682"/>
</g>
<!-- Node11 -->
<g id="node12" class="node"><title>Node11</title>
<polygon fill="none" stroke="#bfbfbf" points="470.127,-0.5 470.127,-18.5 518.358,-18.5 518.358,-0.5 470.127,-0.5"/>
<text text-anchor="middle" x="494.243" y="-6.5" font-family="Helvetica,sans-Serif" font-size="10.00">cassert</text>
</g>
<!-- Node10&#45;&gt;Node11 -->
<g id="edge11" class="edge"><title>Node10&#45;&gt;Node11</title>
<path fill="none" stroke="midnightblue" d="M925.023,-60.4836C913.705,-58.5583 901.54,-56.5987 890.243,-55 756.948,-36.1373 597.493,-20.2392 528.661,-13.6973"/>
<polygon fill="midnightblue" stroke="midnightblue" points="528.695,-10.185 518.41,-12.7287 528.037,-17.1539 528.695,-10.185"/>
</g>
<!-- Node12 -->
<g id="node13" class="node"><title>Node12</title>
<polygon fill="none" stroke="#bfbfbf" points="645.122,-0.5 645.122,-18.5 693.363,-18.5 693.363,-0.5 645.122,-0.5"/>
<text text-anchor="middle" x="669.243" y="-6.5" font-family="Helvetica,sans-Serif" font-size="10.00">cstddef</text>
</g>
<!-- Node10&#45;&gt;Node12 -->
<g id="edge12" class="edge"><title>Node10&#45;&gt;Node12</title>
<path fill="none" stroke="midnightblue" d="M927.844,-60.4962C868.197,-48.9644 759.168,-27.8857 703.672,-17.1563"/>
<polygon fill="midnightblue" stroke="midnightblue" points="704.119,-13.678 693.636,-15.2161 702.79,-20.5508 704.119,-13.678"/>
</g>
<!-- Node13 -->
<g id="node14" class="node"><title>Node13</title>
<polygon fill="none" stroke="#bfbfbf" points="1036.07,-0.5 1036.07,-18.5 1080.41,-18.5 1080.41,-0.5 1036.07,-0.5"/>
<text text-anchor="middle" x="1058.24" y="-6.5" font-family="Helvetica,sans-Serif" font-size="10.00">cstdlib</text>
</g>
<!-- Node10&#45;&gt;Node13 -->
<g id="edge13" class="edge"><title>Node10&#45;&gt;Node13</title>
<path fill="none" stroke="midnightblue" d="M981.618,-60.4353C995.884,-51.1382 1019.58,-35.6942 1036.85,-24.4393"/>
<polygon fill="midnightblue" stroke="midnightblue" points="1039.22,-27.0753 1045.69,-18.6831 1035.4,-21.2107 1039.22,-27.0753"/>
</g>
<!-- Node14 -->
<g id="node15" class="node"><title>Node14</title>
<polygon fill="none" stroke="#bfbfbf" points="929.275,-0.5 929.275,-18.5 1009.21,-18.5 1009.21,-0.5 929.275,-0.5"/>
<text text-anchor="middle" x="969.243" y="-6.5" font-family="Helvetica,sans-Serif" font-size="10.00">boost/predef.h</text>
</g>
<!-- Node10&#45;&gt;Node14 -->
<g id="edge14" class="edge"><title>Node10&#45;&gt;Node14</title>
<path fill="none" stroke="midnightblue" d="M969.243,-60.4353C969.243,-52.3891 969.243,-39.7388 969.243,-29.1846"/>
<polygon fill="midnightblue" stroke="midnightblue" points="972.743,-28.8717 969.243,-18.8718 965.743,-28.8718 972.743,-28.8717"/>
</g>
<!-- Node15&#45;&gt;Node1 -->
<g id="edge16" class="edge"><title>Node15&#45;&gt;Node1</title>
<path fill="none" stroke="midnightblue" d="M405.162,-176.275C348.819,-169.11 262.715,-156.898 179.353,-139.013"/>
<polygon fill="midnightblue" stroke="midnightblue" points="179.982,-135.568 169.466,-136.862 178.494,-142.408 179.982,-135.568"/>
</g>
<!-- Node15&#45;&gt;Node2 -->
<g id="edge17" class="edge"><title>Node15&#45;&gt;Node2</title>
<path fill="none" stroke="midnightblue" d="M425.804,-175.431C382.187,-166.676 310.724,-152.179 249.243,-139 248.152,-138.766 247.044,-138.527 245.926,-138.285"/>
<polygon fill="midnightblue" stroke="midnightblue" points="246.276,-134.778 235.758,-136.051 244.774,-141.615 246.276,-134.778"/>
</g>
<!-- Node15&#45;&gt;Node3 -->
<g id="edge19" class="edge"><title>Node15&#45;&gt;Node3</title>
<path fill="none" stroke="midnightblue" d="M410.257,-175.473C363.549,-167.799 301.607,-155.035 282.243,-139 250.683,-112.866 271.993,-85.1486 244.243,-55 230.476,-40.0442 210.497,-28.9249 193.949,-21.5418"/>
<polygon fill="midnightblue" stroke="midnightblue" points="195.249,-18.2916 184.675,-17.6257 192.526,-24.7402 195.249,-18.2916"/>
</g>
<!-- Node15&#45;&gt;Node4 -->
<g id="edge20" class="edge"><title>Node15&#45;&gt;Node4</title>
<path fill="none" stroke="midnightblue" d="M515.032,-175.488C566.24,-166.953 649.042,-152.798 720.243,-139 721.68,-138.721 723.146,-138.433 724.625,-138.137"/>
<polygon fill="midnightblue" stroke="midnightblue" points="725.356,-141.56 734.45,-136.123 723.95,-134.703 725.356,-141.56"/>
</g>
<!-- Node15&#45;&gt;Node5 -->
<g id="edge21" class="edge"><title>Node15&#45;&gt;Node5</title>
<path fill="none" stroke="midnightblue" d="M527.42,-175.636C572.438,-168.786 634.686,-157.071 687.243,-139 705.099,-132.86 707.116,-125.287 725.243,-120 873.241,-76.8313 918.477,-111.098 1070.24,-84 1075.37,-83.0847 1080.73,-81.9419 1085.99,-80.7112"/>
<polygon fill="midnightblue" stroke="midnightblue" points="1087.03,-84.0614 1095.9,-78.2728 1085.35,-77.2643 1087.03,-84.0614"/>
</g>
<!-- Node15&#45;&gt;Node6 -->
<g id="edge25" class="edge"><title>Node15&#45;&gt;Node6</title>
<path fill="none" stroke="midnightblue" d="M527.123,-176.847C591.21,-169.488 695.225,-156.536 793.987,-139.096"/>
<polygon fill="midnightblue" stroke="midnightblue" points="794.605,-142.541 803.834,-137.339 793.375,-135.65 794.605,-142.541"/>
</g>
<!-- Node16 -->
<g id="node17" class="node"><title>Node16</title>
<polygon fill="none" stroke="#bfbfbf" points="290.954,-120.5 290.954,-138.5 337.531,-138.5 337.531,-120.5 290.954,-120.5"/>
<text text-anchor="middle" x="314.243" y="-126.5" font-family="Helvetica,sans-Serif" font-size="10.00">chrono</text>
</g>
<!-- Node15&#45;&gt;Node16 -->
<g id="edge18" class="edge"><title>Node15&#45;&gt;Node16</title>
<path fill="none" stroke="midnightblue" d="M443.157,-175.45C417.601,-166.539 376.198,-152.103 347.228,-142.001"/>
<polygon fill="midnightblue" stroke="midnightblue" points="348.14,-138.613 337.545,-138.625 345.835,-145.223 348.14,-138.613"/>
</g>
<!-- Node17 -->
<g id="node18" class="node"><title>Node17</title>
<polygon fill="none" stroke="#bfbfbf" points="355.851,-120.5 355.851,-138.5 394.634,-138.5 394.634,-120.5 355.851,-120.5"/>
<text text-anchor="middle" x="375.243" y="-126.5" font-family="Helvetica,sans-Serif" font-size="10.00">utility</text>
</g>
<!-- Node15&#45;&gt;Node17 -->
<g id="edge22" class="edge"><title>Node15&#45;&gt;Node17</title>
<path fill="none" stroke="midnightblue" d="M452.422,-175.45C437.99,-167.045 415.118,-153.724 398.013,-143.762"/>
<polygon fill="midnightblue" stroke="midnightblue" points="399.596,-140.634 389.194,-138.625 396.073,-146.683 399.596,-140.634"/>
</g>
<!-- Node18 -->
<g id="node19" class="node"><title>Node18</title>
<polygon fill="none" stroke="#bfbfbf" points="412.627,-120.5 412.627,-138.5 455.858,-138.5 455.858,-120.5 412.627,-120.5"/>
<text text-anchor="middle" x="434.243" y="-126.5" font-family="Helvetica,sans-Serif" font-size="10.00">vector</text>
</g>
<!-- Node15&#45;&gt;Node18 -->
<g id="edge23" class="edge"><title>Node15&#45;&gt;Node18</title>
<path fill="none" stroke="midnightblue" d="M461.243,-175.219C456.755,-167.786 450.029,-156.646 444.413,-147.345"/>
<polygon fill="midnightblue" stroke="midnightblue" points="447.268,-145.301 439.103,-138.55 441.275,-148.919 447.268,-145.301"/>
</g>
<!-- Node19 -->
<g id="node20" class="node"><title>Node19</title>
<polygon fill="none" stroke="#bfbfbf" points="473.733,-120.5 473.733,-138.5 524.752,-138.5 524.752,-120.5 473.733,-120.5"/>
<text text-anchor="middle" x="499.243" y="-126.5" font-family="Helvetica,sans-Serif" font-size="10.00">iomanip</text>
</g>
<!-- Node15&#45;&gt;Node19 -->
<g id="edge24" class="edge"><title>Node15&#45;&gt;Node19</title>
<path fill="none" stroke="midnightblue" d="M471.399,-175.219C476.076,-167.707 483.109,-156.411 488.937,-147.052"/>
<polygon fill="midnightblue" stroke="midnightblue" points="491.916,-148.889 494.231,-138.55 485.974,-145.189 491.916,-148.889"/>
</g>
<!-- Node20 -->
<g id="node21" class="node"><title>Node20</title>
<g id="a_node21"><a xlink:href="cxxutil_8h.html" target="_top" xlink:title="Some C++ utilities, with a tad of C++11 tricks. ">
<polygon fill="none" stroke="black" points="542.492,-120.5 542.492,-138.5 677.994,-138.5 677.994,-120.5 542.492,-120.5"/>
<text text-anchor="middle" x="610.243" y="-126.5" font-family="Helvetica,sans-Serif" font-size="10.00">tomographer/tools/cxxutil.h</text>
</a>
</g>
</g>
<!-- Node15&#45;&gt;Node20 -->
<g id="edge26" class="edge"><title>Node15&#45;&gt;Node20</title>
<path fill="none" stroke="midnightblue" d="M488.113,-175.45C512.218,-166.578 551.206,-152.229 578.633,-142.134"/>
<polygon fill="midnightblue" stroke="midnightblue" points="579.991,-145.364 588.166,-138.625 577.573,-138.795 579.991,-145.364"/>
</g>
<!-- Node20&#45;&gt;Node5 -->
<g id="edge30" class="edge"><title>Node20&#45;&gt;Node5</title>
<path fill="none" stroke="midnightblue" d="M678.25,-121.391C682.985,-120.914 687.684,-120.447 692.243,-120 865.483,-103.026 911.82,-119.446 1082.24,-84 1085.47,-83.3285 1088.8,-82.4891 1092.1,-81.5593"/>
<polygon fill="midnightblue" stroke="midnightblue" points="1093.26,-84.8645 1101.79,-78.576 1091.2,-78.1746 1093.26,-84.8645"/>
</g>
<!-- Node20&#45;&gt;Node7 -->
<g id="edge32" class="edge"><title>Node20&#45;&gt;Node7</title>
<path fill="none" stroke="midnightblue" d="M542.301,-120.794C539.58,-120.519 536.886,-120.253 534.243,-120 334.52,-100.847 280.775,-124.384 84.2426,-84 81.1824,-83.3712 78.0324,-82.5775 74.9072,-81.6913"/>
<polygon fill="midnightblue" stroke="midnightblue" points="75.739,-78.2842 65.1499,-78.6338 73.6458,-84.9639 75.739,-78.2842"/>
</g>
<!-- Node20&#45;&gt;Node10 -->
<g id="edge35" class="edge"><title>Node20&#45;&gt;Node10</title>
<path fill="none" stroke="midnightblue" d="M661.878,-120.478C718.084,-111.703 810.595,-97.1339 890.243,-84 897.593,-82.7879 905.324,-81.4924 912.955,-80.2013"/>
<polygon fill="midnightblue" stroke="midnightblue" points="913.617,-83.6391 922.889,-78.5139 912.444,-76.738 913.617,-83.6391"/>
</g>
<!-- Node20&#45;&gt;Node11 -->
<g id="edge27" class="edge"><title>Node20&#45;&gt;Node11</title>
<path fill="none" stroke="midnightblue" d="M544.066,-120.491C499.405,-113.568 446.161,-101.826 432.243,-84 424.311,-73.8409 426.358,-66.4671 432.243,-55 439.349,-41.1511 452.991,-30.6412 465.673,-23.3223"/>
<polygon fill="midnightblue" stroke="midnightblue" points="467.447,-26.3429 474.63,-18.5549 464.158,-20.1636 467.447,-26.3429"/>
</g>
<!-- Node20&#45;&gt;Node12 -->
<g id="edge28" class="edge"><title>Node20&#45;&gt;Node12</title>
<path fill="none" stroke="midnightblue" d="M550.403,-120.434C507.709,-113.31 455.584,-101.336 442.243,-84 434.382,-73.7858 434.052,-64.9519 442.243,-55 466.267,-25.8082 577.742,-15.485 635.037,-12.0662"/>
<polygon fill="midnightblue" stroke="midnightblue" points="635.282,-15.558 645.071,-11.5051 634.892,-8.56891 635.282,-15.558"/>
</g>
<!-- Node20&#45;&gt;Node13 -->
<g id="edge29" class="edge"><title>Node20&#45;&gt;Node13</title>
<path fill="none" stroke="midnightblue" d="M678.254,-121.435C682.988,-120.948 687.686,-120.466 692.243,-120 731.904,-115.945 1020.75,-111.888 1049.24,-84 1063.57,-69.9712 1063.78,-45.7466 1061.76,-28.9619"/>
<polygon fill="midnightblue" stroke="midnightblue" points="1065.16,-28.0789 1060.14,-18.7469 1058.25,-29.1704 1065.16,-28.0789"/>
</g>
<!-- Node21 -->
<g id="node22" class="node"><title>Node21</title>
<polygon fill="none" stroke="#bfbfbf" points="451.624,-60.5 451.624,-78.5 504.861,-78.5 504.861,-60.5 451.624,-60.5"/>
<text text-anchor="middle" x="478.243" y="-66.5" font-family="Helvetica,sans-Serif" font-size="10.00">complex</text>
</g>
<!-- Node20&#45;&gt;Node21 -->
<g id="edge31" class="edge"><title>Node20&#45;&gt;Node21</title>
<path fill="none" stroke="midnightblue" d="M591.889,-120.435C569.652,-110.665 531.965,-94.1053 506.13,-82.7537"/>
<polygon fill="midnightblue" stroke="midnightblue" points="507.429,-79.5016 496.866,-78.6831 504.613,-85.9103 507.429,-79.5016"/>
</g>
<!-- Node22 -->
<g id="node23" class="node"><title>Node22</title>
<polygon fill="none" stroke="#bfbfbf" points="522.839,-60.5 522.839,-78.5 581.646,-78.5 581.646,-60.5 522.839,-60.5"/>
<text text-anchor="middle" x="552.243" y="-66.5" font-family="Helvetica,sans-Serif" font-size="10.00">exception</text>
</g>
<!-- Node20&#45;&gt;Node22 -->
<g id="edge33" class="edge"><title>Node20&#45;&gt;Node22</title>
<path fill="none" stroke="midnightblue" d="M602.178,-120.435C593.361,-111.619 579.017,-97.2743 567.959,-86.2165"/>
<polygon fill="midnightblue" stroke="midnightblue" points="570.16,-83.468 560.614,-78.8718 565.211,-88.4177 570.16,-83.468"/>
</g>
<!-- Node23 -->
<g id="node24" class="node"><title>Node23</title>
<polygon fill="none" stroke="#bfbfbf" points="599.841,-60.5 599.841,-78.5 658.644,-78.5 658.644,-60.5 599.841,-60.5"/>
<text text-anchor="middle" x="629.243" y="-66.5" font-family="Helvetica,sans-Serif" font-size="10.00">stdexcept</text>
</g>
<!-- Node20&#45;&gt;Node23 -->
<g id="edge34" class="edge"><title>Node20&#45;&gt;Node23</title>
<path fill="none" stroke="midnightblue" d="M612.884,-120.435C615.576,-112.218 619.841,-99.1985 623.342,-88.5138"/>
<polygon fill="midnightblue" stroke="midnightblue" points="626.713,-89.4645 626.5,-78.8718 620.061,-87.2852 626.713,-89.4645"/>
</g>
<!-- Node20&#45;&gt;Node24 -->
<g id="edge36" class="edge"><title>Node20&#45;&gt;Node24</title>
<path fill="none" stroke="midnightblue" d="M548.696,-120.496C466.865,-109.855 322.517,-91.0828 235.884,-79.8166"/>
<polygon fill="midnightblue" stroke="midnightblue" points="236.241,-76.3336 225.873,-78.5147 235.338,-83.2751 236.241,-76.3336"/>
</g>
<!-- Node25 -->
<g id="node26" class="node"><title>Node25</title>
<polygon fill="none" stroke="#bfbfbf" points="676.772,-60.5 676.772,-78.5 771.713,-78.5 771.713,-60.5 676.772,-60.5"/>
<text text-anchor="middle" x="724.243" y="-66.5" font-family="Helvetica,sans-Serif" font-size="10.00">boost/version.hpp</text>
</g>
<!-- Node20&#45;&gt;Node25 -->
<g id="edge38" class="edge"><title>Node20&#45;&gt;Node25</title>
<path fill="none" stroke="midnightblue" d="M626.094,-120.435C644.96,-110.837 676.703,-94.6868 698.969,-83.3586"/>
<polygon fill="midnightblue" stroke="midnightblue" points="700.833,-86.3372 708.158,-78.6831 697.659,-80.0983 700.833,-86.3372"/>
</g>
<!-- Node26 -->
<g id="node27" class="node"><title>Node26</title>
<polygon fill="none" stroke="#bfbfbf" points="789.718,-55.5 789.718,-83.5 880.767,-83.5 880.767,-55.5 789.718,-55.5"/>
<text text-anchor="start" x="797.718" y="-71.5" font-family="Helvetica,sans-Serif" font-size="10.00">boost/units/detail</text>
<text text-anchor="middle" x="835.243" y="-61.5" font-family="Helvetica,sans-Serif" font-size="10.00">/utility.hpp</text>
</g>
<!-- Node20&#45;&gt;Node26 -->
<g id="edge39" class="edge"><title>Node20&#45;&gt;Node26</title>
<path fill="none" stroke="midnightblue" d="M641.528,-120.435C677.151,-111.252 736.038,-96.0726 779.552,-84.8558"/>
<polygon fill="midnightblue" stroke="midnightblue" points="780.613,-88.1969 789.422,-82.3114 778.865,-81.4185 780.613,-88.1969"/>
</g>
<!-- Node27 -->
<g id="node28" class="node"><title>Node27</title>
<polygon fill="none" stroke="#bfbfbf" points="291.228,-60.5 291.228,-78.5 357.257,-78.5 357.257,-60.5 291.228,-60.5"/>
<text text-anchor="middle" x="324.243" y="-66.5" font-family="Helvetica,sans-Serif" font-size="10.00">Eigen/Core</text>
</g>
<!-- Node20&#45;&gt;Node27 -->
<g id="edge40" class="edge"><title>Node20&#45;&gt;Node27</title>
<path fill="none" stroke="midnightblue" d="M559.128,-120.438C510.533,-112.431 435.527,-99.1803 371.243,-84 367.643,-83.15 363.908,-82.1985 360.187,-81.2044"/>
<polygon fill="midnightblue" stroke="midnightblue" points="361.047,-77.8108 350.475,-78.5147 359.178,-84.5568 361.047,-77.8108"/>
</g>
<!-- Node24&#45;&gt;Node3 -->
<g id="edge37" class="edge"><title>Node24&#45;&gt;Node3</title>
<path fill="none" stroke="midnightblue" d="M164.243,-60.4353C164.243,-52.3891 164.243,-39.7388 164.243,-29.1846"/>
<polygon fill="midnightblue" stroke="midnightblue" points="167.743,-28.8717 164.243,-18.8718 160.743,-28.8718 167.743,-28.8717"/>
</g>
</g>
</svg>
