<?xml version="1.0" encoding="UTF-8" standalone="no"?>
<!DOCTYPE svg PUBLIC "-//W3C//DTD SVG 1.1//EN"
 "http://www.w3.org/Graphics/SVG/1.1/DTD/svg11.dtd">
<!-- Generated by graphviz version 2.38.0 (20140413.2041)
 -->
<!-- Title: tomographer/mhrw.h Pages: 1 -->
<svg width="1135pt" height="222pt"
 viewBox="0.00 0.00 1135.50 222.00" xmlns="http://www.w3.org/2000/svg" xmlns:xlink="http://www.w3.org/1999/xlink">
<g id="graph0" class="graph" transform="scale(1 1) rotate(0) translate(4 218)">
<title>tomographer/mhrw.h</title>
<!-- Node41 -->
<g id="node1" class="node"><title>Node41</title>
<polygon fill="#bfbfbf" stroke="black" points="601.451,-195.5 601.451,-213.5 709.165,-213.5 709.165,-195.5 601.451,-195.5"/>
<text text-anchor="middle" x="655.308" y="-201.5" font-family="Helvetica,sans-Serif" font-size="10.00">tomographer/mhrw.h</text>
</g>
<!-- Node42 -->
<g id="node2" class="node"><title>Node42</title>
<g id="a_node2"><a xlink:href="tspacellhwalker_8h.html" target="_top" xlink:title="Definitions for a Metropolis&#45;Hastings random walk on a quantum state space with dense matrix type...">
<polygon fill="none" stroke="black" points="0,-130.5 0,-158.5 116.615,-158.5 116.615,-130.5 0,-130.5"/>
<text text-anchor="start" x="8" y="-146.5" font-family="Helvetica,sans-Serif" font-size="10.00">tomographer/densedm</text>
<text text-anchor="middle" x="58.3076" y="-136.5" font-family="Helvetica,sans-Serif" font-size="10.00">/tspacellhwalker.h</text>
</a>
</g>
</g>
<!-- Node41&#45;&gt;Node42 -->
<g id="edge1" class="edge"><title>Node41&#45;&gt;Node42</title>
<path fill="none" stroke="midnightblue" d="M590.907,-200.137C491.673,-194.484 295.545,-181.436 130.308,-159 125.897,-158.401 121.346,-157.714 116.777,-156.973"/>
<polygon fill="midnightblue" stroke="midnightblue" points="590.891,-203.642 601.073,-200.71 591.285,-196.653 590.891,-203.642"/>
</g>
<!-- Node43 -->
<g id="node3" class="node"><title>Node43</title>
<g id="a_node3"><a xlink:href="mhrwacceptratiowalkerparamscontroller_8h.html" target="_top" xlink:title="Tools for automatically and dynamically adjusting the step size of the random walk. ">
<polygon fill="none" stroke="black" points="172.308,-70.5 172.308,-88.5 432.307,-88.5 432.307,-70.5 172.308,-70.5"/>
<text text-anchor="middle" x="302.308" y="-76.5" font-family="Helvetica,sans-Serif" font-size="10.00">tomographer/mhrwacceptratiowalkerparamscontroller.h</text>
</a>
</g>
</g>
<!-- Node41&#45;&gt;Node43 -->
<g id="edge2" class="edge"><title>Node41&#45;&gt;Node43</title>
<path fill="none" stroke="midnightblue" d="M591.249,-197.782C543.826,-191.986 478.348,-180.649 424.308,-159 378.717,-140.736 331.794,-104.749 312.022,-88.6361"/>
<polygon fill="midnightblue" stroke="midnightblue" points="591.046,-201.283 601.385,-198.971 591.861,-194.33 591.046,-201.283"/>
</g>
<!-- Node44 -->
<g id="node4" class="node"><title>Node44</title>
<g id="a_node4"><a xlink:href="mhrwstepsizecontroller_8h.html" target="_top" xlink:title="Tools for automatically and dynamically adjusting the step size of the random walk. ">
<polygon fill="none" stroke="black" points="209.544,-5.5 209.544,-23.5 395.071,-23.5 395.071,-5.5 209.544,-5.5"/>
<text text-anchor="middle" x="302.308" y="-11.5" font-family="Helvetica,sans-Serif" font-size="10.00">tomographer/mhrwstepsizecontroller.h</text>
</a>
</g>
</g>
<!-- Node41&#45;&gt;Node44 -->
<g id="edge13" class="edge"><title>Node41&#45;&gt;Node44</title>
<path fill="none" stroke="midnightblue" d="M590.794,-199.338C469.099,-189.948 213.342,-162.354 163.308,-94 135.725,-56.3178 204.671,-34.232 255.025,-23.5366"/>
<polygon fill="midnightblue" stroke="midnightblue" points="590.85,-202.852 601.085,-200.113 591.376,-195.872 590.85,-202.852"/>
</g>
<!-- Node45 -->
<g id="node5" class="node"><title>Node45</title>
<g id="a_node5"><a xlink:href="mhrwstatscollectors_8h.html" target="_top" xlink:title="Definitions for MHRWStatsCollector Interface&#39;s. ">
<polygon fill="none" stroke="black" points="433.5,-135.5 433.5,-153.5 605.115,-153.5 605.115,-135.5 433.5,-135.5"/>
<text text-anchor="middle" x="519.308" y="-141.5" font-family="Helvetica,sans-Serif" font-size="10.00">tomographer/mhrwstatscollectors.h</text>
</a>
</g>
</g>
<!-- Node41&#45;&gt;Node45 -->
<g id="edge4" class="edge"><title>Node41&#45;&gt;Node45</title>
<path fill="none" stroke="midnightblue" d="M626.896,-191.383C600.377,-180.074 561.534,-163.508 538.496,-153.683"/>
<polygon fill="midnightblue" stroke="midnightblue" points="625.826,-194.732 636.397,-195.435 628.572,-188.293 625.826,-194.732"/>
</g>
<!-- Node47 -->
<g id="node7" class="node"><title>Node47</title>
<g id="a_node7"><a xlink:href="mhrwtasks_8h.html" target="_top" xlink:title="Multiprocessing tasks interface (see Multiprocessing Task Interfaces) for parallel Metropolis&#45;Hasting...">
<polygon fill="none" stroke="black" points="802.507,-70.5 802.507,-88.5 934.108,-88.5 934.108,-70.5 802.507,-70.5"/>
<text text-anchor="middle" x="868.308" y="-76.5" font-family="Helvetica,sans-Serif" font-size="10.00">tomographer/mhrwtasks.h</text>
</a>
</g>
</g>
<!-- Node41&#45;&gt;Node47 -->
<g id="edge14" class="edge"><title>Node41&#45;&gt;Node47</title>
<path fill="none" stroke="midnightblue" d="M678.123,-190.325C722.286,-164.823 818.267,-109.396 854.281,-88.6001"/>
<polygon fill="midnightblue" stroke="midnightblue" points="676.193,-187.398 669.283,-195.43 679.693,-193.46 676.193,-187.398"/>
</g>
<!-- Node48 -->
<g id="node8" class="node"><title>Node48</title>
<g id="a_node8"><a xlink:href="pymhrwtasks_8h_source.html" target="_top" xlink:title="py/cxx/tomographerpy\l/pymhrwtasks.h">
<polygon fill="none" stroke="black" points="881.118,-0.5 881.118,-28.5 995.497,-28.5 995.497,-0.5 881.118,-0.5"/>
<text text-anchor="start" x="889.118" y="-16.5" font-family="Helvetica,sans-Serif" font-size="10.00">py/cxx/tomographerpy</text>
<text text-anchor="middle" x="938.308" y="-6.5" font-family="Helvetica,sans-Serif" font-size="10.00">/pymhrwtasks.h</text>
</a>
</g>
</g>
<!-- Node41&#45;&gt;Node48 -->
<g id="edge19" class="edge"><title>Node41&#45;&gt;Node48</title>
<path fill="none" stroke="midnightblue" d="M719.605,-199.393C788.055,-191.186 893.259,-166.718 943.308,-94 956.702,-74.5388 949.71,-45.5312 943.767,-28.7673"/>
<polygon fill="midnightblue" stroke="midnightblue" points="718.918,-195.948 709.366,-200.533 719.692,-202.905 718.918,-195.948"/>
</g>
<!-- Node49 -->
<g id="node9" class="node"><title>Node49</title>
<g id="a_node9"><a xlink:href="pymultiproc_8h_source.html" target="_top" xlink:title="py/cxx/tomographerpy\l/pymultiproc.h">
<polygon fill="none" stroke="black" points="1013.12,-0.5 1013.12,-28.5 1127.5,-28.5 1127.5,-0.5 1013.12,-0.5"/>
<text text-anchor="start" x="1021.12" y="-16.5" font-family="Helvetica,sans-Serif" font-size="10.00">py/cxx/tomographerpy</text>
<text text-anchor="middle" x="1070.31" y="-6.5" font-family="Helvetica,sans-Serif" font-size="10.00">/pymultiproc.h</text>
</a>
</g>
</g>
<!-- Node41&#45;&gt;Node49 -->
<g id="edge20" class="edge"><title>Node41&#45;&gt;Node49</title>
<path fill="none" stroke="midnightblue" d="M719.669,-203.431C791.696,-201.53 910.929,-192.867 1007.31,-159 1059.45,-140.679 1086.31,-142.221 1113.31,-94 1126.14,-71.0853 1103.29,-44.2144 1086.28,-28.5971"/>
<polygon fill="midnightblue" stroke="midnightblue" points="719.311,-199.938 709.393,-203.665 719.47,-206.936 719.311,-199.938"/>
</g>
<!-- Node50 -->
<g id="node10" class="node"><title>Node50</title>
<g id="a_node10"><a xlink:href="mhrwvalueerrorbinsconvergedcontroller_8h.html" target="_top" xlink:title="Tools for automatically stopping the random walk when enough samples have been taken to make all binn...">
<polygon fill="none" stroke="black" points="525.855,-70.5 525.855,-88.5 784.76,-88.5 784.76,-70.5 525.855,-70.5"/>
<text text-anchor="middle" x="655.308" y="-76.5" font-family="Helvetica,sans-Serif" font-size="10.00">tomographer/mhrwvalueerrorbinsconvergedcontroller.h</text>
</a>
</g>
</g>
<!-- Node41&#45;&gt;Node50 -->
<g id="edge15" class="edge"><title>Node41&#45;&gt;Node50</title>
<path fill="none" stroke="midnightblue" d="M655.308,-185.384C655.308,-158.32 655.308,-108.413 655.308,-88.7614"/>
<polygon fill="midnightblue" stroke="midnightblue" points="651.808,-185.43 655.308,-195.43 658.808,-185.43 651.808,-185.43"/>
</g>
<!-- Node51 -->
<g id="node11" class="node"><title>Node51</title>
<g id="a_node11"><a xlink:href="pymhrw_8h_source.html" target="_top" xlink:title="py/cxx/tomographerpy\l/pymhrw.h">
<polygon fill="none" stroke="black" points="990.118,-65.5 990.118,-93.5 1104.5,-93.5 1104.5,-65.5 990.118,-65.5"/>
<text text-anchor="start" x="998.118" y="-81.5" font-family="Helvetica,sans-Serif" font-size="10.00">py/cxx/tomographerpy</text>
<text text-anchor="middle" x="1047.31" y="-71.5" font-family="Helvetica,sans-Serif" font-size="10.00">/pymhrw.h</text>
</a>
</g>
</g>
<!-- Node41&#45;&gt;Node51 -->
<g id="edge16" class="edge"><title>Node41&#45;&gt;Node51</title>
<path fill="none" stroke="midnightblue" d="M719.286,-199.802C799.846,-194.264 932.968,-181.93 976.308,-159 1005.22,-143.703 1028.25,-111.727 1039.6,-93.6615"/>
<polygon fill="midnightblue" stroke="midnightblue" points="718.992,-196.314 709.248,-200.475 719.46,-203.298 718.992,-196.314"/>
</g>
<!-- Node43&#45;&gt;Node44 -->
<g id="edge3" class="edge"><title>Node43&#45;&gt;Node44</title>
<path fill="none" stroke="midnightblue" d="M302.308,-59.9075C302.308,-47.8146 302.308,-32.6529 302.308,-23.539"/>
<polygon fill="midnightblue" stroke="midnightblue" points="298.808,-60.2638 302.308,-70.2639 305.808,-60.2639 298.808,-60.2638"/>
</g>
<!-- Node45&#45;&gt;Node43 -->
<g id="edge6" class="edge"><title>Node45&#45;&gt;Node43</title>
<path fill="none" stroke="midnightblue" d="M481.535,-132.534C438.34,-119.993 368.642,-99.7583 330.125,-88.5761"/>
<polygon fill="midnightblue" stroke="midnightblue" points="480.804,-135.966 491.383,-135.393 482.755,-129.243 480.804,-135.966"/>
</g>
<!-- Node45&#45;&gt;Node44 -->
<g id="edge7" class="edge"><title>Node45&#45;&gt;Node44</title>
<path fill="none" stroke="midnightblue" d="M506.946,-127.297C492.801,-109.752 468.108,-82.0032 441.308,-65 409.186,-44.6212 367.559,-31.2287 338.262,-23.5746"/>
<polygon fill="midnightblue" stroke="midnightblue" points="504.406,-129.73 513.336,-135.431 509.911,-125.405 504.406,-129.73"/>
</g>
<!-- Node46 -->
<g id="node6" class="node"><title>Node46</title>
<g id="a_node6"><a xlink:href="mhrw__valuehist__tools_8h.html" target="_top" xlink:title="Tools for collecting a histogram of values during a Metropolis&#45;Hastings random walk using the tools o...">
<polygon fill="none" stroke="black" points="571.833,-0.5 571.833,-28.5 716.783,-28.5 716.783,-0.5 571.833,-0.5"/>
<text text-anchor="start" x="579.833" y="-16.5" font-family="Helvetica,sans-Serif" font-size="10.00">tomographer/mhrw_valuehist</text>
<text text-anchor="middle" x="644.308" y="-6.5" font-family="Helvetica,sans-Serif" font-size="10.00">_tools.h</text>
</a>
</g>
</g>
<!-- Node45&#45;&gt;Node46 -->
<g id="edge5" class="edge"><title>Node45&#45;&gt;Node46</title>
<path fill="none" stroke="midnightblue" d="M513.266,-125.452C508.741,-108.354 505.191,-82.7266 517.308,-65 529.927,-46.5379 550.535,-34.9609 571.515,-27.7016"/>
<polygon fill="midnightblue" stroke="midnightblue" points="509.992,-126.719 516.226,-135.286 516.695,-124.702 509.992,-126.719"/>
</g>
<!-- Node45&#45;&gt;Node47 -->
<g id="edge8" class="edge"><title>Node45&#45;&gt;Node47</title>
<path fill="none" stroke="midnightblue" d="M574.083,-133.612C643,-121.172 760.026,-100.047 823.742,-88.5448"/>
<polygon fill="midnightblue" stroke="midnightblue" points="573.082,-130.236 563.863,-135.457 574.326,-137.125 573.082,-130.236"/>
</g>
<!-- Node45&#45;&gt;Node50 -->
<g id="edge12" class="edge"><title>Node45&#45;&gt;Node50</title>
<path fill="none" stroke="midnightblue" d="M546.135,-131.073C573.342,-118.47 614.651,-99.3337 637.874,-88.5761"/>
<polygon fill="midnightblue" stroke="midnightblue" points="544.411,-128.014 536.809,-135.393 547.354,-134.365 544.411,-128.014"/>
</g>
<!-- Node47&#45;&gt;Node46 -->
<g id="edge9" class="edge"><title>Node47&#45;&gt;Node46</title>
<path fill="none" stroke="midnightblue" d="M829.653,-67.6283C791.026,-56.7647 731.628,-40.0588 690.531,-28.5002"/>
<polygon fill="midnightblue" stroke="midnightblue" points="828.908,-71.0546 839.482,-70.3928 830.803,-64.316 828.908,-71.0546"/>
</g>
<!-- Node47&#45;&gt;Node48 -->
<g id="edge10" class="edge"><title>Node47&#45;&gt;Node48</title>
<path fill="none" stroke="midnightblue" d="M884.917,-63.5513C896.741,-52.9102 912.475,-38.7494 923.796,-28.5608"/>
<polygon fill="midnightblue" stroke="midnightblue" points="882.55,-60.9726 877.459,-70.2639 887.233,-66.1757 882.55,-60.9726"/>
</g>
<!-- Node47&#45;&gt;Node49 -->
<g id="edge11" class="edge"><title>Node47&#45;&gt;Node49</title>
<path fill="none" stroke="midnightblue" d="M904.06,-67.3496C938.909,-56.4807 991.879,-39.9604 1028.62,-28.5002"/>
<polygon fill="midnightblue" stroke="midnightblue" points="902.806,-64.0741 894.302,-70.3928 904.891,-70.7567 902.806,-64.0741"/>
</g>
<!-- Node51&#45;&gt;Node48 -->
<g id="edge17" class="edge"><title>Node51&#45;&gt;Node48</title>
<path fill="none" stroke="midnightblue" d="M1015.93,-60.3648C998.333,-50.1937 976.787,-37.7404 960.864,-28.5369"/>
<polygon fill="midnightblue" stroke="midnightblue" points="1014.31,-63.4725 1024.72,-65.4464 1017.82,-57.4119 1014.31,-63.4725"/>
</g>
<!-- Node51&#45;&gt;Node49 -->
<g id="edge18" class="edge"><title>Node51&#45;&gt;Node49</title>
<path fill="none" stroke="midnightblue" d="M1055.5,-56.0505C1058.87,-46.8277 1062.65,-36.4738 1065.55,-28.5369"/>
<polygon fill="midnightblue" stroke="midnightblue" points="1052.21,-54.8525 1052.07,-65.4464 1058.79,-57.2531 1052.21,-54.8525"/>
</g>
</g>
</svg>
