<?xml version="1.0" encoding="UTF-8" standalone="no"?>
<!DOCTYPE svg PUBLIC "-//W3C//DTD SVG 1.1//EN"
 "http://www.w3.org/Graphics/SVG/1.1/DTD/svg11.dtd">
<!-- Generated by graphviz version 2.38.0 (20140413.2041)
 -->
<!-- Title: tomographer/multiprocomp.h Pages: 1 -->
<svg width="1392pt" height="377pt"
 viewBox="0.00 0.00 1391.54 377.00" xmlns="http://www.w3.org/2000/svg" xmlns:xlink="http://www.w3.org/1999/xlink">
<g id="graph0" class="graph" transform="scale(1 1) rotate(0) translate(4 373)">
<title>tomographer/multiprocomp.h</title>
<!-- Node0 -->
<g id="node1" class="node"><title>Node0</title>
<polygon fill="#bfbfbf" stroke="black" points="396.225,-350.5 396.225,-368.5 540.062,-368.5 540.062,-350.5 396.225,-350.5"/>
<text text-anchor="middle" x="468.143" y="-356.5" font-family="Helvetica,sans-Serif" font-size="10.00">tomographer/multiprocomp.h</text>
</g>
<!-- Node1 -->
<g id="node2" class="node"><title>Node1</title>
<polygon fill="none" stroke="#bfbfbf" points="18.5791,-175.5 18.5791,-193.5 65.707,-193.5 65.707,-175.5 18.5791,-175.5"/>
<text text-anchor="middle" x="42.1431" y="-181.5" font-family="Helvetica,sans-Serif" font-size="10.00">csignal</text>
</g>
<!-- Node0&#45;&gt;Node1 -->
<g id="edge1" class="edge"><title>Node0&#45;&gt;Node1</title>
<path fill="none" stroke="midnightblue" d="M400.493,-350.475C297.537,-336.903 108.459,-306.197 61.1431,-259 46.5862,-244.48 42.7151,-220.363 41.912,-203.737"/>
<polygon fill="midnightblue" stroke="midnightblue" points="45.41,-203.577 41.7525,-193.634 38.4109,-203.688 45.41,-203.577"/>
</g>
<!-- Node2 -->
<g id="node3" class="node"><title>Node2</title>
<polygon fill="none" stroke="#bfbfbf" points="159.855,-120.5 159.855,-138.5 206.431,-138.5 206.431,-120.5 159.855,-120.5"/>
<text text-anchor="middle" x="183.143" y="-126.5" font-family="Helvetica,sans-Serif" font-size="10.00">chrono</text>
</g>
<!-- Node0&#45;&gt;Node2 -->
<g id="edge2" class="edge"><title>Node0&#45;&gt;Node2</title>
<path fill="none" stroke="midnightblue" d="M395.996,-357.537C326.556,-354.635 219.512,-344.916 132.143,-314 87.9505,-298.362 73.9599,-293.427 42.1431,-259 14.9191,-229.543 -15.4562,-206.682 9.14306,-175 26.2184,-153.008 104.149,-140.043 149.718,-134.213"/>
<polygon fill="midnightblue" stroke="midnightblue" points="150.237,-137.676 159.734,-132.98 149.381,-130.729 150.237,-137.676"/>
</g>
<!-- Node3 -->
<g id="node4" class="node"><title>Node3</title>
<polygon fill="none" stroke="#bfbfbf" points="1324.74,-60.5 1324.74,-78.5 1383.54,-78.5 1383.54,-60.5 1324.74,-60.5"/>
<text text-anchor="middle" x="1354.14" y="-66.5" font-family="Helvetica,sans-Serif" font-size="10.00">stdexcept</text>
</g>
<!-- Node0&#45;&gt;Node3 -->
<g id="edge3" class="edge"><title>Node0&#45;&gt;Node3</title>
<path fill="none" stroke="midnightblue" d="M540.293,-357.042C754.696,-351.762 1373.14,-329.271 1373.14,-245.5 1373.14,-245.5 1373.14,-245.5 1373.14,-183.5 1373.14,-149.464 1364.66,-110.449 1359.03,-88.3131"/>
<polygon fill="midnightblue" stroke="midnightblue" points="1362.41,-87.4189 1356.47,-78.6444 1355.64,-89.2067 1362.41,-87.4189"/>
</g>
<!-- Node4 -->
<g id="node5" class="node"><title>Node4</title>
<polygon fill="none" stroke="#bfbfbf" points="1211.21,-230.5 1211.21,-258.5 1345.07,-258.5 1345.07,-230.5 1211.21,-230.5"/>
<text text-anchor="start" x="1219.21" y="-246.5" font-family="Helvetica,sans-Serif" font-size="10.00">boost/exception/diagnostic</text>
<text text-anchor="middle" x="1278.14" y="-236.5" font-family="Helvetica,sans-Serif" font-size="10.00">_information.hpp</text>
</g>
<!-- Node0&#45;&gt;Node4 -->
<g id="edge4" class="edge"><title>Node0&#45;&gt;Node4</title>
<path fill="none" stroke="midnightblue" d="M531.616,-350.477C658.309,-334.321 951.501,-296.225 1197.14,-259 1198.41,-258.808 1199.69,-258.612 1200.98,-258.414"/>
<polygon fill="midnightblue" stroke="midnightblue" points="1201.64,-261.853 1210.98,-256.85 1200.56,-254.937 1201.64,-261.853"/>
</g>
<!-- Node5 -->
<g id="node6" class="node"><title>Node5</title>
<g id="a_node6"><a xlink:href="loggers_8h.html" target="_top" xlink:title="Utilities for logging messages. ">
<polygon fill="none" stroke="black" points="852.885,-235.5 852.885,-253.5 993.401,-253.5 993.401,-235.5 852.885,-235.5"/>
<text text-anchor="middle" x="923.143" y="-241.5" font-family="Helvetica,sans-Serif" font-size="10.00">tomographer/tools/loggers.h</text>
</a>
</g>
</g>
<!-- Node0&#45;&gt;Node5 -->
<g id="edge5" class="edge"><title>Node0&#45;&gt;Node5</title>
<path fill="none" stroke="midnightblue" d="M517.153,-350.473C563.739,-342.491 635.623,-329.258 697.143,-314 766.548,-296.786 846.285,-271.232 890.059,-256.692"/>
<polygon fill="midnightblue" stroke="midnightblue" points="891.234,-259.99 899.612,-253.504 889.018,-253.35 891.234,-259.99"/>
</g>
<!-- Node24 -->
<g id="node25" class="node"><title>Node24</title>
<g id="a_node25"><a xlink:href="cxxutil_8h.html" target="_top" xlink:title="Some C++ utilities, with a tad of C++11 tricks. ">
<polygon fill="none" stroke="black" points="388.392,-120.5 388.392,-138.5 523.894,-138.5 523.894,-120.5 388.392,-120.5"/>
<text text-anchor="middle" x="456.143" y="-126.5" font-family="Helvetica,sans-Serif" font-size="10.00">tomographer/tools/cxxutil.h</text>
</a>
</g>
</g>
<!-- Node0&#45;&gt;Node24 -->
<g id="edge47" class="edge"><title>Node0&#45;&gt;Node24</title>
<path fill="none" stroke="midnightblue" d="M467.716,-350.385C465.999,-317.769 459.577,-195.739 457.113,-148.934"/>
<polygon fill="midnightblue" stroke="midnightblue" points="460.598,-148.558 456.578,-138.756 453.608,-148.926 460.598,-148.558"/>
</g>
<!-- Node31 -->
<g id="node32" class="node"><title>Node31</title>
<g id="a_node32"><a xlink:href="needownoperatornew_8h.html" target="_top" xlink:title="Managing the need for specific overrides to operator new() for some types (especially Eigen types) ...">
<polygon fill="none" stroke="black" points="236.466,-175.5 236.466,-193.5 439.82,-193.5 439.82,-175.5 236.466,-175.5"/>
<text text-anchor="middle" x="338.143" y="-181.5" font-family="Helvetica,sans-Serif" font-size="10.00">tomographer/tools/needownoperatornew.h</text>
</a>
</g>
</g>
<!-- Node0&#45;&gt;Node31 -->
<g id="edge48" class="edge"><title>Node0&#45;&gt;Node31</title>
<path fill="none" stroke="midnightblue" d="M461.873,-350.156C441.581,-323.152 377.448,-237.806 350.383,-201.789"/>
<polygon fill="midnightblue" stroke="midnightblue" points="353.156,-199.652 344.35,-193.76 347.56,-203.857 353.156,-199.652"/>
</g>
<!-- Node33 -->
<g id="node34" class="node"><title>Node33</title>
<g id="a_node34"><a xlink:href="multiproc_8h.html" target="_top" xlink:title="Some common definitions for multiprocessing interfaces. ">
<polygon fill="none" stroke="black" points="69.9512,-235.5 69.9512,-253.5 194.335,-253.5 194.335,-235.5 69.9512,-235.5"/>
<text text-anchor="middle" x="132.143" y="-241.5" font-family="Helvetica,sans-Serif" font-size="10.00">tomographer/multiproc.h</text>
</a>
</g>
</g>
<!-- Node0&#45;&gt;Node33 -->
<g id="edge52" class="edge"><title>Node0&#45;&gt;Node33</title>
<path fill="none" stroke="midnightblue" d="M444.248,-350.464C385.495,-330.705 233.84,-279.702 165.916,-256.858"/>
<polygon fill="midnightblue" stroke="midnightblue" points="166.735,-253.441 156.141,-253.571 164.504,-260.076 166.735,-253.441"/>
</g>
<!-- Node34 -->
<g id="node35" class="node"><title>Node34</title>
<g id="a_node35"><a xlink:href="multiprocthreadcommon_8h.html" target="_top" xlink:title="Basic multiprocessing templates for thread&#45;based Tomographer::MultiProc implementations. ">
<polygon fill="none" stroke="black" points="496.602,-295.5 496.602,-313.5 687.685,-313.5 687.685,-295.5 496.602,-295.5"/>
<text text-anchor="middle" x="592.143" y="-301.5" font-family="Helvetica,sans-Serif" font-size="10.00">tomographer/multiprocthreadcommon.h</text>
</a>
</g>
</g>
<!-- Node0&#45;&gt;Node34 -->
<g id="edge59" class="edge"><title>Node0&#45;&gt;Node34</title>
<path fill="none" stroke="midnightblue" d="M486.976,-350.45C507.369,-341.734 540.132,-327.731 563.672,-317.669"/>
<polygon fill="midnightblue" stroke="midnightblue" points="565.313,-320.774 573.133,-313.625 562.562,-314.337 565.313,-320.774"/>
</g>
<!-- Node6 -->
<g id="node7" class="node"><title>Node6</title>
<polygon fill="none" stroke="#bfbfbf" points="870.082,-120.5 870.082,-138.5 912.205,-138.5 912.205,-120.5 870.082,-120.5"/>
<text text-anchor="middle" x="891.143" y="-126.5" font-family="Helvetica,sans-Serif" font-size="10.00">cstdio</text>
</g>
<!-- Node5&#45;&gt;Node6 -->
<g id="edge6" class="edge"><title>Node5&#45;&gt;Node6</title>
<path fill="none" stroke="midnightblue" d="M915.322,-235.197C907.214,-225.967 895.052,-210.212 890.143,-194 885.646,-179.146 886.396,-161.428 887.984,-148.487"/>
<polygon fill="midnightblue" stroke="midnightblue" points="891.454,-148.946 889.483,-138.536 884.532,-147.903 891.454,-148.946"/>
</g>
<!-- Node7 -->
<g id="node8" class="node"><title>Node7</title>
<polygon fill="none" stroke="#bfbfbf" points="803.747,-120.5 803.747,-138.5 852.54,-138.5 852.54,-120.5 803.747,-120.5"/>
<text text-anchor="middle" x="828.143" y="-126.5" font-family="Helvetica,sans-Serif" font-size="10.00">cstdarg</text>
</g>
<!-- Node5&#45;&gt;Node7 -->
<g id="edge7" class="edge"><title>Node5&#45;&gt;Node7</title>
<path fill="none" stroke="midnightblue" d="M916.311,-235.373C900.7,-216.804 862.18,-170.986 841.606,-146.513"/>
<polygon fill="midnightblue" stroke="midnightblue" points="844.027,-143.955 834.913,-138.553 838.669,-148.46 844.027,-143.955"/>
</g>
<!-- Node8 -->
<g id="node9" class="node"><title>Node8</title>
<polygon fill="none" stroke="#bfbfbf" points="1039.92,-0.5 1039.92,-18.5 1080.37,-18.5 1080.37,-0.5 1039.92,-0.5"/>
<text text-anchor="middle" x="1060.14" y="-6.5" font-family="Helvetica,sans-Serif" font-size="10.00">string</text>
</g>
<!-- Node5&#45;&gt;Node8 -->
<g id="edge8" class="edge"><title>Node5&#45;&gt;Node8</title>
<path fill="none" stroke="midnightblue" d="M993.572,-243.443C1081.56,-241.699 1224.68,-232.776 1258.14,-194 1303.08,-141.936 1245.42,-95.9213 1190.14,-55 1160.22,-32.8485 1118.47,-21.1671 1090.43,-15.4227"/>
<polygon fill="midnightblue" stroke="midnightblue" points="1090.89,-11.9469 1080.41,-13.5023 1089.57,-18.8218 1090.89,-11.9469"/>
</g>
<!-- Node9 -->
<g id="node10" class="node"><title>Node9</title>
<polygon fill="none" stroke="#bfbfbf" points="930.362,-120.5 930.362,-138.5 981.924,-138.5 981.924,-120.5 930.362,-120.5"/>
<text text-anchor="middle" x="956.143" y="-126.5" font-family="Helvetica,sans-Serif" font-size="10.00">sstream</text>
</g>
<!-- Node5&#45;&gt;Node9 -->
<g id="edge9" class="edge"><title>Node5&#45;&gt;Node9</title>
<path fill="none" stroke="midnightblue" d="M922.483,-235.239C921.71,-222.113 921.299,-195.845 928.143,-175 931.453,-164.918 937.531,-154.817 943.18,-146.792"/>
<polygon fill="midnightblue" stroke="midnightblue" points="946.025,-148.832 949.206,-138.726 940.417,-144.643 946.025,-148.832"/>
</g>
<!-- Node10 -->
<g id="node11" class="node"><title>Node10</title>
<polygon fill="none" stroke="#bfbfbf" points="928.971,-60.5 928.971,-78.5 983.315,-78.5 983.315,-60.5 928.971,-60.5"/>
<text text-anchor="middle" x="956.143" y="-66.5" font-family="Helvetica,sans-Serif" font-size="10.00">iostream</text>
</g>
<!-- Node5&#45;&gt;Node10 -->
<g id="edge10" class="edge"><title>Node5&#45;&gt;Node10</title>
<path fill="none" stroke="midnightblue" d="M936.425,-235.39C957.632,-222.471 1000.49,-196.482 1037.14,-175 1064.97,-158.694 1083.96,-166.893 1100.14,-139 1104.38,-131.696 1105.05,-126.873 1100.14,-120 1087.49,-102.272 1031.47,-86.858 993.148,-78.1237"/>
<polygon fill="midnightblue" stroke="midnightblue" points="993.863,-74.6974 983.342,-75.9453 992.345,-81.5308 993.863,-74.6974"/>
</g>
<!-- Node11 -->
<g id="node12" class="node"><title>Node11</title>
<polygon fill="none" stroke="#bfbfbf" points="999.739,-120.5 999.739,-138.5 1058.55,-138.5 1058.55,-120.5 999.739,-120.5"/>
<text text-anchor="middle" x="1029.14" y="-126.5" font-family="Helvetica,sans-Serif" font-size="10.00">functional</text>
</g>
<!-- Node5&#45;&gt;Node11 -->
<g id="edge11" class="edge"><title>Node5&#45;&gt;Node11</title>
<path fill="none" stroke="midnightblue" d="M927.002,-235.19C933.623,-221.531 948.185,-193.963 966.143,-175 977.702,-162.795 993.073,-151.859 1005.74,-143.883"/>
<polygon fill="midnightblue" stroke="midnightblue" points="1007.66,-146.809 1014.39,-138.622 1004.03,-140.828 1007.66,-146.809"/>
</g>
<!-- Node12 -->
<g id="node13" class="node"><title>Node12</title>
<polygon fill="none" stroke="#bfbfbf" points="198.077,-60.5 198.077,-78.5 260.209,-78.5 260.209,-60.5 198.077,-60.5"/>
<text text-anchor="middle" x="229.143" y="-66.5" font-family="Helvetica,sans-Serif" font-size="10.00">type_traits</text>
</g>
<!-- Node5&#45;&gt;Node12 -->
<g id="edge12" class="edge"><title>Node5&#45;&gt;Node12</title>
<path fill="none" stroke="midnightblue" d="M852.877,-236.232C747.684,-223.972 544.005,-194.865 379.143,-139 361.26,-132.94 358.228,-128.041 341.143,-120 312.994,-106.751 280.428,-92.474 257.693,-82.6735"/>
<polygon fill="midnightblue" stroke="midnightblue" points="258.862,-79.3663 248.292,-78.6346 256.099,-85.7979 258.862,-79.3663"/>
</g>
<!-- Node13 -->
<g id="node14" class="node"><title>Node13</title>
<polygon fill="none" stroke="#bfbfbf" points="1046.42,-175.5 1046.42,-193.5 1081.87,-193.5 1081.87,-175.5 1046.42,-175.5"/>
<text text-anchor="middle" x="1064.14" y="-181.5" font-family="Helvetica,sans-Serif" font-size="10.00">map</text>
</g>
<!-- Node5&#45;&gt;Node13 -->
<g id="edge13" class="edge"><title>Node5&#45;&gt;Node13</title>
<path fill="none" stroke="midnightblue" d="M942.749,-235.435C967.145,-225.4 1008.95,-208.203 1036.57,-196.842"/>
<polygon fill="midnightblue" stroke="midnightblue" points="1038.13,-199.986 1046.04,-192.945 1035.46,-193.513 1038.13,-199.986"/>
</g>
<!-- Node14 -->
<g id="node15" class="node"><title>Node14</title>
<polygon fill="none" stroke="#bfbfbf" points="1099.61,-175.5 1099.61,-193.5 1230.67,-193.5 1230.67,-175.5 1099.61,-175.5"/>
<text text-anchor="middle" x="1165.14" y="-181.5" font-family="Helvetica,sans-Serif" font-size="10.00">boost/algorithm/string.hpp</text>
</g>
<!-- Node5&#45;&gt;Node14 -->
<g id="edge14" class="edge"><title>Node5&#45;&gt;Node14</title>
<path fill="none" stroke="midnightblue" d="M956.538,-235.496C999.542,-225.189 1074.37,-207.256 1121.74,-195.902"/>
<polygon fill="midnightblue" stroke="midnightblue" points="1122.79,-199.249 1131.7,-193.515 1121.16,-192.442 1122.79,-199.249"/>
</g>
<!-- Node15 -->
<g id="node16" class="node"><title>Node15</title>
<g id="a_node16"><a xlink:href="cxxdefs_8h.html" target="_top" xlink:title="Basic definitions, which may have to be defined before any Eigen headers or further utilities are inc...">
<polygon fill="none" stroke="black" points="769.333,-60.5 769.333,-78.5 910.953,-78.5 910.953,-60.5 769.333,-60.5"/>
<text text-anchor="middle" x="840.143" y="-66.5" font-family="Helvetica,sans-Serif" font-size="10.00">tomographer/tools/cxxdefs.h</text>
</a>
</g>
</g>
<!-- Node5&#45;&gt;Node15 -->
<g id="edge15" class="edge"><title>Node5&#45;&gt;Node15</title>
<path fill="none" stroke="midnightblue" d="M931.425,-235.275C945.305,-221.74 974.469,-194.344 1002.14,-175 1029.21,-156.08 1050.38,-167.451 1067.14,-139 1071.43,-131.725 1072.44,-126.577 1067.14,-120 1061.65,-113.179 959.095,-92.8239 893.73,-80.4421"/>
<polygon fill="midnightblue" stroke="midnightblue" points="894.055,-76.9417 883.579,-78.5267 892.757,-83.8203 894.055,-76.9417"/>
</g>
<!-- Node20 -->
<g id="node21" class="node"><title>Node20</title>
<g id="a_node21"><a xlink:href="fmt_8h.html" target="_top" xlink:title="Utilities for formatting strings. ">
<polygon fill="none" stroke="black" points="677.34,-175.5 677.34,-193.5 798.946,-193.5 798.946,-175.5 677.34,-175.5"/>
<text text-anchor="middle" x="738.143" y="-181.5" font-family="Helvetica,sans-Serif" font-size="10.00">tomographer/tools/fmt.h</text>
</a>
</g>
</g>
<!-- Node5&#45;&gt;Node20 -->
<g id="edge20" class="edge"><title>Node5&#45;&gt;Node20</title>
<path fill="none" stroke="midnightblue" d="M897.42,-235.435C865.203,-225.335 809.846,-207.98 773.621,-196.623"/>
<polygon fill="midnightblue" stroke="midnightblue" points="774.535,-193.241 763.946,-193.589 772.441,-199.921 774.535,-193.241"/>
</g>
<!-- Node27 -->
<g id="node28" class="node"><title>Node27</title>
<g id="a_node28"><a xlink:href="conststr_8h.html" target="_top" xlink:title="A constexpr string type, suitable for basic compile&#45;time string processing. ">
<polygon fill="none" stroke="black" points="1039.05,-60.5 1039.05,-78.5 1181.23,-78.5 1181.23,-60.5 1039.05,-60.5"/>
<text text-anchor="middle" x="1110.14" y="-66.5" font-family="Helvetica,sans-Serif" font-size="10.00">tomographer/tools/conststr.h</text>
</a>
</g>
</g>
<!-- Node5&#45;&gt;Node27 -->
<g id="edge46" class="edge"><title>Node5&#45;&gt;Node27</title>
<path fill="none" stroke="midnightblue" d="M993.439,-242.753C1076.99,-240.199 1209.04,-230.339 1240.14,-194 1278.29,-149.435 1189.84,-103.563 1140.5,-82.4535"/>
<polygon fill="midnightblue" stroke="midnightblue" points="1141.78,-79.1945 1131.2,-78.5696 1139.08,-85.6536 1141.78,-79.1945"/>
</g>
<!-- Node16 -->
<g id="node17" class="node"><title>Node16</title>
<polygon fill="none" stroke="#bfbfbf" points="457.027,-0.5 457.027,-18.5 505.259,-18.5 505.259,-0.5 457.027,-0.5"/>
<text text-anchor="middle" x="481.143" y="-6.5" font-family="Helvetica,sans-Serif" font-size="10.00">cassert</text>
</g>
<!-- Node15&#45;&gt;Node16 -->
<g id="edge16" class="edge"><title>Node15&#45;&gt;Node16</title>
<path fill="none" stroke="midnightblue" d="M793.79,-60.4861C783.073,-58.6591 771.714,-56.7432 761.143,-55 672.772,-40.4274 568.564,-24.0883 515.68,-15.8565"/>
<polygon fill="midnightblue" stroke="midnightblue" points="515.922,-12.3521 505.503,-14.2738 514.846,-19.269 515.922,-12.3521"/>
</g>
<!-- Node17 -->
<g id="node18" class="node"><title>Node17</title>
<polygon fill="none" stroke="#bfbfbf" points="363.022,-0.5 363.022,-18.5 411.264,-18.5 411.264,-0.5 363.022,-0.5"/>
<text text-anchor="middle" x="387.143" y="-6.5" font-family="Helvetica,sans-Serif" font-size="10.00">cstddef</text>
</g>
<!-- Node15&#45;&gt;Node17 -->
<g id="edge17" class="edge"><title>Node15&#45;&gt;Node17</title>
<path fill="none" stroke="midnightblue" d="M795.506,-60.4335C784.306,-58.5304 772.3,-56.5937 761.143,-55 622.522,-35.1991 587.053,-36.664 448.143,-19 439.546,-17.9068 430.279,-16.6539 421.627,-15.4519"/>
<polygon fill="midnightblue" stroke="midnightblue" points="421.855,-11.9497 411.466,-14.0252 420.882,-18.8817 421.855,-11.9497"/>
</g>
<!-- Node18 -->
<g id="node19" class="node"><title>Node18</title>
<polygon fill="none" stroke="#bfbfbf" points="594.971,-0.5 594.971,-18.5 639.315,-18.5 639.315,-0.5 594.971,-0.5"/>
<text text-anchor="middle" x="617.143" y="-6.5" font-family="Helvetica,sans-Serif" font-size="10.00">cstdlib</text>
</g>
<!-- Node15&#45;&gt;Node18 -->
<g id="edge18" class="edge"><title>Node15&#45;&gt;Node18</title>
<path fill="none" stroke="midnightblue" d="M809.136,-60.4353C767.012,-49.4795 692.07,-29.9876 649.339,-18.8738"/>
<polygon fill="midnightblue" stroke="midnightblue" points="650.022,-15.435 639.462,-16.3051 648.259,-22.2096 650.022,-15.435"/>
</g>
<!-- Node19 -->
<g id="node20" class="node"><title>Node19</title>
<polygon fill="none" stroke="#bfbfbf" points="800.175,-0.5 800.175,-18.5 880.111,-18.5 880.111,-0.5 800.175,-0.5"/>
<text text-anchor="middle" x="840.143" y="-6.5" font-family="Helvetica,sans-Serif" font-size="10.00">boost/predef.h</text>
</g>
<!-- Node15&#45;&gt;Node19 -->
<g id="edge19" class="edge"><title>Node15&#45;&gt;Node19</title>
<path fill="none" stroke="midnightblue" d="M840.143,-60.4353C840.143,-52.3891 840.143,-39.7388 840.143,-29.1846"/>
<polygon fill="midnightblue" stroke="midnightblue" points="843.643,-28.8717 840.143,-18.8718 836.643,-28.8718 843.643,-28.8717"/>
</g>
<!-- Node20&#45;&gt;Node2 -->
<g id="edge23" class="edge"><title>Node20&#45;&gt;Node2</title>
<path fill="none" stroke="midnightblue" d="M677.218,-178.487C585.257,-170.791 405.536,-155.24 253.143,-139 241.213,-137.729 228.159,-136.185 216.59,-134.764"/>
<polygon fill="midnightblue" stroke="midnightblue" points="216.812,-131.265 206.457,-133.505 215.949,-138.211 216.812,-131.265"/>
</g>
<!-- Node20&#45;&gt;Node6 -->
<g id="edge21" class="edge"><title>Node20&#45;&gt;Node6</title>
<path fill="none" stroke="midnightblue" d="M761.38,-175.45C787.703,-166.332 830.727,-151.428 859.955,-141.304"/>
<polygon fill="midnightblue" stroke="midnightblue" points="861.364,-144.52 869.668,-137.939 859.073,-137.905 861.364,-144.52"/>
</g>
<!-- Node20&#45;&gt;Node7 -->
<g id="edge22" class="edge"><title>Node20&#45;&gt;Node7</title>
<path fill="none" stroke="midnightblue" d="M751.812,-175.45C766.085,-167.045 788.706,-153.724 805.623,-143.762"/>
<polygon fill="midnightblue" stroke="midnightblue" points="807.505,-146.716 814.345,-138.625 803.952,-140.684 807.505,-146.716"/>
</g>
<!-- Node20&#45;&gt;Node8 -->
<g id="edge24" class="edge"><title>Node20&#45;&gt;Node8</title>
<path fill="none" stroke="midnightblue" d="M742.927,-175.317C751.49,-161.469 770.837,-133.597 795.143,-120 872.821,-76.5482 914.14,-126.866 992.143,-84 1016.82,-70.4368 1037.5,-44.6063 1049.35,-27.4658"/>
<polygon fill="midnightblue" stroke="midnightblue" points="1052.38,-29.2356 1055,-18.9703 1046.55,-25.3598 1052.38,-29.2356"/>
</g>
<!-- Node20&#45;&gt;Node9 -->
<g id="edge25" class="edge"><title>Node20&#45;&gt;Node9</title>
<path fill="none" stroke="midnightblue" d="M771.253,-175.45C811.441,-165.68 878.955,-149.266 920.327,-139.208"/>
<polygon fill="midnightblue" stroke="midnightblue" points="921.359,-142.559 930.249,-136.795 919.705,-135.757 921.359,-142.559"/>
</g>
<!-- Node20&#45;&gt;Node10 -->
<g id="edge26" class="edge"><title>Node20&#45;&gt;Node10</title>
<path fill="none" stroke="midnightblue" d="M738.838,-175.083C740.435,-161.396 745.616,-134.4 762.143,-120 816.445,-72.6871 851.157,-104.691 920.143,-84 922.273,-83.3612 924.458,-82.66 926.648,-81.9236"/>
<polygon fill="midnightblue" stroke="midnightblue" points="927.875,-85.2019 936.124,-78.5527 925.529,-78.6068 927.875,-85.2019"/>
</g>
<!-- Node20&#45;&gt;Node11 -->
<g id="edge30" class="edge"><title>Node20&#45;&gt;Node11</title>
<path fill="none" stroke="midnightblue" d="M787.717,-175.472C836.621,-167.398 913.748,-154.251 989.518,-139.254"/>
<polygon fill="midnightblue" stroke="midnightblue" points="990.589,-142.609 999.713,-137.223 989.222,-135.744 990.589,-142.609"/>
</g>
<!-- Node21 -->
<g id="node22" class="node"><title>Node21</title>
<polygon fill="none" stroke="#bfbfbf" points="671.751,-120.5 671.751,-138.5 710.535,-138.5 710.535,-120.5 671.751,-120.5"/>
<text text-anchor="middle" x="691.143" y="-126.5" font-family="Helvetica,sans-Serif" font-size="10.00">utility</text>
</g>
<!-- Node20&#45;&gt;Node21 -->
<g id="edge27" class="edge"><title>Node20&#45;&gt;Node21</title>
<path fill="none" stroke="midnightblue" d="M730.799,-175.219C723.93,-167.473 713.491,-155.701 705.048,-146.18"/>
<polygon fill="midnightblue" stroke="midnightblue" points="707.535,-143.709 698.281,-138.55 702.298,-148.354 707.535,-143.709"/>
</g>
<!-- Node22 -->
<g id="node23" class="node"><title>Node22</title>
<polygon fill="none" stroke="#bfbfbf" points="541.527,-120.5 541.527,-138.5 584.759,-138.5 584.759,-120.5 541.527,-120.5"/>
<text text-anchor="middle" x="563.143" y="-126.5" font-family="Helvetica,sans-Serif" font-size="10.00">vector</text>
</g>
<!-- Node20&#45;&gt;Node22 -->
<g id="edge28" class="edge"><title>Node20&#45;&gt;Node22</title>
<path fill="none" stroke="midnightblue" d="M711.564,-175.45C680.196,-165.95 628.091,-150.17 594.701,-140.058"/>
<polygon fill="midnightblue" stroke="midnightblue" points="595.569,-136.663 584.983,-137.115 593.54,-143.363 595.569,-136.663"/>
</g>
<!-- Node23 -->
<g id="node24" class="node"><title>Node23</title>
<polygon fill="none" stroke="#bfbfbf" points="602.633,-120.5 602.633,-138.5 653.653,-138.5 653.653,-120.5 602.633,-120.5"/>
<text text-anchor="middle" x="628.143" y="-126.5" font-family="Helvetica,sans-Serif" font-size="10.00">iomanip</text>
</g>
<!-- Node20&#45;&gt;Node23 -->
<g id="edge29" class="edge"><title>Node20&#45;&gt;Node23</title>
<path fill="none" stroke="midnightblue" d="M721.436,-175.45C703.588,-166.851 675.059,-153.105 654.243,-143.075"/>
<polygon fill="midnightblue" stroke="midnightblue" points="655.535,-139.813 645.007,-138.625 652.497,-146.119 655.535,-139.813"/>
</g>
<!-- Node20&#45;&gt;Node24 -->
<g id="edge31" class="edge"><title>Node20&#45;&gt;Node24</title>
<path fill="none" stroke="midnightblue" d="M695.313,-175.45C645.374,-166.065 562.819,-150.549 508.954,-140.425"/>
<polygon fill="midnightblue" stroke="midnightblue" points="509.387,-136.946 498.913,-138.538 508.094,-143.825 509.387,-136.946"/>
</g>
<!-- Node24&#45;&gt;Node3 -->
<g id="edge39" class="edge"><title>Node24&#45;&gt;Node3</title>
<path fill="none" stroke="midnightblue" d="M524.077,-120.709C526.8,-120.458 529.497,-120.22 532.143,-120 824.016,-95.7135 897.946,-104.016 1190.14,-84 1232.58,-81.0931 1281.13,-77.0012 1314.32,-74.0858"/>
<polygon fill="midnightblue" stroke="midnightblue" points="1314.88,-77.5502 1324.53,-73.1836 1314.27,-70.5773 1314.88,-77.5502"/>
</g>
<!-- Node24&#45;&gt;Node10 -->
<g id="edge35" class="edge"><title>Node24&#45;&gt;Node10</title>
<path fill="none" stroke="midnightblue" d="M524.089,-120.837C526.809,-120.55 529.502,-120.27 532.143,-120 704.429,-102.375 751.348,-122.748 920.143,-84 922.648,-83.425 925.213,-82.7177 927.765,-81.9307"/>
<polygon fill="midnightblue" stroke="midnightblue" points="929.066,-85.1843 937.377,-78.6131 926.782,-78.5673 929.066,-85.1843"/>
</g>
<!-- Node24&#45;&gt;Node12 -->
<g id="edge37" class="edge"><title>Node24&#45;&gt;Node12</title>
<path fill="none" stroke="midnightblue" d="M420.774,-120.423C384,-111.892 324.833,-97.7907 274.143,-84 271.17,-83.191 268.094,-82.3268 265.01,-81.4412"/>
<polygon fill="midnightblue" stroke="midnightblue" points="265.833,-78.0353 255.252,-78.5816 263.864,-84.7527 265.833,-78.0353"/>
</g>
<!-- Node24&#45;&gt;Node15 -->
<g id="edge40" class="edge"><title>Node24&#45;&gt;Node15</title>
<path fill="none" stroke="midnightblue" d="M514.11,-120.471C575.513,-111.866 675.256,-97.6018 761.143,-84 768.596,-82.8196 776.437,-81.5335 784.167,-80.2393"/>
<polygon fill="midnightblue" stroke="midnightblue" points="784.945,-83.6576 794.223,-78.5417 783.78,-76.7553 784.945,-83.6576"/>
</g>
<!-- Node24&#45;&gt;Node16 -->
<g id="edge32" class="edge"><title>Node24&#45;&gt;Node16</title>
<path fill="none" stroke="midnightblue" d="M449.911,-120.124C440.401,-106.246 424.35,-77.7573 434.143,-55 439.365,-42.8654 449.702,-32.4913 459.356,-24.8198"/>
<polygon fill="midnightblue" stroke="midnightblue" points="461.549,-27.5512 467.518,-18.7975 457.393,-21.9186 461.549,-27.5512"/>
</g>
<!-- Node24&#45;&gt;Node17 -->
<g id="edge33" class="edge"><title>Node24&#45;&gt;Node17</title>
<path fill="none" stroke="midnightblue" d="M407.653,-120.432C368.972,-112.891 319.32,-100.345 307.143,-84 299.443,-73.6641 300.61,-66.1103 307.143,-55 317.11,-38.0507 336.128,-27.0906 353.121,-20.2893"/>
<polygon fill="midnightblue" stroke="midnightblue" points="354.615,-23.4696 362.808,-16.7516 352.214,-16.8944 354.615,-23.4696"/>
</g>
<!-- Node24&#45;&gt;Node18 -->
<g id="edge34" class="edge"><title>Node24&#45;&gt;Node18</title>
<path fill="none" stroke="midnightblue" d="M454.753,-120.053C452.792,-105.028 451.062,-73.5033 467.143,-55 496.533,-21.1838 550.318,-12.4701 584.863,-10.5497"/>
<polygon fill="midnightblue" stroke="midnightblue" points="585.064,-14.0446 594.918,-10.1516 584.787,-7.05007 585.064,-14.0446"/>
</g>
<!-- Node25 -->
<g id="node26" class="node"><title>Node25</title>
<polygon fill="none" stroke="#bfbfbf" points="476.525,-60.5 476.525,-78.5 529.761,-78.5 529.761,-60.5 476.525,-60.5"/>
<text text-anchor="middle" x="503.143" y="-66.5" font-family="Helvetica,sans-Serif" font-size="10.00">complex</text>
</g>
<!-- Node24&#45;&gt;Node25 -->
<g id="edge36" class="edge"><title>Node24&#45;&gt;Node25</title>
<path fill="none" stroke="midnightblue" d="M462.678,-120.435C469.684,-111.79 480.997,-97.8292 489.882,-86.8643"/>
<polygon fill="midnightblue" stroke="midnightblue" points="492.782,-88.8447 496.359,-78.8718 487.344,-84.4376 492.782,-88.8447"/>
</g>
<!-- Node26 -->
<g id="node27" class="node"><title>Node26</title>
<polygon fill="none" stroke="#bfbfbf" points="121.739,-60.5 121.739,-78.5 180.547,-78.5 180.547,-60.5 121.739,-60.5"/>
<text text-anchor="middle" x="151.143" y="-66.5" font-family="Helvetica,sans-Serif" font-size="10.00">exception</text>
</g>
<!-- Node24&#45;&gt;Node26 -->
<g id="edge38" class="edge"><title>Node24&#45;&gt;Node26</title>
<path fill="none" stroke="midnightblue" d="M388.244,-120.545C333.865,-113.371 255.906,-101.279 189.143,-84 186.652,-83.3553 184.093,-82.6176 181.537,-81.8267"/>
<polygon fill="midnightblue" stroke="midnightblue" points="182.437,-78.4375 171.844,-78.5979 180.225,-85.0787 182.437,-78.4375"/>
</g>
<!-- Node24&#45;&gt;Node27 -->
<g id="edge41" class="edge"><title>Node24&#45;&gt;Node27</title>
<path fill="none" stroke="midnightblue" d="M524.084,-120.788C526.805,-120.515 529.5,-120.251 532.143,-120 736.293,-100.601 788.018,-103.658 992.143,-84 1005.6,-82.7037 1019.91,-81.1856 1033.75,-79.6444"/>
<polygon fill="midnightblue" stroke="midnightblue" points="1034.18,-83.1183 1043.72,-78.5209 1033.39,-76.1623 1034.18,-83.1183"/>
</g>
<!-- Node28 -->
<g id="node29" class="node"><title>Node28</title>
<polygon fill="none" stroke="#bfbfbf" points="547.673,-60.5 547.673,-78.5 642.613,-78.5 642.613,-60.5 547.673,-60.5"/>
<text text-anchor="middle" x="595.143" y="-66.5" font-family="Helvetica,sans-Serif" font-size="10.00">boost/version.hpp</text>
</g>
<!-- Node24&#45;&gt;Node28 -->
<g id="edge43" class="edge"><title>Node24&#45;&gt;Node28</title>
<path fill="none" stroke="midnightblue" d="M475.47,-120.435C498.989,-110.622 538.922,-93.9593 566.135,-82.604"/>
<polygon fill="midnightblue" stroke="midnightblue" points="567.651,-85.7641 575.532,-78.6831 564.955,-79.304 567.651,-85.7641"/>
</g>
<!-- Node29 -->
<g id="node30" class="node"><title>Node29</title>
<polygon fill="none" stroke="#bfbfbf" points="660.619,-55.5 660.619,-83.5 751.667,-83.5 751.667,-55.5 660.619,-55.5"/>
<text text-anchor="start" x="668.619" y="-71.5" font-family="Helvetica,sans-Serif" font-size="10.00">boost/units/detail</text>
<text text-anchor="middle" x="706.143" y="-61.5" font-family="Helvetica,sans-Serif" font-size="10.00">/utility.hpp</text>
</g>
<!-- Node24&#45;&gt;Node29 -->
<g id="edge44" class="edge"><title>Node24&#45;&gt;Node29</title>
<path fill="none" stroke="midnightblue" d="M492.124,-120.474C529.296,-112.141 589.248,-98.5881 650.671,-84.0891"/>
<polygon fill="midnightblue" stroke="midnightblue" points="651.613,-87.463 660.538,-81.7546 650.001,-80.651 651.613,-87.463"/>
</g>
<!-- Node30 -->
<g id="node31" class="node"><title>Node30</title>
<polygon fill="none" stroke="#bfbfbf" points="316.128,-60.5 316.128,-78.5 382.158,-78.5 382.158,-60.5 316.128,-60.5"/>
<text text-anchor="middle" x="349.143" y="-66.5" font-family="Helvetica,sans-Serif" font-size="10.00">Eigen/Core</text>
</g>
<!-- Node24&#45;&gt;Node30 -->
<g id="edge45" class="edge"><title>Node24&#45;&gt;Node30</title>
<path fill="none" stroke="midnightblue" d="M441.265,-120.435C423.637,-110.88 394.03,-94.8315 373.147,-83.5113"/>
<polygon fill="midnightblue" stroke="midnightblue" points="374.699,-80.3716 364.24,-78.6831 371.363,-86.5257 374.699,-80.3716"/>
</g>
<!-- Node27&#45;&gt;Node8 -->
<g id="edge42" class="edge"><title>Node27&#45;&gt;Node8</title>
<path fill="none" stroke="midnightblue" d="M1103.19,-60.4353C1095.66,-51.7043 1083.46,-37.5523 1073.97,-26.5395"/>
<polygon fill="midnightblue" stroke="midnightblue" points="1076.54,-24.1606 1067.36,-18.8718 1071.24,-28.7312 1076.54,-24.1606"/>
</g>
<!-- Node31&#45;&gt;Node12 -->
<g id="edge49" class="edge"><title>Node31&#45;&gt;Node12</title>
<path fill="none" stroke="midnightblue" d="M311.393,-175.385C292.727,-168.464 268.501,-156.769 253.143,-139 240.798,-124.717 234.683,-103.693 231.733,-88.7078"/>
<polygon fill="midnightblue" stroke="midnightblue" points="235.151,-87.9212 230.044,-78.638 228.247,-89.0792 235.151,-87.9212"/>
</g>
<!-- Node31&#45;&gt;Node24 -->
<g id="edge51" class="edge"><title>Node31&#45;&gt;Node24</title>
<path fill="none" stroke="midnightblue" d="M356.065,-175.45C375.384,-166.773 406.37,-152.856 428.749,-142.804"/>
<polygon fill="midnightblue" stroke="midnightblue" points="430.365,-145.915 438.053,-138.625 427.497,-139.53 430.365,-145.915"/>
</g>
<!-- Node32 -->
<g id="node33" class="node"><title>Node32</title>
<polygon fill="none" stroke="#bfbfbf" points="262.178,-120.5 262.178,-138.5 332.108,-138.5 332.108,-120.5 262.178,-120.5"/>
<text text-anchor="middle" x="297.143" y="-126.5" font-family="Helvetica,sans-Serif" font-size="10.00">Eigen/Eigen</text>
</g>
<!-- Node31&#45;&gt;Node32 -->
<g id="edge50" class="edge"><title>Node31&#45;&gt;Node32</title>
<path fill="none" stroke="midnightblue" d="M331.737,-175.219C325.805,-167.551 316.822,-155.939 309.497,-146.469"/>
<polygon fill="midnightblue" stroke="midnightblue" points="312.257,-144.318 303.37,-138.55 306.72,-148.601 312.257,-144.318"/>
</g>
<!-- Node33&#45;&gt;Node1 -->
<g id="edge53" class="edge"><title>Node33&#45;&gt;Node1</title>
<path fill="none" stroke="midnightblue" d="M119.629,-235.435C105.069,-226.052 80.793,-210.408 63.2895,-199.128"/>
<polygon fill="midnightblue" stroke="midnightblue" points="65.1427,-196.158 54.841,-193.683 61.3508,-202.042 65.1427,-196.158"/>
</g>
<!-- Node33&#45;&gt;Node2 -->
<g id="edge55" class="edge"><title>Node33&#45;&gt;Node2</title>
<path fill="none" stroke="midnightblue" d="M135.811,-235.373C144.045,-217.13 164.149,-172.585 175.326,-147.821"/>
<polygon fill="midnightblue" stroke="midnightblue" points="178.585,-149.108 179.509,-138.553 172.205,-146.228 178.585,-149.108"/>
</g>
<!-- Node33&#45;&gt;Node8 -->
<g id="edge54" class="edge"><title>Node33&#45;&gt;Node8</title>
<path fill="none" stroke="midnightblue" d="M127.523,-235.303C111.778,-206.171 63.8569,-106.626 113.143,-55 142.945,-23.784 846.035,-21.0713 889.143,-19 938.304,-16.6379 995.408,-13.7754 1029.61,-12.0481"/>
<polygon fill="midnightblue" stroke="midnightblue" points="1030.06,-15.5298 1039.88,-11.5292 1029.71,-8.53873 1030.06,-15.5298"/>
</g>
<!-- Node33&#45;&gt;Node20 -->
<g id="edge57" class="edge"><title>Node33&#45;&gt;Node20</title>
<path fill="none" stroke="midnightblue" d="M194.43,-237.539C307.86,-226.682 547.42,-203.754 667.048,-192.304"/>
<polygon fill="midnightblue" stroke="midnightblue" points="667.575,-195.77 677.196,-191.333 666.908,-188.802 667.575,-195.77"/>
</g>
<!-- Node33&#45;&gt;Node26 -->
<g id="edge56" class="edge"><title>Node33&#45;&gt;Node26</title>
<path fill="none" stroke="midnightblue" d="M133.059,-235.156C135.962,-208.724 145.004,-126.396 149.095,-89.1437"/>
<polygon fill="midnightblue" stroke="midnightblue" points="152.623,-89.0828 150.236,-78.7604 145.665,-88.3185 152.623,-89.0828"/>
</g>
<!-- Node33&#45;&gt;Node31 -->
<g id="edge58" class="edge"><title>Node33&#45;&gt;Node31</title>
<path fill="none" stroke="midnightblue" d="M160.786,-235.435C196.967,-225.249 259.356,-207.683 299.668,-196.333"/>
<polygon fill="midnightblue" stroke="midnightblue" points="300.734,-199.669 309.412,-193.589 298.837,-192.931 300.734,-199.669"/>
</g>
<!-- Node34&#45;&gt;Node2 -->
<g id="edge60" class="edge"><title>Node34&#45;&gt;Node2</title>
<path fill="none" stroke="midnightblue" d="M512.933,-295.456C433.937,-284.056 312.392,-257.029 227.143,-194 211.001,-182.066 198.694,-162.381 191.255,-148.087"/>
<polygon fill="midnightblue" stroke="midnightblue" points="194.257,-146.26 186.714,-138.82 187.972,-149.34 194.257,-146.26"/>
</g>
<!-- Node34&#45;&gt;Node3 -->
<g id="edge61" class="edge"><title>Node34&#45;&gt;Node3</title>
<path fill="none" stroke="midnightblue" d="M687.879,-298.731C853.676,-288.784 1185.43,-260.925 1278.14,-194 1315.46,-167.063 1338.24,-115.619 1348.21,-88.4056"/>
<polygon fill="midnightblue" stroke="midnightblue" points="1351.62,-89.2597 1351.61,-78.6648 1345.01,-86.9543 1351.62,-89.2597"/>
</g>
<!-- Node34&#45;&gt;Node4 -->
<g id="edge62" class="edge"><title>Node34&#45;&gt;Node4</title>
<path fill="none" stroke="midnightblue" d="M687.758,-299.181C807.231,-293.161 1017.81,-280.494 1197.14,-259 1198.42,-258.847 1199.7,-258.689 1200.99,-258.525"/>
<polygon fill="midnightblue" stroke="midnightblue" points="1201.58,-261.977 1211.03,-257.173 1200.65,-255.04 1201.58,-261.977"/>
</g>
<!-- Node34&#45;&gt;Node5 -->
<g id="edge63" class="edge"><title>Node34&#45;&gt;Node5</title>
<path fill="none" stroke="midnightblue" d="M637.82,-295.496C697.749,-284.995 802.86,-266.577 867.406,-255.267"/>
<polygon fill="midnightblue" stroke="midnightblue" points="868.158,-258.688 877.404,-253.515 866.95,-251.793 868.158,-258.688"/>
</g>
<!-- Node34&#45;&gt;Node24 -->
<g id="edge64" class="edge"><title>Node34&#45;&gt;Node24</title>
<path fill="none" stroke="midnightblue" d="M593.688,-295.177C595.903,-280.882 598.556,-251.164 587.143,-230 564.539,-188.083 515.801,-158.557 484.566,-143.064"/>
<polygon fill="midnightblue" stroke="midnightblue" points="486.012,-139.877 475.482,-138.709 482.986,-146.188 486.012,-139.877"/>
</g>
<!-- Node34&#45;&gt;Node31 -->
<g id="edge65" class="edge"><title>Node34&#45;&gt;Node31</title>
<path fill="none" stroke="midnightblue" d="M574.685,-295.389C530.987,-275.089 416.683,-221.987 364.639,-197.809"/>
<polygon fill="midnightblue" stroke="midnightblue" points="365.932,-194.55 355.388,-193.511 362.982,-200.899 365.932,-194.55"/>
</g>
<!-- Node34&#45;&gt;Node33 -->
<g id="edge66" class="edge"><title>Node34&#45;&gt;Node33</title>
<path fill="none" stroke="midnightblue" d="M510.305,-295.464C432.434,-287.475 312.064,-274.237 208.143,-259 200.498,-257.879 192.442,-256.578 184.547,-255.236"/>
<polygon fill="midnightblue" stroke="midnightblue" points="185.128,-251.784 174.677,-253.523 183.931,-258.681 185.128,-251.784"/>
</g>
<!-- Node35 -->
<g id="node36" class="node"><title>Node35</title>
<polygon fill="none" stroke="#bfbfbf" points="533.966,-235.5 533.966,-253.5 578.32,-253.5 578.32,-235.5 533.966,-235.5"/>
<text text-anchor="middle" x="556.143" y="-241.5" font-family="Helvetica,sans-Serif" font-size="10.00">thread</text>
</g>
<!-- Node34&#45;&gt;Node35 -->
<g id="edge67" class="edge"><title>Node34&#45;&gt;Node35</title>
<path fill="none" stroke="midnightblue" d="M587.137,-295.435C581.878,-286.961 573.448,-273.38 566.707,-262.519"/>
<polygon fill="midnightblue" stroke="midnightblue" points="569.587,-260.522 561.339,-253.872 563.639,-264.214 569.587,-260.522"/>
</g>
</g>
</svg>
