<?xml version="1.0" encoding="UTF-8" standalone="no"?>
<!DOCTYPE svg PUBLIC "-//W3C//DTD SVG 1.1//EN"
 "http://www.w3.org/Graphics/SVG/1.1/DTD/svg11.dtd">
<!-- Generated by graphviz version 2.38.0 (20140413.2041)
 -->
<!-- Title: tomographer/multiprocthreadcommon.h Pages: 1 -->
<svg width="328pt" height="82pt"
 viewBox="0.00 0.00 327.79 82.00" xmlns="http://www.w3.org/2000/svg" xmlns:xlink="http://www.w3.org/1999/xlink">
<g id="graph0" class="graph" transform="scale(1 1) rotate(0) translate(4 78)">
<title>tomographer/multiprocthreadcommon.h</title>
<!-- Node35 -->
<g id="node1" class="node"><title>Node35</title>
<polygon fill="#bfbfbf" stroke="black" points="60.377,-55.5 60.377,-73.5 251.46,-73.5 251.46,-55.5 60.377,-55.5"/>
<text text-anchor="middle" x="155.918" y="-61.5" font-family="Helvetica,sans-Serif" font-size="10.00">tomographer/multiprocthreadcommon.h</text>
</g>
<!-- Node36 -->
<g id="node2" class="node"><title>Node36</title>
<g id="a_node2"><a xlink:href="multiprocomp_8h.html" target="_top" xlink:title="Multiprocessing with OpenMP parallel multithreading. ">
<polygon fill="none" stroke="black" points="0,-0.5 0,-18.5 143.837,-18.5 143.837,-0.5 0,-0.5"/>
<text text-anchor="middle" x="71.9185" y="-6.5" font-family="Helvetica,sans-Serif" font-size="10.00">tomographer/multiprocomp.h</text>
</a>
</g>
</g>
<!-- Node35&#45;&gt;Node36 -->
<g id="edge1" class="edge"><title>Node35&#45;&gt;Node36</title>
<path fill="none" stroke="midnightblue" d="M134.603,-50.0507C118.894,-40.1393 98.0405,-26.9817 84.7963,-18.6253"/>
<polygon fill="midnightblue" stroke="midnightblue" points="132.836,-53.0743 143.161,-55.4504 136.571,-47.1542 132.836,-53.0743"/>
</g>
<!-- Node37 -->
<g id="node3" class="node"><title>Node37</title>
<g id="a_node3"><a xlink:href="multiprocthreads_8h.html" target="_top" xlink:title="Multiprocessing with native C++11 threads. ">
<polygon fill="none" stroke="black" points="162.049,-0.5 162.049,-18.5 319.788,-18.5 319.788,-0.5 162.049,-0.5"/>
<text text-anchor="middle" x="240.918" y="-6.5" font-family="Helvetica,sans-Serif" font-size="10.00">tomographer/multiprocthreads.h</text>
</a>
</g>
</g>
<!-- Node35&#45;&gt;Node37 -->
<g id="edge2" class="edge"><title>Node35&#45;&gt;Node37</title>
<path fill="none" stroke="midnightblue" d="M177.488,-50.0507C193.384,-40.1393 214.485,-26.9817 227.887,-18.6253"/>
<polygon fill="midnightblue" stroke="midnightblue" points="175.462,-47.1894 168.828,-55.4504 179.166,-53.1293 175.462,-47.1894"/>
</g>
</g>
</svg>
