<?xml version="1.0" encoding="UTF-8" standalone="no"?>
<!DOCTYPE svg PUBLIC "-//W3C//DTD SVG 1.1//EN"
 "http://www.w3.org/Graphics/SVG/1.1/DTD/svg11.dtd">
<!-- Generated by graphviz version 2.38.0 (20140413.2041)
 -->
<!-- Title: tomographer/tools/needownoperatornew.h Pages: 1 -->
<!--zoomable 352 -->
<svg id="main" version="1.1" xmlns="http://www.w3.org/2000/svg" xmlns:xlink="http://www.w3.org/1999/xlink" xml:space="preserve" onload="init(evt)">
<style type="text/css"><![CDATA[
.edge:hover path { stroke: red; }
.edge:hover polygon { stroke: red; fill: red; }
]]></style>
<script type="text/javascript"><![CDATA[
var edges = document.getElementsByTagName('g');
if (edges && edges.length) {
  for (var i=0;i<edges.length;i++) {
    if (edges[i].id.substr(0,4)=='edge') {
      edges[i].setAttribute('class','edge');
    }
  }
}
]]></script>
        <defs>
                <circle id="rim" cx="0" cy="0" r="7"/>
                <circle id="rim2" cx="0" cy="0" r="3.5"/>
                <g id="zoomPlus">
                        <use xlink:href="#rim" fill="#404040">
                                <set attributeName="fill" to="#808080" begin="zoomplus.mouseover" end="zoomplus.mouseout"/>
                        </use>
                        <path d="M-4,0h8M0,-4v8" fill="none" stroke="white" stroke-width="1.5" pointer-events="none"/>
                </g>
                <g id="zoomMin">
                        <use xlink:href="#rim" fill="#404040">
                                <set attributeName="fill" to="#808080" begin="zoomminus.mouseover" end="zoomminus.mouseout"/>
                        </use>
                        <path d="M-4,0h8" fill="none" stroke="white" stroke-width="1.5" pointer-events="none"/>
                </g>
                <g id="dirArrow">
                        <path fill="none" stroke="white" stroke-width="1.5" d="M0,-3.0v7 M-2.5,-0.5L0,-3.0L2.5,-0.5"/>
                </g>
               <g id="resetDef">
                       <use xlink:href="#rim2" fill="#404040">
                               <set attributeName="fill" to="#808080" begin="reset.mouseover" end="reset.mouseout"/>
                       </use>
               </g>
        </defs>

<script type="text/javascript">
var viewWidth = 2051;
var viewHeight = 352;
var sectionId = 'dynsection-1';
</script>
<script xlink:href="svgpan.js"/>
<svg id="graph" class="graph">
<g id="viewport">
<title>tomographer/tools/needownoperatornew.h</title>
<!-- Node18 -->
<g id="node1" class="node"><title>Node18</title>
<polygon fill="#bfbfbf" stroke="black" points="882.631,-325.5 882.631,-343.5 1085.98,-343.5 1085.98,-325.5 882.631,-325.5"/>
<text text-anchor="middle" x="984.308" y="-331.5" font-family="Helvetica,sans-Serif" font-size="10.00">tomographer/tools/needownoperatornew.h</text>
</g>
<!-- Node19 -->
<g id="node2" class="node"><title>Node19</title>
<g id="a_node2"><a xlink:href="indepmeasllh_8h.html" target="_top" xlink:title="C++ types and functions for calculating the log&#45;likelihood for independent measurements. ">
<polygon fill="none" stroke="black" points="0,-260.5 0,-288.5 116.615,-288.5 116.615,-260.5 0,-260.5"/>
<text text-anchor="start" x="8" y="-276.5" font-family="Helvetica,sans-Serif" font-size="10.00">tomographer/densedm</text>
<text text-anchor="middle" x="58.3076" y="-266.5" font-family="Helvetica,sans-Serif" font-size="10.00">/indepmeasllh.h</text>
</a>
</g>
</g>
<!-- Node18&#45;&gt;Node19 -->
<g id="edge1" class="edge"><title>Node18&#45;&gt;Node19</title>
<path fill="none" stroke="midnightblue" d="M872.407,-332.831C708.187,-330.688 392.527,-322.154 126.308,-289 123.202,-288.613 120.026,-288.166 116.826,-287.674"/>
<polygon fill="midnightblue" stroke="midnightblue" points="872.478,-336.332 882.521,-332.957 872.566,-329.332 872.478,-336.332"/>
</g>
<!-- Node21 -->
<g id="node4" class="node"><title>Node21</title>
<g id="a_node4"><a xlink:href="tspacefigofmerit_8h.html" target="_top" xlink:title="Implement some standard figures of merit for when integrating in T space densely represented density ...">
<polygon fill="none" stroke="black" points="135,-260.5 135,-288.5 251.615,-288.5 251.615,-260.5 135,-260.5"/>
<text text-anchor="start" x="143" y="-276.5" font-family="Helvetica,sans-Serif" font-size="10.00">tomographer/densedm</text>
<text text-anchor="middle" x="193.308" y="-266.5" font-family="Helvetica,sans-Serif" font-size="10.00">/tspacefigofmerit.h</text>
</a>
</g>
</g>
<!-- Node18&#45;&gt;Node21 -->
<g id="edge3" class="edge"><title>Node18&#45;&gt;Node21</title>
<path fill="none" stroke="midnightblue" d="M872.421,-330.854C730.671,-326.52 479.079,-315.553 265.308,-289 260.89,-288.451 256.335,-287.8 251.762,-287.085"/>
<polygon fill="midnightblue" stroke="midnightblue" points="872.334,-334.353 882.435,-331.154 872.544,-327.356 872.334,-334.353"/>
</g>
<!-- Node22 -->
<g id="node5" class="node"><title>Node22</title>
<g id="a_node5"><a xlink:href="tspacellhwalker_8h.html" target="_top" xlink:title="Definitions for a Metropolis&#45;Hastings random walk on a quantum state space with dense matrix type...">
<polygon fill="none" stroke="black" points="575,-130.5 575,-158.5 691.615,-158.5 691.615,-130.5 575,-130.5"/>
<text text-anchor="start" x="583" y="-146.5" font-family="Helvetica,sans-Serif" font-size="10.00">tomographer/densedm</text>
<text text-anchor="middle" x="633.308" y="-136.5" font-family="Helvetica,sans-Serif" font-size="10.00">/tspacellhwalker.h</text>
</a>
</g>
</g>
<!-- Node18&#45;&gt;Node22 -->
<g id="edge4" class="edge"><title>Node18&#45;&gt;Node22</title>
<path fill="none" stroke="midnightblue" d="M951.907,-322.052C929.45,-313.746 899.073,-301.768 873.308,-289 788.268,-246.858 693.146,-185.393 652.936,-158.695"/>
<polygon fill="midnightblue" stroke="midnightblue" points="950.721,-325.345 961.315,-325.488 953.123,-318.77 950.721,-325.345"/>
</g>
<!-- Node23 -->
<g id="node6" class="node"><title>Node23</title>
<g id="a_node6"><a xlink:href="histogram_8h.html" target="_top" xlink:title="Definitions for Histogram Types. ">
<polygon fill="none" stroke="black" points="1203.45,-200.5 1203.45,-218.5 1331.17,-218.5 1331.17,-200.5 1203.45,-200.5"/>
<text text-anchor="middle" x="1267.31" y="-206.5" font-family="Helvetica,sans-Serif" font-size="10.00">tomographer/histogram.h</text>
</a>
</g>
</g>
<!-- Node18&#45;&gt;Node23 -->
<g id="edge5" class="edge"><title>Node18&#45;&gt;Node23</title>
<path fill="none" stroke="midnightblue" d="M1040.72,-323.387C1073.87,-316.252 1116.05,-305.071 1151.31,-289 1194.23,-269.434 1238.72,-234.442 1257.74,-218.64"/>
<polygon fill="midnightblue" stroke="midnightblue" points="1039.81,-320.001 1030.74,-325.472 1041.24,-326.853 1039.81,-320.001"/>
</g>
<!-- Node25 -->
<g id="node8" class="node"><title>Node25</title>
<g id="a_node8"><a xlink:href="mhrw__valuehist__tools_8h.html" target="_top" xlink:title="Tools for collecting a histogram of values during a Metropolis&#45;Hastings random walk using the tools o...">
<polygon fill="none" stroke="black" points="904.833,-0.5 904.833,-28.5 1049.78,-28.5 1049.78,-0.5 904.833,-0.5"/>
<text text-anchor="start" x="912.833" y="-16.5" font-family="Helvetica,sans-Serif" font-size="10.00">tomographer/mhrw_valuehist</text>
<text text-anchor="middle" x="977.308" y="-6.5" font-family="Helvetica,sans-Serif" font-size="10.00">_tools.h</text>
</a>
</g>
</g>
<!-- Node18&#45;&gt;Node25 -->
<g id="edge34" class="edge"><title>Node18&#45;&gt;Node25</title>
<path fill="none" stroke="midnightblue" d="M876.738,-324.576C688.066,-307.463 317.308,-266.686 317.308,-210.5 317.308,-210.5 317.308,-210.5 317.308,-143.5 317.308,-100.384 336.727,-86.1361 374.308,-65 419.54,-39.5599 754.289,-23.8988 904.601,-18.0793"/>
<polygon fill="midnightblue" stroke="midnightblue" points="876.69,-328.085 886.963,-325.496 877.317,-321.114 876.69,-328.085"/>
</g>
<!-- Node26 -->
<g id="node9" class="node"><title>Node26</title>
<g id="a_node9"><a xlink:href="mhrwacceptratiowalkerparamscontroller_8h.html" target="_top" xlink:title="Tools for automatically and dynamically adjusting the step size of the random walk. ">
<polygon fill="none" stroke="black" points="383.308,-70.5 383.308,-88.5 643.307,-88.5 643.307,-70.5 383.308,-70.5"/>
<text text-anchor="middle" x="513.308" y="-76.5" font-family="Helvetica,sans-Serif" font-size="10.00">tomographer/mhrwacceptratiowalkerparamscontroller.h</text>
</a>
</g>
</g>
<!-- Node18&#45;&gt;Node26 -->
<g id="edge35" class="edge"><title>Node18&#45;&gt;Node26</title>
<path fill="none" stroke="midnightblue" d="M872.089,-330.988C811.783,-326.312 737.299,-315.059 675.308,-289 631.466,-270.571 621.134,-260.214 590.308,-224 552.005,-179.004 524.921,-111.833 516.268,-88.6847"/>
<polygon fill="midnightblue" stroke="midnightblue" points="872.182,-334.504 882.408,-331.736 872.687,-327.522 872.182,-334.504"/>
</g>
<!-- Node27 -->
<g id="node10" class="node"><title>Node27</title>
<g id="a_node10"><a xlink:href="mhrwstepsizecontroller_8h.html" target="_top" xlink:title="Tools for automatically and dynamically adjusting the step size of the random walk. ">
<polygon fill="none" stroke="black" points="341.544,-5.5 341.544,-23.5 527.071,-23.5 527.071,-5.5 341.544,-5.5"/>
<text text-anchor="middle" x="434.308" y="-11.5" font-family="Helvetica,sans-Serif" font-size="10.00">tomographer/mhrwstepsizecontroller.h</text>
</a>
</g>
</g>
<!-- Node18&#45;&gt;Node27 -->
<g id="edge36" class="edge"><title>Node18&#45;&gt;Node27</title>
<path fill="none" stroke="midnightblue" d="M872.296,-330.028C733.731,-324.788 506.225,-312.828 425.308,-289 354.635,-268.188 279.308,-284.174 279.308,-210.5 279.308,-210.5 279.308,-210.5 279.308,-143.5 279.308,-77.3658 364.239,-39.004 408.364,-23.5365"/>
<polygon fill="midnightblue" stroke="midnightblue" points="872.404,-333.534 882.528,-330.409 872.665,-326.539 872.404,-333.534"/>
</g>
<!-- Node28 -->
<g id="node11" class="node"><title>Node28</title>
<g id="a_node11"><a xlink:href="mhrwtasks_8h.html" target="_top" xlink:title="Multiprocessing tasks interface (see Multiprocessing Task Interfaces) for parallel Metropolis&#45;Hasting...">
<polygon fill="none" stroke="black" points="1051.51,-70.5 1051.51,-88.5 1183.11,-88.5 1183.11,-70.5 1051.51,-70.5"/>
<text text-anchor="middle" x="1117.31" y="-76.5" font-family="Helvetica,sans-Serif" font-size="10.00">tomographer/mhrwtasks.h</text>
</a>
</g>
</g>
<!-- Node18&#45;&gt;Node28 -->
<g id="edge37" class="edge"><title>Node18&#45;&gt;Node28</title>
<path fill="none" stroke="midnightblue" d="M999.516,-318.067C1007.49,-309.714 1017.25,-299.068 1025.31,-289 1047.26,-261.569 1054.68,-255.468 1070.31,-224 1094.57,-175.165 1110.43,-110.954 1115.53,-88.5923"/>
<polygon fill="midnightblue" stroke="midnightblue" points="996.973,-315.662 992.53,-325.281 1002,-320.532 996.973,-315.662"/>
</g>
<!-- Node31 -->
<g id="node14" class="node"><title>Node31</title>
<g id="a_node14"><a xlink:href="mhrwvalueerrorbinsconvergedcontroller_8h.html" target="_top" xlink:title="Tools for automatically stopping the random walk when enough samples have been taken to make all binn...">
<polygon fill="none" stroke="black" points="660.855,-70.5 660.855,-88.5 919.76,-88.5 919.76,-70.5 660.855,-70.5"/>
<text text-anchor="middle" x="790.308" y="-76.5" font-family="Helvetica,sans-Serif" font-size="10.00">tomographer/mhrwvalueerrorbinsconvergedcontroller.h</text>
</a>
</g>
</g>
<!-- Node18&#45;&gt;Node31 -->
<g id="edge38" class="edge"><title>Node18&#45;&gt;Node31</title>
<path fill="none" stroke="midnightblue" d="M881.739,-323.994C780.65,-308.411 632.068,-267.315 566.308,-159 559.619,-147.983 558.237,-140.049 566.308,-130 583.672,-108.38 648.422,-95.6343 703.87,-88.5055"/>
<polygon fill="midnightblue" stroke="midnightblue" points="881.27,-327.462 891.675,-325.467 882.297,-320.538 881.27,-327.462"/>
</g>
<!-- Node33 -->
<g id="node16" class="node"><title>Node33</title>
<g id="a_node16"><a xlink:href="mhrw_8h.html" target="_top" xlink:title="Routines for performing a Metropolis&#45;Hastings random walk. ">
<polygon fill="none" stroke="black" points="953.451,-200.5 953.451,-218.5 1061.16,-218.5 1061.16,-200.5 953.451,-200.5"/>
<text text-anchor="middle" x="1007.31" y="-206.5" font-family="Helvetica,sans-Serif" font-size="10.00">tomographer/mhrw.h</text>
</a>
</g>
</g>
<!-- Node18&#45;&gt;Node33 -->
<g id="edge18" class="edge"><title>Node18&#45;&gt;Node33</title>
<path fill="none" stroke="midnightblue" d="M996.358,-316.844C1001.42,-308.84 1006.73,-298.859 1009.31,-289 1015.8,-264.205 1011.68,-233.492 1009.03,-218.925"/>
<polygon fill="midnightblue" stroke="midnightblue" points="993.405,-314.962 990.704,-325.207 999.204,-318.883 993.405,-314.962"/>
</g>
<!-- Node35 -->
<g id="node18" class="node"><title>Node35</title>
<g id="a_node18"><a xlink:href="mhrw__bin__err_8h.html" target="_top" xlink:title="Binning Analysis in a Metropolis&#45;Hastings random walk. ">
<polygon fill="none" stroke="black" points="881.894,-260.5 881.894,-288.5 1000.72,-288.5 1000.72,-260.5 881.894,-260.5"/>
<text text-anchor="start" x="889.894" y="-276.5" font-family="Helvetica,sans-Serif" font-size="10.00">tomographer/mhrw_bin</text>
<text text-anchor="middle" x="941.308" y="-266.5" font-family="Helvetica,sans-Serif" font-size="10.00">_err.h</text>
</a>
</g>
</g>
<!-- Node18&#45;&gt;Node35 -->
<g id="edge30" class="edge"><title>Node18&#45;&gt;Node35</title>
<path fill="none" stroke="midnightblue" d="M972.308,-317.315C965.655,-308.341 957.483,-297.318 951.2,-288.843"/>
<polygon fill="midnightblue" stroke="midnightblue" points="969.561,-319.487 978.329,-325.435 975.185,-315.318 969.561,-319.487"/>
</g>
<!-- Node36 -->
<g id="node19" class="node"><title>Node36</title>
<g id="a_node19"><a xlink:href="multiproc_8h.html" target="_top" xlink:title="Some common definitions for multiprocessing interfaces. ">
<polygon fill="none" stroke="black" points="1426.12,-265.5 1426.12,-283.5 1550.5,-283.5 1550.5,-265.5 1426.12,-265.5"/>
<text text-anchor="middle" x="1488.31" y="-271.5" font-family="Helvetica,sans-Serif" font-size="10.00">tomographer/multiproc.h</text>
</a>
</g>
</g>
<!-- Node18&#45;&gt;Node36 -->
<g id="edge39" class="edge"><title>Node18&#45;&gt;Node36</title>
<path fill="none" stroke="midnightblue" d="M1065.27,-324.309C1143.96,-315.359 1266.84,-301.339 1373.31,-289 1390.38,-287.021 1408.88,-284.858 1425.94,-282.855"/>
<polygon fill="midnightblue" stroke="midnightblue" points="1064.48,-320.876 1054.94,-325.483 1065.27,-327.831 1064.48,-320.876"/>
</g>
<!-- Node37 -->
<g id="node20" class="node"><title>Node37</title>
<g id="a_node20"><a xlink:href="multiprocomp_8h.html" target="_top" xlink:title="Multiprocessing with OpenMP parallel multithreading. ">
<polygon fill="none" stroke="black" points="1672.39,-135.5 1672.39,-153.5 1816.23,-153.5 1816.23,-135.5 1672.39,-135.5"/>
<text text-anchor="middle" x="1744.31" y="-141.5" font-family="Helvetica,sans-Serif" font-size="10.00">tomographer/multiprocomp.h</text>
</a>
</g>
</g>
<!-- Node18&#45;&gt;Node37 -->
<g id="edge48" class="edge"><title>Node18&#45;&gt;Node37</title>
<path fill="none" stroke="midnightblue" d="M1096.19,-332.363C1222.6,-329.512 1434.11,-320.009 1613.31,-289 1719.24,-270.669 1781.3,-309.628 1846.31,-224 1870.7,-191.876 1809.99,-166.027 1772.05,-153.574"/>
<polygon fill="midnightblue" stroke="midnightblue" points="1096.03,-328.865 1086.11,-332.58 1096.18,-335.864 1096.03,-328.865"/>
</g>
<!-- Node38 -->
<g id="node21" class="node"><title>Node38</title>
<g id="a_node21"><a xlink:href="multiprocthreadcommon_8h.html" target="_top" xlink:title="Basic multiprocessing templates for thread&#45;based Tomographer::MultiProc implementations. ">
<polygon fill="none" stroke="black" points="1645.77,-200.5 1645.77,-218.5 1836.85,-218.5 1836.85,-200.5 1645.77,-200.5"/>
<text text-anchor="middle" x="1741.31" y="-206.5" font-family="Helvetica,sans-Serif" font-size="10.00">tomographer/multiprocthreadcommon.h</text>
</a>
</g>
</g>
<!-- Node18&#45;&gt;Node38 -->
<g id="edge49" class="edge"><title>Node18&#45;&gt;Node38</title>
<path fill="none" stroke="midnightblue" d="M1096.1,-329.219C1237.98,-323.027 1474.47,-309.961 1559.31,-289 1624.78,-272.822 1696.68,-235.401 1726.79,-218.749"/>
<polygon fill="midnightblue" stroke="midnightblue" points="1095.89,-325.725 1086.05,-329.653 1096.19,-332.718 1095.89,-325.725"/>
</g>
<!-- Node39 -->
<g id="node22" class="node"><title>Node39</title>
<g id="a_node22"><a xlink:href="multiprocthreads_8h.html" target="_top" xlink:title="Multiprocessing with native C++11 threads. ">
<polygon fill="none" stroke="black" points="1496.44,-135.5 1496.44,-153.5 1654.18,-153.5 1654.18,-135.5 1496.44,-135.5"/>
<text text-anchor="middle" x="1575.31" y="-141.5" font-family="Helvetica,sans-Serif" font-size="10.00">tomographer/multiprocthreads.h</text>
</a>
</g>
</g>
<!-- Node18&#45;&gt;Node39 -->
<g id="edge50" class="edge"><title>Node18&#45;&gt;Node39</title>
<path fill="none" stroke="midnightblue" d="M1043.91,-323.693C1085.69,-316.094 1142.54,-304.286 1191.31,-289 1294.72,-256.585 1314.46,-232.037 1416.31,-195 1461.27,-178.648 1514.55,-162.751 1546.6,-153.554"/>
<polygon fill="midnightblue" stroke="midnightblue" points="1043.13,-320.278 1033.9,-325.487 1044.36,-327.169 1043.13,-320.278"/>
</g>
<!-- Node41 -->
<g id="node24" class="node"><title>Node41</title>
<g id="a_node24"><a xlink:href="valuecalculator_8h.html" target="_top" xlink:title="Some elementary definitions which relate to the ValueCalculator Interface. ">
<polygon fill="none" stroke="black" points="1893.32,-265.5 1893.32,-283.5 2043.29,-283.5 2043.29,-265.5 1893.32,-265.5"/>
<text text-anchor="middle" x="1968.31" y="-271.5" font-family="Helvetica,sans-Serif" font-size="10.00">tomographer/valuecalculator.h</text>
</a>
</g>
</g>
<!-- Node18&#45;&gt;Node41 -->
<g id="edge51" class="edge"><title>Node18&#45;&gt;Node41</title>
<path fill="none" stroke="midnightblue" d="M1096.43,-331.552C1266.2,-327.784 1598.48,-317.208 1879.31,-289 1892.99,-287.626 1907.78,-285.601 1921.31,-283.535"/>
<polygon fill="midnightblue" stroke="midnightblue" points="1096.15,-328.057 1086.23,-331.775 1096.3,-335.056 1096.15,-328.057"/>
</g>
<!-- Node20 -->
<g id="node3" class="node"><title>Node20</title>
<g id="a_node3"><a xlink:href="pydensedm_8h_source.html" target="_top" xlink:title="py/cxx/tomographerpy\l/pydensedm.h">
<polygon fill="none" stroke="black" points="1.11816,-195.5 1.11816,-223.5 115.497,-223.5 115.497,-195.5 1.11816,-195.5"/>
<text text-anchor="start" x="9.11816" y="-211.5" font-family="Helvetica,sans-Serif" font-size="10.00">py/cxx/tomographerpy</text>
<text text-anchor="middle" x="58.3076" y="-201.5" font-family="Helvetica,sans-Serif" font-size="10.00">/pydensedm.h</text>
</a>
</g>
</g>
<!-- Node19&#45;&gt;Node20 -->
<g id="edge2" class="edge"><title>Node19&#45;&gt;Node20</title>
<path fill="none" stroke="midnightblue" d="M58.3076,-250.164C58.3076,-241.169 58.3076,-231.221 58.3076,-223.537"/>
<polygon fill="midnightblue" stroke="midnightblue" points="54.8077,-250.446 58.3076,-260.446 61.8077,-250.446 54.8077,-250.446"/>
</g>
<!-- Node24 -->
<g id="node7" class="node"><title>Node24</title>
<g id="a_node7"><a xlink:href="mhrwstatscollectors_8h.html" target="_top" xlink:title="Definitions for MHRWStatsCollector Interface&#39;s. ">
<polygon fill="none" stroke="black" points="823.5,-135.5 823.5,-153.5 995.115,-153.5 995.115,-135.5 823.5,-135.5"/>
<text text-anchor="middle" x="909.308" y="-141.5" font-family="Helvetica,sans-Serif" font-size="10.00">tomographer/mhrwstatscollectors.h</text>
</a>
</g>
</g>
<!-- Node23&#45;&gt;Node24 -->
<g id="edge6" class="edge"><title>Node23&#45;&gt;Node24</title>
<path fill="none" stroke="midnightblue" d="M1211.55,-198.689C1140.92,-186.258 1020.52,-165.07 955.023,-153.545"/>
<polygon fill="midnightblue" stroke="midnightblue" points="1211.15,-202.171 1221.6,-200.457 1212.36,-195.277 1211.15,-202.171"/>
</g>
<!-- Node32 -->
<g id="node15" class="node"><title>Node32</title>
<g id="a_node15"><a xlink:href="pyhistogram_8h_source.html" target="_top" xlink:title="py/cxx/tomographerpy\l/pyhistogram.h">
<polygon fill="none" stroke="black" points="1409.12,-65.5 1409.12,-93.5 1523.5,-93.5 1523.5,-65.5 1409.12,-65.5"/>
<text text-anchor="start" x="1417.12" y="-81.5" font-family="Helvetica,sans-Serif" font-size="10.00">py/cxx/tomographerpy</text>
<text text-anchor="middle" x="1466.31" y="-71.5" font-family="Helvetica,sans-Serif" font-size="10.00">/pyhistogram.h</text>
</a>
</g>
</g>
<!-- Node23&#45;&gt;Node32 -->
<g id="edge16" class="edge"><title>Node23&#45;&gt;Node32</title>
<path fill="none" stroke="midnightblue" d="M1288.59,-194.812C1327.12,-170.027 1407.96,-118.032 1445.87,-93.6489"/>
<polygon fill="midnightblue" stroke="midnightblue" points="1286.27,-192.14 1279.76,-200.493 1290.06,-198.027 1286.27,-192.14"/>
</g>
<!-- Node24&#45;&gt;Node25 -->
<g id="edge7" class="edge"><title>Node24&#45;&gt;Node25</title>
<path fill="none" stroke="midnightblue" d="M929.643,-129.114C940.683,-120.237 953.612,-107.904 961.308,-94 972.893,-73.0696 976.133,-44.8283 977.012,-28.5484"/>
<polygon fill="midnightblue" stroke="midnightblue" points="927.504,-126.344 921.686,-135.199 931.756,-131.904 927.504,-126.344"/>
</g>
<!-- Node24&#45;&gt;Node26 -->
<g id="edge8" class="edge"><title>Node24&#45;&gt;Node26</title>
<path fill="none" stroke="midnightblue" d="M848.595,-133.841C770.596,-121.432 636.617,-100.117 563.875,-88.5448"/>
<polygon fill="midnightblue" stroke="midnightblue" points="848.326,-137.342 858.752,-135.457 849.426,-130.429 848.326,-137.342"/>
</g>
<!-- Node24&#45;&gt;Node27 -->
<g id="edge10" class="edge"><title>Node24&#45;&gt;Node27</title>
<path fill="none" stroke="midnightblue" d="M920.945,-126.879C931.646,-109.368 943.707,-82.0195 928.308,-65 901.959,-35.8791 662.756,-23.1337 527.121,-18.207"/>
<polygon fill="midnightblue" stroke="midnightblue" points="917.872,-125.183 915.323,-135.466 923.728,-129.017 917.872,-125.183"/>
</g>
<!-- Node24&#45;&gt;Node28 -->
<g id="edge11" class="edge"><title>Node24&#45;&gt;Node28</title>
<path fill="none" stroke="midnightblue" d="M945.776,-132.454C987.199,-119.908 1053.8,-99.7347 1090.64,-88.5761"/>
<polygon fill="midnightblue" stroke="midnightblue" points="944.63,-129.144 936.074,-135.393 946.659,-135.844 944.63,-129.144"/>
</g>
<!-- Node24&#45;&gt;Node31 -->
<g id="edge15" class="edge"><title>Node24&#45;&gt;Node31</title>
<path fill="none" stroke="midnightblue" d="M884.624,-130.432C860.791,-117.814 825.459,-99.1093 805.492,-88.539"/>
<polygon fill="midnightblue" stroke="midnightblue" points="883.275,-133.678 893.75,-135.264 886.55,-127.492 883.275,-133.678"/>
</g>
<!-- Node26&#45;&gt;Node27 -->
<g id="edge9" class="edge"><title>Node26&#45;&gt;Node27</title>
<path fill="none" stroke="midnightblue" d="M494.987,-63.8899C479.239,-51.3311 457.113,-33.6865 444.388,-23.539"/>
<polygon fill="midnightblue" stroke="midnightblue" points="492.979,-66.7654 502.98,-70.2639 497.344,-61.2925 492.979,-66.7654"/>
</g>
<!-- Node28&#45;&gt;Node25 -->
<g id="edge12" class="edge"><title>Node28&#45;&gt;Node25</title>
<path fill="none" stroke="midnightblue" d="M1090,-66.2105C1065.87,-55.3522 1030.79,-39.567 1006.2,-28.5002"/>
<polygon fill="midnightblue" stroke="midnightblue" points="1088.74,-69.4808 1099.29,-70.3928 1091.61,-63.0974 1088.74,-69.4808"/>
</g>
<!-- Node29 -->
<g id="node12" class="node"><title>Node29</title>
<g id="a_node12"><a xlink:href="pymhrwtasks_8h_source.html" target="_top" xlink:title="py/cxx/tomographerpy\l/pymhrwtasks.h">
<polygon fill="none" stroke="black" points="1286.12,-0.5 1286.12,-28.5 1400.5,-28.5 1400.5,-0.5 1286.12,-0.5"/>
<text text-anchor="start" x="1294.12" y="-16.5" font-family="Helvetica,sans-Serif" font-size="10.00">py/cxx/tomographerpy</text>
<text text-anchor="middle" x="1343.31" y="-6.5" font-family="Helvetica,sans-Serif" font-size="10.00">/pymhrwtasks.h</text>
</a>
</g>
</g>
<!-- Node28&#45;&gt;Node29 -->
<g id="edge13" class="edge"><title>Node28&#45;&gt;Node29</title>
<path fill="none" stroke="midnightblue" d="M1156.31,-67.6283C1195.28,-56.7647 1255.21,-40.0588 1296.67,-28.5002"/>
<polygon fill="midnightblue" stroke="midnightblue" points="1155.08,-64.3361 1146.39,-70.3928 1156.96,-71.079 1155.08,-64.3361"/>
</g>
<!-- Node30 -->
<g id="node13" class="node"><title>Node30</title>
<g id="a_node13"><a xlink:href="pymultiproc_8h_source.html" target="_top" xlink:title="py/cxx/tomographerpy\l/pymultiproc.h">
<polygon fill="none" stroke="black" points="1068.12,-0.5 1068.12,-28.5 1182.5,-28.5 1182.5,-0.5 1068.12,-0.5"/>
<text text-anchor="start" x="1076.12" y="-16.5" font-family="Helvetica,sans-Serif" font-size="10.00">py/cxx/tomographerpy</text>
<text text-anchor="middle" x="1125.31" y="-6.5" font-family="Helvetica,sans-Serif" font-size="10.00">/pymultiproc.h</text>
</a>
</g>
</g>
<!-- Node28&#45;&gt;Node30 -->
<g id="edge14" class="edge"><title>Node28&#45;&gt;Node30</title>
<path fill="none" stroke="midnightblue" d="M1119.64,-60.1373C1120.91,-50.1047 1122.46,-37.906 1123.62,-28.7981"/>
<polygon fill="midnightblue" stroke="midnightblue" points="1116.14,-59.9026 1118.35,-70.2639 1123.09,-60.7844 1116.14,-59.9026"/>
</g>
<!-- Node32&#45;&gt;Node29 -->
<g id="edge17" class="edge"><title>Node32&#45;&gt;Node29</title>
<path fill="none" stroke="midnightblue" d="M1431.72,-60.7834C1411.71,-50.5371 1386.98,-37.867 1368.76,-28.5369"/>
<polygon fill="midnightblue" stroke="midnightblue" points="1430.33,-64.0027 1440.82,-65.4464 1433.52,-57.7724 1430.33,-64.0027"/>
</g>
<!-- Node33&#45;&gt;Node22 -->
<g id="edge19" class="edge"><title>Node33&#45;&gt;Node22</title>
<path fill="none" stroke="midnightblue" d="M945.983,-198.87C884.918,-189.182 788.536,-173.622 705.308,-159 700.924,-158.23 696.392,-157.418 691.836,-156.59"/>
<polygon fill="midnightblue" stroke="midnightblue" points="945.793,-202.383 956.217,-200.491 946.888,-195.47 945.793,-202.383"/>
</g>
<!-- Node33&#45;&gt;Node24 -->
<g id="edge21" class="edge"><title>Node33&#45;&gt;Node24</title>
<path fill="none" stroke="midnightblue" d="M985.924,-194.754C966.322,-182.152 937.963,-163.921 921.813,-153.539"/>
<polygon fill="midnightblue" stroke="midnightblue" points="984.191,-197.8 994.496,-200.264 987.977,-191.912 984.191,-197.8"/>
</g>
<!-- Node33&#45;&gt;Node26 -->
<g id="edge20" class="edge"><title>Node33&#45;&gt;Node26</title>
<path fill="none" stroke="midnightblue" d="M949.431,-198.551C906.044,-190.257 845.572,-176.907 794.308,-159 765.968,-149.101 761.682,-139.8 733.308,-130 676.506,-110.382 608.725,-96.4935 563.553,-88.5168"/>
<polygon fill="midnightblue" stroke="midnightblue" points="949.048,-202.04 959.523,-200.448 950.342,-195.161 949.048,-202.04"/>
</g>
<!-- Node33&#45;&gt;Node27 -->
<g id="edge22" class="edge"><title>Node33&#45;&gt;Node27</title>
<path fill="none" stroke="midnightblue" d="M943.142,-206.586C885.624,-202.674 800.243,-191.321 733.308,-159 715.725,-150.51 718.172,-137.881 700.308,-130 633.624,-100.582 422.934,-148.292 374.308,-94 352.563,-69.7224 396.146,-38.2407 420.064,-23.6217"/>
<polygon fill="midnightblue" stroke="midnightblue" points="942.992,-210.083 953.191,-207.213 943.428,-203.097 942.992,-210.083"/>
</g>
<!-- Node33&#45;&gt;Node28 -->
<g id="edge23" class="edge"><title>Node33&#45;&gt;Node28</title>
<path fill="none" stroke="midnightblue" d="M1020.97,-192.608C1044.67,-165.022 1092.61,-109.243 1110.43,-88.5039"/>
<polygon fill="midnightblue" stroke="midnightblue" points="1018.05,-190.628 1014.19,-200.493 1023.36,-195.19 1018.05,-190.628"/>
</g>
<!-- Node33&#45;&gt;Node29 -->
<g id="edge28" class="edge"><title>Node33&#45;&gt;Node29</title>
<path fill="none" stroke="midnightblue" d="M1071.68,-203.099C1143.81,-193.527 1259.17,-167.057 1324.31,-94 1340.64,-75.6845 1343.52,-45.7267 1343.71,-28.6026"/>
<polygon fill="midnightblue" stroke="midnightblue" points="1070.84,-199.676 1061.36,-204.393 1071.71,-206.622 1070.84,-199.676"/>
</g>
<!-- Node33&#45;&gt;Node30 -->
<g id="edge29" class="edge"><title>Node33&#45;&gt;Node30</title>
<path fill="none" stroke="midnightblue" d="M1007.39,-190.111C1008.42,-160.839 1014.19,-103.072 1042.31,-65 1054.37,-48.6699 1073.57,-36.7183 1090.47,-28.6544"/>
<polygon fill="midnightblue" stroke="midnightblue" points="1003.89,-190.395 1007.19,-200.461 1010.89,-190.531 1003.89,-190.395"/>
</g>
<!-- Node33&#45;&gt;Node31 -->
<g id="edge24" class="edge"><title>Node33&#45;&gt;Node31</title>
<path fill="none" stroke="midnightblue" d="M943.353,-207.594C901.583,-203.644 848.621,-191.782 814.308,-159 794.317,-139.902 790.842,-104.668 790.331,-88.7223"/>
<polygon fill="midnightblue" stroke="midnightblue" points="943.189,-211.092 953.44,-208.416 943.758,-204.115 943.189,-211.092"/>
</g>
<!-- Node34 -->
<g id="node17" class="node"><title>Node34</title>
<g id="a_node17"><a xlink:href="pymhrw_8h_source.html" target="_top" xlink:title="py/cxx/tomographerpy\l/pymhrw.h">
<polygon fill="none" stroke="black" points="1201.12,-65.5 1201.12,-93.5 1315.5,-93.5 1315.5,-65.5 1201.12,-65.5"/>
<text text-anchor="start" x="1209.12" y="-81.5" font-family="Helvetica,sans-Serif" font-size="10.00">py/cxx/tomographerpy</text>
<text text-anchor="middle" x="1258.31" y="-71.5" font-family="Helvetica,sans-Serif" font-size="10.00">/pymhrw.h</text>
</a>
</g>
</g>
<!-- Node33&#45;&gt;Node34 -->
<g id="edge25" class="edge"><title>Node33&#45;&gt;Node34</title>
<path fill="none" stroke="midnightblue" d="M1032.02,-195.896C1079.71,-171.576 1184,-118.394 1232.52,-93.6489"/>
<polygon fill="midnightblue" stroke="midnightblue" points="1030.33,-192.832 1023.01,-200.493 1033.51,-199.068 1030.33,-192.832"/>
</g>
<!-- Node34&#45;&gt;Node29 -->
<g id="edge26" class="edge"><title>Node34&#45;&gt;Node29</title>
<path fill="none" stroke="midnightblue" d="M1284.3,-59.2361C1297.73,-49.2841 1313.76,-37.4026 1325.72,-28.5369"/>
<polygon fill="midnightblue" stroke="midnightblue" points="1281.87,-56.6799 1275.92,-65.4464 1286.04,-62.3037 1281.87,-56.6799"/>
</g>
<!-- Node34&#45;&gt;Node30 -->
<g id="edge27" class="edge"><title>Node34&#45;&gt;Node30</title>
<path fill="none" stroke="midnightblue" d="M1221.49,-61.061C1199.76,-50.7667 1172.71,-37.9515 1152.83,-28.5369"/>
<polygon fill="midnightblue" stroke="midnightblue" points="1220.21,-64.3285 1230.75,-65.4464 1223.21,-58.0024 1220.21,-64.3285"/>
</g>
<!-- Node35&#45;&gt;Node24 -->
<g id="edge32" class="edge"><title>Node35&#45;&gt;Node24</title>
<path fill="none" stroke="midnightblue" d="M935.567,-250.539C928.292,-221.438 916.122,-172.759 911.332,-153.6"/>
<polygon fill="midnightblue" stroke="midnightblue" points="932.183,-251.431 938.004,-260.284 938.974,-249.734 932.183,-251.431"/>
</g>
<!-- Node35&#45;&gt;Node29 -->
<g id="edge33" class="edge"><title>Node35&#45;&gt;Node29</title>
<path fill="none" stroke="midnightblue" d="M995.705,-257.483C1076.64,-233.185 1224.36,-186.893 1272.31,-159 1310.15,-136.988 1328.26,-133.88 1346.31,-94 1355.92,-72.7533 1351.36,-44.8656 1347.26,-28.6887"/>
<polygon fill="midnightblue" stroke="midnightblue" points="994.278,-254.257 985.701,-260.477 996.284,-260.963 994.278,-254.257"/>
</g>
<!-- Node35&#45;&gt;Node33 -->
<g id="edge31" class="edge"><title>Node35&#45;&gt;Node33</title>
<path fill="none" stroke="midnightblue" d="M962.243,-253.516C974.562,-241.757 989.483,-227.514 998.686,-218.73"/>
<polygon fill="midnightblue" stroke="midnightblue" points="959.8,-251.01 954.983,-260.446 964.633,-256.073 959.8,-251.01"/>
</g>
<!-- Node36&#45;&gt;Node28 -->
<g id="edge41" class="edge"><title>Node36&#45;&gt;Node28</title>
<path fill="none" stroke="midnightblue" d="M1464.16,-260.566C1434.91,-244.925 1384.09,-217.851 1340.31,-195 1262.95,-154.627 1169.98,-107.26 1133.3,-88.6187"/>
<polygon fill="midnightblue" stroke="midnightblue" points="1462.75,-263.779 1473.22,-265.41 1466.05,-257.607 1462.75,-263.779"/>
</g>
<!-- Node36&#45;&gt;Node33 -->
<g id="edge40" class="edge"><title>Node36&#45;&gt;Node33</title>
<path fill="none" stroke="midnightblue" d="M1416.88,-264.145C1319.81,-251.431 1148.39,-228.978 1061.32,-217.574"/>
<polygon fill="midnightblue" stroke="midnightblue" points="1416.53,-267.629 1426.9,-265.457 1417.44,-260.688 1416.53,-267.629"/>
</g>
<!-- Node36&#45;&gt;Node37 -->
<g id="edge42" class="edge"><title>Node36&#45;&gt;Node37</title>
<path fill="none" stroke="midnightblue" d="M1511.82,-260.485C1540.84,-244.554 1591.79,-216.985 1636.31,-195 1667.38,-179.657 1704.18,-163.134 1725.81,-153.587"/>
<polygon fill="midnightblue" stroke="midnightblue" points="1509.94,-257.527 1502.87,-265.417 1513.31,-263.659 1509.94,-257.527"/>
</g>
<!-- Node36&#45;&gt;Node38 -->
<g id="edge43" class="edge"><title>Node36&#45;&gt;Node38</title>
<path fill="none" stroke="midnightblue" d="M1530.49,-262.996C1580.66,-250.502 1663.32,-229.919 1708.8,-218.595"/>
<polygon fill="midnightblue" stroke="midnightblue" points="1529.47,-259.644 1520.61,-265.457 1531.16,-266.437 1529.47,-259.644"/>
</g>
<!-- Node36&#45;&gt;Node39 -->
<g id="edge46" class="edge"><title>Node36&#45;&gt;Node39</title>
<path fill="none" stroke="midnightblue" d="M1516.81,-260.688C1532.05,-252.379 1549.8,-240.091 1560.31,-224 1574.88,-201.697 1576.03,-168.692 1575.7,-153.584"/>
<polygon fill="midnightblue" stroke="midnightblue" points="1515.03,-257.667 1507.73,-265.345 1518.23,-263.895 1515.03,-257.667"/>
</g>
<!-- Node40 -->
<g id="node23" class="node"><title>Node40</title>
<g id="a_node23"><a xlink:href="signal__status__report_8h.html" target="_top" xlink:title="Basic common code for intercepting a signal to print status information of a task manager...">
<polygon fill="none" stroke="black" points="1425.55,-195.5 1425.55,-223.5 1551.06,-223.5 1551.06,-195.5 1425.55,-195.5"/>
<text text-anchor="start" x="1433.55" y="-211.5" font-family="Helvetica,sans-Serif" font-size="10.00">tomographer/tools/signal</text>
<text text-anchor="middle" x="1488.31" y="-201.5" font-family="Helvetica,sans-Serif" font-size="10.00">_status_report.h</text>
</a>
</g>
</g>
<!-- Node36&#45;&gt;Node40 -->
<g id="edge47" class="edge"><title>Node36&#45;&gt;Node40</title>
<path fill="none" stroke="midnightblue" d="M1488.31,-255.137C1488.31,-245.105 1488.31,-232.906 1488.31,-223.798"/>
<polygon fill="midnightblue" stroke="midnightblue" points="1484.81,-255.264 1488.31,-265.264 1491.81,-255.264 1484.81,-255.264"/>
</g>
<!-- Node38&#45;&gt;Node37 -->
<g id="edge44" class="edge"><title>Node38&#45;&gt;Node37</title>
<path fill="none" stroke="midnightblue" d="M1742.19,-189.907C1742.77,-177.815 1743.49,-162.653 1743.92,-153.539"/>
<polygon fill="midnightblue" stroke="midnightblue" points="1738.68,-190.109 1741.7,-200.264 1745.67,-190.442 1738.68,-190.109"/>
</g>
<!-- Node38&#45;&gt;Node39 -->
<g id="edge45" class="edge"><title>Node38&#45;&gt;Node39</title>
<path fill="none" stroke="midnightblue" d="M1710.29,-196.73C1677.13,-184.144 1625.43,-164.522 1596.59,-153.576"/>
<polygon fill="midnightblue" stroke="midnightblue" points="1709.35,-200.117 1719.95,-200.393 1711.84,-193.572 1709.35,-200.117"/>
</g>
</g>
</svg>
        <g id="navigator" transform="translate(0 0)" fill="#404254">
                <rect fill="#f2f5e9" fill-opacity="0.5" stroke="#606060" stroke-width=".5" x="0" y="0" width="60" height="60"/>
                <use id="zoomplus" xlink:href="#zoomPlus" x="17" y="9" onmousedown="handleZoom(evt,'in')"/>
                <use id="zoomminus" xlink:href="#zoomMin" x="42" y="9" onmousedown="handleZoom(evt,'out')"/>
                <use id="reset" xlink:href="#resetDef" x="30" y="36" onmousedown="handleReset()"/>
                <g id="arrowUp" xlink:href="#dirArrow" transform="translate(30 24)" onmousedown="handlePan(0,-1)">
                  <use xlink:href="#rim" fill="#404040">
                        <set attributeName="fill" to="#808080" begin="arrowUp.mouseover" end="arrowUp.mouseout"/>
                  </use>
                  <path fill="none" stroke="white" stroke-width="1.5" d="M0,-3.0v7 M-2.5,-0.5L0,-3.0L2.5,-0.5"/>
                </g>
                <g id="arrowRight" xlink:href="#dirArrow" transform="rotate(90) translate(36 -43)" onmousedown="handlePan(1,0)">
                  <use xlink:href="#rim" fill="#404040">
                        <set attributeName="fill" to="#808080" begin="arrowRight.mouseover" end="arrowRight.mouseout"/>
                  </use>
                  <path fill="none" stroke="white" stroke-width="1.5" d="M0,-3.0v7 M-2.5,-0.5L0,-3.0L2.5,-0.5"/>
                </g>
                <g id="arrowDown" xlink:href="#dirArrow" transform="rotate(180) translate(-30 -48)" onmousedown="handlePan(0,1)">
                  <use xlink:href="#rim" fill="#404040">
                        <set attributeName="fill" to="#808080" begin="arrowDown.mouseover" end="arrowDown.mouseout"/>
                  </use>
                  <path fill="none" stroke="white" stroke-width="1.5" d="M0,-3.0v7 M-2.5,-0.5L0,-3.0L2.5,-0.5"/>
                </g>
                <g id="arrowLeft" xlink:href="#dirArrow" transform="rotate(270) translate(-36 17)" onmousedown="handlePan(-1,0)">
                  <use xlink:href="#rim" fill="#404040">
                        <set attributeName="fill" to="#808080" begin="arrowLeft.mouseover" end="arrowLeft.mouseout"/>
                  </use>
                  <path fill="none" stroke="white" stroke-width="1.5" d="M0,-3.0v7 M-2.5,-0.5L0,-3.0L2.5,-0.5"/>
                </g>
        </g>
        <svg viewBox="0 0 15 15" width="100%" height="30px" preserveAspectRatio="xMaxYMin meet">
         <g id="arrow_out" transform="scale(0.3 0.3)">
          <a xlink:href="needownoperatornew_8h__dep__incl_org.svg" target="_base">
           <rect id="button" ry="5" rx="5" y="6" x="6" height="38" width="38"
                fill="#f2f5e9" fill-opacity="0.5" stroke="#606060" stroke-width="1.0"/>
           <path id="arrow"
             d="M 11.500037,31.436501 C 11.940474,20.09759 22.043105,11.32322 32.158766,21.979434 L 37.068811,17.246167 C 37.068811,17.246167 37.088388,32 37.088388,32 L 22.160133,31.978069 C 22.160133,31.978069 26.997745,27.140456 26.997745,27.140456 C 18.528582,18.264221 13.291696,25.230495 11.500037,31.436501 z"
             style="fill:#404040;"/>
          </a>
         </g>
        </svg>
</svg>
