<?xml version="1.0" encoding="UTF-8" standalone="no"?>
<!DOCTYPE svg PUBLIC "-//W3C//DTD SVG 1.1//EN"
 "http://www.w3.org/Graphics/SVG/1.1/DTD/svg11.dtd">
<!-- Generated by graphviz version 2.38.0 (20140413.2041)
 -->
<!-- Title: tomographer/mathtools/random_unitary.h Pages: 1 -->
<!--zoomable 322 -->
<svg id="main" version="1.1" xmlns="http://www.w3.org/2000/svg" xmlns:xlink="http://www.w3.org/1999/xlink" xml:space="preserve" onload="init(evt)">
<style type="text/css"><![CDATA[
.edge:hover path { stroke: red; }
.edge:hover polygon { stroke: red; fill: red; }
]]></style>
<script type="text/javascript"><![CDATA[
var edges = document.getElementsByTagName('g');
if (edges && edges.length) {
  for (var i=0;i<edges.length;i++) {
    if (edges[i].id.substr(0,4)=='edge') {
      edges[i].setAttribute('class','edge');
    }
  }
}
]]></script>
        <defs>
                <circle id="rim" cx="0" cy="0" r="7"/>
                <circle id="rim2" cx="0" cy="0" r="3.5"/>
                <g id="zoomPlus">
                        <use xlink:href="#rim" fill="#404040">
                                <set attributeName="fill" to="#808080" begin="zoomplus.mouseover" end="zoomplus.mouseout"/>
                        </use>
                        <path d="M-4,0h8M0,-4v8" fill="none" stroke="white" stroke-width="1.5" pointer-events="none"/>
                </g>
                <g id="zoomMin">
                        <use xlink:href="#rim" fill="#404040">
                                <set attributeName="fill" to="#808080" begin="zoomminus.mouseover" end="zoomminus.mouseout"/>
                        </use>
                        <path d="M-4,0h8" fill="none" stroke="white" stroke-width="1.5" pointer-events="none"/>
                </g>
                <g id="dirArrow">
                        <path fill="none" stroke="white" stroke-width="1.5" d="M0,-3.0v7 M-2.5,-0.5L0,-3.0L2.5,-0.5"/>
                </g>
               <g id="resetDef">
                       <use xlink:href="#rim2" fill="#404040">
                               <set attributeName="fill" to="#808080" begin="reset.mouseover" end="reset.mouseout"/>
                       </use>
               </g>
        </defs>

<script type="text/javascript">
var viewWidth = 1375;
var viewHeight = 322;
var sectionId = 'dynsection-0';
</script>
<script xlink:href="svgpan.js"/>
<svg id="graph" class="graph">
<g id="viewport">
<title>tomographer/mathtools/random_unitary.h</title>
<!-- Node0 -->
<g id="node1" class="node"><title>Node0</title>
<polygon fill="#bfbfbf" stroke="black" points="930.599,-285.5 930.599,-313.5 1049.43,-313.5 1049.43,-285.5 930.599,-285.5"/>
<text text-anchor="start" x="938.599" y="-301.5" font-family="Helvetica,sans-Serif" font-size="10.00">tomographer/mathtools</text>
<text text-anchor="middle" x="990.015" y="-291.5" font-family="Helvetica,sans-Serif" font-size="10.00">/random_unitary.h</text>
</g>
<!-- Node1 -->
<g id="node2" class="node"><title>Node1</title>
<polygon fill="none" stroke="#bfbfbf" points="1147.84,-60.5 1147.84,-78.5 1202.19,-78.5 1202.19,-60.5 1147.84,-60.5"/>
<text text-anchor="middle" x="1175.01" y="-66.5" font-family="Helvetica,sans-Serif" font-size="10.00">iostream</text>
</g>
<!-- Node0&#45;&gt;Node1 -->
<g id="edge1" class="edge"><title>Node0&#45;&gt;Node1</title>
<path fill="none" stroke="midnightblue" d="M1049.57,-292.446C1082.84,-286.303 1123.09,-273.928 1151.01,-249 1196.2,-208.657 1206.57,-179.464 1195.01,-120 1192.86,-108.894 1188.21,-97.1255 1183.94,-87.8509"/>
<polygon fill="midnightblue" stroke="midnightblue" points="1186.96,-86.0596 1179.43,-78.6076 1180.67,-89.1296 1186.96,-86.0596"/>
</g>
<!-- Node2 -->
<g id="node3" class="node"><title>Node2</title>
<polygon fill="none" stroke="#bfbfbf" points="1317.06,-230.5 1317.06,-248.5 1366.97,-248.5 1366.97,-230.5 1317.06,-230.5"/>
<text text-anchor="middle" x="1342.01" y="-236.5" font-family="Helvetica,sans-Serif" font-size="10.00">random</text>
</g>
<!-- Node0&#45;&gt;Node2 -->
<g id="edge2" class="edge"><title>Node0&#45;&gt;Node2</title>
<path fill="none" stroke="midnightblue" d="M1049.61,-290.12C1112.72,-281.004 1215.15,-265.508 1303.01,-249 1304.28,-248.762 1305.56,-248.515 1306.86,-248.259"/>
<polygon fill="midnightblue" stroke="midnightblue" points="1307.79,-251.642 1316.88,-246.201 1306.38,-244.785 1307.79,-251.642"/>
</g>
<!-- Node3 -->
<g id="node4" class="node"><title>Node3</title>
<polygon fill="none" stroke="#bfbfbf" points="0,-60.5 0,-78.5 66.0293,-78.5 66.0293,-60.5 0,-60.5"/>
<text text-anchor="middle" x="33.0146" y="-66.5" font-family="Helvetica,sans-Serif" font-size="10.00">Eigen/Core</text>
</g>
<!-- Node0&#45;&gt;Node3 -->
<g id="edge3" class="edge"><title>Node0&#45;&gt;Node3</title>
<path fill="none" stroke="midnightblue" d="M930.509,-298.837C752.142,-298.75 225.866,-290.165 90.0146,-194 54.6097,-168.938 40.6664,-116.256 35.6143,-88.4944"/>
<polygon fill="midnightblue" stroke="midnightblue" points="39.0611,-87.8839 33.9996,-78.5763 32.1521,-89.0088 39.0611,-87.8839"/>
</g>
<!-- Node4 -->
<g id="node5" class="node"><title>Node4</title>
<g id="a_node5"><a xlink:href="eigenutil_8h.html" target="_top" xlink:title="Basic utilities for dealing with Eigen matrices and other types. ">
<polygon fill="none" stroke="black" points="98.5298,-175.5 98.5298,-193.5 243.5,-193.5 243.5,-175.5 98.5298,-175.5"/>
<text text-anchor="middle" x="171.015" y="-181.5" font-family="Helvetica,sans-Serif" font-size="10.00">tomographer/tools/eigenutil.h</text>
</a>
</g>
</g>
<!-- Node0&#45;&gt;Node4 -->
<g id="edge4" class="edge"><title>Node0&#45;&gt;Node4</title>
<path fill="none" stroke="midnightblue" d="M930.454,-290.282C782.056,-269.807 396.505,-216.612 239.275,-194.918"/>
<polygon fill="midnightblue" stroke="midnightblue" points="239.638,-191.435 229.253,-193.535 238.681,-198.369 239.638,-191.435"/>
</g>
<!-- Node9 -->
<g id="node10" class="node"><title>Node9</title>
<g id="a_node10"><a xlink:href="loggers_8h.html" target="_top" xlink:title="Utilities for logging messages. ">
<polygon fill="none" stroke="black" points="658.756,-230.5 658.756,-248.5 799.273,-248.5 799.273,-230.5 658.756,-230.5"/>
<text text-anchor="middle" x="729.015" y="-236.5" font-family="Helvetica,sans-Serif" font-size="10.00">tomographer/tools/loggers.h</text>
</a>
</g>
</g>
<!-- Node0&#45;&gt;Node9 -->
<g id="edge10" class="edge"><title>Node0&#45;&gt;Node9</title>
<path fill="none" stroke="midnightblue" d="M931.441,-285.484C884.272,-275.002 818.872,-260.468 775.313,-250.789"/>
<polygon fill="midnightblue" stroke="midnightblue" points="775.8,-247.311 765.279,-248.559 774.281,-254.145 775.8,-247.311"/>
</g>
<!-- Node27 -->
<g id="node28" class="node"><title>Node27</title>
<g id="a_node28"><a xlink:href="cxxutil_8h.html" target="_top" xlink:title="Some C++ utilities, with a tad of C++11 tricks. ">
<polygon fill="none" stroke="black" points="837.264,-120.5 837.264,-138.5 972.766,-138.5 972.766,-120.5 837.264,-120.5"/>
<text text-anchor="middle" x="905.015" y="-126.5" font-family="Helvetica,sans-Serif" font-size="10.00">tomographer/tools/cxxutil.h</text>
</a>
</g>
</g>
<!-- Node0&#45;&gt;Node27 -->
<g id="edge52" class="edge"><title>Node0&#45;&gt;Node27</title>
<path fill="none" stroke="midnightblue" d="M1035.94,-285.493C1098.33,-265.59 1197.61,-224.618 1156.01,-175 1134.22,-149.004 1048.52,-138.185 983.27,-133.688"/>
<polygon fill="midnightblue" stroke="midnightblue" points="983.192,-130.176 972.986,-133.019 982.738,-137.161 983.192,-130.176"/>
</g>
<!-- Node4&#45;&gt;Node3 -->
<g id="edge7" class="edge"><title>Node4&#45;&gt;Node3</title>
<path fill="none" stroke="midnightblue" d="M148.313,-175.482C129.434,-168.047 102.586,-155.626 83.0146,-139 65.7098,-124.299 51.1091,-102.451 42.2346,-87.4023"/>
<polygon fill="midnightblue" stroke="midnightblue" points="45.2398,-85.6064 37.2587,-78.6384 39.1525,-89.0626 45.2398,-85.6064"/>
</g>
<!-- Node5 -->
<g id="node6" class="node"><title>Node5</title>
<polygon fill="none" stroke="#bfbfbf" points="117.396,-60.5 117.396,-78.5 170.633,-78.5 170.633,-60.5 117.396,-60.5"/>
<text text-anchor="middle" x="144.015" y="-66.5" font-family="Helvetica,sans-Serif" font-size="10.00">complex</text>
</g>
<!-- Node4&#45;&gt;Node5 -->
<g id="edge5" class="edge"><title>Node4&#45;&gt;Node5</title>
<path fill="none" stroke="midnightblue" d="M140.819,-175.421C122.642,-168.83 100.962,-157.505 90.0146,-139 77.9123,-118.543 100.951,-97.4203 120.588,-84.1389"/>
<polygon fill="midnightblue" stroke="midnightblue" points="122.688,-86.9507 129.232,-78.6189 118.92,-81.0509 122.688,-86.9507"/>
</g>
<!-- Node6 -->
<g id="node7" class="node"><title>Node6</title>
<polygon fill="none" stroke="#bfbfbf" points="334.399,-120.5 334.399,-138.5 377.63,-138.5 377.63,-120.5 334.399,-120.5"/>
<text text-anchor="middle" x="356.015" y="-126.5" font-family="Helvetica,sans-Serif" font-size="10.00">vector</text>
</g>
<!-- Node4&#45;&gt;Node6 -->
<g id="edge6" class="edge"><title>Node4&#45;&gt;Node6</title>
<path fill="none" stroke="midnightblue" d="M199.112,-175.45C232.876,-165.778 289.366,-149.594 324.559,-139.512"/>
<polygon fill="midnightblue" stroke="midnightblue" points="325.666,-142.835 334.316,-136.716 323.738,-136.106 325.666,-142.835"/>
</g>
<!-- Node7 -->
<g id="node8" class="node"><title>Node7</title>
<polygon fill="none" stroke="#bfbfbf" points="99.3843,-120.5 99.3843,-138.5 172.645,-138.5 172.645,-120.5 99.3843,-120.5"/>
<text text-anchor="middle" x="136.015" y="-126.5" font-family="Helvetica,sans-Serif" font-size="10.00">Eigen/Dense</text>
</g>
<!-- Node4&#45;&gt;Node7 -->
<g id="edge8" class="edge"><title>Node4&#45;&gt;Node7</title>
<path fill="none" stroke="midnightblue" d="M165.546,-175.219C160.586,-167.707 153.126,-156.411 146.945,-147.052"/>
<polygon fill="midnightblue" stroke="midnightblue" points="149.762,-144.965 141.33,-138.55 143.92,-148.823 149.762,-144.965"/>
</g>
<!-- Node8 -->
<g id="node9" class="node"><title>Node8</title>
<polygon fill="none" stroke="#bfbfbf" points="190.155,-120.5 190.155,-138.5 277.874,-138.5 277.874,-120.5 190.155,-120.5"/>
<text text-anchor="middle" x="234.015" y="-126.5" font-family="Helvetica,sans-Serif" font-size="10.00">Eigen/StdVector</text>
</g>
<!-- Node4&#45;&gt;Node8 -->
<g id="edge9" class="edge"><title>Node4&#45;&gt;Node8</title>
<path fill="none" stroke="midnightblue" d="M180.583,-175.45C190.111,-167.434 204.955,-154.947 216.581,-145.166"/>
<polygon fill="midnightblue" stroke="midnightblue" points="218.957,-147.741 224.356,-138.625 214.451,-142.385 218.957,-147.741"/>
</g>
<!-- Node9&#45;&gt;Node1 -->
<g id="edge15" class="edge"><title>Node9&#45;&gt;Node1</title>
<path fill="none" stroke="midnightblue" d="M799.395,-235.802C913.994,-230.732 1130.75,-218.062 1156.01,-194 1184.61,-166.772 1182.15,-115.838 1178.34,-88.6667"/>
<polygon fill="midnightblue" stroke="midnightblue" points="1181.76,-87.9264 1176.71,-78.6152 1174.85,-89.0464 1181.76,-87.9264"/>
</g>
<!-- Node10 -->
<g id="node11" class="node"><title>Node10</title>
<polygon fill="none" stroke="#bfbfbf" points="1066.95,-120.5 1066.95,-138.5 1109.08,-138.5 1109.08,-120.5 1066.95,-120.5"/>
<text text-anchor="middle" x="1088.01" y="-126.5" font-family="Helvetica,sans-Serif" font-size="10.00">cstdio</text>
</g>
<!-- Node9&#45;&gt;Node10 -->
<g id="edge11" class="edge"><title>Node9&#45;&gt;Node10</title>
<path fill="none" stroke="midnightblue" d="M755.705,-230.471C820.776,-210.895 987.336,-160.788 1056.83,-139.882"/>
<polygon fill="midnightblue" stroke="midnightblue" points="1058.17,-143.134 1066.74,-136.901 1056.15,-136.43 1058.17,-143.134"/>
</g>
<!-- Node11 -->
<g id="node12" class="node"><title>Node11</title>
<polygon fill="none" stroke="#bfbfbf" points="433.618,-120.5 433.618,-138.5 482.411,-138.5 482.411,-120.5 433.618,-120.5"/>
<text text-anchor="middle" x="458.015" y="-126.5" font-family="Helvetica,sans-Serif" font-size="10.00">cstdarg</text>
</g>
<!-- Node9&#45;&gt;Node11 -->
<g id="edge12" class="edge"><title>Node9&#45;&gt;Node11</title>
<path fill="none" stroke="midnightblue" d="M703.35,-230.497C676.941,-222.081 634.732,-208.12 599.015,-194 558.144,-177.843 511.889,-156.384 483.847,-143.011"/>
<polygon fill="midnightblue" stroke="midnightblue" points="485.257,-139.805 474.726,-138.639 482.231,-146.118 485.257,-139.805"/>
</g>
<!-- Node12 -->
<g id="node13" class="node"><title>Node12</title>
<polygon fill="none" stroke="#bfbfbf" points="1099.79,-0.5 1099.79,-18.5 1140.24,-18.5 1140.24,-0.5 1099.79,-0.5"/>
<text text-anchor="middle" x="1120.01" y="-6.5" font-family="Helvetica,sans-Serif" font-size="10.00">string</text>
</g>
<!-- Node9&#45;&gt;Node12 -->
<g id="edge13" class="edge"><title>Node9&#45;&gt;Node12</title>
<path fill="none" stroke="midnightblue" d="M799.567,-235.683C918.367,-230.327 1148.26,-217.098 1177.01,-194 1226.6,-154.17 1244.69,-108.952 1211.01,-55 1197.81,-33.8454 1171.32,-22.4731 1150.3,-16.5365"/>
<polygon fill="midnightblue" stroke="midnightblue" points="1151.07,-13.1191 1140.51,-14.0399 1149.34,-19.9021 1151.07,-13.1191"/>
</g>
<!-- Node13 -->
<g id="node14" class="node"><title>Node13</title>
<polygon fill="none" stroke="#bfbfbf" points="500.234,-120.5 500.234,-138.5 551.795,-138.5 551.795,-120.5 500.234,-120.5"/>
<text text-anchor="middle" x="526.015" y="-126.5" font-family="Helvetica,sans-Serif" font-size="10.00">sstream</text>
</g>
<!-- Node9&#45;&gt;Node13 -->
<g id="edge14" class="edge"><title>Node9&#45;&gt;Node13</title>
<path fill="none" stroke="midnightblue" d="M710.983,-230.374C692.096,-221.746 661.668,-207.516 636.015,-194 604.947,-177.631 569.965,-157.055 547.961,-143.84"/>
<polygon fill="midnightblue" stroke="midnightblue" points="549.745,-140.829 539.375,-138.661 546.13,-146.823 549.745,-140.829"/>
</g>
<!-- Node14 -->
<g id="node15" class="node"><title>Node14</title>
<polygon fill="none" stroke="#bfbfbf" points="569.611,-120.5 569.611,-138.5 628.418,-138.5 628.418,-120.5 569.611,-120.5"/>
<text text-anchor="middle" x="599.015" y="-126.5" font-family="Helvetica,sans-Serif" font-size="10.00">functional</text>
</g>
<!-- Node9&#45;&gt;Node14 -->
<g id="edge16" class="edge"><title>Node9&#45;&gt;Node14</title>
<path fill="none" stroke="midnightblue" d="M714.087,-230.452C699.4,-222.211 676.674,-208.575 659.015,-194 641.359,-179.428 623.665,-159.965 612.116,-146.444"/>
<polygon fill="midnightblue" stroke="midnightblue" points="614.584,-143.94 605.476,-138.528 609.221,-148.439 614.584,-143.94"/>
</g>
<!-- Node15 -->
<g id="node16" class="node"><title>Node15</title>
<polygon fill="none" stroke="#bfbfbf" points="220.948,-60.5 220.948,-78.5 283.081,-78.5 283.081,-60.5 220.948,-60.5"/>
<text text-anchor="middle" x="252.015" y="-66.5" font-family="Helvetica,sans-Serif" font-size="10.00">type_traits</text>
</g>
<!-- Node9&#45;&gt;Node15 -->
<g id="edge17" class="edge"><title>Node9&#45;&gt;Node15</title>
<path fill="none" stroke="midnightblue" d="M658.348,-234.345C549.831,-227.425 351.821,-212.459 325.015,-194 294.564,-173.031 306.179,-151.617 287.015,-120 280.069,-108.541 271.375,-96.2372 264.39,-86.7627"/>
<polygon fill="midnightblue" stroke="midnightblue" points="267.124,-84.5741 258.329,-78.6658 261.52,-88.7689 267.124,-84.5741"/>
</g>
<!-- Node16 -->
<g id="node17" class="node"><title>Node16</title>
<polygon fill="none" stroke="#bfbfbf" points="1111.29,-175.5 1111.29,-193.5 1146.74,-193.5 1146.74,-175.5 1111.29,-175.5"/>
<text text-anchor="middle" x="1129.01" y="-181.5" font-family="Helvetica,sans-Serif" font-size="10.00">map</text>
</g>
<!-- Node9&#45;&gt;Node16 -->
<g id="edge18" class="edge"><title>Node9&#45;&gt;Node16</title>
<path fill="none" stroke="midnightblue" d="M799.328,-232.931C873.723,-226.356 994.321,-213.748 1097.01,-194 1098.46,-193.722 1099.94,-193.414 1101.43,-193.086"/>
<polygon fill="midnightblue" stroke="midnightblue" points="1102.29,-196.478 1111.18,-190.709 1100.63,-189.677 1102.29,-196.478"/>
</g>
<!-- Node17 -->
<g id="node18" class="node"><title>Node17</title>
<polygon fill="none" stroke="#bfbfbf" points="334.483,-175.5 334.483,-193.5 465.546,-193.5 465.546,-175.5 334.483,-175.5"/>
<text text-anchor="middle" x="400.015" y="-181.5" font-family="Helvetica,sans-Serif" font-size="10.00">boost/algorithm/string.hpp</text>
</g>
<!-- Node9&#45;&gt;Node17 -->
<g id="edge19" class="edge"><title>Node9&#45;&gt;Node17</title>
<path fill="none" stroke="midnightblue" d="M679.047,-230.45C620.3,-220.987 522.866,-205.291 460.066,-195.174"/>
<polygon fill="midnightblue" stroke="midnightblue" points="460.342,-191.673 449.913,-193.538 459.229,-198.584 460.342,-191.673"/>
</g>
<!-- Node18 -->
<g id="node19" class="node"><title>Node18</title>
<g id="a_node19"><a xlink:href="cxxdefs_8h.html" target="_top" xlink:title="Basic definitions, which may have to be defined before any Eigen headers or further utilities are inc...">
<polygon fill="none" stroke="black" points="339.205,-60.5 339.205,-78.5 480.825,-78.5 480.825,-60.5 339.205,-60.5"/>
<text text-anchor="middle" x="410.015" y="-66.5" font-family="Helvetica,sans-Serif" font-size="10.00">tomographer/tools/cxxdefs.h</text>
</a>
</g>
</g>
<!-- Node9&#45;&gt;Node18 -->
<g id="edge20" class="edge"><title>Node9&#45;&gt;Node18</title>
<path fill="none" stroke="midnightblue" d="M686.987,-230.492C611.756,-215.27 458.769,-179.995 425.015,-139 413.422,-124.92 410.26,-103.861 409.632,-88.8125"/>
<polygon fill="midnightblue" stroke="midnightblue" points="413.131,-88.6624 409.548,-78.6919 406.131,-88.7206 413.131,-88.6624"/>
</g>
<!-- Node23 -->
<g id="node24" class="node"><title>Node23</title>
<g id="a_node24"><a xlink:href="fmt_8h.html" target="_top" xlink:title="Utilities for formatting strings. ">
<polygon fill="none" stroke="black" points="668.212,-175.5 668.212,-193.5 789.817,-193.5 789.817,-175.5 668.212,-175.5"/>
<text text-anchor="middle" x="729.015" y="-181.5" font-family="Helvetica,sans-Serif" font-size="10.00">tomographer/tools/fmt.h</text>
</a>
</g>
</g>
<!-- Node9&#45;&gt;Node23 -->
<g id="edge25" class="edge"><title>Node9&#45;&gt;Node23</title>
<path fill="none" stroke="midnightblue" d="M729.015,-230.219C729.015,-223.177 729.015,-212.808 729.015,-203.828"/>
<polygon fill="midnightblue" stroke="midnightblue" points="732.515,-203.55 729.015,-193.55 725.515,-203.55 732.515,-203.55"/>
</g>
<!-- Node30 -->
<g id="node31" class="node"><title>Node30</title>
<g id="a_node31"><a xlink:href="conststr_8h.html" target="_top" xlink:title="A constexpr string type, suitable for basic compile&#45;time string processing. ">
<polygon fill="none" stroke="black" points="949.924,-60.5 949.924,-78.5 1092.11,-78.5 1092.11,-60.5 949.924,-60.5"/>
<text text-anchor="middle" x="1021.01" y="-66.5" font-family="Helvetica,sans-Serif" font-size="10.00">tomographer/tools/conststr.h</text>
</a>
</g>
</g>
<!-- Node9&#45;&gt;Node30 -->
<g id="edge51" class="edge"><title>Node9&#45;&gt;Node30</title>
<path fill="none" stroke="midnightblue" d="M799.392,-230.888C900.752,-218.292 1079.89,-189.37 1118.01,-139 1137.63,-113.082 1096.29,-93.1045 1061.63,-81.5823"/>
<polygon fill="midnightblue" stroke="midnightblue" points="1062.68,-78.2434 1052.09,-78.5588 1060.57,-84.9164 1062.68,-78.2434"/>
</g>
<!-- Node19 -->
<g id="node20" class="node"><title>Node19</title>
<polygon fill="none" stroke="#bfbfbf" points="290.899,-0.5 290.899,-18.5 339.13,-18.5 339.13,-0.5 290.899,-0.5"/>
<text text-anchor="middle" x="315.015" y="-6.5" font-family="Helvetica,sans-Serif" font-size="10.00">cassert</text>
</g>
<!-- Node18&#45;&gt;Node19 -->
<g id="edge21" class="edge"><title>Node18&#45;&gt;Node19</title>
<path fill="none" stroke="midnightblue" d="M396.805,-60.4353C381.366,-51.0091 355.576,-35.2641 337.082,-23.9728"/>
<polygon fill="midnightblue" stroke="midnightblue" points="338.777,-20.9068 328.418,-18.6831 335.129,-26.8813 338.777,-20.9068"/>
</g>
<!-- Node20 -->
<g id="node21" class="node"><title>Node20</title>
<polygon fill="none" stroke="#bfbfbf" points="458.894,-0.5 458.894,-18.5 507.135,-18.5 507.135,-0.5 458.894,-0.5"/>
<text text-anchor="middle" x="483.015" y="-6.5" font-family="Helvetica,sans-Serif" font-size="10.00">cstddef</text>
</g>
<!-- Node18&#45;&gt;Node20 -->
<g id="edge22" class="edge"><title>Node18&#45;&gt;Node20</title>
<path fill="none" stroke="midnightblue" d="M420.165,-60.4353C431.585,-51.3619 450.374,-36.434 464.439,-25.2589"/>
<polygon fill="midnightblue" stroke="midnightblue" points="466.825,-27.8329 472.478,-18.8718 462.471,-22.3522 466.825,-27.8329"/>
</g>
<!-- Node21 -->
<g id="node22" class="node"><title>Node21</title>
<polygon fill="none" stroke="#bfbfbf" points="524.842,-0.5 524.842,-18.5 569.187,-18.5 569.187,-0.5 524.842,-0.5"/>
<text text-anchor="middle" x="547.015" y="-6.5" font-family="Helvetica,sans-Serif" font-size="10.00">cstdlib</text>
</g>
<!-- Node18&#45;&gt;Node21 -->
<g id="edge23" class="edge"><title>Node18&#45;&gt;Node21</title>
<path fill="none" stroke="midnightblue" d="M429.064,-60.4353C452.244,-50.6217 491.602,-33.9593 518.424,-22.604"/>
<polygon fill="midnightblue" stroke="midnightblue" points="519.841,-25.8049 527.686,-18.6831 517.112,-19.3587 519.841,-25.8049"/>
</g>
<!-- Node22 -->
<g id="node23" class="node"><title>Node22</title>
<polygon fill="none" stroke="#bfbfbf" points="361.047,-0.5 361.047,-18.5 440.982,-18.5 440.982,-0.5 361.047,-0.5"/>
<text text-anchor="middle" x="401.015" y="-6.5" font-family="Helvetica,sans-Serif" font-size="10.00">boost/predef.h</text>
</g>
<!-- Node18&#45;&gt;Node22 -->
<g id="edge24" class="edge"><title>Node18&#45;&gt;Node22</title>
<path fill="none" stroke="midnightblue" d="M408.763,-60.4353C407.501,-52.3035 405.51,-39.4692 403.862,-28.8485"/>
<polygon fill="midnightblue" stroke="midnightblue" points="407.306,-28.2168 402.314,-18.8718 400.389,-29.2902 407.306,-28.2168"/>
</g>
<!-- Node23&#45;&gt;Node1 -->
<g id="edge31" class="edge"><title>Node23&#45;&gt;Node1</title>
<path fill="none" stroke="midnightblue" d="M790.003,-178.668C848.604,-172.943 939.188,-161.233 1015.01,-139 1035.06,-133.121 1038.84,-128.293 1058.01,-120 1087.95,-107.055 1122.34,-92.5484 1146.05,-82.6039"/>
<polygon fill="midnightblue" stroke="midnightblue" points="1147.64,-85.7314 1155.51,-78.639 1144.94,-79.2751 1147.64,-85.7314"/>
</g>
<!-- Node23&#45;&gt;Node6 -->
<g id="edge33" class="edge"><title>Node23&#45;&gt;Node6</title>
<path fill="none" stroke="midnightblue" d="M672.364,-175.45C592.99,-164.172 451.322,-144.042 388.06,-135.053"/>
<polygon fill="midnightblue" stroke="midnightblue" points="388.288,-131.551 377.895,-133.609 387.303,-138.481 388.288,-131.551"/>
</g>
<!-- Node23&#45;&gt;Node10 -->
<g id="edge26" class="edge"><title>Node23&#45;&gt;Node10</title>
<path fill="none" stroke="midnightblue" d="M789.924,-177.008C855.27,-169.607 961.947,-156.266 1053.01,-139 1054.26,-138.764 1055.52,-138.512 1056.8,-138.249"/>
<polygon fill="midnightblue" stroke="midnightblue" points="1057.62,-141.653 1066.62,-136.061 1056.1,-134.82 1057.62,-141.653"/>
</g>
<!-- Node23&#45;&gt;Node11 -->
<g id="edge27" class="edge"><title>Node23&#45;&gt;Node11</title>
<path fill="none" stroke="midnightblue" d="M680.957,-175.492C634.914,-167.601 563.264,-154.751 492.461,-139.208"/>
<polygon fill="midnightblue" stroke="midnightblue" points="492.999,-135.742 482.479,-136.997 491.485,-142.576 492.999,-135.742"/>
</g>
<!-- Node23&#45;&gt;Node12 -->
<g id="edge29" class="edge"><title>Node23&#45;&gt;Node12</title>
<path fill="none" stroke="midnightblue" d="M789.839,-178.781C842.066,-173.334 918.714,-161.981 982.015,-139 997.923,-133.225 999.846,-127.505 1015.01,-120 1052.15,-101.626 1073.89,-115.324 1101.01,-84 1114.21,-68.7666 1118.42,-45.5127 1119.67,-29.2519"/>
<polygon fill="midnightblue" stroke="midnightblue" points="1123.18,-29.0118 1120.15,-18.8622 1116.19,-28.6917 1123.18,-29.0118"/>
</g>
<!-- Node23&#45;&gt;Node13 -->
<g id="edge30" class="edge"><title>Node23&#45;&gt;Node13</title>
<path fill="none" stroke="midnightblue" d="M698.183,-175.45C661.529,-165.881 600.466,-149.938 561.773,-139.836"/>
<polygon fill="midnightblue" stroke="midnightblue" points="562.53,-136.416 551.97,-137.276 560.761,-143.189 562.53,-136.416"/>
</g>
<!-- Node23&#45;&gt;Node14 -->
<g id="edge35" class="edge"><title>Node23&#45;&gt;Node14</title>
<path fill="none" stroke="midnightblue" d="M709.27,-175.45C687.7,-166.656 652.928,-152.48 628.205,-142.401"/>
<polygon fill="midnightblue" stroke="midnightblue" points="629.526,-139.16 618.945,-138.625 626.883,-145.642 629.526,-139.16"/>
</g>
<!-- Node24 -->
<g id="node25" class="node"><title>Node24</title>
<polygon fill="none" stroke="#bfbfbf" points="772.727,-120.5 772.727,-138.5 819.303,-138.5 819.303,-120.5 772.727,-120.5"/>
<text text-anchor="middle" x="796.015" y="-126.5" font-family="Helvetica,sans-Serif" font-size="10.00">chrono</text>
</g>
<!-- Node23&#45;&gt;Node24 -->
<g id="edge28" class="edge"><title>Node23&#45;&gt;Node24</title>
<path fill="none" stroke="midnightblue" d="M739.191,-175.45C749.422,-167.357 765.417,-154.704 777.833,-144.882"/>
<polygon fill="midnightblue" stroke="midnightblue" points="780.072,-147.574 785.743,-138.625 775.729,-142.084 780.072,-147.574"/>
</g>
<!-- Node25 -->
<g id="node26" class="node"><title>Node25</title>
<polygon fill="none" stroke="#bfbfbf" points="646.623,-120.5 646.623,-138.5 685.406,-138.5 685.406,-120.5 646.623,-120.5"/>
<text text-anchor="middle" x="666.015" y="-126.5" font-family="Helvetica,sans-Serif" font-size="10.00">utility</text>
</g>
<!-- Node23&#45;&gt;Node25 -->
<g id="edge32" class="edge"><title>Node23&#45;&gt;Node25</title>
<path fill="none" stroke="midnightblue" d="M719.446,-175.45C709.918,-167.434 695.074,-154.947 683.448,-145.166"/>
<polygon fill="midnightblue" stroke="midnightblue" points="685.579,-142.385 675.673,-138.625 681.072,-147.741 685.579,-142.385"/>
</g>
<!-- Node26 -->
<g id="node27" class="node"><title>Node26</title>
<polygon fill="none" stroke="#bfbfbf" points="703.505,-120.5 703.505,-138.5 754.524,-138.5 754.524,-120.5 703.505,-120.5"/>
<text text-anchor="middle" x="729.015" y="-126.5" font-family="Helvetica,sans-Serif" font-size="10.00">iomanip</text>
</g>
<!-- Node23&#45;&gt;Node26 -->
<g id="edge34" class="edge"><title>Node23&#45;&gt;Node26</title>
<path fill="none" stroke="midnightblue" d="M729.015,-175.219C729.015,-168.177 729.015,-157.808 729.015,-148.828"/>
<polygon fill="midnightblue" stroke="midnightblue" points="732.515,-148.55 729.015,-138.55 725.515,-148.55 732.515,-148.55"/>
</g>
<!-- Node23&#45;&gt;Node27 -->
<g id="edge36" class="edge"><title>Node23&#45;&gt;Node27</title>
<path fill="none" stroke="midnightblue" d="M755.745,-175.45C785.811,-166.396 834.82,-151.638 868.425,-141.519"/>
<polygon fill="midnightblue" stroke="midnightblue" points="869.755,-144.773 878.321,-138.538 867.737,-138.07 869.755,-144.773"/>
</g>
<!-- Node27&#45;&gt;Node1 -->
<g id="edge40" class="edge"><title>Node27&#45;&gt;Node1</title>
<path fill="none" stroke="midnightblue" d="M942.274,-120.496C993.703,-109.448 1085.92,-89.6384 1137.49,-78.5606"/>
<polygon fill="midnightblue" stroke="midnightblue" points="1138.5,-81.9234 1147.54,-76.4011 1137.03,-75.0795 1138.5,-81.9234"/>
</g>
<!-- Node27&#45;&gt;Node3 -->
<g id="edge50" class="edge"><title>Node27&#45;&gt;Node3</title>
<path fill="none" stroke="midnightblue" d="M837.016,-120.77C833.975,-120.495 830.964,-120.236 828.015,-120 508.638,-94.4109 426.334,-120.455 108.015,-84 97.6636,-82.8146 86.5838,-81.081 76.203,-79.2486"/>
<polygon fill="midnightblue" stroke="midnightblue" points="76.575,-75.7586 66.1081,-77.4 75.3141,-82.6442 76.575,-75.7586"/>
</g>
<!-- Node27&#45;&gt;Node5 -->
<g id="edge41" class="edge"><title>Node27&#45;&gt;Node5</title>
<path fill="none" stroke="midnightblue" d="M837.013,-120.801C833.973,-120.517 830.963,-120.249 828.015,-120 554.74,-96.9468 484.045,-118.784 212.015,-84 201.717,-82.6833 190.64,-80.7215 180.477,-78.6986"/>
<polygon fill="midnightblue" stroke="midnightblue" points="181.183,-75.2705 170.682,-76.6771 179.768,-82.1261 181.183,-75.2705"/>
</g>
<!-- Node27&#45;&gt;Node15 -->
<g id="edge42" class="edge"><title>Node27&#45;&gt;Node15</title>
<path fill="none" stroke="midnightblue" d="M837.01,-120.835C833.971,-120.543 830.962,-120.262 828.015,-120 592.405,-99.0183 529.753,-126.249 297.015,-84 293.065,-83.283 288.97,-82.3426 284.933,-81.2914"/>
<polygon fill="midnightblue" stroke="midnightblue" points="285.704,-77.8723 275.129,-78.5136 283.796,-84.6072 285.704,-77.8723"/>
</g>
<!-- Node27&#45;&gt;Node18 -->
<g id="edge45" class="edge"><title>Node27&#45;&gt;Node18</title>
<path fill="none" stroke="midnightblue" d="M836.995,-120.983C833.96,-120.65 830.956,-120.321 828.015,-120 680.033,-103.833 642.57,-103.681 495.015,-84 486.298,-82.8374 477.097,-81.4959 468.095,-80.1191"/>
<polygon fill="midnightblue" stroke="midnightblue" points="468.472,-76.6357 458.053,-78.5575 467.396,-83.5526 468.472,-76.6357"/>
</g>
<!-- Node27&#45;&gt;Node19 -->
<g id="edge37" class="edge"><title>Node27&#45;&gt;Node19</title>
<path fill="none" stroke="midnightblue" d="M837.009,-120.852C833.97,-120.555 830.961,-120.269 828.015,-120 772.767,-114.956 371.693,-120.615 330.015,-84 314.752,-70.591 312.52,-46.2309 313.106,-29.2456"/>
<polygon fill="midnightblue" stroke="midnightblue" points="316.624,-29.1114 313.836,-18.89 309.641,-28.6191 316.624,-29.1114"/>
</g>
<!-- Node27&#45;&gt;Node20 -->
<g id="edge38" class="edge"><title>Node27&#45;&gt;Node20</title>
<path fill="none" stroke="midnightblue" d="M837.081,-120.675C735.04,-108.834 553.364,-87.3789 547.015,-84 522.791,-71.11 503.575,-45.0555 492.743,-27.6883"/>
<polygon fill="midnightblue" stroke="midnightblue" points="495.477,-25.4394 487.359,-18.6318 489.46,-29.0162 495.477,-25.4394"/>
</g>
<!-- Node27&#45;&gt;Node21 -->
<g id="edge39" class="edge"><title>Node27&#45;&gt;Node21</title>
<path fill="none" stroke="midnightblue" d="M836.876,-120.521C739.352,-108.965 571.058,-88.4611 566.015,-84 550.614,-70.3782 546.927,-46.0646 546.397,-29.1482"/>
<polygon fill="midnightblue" stroke="midnightblue" points="549.898,-28.8518 546.429,-18.8409 542.898,-28.8299 549.898,-28.8518"/>
</g>
<!-- Node28 -->
<g id="node29" class="node"><title>Node28</title>
<polygon fill="none" stroke="#bfbfbf" points="796.611,-60.5 796.611,-78.5 855.418,-78.5 855.418,-60.5 796.611,-60.5"/>
<text text-anchor="middle" x="826.015" y="-66.5" font-family="Helvetica,sans-Serif" font-size="10.00">exception</text>
</g>
<!-- Node27&#45;&gt;Node28 -->
<g id="edge43" class="edge"><title>Node27&#45;&gt;Node28</title>
<path fill="none" stroke="midnightblue" d="M894.03,-120.435C881.484,-111.224 860.72,-95.9797 845.428,-84.753"/>
<polygon fill="midnightblue" stroke="midnightblue" points="847.293,-81.7799 837.161,-78.6831 843.15,-87.4225 847.293,-81.7799"/>
</g>
<!-- Node29 -->
<g id="node30" class="node"><title>Node29</title>
<polygon fill="none" stroke="#bfbfbf" points="873.613,-60.5 873.613,-78.5 932.416,-78.5 932.416,-60.5 873.613,-60.5"/>
<text text-anchor="middle" x="903.015" y="-66.5" font-family="Helvetica,sans-Serif" font-size="10.00">stdexcept</text>
</g>
<!-- Node27&#45;&gt;Node29 -->
<g id="edge44" class="edge"><title>Node27&#45;&gt;Node29</title>
<path fill="none" stroke="midnightblue" d="M904.737,-120.435C904.459,-112.389 904.023,-99.7388 903.659,-89.1846"/>
<polygon fill="midnightblue" stroke="midnightblue" points="907.146,-88.7452 903.303,-78.8718 900.15,-88.9865 907.146,-88.7452"/>
</g>
<!-- Node27&#45;&gt;Node30 -->
<g id="edge46" class="edge"><title>Node27&#45;&gt;Node30</title>
<path fill="none" stroke="midnightblue" d="M921.144,-120.435C940.427,-110.794 972.931,-94.5418 995.602,-83.2065"/>
<polygon fill="midnightblue" stroke="midnightblue" points="997.269,-86.2858 1004.65,-78.6831 994.139,-80.0248 997.269,-86.2858"/>
</g>
<!-- Node31 -->
<g id="node32" class="node"><title>Node31</title>
<polygon fill="none" stroke="#bfbfbf" points="574.544,-60.5 574.544,-78.5 669.485,-78.5 669.485,-60.5 574.544,-60.5"/>
<text text-anchor="middle" x="622.015" y="-66.5" font-family="Helvetica,sans-Serif" font-size="10.00">boost/version.hpp</text>
</g>
<!-- Node27&#45;&gt;Node31 -->
<g id="edge48" class="edge"><title>Node27&#45;&gt;Node31</title>
<path fill="none" stroke="midnightblue" d="M860.958,-120.444C815.137,-111.929 741.379,-97.8417 678.015,-84 673.552,-83.0252 668.9,-81.9686 664.267,-80.8903"/>
<polygon fill="midnightblue" stroke="midnightblue" points="664.775,-77.414 654.238,-78.5186 663.164,-84.2261 664.775,-77.414"/>
</g>
<!-- Node32 -->
<g id="node33" class="node"><title>Node32</title>
<polygon fill="none" stroke="#bfbfbf" points="687.49,-55.5 687.49,-83.5 778.539,-83.5 778.539,-55.5 687.49,-55.5"/>
<text text-anchor="start" x="695.49" y="-71.5" font-family="Helvetica,sans-Serif" font-size="10.00">boost/units/detail</text>
<text text-anchor="middle" x="733.015" y="-61.5" font-family="Helvetica,sans-Serif" font-size="10.00">/utility.hpp</text>
</g>
<!-- Node27&#45;&gt;Node32 -->
<g id="edge49" class="edge"><title>Node27&#45;&gt;Node32</title>
<path fill="none" stroke="midnightblue" d="M881.099,-120.435C855.417,-111.775 813.92,-97.7821 781.379,-86.8088"/>
<polygon fill="midnightblue" stroke="midnightblue" points="782.189,-83.3884 771.595,-83.5096 779.952,-90.0215 782.189,-83.3884"/>
</g>
<!-- Node30&#45;&gt;Node12 -->
<g id="edge47" class="edge"><title>Node30&#45;&gt;Node12</title>
<path fill="none" stroke="midnightblue" d="M1034.78,-60.4353C1050.94,-50.9661 1077.99,-35.1201 1097.28,-23.8184"/>
<polygon fill="midnightblue" stroke="midnightblue" points="1099.19,-26.758 1106.05,-18.6831 1095.65,-20.7182 1099.19,-26.758"/>
</g>
</g>
</svg>
        <g id="navigator" transform="translate(0 0)" fill="#404254">
                <rect fill="#f2f5e9" fill-opacity="0.5" stroke="#606060" stroke-width=".5" x="0" y="0" width="60" height="60"/>
                <use id="zoomplus" xlink:href="#zoomPlus" x="17" y="9" onmousedown="handleZoom(evt,'in')"/>
                <use id="zoomminus" xlink:href="#zoomMin" x="42" y="9" onmousedown="handleZoom(evt,'out')"/>
                <use id="reset" xlink:href="#resetDef" x="30" y="36" onmousedown="handleReset()"/>
                <g id="arrowUp" xlink:href="#dirArrow" transform="translate(30 24)" onmousedown="handlePan(0,-1)">
                  <use xlink:href="#rim" fill="#404040">
                        <set attributeName="fill" to="#808080" begin="arrowUp.mouseover" end="arrowUp.mouseout"/>
                  </use>
                  <path fill="none" stroke="white" stroke-width="1.5" d="M0,-3.0v7 M-2.5,-0.5L0,-3.0L2.5,-0.5"/>
                </g>
                <g id="arrowRight" xlink:href="#dirArrow" transform="rotate(90) translate(36 -43)" onmousedown="handlePan(1,0)">
                  <use xlink:href="#rim" fill="#404040">
                        <set attributeName="fill" to="#808080" begin="arrowRight.mouseover" end="arrowRight.mouseout"/>
                  </use>
                  <path fill="none" stroke="white" stroke-width="1.5" d="M0,-3.0v7 M-2.5,-0.5L0,-3.0L2.5,-0.5"/>
                </g>
                <g id="arrowDown" xlink:href="#dirArrow" transform="rotate(180) translate(-30 -48)" onmousedown="handlePan(0,1)">
                  <use xlink:href="#rim" fill="#404040">
                        <set attributeName="fill" to="#808080" begin="arrowDown.mouseover" end="arrowDown.mouseout"/>
                  </use>
                  <path fill="none" stroke="white" stroke-width="1.5" d="M0,-3.0v7 M-2.5,-0.5L0,-3.0L2.5,-0.5"/>
                </g>
                <g id="arrowLeft" xlink:href="#dirArrow" transform="rotate(270) translate(-36 17)" onmousedown="handlePan(-1,0)">
                  <use xlink:href="#rim" fill="#404040">
                        <set attributeName="fill" to="#808080" begin="arrowLeft.mouseover" end="arrowLeft.mouseout"/>
                  </use>
                  <path fill="none" stroke="white" stroke-width="1.5" d="M0,-3.0v7 M-2.5,-0.5L0,-3.0L2.5,-0.5"/>
                </g>
        </g>
        <svg viewBox="0 0 15 15" width="100%" height="30px" preserveAspectRatio="xMaxYMin meet">
         <g id="arrow_out" transform="scale(0.3 0.3)">
          <a xlink:href="random__unitary_8h__incl_org.svg" target="_base">
           <rect id="button" ry="5" rx="5" y="6" x="6" height="38" width="38"
                fill="#f2f5e9" fill-opacity="0.5" stroke="#606060" stroke-width="1.0"/>
           <path id="arrow"
             d="M 11.500037,31.436501 C 11.940474,20.09759 22.043105,11.32322 32.158766,21.979434 L 37.068811,17.246167 C 37.068811,17.246167 37.088388,32 37.088388,32 L 22.160133,31.978069 C 22.160133,31.978069 26.997745,27.140456 26.997745,27.140456 C 18.528582,18.264221 13.291696,25.230495 11.500037,31.436501 z"
             style="fill:#404040;"/>
          </a>
         </g>
        </svg>
</svg>
