<?xml version="1.0" encoding="UTF-8" standalone="no"?>
<!DOCTYPE svg PUBLIC "-//W3C//DTD SVG 1.1//EN"
 "http://www.w3.org/Graphics/SVG/1.1/DTD/svg11.dtd">
<!-- Generated by graphviz version 2.38.0 (20140413.2041)
 -->
<!-- Title: tomographer/mathtools/simple_find_zero.h Pages: 1 -->
<!--zoomable 322 -->
<svg id="main" version="1.1" xmlns="http://www.w3.org/2000/svg" xmlns:xlink="http://www.w3.org/1999/xlink" xml:space="preserve" onload="init(evt)">
<style type="text/css"><![CDATA[
.edge:hover path { stroke: red; }
.edge:hover polygon { stroke: red; fill: red; }
]]></style>
<script type="text/javascript"><![CDATA[
var edges = document.getElementsByTagName('g');
if (edges && edges.length) {
  for (var i=0;i<edges.length;i++) {
    if (edges[i].id.substr(0,4)=='edge') {
      edges[i].setAttribute('class','edge');
    }
  }
}
]]></script>
        <defs>
                <circle id="rim" cx="0" cy="0" r="7"/>
                <circle id="rim2" cx="0" cy="0" r="3.5"/>
                <g id="zoomPlus">
                        <use xlink:href="#rim" fill="#404040">
                                <set attributeName="fill" to="#808080" begin="zoomplus.mouseover" end="zoomplus.mouseout"/>
                        </use>
                        <path d="M-4,0h8M0,-4v8" fill="none" stroke="white" stroke-width="1.5" pointer-events="none"/>
                </g>
                <g id="zoomMin">
                        <use xlink:href="#rim" fill="#404040">
                                <set attributeName="fill" to="#808080" begin="zoomminus.mouseover" end="zoomminus.mouseout"/>
                        </use>
                        <path d="M-4,0h8" fill="none" stroke="white" stroke-width="1.5" pointer-events="none"/>
                </g>
                <g id="dirArrow">
                        <path fill="none" stroke="white" stroke-width="1.5" d="M0,-3.0v7 M-2.5,-0.5L0,-3.0L2.5,-0.5"/>
                </g>
               <g id="resetDef">
                       <use xlink:href="#rim2" fill="#404040">
                               <set attributeName="fill" to="#808080" begin="reset.mouseover" end="reset.mouseout"/>
                       </use>
               </g>
        </defs>

<script type="text/javascript">
var viewWidth = 1169;
var viewHeight = 322;
var sectionId = 'dynsection-0';
</script>
<script xlink:href="svgpan.js"/>
<svg id="graph" class="graph">
<g id="viewport">
<title>tomographer/mathtools/simple_find_zero.h</title>
<!-- Node0 -->
<g id="node1" class="node"><title>Node0</title>
<polygon fill="#bfbfbf" stroke="black" points="518.756,-285.5 518.756,-313.5 637.588,-313.5 637.588,-285.5 518.756,-285.5"/>
<text text-anchor="start" x="526.756" y="-301.5" font-family="Helvetica,sans-Serif" font-size="10.00">tomographer/mathtools</text>
<text text-anchor="middle" x="578.172" y="-291.5" font-family="Helvetica,sans-Serif" font-size="10.00">/simple_find_zero.h</text>
</g>
<!-- Node1 -->
<g id="node2" class="node"><title>Node1</title>
<polygon fill="none" stroke="#bfbfbf" points="236.557,-230.5 236.557,-248.5 279.788,-248.5 279.788,-230.5 236.557,-230.5"/>
<text text-anchor="middle" x="258.172" y="-236.5" font-family="Helvetica,sans-Serif" font-size="10.00">cmath</text>
</g>
<!-- Node0&#45;&gt;Node1 -->
<g id="edge1" class="edge"><title>Node0&#45;&gt;Node1</title>
<path fill="none" stroke="midnightblue" d="M518.689,-289.186C461.094,-279.919 371.393,-264.831 294.172,-249 292.718,-248.702 291.232,-248.388 289.733,-248.064"/>
<polygon fill="midnightblue" stroke="midnightblue" points="290.353,-244.616 279.828,-245.833 288.815,-251.445 290.353,-244.616"/>
</g>
<!-- Node2 -->
<g id="node3" class="node"><title>Node2</title>
<polygon fill="none" stroke="#bfbfbf" points="300.111,-120.5 300.111,-138.5 342.234,-138.5 342.234,-120.5 300.111,-120.5"/>
<text text-anchor="middle" x="321.172" y="-126.5" font-family="Helvetica,sans-Serif" font-size="10.00">cstdio</text>
</g>
<!-- Node0&#45;&gt;Node2 -->
<g id="edge2" class="edge"><title>Node0&#45;&gt;Node2</title>
<path fill="none" stroke="midnightblue" d="M518.715,-285.556C466.541,-271.338 391.897,-243.628 345.172,-194 333.315,-181.406 327.166,-162.382 324.076,-148.439"/>
<polygon fill="midnightblue" stroke="midnightblue" points="327.506,-147.74 322.204,-138.567 320.628,-149.044 327.506,-147.74"/>
</g>
<!-- Node3 -->
<g id="node4" class="node"><title>Node3</title>
<polygon fill="none" stroke="#bfbfbf" points="930.786,-230.5 930.786,-248.5 969.559,-248.5 969.559,-230.5 930.786,-230.5"/>
<text text-anchor="middle" x="950.172" y="-236.5" font-family="Helvetica,sans-Serif" font-size="10.00">limits</text>
</g>
<!-- Node0&#45;&gt;Node3 -->
<g id="edge3" class="edge"><title>Node0&#45;&gt;Node3</title>
<path fill="none" stroke="midnightblue" d="M637.809,-292.49C704.512,-285.188 815.851,-271.268 920.805,-248.773"/>
<polygon fill="midnightblue" stroke="midnightblue" points="921.585,-252.185 930.614,-246.641 920.099,-245.345 921.585,-252.185"/>
</g>
<!-- Node4 -->
<g id="node5" class="node"><title>Node4</title>
<g id="a_node5"><a xlink:href="loggers_8h.html" target="_top" xlink:title="Utilities for logging messages. ">
<polygon fill="none" stroke="black" points="771.914,-230.5 771.914,-248.5 912.431,-248.5 912.431,-230.5 771.914,-230.5"/>
<text text-anchor="middle" x="842.172" y="-236.5" font-family="Helvetica,sans-Serif" font-size="10.00">tomographer/tools/loggers.h</text>
</a>
</g>
</g>
<!-- Node0&#45;&gt;Node4 -->
<g id="edge4" class="edge"><title>Node0&#45;&gt;Node4</title>
<path fill="none" stroke="midnightblue" d="M637.419,-285.484C685.231,-274.98 751.562,-260.407 795.62,-250.727"/>
<polygon fill="midnightblue" stroke="midnightblue" points="796.475,-254.123 805.491,-248.559 794.973,-247.286 796.475,-254.123"/>
</g>
<!-- Node4&#45;&gt;Node2 -->
<g id="edge5" class="edge"><title>Node4&#45;&gt;Node2</title>
<path fill="none" stroke="midnightblue" d="M771.559,-238.634C657.176,-237.736 437.389,-231.052 370.172,-194 351.545,-183.732 337.701,-163.11 329.565,-148.145"/>
<polygon fill="midnightblue" stroke="midnightblue" points="332.508,-146.212 324.855,-138.886 326.269,-149.386 332.508,-146.212"/>
</g>
<!-- Node5 -->
<g id="node6" class="node"><title>Node5</title>
<polygon fill="none" stroke="#bfbfbf" points="397.776,-120.5 397.776,-138.5 446.569,-138.5 446.569,-120.5 397.776,-120.5"/>
<text text-anchor="middle" x="422.172" y="-126.5" font-family="Helvetica,sans-Serif" font-size="10.00">cstdarg</text>
</g>
<!-- Node4&#45;&gt;Node5 -->
<g id="edge6" class="edge"><title>Node4&#45;&gt;Node5</title>
<path fill="none" stroke="midnightblue" d="M809.663,-230.493C773.955,-221.67 714.933,-207.004 664.172,-194 590.238,-175.059 503.789,-152.204 456.836,-139.731"/>
<polygon fill="midnightblue" stroke="midnightblue" points="457.446,-136.272 446.883,-137.085 455.648,-143.037 457.446,-136.272"/>
</g>
<!-- Node6 -->
<g id="node7" class="node"><title>Node6</title>
<polygon fill="none" stroke="#bfbfbf" points="1108.95,-0.5 1108.95,-18.5 1149.4,-18.5 1149.4,-0.5 1108.95,-0.5"/>
<text text-anchor="middle" x="1129.17" y="-6.5" font-family="Helvetica,sans-Serif" font-size="10.00">string</text>
</g>
<!-- Node4&#45;&gt;Node6 -->
<g id="edge7" class="edge"><title>Node4&#45;&gt;Node6</title>
<path fill="none" stroke="midnightblue" d="M911.055,-230.461C996.45,-220.163 1131.75,-202.617 1139.17,-194 1180.11,-146.476 1152.27,-63.7264 1137.15,-27.8807"/>
<polygon fill="midnightblue" stroke="midnightblue" points="1140.35,-26.462 1133.12,-18.7156 1133.94,-29.2787 1140.35,-26.462"/>
</g>
<!-- Node7 -->
<g id="node8" class="node"><title>Node7</title>
<polygon fill="none" stroke="#bfbfbf" points="946.392,-120.5 946.392,-138.5 997.953,-138.5 997.953,-120.5 946.392,-120.5"/>
<text text-anchor="middle" x="972.172" y="-126.5" font-family="Helvetica,sans-Serif" font-size="10.00">sstream</text>
</g>
<!-- Node4&#45;&gt;Node7 -->
<g id="edge8" class="edge"><title>Node4&#45;&gt;Node7</title>
<path fill="none" stroke="midnightblue" d="M840.2,-230.09C837.629,-216.89 834.799,-191.153 847.172,-175 858.28,-160.499 903.599,-146.886 936.478,-138.627"/>
<polygon fill="midnightblue" stroke="midnightblue" points="937.349,-142.017 946.23,-136.24 935.685,-135.218 937.349,-142.017"/>
</g>
<!-- Node8 -->
<g id="node9" class="node"><title>Node8</title>
<polygon fill="none" stroke="#bfbfbf" points="807,-60.5 807,-78.5 861.345,-78.5 861.345,-60.5 807,-60.5"/>
<text text-anchor="middle" x="834.172" y="-66.5" font-family="Helvetica,sans-Serif" font-size="10.00">iostream</text>
</g>
<!-- Node4&#45;&gt;Node8 -->
<g id="edge9" class="edge"><title>Node4&#45;&gt;Node8</title>
<path fill="none" stroke="midnightblue" d="M844.582,-230.341C849.114,-216.528 860.286,-188.708 880.172,-175 957.134,-121.948 1143.51,-191.392 1083.17,-120 1052.19,-83.3361 916.525,-96.4849 870.172,-84 867.888,-83.3848 865.547,-82.6812 863.207,-81.9256"/>
<polygon fill="midnightblue" stroke="midnightblue" points="864.351,-78.6176 853.756,-78.6185 862.039,-85.2249 864.351,-78.6176"/>
</g>
<!-- Node9 -->
<g id="node10" class="node"><title>Node9</title>
<polygon fill="none" stroke="#bfbfbf" points="1015.77,-120.5 1015.77,-138.5 1074.58,-138.5 1074.58,-120.5 1015.77,-120.5"/>
<text text-anchor="middle" x="1045.17" y="-126.5" font-family="Helvetica,sans-Serif" font-size="10.00">functional</text>
</g>
<!-- Node4&#45;&gt;Node9 -->
<g id="edge10" class="edge"><title>Node4&#45;&gt;Node9</title>
<path fill="none" stroke="midnightblue" d="M909.78,-230.465C977.119,-221.768 1072.06,-207.347 1083.17,-194 1095.86,-178.752 1079.42,-158.797 1064.37,-145.36"/>
<polygon fill="midnightblue" stroke="midnightblue" points="1066.26,-142.377 1056.35,-138.637 1061.77,-147.743 1066.26,-142.377"/>
</g>
<!-- Node10 -->
<g id="node11" class="node"><title>Node10</title>
<polygon fill="none" stroke="#bfbfbf" points="879.106,-60.5 879.106,-78.5 941.239,-78.5 941.239,-60.5 879.106,-60.5"/>
<text text-anchor="middle" x="910.172" y="-66.5" font-family="Helvetica,sans-Serif" font-size="10.00">type_traits</text>
</g>
<!-- Node4&#45;&gt;Node10 -->
<g id="edge11" class="edge"><title>Node4&#45;&gt;Node10</title>
<path fill="none" stroke="midnightblue" d="M912.455,-230.842C984.209,-222.321 1086.8,-207.915 1099.17,-194 1121.05,-169.404 1122.59,-145.818 1102.17,-120 1059.11,-65.5457 1016.91,-103.121 950.172,-84 947.706,-83.2935 945.167,-82.5278 942.62,-81.7324"/>
<polygon fill="midnightblue" stroke="midnightblue" points="943.494,-78.3364 932.902,-78.579 941.334,-84.9947 943.494,-78.3364"/>
</g>
<!-- Node11 -->
<g id="node12" class="node"><title>Node11</title>
<polygon fill="none" stroke="#bfbfbf" points="889.446,-175.5 889.446,-193.5 924.899,-193.5 924.899,-175.5 889.446,-175.5"/>
<text text-anchor="middle" x="907.172" y="-181.5" font-family="Helvetica,sans-Serif" font-size="10.00">map</text>
</g>
<!-- Node4&#45;&gt;Node11 -->
<g id="edge12" class="edge"><title>Node4&#45;&gt;Node11</title>
<path fill="none" stroke="midnightblue" d="M852.044,-230.45C861.875,-222.434 877.19,-209.947 889.185,-200.166"/>
<polygon fill="midnightblue" stroke="midnightblue" points="891.669,-202.657 897.207,-193.625 887.245,-197.232 891.669,-202.657"/>
</g>
<!-- Node12 -->
<g id="node13" class="node"><title>Node12</title>
<polygon fill="none" stroke="#bfbfbf" points="942.641,-175.5 942.641,-193.5 1073.7,-193.5 1073.7,-175.5 942.641,-175.5"/>
<text text-anchor="middle" x="1008.17" y="-181.5" font-family="Helvetica,sans-Serif" font-size="10.00">boost/algorithm/string.hpp</text>
</g>
<!-- Node4&#45;&gt;Node12 -->
<g id="edge13" class="edge"><title>Node4&#45;&gt;Node12</title>
<path fill="none" stroke="midnightblue" d="M867.384,-230.45C895.62,-221.436 941.568,-206.765 973.251,-196.65"/>
<polygon fill="midnightblue" stroke="midnightblue" points="974.534,-199.914 982.996,-193.538 972.405,-193.246 974.534,-199.914"/>
</g>
<!-- Node13 -->
<g id="node14" class="node"><title>Node13</title>
<g id="a_node14"><a xlink:href="cxxdefs_8h.html" target="_top" xlink:title="Basic definitions, which may have to be defined before any Eigen headers or further utilities are inc...">
<polygon fill="none" stroke="black" points="40.3623,-60.5 40.3623,-78.5 181.982,-78.5 181.982,-60.5 40.3623,-60.5"/>
<text text-anchor="middle" x="111.172" y="-66.5" font-family="Helvetica,sans-Serif" font-size="10.00">tomographer/tools/cxxdefs.h</text>
</a>
</g>
</g>
<!-- Node4&#45;&gt;Node13 -->
<g id="edge14" class="edge"><title>Node4&#45;&gt;Node13</title>
<path fill="none" stroke="midnightblue" d="M787.147,-230.496C735.292,-222.576 655.56,-209.426 587.172,-194 498.079,-173.903 474.413,-171.797 389.172,-139 371.549,-132.219 369.014,-126.182 351.172,-120 317.874,-108.463 227.165,-91.1285 167.295,-80.3312"/>
<polygon fill="midnightblue" stroke="midnightblue" points="167.692,-76.8466 157.231,-78.5253 166.456,-83.7366 167.692,-76.8466"/>
</g>
<!-- Node18 -->
<g id="node19" class="node"><title>Node18</title>
<g id="a_node19"><a xlink:href="fmt_8h.html" target="_top" xlink:title="Utilities for formatting strings. ">
<polygon fill="none" stroke="black" points="673.37,-175.5 673.37,-193.5 794.975,-193.5 794.975,-175.5 673.37,-175.5"/>
<text text-anchor="middle" x="734.172" y="-181.5" font-family="Helvetica,sans-Serif" font-size="10.00">tomographer/tools/fmt.h</text>
</a>
</g>
</g>
<!-- Node4&#45;&gt;Node18 -->
<g id="edge19" class="edge"><title>Node4&#45;&gt;Node18</title>
<path fill="none" stroke="midnightblue" d="M825.769,-230.45C808.246,-221.851 780.235,-208.105 759.798,-198.075"/>
<polygon fill="midnightblue" stroke="midnightblue" points="761.249,-194.889 750.73,-193.625 758.165,-201.173 761.249,-194.889"/>
</g>
<!-- Node27 -->
<g id="node28" class="node"><title>Node27</title>
<g id="a_node28"><a xlink:href="conststr_8h.html" target="_top" xlink:title="A constexpr string type, suitable for basic compile&#45;time string processing. ">
<polygon fill="none" stroke="black" points="959.082,-60.5 959.082,-78.5 1101.26,-78.5 1101.26,-60.5 959.082,-60.5"/>
<text text-anchor="middle" x="1030.17" y="-66.5" font-family="Helvetica,sans-Serif" font-size="10.00">tomographer/tools/conststr.h</text>
</a>
</g>
</g>
<!-- Node4&#45;&gt;Node27 -->
<g id="edge45" class="edge"><title>Node4&#45;&gt;Node27</title>
<path fill="none" stroke="midnightblue" d="M904.678,-230.486C984.175,-220 1112.09,-202.017 1119.17,-194 1140.96,-169.35 1137.98,-148.282 1121.17,-120 1110.3,-101.701 1090.02,-89.7412 1071.37,-82.1708"/>
<polygon fill="midnightblue" stroke="midnightblue" points="1072.41,-78.8242 1061.82,-78.6017 1069.96,-85.3812 1072.41,-78.8242"/>
</g>
<!-- Node14 -->
<g id="node15" class="node"><title>Node14</title>
<polygon fill="none" stroke="#bfbfbf" points="369.057,-0.5 369.057,-18.5 417.288,-18.5 417.288,-0.5 369.057,-0.5"/>
<text text-anchor="middle" x="393.172" y="-6.5" font-family="Helvetica,sans-Serif" font-size="10.00">cassert</text>
</g>
<!-- Node13&#45;&gt;Node14 -->
<g id="edge15" class="edge"><title>Node13&#45;&gt;Node14</title>
<path fill="none" stroke="midnightblue" d="M150.087,-60.4962C205.472,-49.1049 306.151,-28.3979 358.88,-17.5531"/>
<polygon fill="midnightblue" stroke="midnightblue" points="359.669,-20.9642 368.758,-15.5213 358.258,-14.1077 359.669,-20.9642"/>
</g>
<!-- Node15 -->
<g id="node16" class="node"><title>Node15</title>
<polygon fill="none" stroke="#bfbfbf" points="595.052,-0.5 595.052,-18.5 643.293,-18.5 643.293,-0.5 595.052,-0.5"/>
<text text-anchor="middle" x="619.172" y="-6.5" font-family="Helvetica,sans-Serif" font-size="10.00">cstddef</text>
</g>
<!-- Node13&#45;&gt;Node15 -->
<g id="edge16" class="edge"><title>Node13&#45;&gt;Node15</title>
<path fill="none" stroke="midnightblue" d="M155.527,-60.4989C167.107,-58.5518 179.589,-56.578 191.172,-55 336.917,-35.1465 511.65,-19.5089 584.568,-13.3462"/>
<polygon fill="midnightblue" stroke="midnightblue" points="585.303,-16.7969 594.975,-12.4728 584.717,-9.82147 585.303,-16.7969"/>
</g>
<!-- Node16 -->
<g id="node17" class="node"><title>Node16</title>
<polygon fill="none" stroke="#bfbfbf" points="0,-0.5 0,-18.5 44.3447,-18.5 44.3447,-0.5 0,-0.5"/>
<text text-anchor="middle" x="22.1724" y="-6.5" font-family="Helvetica,sans-Serif" font-size="10.00">cstdlib</text>
</g>
<!-- Node13&#45;&gt;Node16 -->
<g id="edge17" class="edge"><title>Node13&#45;&gt;Node16</title>
<path fill="none" stroke="midnightblue" d="M98.7973,-60.4353C84.531,-51.1382 60.8325,-35.6942 43.562,-24.4393"/>
<polygon fill="midnightblue" stroke="midnightblue" points="45.0182,-21.2107 34.7292,-18.6831 41.1963,-27.0753 45.0182,-21.2107"/>
</g>
<!-- Node17 -->
<g id="node18" class="node"><title>Node17</title>
<polygon fill="none" stroke="#bfbfbf" points="71.2046,-0.5 71.2046,-18.5 151.14,-18.5 151.14,-0.5 71.2046,-0.5"/>
<text text-anchor="middle" x="111.172" y="-6.5" font-family="Helvetica,sans-Serif" font-size="10.00">boost/predef.h</text>
</g>
<!-- Node13&#45;&gt;Node17 -->
<g id="edge18" class="edge"><title>Node13&#45;&gt;Node17</title>
<path fill="none" stroke="midnightblue" d="M111.172,-60.4353C111.172,-52.3891 111.172,-39.7388 111.172,-29.1846"/>
<polygon fill="midnightblue" stroke="midnightblue" points="114.672,-28.8717 111.172,-18.8718 107.672,-28.8718 114.672,-28.8717"/>
</g>
<!-- Node18&#45;&gt;Node2 -->
<g id="edge20" class="edge"><title>Node18&#45;&gt;Node2</title>
<path fill="none" stroke="midnightblue" d="M673.233,-175.68C583.992,-164.227 420.955,-143.305 352.622,-134.536"/>
<polygon fill="midnightblue" stroke="midnightblue" points="352.858,-131.038 342.494,-133.236 351.967,-137.981 352.858,-131.038"/>
</g>
<!-- Node18&#45;&gt;Node5 -->
<g id="edge21" class="edge"><title>Node18&#45;&gt;Node5</title>
<path fill="none" stroke="midnightblue" d="M673.462,-175.493C619.069,-167.94 536.923,-155.601 456.878,-139.197"/>
<polygon fill="midnightblue" stroke="midnightblue" points="457.123,-135.674 446.621,-137.07 455.702,-142.528 457.123,-135.674"/>
</g>
<!-- Node18&#45;&gt;Node6 -->
<g id="edge23" class="edge"><title>Node18&#45;&gt;Node6</title>
<path fill="none" stroke="midnightblue" d="M760.478,-175.473C789.37,-166.633 837.123,-151.952 878.172,-139 904.444,-130.711 910.538,-127.038 937.172,-120 1013.1,-99.9347 1053.33,-138.19 1110.17,-84 1125.05,-69.8131 1128.85,-45.6231 1129.55,-28.8895"/>
<polygon fill="midnightblue" stroke="midnightblue" points="1133.05,-28.7396 1129.64,-18.7105 1126.05,-28.6806 1133.05,-28.7396"/>
</g>
<!-- Node18&#45;&gt;Node7 -->
<g id="edge24" class="edge"><title>Node18&#45;&gt;Node7</title>
<path fill="none" stroke="midnightblue" d="M770.319,-175.45C815.319,-165.43 891.697,-148.421 936.482,-138.448"/>
<polygon fill="midnightblue" stroke="midnightblue" points="937.343,-141.842 946.343,-136.252 935.821,-135.009 937.343,-141.842"/>
</g>
<!-- Node18&#45;&gt;Node8 -->
<g id="edge25" class="edge"><title>Node18&#45;&gt;Node8</title>
<path fill="none" stroke="midnightblue" d="M795.148,-177.36C819.834,-171.529 846.035,-160.344 861.172,-139 872.67,-122.788 860.241,-101 848.709,-86.3902"/>
<polygon fill="midnightblue" stroke="midnightblue" points="851.343,-84.0844 842.21,-78.7139 846,-88.6075 851.343,-84.0844"/>
</g>
<!-- Node18&#45;&gt;Node9 -->
<g id="edge29" class="edge"><title>Node18&#45;&gt;Node9</title>
<path fill="none" stroke="midnightblue" d="M789.244,-175.49C842.342,-167.549 925.184,-154.589 1005.92,-139.154"/>
<polygon fill="midnightblue" stroke="midnightblue" points="1006.59,-142.588 1015.75,-137.26 1005.27,-135.715 1006.59,-142.588"/>
</g>
<!-- Node19 -->
<g id="node20" class="node"><title>Node19</title>
<polygon fill="none" stroke="#bfbfbf" points="617.884,-120.5 617.884,-138.5 664.46,-138.5 664.46,-120.5 617.884,-120.5"/>
<text text-anchor="middle" x="641.172" y="-126.5" font-family="Helvetica,sans-Serif" font-size="10.00">chrono</text>
</g>
<!-- Node18&#45;&gt;Node19 -->
<g id="edge22" class="edge"><title>Node18&#45;&gt;Node19</title>
<path fill="none" stroke="midnightblue" d="M720.048,-175.45C705.299,-167.045 681.924,-153.724 664.443,-143.762"/>
<polygon fill="midnightblue" stroke="midnightblue" points="665.851,-140.536 655.43,-138.625 662.385,-146.618 665.851,-140.536"/>
</g>
<!-- Node20 -->
<g id="node21" class="node"><title>Node20</title>
<polygon fill="none" stroke="#bfbfbf" points="682.781,-120.5 682.781,-138.5 721.564,-138.5 721.564,-120.5 682.781,-120.5"/>
<text text-anchor="middle" x="702.172" y="-126.5" font-family="Helvetica,sans-Serif" font-size="10.00">utility</text>
</g>
<!-- Node18&#45;&gt;Node20 -->
<g id="edge26" class="edge"><title>Node18&#45;&gt;Node20</title>
<path fill="none" stroke="midnightblue" d="M729.172,-175.219C724.684,-167.786 717.959,-156.646 712.343,-147.345"/>
<polygon fill="midnightblue" stroke="midnightblue" points="715.197,-145.301 707.032,-138.55 709.205,-148.919 715.197,-145.301"/>
</g>
<!-- Node21 -->
<g id="node22" class="node"><title>Node21</title>
<polygon fill="none" stroke="#bfbfbf" points="739.557,-120.5 739.557,-138.5 782.788,-138.5 782.788,-120.5 739.557,-120.5"/>
<text text-anchor="middle" x="761.172" y="-126.5" font-family="Helvetica,sans-Serif" font-size="10.00">vector</text>
</g>
<!-- Node18&#45;&gt;Node21 -->
<g id="edge27" class="edge"><title>Node18&#45;&gt;Node21</title>
<path fill="none" stroke="midnightblue" d="M738.391,-175.219C742.138,-167.864 747.733,-156.88 752.441,-147.639"/>
<polygon fill="midnightblue" stroke="midnightblue" points="755.651,-149.049 757.072,-138.55 749.414,-145.871 755.651,-149.049"/>
</g>
<!-- Node22 -->
<g id="node23" class="node"><title>Node22</title>
<polygon fill="none" stroke="#bfbfbf" points="800.663,-120.5 800.663,-138.5 851.682,-138.5 851.682,-120.5 800.663,-120.5"/>
<text text-anchor="middle" x="826.172" y="-126.5" font-family="Helvetica,sans-Serif" font-size="10.00">iomanip</text>
</g>
<!-- Node18&#45;&gt;Node22 -->
<g id="edge28" class="edge"><title>Node18&#45;&gt;Node22</title>
<path fill="none" stroke="midnightblue" d="M748.145,-175.45C762.735,-167.045 785.859,-153.724 803.152,-143.762"/>
<polygon fill="midnightblue" stroke="midnightblue" points="805.15,-146.65 812.068,-138.625 801.656,-140.584 805.15,-146.65"/>
</g>
<!-- Node23 -->
<g id="node24" class="node"><title>Node23</title>
<g id="a_node24"><a xlink:href="cxxutil_8h.html" target="_top" xlink:title="Some C++ utilities, with a tad of C++11 tricks. ">
<polygon fill="none" stroke="black" points="464.421,-120.5 464.421,-138.5 599.923,-138.5 599.923,-120.5 464.421,-120.5"/>
<text text-anchor="middle" x="532.172" y="-126.5" font-family="Helvetica,sans-Serif" font-size="10.00">tomographer/tools/cxxutil.h</text>
</a>
</g>
</g>
<!-- Node18&#45;&gt;Node23 -->
<g id="edge30" class="edge"><title>Node18&#45;&gt;Node23</title>
<path fill="none" stroke="midnightblue" d="M703.493,-175.45C668.539,-166.279 611.278,-151.256 572.68,-141.128"/>
<polygon fill="midnightblue" stroke="midnightblue" points="573.37,-137.691 562.809,-138.538 571.593,-144.462 573.37,-137.691"/>
</g>
<!-- Node23&#45;&gt;Node8 -->
<g id="edge34" class="edge"><title>Node23&#45;&gt;Node8</title>
<path fill="none" stroke="midnightblue" d="M594.941,-120.48C648.15,-113.043 726.256,-100.623 793.172,-84 796.132,-83.2649 799.186,-82.4225 802.23,-81.5254"/>
<polygon fill="midnightblue" stroke="midnightblue" points="803.291,-84.861 811.792,-78.5382 801.203,-78.1794 803.291,-84.861"/>
</g>
<!-- Node23&#45;&gt;Node10 -->
<g id="edge36" class="edge"><title>Node23&#45;&gt;Node10</title>
<path fill="none" stroke="midnightblue" d="M598.511,-120.47C689.402,-109.361 844.373,-89.9918 870.172,-84 873.146,-83.3093 876.212,-82.486 879.26,-81.5914"/>
<polygon fill="midnightblue" stroke="midnightblue" points="880.329,-84.9241 888.804,-78.5666 878.214,-78.2512 880.329,-84.9241"/>
</g>
<!-- Node23&#45;&gt;Node13 -->
<g id="edge39" class="edge"><title>Node23&#45;&gt;Node13</title>
<path fill="none" stroke="midnightblue" d="M465.101,-120.499C396.259,-112.111 286.09,-98.1969 191.172,-84 183.25,-82.815 174.898,-81.4902 166.7,-80.1462"/>
<polygon fill="midnightblue" stroke="midnightblue" points="167.254,-76.6902 156.815,-78.5054 166.107,-83.5957 167.254,-76.6902"/>
</g>
<!-- Node23&#45;&gt;Node14 -->
<g id="edge31" class="edge"><title>Node23&#45;&gt;Node14</title>
<path fill="none" stroke="midnightblue" d="M543.096,-120.3C560.577,-106.191 591.219,-76.7449 574.172,-55 556.308,-32.2116 474.964,-19.5373 427.625,-13.9729"/>
<polygon fill="midnightblue" stroke="midnightblue" points="427.84,-10.475 417.51,-12.8311 427.054,-17.4308 427.84,-10.475"/>
</g>
<!-- Node23&#45;&gt;Node15 -->
<g id="edge32" class="edge"><title>Node23&#45;&gt;Node15</title>
<path fill="none" stroke="midnightblue" d="M594.11,-120.496C657.937,-111.615 749.595,-96.841 760.172,-84 792.601,-44.6296 704.766,-23.8023 653.377,-15.2602"/>
<polygon fill="midnightblue" stroke="midnightblue" points="653.751,-11.7758 643.326,-13.6676 652.655,-18.6896 653.751,-11.7758"/>
</g>
<!-- Node23&#45;&gt;Node16 -->
<g id="edge33" class="edge"><title>Node23&#45;&gt;Node16</title>
<path fill="none" stroke="midnightblue" d="M464.162,-120.898C461.125,-120.588 458.117,-120.288 455.172,-120 408.115,-115.406 65.2198,-116.806 31.1724,-84 16.7305,-70.0848 16.5476,-45.8354 18.6084,-29.0139"/>
<polygon fill="midnightblue" stroke="midnightblue" points="22.123,-29.2004 20.2459,-18.7732 15.2108,-28.0951 22.123,-29.2004"/>
</g>
<!-- Node24 -->
<g id="node25" class="node"><title>Node24</title>
<polygon fill="none" stroke="#bfbfbf" points="621.554,-60.5 621.554,-78.5 674.791,-78.5 674.791,-60.5 621.554,-60.5"/>
<text text-anchor="middle" x="648.172" y="-66.5" font-family="Helvetica,sans-Serif" font-size="10.00">complex</text>
</g>
<!-- Node23&#45;&gt;Node24 -->
<g id="edge35" class="edge"><title>Node23&#45;&gt;Node24</title>
<path fill="none" stroke="midnightblue" d="M548.302,-120.435C567.585,-110.794 600.089,-94.5418 622.759,-83.2065"/>
<polygon fill="midnightblue" stroke="midnightblue" points="624.427,-86.2858 631.806,-78.6831 621.297,-80.0248 624.427,-86.2858"/>
</g>
<!-- Node25 -->
<g id="node26" class="node"><title>Node25</title>
<polygon fill="none" stroke="#bfbfbf" points="692.769,-60.5 692.769,-78.5 751.576,-78.5 751.576,-60.5 692.769,-60.5"/>
<text text-anchor="middle" x="722.172" y="-66.5" font-family="Helvetica,sans-Serif" font-size="10.00">exception</text>
</g>
<!-- Node23&#45;&gt;Node25 -->
<g id="edge37" class="edge"><title>Node23&#45;&gt;Node25</title>
<path fill="none" stroke="midnightblue" d="M561.462,-120.456C592.182,-111.895 641.793,-97.7193 684.172,-84 686.283,-83.3167 688.453,-82.5958 690.636,-81.8569"/>
<polygon fill="midnightblue" stroke="midnightblue" points="691.838,-85.1449 700.141,-78.5645 689.546,-78.5305 691.838,-85.1449"/>
</g>
<!-- Node26 -->
<g id="node27" class="node"><title>Node26</title>
<polygon fill="none" stroke="#bfbfbf" points="199.771,-60.5 199.771,-78.5 258.574,-78.5 258.574,-60.5 199.771,-60.5"/>
<text text-anchor="middle" x="229.172" y="-66.5" font-family="Helvetica,sans-Serif" font-size="10.00">stdexcept</text>
</g>
<!-- Node23&#45;&gt;Node26 -->
<g id="edge38" class="edge"><title>Node23&#45;&gt;Node26</title>
<path fill="none" stroke="midnightblue" d="M466.172,-120.477C412.382,-113.198 334.71,-100.998 268.172,-84 265.53,-83.325 262.811,-82.5522 260.097,-81.7258"/>
<polygon fill="midnightblue" stroke="midnightblue" points="261.026,-78.3474 250.434,-78.5759 258.857,-85.0028 261.026,-78.3474"/>
</g>
<!-- Node23&#45;&gt;Node27 -->
<g id="edge40" class="edge"><title>Node23&#45;&gt;Node27</title>
<path fill="none" stroke="midnightblue" d="M600.191,-120.974C603.226,-120.643 606.231,-120.318 609.172,-120 760.689,-103.639 799.185,-104.689 950.172,-84 958.308,-82.8853 966.886,-81.5781 975.285,-80.2241"/>
<polygon fill="midnightblue" stroke="midnightblue" points="976.099,-83.6372 985.397,-78.5589 974.961,-76.7302 976.099,-83.6372"/>
</g>
<!-- Node28 -->
<g id="node29" class="node"><title>Node28</title>
<polygon fill="none" stroke="#bfbfbf" points="276.702,-60.5 276.702,-78.5 371.643,-78.5 371.643,-60.5 276.702,-60.5"/>
<text text-anchor="middle" x="324.172" y="-66.5" font-family="Helvetica,sans-Serif" font-size="10.00">boost/version.hpp</text>
</g>
<!-- Node23&#45;&gt;Node28 -->
<g id="edge42" class="edge"><title>Node23&#45;&gt;Node28</title>
<path fill="none" stroke="midnightblue" d="M503.251,-120.435C466.719,-110.249 403.724,-92.6826 363.021,-81.3328"/>
<polygon fill="midnightblue" stroke="midnightblue" points="363.755,-77.9041 353.183,-78.5894 361.875,-84.6469 363.755,-77.9041"/>
</g>
<!-- Node29 -->
<g id="node30" class="node"><title>Node29</title>
<polygon fill="none" stroke="#bfbfbf" points="389.648,-55.5 389.648,-83.5 480.697,-83.5 480.697,-55.5 389.648,-55.5"/>
<text text-anchor="start" x="397.648" y="-71.5" font-family="Helvetica,sans-Serif" font-size="10.00">boost/units/detail</text>
<text text-anchor="middle" x="435.172" y="-61.5" font-family="Helvetica,sans-Serif" font-size="10.00">/utility.hpp</text>
</g>
<!-- Node23&#45;&gt;Node29 -->
<g id="edge43" class="edge"><title>Node23&#45;&gt;Node29</title>
<path fill="none" stroke="midnightblue" d="M518.685,-120.435C505.12,-112.324 483.731,-99.5352 465.996,-88.9304"/>
<polygon fill="midnightblue" stroke="midnightblue" points="467.494,-85.7484 457.115,-83.6203 463.902,-91.7563 467.494,-85.7484"/>
</g>
<!-- Node30 -->
<g id="node31" class="node"><title>Node30</title>
<polygon fill="none" stroke="#bfbfbf" points="499.158,-60.5 499.158,-78.5 565.187,-78.5 565.187,-60.5 499.158,-60.5"/>
<text text-anchor="middle" x="532.172" y="-66.5" font-family="Helvetica,sans-Serif" font-size="10.00">Eigen/Core</text>
</g>
<!-- Node23&#45;&gt;Node30 -->
<g id="edge44" class="edge"><title>Node23&#45;&gt;Node30</title>
<path fill="none" stroke="midnightblue" d="M532.172,-120.435C532.172,-112.389 532.172,-99.7388 532.172,-89.1846"/>
<polygon fill="midnightblue" stroke="midnightblue" points="535.672,-88.8717 532.172,-78.8718 528.672,-88.8718 535.672,-88.8717"/>
</g>
<!-- Node27&#45;&gt;Node6 -->
<g id="edge41" class="edge"><title>Node27&#45;&gt;Node6</title>
<path fill="none" stroke="midnightblue" d="M1043.94,-60.4353C1060.1,-50.9661 1087.15,-35.1201 1106.44,-23.8184"/>
<polygon fill="midnightblue" stroke="midnightblue" points="1108.35,-26.758 1115.2,-18.6831 1104.81,-20.7182 1108.35,-26.758"/>
</g>
</g>
</svg>
        <g id="navigator" transform="translate(0 0)" fill="#404254">
                <rect fill="#f2f5e9" fill-opacity="0.5" stroke="#606060" stroke-width=".5" x="0" y="0" width="60" height="60"/>
                <use id="zoomplus" xlink:href="#zoomPlus" x="17" y="9" onmousedown="handleZoom(evt,'in')"/>
                <use id="zoomminus" xlink:href="#zoomMin" x="42" y="9" onmousedown="handleZoom(evt,'out')"/>
                <use id="reset" xlink:href="#resetDef" x="30" y="36" onmousedown="handleReset()"/>
                <g id="arrowUp" xlink:href="#dirArrow" transform="translate(30 24)" onmousedown="handlePan(0,-1)">
                  <use xlink:href="#rim" fill="#404040">
                        <set attributeName="fill" to="#808080" begin="arrowUp.mouseover" end="arrowUp.mouseout"/>
                  </use>
                  <path fill="none" stroke="white" stroke-width="1.5" d="M0,-3.0v7 M-2.5,-0.5L0,-3.0L2.5,-0.5"/>
                </g>
                <g id="arrowRight" xlink:href="#dirArrow" transform="rotate(90) translate(36 -43)" onmousedown="handlePan(1,0)">
                  <use xlink:href="#rim" fill="#404040">
                        <set attributeName="fill" to="#808080" begin="arrowRight.mouseover" end="arrowRight.mouseout"/>
                  </use>
                  <path fill="none" stroke="white" stroke-width="1.5" d="M0,-3.0v7 M-2.5,-0.5L0,-3.0L2.5,-0.5"/>
                </g>
                <g id="arrowDown" xlink:href="#dirArrow" transform="rotate(180) translate(-30 -48)" onmousedown="handlePan(0,1)">
                  <use xlink:href="#rim" fill="#404040">
                        <set attributeName="fill" to="#808080" begin="arrowDown.mouseover" end="arrowDown.mouseout"/>
                  </use>
                  <path fill="none" stroke="white" stroke-width="1.5" d="M0,-3.0v7 M-2.5,-0.5L0,-3.0L2.5,-0.5"/>
                </g>
                <g id="arrowLeft" xlink:href="#dirArrow" transform="rotate(270) translate(-36 17)" onmousedown="handlePan(-1,0)">
                  <use xlink:href="#rim" fill="#404040">
                        <set attributeName="fill" to="#808080" begin="arrowLeft.mouseover" end="arrowLeft.mouseout"/>
                  </use>
                  <path fill="none" stroke="white" stroke-width="1.5" d="M0,-3.0v7 M-2.5,-0.5L0,-3.0L2.5,-0.5"/>
                </g>
        </g>
        <svg viewBox="0 0 15 15" width="100%" height="30px" preserveAspectRatio="xMaxYMin meet">
         <g id="arrow_out" transform="scale(0.3 0.3)">
          <a xlink:href="simple__find__zero_8h__incl_org.svg" target="_base">
           <rect id="button" ry="5" rx="5" y="6" x="6" height="38" width="38"
                fill="#f2f5e9" fill-opacity="0.5" stroke="#606060" stroke-width="1.0"/>
           <path id="arrow"
             d="M 11.500037,31.436501 C 11.940474,20.09759 22.043105,11.32322 32.158766,21.979434 L 37.068811,17.246167 C 37.068811,17.246167 37.088388,32 37.088388,32 L 22.160133,31.978069 C 22.160133,31.978069 26.997745,27.140456 26.997745,27.140456 C 18.528582,18.264221 13.291696,25.230495 11.500037,31.436501 z"
             style="fill:#404040;"/>
          </a>
         </g>
        </svg>
</svg>
