<?xml version="1.0" encoding="UTF-8" standalone="no"?>
<!DOCTYPE svg PUBLIC "-//W3C//DTD SVG 1.1//EN"
 "http://www.w3.org/Graphics/SVG/1.1/DTD/svg11.dtd">
<!-- Generated by graphviz version 2.38.0 (20140413.2041)
 -->
<!-- Title: Tomographer::MHRWStatusReport&lt; MHRWParamsType &gt; Pages: 1 -->
<svg width="179pt" height="309pt"
 viewBox="0.00 0.00 178.88 309.00" xmlns="http://www.w3.org/2000/svg" xmlns:xlink="http://www.w3.org/1999/xlink">
<g id="graph0" class="graph" transform="scale(1 1) rotate(0) translate(4 305)">
<title>Tomographer::MHRWStatusReport&lt; MHRWParamsType &gt;</title>
<!-- Node2 -->
<g id="node1" class="node"><title>Node2</title>
<polygon fill="#bfbfbf" stroke="black" points="0,-0.5 0,-28.5 170.878,-28.5 170.878,-0.5 0,-0.5"/>
<text text-anchor="start" x="8" y="-16.5" font-family="Helvetica,sans-Serif" font-size="10.00">Tomographer::MHRWStatusReport</text>
<text text-anchor="middle" x="85.439" y="-6.5" font-family="Helvetica,sans-Serif" font-size="10.00">&lt; MHRWParamsType &gt;</text>
</g>
<!-- Node3 -->
<g id="node2" class="node"><title>Node3</title>
<g id="a_node2"><a xlink:href="struct_tomographer_1_1_multi_proc_1_1_task_status_report.html" target="_top" xlink:title="Basic status report class. ">
<polygon fill="none" stroke="black" points="24.3628,-66.5 24.3628,-94.5 146.515,-94.5 146.515,-66.5 24.3628,-66.5"/>
<text text-anchor="start" x="32.3628" y="-82.5" font-family="Helvetica,sans-Serif" font-size="10.00">Tomographer::MultiProc</text>
<text text-anchor="middle" x="85.439" y="-72.5" font-family="Helvetica,sans-Serif" font-size="10.00">::TaskStatusReport</text>
</a>
</g>
</g>
<!-- Node3&#45;&gt;Node2 -->
<g id="edge1" class="edge"><title>Node3&#45;&gt;Node2</title>
<path fill="none" stroke="midnightblue" d="M85.439,-56.0946C85.439,-46.8785 85.439,-36.6352 85.439,-28.7439"/>
<polygon fill="midnightblue" stroke="midnightblue" points="81.9391,-56.2391 85.439,-66.2392 88.9391,-56.2392 81.9391,-56.2391"/>
</g>
<!-- Node4 -->
<g id="node3" class="node"><title>Node4</title>
<g id="a_node3"><a doxygen="/Users/philippe/Research/projects/tomographer/doc/cppreference-doxygen-web.tag.xml:http://en.cppreference.com/w/" xlink:href="http://en.cppreference.com/w/cpp/string/basic_string.html" target="_top" xlink:title="STL class. ">
<polygon fill="none" stroke="black" points="55.7642,-141.5 55.7642,-159.5 115.114,-159.5 115.114,-141.5 55.7642,-141.5"/>
<text text-anchor="middle" x="85.439" y="-147.5" font-family="Helvetica,sans-Serif" font-size="10.00">std::string</text>
</a>
</g>
</g>
<!-- Node4&#45;&gt;Node3 -->
<g id="edge2" class="edge"><title>Node4&#45;&gt;Node3</title>
<path fill="none" stroke="#9a32cd" stroke-dasharray="5,2" d="M85.439,-131.209C85.439,-119.686 85.439,-105.078 85.439,-94.6867"/>
<polygon fill="#9a32cd" stroke="#9a32cd" points="81.9391,-131.432 85.439,-141.432 88.9391,-131.433 81.9391,-131.432"/>
<text text-anchor="middle" x="96.2739" y="-115" font-family="Helvetica,sans-Serif" font-size="10.00"> msg</text>
</g>
<!-- Node5 -->
<g id="node4" class="node"><title>Node5</title>
<g id="a_node4"><a doxygen="/Users/philippe/Research/projects/tomographer/doc/cppreference-doxygen-web.tag.xml:http://en.cppreference.com/w/" xlink:href="http://en.cppreference.com/w/cpp/string/basic_string.html" target="_top" xlink:title="std::basic_string\&lt;\l char \&gt;">
<polygon fill="none" stroke="black" points="38.3911,-197.5 38.3911,-225.5 132.487,-225.5 132.487,-197.5 38.3911,-197.5"/>
<text text-anchor="start" x="46.3911" y="-213.5" font-family="Helvetica,sans-Serif" font-size="10.00">std::basic_string&lt;</text>
<text text-anchor="middle" x="85.439" y="-203.5" font-family="Helvetica,sans-Serif" font-size="10.00"> char &gt;</text>
</a>
</g>
</g>
<!-- Node5&#45;&gt;Node4 -->
<g id="edge3" class="edge"><title>Node5&#45;&gt;Node4</title>
<path fill="none" stroke="midnightblue" d="M85.439,-187.386C85.439,-177.594 85.439,-166.816 85.439,-159.653"/>
<polygon fill="midnightblue" stroke="midnightblue" points="81.9391,-187.406 85.439,-197.406 88.9391,-187.406 81.9391,-187.406"/>
</g>
<!-- Node6 -->
<g id="node5" class="node"><title>Node6</title>
<g id="a_node5"><a doxygen="/Users/philippe/Research/projects/tomographer/doc/cppreference-doxygen-web.tag.xml:http://en.cppreference.com/w/" xlink:href="http://en.cppreference.com/w/cpp/string/basic_string.html" target="_top" xlink:title="STL class. ">
<polygon fill="none" stroke="black" points="38.3911,-272.5 38.3911,-300.5 132.487,-300.5 132.487,-272.5 38.3911,-272.5"/>
<text text-anchor="start" x="46.3911" y="-288.5" font-family="Helvetica,sans-Serif" font-size="10.00">std::basic_string&lt;</text>
<text text-anchor="middle" x="85.439" y="-278.5" font-family="Helvetica,sans-Serif" font-size="10.00"> Char &gt;</text>
</a>
</g>
</g>
<!-- Node6&#45;&gt;Node5 -->
<g id="edge4" class="edge"><title>Node6&#45;&gt;Node5</title>
<path fill="none" stroke="orange" stroke-dasharray="5,2" d="M85.439,-262.245C85.439,-250.265 85.439,-236.082 85.439,-225.932"/>
<polygon fill="orange" stroke="orange" points="81.9391,-262.449 85.439,-272.449 88.9391,-262.449 81.9391,-262.449"/>
<text text-anchor="middle" x="105.173" y="-246" font-family="Helvetica,sans-Serif" font-size="10.00"> &lt; char &gt;</text>
</g>
</g>
</svg>
