<?xml version="1.0" encoding="UTF-8" standalone="no"?>
<!DOCTYPE svg PUBLIC "-//W3C//DTD SVG 1.1//EN"
 "http://www.w3.org/Graphics/SVG/1.1/DTD/svg11.dtd">
<!-- Generated by graphviz version 2.38.0 (20140413.2041)
 -->
<!-- Title: Tomographer::Logger::LoggerTraits&lt; LoggerType &gt; Pages: 1 -->
<svg width="661pt" height="295pt"
 viewBox="0.00 0.00 660.82 295.00" xmlns="http://www.w3.org/2000/svg" xmlns:xlink="http://www.w3.org/1999/xlink">
<g id="graph0" class="graph" transform="scale(1 1) rotate(0) translate(4 291)">
<title>Tomographer::Logger::LoggerTraits&lt; LoggerType &gt;</title>
<!-- Node0 -->
<g id="node1" class="node"><title>Node0</title>
<polygon fill="#bfbfbf" stroke="black" points="0,-88.5 0,-116.5 147.387,-116.5 147.387,-88.5 0,-88.5"/>
<text text-anchor="start" x="8" y="-104.5" font-family="Helvetica,sans-Serif" font-size="10.00">Tomographer::Logger</text>
<text text-anchor="middle" x="73.6934" y="-94.5" font-family="Helvetica,sans-Serif" font-size="10.00">::LoggerTraits&lt; LoggerType &gt;</text>
</g>
<!-- Node1 -->
<g id="node2" class="node"><title>Node1</title>
<g id="a_node2"><a xlink:href="struct_tomographer_1_1_logger_1_1_logger_traits.html" target="_top" xlink:title="Tomographer::Logger\l::LoggerTraits\&lt; BaseLogger \&gt;">
<polygon fill="none" stroke="black" points="284.578,-124.5 284.578,-152.5 433.073,-152.5 433.073,-124.5 284.578,-124.5"/>
<text text-anchor="start" x="292.578" y="-140.5" font-family="Helvetica,sans-Serif" font-size="10.00">Tomographer::Logger</text>
<text text-anchor="middle" x="358.826" y="-130.5" font-family="Helvetica,sans-Serif" font-size="10.00">::LoggerTraits&lt; BaseLogger &gt;</text>
</a>
</g>
</g>
<!-- Node0&#45;&gt;Node1 -->
<g id="edge1" class="edge"><title>Node0&#45;&gt;Node1</title>
<path fill="none" stroke="orange" stroke-dasharray="5,2" d="M157.622,-113.044C197.7,-118.14 245.393,-124.204 284.175,-129.135"/>
<polygon fill="orange" stroke="orange" points="157.969,-109.56 147.607,-111.771 157.086,-116.504 157.969,-109.56"/>
<text text-anchor="middle" x="215.982" y="-128.5" font-family="Helvetica,sans-Serif" font-size="10.00"> &lt; BaseLogger &gt;</text>
</g>
<!-- Node6 -->
<g id="node7" class="node"><title>Node6</title>
<g id="a_node7"><a xlink:href="struct_tomographer_1_1_logger_1_1_logger_traits.html" target="_top" xlink:title="Tomographer::Logger\l::LoggerTraits\&lt; BaseLogger\lType_ \&gt;">
<polygon fill="none" stroke="black" points="288.887,-34.5 288.887,-72.5 428.764,-72.5 428.764,-34.5 288.887,-34.5"/>
<text text-anchor="start" x="296.887" y="-60.5" font-family="Helvetica,sans-Serif" font-size="10.00">Tomographer::Logger</text>
<text text-anchor="start" x="296.887" y="-50.5" font-family="Helvetica,sans-Serif" font-size="10.00">::LoggerTraits&lt; BaseLogger</text>
<text text-anchor="middle" x="358.826" y="-40.5" font-family="Helvetica,sans-Serif" font-size="10.00">Type_ &gt;</text>
</a>
</g>
</g>
<!-- Node0&#45;&gt;Node6 -->
<g id="edge6" class="edge"><title>Node0&#45;&gt;Node6</title>
<path fill="none" stroke="orange" stroke-dasharray="5,2" d="M157.717,-88.1317C199.304,-80.9345 249.072,-72.3214 288.572,-65.4853"/>
<polygon fill="orange" stroke="orange" points="156.864,-84.7272 147.607,-89.8813 158.057,-91.6246 156.864,-84.7272"/>
<text text-anchor="middle" x="215.982" y="-88.5" font-family="Helvetica,sans-Serif" font-size="10.00"> &lt; BaseLoggerType_ &gt;</text>
</g>
<!-- Node2 -->
<g id="node3" class="node"><title>Node2</title>
<g id="a_node3"><a xlink:href="struct_tomographer_1_1_logger_1_1_logger_traits_3_01_minimum_severity_logger_3_01_base_logger_00_01_level_01_4_01_4.html" target="_top" xlink:title="Specialized Traits for MinimumSeverityLogger – see LoggerTraits. ">
<polygon fill="none" stroke="black" points="480.134,-248.5 480.134,-286.5 642.76,-286.5 642.76,-248.5 480.134,-248.5"/>
<text text-anchor="start" x="488.134" y="-274.5" font-family="Helvetica,sans-Serif" font-size="10.00">Tomographer::Logger</text>
<text text-anchor="start" x="488.134" y="-264.5" font-family="Helvetica,sans-Serif" font-size="10.00">::LoggerTraits&lt; MinimumSeverity</text>
<text text-anchor="middle" x="561.447" y="-254.5" font-family="Helvetica,sans-Serif" font-size="10.00">Logger&lt; BaseLogger, Level &gt; &gt;</text>
</a>
</g>
</g>
<!-- Node1&#45;&gt;Node2 -->
<g id="edge2" class="edge"><title>Node1&#45;&gt;Node2</title>
<path fill="none" stroke="midnightblue" d="M378.381,-160.471C398.722,-183.257 433.38,-218.44 470.073,-239.5 475.772,-242.771 481.896,-245.703 488.173,-248.322"/>
<polygon fill="midnightblue" stroke="midnightblue" points="380.78,-157.899 371.557,-152.686 375.516,-162.513 380.78,-157.899"/>
</g>
<!-- Node3 -->
<g id="node4" class="node"><title>Node3</title>
<g id="a_node4"><a xlink:href="struct_tomographer_1_1_logger_1_1_logger_traits_3_01_multi_proc_1_1_cxx_threads_1_1_thread_sanitb4e4ff0abba6a39822cce1c99e885e9a.html" target="_top" xlink:title="Specialized Traits for Tomographer::MultiProc::OMP::ThreadSanitizerLogger&lt;BaseLogger&gt; – see Tomograp...">
<polygon fill="none" stroke="black" points="470.073,-181.5 470.073,-229.5 652.821,-229.5 652.821,-181.5 470.073,-181.5"/>
<text text-anchor="start" x="478.073" y="-217.5" font-family="Helvetica,sans-Serif" font-size="10.00">Tomographer::Logger</text>
<text text-anchor="start" x="478.073" y="-207.5" font-family="Helvetica,sans-Serif" font-size="10.00">::LoggerTraits&lt; MultiProc</text>
<text text-anchor="start" x="478.073" y="-197.5" font-family="Helvetica,sans-Serif" font-size="10.00">::CxxThreads::ThreadSanitizerLogger</text>
<text text-anchor="middle" x="561.447" y="-187.5" font-family="Helvetica,sans-Serif" font-size="10.00">&lt; BaseLogger &gt; &gt;</text>
</a>
</g>
</g>
<!-- Node1&#45;&gt;Node3 -->
<g id="edge3" class="edge"><title>Node1&#45;&gt;Node3</title>
<path fill="none" stroke="midnightblue" d="M411.602,-155.791C434.993,-163.603 463.023,-172.964 488.419,-181.445"/>
<polygon fill="midnightblue" stroke="midnightblue" points="412.476,-152.393 401.883,-152.545 410.259,-159.033 412.476,-152.393"/>
</g>
<!-- Node4 -->
<g id="node5" class="node"><title>Node4</title>
<g id="a_node5"><a xlink:href="struct_tomographer_1_1_logger_1_1_logger_traits_3_01_multi_proc_1_1_o_m_p_1_1_thread_sanitizer_l7f0064bd162e246a0e99630591611d67.html" target="_top" xlink:title="Specialized Traits for Tomographer::MultiProc::OMP::ThreadSanitizerLogger&lt;typename BaseLogger&gt; – see...">
<polygon fill="none" stroke="black" points="485.637,-114.5 485.637,-162.5 637.257,-162.5 637.257,-114.5 485.637,-114.5"/>
<text text-anchor="start" x="493.637" y="-150.5" font-family="Helvetica,sans-Serif" font-size="10.00">Tomographer::Logger</text>
<text text-anchor="start" x="493.637" y="-140.5" font-family="Helvetica,sans-Serif" font-size="10.00">::LoggerTraits&lt; MultiProc</text>
<text text-anchor="start" x="493.637" y="-130.5" font-family="Helvetica,sans-Serif" font-size="10.00">::OMP::ThreadSanitizerLogger</text>
<text text-anchor="middle" x="561.447" y="-120.5" font-family="Helvetica,sans-Serif" font-size="10.00">&lt; BaseLogger &gt; &gt;</text>
</a>
</g>
</g>
<!-- Node1&#45;&gt;Node4 -->
<g id="edge4" class="edge"><title>Node1&#45;&gt;Node4</title>
<path fill="none" stroke="midnightblue" d="M443.188,-138.5C457.164,-138.5 471.593,-138.5 485.346,-138.5"/>
<polygon fill="midnightblue" stroke="midnightblue" points="443.106,-135 433.106,-138.5 443.106,-142 443.106,-135"/>
</g>
<!-- Node5 -->
<g id="node6" class="node"><title>Node5</title>
<g id="a_node6"><a xlink:href="struct_tomographer_1_1_logger_1_1_logger_traits_3_01_origin_filtered_logger_3_01_base_logger_01_4_01_4.html" target="_top" xlink:title="Specialized Logger Traits for OriginFilteredLogger – see LoggerTraits. ">
<polygon fill="none" stroke="black" points="488.464,-57.5 488.464,-95.5 634.43,-95.5 634.43,-57.5 488.464,-57.5"/>
<text text-anchor="start" x="496.464" y="-83.5" font-family="Helvetica,sans-Serif" font-size="10.00">Tomographer::Logger</text>
<text text-anchor="start" x="496.464" y="-73.5" font-family="Helvetica,sans-Serif" font-size="10.00">::LoggerTraits&lt; OriginFiltered</text>
<text text-anchor="middle" x="561.447" y="-63.5" font-family="Helvetica,sans-Serif" font-size="10.00">Logger&lt; BaseLogger &gt; &gt;</text>
</a>
</g>
</g>
<!-- Node1&#45;&gt;Node5 -->
<g id="edge5" class="edge"><title>Node1&#45;&gt;Node5</title>
<path fill="none" stroke="midnightblue" d="M415.028,-121.44C440.982,-113.419 472.025,-103.826 498.752,-95.5663"/>
<polygon fill="midnightblue" stroke="midnightblue" points="413.871,-118.135 405.35,-124.431 415.937,-124.823 413.871,-118.135"/>
</g>
<!-- Node7 -->
<g id="node8" class="node"><title>Node7</title>
<g id="a_node8"><a xlink:href="struct_tomographer_1_1_logger_1_1_logger_traits_3_01_local_logger_3_01_base_logger_type___01_4_01_4.html" target="_top" xlink:title="Specialized Traits for LocalLogger. See LoggerTraits&lt;BaseLoggerType_&gt; ">
<polygon fill="none" stroke="black" points="490.952,-0.5 490.952,-38.5 631.942,-38.5 631.942,-0.5 490.952,-0.5"/>
<text text-anchor="start" x="498.952" y="-26.5" font-family="Helvetica,sans-Serif" font-size="10.00">Tomographer::Logger</text>
<text text-anchor="start" x="498.952" y="-16.5" font-family="Helvetica,sans-Serif" font-size="10.00">::LoggerTraits&lt; LocalLogger</text>
<text text-anchor="middle" x="561.447" y="-6.5" font-family="Helvetica,sans-Serif" font-size="10.00">&lt; BaseLoggerType_ &gt; &gt;</text>
</a>
</g>
</g>
<!-- Node6&#45;&gt;Node7 -->
<g id="edge7" class="edge"><title>Node6&#45;&gt;Node7</title>
<path fill="none" stroke="midnightblue" d="M438.876,-40.1031C456.072,-37.1887 474.143,-34.1263 490.937,-31.2801"/>
<polygon fill="midnightblue" stroke="midnightblue" points="438.143,-36.6773 428.868,-41.7991 439.313,-43.5789 438.143,-36.6773"/>
</g>
</g>
</svg>
