<?xml version="1.0" encoding="UTF-8" standalone="no"?>
<!DOCTYPE svg PUBLIC "-//W3C//DTD SVG 1.1//EN"
 "http://www.w3.org/Graphics/SVG/1.1/DTD/svg11.dtd">
<!-- Generated by graphviz version 2.38.0 (20140413.2041)
 -->
<!-- Title: Tomographer::MHRWTasks::ValueHistogramTools::CDataBase&lt; ValueCalculator_, UseBinningAnalysis_, MHWalkerParams_, RngSeedType_, IterCountIntType_, CountRealType_, HistCountIntType_ &gt; Pages: 1 -->
<svg width="1438pt" height="215pt"
 viewBox="0.00 0.00 1438.16 215.00" xmlns="http://www.w3.org/2000/svg" xmlns:xlink="http://www.w3.org/1999/xlink">
<g id="graph0" class="graph" transform="scale(1 1) rotate(0) translate(4 211)">
<title>Tomographer::MHRWTasks::ValueHistogramTools::CDataBase&lt; ValueCalculator_, UseBinningAnalysis_, MHWalkerParams_, RngSeedType_, IterCountIntType_, CountRealType_, HistCountIntType_ &gt;</title>
<!-- Node3 -->
<g id="node1" class="node"><title>Node3</title>
<polygon fill="#bfbfbf" stroke="black" points="1222.79,-64.5 1222.79,-132.5 1430.16,-132.5 1430.16,-64.5 1222.79,-64.5"/>
<text text-anchor="start" x="1230.79" y="-120.5" font-family="Helvetica,sans-Serif" font-size="10.00">Tomographer::MHRWTasks</text>
<text text-anchor="start" x="1230.79" y="-110.5" font-family="Helvetica,sans-Serif" font-size="10.00">::ValueHistogramTools</text>
<text text-anchor="start" x="1230.79" y="-100.5" font-family="Helvetica,sans-Serif" font-size="10.00">::CDataBase&lt; ValueCalculator</text>
<text text-anchor="start" x="1230.79" y="-90.5" font-family="Helvetica,sans-Serif" font-size="10.00">_, UseBinningAnalysis_, MHWalkerParams</text>
<text text-anchor="start" x="1230.79" y="-80.5" font-family="Helvetica,sans-Serif" font-size="10.00">_, RngSeedType_, IterCountIntType</text>
<text text-anchor="middle" x="1326.48" y="-70.5" font-family="Helvetica,sans-Serif" font-size="10.00">_, CountRealType_, HistCountIntType_ &gt;</text>
</g>
<!-- Node4 -->
<g id="node2" class="node"><title>Node4</title>
<g id="a_node2"><a xlink:href="struct_tomographer_1_1_m_h_r_w_tasks_1_1_c_data_base.html" target="_top" xlink:title="Data needed to be accessible to the working code. ">
<polygon fill="none" stroke="black" points="911.469,-151.5 911.469,-189.5 1101.2,-189.5 1101.2,-151.5 911.469,-151.5"/>
<text text-anchor="start" x="919.469" y="-177.5" font-family="Helvetica,sans-Serif" font-size="10.00">Tomographer::MHRWTasks</text>
<text text-anchor="start" x="919.469" y="-167.5" font-family="Helvetica,sans-Serif" font-size="10.00">::CDataBase&lt; MHWalkerParams</text>
<text text-anchor="middle" x="1006.34" y="-157.5" font-family="Helvetica,sans-Serif" font-size="10.00">_, IterCountIntType_, RngSeedType_ &gt;</text>
</a>
</g>
</g>
<!-- Node4&#45;&gt;Node3 -->
<g id="edge1" class="edge"><title>Node4&#45;&gt;Node3</title>
<path fill="none" stroke="midnightblue" d="M1101.4,-149.212C1139.49,-140.593 1183.58,-130.614 1222.52,-121.8"/>
<polygon fill="midnightblue" stroke="midnightblue" points="1100.32,-145.868 1091.34,-151.489 1101.87,-152.695 1100.32,-145.868"/>
</g>
<!-- Node5 -->
<g id="node3" class="node"><title>Node5</title>
<g id="a_node3"><a xlink:href="struct_tomographer_1_1_m_h_r_w_params.html" target="_top" xlink:title="Tomographer::MHRWParams\l\&lt; MHWalkerParams, IterCountInt\lType \&gt;">
<polygon fill="none" stroke="black" points="587.779,-151.5 587.779,-189.5 750.957,-189.5 750.957,-151.5 587.779,-151.5"/>
<text text-anchor="start" x="595.779" y="-177.5" font-family="Helvetica,sans-Serif" font-size="10.00">Tomographer::MHRWParams</text>
<text text-anchor="start" x="595.779" y="-167.5" font-family="Helvetica,sans-Serif" font-size="10.00">&lt; MHWalkerParams, IterCountInt</text>
<text text-anchor="middle" x="669.368" y="-157.5" font-family="Helvetica,sans-Serif" font-size="10.00">Type &gt;</text>
</a>
</g>
</g>
<!-- Node5&#45;&gt;Node4 -->
<g id="edge2" class="edge"><title>Node5&#45;&gt;Node4</title>
<path fill="none" stroke="#9a32cd" stroke-dasharray="5,2" d="M761.112,-170.5C807.7,-170.5 864.395,-170.5 911.428,-170.5"/>
<polygon fill="#9a32cd" stroke="#9a32cd" points="761.028,-167 751.028,-170.5 761.028,-174 761.028,-167"/>
<text text-anchor="middle" x="831.213" y="-172.5" font-family="Helvetica,sans-Serif" font-size="10.00"> mhrw_params</text>
</g>
<!-- Node6 -->
<g id="node4" class="node"><title>Node6</title>
<g id="a_node4"><a xlink:href="struct_tomographer_1_1_m_h_r_w_params.html" target="_top" xlink:title="Specify the parameters of a Metropolis&#45;Hastings random walk. ">
<polygon fill="none" stroke="black" points="222.786,-156.5 222.786,-184.5 412.941,-184.5 412.941,-156.5 222.786,-156.5"/>
<text text-anchor="start" x="230.786" y="-172.5" font-family="Helvetica,sans-Serif" font-size="10.00">Tomographer::MHRWParams</text>
<text text-anchor="middle" x="317.864" y="-162.5" font-family="Helvetica,sans-Serif" font-size="10.00">&lt; MHWalkerParams_, CountIntType_ &gt;</text>
</a>
</g>
</g>
<!-- Node6&#45;&gt;Node5 -->
<g id="edge3" class="edge"><title>Node6&#45;&gt;Node5</title>
<path fill="none" stroke="orange" stroke-dasharray="5,2" d="M423.041,-170.5C475.754,-170.5 538.764,-170.5 587.727,-170.5"/>
<polygon fill="orange" stroke="orange" points="422.984,-167 412.984,-170.5 422.984,-174 422.984,-167"/>
<text text-anchor="start" x="430.941" y="-182.5" font-family="Helvetica,sans-Serif" font-size="10.00"> &lt; MHWalkerParams, IterCount</text>
<text text-anchor="middle" x="500.36" y="-172.5" font-family="Helvetica,sans-Serif" font-size="10.00">IntType &gt;</text>
</g>
<!-- Node7 -->
<g id="node5" class="node"><title>Node7</title>
<polygon fill="none" stroke="#bfbfbf" points="0,-188.5 0,-206.5 102.313,-206.5 102.313,-188.5 0,-188.5"/>
<text text-anchor="middle" x="51.1567" y="-194.5" font-family="Helvetica,sans-Serif" font-size="10.00">MHWalkerParams_</text>
</g>
<!-- Node7&#45;&gt;Node6 -->
<g id="edge4" class="edge"><title>Node7&#45;&gt;Node6</title>
<path fill="none" stroke="#9a32cd" stroke-dasharray="5,2" d="M112.824,-191.312C145.351,-187.994 186.152,-183.833 222.702,-180.104"/>
<polygon fill="#9a32cd" stroke="#9a32cd" points="112.162,-187.861 102.569,-192.358 112.873,-194.825 112.162,-187.861"/>
<text text-anchor="middle" x="162.55" y="-191.5" font-family="Helvetica,sans-Serif" font-size="10.00"> mhwalker_params</text>
</g>
<!-- Node8 -->
<g id="node6" class="node"><title>Node8</title>
<polygon fill="none" stroke="#bfbfbf" points="10.6323,-135.5 10.6323,-153.5 91.6812,-153.5 91.6812,-135.5 10.6323,-135.5"/>
<text text-anchor="middle" x="51.1567" y="-141.5" font-family="Helvetica,sans-Serif" font-size="10.00">CountIntType_</text>
</g>
<!-- Node8&#45;&gt;Node6 -->
<g id="edge5" class="edge"><title>Node8&#45;&gt;Node6</title>
<path fill="none" stroke="#9a32cd" stroke-dasharray="5,2" d="M102.01,-142.16C131.908,-141.419 170.635,-141.624 204.786,-145.5 224.595,-147.748 246.03,-152.055 264.798,-156.468"/>
<polygon fill="#9a32cd" stroke="#9a32cd" points="101.718,-138.667 91.8247,-142.457 101.923,-145.664 101.718,-138.667"/>
<text text-anchor="middle" x="162.55" y="-167.5" font-family="Helvetica,sans-Serif" font-size="10.00"> n_run</text>
<text text-anchor="middle" x="162.55" y="-157.5" font-family="Helvetica,sans-Serif" font-size="10.00">n_therm</text>
<text text-anchor="middle" x="162.55" y="-147.5" font-family="Helvetica,sans-Serif" font-size="10.00">n_sweep</text>
</g>
<!-- Node9 -->
<g id="node7" class="node"><title>Node9</title>
<polygon fill="none" stroke="#bfbfbf" points="919.77,-104.5 919.77,-132.5 1092.9,-132.5 1092.9,-104.5 919.77,-104.5"/>
<text text-anchor="start" x="927.77" y="-120.5" font-family="Helvetica,sans-Serif" font-size="10.00">Tools::NeedOwnOperatorNew</text>
<text text-anchor="middle" x="1006.34" y="-110.5" font-family="Helvetica,sans-Serif" font-size="10.00">::ProviderType&lt; ValueCalculator_ &gt;</text>
</g>
<!-- Node9&#45;&gt;Node3 -->
<g id="edge6" class="edge"><title>Node9&#45;&gt;Node3</title>
<path fill="none" stroke="midnightblue" d="M1103.47,-112.456C1141.13,-110.089 1184.39,-107.37 1222.66,-104.963"/>
<polygon fill="midnightblue" stroke="midnightblue" points="1102.77,-108.993 1093.01,-113.114 1103.21,-115.98 1102.77,-108.993"/>
</g>
<!-- Node10 -->
<g id="node8" class="node"><title>Node10</title>
<g id="a_node8"><a xlink:href="struct_tomographer_1_1_tools_1_1_store_if_enabled.html" target="_top" xlink:title="Tomographer::Tools\l::StoreIfEnabled\&lt; int,\l UseBinningAnalysis \&gt;">
<polygon fill="none" stroke="black" points="948.449,-47.5 948.449,-85.5 1064.22,-85.5 1064.22,-47.5 948.449,-47.5"/>
<text text-anchor="start" x="956.449" y="-73.5" font-family="Helvetica,sans-Serif" font-size="10.00">Tomographer::Tools</text>
<text text-anchor="start" x="956.449" y="-63.5" font-family="Helvetica,sans-Serif" font-size="10.00">::StoreIfEnabled&lt; int,</text>
<text text-anchor="middle" x="1006.34" y="-53.5" font-family="Helvetica,sans-Serif" font-size="10.00"> UseBinningAnalysis &gt;</text>
</a>
</g>
</g>
<!-- Node10&#45;&gt;Node3 -->
<g id="edge7" class="edge"><title>Node10&#45;&gt;Node3</title>
<path fill="none" stroke="#9a32cd" stroke-dasharray="5,2" d="M1074.64,-73.2701C1117.62,-77.5928 1174.18,-83.2814 1222.71,-88.1627"/>
<polygon fill="#9a32cd" stroke="#9a32cd" points="1074.88,-69.7764 1064.58,-72.2579 1074.18,-76.7412 1074.88,-69.7764"/>
<text text-anchor="middle" x="1162" y="-88.5" font-family="Helvetica,sans-Serif" font-size="10.00"> binningNumLevels</text>
</g>
<!-- Node11 -->
<g id="node9" class="node"><title>Node11</title>
<g id="a_node9"><a xlink:href="struct_tomographer_1_1_tools_1_1_store_if_enabled.html" target="_top" xlink:title="Utility that stores a data type if a compile&#45;time flag is enabled. ">
<polygon fill="none" stroke="black" points="617.457,-47.5 617.457,-85.5 721.279,-85.5 721.279,-47.5 617.457,-47.5"/>
<text text-anchor="start" x="625.457" y="-73.5" font-family="Helvetica,sans-Serif" font-size="10.00">Tomographer::Tools</text>
<text text-anchor="start" x="625.457" y="-63.5" font-family="Helvetica,sans-Serif" font-size="10.00">::StoreIfEnabled&lt; T</text>
<text text-anchor="middle" x="669.368" y="-53.5" font-family="Helvetica,sans-Serif" font-size="10.00">_, enabled &gt;</text>
</a>
</g>
</g>
<!-- Node11&#45;&gt;Node10 -->
<g id="edge8" class="edge"><title>Node11&#45;&gt;Node10</title>
<path fill="none" stroke="orange" stroke-dasharray="5,2" d="M731.988,-66.5C793.756,-66.5 888.084,-66.5 948.212,-66.5"/>
<polygon fill="orange" stroke="orange" points="731.607,-63.0001 721.607,-66.5 731.607,-70.0001 731.607,-63.0001"/>
<text text-anchor="middle" x="831.213" y="-68.5" font-family="Helvetica,sans-Serif" font-size="10.00"> &lt; int, UseBinningAnalysis &gt;</text>
</g>
<!-- Node12 -->
<g id="node10" class="node"><title>Node12</title>
<g id="a_node10"><a xlink:href="struct_tomographer_1_1_histogram_params.html" target="_top" xlink:title="The parameters of a Histogram. ">
<polygon fill="none" stroke="black" points="926.088,-0.5 926.088,-28.5 1086.58,-28.5 1086.58,-0.5 926.088,-0.5"/>
<text text-anchor="start" x="934.088" y="-16.5" font-family="Helvetica,sans-Serif" font-size="10.00">Tomographer::HistogramParams</text>
<text text-anchor="middle" x="1006.34" y="-6.5" font-family="Helvetica,sans-Serif" font-size="10.00">&lt; Scalar_ &gt;</text>
</a>
</g>
</g>
<!-- Node12&#45;&gt;Node3 -->
<g id="edge9" class="edge"><title>Node12&#45;&gt;Node3</title>
<path fill="none" stroke="#9a32cd" stroke-dasharray="5,2" d="M1075.07,-30.971C1083.87,-33.1471 1092.75,-35.3636 1101.2,-37.5 1147.33,-49.1618 1158.87,-52.0484 1204.79,-64.5 1210.57,-66.0666 1216.5,-67.689 1222.48,-69.337"/>
<polygon fill="#9a32cd" stroke="#9a32cd" points="1075.75,-27.5341 1065.2,-28.5378 1074.07,-34.3305 1075.75,-27.5341"/>
<text text-anchor="middle" x="1162" y="-66.5" font-family="Helvetica,sans-Serif" font-size="10.00"> histogram_params</text>
</g>
<!-- Node13 -->
<g id="node11" class="node"><title>Node13</title>
<polygon fill="none" stroke="#bfbfbf" points="644.415,-5.5 644.415,-23.5 694.321,-23.5 694.321,-5.5 644.415,-5.5"/>
<text text-anchor="middle" x="669.368" y="-11.5" font-family="Helvetica,sans-Serif" font-size="10.00">Scalar_</text>
</g>
<!-- Node13&#45;&gt;Node12 -->
<g id="edge10" class="edge"><title>Node13&#45;&gt;Node12</title>
<path fill="none" stroke="#9a32cd" stroke-dasharray="5,2" d="M704.737,-14.5C756.408,-14.5 855.531,-14.5 925.808,-14.5"/>
<polygon fill="#9a32cd" stroke="#9a32cd" points="704.458,-11.0001 694.458,-14.5 704.458,-18.0001 704.458,-11.0001"/>
<text text-anchor="middle" x="831.213" y="-26.5" font-family="Helvetica,sans-Serif" font-size="10.00"> min</text>
<text text-anchor="middle" x="831.213" y="-16.5" font-family="Helvetica,sans-Serif" font-size="10.00">max</text>
</g>
</g>
</svg>
