<?xml version="1.0" encoding="UTF-8" standalone="no"?>
<!DOCTYPE svg PUBLIC "-//W3C//DTD SVG 1.1//EN"
 "http://www.w3.org/Graphics/SVG/1.1/DTD/svg11.dtd">
<!-- Generated by graphviz version 2.38.0 (20140413.2041)
 -->
<!-- Title: Tomographer::MAT::DimList Pages: 1 -->
<svg width="147pt" height="148pt"
 viewBox="0.00 0.00 146.63 148.00" xmlns="http://www.w3.org/2000/svg" xmlns:xlink="http://www.w3.org/1999/xlink">
<g id="graph0" class="graph" transform="scale(1 1) rotate(0) translate(4 144)">
<title>Tomographer::MAT::DimList</title>
<!-- Node1 -->
<g id="node1" class="node"><title>Node1</title>
<polygon fill="#bfbfbf" stroke="black" points="0,-0.5 0,-18.5 138.632,-18.5 138.632,-0.5 0,-0.5"/>
<text text-anchor="middle" x="69.3159" y="-6.5" font-family="Helvetica,sans-Serif" font-size="10.00">Tomographer::MAT::DimList</text>
</g>
<!-- Node2 -->
<g id="node2" class="node"><title>Node2</title>
<g id="a_node2"><a doxygen="/Users/philippe/temp/tomographer/tomographer-build-docs/doc/cppreference-doxygen-web.tag.xml:http://en.cppreference.com/w//" xlink:href="http://en.cppreference.com/w/cpp/container/vector.html" target="_top" xlink:title="std::vector\&lt; int \&gt;">
<polygon fill="none" stroke="black" points="24.353,-56.5 24.353,-74.5 114.279,-74.5 114.279,-56.5 24.353,-56.5"/>
<text text-anchor="middle" x="69.3159" y="-62.5" font-family="Helvetica,sans-Serif" font-size="10.00">std::vector&lt; int &gt;</text>
</a>
</g>
</g>
<!-- Node2&#45;&gt;Node1 -->
<g id="edge1" class="edge"><title>Node2&#45;&gt;Node1</title>
<path fill="none" stroke="midnightblue" d="M69.3159,-45.8288C69.3159,-36.5774 69.3159,-25.8798 69.3159,-18.7014"/>
<polygon fill="midnightblue" stroke="midnightblue" points="65.816,-46.0625 69.3159,-56.0625 72.816,-46.0625 65.816,-46.0625"/>
</g>
<!-- Node3 -->
<g id="node3" class="node"><title>Node3</title>
<g id="a_node3"><a doxygen="/Users/philippe/temp/tomographer/tomographer-build-docs/doc/cppreference-doxygen-web.tag.xml:http://en.cppreference.com/w//" xlink:href="http://en.cppreference.com/w/cpp/container/vector.html" target="_top" xlink:title="STL class. ">
<polygon fill="none" stroke="black" points="26.7554,-121.5 26.7554,-139.5 111.876,-139.5 111.876,-121.5 26.7554,-121.5"/>
<text text-anchor="middle" x="69.3159" y="-127.5" font-family="Helvetica,sans-Serif" font-size="10.00">std::vector&lt; T &gt;</text>
</a>
</g>
</g>
<!-- Node3&#45;&gt;Node2 -->
<g id="edge2" class="edge"><title>Node3&#45;&gt;Node2</title>
<path fill="none" stroke="orange" stroke-dasharray="5,2" d="M69.3159,-110.907C69.3159,-98.8146 69.3159,-83.6529 69.3159,-74.539"/>
<polygon fill="orange" stroke="orange" points="65.816,-111.264 69.3159,-121.264 72.816,-111.264 65.816,-111.264"/>
<text text-anchor="middle" x="84.604" y="-95" font-family="Helvetica,sans-Serif" font-size="10.00"> &lt; int &gt;</text>
</g>
</g>
</svg>
