<?xml version="1.0" encoding="UTF-8" standalone="no"?>
<!DOCTYPE svg PUBLIC "-//W3C//DTD SVG 1.1//EN"
 "http://www.w3.org/Graphics/SVG/1.1/DTD/svg11.dtd">
<!-- Generated by graphviz version 2.38.0 (20140413.2041)
 -->
<!-- Title: Tomographer::MAT::Exception Pages: 1 -->
<svg width="633pt" height="173pt"
 viewBox="0.00 0.00 632.82 173.00" xmlns="http://www.w3.org/2000/svg" xmlns:xlink="http://www.w3.org/1999/xlink">
<g id="graph0" class="graph" transform="scale(1 1) rotate(0) translate(4 169)">
<title>Tomographer::MAT::Exception</title>
<!-- Node1 -->
<g id="node1" class="node"><title>Node1</title>
<polygon fill="#bfbfbf" stroke="black" points="113.704,-94.5 113.704,-112.5 262.917,-112.5 262.917,-94.5 113.704,-94.5"/>
<text text-anchor="middle" x="188.311" y="-100.5" font-family="Helvetica,sans-Serif" font-size="10.00">Tomographer::MAT::Exception</text>
</g>
<!-- Node3 -->
<g id="node3" class="node"><title>Node3</title>
<g id="a_node3"><a xlink:href="class_tomographer_1_1_m_a_t_1_1_file_open_error.html" target="_top" xlink:title="Error while opening a MATLAB file. ">
<polygon fill="none" stroke="black" points="298.917,-136.5 298.917,-164.5 444.79,-164.5 444.79,-136.5 298.917,-136.5"/>
<text text-anchor="start" x="306.917" y="-152.5" font-family="Helvetica,sans-Serif" font-size="10.00">Tomographer::MAT::FileOpen</text>
<text text-anchor="middle" x="371.854" y="-142.5" font-family="Helvetica,sans-Serif" font-size="10.00">Error</text>
</a>
</g>
</g>
<!-- Node1&#45;&gt;Node3 -->
<g id="edge2" class="edge"><title>Node1&#45;&gt;Node3</title>
<path fill="none" stroke="midnightblue" d="M234.236,-115.131C259.176,-121.587 290.376,-129.665 316.661,-136.47"/>
<polygon fill="midnightblue" stroke="midnightblue" points="234.872,-111.68 224.314,-112.562 233.117,-118.457 234.872,-111.68"/>
</g>
<!-- Node4 -->
<g id="node4" class="node"><title>Node4</title>
<g id="a_node4"><a xlink:href="class_tomographer_1_1_m_a_t_1_1_invalid_index_error.html" target="_top" xlink:title="Invalid index or index list provided to a routine. ">
<polygon fill="none" stroke="black" points="304.752,-89.5 304.752,-117.5 438.955,-117.5 438.955,-89.5 304.752,-89.5"/>
<text text-anchor="start" x="312.752" y="-105.5" font-family="Helvetica,sans-Serif" font-size="10.00">Tomographer::MAT::Invalid</text>
<text text-anchor="middle" x="371.854" y="-95.5" font-family="Helvetica,sans-Serif" font-size="10.00">IndexError</text>
</a>
</g>
</g>
<!-- Node1&#45;&gt;Node4 -->
<g id="edge3" class="edge"><title>Node1&#45;&gt;Node4</title>
<path fill="none" stroke="midnightblue" d="M273.212,-103.5C283.765,-103.5 294.443,-103.5 304.67,-103.5"/>
<polygon fill="midnightblue" stroke="midnightblue" points="273.151,-100 263.151,-103.5 273.151,-107 273.151,-100"/>
</g>
<!-- Node5 -->
<g id="node5" class="node"><title>Node5</title>
<g id="a_node5"><a xlink:href="class_tomographer_1_1_m_a_t_1_1_var_error.html" target="_top" xlink:title="Exception relating to a MATLAB variable in the data file. ">
<polygon fill="none" stroke="black" points="300.682,-52.5 300.682,-70.5 443.025,-70.5 443.025,-52.5 300.682,-52.5"/>
<text text-anchor="middle" x="371.854" y="-58.5" font-family="Helvetica,sans-Serif" font-size="10.00">Tomographer::MAT::VarError</text>
</a>
</g>
</g>
<!-- Node1&#45;&gt;Node5 -->
<g id="edge4" class="edge"><title>Node1&#45;&gt;Node5</title>
<path fill="none" stroke="midnightblue" d="M238.28,-92.171C267.572,-85.3941 304.296,-76.8981 331.66,-70.5675"/>
<polygon fill="midnightblue" stroke="midnightblue" points="237.21,-88.826 228.256,-94.4899 238.788,-95.6458 237.21,-88.826"/>
</g>
<!-- Node2 -->
<g id="node2" class="node"><title>Node2</title>
<g id="a_node2"><a doxygen="/Users/philippe/temp/tomographer/tomographer-build-docs/doc/cppreference-doxygen-web.tag.xml:http://en.cppreference.com/w//" xlink:href="http://en.cppreference.com/w/cpp/error/exception.html" target="_top" xlink:title="STL class. ">
<polygon fill="none" stroke="black" points="0,-94.5 0,-112.5 77.7041,-112.5 77.7041,-94.5 0,-94.5"/>
<text text-anchor="middle" x="38.8521" y="-100.5" font-family="Helvetica,sans-Serif" font-size="10.00">std::exception</text>
</a>
</g>
</g>
<!-- Node2&#45;&gt;Node1 -->
<g id="edge1" class="edge"><title>Node2&#45;&gt;Node1</title>
<path fill="none" stroke="midnightblue" d="M87.9645,-103.5C96.2032,-103.5 104.929,-103.5 113.654,-103.5"/>
<polygon fill="midnightblue" stroke="midnightblue" points="87.8263,-100 77.8263,-103.5 87.8262,-107 87.8263,-100"/>
</g>
<!-- Node6 -->
<g id="node6" class="node"><title>Node6</title>
<g id="a_node6"><a xlink:href="class_tomographer_1_1_m_a_t_1_1_var_mat_type_error.html" target="_top" xlink:title="Unknown type of a variable present in the data file. ">
<polygon fill="none" stroke="black" points="484.408,-94.5 484.408,-122.5 621.199,-122.5 621.199,-94.5 484.408,-94.5"/>
<text text-anchor="start" x="492.408" y="-110.5" font-family="Helvetica,sans-Serif" font-size="10.00">Tomographer::MAT::VarMat</text>
<text text-anchor="middle" x="552.804" y="-100.5" font-family="Helvetica,sans-Serif" font-size="10.00">TypeError</text>
</a>
</g>
</g>
<!-- Node5&#45;&gt;Node6 -->
<g id="edge5" class="edge"><title>Node5&#45;&gt;Node6</title>
<path fill="none" stroke="midnightblue" d="M419.275,-72.9749C427.77,-75.1148 436.552,-77.3534 444.79,-79.5 463.044,-84.2567 483.005,-89.6214 500.691,-94.4315"/>
<polygon fill="midnightblue" stroke="midnightblue" points="420.036,-69.5572 409.485,-70.5196 418.333,-76.347 420.036,-69.5572"/>
</g>
<!-- Node7 -->
<g id="node7" class="node"><title>Node7</title>
<g id="a_node7"><a xlink:href="class_tomographer_1_1_m_a_t_1_1_var_read_error.html" target="_top" xlink:title="Error while reading a variable from the MATLAB data file. ">
<polygon fill="none" stroke="black" points="480.79,-47.5 480.79,-75.5 624.817,-75.5 624.817,-47.5 480.79,-47.5"/>
<text text-anchor="start" x="488.79" y="-63.5" font-family="Helvetica,sans-Serif" font-size="10.00">Tomographer::MAT::VarRead</text>
<text text-anchor="middle" x="552.804" y="-53.5" font-family="Helvetica,sans-Serif" font-size="10.00">Error</text>
</a>
</g>
</g>
<!-- Node5&#45;&gt;Node7 -->
<g id="edge6" class="edge"><title>Node5&#45;&gt;Node7</title>
<path fill="none" stroke="midnightblue" d="M453.281,-61.5C462.395,-61.5 471.635,-61.5 480.618,-61.5"/>
<polygon fill="midnightblue" stroke="midnightblue" points="453.066,-58.0001 443.066,-61.5 453.066,-65.0001 453.066,-58.0001"/>
</g>
<!-- Node8 -->
<g id="node8" class="node"><title>Node8</title>
<g id="a_node8"><a xlink:href="class_tomographer_1_1_m_a_t_1_1_var_type_error.html" target="_top" xlink:title="Type mismatch (wrong type requested) in a variable read from the MATLAB data file. ">
<polygon fill="none" stroke="black" points="481.901,-0.5 481.901,-28.5 623.707,-28.5 623.707,-0.5 481.901,-0.5"/>
<text text-anchor="start" x="489.901" y="-16.5" font-family="Helvetica,sans-Serif" font-size="10.00">Tomographer::MAT::VarType</text>
<text text-anchor="middle" x="552.804" y="-6.5" font-family="Helvetica,sans-Serif" font-size="10.00">Error</text>
</a>
</g>
</g>
<!-- Node5&#45;&gt;Node8 -->
<g id="edge7" class="edge"><title>Node5&#45;&gt;Node8</title>
<path fill="none" stroke="midnightblue" d="M417.138,-49.8691C441.721,-43.4125 472.475,-35.3351 498.385,-28.5299"/>
<polygon fill="midnightblue" stroke="midnightblue" points="416.14,-46.5124 407.357,-52.4379 417.918,-53.2828 416.14,-46.5124"/>
</g>
</g>
</svg>
