<?xml version="1.0" encoding="UTF-8" standalone="no"?>
<!DOCTYPE svg PUBLIC "-//W3C//DTD SVG 1.1//EN"
 "http://www.w3.org/Graphics/SVG/1.1/DTD/svg11.dtd">
<!-- Generated by graphviz version 2.38.0 (20140413.2041)
 -->
<!-- Title: tomographer/mhrw_bin_err.h Pages: 1 -->
<svg width="1147pt" height="322pt"
 viewBox="0.00 0.00 1147.15 322.00" xmlns="http://www.w3.org/2000/svg" xmlns:xlink="http://www.w3.org/1999/xlink">
<g id="graph0" class="graph" transform="scale(1 1) rotate(0) translate(4 318)">
<title>tomographer/mhrw_bin_err.h</title>
<!-- Node1 -->
<g id="node1" class="node"><title>Node1</title>
<polygon fill="#bfbfbf" stroke="black" points="460.205,-285.5 460.205,-313.5 579.032,-313.5 579.032,-285.5 460.205,-285.5"/>
<text text-anchor="start" x="468.205" y="-301.5" font-family="Helvetica,sans-Serif" font-size="10.00">tomographer/mhrw_bin</text>
<text text-anchor="middle" x="519.618" y="-291.5" font-family="Helvetica,sans-Serif" font-size="10.00">_err.h</text>
</g>
<!-- Node2 -->
<g id="node2" class="node"><title>Node2</title>
<g id="a_node2"><a xlink:href="qit_2util_8h.html" target="_top" xlink:title="Basic utilities for dealing with Eigen matrices and other types. ">
<polygon fill="none" stroke="black" points="120.648,-225.5 120.648,-243.5 230.588,-243.5 230.588,-225.5 120.648,-225.5"/>
<text text-anchor="middle" x="175.618" y="-231.5" font-family="Helvetica,sans-Serif" font-size="10.00">tomographer/qit/util.h</text>
</a>
</g>
</g>
<!-- Node1&#45;&gt;Node2 -->
<g id="edge1" class="edge"><title>Node1&#45;&gt;Node2</title>
<path fill="none" stroke="midnightblue" d="M460.091,-287.598C395.151,-275.705 292.121,-256.836 229.498,-245.368"/>
<polygon fill="midnightblue" stroke="midnightblue" points="229.895,-241.882 219.428,-243.523 228.634,-248.768 229.895,-241.882"/>
</g>
<!-- Node8 -->
<g id="node8" class="node"><title>Node8</title>
<g id="a_node8"><a xlink:href="tools_2util_8h.html" target="_top" xlink:title="Some C++ utilities, with a tad of C++11 tricks. ">
<polygon fill="none" stroke="black" points="267.367,-110.5 267.367,-128.5 387.869,-128.5 387.869,-110.5 267.367,-110.5"/>
<text text-anchor="middle" x="327.618" y="-116.5" font-family="Helvetica,sans-Serif" font-size="10.00">tomographer/tools/util.h</text>
</a>
</g>
</g>
<!-- Node1&#45;&gt;Node8 -->
<g id="edge7" class="edge"><title>Node1&#45;&gt;Node8</title>
<path fill="none" stroke="midnightblue" d="M505.5,-285.411C470.719,-253.166 381.05,-170.035 344.005,-135.692"/>
<polygon fill="midnightblue" stroke="midnightblue" points="346.262,-133.012 336.549,-128.78 341.503,-138.145 346.262,-133.012"/>
</g>
<!-- Node12 -->
<g id="node12" class="node"><title>Node12</title>
<g id="a_node12"><a xlink:href="loggers_8h.html" target="_top" xlink:title="Utilities for logging messages. ">
<polygon fill="none" stroke="black" points="592.36,-225.5 592.36,-243.5 732.876,-243.5 732.876,-225.5 592.36,-225.5"/>
<text text-anchor="middle" x="662.618" y="-231.5" font-family="Helvetica,sans-Serif" font-size="10.00">tomographer/tools/loggers.h</text>
</a>
</g>
</g>
<!-- Node1&#45;&gt;Node12 -->
<g id="edge12" class="edge"><title>Node1&#45;&gt;Node12</title>
<path fill="none" stroke="midnightblue" d="M549.248,-285.446C574.413,-274.359 610.263,-258.565 634.875,-247.722"/>
<polygon fill="midnightblue" stroke="midnightblue" points="636.61,-250.783 644.35,-243.548 633.788,-244.377 636.61,-250.783"/>
</g>
<!-- Node23 -->
<g id="node23" class="node"><title>Node23</title>
<polygon fill="none" stroke="#bfbfbf" points="751.091,-220.5 751.091,-248.5 862.145,-248.5 862.145,-220.5 751.091,-220.5"/>
<text text-anchor="start" x="759.091" y="-236.5" font-family="Helvetica,sans-Serif" font-size="10.00">boost/math/constants</text>
<text text-anchor="middle" x="806.618" y="-226.5" font-family="Helvetica,sans-Serif" font-size="10.00">/constants.hpp</text>
</g>
<!-- Node1&#45;&gt;Node23 -->
<g id="edge32" class="edge"><title>Node1&#45;&gt;Node23</title>
<path fill="none" stroke="midnightblue" d="M579.085,-285.446C626.242,-275.095 692.092,-260.64 740.824,-249.943"/>
<polygon fill="midnightblue" stroke="midnightblue" points="741.623,-253.351 750.64,-247.788 740.122,-246.513 741.623,-253.351"/>
</g>
<!-- Node3 -->
<g id="node3" class="node"><title>Node3</title>
<polygon fill="none" stroke="#bfbfbf" points="0,-165.5 0,-183.5 53.2363,-183.5 53.2363,-165.5 0,-165.5"/>
<text text-anchor="middle" x="26.6182" y="-171.5" font-family="Helvetica,sans-Serif" font-size="10.00">complex</text>
</g>
<!-- Node2&#45;&gt;Node3 -->
<g id="edge2" class="edge"><title>Node2&#45;&gt;Node3</title>
<path fill="none" stroke="midnightblue" d="M154.9,-225.435C129.579,-215.579 86.5084,-198.813 57.3299,-187.455"/>
<polygon fill="midnightblue" stroke="midnightblue" points="58.2289,-184.049 47.6404,-183.683 55.6896,-190.572 58.2289,-184.049"/>
</g>
<!-- Node4 -->
<g id="node4" class="node"><title>Node4</title>
<polygon fill="none" stroke="#bfbfbf" points="71.0024,-165.5 71.0024,-183.5 114.234,-183.5 114.234,-165.5 71.0024,-165.5"/>
<text text-anchor="middle" x="92.6182" y="-171.5" font-family="Helvetica,sans-Serif" font-size="10.00">vector</text>
</g>
<!-- Node2&#45;&gt;Node4 -->
<g id="edge3" class="edge"><title>Node2&#45;&gt;Node4</title>
<path fill="none" stroke="midnightblue" d="M164.077,-225.435C150.773,-216.138 128.672,-200.694 112.566,-189.439"/>
<polygon fill="midnightblue" stroke="midnightblue" points="114.53,-186.542 104.329,-183.683 110.521,-192.28 114.53,-186.542"/>
</g>
<!-- Node5 -->
<g id="node5" class="node"><title>Node5</title>
<polygon fill="none" stroke="#bfbfbf" points="133.604,-55.5 133.604,-73.5 199.633,-73.5 199.633,-55.5 133.604,-55.5"/>
<text text-anchor="middle" x="166.618" y="-61.5" font-family="Helvetica,sans-Serif" font-size="10.00">Eigen/Core</text>
</g>
<!-- Node2&#45;&gt;Node5 -->
<g id="edge4" class="edge"><title>Node2&#45;&gt;Node5</title>
<path fill="none" stroke="midnightblue" d="M172.523,-225.242C169.065,-215.535 163.679,-198.862 161.618,-184 156.73,-148.755 160.719,-107.097 163.828,-83.744"/>
<polygon fill="midnightblue" stroke="midnightblue" points="167.329,-83.9891 165.282,-73.5939 160.4,-82.9968 167.329,-83.9891"/>
</g>
<!-- Node6 -->
<g id="node6" class="node"><title>Node6</title>
<polygon fill="none" stroke="#bfbfbf" points="170.988,-165.5 170.988,-183.5 244.249,-183.5 244.249,-165.5 170.988,-165.5"/>
<text text-anchor="middle" x="207.618" y="-171.5" font-family="Helvetica,sans-Serif" font-size="10.00">Eigen/Dense</text>
</g>
<!-- Node2&#45;&gt;Node6 -->
<g id="edge5" class="edge"><title>Node2&#45;&gt;Node6</title>
<path fill="none" stroke="midnightblue" d="M180.068,-225.435C184.696,-217.047 192.085,-203.654 198.046,-192.849"/>
<polygon fill="midnightblue" stroke="midnightblue" points="201.233,-194.318 202.999,-183.872 195.104,-190.937 201.233,-194.318"/>
</g>
<!-- Node7 -->
<g id="node7" class="node"><title>Node7</title>
<polygon fill="none" stroke="#bfbfbf" points="261.759,-165.5 261.759,-183.5 349.478,-183.5 349.478,-165.5 261.759,-165.5"/>
<text text-anchor="middle" x="305.618" y="-171.5" font-family="Helvetica,sans-Serif" font-size="10.00">Eigen/StdVector</text>
</g>
<!-- Node2&#45;&gt;Node7 -->
<g id="edge6" class="edge"><title>Node2&#45;&gt;Node7</title>
<path fill="none" stroke="midnightblue" d="M193.694,-225.435C215.497,-215.708 252.383,-199.251 277.816,-187.904"/>
<polygon fill="midnightblue" stroke="midnightblue" points="279.57,-190.954 287.277,-183.683 276.718,-184.561 279.57,-190.954"/>
</g>
<!-- Node8&#45;&gt;Node5 -->
<g id="edge9" class="edge"><title>Node8&#45;&gt;Node5</title>
<path fill="none" stroke="midnightblue" d="M303.166,-110.45C275.899,-101.475 231.602,-86.8922 200.888,-76.7813"/>
<polygon fill="midnightblue" stroke="midnightblue" points="201.629,-73.3407 191.036,-73.5383 199.441,-79.9897 201.629,-73.3407"/>
</g>
<!-- Node9 -->
<g id="node9" class="node"><title>Node9</title>
<polygon fill="none" stroke="#bfbfbf" points="241.552,-55.5 241.552,-73.5 303.685,-73.5 303.685,-55.5 241.552,-55.5"/>
<text text-anchor="middle" x="272.618" y="-61.5" font-family="Helvetica,sans-Serif" font-size="10.00">type_traits</text>
</g>
<!-- Node8&#45;&gt;Node9 -->
<g id="edge8" class="edge"><title>Node8&#45;&gt;Node9</title>
<path fill="none" stroke="midnightblue" d="M319.024,-110.219C310.824,-102.316 298.275,-90.2241 288.294,-80.6057"/>
<polygon fill="midnightblue" stroke="midnightblue" points="290.601,-77.9682 280.971,-73.5496 285.744,-83.0088 290.601,-77.9682"/>
</g>
<!-- Node10 -->
<g id="node10" class="node"><title>Node10</title>
<g id="a_node10"><a xlink:href="conststr_8h.html" target="_top" xlink:title="A constexpr string type, suitable for basic compile&#45;time string processing. ">
<polygon fill="none" stroke="black" points="321.527,-55.5 321.527,-73.5 463.709,-73.5 463.709,-55.5 321.527,-55.5"/>
<text text-anchor="middle" x="392.618" y="-61.5" font-family="Helvetica,sans-Serif" font-size="10.00">tomographer/tools/conststr.h</text>
</a>
</g>
</g>
<!-- Node8&#45;&gt;Node10 -->
<g id="edge10" class="edge"><title>Node8&#45;&gt;Node10</title>
<path fill="none" stroke="midnightblue" d="M337.49,-110.45C347.321,-102.434 362.636,-89.9471 374.631,-80.1663"/>
<polygon fill="midnightblue" stroke="midnightblue" points="377.115,-82.6573 382.653,-73.6253 372.691,-77.2322 377.115,-82.6573"/>
</g>
<!-- Node11 -->
<g id="node11" class="node"><title>Node11</title>
<polygon fill="none" stroke="#bfbfbf" points="471.392,-0.5 471.392,-18.5 511.845,-18.5 511.845,-0.5 471.392,-0.5"/>
<text text-anchor="middle" x="491.618" y="-6.5" font-family="Helvetica,sans-Serif" font-size="10.00">string</text>
</g>
<!-- Node10&#45;&gt;Node11 -->
<g id="edge11" class="edge"><title>Node10&#45;&gt;Node11</title>
<path fill="none" stroke="midnightblue" d="M407.654,-55.4504C423.572,-46.9286 448.93,-33.3532 467.618,-23.3487"/>
<polygon fill="midnightblue" stroke="midnightblue" points="469.276,-26.4308 476.441,-18.6253 465.973,-20.2595 469.276,-26.4308"/>
</g>
<!-- Node12&#45;&gt;Node9 -->
<g id="edge20" class="edge"><title>Node12&#45;&gt;Node9</title>
<path fill="none" stroke="midnightblue" d="M591.975,-228.193C549.716,-222.32 496.469,-209.967 455.618,-184 420.12,-161.436 430.825,-134.479 396.618,-110 382.436,-99.851 341.149,-86.0027 310.082,-76.4637"/>
<polygon fill="midnightblue" stroke="midnightblue" points="310.988,-73.0808 300.402,-73.5282 308.956,-79.7796 310.988,-73.0808"/>
</g>
<!-- Node12&#45;&gt;Node10 -->
<g id="edge31" class="edge"><title>Node12&#45;&gt;Node10</title>
<path fill="none" stroke="midnightblue" d="M591.937,-226.844C555.058,-220.507 510.835,-208.138 477.618,-184 445.905,-160.955 452.857,-141.571 429.618,-110 422.457,-100.271 413.861,-89.8648 406.757,-81.5634"/>
<polygon fill="midnightblue" stroke="midnightblue" points="409.213,-79.0533 400.018,-73.7912 403.925,-83.6393 409.213,-79.0533"/>
</g>
<!-- Node12&#45;&gt;Node11 -->
<g id="edge16" class="edge"><title>Node12&#45;&gt;Node11</title>
<path fill="none" stroke="midnightblue" d="M619.872,-225.496C592.869,-218.525 558.82,-205.96 535.618,-184 491.82,-142.546 489.14,-64.2392 490.407,-28.7742"/>
<polygon fill="midnightblue" stroke="midnightblue" points="493.917,-28.6708 490.935,-18.5044 486.926,-28.3118 493.917,-28.6708"/>
</g>
<!-- Node13 -->
<g id="node13" class="node"><title>Node13</title>
<polygon fill="none" stroke="#bfbfbf" points="811.502,-165.5 811.502,-183.5 859.734,-183.5 859.734,-165.5 811.502,-165.5"/>
<text text-anchor="middle" x="835.618" y="-171.5" font-family="Helvetica,sans-Serif" font-size="10.00">cassert</text>
</g>
<!-- Node12&#45;&gt;Node13 -->
<g id="edge13" class="edge"><title>Node12&#45;&gt;Node13</title>
<path fill="none" stroke="midnightblue" d="M686.673,-225.435C716.671,-215.378 768.124,-198.128 802.007,-186.769"/>
<polygon fill="midnightblue" stroke="midnightblue" points="803.121,-190.087 811.489,-183.589 800.895,-183.45 803.121,-190.087"/>
</g>
<!-- Node14 -->
<g id="node14" class="node"><title>Node14</title>
<polygon fill="none" stroke="#bfbfbf" points="519.557,-110.5 519.557,-128.5 561.68,-128.5 561.68,-110.5 519.557,-110.5"/>
<text text-anchor="middle" x="540.618" y="-116.5" font-family="Helvetica,sans-Serif" font-size="10.00">cstdio</text>
</g>
<!-- Node12&#45;&gt;Node14 -->
<g id="edge14" class="edge"><title>Node12&#45;&gt;Node14</title>
<path fill="none" stroke="midnightblue" d="M618.612,-225.484C594.129,-218.667 565.313,-206.272 548.618,-184 539.038,-171.219 537.694,-152.77 538.358,-139.048"/>
<polygon fill="midnightblue" stroke="midnightblue" points="541.864,-139.129 539.251,-128.861 534.891,-138.518 541.864,-139.129"/>
</g>
<!-- Node15 -->
<g id="node15" class="node"><title>Node15</title>
<polygon fill="none" stroke="#bfbfbf" points="682.222,-110.5 682.222,-128.5 731.015,-128.5 731.015,-110.5 682.222,-110.5"/>
<text text-anchor="middle" x="706.618" y="-116.5" font-family="Helvetica,sans-Serif" font-size="10.00">cstdarg</text>
</g>
<!-- Node12&#45;&gt;Node15 -->
<g id="edge15" class="edge"><title>Node12&#45;&gt;Node15</title>
<path fill="none" stroke="midnightblue" d="M667.579,-225.343C673.263,-215.73 682.57,-199.145 688.618,-184 694.534,-169.185 699.339,-151.704 702.492,-138.838"/>
<polygon fill="midnightblue" stroke="midnightblue" points="705.946,-139.437 704.823,-128.902 699.131,-137.838 705.946,-139.437"/>
</g>
<!-- Node16 -->
<g id="node16" class="node"><title>Node16</title>
<polygon fill="none" stroke="#bfbfbf" points="748.837,-110.5 748.837,-128.5 800.399,-128.5 800.399,-110.5 748.837,-110.5"/>
<text text-anchor="middle" x="774.618" y="-116.5" font-family="Helvetica,sans-Serif" font-size="10.00">sstream</text>
</g>
<!-- Node12&#45;&gt;Node16 -->
<g id="edge17" class="edge"><title>Node12&#45;&gt;Node16</title>
<path fill="none" stroke="midnightblue" d="M670.673,-225.373C689.239,-206.641 735.289,-160.18 759.38,-135.874"/>
<polygon fill="midnightblue" stroke="midnightblue" points="762.083,-138.119 766.636,-128.553 757.111,-133.192 762.083,-138.119"/>
</g>
<!-- Node17 -->
<g id="node17" class="node"><title>Node17</title>
<polygon fill="none" stroke="#bfbfbf" points="818.446,-110.5 818.446,-128.5 872.791,-128.5 872.791,-110.5 818.446,-110.5"/>
<text text-anchor="middle" x="845.618" y="-116.5" font-family="Helvetica,sans-Serif" font-size="10.00">iostream</text>
</g>
<!-- Node12&#45;&gt;Node17 -->
<g id="edge18" class="edge"><title>Node12&#45;&gt;Node17</title>
<path fill="none" stroke="midnightblue" d="M675.779,-225.373C706.906,-206.153 785.314,-157.737 823.726,-134.018"/>
<polygon fill="midnightblue" stroke="midnightblue" points="825.907,-136.785 832.577,-128.553 822.229,-130.829 825.907,-136.785"/>
</g>
<!-- Node18 -->
<g id="node18" class="node"><title>Node18</title>
<polygon fill="none" stroke="#bfbfbf" points="878.214,-165.5 878.214,-183.5 937.022,-183.5 937.022,-165.5 878.214,-165.5"/>
<text text-anchor="middle" x="907.618" y="-171.5" font-family="Helvetica,sans-Serif" font-size="10.00">functional</text>
</g>
<!-- Node12&#45;&gt;Node18 -->
<g id="edge19" class="edge"><title>Node12&#45;&gt;Node18</title>
<path fill="none" stroke="midnightblue" d="M696.427,-225.496C741.31,-214.871 820.429,-196.141 868.043,-184.869"/>
<polygon fill="midnightblue" stroke="midnightblue" points="869.064,-188.224 877.989,-182.514 867.451,-181.412 869.064,-188.224"/>
</g>
<!-- Node19 -->
<g id="node19" class="node"><title>Node19</title>
<polygon fill="none" stroke="#bfbfbf" points="954.892,-165.5 954.892,-183.5 990.345,-183.5 990.345,-165.5 954.892,-165.5"/>
<text text-anchor="middle" x="972.618" y="-171.5" font-family="Helvetica,sans-Serif" font-size="10.00">map</text>
</g>
<!-- Node12&#45;&gt;Node19 -->
<g id="edge21" class="edge"><title>Node12&#45;&gt;Node19</title>
<path fill="none" stroke="midnightblue" d="M709.503,-225.465C779.079,-213.521 905.033,-191.809 944.746,-183.698"/>
<polygon fill="midnightblue" stroke="midnightblue" points="945.69,-187.074 954.702,-181.503 944.183,-180.238 945.69,-187.074"/>
</g>
<!-- Node20 -->
<g id="node20" class="node"><title>Node20</title>
<polygon fill="none" stroke="#bfbfbf" points="1008.09,-165.5 1008.09,-183.5 1139.15,-183.5 1139.15,-165.5 1008.09,-165.5"/>
<text text-anchor="middle" x="1073.62" y="-171.5" font-family="Helvetica,sans-Serif" font-size="10.00">boost/algorithm/string.hpp</text>
</g>
<!-- Node12&#45;&gt;Node20 -->
<g id="edge22" class="edge"><title>Node12&#45;&gt;Node20</title>
<path fill="none" stroke="midnightblue" d="M708.108,-225.439C719.068,-223.576 730.752,-221.656 741.618,-220 829.658,-206.582 931.171,-193.293 998.533,-184.781"/>
<polygon fill="midnightblue" stroke="midnightblue" points="999.147,-188.231 1008.63,-183.508 998.271,-181.286 999.147,-188.231"/>
</g>
<!-- Node21 -->
<g id="node21" class="node"><title>Node21</title>
<g id="a_node21"><a xlink:href="fmt_8h.html" target="_top" xlink:title="Utilities for formatting strings. ">
<polygon fill="none" stroke="black" points="557.815,-165.5 557.815,-183.5 679.421,-183.5 679.421,-165.5 557.815,-165.5"/>
<text text-anchor="middle" x="618.618" y="-171.5" font-family="Helvetica,sans-Serif" font-size="10.00">tomographer/tools/fmt.h</text>
</a>
</g>
</g>
<!-- Node12&#45;&gt;Node21 -->
<g id="edge23" class="edge"><title>Node12&#45;&gt;Node21</title>
<path fill="none" stroke="midnightblue" d="M656.5,-225.435C649.942,-216.79 639.351,-202.829 631.032,-191.864"/>
<polygon fill="midnightblue" stroke="midnightblue" points="633.801,-189.723 624.969,-183.872 628.225,-193.954 633.801,-189.723"/>
</g>
<!-- Node21&#45;&gt;Node8 -->
<g id="edge30" class="edge"><title>Node21&#45;&gt;Node8</title>
<path fill="none" stroke="midnightblue" d="M574.422,-165.45C522.782,-156.045 437.345,-140.485 381.768,-130.362"/>
<polygon fill="midnightblue" stroke="midnightblue" points="382.218,-126.887 371.753,-128.538 380.964,-133.774 382.218,-126.887"/>
</g>
<!-- Node21&#45;&gt;Node11 -->
<g id="edge27" class="edge"><title>Node21&#45;&gt;Node11</title>
<path fill="none" stroke="midnightblue" d="M612.467,-165.233C603.394,-153.069 585.853,-129.664 570.618,-110 547.657,-80.3639 520.361,-46.2198 504.608,-26.6178"/>
<polygon fill="midnightblue" stroke="midnightblue" points="507.235,-24.2999 498.239,-18.7032 501.782,-28.6883 507.235,-24.2999"/>
</g>
<!-- Node21&#45;&gt;Node14 -->
<g id="edge24" class="edge"><title>Node21&#45;&gt;Node14</title>
<path fill="none" stroke="midnightblue" d="M606.772,-165.45C594.631,-157.201 575.521,-144.216 560.955,-134.319"/>
<polygon fill="midnightblue" stroke="midnightblue" points="562.815,-131.351 552.576,-128.625 558.88,-137.14 562.815,-131.351"/>
</g>
<!-- Node21&#45;&gt;Node15 -->
<g id="edge25" class="edge"><title>Node21&#45;&gt;Node15</title>
<path fill="none" stroke="midnightblue" d="M631.983,-165.45C645.81,-157.123 667.648,-143.97 684.138,-134.039"/>
<polygon fill="midnightblue" stroke="midnightblue" points="686.366,-136.783 693.127,-128.625 682.755,-130.786 686.366,-136.783"/>
</g>
<!-- Node21&#45;&gt;Node16 -->
<g id="edge28" class="edge"><title>Node21&#45;&gt;Node16</title>
<path fill="none" stroke="midnightblue" d="M642.311,-165.45C668.731,-156.475 711.652,-141.892 741.413,-131.781"/>
<polygon fill="midnightblue" stroke="midnightblue" points="742.616,-135.069 750.958,-128.538 740.364,-128.441 742.616,-135.069"/>
</g>
<!-- Node21&#45;&gt;Node17 -->
<g id="edge29" class="edge"><title>Node21&#45;&gt;Node17</title>
<path fill="none" stroke="midnightblue" d="M653.13,-165.492C689.371,-157.075 748.293,-143.371 808.108,-129.349"/>
<polygon fill="midnightblue" stroke="midnightblue" points="809.166,-132.696 818.103,-127.006 807.568,-125.881 809.166,-132.696"/>
</g>
<!-- Node22 -->
<g id="node22" class="node"><title>Node22</title>
<polygon fill="none" stroke="#bfbfbf" points="617.33,-110.5 617.33,-128.5 663.906,-128.5 663.906,-110.5 617.33,-110.5"/>
<text text-anchor="middle" x="640.618" y="-116.5" font-family="Helvetica,sans-Serif" font-size="10.00">chrono</text>
</g>
<!-- Node21&#45;&gt;Node22 -->
<g id="edge26" class="edge"><title>Node21&#45;&gt;Node22</title>
<path fill="none" stroke="midnightblue" d="M622.056,-165.219C625.076,-157.942 629.571,-147.113 633.381,-137.934"/>
<polygon fill="midnightblue" stroke="midnightblue" points="636.676,-139.127 637.277,-128.55 630.21,-136.444 636.676,-139.127"/>
</g>
</g>
</svg>
