<?xml version="1.0" encoding="UTF-8" standalone="no"?>
<!DOCTYPE svg PUBLIC "-//W3C//DTD SVG 1.1//EN"
 "http://www.w3.org/Graphics/SVG/1.1/DTD/svg11.dtd">
<!-- Generated by graphviz version 2.38.0 (20140413.2041)
 -->
<!-- Title: tomographer/mathtools/check_derivatives.h Pages: 1 -->
<svg width="902pt" height="202pt"
 viewBox="0.00 0.00 901.65 202.00" xmlns="http://www.w3.org/2000/svg" xmlns:xlink="http://www.w3.org/1999/xlink">
<g id="graph0" class="graph" transform="scale(1 1) rotate(0) translate(4 198)">
<title>tomographer/mathtools/check_derivatives.h</title>
<!-- Node0 -->
<g id="node1" class="node"><title>Node0</title>
<polygon fill="#bfbfbf" stroke="black" points="19.1422,-165.5 19.1422,-193.5 137.974,-193.5 137.974,-165.5 19.1422,-165.5"/>
<text text-anchor="start" x="27.1422" y="-181.5" font-family="Helvetica,sans-Serif" font-size="10.00">tomographer/mathtools</text>
<text text-anchor="middle" x="78.5583" y="-171.5" font-family="Helvetica,sans-Serif" font-size="10.00">/check_derivatives.h</text>
</g>
<!-- Node1 -->
<g id="node2" class="node"><title>Node1</title>
<polygon fill="none" stroke="#bfbfbf" points="153.438,-0.5 153.438,-18.5 201.679,-18.5 201.679,-0.5 153.438,-0.5"/>
<text text-anchor="middle" x="177.558" y="-6.5" font-family="Helvetica,sans-Serif" font-size="10.00">cstddef</text>
</g>
<!-- Node0&#45;&gt;Node1 -->
<g id="edge1" class="edge"><title>Node0&#45;&gt;Node1</title>
<path fill="none" stroke="midnightblue" d="M60.8404,-165.131C31.8279,-141.626 -19.8779,-91.8931 8.55826,-55 24.8483,-33.8653 98.5392,-20.7651 143.06,-14.6363"/>
<polygon fill="midnightblue" stroke="midnightblue" points="143.707,-18.0811 153.16,-13.2961 142.787,-11.1419 143.707,-18.0811"/>
</g>
<!-- Node2 -->
<g id="node3" class="node"><title>Node2</title>
<polygon fill="none" stroke="#bfbfbf" points="17.3859,-55.5 17.3859,-73.5 71.7306,-73.5 71.7306,-55.5 17.3859,-55.5"/>
<text text-anchor="middle" x="44.5583" y="-61.5" font-family="Helvetica,sans-Serif" font-size="10.00">iostream</text>
</g>
<!-- Node0&#45;&gt;Node2 -->
<g id="edge2" class="edge"><title>Node0&#45;&gt;Node2</title>
<path fill="none" stroke="midnightblue" d="M74.5245,-165.094C68.4174,-144.796 56.8136,-106.231 49.976,-83.506"/>
<polygon fill="midnightblue" stroke="midnightblue" points="53.2801,-82.3394 47.0472,-73.772 46.5769,-84.3563 53.2801,-82.3394"/>
</g>
<!-- Node3 -->
<g id="node4" class="node"><title>Node3</title>
<polygon fill="none" stroke="#bfbfbf" points="89.5436,-55.5 89.5436,-73.5 155.573,-73.5 155.573,-55.5 89.5436,-55.5"/>
<text text-anchor="middle" x="122.558" y="-61.5" font-family="Helvetica,sans-Serif" font-size="10.00">Eigen/Core</text>
</g>
<!-- Node0&#45;&gt;Node3 -->
<g id="edge3" class="edge"><title>Node0&#45;&gt;Node3</title>
<path fill="none" stroke="midnightblue" d="M83.7784,-165.094C91.7177,-144.704 106.835,-105.88 115.667,-83.1971"/>
<polygon fill="midnightblue" stroke="midnightblue" points="118.97,-84.3604 119.337,-73.772 112.447,-81.8205 118.97,-84.3604"/>
</g>
<!-- Node4 -->
<g id="node5" class="node"><title>Node4</title>
<g id="a_node5"><a xlink:href="cxxutil_8h.html" target="_top" xlink:title="Some C++ utilities, with a tad of C++11 tricks. ">
<polygon fill="none" stroke="black" points="309.807,-110.5 309.807,-128.5 445.309,-128.5 445.309,-110.5 309.807,-110.5"/>
<text text-anchor="middle" x="377.558" y="-116.5" font-family="Helvetica,sans-Serif" font-size="10.00">tomographer/tools/cxxutil.h</text>
</a>
</g>
</g>
<!-- Node0&#45;&gt;Node4 -->
<g id="edge4" class="edge"><title>Node0&#45;&gt;Node4</title>
<path fill="none" stroke="midnightblue" d="M137.989,-166.972C192.913,-156.318 273.695,-140.647 325.969,-130.507"/>
<polygon fill="midnightblue" stroke="midnightblue" points="326.877,-133.896 336.028,-128.556 325.544,-127.025 326.877,-133.896"/>
</g>
<!-- Node4&#45;&gt;Node1 -->
<g id="edge6" class="edge"><title>Node4&#45;&gt;Node1</title>
<path fill="none" stroke="midnightblue" d="M325.752,-110.452C296.058,-104.048 259.132,-92.9096 230.558,-74 212.461,-62.0236 197.261,-42.0581 187.843,-27.7096"/>
<polygon fill="midnightblue" stroke="midnightblue" points="190.56,-25.4542 182.283,-18.8406 184.63,-29.1724 190.56,-25.4542"/>
</g>
<!-- Node4&#45;&gt;Node2 -->
<g id="edge8" class="edge"><title>Node4&#45;&gt;Node2</title>
<path fill="none" stroke="midnightblue" d="M313.568,-110.477C255.48,-102.838 167.269,-90.3539 81.8828,-74.1263"/>
<polygon fill="midnightblue" stroke="midnightblue" points="82.5056,-70.682 72.025,-72.2334 81.1856,-77.5564 82.5056,-70.682"/>
</g>
<!-- Node4&#45;&gt;Node3 -->
<g id="edge20" class="edge"><title>Node4&#45;&gt;Node3</title>
<path fill="none" stroke="midnightblue" d="M338.829,-110.45C292.262,-100.772 214.332,-84.5746 165.83,-74.4937"/>
<polygon fill="midnightblue" stroke="midnightblue" points="166.451,-71.0481 155.948,-72.4399 165.027,-77.9017 166.451,-71.0481"/>
</g>
<!-- Node5 -->
<g id="node6" class="node"><title>Node5</title>
<polygon fill="none" stroke="#bfbfbf" points="219.443,-0.5 219.443,-18.5 267.674,-18.5 267.674,-0.5 219.443,-0.5"/>
<text text-anchor="middle" x="243.558" y="-6.5" font-family="Helvetica,sans-Serif" font-size="10.00">cassert</text>
</g>
<!-- Node4&#45;&gt;Node5 -->
<g id="edge5" class="edge"><title>Node4&#45;&gt;Node5</title>
<path fill="none" stroke="midnightblue" d="M309.768,-113.146C283.797,-107.393 256.582,-96.052 240.558,-74 231.139,-61.0369 233.369,-42.353 237.064,-28.6068"/>
<polygon fill="midnightblue" stroke="midnightblue" points="240.473,-29.4347 240.147,-18.8449 233.798,-27.3265 240.473,-29.4347"/>
</g>
<!-- Node6 -->
<g id="node7" class="node"><title>Node6</title>
<polygon fill="none" stroke="#bfbfbf" points="428.386,-0.5 428.386,-18.5 472.731,-18.5 472.731,-0.5 428.386,-0.5"/>
<text text-anchor="middle" x="450.558" y="-6.5" font-family="Helvetica,sans-Serif" font-size="10.00">cstdlib</text>
</g>
<!-- Node4&#45;&gt;Node6 -->
<g id="edge7" class="edge"><title>Node4&#45;&gt;Node6</title>
<path fill="none" stroke="midnightblue" d="M416.727,-110.449C436.793,-104.127 459.487,-93.0703 471.558,-74 480.742,-59.4918 472.309,-40.5568 463.547,-27.1501"/>
<polygon fill="midnightblue" stroke="midnightblue" points="466.299,-24.9809 457.641,-18.8741 460.601,-29.0471 466.299,-24.9809"/>
</g>
<!-- Node7 -->
<g id="node8" class="node"><title>Node7</title>
<polygon fill="none" stroke="#bfbfbf" points="408.94,-55.5 408.94,-73.5 462.176,-73.5 462.176,-55.5 408.94,-55.5"/>
<text text-anchor="middle" x="435.558" y="-61.5" font-family="Helvetica,sans-Serif" font-size="10.00">complex</text>
</g>
<!-- Node4&#45;&gt;Node7 -->
<g id="edge9" class="edge"><title>Node4&#45;&gt;Node7</title>
<path fill="none" stroke="midnightblue" d="M386.621,-110.219C395.354,-102.238 408.764,-89.9842 419.339,-80.3207"/>
<polygon fill="midnightblue" stroke="midnightblue" points="421.728,-82.879 426.749,-73.5496 417.006,-77.7116 421.728,-82.879"/>
</g>
<!-- Node8 -->
<g id="node9" class="node"><title>Node8</title>
<polygon fill="none" stroke="#bfbfbf" points="518.492,-55.5 518.492,-73.5 580.625,-73.5 580.625,-55.5 518.492,-55.5"/>
<text text-anchor="middle" x="549.558" y="-61.5" font-family="Helvetica,sans-Serif" font-size="10.00">type_traits</text>
</g>
<!-- Node4&#45;&gt;Node8 -->
<g id="edge10" class="edge"><title>Node4&#45;&gt;Node8</title>
<path fill="none" stroke="midnightblue" d="M403.681,-110.45C433.064,-101.396 480.959,-86.6382 513.8,-76.5185"/>
<polygon fill="midnightblue" stroke="midnightblue" points="514.946,-79.8279 523.472,-73.5383 512.884,-73.1383 514.946,-79.8279"/>
</g>
<!-- Node9 -->
<g id="node10" class="node"><title>Node9</title>
<polygon fill="none" stroke="#bfbfbf" points="598.154,-55.5 598.154,-73.5 656.962,-73.5 656.962,-55.5 598.154,-55.5"/>
<text text-anchor="middle" x="627.558" y="-61.5" font-family="Helvetica,sans-Serif" font-size="10.00">exception</text>
</g>
<!-- Node4&#45;&gt;Node9 -->
<g id="edge11" class="edge"><title>Node4&#45;&gt;Node9</title>
<path fill="none" stroke="midnightblue" d="M416.664,-110.452C457.151,-102.084 522.506,-88.4778 588.021,-74.3129"/>
<polygon fill="midnightblue" stroke="midnightblue" points="589.076,-77.6656 598.108,-72.1276 587.594,-70.8242 589.076,-77.6656"/>
</g>
<!-- Node10 -->
<g id="node11" class="node"><title>Node10</title>
<polygon fill="none" stroke="#bfbfbf" points="675.157,-55.5 675.157,-73.5 733.96,-73.5 733.96,-55.5 675.157,-55.5"/>
<text text-anchor="middle" x="704.558" y="-61.5" font-family="Helvetica,sans-Serif" font-size="10.00">stdexcept</text>
</g>
<!-- Node4&#45;&gt;Node10 -->
<g id="edge12" class="edge"><title>Node4&#45;&gt;Node10</title>
<path fill="none" stroke="midnightblue" d="M436.481,-110.474C492.595,-102.586 579.654,-89.7177 664.696,-74.0586"/>
<polygon fill="midnightblue" stroke="midnightblue" points="665.593,-77.452 674.786,-72.1856 664.315,-70.5696 665.593,-77.452"/>
</g>
<!-- Node11 -->
<g id="node12" class="node"><title>Node11</title>
<g id="a_node12"><a xlink:href="cxxdefs_8h.html" target="_top" xlink:title="Basic definitions, which may have to be defined before any Eigen headers or further utilities are inc...">
<polygon fill="none" stroke="black" points="249.748,-55.5 249.748,-73.5 391.368,-73.5 391.368,-55.5 249.748,-55.5"/>
<text text-anchor="middle" x="320.558" y="-61.5" font-family="Helvetica,sans-Serif" font-size="10.00">tomographer/tools/cxxdefs.h</text>
</a>
</g>
</g>
<!-- Node4&#45;&gt;Node11 -->
<g id="edge13" class="edge"><title>Node4&#45;&gt;Node11</title>
<path fill="none" stroke="midnightblue" d="M368.652,-110.219C360.153,-102.316 347.148,-90.2241 336.804,-80.6057"/>
<polygon fill="midnightblue" stroke="midnightblue" points="338.922,-77.7958 329.215,-73.5496 334.155,-82.9222 338.922,-77.7958"/>
</g>
<!-- Node13 -->
<g id="node14" class="node"><title>Node13</title>
<g id="a_node14"><a xlink:href="conststr_8h.html" target="_top" xlink:title="A constexpr string type, suitable for basic compile&#45;time string processing. ">
<polygon fill="none" stroke="black" points="751.467,-55.5 751.467,-73.5 893.649,-73.5 893.649,-55.5 751.467,-55.5"/>
<text text-anchor="middle" x="822.558" y="-61.5" font-family="Helvetica,sans-Serif" font-size="10.00">tomographer/tools/conststr.h</text>
</a>
</g>
</g>
<!-- Node4&#45;&gt;Node13 -->
<g id="edge18" class="edge"><title>Node4&#45;&gt;Node13</title>
<path fill="none" stroke="midnightblue" d="M445.144,-110.45C525.751,-100.85 660.207,-84.8362 744.982,-74.7395"/>
<polygon fill="midnightblue" stroke="midnightblue" points="745.551,-78.1965 755.067,-73.5383 744.723,-71.2456 745.551,-78.1965"/>
</g>
<!-- Node11&#45;&gt;Node1 -->
<g id="edge15" class="edge"><title>Node11&#45;&gt;Node1</title>
<path fill="none" stroke="midnightblue" d="M298.84,-55.4504C274.902,-46.5784 236.185,-32.2288 208.948,-22.134"/>
<polygon fill="midnightblue" stroke="midnightblue" points="210.074,-18.8188 199.481,-18.6253 207.642,-25.3825 210.074,-18.8188"/>
</g>
<!-- Node11&#45;&gt;Node5 -->
<g id="edge14" class="edge"><title>Node11&#45;&gt;Node5</title>
<path fill="none" stroke="midnightblue" d="M308.864,-55.4504C296.879,-47.201 278.013,-34.2158 263.634,-24.3187"/>
<polygon fill="midnightblue" stroke="midnightblue" points="265.585,-21.4121 255.363,-18.6253 261.616,-27.1782 265.585,-21.4121"/>
</g>
<!-- Node11&#45;&gt;Node6 -->
<g id="edge16" class="edge"><title>Node11&#45;&gt;Node6</title>
<path fill="none" stroke="midnightblue" d="M340.302,-55.4504C361.873,-46.6562 396.645,-32.4802 421.368,-22.4006"/>
<polygon fill="midnightblue" stroke="midnightblue" points="422.69,-25.6416 430.628,-18.6253 420.047,-19.1596 422.69,-25.6416"/>
</g>
<!-- Node12 -->
<g id="node13" class="node"><title>Node12</title>
<polygon fill="none" stroke="#bfbfbf" points="285.59,-0.5 285.59,-18.5 365.526,-18.5 365.526,-0.5 285.59,-0.5"/>
<text text-anchor="middle" x="325.558" y="-6.5" font-family="Helvetica,sans-Serif" font-size="10.00">boost/predef.h</text>
</g>
<!-- Node11&#45;&gt;Node12 -->
<g id="edge17" class="edge"><title>Node11&#45;&gt;Node12</title>
<path fill="none" stroke="midnightblue" d="M321.34,-55.2188C322.011,-48.0986 323.004,-37.5775 323.857,-28.5289"/>
<polygon fill="midnightblue" stroke="midnightblue" points="327.344,-28.8341 324.799,-18.5496 320.375,-28.1766 327.344,-28.8341"/>
</g>
<!-- Node14 -->
<g id="node15" class="node"><title>Node14</title>
<polygon fill="none" stroke="#bfbfbf" points="802.332,-0.5 802.332,-18.5 842.785,-18.5 842.785,-0.5 802.332,-0.5"/>
<text text-anchor="middle" x="822.558" y="-6.5" font-family="Helvetica,sans-Serif" font-size="10.00">string</text>
</g>
<!-- Node13&#45;&gt;Node14 -->
<g id="edge19" class="edge"><title>Node13&#45;&gt;Node14</title>
<path fill="none" stroke="midnightblue" d="M822.558,-55.2188C822.558,-48.1769 822.558,-37.8083 822.558,-28.8277"/>
<polygon fill="midnightblue" stroke="midnightblue" points="826.058,-28.5495 822.558,-18.5496 819.058,-28.5496 826.058,-28.5495"/>
</g>
</g>
</svg>
