<?xml version="1.0" encoding="UTF-8" standalone="no"?>
<!DOCTYPE svg PUBLIC "-//W3C//DTD SVG 1.1//EN"
 "http://www.w3.org/Graphics/SVG/1.1/DTD/svg11.dtd">
<!-- Generated by graphviz version 2.38.0 (20140413.2041)
 -->
<!-- Title: Tomographer::Histogram&lt; Scalar_, CountType_ &gt; Pages: 1 -->
<svg width="1363pt" height="217pt"
 viewBox="0.00 0.00 1362.86 217.00" xmlns="http://www.w3.org/2000/svg" xmlns:xlink="http://www.w3.org/1999/xlink">
<g id="graph0" class="graph" transform="scale(1 1) rotate(0) translate(4 213)">
<title>Tomographer::Histogram&lt; Scalar_, CountType_ &gt;</title>
<!-- Node0 -->
<g id="node1" class="node"><title>Node0</title>
<polygon fill="#bfbfbf" stroke="black" points="0,-89.5 0,-117.5 126.63,-117.5 126.63,-89.5 0,-89.5"/>
<text text-anchor="start" x="8" y="-105.5" font-family="Helvetica,sans-Serif" font-size="10.00">Tomographer::Histogram</text>
<text text-anchor="middle" x="63.3149" y="-95.5" font-family="Helvetica,sans-Serif" font-size="10.00">&lt; Scalar_, CountType_ &gt;</text>
</g>
<!-- Node1 -->
<g id="node2" class="node"><title>Node1</title>
<g id="a_node2"><a xlink:href="class_tomographer_1_1_histogram_with_error_bars.html" target="_top" xlink:title="Stores a histogram along with error bars. ">
<polygon fill="none" stroke="black" points="282.972,-114.5 282.972,-142.5 452.385,-142.5 452.385,-114.5 282.972,-114.5"/>
<text text-anchor="start" x="290.972" y="-130.5" font-family="Helvetica,sans-Serif" font-size="10.00">Tomographer::HistogramWith</text>
<text text-anchor="middle" x="367.678" y="-120.5" font-family="Helvetica,sans-Serif" font-size="10.00">ErrorBars&lt; Scalar_, CountType_ &gt;</text>
</a>
</g>
</g>
<!-- Node0&#45;&gt;Node1 -->
<g id="edge1" class="edge"><title>Node0&#45;&gt;Node1</title>
<path fill="none" stroke="midnightblue" d="M136.997,-109.509C180.925,-113.142 237.089,-117.785 282.883,-121.572"/>
<polygon fill="midnightblue" stroke="midnightblue" points="137.219,-106.016 126.965,-108.68 136.642,-112.992 137.219,-106.016"/>
</g>
<!-- Node8 -->
<g id="node9" class="node"><title>Node8</title>
<g id="a_node9"><a xlink:href="class_tomographer_1_1_histogram.html" target="_top" xlink:title="Tomographer::Histogram\l\&lt; HistogramType_::Scalar,\l RealAvgType \&gt;">
<polygon fill="none" stroke="black" points="300.896,-57.5 300.896,-95.5 434.46,-95.5 434.46,-57.5 300.896,-57.5"/>
<text text-anchor="start" x="308.896" y="-83.5" font-family="Helvetica,sans-Serif" font-size="10.00">Tomographer::Histogram</text>
<text text-anchor="start" x="308.896" y="-73.5" font-family="Helvetica,sans-Serif" font-size="10.00">&lt; HistogramType_::Scalar,</text>
<text text-anchor="middle" x="367.678" y="-63.5" font-family="Helvetica,sans-Serif" font-size="10.00"> RealAvgType &gt;</text>
</a>
</g>
</g>
<!-- Node0&#45;&gt;Node8 -->
<g id="edge10" class="edge"><title>Node0&#45;&gt;Node8</title>
<path fill="none" stroke="orange" stroke-dasharray="5,2" d="M135.456,-87.8023C138.549,-87.3221 141.617,-86.8841 144.63,-86.5 196.881,-79.839 256.541,-77.4383 300.853,-76.6484"/>
<polygon fill="orange" stroke="orange" points="134.813,-84.361 125.529,-89.4655 135.97,-91.2648 134.813,-84.361"/>
<text text-anchor="start" x="144.63" y="-98.5" font-family="Helvetica,sans-Serif" font-size="10.00"> &lt; HistogramType_::Scalar,</text>
<text text-anchor="middle" x="204.801" y="-88.5" font-family="Helvetica,sans-Serif" font-size="10.00"> RealAvgType &gt;</text>
</g>
<!-- Node9 -->
<g id="node10" class="node"><title>Node9</title>
<g id="a_node10"><a xlink:href="class_tomographer_1_1_histogram.html" target="_top" xlink:title="Tomographer::Histogram\l\&lt; HistogramType ::Scalar,\l CountRealType \&gt;">
<polygon fill="none" stroke="black" points="302.288,-0.5 302.288,-38.5 433.068,-38.5 433.068,-0.5 302.288,-0.5"/>
<text text-anchor="start" x="310.288" y="-26.5" font-family="Helvetica,sans-Serif" font-size="10.00">Tomographer::Histogram</text>
<text text-anchor="start" x="310.288" y="-16.5" font-family="Helvetica,sans-Serif" font-size="10.00">&lt; HistogramType ::Scalar,</text>
<text text-anchor="middle" x="367.678" y="-6.5" font-family="Helvetica,sans-Serif" font-size="10.00"> CountRealType &gt;</text>
</a>
</g>
</g>
<!-- Node0&#45;&gt;Node9 -->
<g id="edge12" class="edge"><title>Node0&#45;&gt;Node9</title>
<path fill="none" stroke="orange" stroke-dasharray="5,2" d="M90.9896,-83.5599C106.007,-73.304 125.533,-61.5157 144.63,-54.5 195.549,-35.7935 256.636,-27.0825 301.838,-23.0276"/>
<polygon fill="orange" stroke="orange" points="88.8805,-80.7641 82.706,-89.3737 92.9019,-86.4938 88.8805,-80.7641"/>
<text text-anchor="start" x="146.021" y="-66.5" font-family="Helvetica,sans-Serif" font-size="10.00"> &lt; HistogramType ::Scalar,</text>
<text text-anchor="middle" x="204.801" y="-56.5" font-family="Helvetica,sans-Serif" font-size="10.00"> CountRealType &gt;</text>
</g>
<!-- Node10 -->
<g id="node11" class="node"><title>Node10</title>
<g id="a_node11"><a xlink:href="class_tomographer_1_1_histogram.html" target="_top" xlink:title="Tomographer::Histogram\l\&lt; SimpleHistogramType\l ::Scalar, CountRealType \&gt;">
<polygon fill="none" stroke="black" points="300.057,-170.5 300.057,-208.5 435.3,-208.5 435.3,-170.5 300.057,-170.5"/>
<text text-anchor="start" x="308.057" y="-196.5" font-family="Helvetica,sans-Serif" font-size="10.00">Tomographer::Histogram</text>
<text text-anchor="start" x="308.057" y="-186.5" font-family="Helvetica,sans-Serif" font-size="10.00">&lt; SimpleHistogramType</text>
<text text-anchor="middle" x="367.678" y="-176.5" font-family="Helvetica,sans-Serif" font-size="10.00"> ::Scalar, CountRealType &gt;</text>
</a>
</g>
</g>
<!-- Node0&#45;&gt;Node10 -->
<g id="edge14" class="edge"><title>Node0&#45;&gt;Node10</title>
<path fill="none" stroke="orange" stroke-dasharray="5,2" d="M116.02,-120.651C125.51,-123.682 135.349,-126.746 144.63,-129.5 196.502,-144.894 255.671,-160.802 299.88,-172.366"/>
<polygon fill="orange" stroke="orange" points="116.885,-117.253 106.293,-117.52 114.74,-123.916 116.885,-117.253"/>
<text text-anchor="start" x="145.179" y="-175.5" font-family="Helvetica,sans-Serif" font-size="10.00"> &lt; SimpleHistogramType</text>
<text text-anchor="middle" x="204.801" y="-165.5" font-family="Helvetica,sans-Serif" font-size="10.00"> ::Scalar, CountRealType &gt;</text>
</g>
<!-- Node2 -->
<g id="node3" class="node"><title>Node2</title>
<g id="a_node3"><a xlink:href="class_tomographer_1_1_histogram_with_error_bars.html" target="_top" xlink:title="Tomographer::HistogramWith\lErrorBars\&lt; HistogramType\l_::Scalar, RealAvgType \&gt;">
<polygon fill="none" stroke="black" points="618.314,-100.5 618.314,-138.5 764.358,-138.5 764.358,-100.5 618.314,-100.5"/>
<text text-anchor="start" x="626.314" y="-126.5" font-family="Helvetica,sans-Serif" font-size="10.00">Tomographer::HistogramWith</text>
<text text-anchor="start" x="626.314" y="-116.5" font-family="Helvetica,sans-Serif" font-size="10.00">ErrorBars&lt; HistogramType</text>
<text text-anchor="middle" x="691.336" y="-106.5" font-family="Helvetica,sans-Serif" font-size="10.00">_::Scalar, RealAvgType &gt;</text>
</a>
</g>
</g>
<!-- Node1&#45;&gt;Node2 -->
<g id="edge2" class="edge"><title>Node1&#45;&gt;Node2</title>
<path fill="none" stroke="orange" stroke-dasharray="5,2" d="M462.866,-125.865C512.46,-124.477 572.325,-122.802 618.19,-121.519"/>
<polygon fill="orange" stroke="orange" points="462.668,-122.369 452.77,-126.147 462.864,-129.366 462.668,-122.369"/>
<text text-anchor="start" x="470.385" y="-138.5" font-family="Helvetica,sans-Serif" font-size="10.00"> &lt; HistogramType_::Scalar,</text>
<text text-anchor="middle" x="530.556" y="-128.5" font-family="Helvetica,sans-Serif" font-size="10.00"> RealAvgType &gt;</text>
</g>
<!-- Node6 -->
<g id="node7" class="node"><title>Node6</title>
<g id="a_node7"><a xlink:href="class_tomographer_1_1_histogram_with_error_bars.html" target="_top" xlink:title="Tomographer::HistogramWith\lErrorBars\&lt; HistogramType\l ::Scalar, CountRealType \&gt;">
<polygon fill="none" stroke="black" points="618.314,-43.5 618.314,-81.5 764.358,-81.5 764.358,-43.5 618.314,-43.5"/>
<text text-anchor="start" x="626.314" y="-69.5" font-family="Helvetica,sans-Serif" font-size="10.00">Tomographer::HistogramWith</text>
<text text-anchor="start" x="626.314" y="-59.5" font-family="Helvetica,sans-Serif" font-size="10.00">ErrorBars&lt; HistogramType</text>
<text text-anchor="middle" x="691.336" y="-49.5" font-family="Helvetica,sans-Serif" font-size="10.00"> ::Scalar, CountRealType &gt;</text>
</a>
</g>
</g>
<!-- Node1&#45;&gt;Node6 -->
<g id="edge6" class="edge"><title>Node1&#45;&gt;Node6</title>
<path fill="none" stroke="orange" stroke-dasharray="5,2" d="M428.846,-111.582C436.778,-109.254 444.788,-106.854 452.385,-104.5 460.44,-102.004 462.198,-100.521 470.385,-98.5 519.127,-86.4689 574.963,-77.3856 618.18,-71.3526"/>
<polygon fill="orange" stroke="orange" points="427.866,-108.222 419.242,-114.378 429.822,-114.943 427.866,-108.222"/>
<text text-anchor="start" x="471.776" y="-110.5" font-family="Helvetica,sans-Serif" font-size="10.00"> &lt; HistogramType ::Scalar,</text>
<text text-anchor="middle" x="530.556" y="-100.5" font-family="Helvetica,sans-Serif" font-size="10.00"> CountRealType &gt;</text>
</g>
<!-- Node7 -->
<g id="node8" class="node"><title>Node7</title>
<g id="a_node8"><a xlink:href="class_tomographer_1_1_histogram_with_error_bars.html" target="_top" xlink:title="Tomographer::HistogramWith\lErrorBars\&lt; SimpleHistogramType\l ::Scalar, CountRealType \&gt;">
<polygon fill="none" stroke="black" points="608.727,-157.5 608.727,-195.5 773.945,-195.5 773.945,-157.5 608.727,-157.5"/>
<text text-anchor="start" x="616.727" y="-183.5" font-family="Helvetica,sans-Serif" font-size="10.00">Tomographer::HistogramWith</text>
<text text-anchor="start" x="616.727" y="-173.5" font-family="Helvetica,sans-Serif" font-size="10.00">ErrorBars&lt; SimpleHistogramType</text>
<text text-anchor="middle" x="691.336" y="-163.5" font-family="Helvetica,sans-Serif" font-size="10.00"> ::Scalar, CountRealType &gt;</text>
</a>
</g>
</g>
<!-- Node1&#45;&gt;Node7 -->
<g id="edge8" class="edge"><title>Node1&#45;&gt;Node7</title>
<path fill="none" stroke="orange" stroke-dasharray="5,2" d="M451.259,-144.311C457.724,-145.431 464.157,-146.508 470.385,-147.5 516.03,-154.767 567.212,-161.593 608.71,-166.795"/>
<polygon fill="orange" stroke="orange" points="451.556,-140.81 441.1,-142.521 450.341,-147.703 451.556,-140.81"/>
<text text-anchor="start" x="470.934" y="-176.5" font-family="Helvetica,sans-Serif" font-size="10.00"> &lt; SimpleHistogramType</text>
<text text-anchor="middle" x="530.556" y="-166.5" font-family="Helvetica,sans-Serif" font-size="10.00"> ::Scalar, CountRealType &gt;</text>
</g>
<!-- Node3 -->
<g id="node4" class="node"><title>Node3</title>
<g id="a_node4"><a xlink:href="class_tomographer_1_1_averaged_histogram.html" target="_top" xlink:title="Combines several histograms (with same parameters) into an averaged histogram. ">
<polygon fill="none" stroke="black" points="810.945,-105.5 810.945,-133.5 981.857,-133.5 981.857,-105.5 810.945,-105.5"/>
<text text-anchor="start" x="818.945" y="-121.5" font-family="Helvetica,sans-Serif" font-size="10.00">Tomographer::AveragedHistogram</text>
<text text-anchor="middle" x="896.401" y="-111.5" font-family="Helvetica,sans-Serif" font-size="10.00">&lt; HistogramType_, RealAvgType &gt;</text>
</a>
</g>
</g>
<!-- Node2&#45;&gt;Node3 -->
<g id="edge3" class="edge"><title>Node2&#45;&gt;Node3</title>
<path fill="none" stroke="midnightblue" d="M774.777,-119.5C786.595,-119.5 798.77,-119.5 810.632,-119.5"/>
<polygon fill="midnightblue" stroke="midnightblue" points="774.501,-116 764.501,-119.5 774.501,-123 774.501,-116"/>
</g>
<!-- Node4 -->
<g id="node5" class="node"><title>Node4</title>
<g id="a_node5"><a xlink:href="class_tomographer_1_1_averaged_histogram.html" target="_top" xlink:title="Tomographer::AveragedHistogram\l\&lt; SimpleHistogramType, CountRealType \&gt;">
<polygon fill="none" stroke="black" points="1149.31,-135.5 1149.31,-163.5 1354.86,-163.5 1354.86,-135.5 1149.31,-135.5"/>
<text text-anchor="start" x="1157.31" y="-151.5" font-family="Helvetica,sans-Serif" font-size="10.00">Tomographer::AveragedHistogram</text>
<text text-anchor="middle" x="1252.09" y="-141.5" font-family="Helvetica,sans-Serif" font-size="10.00">&lt; SimpleHistogramType, CountRealType &gt;</text>
</a>
</g>
</g>
<!-- Node3&#45;&gt;Node4 -->
<g id="edge4" class="edge"><title>Node3&#45;&gt;Node4</title>
<path fill="none" stroke="orange" stroke-dasharray="5,2" d="M992.287,-127.548C1040.73,-131.657 1099.7,-136.659 1149.11,-140.85"/>
<polygon fill="orange" stroke="orange" points="992.378,-124.044 982.118,-126.686 991.786,-131.018 992.378,-124.044"/>
<text text-anchor="start" x="1009.59" y="-151.5" font-family="Helvetica,sans-Serif" font-size="10.00"> &lt; SimpleHistogramType,</text>
<text text-anchor="middle" x="1065.58" y="-141.5" font-family="Helvetica,sans-Serif" font-size="10.00"> CountRealType &gt;</text>
</g>
<!-- Node5 -->
<g id="node6" class="node"><title>Node5</title>
<g id="a_node6"><a xlink:href="class_tomographer_1_1_averaged_histogram.html" target="_top" xlink:title="Tomographer::AveragedHistogram\l\&lt; HistogramType, CountRealType \&gt;">
<polygon fill="none" stroke="black" points="1164.6,-73.5 1164.6,-101.5 1339.58,-101.5 1339.58,-73.5 1164.6,-73.5"/>
<text text-anchor="start" x="1172.6" y="-89.5" font-family="Helvetica,sans-Serif" font-size="10.00">Tomographer::AveragedHistogram</text>
<text text-anchor="middle" x="1252.09" y="-79.5" font-family="Helvetica,sans-Serif" font-size="10.00">&lt; HistogramType, CountRealType &gt;</text>
</a>
</g>
</g>
<!-- Node3&#45;&gt;Node5 -->
<g id="edge5" class="edge"><title>Node3&#45;&gt;Node5</title>
<path fill="none" stroke="orange" stroke-dasharray="5,2" d="M992.143,-105.361C994.74,-105.059 997.316,-104.772 999.857,-104.5 1054.41,-98.6698 1115.85,-94.4704 1164.32,-91.7039"/>
<polygon fill="orange" stroke="orange" points="991.546,-101.907 982.039,-106.584 992.387,-108.857 991.546,-101.907"/>
<text text-anchor="start" x="999.857" y="-116.5" font-family="Helvetica,sans-Serif" font-size="10.00"> &lt; HistogramType, CountReal</text>
<text text-anchor="middle" x="1065.58" y="-106.5" font-family="Helvetica,sans-Serif" font-size="10.00">Type &gt;</text>
</g>
<!-- Node6&#45;&gt;Node5 -->
<g id="edge7" class="edge"><title>Node6&#45;&gt;Node5</title>
<path fill="none" stroke="midnightblue" d="M774.695,-66.185C879.045,-70.8539 1058.07,-78.8642 1164.43,-83.6227"/>
<polygon fill="midnightblue" stroke="midnightblue" points="774.671,-62.6805 764.524,-65.7299 774.358,-69.6735 774.671,-62.6805"/>
</g>
<!-- Node7&#45;&gt;Node4 -->
<g id="edge9" class="edge"><title>Node7&#45;&gt;Node4</title>
<path fill="none" stroke="midnightblue" d="M784.182,-175.116C873.057,-173.363 1011.53,-169.538 1131.31,-161.5 1137.15,-161.108 1143.14,-160.659 1149.19,-160.168"/>
<polygon fill="midnightblue" stroke="midnightblue" points="784.062,-171.618 774.131,-175.31 784.197,-178.616 784.062,-171.618"/>
</g>
<!-- Node8&#45;&gt;Node2 -->
<g id="edge11" class="edge"><title>Node8&#45;&gt;Node2</title>
<path fill="none" stroke="midnightblue" d="M438.161,-55.1059C484.031,-45.0774 544.053,-40.0453 590.727,-64.5 603.176,-71.0228 597.566,-81.957 608.727,-90.5 613.622,-94.2473 619.042,-97.5381 624.694,-100.423"/>
<polygon fill="midnightblue" stroke="midnightblue" points="437.258,-51.7222 428.303,-57.3844 438.834,-58.5424 437.258,-51.7222"/>
</g>
<!-- Node9&#45;&gt;Node6 -->
<g id="edge13" class="edge"><title>Node9&#45;&gt;Node6</title>
<path fill="none" stroke="midnightblue" d="M443.602,-26.0773C486.737,-30.2438 541.909,-36.218 590.727,-43.5 599.607,-44.8246 608.902,-46.3756 618.095,-48.0101"/>
<polygon fill="midnightblue" stroke="midnightblue" points="443.756,-22.5763 433.469,-25.1104 443.091,-29.5446 443.756,-22.5763"/>
</g>
<!-- Node10&#45;&gt;Node7 -->
<g id="edge15" class="edge"><title>Node10&#45;&gt;Node7</title>
<path fill="none" stroke="midnightblue" d="M445.388,-192.647C488.205,-193.701 542.485,-193.874 590.727,-190.5 596.563,-190.092 602.577,-189.551 608.623,-188.919"/>
<polygon fill="midnightblue" stroke="midnightblue" points="445.41,-189.147 435.32,-192.378 445.223,-196.144 445.41,-189.147"/>
</g>
</g>
</svg>
