<?xml version="1.0" encoding="UTF-8" standalone="no"?>
<!DOCTYPE svg PUBLIC "-//W3C//DTD SVG 1.1//EN"
 "http://www.w3.org/Graphics/SVG/1.1/DTD/svg11.dtd">
<!-- Generated by graphviz version 2.38.0 (20140413.2041)
 -->
<!-- Title: Tomographer::Logger::LoggerBase&lt; Derived &gt; Pages: 1 -->
<!--zoomable 636 -->
<svg id="main" version="1.1" xmlns="http://www.w3.org/2000/svg" xmlns:xlink="http://www.w3.org/1999/xlink" xml:space="preserve" onload="init(evt)">
<style type="text/css"><![CDATA[
.edge:hover path { stroke: red; }
.edge:hover polygon { stroke: red; fill: red; }
]]></style>
<script type="text/javascript"><![CDATA[
var edges = document.getElementsByTagName('g');
if (edges && edges.length) {
  for (var i=0;i<edges.length;i++) {
    if (edges[i].id.substr(0,4)=='edge') {
      edges[i].setAttribute('class','edge');
    }
  }
}
]]></script>
        <defs>
                <circle id="rim" cx="0" cy="0" r="7"/>
                <circle id="rim2" cx="0" cy="0" r="3.5"/>
                <g id="zoomPlus">
                        <use xlink:href="#rim" fill="#404040">
                                <set attributeName="fill" to="#808080" begin="zoomplus.mouseover" end="zoomplus.mouseout"/>
                        </use>
                        <path d="M-4,0h8M0,-4v8" fill="none" stroke="white" stroke-width="1.5" pointer-events="none"/>
                </g>
                <g id="zoomMin">
                        <use xlink:href="#rim" fill="#404040">
                                <set attributeName="fill" to="#808080" begin="zoomminus.mouseover" end="zoomminus.mouseout"/>
                        </use>
                        <path d="M-4,0h8" fill="none" stroke="white" stroke-width="1.5" pointer-events="none"/>
                </g>
                <g id="dirArrow">
                        <path fill="none" stroke="white" stroke-width="1.5" d="M0,-3.0v7 M-2.5,-0.5L0,-3.0L2.5,-0.5"/>
                </g>
               <g id="resetDef">
                       <use xlink:href="#rim2" fill="#404040">
                               <set attributeName="fill" to="#808080" begin="reset.mouseover" end="reset.mouseout"/>
                       </use>
               </g>
        </defs>

<script type="text/javascript">
var viewWidth = 1135;
var viewHeight = 636;
var sectionId = 'dynsection-0';
</script>
<script xlink:href="svgpan.js"/>
<svg id="graph" class="graph">
<g id="viewport">
<title>Tomographer::Logger::LoggerBase&lt; Derived &gt;</title>
<!-- Node0 -->
<g id="node1" class="node"><title>Node0</title>
<polygon fill="#bfbfbf" stroke="black" points="0,-268.808 0,-296.808 127.182,-296.808 127.182,-268.808 0,-268.808"/>
<text text-anchor="start" x="8" y="-284.808" font-family="Helvetica,sans-Serif" font-size="10.00">Tomographer::Logger</text>
<text text-anchor="middle" x="63.5908" y="-274.808" font-family="Helvetica,sans-Serif" font-size="10.00">::LoggerBase&lt; Derived &gt;</text>
</g>
<!-- Node1 -->
<g id="node2" class="node"><title>Node1</title>
<g id="a_node2"><a xlink:href="class_tomographer_1_1_logger_1_1_logger_base.html" target="_top" xlink:title="Tomographer::Logger\l::LoggerBase\&lt; BoostTestLogger \&gt;">
<polygon fill="none" stroke="black" points="308.299,-574.808 308.299,-602.808 476.071,-602.808 476.071,-574.808 308.299,-574.808"/>
<text text-anchor="start" x="316.299" y="-590.808" font-family="Helvetica,sans-Serif" font-size="10.00">Tomographer::Logger</text>
<text text-anchor="middle" x="392.185" y="-580.808" font-family="Helvetica,sans-Serif" font-size="10.00">::LoggerBase&lt; BoostTestLogger &gt;</text>
</a>
</g>
</g>
<!-- Node0&#45;&gt;Node1 -->
<g id="edge1" class="edge"><title>Node0&#45;&gt;Node1</title>
<path fill="none" stroke="orange" stroke-dasharray="5,2" d="M64.2069,-307.205C64.8106,-359.577 74.1399,-483.09 145.182,-545.808 189.223,-584.689 255.561,-594.457 308.255,-595.039"/>
<polygon fill="orange" stroke="orange" points="67.7066,-306.873 64.194,-296.878 60.7066,-306.882 67.7066,-306.873"/>
<text text-anchor="middle" x="217.74" y="-595.808" font-family="Helvetica,sans-Serif" font-size="10.00"> &lt; BoostTestLogger &gt;</text>
</g>
<!-- Node3 -->
<g id="node4" class="node"><title>Node3</title>
<g id="a_node4"><a xlink:href="class_tomographer_1_1_logger_1_1_logger_base.html" target="_top" xlink:title="Tomographer::Logger\l::LoggerBase\&lt; ThreadSanitizer\lLogger\&lt; BaseLogger \&gt; \&gt;">
<polygon fill="none" stroke="black" points="314.925,-494.808 314.925,-532.808 469.445,-532.808 469.445,-494.808 314.925,-494.808"/>
<text text-anchor="start" x="322.925" y="-520.808" font-family="Helvetica,sans-Serif" font-size="10.00">Tomographer::Logger</text>
<text text-anchor="start" x="322.925" y="-510.808" font-family="Helvetica,sans-Serif" font-size="10.00">::LoggerBase&lt; ThreadSanitizer</text>
<text text-anchor="middle" x="392.185" y="-500.808" font-family="Helvetica,sans-Serif" font-size="10.00">Logger&lt; BaseLogger &gt; &gt;</text>
</a>
</g>
</g>
<!-- Node0&#45;&gt;Node3 -->
<g id="edge3" class="edge"><title>Node0&#45;&gt;Node3</title>
<path fill="none" stroke="orange" stroke-dasharray="5,2" d="M66.8411,-306.78C72.1941,-349.132 89.7229,-436.774 145.182,-479.808 192.87,-516.812 261.972,-523.511 314.804,-521.985"/>
<polygon fill="orange" stroke="orange" points="70.3146,-306.347 65.703,-296.809 63.3597,-307.141 70.3146,-306.347"/>
<text text-anchor="start" x="161.266" y="-533.808" font-family="Helvetica,sans-Serif" font-size="10.00"> &lt; ThreadSanitizerLogger</text>
<text text-anchor="middle" x="217.74" y="-523.808" font-family="Helvetica,sans-Serif" font-size="10.00">&lt; BaseLogger &gt; &gt;</text>
</g>
<!-- Node6 -->
<g id="node7" class="node"><title>Node6</title>
<g id="a_node7"><a xlink:href="class_tomographer_1_1_logger_1_1_logger_base.html" target="_top" xlink:title="Tomographer::Logger\l::LoggerBase\&lt; LocalLogger\l\&lt; BaseLoggerType_ \&gt; \&gt;">
<polygon fill="none" stroke="black" points="322.61,-398.808 322.61,-436.808 461.76,-436.808 461.76,-398.808 322.61,-398.808"/>
<text text-anchor="start" x="330.61" y="-424.808" font-family="Helvetica,sans-Serif" font-size="10.00">Tomographer::Logger</text>
<text text-anchor="start" x="330.61" y="-414.808" font-family="Helvetica,sans-Serif" font-size="10.00">::LoggerBase&lt; LocalLogger</text>
<text text-anchor="middle" x="392.185" y="-404.808" font-family="Helvetica,sans-Serif" font-size="10.00">&lt; BaseLoggerType_ &gt; &gt;</text>
</a>
</g>
</g>
<!-- Node0&#45;&gt;Node6 -->
<g id="edge6" class="edge"><title>Node0&#45;&gt;Node6</title>
<path fill="none" stroke="orange" stroke-dasharray="5,2" d="M79.0508,-305.137C93.356,-325.32 117.135,-354.187 145.182,-369.808 199.925,-400.297 270.919,-411.673 322.56,-415.792"/>
<polygon fill="orange" stroke="orange" points="81.885,-303.081 73.3393,-296.819 76.1143,-307.044 81.885,-303.081"/>
<text text-anchor="start" x="153.246" y="-424.808" font-family="Helvetica,sans-Serif" font-size="10.00"> &lt; LocalLogger&lt; BaseLogger</text>
<text text-anchor="middle" x="217.74" y="-414.808" font-family="Helvetica,sans-Serif" font-size="10.00">Type_ &gt; &gt;</text>
</g>
<!-- Node10 -->
<g id="node11" class="node"><title>Node10</title>
<g id="a_node11"><a xlink:href="class_tomographer_1_1_logger_1_1_logger_base.html" target="_top" xlink:title="Tomographer::Logger\l::LoggerBase\&lt; LocalLogger\l\&lt; LoggerType \&gt; \&gt;">
<polygon fill="none" stroke="black" points="494.071,-442.808 494.071,-480.808 633.221,-480.808 633.221,-442.808 494.071,-442.808"/>
<text text-anchor="start" x="502.071" y="-468.808" font-family="Helvetica,sans-Serif" font-size="10.00">Tomographer::Logger</text>
<text text-anchor="start" x="502.071" y="-458.808" font-family="Helvetica,sans-Serif" font-size="10.00">::LoggerBase&lt; LocalLogger</text>
<text text-anchor="middle" x="563.646" y="-448.808" font-family="Helvetica,sans-Serif" font-size="10.00">&lt; LoggerType &gt; &gt;</text>
</a>
</g>
</g>
<!-- Node0&#45;&gt;Node10 -->
<g id="edge10" class="edge"><title>Node0&#45;&gt;Node10</title>
<path fill="none" stroke="orange" stroke-dasharray="5,2" d="M69.4513,-306.923C77.9786,-342.243 99.2816,-407.066 145.182,-436.808 173.63,-455.241 382.73,-460.085 493.775,-461.356"/>
<polygon fill="orange" stroke="orange" points="72.8224,-305.961 67.202,-296.98 65.9949,-307.506 72.8224,-305.961"/>
<text text-anchor="middle" x="217.74" y="-456.808" font-family="Helvetica,sans-Serif" font-size="10.00"> &lt; LocalLogger&lt; LoggerType &gt; &gt;</text>
</g>
<!-- Node11 -->
<g id="node12" class="node"><title>Node11</title>
<g id="a_node12"><a xlink:href="class_tomographer_1_1_logger_1_1_logger_base.html" target="_top" xlink:title="Tomographer::Logger\l::LoggerBase\&lt; MinimumSeverity\lLogger\&lt; BaseLogger, Level \&gt; \&gt;">
<polygon fill="none" stroke="black" points="311.792,-341.808 311.792,-379.808 472.578,-379.808 472.578,-341.808 311.792,-341.808"/>
<text text-anchor="start" x="319.792" y="-367.808" font-family="Helvetica,sans-Serif" font-size="10.00">Tomographer::Logger</text>
<text text-anchor="start" x="319.792" y="-357.808" font-family="Helvetica,sans-Serif" font-size="10.00">::LoggerBase&lt; MinimumSeverity</text>
<text text-anchor="middle" x="392.185" y="-347.808" font-family="Helvetica,sans-Serif" font-size="10.00">Logger&lt; BaseLogger, Level &gt; &gt;</text>
</a>
</g>
</g>
<!-- Node0&#45;&gt;Node11 -->
<g id="edge12" class="edge"><title>Node0&#45;&gt;Node11</title>
<path fill="none" stroke="orange" stroke-dasharray="5,2" d="M105.205,-300.704C117.837,-305.788 131.929,-310.977 145.182,-314.808 199.861,-330.615 262.997,-342.29 311.617,-349.923"/>
<polygon fill="orange" stroke="orange" points="106.448,-297.431 95.8682,-296.862 103.784,-303.904 106.448,-297.431"/>
<text text-anchor="start" x="158.133" y="-357.808" font-family="Helvetica,sans-Serif" font-size="10.00"> &lt; MinimumSeverityLogger</text>
<text text-anchor="middle" x="217.74" y="-347.808" font-family="Helvetica,sans-Serif" font-size="10.00">&lt; BaseLogger, Level &gt; &gt;</text>
</g>
<!-- Node13 -->
<g id="node14" class="node"><title>Node13</title>
<g id="a_node14"><a xlink:href="class_tomographer_1_1_logger_1_1_logger_base.html" target="_top" xlink:title="Tomographer::Logger\l::LoggerBase\&lt; VacuumLogger \&gt;">
<polygon fill="none" stroke="black" points="312.281,-294.808 312.281,-322.808 472.089,-322.808 472.089,-294.808 312.281,-294.808"/>
<text text-anchor="start" x="320.281" y="-310.808" font-family="Helvetica,sans-Serif" font-size="10.00">Tomographer::Logger</text>
<text text-anchor="middle" x="392.185" y="-300.808" font-family="Helvetica,sans-Serif" font-size="10.00">::LoggerBase&lt; VacuumLogger &gt;</text>
</a>
</g>
</g>
<!-- Node0&#45;&gt;Node13 -->
<g id="edge14" class="edge"><title>Node0&#45;&gt;Node13</title>
<path fill="none" stroke="orange" stroke-dasharray="5,2" d="M137.688,-288.627C189.55,-292.756 259.099,-298.293 312.23,-302.522"/>
<polygon fill="orange" stroke="orange" points="137.808,-285.126 127.561,-287.821 137.252,-292.104 137.808,-285.126"/>
<text text-anchor="middle" x="217.74" y="-302.808" font-family="Helvetica,sans-Serif" font-size="10.00"> &lt; VacuumLogger &gt;</text>
</g>
<!-- Node15 -->
<g id="node16" class="node"><title>Node15</title>
<g id="a_node16"><a xlink:href="class_tomographer_1_1_logger_1_1_logger_base.html" target="_top" xlink:title="Tomographer::Logger\l::LoggerBase\&lt; PyLogger \&gt;">
<polygon fill="none" stroke="black" points="324.419,-247.808 324.419,-275.808 459.951,-275.808 459.951,-247.808 324.419,-247.808"/>
<text text-anchor="start" x="332.419" y="-263.808" font-family="Helvetica,sans-Serif" font-size="10.00">Tomographer::Logger</text>
<text text-anchor="middle" x="392.185" y="-253.808" font-family="Helvetica,sans-Serif" font-size="10.00">::LoggerBase&lt; PyLogger &gt;</text>
</a>
</g>
</g>
<!-- Node0&#45;&gt;Node15 -->
<g id="edge16" class="edge"><title>Node0&#45;&gt;Node15</title>
<path fill="none" stroke="orange" stroke-dasharray="5,2" d="M137.485,-270.624C140.08,-270.326 142.651,-270.052 145.182,-269.808 205.58,-263.978 274.664,-262.155 324.214,-261.686"/>
<polygon fill="orange" stroke="orange" points="136.893,-267.171 127.404,-271.883 137.76,-274.117 136.893,-267.171"/>
<text text-anchor="middle" x="217.74" y="-271.808" font-family="Helvetica,sans-Serif" font-size="10.00"> &lt; PyLogger &gt;</text>
</g>
<!-- Node17 -->
<g id="node18" class="node"><title>Node17</title>
<g id="a_node18"><a xlink:href="class_tomographer_1_1_logger_1_1_logger_base.html" target="_top" xlink:title="Tomographer::Logger\l::LoggerBase\&lt; BufferLogger \&gt;">
<polygon fill="none" stroke="black" points="317.002,-200.808 317.002,-228.808 467.368,-228.808 467.368,-200.808 317.002,-200.808"/>
<text text-anchor="start" x="325.002" y="-216.808" font-family="Helvetica,sans-Serif" font-size="10.00">Tomographer::Logger</text>
<text text-anchor="middle" x="392.185" y="-206.808" font-family="Helvetica,sans-Serif" font-size="10.00">::LoggerBase&lt; BufferLogger &gt;</text>
</a>
</g>
</g>
<!-- Node0&#45;&gt;Node17 -->
<g id="edge18" class="edge"><title>Node0&#45;&gt;Node17</title>
<path fill="none" stroke="orange" stroke-dasharray="5,2" d="M102.325,-264.479C115.605,-258.681 130.807,-252.76 145.182,-248.808 201.72,-233.265 267.615,-224.641 316.969,-219.971"/>
<polygon fill="orange" stroke="orange" points="100.724,-261.362 93.0341,-268.65 103.59,-267.748 100.724,-261.362"/>
<text text-anchor="middle" x="217.74" y="-250.808" font-family="Helvetica,sans-Serif" font-size="10.00"> &lt; BufferLogger &gt;</text>
</g>
<!-- Node19 -->
<g id="node20" class="node"><title>Node19</title>
<g id="a_node20"><a xlink:href="class_tomographer_1_1_logger_1_1_logger_base.html" target="_top" xlink:title="Tomographer::Logger\l::LoggerBase\&lt; LocalLogger\l\&lt; BaseLoggerType \&gt; \&gt;">
<polygon fill="none" stroke="black" points="494.071,-152.808 494.071,-190.808 633.221,-190.808 633.221,-152.808 494.071,-152.808"/>
<text text-anchor="start" x="502.071" y="-178.808" font-family="Helvetica,sans-Serif" font-size="10.00">Tomographer::Logger</text>
<text text-anchor="start" x="502.071" y="-168.808" font-family="Helvetica,sans-Serif" font-size="10.00">::LoggerBase&lt; LocalLogger</text>
<text text-anchor="middle" x="563.646" y="-158.808" font-family="Helvetica,sans-Serif" font-size="10.00">&lt; BaseLoggerType &gt; &gt;</text>
</a>
</g>
</g>
<!-- Node0&#45;&gt;Node19 -->
<g id="edge20" class="edge"><title>Node0&#45;&gt;Node19</title>
<path fill="none" stroke="orange" stroke-dasharray="5,2" d="M78.8095,-260.427C92.9445,-240.361 116.609,-212.097 145.182,-198.808 258.45,-146.126 407.964,-152.047 493.887,-161.605"/>
<polygon fill="orange" stroke="orange" points="75.899,-258.483 73.1753,-268.722 81.6895,-262.416 75.899,-258.483"/>
<text text-anchor="start" x="153.246" y="-210.808" font-family="Helvetica,sans-Serif" font-size="10.00"> &lt; LocalLogger&lt; BaseLogger</text>
<text text-anchor="middle" x="217.74" y="-200.808" font-family="Helvetica,sans-Serif" font-size="10.00">Type &gt; &gt;</text>
</g>
<!-- Node20 -->
<g id="node21" class="node"><title>Node20</title>
<g id="a_node21"><a xlink:href="class_tomographer_1_1_logger_1_1_logger_base.html" target="_top" xlink:title="Tomographer::Logger\l::LoggerBase\&lt; GilProtected\lPyLogger \&gt;">
<polygon fill="none" stroke="black" points="322.62,-104.808 322.62,-142.808 461.75,-142.808 461.75,-104.808 322.62,-104.808"/>
<text text-anchor="start" x="330.62" y="-130.808" font-family="Helvetica,sans-Serif" font-size="10.00">Tomographer::Logger</text>
<text text-anchor="start" x="330.62" y="-120.808" font-family="Helvetica,sans-Serif" font-size="10.00">::LoggerBase&lt; GilProtected</text>
<text text-anchor="middle" x="392.185" y="-110.808" font-family="Helvetica,sans-Serif" font-size="10.00">PyLogger &gt;</text>
</a>
</g>
</g>
<!-- Node0&#45;&gt;Node20 -->
<g id="edge22" class="edge"><title>Node0&#45;&gt;Node20</title>
<path fill="none" stroke="orange" stroke-dasharray="5,2" d="M70.4105,-258.961C79.8854,-225.833 102.078,-166.908 145.182,-139.808 197.81,-106.719 269.912,-106.028 322.447,-111.622"/>
<polygon fill="orange" stroke="orange" points="66.9986,-258.171 67.7707,-268.738 73.7566,-259.996 66.9986,-258.171"/>
<text text-anchor="middle" x="217.74" y="-141.808" font-family="Helvetica,sans-Serif" font-size="10.00"> &lt; GilProtectedPyLogger &gt;</text>
</g>
<!-- Node22 -->
<g id="node23" class="node"><title>Node22</title>
<g id="a_node23"><a xlink:href="class_tomographer_1_1_logger_1_1_logger_base.html" target="_top" xlink:title="Tomographer::Logger\l::LoggerBase\&lt; OriginFiltered\lLogger\&lt; BaseLogger \&gt; \&gt;">
<polygon fill="none" stroke="black" points="320.123,-47.8079 320.123,-85.8079 464.248,-85.8079 464.248,-47.8079 320.123,-47.8079"/>
<text text-anchor="start" x="328.123" y="-73.8079" font-family="Helvetica,sans-Serif" font-size="10.00">Tomographer::Logger</text>
<text text-anchor="start" x="328.123" y="-63.8079" font-family="Helvetica,sans-Serif" font-size="10.00">::LoggerBase&lt; OriginFiltered</text>
<text text-anchor="middle" x="392.185" y="-53.8079" font-family="Helvetica,sans-Serif" font-size="10.00">Logger&lt; BaseLogger &gt; &gt;</text>
</a>
</g>
</g>
<!-- Node0&#45;&gt;Node22 -->
<g id="edge24" class="edge"><title>Node0&#45;&gt;Node22</title>
<path fill="none" stroke="orange" stroke-dasharray="5,2" d="M66.5874,-258.498C71.5383,-215.612 88.4517,-127.151 145.182,-85.8079 195.119,-49.415 266.886,-48.0026 320.028,-53.7043"/>
<polygon fill="orange" stroke="orange" points="63.0899,-258.295 65.548,-268.601 70.0531,-259.012 63.0899,-258.295"/>
<text text-anchor="start" x="166.463" y="-97.8079" font-family="Helvetica,sans-Serif" font-size="10.00"> &lt; OriginFilteredLogger</text>
<text text-anchor="middle" x="217.74" y="-87.8079" font-family="Helvetica,sans-Serif" font-size="10.00">&lt; BaseLogger &gt; &gt;</text>
</g>
<!-- Node24 -->
<g id="node25" class="node"><title>Node24</title>
<g id="a_node25"><a xlink:href="class_tomographer_1_1_logger_1_1_logger_base.html" target="_top" xlink:title="Tomographer::Logger\l::LoggerBase\&lt; FileLogger \&gt;">
<polygon fill="none" stroke="black" points="322.198,-0.807933 322.198,-28.8079 462.172,-28.8079 462.172,-0.807933 322.198,-0.807933"/>
<text text-anchor="start" x="330.198" y="-16.8079" font-family="Helvetica,sans-Serif" font-size="10.00">Tomographer::Logger</text>
<text text-anchor="middle" x="392.185" y="-6.80793" font-family="Helvetica,sans-Serif" font-size="10.00">::LoggerBase&lt; FileLogger &gt;</text>
</a>
</g>
</g>
<!-- Node0&#45;&gt;Node24 -->
<g id="edge26" class="edge"><title>Node0&#45;&gt;Node24</title>
<path fill="none" stroke="orange" stroke-dasharray="5,2" d="M64.4763,-258.244C65.7064,-207.805 76.3413,-92.6967 145.182,-37.8079 194.484,1.5026 268.28,3.25116 322.183,-2.38641"/>
<polygon fill="orange" stroke="orange" points="60.9729,-258.478 64.3374,-268.525 67.9723,-258.573 60.9729,-258.478"/>
<text text-anchor="middle" x="217.74" y="-39.8079" font-family="Helvetica,sans-Serif" font-size="10.00"> &lt; FileLogger &gt;</text>
</g>
<!-- Node2 -->
<g id="node3" class="node"><title>Node2</title>
<g id="a_node3"><a xlink:href="class_tomographer_1_1_logger_1_1_boost_test_logger.html" target="_top" xlink:title="A logger we can use in tests, which calls BOOST_TEST_MESSAGE() ">
<polygon fill="none" stroke="black" points="682.92,-599.808 682.92,-627.808 794.535,-627.808 794.535,-599.808 682.92,-599.808"/>
<text text-anchor="start" x="690.92" y="-615.808" font-family="Helvetica,sans-Serif" font-size="10.00">Tomographer::Logger</text>
<text text-anchor="middle" x="738.728" y="-605.808" font-family="Helvetica,sans-Serif" font-size="10.00">::BoostTestLogger</text>
</a>
</g>
</g>
<!-- Node1&#45;&gt;Node2 -->
<g id="edge2" class="edge"><title>Node1&#45;&gt;Node2</title>
<path fill="none" stroke="midnightblue" d="M486.476,-595.577C549.348,-600.139 630.133,-606.001 682.885,-609.829"/>
<polygon fill="midnightblue" stroke="midnightblue" points="486.377,-592.061 476.15,-594.828 485.87,-599.042 486.377,-592.061"/>
</g>
<!-- Node4 -->
<g id="node5" class="node"><title>Node4</title>
<g id="a_node5"><a xlink:href="class_tomographer_1_1_multi_proc_1_1_cxx_threads_1_1_thread_sanitizer_logger.html" target="_top" xlink:title="Wrapper logger to call non&#45;thread&#45;safe loggers from a multithreaded environment. ">
<polygon fill="none" stroke="black" points="662.922,-485.808 662.922,-523.808 814.533,-523.808 814.533,-485.808 662.922,-485.808"/>
<text text-anchor="start" x="670.922" y="-511.808" font-family="Helvetica,sans-Serif" font-size="10.00">Tomographer::MultiProc</text>
<text text-anchor="start" x="670.922" y="-501.808" font-family="Helvetica,sans-Serif" font-size="10.00">::CxxThreads::ThreadSanitizer</text>
<text text-anchor="middle" x="738.728" y="-491.808" font-family="Helvetica,sans-Serif" font-size="10.00">Logger&lt; BaseLogger &gt;</text>
</a>
</g>
</g>
<!-- Node3&#45;&gt;Node4 -->
<g id="edge4" class="edge"><title>Node3&#45;&gt;Node4</title>
<path fill="none" stroke="midnightblue" d="M479.963,-511.541C536.254,-510.071 608.86,-508.174 662.662,-506.769"/>
<polygon fill="midnightblue" stroke="midnightblue" points="479.555,-508.051 469.65,-511.811 479.738,-515.048 479.555,-508.051"/>
</g>
<!-- Node5 -->
<g id="node6" class="node"><title>Node5</title>
<g id="a_node6"><a xlink:href="class_tomographer_1_1_multi_proc_1_1_o_m_p_1_1_thread_sanitizer_logger.html" target="_top" xlink:title="Wrapper logger to call non&#45;thread&#45;safe loggers from a multithreaded environment. ">
<polygon fill="none" stroke="black" points="662.917,-542.808 662.917,-580.808 814.538,-580.808 814.538,-542.808 662.917,-542.808"/>
<text text-anchor="start" x="670.917" y="-568.808" font-family="Helvetica,sans-Serif" font-size="10.00">Tomographer::MultiProc</text>
<text text-anchor="start" x="670.917" y="-558.808" font-family="Helvetica,sans-Serif" font-size="10.00">::OMP::ThreadSanitizerLogger</text>
<text text-anchor="middle" x="738.728" y="-548.808" font-family="Helvetica,sans-Serif" font-size="10.00">&lt; BaseLogger &gt;</text>
</a>
</g>
</g>
<!-- Node3&#45;&gt;Node5 -->
<g id="edge5" class="edge"><title>Node3&#45;&gt;Node5</title>
<path fill="none" stroke="midnightblue" d="M479.613,-525.849C535.953,-533.698 608.748,-543.839 662.662,-551.35"/>
<polygon fill="midnightblue" stroke="midnightblue" points="480.038,-522.374 469.65,-524.461 479.072,-529.307 480.038,-522.374"/>
</g>
<!-- Node7 -->
<g id="node8" class="node"><title>Node7</title>
<g id="a_node8"><a xlink:href="class_tomographer_1_1_logger_1_1_local_logger.html" target="_top" xlink:title="Local logger: avoid having to repeat origin at each emitted message. ">
<polygon fill="none" stroke="black" points="651.221,-399.808 651.221,-427.808 826.234,-427.808 826.234,-399.808 651.221,-399.808"/>
<text text-anchor="start" x="659.221" y="-415.808" font-family="Helvetica,sans-Serif" font-size="10.00">Tomographer::Logger</text>
<text text-anchor="middle" x="738.728" y="-405.808" font-family="Helvetica,sans-Serif" font-size="10.00">::LocalLogger&lt; BaseLoggerType_ &gt;</text>
</a>
</g>
</g>
<!-- Node6&#45;&gt;Node7 -->
<g id="edge7" class="edge"><title>Node6&#45;&gt;Node7</title>
<path fill="none" stroke="midnightblue" d="M472.192,-416.891C525.642,-416.27 596.239,-415.451 651.204,-414.812"/>
<polygon fill="midnightblue" stroke="midnightblue" points="472.039,-413.392 462.08,-417.008 472.12,-420.392 472.039,-413.392"/>
</g>
<!-- Node8 -->
<g id="node9" class="node"><title>Node8</title>
<g id="a_node9"><a xlink:href="class_tomographer_1_1_logger_1_1_local_logger.html" target="_top" xlink:title="Tomographer::Logger\l::LocalLogger\&lt; LoggerType \&gt;">
<polygon fill="none" stroke="black" points="969.261,-425.808 969.261,-453.808 1115.92,-453.808 1115.92,-425.808 969.261,-425.808"/>
<text text-anchor="start" x="977.261" y="-441.808" font-family="Helvetica,sans-Serif" font-size="10.00">Tomographer::Logger</text>
<text text-anchor="middle" x="1042.59" y="-431.808" font-family="Helvetica,sans-Serif" font-size="10.00">::LocalLogger&lt; LoggerType &gt;</text>
</a>
</g>
</g>
<!-- Node7&#45;&gt;Node8 -->
<g id="edge8" class="edge"><title>Node7&#45;&gt;Node8</title>
<path fill="none" stroke="orange" stroke-dasharray="5,2" d="M836.824,-422.171C879.767,-425.87 929.4,-430.145 969.046,-433.56"/>
<polygon fill="orange" stroke="orange" points="836.897,-418.664 826.634,-421.293 836.297,-425.639 836.897,-418.664"/>
<text text-anchor="middle" x="892.049" y="-431.808" font-family="Helvetica,sans-Serif" font-size="10.00"> &lt; LoggerType &gt;</text>
</g>
<!-- Node9 -->
<g id="node10" class="node"><title>Node9</title>
<g id="a_node10"><a xlink:href="class_tomographer_1_1_logger_1_1_local_logger.html" target="_top" xlink:title="Tomographer::Logger\l::LocalLogger\&lt; BaseLoggerType \&gt;">
<polygon fill="none" stroke="black" points="957.864,-276.808 957.864,-304.808 1127.32,-304.808 1127.32,-276.808 957.864,-276.808"/>
<text text-anchor="start" x="965.864" y="-292.808" font-family="Helvetica,sans-Serif" font-size="10.00">Tomographer::Logger</text>
<text text-anchor="middle" x="1042.59" y="-282.808" font-family="Helvetica,sans-Serif" font-size="10.00">::LocalLogger&lt; BaseLoggerType &gt;</text>
</a>
</g>
</g>
<!-- Node7&#45;&gt;Node9 -->
<g id="edge9" class="edge"><title>Node7&#45;&gt;Node9</title>
<path fill="none" stroke="orange" stroke-dasharray="5,2" d="M802.829,-396.736C810.766,-394.248 818.729,-391.583 826.234,-388.808 895.584,-363.163 973.879,-325.132 1014.26,-304.811"/>
<polygon fill="orange" stroke="orange" points="801.735,-393.411 793.193,-399.678 803.78,-400.106 801.735,-393.411"/>
<text text-anchor="middle" x="892.049" y="-381.808" font-family="Helvetica,sans-Serif" font-size="10.00"> &lt; BaseLoggerType &gt;</text>
</g>
<!-- Node10&#45;&gt;Node8 -->
<g id="edge11" class="edge"><title>Node10&#45;&gt;Node8</title>
<path fill="none" stroke="midnightblue" d="M643.445,-458.173C734.002,-453.996 881.388,-447.198 969.17,-443.148"/>
<polygon fill="midnightblue" stroke="midnightblue" points="643.062,-454.687 633.234,-458.644 643.385,-461.68 643.062,-454.687"/>
</g>
<!-- Node12 -->
<g id="node13" class="node"><title>Node12</title>
<g id="a_node13"><a xlink:href="class_tomographer_1_1_logger_1_1_minimum_severity_logger.html" target="_top" xlink:title="Logger which statically discards any messages less important than a fixed severity. ">
<polygon fill="none" stroke="black" points="674.041,-341.808 674.041,-379.808 803.415,-379.808 803.415,-341.808 674.041,-341.808"/>
<text text-anchor="start" x="682.041" y="-367.808" font-family="Helvetica,sans-Serif" font-size="10.00">Tomographer::Logger</text>
<text text-anchor="start" x="682.041" y="-357.808" font-family="Helvetica,sans-Serif" font-size="10.00">::MinimumSeverityLogger</text>
<text text-anchor="middle" x="738.728" y="-347.808" font-family="Helvetica,sans-Serif" font-size="10.00">&lt; BaseLogger, Level &gt;</text>
</a>
</g>
</g>
<!-- Node11&#45;&gt;Node12 -->
<g id="edge13" class="edge"><title>Node11&#45;&gt;Node12</title>
<path fill="none" stroke="midnightblue" d="M482.88,-360.808C542.807,-360.808 620.196,-360.808 673.896,-360.808"/>
<polygon fill="midnightblue" stroke="midnightblue" points="482.663,-357.308 472.663,-360.808 482.663,-364.308 482.663,-357.308"/>
</g>
<!-- Node14 -->
<g id="node15" class="node"><title>Node14</title>
<g id="a_node15"><a xlink:href="class_tomographer_1_1_logger_1_1_vacuum_logger.html" target="_top" xlink:title="Logger that discards all messages. ">
<polygon fill="none" stroke="black" points="682.92,-294.808 682.92,-322.808 794.535,-322.808 794.535,-294.808 682.92,-294.808"/>
<text text-anchor="start" x="690.92" y="-310.808" font-family="Helvetica,sans-Serif" font-size="10.00">Tomographer::Logger</text>
<text text-anchor="middle" x="738.728" y="-300.808" font-family="Helvetica,sans-Serif" font-size="10.00">::VacuumLogger</text>
</a>
</g>
</g>
<!-- Node13&#45;&gt;Node14 -->
<g id="edge15" class="edge"><title>Node13&#45;&gt;Node14</title>
<path fill="none" stroke="midnightblue" d="M482.613,-308.808C545.92,-308.808 628.818,-308.808 682.663,-308.808"/>
<polygon fill="midnightblue" stroke="midnightblue" points="482.23,-305.308 472.23,-308.808 482.23,-312.308 482.23,-305.308"/>
</g>
<!-- Node16 -->
<g id="node17" class="node"><title>Node16</title>
<g id="a_node17"><a xlink:href="classtpy_1_1_py_logger.html" target="_top" xlink:title="Logger providing transparent integration with Python&#39;s logging module. ">
<polygon fill="none" stroke="black" points="699.875,-252.808 699.875,-270.808 777.58,-270.808 777.58,-252.808 699.875,-252.808"/>
<text text-anchor="middle" x="738.728" y="-258.808" font-family="Helvetica,sans-Serif" font-size="10.00">tpy::PyLogger</text>
</a>
</g>
</g>
<!-- Node15&#45;&gt;Node16 -->
<g id="edge17" class="edge"><title>Node15&#45;&gt;Node16</title>
<path fill="none" stroke="midnightblue" d="M470.319,-261.808C541.716,-261.808 644.876,-261.808 699.861,-261.808"/>
<polygon fill="midnightblue" stroke="midnightblue" points="470.025,-258.308 460.025,-261.808 470.025,-265.308 470.025,-258.308"/>
</g>
<!-- Node18 -->
<g id="node19" class="node"><title>Node18</title>
<g id="a_node19"><a xlink:href="class_tomographer_1_1_logger_1_1_buffer_logger.html" target="_top" xlink:title="Log messages into an internal memory buffer. ">
<polygon fill="none" stroke="black" points="682.92,-200.808 682.92,-228.808 794.535,-228.808 794.535,-200.808 682.92,-200.808"/>
<text text-anchor="start" x="690.92" y="-216.808" font-family="Helvetica,sans-Serif" font-size="10.00">Tomographer::Logger</text>
<text text-anchor="middle" x="738.728" y="-206.808" font-family="Helvetica,sans-Serif" font-size="10.00">::BufferLogger</text>
</a>
</g>
</g>
<!-- Node17&#45;&gt;Node18 -->
<g id="edge19" class="edge"><title>Node17&#45;&gt;Node18</title>
<path fill="none" stroke="midnightblue" d="M477.582,-214.808C541.494,-214.808 627.444,-214.808 682.725,-214.808"/>
<polygon fill="midnightblue" stroke="midnightblue" points="477.521,-211.308 467.521,-214.808 477.521,-218.308 477.521,-211.308"/>
</g>
<!-- Node19&#45;&gt;Node9 -->
<g id="edge21" class="edge"><title>Node19&#45;&gt;Node9</title>
<path fill="none" stroke="midnightblue" d="M643.752,-170.177C696.272,-170.883 766.316,-175.277 826.234,-190.808 900.455,-210.046 980.509,-254.118 1018.74,-276.781"/>
<polygon fill="midnightblue" stroke="midnightblue" points="643.521,-166.675 633.489,-170.083 643.457,-173.675 643.521,-166.675"/>
</g>
<!-- Node21 -->
<g id="node22" class="node"><title>Node21</title>
<g id="a_node22"><a xlink:href="classtpy_1_1_gil_protected_py_logger.html" target="_top" xlink:title="Logger type that relays to (wraps around) a PyLogger while protecting the call with GIL acquisition...">
<polygon fill="none" stroke="black" points="672.363,-114.808 672.363,-132.808 805.092,-132.808 805.092,-114.808 672.363,-114.808"/>
<text text-anchor="middle" x="738.728" y="-120.808" font-family="Helvetica,sans-Serif" font-size="10.00">tpy::GilProtectedPyLogger</text>
</a>
</g>
</g>
<!-- Node20&#45;&gt;Node21 -->
<g id="edge23" class="edge"><title>Node20&#45;&gt;Node21</title>
<path fill="none" stroke="midnightblue" d="M472.355,-123.808C532.876,-123.808 615.31,-123.808 672.164,-123.808"/>
<polygon fill="midnightblue" stroke="midnightblue" points="472.08,-120.308 462.08,-123.808 472.08,-127.308 472.08,-120.308"/>
</g>
<!-- Node23 -->
<g id="node24" class="node"><title>Node23</title>
<g id="a_node24"><a xlink:href="class_tomographer_1_1_logger_1_1_origin_filtered_logger.html" target="_top" xlink:title="A logger which filters entries according to where they originated from. ">
<polygon fill="none" stroke="black" points="682.371,-47.8079 682.371,-85.8079 795.084,-85.8079 795.084,-47.8079 682.371,-47.8079"/>
<text text-anchor="start" x="690.371" y="-73.8079" font-family="Helvetica,sans-Serif" font-size="10.00">Tomographer::Logger</text>
<text text-anchor="start" x="690.371" y="-63.8079" font-family="Helvetica,sans-Serif" font-size="10.00">::OriginFilteredLogger</text>
<text text-anchor="middle" x="738.728" y="-53.8079" font-family="Helvetica,sans-Serif" font-size="10.00">&lt; BaseLogger &gt;</text>
</a>
</g>
</g>
<!-- Node22&#45;&gt;Node23 -->
<g id="edge25" class="edge"><title>Node22&#45;&gt;Node23</title>
<path fill="none" stroke="midnightblue" d="M474.642,-66.8079C538.674,-66.8079 626.148,-66.8079 682.299,-66.8079"/>
<polygon fill="midnightblue" stroke="midnightblue" points="474.575,-63.308 464.574,-66.8079 474.574,-70.308 474.575,-63.308"/>
</g>
<!-- Node25 -->
<g id="node26" class="node"><title>Node25</title>
<g id="a_node26"><a xlink:href="class_tomographer_1_1_logger_1_1_file_logger.html" target="_top" xlink:title="Simple logger class which logs everything into a given FILE pointer. ">
<polygon fill="none" stroke="black" points="682.92,-0.807933 682.92,-28.8079 794.535,-28.8079 794.535,-0.807933 682.92,-0.807933"/>
<text text-anchor="start" x="690.92" y="-16.8079" font-family="Helvetica,sans-Serif" font-size="10.00">Tomographer::Logger</text>
<text text-anchor="middle" x="738.728" y="-6.80793" font-family="Helvetica,sans-Serif" font-size="10.00">::FileLogger</text>
</a>
</g>
</g>
<!-- Node24&#45;&gt;Node25 -->
<g id="edge27" class="edge"><title>Node24&#45;&gt;Node25</title>
<path fill="none" stroke="midnightblue" d="M472.602,-14.8079C536.958,-14.8079 625.969,-14.8079 682.701,-14.8079"/>
<polygon fill="midnightblue" stroke="midnightblue" points="472.494,-11.308 462.494,-14.8079 472.494,-18.308 472.494,-11.308"/>
</g>
</g>
</svg>
        <g id="navigator" transform="translate(0 0)" fill="#404254">
                <rect fill="#f2f5e9" fill-opacity="0.5" stroke="#606060" stroke-width=".5" x="0" y="0" width="60" height="60"/>
                <use id="zoomplus" xlink:href="#zoomPlus" x="17" y="9" onmousedown="handleZoom(evt,'in')"/>
                <use id="zoomminus" xlink:href="#zoomMin" x="42" y="9" onmousedown="handleZoom(evt,'out')"/>
                <use id="reset" xlink:href="#resetDef" x="30" y="36" onmousedown="handleReset()"/>
                <g id="arrowUp" xlink:href="#dirArrow" transform="translate(30 24)" onmousedown="handlePan(0,-1)">
                  <use xlink:href="#rim" fill="#404040">
                        <set attributeName="fill" to="#808080" begin="arrowUp.mouseover" end="arrowUp.mouseout"/>
                  </use>
                  <path fill="none" stroke="white" stroke-width="1.5" d="M0,-3.0v7 M-2.5,-0.5L0,-3.0L2.5,-0.5"/>
                </g>
                <g id="arrowRight" xlink:href="#dirArrow" transform="rotate(90) translate(36 -43)" onmousedown="handlePan(1,0)">
                  <use xlink:href="#rim" fill="#404040">
                        <set attributeName="fill" to="#808080" begin="arrowRight.mouseover" end="arrowRight.mouseout"/>
                  </use>
                  <path fill="none" stroke="white" stroke-width="1.5" d="M0,-3.0v7 M-2.5,-0.5L0,-3.0L2.5,-0.5"/>
                </g>
                <g id="arrowDown" xlink:href="#dirArrow" transform="rotate(180) translate(-30 -48)" onmousedown="handlePan(0,1)">
                  <use xlink:href="#rim" fill="#404040">
                        <set attributeName="fill" to="#808080" begin="arrowDown.mouseover" end="arrowDown.mouseout"/>
                  </use>
                  <path fill="none" stroke="white" stroke-width="1.5" d="M0,-3.0v7 M-2.5,-0.5L0,-3.0L2.5,-0.5"/>
                </g>
                <g id="arrowLeft" xlink:href="#dirArrow" transform="rotate(270) translate(-36 17)" onmousedown="handlePan(-1,0)">
                  <use xlink:href="#rim" fill="#404040">
                        <set attributeName="fill" to="#808080" begin="arrowLeft.mouseover" end="arrowLeft.mouseout"/>
                  </use>
                  <path fill="none" stroke="white" stroke-width="1.5" d="M0,-3.0v7 M-2.5,-0.5L0,-3.0L2.5,-0.5"/>
                </g>
        </g>
        <svg viewBox="0 0 15 15" width="100%" height="30px" preserveAspectRatio="xMaxYMin meet">
         <g id="arrow_out" transform="scale(0.3 0.3)">
          <a xlink:href="class_tomographer_1_1_logger_1_1_logger_base__inherit__graph_org.svg" target="_base">
           <rect id="button" ry="5" rx="5" y="6" x="6" height="38" width="38"
                fill="#f2f5e9" fill-opacity="0.5" stroke="#606060" stroke-width="1.0"/>
           <path id="arrow"
             d="M 11.500037,31.436501 C 11.940474,20.09759 22.043105,11.32322 32.158766,21.979434 L 37.068811,17.246167 C 37.068811,17.246167 37.088388,32 37.088388,32 L 22.160133,31.978069 C 22.160133,31.978069 26.997745,27.140456 26.997745,27.140456 C 18.528582,18.264221 13.291696,25.230495 11.500037,31.436501 z"
             style="fill:#404040;"/>
          </a>
         </g>
        </svg>
</svg>
