<?xml version="1.0" encoding="UTF-8" standalone="no"?>
<!DOCTYPE svg PUBLIC "-//W3C//DTD SVG 1.1//EN"
 "http://www.w3.org/Graphics/SVG/1.1/DTD/svg11.dtd">
<!-- Generated by graphviz version 2.38.0 (20140413.2041)
 -->
<!-- Title: Tomographer::AveragedHistogram&lt; HistogramType_, RealAvgType &gt; Pages: 1 -->
<!--zoomable 206 -->
<svg id="main" version="1.1" xmlns="http://www.w3.org/2000/svg" xmlns:xlink="http://www.w3.org/1999/xlink" xml:space="preserve" onload="init(evt)">
<style type="text/css"><![CDATA[
.edge:hover path { stroke: red; }
.edge:hover polygon { stroke: red; fill: red; }
]]></style>
<script type="text/javascript"><![CDATA[
var edges = document.getElementsByTagName('g');
if (edges && edges.length) {
  for (var i=0;i<edges.length;i++) {
    if (edges[i].id.substr(0,4)=='edge') {
      edges[i].setAttribute('class','edge');
    }
  }
}
]]></script>
        <defs>
                <circle id="rim" cx="0" cy="0" r="7"/>
                <circle id="rim2" cx="0" cy="0" r="3.5"/>
                <g id="zoomPlus">
                        <use xlink:href="#rim" fill="#404040">
                                <set attributeName="fill" to="#808080" begin="zoomplus.mouseover" end="zoomplus.mouseout"/>
                        </use>
                        <path d="M-4,0h8M0,-4v8" fill="none" stroke="white" stroke-width="1.5" pointer-events="none"/>
                </g>
                <g id="zoomMin">
                        <use xlink:href="#rim" fill="#404040">
                                <set attributeName="fill" to="#808080" begin="zoomminus.mouseover" end="zoomminus.mouseout"/>
                        </use>
                        <path d="M-4,0h8" fill="none" stroke="white" stroke-width="1.5" pointer-events="none"/>
                </g>
                <g id="dirArrow">
                        <path fill="none" stroke="white" stroke-width="1.5" d="M0,-3.0v7 M-2.5,-0.5L0,-3.0L2.5,-0.5"/>
                </g>
               <g id="resetDef">
                       <use xlink:href="#rim2" fill="#404040">
                               <set attributeName="fill" to="#808080" begin="reset.mouseover" end="reset.mouseout"/>
                       </use>
               </g>
        </defs>

<script type="text/javascript">
var viewWidth = 2180;
var viewHeight = 206;
var sectionId = 'dynsection-1';
</script>
<script xlink:href="svgpan.js"/>
<svg id="graph" class="graph">
<g id="viewport">
<title>Tomographer::AveragedHistogram&lt; HistogramType_, RealAvgType &gt;</title>
<!-- Node7 -->
<g id="node1" class="node"><title>Node7</title>
<polygon fill="#bfbfbf" stroke="black" points="2000.94,-117.5 2000.94,-145.5 2171.85,-145.5 2171.85,-117.5 2000.94,-117.5"/>
<text text-anchor="start" x="2008.94" y="-133.5" font-family="Helvetica,sans-Serif" font-size="10.00">Tomographer::AveragedHistogram</text>
<text text-anchor="middle" x="2086.4" y="-123.5" font-family="Helvetica,sans-Serif" font-size="10.00">&lt; HistogramType_, RealAvgType &gt;</text>
</g>
<!-- Node8 -->
<g id="node2" class="node"><title>Node8</title>
<g id="a_node2"><a xlink:href="class_tomographer_1_1_histogram_with_error_bars.html" target="_top" xlink:title="Tomographer::HistogramWith\lErrorBars\&lt; HistogramType\l_::Scalar, RealAvgType \&gt;">
<polygon fill="none" stroke="black" points="1817.9,-112.5 1817.9,-150.5 1963.94,-150.5 1963.94,-112.5 1817.9,-112.5"/>
<text text-anchor="start" x="1825.9" y="-138.5" font-family="Helvetica,sans-Serif" font-size="10.00">Tomographer::HistogramWith</text>
<text text-anchor="start" x="1825.9" y="-128.5" font-family="Helvetica,sans-Serif" font-size="10.00">ErrorBars&lt; HistogramType</text>
<text text-anchor="middle" x="1890.92" y="-118.5" font-family="Helvetica,sans-Serif" font-size="10.00">_::Scalar, RealAvgType &gt;</text>
</a>
</g>
</g>
<!-- Node8&#45;&gt;Node7 -->
<g id="edge1" class="edge"><title>Node8&#45;&gt;Node7</title>
<path fill="none" stroke="midnightblue" d="M1974.23,-131.5C1983.05,-131.5 1992.04,-131.5 2000.89,-131.5"/>
<polygon fill="midnightblue" stroke="midnightblue" points="1973.96,-128 1963.96,-131.5 1973.96,-135 1973.96,-128"/>
</g>
<!-- Node9 -->
<g id="node3" class="node"><title>Node9</title>
<g id="a_node3"><a xlink:href="class_tomographer_1_1_histogram.html" target="_top" xlink:title="Tomographer::Histogram\l\&lt; HistogramType_::Scalar,\l RealAvgType \&gt;">
<polygon fill="none" stroke="black" points="1510.07,-46.5 1510.07,-84.5 1643.63,-84.5 1643.63,-46.5 1510.07,-46.5"/>
<text text-anchor="start" x="1518.07" y="-72.5" font-family="Helvetica,sans-Serif" font-size="10.00">Tomographer::Histogram</text>
<text text-anchor="start" x="1518.07" y="-62.5" font-family="Helvetica,sans-Serif" font-size="10.00">&lt; HistogramType_::Scalar,</text>
<text text-anchor="middle" x="1576.85" y="-52.5" font-family="Helvetica,sans-Serif" font-size="10.00"> RealAvgType &gt;</text>
</a>
</g>
</g>
<!-- Node9&#45;&gt;Node8 -->
<g id="edge2" class="edge"><title>Node9&#45;&gt;Node8</title>
<path fill="none" stroke="midnightblue" d="M1653.74,-81.5498C1703.63,-92.1019 1768.53,-105.828 1817.67,-116.22"/>
<polygon fill="midnightblue" stroke="midnightblue" points="1654.16,-78.0612 1643.65,-79.4163 1652.71,-84.9097 1654.16,-78.0612"/>
</g>
<!-- Node10 -->
<g id="node4" class="node"><title>Node10</title>
<g id="a_node4"><a doxygen="/Users/philippe/Research/projects/tomographer/doc/Eigen.doxytags:http://eigen.tuxfamily.org/dox/" xlink:href="http://eigen.tuxfamily.org/dox/classEigen_1_1Array.html" target="_top" xlink:title="Eigen::Array\&lt; CountType,\l Eigen::Dynamic, 1 \&gt;">
<polygon fill="none" stroke="black" points="866.932,-123.5 866.932,-151.5 997.722,-151.5 997.722,-123.5 866.932,-123.5"/>
<text text-anchor="start" x="874.932" y="-139.5" font-family="Helvetica,sans-Serif" font-size="10.00">Eigen::Array&lt; CountType,</text>
<text text-anchor="middle" x="932.327" y="-129.5" font-family="Helvetica,sans-Serif" font-size="10.00"> Eigen::Dynamic, 1 &gt;</text>
</a>
</g>
</g>
<!-- Node10&#45;&gt;Node8 -->
<g id="edge15" class="edge"><title>Node10&#45;&gt;Node8</title>
<path fill="none" stroke="#9a32cd" stroke-dasharray="5,2" d="M1007.85,-148.421C1015.51,-149.256 1023.19,-149.977 1030.58,-150.5 1318.3,-170.898 1391.11,-154.73 1679.56,-155.5 1733.04,-155.643 1746.87,-162.448 1799.9,-155.5 1808.72,-154.344 1817.9,-152.578 1826.89,-150.515"/>
<polygon fill="#9a32cd" stroke="#9a32cd" points="1008.15,-144.932 997.815,-147.263 1007.35,-151.886 1008.15,-144.932"/>
<text text-anchor="middle" x="1413.97" y="-162.5" font-family="Helvetica,sans-Serif" font-size="10.00"> delta</text>
</g>
<!-- Node10&#45;&gt;Node9 -->
<g id="edge3" class="edge"><title>Node10&#45;&gt;Node9</title>
<path fill="none" stroke="#9a32cd" stroke-dasharray="5,2" d="M1008.04,-130.202C1112.46,-119.839 1307.92,-99.8494 1474.14,-79.5 1485.73,-78.0814 1498.05,-76.4722 1509.96,-74.8628"/>
<polygon fill="#9a32cd" stroke="#9a32cd" points="1007.52,-126.736 997.916,-131.205 1008.21,-133.702 1007.52,-126.736"/>
<text text-anchor="middle" x="1255.55" y="-115.5" font-family="Helvetica,sans-Serif" font-size="10.00"> bins</text>
</g>
<!-- Node18 -->
<g id="node12" class="node"><title>Node18</title>
<g id="a_node12"><a xlink:href="class_tomographer_1_1_histogram.html" target="_top" xlink:title="Stores a histogram. ">
<polygon fill="none" stroke="black" points="1192.24,-49.5 1192.24,-77.5 1318.87,-77.5 1318.87,-49.5 1192.24,-49.5"/>
<text text-anchor="start" x="1200.24" y="-65.5" font-family="Helvetica,sans-Serif" font-size="10.00">Tomographer::Histogram</text>
<text text-anchor="middle" x="1255.55" y="-55.5" font-family="Helvetica,sans-Serif" font-size="10.00">&lt; Scalar_, CountType_ &gt;</text>
</a>
</g>
</g>
<!-- Node10&#45;&gt;Node18 -->
<g id="edge14" class="edge"><title>Node10&#45;&gt;Node18</title>
<path fill="none" stroke="#9a32cd" stroke-dasharray="5,2" d="M965.658,-118.532C984.082,-108.59 1007.95,-97.1319 1030.58,-90.5 1083.76,-74.9137 1146.58,-68.3087 1192.13,-65.5182"/>
<polygon fill="#9a32cd" stroke="#9a32cd" points="963.881,-115.514 956.817,-123.41 967.264,-121.643 963.881,-115.514"/>
<text text-anchor="middle" x="1093.94" y="-92.5" font-family="Helvetica,sans-Serif" font-size="10.00"> bins</text>
</g>
<!-- Node20 -->
<g id="node14" class="node"><title>Node20</title>
<g id="a_node14"><a xlink:href="class_tomographer_1_1_histogram_with_error_bars.html" target="_top" xlink:title="Stores a histogram along with error bars. ">
<polygon fill="none" stroke="black" points="1492.14,-117.5 1492.14,-145.5 1661.56,-145.5 1661.56,-117.5 1492.14,-117.5"/>
<text text-anchor="start" x="1500.14" y="-133.5" font-family="Helvetica,sans-Serif" font-size="10.00">Tomographer::HistogramWith</text>
<text text-anchor="middle" x="1576.85" y="-123.5" font-family="Helvetica,sans-Serif" font-size="10.00">ErrorBars&lt; Scalar_, CountType_ &gt;</text>
</a>
</g>
</g>
<!-- Node10&#45;&gt;Node20 -->
<g id="edge18" class="edge"><title>Node10&#45;&gt;Node20</title>
<path fill="none" stroke="#9a32cd" stroke-dasharray="5,2" d="M1008.13,-136.802C1128.81,-135.675 1365.68,-133.463 1491.94,-132.284"/>
<polygon fill="#9a32cd" stroke="#9a32cd" points="1007.84,-133.304 997.876,-136.897 1007.91,-140.304 1007.84,-133.304"/>
<text text-anchor="middle" x="1255.55" y="-137.5" font-family="Helvetica,sans-Serif" font-size="10.00"> delta</text>
</g>
<!-- Node11 -->
<g id="node5" class="node"><title>Node11</title>
<g id="a_node5"><a doxygen="/Users/philippe/Research/projects/tomographer/doc/Eigen.doxytags:http://eigen.tuxfamily.org/dox/" xlink:href="http://eigen.tuxfamily.org/dox/classEigen_1_1PlainObjectBase.html" target="_top" xlink:title="Eigen::PlainObjectBase\l\&lt; Array\&lt; CountType, Eigen\l::Dynamic, 1, _Options, \l_MaxRows, _MaxCols \&gt; \&gt;">
<polygon fill="none" stroke="black" points="442.27,-91.5 442.27,-139.5 578.353,-139.5 578.353,-91.5 442.27,-91.5"/>
<text text-anchor="start" x="450.27" y="-127.5" font-family="Helvetica,sans-Serif" font-size="10.00">Eigen::PlainObjectBase</text>
<text text-anchor="start" x="450.27" y="-117.5" font-family="Helvetica,sans-Serif" font-size="10.00">&lt; Array&lt; CountType, Eigen</text>
<text text-anchor="start" x="450.27" y="-107.5" font-family="Helvetica,sans-Serif" font-size="10.00">::Dynamic, 1, _Options, </text>
<text text-anchor="middle" x="510.311" y="-97.5" font-family="Helvetica,sans-Serif" font-size="10.00">_MaxRows, _MaxCols &gt; &gt;</text>
</a>
</g>
</g>
<!-- Node11&#45;&gt;Node10 -->
<g id="edge4" class="edge"><title>Node11&#45;&gt;Node10</title>
<path fill="none" stroke="midnightblue" d="M588.804,-119.559C668.73,-123.745 791.952,-130.2 866.77,-134.119"/>
<polygon fill="midnightblue" stroke="midnightblue" points="588.963,-116.063 578.794,-119.035 588.597,-123.053 588.963,-116.063"/>
</g>
<!-- Node12 -->
<g id="node6" class="node"><title>Node12</title>
<g id="a_node6"><a doxygen="/Users/philippe/Research/projects/tomographer/doc/Eigen.doxytags:http://eigen.tuxfamily.org/dox/" xlink:href="http://eigen.tuxfamily.org/dox/classEigen_1_1PlainObjectBase.html" target="_top" xlink:title="Eigen::PlainObjectBase\l\&lt; Derived \&gt;">
<polygon fill="none" stroke="black" points="0,-132.5 0,-160.5 121.063,-160.5 121.063,-132.5 0,-132.5"/>
<text text-anchor="start" x="8" y="-148.5" font-family="Helvetica,sans-Serif" font-size="10.00">Eigen::PlainObjectBase</text>
<text text-anchor="middle" x="60.5317" y="-138.5" font-family="Helvetica,sans-Serif" font-size="10.00">&lt; Derived &gt;</text>
</a>
</g>
</g>
<!-- Node12&#45;&gt;Node11 -->
<g id="edge5" class="edge"><title>Node12&#45;&gt;Node11</title>
<path fill="none" stroke="orange" stroke-dasharray="5,2" d="M95.6332,-127.911C108.802,-121.717 124.247,-115.606 139.063,-112.5 243.186,-90.6729 367.423,-98.3214 442.25,-106.457"/>
<polygon fill="orange" stroke="orange" points="93.9261,-124.85 86.4879,-132.395 97.0076,-131.135 93.9261,-124.85"/>
<text text-anchor="start" x="148.509" y="-144.5" font-family="Helvetica,sans-Serif" font-size="10.00"> &lt; Array&lt; CountType,</text>
<text text-anchor="start" x="148.509" y="-134.5" font-family="Helvetica,sans-Serif" font-size="10.00"> Eigen::Dynamic, 1,</text>
<text text-anchor="start" x="148.509" y="-124.5" font-family="Helvetica,sans-Serif" font-size="10.00"> _Options, _MaxRows,</text>
<text text-anchor="middle" x="198.807" y="-114.5" font-family="Helvetica,sans-Serif" font-size="10.00"> _MaxCols &gt; &gt;</text>
</g>
<!-- Node14 -->
<g id="node8" class="node"><title>Node14</title>
<g id="a_node8"><a doxygen="/Users/philippe/Research/projects/tomographer/doc/Eigen.doxytags:http://eigen.tuxfamily.org/dox/" xlink:href="http://eigen.tuxfamily.org/dox/classEigen_1_1PlainObjectBase.html" target="_top" xlink:title="Eigen::PlainObjectBase\l\&lt; Array\&lt; _Scalar, _Rows,\l _Cols, _Options, _MaxRows,\l _MaxCols \&gt; \&gt;">
<polygon fill="none" stroke="black" points="276.551,-149.5 276.551,-197.5 424.27,-197.5 424.27,-149.5 276.551,-149.5"/>
<text text-anchor="start" x="284.551" y="-185.5" font-family="Helvetica,sans-Serif" font-size="10.00">Eigen::PlainObjectBase</text>
<text text-anchor="start" x="284.551" y="-175.5" font-family="Helvetica,sans-Serif" font-size="10.00">&lt; Array&lt; _Scalar, _Rows,</text>
<text text-anchor="start" x="284.551" y="-165.5" font-family="Helvetica,sans-Serif" font-size="10.00"> _Cols, _Options, _MaxRows,</text>
<text text-anchor="middle" x="350.41" y="-155.5" font-family="Helvetica,sans-Serif" font-size="10.00"> _MaxCols &gt; &gt;</text>
</a>
</g>
</g>
<!-- Node12&#45;&gt;Node14 -->
<g id="edge8" class="edge"><title>Node12&#45;&gt;Node14</title>
<path fill="none" stroke="orange" stroke-dasharray="5,2" d="M131.33,-155.66C133.939,-155.953 136.524,-156.234 139.063,-156.5 184.611,-161.275 235.829,-165.44 276.321,-168.452"/>
<polygon fill="orange" stroke="orange" points="131.518,-152.159 121.182,-154.485 130.713,-159.112 131.518,-152.159"/>
<text text-anchor="start" x="139.063" y="-188.5" font-family="Helvetica,sans-Serif" font-size="10.00"> &lt; Array&lt; _Scalar, </text>
<text text-anchor="start" x="139.063" y="-178.5" font-family="Helvetica,sans-Serif" font-size="10.00">_Rows, _Cols, _Options,</text>
<text text-anchor="middle" x="198.807" y="-168.5" font-family="Helvetica,sans-Serif" font-size="10.00"> _MaxRows, _MaxCols &gt; &gt;</text>
</g>
<!-- Node13 -->
<g id="node7" class="node"><title>Node13</title>
<g id="a_node7"><a doxygen="/Users/philippe/Research/projects/tomographer/doc/Eigen.doxytags:http://eigen.tuxfamily.org/dox/" xlink:href="http://eigen.tuxfamily.org/dox/classEigen_1_1Array.html" target="_top" xlink:title="Eigen::Array\&lt; _Scalar,\l _Rows, _Cols, _Options,\l _MaxRows, _MaxCols \&gt;">
<polygon fill="none" stroke="black" points="596.353,-147.5 596.353,-185.5 725.18,-185.5 725.18,-147.5 596.353,-147.5"/>
<text text-anchor="start" x="604.353" y="-173.5" font-family="Helvetica,sans-Serif" font-size="10.00">Eigen::Array&lt; _Scalar,</text>
<text text-anchor="start" x="604.353" y="-163.5" font-family="Helvetica,sans-Serif" font-size="10.00"> _Rows, _Cols, _Options,</text>
<text text-anchor="middle" x="660.766" y="-153.5" font-family="Helvetica,sans-Serif" font-size="10.00"> _MaxRows, _MaxCols &gt;</text>
</a>
</g>
</g>
<!-- Node13&#45;&gt;Node10 -->
<g id="edge6" class="edge"><title>Node13&#45;&gt;Node10</title>
<path fill="none" stroke="orange" stroke-dasharray="5,2" d="M735.273,-158.592C776.411,-154.166 827.223,-148.7 866.81,-144.441"/>
<polygon fill="orange" stroke="orange" points="734.875,-155.114 725.307,-159.664 735.624,-162.074 734.875,-155.114"/>
<text text-anchor="start" x="743.18" y="-169.5" font-family="Helvetica,sans-Serif" font-size="10.00"> &lt; CountType, Eigen</text>
<text text-anchor="middle" x="788.629" y="-159.5" font-family="Helvetica,sans-Serif" font-size="10.00">::Dynamic, 1 &gt;</text>
</g>
<!-- Node14&#45;&gt;Node13 -->
<g id="edge7" class="edge"><title>Node14&#45;&gt;Node13</title>
<path fill="none" stroke="midnightblue" d="M434.8,-171.607C485.655,-170.453 549.633,-169 596.349,-167.94"/>
<polygon fill="midnightblue" stroke="midnightblue" points="434.404,-168.115 424.486,-171.841 434.563,-175.113 434.404,-168.115"/>
</g>
<!-- Node15 -->
<g id="node9" class="node"><title>Node15</title>
<g id="a_node9"><a xlink:href="struct_tomographer_1_1_histogram_params.html" target="_top" xlink:title="Tomographer::HistogramParams\l\&lt; HistogramType_::Scalar \&gt;">
<polygon fill="none" stroke="black" points="1175.3,-2.5 1175.3,-30.5 1335.8,-30.5 1335.8,-2.5 1175.3,-2.5"/>
<text text-anchor="start" x="1183.3" y="-18.5" font-family="Helvetica,sans-Serif" font-size="10.00">Tomographer::HistogramParams</text>
<text text-anchor="middle" x="1255.55" y="-8.5" font-family="Helvetica,sans-Serif" font-size="10.00">&lt; HistogramType_::Scalar &gt;</text>
</a>
</g>
</g>
<!-- Node15&#45;&gt;Node9 -->
<g id="edge9" class="edge"><title>Node15&#45;&gt;Node9</title>
<path fill="none" stroke="#9a32cd" stroke-dasharray="5,2" d="M1346.1,-23.7098C1385.54,-27.5707 1432.32,-33.0857 1474.14,-40.5 1485.78,-42.5629 1498.06,-45.19 1509.92,-47.9617"/>
<polygon fill="#9a32cd" stroke="#9a32cd" points="1346.26,-20.2096 1335.98,-22.739 1345.6,-27.1777 1346.26,-20.2096"/>
<text text-anchor="middle" x="1413.97" y="-42.5" font-family="Helvetica,sans-Serif" font-size="10.00"> params</text>
</g>
<!-- Node16 -->
<g id="node10" class="node"><title>Node16</title>
<g id="a_node10"><a xlink:href="struct_tomographer_1_1_histogram_params.html" target="_top" xlink:title="The parameters of a Histogram. ">
<polygon fill="none" stroke="black" points="852.078,-0.5 852.078,-28.5 1012.58,-28.5 1012.58,-0.5 852.078,-0.5"/>
<text text-anchor="start" x="860.078" y="-16.5" font-family="Helvetica,sans-Serif" font-size="10.00">Tomographer::HistogramParams</text>
<text text-anchor="middle" x="932.327" y="-6.5" font-family="Helvetica,sans-Serif" font-size="10.00">&lt; Scalar_ &gt;</text>
</a>
</g>
</g>
<!-- Node16&#45;&gt;Node15 -->
<g id="edge10" class="edge"><title>Node16&#45;&gt;Node15</title>
<path fill="none" stroke="orange" stroke-dasharray="5,2" d="M1022.77,-15.0569C1070.61,-15.3548 1129.02,-15.7184 1175.23,-16.0061"/>
<polygon fill="orange" stroke="orange" points="1022.75,-11.5568 1012.73,-14.9944 1022.71,-18.5567 1022.75,-11.5568"/>
<text text-anchor="middle" x="1093.94" y="-18.5" font-family="Helvetica,sans-Serif" font-size="10.00"> &lt; HistogramType_::Scalar &gt;</text>
</g>
<!-- Node17 -->
<g id="node11" class="node"><title>Node17</title>
<polygon fill="none" stroke="#bfbfbf" points="635.813,-5.5 635.813,-23.5 685.719,-23.5 685.719,-5.5 635.813,-5.5"/>
<text text-anchor="middle" x="660.766" y="-11.5" font-family="Helvetica,sans-Serif" font-size="10.00">Scalar_</text>
</g>
<!-- Node17&#45;&gt;Node16 -->
<g id="edge11" class="edge"><title>Node17&#45;&gt;Node16</title>
<path fill="none" stroke="#9a32cd" stroke-dasharray="5,2" d="M696.464,-14.5C735.514,-14.5 800.236,-14.5 851.859,-14.5"/>
<polygon fill="#9a32cd" stroke="#9a32cd" points="696.163,-11.0001 686.163,-14.5 696.163,-18.0001 696.163,-11.0001"/>
<text text-anchor="middle" x="788.629" y="-26.5" font-family="Helvetica,sans-Serif" font-size="10.00"> min</text>
<text text-anchor="middle" x="788.629" y="-16.5" font-family="Helvetica,sans-Serif" font-size="10.00">max</text>
</g>
<!-- Node18&#45;&gt;Node9 -->
<g id="edge12" class="edge"><title>Node18&#45;&gt;Node9</title>
<path fill="none" stroke="orange" stroke-dasharray="5,2" d="M1329.12,-56.8731C1337.44,-56.3087 1345.8,-55.8286 1353.8,-55.5 1407.24,-53.3056 1420.72,-52.8801 1474.14,-55.5 1485.75,-56.0693 1498.08,-57.0019 1509.99,-58.0746"/>
<polygon fill="orange" stroke="orange" points="1328.74,-53.3908 1319.02,-57.5988 1329.25,-60.3727 1328.74,-53.3908"/>
<text text-anchor="start" x="1353.8" y="-67.5" font-family="Helvetica,sans-Serif" font-size="10.00"> &lt; HistogramType_::Scalar,</text>
<text text-anchor="middle" x="1413.97" y="-57.5" font-family="Helvetica,sans-Serif" font-size="10.00"> RealAvgType &gt;</text>
</g>
<!-- Node18&#45;&gt;Node20 -->
<g id="edge17" class="edge"><title>Node18&#45;&gt;Node20</title>
<path fill="none" stroke="midnightblue" d="M1328.79,-78.8837C1383.15,-90.4604 1457.05,-106.2 1509.84,-117.442"/>
<polygon fill="midnightblue" stroke="midnightblue" points="1329.38,-75.4323 1318.87,-76.7725 1327.93,-82.2788 1329.38,-75.4323"/>
</g>
<!-- Node19 -->
<g id="node13" class="node"><title>Node19</title>
<polygon fill="none" stroke="#bfbfbf" points="897.361,-47.5 897.361,-65.5 967.292,-65.5 967.292,-47.5 897.361,-47.5"/>
<text text-anchor="middle" x="932.327" y="-53.5" font-family="Helvetica,sans-Serif" font-size="10.00">CountType_</text>
</g>
<!-- Node19&#45;&gt;Node18 -->
<g id="edge13" class="edge"><title>Node19&#45;&gt;Node18</title>
<path fill="none" stroke="#9a32cd" stroke-dasharray="5,2" d="M977.54,-55.9529C1022.73,-55.5686 1094.93,-55.4382 1157.3,-57.5 1168.55,-57.8716 1180.51,-58.455 1192.06,-59.1151"/>
<polygon fill="#9a32cd" stroke="#9a32cd" points="977.456,-52.4534 967.489,-56.0464 977.521,-59.4531 977.456,-52.4534"/>
<text text-anchor="middle" x="1093.94" y="-59.5" font-family="Helvetica,sans-Serif" font-size="10.00"> off_chart</text>
</g>
<!-- Node20&#45;&gt;Node8 -->
<g id="edge16" class="edge"><title>Node20&#45;&gt;Node8</title>
<path fill="none" stroke="orange" stroke-dasharray="5,2" d="M1672.03,-131.5C1718.76,-131.5 1774.33,-131.5 1817.66,-131.5"/>
<polygon fill="orange" stroke="orange" points="1671.89,-128 1661.89,-131.5 1671.89,-135 1671.89,-128"/>
<text text-anchor="start" x="1679.56" y="-143.5" font-family="Helvetica,sans-Serif" font-size="10.00"> &lt; HistogramType_::Scalar,</text>
<text text-anchor="middle" x="1739.73" y="-133.5" font-family="Helvetica,sans-Serif" font-size="10.00"> RealAvgType &gt;</text>
</g>
</g>
</svg>
        <g id="navigator" transform="translate(0 0)" fill="#404254">
                <rect fill="#f2f5e9" fill-opacity="0.5" stroke="#606060" stroke-width=".5" x="0" y="0" width="60" height="60"/>
                <use id="zoomplus" xlink:href="#zoomPlus" x="17" y="9" onmousedown="handleZoom(evt,'in')"/>
                <use id="zoomminus" xlink:href="#zoomMin" x="42" y="9" onmousedown="handleZoom(evt,'out')"/>
                <use id="reset" xlink:href="#resetDef" x="30" y="36" onmousedown="handleReset()"/>
                <g id="arrowUp" xlink:href="#dirArrow" transform="translate(30 24)" onmousedown="handlePan(0,-1)">
                  <use xlink:href="#rim" fill="#404040">
                        <set attributeName="fill" to="#808080" begin="arrowUp.mouseover" end="arrowUp.mouseout"/>
                  </use>
                  <path fill="none" stroke="white" stroke-width="1.5" d="M0,-3.0v7 M-2.5,-0.5L0,-3.0L2.5,-0.5"/>
                </g>
                <g id="arrowRight" xlink:href="#dirArrow" transform="rotate(90) translate(36 -43)" onmousedown="handlePan(1,0)">
                  <use xlink:href="#rim" fill="#404040">
                        <set attributeName="fill" to="#808080" begin="arrowRight.mouseover" end="arrowRight.mouseout"/>
                  </use>
                  <path fill="none" stroke="white" stroke-width="1.5" d="M0,-3.0v7 M-2.5,-0.5L0,-3.0L2.5,-0.5"/>
                </g>
                <g id="arrowDown" xlink:href="#dirArrow" transform="rotate(180) translate(-30 -48)" onmousedown="handlePan(0,1)">
                  <use xlink:href="#rim" fill="#404040">
                        <set attributeName="fill" to="#808080" begin="arrowDown.mouseover" end="arrowDown.mouseout"/>
                  </use>
                  <path fill="none" stroke="white" stroke-width="1.5" d="M0,-3.0v7 M-2.5,-0.5L0,-3.0L2.5,-0.5"/>
                </g>
                <g id="arrowLeft" xlink:href="#dirArrow" transform="rotate(270) translate(-36 17)" onmousedown="handlePan(-1,0)">
                  <use xlink:href="#rim" fill="#404040">
                        <set attributeName="fill" to="#808080" begin="arrowLeft.mouseover" end="arrowLeft.mouseout"/>
                  </use>
                  <path fill="none" stroke="white" stroke-width="1.5" d="M0,-3.0v7 M-2.5,-0.5L0,-3.0L2.5,-0.5"/>
                </g>
        </g>
        <svg viewBox="0 0 15 15" width="100%" height="30px" preserveAspectRatio="xMaxYMin meet">
         <g id="arrow_out" transform="scale(0.3 0.3)">
          <a xlink:href="class_tomographer_1_1_averaged_histogram__coll__graph_org.svg" target="_base">
           <rect id="button" ry="5" rx="5" y="6" x="6" height="38" width="38"
                fill="#f2f5e9" fill-opacity="0.5" stroke="#606060" stroke-width="1.0"/>
           <path id="arrow"
             d="M 11.500037,31.436501 C 11.940474,20.09759 22.043105,11.32322 32.158766,21.979434 L 37.068811,17.246167 C 37.068811,17.246167 37.088388,32 37.088388,32 L 22.160133,31.978069 C 22.160133,31.978069 26.997745,27.140456 26.997745,27.140456 C 18.528582,18.264221 13.291696,25.230495 11.500037,31.436501 z"
             style="fill:#404040;"/>
          </a>
         </g>
        </svg>
</svg>
