<?xml version="1.0" encoding="UTF-8" standalone="no"?>
<!DOCTYPE svg PUBLIC "-//W3C//DTD SVG 1.1//EN"
 "http://www.w3.org/Graphics/SVG/1.1/DTD/svg11.dtd">
<!-- Generated by graphviz version 2.38.0 (20140413.2041)
 -->
<!-- Title: tomographer/tools/eigenutil.h Pages: 1 -->
<!--zoomable 342 -->
<svg id="main" version="1.1" xmlns="http://www.w3.org/2000/svg" xmlns:xlink="http://www.w3.org/1999/xlink" xml:space="preserve" onload="init(evt)">
<style type="text/css"><![CDATA[
.edge:hover path { stroke: red; }
.edge:hover polygon { stroke: red; fill: red; }
]]></style>
<script type="text/javascript"><![CDATA[
var edges = document.getElementsByTagName('g');
if (edges && edges.length) {
  for (var i=0;i<edges.length;i++) {
    if (edges[i].id.substr(0,4)=='edge') {
      edges[i].setAttribute('class','edge');
    }
  }
}
]]></script>
        <defs>
                <circle id="rim" cx="0" cy="0" r="7"/>
                <circle id="rim2" cx="0" cy="0" r="3.5"/>
                <g id="zoomPlus">
                        <use xlink:href="#rim" fill="#404040">
                                <set attributeName="fill" to="#808080" begin="zoomplus.mouseover" end="zoomplus.mouseout"/>
                        </use>
                        <path d="M-4,0h8M0,-4v8" fill="none" stroke="white" stroke-width="1.5" pointer-events="none"/>
                </g>
                <g id="zoomMin">
                        <use xlink:href="#rim" fill="#404040">
                                <set attributeName="fill" to="#808080" begin="zoomminus.mouseover" end="zoomminus.mouseout"/>
                        </use>
                        <path d="M-4,0h8" fill="none" stroke="white" stroke-width="1.5" pointer-events="none"/>
                </g>
                <g id="dirArrow">
                        <path fill="none" stroke="white" stroke-width="1.5" d="M0,-3.0v7 M-2.5,-0.5L0,-3.0L2.5,-0.5"/>
                </g>
               <g id="resetDef">
                       <use xlink:href="#rim2" fill="#404040">
                               <set attributeName="fill" to="#808080" begin="reset.mouseover" end="reset.mouseout"/>
                       </use>
               </g>
        </defs>

<script type="text/javascript">
var viewWidth = 1176;
var viewHeight = 342;
var sectionId = 'dynsection-1';
</script>
<script xlink:href="svgpan.js"/>
<svg id="graph" class="graph">
<g id="viewport">
<title>tomographer/tools/eigenutil.h</title>
<!-- Node6 -->
<g id="node1" class="node"><title>Node6</title>
<polygon fill="#bfbfbf" stroke="black" points="232.377,-315.5 232.377,-333.5 377.347,-333.5 377.347,-315.5 232.377,-315.5"/>
<text text-anchor="middle" x="304.862" y="-321.5" font-family="Helvetica,sans-Serif" font-size="10.00">tomographer/tools/eigenutil.h</text>
</g>
<!-- Node7 -->
<g id="node2" class="node"><title>Node7</title>
<g id="a_node2"><a xlink:href="param__rho__a_8h.html" target="_top" xlink:title="Tools for parameterizing density matrices with the A Parameterization. ">
<polygon fill="none" stroke="black" points="73.5542,-250.5 73.5542,-278.5 190.169,-278.5 190.169,-250.5 73.5542,-250.5"/>
<text text-anchor="start" x="81.5542" y="-266.5" font-family="Helvetica,sans-Serif" font-size="10.00">tomographer/densedm</text>
<text text-anchor="middle" x="131.862" y="-256.5" font-family="Helvetica,sans-Serif" font-size="10.00">/param_rho_a.h</text>
</a>
</g>
</g>
<!-- Node6&#45;&gt;Node7 -->
<g id="edge1" class="edge"><title>Node6&#45;&gt;Node7</title>
<path fill="none" stroke="midnightblue" d="M271.181,-312.208C242.363,-302.547 200.871,-288.636 170.666,-278.51"/>
<polygon fill="midnightblue" stroke="midnightblue" points="270.213,-315.575 280.807,-315.435 272.438,-308.938 270.213,-315.575"/>
</g>
<!-- Node8 -->
<g id="node3" class="node"><title>Node8</title>
<g id="a_node3"><a xlink:href="histogram_8h.html" target="_top" xlink:title="Definitions for Histogram Types. ">
<polygon fill="none" stroke="black" points="0,-195.5 0,-213.5 127.724,-213.5 127.724,-195.5 0,-195.5"/>
<text text-anchor="middle" x="63.8618" y="-201.5" font-family="Helvetica,sans-Serif" font-size="10.00">tomographer/histogram.h</text>
</a>
</g>
</g>
<!-- Node6&#45;&gt;Node8 -->
<g id="edge2" class="edge"><title>Node6&#45;&gt;Node8</title>
<path fill="none" stroke="midnightblue" d="M283.29,-309.948C269.787,-301.327 252.116,-289.791 236.862,-279 219.518,-266.731 217.656,-259.907 198.862,-250 166.662,-233.025 126.751,-220.839 98.7042,-213.557"/>
<polygon fill="midnightblue" stroke="midnightblue" points="281.574,-313.004 291.893,-315.407 285.324,-307.094 281.574,-313.004"/>
</g>
<!-- Node18 -->
<g id="node13" class="node"><title>Node18</title>
<g id="a_node13"><a xlink:href="random__unitary_8h.html" target="_top" xlink:title="Produce a random unitary according to the Haar measure. ">
<polygon fill="none" stroke="black" points="382.446,-250.5 382.446,-278.5 501.278,-278.5 501.278,-250.5 382.446,-250.5"/>
<text text-anchor="start" x="390.446" y="-266.5" font-family="Helvetica,sans-Serif" font-size="10.00">tomographer/mathtools</text>
<text text-anchor="middle" x="441.862" y="-256.5" font-family="Helvetica,sans-Serif" font-size="10.00">/random_unitary.h</text>
</a>
</g>
</g>
<!-- Node6&#45;&gt;Node18 -->
<g id="edge15" class="edge"><title>Node6&#45;&gt;Node18</title>
<path fill="none" stroke="midnightblue" d="M333.348,-311.44C356.071,-301.82 387.84,-288.371 411.132,-278.51"/>
<polygon fill="midnightblue" stroke="midnightblue" points="331.755,-308.314 323.911,-315.435 334.484,-314.76 331.755,-308.314"/>
</g>
<!-- Node19 -->
<g id="node14" class="node"><title>Node19</title>
<g id="a_node14"><a xlink:href="mhrw__bin__err_8h.html" target="_top" xlink:title="Binning Analysis in a Metropolis&#45;Hastings random walk. ">
<polygon fill="none" stroke="black" points="245.448,-250.5 245.448,-278.5 364.275,-278.5 364.275,-250.5 245.448,-250.5"/>
<text text-anchor="start" x="253.448" y="-266.5" font-family="Helvetica,sans-Serif" font-size="10.00">tomographer/mhrw_bin</text>
<text text-anchor="middle" x="304.862" y="-256.5" font-family="Helvetica,sans-Serif" font-size="10.00">_err.h</text>
</a>
</g>
</g>
<!-- Node6&#45;&gt;Node19 -->
<g id="edge16" class="edge"><title>Node6&#45;&gt;Node19</title>
<path fill="none" stroke="midnightblue" d="M304.862,-305.321C304.862,-296.747 304.862,-286.7 304.862,-278.843"/>
<polygon fill="midnightblue" stroke="midnightblue" points="301.362,-305.435 304.862,-315.435 308.362,-305.435 301.362,-305.435"/>
</g>
<!-- Node23 -->
<g id="node18" class="node"><title>Node23</title>
<g id="a_node18"><a xlink:href="ezmatio_8h.html" target="_top" xlink:title="Utilities for reading MATLAB &quot;*.mat&quot; data files. See Tomographer::MAT. ">
<polygon fill="none" stroke="black" points="519.495,-255.5 519.495,-273.5 662.229,-273.5 662.229,-255.5 519.495,-255.5"/>
<text text-anchor="middle" x="590.862" y="-261.5" font-family="Helvetica,sans-Serif" font-size="10.00">tomographer/tools/ezmatio.h</text>
</a>
</g>
</g>
<!-- Node6&#45;&gt;Node23 -->
<g id="edge31" class="edge"><title>Node6&#45;&gt;Node23</title>
<path fill="none" stroke="midnightblue" d="M354.347,-313.465C410.203,-302.137 499.958,-283.935 551.341,-273.515"/>
<polygon fill="midnightblue" stroke="midnightblue" points="353.433,-310.078 344.329,-315.496 354.825,-316.939 353.433,-310.078"/>
</g>
<!-- Node9 -->
<g id="node4" class="node"><title>Node9</title>
<g id="a_node4"><a xlink:href="mhrwstatscollectors_8h.html" target="_top" xlink:title="Definitions for MHRWStatsCollector Interface&#39;s. ">
<polygon fill="none" stroke="black" points="600.054,-135.5 600.054,-153.5 771.669,-153.5 771.669,-135.5 600.054,-135.5"/>
<text text-anchor="middle" x="685.862" y="-141.5" font-family="Helvetica,sans-Serif" font-size="10.00">tomographer/mhrwstatscollectors.h</text>
</a>
</g>
</g>
<!-- Node8&#45;&gt;Node9 -->
<g id="edge3" class="edge"><title>Node8&#45;&gt;Node9</title>
<path fill="none" stroke="midnightblue" d="M137.983,-196.588C253.823,-185.787 477.191,-164.958 599.912,-153.515"/>
<polygon fill="midnightblue" stroke="midnightblue" points="137.425,-193.125 127.794,-197.539 138.075,-200.095 137.425,-193.125"/>
</g>
<!-- Node17 -->
<g id="node12" class="node"><title>Node17</title>
<g id="a_node12"><a xlink:href="pyhistogram_8h_source.html" target="_top" xlink:title="py/cxx/tomographerpy\l/pyhistogram.h">
<polygon fill="none" stroke="black" points="8.67236,-130.5 8.67236,-158.5 123.051,-158.5 123.051,-130.5 8.67236,-130.5"/>
<text text-anchor="start" x="16.6724" y="-146.5" font-family="Helvetica,sans-Serif" font-size="10.00">py/cxx/tomographerpy</text>
<text text-anchor="middle" x="65.8618" y="-136.5" font-family="Helvetica,sans-Serif" font-size="10.00">/pyhistogram.h</text>
</a>
</g>
</g>
<!-- Node8&#45;&gt;Node17 -->
<g id="edge13" class="edge"><title>Node8&#45;&gt;Node17</title>
<path fill="none" stroke="midnightblue" d="M64.4887,-185.321C64.7843,-176.747 65.1308,-166.7 65.4017,-158.843"/>
<polygon fill="midnightblue" stroke="midnightblue" points="60.9867,-185.321 64.1399,-195.435 67.9825,-185.562 60.9867,-185.321"/>
</g>
<!-- Node10 -->
<g id="node5" class="node"><title>Node10</title>
<g id="a_node5"><a xlink:href="mhrw__valuehist__tools_8h.html" target="_top" xlink:title="Tools for collecting a histogram of values during a Metropolis&#45;Hastings random walk using the tools o...">
<polygon fill="none" stroke="black" points="706.387,-0.5 706.387,-28.5 851.337,-28.5 851.337,-0.5 706.387,-0.5"/>
<text text-anchor="start" x="714.387" y="-16.5" font-family="Helvetica,sans-Serif" font-size="10.00">tomographer/mhrw_valuehist</text>
<text text-anchor="middle" x="778.862" y="-6.5" font-family="Helvetica,sans-Serif" font-size="10.00">_tools.h</text>
</a>
</g>
</g>
<!-- Node9&#45;&gt;Node10 -->
<g id="edge4" class="edge"><title>Node9&#45;&gt;Node10</title>
<path fill="none" stroke="midnightblue" d="M749.202,-132.617C771.227,-125.464 793.693,-113.616 806.862,-94 820.734,-73.3371 803.326,-45.0038 790.408,-28.6348"/>
<polygon fill="midnightblue" stroke="midnightblue" points="748.08,-129.299 739.485,-135.495 750.067,-136.011 748.08,-129.299"/>
</g>
<!-- Node11 -->
<g id="node6" class="node"><title>Node11</title>
<g id="a_node6"><a xlink:href="mhrwacceptratiowalkerparamscontroller_8h.html" target="_top" xlink:title="Tools for automatically and dynamically adjusting the step size of the random walk. ">
<polygon fill="none" stroke="black" points="891.862,-70.5 891.862,-88.5 1151.86,-88.5 1151.86,-70.5 891.862,-70.5"/>
<text text-anchor="middle" x="1021.86" y="-76.5" font-family="Helvetica,sans-Serif" font-size="10.00">tomographer/mhrwacceptratiowalkerparamscontroller.h</text>
</a>
</g>
</g>
<!-- Node9&#45;&gt;Node11 -->
<g id="edge5" class="edge"><title>Node9&#45;&gt;Node11</title>
<path fill="none" stroke="midnightblue" d="M738.597,-133.612C804.947,-121.172 917.613,-100.047 978.956,-88.5448"/>
<polygon fill="midnightblue" stroke="midnightblue" points="737.941,-130.174 728.758,-135.457 739.231,-137.054 737.941,-130.174"/>
</g>
<!-- Node12 -->
<g id="node7" class="node"><title>Node12</title>
<g id="a_node7"><a xlink:href="mhrwstepsizecontroller_8h.html" target="_top" xlink:title="Tools for automatically and dynamically adjusting the step size of the random walk. ">
<polygon fill="none" stroke="black" points="929.099,-5.5 929.099,-23.5 1114.62,-23.5 1114.62,-5.5 929.099,-5.5"/>
<text text-anchor="middle" x="1021.86" y="-11.5" font-family="Helvetica,sans-Serif" font-size="10.00">tomographer/mhrwstepsizecontroller.h</text>
</a>
</g>
</g>
<!-- Node9&#45;&gt;Node12 -->
<g id="edge7" class="edge"><title>Node9&#45;&gt;Node12</title>
<path fill="none" stroke="midnightblue" d="M720.108,-132.228C748.052,-122.768 788.402,-108.507 822.862,-94 850.16,-82.5079 855.538,-76.4293 882.862,-65 921.973,-48.6402 968.609,-32.745 996.694,-23.5511"/>
<polygon fill="midnightblue" stroke="midnightblue" points="718.772,-128.984 710.408,-135.487 721.002,-135.62 718.772,-128.984"/>
</g>
<!-- Node13 -->
<g id="node8" class="node"><title>Node13</title>
<g id="a_node8"><a xlink:href="mhrwtasks_8h.html" target="_top" xlink:title="Multiprocessing tasks interface (see Multiprocessing Task Interfaces) for parallel Metropolis&#45;Hasting...">
<polygon fill="none" stroke="black" points="666.062,-70.5 666.062,-88.5 797.662,-88.5 797.662,-70.5 666.062,-70.5"/>
<text text-anchor="middle" x="731.862" y="-76.5" font-family="Helvetica,sans-Serif" font-size="10.00">tomographer/mhrwtasks.h</text>
</a>
</g>
</g>
<!-- Node9&#45;&gt;Node13 -->
<g id="edge8" class="edge"><title>Node9&#45;&gt;Node13</title>
<path fill="none" stroke="midnightblue" d="M697.826,-127.114C706.881,-114.713 718.926,-98.2167 725.992,-88.539"/>
<polygon fill="midnightblue" stroke="midnightblue" points="694.946,-125.124 691.876,-135.264 700.599,-129.252 694.946,-125.124"/>
</g>
<!-- Node16 -->
<g id="node11" class="node"><title>Node16</title>
<g id="a_node11"><a xlink:href="mhrwvalueerrorbinsconvergedcontroller_8h.html" target="_top" xlink:title="Tools for automatically stopping the random walk when enough samples have been taken to make all binn...">
<polygon fill="none" stroke="black" points="389.409,-70.5 389.409,-88.5 648.314,-88.5 648.314,-70.5 389.409,-70.5"/>
<text text-anchor="middle" x="518.862" y="-76.5" font-family="Helvetica,sans-Serif" font-size="10.00">tomographer/mhrwvalueerrorbinsconvergedcontroller.h</text>
</a>
</g>
</g>
<!-- Node9&#45;&gt;Node16 -->
<g id="edge12" class="edge"><title>Node9&#45;&gt;Node16</title>
<path fill="none" stroke="midnightblue" d="M654.662,-131.73C621.298,-119.144 569.286,-99.5224 540.27,-88.5761"/>
<polygon fill="midnightblue" stroke="midnightblue" points="653.78,-135.138 664.371,-135.393 656.25,-128.588 653.78,-135.138"/>
</g>
<!-- Node11&#45;&gt;Node12 -->
<g id="edge6" class="edge"><title>Node11&#45;&gt;Node12</title>
<path fill="none" stroke="midnightblue" d="M1021.86,-59.9075C1021.86,-47.8146 1021.86,-32.6529 1021.86,-23.539"/>
<polygon fill="midnightblue" stroke="midnightblue" points="1018.36,-60.2638 1021.86,-70.2639 1025.36,-60.2639 1018.36,-60.2638"/>
</g>
<!-- Node13&#45;&gt;Node10 -->
<g id="edge9" class="edge"><title>Node13&#45;&gt;Node10</title>
<path fill="none" stroke="midnightblue" d="M744.134,-62.0506C751.862,-51.6916 761.708,-38.4937 768.941,-28.7981"/>
<polygon fill="midnightblue" stroke="midnightblue" points="741.181,-60.1557 738.006,-70.2639 746.791,-64.3415 741.181,-60.1557"/>
</g>
<!-- Node14 -->
<g id="node9" class="node"><title>Node14</title>
<g id="a_node9"><a xlink:href="pymhrwtasks_8h_source.html" target="_top" xlink:title="py/cxx/tomographerpy\l/pymhrwtasks.h">
<polygon fill="none" stroke="black" points="134.672,-0.5 134.672,-28.5 249.051,-28.5 249.051,-0.5 134.672,-0.5"/>
<text text-anchor="start" x="142.672" y="-16.5" font-family="Helvetica,sans-Serif" font-size="10.00">py/cxx/tomographerpy</text>
<text text-anchor="middle" x="191.862" y="-6.5" font-family="Helvetica,sans-Serif" font-size="10.00">/pymhrwtasks.h</text>
</a>
</g>
</g>
<!-- Node13&#45;&gt;Node14 -->
<g id="edge10" class="edge"><title>Node13&#45;&gt;Node14</title>
<path fill="none" stroke="midnightblue" d="M680.736,-68.7428C672.761,-67.3813 664.601,-66.0807 656.862,-65 497.171,-42.7006 456.051,-47.3801 295.862,-29 280.758,-27.267 264.443,-25.2283 249.313,-23.2676"/>
<polygon fill="midnightblue" stroke="midnightblue" points="680.239,-72.209 690.693,-70.488 681.447,-65.3141 680.239,-72.209"/>
</g>
<!-- Node15 -->
<g id="node10" class="node"><title>Node15</title>
<g id="a_node10"><a xlink:href="pymultiproc_8h_source.html" target="_top" xlink:title="py/cxx/tomographerpy\l/pymultiproc.h">
<polygon fill="none" stroke="black" points="304.672,-0.5 304.672,-28.5 419.051,-28.5 419.051,-0.5 304.672,-0.5"/>
<text text-anchor="start" x="312.672" y="-16.5" font-family="Helvetica,sans-Serif" font-size="10.00">py/cxx/tomographerpy</text>
<text text-anchor="middle" x="361.862" y="-6.5" font-family="Helvetica,sans-Serif" font-size="10.00">/pymultiproc.h</text>
</a>
</g>
</g>
<!-- Node13&#45;&gt;Node15 -->
<g id="edge11" class="edge"><title>Node13&#45;&gt;Node15</title>
<path fill="none" stroke="midnightblue" d="M677.692,-68.6708C670.686,-67.4226 663.605,-66.1726 656.862,-65 574.361,-50.6537 478.75,-34.7411 419.277,-24.9274"/>
<polygon fill="midnightblue" stroke="midnightblue" points="677.396,-72.1734 687.857,-70.4891 678.629,-65.2828 677.396,-72.1734"/>
</g>
<!-- Node17&#45;&gt;Node14 -->
<g id="edge14" class="edge"><title>Node17&#45;&gt;Node14</title>
<path fill="none" stroke="midnightblue" d="M85.0628,-122.52C99.8266,-106.539 120.849,-84.1058 139.862,-65 152.346,-52.4545 166.98,-38.5966 177.538,-28.7422"/>
<polygon fill="midnightblue" stroke="midnightblue" points="82.1557,-120.51 77.9565,-130.237 87.3051,-125.252 82.1557,-120.51"/>
</g>
<!-- Node19&#45;&gt;Node9 -->
<g id="edge29" class="edge"><title>Node19&#45;&gt;Node9</title>
<path fill="none" stroke="midnightblue" d="M374.39,-249.706C415.383,-240.912 468.036,-228.466 513.862,-214 571.486,-195.809 637.235,-167.394 668.099,-153.581"/>
<polygon fill="midnightblue" stroke="midnightblue" points="373.553,-246.305 364.498,-251.805 375.007,-253.153 373.553,-246.305"/>
</g>
<!-- Node19&#45;&gt;Node14 -->
<g id="edge30" class="edge"><title>Node19&#45;&gt;Node14</title>
<path fill="none" stroke="midnightblue" d="M284.404,-242.409C257.051,-212.41 210.325,-154.332 195.862,-94 190.486,-71.5734 190.465,-44.5461 191.071,-28.7662"/>
<polygon fill="midnightblue" stroke="midnightblue" points="282.189,-245.166 291.563,-250.104 287.314,-240.398 282.189,-245.166"/>
</g>
<!-- Node20 -->
<g id="node15" class="node"><title>Node20</title>
<g id="a_node15"><a xlink:href="mhrw_8h.html" target="_top" xlink:title="Routines for performing a Metropolis&#45;Hastings random walk. ">
<polygon fill="none" stroke="black" points="397.005,-195.5 397.005,-213.5 504.719,-213.5 504.719,-195.5 397.005,-195.5"/>
<text text-anchor="middle" x="450.862" y="-201.5" font-family="Helvetica,sans-Serif" font-size="10.00">tomographer/mhrw.h</text>
</a>
</g>
</g>
<!-- Node19&#45;&gt;Node20 -->
<g id="edge17" class="edge"><title>Node19&#45;&gt;Node20</title>
<path fill="none" stroke="midnightblue" d="M346.98,-246.768C374.353,-235.894 408.829,-222.198 430.363,-213.643"/>
<polygon fill="midnightblue" stroke="midnightblue" points="345.628,-243.539 337.627,-250.484 348.213,-250.044 345.628,-243.539"/>
</g>
<!-- Node20&#45;&gt;Node9 -->
<g id="edge20" class="edge"><title>Node20&#45;&gt;Node9</title>
<path fill="none" stroke="midnightblue" d="M493.479,-192.982C539.379,-181.653 611.413,-163.874 653.086,-153.589"/>
<polygon fill="midnightblue" stroke="midnightblue" points="492.408,-189.641 483.538,-195.435 494.085,-196.437 492.408,-189.641"/>
</g>
<!-- Node20&#45;&gt;Node11 -->
<g id="edge19" class="edge"><title>Node20&#45;&gt;Node11</title>
<path fill="none" stroke="midnightblue" d="M514.814,-198.331C581.746,-192.119 689.594,-179.837 780.862,-159 864.302,-139.95 960.068,-104.533 1001.27,-88.6162"/>
<polygon fill="midnightblue" stroke="midnightblue" points="514.478,-194.847 504.837,-199.24 515.113,-201.818 514.478,-194.847"/>
</g>
<!-- Node20&#45;&gt;Node12 -->
<g id="edge21" class="edge"><title>Node20&#45;&gt;Node12</title>
<path fill="none" stroke="midnightblue" d="M514.839,-203.991C673.878,-203.683 1080.13,-193.025 1160.86,-94 1190.81,-57.2681 1118.73,-34.5824 1067.56,-23.5672"/>
<polygon fill="midnightblue" stroke="midnightblue" points="514.725,-200.491 504.727,-203.997 514.729,-207.491 514.725,-200.491"/>
</g>
<!-- Node20&#45;&gt;Node13 -->
<g id="edge22" class="edge"><title>Node20&#45;&gt;Node13</title>
<path fill="none" stroke="midnightblue" d="M473.608,-190.237C500.899,-174.637 548.307,-148.523 590.862,-130 629.874,-113.019 676.768,-97.4802 705.435,-88.5047"/>
<polygon fill="midnightblue" stroke="midnightblue" points="471.756,-187.265 464.835,-195.287 475.248,-193.332 471.756,-187.265"/>
</g>
<!-- Node20&#45;&gt;Node14 -->
<g id="edge27" class="edge"><title>Node20&#45;&gt;Node14</title>
<path fill="none" stroke="midnightblue" d="M386.769,-199.598C347.488,-194.656 297.666,-183.599 259.862,-159 229.538,-139.268 226.328,-126.706 210.862,-94 200.612,-72.3238 195.578,-44.5803 193.365,-28.5466"/>
<polygon fill="midnightblue" stroke="midnightblue" points="386.436,-203.083 396.772,-200.755 387.24,-196.129 386.436,-203.083"/>
</g>
<!-- Node20&#45;&gt;Node15 -->
<g id="edge28" class="edge"><title>Node20&#45;&gt;Node15</title>
<path fill="none" stroke="midnightblue" d="M441.232,-186.483C432.577,-171.421 419.344,-148.95 406.862,-130 396.005,-113.518 389.116,-111.928 380.862,-94 370.834,-72.22 365.725,-44.5114 363.438,-28.5123"/>
<polygon fill="midnightblue" stroke="midnightblue" points="438.21,-188.249 446.205,-195.201 444.29,-184.78 438.21,-188.249"/>
</g>
<!-- Node20&#45;&gt;Node16 -->
<g id="edge23" class="edge"><title>Node20&#45;&gt;Node16</title>
<path fill="none" stroke="midnightblue" d="M460.283,-186.459C475.097,-159.662 503.285,-108.676 514.295,-88.7614"/>
<polygon fill="midnightblue" stroke="midnightblue" points="457.099,-184.985 455.323,-195.43 463.225,-188.371 457.099,-184.985"/>
</g>
<!-- Node21 -->
<g id="node16" class="node"><title>Node21</title>
<g id="a_node16"><a xlink:href="tspacellhwalker_8h.html" target="_top" xlink:title="Definitions for a Metropolis&#45;Hastings random walk on a quantum state space with dense matrix type...">
<polygon fill="none" stroke="black" points="281.554,-130.5 281.554,-158.5 398.169,-158.5 398.169,-130.5 281.554,-130.5"/>
<text text-anchor="start" x="289.554" y="-146.5" font-family="Helvetica,sans-Serif" font-size="10.00">tomographer/densedm</text>
<text text-anchor="middle" x="339.862" y="-136.5" font-family="Helvetica,sans-Serif" font-size="10.00">/tspacellhwalker.h</text>
</a>
</g>
</g>
<!-- Node20&#45;&gt;Node21 -->
<g id="edge18" class="edge"><title>Node20&#45;&gt;Node21</title>
<path fill="none" stroke="midnightblue" d="M426.564,-190.804C408.319,-181.27 383.41,-168.255 364.971,-158.62"/>
<polygon fill="midnightblue" stroke="midnightblue" points="424.944,-193.906 435.428,-195.435 428.186,-187.702 424.944,-193.906"/>
</g>
<!-- Node22 -->
<g id="node17" class="node"><title>Node22</title>
<g id="a_node17"><a xlink:href="pymhrw_8h_source.html" target="_top" xlink:title="py/cxx/tomographerpy\l/pymhrw.h">
<polygon fill="none" stroke="black" points="219.672,-65.5 219.672,-93.5 334.051,-93.5 334.051,-65.5 219.672,-65.5"/>
<text text-anchor="start" x="227.672" y="-81.5" font-family="Helvetica,sans-Serif" font-size="10.00">py/cxx/tomographerpy</text>
<text text-anchor="middle" x="276.862" y="-71.5" font-family="Helvetica,sans-Serif" font-size="10.00">/pymhrw.h</text>
</a>
</g>
</g>
<!-- Node20&#45;&gt;Node22 -->
<g id="edge24" class="edge"><title>Node20&#45;&gt;Node22</title>
<path fill="none" stroke="midnightblue" d="M386.662,-195.795C341.609,-188.914 286.986,-177.09 272.862,-159 258.249,-140.285 265.349,-110.745 271.396,-93.7421"/>
<polygon fill="midnightblue" stroke="midnightblue" points="386.296,-199.279 396.699,-197.272 387.315,-192.353 386.296,-199.279"/>
</g>
<!-- Node22&#45;&gt;Node14 -->
<g id="edge25" class="edge"><title>Node22&#45;&gt;Node14</title>
<path fill="none" stroke="midnightblue" d="M250.871,-59.2361C237.444,-49.2841 221.413,-37.4026 209.451,-28.5369"/>
<polygon fill="midnightblue" stroke="midnightblue" points="249.132,-62.3037 259.25,-65.4464 253.3,-56.6799 249.132,-62.3037"/>
</g>
<!-- Node22&#45;&gt;Node15 -->
<g id="edge26" class="edge"><title>Node22&#45;&gt;Node15</title>
<path fill="none" stroke="midnightblue" d="M302.853,-59.2361C316.28,-49.2841 332.311,-37.4026 344.272,-28.5369"/>
<polygon fill="midnightblue" stroke="midnightblue" points="300.424,-56.6799 294.474,-65.4464 304.592,-62.3037 300.424,-56.6799"/>
</g>
</g>
</svg>
        <g id="navigator" transform="translate(0 0)" fill="#404254">
                <rect fill="#f2f5e9" fill-opacity="0.5" stroke="#606060" stroke-width=".5" x="0" y="0" width="60" height="60"/>
                <use id="zoomplus" xlink:href="#zoomPlus" x="17" y="9" onmousedown="handleZoom(evt,'in')"/>
                <use id="zoomminus" xlink:href="#zoomMin" x="42" y="9" onmousedown="handleZoom(evt,'out')"/>
                <use id="reset" xlink:href="#resetDef" x="30" y="36" onmousedown="handleReset()"/>
                <g id="arrowUp" xlink:href="#dirArrow" transform="translate(30 24)" onmousedown="handlePan(0,-1)">
                  <use xlink:href="#rim" fill="#404040">
                        <set attributeName="fill" to="#808080" begin="arrowUp.mouseover" end="arrowUp.mouseout"/>
                  </use>
                  <path fill="none" stroke="white" stroke-width="1.5" d="M0,-3.0v7 M-2.5,-0.5L0,-3.0L2.5,-0.5"/>
                </g>
                <g id="arrowRight" xlink:href="#dirArrow" transform="rotate(90) translate(36 -43)" onmousedown="handlePan(1,0)">
                  <use xlink:href="#rim" fill="#404040">
                        <set attributeName="fill" to="#808080" begin="arrowRight.mouseover" end="arrowRight.mouseout"/>
                  </use>
                  <path fill="none" stroke="white" stroke-width="1.5" d="M0,-3.0v7 M-2.5,-0.5L0,-3.0L2.5,-0.5"/>
                </g>
                <g id="arrowDown" xlink:href="#dirArrow" transform="rotate(180) translate(-30 -48)" onmousedown="handlePan(0,1)">
                  <use xlink:href="#rim" fill="#404040">
                        <set attributeName="fill" to="#808080" begin="arrowDown.mouseover" end="arrowDown.mouseout"/>
                  </use>
                  <path fill="none" stroke="white" stroke-width="1.5" d="M0,-3.0v7 M-2.5,-0.5L0,-3.0L2.5,-0.5"/>
                </g>
                <g id="arrowLeft" xlink:href="#dirArrow" transform="rotate(270) translate(-36 17)" onmousedown="handlePan(-1,0)">
                  <use xlink:href="#rim" fill="#404040">
                        <set attributeName="fill" to="#808080" begin="arrowLeft.mouseover" end="arrowLeft.mouseout"/>
                  </use>
                  <path fill="none" stroke="white" stroke-width="1.5" d="M0,-3.0v7 M-2.5,-0.5L0,-3.0L2.5,-0.5"/>
                </g>
        </g>
        <svg viewBox="0 0 15 15" width="100%" height="30px" preserveAspectRatio="xMaxYMin meet">
         <g id="arrow_out" transform="scale(0.3 0.3)">
          <a xlink:href="eigenutil_8h__dep__incl_org.svg" target="_base">
           <rect id="button" ry="5" rx="5" y="6" x="6" height="38" width="38"
                fill="#f2f5e9" fill-opacity="0.5" stroke="#606060" stroke-width="1.0"/>
           <path id="arrow"
             d="M 11.500037,31.436501 C 11.940474,20.09759 22.043105,11.32322 32.158766,21.979434 L 37.068811,17.246167 C 37.068811,17.246167 37.088388,32 37.088388,32 L 22.160133,31.978069 C 22.160133,31.978069 26.997745,27.140456 26.997745,27.140456 C 18.528582,18.264221 13.291696,25.230495 11.500037,31.436501 z"
             style="fill:#404040;"/>
          </a>
         </g>
        </svg>
</svg>
