<?xml version="1.0" encoding="UTF-8" standalone="no"?>
<!DOCTYPE svg PUBLIC "-//W3C//DTD SVG 1.1//EN"
 "http://www.w3.org/Graphics/SVG/1.1/DTD/svg11.dtd">
<!-- Generated by graphviz version 2.38.0 (20140413.2041)
 -->
<!-- Title: tomographer/tools/eigen_assert_exception.h Pages: 1 -->
<svg width="792pt" height="232pt"
 viewBox="0.00 0.00 792.38 232.00" xmlns="http://www.w3.org/2000/svg" xmlns:xlink="http://www.w3.org/1999/xlink">
<g id="graph0" class="graph" transform="scale(1 1) rotate(0) translate(4 228)">
<title>tomographer/tools/eigen_assert_exception.h</title>
<!-- Node8 -->
<g id="node1" class="node"><title>Node8</title>
<polygon fill="#bfbfbf" stroke="black" points="297.266,-195.5 297.266,-223.5 421.113,-223.5 421.113,-195.5 297.266,-195.5"/>
<text text-anchor="start" x="305.266" y="-211.5" font-family="Helvetica,sans-Serif" font-size="10.00">tomographer/tools/eigen</text>
<text text-anchor="middle" x="359.189" y="-201.5" font-family="Helvetica,sans-Serif" font-size="10.00">_assert_exception.h</text>
</g>
<!-- Node9 -->
<g id="node2" class="node"><title>Node9</title>
<g id="a_node2"><a xlink:href="common_8h_source.html" target="_top" xlink:title="py/cxx/tomographerpy\l/common.h">
<polygon fill="none" stroke="black" points="302,-130.5 302,-158.5 416.379,-158.5 416.379,-130.5 302,-130.5"/>
<text text-anchor="start" x="310" y="-146.5" font-family="Helvetica,sans-Serif" font-size="10.00">py/cxx/tomographerpy</text>
<text text-anchor="middle" x="359.189" y="-136.5" font-family="Helvetica,sans-Serif" font-size="10.00">/common.h</text>
</a>
</g>
</g>
<!-- Node8&#45;&gt;Node9 -->
<g id="edge1" class="edge"><title>Node8&#45;&gt;Node9</title>
<path fill="none" stroke="midnightblue" d="M359.189,-185.164C359.189,-176.169 359.189,-166.221 359.189,-158.537"/>
<polygon fill="midnightblue" stroke="midnightblue" points="355.69,-185.446 359.189,-195.446 362.69,-185.446 355.69,-185.446"/>
</g>
<!-- Node10 -->
<g id="node3" class="node"><title>Node10</title>
<g id="a_node3"><a xlink:href="exc_8h_source.html" target="_top" xlink:title="py/cxx/tomographerpy\l/exc.h">
<polygon fill="none" stroke="black" points="0,-65.5 0,-93.5 114.379,-93.5 114.379,-65.5 0,-65.5"/>
<text text-anchor="start" x="8" y="-81.5" font-family="Helvetica,sans-Serif" font-size="10.00">py/cxx/tomographerpy</text>
<text text-anchor="middle" x="57.1895" y="-71.5" font-family="Helvetica,sans-Serif" font-size="10.00">/exc.h</text>
</a>
</g>
</g>
<!-- Node9&#45;&gt;Node10 -->
<g id="edge2" class="edge"><title>Node9&#45;&gt;Node10</title>
<path fill="none" stroke="midnightblue" d="M291.639,-129.408C238.372,-118.296 164.909,-102.971 114.49,-92.4534"/>
<polygon fill="midnightblue" stroke="midnightblue" points="291.171,-132.886 301.675,-131.502 292.6,-126.033 291.171,-132.886"/>
</g>
<!-- Node11 -->
<g id="node4" class="node"><title>Node11</title>
<g id="a_node4"><a xlink:href="pydensedm_8h_source.html" target="_top" xlink:title="py/cxx/tomographerpy\l/pydensedm.h">
<polygon fill="none" stroke="black" points="132,-65.5 132,-93.5 246.379,-93.5 246.379,-65.5 132,-65.5"/>
<text text-anchor="start" x="140" y="-81.5" font-family="Helvetica,sans-Serif" font-size="10.00">py/cxx/tomographerpy</text>
<text text-anchor="middle" x="189.189" y="-71.5" font-family="Helvetica,sans-Serif" font-size="10.00">/pydensedm.h</text>
</a>
</g>
</g>
<!-- Node9&#45;&gt;Node11 -->
<g id="edge3" class="edge"><title>Node9&#45;&gt;Node11</title>
<path fill="none" stroke="midnightblue" d="M314.359,-126.886C286.221,-116.459 250.456,-103.205 224.368,-93.5369"/>
<polygon fill="midnightblue" stroke="midnightblue" points="313.372,-130.253 323.965,-130.446 315.805,-123.689 313.372,-130.253"/>
</g>
<!-- Node12 -->
<g id="node5" class="node"><title>Node12</title>
<g id="a_node5"><a xlink:href="pygil_8h_source.html" target="_top" xlink:title="py/cxx/tomographerpy\l/pygil.h">
<polygon fill="none" stroke="black" points="259,-0.5 259,-28.5 373.379,-28.5 373.379,-0.5 259,-0.5"/>
<text text-anchor="start" x="267" y="-16.5" font-family="Helvetica,sans-Serif" font-size="10.00">py/cxx/tomographerpy</text>
<text text-anchor="middle" x="316.189" y="-6.5" font-family="Helvetica,sans-Serif" font-size="10.00">/pygil.h</text>
</a>
</g>
</g>
<!-- Node9&#45;&gt;Node12 -->
<g id="edge4" class="edge"><title>Node9&#45;&gt;Node12</title>
<path fill="none" stroke="midnightblue" d="M322.534,-124.938C310.977,-117.085 299.57,-106.761 293.189,-94 282.329,-72.2794 296.24,-44.5508 306.675,-28.5319"/>
<polygon fill="midnightblue" stroke="midnightblue" points="320.99,-128.101 331.319,-130.46 324.715,-122.175 320.99,-128.101"/>
</g>
<!-- Node13 -->
<g id="node6" class="node"><title>Node13</title>
<g id="a_node6"><a xlink:href="pyhistogram_8h_source.html" target="_top" xlink:title="py/cxx/tomographerpy\l/pyhistogram.h">
<polygon fill="none" stroke="black" points="434,-65.5 434,-93.5 548.379,-93.5 548.379,-65.5 434,-65.5"/>
<text text-anchor="start" x="442" y="-81.5" font-family="Helvetica,sans-Serif" font-size="10.00">py/cxx/tomographerpy</text>
<text text-anchor="middle" x="491.189" y="-71.5" font-family="Helvetica,sans-Serif" font-size="10.00">/pyhistogram.h</text>
</a>
</g>
</g>
<!-- Node9&#45;&gt;Node13 -->
<g id="edge5" class="edge"><title>Node9&#45;&gt;Node13</title>
<path fill="none" stroke="midnightblue" d="M395.728,-126.061C417.297,-115.767 444.148,-102.951 463.874,-93.5369"/>
<polygon fill="midnightblue" stroke="midnightblue" points="394.057,-122.98 386.54,-130.446 397.072,-129.298 394.057,-122.98"/>
</g>
<!-- Node14 -->
<g id="node7" class="node"><title>Node14</title>
<g id="a_node7"><a xlink:href="pymhrwtasks_8h_source.html" target="_top" xlink:title="py/cxx/tomographerpy\l/pymhrwtasks.h">
<polygon fill="none" stroke="black" points="519,-0.5 519,-28.5 633.379,-28.5 633.379,-0.5 519,-0.5"/>
<text text-anchor="start" x="527" y="-16.5" font-family="Helvetica,sans-Serif" font-size="10.00">py/cxx/tomographerpy</text>
<text text-anchor="middle" x="576.189" y="-6.5" font-family="Helvetica,sans-Serif" font-size="10.00">/pymhrwtasks.h</text>
</a>
</g>
</g>
<!-- Node9&#45;&gt;Node14 -->
<g id="edge13" class="edge"><title>Node9&#45;&gt;Node14</title>
<path fill="none" stroke="midnightblue" d="M426.929,-134.175C476.78,-125.954 538.917,-112.411 557.189,-94 574.574,-76.4841 577.035,-45.9491 576.876,-28.5752"/>
<polygon fill="midnightblue" stroke="midnightblue" points="426.138,-130.757 416.82,-135.798 427.248,-137.668 426.138,-130.757"/>
</g>
<!-- Node15 -->
<g id="node8" class="node"><title>Node15</title>
<g id="a_node8"><a xlink:href="pylogger_8h_source.html" target="_top" xlink:title="py/cxx/tomographerpy\l/pylogger.h">
<polygon fill="none" stroke="black" points="302,-65.5 302,-93.5 416.379,-93.5 416.379,-65.5 302,-65.5"/>
<text text-anchor="start" x="310" y="-81.5" font-family="Helvetica,sans-Serif" font-size="10.00">py/cxx/tomographerpy</text>
<text text-anchor="middle" x="359.189" y="-71.5" font-family="Helvetica,sans-Serif" font-size="10.00">/pylogger.h</text>
</a>
</g>
</g>
<!-- Node9&#45;&gt;Node15 -->
<g id="edge7" class="edge"><title>Node9&#45;&gt;Node15</title>
<path fill="none" stroke="midnightblue" d="M352.661,-120.46C352.176,-111.388 352.488,-101.305 353.599,-93.5369"/>
<polygon fill="midnightblue" stroke="midnightblue" points="349.179,-120.817 353.597,-130.446 356.148,-120.163 349.179,-120.817"/>
</g>
<!-- Node16 -->
<g id="node9" class="node"><title>Node16</title>
<g id="a_node9"><a xlink:href="pymhrw_8h_source.html" target="_top" xlink:title="py/cxx/tomographerpy\l/pymhrw.h">
<polygon fill="none" stroke="black" points="604,-65.5 604,-93.5 718.379,-93.5 718.379,-65.5 604,-65.5"/>
<text text-anchor="start" x="612" y="-81.5" font-family="Helvetica,sans-Serif" font-size="10.00">py/cxx/tomographerpy</text>
<text text-anchor="middle" x="661.189" y="-71.5" font-family="Helvetica,sans-Serif" font-size="10.00">/pymhrw.h</text>
</a>
</g>
</g>
<!-- Node9&#45;&gt;Node16 -->
<g id="edge10" class="edge"><title>Node9&#45;&gt;Node16</title>
<path fill="none" stroke="midnightblue" d="M426.74,-129.408C480.007,-118.296 553.47,-102.971 603.889,-92.4534"/>
<polygon fill="midnightblue" stroke="midnightblue" points="425.779,-126.033 416.704,-131.502 427.208,-132.886 425.779,-126.033"/>
</g>
<!-- Node17 -->
<g id="node10" class="node"><title>Node17</title>
<g id="a_node10"><a xlink:href="pymultiproc_8h_source.html" target="_top" xlink:title="py/cxx/tomographerpy\l/pymultiproc.h">
<polygon fill="none" stroke="black" points="670,-0.5 670,-28.5 784.379,-28.5 784.379,-0.5 670,-0.5"/>
<text text-anchor="start" x="678" y="-16.5" font-family="Helvetica,sans-Serif" font-size="10.00">py/cxx/tomographerpy</text>
<text text-anchor="middle" x="727.189" y="-6.5" font-family="Helvetica,sans-Serif" font-size="10.00">/pymultiproc.h</text>
</a>
</g>
</g>
<!-- Node9&#45;&gt;Node17 -->
<g id="edge14" class="edge"><title>Node9&#45;&gt;Node17</title>
<path fill="none" stroke="midnightblue" d="M426.815,-139.161C527.66,-131.992 707.753,-116.226 727.189,-94 742.89,-76.0467 737.125,-45.9558 731.905,-28.7113"/>
<polygon fill="midnightblue" stroke="midnightblue" points="426.445,-135.678 416.715,-139.869 426.935,-142.661 426.445,-135.678"/>
</g>
<!-- Node13&#45;&gt;Node14 -->
<g id="edge6" class="edge"><title>Node13&#45;&gt;Node14</title>
<path fill="none" stroke="midnightblue" d="M517.18,-59.2361C530.608,-49.2841 546.638,-37.4026 558.6,-28.5369"/>
<polygon fill="midnightblue" stroke="midnightblue" points="514.751,-56.6799 508.802,-65.4464 518.92,-62.3037 514.751,-56.6799"/>
</g>
<!-- Node15&#45;&gt;Node9 -->
<g id="edge8" class="edge"><title>Node15&#45;&gt;Node9</title>
<path fill="none" stroke="midnightblue" d="M365.717,-103.52C366.203,-112.591 365.892,-122.675 364.782,-130.446"/>
<polygon fill="midnightblue" stroke="midnightblue" points="369.199,-103.166 364.78,-93.5369 362.23,-103.82 369.199,-103.166"/>
</g>
<!-- Node15&#45;&gt;Node12 -->
<g id="edge9" class="edge"><title>Node15&#45;&gt;Node12</title>
<path fill="none" stroke="midnightblue" d="M344.467,-56.93C338.025,-47.4911 330.678,-36.7272 325.088,-28.5369"/>
<polygon fill="midnightblue" stroke="midnightblue" points="341.752,-59.16 350.28,-65.4464 347.533,-55.2137 341.752,-59.16"/>
</g>
<!-- Node16&#45;&gt;Node14 -->
<g id="edge11" class="edge"><title>Node16&#45;&gt;Node14</title>
<path fill="none" stroke="midnightblue" d="M635.199,-59.2361C621.771,-49.2841 605.741,-37.4026 593.779,-28.5369"/>
<polygon fill="midnightblue" stroke="midnightblue" points="633.459,-62.3037 643.577,-65.4464 637.628,-56.6799 633.459,-62.3037"/>
</g>
<!-- Node16&#45;&gt;Node17 -->
<g id="edge12" class="edge"><title>Node16&#45;&gt;Node17</title>
<path fill="none" stroke="midnightblue" d="M682.269,-58.3785C692.505,-48.6076 704.509,-37.1493 713.532,-28.5369"/>
<polygon fill="midnightblue" stroke="midnightblue" points="679.682,-56.0098 674.865,-65.4464 684.515,-61.0733 679.682,-56.0098"/>
</g>
</g>
</svg>
