<?xml version="1.0" encoding="UTF-8" standalone="no"?>
<!DOCTYPE svg PUBLIC "-//W3C//DTD SVG 1.1//EN"
 "http://www.w3.org/Graphics/SVG/1.1/DTD/svg11.dtd">
<!-- Generated by graphviz version 2.38.0 (20140413.2041)
 -->
<!-- Title: tomographer/tools/ezmatio.h Pages: 1 -->
<svg width="1605pt" height="257pt"
 viewBox="0.00 0.00 1605.05 257.00" xmlns="http://www.w3.org/2000/svg" xmlns:xlink="http://www.w3.org/1999/xlink">
<g id="graph0" class="graph" transform="scale(1 1) rotate(0) translate(4 253)">
<title>tomographer/tools/ezmatio.h</title>
<!-- Node0 -->
<g id="node1" class="node"><title>Node0</title>
<polygon fill="#bfbfbf" stroke="black" points="492.084,-230.5 492.084,-248.5 634.817,-248.5 634.817,-230.5 492.084,-230.5"/>
<text text-anchor="middle" x="563.451" y="-236.5" font-family="Helvetica,sans-Serif" font-size="10.00">tomographer/tools/ezmatio.h</text>
</g>
<!-- Node1 -->
<g id="node2" class="node"><title>Node1</title>
<polygon fill="none" stroke="#bfbfbf" points="0,-170.5 0,-188.5 44.9014,-188.5 44.9014,-170.5 0,-170.5"/>
<text text-anchor="middle" x="22.4507" y="-176.5" font-family="Helvetica,sans-Serif" font-size="10.00">cstdint</text>
</g>
<!-- Node0&#45;&gt;Node1 -->
<g id="edge1" class="edge"><title>Node0&#45;&gt;Node1</title>
<path fill="none" stroke="midnightblue" d="M491.908,-239.207C392.348,-238.629 207.053,-231.864 54.4507,-194 52.4755,-193.51 50.465,-192.914 48.4628,-192.25"/>
<polygon fill="midnightblue" stroke="midnightblue" points="49.3128,-188.828 38.7225,-188.519 46.809,-195.364 49.3128,-188.828"/>
</g>
<!-- Node2 -->
<g id="node3" class="node"><title>Node2</title>
<polygon fill="none" stroke="#bfbfbf" points="63.2783,-170.5 63.2783,-188.5 107.623,-188.5 107.623,-170.5 63.2783,-170.5"/>
<text text-anchor="middle" x="85.4507" y="-176.5" font-family="Helvetica,sans-Serif" font-size="10.00">cerrno</text>
</g>
<!-- Node0&#45;&gt;Node2 -->
<g id="edge2" class="edge"><title>Node0&#45;&gt;Node2</title>
<path fill="none" stroke="midnightblue" d="M491.711,-236.951C403.493,-233.754 249.685,-223.965 121.451,-194 118.948,-193.415 116.384,-192.701 113.834,-191.91"/>
<polygon fill="midnightblue" stroke="midnightblue" points="114.818,-188.547 104.223,-188.584 112.529,-195.162 114.818,-188.547"/>
</g>
<!-- Node3 -->
<g id="node4" class="node"><title>Node3</title>
<polygon fill="none" stroke="#bfbfbf" points="184.833,-55.5 184.833,-73.5 238.069,-73.5 238.069,-55.5 184.833,-55.5"/>
<text text-anchor="middle" x="211.451" y="-61.5" font-family="Helvetica,sans-Serif" font-size="10.00">complex</text>
</g>
<!-- Node0&#45;&gt;Node3 -->
<g id="edge3" class="edge"><title>Node0&#45;&gt;Node3</title>
<path fill="none" stroke="midnightblue" d="M491.7,-234.239C395.252,-227.779 233.7,-214.092 215.451,-194 188.017,-163.796 197.725,-111.201 205.518,-83.5966"/>
<polygon fill="midnightblue" stroke="midnightblue" points="208.956,-84.3203 208.528,-73.7341 202.261,-82.277 208.956,-84.3203"/>
</g>
<!-- Node4 -->
<g id="node5" class="node"><title>Node4</title>
<polygon fill="none" stroke="#bfbfbf" points="1491.22,-0.5 1491.22,-18.5 1531.68,-18.5 1531.68,-0.5 1491.22,-0.5"/>
<text text-anchor="middle" x="1511.45" y="-6.5" font-family="Helvetica,sans-Serif" font-size="10.00">string</text>
</g>
<!-- Node0&#45;&gt;Node4 -->
<g id="edge4" class="edge"><title>Node0&#45;&gt;Node4</title>
<path fill="none" stroke="midnightblue" d="M634.973,-236.509C857.735,-229.553 1527.85,-202.619 1588.45,-129 1617.38,-93.8521 1563.92,-47.4 1532.31,-24.4965"/>
<polygon fill="midnightblue" stroke="midnightblue" points="1534.25,-21.5828 1524.06,-18.6899 1530.22,-27.3074 1534.25,-21.5828"/>
</g>
<!-- Node5 -->
<g id="node6" class="node"><title>Node5</title>
<polygon fill="none" stroke="#bfbfbf" points="512.835,-110.5 512.835,-128.5 556.066,-128.5 556.066,-110.5 512.835,-110.5"/>
<text text-anchor="middle" x="534.451" y="-116.5" font-family="Helvetica,sans-Serif" font-size="10.00">vector</text>
</g>
<!-- Node0&#45;&gt;Node5 -->
<g id="edge5" class="edge"><title>Node0&#45;&gt;Node5</title>
<path fill="none" stroke="midnightblue" d="M560.614,-230.372C557.586,-221.505 552.776,-206.859 549.451,-194 544.618,-175.312 540.353,-153.625 537.618,-138.677"/>
<polygon fill="midnightblue" stroke="midnightblue" points="541.044,-137.95 535.842,-128.721 534.153,-139.18 541.044,-137.95"/>
</g>
<!-- Node6 -->
<g id="node7" class="node"><title>Node6</title>
<polygon fill="none" stroke="#bfbfbf" points="277.887,-170.5 277.887,-188.5 335.015,-188.5 335.015,-170.5 277.887,-170.5"/>
<text text-anchor="middle" x="306.451" y="-176.5" font-family="Helvetica,sans-Serif" font-size="10.00">algorithm</text>
</g>
<!-- Node0&#45;&gt;Node6 -->
<g id="edge6" class="edge"><title>Node0&#45;&gt;Node6</title>
<path fill="none" stroke="midnightblue" d="M513.837,-230.476C469.139,-222.762 401.833,-209.937 344.451,-194 342.117,-193.352 339.72,-192.632 337.32,-191.873"/>
<polygon fill="midnightblue" stroke="midnightblue" points="338.18,-188.469 327.586,-188.603 335.951,-195.105 338.18,-188.469"/>
</g>
<!-- Node7 -->
<g id="node8" class="node"><title>Node7</title>
<polygon fill="none" stroke="#bfbfbf" points="682.278,-55.5 682.278,-73.5 736.623,-73.5 736.623,-55.5 682.278,-55.5"/>
<text text-anchor="middle" x="709.451" y="-61.5" font-family="Helvetica,sans-Serif" font-size="10.00">iostream</text>
</g>
<!-- Node0&#45;&gt;Node7 -->
<g id="edge7" class="edge"><title>Node0&#45;&gt;Node7</title>
<path fill="none" stroke="midnightblue" d="M491.855,-238.001C413.953,-235.758 296.701,-226.832 268.451,-194 244.1,-165.701 243.412,-137.692 268.451,-110 295.336,-80.2653 570.635,-69.4536 672.134,-66.46"/>
<polygon fill="midnightblue" stroke="midnightblue" points="672.342,-69.9556 682.238,-66.1711 672.142,-62.9584 672.342,-69.9556"/>
</g>
<!-- Node8 -->
<g id="node9" class="node"><title>Node8</title>
<polygon fill="none" stroke="#bfbfbf" points="431.049,-55.5 431.049,-73.5 489.852,-73.5 489.852,-55.5 431.049,-55.5"/>
<text text-anchor="middle" x="460.451" y="-61.5" font-family="Helvetica,sans-Serif" font-size="10.00">stdexcept</text>
</g>
<!-- Node0&#45;&gt;Node8 -->
<g id="edge8" class="edge"><title>Node0&#45;&gt;Node8</title>
<path fill="none" stroke="midnightblue" d="M491.935,-239.3C405.648,-238.556 268.057,-231.329 235.451,-194 210.891,-165.883 211.751,-138.846 235.451,-110 258.414,-82.0497 362.119,-71.3583 420.388,-67.5066"/>
<polygon fill="midnightblue" stroke="midnightblue" points="420.947,-70.9787 430.71,-66.8643 420.512,-63.9922 420.947,-70.9787"/>
</g>
<!-- Node9 -->
<g id="node10" class="node"><title>Node9</title>
<polygon fill="none" stroke="#bfbfbf" points="573.67,-110.5 573.67,-128.5 625.231,-128.5 625.231,-110.5 573.67,-110.5"/>
<text text-anchor="middle" x="599.451" y="-116.5" font-family="Helvetica,sans-Serif" font-size="10.00">sstream</text>
</g>
<!-- Node0&#45;&gt;Node9 -->
<g id="edge9" class="edge"><title>Node0&#45;&gt;Node9</title>
<path fill="none" stroke="midnightblue" d="M565.264,-230.257C568.345,-216.572 574.997,-188.354 582.451,-165 585.318,-156.016 589.004,-146.206 592.21,-138.089"/>
<polygon fill="midnightblue" stroke="midnightblue" points="595.541,-139.188 596.04,-128.604 589.05,-136.567 595.541,-139.188"/>
</g>
<!-- Node10 -->
<g id="node11" class="node"><title>Node10</title>
<polygon fill="none" stroke="#bfbfbf" points="591.108,-170.5 591.108,-188.5 663.793,-188.5 663.793,-170.5 591.108,-170.5"/>
<text text-anchor="middle" x="627.451" y="-176.5" font-family="Helvetica,sans-Serif" font-size="10.00">initializer_list</text>
</g>
<!-- Node0&#45;&gt;Node10 -->
<g id="edge10" class="edge"><title>Node0&#45;&gt;Node10</title>
<path fill="none" stroke="midnightblue" d="M572.35,-230.435C582.173,-221.533 598.215,-206.995 610.463,-195.895"/>
<polygon fill="midnightblue" stroke="midnightblue" points="613.153,-198.18 618.213,-188.872 608.453,-192.994 613.153,-198.18"/>
</g>
<!-- Node11 -->
<g id="node12" class="node"><title>Node11</title>
<polygon fill="none" stroke="#bfbfbf" points="643.059,-110.5 643.059,-128.5 681.842,-128.5 681.842,-110.5 643.059,-110.5"/>
<text text-anchor="middle" x="662.451" y="-116.5" font-family="Helvetica,sans-Serif" font-size="10.00">utility</text>
</g>
<!-- Node0&#45;&gt;Node11 -->
<g id="edge11" class="edge"><title>Node0&#45;&gt;Node11</title>
<path fill="none" stroke="midnightblue" d="M614.862,-230.467C636.419,-224.281 659.456,-213.341 672.451,-194 683.644,-177.34 677.501,-153.722 670.983,-137.793"/>
<polygon fill="midnightblue" stroke="midnightblue" points="674.13,-136.259 666.823,-128.587 667.751,-139.141 674.13,-136.259"/>
</g>
<!-- Node12 -->
<g id="node13" class="node"><title>Node12</title>
<polygon fill="none" stroke="#bfbfbf" points="719.054,-170.5 719.054,-188.5 767.847,-188.5 767.847,-170.5 719.054,-170.5"/>
<text text-anchor="middle" x="743.451" y="-176.5" font-family="Helvetica,sans-Serif" font-size="10.00">matio.h</text>
</g>
<!-- Node0&#45;&gt;Node12 -->
<g id="edge12" class="edge"><title>Node0&#45;&gt;Node12</title>
<path fill="none" stroke="midnightblue" d="M590.242,-230.433C618.864,-221.739 665.511,-207.347 705.451,-194 707.343,-193.368 709.285,-192.709 711.242,-192.037"/>
<polygon fill="midnightblue" stroke="midnightblue" points="712.705,-195.234 720.994,-188.636 710.399,-188.624 712.705,-195.234"/>
</g>
<!-- Node13 -->
<g id="node14" class="node"><title>Node13</title>
<polygon fill="none" stroke="#bfbfbf" points="827.436,-55.5 827.436,-73.5 893.465,-73.5 893.465,-55.5 827.436,-55.5"/>
<text text-anchor="middle" x="860.451" y="-61.5" font-family="Helvetica,sans-Serif" font-size="10.00">Eigen/Core</text>
</g>
<!-- Node0&#45;&gt;Node13 -->
<g id="edge13" class="edge"><title>Node0&#45;&gt;Node13</title>
<path fill="none" stroke="midnightblue" d="M635.08,-234.691C762.312,-226.145 1018.79,-200.27 1065.45,-129 1070.08,-121.935 1070.75,-116.574 1065.45,-110 1055.34,-97.4552 961.226,-80.9868 904.094,-72.0159"/>
<polygon fill="midnightblue" stroke="midnightblue" points="904.304,-68.5066 893.885,-70.4307 903.229,-75.4237 904.304,-68.5066"/>
</g>
<!-- Node14 -->
<g id="node15" class="node"><title>Node14</title>
<g id="a_node15"><a xlink:href="cxxutil_8h.html" target="_top" xlink:title="Some C++ utilities, with a tad of C++11 tricks. ">
<polygon fill="none" stroke="black" points="1150.7,-110.5 1150.7,-128.5 1286.2,-128.5 1286.2,-110.5 1150.7,-110.5"/>
<text text-anchor="middle" x="1218.45" y="-116.5" font-family="Helvetica,sans-Serif" font-size="10.00">tomographer/tools/cxxutil.h</text>
</a>
</g>
</g>
<!-- Node0&#45;&gt;Node14 -->
<g id="edge14" class="edge"><title>Node0&#45;&gt;Node14</title>
<path fill="none" stroke="midnightblue" d="M634.963,-239.18C800.449,-240.004 1198.8,-237.41 1239.45,-194 1253.99,-178.47 1242.09,-153.567 1231.15,-137.121"/>
<polygon fill="midnightblue" stroke="midnightblue" points="1234,-135.088 1225.35,-128.967 1228.3,-139.145 1234,-135.088"/>
</g>
<!-- Node23 -->
<g id="node24" class="node"><title>Node23</title>
<g id="a_node24"><a xlink:href="eigenutil_8h.html" target="_top" xlink:title="Basic utilities for dealing with Eigen matrices and other types. ">
<polygon fill="none" stroke="black" points="352.966,-170.5 352.966,-188.5 497.936,-188.5 497.936,-170.5 352.966,-170.5"/>
<text text-anchor="middle" x="425.451" y="-176.5" font-family="Helvetica,sans-Serif" font-size="10.00">tomographer/tools/eigenutil.h</text>
</a>
</g>
</g>
<!-- Node0&#45;&gt;Node23 -->
<g id="edge31" class="edge"><title>Node0&#45;&gt;Node23</title>
<path fill="none" stroke="midnightblue" d="M544.262,-230.435C520.913,-220.622 481.268,-203.959 454.25,-192.604"/>
<polygon fill="midnightblue" stroke="midnightblue" points="455.496,-189.331 444.921,-188.683 452.784,-195.784 455.496,-189.331"/>
</g>
<!-- Node26 -->
<g id="node27" class="node"><title>Node26</title>
<g id="a_node27"><a xlink:href="fmt_8h.html" target="_top" xlink:title="Utilities for formatting strings. ">
<polygon fill="none" stroke="black" points="785.648,-170.5 785.648,-188.5 907.253,-188.5 907.253,-170.5 785.648,-170.5"/>
<text text-anchor="middle" x="846.451" y="-176.5" font-family="Helvetica,sans-Serif" font-size="10.00">tomographer/tools/fmt.h</text>
</a>
</g>
</g>
<!-- Node0&#45;&gt;Node26 -->
<g id="edge37" class="edge"><title>Node0&#45;&gt;Node26</title>
<path fill="none" stroke="midnightblue" d="M602.503,-230.496C653.321,-220.081 742.133,-201.879 797.427,-190.547"/>
<polygon fill="midnightblue" stroke="midnightblue" points="798.251,-193.951 807.345,-188.515 796.845,-187.094 798.251,-193.951"/>
</g>
<!-- Node32 -->
<g id="node33" class="node"><title>Node32</title>
<g id="a_node33"><a xlink:href="pos__semidef__util_8h.html" target="_top" xlink:title="Tools for dealing with positive semidefinite matrices. ">
<polygon fill="none" stroke="black" points="1112.03,-165.5 1112.03,-193.5 1230.87,-193.5 1230.87,-165.5 1112.03,-165.5"/>
<text text-anchor="start" x="1120.03" y="-181.5" font-family="Helvetica,sans-Serif" font-size="10.00">tomographer/mathtools</text>
<text text-anchor="middle" x="1171.45" y="-171.5" font-family="Helvetica,sans-Serif" font-size="10.00">/pos_semidef_util.h</text>
</a>
</g>
</g>
<!-- Node0&#45;&gt;Node32 -->
<g id="edge49" class="edge"><title>Node0&#45;&gt;Node32</title>
<path fill="none" stroke="midnightblue" d="M635.088,-234.821C737.957,-229.021 933.321,-216.08 1098.45,-194 1099.54,-193.855 1100.63,-193.704 1101.73,-193.549"/>
<polygon fill="midnightblue" stroke="midnightblue" points="1102.4,-196.988 1111.77,-192.039 1101.36,-190.066 1102.4,-196.988"/>
</g>
<!-- Node14&#45;&gt;Node3 -->
<g id="edge19" class="edge"><title>Node14&#45;&gt;Node3</title>
<path fill="none" stroke="midnightblue" d="M1150.67,-114.684C1124.09,-113.201 1093.34,-111.502 1065.45,-110 749.215,-92.9766 367.049,-73.4261 248.39,-67.3793"/>
<polygon fill="midnightblue" stroke="midnightblue" points="248.54,-63.8826 238.375,-66.8692 248.184,-70.8735 248.54,-63.8826"/>
</g>
<!-- Node14&#45;&gt;Node7 -->
<g id="edge18" class="edge"><title>Node14&#45;&gt;Node7</title>
<path fill="none" stroke="midnightblue" d="M1150.6,-111.435C1041.86,-100.112 832.158,-78.277 746.885,-69.3978"/>
<polygon fill="midnightblue" stroke="midnightblue" points="747.189,-65.9107 736.88,-68.3561 746.464,-72.8731 747.189,-65.9107"/>
</g>
<!-- Node14&#45;&gt;Node8 -->
<g id="edge22" class="edge"><title>Node14&#45;&gt;Node8</title>
<path fill="none" stroke="midnightblue" d="M1150.52,-113.75C996.039,-102.949 622.363,-76.821 499.981,-68.264"/>
<polygon fill="midnightblue" stroke="midnightblue" points="500.152,-64.7675 489.932,-67.5614 499.664,-71.7504 500.152,-64.7675"/>
</g>
<!-- Node14&#45;&gt;Node13 -->
<g id="edge30" class="edge"><title>Node14&#45;&gt;Node13</title>
<path fill="none" stroke="midnightblue" d="M1157.57,-110.462C1094.8,-102.018 994.136,-88.0354 907.451,-74 906.184,-73.795 904.9,-73.5837 903.603,-73.3677"/>
<polygon fill="midnightblue" stroke="midnightblue" points="903.996,-69.8841 893.549,-71.6435 902.813,-76.7834 903.996,-69.8841"/>
</g>
<!-- Node15 -->
<g id="node16" class="node"><title>Node15</title>
<polygon fill="none" stroke="#bfbfbf" points="905.335,-0.5 905.335,-18.5 953.566,-18.5 953.566,-0.5 905.335,-0.5"/>
<text text-anchor="middle" x="929.451" y="-6.5" font-family="Helvetica,sans-Serif" font-size="10.00">cassert</text>
</g>
<!-- Node14&#45;&gt;Node15 -->
<g id="edge15" class="edge"><title>Node14&#45;&gt;Node15</title>
<path fill="none" stroke="midnightblue" d="M1156.89,-110.483C1077.36,-99.8585 948.125,-81.5763 940.451,-74 928.765,-62.4633 926.863,-43.2837 927.367,-29.0164"/>
<polygon fill="midnightblue" stroke="midnightblue" points="930.871,-29.106 928.146,-18.8674 923.891,-28.57 930.871,-29.106"/>
</g>
<!-- Node16 -->
<g id="node17" class="node"><title>Node16</title>
<polygon fill="none" stroke="#bfbfbf" points="1096.33,-0.5 1096.33,-18.5 1144.57,-18.5 1144.57,-0.5 1096.33,-0.5"/>
<text text-anchor="middle" x="1120.45" y="-6.5" font-family="Helvetica,sans-Serif" font-size="10.00">cstddef</text>
</g>
<!-- Node14&#45;&gt;Node16 -->
<g id="edge16" class="edge"><title>Node14&#45;&gt;Node16</title>
<path fill="none" stroke="midnightblue" d="M1214.89,-110.414C1209.01,-97.6599 1196.32,-72.5213 1180.45,-55 1169.63,-43.0505 1155.17,-32.213 1143.16,-24.2253"/>
<polygon fill="midnightblue" stroke="midnightblue" points="1144.85,-21.1563 1134.55,-18.7013 1141.07,-27.0477 1144.85,-21.1563"/>
</g>
<!-- Node17 -->
<g id="node18" class="node"><title>Node17</title>
<polygon fill="none" stroke="#bfbfbf" points="1197.28,-0.5 1197.28,-18.5 1241.62,-18.5 1241.62,-0.5 1197.28,-0.5"/>
<text text-anchor="middle" x="1219.45" y="-6.5" font-family="Helvetica,sans-Serif" font-size="10.00">cstdlib</text>
</g>
<!-- Node14&#45;&gt;Node17 -->
<g id="edge17" class="edge"><title>Node14&#45;&gt;Node17</title>
<path fill="none" stroke="midnightblue" d="M1218.53,-110.382C1218.69,-93.1822 1219.06,-52.698 1219.28,-28.8866"/>
<polygon fill="midnightblue" stroke="midnightblue" points="1222.78,-28.7438 1219.37,-18.7118 1215.78,-28.6789 1222.78,-28.7438"/>
</g>
<!-- Node18 -->
<g id="node19" class="node"><title>Node18</title>
<polygon fill="none" stroke="#bfbfbf" points="1109.38,-55.5 1109.38,-73.5 1171.52,-73.5 1171.52,-55.5 1109.38,-55.5"/>
<text text-anchor="middle" x="1140.45" y="-61.5" font-family="Helvetica,sans-Serif" font-size="10.00">type_traits</text>
</g>
<!-- Node14&#45;&gt;Node18 -->
<g id="edge20" class="edge"><title>Node14&#45;&gt;Node18</title>
<path fill="none" stroke="midnightblue" d="M1206.6,-110.45C1194.46,-102.201 1175.35,-89.2158 1160.79,-79.3187"/>
<polygon fill="midnightblue" stroke="midnightblue" points="1162.65,-76.3506 1152.41,-73.6253 1158.71,-82.1405 1162.65,-76.3506"/>
</g>
<!-- Node19 -->
<g id="node20" class="node"><title>Node19</title>
<polygon fill="none" stroke="#bfbfbf" points="1265.05,-55.5 1265.05,-73.5 1323.85,-73.5 1323.85,-55.5 1265.05,-55.5"/>
<text text-anchor="middle" x="1294.45" y="-61.5" font-family="Helvetica,sans-Serif" font-size="10.00">exception</text>
</g>
<!-- Node14&#45;&gt;Node19 -->
<g id="edge21" class="edge"><title>Node14&#45;&gt;Node19</title>
<path fill="none" stroke="midnightblue" d="M1229.99,-110.45C1241.71,-102.279 1260.09,-89.4604 1274.23,-79.5996"/>
<polygon fill="midnightblue" stroke="midnightblue" points="1276.6,-82.2163 1282.8,-73.6253 1272.59,-76.4746 1276.6,-82.2163"/>
</g>
<!-- Node20 -->
<g id="node21" class="node"><title>Node20</title>
<g id="a_node21"><a xlink:href="cxxdefs_8h.html" target="_top" xlink:title="Basic definitions, which may have to be defined before any Eigen headers or further utilities are inc...">
<polygon fill="none" stroke="black" points="949.641,-55.5 949.641,-73.5 1091.26,-73.5 1091.26,-55.5 949.641,-55.5"/>
<text text-anchor="middle" x="1020.45" y="-61.5" font-family="Helvetica,sans-Serif" font-size="10.00">tomographer/tools/cxxdefs.h</text>
</a>
</g>
</g>
<!-- Node14&#45;&gt;Node20 -->
<g id="edge23" class="edge"><title>Node14&#45;&gt;Node20</title>
<path fill="none" stroke="midnightblue" d="M1188.38,-110.45C1154.12,-101.279 1097.99,-86.2555 1060.16,-76.1283"/>
<polygon fill="midnightblue" stroke="midnightblue" points="1061.05,-72.7431 1050.48,-73.5383 1059.24,-79.5051 1061.05,-72.7431"/>
</g>
<!-- Node22 -->
<g id="node23" class="node"><title>Node22</title>
<g id="a_node23"><a xlink:href="conststr_8h.html" target="_top" xlink:title="A constexpr string type, suitable for basic compile&#45;time string processing. ">
<polygon fill="none" stroke="black" points="1341.36,-55.5 1341.36,-73.5 1483.54,-73.5 1483.54,-55.5 1341.36,-55.5"/>
<text text-anchor="middle" x="1412.45" y="-61.5" font-family="Helvetica,sans-Serif" font-size="10.00">tomographer/tools/conststr.h</text>
</a>
</g>
</g>
<!-- Node14&#45;&gt;Node22 -->
<g id="edge28" class="edge"><title>Node14&#45;&gt;Node22</title>
<path fill="none" stroke="midnightblue" d="M1247.92,-110.45C1281.34,-101.318 1336.01,-86.3833 1373.07,-76.2578"/>
<polygon fill="midnightblue" stroke="midnightblue" points="1374.3,-79.55 1383.03,-73.5383 1372.46,-72.7975 1374.3,-79.55"/>
</g>
<!-- Node20&#45;&gt;Node15 -->
<g id="edge24" class="edge"><title>Node20&#45;&gt;Node15</title>
<path fill="none" stroke="midnightblue" d="M1006.63,-55.4504C992.198,-47.0453 969.326,-33.7241 952.221,-23.7618"/>
<polygon fill="midnightblue" stroke="midnightblue" points="953.804,-20.6337 943.402,-18.6253 950.281,-26.6826 953.804,-20.6337"/>
</g>
<!-- Node20&#45;&gt;Node16 -->
<g id="edge25" class="edge"><title>Node20&#45;&gt;Node16</title>
<path fill="none" stroke="midnightblue" d="M1035.64,-55.4504C1051.72,-46.9286 1077.33,-33.3532 1096.21,-23.3487"/>
<polygon fill="midnightblue" stroke="midnightblue" points="1097.92,-26.4008 1105.12,-18.6253 1094.65,-20.2158 1097.92,-26.4008"/>
</g>
<!-- Node20&#45;&gt;Node17 -->
<g id="edge26" class="edge"><title>Node20&#45;&gt;Node17</title>
<path fill="none" stroke="midnightblue" d="M1050.67,-55.4504C1087.45,-45.6567 1149.28,-29.1883 1187.02,-19.1365"/>
<polygon fill="midnightblue" stroke="midnightblue" points="1188.23,-22.4381 1196.99,-16.4824 1186.42,-15.6739 1188.23,-22.4381"/>
</g>
<!-- Node21 -->
<g id="node22" class="node"><title>Node21</title>
<polygon fill="none" stroke="#bfbfbf" points="980.483,-0.5 980.483,-18.5 1060.42,-18.5 1060.42,-0.5 980.483,-0.5"/>
<text text-anchor="middle" x="1020.45" y="-6.5" font-family="Helvetica,sans-Serif" font-size="10.00">boost/predef.h</text>
</g>
<!-- Node20&#45;&gt;Node21 -->
<g id="edge27" class="edge"><title>Node20&#45;&gt;Node21</title>
<path fill="none" stroke="midnightblue" d="M1020.45,-55.2188C1020.45,-48.1769 1020.45,-37.8083 1020.45,-28.8277"/>
<polygon fill="midnightblue" stroke="midnightblue" points="1023.95,-28.5495 1020.45,-18.5496 1016.95,-28.5496 1023.95,-28.5495"/>
</g>
<!-- Node22&#45;&gt;Node4 -->
<g id="edge29" class="edge"><title>Node22&#45;&gt;Node4</title>
<path fill="none" stroke="midnightblue" d="M1427.49,-55.4504C1443.4,-46.9286 1468.76,-33.3532 1487.45,-23.3487"/>
<polygon fill="midnightblue" stroke="midnightblue" points="1489.11,-26.4308 1496.27,-18.6253 1485.81,-20.2595 1489.11,-26.4308"/>
</g>
<!-- Node23&#45;&gt;Node3 -->
<g id="edge32" class="edge"><title>Node23&#45;&gt;Node3</title>
<path fill="none" stroke="midnightblue" d="M378.324,-170.492C345.574,-163.352 301.965,-150.593 268.451,-129 249.45,-116.758 232.85,-96.5516 222.539,-82.2234"/>
<polygon fill="midnightblue" stroke="midnightblue" points="225.278,-80.0307 216.71,-73.7994 219.522,-84.0141 225.278,-80.0307"/>
</g>
<!-- Node23&#45;&gt;Node5 -->
<g id="edge33" class="edge"><title>Node23&#45;&gt;Node5</title>
<path fill="none" stroke="midnightblue" d="M440.607,-170.435C458.564,-160.88 488.724,-144.832 509.998,-133.511"/>
<polygon fill="midnightblue" stroke="midnightblue" points="511.888,-136.47 519.072,-128.683 508.6,-130.291 511.888,-136.47"/>
</g>
<!-- Node23&#45;&gt;Node13 -->
<g id="edge34" class="edge"><title>Node23&#45;&gt;Node13</title>
<path fill="none" stroke="midnightblue" d="M431.72,-170.456C443.794,-155.623 471.888,-124.183 503.451,-110 531.571,-97.3639 728.655,-77.7504 817.36,-69.4375"/>
<polygon fill="midnightblue" stroke="midnightblue" points="817.738,-72.9176 827.37,-68.5044 817.088,-65.9478 817.738,-72.9176"/>
</g>
<!-- Node24 -->
<g id="node25" class="node"><title>Node24</title>
<polygon fill="none" stroke="#bfbfbf" points="277.82,-110.5 277.82,-128.5 351.081,-128.5 351.081,-110.5 277.82,-110.5"/>
<text text-anchor="middle" x="314.451" y="-116.5" font-family="Helvetica,sans-Serif" font-size="10.00">Eigen/Dense</text>
</g>
<!-- Node23&#45;&gt;Node24 -->
<g id="edge35" class="edge"><title>Node23&#45;&gt;Node24</title>
<path fill="none" stroke="midnightblue" d="M410.017,-170.435C391.647,-160.837 360.739,-144.687 339.059,-133.359"/>
<polygon fill="midnightblue" stroke="midnightblue" points="340.595,-130.212 330.112,-128.683 337.354,-136.416 340.595,-130.212"/>
</g>
<!-- Node25 -->
<g id="node26" class="node"><title>Node25</title>
<polygon fill="none" stroke="#bfbfbf" points="368.591,-110.5 368.591,-128.5 456.31,-128.5 456.31,-110.5 368.591,-110.5"/>
<text text-anchor="middle" x="412.451" y="-116.5" font-family="Helvetica,sans-Serif" font-size="10.00">Eigen/StdVector</text>
</g>
<!-- Node23&#45;&gt;Node25 -->
<g id="edge36" class="edge"><title>Node23&#45;&gt;Node25</title>
<path fill="none" stroke="midnightblue" d="M423.643,-170.435C421.82,-162.304 418.944,-149.469 416.563,-138.848"/>
<polygon fill="midnightblue" stroke="midnightblue" points="419.93,-137.864 414.327,-128.872 413.099,-139.395 419.93,-137.864"/>
</g>
<!-- Node26&#45;&gt;Node4 -->
<g id="edge41" class="edge"><title>Node26&#45;&gt;Node4</title>
<path fill="none" stroke="midnightblue" d="M907.562,-174.92C994.4,-169.121 1158.2,-155.542 1295.45,-129 1384.7,-111.74 1427.58,-137.682 1492.45,-74 1504.5,-62.1688 1508.98,-43.0323 1510.61,-28.8556"/>
<polygon fill="midnightblue" stroke="midnightblue" points="1514.11,-29.0252 1511.39,-18.7837 1507.13,-28.4818 1514.11,-29.0252"/>
</g>
<!-- Node26&#45;&gt;Node5 -->
<g id="edge45" class="edge"><title>Node26&#45;&gt;Node5</title>
<path fill="none" stroke="midnightblue" d="M805.763,-170.494C796.159,-168.648 785.95,-166.722 776.451,-165 685.535,-148.516 659.392,-149.938 566.182,-129.211"/>
<polygon fill="midnightblue" stroke="midnightblue" points="566.86,-125.776 556.336,-126.995 565.323,-132.605 566.86,-125.776"/>
</g>
<!-- Node26&#45;&gt;Node7 -->
<g id="edge43" class="edge"><title>Node26&#45;&gt;Node7</title>
<path fill="none" stroke="midnightblue" d="M804.87,-170.496C779.514,-163.571 748.276,-151.057 728.451,-129 717.273,-116.564 712.663,-97.7861 710.766,-83.8731"/>
<polygon fill="midnightblue" stroke="midnightblue" points="714.213,-83.1741 709.726,-73.5763 707.249,-83.8774 714.213,-83.1741"/>
</g>
<!-- Node26&#45;&gt;Node9 -->
<g id="edge42" class="edge"><title>Node26&#45;&gt;Node9</title>
<path fill="none" stroke="midnightblue" d="M811.54,-170.449C771.474,-161.186 703.522,-145.41 635.475,-129.228"/>
<polygon fill="midnightblue" stroke="midnightblue" points="635.977,-125.75 625.438,-126.838 634.356,-132.559 635.977,-125.75"/>
</g>
<!-- Node26&#45;&gt;Node11 -->
<g id="edge44" class="edge"><title>Node26&#45;&gt;Node11</title>
<path fill="none" stroke="midnightblue" d="M820.866,-170.435C786.984,-159.755 727.366,-140.962 691.725,-129.728"/>
<polygon fill="midnightblue" stroke="midnightblue" points="692.508,-126.305 681.919,-126.637 690.404,-132.981 692.508,-126.305"/>
</g>
<!-- Node26&#45;&gt;Node14 -->
<g id="edge48" class="edge"><title>Node26&#45;&gt;Node14</title>
<path fill="none" stroke="midnightblue" d="M897.785,-170.496C965.554,-159.93 1084.73,-141.349 1157.15,-130.058"/>
<polygon fill="midnightblue" stroke="midnightblue" points="1157.7,-133.514 1167.05,-128.515 1156.63,-126.597 1157.7,-133.514"/>
</g>
<!-- Node27 -->
<g id="node28" class="node"><title>Node27</title>
<polygon fill="none" stroke="#bfbfbf" points="737.389,-110.5 737.389,-128.5 779.512,-128.5 779.512,-110.5 737.389,-110.5"/>
<text text-anchor="middle" x="758.451" y="-116.5" font-family="Helvetica,sans-Serif" font-size="10.00">cstdio</text>
</g>
<!-- Node26&#45;&gt;Node27 -->
<g id="edge38" class="edge"><title>Node26&#45;&gt;Node27</title>
<path fill="none" stroke="midnightblue" d="M834.215,-170.435C820.109,-161.138 796.676,-145.694 779.6,-134.439"/>
<polygon fill="midnightblue" stroke="midnightblue" points="781.142,-131.264 770.866,-128.683 777.29,-137.109 781.142,-131.264"/>
</g>
<!-- Node28 -->
<g id="node29" class="node"><title>Node28</title>
<polygon fill="none" stroke="#bfbfbf" points="797.054,-110.5 797.054,-128.5 845.847,-128.5 845.847,-110.5 797.054,-110.5"/>
<text text-anchor="middle" x="821.451" y="-116.5" font-family="Helvetica,sans-Serif" font-size="10.00">cstdarg</text>
</g>
<!-- Node26&#45;&gt;Node28 -->
<g id="edge39" class="edge"><title>Node26&#45;&gt;Node28</title>
<path fill="none" stroke="midnightblue" d="M842.975,-170.435C839.396,-162.132 833.704,-148.927 829.072,-138.181"/>
<polygon fill="midnightblue" stroke="midnightblue" points="832.232,-136.67 825.059,-128.872 825.803,-139.44 832.232,-136.67"/>
</g>
<!-- Node29 -->
<g id="node30" class="node"><title>Node29</title>
<polygon fill="none" stroke="#bfbfbf" points="864.163,-110.5 864.163,-128.5 910.739,-128.5 910.739,-110.5 864.163,-110.5"/>
<text text-anchor="middle" x="887.451" y="-116.5" font-family="Helvetica,sans-Serif" font-size="10.00">chrono</text>
</g>
<!-- Node26&#45;&gt;Node29 -->
<g id="edge40" class="edge"><title>Node26&#45;&gt;Node29</title>
<path fill="none" stroke="midnightblue" d="M852.152,-170.435C858.202,-161.876 867.937,-148.105 875.652,-137.191"/>
<polygon fill="midnightblue" stroke="midnightblue" points="878.618,-139.058 881.533,-128.872 872.902,-135.017 878.618,-139.058"/>
</g>
<!-- Node30 -->
<g id="node31" class="node"><title>Node30</title>
<polygon fill="none" stroke="#bfbfbf" points="928.941,-110.5 928.941,-128.5 979.96,-128.5 979.96,-110.5 928.941,-110.5"/>
<text text-anchor="middle" x="954.451" y="-116.5" font-family="Helvetica,sans-Serif" font-size="10.00">iomanip</text>
</g>
<!-- Node26&#45;&gt;Node30 -->
<g id="edge46" class="edge"><title>Node26&#45;&gt;Node30</title>
<path fill="none" stroke="midnightblue" d="M861.468,-170.435C879.26,-160.88 909.144,-144.832 930.223,-133.511"/>
<polygon fill="midnightblue" stroke="midnightblue" points="932.059,-136.498 939.213,-128.683 928.747,-130.331 932.059,-136.498"/>
</g>
<!-- Node31 -->
<g id="node32" class="node"><title>Node31</title>
<polygon fill="none" stroke="#bfbfbf" points="998.047,-110.5 998.047,-128.5 1056.85,-128.5 1056.85,-110.5 998.047,-110.5"/>
<text text-anchor="middle" x="1027.45" y="-116.5" font-family="Helvetica,sans-Serif" font-size="10.00">functional</text>
</g>
<!-- Node26&#45;&gt;Node31 -->
<g id="edge47" class="edge"><title>Node26&#45;&gt;Node31</title>
<path fill="none" stroke="midnightblue" d="M871.618,-170.435C903.003,-160.378 956.836,-143.128 992.285,-131.769"/>
<polygon fill="midnightblue" stroke="midnightblue" points="993.751,-134.974 1002.21,-128.589 991.615,-128.308 993.751,-134.974"/>
</g>
<!-- Node32&#45;&gt;Node13 -->
<g id="edge50" class="edge"><title>Node32&#45;&gt;Node13</title>
<path fill="none" stroke="midnightblue" d="M1161.42,-165.304C1148.62,-149.488 1124.96,-123.439 1098.45,-110 1081.36,-101.335 967.862,-82.436 903.97,-72.2789"/>
<polygon fill="midnightblue" stroke="midnightblue" points="904.21,-68.7734 893.786,-70.6671 903.116,-75.6873 904.21,-68.7734"/>
</g>
<!-- Node32&#45;&gt;Node14 -->
<g id="edge52" class="edge"><title>Node32&#45;&gt;Node14</title>
<path fill="none" stroke="midnightblue" d="M1182.12,-165.339C1189.01,-156.829 1198.04,-145.693 1205.36,-136.649"/>
<polygon fill="midnightblue" stroke="midnightblue" points="1208.17,-138.744 1211.75,-128.771 1202.73,-134.337 1208.17,-138.744"/>
</g>
<!-- Node33 -->
<g id="node34" class="node"><title>Node33</title>
<polygon fill="none" stroke="#bfbfbf" points="1481.03,-110.5 1481.03,-128.5 1579.87,-128.5 1579.87,-110.5 1481.03,-110.5"/>
<text text-anchor="middle" x="1530.45" y="-116.5" font-family="Helvetica,sans-Serif" font-size="10.00">Eigen/Eigenvalues</text>
</g>
<!-- Node32&#45;&gt;Node33 -->
<g id="edge51" class="edge"><title>Node32&#45;&gt;Node33</title>
<path fill="none" stroke="midnightblue" d="M1231.14,-168.857C1297.61,-158.118 1404.42,-140.862 1470.85,-130.128"/>
<polygon fill="midnightblue" stroke="midnightblue" points="1471.44,-133.579 1480.76,-128.529 1470.33,-126.669 1471.44,-133.579"/>
</g>
</g>
</svg>
