<?xml version="1.0" encoding="UTF-8" standalone="no"?>
<!DOCTYPE svg PUBLIC "-//W3C//DTD SVG 1.1//EN"
 "http://www.w3.org/Graphics/SVG/1.1/DTD/svg11.dtd">
<!-- Generated by graphviz version 2.38.0 (20140413.2041)
 -->
<!-- Title: tomographer/tools/fmt.h Pages: 1 -->
<!--zoomable 417 -->
<svg id="main" version="1.1" xmlns="http://www.w3.org/2000/svg" xmlns:xlink="http://www.w3.org/1999/xlink" xml:space="preserve" onload="init(evt)">
<style type="text/css"><![CDATA[
.edge:hover path { stroke: red; }
.edge:hover polygon { stroke: red; fill: red; }
]]></style>
<script type="text/javascript"><![CDATA[
var edges = document.getElementsByTagName('g');
if (edges && edges.length) {
  for (var i=0;i<edges.length;i++) {
    if (edges[i].id.substr(0,4)=='edge') {
      edges[i].setAttribute('class','edge');
    }
  }
}
]]></script>
        <defs>
                <circle id="rim" cx="0" cy="0" r="7"/>
                <circle id="rim2" cx="0" cy="0" r="3.5"/>
                <g id="zoomPlus">
                        <use xlink:href="#rim" fill="#404040">
                                <set attributeName="fill" to="#808080" begin="zoomplus.mouseover" end="zoomplus.mouseout"/>
                        </use>
                        <path d="M-4,0h8M0,-4v8" fill="none" stroke="white" stroke-width="1.5" pointer-events="none"/>
                </g>
                <g id="zoomMin">
                        <use xlink:href="#rim" fill="#404040">
                                <set attributeName="fill" to="#808080" begin="zoomminus.mouseover" end="zoomminus.mouseout"/>
                        </use>
                        <path d="M-4,0h8" fill="none" stroke="white" stroke-width="1.5" pointer-events="none"/>
                </g>
                <g id="dirArrow">
                        <path fill="none" stroke="white" stroke-width="1.5" d="M0,-3.0v7 M-2.5,-0.5L0,-3.0L2.5,-0.5"/>
                </g>
               <g id="resetDef">
                       <use xlink:href="#rim2" fill="#404040">
                               <set attributeName="fill" to="#808080" begin="reset.mouseover" end="reset.mouseout"/>
                       </use>
               </g>
        </defs>

<script type="text/javascript">
var viewWidth = 2207;
var viewHeight = 417;
var sectionId = 'dynsection-1';
</script>
<script xlink:href="svgpan.js"/>
<svg id="graph" class="graph">
<g id="viewport">
<title>tomographer/tools/fmt.h</title>
<!-- Node23 -->
<g id="node1" class="node"><title>Node23</title>
<polygon fill="#bfbfbf" stroke="black" points="1182.2,-390.5 1182.2,-408.5 1303.8,-408.5 1303.8,-390.5 1182.2,-390.5"/>
<text text-anchor="middle" x="1243" y="-396.5" font-family="Helvetica,sans-Serif" font-size="10.00">tomographer/tools/fmt.h</text>
</g>
<!-- Node24 -->
<g id="node2" class="node"><title>Node24</title>
<g id="a_node2"><a xlink:href="indepmeasllh_8h.html" target="_top" xlink:title="C++ types and functions for calculating the log&#45;likelihood for independent measurements. ">
<polygon fill="none" stroke="black" points="1810.69,-325.5 1810.69,-353.5 1927.31,-353.5 1927.31,-325.5 1810.69,-325.5"/>
<text text-anchor="start" x="1818.69" y="-341.5" font-family="Helvetica,sans-Serif" font-size="10.00">tomographer/densedm</text>
<text text-anchor="middle" x="1869" y="-331.5" font-family="Helvetica,sans-Serif" font-size="10.00">/indepmeasllh.h</text>
</a>
</g>
</g>
<!-- Node23&#45;&gt;Node24 -->
<g id="edge1" class="edge"><title>Node23&#45;&gt;Node24</title>
<path fill="none" stroke="midnightblue" d="M1313.96,-392.625C1411.07,-384.486 1590.82,-369.073 1744,-354 1765.72,-351.862 1789.55,-349.335 1810.52,-347.048"/>
<polygon fill="midnightblue" stroke="midnightblue" points="1313.63,-389.139 1303.96,-393.461 1314.22,-396.115 1313.63,-389.139"/>
</g>
<!-- Node26 -->
<g id="node4" class="node"><title>Node26</title>
<g id="a_node4"><a xlink:href="histogram_8h.html" target="_top" xlink:title="Definitions for Histogram Types. ">
<polygon fill="none" stroke="black" points="1993.14,-265.5 1993.14,-283.5 2120.86,-283.5 2120.86,-265.5 1993.14,-265.5"/>
<text text-anchor="middle" x="2057" y="-271.5" font-family="Helvetica,sans-Serif" font-size="10.00">tomographer/histogram.h</text>
</a>
</g>
</g>
<!-- Node23&#45;&gt;Node26 -->
<g id="edge3" class="edge"><title>Node23&#45;&gt;Node26</title>
<path fill="none" stroke="midnightblue" d="M1314.14,-396.685C1375.97,-393.07 1466.99,-382.773 1541,-354 1562.48,-345.647 1562.34,-332.878 1584,-325 1621.54,-311.349 1872.56,-290.054 1992.9,-280.47"/>
<polygon fill="midnightblue" stroke="midnightblue" points="1313.89,-393.193 1304.09,-397.229 1314.27,-400.183 1313.89,-393.193"/>
</g>
<!-- Node29 -->
<g id="node7" class="node"><title>Node29</title>
<g id="a_node7"><a xlink:href="mhrwacceptratiowalkerparamscontroller_8h.html" target="_top" xlink:title="Tools for automatically and dynamically adjusting the step size of the random walk. ">
<polygon fill="none" stroke="black" points="283,-70.5 283,-88.5 543,-88.5 543,-70.5 283,-70.5"/>
<text text-anchor="middle" x="413" y="-76.5" font-family="Helvetica,sans-Serif" font-size="10.00">tomographer/mhrwacceptratiowalkerparamscontroller.h</text>
</a>
</g>
</g>
<!-- Node23&#45;&gt;Node29 -->
<g id="edge28" class="edge"><title>Node23&#45;&gt;Node29</title>
<path fill="none" stroke="midnightblue" d="M1171.59,-398.42C940.659,-397.78 223.436,-392.666 127,-354 78.0449,-334.372 38,-328.243 38,-275.5 38,-275.5 38,-275.5 38,-208.5 38,-143.061 245.11,-104.193 351.496,-88.5433"/>
<polygon fill="midnightblue" stroke="midnightblue" points="1171.88,-401.921 1181.89,-398.447 1171.9,-394.921 1171.88,-401.921"/>
</g>
<!-- Node30 -->
<g id="node8" class="node"><title>Node30</title>
<g id="a_node8"><a xlink:href="mhrwstepsizecontroller_8h.html" target="_top" xlink:title="Tools for automatically and dynamically adjusting the step size of the random walk. ">
<polygon fill="none" stroke="black" points="320.237,-5.5 320.237,-23.5 505.763,-23.5 505.763,-5.5 320.237,-5.5"/>
<text text-anchor="middle" x="413" y="-11.5" font-family="Helvetica,sans-Serif" font-size="10.00">tomographer/mhrwstepsizecontroller.h</text>
</a>
</g>
</g>
<!-- Node23&#45;&gt;Node30 -->
<g id="edge29" class="edge"><title>Node23&#45;&gt;Node30</title>
<path fill="none" stroke="midnightblue" d="M1171.56,-397.505C923,-393.823 108.387,-379.832 59,-354 20.3264,-333.772 0,-319.144 0,-275.5 0,-275.5 0,-275.5 0,-143.5 0,-74.0639 215.682,-38.1389 335.318,-23.5528"/>
<polygon fill="midnightblue" stroke="midnightblue" points="1171.87,-401.01 1181.92,-397.657 1171.97,-394.01 1171.87,-401.01"/>
</g>
<!-- Node31 -->
<g id="node9" class="node"><title>Node31</title>
<g id="a_node9"><a xlink:href="mhrwtasks_8h.html" target="_top" xlink:title="Multiprocessing tasks interface (see Multiprocessing Task Interfaces) for parallel Metropolis&#45;Hasting...">
<polygon fill="none" stroke="black" points="989.2,-70.5 989.2,-88.5 1120.8,-88.5 1120.8,-70.5 989.2,-70.5"/>
<text text-anchor="middle" x="1055" y="-76.5" font-family="Helvetica,sans-Serif" font-size="10.00">tomographer/mhrwtasks.h</text>
</a>
</g>
</g>
<!-- Node23&#45;&gt;Node31 -->
<g id="edge30" class="edge"><title>Node23&#45;&gt;Node31</title>
<path fill="none" stroke="midnightblue" d="M1314,-396.274C1356.09,-391.915 1408.71,-380.883 1448,-354 1485.92,-328.057 1507.28,-302.962 1491,-260 1463.67,-187.863 1443.71,-166.968 1376,-130 1354.04,-118.009 1208.21,-98.849 1120.84,-88.2262"/>
<polygon fill="midnightblue" stroke="midnightblue" points="1313.45,-392.81 1303.82,-397.221 1314.1,-399.78 1313.45,-392.81"/>
</g>
<!-- Node34 -->
<g id="node12" class="node"><title>Node34</title>
<g id="a_node12"><a xlink:href="mhrwvalueerrorbinsconvergedcontroller_8h.html" target="_top" xlink:title="Tools for automatically stopping the random walk when enough samples have been taken to make all binn...">
<polygon fill="none" stroke="black" points="560.547,-70.5 560.547,-88.5 819.453,-88.5 819.453,-70.5 560.547,-70.5"/>
<text text-anchor="middle" x="690" y="-76.5" font-family="Helvetica,sans-Serif" font-size="10.00">tomographer/mhrwvalueerrorbinsconvergedcontroller.h</text>
</a>
</g>
</g>
<!-- Node23&#45;&gt;Node34 -->
<g id="edge31" class="edge"><title>Node23&#45;&gt;Node34</title>
<path fill="none" stroke="midnightblue" d="M1172.15,-397.916C979.661,-395.902 450.034,-387.399 279,-354 193.877,-337.377 145.083,-359.809 95,-289 28.0403,-194.331 479.482,-113.546 637.095,-88.5101"/>
<polygon fill="midnightblue" stroke="midnightblue" points="1172.12,-401.416 1182.16,-398.018 1172.19,-394.416 1172.12,-401.416"/>
</g>
<!-- Node36 -->
<g id="node14" class="node"><title>Node36</title>
<g id="a_node14"><a xlink:href="mhrw_8h.html" target="_top" xlink:title="Routines for performing a Metropolis&#45;Hastings random walk. ">
<polygon fill="none" stroke="black" points="983.143,-200.5 983.143,-218.5 1090.86,-218.5 1090.86,-200.5 983.143,-200.5"/>
<text text-anchor="middle" x="1037" y="-206.5" font-family="Helvetica,sans-Serif" font-size="10.00">tomographer/mhrw.h</text>
</a>
</g>
</g>
<!-- Node23&#45;&gt;Node36 -->
<g id="edge16" class="edge"><title>Node23&#45;&gt;Node36</title>
<path fill="none" stroke="midnightblue" d="M1293.99,-388.26C1377.34,-369.374 1527.96,-324.964 1470,-260 1445.16,-232.159 1201.53,-217.834 1091.02,-212.726"/>
<polygon fill="midnightblue" stroke="midnightblue" points="1293.19,-384.854 1284.18,-390.436 1294.7,-391.688 1293.19,-384.854"/>
</g>
<!-- Node39 -->
<g id="node17" class="node"><title>Node39</title>
<g id="a_node17"><a xlink:href="multiproc_8h.html" target="_top" xlink:title="Some common definitions for multiprocessing interfaces. ">
<polygon fill="none" stroke="black" points="287.808,-330.5 287.808,-348.5 412.192,-348.5 412.192,-330.5 287.808,-330.5"/>
<text text-anchor="middle" x="350" y="-336.5" font-family="Helvetica,sans-Serif" font-size="10.00">tomographer/multiproc.h</text>
</a>
</g>
</g>
<!-- Node23&#45;&gt;Node39 -->
<g id="edge32" class="edge"><title>Node23&#45;&gt;Node39</title>
<path fill="none" stroke="midnightblue" d="M1171.87,-393.88C1001.73,-382.83 573.458,-355.014 412.471,-344.557"/>
<polygon fill="midnightblue" stroke="midnightblue" points="1171.77,-397.381 1181.97,-394.536 1172.22,-390.395 1171.77,-397.381"/>
</g>
<!-- Node43 -->
<g id="node21" class="node"><title>Node43</title>
<g id="a_node21"><a xlink:href="ezmatio_8h.html" target="_top" xlink:title="Utilities for reading MATLAB &quot;*.mat&quot; data files. See Tomographer::MAT. ">
<polygon fill="none" stroke="black" points="1592.63,-330.5 1592.63,-348.5 1735.37,-348.5 1735.37,-330.5 1592.63,-330.5"/>
<text text-anchor="middle" x="1664" y="-336.5" font-family="Helvetica,sans-Serif" font-size="10.00">tomographer/tools/ezmatio.h</text>
</a>
</g>
</g>
<!-- Node23&#45;&gt;Node43 -->
<g id="edge38" class="edge"><title>Node23&#45;&gt;Node43</title>
<path fill="none" stroke="midnightblue" d="M1314.25,-389.606C1382.32,-380.981 1487.75,-367.286 1579,-354 1590.53,-352.321 1602.93,-350.411 1614.59,-348.568"/>
<polygon fill="midnightblue" stroke="midnightblue" points="1313.55,-386.166 1304.07,-390.893 1314.43,-393.111 1313.55,-386.166"/>
</g>
<!-- Node44 -->
<g id="node22" class="node"><title>Node44</title>
<g id="a_node22"><a xlink:href="loggers_8h.html" target="_top" xlink:title="Utilities for logging messages. ">
<polygon fill="none" stroke="black" points="927.742,-330.5 927.742,-348.5 1068.26,-348.5 1068.26,-330.5 927.742,-330.5"/>
<text text-anchor="middle" x="998" y="-336.5" font-family="Helvetica,sans-Serif" font-size="10.00">tomographer/tools/loggers.h</text>
</a>
</g>
</g>
<!-- Node23&#45;&gt;Node44 -->
<g id="edge39" class="edge"><title>Node23&#45;&gt;Node44</title>
<path fill="none" stroke="midnightblue" d="M1199.41,-388.181C1151.49,-376.836 1075.51,-358.848 1031.86,-348.515"/>
<polygon fill="midnightblue" stroke="midnightblue" points="1198.65,-391.598 1209.19,-390.496 1200.27,-384.787 1198.65,-391.598"/>
</g>
<!-- Node25 -->
<g id="node3" class="node"><title>Node25</title>
<g id="a_node3"><a xlink:href="pydensedm_8h_source.html" target="_top" xlink:title="py/cxx/tomographerpy\l/pydensedm.h">
<polygon fill="none" stroke="black" points="1914.81,-195.5 1914.81,-223.5 2029.19,-223.5 2029.19,-195.5 1914.81,-195.5"/>
<text text-anchor="start" x="1922.81" y="-211.5" font-family="Helvetica,sans-Serif" font-size="10.00">py/cxx/tomographerpy</text>
<text text-anchor="middle" x="1972" y="-201.5" font-family="Helvetica,sans-Serif" font-size="10.00">/pydensedm.h</text>
</a>
</g>
</g>
<!-- Node24&#45;&gt;Node25 -->
<g id="edge2" class="edge"><title>Node24&#45;&gt;Node25</title>
<path fill="none" stroke="midnightblue" d="M1886.02,-317.355C1907.38,-290.805 1943.39,-246.05 1961.27,-223.836"/>
<polygon fill="midnightblue" stroke="midnightblue" points="1883.18,-315.299 1879.63,-325.284 1888.63,-319.687 1883.18,-315.299"/>
</g>
<!-- Node27 -->
<g id="node5" class="node"><title>Node27</title>
<g id="a_node5"><a xlink:href="mhrwstatscollectors_8h.html" target="_top" xlink:title="Definitions for MHRWStatsCollector Interface&#39;s. ">
<polygon fill="none" stroke="black" points="761.192,-135.5 761.192,-153.5 932.808,-153.5 932.808,-135.5 761.192,-135.5"/>
<text text-anchor="middle" x="847" y="-141.5" font-family="Helvetica,sans-Serif" font-size="10.00">tomographer/mhrwstatscollectors.h</text>
</a>
</g>
</g>
<!-- Node26&#45;&gt;Node27 -->
<g id="edge4" class="edge"><title>Node26&#45;&gt;Node27</title>
<path fill="none" stroke="midnightblue" d="M2058.3,-255.457C2058.51,-237.128 2055.59,-209.442 2038,-195 2027.32,-186.233 1205.12,-157.629 933.217,-148.399"/>
<polygon fill="midnightblue" stroke="midnightblue" points="2054.8,-255.315 2057.86,-265.459 2061.79,-255.621 2054.8,-255.315"/>
</g>
<!-- Node35 -->
<g id="node13" class="node"><title>Node35</title>
<g id="a_node13"><a xlink:href="pyhistogram_8h_source.html" target="_top" xlink:title="py/cxx/tomographerpy\l/pyhistogram.h">
<polygon fill="none" stroke="black" points="2084.81,-195.5 2084.81,-223.5 2199.19,-223.5 2199.19,-195.5 2084.81,-195.5"/>
<text text-anchor="start" x="2092.81" y="-211.5" font-family="Helvetica,sans-Serif" font-size="10.00">py/cxx/tomographerpy</text>
<text text-anchor="middle" x="2142" y="-201.5" font-family="Helvetica,sans-Serif" font-size="10.00">/pyhistogram.h</text>
</a>
</g>
</g>
<!-- Node26&#45;&gt;Node35 -->
<g id="edge14" class="edge"><title>Node26&#45;&gt;Node35</title>
<path fill="none" stroke="midnightblue" d="M2076.35,-259.161C2090.79,-248.456 2110.37,-233.945 2124.38,-223.561"/>
<polygon fill="midnightblue" stroke="midnightblue" points="2074.06,-256.497 2068.11,-265.264 2078.23,-262.121 2074.06,-256.497"/>
</g>
<!-- Node28 -->
<g id="node6" class="node"><title>Node28</title>
<g id="a_node6"><a xlink:href="mhrw__valuehist__tools_8h.html" target="_top" xlink:title="Tools for collecting a histogram of values during a Metropolis&#45;Hastings random walk using the tools o...">
<polygon fill="none" stroke="black" points="888.525,-0.5 888.525,-28.5 1033.48,-28.5 1033.48,-0.5 888.525,-0.5"/>
<text text-anchor="start" x="896.525" y="-16.5" font-family="Helvetica,sans-Serif" font-size="10.00">tomographer/mhrw_valuehist</text>
<text text-anchor="middle" x="961" y="-6.5" font-family="Helvetica,sans-Serif" font-size="10.00">_tools.h</text>
</a>
</g>
</g>
<!-- Node27&#45;&gt;Node28 -->
<g id="edge5" class="edge"><title>Node27&#45;&gt;Node28</title>
<path fill="none" stroke="midnightblue" d="M860.921,-127.869C883.603,-102.401 928.125,-52.4122 949.289,-28.6489"/>
<polygon fill="midnightblue" stroke="midnightblue" points="858.168,-125.698 854.131,-135.493 863.396,-130.353 858.168,-125.698"/>
</g>
<!-- Node27&#45;&gt;Node29 -->
<g id="edge6" class="edge"><title>Node27&#45;&gt;Node29</title>
<path fill="none" stroke="midnightblue" d="M781.505,-133.993C696.177,-121.606 548.468,-100.165 468.42,-88.5448"/>
<polygon fill="midnightblue" stroke="midnightblue" points="781.194,-137.484 791.593,-135.457 782.199,-130.557 781.194,-137.484"/>
</g>
<!-- Node27&#45;&gt;Node30 -->
<g id="edge8" class="edge"><title>Node27&#45;&gt;Node30</title>
<path fill="none" stroke="midnightblue" d="M848.066,-124.911C848.001,-106.801 844.767,-79.8852 828,-65 781.81,-23.9935 613.511,-15.6362 505.947,-14.6383"/>
<polygon fill="midnightblue" stroke="midnightblue" points="844.562,-124.999 847.776,-135.095 851.56,-125.199 844.562,-124.999"/>
</g>
<!-- Node27&#45;&gt;Node31 -->
<g id="edge9" class="edge"><title>Node27&#45;&gt;Node31</title>
<path fill="none" stroke="midnightblue" d="M883.468,-132.454C924.891,-119.908 991.495,-99.7347 1028.34,-88.5761"/>
<polygon fill="midnightblue" stroke="midnightblue" points="882.323,-129.144 873.767,-135.393 884.352,-135.844 882.323,-129.144"/>
</g>
<!-- Node27&#45;&gt;Node34 -->
<g id="edge13" class="edge"><title>Node27&#45;&gt;Node34</title>
<path fill="none" stroke="midnightblue" d="M817.262,-131.567C785.881,-118.975 737.287,-99.4752 710.126,-88.5761"/>
<polygon fill="midnightblue" stroke="midnightblue" points="816.212,-134.917 826.796,-135.393 818.819,-128.42 816.212,-134.917"/>
</g>
<!-- Node29&#45;&gt;Node30 -->
<g id="edge7" class="edge"><title>Node29&#45;&gt;Node30</title>
<path fill="none" stroke="midnightblue" d="M413,-59.9075C413,-47.8146 413,-32.6529 413,-23.539"/>
<polygon fill="midnightblue" stroke="midnightblue" points="409.5,-60.2638 413,-70.2639 416.5,-60.2639 409.5,-60.2638"/>
</g>
<!-- Node31&#45;&gt;Node28 -->
<g id="edge10" class="edge"><title>Node31&#45;&gt;Node28</title>
<path fill="none" stroke="midnightblue" d="M1034.06,-64.4632C1018.04,-53.7305 996.128,-39.0433 980.488,-28.5608"/>
<polygon fill="midnightblue" stroke="midnightblue" points="1032.46,-67.6038 1042.71,-70.2639 1036.35,-61.789 1032.46,-67.6038"/>
</g>
<!-- Node32 -->
<g id="node10" class="node"><title>Node32</title>
<g id="a_node10"><a xlink:href="pymhrwtasks_8h_source.html" target="_top" xlink:title="py/cxx/tomographerpy\l/pymhrwtasks.h">
<polygon fill="none" stroke="black" points="1318.81,-0.5 1318.81,-28.5 1433.19,-28.5 1433.19,-0.5 1318.81,-0.5"/>
<text text-anchor="start" x="1326.81" y="-16.5" font-family="Helvetica,sans-Serif" font-size="10.00">py/cxx/tomographerpy</text>
<text text-anchor="middle" x="1376" y="-6.5" font-family="Helvetica,sans-Serif" font-size="10.00">/pymhrwtasks.h</text>
</a>
</g>
</g>
<!-- Node31&#45;&gt;Node32 -->
<g id="edge11" class="edge"><title>Node31&#45;&gt;Node32</title>
<path fill="none" stroke="midnightblue" d="M1106.01,-68.4883C1163.97,-57.1132 1258.33,-38.5943 1318.76,-26.7348"/>
<polygon fill="midnightblue" stroke="midnightblue" points="1105.12,-65.0966 1095.98,-70.457 1106.47,-71.9655 1105.12,-65.0966"/>
</g>
<!-- Node33 -->
<g id="node11" class="node"><title>Node33</title>
<g id="a_node11"><a xlink:href="pymultiproc_8h_source.html" target="_top" xlink:title="py/cxx/tomographerpy\l/pymultiproc.h">
<polygon fill="none" stroke="black" points="1110.81,-0.5 1110.81,-28.5 1225.19,-28.5 1225.19,-0.5 1110.81,-0.5"/>
<text text-anchor="start" x="1118.81" y="-16.5" font-family="Helvetica,sans-Serif" font-size="10.00">py/cxx/tomographerpy</text>
<text text-anchor="middle" x="1168" y="-6.5" font-family="Helvetica,sans-Serif" font-size="10.00">/pymultiproc.h</text>
</a>
</g>
</g>
<!-- Node31&#45;&gt;Node33 -->
<g id="edge12" class="edge"><title>Node31&#45;&gt;Node33</title>
<path fill="none" stroke="midnightblue" d="M1078.57,-65.3565C1097.94,-54.5574 1125.24,-39.3372 1144.57,-28.5608"/>
<polygon fill="midnightblue" stroke="midnightblue" points="1076.8,-62.3373 1069.77,-70.2639 1080.21,-68.4512 1076.8,-62.3373"/>
</g>
<!-- Node35&#45;&gt;Node32 -->
<g id="edge15" class="edge"><title>Node35&#45;&gt;Node32</title>
<path fill="none" stroke="midnightblue" d="M2117.9,-189.099C2076.43,-156.929 1987.65,-93.2863 1901,-65 1815.38,-37.0516 1551.26,-22.8245 1433.59,-17.736"/>
<polygon fill="midnightblue" stroke="midnightblue" points="2115.99,-192.045 2126.02,-195.463 2120.31,-186.537 2115.99,-192.045"/>
</g>
<!-- Node36&#45;&gt;Node27 -->
<g id="edge19" class="edge"><title>Node36&#45;&gt;Node27</title>
<path fill="none" stroke="midnightblue" d="M1002.96,-197.215C965.079,-184.653 904.796,-164.664 871.356,-153.576"/>
<polygon fill="midnightblue" stroke="midnightblue" points="1001.96,-200.568 1012.55,-200.393 1004.16,-193.923 1001.96,-200.568"/>
</g>
<!-- Node36&#45;&gt;Node29 -->
<g id="edge18" class="edge"><title>Node36&#45;&gt;Node29</title>
<path fill="none" stroke="midnightblue" d="M973.02,-201.906C908.146,-194.443 805.17,-180.459 718,-159 679.241,-149.459 671.416,-140.841 633,-130 571.774,-112.722 499.632,-97.4337 455.102,-88.5713"/>
<polygon fill="midnightblue" stroke="midnightblue" points="972.766,-205.399 983.096,-203.048 973.554,-198.444 972.766,-205.399"/>
</g>
<!-- Node36&#45;&gt;Node30 -->
<g id="edge20" class="edge"><title>Node36&#45;&gt;Node30</title>
<path fill="none" stroke="midnightblue" d="M1022.77,-192.633C993.822,-161.584 924.456,-93.3609 850,-65 789.083,-41.7962 615.016,-27.5244 505.841,-20.5924"/>
<polygon fill="midnightblue" stroke="midnightblue" points="1020.5,-195.334 1029.84,-200.34 1025.66,-190.604 1020.5,-195.334"/>
</g>
<!-- Node36&#45;&gt;Node31 -->
<g id="edge21" class="edge"><title>Node36&#45;&gt;Node31</title>
<path fill="none" stroke="midnightblue" d="M1043.13,-190.56C1046.03,-181.256 1049.25,-169.641 1051,-159 1055.17,-133.686 1055.37,-103.217 1055.19,-88.8155"/>
<polygon fill="midnightblue" stroke="midnightblue" points="1039.75,-189.629 1039.96,-200.222 1046.4,-191.808 1039.75,-189.629"/>
</g>
<!-- Node36&#45;&gt;Node32 -->
<g id="edge26" class="edge"><title>Node36&#45;&gt;Node32</title>
<path fill="none" stroke="midnightblue" d="M1083.07,-198.057C1115.99,-189.712 1160.84,-176.515 1198,-159 1219.19,-149.013 1221.13,-140.623 1242,-130 1282.61,-109.332 1304.33,-124.705 1338,-94 1357.58,-76.1456 1368.15,-46.0184 1372.87,-28.741"/>
<polygon fill="midnightblue" stroke="midnightblue" points="1082.13,-194.686 1073.26,-200.49 1083.81,-201.48 1082.13,-194.686"/>
</g>
<!-- Node36&#45;&gt;Node33 -->
<g id="edge27" class="edge"><title>Node36&#45;&gt;Node33</title>
<path fill="none" stroke="midnightblue" d="M1051.59,-192.97C1071.05,-171.744 1105.85,-131.963 1130,-94 1143.81,-72.2807 1156.04,-44.7905 1162.69,-28.7716"/>
<polygon fill="midnightblue" stroke="midnightblue" points="1048.94,-190.68 1044.71,-200.394 1054.07,-195.437 1048.94,-190.68"/>
</g>
<!-- Node36&#45;&gt;Node34 -->
<g id="edge22" class="edge"><title>Node36&#45;&gt;Node34</title>
<path fill="none" stroke="midnightblue" d="M972.57,-202.687C900.274,-195.238 788.344,-180.645 752,-159 722.755,-141.583 701.948,-104.821 693.801,-88.5449"/>
<polygon fill="midnightblue" stroke="midnightblue" points="972.634,-206.212 982.935,-203.735 973.338,-199.247 972.634,-206.212"/>
</g>
<!-- Node37 -->
<g id="node15" class="node"><title>Node37</title>
<g id="a_node15"><a xlink:href="tspacellhwalker_8h.html" target="_top" xlink:title="Definitions for a Metropolis&#45;Hastings random walk on a quantum state space with dense matrix type...">
<polygon fill="none" stroke="black" points="1250.69,-130.5 1250.69,-158.5 1367.31,-158.5 1367.31,-130.5 1250.69,-130.5"/>
<text text-anchor="start" x="1258.69" y="-146.5" font-family="Helvetica,sans-Serif" font-size="10.00">tomographer/densedm</text>
<text text-anchor="middle" x="1309" y="-136.5" font-family="Helvetica,sans-Serif" font-size="10.00">/tspacellhwalker.h</text>
</a>
</g>
</g>
<!-- Node36&#45;&gt;Node37 -->
<g id="edge17" class="edge"><title>Node36&#45;&gt;Node37</title>
<path fill="none" stroke="midnightblue" d="M1081.57,-198.177C1128.34,-187.343 1202,-170.283 1252.75,-158.529"/>
<polygon fill="midnightblue" stroke="midnightblue" points="1080.68,-194.791 1071.73,-200.457 1082.26,-201.61 1080.68,-194.791"/>
</g>
<!-- Node38 -->
<g id="node16" class="node"><title>Node38</title>
<g id="a_node16"><a xlink:href="pymhrw_8h_source.html" target="_top" xlink:title="py/cxx/tomographerpy\l/pymhrw.h">
<polygon fill="none" stroke="black" points="1214.81,-65.5 1214.81,-93.5 1329.19,-93.5 1329.19,-65.5 1214.81,-65.5"/>
<text text-anchor="start" x="1222.81" y="-81.5" font-family="Helvetica,sans-Serif" font-size="10.00">py/cxx/tomographerpy</text>
<text text-anchor="middle" x="1272" y="-71.5" font-family="Helvetica,sans-Serif" font-size="10.00">/pymhrw.h</text>
</a>
</g>
</g>
<!-- Node36&#45;&gt;Node38 -->
<g id="edge23" class="edge"><title>Node36&#45;&gt;Node38</title>
<path fill="none" stroke="midnightblue" d="M1071.59,-197.167C1097.02,-188.25 1132.05,-174.728 1161,-159 1196.88,-139.507 1234.96,-110.51 1255.88,-93.7572"/>
<polygon fill="midnightblue" stroke="midnightblue" points="1070.32,-193.903 1062.01,-200.469 1072.6,-200.521 1070.32,-193.903"/>
</g>
<!-- Node38&#45;&gt;Node32 -->
<g id="edge24" class="edge"><title>Node38&#45;&gt;Node32</title>
<path fill="none" stroke="midnightblue" d="M1302.4,-60.0843C1319.1,-49.9655 1339.43,-37.6559 1354.48,-28.5369"/>
<polygon fill="midnightblue" stroke="midnightblue" points="1300.29,-57.2715 1293.55,-65.4464 1303.92,-63.2587 1300.29,-57.2715"/>
</g>
<!-- Node38&#45;&gt;Node33 -->
<g id="edge25" class="edge"><title>Node38&#45;&gt;Node33</title>
<path fill="none" stroke="midnightblue" d="M1241.6,-60.0843C1224.9,-49.9655 1204.57,-37.6559 1189.52,-28.5369"/>
<polygon fill="midnightblue" stroke="midnightblue" points="1240.08,-63.2587 1250.45,-65.4464 1243.71,-57.2715 1240.08,-63.2587"/>
</g>
<!-- Node39&#45;&gt;Node31 -->
<g id="edge34" class="edge"><title>Node39&#45;&gt;Node31</title>
<path fill="none" stroke="midnightblue" d="M331.076,-323.682C312.124,-307.074 288.027,-279.876 305,-260 491.145,-42.0158 676.035,-265.909 942,-159 985.441,-141.538 1028.6,-104.8 1046.45,-88.5375"/>
<polygon fill="midnightblue" stroke="midnightblue" points="329.083,-326.577 339.002,-330.301 333.57,-321.204 329.083,-326.577"/>
</g>
<!-- Node39&#45;&gt;Node36 -->
<g id="edge33" class="edge"><title>Node39&#45;&gt;Node36</title>
<path fill="none" stroke="midnightblue" d="M333.507,-322.616C317.593,-305.404 298.196,-277.995 315,-260 337.75,-235.636 819.086,-217.646 982.94,-212.208"/>
<polygon fill="midnightblue" stroke="midnightblue" points="331.377,-325.445 340.865,-330.161 336.388,-320.558 331.377,-325.445"/>
</g>
<!-- Node40 -->
<g id="node18" class="node"><title>Node40</title>
<g id="a_node18"><a xlink:href="multiprocomp_8h.html" target="_top" xlink:title="Multiprocessing with OpenMP parallel multithreading. ">
<polygon fill="none" stroke="black" points="500.082,-265.5 500.082,-283.5 643.918,-283.5 643.918,-265.5 500.082,-265.5"/>
<text text-anchor="middle" x="572" y="-271.5" font-family="Helvetica,sans-Serif" font-size="10.00">tomographer/multiprocomp.h</text>
</a>
</g>
</g>
<!-- Node39&#45;&gt;Node40 -->
<g id="edge35" class="edge"><title>Node39&#45;&gt;Node40</title>
<path fill="none" stroke="midnightblue" d="M388.364,-327.613C432.532,-315.079 504.054,-294.782 543.542,-283.576"/>
<polygon fill="midnightblue" stroke="midnightblue" points="387.233,-324.296 378.568,-330.393 389.144,-331.03 387.233,-324.296"/>
</g>
<!-- Node41 -->
<g id="node19" class="node"><title>Node41</title>
<g id="a_node19"><a xlink:href="multiprocthreads_8h.html" target="_top" xlink:title="Multiprocessing with native C++11 threads. ">
<polygon fill="none" stroke="black" points="324.131,-265.5 324.131,-283.5 481.869,-283.5 481.869,-265.5 324.131,-265.5"/>
<text text-anchor="middle" x="403" y="-271.5" font-family="Helvetica,sans-Serif" font-size="10.00">tomographer/multiprocthreads.h</text>
</a>
</g>
</g>
<!-- Node39&#45;&gt;Node41 -->
<g id="edge36" class="edge"><title>Node39&#45;&gt;Node41</title>
<path fill="none" stroke="midnightblue" d="M363.482,-322.474C373.947,-310.034 388.016,-293.311 396.237,-283.539"/>
<polygon fill="midnightblue" stroke="midnightblue" points="360.688,-320.358 356.929,-330.264 366.045,-324.865 360.688,-320.358"/>
</g>
<!-- Node42 -->
<g id="node20" class="node"><title>Node42</title>
<g id="a_node20"><a xlink:href="signal__status__report_8h.html" target="_top" xlink:title="Basic common code for intercepting a signal to print status information of a task manager...">
<polygon fill="none" stroke="black" points="104.247,-260.5 104.247,-288.5 229.753,-288.5 229.753,-260.5 104.247,-260.5"/>
<text text-anchor="start" x="112.247" y="-276.5" font-family="Helvetica,sans-Serif" font-size="10.00">tomographer/tools/signal</text>
<text text-anchor="middle" x="167" y="-266.5" font-family="Helvetica,sans-Serif" font-size="10.00">_status_report.h</text>
</a>
</g>
</g>
<!-- Node39&#45;&gt;Node42 -->
<g id="edge37" class="edge"><title>Node39&#45;&gt;Node42</title>
<path fill="none" stroke="midnightblue" d="M316.794,-327.069C285.216,-316.197 237.766,-299.862 204.763,-288.5"/>
<polygon fill="midnightblue" stroke="midnightblue" points="315.856,-330.447 326.451,-330.393 318.135,-323.828 315.856,-330.447"/>
</g>
<!-- Node44&#45;&gt;Node27 -->
<g id="edge50" class="edge"><title>Node44&#45;&gt;Node27</title>
<path fill="none" stroke="midnightblue" d="M926.277,-328.783C879.463,-320.802 824.445,-307.741 810,-289 777.016,-246.208 823.044,-177.059 840.651,-153.59"/>
<polygon fill="midnightblue" stroke="midnightblue" points="925.993,-332.283 936.43,-330.458 927.133,-325.377 925.993,-332.283"/>
</g>
<!-- Node44&#45;&gt;Node28 -->
<g id="edge48" class="edge"><title>Node44&#45;&gt;Node28</title>
<path fill="none" stroke="midnightblue" d="M917.458,-332.002C889.276,-325.393 860.364,-312.773 843,-289 804.602,-236.429 895.763,-253.865 942,-159 963.47,-114.949 963.256,-54.7461 961.935,-28.5567"/>
<polygon fill="midnightblue" stroke="midnightblue" points="916.868,-335.455 927.375,-334.098 918.315,-328.606 916.868,-335.455"/>
</g>
<!-- Node44&#45;&gt;Node29 -->
<g id="edge49" class="edge"><title>Node44&#45;&gt;Node29</title>
<path fill="none" stroke="midnightblue" d="M919.979,-328.909C872.826,-321.485 812.149,-309.006 761,-289 617.026,-232.686 464.105,-119.658 423.425,-88.5725"/>
<polygon fill="midnightblue" stroke="midnightblue" points="919.717,-332.41 930.131,-330.463 920.776,-325.49 919.717,-332.41"/>
</g>
<!-- Node44&#45;&gt;Node30 -->
<g id="edge51" class="edge"><title>Node44&#45;&gt;Node30</title>
<path fill="none" stroke="midnightblue" d="M917.507,-334.702C855.183,-329.559 767.686,-317.458 696,-289 674.575,-280.495 673.195,-271.114 653,-260 491.892,-171.339 374.622,-247.922 274,-94 248.827,-55.4923 314.746,-33.9173 364.206,-23.5067"/>
<polygon fill="midnightblue" stroke="midnightblue" points="917.432,-338.207 927.675,-335.498 917.978,-331.228 917.432,-338.207"/>
</g>
<!-- Node44&#45;&gt;Node34 -->
<g id="edge52" class="edge"><title>Node44&#45;&gt;Node34</title>
<path fill="none" stroke="midnightblue" d="M917.374,-333.486C877.366,-327.568 830.201,-315.078 795,-289 723.355,-235.923 697.305,-120.089 691.395,-88.561"/>
<polygon fill="midnightblue" stroke="midnightblue" points="916.997,-336.967 927.379,-334.853 917.945,-330.032 916.997,-336.967"/>
</g>
<!-- Node44&#45;&gt;Node36 -->
<g id="edge43" class="edge"><title>Node44&#45;&gt;Node36</title>
<path fill="none" stroke="midnightblue" d="M1001.68,-319.979C1005.06,-303.937 1010.51,-280.197 1017,-260 1021.76,-245.174 1028.89,-228.489 1033.22,-218.77"/>
<polygon fill="midnightblue" stroke="midnightblue" points="998.178,-319.641 999.603,-330.139 1005.04,-321.043 998.178,-319.641"/>
</g>
<!-- Node44&#45;&gt;Node37 -->
<g id="edge40" class="edge"><title>Node44&#45;&gt;Node37</title>
<path fill="none" stroke="midnightblue" d="M1053.09,-328.244C1085.47,-320.629 1126.32,-308.183 1159,-289 1190.7,-270.392 1267.13,-190.317 1296.87,-158.554"/>
<polygon fill="midnightblue" stroke="midnightblue" points="1052.31,-324.831 1043.33,-330.454 1053.86,-331.658 1052.31,-324.831"/>
</g>
<!-- Node44&#45;&gt;Node40 -->
<g id="edge53" class="edge"><title>Node44&#45;&gt;Node40</title>
<path fill="none" stroke="midnightblue" d="M931.193,-328.998C862.609,-319.19 752.808,-303.342 658,-289 646.494,-287.259 634.129,-285.344 622.463,-283.518"/>
<polygon fill="midnightblue" stroke="midnightblue" points="931.027,-332.509 941.422,-330.459 932.017,-325.58 931.027,-332.509"/>
</g>
<!-- Node44&#45;&gt;Node41 -->
<g id="edge54" class="edge"><title>Node44&#45;&gt;Node41</title>
<path fill="none" stroke="midnightblue" d="M917.28,-331.995C817.114,-323.607 641.164,-307.834 491,-289 478.424,-287.423 464.876,-285.471 452.269,-283.546"/>
<polygon fill="midnightblue" stroke="midnightblue" points="917.071,-335.49 927.327,-332.833 917.653,-328.514 917.071,-335.49"/>
</g>
<!-- Node45 -->
<g id="node23" class="node"><title>Node45</title>
<g id="a_node23"><a xlink:href="random__unitary_8h.html" target="_top" xlink:title="Produce a random unitary according to the Haar measure. ">
<polygon fill="none" stroke="black" points="1205.58,-260.5 1205.58,-288.5 1324.42,-288.5 1324.42,-260.5 1205.58,-260.5"/>
<text text-anchor="start" x="1213.58" y="-276.5" font-family="Helvetica,sans-Serif" font-size="10.00">tomographer/mathtools</text>
<text text-anchor="middle" x="1265" y="-266.5" font-family="Helvetica,sans-Serif" font-size="10.00">/random_unitary.h</text>
</a>
</g>
</g>
<!-- Node44&#45;&gt;Node45 -->
<g id="edge41" class="edge"><title>Node44&#45;&gt;Node45</title>
<path fill="none" stroke="midnightblue" d="M1042.04,-328.109C1087.97,-317.272 1160.07,-300.259 1209.78,-288.529"/>
<polygon fill="midnightblue" stroke="midnightblue" points="1041.02,-324.754 1032.09,-330.457 1042.62,-331.567 1041.02,-324.754"/>
</g>
<!-- Node46 -->
<g id="node24" class="node"><title>Node46</title>
<g id="a_node24"><a xlink:href="simple__find__zero_8h.html" target="_top" xlink:title="A very simplistic tool for finding a relatively straightforward zero with few iterations. ">
<polygon fill="none" stroke="black" points="1342.58,-260.5 1342.58,-288.5 1461.42,-288.5 1461.42,-260.5 1342.58,-260.5"/>
<text text-anchor="start" x="1350.58" y="-276.5" font-family="Helvetica,sans-Serif" font-size="10.00">tomographer/mathtools</text>
<text text-anchor="middle" x="1402" y="-266.5" font-family="Helvetica,sans-Serif" font-size="10.00">/simple_find_zero.h</text>
</a>
</g>
</g>
<!-- Node44&#45;&gt;Node46 -->
<g id="edge42" class="edge"><title>Node44&#45;&gt;Node46</title>
<path fill="none" stroke="midnightblue" d="M1068.19,-329.096C1136.08,-319.773 1241.78,-304.654 1333,-289 1336.13,-288.463 1339.33,-287.896 1342.57,-287.311"/>
<polygon fill="midnightblue" stroke="midnightblue" points="1067.48,-325.661 1058.04,-330.485 1068.43,-332.597 1067.48,-325.661"/>
</g>
<!-- Node47 -->
<g id="node25" class="node"><title>Node47</title>
<g id="a_node25"><a xlink:href="mhrw__bin__err_8h.html" target="_top" xlink:title="Binning Analysis in a Metropolis&#45;Hastings random walk. ">
<polygon fill="none" stroke="black" points="851.586,-260.5 851.586,-288.5 970.414,-288.5 970.414,-260.5 851.586,-260.5"/>
<text text-anchor="start" x="859.586" y="-276.5" font-family="Helvetica,sans-Serif" font-size="10.00">tomographer/mhrw_bin</text>
<text text-anchor="middle" x="911" y="-266.5" font-family="Helvetica,sans-Serif" font-size="10.00">_err.h</text>
</a>
</g>
</g>
<!-- Node44&#45;&gt;Node47 -->
<g id="edge44" class="edge"><title>Node44&#45;&gt;Node47</title>
<path fill="none" stroke="midnightblue" d="M978.199,-324.161C963.416,-313.456 943.377,-298.945 929.036,-288.561"/>
<polygon fill="midnightblue" stroke="midnightblue" points="976.474,-327.234 986.626,-330.264 980.58,-321.564 976.474,-327.234"/>
</g>
<!-- Node48 -->
<g id="node26" class="node"><title>Node48</title>
<g id="a_node26"><a xlink:href="boost__test__logger_8h.html" target="_top" xlink:title="Provide a logger class for when using the Boost Unit Test Framework (see Tomographer::Logger::BoostTe...">
<polygon fill="none" stroke="black" points="1026.08,-260.5 1026.08,-288.5 1149.92,-288.5 1149.92,-260.5 1026.08,-260.5"/>
<text text-anchor="start" x="1034.08" y="-276.5" font-family="Helvetica,sans-Serif" font-size="10.00">tomographer/tools/boost</text>
<text text-anchor="middle" x="1088" y="-266.5" font-family="Helvetica,sans-Serif" font-size="10.00">_test_logger.h</text>
</a>
</g>
</g>
<!-- Node44&#45;&gt;Node48 -->
<g id="edge55" class="edge"><title>Node44&#45;&gt;Node48</title>
<path fill="none" stroke="midnightblue" d="M1018.05,-324.463C1033.39,-313.73 1054.37,-299.043 1069.34,-288.561"/>
<polygon fill="midnightblue" stroke="midnightblue" points="1015.95,-321.662 1009.77,-330.264 1019.97,-327.397 1015.95,-321.662"/>
</g>
<!-- Node49 -->
<g id="node27" class="node"><title>Node49</title>
<g id="a_node27"><a xlink:href="common_8h_source.html" target="_top" xlink:title="py/cxx/tomographerpy\l/common.h">
<polygon fill="none" stroke="black" points="1711.81,-260.5 1711.81,-288.5 1826.19,-288.5 1826.19,-260.5 1711.81,-260.5"/>
<text text-anchor="start" x="1719.81" y="-276.5" font-family="Helvetica,sans-Serif" font-size="10.00">py/cxx/tomographerpy</text>
<text text-anchor="middle" x="1769" y="-266.5" font-family="Helvetica,sans-Serif" font-size="10.00">/common.h</text>
</a>
</g>
</g>
<!-- Node44&#45;&gt;Node49 -->
<g id="edge56" class="edge"><title>Node44&#45;&gt;Node49</title>
<path fill="none" stroke="midnightblue" d="M1078.62,-332.28C1196.77,-323.114 1423.89,-305.297 1617,-289 1648.28,-286.36 1683.17,-283.271 1711.63,-280.715"/>
<polygon fill="midnightblue" stroke="midnightblue" points="1078.27,-328.797 1068.57,-333.06 1078.81,-335.776 1078.27,-328.797"/>
</g>
<!-- Node51 -->
<g id="node29" class="node"><title>Node51</title>
<g id="a_node29"><a xlink:href="pygil_8h_source.html" target="_top" xlink:title="py/cxx/tomographerpy\l/pygil.h">
<polygon fill="none" stroke="black" points="1498.81,-130.5 1498.81,-158.5 1613.19,-158.5 1613.19,-130.5 1498.81,-130.5"/>
<text text-anchor="start" x="1506.81" y="-146.5" font-family="Helvetica,sans-Serif" font-size="10.00">py/cxx/tomographerpy</text>
<text text-anchor="middle" x="1556" y="-136.5" font-family="Helvetica,sans-Serif" font-size="10.00">/pygil.h</text>
</a>
</g>
</g>
<!-- Node44&#45;&gt;Node51 -->
<g id="edge67" class="edge"><title>Node44&#45;&gt;Node51</title>
<path fill="none" stroke="midnightblue" d="M1078.76,-335.143C1205.97,-329.104 1441.57,-314.592 1470,-289 1501.75,-260.426 1467.01,-230.995 1490,-195 1499.87,-179.55 1516.37,-167.175 1530.4,-158.663"/>
<polygon fill="midnightblue" stroke="midnightblue" points="1078.49,-331.651 1068.67,-335.615 1078.82,-338.644 1078.49,-331.651"/>
</g>
<!-- Node52 -->
<g id="node30" class="node"><title>Node52</title>
<g id="a_node30"><a xlink:href="pylogger_8h_source.html" target="_top" xlink:title="py/cxx/tomographerpy\l/pylogger.h">
<polygon fill="none" stroke="black" points="1498.81,-195.5 1498.81,-223.5 1613.19,-223.5 1613.19,-195.5 1498.81,-195.5"/>
<text text-anchor="start" x="1506.81" y="-211.5" font-family="Helvetica,sans-Serif" font-size="10.00">py/cxx/tomographerpy</text>
<text text-anchor="middle" x="1556" y="-201.5" font-family="Helvetica,sans-Serif" font-size="10.00">/pylogger.h</text>
</a>
</g>
</g>
<!-- Node44&#45;&gt;Node52 -->
<g id="edge68" class="edge"><title>Node44&#45;&gt;Node52</title>
<path fill="none" stroke="midnightblue" d="M1078.65,-337.546C1230.32,-334.91 1545.84,-325.101 1579,-289 1595.81,-270.696 1578.89,-240.734 1566.5,-223.606"/>
<polygon fill="midnightblue" stroke="midnightblue" points="1078.4,-334.05 1068.46,-337.717 1078.51,-341.049 1078.4,-334.05"/>
</g>
<!-- Node47&#45;&gt;Node27 -->
<g id="edge46" class="edge"><title>Node47&#45;&gt;Node27</title>
<path fill="none" stroke="midnightblue" d="M899.9,-251.3C885.397,-222.295 860.714,-172.927 851.05,-153.6"/>
<polygon fill="midnightblue" stroke="midnightblue" points="896.789,-252.905 904.392,-260.284 903.05,-249.774 896.789,-252.905"/>
</g>
<!-- Node47&#45;&gt;Node32 -->
<g id="edge47" class="edge"><title>Node47&#45;&gt;Node32</title>
<path fill="none" stroke="midnightblue" d="M980.728,-261.192C1104.39,-238.67 1351.5,-190.269 1376,-159 1406.27,-120.369 1389.95,-56.2161 1380.82,-28.6973"/>
<polygon fill="midnightblue" stroke="midnightblue" points="979.813,-257.801 970.599,-263.029 981.063,-264.688 979.813,-257.801"/>
</g>
<!-- Node47&#45;&gt;Node36 -->
<g id="edge45" class="edge"><title>Node47&#45;&gt;Node36</title>
<path fill="none" stroke="midnightblue" d="M946.109,-255.946C970.605,-243.698 1002.15,-227.926 1020.9,-218.548"/>
<polygon fill="midnightblue" stroke="midnightblue" points="944.486,-252.844 937.107,-260.446 947.617,-259.105 944.486,-252.844"/>
</g>
<!-- Node49&#45;&gt;Node25 -->
<g id="edge58" class="edge"><title>Node49&#45;&gt;Node25</title>
<path fill="none" stroke="midnightblue" d="M1820.78,-257.43C1854.64,-246.923 1898.3,-233.374 1929.99,-223.537"/>
<polygon fill="midnightblue" stroke="midnightblue" points="1819.57,-254.14 1811.06,-260.446 1821.65,-260.825 1819.57,-254.14"/>
</g>
<!-- Node49&#45;&gt;Node32 -->
<g id="edge65" class="edge"><title>Node49&#45;&gt;Node32</title>
<path fill="none" stroke="midnightblue" d="M1800.64,-254.574C1811.03,-246.568 1821.36,-236.236 1827,-224 1832.4,-212.296 1833.1,-206.357 1827,-195 1750.78,-52.9896 1536.74,-22.9813 1433.33,-16.8861"/>
<polygon fill="midnightblue" stroke="midnightblue" points="1798.47,-251.822 1792.38,-260.489 1802.55,-257.513 1798.47,-251.822"/>
</g>
<!-- Node49&#45;&gt;Node33 -->
<g id="edge66" class="edge"><title>Node49&#45;&gt;Node33</title>
<path fill="none" stroke="midnightblue" d="M1711.28,-256.794C1693.01,-249.2 1673.96,-238.564 1660,-224 1628.81,-191.472 1658.24,-156.783 1622,-130 1547.38,-74.8489 1282.42,-146.634 1206,-94 1183.8,-78.7121 1174.1,-46.7324 1170.25,-28.664"/>
<polygon fill="midnightblue" stroke="midnightblue" points="1710.14,-260.107 1720.73,-260.492 1712.69,-253.589 1710.14,-260.107"/>
</g>
<!-- Node49&#45;&gt;Node35 -->
<g id="edge60" class="edge"><title>Node49&#45;&gt;Node35</title>
<path fill="none" stroke="midnightblue" d="M1836.64,-262.075C1907.62,-250.087 2017.98,-231.448 2084.78,-220.165"/>
<polygon fill="midnightblue" stroke="midnightblue" points="1835.74,-258.678 1826.46,-263.794 1836.91,-265.58 1835.74,-258.678"/>
</g>
<!-- Node49&#45;&gt;Node38 -->
<g id="edge64" class="edge"><title>Node49&#45;&gt;Node38</title>
<path fill="none" stroke="midnightblue" d="M1792.06,-252.859C1807.33,-236.626 1822.44,-213.704 1810,-195 1768.63,-132.798 1727.14,-149.407 1655,-130 1542.02,-99.6057 1405.11,-87.648 1329.39,-83.1149"/>
<polygon fill="midnightblue" stroke="midnightblue" points="1789.27,-250.699 1784.67,-260.244 1794.22,-255.65 1789.27,-250.699"/>
</g>
<!-- Node50 -->
<g id="node28" class="node"><title>Node50</title>
<g id="a_node28"><a xlink:href="exc_8h_source.html" target="_top" xlink:title="py/cxx/tomographerpy\l/exc.h">
<polygon fill="none" stroke="black" points="1668.81,-195.5 1668.81,-223.5 1783.19,-223.5 1783.19,-195.5 1668.81,-195.5"/>
<text text-anchor="start" x="1676.81" y="-211.5" font-family="Helvetica,sans-Serif" font-size="10.00">py/cxx/tomographerpy</text>
<text text-anchor="middle" x="1726" y="-201.5" font-family="Helvetica,sans-Serif" font-size="10.00">/exc.h</text>
</a>
</g>
</g>
<!-- Node49&#45;&gt;Node50 -->
<g id="edge57" class="edge"><title>Node49&#45;&gt;Node50</title>
<path fill="none" stroke="midnightblue" d="M1754.28,-251.93C1747.84,-242.491 1740.49,-231.727 1734.9,-223.537"/>
<polygon fill="midnightblue" stroke="midnightblue" points="1751.56,-254.16 1760.09,-260.446 1757.34,-250.214 1751.56,-254.16"/>
</g>
<!-- Node49&#45;&gt;Node51 -->
<g id="edge59" class="edge"><title>Node49&#45;&gt;Node51</title>
<path fill="none" stroke="midnightblue" d="M1785.16,-251.674C1795.65,-234.624 1805.14,-211.185 1792,-195 1769.93,-167.823 1675.97,-155.029 1613.47,-149.424"/>
<polygon fill="midnightblue" stroke="midnightblue" points="1781.98,-250.135 1779.36,-260.402 1787.81,-254.006 1781.98,-250.135"/>
</g>
<!-- Node49&#45;&gt;Node52 -->
<g id="edge61" class="edge"><title>Node49&#45;&gt;Node52</title>
<path fill="none" stroke="midnightblue" d="M1709.64,-257.7C1672.81,-247.156 1626.61,-233.458 1594.49,-223.537"/>
<polygon fill="midnightblue" stroke="midnightblue" points="1708.7,-261.071 1719.27,-260.446 1710.62,-254.339 1708.7,-261.071"/>
</g>
<!-- Node52&#45;&gt;Node49 -->
<g id="edge62" class="edge"><title>Node52&#45;&gt;Node49</title>
<path fill="none" stroke="midnightblue" d="M1615.3,-226.282C1652.12,-236.823 1698.32,-250.521 1730.46,-260.446"/>
<polygon fill="midnightblue" stroke="midnightblue" points="1616.24,-222.912 1605.67,-223.537 1614.32,-229.644 1616.24,-222.912"/>
</g>
<!-- Node52&#45;&gt;Node51 -->
<g id="edge63" class="edge"><title>Node52&#45;&gt;Node51</title>
<path fill="none" stroke="midnightblue" d="M1556,-185.164C1556,-176.169 1556,-166.221 1556,-158.537"/>
<polygon fill="midnightblue" stroke="midnightblue" points="1552.5,-185.446 1556,-195.446 1559.5,-185.446 1552.5,-185.446"/>
</g>
</g>
</svg>
        <g id="navigator" transform="translate(0 0)" fill="#404254">
                <rect fill="#f2f5e9" fill-opacity="0.5" stroke="#606060" stroke-width=".5" x="0" y="0" width="60" height="60"/>
                <use id="zoomplus" xlink:href="#zoomPlus" x="17" y="9" onmousedown="handleZoom(evt,'in')"/>
                <use id="zoomminus" xlink:href="#zoomMin" x="42" y="9" onmousedown="handleZoom(evt,'out')"/>
                <use id="reset" xlink:href="#resetDef" x="30" y="36" onmousedown="handleReset()"/>
                <g id="arrowUp" xlink:href="#dirArrow" transform="translate(30 24)" onmousedown="handlePan(0,-1)">
                  <use xlink:href="#rim" fill="#404040">
                        <set attributeName="fill" to="#808080" begin="arrowUp.mouseover" end="arrowUp.mouseout"/>
                  </use>
                  <path fill="none" stroke="white" stroke-width="1.5" d="M0,-3.0v7 M-2.5,-0.5L0,-3.0L2.5,-0.5"/>
                </g>
                <g id="arrowRight" xlink:href="#dirArrow" transform="rotate(90) translate(36 -43)" onmousedown="handlePan(1,0)">
                  <use xlink:href="#rim" fill="#404040">
                        <set attributeName="fill" to="#808080" begin="arrowRight.mouseover" end="arrowRight.mouseout"/>
                  </use>
                  <path fill="none" stroke="white" stroke-width="1.5" d="M0,-3.0v7 M-2.5,-0.5L0,-3.0L2.5,-0.5"/>
                </g>
                <g id="arrowDown" xlink:href="#dirArrow" transform="rotate(180) translate(-30 -48)" onmousedown="handlePan(0,1)">
                  <use xlink:href="#rim" fill="#404040">
                        <set attributeName="fill" to="#808080" begin="arrowDown.mouseover" end="arrowDown.mouseout"/>
                  </use>
                  <path fill="none" stroke="white" stroke-width="1.5" d="M0,-3.0v7 M-2.5,-0.5L0,-3.0L2.5,-0.5"/>
                </g>
                <g id="arrowLeft" xlink:href="#dirArrow" transform="rotate(270) translate(-36 17)" onmousedown="handlePan(-1,0)">
                  <use xlink:href="#rim" fill="#404040">
                        <set attributeName="fill" to="#808080" begin="arrowLeft.mouseover" end="arrowLeft.mouseout"/>
                  </use>
                  <path fill="none" stroke="white" stroke-width="1.5" d="M0,-3.0v7 M-2.5,-0.5L0,-3.0L2.5,-0.5"/>
                </g>
        </g>
        <svg viewBox="0 0 15 15" width="100%" height="30px" preserveAspectRatio="xMaxYMin meet">
         <g id="arrow_out" transform="scale(0.3 0.3)">
          <a xlink:href="fmt_8h__dep__incl_org.svg" target="_base">
           <rect id="button" ry="5" rx="5" y="6" x="6" height="38" width="38"
                fill="#f2f5e9" fill-opacity="0.5" stroke="#606060" stroke-width="1.0"/>
           <path id="arrow"
             d="M 11.500037,31.436501 C 11.940474,20.09759 22.043105,11.32322 32.158766,21.979434 L 37.068811,17.246167 C 37.068811,17.246167 37.088388,32 37.088388,32 L 22.160133,31.978069 C 22.160133,31.978069 26.997745,27.140456 26.997745,27.140456 C 18.528582,18.264221 13.291696,25.230495 11.500037,31.436501 z"
             style="fill:#404040;"/>
          </a>
         </g>
        </svg>
</svg>
