<?xml version="1.0" encoding="UTF-8" standalone="no"?>
<!DOCTYPE svg PUBLIC "-//W3C//DTD SVG 1.1//EN"
 "http://www.w3.org/Graphics/SVG/1.1/DTD/svg11.dtd">
<!-- Generated by graphviz version 2.38.0 (20140413.2041)
 -->
<!-- Title: tomographer/histogram.h Pages: 1 -->
<!--zoomable 257 -->
<svg id="main" version="1.1" xmlns="http://www.w3.org/2000/svg" xmlns:xlink="http://www.w3.org/1999/xlink" xml:space="preserve" onload="init(evt)">
<style type="text/css"><![CDATA[
.edge:hover path { stroke: red; }
.edge:hover polygon { stroke: red; fill: red; }
]]></style>
<script type="text/javascript"><![CDATA[
var edges = document.getElementsByTagName('g');
if (edges && edges.length) {
  for (var i=0;i<edges.length;i++) {
    if (edges[i].id.substr(0,4)=='edge') {
      edges[i].setAttribute('class','edge');
    }
  }
}
]]></script>
        <defs>
                <circle id="rim" cx="0" cy="0" r="7"/>
                <circle id="rim2" cx="0" cy="0" r="3.5"/>
                <g id="zoomPlus">
                        <use xlink:href="#rim" fill="#404040">
                                <set attributeName="fill" to="#808080" begin="zoomplus.mouseover" end="zoomplus.mouseout"/>
                        </use>
                        <path d="M-4,0h8M0,-4v8" fill="none" stroke="white" stroke-width="1.5" pointer-events="none"/>
                </g>
                <g id="zoomMin">
                        <use xlink:href="#rim" fill="#404040">
                                <set attributeName="fill" to="#808080" begin="zoomminus.mouseover" end="zoomminus.mouseout"/>
                        </use>
                        <path d="M-4,0h8" fill="none" stroke="white" stroke-width="1.5" pointer-events="none"/>
                </g>
                <g id="dirArrow">
                        <path fill="none" stroke="white" stroke-width="1.5" d="M0,-3.0v7 M-2.5,-0.5L0,-3.0L2.5,-0.5"/>
                </g>
               <g id="resetDef">
                       <use xlink:href="#rim2" fill="#404040">
                               <set attributeName="fill" to="#808080" begin="reset.mouseover" end="reset.mouseout"/>
                       </use>
               </g>
        </defs>

<script type="text/javascript">
var viewWidth = 1693;
var viewHeight = 257;
var sectionId = 'dynsection-0';
</script>
<script xlink:href="svgpan.js"/>
<svg id="graph" class="graph">
<g id="viewport">
<title>tomographer/histogram.h</title>
<!-- Node0 -->
<g id="node1" class="node"><title>Node0</title>
<polygon fill="#bfbfbf" stroke="black" points="863.754,-230.5 863.754,-248.5 991.478,-248.5 991.478,-230.5 863.754,-230.5"/>
<text text-anchor="middle" x="927.616" y="-236.5" font-family="Helvetica,sans-Serif" font-size="10.00">tomographer/histogram.h</text>
</g>
<!-- Node1 -->
<g id="node2" class="node"><title>Node1</title>
<polygon fill="none" stroke="#bfbfbf" points="0,-170.5 0,-188.5 43.2314,-188.5 43.2314,-170.5 0,-170.5"/>
<text text-anchor="middle" x="21.6157" y="-176.5" font-family="Helvetica,sans-Serif" font-size="10.00">cmath</text>
</g>
<!-- Node0&#45;&gt;Node1 -->
<g id="edge1" class="edge"><title>Node0&#45;&gt;Node1</title>
<path fill="none" stroke="midnightblue" d="M863.57,-237.769C689.701,-235.38 211.613,-226.009 57.6157,-194 54.9505,-193.446 52.2209,-192.726 49.515,-191.907"/>
<polygon fill="midnightblue" stroke="midnightblue" points="50.5712,-188.569 39.9765,-188.625 48.294,-195.188 50.5712,-188.569"/>
</g>
<!-- Node2 -->
<g id="node3" class="node"><title>Node2</title>
<polygon fill="none" stroke="#bfbfbf" points="923.443,-0.5 923.443,-18.5 967.788,-18.5 967.788,-0.5 923.443,-0.5"/>
<text text-anchor="middle" x="945.616" y="-6.5" font-family="Helvetica,sans-Serif" font-size="10.00">cstdlib</text>
</g>
<!-- Node0&#45;&gt;Node2 -->
<g id="edge2" class="edge"><title>Node0&#45;&gt;Node2</title>
<path fill="none" stroke="midnightblue" d="M980.062,-230.464C1011.01,-224.022 1049.98,-212.842 1080.62,-194 1148.19,-152.433 1243.5,-115.87 1192.62,-55 1165.66,-22.7536 1039.06,-13.8369 978.308,-11.4005"/>
<polygon fill="midnightblue" stroke="midnightblue" points="978.234,-7.89552 968.113,-11.0281 977.979,-14.8909 978.234,-7.89552"/>
</g>
<!-- Node3 -->
<g id="node4" class="node"><title>Node3</title>
<polygon fill="none" stroke="#bfbfbf" points="99.2241,-110.5 99.2241,-128.5 138.007,-128.5 138.007,-110.5 99.2241,-110.5"/>
<text text-anchor="middle" x="118.616" y="-116.5" font-family="Helvetica,sans-Serif" font-size="10.00">utility</text>
</g>
<!-- Node0&#45;&gt;Node3 -->
<g id="edge3" class="edge"><title>Node0&#45;&gt;Node3</title>
<path fill="none" stroke="midnightblue" d="M863.631,-236.939C723.101,-233.047 391.37,-221.203 282.616,-194 229.356,-180.678 171.833,-150.946 141.068,-133.656"/>
<polygon fill="midnightblue" stroke="midnightblue" points="142.48,-130.431 132.059,-128.516 139.011,-136.512 142.48,-130.431"/>
</g>
<!-- Node4 -->
<g id="node5" class="node"><title>Node4</title>
<polygon fill="none" stroke="#bfbfbf" points="208.443,-55.5 208.443,-73.5 262.788,-73.5 262.788,-55.5 208.443,-55.5"/>
<text text-anchor="middle" x="235.616" y="-61.5" font-family="Helvetica,sans-Serif" font-size="10.00">iostream</text>
</g>
<!-- Node0&#45;&gt;Node4 -->
<g id="edge4" class="edge"><title>Node0&#45;&gt;Node4</title>
<path fill="none" stroke="midnightblue" d="M863.668,-238.409C709.988,-237.578 323.556,-231.683 200.616,-194 146.323,-177.358 118.76,-178.321 90.6157,-129 66.0864,-86.0136 147.829,-72.0822 198.461,-67.5998"/>
<polygon fill="midnightblue" stroke="midnightblue" points="198.749,-71.0881 208.438,-66.8016 198.19,-64.1104 198.749,-71.0881"/>
</g>
<!-- Node5 -->
<g id="node6" class="node"><title>Node5</title>
<polygon fill="none" stroke="#bfbfbf" points="156.106,-110.5 156.106,-128.5 207.125,-128.5 207.125,-110.5 156.106,-110.5"/>
<text text-anchor="middle" x="181.616" y="-116.5" font-family="Helvetica,sans-Serif" font-size="10.00">iomanip</text>
</g>
<!-- Node0&#45;&gt;Node5 -->
<g id="edge5" class="edge"><title>Node0&#45;&gt;Node5</title>
<path fill="none" stroke="midnightblue" d="M863.611,-238.902C760.616,-238.302 552.264,-231.932 380.616,-194 316.407,-179.811 244.964,-149.662 207.61,-132.717"/>
<polygon fill="midnightblue" stroke="midnightblue" points="208.99,-129.5 198.442,-128.511 206.072,-135.862 208.99,-129.5"/>
</g>
<!-- Node6 -->
<g id="node7" class="node"><title>Node6</title>
<polygon fill="none" stroke="#bfbfbf" points="568.835,-110.5 568.835,-128.5 620.396,-128.5 620.396,-110.5 568.835,-110.5"/>
<text text-anchor="middle" x="594.616" y="-116.5" font-family="Helvetica,sans-Serif" font-size="10.00">sstream</text>
</g>
<!-- Node0&#45;&gt;Node6 -->
<g id="edge6" class="edge"><title>Node0&#45;&gt;Node6</title>
<path fill="none" stroke="midnightblue" d="M904.989,-230.482C847.205,-210.006 694.037,-155.73 626.907,-131.943"/>
<polygon fill="midnightblue" stroke="midnightblue" points="627.868,-128.57 617.273,-128.529 625.53,-135.168 627.868,-128.57"/>
</g>
<!-- Node7 -->
<g id="node8" class="node"><title>Node7</title>
<polygon fill="none" stroke="#bfbfbf" points="1041.21,-55.5 1041.21,-73.5 1100.02,-73.5 1100.02,-55.5 1041.21,-55.5"/>
<text text-anchor="middle" x="1070.62" y="-61.5" font-family="Helvetica,sans-Serif" font-size="10.00">stdexcept</text>
</g>
<!-- Node0&#45;&gt;Node7 -->
<g id="edge7" class="edge"><title>Node0&#45;&gt;Node7</title>
<path fill="none" stroke="midnightblue" d="M950.784,-230.462C986.844,-216.467 1054.73,-183.765 1078.62,-129 1084.93,-114.518 1081.76,-96.5339 1077.7,-83.4057"/>
<polygon fill="midnightblue" stroke="midnightblue" points="1080.9,-81.9607 1074.26,-73.7035 1074.3,-84.2982 1080.9,-81.9607"/>
</g>
<!-- Node8 -->
<g id="node9" class="node"><title>Node8</title>
<polygon fill="none" stroke="#bfbfbf" points="1239.55,-55.5 1239.55,-73.5 1301.68,-73.5 1301.68,-55.5 1239.55,-55.5"/>
<text text-anchor="middle" x="1270.62" y="-61.5" font-family="Helvetica,sans-Serif" font-size="10.00">type_traits</text>
</g>
<!-- Node0&#45;&gt;Node8 -->
<g id="edge8" class="edge"><title>Node0&#45;&gt;Node8</title>
<path fill="none" stroke="midnightblue" d="M991.617,-236.532C1068.35,-232.905 1190.95,-222.673 1225.62,-194 1259.07,-166.325 1267.69,-112.205 1269.88,-83.8404"/>
<polygon fill="midnightblue" stroke="midnightblue" points="1273.38,-83.9064 1270.47,-73.7195 1266.4,-83.4986 1273.38,-83.9064"/>
</g>
<!-- Node9 -->
<g id="node10" class="node"><title>Node9</title>
<polygon fill="none" stroke="#bfbfbf" points="1499.05,-170.5 1499.05,-188.5 1556.18,-188.5 1556.18,-170.5 1499.05,-170.5"/>
<text text-anchor="middle" x="1527.62" y="-176.5" font-family="Helvetica,sans-Serif" font-size="10.00">algorithm</text>
</g>
<!-- Node0&#45;&gt;Node9 -->
<g id="edge9" class="edge"><title>Node0&#45;&gt;Node9</title>
<path fill="none" stroke="midnightblue" d="M991.758,-239.037C1097.13,-238.675 1312.9,-232.691 1490.62,-194 1493.43,-193.386 1496.33,-192.608 1499.2,-191.737"/>
<polygon fill="midnightblue" stroke="midnightblue" points="1500.36,-195.04 1508.7,-188.516 1498.11,-188.41 1500.36,-195.04"/>
</g>
<!-- Node10 -->
<g id="node11" class="node"><title>Node10</title>
<polygon fill="none" stroke="#bfbfbf" points="1574.09,-165.5 1574.09,-193.5 1685.14,-193.5 1685.14,-165.5 1574.09,-165.5"/>
<text text-anchor="start" x="1582.09" y="-181.5" font-family="Helvetica,sans-Serif" font-size="10.00">boost/math/constants</text>
<text text-anchor="middle" x="1629.62" y="-171.5" font-family="Helvetica,sans-Serif" font-size="10.00">/constants.hpp</text>
</g>
<!-- Node0&#45;&gt;Node10 -->
<g id="edge10" class="edge"><title>Node0&#45;&gt;Node10</title>
<path fill="none" stroke="midnightblue" d="M991.762,-236.957C1105.3,-233.585 1349.18,-223.465 1563.66,-194.148"/>
<polygon fill="midnightblue" stroke="midnightblue" points="1564.42,-197.576 1573.85,-192.737 1563.46,-190.642 1564.42,-197.576"/>
</g>
<!-- Node11 -->
<g id="node12" class="node"><title>Node11</title>
<polygon fill="none" stroke="#bfbfbf" points="1117.6,-55.5 1117.6,-73.5 1183.63,-73.5 1183.63,-55.5 1117.6,-55.5"/>
<text text-anchor="middle" x="1150.62" y="-61.5" font-family="Helvetica,sans-Serif" font-size="10.00">Eigen/Core</text>
</g>
<!-- Node0&#45;&gt;Node11 -->
<g id="edge11" class="edge"><title>Node0&#45;&gt;Node11</title>
<path fill="none" stroke="midnightblue" d="M966.952,-230.478C992.801,-223.811 1026.38,-212.38 1051.62,-194 1093.6,-163.422 1126.48,-110.205 1141.58,-82.8418"/>
<polygon fill="midnightblue" stroke="midnightblue" points="1144.83,-84.1875 1146.47,-73.7216 1138.66,-80.8754 1144.83,-84.1875"/>
</g>
<!-- Node12 -->
<g id="node13" class="node"><title>Node12</title>
<g id="a_node13"><a xlink:href="fmt_8h.html" target="_top" xlink:title="Utilities for formatting strings. ">
<polygon fill="none" stroke="black" points="389.813,-170.5 389.813,-188.5 511.418,-188.5 511.418,-170.5 389.813,-170.5"/>
<text text-anchor="middle" x="450.616" y="-176.5" font-family="Helvetica,sans-Serif" font-size="10.00">tomographer/tools/fmt.h</text>
</a>
</g>
</g>
<!-- Node0&#45;&gt;Node12 -->
<g id="edge12" class="edge"><title>Node0&#45;&gt;Node12</title>
<path fill="none" stroke="midnightblue" d="M863.285,-230.678C774.311,-219.859 614.228,-200.394 521.773,-189.152"/>
<polygon fill="midnightblue" stroke="midnightblue" points="522.017,-185.656 511.668,-187.924 521.173,-192.605 522.017,-185.656"/>
</g>
<!-- Node19 -->
<g id="node20" class="node"><title>Node19</title>
<g id="a_node20"><a xlink:href="cxxutil_8h.html" target="_top" xlink:title="Some C++ utilities, with a tad of C++11 tricks. ">
<polygon fill="none" stroke="black" points="698.865,-110.5 698.865,-128.5 834.367,-128.5 834.367,-110.5 698.865,-110.5"/>
<text text-anchor="middle" x="766.616" y="-116.5" font-family="Helvetica,sans-Serif" font-size="10.00">tomographer/tools/cxxutil.h</text>
</a>
</g>
</g>
<!-- Node0&#45;&gt;Node19 -->
<g id="edge46" class="edge"><title>Node0&#45;&gt;Node19</title>
<path fill="none" stroke="midnightblue" d="M910.146,-230.429C893.236,-222.271 867.208,-208.786 846.616,-194 822.089,-176.389 796.952,-152.06 781.56,-136.303"/>
<polygon fill="midnightblue" stroke="midnightblue" points="783.912,-133.7 774.454,-128.925 778.87,-138.556 783.912,-133.7"/>
</g>
<!-- Node27 -->
<g id="node28" class="node"><title>Node27</title>
<g id="a_node28"><a xlink:href="eigenutil_8h.html" target="_top" xlink:title="Basic utilities for dealing with Eigen matrices and other types. ">
<polygon fill="none" stroke="black" points="855.131,-170.5 855.131,-188.5 1000.1,-188.5 1000.1,-170.5 855.131,-170.5"/>
<text text-anchor="middle" x="927.616" y="-176.5" font-family="Helvetica,sans-Serif" font-size="10.00">tomographer/tools/eigenutil.h</text>
</a>
</g>
</g>
<!-- Node0&#45;&gt;Node27 -->
<g id="edge40" class="edge"><title>Node0&#45;&gt;Node27</title>
<path fill="none" stroke="midnightblue" d="M927.616,-230.435C927.616,-222.389 927.616,-209.739 927.616,-199.185"/>
<polygon fill="midnightblue" stroke="midnightblue" points="931.116,-198.872 927.616,-188.872 924.116,-198.872 931.116,-198.872"/>
</g>
<!-- Node30 -->
<g id="node31" class="node"><title>Node30</title>
<g id="a_node31"><a xlink:href="needownoperatornew_8h.html" target="_top" xlink:title="Managing the need for specific overrides to operator new() for some types (especially Eigen types) ...">
<polygon fill="none" stroke="black" points="1277.94,-170.5 1277.94,-188.5 1481.29,-188.5 1481.29,-170.5 1277.94,-170.5"/>
<text text-anchor="middle" x="1379.62" y="-176.5" font-family="Helvetica,sans-Serif" font-size="10.00">tomographer/tools/needownoperatornew.h</text>
</a>
</g>
</g>
<!-- Node0&#45;&gt;Node30 -->
<g id="edge47" class="edge"><title>Node0&#45;&gt;Node30</title>
<path fill="none" stroke="midnightblue" d="M989.99,-230.496C1072.92,-219.855 1219.21,-201.083 1307.01,-189.817"/>
<polygon fill="midnightblue" stroke="midnightblue" points="1307.68,-193.259 1317.16,-188.515 1306.79,-186.316 1307.68,-193.259"/>
</g>
<!-- Node12&#45;&gt;Node3 -->
<g id="edge19" class="edge"><title>Node12&#45;&gt;Node3</title>
<path fill="none" stroke="midnightblue" d="M389.588,-170.999C330.101,-163.139 236.985,-149.384 148.086,-129.09"/>
<polygon fill="midnightblue" stroke="midnightblue" points="148.64,-125.626 138.108,-126.78 147.061,-132.445 148.64,-125.626"/>
</g>
<!-- Node12&#45;&gt;Node4 -->
<g id="edge18" class="edge"><title>Node12&#45;&gt;Node4</title>
<path fill="none" stroke="midnightblue" d="M393.795,-170.487C343.284,-162.264 274.451,-147.994 254.616,-129 242.418,-117.32 237.961,-98.1611 236.379,-83.9379"/>
<polygon fill="midnightblue" stroke="midnightblue" points="239.859,-83.542 235.633,-73.8265 232.878,-84.0569 239.859,-83.542"/>
</g>
<!-- Node12&#45;&gt;Node5 -->
<g id="edge21" class="edge"><title>Node12&#45;&gt;Node5</title>
<path fill="none" stroke="midnightblue" d="M413.495,-170.496C361.717,-159.332 268.44,-139.22 217.392,-128.214"/>
<polygon fill="midnightblue" stroke="midnightblue" points="217.983,-124.761 207.47,-126.074 216.507,-131.604 217.983,-124.761"/>
</g>
<!-- Node12&#45;&gt;Node6 -->
<g id="edge17" class="edge"><title>Node12&#45;&gt;Node6</title>
<path fill="none" stroke="midnightblue" d="M470.638,-170.435C495.11,-160.579 536.735,-143.813 564.935,-132.455"/>
<polygon fill="midnightblue" stroke="midnightblue" points="566.331,-135.666 574.299,-128.683 563.715,-129.173 566.331,-135.666"/>
</g>
<!-- Node13 -->
<g id="node14" class="node"><title>Node13</title>
<polygon fill="none" stroke="#bfbfbf" points="404.554,-110.5 404.554,-128.5 446.677,-128.5 446.677,-110.5 404.554,-110.5"/>
<text text-anchor="middle" x="425.616" y="-116.5" font-family="Helvetica,sans-Serif" font-size="10.00">cstdio</text>
</g>
<!-- Node12&#45;&gt;Node13 -->
<g id="edge13" class="edge"><title>Node12&#45;&gt;Node13</title>
<path fill="none" stroke="midnightblue" d="M447.14,-170.435C443.561,-162.132 437.869,-148.927 433.237,-138.181"/>
<polygon fill="midnightblue" stroke="midnightblue" points="436.397,-136.67 429.224,-128.872 429.968,-139.44 436.397,-136.67"/>
</g>
<!-- Node14 -->
<g id="node15" class="node"><title>Node14</title>
<polygon fill="none" stroke="#bfbfbf" points="502.219,-110.5 502.219,-128.5 551.012,-128.5 551.012,-110.5 502.219,-110.5"/>
<text text-anchor="middle" x="526.616" y="-116.5" font-family="Helvetica,sans-Serif" font-size="10.00">cstdarg</text>
</g>
<!-- Node12&#45;&gt;Node14 -->
<g id="edge14" class="edge"><title>Node12&#45;&gt;Node14</title>
<path fill="none" stroke="midnightblue" d="M461.183,-170.435C473.185,-161.276 493.003,-146.152 507.69,-134.944"/>
<polygon fill="midnightblue" stroke="midnightblue" points="509.82,-137.721 515.646,-128.872 505.573,-132.156 509.82,-137.721"/>
</g>
<!-- Node15 -->
<g id="node16" class="node"><title>Node15</title>
<polygon fill="none" stroke="#bfbfbf" points="263.328,-110.5 263.328,-128.5 309.904,-128.5 309.904,-110.5 263.328,-110.5"/>
<text text-anchor="middle" x="286.616" y="-116.5" font-family="Helvetica,sans-Serif" font-size="10.00">chrono</text>
</g>
<!-- Node12&#45;&gt;Node15 -->
<g id="edge15" class="edge"><title>Node12&#45;&gt;Node15</title>
<path fill="none" stroke="midnightblue" d="M427.812,-170.435C399.619,-160.465 351.434,-143.424 319.309,-132.062"/>
<polygon fill="midnightblue" stroke="midnightblue" points="320.084,-128.624 309.489,-128.589 317.75,-135.223 320.084,-128.624"/>
</g>
<!-- Node16 -->
<g id="node17" class="node"><title>Node16</title>
<polygon fill="none" stroke="#bfbfbf" points="461.389,-0.5 461.389,-18.5 501.842,-18.5 501.842,-0.5 461.389,-0.5"/>
<text text-anchor="middle" x="481.616" y="-6.5" font-family="Helvetica,sans-Serif" font-size="10.00">string</text>
</g>
<!-- Node12&#45;&gt;Node16 -->
<g id="edge16" class="edge"><title>Node12&#45;&gt;Node16</title>
<path fill="none" stroke="midnightblue" d="M451.679,-170.46C452.914,-160.682 454.877,-143.665 455.616,-129 456.041,-120.566 456.198,-118.424 455.616,-110 454.502,-93.8849 451.729,-90.1151 450.616,-74 450.033,-65.5757 448.086,-63.0567 450.616,-55 453.93,-44.4448 460.732,-34.2043 467.123,-26.2132"/>
<polygon fill="midnightblue" stroke="midnightblue" points="469.867,-28.3895 473.711,-18.5165 464.549,-23.8375 469.867,-28.3895"/>
</g>
<!-- Node17 -->
<g id="node18" class="node"><title>Node17</title>
<polygon fill="none" stroke="#bfbfbf" points="638,-110.5 638,-128.5 681.231,-128.5 681.231,-110.5 638,-110.5"/>
<text text-anchor="middle" x="659.616" y="-116.5" font-family="Helvetica,sans-Serif" font-size="10.00">vector</text>
</g>
<!-- Node12&#45;&gt;Node17 -->
<g id="edge20" class="edge"><title>Node12&#45;&gt;Node17</title>
<path fill="none" stroke="midnightblue" d="M479.775,-170.497C513.348,-161.27 570.406,-145.547 628.315,-129.353"/>
<polygon fill="midnightblue" stroke="midnightblue" points="629.304,-132.711 637.99,-126.645 627.417,-125.97 629.304,-132.711"/>
</g>
<!-- Node18 -->
<g id="node19" class="node"><title>Node18</title>
<polygon fill="none" stroke="#bfbfbf" points="328.212,-110.5 328.212,-128.5 387.02,-128.5 387.02,-110.5 328.212,-110.5"/>
<text text-anchor="middle" x="357.616" y="-116.5" font-family="Helvetica,sans-Serif" font-size="10.00">functional</text>
</g>
<!-- Node12&#45;&gt;Node18 -->
<g id="edge22" class="edge"><title>Node12&#45;&gt;Node18</title>
<path fill="none" stroke="midnightblue" d="M437.684,-170.435C422.639,-161.052 397.554,-145.408 379.467,-134.128"/>
<polygon fill="midnightblue" stroke="midnightblue" points="381.074,-131.005 370.737,-128.683 377.37,-136.945 381.074,-131.005"/>
</g>
<!-- Node12&#45;&gt;Node19 -->
<g id="edge23" class="edge"><title>Node12&#45;&gt;Node19</title>
<path fill="none" stroke="midnightblue" d="M494.222,-170.496C551.318,-160.017 651.37,-141.653 713.024,-130.336"/>
<polygon fill="midnightblue" stroke="midnightblue" points="713.746,-133.763 722.95,-128.515 712.482,-126.878 713.746,-133.763"/>
</g>
<!-- Node19&#45;&gt;Node2 -->
<g id="edge26" class="edge"><title>Node19&#45;&gt;Node2</title>
<path fill="none" stroke="midnightblue" d="M815.136,-110.429C842.56,-104.03 876.31,-92.9053 901.616,-74 917.698,-61.9855 930.015,-42.314 937.473,-28.0457"/>
<polygon fill="midnightblue" stroke="midnightblue" points="940.749,-29.3152 942.028,-18.7979 934.469,-26.2218 940.749,-29.3152"/>
</g>
<!-- Node19&#45;&gt;Node4 -->
<g id="edge27" class="edge"><title>Node19&#45;&gt;Node4</title>
<path fill="none" stroke="midnightblue" d="M698.668,-110.853C695.949,-110.562 693.257,-110.277 690.616,-110 535.686,-93.7607 350.874,-76.2653 273.065,-68.9851"/>
<polygon fill="midnightblue" stroke="midnightblue" points="273.092,-65.4725 262.81,-68.0268 272.441,-72.4422 273.092,-65.4725"/>
</g>
<!-- Node19&#45;&gt;Node7 -->
<g id="edge31" class="edge"><title>Node19&#45;&gt;Node7</title>
<path fill="none" stroke="midnightblue" d="M819.761,-110.479C871.358,-102.496 952.127,-89.4847 1031.07,-74.2185"/>
<polygon fill="midnightblue" stroke="midnightblue" points="1032.04,-77.5953 1041.19,-72.2476 1030.71,-70.7244 1032.04,-77.5953"/>
</g>
<!-- Node19&#45;&gt;Node8 -->
<g id="edge29" class="edge"><title>Node19&#45;&gt;Node8</title>
<path fill="none" stroke="midnightblue" d="M834.504,-111.503C918.579,-102.815 1066.18,-87.4931 1192.62,-74 1204.56,-72.7255 1217.53,-71.3206 1229.4,-70.0263"/>
<polygon fill="midnightblue" stroke="midnightblue" points="1229.93,-73.4887 1239.5,-68.9235 1229.17,-66.5301 1229.93,-73.4887"/>
</g>
<!-- Node19&#45;&gt;Node11 -->
<g id="edge39" class="edge"><title>Node19&#45;&gt;Node11</title>
<path fill="none" stroke="midnightblue" d="M834.633,-111.077C901.569,-103.448 1006.9,-90.5791 1107.18,-74.1404"/>
<polygon fill="midnightblue" stroke="midnightblue" points="1107.89,-77.5715 1117.18,-72.4864 1106.75,-70.6653 1107.89,-77.5715"/>
</g>
<!-- Node20 -->
<g id="node21" class="node"><title>Node20</title>
<polygon fill="none" stroke="#bfbfbf" points="857.5,-0.5 857.5,-18.5 905.731,-18.5 905.731,-0.5 857.5,-0.5"/>
<text text-anchor="middle" x="881.616" y="-6.5" font-family="Helvetica,sans-Serif" font-size="10.00">cassert</text>
</g>
<!-- Node19&#45;&gt;Node20 -->
<g id="edge24" class="edge"><title>Node19&#45;&gt;Node20</title>
<path fill="none" stroke="midnightblue" d="M826.153,-110.492C848.276,-104.305 871.227,-93.3577 884.616,-74 893.731,-60.8212 891.542,-42.1663 887.939,-28.4856"/>
<polygon fill="midnightblue" stroke="midnightblue" points="891.235,-27.2983 884.935,-18.78 884.548,-29.3678 891.235,-27.2983"/>
</g>
<!-- Node21 -->
<g id="node22" class="node"><title>Node21</title>
<polygon fill="none" stroke="#bfbfbf" points="687.495,-0.5 687.495,-18.5 735.736,-18.5 735.736,-0.5 687.495,-0.5"/>
<text text-anchor="middle" x="711.616" y="-6.5" font-family="Helvetica,sans-Serif" font-size="10.00">cstddef</text>
</g>
<!-- Node19&#45;&gt;Node21 -->
<g id="edge25" class="edge"><title>Node19&#45;&gt;Node21</title>
<path fill="none" stroke="midnightblue" d="M756.266,-110.477C746.54,-102.354 732.355,-88.8941 724.616,-74 717.312,-59.944 714.11,-42.1465 712.707,-28.9719"/>
<polygon fill="midnightblue" stroke="midnightblue" points="716.178,-28.478 711.879,-18.7946 709.201,-29.0454 716.178,-28.478"/>
</g>
<!-- Node22 -->
<g id="node23" class="node"><title>Node22</title>
<polygon fill="none" stroke="#bfbfbf" points="969.998,-55.5 969.998,-73.5 1023.23,-73.5 1023.23,-55.5 969.998,-55.5"/>
<text text-anchor="middle" x="996.616" y="-61.5" font-family="Helvetica,sans-Serif" font-size="10.00">complex</text>
</g>
<!-- Node19&#45;&gt;Node22 -->
<g id="edge28" class="edge"><title>Node19&#45;&gt;Node22</title>
<path fill="none" stroke="midnightblue" d="M801.548,-110.45C844.361,-100.585 916.567,-83.946 960.093,-73.916"/>
<polygon fill="midnightblue" stroke="midnightblue" points="961.02,-77.2942 969.979,-71.638 959.448,-70.473 961.02,-77.2942"/>
</g>
<!-- Node23 -->
<g id="node24" class="node"><title>Node23</title>
<polygon fill="none" stroke="#bfbfbf" points="619.212,-55.5 619.212,-73.5 678.02,-73.5 678.02,-55.5 619.212,-55.5"/>
<text text-anchor="middle" x="648.616" y="-61.5" font-family="Helvetica,sans-Serif" font-size="10.00">exception</text>
</g>
<!-- Node19&#45;&gt;Node23 -->
<g id="edge30" class="edge"><title>Node19&#45;&gt;Node23</title>
<path fill="none" stroke="midnightblue" d="M748.694,-110.45C729.374,-101.773 698.389,-87.8556 676.01,-77.8041"/>
<polygon fill="midnightblue" stroke="midnightblue" points="677.262,-74.5298 666.706,-73.6253 674.394,-80.9153 677.262,-74.5298"/>
</g>
<!-- Node24 -->
<g id="node25" class="node"><title>Node24</title>
<g id="a_node25"><a xlink:href="cxxdefs_8h.html" target="_top" xlink:title="Basic definitions, which may have to be defined before any Eigen headers or further utilities are inc...">
<polygon fill="none" stroke="black" points="733.806,-55.5 733.806,-73.5 875.426,-73.5 875.426,-55.5 733.806,-55.5"/>
<text text-anchor="middle" x="804.616" y="-61.5" font-family="Helvetica,sans-Serif" font-size="10.00">tomographer/tools/cxxdefs.h</text>
</a>
</g>
</g>
<!-- Node19&#45;&gt;Node24 -->
<g id="edge32" class="edge"><title>Node19&#45;&gt;Node24</title>
<path fill="none" stroke="midnightblue" d="M772.553,-110.219C777.995,-102.629 786.207,-91.1753 792.958,-81.7597"/>
<polygon fill="midnightblue" stroke="midnightblue" points="795.862,-83.716 798.844,-73.5496 790.173,-79.6371 795.862,-83.716"/>
</g>
<!-- Node26 -->
<g id="node27" class="node"><title>Node26</title>
<g id="a_node27"><a xlink:href="conststr_8h.html" target="_top" xlink:title="A constexpr string type, suitable for basic compile&#45;time string processing. ">
<polygon fill="none" stroke="black" points="459.525,-55.5 459.525,-73.5 601.707,-73.5 601.707,-55.5 459.525,-55.5"/>
<text text-anchor="middle" x="530.616" y="-61.5" font-family="Helvetica,sans-Serif" font-size="10.00">tomographer/tools/conststr.h</text>
</a>
</g>
</g>
<!-- Node19&#45;&gt;Node26 -->
<g id="edge37" class="edge"><title>Node19&#45;&gt;Node26</title>
<path fill="none" stroke="midnightblue" d="M730.772,-110.45C689.414,-101.162 621.324,-85.871 576.225,-75.7429"/>
<polygon fill="midnightblue" stroke="midnightblue" points="576.933,-72.3146 566.409,-73.5383 575.399,-79.1445 576.933,-72.3146"/>
</g>
<!-- Node24&#45;&gt;Node2 -->
<g id="edge35" class="edge"><title>Node24&#45;&gt;Node2</title>
<path fill="none" stroke="midnightblue" d="M826.031,-55.4504C849.53,-46.6173 887.474,-32.3546 914.311,-22.267"/>
<polygon fill="midnightblue" stroke="midnightblue" points="915.87,-25.4201 923.999,-18.6253 913.407,-18.8677 915.87,-25.4201"/>
</g>
<!-- Node24&#45;&gt;Node20 -->
<g id="edge33" class="edge"><title>Node24&#45;&gt;Node20</title>
<path fill="none" stroke="midnightblue" d="M816.31,-55.4504C828.295,-47.201 847.161,-34.2158 861.54,-24.3187"/>
<polygon fill="midnightblue" stroke="midnightblue" points="863.558,-27.1782 869.811,-18.6253 859.589,-21.4121 863.558,-27.1782"/>
</g>
<!-- Node24&#45;&gt;Node21 -->
<g id="edge34" class="edge"><title>Node24&#45;&gt;Node21</title>
<path fill="none" stroke="midnightblue" d="M790.491,-55.4504C775.742,-47.0453 752.368,-33.7241 734.886,-23.7618"/>
<polygon fill="midnightblue" stroke="midnightblue" points="736.295,-20.5358 725.873,-18.6253 732.829,-26.6176 736.295,-20.5358"/>
</g>
<!-- Node25 -->
<g id="node26" class="node"><title>Node25</title>
<polygon fill="none" stroke="#bfbfbf" points="759.648,-0.5 759.648,-18.5 839.583,-18.5 839.583,-0.5 759.648,-0.5"/>
<text text-anchor="middle" x="799.616" y="-6.5" font-family="Helvetica,sans-Serif" font-size="10.00">boost/predef.h</text>
</g>
<!-- Node24&#45;&gt;Node25 -->
<g id="edge36" class="edge"><title>Node24&#45;&gt;Node25</title>
<path fill="none" stroke="midnightblue" d="M803.834,-55.2188C803.163,-48.0986 802.17,-37.5775 801.317,-28.5289"/>
<polygon fill="midnightblue" stroke="midnightblue" points="804.799,-28.1766 800.375,-18.5496 797.83,-28.8341 804.799,-28.1766"/>
</g>
<!-- Node26&#45;&gt;Node16 -->
<g id="edge38" class="edge"><title>Node26&#45;&gt;Node16</title>
<path fill="none" stroke="midnightblue" d="M522.959,-55.2188C515.798,-47.4727 504.915,-35.7013 496.112,-26.1799"/>
<polygon fill="midnightblue" stroke="midnightblue" points="498.416,-23.5163 489.058,-18.5496 493.276,-28.2683 498.416,-23.5163"/>
</g>
<!-- Node27&#45;&gt;Node11 -->
<g id="edge43" class="edge"><title>Node27&#45;&gt;Node11</title>
<path fill="none" stroke="midnightblue" d="M966.004,-170.486C997.639,-162.835 1042.94,-149.416 1078.62,-129 1101.11,-116.129 1122.84,-95.4683 1136.44,-81.2282"/>
<polygon fill="midnightblue" stroke="midnightblue" points="1139.2,-83.3988 1143.45,-73.6932 1134.07,-78.6308 1139.2,-83.3988"/>
</g>
<!-- Node27&#45;&gt;Node17 -->
<g id="edge42" class="edge"><title>Node27&#45;&gt;Node17</title>
<path fill="none" stroke="midnightblue" d="M884.413,-170.472C838.623,-161.751 764.005,-146.935 691.301,-129.294"/>
<polygon fill="midnightblue" stroke="midnightblue" points="692.068,-125.878 681.523,-126.901 690.404,-132.678 692.068,-125.878"/>
</g>
<!-- Node27&#45;&gt;Node22 -->
<g id="edge41" class="edge"><title>Node27&#45;&gt;Node22</title>
<path fill="none" stroke="midnightblue" d="M915.211,-170.452C896.998,-157.617 866.716,-131.742 881.616,-110 890.858,-96.5142 930.006,-83.2802 960.086,-74.7979"/>
<polygon fill="midnightblue" stroke="midnightblue" points="961.166,-78.1311 969.883,-72.1099 959.314,-71.3806 961.166,-78.1311"/>
</g>
<!-- Node28 -->
<g id="node29" class="node"><title>Node28</title>
<polygon fill="none" stroke="#bfbfbf" points="890.985,-110.5 890.985,-128.5 964.246,-128.5 964.246,-110.5 890.985,-110.5"/>
<text text-anchor="middle" x="927.616" y="-116.5" font-family="Helvetica,sans-Serif" font-size="10.00">Eigen/Dense</text>
</g>
<!-- Node27&#45;&gt;Node28 -->
<g id="edge44" class="edge"><title>Node27&#45;&gt;Node28</title>
<path fill="none" stroke="midnightblue" d="M927.616,-170.435C927.616,-162.389 927.616,-149.739 927.616,-139.185"/>
<polygon fill="midnightblue" stroke="midnightblue" points="931.116,-138.872 927.616,-128.872 924.116,-138.872 931.116,-138.872"/>
</g>
<!-- Node29 -->
<g id="node30" class="node"><title>Node29</title>
<polygon fill="none" stroke="#bfbfbf" points="981.756,-110.5 981.756,-128.5 1069.48,-128.5 1069.48,-110.5 981.756,-110.5"/>
<text text-anchor="middle" x="1025.62" y="-116.5" font-family="Helvetica,sans-Serif" font-size="10.00">Eigen/StdVector</text>
</g>
<!-- Node27&#45;&gt;Node29 -->
<g id="edge45" class="edge"><title>Node27&#45;&gt;Node29</title>
<path fill="none" stroke="midnightblue" d="M941.242,-170.435C957.242,-160.966 984.016,-145.12 1003.11,-133.818"/>
<polygon fill="midnightblue" stroke="midnightblue" points="1004.97,-136.788 1011.79,-128.683 1001.4,-130.764 1004.97,-136.788"/>
</g>
<!-- Node30&#45;&gt;Node8 -->
<g id="edge48" class="edge"><title>Node30&#45;&gt;Node8</title>
<path fill="none" stroke="midnightblue" d="M1371.78,-170.373C1353.71,-151.641 1308.89,-105.18 1285.45,-80.8744"/>
<polygon fill="midnightblue" stroke="midnightblue" points="1287.85,-78.3205 1278.38,-73.553 1282.81,-83.1803 1287.85,-78.3205"/>
</g>
<!-- Node30&#45;&gt;Node19 -->
<g id="edge50" class="edge"><title>Node30&#45;&gt;Node19</title>
<path fill="none" stroke="midnightblue" d="M1295.02,-170.496C1175.95,-159.229 960.549,-138.849 844.954,-127.912"/>
<polygon fill="midnightblue" stroke="midnightblue" points="845.051,-124.406 834.765,-126.948 844.391,-131.375 845.051,-124.406"/>
</g>
<!-- Node31 -->
<g id="node32" class="node"><title>Node31</title>
<polygon fill="none" stroke="#bfbfbf" points="1344.65,-110.5 1344.65,-128.5 1414.58,-128.5 1414.58,-110.5 1344.65,-110.5"/>
<text text-anchor="middle" x="1379.62" y="-116.5" font-family="Helvetica,sans-Serif" font-size="10.00">Eigen/Eigen</text>
</g>
<!-- Node30&#45;&gt;Node31 -->
<g id="edge49" class="edge"><title>Node30&#45;&gt;Node31</title>
<path fill="none" stroke="midnightblue" d="M1379.62,-170.435C1379.62,-162.389 1379.62,-149.739 1379.62,-139.185"/>
<polygon fill="midnightblue" stroke="midnightblue" points="1383.12,-138.872 1379.62,-128.872 1376.12,-138.872 1383.12,-138.872"/>
</g>
</g>
</svg>
        <g id="navigator" transform="translate(0 0)" fill="#404254">
                <rect fill="#f2f5e9" fill-opacity="0.5" stroke="#606060" stroke-width=".5" x="0" y="0" width="60" height="60"/>
                <use id="zoomplus" xlink:href="#zoomPlus" x="17" y="9" onmousedown="handleZoom(evt,'in')"/>
                <use id="zoomminus" xlink:href="#zoomMin" x="42" y="9" onmousedown="handleZoom(evt,'out')"/>
                <use id="reset" xlink:href="#resetDef" x="30" y="36" onmousedown="handleReset()"/>
                <g id="arrowUp" xlink:href="#dirArrow" transform="translate(30 24)" onmousedown="handlePan(0,-1)">
                  <use xlink:href="#rim" fill="#404040">
                        <set attributeName="fill" to="#808080" begin="arrowUp.mouseover" end="arrowUp.mouseout"/>
                  </use>
                  <path fill="none" stroke="white" stroke-width="1.5" d="M0,-3.0v7 M-2.5,-0.5L0,-3.0L2.5,-0.5"/>
                </g>
                <g id="arrowRight" xlink:href="#dirArrow" transform="rotate(90) translate(36 -43)" onmousedown="handlePan(1,0)">
                  <use xlink:href="#rim" fill="#404040">
                        <set attributeName="fill" to="#808080" begin="arrowRight.mouseover" end="arrowRight.mouseout"/>
                  </use>
                  <path fill="none" stroke="white" stroke-width="1.5" d="M0,-3.0v7 M-2.5,-0.5L0,-3.0L2.5,-0.5"/>
                </g>
                <g id="arrowDown" xlink:href="#dirArrow" transform="rotate(180) translate(-30 -48)" onmousedown="handlePan(0,1)">
                  <use xlink:href="#rim" fill="#404040">
                        <set attributeName="fill" to="#808080" begin="arrowDown.mouseover" end="arrowDown.mouseout"/>
                  </use>
                  <path fill="none" stroke="white" stroke-width="1.5" d="M0,-3.0v7 M-2.5,-0.5L0,-3.0L2.5,-0.5"/>
                </g>
                <g id="arrowLeft" xlink:href="#dirArrow" transform="rotate(270) translate(-36 17)" onmousedown="handlePan(-1,0)">
                  <use xlink:href="#rim" fill="#404040">
                        <set attributeName="fill" to="#808080" begin="arrowLeft.mouseover" end="arrowLeft.mouseout"/>
                  </use>
                  <path fill="none" stroke="white" stroke-width="1.5" d="M0,-3.0v7 M-2.5,-0.5L0,-3.0L2.5,-0.5"/>
                </g>
        </g>
        <svg viewBox="0 0 15 15" width="100%" height="30px" preserveAspectRatio="xMaxYMin meet">
         <g id="arrow_out" transform="scale(0.3 0.3)">
          <a xlink:href="histogram_8h__incl_org.svg" target="_base">
           <rect id="button" ry="5" rx="5" y="6" x="6" height="38" width="38"
                fill="#f2f5e9" fill-opacity="0.5" stroke="#606060" stroke-width="1.0"/>
           <path id="arrow"
             d="M 11.500037,31.436501 C 11.940474,20.09759 22.043105,11.32322 32.158766,21.979434 L 37.068811,17.246167 C 37.068811,17.246167 37.088388,32 37.088388,32 L 22.160133,31.978069 C 22.160133,31.978069 26.997745,27.140456 26.997745,27.140456 C 18.528582,18.264221 13.291696,25.230495 11.500037,31.436501 z"
             style="fill:#404040;"/>
          </a>
         </g>
        </svg>
</svg>
