<?xml version="1.0" encoding="UTF-8" standalone="no"?>
<!DOCTYPE svg PUBLIC "-//W3C//DTD SVG 1.1//EN"
 "http://www.w3.org/Graphics/SVG/1.1/DTD/svg11.dtd">
<!-- Generated by graphviz version 2.38.0 (20140413.2041)
 -->
<!-- Title: tomographer/histogram.h Pages: 1 -->
<!--zoomable 212 -->
<svg id="main" version="1.1" xmlns="http://www.w3.org/2000/svg" xmlns:xlink="http://www.w3.org/1999/xlink" xml:space="preserve" onload="init(evt)">
<style type="text/css"><![CDATA[
.edge:hover path { stroke: red; }
.edge:hover polygon { stroke: red; fill: red; }
]]></style>
<script type="text/javascript"><![CDATA[
var edges = document.getElementsByTagName('g');
if (edges && edges.length) {
  for (var i=0;i<edges.length;i++) {
    if (edges[i].id.substr(0,4)=='edge') {
      edges[i].setAttribute('class','edge');
    }
  }
}
]]></script>
        <defs>
                <circle id="rim" cx="0" cy="0" r="7"/>
                <circle id="rim2" cx="0" cy="0" r="3.5"/>
                <g id="zoomPlus">
                        <use xlink:href="#rim" fill="#404040">
                                <set attributeName="fill" to="#808080" begin="zoomplus.mouseover" end="zoomplus.mouseout"/>
                        </use>
                        <path d="M-4,0h8M0,-4v8" fill="none" stroke="white" stroke-width="1.5" pointer-events="none"/>
                </g>
                <g id="zoomMin">
                        <use xlink:href="#rim" fill="#404040">
                                <set attributeName="fill" to="#808080" begin="zoomminus.mouseover" end="zoomminus.mouseout"/>
                        </use>
                        <path d="M-4,0h8" fill="none" stroke="white" stroke-width="1.5" pointer-events="none"/>
                </g>
                <g id="dirArrow">
                        <path fill="none" stroke="white" stroke-width="1.5" d="M0,-3.0v7 M-2.5,-0.5L0,-3.0L2.5,-0.5"/>
                </g>
               <g id="resetDef">
                       <use xlink:href="#rim2" fill="#404040">
                               <set attributeName="fill" to="#808080" begin="reset.mouseover" end="reset.mouseout"/>
                       </use>
               </g>
        </defs>

<script type="text/javascript">
var viewWidth = 893;
var viewHeight = 212;
var sectionId = 'dynsection-1';
</script>
<script xlink:href="svgpan.js"/>
<svg id="graph" class="graph">
<g id="viewport">
<title>tomographer/histogram.h</title>
<!-- Node32 -->
<g id="node1" class="node"><title>Node32</title>
<polygon fill="#bfbfbf" stroke="black" points="146.328,-185.5 146.328,-203.5 274.051,-203.5 274.051,-185.5 146.328,-185.5"/>
<text text-anchor="middle" x="210.189" y="-191.5" font-family="Helvetica,sans-Serif" font-size="10.00">tomographer/histogram.h</text>
</g>
<!-- Node33 -->
<g id="node2" class="node"><title>Node33</title>
<g id="a_node2"><a xlink:href="mhrwstatscollectors_8h.html" target="_top" xlink:title="Definitions for MHRWStatsCollector Interface&#39;s. ">
<polygon fill="none" stroke="black" points="216.382,-125.5 216.382,-143.5 387.997,-143.5 387.997,-125.5 216.382,-125.5"/>
<text text-anchor="middle" x="302.189" y="-131.5" font-family="Helvetica,sans-Serif" font-size="10.00">tomographer/mhrwstatscollectors.h</text>
</a>
</g>
</g>
<!-- Node32&#45;&gt;Node33 -->
<g id="edge1" class="edge"><title>Node32&#45;&gt;Node33</title>
<path fill="none" stroke="midnightblue" d="M231.581,-180.014C249.415,-168.771 274.243,-153.119 289.209,-143.683"/>
<polygon fill="midnightblue" stroke="midnightblue" points="229.574,-177.142 222.982,-185.435 233.307,-183.063 229.574,-177.142"/>
</g>
<!-- Node41 -->
<g id="node10" class="node"><title>Node41</title>
<g id="a_node10"><a xlink:href="pyhistogram_8h_source.html" target="_top" xlink:title="py/cxx/tomographerpy\l/pyhistogram.h">
<polygon fill="none" stroke="black" points="61,-120.5 61,-148.5 175.379,-148.5 175.379,-120.5 61,-120.5"/>
<text text-anchor="start" x="69" y="-136.5" font-family="Helvetica,sans-Serif" font-size="10.00">py/cxx/tomographerpy</text>
<text text-anchor="middle" x="118.189" y="-126.5" font-family="Helvetica,sans-Serif" font-size="10.00">/pyhistogram.h</text>
</a>
</g>
</g>
<!-- Node32&#45;&gt;Node41 -->
<g id="edge11" class="edge"><title>Node32&#45;&gt;Node41</title>
<path fill="none" stroke="midnightblue" d="M188.79,-180.009C173.796,-170.557 153.863,-157.99 139.001,-148.62"/>
<polygon fill="midnightblue" stroke="midnightblue" points="187.071,-183.063 197.397,-185.435 190.805,-177.142 187.071,-183.063"/>
</g>
<!-- Node34 -->
<g id="node3" class="node"><title>Node34</title>
<g id="a_node3"><a xlink:href="mhrw__valuehist__tools_8h.html" target="_top" xlink:title="Tools for collecting a histogram of values during a Metropolis&#45;Hastings random walk using the tools o...">
<polygon fill="none" stroke="black" points="264.714,-0.5 264.714,-28.5 409.665,-28.5 409.665,-0.5 264.714,-0.5"/>
<text text-anchor="start" x="272.714" y="-16.5" font-family="Helvetica,sans-Serif" font-size="10.00">tomographer/mhrw_valuehist</text>
<text text-anchor="middle" x="337.189" y="-6.5" font-family="Helvetica,sans-Serif" font-size="10.00">_tools.h</text>
</a>
</g>
</g>
<!-- Node33&#45;&gt;Node34 -->
<g id="edge2" class="edge"><title>Node33&#45;&gt;Node34</title>
<path fill="none" stroke="midnightblue" d="M301.225,-114.958C301.044,-100.919 301.979,-81.3296 307.189,-65 311.466,-51.5973 320.037,-38.0498 326.927,-28.5241"/>
<polygon fill="midnightblue" stroke="midnightblue" points="297.737,-115.376 301.571,-125.253 304.733,-115.141 297.737,-115.376"/>
</g>
<!-- Node35 -->
<g id="node4" class="node"><title>Node35</title>
<g id="a_node4"><a xlink:href="mhrwacceptratiowalkerparamscontroller_8h.html" target="_top" xlink:title="Tools for automatically and dynamically adjusting the step size of the random walk. ">
<polygon fill="none" stroke="black" points="625.19,-65.5 625.19,-83.5 885.189,-83.5 885.189,-65.5 625.19,-65.5"/>
<text text-anchor="middle" x="755.189" y="-71.5" font-family="Helvetica,sans-Serif" font-size="10.00">tomographer/mhrwacceptratiowalkerparamscontroller.h</text>
</a>
</g>
</g>
<!-- Node33&#45;&gt;Node35 -->
<g id="edge3" class="edge"><title>Node33&#45;&gt;Node35</title>
<path fill="none" stroke="midnightblue" d="M374.865,-124.195C462.818,-112.934 609.433,-94.162 692.592,-83.5147"/>
<polygon fill="midnightblue" stroke="midnightblue" points="374.176,-120.755 364.702,-125.496 375.065,-127.698 374.176,-120.755"/>
</g>
<!-- Node36 -->
<g id="node5" class="node"><title>Node36</title>
<g id="a_node5"><a xlink:href="mhrwstepsizecontroller_8h.html" target="_top" xlink:title="Tools for automatically and dynamically adjusting the step size of the random walk. ">
<polygon fill="none" stroke="black" points="544.426,-5.5 544.426,-23.5 729.953,-23.5 729.953,-5.5 544.426,-5.5"/>
<text text-anchor="middle" x="637.189" y="-11.5" font-family="Helvetica,sans-Serif" font-size="10.00">tomographer/mhrwstepsizecontroller.h</text>
</a>
</g>
</g>
<!-- Node33&#45;&gt;Node36 -->
<g id="edge5" class="edge"><title>Node33&#45;&gt;Node36</title>
<path fill="none" stroke="midnightblue" d="M307.292,-115.411C312.754,-99.5229 323.038,-77.1084 340.189,-65 372.377,-42.2757 469.646,-29.1497 544.185,-22.1978"/>
<polygon fill="midnightblue" stroke="midnightblue" points="303.887,-114.572 304.255,-125.16 310.571,-116.653 303.887,-114.572"/>
</g>
<!-- Node37 -->
<g id="node6" class="node"><title>Node37</title>
<g id="a_node6"><a xlink:href="mhrwtasks_8h.html" target="_top" xlink:title="Multiprocessing tasks interface (see Multiprocessing Task Interfaces) for parallel Metropolis&#45;Hasting...">
<polygon fill="none" stroke="black" points="123.389,-65.5 123.389,-83.5 254.99,-83.5 254.99,-65.5 123.389,-65.5"/>
<text text-anchor="middle" x="189.189" y="-71.5" font-family="Helvetica,sans-Serif" font-size="10.00">tomographer/mhrwtasks.h</text>
</a>
</g>
</g>
<!-- Node33&#45;&gt;Node37 -->
<g id="edge6" class="edge"><title>Node33&#45;&gt;Node37</title>
<path fill="none" stroke="midnightblue" d="M277.409,-120.781C255.416,-109.492 223.937,-93.3351 205.132,-83.6831"/>
<polygon fill="midnightblue" stroke="midnightblue" points="275.982,-123.983 286.477,-125.435 279.179,-117.755 275.982,-123.983"/>
</g>
<!-- Node40 -->
<g id="node9" class="node"><title>Node40</title>
<g id="a_node9"><a xlink:href="mhrwvalueerrorbinsconvergedcontroller_8h.html" target="_top" xlink:title="Tools for automatically stopping the random walk when enough samples have been taken to make all binn...">
<polygon fill="none" stroke="black" points="348.737,-65.5 348.737,-83.5 607.642,-83.5 607.642,-65.5 348.737,-65.5"/>
<text text-anchor="middle" x="478.189" y="-71.5" font-family="Helvetica,sans-Serif" font-size="10.00">tomographer/mhrwvalueerrorbinsconvergedcontroller.h</text>
</a>
</g>
</g>
<!-- Node33&#45;&gt;Node40 -->
<g id="edge10" class="edge"><title>Node33&#45;&gt;Node40</title>
<path fill="none" stroke="midnightblue" d="M336.299,-122.259C370.74,-110.91 423.088,-93.6584 453.642,-83.5894"/>
<polygon fill="midnightblue" stroke="midnightblue" points="335.064,-118.981 326.661,-125.435 337.255,-125.63 335.064,-118.981"/>
</g>
<!-- Node35&#45;&gt;Node36 -->
<g id="edge4" class="edge"><title>Node35&#45;&gt;Node36</title>
<path fill="none" stroke="midnightblue" d="M729.62,-60.9322C706.641,-49.6372 673.563,-33.3784 653.838,-23.6831"/>
<polygon fill="midnightblue" stroke="midnightblue" points="728.264,-64.1652 738.782,-65.4353 731.351,-57.883 728.264,-64.1652"/>
</g>
<!-- Node37&#45;&gt;Node34 -->
<g id="edge7" class="edge"><title>Node37&#45;&gt;Node34</title>
<path fill="none" stroke="midnightblue" d="M219.305,-61.6981C243.894,-52.0618 278.604,-38.459 303.993,-28.5096"/>
<polygon fill="midnightblue" stroke="midnightblue" points="217.802,-58.5278 209.768,-65.4353 220.356,-65.0453 217.802,-58.5278"/>
</g>
<!-- Node38 -->
<g id="node7" class="node"><title>Node38</title>
<g id="a_node7"><a xlink:href="pymhrwtasks_8h_source.html" target="_top" xlink:title="py/cxx/tomographerpy\l/pymhrwtasks.h">
<polygon fill="none" stroke="black" points="0,-0.5 0,-28.5 114.379,-28.5 114.379,-0.5 0,-0.5"/>
<text text-anchor="start" x="8" y="-16.5" font-family="Helvetica,sans-Serif" font-size="10.00">py/cxx/tomographerpy</text>
<text text-anchor="middle" x="57.1895" y="-6.5" font-family="Helvetica,sans-Serif" font-size="10.00">/pymhrwtasks.h</text>
</a>
</g>
</g>
<!-- Node37&#45;&gt;Node38 -->
<g id="edge8" class="edge"><title>Node37&#45;&gt;Node38</title>
<path fill="none" stroke="midnightblue" d="M161.448,-61.3106C139.575,-51.6997 109.139,-38.3264 86.7974,-28.5096"/>
<polygon fill="midnightblue" stroke="midnightblue" points="160.272,-64.6169 170.835,-65.4353 163.088,-58.2082 160.272,-64.6169"/>
</g>
<!-- Node39 -->
<g id="node8" class="node"><title>Node39</title>
<g id="a_node8"><a xlink:href="pymultiproc_8h_source.html" target="_top" xlink:title="py/cxx/tomographerpy\l/pymultiproc.h">
<polygon fill="none" stroke="black" points="132,-0.5 132,-28.5 246.379,-28.5 246.379,-0.5 132,-0.5"/>
<text text-anchor="start" x="140" y="-16.5" font-family="Helvetica,sans-Serif" font-size="10.00">py/cxx/tomographerpy</text>
<text text-anchor="middle" x="189.189" y="-6.5" font-family="Helvetica,sans-Serif" font-size="10.00">/pymultiproc.h</text>
</a>
</g>
</g>
<!-- Node37&#45;&gt;Node39 -->
<g id="edge9" class="edge"><title>Node37&#45;&gt;Node39</title>
<path fill="none" stroke="midnightblue" d="M189.189,-55.3209C189.189,-46.747 189.189,-36.6999 189.189,-28.8428"/>
<polygon fill="midnightblue" stroke="midnightblue" points="185.69,-55.4353 189.189,-65.4353 192.69,-55.4354 185.69,-55.4353"/>
</g>
<!-- Node41&#45;&gt;Node38 -->
<g id="edge12" class="edge"><title>Node41&#45;&gt;Node38</title>
<path fill="none" stroke="midnightblue" d="M106.673,-111.223C94.0756,-86.8536 74.305,-48.6087 63.9809,-28.6375"/>
<polygon fill="midnightblue" stroke="midnightblue" points="103.727,-113.145 111.428,-120.421 109.945,-109.931 103.727,-113.145"/>
</g>
</g>
</svg>
        <g id="navigator" transform="translate(0 0)" fill="#404254">
                <rect fill="#f2f5e9" fill-opacity="0.5" stroke="#606060" stroke-width=".5" x="0" y="0" width="60" height="60"/>
                <use id="zoomplus" xlink:href="#zoomPlus" x="17" y="9" onmousedown="handleZoom(evt,'in')"/>
                <use id="zoomminus" xlink:href="#zoomMin" x="42" y="9" onmousedown="handleZoom(evt,'out')"/>
                <use id="reset" xlink:href="#resetDef" x="30" y="36" onmousedown="handleReset()"/>
                <g id="arrowUp" xlink:href="#dirArrow" transform="translate(30 24)" onmousedown="handlePan(0,-1)">
                  <use xlink:href="#rim" fill="#404040">
                        <set attributeName="fill" to="#808080" begin="arrowUp.mouseover" end="arrowUp.mouseout"/>
                  </use>
                  <path fill="none" stroke="white" stroke-width="1.5" d="M0,-3.0v7 M-2.5,-0.5L0,-3.0L2.5,-0.5"/>
                </g>
                <g id="arrowRight" xlink:href="#dirArrow" transform="rotate(90) translate(36 -43)" onmousedown="handlePan(1,0)">
                  <use xlink:href="#rim" fill="#404040">
                        <set attributeName="fill" to="#808080" begin="arrowRight.mouseover" end="arrowRight.mouseout"/>
                  </use>
                  <path fill="none" stroke="white" stroke-width="1.5" d="M0,-3.0v7 M-2.5,-0.5L0,-3.0L2.5,-0.5"/>
                </g>
                <g id="arrowDown" xlink:href="#dirArrow" transform="rotate(180) translate(-30 -48)" onmousedown="handlePan(0,1)">
                  <use xlink:href="#rim" fill="#404040">
                        <set attributeName="fill" to="#808080" begin="arrowDown.mouseover" end="arrowDown.mouseout"/>
                  </use>
                  <path fill="none" stroke="white" stroke-width="1.5" d="M0,-3.0v7 M-2.5,-0.5L0,-3.0L2.5,-0.5"/>
                </g>
                <g id="arrowLeft" xlink:href="#dirArrow" transform="rotate(270) translate(-36 17)" onmousedown="handlePan(-1,0)">
                  <use xlink:href="#rim" fill="#404040">
                        <set attributeName="fill" to="#808080" begin="arrowLeft.mouseover" end="arrowLeft.mouseout"/>
                  </use>
                  <path fill="none" stroke="white" stroke-width="1.5" d="M0,-3.0v7 M-2.5,-0.5L0,-3.0L2.5,-0.5"/>
                </g>
        </g>
        <svg viewBox="0 0 15 15" width="100%" height="30px" preserveAspectRatio="xMaxYMin meet">
         <g id="arrow_out" transform="scale(0.3 0.3)">
          <a xlink:href="histogram_8h__dep__incl_org.svg" target="_base">
           <rect id="button" ry="5" rx="5" y="6" x="6" height="38" width="38"
                fill="#f2f5e9" fill-opacity="0.5" stroke="#606060" stroke-width="1.0"/>
           <path id="arrow"
             d="M 11.500037,31.436501 C 11.940474,20.09759 22.043105,11.32322 32.158766,21.979434 L 37.068811,17.246167 C 37.068811,17.246167 37.088388,32 37.088388,32 L 22.160133,31.978069 C 22.160133,31.978069 26.997745,27.140456 26.997745,27.140456 C 18.528582,18.264221 13.291696,25.230495 11.500037,31.436501 z"
             style="fill:#404040;"/>
          </a>
         </g>
        </svg>
</svg>
