<?xml version="1.0" encoding="UTF-8" standalone="no"?>
<!DOCTYPE svg PUBLIC "-//W3C//DTD SVG 1.1//EN"
 "http://www.w3.org/Graphics/SVG/1.1/DTD/svg11.dtd">
<!-- Generated by graphviz version 2.38.0 (20140413.2041)
 -->
<!-- Title: tomographer/densedm/indepmeasllh.h Pages: 1 -->
<svg width="1392pt" height="277pt"
 viewBox="0.00 0.00 1392.29 277.00" xmlns="http://www.w3.org/2000/svg" xmlns:xlink="http://www.w3.org/1999/xlink">
<g id="graph0" class="graph" transform="scale(1 1) rotate(0) translate(4 273)">
<title>tomographer/densedm/indepmeasllh.h</title>
<!-- Node0 -->
<g id="node1" class="node"><title>Node0</title>
<polygon fill="#bfbfbf" stroke="black" points="520.912,-240.5 520.912,-268.5 637.528,-268.5 637.528,-240.5 520.912,-240.5"/>
<text text-anchor="start" x="528.912" y="-256.5" font-family="Helvetica,sans-Serif" font-size="10.00">tomographer/densedm</text>
<text text-anchor="middle" x="579.22" y="-246.5" font-family="Helvetica,sans-Serif" font-size="10.00">/indepmeasllh.h</text>
</g>
<!-- Node1 -->
<g id="node2" class="node"><title>Node1</title>
<polygon fill="none" stroke="#bfbfbf" points="127.099,-0.5 127.099,-18.5 175.341,-18.5 175.341,-0.5 127.099,-0.5"/>
<text text-anchor="middle" x="151.22" y="-6.5" font-family="Helvetica,sans-Serif" font-size="10.00">cstddef</text>
</g>
<!-- Node0&#45;&gt;Node1 -->
<g id="edge1" class="edge"><title>Node0&#45;&gt;Node1</title>
<path fill="none" stroke="midnightblue" d="M520.599,-251.583C389.866,-246.809 83.0184,-232.657 46.2199,-204 -6.54432,-162.91 -14.3864,-108.887 25.2199,-55 46.2667,-26.3643 87.2419,-16.0651 116.759,-12.4112"/>
<polygon fill="midnightblue" stroke="midnightblue" points="117.472,-15.8563 127.058,-11.3441 116.75,-8.89354 117.472,-15.8563"/>
</g>
<!-- Node2 -->
<g id="node3" class="node"><title>Node2</title>
<polygon fill="none" stroke="#bfbfbf" points="809.993,-0.5 809.993,-18.5 850.447,-18.5 850.447,-0.5 809.993,-0.5"/>
<text text-anchor="middle" x="830.22" y="-6.5" font-family="Helvetica,sans-Serif" font-size="10.00">string</text>
</g>
<!-- Node0&#45;&gt;Node2 -->
<g id="edge2" class="edge"><title>Node0&#45;&gt;Node2</title>
<path fill="none" stroke="midnightblue" d="M637.551,-251.78C799.755,-246.683 1248.26,-230.353 1309.22,-204 1348.19,-187.153 1362.25,-177.916 1379.22,-139 1384.37,-127.186 1387.13,-120.176 1379.22,-110 1314.85,-27.1873 966.509,-13.2801 860.71,-10.9605"/>
<polygon fill="midnightblue" stroke="midnightblue" points="860.757,-7.46087 850.689,-10.7602 860.617,-14.4595 860.757,-7.46087"/>
</g>
<!-- Node3 -->
<g id="node4" class="node"><title>Node3</title>
<polygon fill="none" stroke="#bfbfbf" points="945.71,-115.5 945.71,-133.5 996.73,-133.5 996.73,-115.5 945.71,-115.5"/>
<text text-anchor="middle" x="971.22" y="-121.5" font-family="Helvetica,sans-Serif" font-size="10.00">iomanip</text>
</g>
<!-- Node0&#45;&gt;Node3 -->
<g id="edge3" class="edge"><title>Node0&#45;&gt;Node3</title>
<path fill="none" stroke="midnightblue" d="M622.628,-240.464C690.099,-220.002 824.049,-178.584 936.22,-139 937.867,-138.419 939.552,-137.811 941.251,-137.189"/>
<polygon fill="midnightblue" stroke="midnightblue" points="942.805,-140.345 950.935,-133.552 940.343,-133.792 942.805,-140.345"/>
</g>
<!-- Node4 -->
<g id="node5" class="node"><title>Node4</title>
<polygon fill="none" stroke="#bfbfbf" points="135.255,-115.5 135.255,-133.5 205.185,-133.5 205.185,-115.5 135.255,-115.5"/>
<text text-anchor="middle" x="170.22" y="-121.5" font-family="Helvetica,sans-Serif" font-size="10.00">Eigen/Eigen</text>
</g>
<!-- Node0&#45;&gt;Node4 -->
<g id="edge4" class="edge"><title>Node0&#45;&gt;Node4</title>
<path fill="none" stroke="midnightblue" d="M520.811,-251.498C431.663,-247.457 266.863,-235.809 218.22,-204 196.315,-189.676 182.787,-161.532 175.886,-143.125"/>
<polygon fill="midnightblue" stroke="midnightblue" points="179.162,-141.89 172.576,-133.591 172.55,-144.186 179.162,-141.89"/>
</g>
<!-- Node5 -->
<g id="node6" class="node"><title>Node5</title>
<g id="a_node6"><a xlink:href="cxxutil_8h.html" target="_top" xlink:title="Some C++ utilities, with a tad of C++11 tricks. ">
<polygon fill="none" stroke="black" points="261.469,-115.5 261.469,-133.5 396.971,-133.5 396.971,-115.5 261.469,-115.5"/>
<text text-anchor="middle" x="329.22" y="-121.5" font-family="Helvetica,sans-Serif" font-size="10.00">tomographer/tools/cxxutil.h</text>
</a>
</g>
</g>
<!-- Node0&#45;&gt;Node5 -->
<g id="edge5" class="edge"><title>Node0&#45;&gt;Node5</title>
<path fill="none" stroke="midnightblue" d="M557.421,-240.338C530.343,-224.188 482.542,-196.327 440.22,-175 412.809,-161.187 380.707,-147.088 358.098,-137.489"/>
<polygon fill="midnightblue" stroke="midnightblue" points="359.304,-134.199 348.73,-133.539 356.584,-140.649 359.304,-134.199"/>
</g>
<!-- Node17 -->
<g id="node18" class="node"><title>Node17</title>
<g id="a_node18"><a xlink:href="needownoperatornew_8h.html" target="_top" xlink:title="Managing the need for specific overrides to operator new() for some types (especially Eigen types) ...">
<polygon fill="none" stroke="black" points="227.543,-180.5 227.543,-198.5 430.897,-198.5 430.897,-180.5 227.543,-180.5"/>
<text text-anchor="middle" x="329.22" y="-186.5" font-family="Helvetica,sans-Serif" font-size="10.00">tomographer/tools/needownoperatornew.h</text>
</a>
</g>
</g>
<!-- Node0&#45;&gt;Node17 -->
<g id="edge22" class="edge"><title>Node0&#45;&gt;Node17</title>
<path fill="none" stroke="midnightblue" d="M527.42,-240.446C481.078,-228.768 414.011,-211.867 371.011,-201.031"/>
<polygon fill="midnightblue" stroke="midnightblue" points="371.709,-197.598 361.156,-198.548 369.998,-204.386 371.709,-197.598"/>
</g>
<!-- Node18 -->
<g id="node19" class="node"><title>Node18</title>
<g id="a_node19"><a xlink:href="fmt_8h.html" target="_top" xlink:title="Utilities for formatting strings. ">
<polygon fill="none" stroke="black" points="600.417,-180.5 600.417,-198.5 722.023,-198.5 722.023,-180.5 600.417,-180.5"/>
<text text-anchor="middle" x="661.22" y="-186.5" font-family="Helvetica,sans-Serif" font-size="10.00">tomographer/tools/fmt.h</text>
</a>
</g>
</g>
<!-- Node0&#45;&gt;Node18 -->
<g id="edge26" class="edge"><title>Node0&#45;&gt;Node18</title>
<path fill="none" stroke="midnightblue" d="M596.21,-240.446C609.729,-230.06 628.626,-215.542 642.563,-204.834"/>
<polygon fill="midnightblue" stroke="midnightblue" points="644.71,-207.598 650.508,-198.73 640.446,-202.047 644.71,-207.598"/>
</g>
<!-- Node26 -->
<g id="node27" class="node"><title>Node26</title>
<g id="a_node27"><a xlink:href="dmtypes_8h.html" target="_top" xlink:title="C++ types for describing dense density matrices in various parameterizations. ">
<polygon fill="none" stroke="black" points="54.9123,-175.5 54.9123,-203.5 171.528,-203.5 171.528,-175.5 54.9123,-175.5"/>
<text text-anchor="start" x="62.9123" y="-191.5" font-family="Helvetica,sans-Serif" font-size="10.00">tomographer/densedm</text>
<text text-anchor="middle" x="113.22" y="-181.5" font-family="Helvetica,sans-Serif" font-size="10.00">/dmtypes.h</text>
</a>
</g>
</g>
<!-- Node0&#45;&gt;Node26 -->
<g id="edge38" class="edge"><title>Node0&#45;&gt;Node26</title>
<path fill="none" stroke="midnightblue" d="M520.655,-247.26C443.563,-238.79 303.906,-222.565 185.22,-204 184.121,-203.828 183.012,-203.652 181.897,-203.473"/>
<polygon fill="midnightblue" stroke="midnightblue" points="182.158,-199.968 171.718,-201.774 181.006,-206.872 182.158,-199.968"/>
</g>
<!-- Node27 -->
<g id="node28" class="node"><title>Node27</title>
<g id="a_node28"><a xlink:href="param__herm__x_8h.html" target="_top" xlink:title="Tools for parameterizing hermitian matrices with the X Parameterization. ">
<polygon fill="none" stroke="black" points="985.912,-175.5 985.912,-203.5 1102.53,-203.5 1102.53,-175.5 985.912,-175.5"/>
<text text-anchor="start" x="993.912" y="-191.5" font-family="Helvetica,sans-Serif" font-size="10.00">tomographer/densedm</text>
<text text-anchor="middle" x="1044.22" y="-181.5" font-family="Helvetica,sans-Serif" font-size="10.00">/param_herm_x.h</text>
</a>
</g>
</g>
<!-- Node0&#45;&gt;Node27 -->
<g id="edge43" class="edge"><title>Node0&#45;&gt;Node27</title>
<path fill="none" stroke="midnightblue" d="M637.642,-245.585C723.692,-233.926 884.182,-212.183 975.68,-199.786"/>
<polygon fill="midnightblue" stroke="midnightblue" points="976.232,-203.243 985.671,-198.432 975.292,-196.307 976.232,-203.243"/>
</g>
<!-- Node30 -->
<g id="node31" class="node"><title>Node30</title>
<g id="a_node31"><a xlink:href="densellh_8h.html" target="_top" xlink:title="Some declarations for the DenseLLH type interface. ">
<polygon fill="none" stroke="black" points="1183.91,-175.5 1183.91,-203.5 1300.53,-203.5 1300.53,-175.5 1183.91,-175.5"/>
<text text-anchor="start" x="1191.91" y="-191.5" font-family="Helvetica,sans-Serif" font-size="10.00">tomographer/densedm</text>
<text text-anchor="middle" x="1242.22" y="-181.5" font-family="Helvetica,sans-Serif" font-size="10.00">/densellh.h</text>
</a>
</g>
</g>
<!-- Node0&#45;&gt;Node30 -->
<g id="edge49" class="edge"><title>Node0&#45;&gt;Node30</title>
<path fill="none" stroke="midnightblue" d="M637.886,-248.233C735.931,-239.387 939.279,-220.858 1111.22,-204 1131.56,-202.006 1153.67,-199.758 1173.83,-197.677"/>
<polygon fill="midnightblue" stroke="midnightblue" points="1174.28,-201.149 1183.87,-196.638 1173.56,-194.186 1174.28,-201.149"/>
</g>
<!-- Node5&#45;&gt;Node1 -->
<g id="edge7" class="edge"><title>Node5&#45;&gt;Node1</title>
<path fill="none" stroke="midnightblue" d="M304.101,-115.452C280.284,-107.158 244.099,-92.8002 216.22,-74 196.29,-60.56 177.057,-40.6226 164.752,-26.684"/>
<polygon fill="midnightblue" stroke="midnightblue" points="167.219,-24.1854 158.041,-18.8921 161.915,-28.7534 167.219,-24.1854"/>
</g>
<!-- Node6 -->
<g id="node7" class="node"><title>Node6</title>
<polygon fill="none" stroke="#bfbfbf" points="193.104,-0.5 193.104,-18.5 241.336,-18.5 241.336,-0.5 193.104,-0.5"/>
<text text-anchor="middle" x="217.22" y="-6.5" font-family="Helvetica,sans-Serif" font-size="10.00">cassert</text>
</g>
<!-- Node5&#45;&gt;Node6 -->
<g id="edge6" class="edge"><title>Node5&#45;&gt;Node6</title>
<path fill="none" stroke="midnightblue" d="M294.929,-115.387C272.471,-108.261 244.385,-95.5613 228.22,-74 218.572,-61.1314 216.291,-42.6928 216.145,-28.9971"/>
<polygon fill="midnightblue" stroke="midnightblue" points="219.648,-28.9225 216.41,-18.8346 212.651,-28.7399 219.648,-28.9225"/>
</g>
<!-- Node7 -->
<g id="node8" class="node"><title>Node7</title>
<polygon fill="none" stroke="#bfbfbf" points="452.048,-0.5 452.048,-18.5 496.392,-18.5 496.392,-0.5 452.048,-0.5"/>
<text text-anchor="middle" x="474.22" y="-6.5" font-family="Helvetica,sans-Serif" font-size="10.00">cstdlib</text>
</g>
<!-- Node5&#45;&gt;Node7 -->
<g id="edge8" class="edge"><title>Node5&#45;&gt;Node7</title>
<path fill="none" stroke="midnightblue" d="M369.302,-115.472C429.243,-103.28 535.832,-80.7914 541.22,-74 556.854,-54.2957 528.134,-34.8843 503.57,-22.813"/>
<polygon fill="midnightblue" stroke="midnightblue" points="505.002,-19.6189 494.46,-18.5606 502.041,-25.9619 505.002,-19.6189"/>
</g>
<!-- Node8 -->
<g id="node9" class="node"><title>Node8</title>
<polygon fill="none" stroke="#bfbfbf" points="748.048,-55.5 748.048,-73.5 802.392,-73.5 802.392,-55.5 748.048,-55.5"/>
<text text-anchor="middle" x="775.22" y="-61.5" font-family="Helvetica,sans-Serif" font-size="10.00">iostream</text>
</g>
<!-- Node5&#45;&gt;Node8 -->
<g id="edge9" class="edge"><title>Node5&#45;&gt;Node8</title>
<path fill="none" stroke="midnightblue" d="M372.309,-115.43C383.341,-113.506 395.201,-111.56 406.22,-110 550.302,-89.6038 590.696,-98.7178 737.485,-74.1018"/>
<polygon fill="midnightblue" stroke="midnightblue" points="738.503,-77.4789 747.775,-72.3508 737.329,-70.5781 738.503,-77.4789"/>
</g>
<!-- Node9 -->
<g id="node10" class="node"><title>Node9</title>
<polygon fill="none" stroke="#bfbfbf" points="899.602,-55.5 899.602,-73.5 952.838,-73.5 952.838,-55.5 899.602,-55.5"/>
<text text-anchor="middle" x="926.22" y="-61.5" font-family="Helvetica,sans-Serif" font-size="10.00">complex</text>
</g>
<!-- Node5&#45;&gt;Node9 -->
<g id="edge10" class="edge"><title>Node5&#45;&gt;Node9</title>
<path fill="none" stroke="midnightblue" d="M371.078,-115.47C382.448,-113.478 394.78,-111.489 406.22,-110 500.049,-97.7841 786.898,-75.881 889.36,-68.2285"/>
<polygon fill="midnightblue" stroke="midnightblue" points="889.817,-71.7043 899.529,-67.4706 889.296,-64.7236 889.817,-71.7043"/>
</g>
<!-- Node10 -->
<g id="node11" class="node"><title>Node10</title>
<polygon fill="none" stroke="#bfbfbf" points="81.1535,-55.5 81.1535,-73.5 143.286,-73.5 143.286,-55.5 81.1535,-55.5"/>
<text text-anchor="middle" x="112.22" y="-61.5" font-family="Helvetica,sans-Serif" font-size="10.00">type_traits</text>
</g>
<!-- Node5&#45;&gt;Node10 -->
<g id="edge11" class="edge"><title>Node5&#45;&gt;Node10</title>
<path fill="none" stroke="midnightblue" d="M299.047,-115.435C260.773,-105.206 194.656,-87.5336 152.211,-76.1888"/>
<polygon fill="midnightblue" stroke="midnightblue" points="153.05,-72.7904 142.486,-73.5894 151.243,-79.553 153.05,-72.7904"/>
</g>
<!-- Node11 -->
<g id="node12" class="node"><title>Node11</title>
<polygon fill="none" stroke="#bfbfbf" points="396.816,-55.5 396.816,-73.5 455.624,-73.5 455.624,-55.5 396.816,-55.5"/>
<text text-anchor="middle" x="426.22" y="-61.5" font-family="Helvetica,sans-Serif" font-size="10.00">exception</text>
</g>
<!-- Node5&#45;&gt;Node11 -->
<g id="edge12" class="edge"><title>Node5&#45;&gt;Node11</title>
<path fill="none" stroke="midnightblue" d="M342.707,-115.435C358.544,-105.966 385.045,-90.1201 403.946,-78.8184"/>
<polygon fill="midnightblue" stroke="midnightblue" points="405.748,-81.8191 412.534,-73.6831 402.155,-75.8112 405.748,-81.8191"/>
</g>
<!-- Node12 -->
<g id="node13" class="node"><title>Node12</title>
<polygon fill="none" stroke="#bfbfbf" points="473.819,-55.5 473.819,-73.5 532.621,-73.5 532.621,-55.5 473.819,-55.5"/>
<text text-anchor="middle" x="503.22" y="-61.5" font-family="Helvetica,sans-Serif" font-size="10.00">stdexcept</text>
</g>
<!-- Node5&#45;&gt;Node12 -->
<g id="edge13" class="edge"><title>Node5&#45;&gt;Node12</title>
<path fill="none" stroke="midnightblue" d="M353.414,-115.435C383.585,-105.378 435.336,-88.128 469.414,-76.7686"/>
<polygon fill="midnightblue" stroke="midnightblue" points="470.572,-80.0722 478.952,-73.5894 468.358,-73.4314 470.572,-80.0722"/>
</g>
<!-- Node13 -->
<g id="node14" class="node"><title>Node13</title>
<g id="a_node14"><a xlink:href="cxxdefs_8h.html" target="_top" xlink:title="Basic definitions, which may have to be defined before any Eigen headers or further utilities are inc...">
<polygon fill="none" stroke="black" points="237.41,-55.5 237.41,-73.5 379.03,-73.5 379.03,-55.5 237.41,-55.5"/>
<text text-anchor="middle" x="308.22" y="-61.5" font-family="Helvetica,sans-Serif" font-size="10.00">tomographer/tools/cxxdefs.h</text>
</a>
</g>
</g>
<!-- Node5&#45;&gt;Node13 -->
<g id="edge14" class="edge"><title>Node5&#45;&gt;Node13</title>
<path fill="none" stroke="midnightblue" d="M326.3,-115.435C323.325,-107.218 318.611,-94.1985 314.742,-83.5138"/>
<polygon fill="midnightblue" stroke="midnightblue" points="317.947,-82.0829 311.251,-73.8718 311.365,-84.466 317.947,-82.0829"/>
</g>
<!-- Node15 -->
<g id="node16" class="node"><title>Node15</title>
<g id="a_node16"><a xlink:href="conststr_8h.html" target="_top" xlink:title="A constexpr string type, suitable for basic compile&#45;time string processing. ">
<polygon fill="none" stroke="black" points="588.129,-55.5 588.129,-73.5 730.311,-73.5 730.311,-55.5 588.129,-55.5"/>
<text text-anchor="middle" x="659.22" y="-61.5" font-family="Helvetica,sans-Serif" font-size="10.00">tomographer/tools/conststr.h</text>
</a>
</g>
</g>
<!-- Node5&#45;&gt;Node15 -->
<g id="edge19" class="edge"><title>Node5&#45;&gt;Node15</title>
<path fill="none" stroke="midnightblue" d="M374.759,-115.496C434.507,-104.995 539.3,-86.5769 603.651,-75.2666"/>
<polygon fill="midnightblue" stroke="midnightblue" points="604.376,-78.693 613.619,-73.5147 603.164,-71.7986 604.376,-78.693"/>
</g>
<!-- Node16 -->
<g id="node17" class="node"><title>Node16</title>
<polygon fill="none" stroke="#bfbfbf" points="991.205,-55.5 991.205,-73.5 1057.23,-73.5 1057.23,-55.5 991.205,-55.5"/>
<text text-anchor="middle" x="1024.22" y="-61.5" font-family="Helvetica,sans-Serif" font-size="10.00">Eigen/Core</text>
</g>
<!-- Node5&#45;&gt;Node16 -->
<g id="edge21" class="edge"><title>Node5&#45;&gt;Node16</title>
<path fill="none" stroke="midnightblue" d="M370.257,-115.452C381.848,-113.412 394.496,-111.403 406.22,-110 652.094,-80.5748 715.84,-98.8331 962.22,-74 968.245,-73.3928 974.585,-72.647 980.818,-71.8519"/>
<polygon fill="midnightblue" stroke="midnightblue" points="981.678,-75.2685 991.13,-70.4829 980.757,-68.3293 981.678,-75.2685"/>
</g>
<!-- Node13&#45;&gt;Node1 -->
<g id="edge16" class="edge"><title>Node13&#45;&gt;Node1</title>
<path fill="none" stroke="midnightblue" d="M284.375,-55.4504C257.786,-46.4745 214.589,-31.8922 184.638,-21.7813"/>
<polygon fill="midnightblue" stroke="midnightblue" points="185.626,-18.4207 175.032,-18.5383 183.387,-25.053 185.626,-18.4207"/>
</g>
<!-- Node13&#45;&gt;Node6 -->
<g id="edge15" class="edge"><title>Node13&#45;&gt;Node6</title>
<path fill="none" stroke="midnightblue" d="M294.399,-55.4504C279.968,-47.0453 257.095,-33.7241 239.99,-23.7618"/>
<polygon fill="midnightblue" stroke="midnightblue" points="241.574,-20.6337 231.171,-18.6253 238.051,-26.6826 241.574,-20.6337"/>
</g>
<!-- Node13&#45;&gt;Node7 -->
<g id="edge17" class="edge"><title>Node13&#45;&gt;Node7</title>
<path fill="none" stroke="midnightblue" d="M333.432,-55.4504C362.567,-46.1481 410.564,-30.824 442.284,-20.6963"/>
<polygon fill="midnightblue" stroke="midnightblue" points="443.505,-23.9806 451.967,-17.6048 441.376,-17.3122 443.505,-23.9806"/>
</g>
<!-- Node14 -->
<g id="node15" class="node"><title>Node14</title>
<polygon fill="none" stroke="#bfbfbf" points="268.252,-0.5 268.252,-18.5 348.188,-18.5 348.188,-0.5 268.252,-0.5"/>
<text text-anchor="middle" x="308.22" y="-6.5" font-family="Helvetica,sans-Serif" font-size="10.00">boost/predef.h</text>
</g>
<!-- Node13&#45;&gt;Node14 -->
<g id="edge18" class="edge"><title>Node13&#45;&gt;Node14</title>
<path fill="none" stroke="midnightblue" d="M308.22,-55.2188C308.22,-48.1769 308.22,-37.8083 308.22,-28.8277"/>
<polygon fill="midnightblue" stroke="midnightblue" points="311.72,-28.5495 308.22,-18.5496 304.72,-28.5496 311.72,-28.5495"/>
</g>
<!-- Node15&#45;&gt;Node2 -->
<g id="edge20" class="edge"><title>Node15&#45;&gt;Node2</title>
<path fill="none" stroke="midnightblue" d="M685.191,-55.4504C716.048,-45.8868 767.439,-29.9584 800.036,-19.8554"/>
<polygon fill="midnightblue" stroke="midnightblue" points="801.393,-23.0989 809.909,-16.7953 799.321,-16.4127 801.393,-23.0989"/>
</g>
<!-- Node17&#45;&gt;Node4 -->
<g id="edge24" class="edge"><title>Node17&#45;&gt;Node4</title>
<path fill="none" stroke="midnightblue" d="M308.759,-180.393C281.21,-169.477 231.994,-149.976 200.246,-137.397"/>
<polygon fill="midnightblue" stroke="midnightblue" points="201.188,-134.006 190.602,-133.576 198.61,-140.514 201.188,-134.006"/>
</g>
<!-- Node17&#45;&gt;Node5 -->
<g id="edge25" class="edge"><title>Node17&#45;&gt;Node5</title>
<path fill="none" stroke="midnightblue" d="M329.22,-180.264C329.22,-171.064 329.22,-155.881 329.22,-143.833"/>
<polygon fill="midnightblue" stroke="midnightblue" points="332.72,-143.539 329.22,-133.539 325.72,-143.539 332.72,-143.539"/>
</g>
<!-- Node17&#45;&gt;Node10 -->
<g id="edge23" class="edge"><title>Node17&#45;&gt;Node10</title>
<path fill="none" stroke="midnightblue" d="M315.928,-180.408C300.409,-170.857 274.079,-154.33 252.22,-139 234.826,-126.801 232.533,-120.77 214.22,-110 191.894,-96.8698 164.978,-85.2879 144.403,-77.2335"/>
<polygon fill="midnightblue" stroke="midnightblue" points="145.45,-73.8864 134.86,-73.5716 142.942,-80.4218 145.45,-73.8864"/>
</g>
<!-- Node18&#45;&gt;Node2 -->
<g id="edge30" class="edge"><title>Node18&#45;&gt;Node2</title>
<path fill="none" stroke="midnightblue" d="M683.428,-180.479C704.391,-172.206 735.986,-157.861 759.22,-139 787.943,-115.683 794.046,-106.768 811.22,-74 818.739,-59.6528 823.734,-41.8843 826.707,-28.7949"/>
<polygon fill="midnightblue" stroke="midnightblue" points="830.197,-29.2042 828.812,-18.7002 823.344,-27.7752 830.197,-29.2042"/>
</g>
<!-- Node18&#45;&gt;Node3 -->
<g id="edge35" class="edge"><title>Node18&#45;&gt;Node3</title>
<path fill="none" stroke="midnightblue" d="M722.049,-180.936C778.276,-173.149 863.816,-159.281 936.22,-139 938.36,-138.401 940.552,-137.721 942.743,-136.993"/>
<polygon fill="midnightblue" stroke="midnightblue" points="943.962,-140.274 952.186,-133.595 941.592,-133.688 943.962,-140.274"/>
</g>
<!-- Node18&#45;&gt;Node5 -->
<g id="edge37" class="edge"><title>Node18&#45;&gt;Node5</title>
<path fill="none" stroke="midnightblue" d="M618.835,-180.457C558.352,-168.98 447.359,-147.918 381.742,-135.466"/>
<polygon fill="midnightblue" stroke="midnightblue" points="382.092,-131.971 371.615,-133.545 380.787,-138.848 382.092,-131.971"/>
</g>
<!-- Node18&#45;&gt;Node8 -->
<g id="edge32" class="edge"><title>Node18&#45;&gt;Node8</title>
<path fill="none" stroke="midnightblue" d="M677.334,-180.458C693.289,-171.882 717.666,-157.061 734.22,-139 749.461,-122.371 761.23,-99.0701 768.172,-83.1906"/>
<polygon fill="midnightblue" stroke="midnightblue" points="771.571,-84.1328 772.19,-73.5561 765.11,-81.4383 771.571,-84.1328"/>
</g>
<!-- Node19 -->
<g id="node20" class="node"><title>Node19</title>
<polygon fill="none" stroke="#bfbfbf" points="819.158,-115.5 819.158,-133.5 861.281,-133.5 861.281,-115.5 819.158,-115.5"/>
<text text-anchor="middle" x="840.22" y="-121.5" font-family="Helvetica,sans-Serif" font-size="10.00">cstdio</text>
</g>
<!-- Node18&#45;&gt;Node19 -->
<g id="edge27" class="edge"><title>Node18&#45;&gt;Node19</title>
<path fill="none" stroke="midnightblue" d="M685.521,-180.452C714.226,-170.875 763.37,-154.258 805.22,-139 806.818,-138.417 808.455,-137.813 810.106,-137.197"/>
<polygon fill="midnightblue" stroke="midnightblue" points="811.429,-140.439 819.54,-133.622 808.948,-133.893 811.429,-140.439"/>
</g>
<!-- Node20 -->
<g id="node21" class="node"><title>Node20</title>
<polygon fill="none" stroke="#bfbfbf" points="878.823,-115.5 878.823,-133.5 927.616,-133.5 927.616,-115.5 878.823,-115.5"/>
<text text-anchor="middle" x="903.22" y="-121.5" font-family="Helvetica,sans-Serif" font-size="10.00">cstdarg</text>
</g>
<!-- Node18&#45;&gt;Node20 -->
<g id="edge28" class="edge"><title>Node18&#45;&gt;Node20</title>
<path fill="none" stroke="midnightblue" d="M703.782,-180.447C746.393,-171.912 813.588,-157.168 870.22,-139 871.881,-138.467 873.577,-137.888 875.279,-137.279"/>
<polygon fill="midnightblue" stroke="midnightblue" points="876.825,-140.434 884.907,-133.583 874.317,-133.899 876.825,-140.434"/>
</g>
<!-- Node21 -->
<g id="node22" class="node"><title>Node21</title>
<polygon fill="none" stroke="#bfbfbf" points="414.932,-115.5 414.932,-133.5 461.508,-133.5 461.508,-115.5 414.932,-115.5"/>
<text text-anchor="middle" x="438.22" y="-121.5" font-family="Helvetica,sans-Serif" font-size="10.00">chrono</text>
</g>
<!-- Node18&#45;&gt;Node21 -->
<g id="edge29" class="edge"><title>Node18&#45;&gt;Node21</title>
<path fill="none" stroke="midnightblue" d="M623.776,-180.496C584.922,-171.796 522.621,-156.738 470.22,-139 468.61,-138.455 466.967,-137.866 465.317,-137.25"/>
<polygon fill="midnightblue" stroke="midnightblue" points="466.568,-133.981 455.983,-133.535 463.979,-140.485 466.568,-133.981"/>
</g>
<!-- Node22 -->
<g id="node23" class="node"><title>Node22</title>
<polygon fill="none" stroke="#bfbfbf" points="479.439,-115.5 479.439,-133.5 531.001,-133.5 531.001,-115.5 479.439,-115.5"/>
<text text-anchor="middle" x="505.22" y="-121.5" font-family="Helvetica,sans-Serif" font-size="10.00">sstream</text>
</g>
<!-- Node18&#45;&gt;Node22 -->
<g id="edge31" class="edge"><title>Node18&#45;&gt;Node22</title>
<path fill="none" stroke="midnightblue" d="M641.145,-180.393C614.116,-169.477 565.828,-149.976 534.68,-137.397"/>
<polygon fill="midnightblue" stroke="midnightblue" points="535.801,-134.075 525.218,-133.576 533.18,-140.566 535.801,-134.075"/>
</g>
<!-- Node23 -->
<g id="node24" class="node"><title>Node23</title>
<polygon fill="none" stroke="#bfbfbf" points="548.828,-115.5 548.828,-133.5 587.612,-133.5 587.612,-115.5 548.828,-115.5"/>
<text text-anchor="middle" x="568.22" y="-121.5" font-family="Helvetica,sans-Serif" font-size="10.00">utility</text>
</g>
<!-- Node18&#45;&gt;Node23 -->
<g id="edge33" class="edge"><title>Node18&#45;&gt;Node23</title>
<path fill="none" stroke="midnightblue" d="M649.062,-180.264C633.66,-169.831 606.902,-151.704 588.413,-139.179"/>
<polygon fill="midnightblue" stroke="midnightblue" points="590.329,-136.25 580.087,-133.539 586.403,-142.045 590.329,-136.25"/>
</g>
<!-- Node24 -->
<g id="node25" class="node"><title>Node24</title>
<polygon fill="none" stroke="#bfbfbf" points="605.604,-115.5 605.604,-133.5 648.836,-133.5 648.836,-115.5 605.604,-115.5"/>
<text text-anchor="middle" x="627.22" y="-121.5" font-family="Helvetica,sans-Serif" font-size="10.00">vector</text>
</g>
<!-- Node18&#45;&gt;Node24 -->
<g id="edge34" class="edge"><title>Node18&#45;&gt;Node24</title>
<path fill="none" stroke="midnightblue" d="M656.775,-180.264C651.605,-170.684 642.935,-154.619 636.318,-142.359"/>
<polygon fill="midnightblue" stroke="midnightblue" points="639.388,-140.677 631.558,-133.539 633.228,-144.001 639.388,-140.677"/>
</g>
<!-- Node25 -->
<g id="node26" class="node"><title>Node25</title>
<polygon fill="none" stroke="#bfbfbf" points="666.816,-115.5 666.816,-133.5 725.624,-133.5 725.624,-115.5 666.816,-115.5"/>
<text text-anchor="middle" x="696.22" y="-121.5" font-family="Helvetica,sans-Serif" font-size="10.00">functional</text>
</g>
<!-- Node18&#45;&gt;Node25 -->
<g id="edge36" class="edge"><title>Node18&#45;&gt;Node25</title>
<path fill="none" stroke="midnightblue" d="M665.796,-180.264C671.118,-170.684 680.043,-154.619 686.854,-142.359"/>
<polygon fill="midnightblue" stroke="midnightblue" points="689.957,-143.98 691.754,-133.539 683.838,-140.581 689.957,-143.98"/>
</g>
<!-- Node26&#45;&gt;Node1 -->
<g id="edge39" class="edge"><title>Node26&#45;&gt;Node1</title>
<path fill="none" stroke="midnightblue" d="M80.5395,-175.484C65.0458,-167.457 48.032,-155.496 39.2199,-139 21.6296,-106.07 18.2541,-85.8903 39.2199,-55 56.4393,-29.6297 90.6464,-18.7232 116.749,-14.0348"/>
<polygon fill="midnightblue" stroke="midnightblue" points="117.322,-17.4878 126.657,-12.4771 116.235,-10.5728 117.322,-17.4878"/>
</g>
<!-- Node26&#45;&gt;Node4 -->
<g id="edge41" class="edge"><title>Node26&#45;&gt;Node4</title>
<path fill="none" stroke="midnightblue" d="M125.03,-175.446C133.985,-165.55 146.332,-151.902 155.858,-141.374"/>
<polygon fill="midnightblue" stroke="midnightblue" points="158.66,-143.494 162.774,-133.73 153.469,-138.797 158.66,-143.494"/>
</g>
<!-- Node26&#45;&gt;Node5 -->
<g id="edge42" class="edge"><title>Node26&#45;&gt;Node5</title>
<path fill="none" stroke="midnightblue" d="M157.975,-175.446C197.508,-163.916 254.497,-147.294 291.692,-136.446"/>
<polygon fill="midnightblue" stroke="midnightblue" points="293.007,-139.708 301.627,-133.548 291.047,-132.988 293.007,-139.708"/>
</g>
<!-- Node26&#45;&gt;Node6 -->
<g id="edge40" class="edge"><title>Node26&#45;&gt;Node6</title>
<path fill="none" stroke="midnightblue" d="M102.251,-175.458C82.2232,-149.988 44.2619,-92.8253 72.2199,-55 75.627,-50.3905 141.494,-31.4608 183.269,-19.8262"/>
<polygon fill="midnightblue" stroke="midnightblue" points="184.362,-23.1552 193.063,-17.1092 182.491,-16.4099 184.362,-23.1552"/>
</g>
<!-- Node27&#45;&gt;Node5 -->
<g id="edge48" class="edge"><title>Node27&#45;&gt;Node5</title>
<path fill="none" stroke="midnightblue" d="M985.534,-185.837C872.887,-180.306 618.675,-165.803 406.22,-139 397.897,-137.95 389.104,-136.62 380.553,-135.206"/>
<polygon fill="midnightblue" stroke="midnightblue" points="381.116,-131.752 370.669,-133.52 379.938,-138.652 381.116,-131.752"/>
</g>
<!-- Node27&#45;&gt;Node9 -->
<g id="edge45" class="edge"><title>Node27&#45;&gt;Node9</title>
<path fill="none" stroke="midnightblue" d="M1040.59,-175.392C1035.37,-158.534 1024.31,-129.151 1006.22,-110 992.933,-95.9365 974.193,-85.1855 958.19,-77.7769"/>
<polygon fill="midnightblue" stroke="midnightblue" points="959.217,-74.4055 948.653,-73.5961 956.407,-80.8166 959.217,-74.4055"/>
</g>
<!-- Node27&#45;&gt;Node16 -->
<g id="edge47" class="edge"><title>Node27&#45;&gt;Node16</title>
<path fill="none" stroke="midnightblue" d="M1044.42,-175.309C1044.43,-159.602 1043.68,-132.644 1039.22,-110 1037.42,-100.878 1034.25,-91.0535 1031.29,-82.9619"/>
<polygon fill="midnightblue" stroke="midnightblue" points="1034.51,-81.5929 1027.64,-73.5279 1027.98,-84.1172 1034.51,-81.5929"/>
</g>
<!-- Node28 -->
<g id="node29" class="node"><title>Node28</title>
<polygon fill="none" stroke="#bfbfbf" points="1220.6,-115.5 1220.6,-133.5 1263.84,-133.5 1263.84,-115.5 1220.6,-115.5"/>
<text text-anchor="middle" x="1242.22" y="-121.5" font-family="Helvetica,sans-Serif" font-size="10.00">cmath</text>
</g>
<!-- Node27&#45;&gt;Node28 -->
<g id="edge44" class="edge"><title>Node27&#45;&gt;Node28</title>
<path fill="none" stroke="midnightblue" d="M1095.16,-175.434C1128.78,-166.338 1173.58,-153.309 1212.22,-139 1213.43,-138.554 1214.65,-138.082 1215.88,-137.592"/>
<polygon fill="midnightblue" stroke="midnightblue" points="1217.41,-140.744 1225.25,-133.619 1214.68,-134.299 1217.41,-140.744"/>
</g>
<!-- Node29 -->
<g id="node30" class="node"><title>Node29</title>
<polygon fill="none" stroke="#bfbfbf" points="1091.69,-110.5 1091.69,-138.5 1202.75,-138.5 1202.75,-110.5 1091.69,-110.5"/>
<text text-anchor="start" x="1099.69" y="-126.5" font-family="Helvetica,sans-Serif" font-size="10.00">boost/math/constants</text>
<text text-anchor="middle" x="1147.22" y="-116.5" font-family="Helvetica,sans-Serif" font-size="10.00">/constants.hpp</text>
</g>
<!-- Node27&#45;&gt;Node29 -->
<g id="edge46" class="edge"><title>Node27&#45;&gt;Node29</title>
<path fill="none" stroke="midnightblue" d="M1065.56,-175.446C1080.48,-166.323 1100.6,-154.013 1117.14,-143.897"/>
<polygon fill="midnightblue" stroke="midnightblue" points="1119.2,-146.741 1125.91,-138.537 1115.55,-140.769 1119.2,-146.741"/>
</g>
<!-- Node30&#45;&gt;Node1 -->
<g id="edge50" class="edge"><title>Node30&#45;&gt;Node1</title>
<path fill="none" stroke="midnightblue" d="M1254.76,-175.432C1269.08,-158.879 1288.67,-130.095 1273.22,-110 1215.19,-34.5399 1160.34,-69.2486 1066.22,-55 681.628,3.22251 574.178,-74.8924 185.718,-18.8734"/>
<polygon fill="midnightblue" stroke="midnightblue" points="186.012,-15.3793 175.611,-17.3949 184.999,-22.3056 186.012,-15.3793"/>
</g>
<!-- Node30&#45;&gt;Node28 -->
<g id="edge51" class="edge"><title>Node30&#45;&gt;Node28</title>
<path fill="none" stroke="midnightblue" d="M1242.22,-175.446C1242.22,-166.334 1242.22,-154.041 1242.22,-143.931"/>
<polygon fill="midnightblue" stroke="midnightblue" points="1245.72,-143.73 1242.22,-133.73 1238.72,-143.73 1245.72,-143.73"/>
</g>
<!-- Node30&#45;&gt;Node29 -->
<g id="edge53" class="edge"><title>Node30&#45;&gt;Node29</title>
<path fill="none" stroke="midnightblue" d="M1222.54,-175.446C1208.91,-166.408 1190.56,-154.241 1175.39,-144.179"/>
<polygon fill="midnightblue" stroke="midnightblue" points="1177.15,-141.147 1166.88,-138.537 1173.28,-146.981 1177.15,-141.147"/>
</g>
<!-- Node31 -->
<g id="node32" class="node"><title>Node31</title>
<polygon fill="none" stroke="#bfbfbf" points="1320.27,-115.5 1320.27,-133.5 1370.17,-133.5 1370.17,-115.5 1320.27,-115.5"/>
<text text-anchor="middle" x="1345.22" y="-121.5" font-family="Helvetica,sans-Serif" font-size="10.00">random</text>
</g>
<!-- Node30&#45;&gt;Node31 -->
<g id="edge52" class="edge"><title>Node30&#45;&gt;Node31</title>
<path fill="none" stroke="midnightblue" d="M1263.56,-175.446C1280.96,-164.803 1305.46,-149.821 1323.07,-139.047"/>
<polygon fill="midnightblue" stroke="midnightblue" points="1325.36,-141.752 1332.06,-133.548 1321.71,-135.78 1325.36,-141.752"/>
</g>
</g>
</svg>
