<?xml version="1.0" encoding="UTF-8" standalone="no"?>
<!DOCTYPE svg PUBLIC "-//W3C//DTD SVG 1.1//EN"
 "http://www.w3.org/Graphics/SVG/1.1/DTD/svg11.dtd">
<!-- Generated by graphviz version 2.38.0 (20140413.2041)
 -->
<!-- Title: tomographer/tools/loggers.h Pages: 1 -->
<svg width="1171pt" height="247pt"
 viewBox="0.00 0.00 1170.61 247.00" xmlns="http://www.w3.org/2000/svg" xmlns:xlink="http://www.w3.org/1999/xlink">
<g id="graph0" class="graph" transform="scale(1 1) rotate(0) translate(4 243)">
<title>tomographer/tools/loggers.h</title>
<!-- Node0 -->
<g id="node1" class="node"><title>Node0</title>
<polygon fill="#bfbfbf" stroke="black" points="551.825,-220.5 551.825,-238.5 692.341,-238.5 692.341,-220.5 551.825,-220.5"/>
<text text-anchor="middle" x="622.083" y="-226.5" font-family="Helvetica,sans-Serif" font-size="10.00">tomographer/tools/loggers.h</text>
</g>
<!-- Node1 -->
<g id="node2" class="node"><title>Node1</title>
<polygon fill="none" stroke="#bfbfbf" points="149.021,-110.5 149.021,-128.5 191.144,-128.5 191.144,-110.5 149.021,-110.5"/>
<text text-anchor="middle" x="170.083" y="-116.5" font-family="Helvetica,sans-Serif" font-size="10.00">cstdio</text>
</g>
<!-- Node0&#45;&gt;Node1 -->
<g id="edge1" class="edge"><title>Node0&#45;&gt;Node1</title>
<path fill="none" stroke="midnightblue" d="M577.442,-220.439C532.665,-212.136 461.823,-198.408 401.083,-184 314.046,-163.355 290.866,-154.461 201.161,-129.294"/>
<polygon fill="midnightblue" stroke="midnightblue" points="201.955,-125.882 191.382,-126.56 200.07,-132.624 201.955,-125.882"/>
</g>
<!-- Node2 -->
<g id="node3" class="node"><title>Node2</title>
<polygon fill="none" stroke="#bfbfbf" points="208.686,-110.5 208.686,-128.5 257.479,-128.5 257.479,-110.5 208.686,-110.5"/>
<text text-anchor="middle" x="233.083" y="-116.5" font-family="Helvetica,sans-Serif" font-size="10.00">cstdarg</text>
</g>
<!-- Node0&#45;&gt;Node2 -->
<g id="edge2" class="edge"><title>Node0&#45;&gt;Node2</title>
<path fill="none" stroke="midnightblue" d="M593.163,-220.471C522.868,-200.955 343.274,-151.093 267.566,-130.074"/>
<polygon fill="midnightblue" stroke="midnightblue" points="268.167,-126.608 257.595,-127.305 266.294,-133.353 268.167,-126.608"/>
</g>
<!-- Node3 -->
<g id="node4" class="node"><title>Node3</title>
<polygon fill="none" stroke="#bfbfbf" points="62.8564,-0.5 62.8564,-18.5 103.309,-18.5 103.309,-0.5 62.8564,-0.5"/>
<text text-anchor="middle" x="83.0829" y="-6.5" font-family="Helvetica,sans-Serif" font-size="10.00">string</text>
</g>
<!-- Node0&#45;&gt;Node3 -->
<g id="edge3" class="edge"><title>Node0&#45;&gt;Node3</title>
<path fill="none" stroke="midnightblue" d="M551.805,-225.981C441.383,-221.304 232.663,-209.357 163.083,-184 82.0035,-154.453 43.2577,-150.373 3.08292,-74 -10.2832,-48.5906 25.2584,-29.9216 53.1898,-19.6309"/>
<polygon fill="midnightblue" stroke="midnightblue" points="54.3606,-22.9295 62.6594,-16.3431 52.0646,-16.3167 54.3606,-22.9295"/>
</g>
<!-- Node4 -->
<g id="node5" class="node"><title>Node4</title>
<polygon fill="none" stroke="#bfbfbf" points="756.302,-110.5 756.302,-128.5 807.864,-128.5 807.864,-110.5 756.302,-110.5"/>
<text text-anchor="middle" x="782.083" y="-116.5" font-family="Helvetica,sans-Serif" font-size="10.00">sstream</text>
</g>
<!-- Node0&#45;&gt;Node4 -->
<g id="edge4" class="edge"><title>Node0&#45;&gt;Node4</title>
<path fill="none" stroke="midnightblue" d="M634.109,-220.382C661.212,-202.088 727.341,-157.451 761.263,-134.554"/>
<polygon fill="midnightblue" stroke="midnightblue" points="763.587,-137.207 769.917,-128.712 759.671,-131.406 763.587,-137.207"/>
</g>
<!-- Node5 -->
<g id="node6" class="node"><title>Node5</title>
<polygon fill="none" stroke="#bfbfbf" points="712.911,-55.5 712.911,-73.5 767.255,-73.5 767.255,-55.5 712.911,-55.5"/>
<text text-anchor="middle" x="740.083" y="-61.5" font-family="Helvetica,sans-Serif" font-size="10.00">iostream</text>
</g>
<!-- Node0&#45;&gt;Node5 -->
<g id="edge5" class="edge"><title>Node0&#45;&gt;Node5</title>
<path fill="none" stroke="midnightblue" d="M692.44,-224.54C756.881,-216.714 848.767,-194.022 893.083,-129 897.839,-122.022 898.152,-116.754 893.083,-110 889.501,-105.228 821.232,-86.6704 777.109,-75.08"/>
<polygon fill="midnightblue" stroke="midnightblue" points="777.84,-71.6535 767.279,-72.5082 776.068,-78.4256 777.84,-71.6535"/>
</g>
<!-- Node6 -->
<g id="node7" class="node"><title>Node6</title>
<polygon fill="none" stroke="#bfbfbf" points="825.679,-110.5 825.679,-128.5 884.487,-128.5 884.487,-110.5 825.679,-110.5"/>
<text text-anchor="middle" x="855.083" y="-116.5" font-family="Helvetica,sans-Serif" font-size="10.00">functional</text>
</g>
<!-- Node0&#45;&gt;Node6 -->
<g id="edge6" class="edge"><title>Node0&#45;&gt;Node6</title>
<path fill="none" stroke="midnightblue" d="M639.596,-220.382C680.092,-201.612 780.413,-155.111 828.522,-132.812"/>
<polygon fill="midnightblue" stroke="midnightblue" points="830.084,-135.945 837.685,-128.564 827.14,-129.594 830.084,-135.945"/>
</g>
<!-- Node7 -->
<g id="node8" class="node"><title>Node7</title>
<polygon fill="none" stroke="#bfbfbf" points="210.017,-55.5 210.017,-73.5 272.149,-73.5 272.149,-55.5 210.017,-55.5"/>
<text text-anchor="middle" x="241.083" y="-61.5" font-family="Helvetica,sans-Serif" font-size="10.00">type_traits</text>
</g>
<!-- Node0&#45;&gt;Node7 -->
<g id="edge7" class="edge"><title>Node0&#45;&gt;Node7</title>
<path fill="none" stroke="midnightblue" d="M551.678,-225.02C429.953,-217.315 188.506,-194.014 140.083,-129 120.405,-102.58 164.163,-84.4785 200.129,-74.5567"/>
<polygon fill="midnightblue" stroke="midnightblue" points="201.217,-77.8899 210.007,-71.9751 199.447,-71.1174 201.217,-77.8899"/>
</g>
<!-- Node8 -->
<g id="node9" class="node"><title>Node8</title>
<polygon fill="none" stroke="#bfbfbf" points="978.356,-165.5 978.356,-183.5 1013.81,-183.5 1013.81,-165.5 978.356,-165.5"/>
<text text-anchor="middle" x="996.083" y="-171.5" font-family="Helvetica,sans-Serif" font-size="10.00">map</text>
</g>
<!-- Node0&#45;&gt;Node8 -->
<g id="edge8" class="edge"><title>Node0&#45;&gt;Node8</title>
<path fill="none" stroke="midnightblue" d="M692.601,-222.034C762.056,-215.031 870.97,-202.343 964.083,-184 965.528,-183.715 967.005,-183.402 968.492,-183.07"/>
<polygon fill="midnightblue" stroke="midnightblue" points="969.36,-186.461 978.239,-180.68 967.693,-179.662 969.36,-186.461"/>
</g>
<!-- Node9 -->
<g id="node10" class="node"><title>Node9</title>
<polygon fill="none" stroke="#bfbfbf" points="1031.55,-165.5 1031.55,-183.5 1162.61,-183.5 1162.61,-165.5 1031.55,-165.5"/>
<text text-anchor="middle" x="1097.08" y="-171.5" font-family="Helvetica,sans-Serif" font-size="10.00">boost/algorithm/string.hpp</text>
</g>
<!-- Node0&#45;&gt;Node9 -->
<g id="edge9" class="edge"><title>Node0&#45;&gt;Node9</title>
<path fill="none" stroke="midnightblue" d="M692.357,-220.784C770.236,-212.215 899.865,-197.896 1021.11,-184.219"/>
<polygon fill="midnightblue" stroke="midnightblue" points="1021.77,-187.667 1031.32,-183.067 1020.99,-180.711 1021.77,-187.667"/>
</g>
<!-- Node10 -->
<g id="node11" class="node"><title>Node10</title>
<g id="a_node11"><a xlink:href="cxxdefs_8h.html" target="_top" xlink:title="Basic definitions, which may have to be defined before any Eigen headers or further utilities are inc...">
<polygon fill="none" stroke="black" points="785.273,-55.5 785.273,-73.5 926.893,-73.5 926.893,-55.5 785.273,-55.5"/>
<text text-anchor="middle" x="856.083" y="-61.5" font-family="Helvetica,sans-Serif" font-size="10.00">tomographer/tools/cxxdefs.h</text>
</a>
</g>
</g>
<!-- Node0&#45;&gt;Node10 -->
<g id="edge10" class="edge"><title>Node0&#45;&gt;Node10</title>
<path fill="none" stroke="midnightblue" d="M692.593,-226.715C741.669,-222.814 807.173,-212.127 858.083,-184 893.045,-164.684 925.958,-146.203 909.083,-110 903.035,-97.025 891.136,-86.4882 880.142,-78.9306"/>
<polygon fill="midnightblue" stroke="midnightblue" points="881.963,-75.9408 871.649,-73.5187 878.202,-81.8442 881.963,-75.9408"/>
</g>
<!-- Node15 -->
<g id="node16" class="node"><title>Node15</title>
<g id="a_node16"><a xlink:href="fmt_8h.html" target="_top" xlink:title="Utilities for formatting strings. ">
<polygon fill="none" stroke="black" points="492.28,-165.5 492.28,-183.5 613.886,-183.5 613.886,-165.5 492.28,-165.5"/>
<text text-anchor="middle" x="553.083" y="-171.5" font-family="Helvetica,sans-Serif" font-size="10.00">tomographer/tools/fmt.h</text>
</a>
</g>
</g>
<!-- Node0&#45;&gt;Node15 -->
<g id="edge15" class="edge"><title>Node0&#45;&gt;Node15</title>
<path fill="none" stroke="midnightblue" d="M611.603,-220.45C601.066,-212.357 584.594,-199.704 571.807,-189.882"/>
<polygon fill="midnightblue" stroke="midnightblue" points="573.724,-186.941 563.661,-183.625 569.46,-192.493 573.724,-186.941"/>
</g>
<!-- Node24 -->
<g id="node25" class="node"><title>Node24</title>
<g id="a_node25"><a xlink:href="conststr_8h.html" target="_top" xlink:title="A constexpr string type, suitable for basic compile&#45;time string processing. ">
<polygon fill="none" stroke="black" points="11.9921,-55.5 11.9921,-73.5 154.174,-73.5 154.174,-55.5 11.9921,-55.5"/>
<text text-anchor="middle" x="83.0829" y="-61.5" font-family="Helvetica,sans-Serif" font-size="10.00">tomographer/tools/conststr.h</text>
</a>
</g>
</g>
<!-- Node0&#45;&gt;Node24 -->
<g id="edge39" class="edge"><title>Node0&#45;&gt;Node24</title>
<path fill="none" stroke="midnightblue" d="M551.643,-226.136C447.79,-221.809 259.178,-210.495 197.083,-184 148.208,-163.146 110.137,-109.968 92.9988,-82.4983"/>
<polygon fill="midnightblue" stroke="midnightblue" points="95.8182,-80.3966 87.6504,-73.6484 89.8272,-84.0172 95.8182,-80.3966"/>
</g>
<!-- Node11 -->
<g id="node12" class="node"><title>Node11</title>
<polygon fill="none" stroke="#bfbfbf" points="589.967,-0.5 589.967,-18.5 638.199,-18.5 638.199,-0.5 589.967,-0.5"/>
<text text-anchor="middle" x="614.083" y="-6.5" font-family="Helvetica,sans-Serif" font-size="10.00">cassert</text>
</g>
<!-- Node10&#45;&gt;Node11 -->
<g id="edge11" class="edge"><title>Node10&#45;&gt;Node11</title>
<path fill="none" stroke="midnightblue" d="M818.845,-55.4388C777.939,-46.5692 710.31,-31.8628 652.083,-19 650.82,-18.7211 649.535,-18.4365 648.236,-18.1484"/>
<polygon fill="midnightblue" stroke="midnightblue" points="648.723,-14.6713 638.201,-15.9151 647.202,-21.5041 648.723,-14.6713"/>
</g>
<!-- Node12 -->
<g id="node13" class="node"><title>Node12</title>
<polygon fill="none" stroke="#bfbfbf" points="660.962,-0.5 660.962,-18.5 709.204,-18.5 709.204,-0.5 660.962,-0.5"/>
<text text-anchor="middle" x="685.083" y="-6.5" font-family="Helvetica,sans-Serif" font-size="10.00">cstddef</text>
</g>
<!-- Node10&#45;&gt;Node12 -->
<g id="edge12" class="edge"><title>Node10&#45;&gt;Node12</title>
<path fill="none" stroke="midnightblue" d="M830.112,-55.4504C800.392,-46.239 751.622,-31.1231 718.943,-20.9948"/>
<polygon fill="midnightblue" stroke="midnightblue" points="719.945,-17.6412 709.358,-18.0237 717.873,-24.3274 719.945,-17.6412"/>
</g>
<!-- Node13 -->
<g id="node14" class="node"><title>Node13</title>
<polygon fill="none" stroke="#bfbfbf" points="744.911,-0.5 744.911,-18.5 789.255,-18.5 789.255,-0.5 744.911,-0.5"/>
<text text-anchor="middle" x="767.083" y="-6.5" font-family="Helvetica,sans-Serif" font-size="10.00">cstdlib</text>
</g>
<!-- Node10&#45;&gt;Node13 -->
<g id="edge13" class="edge"><title>Node10&#45;&gt;Node13</title>
<path fill="none" stroke="midnightblue" d="M842.566,-55.4504C828.451,-47.0453 806.082,-33.7241 789.353,-23.7618"/>
<polygon fill="midnightblue" stroke="midnightblue" points="791.11,-20.7347 780.727,-18.6253 787.528,-26.7491 791.11,-20.7347"/>
</g>
<!-- Node14 -->
<g id="node15" class="node"><title>Node14</title>
<polygon fill="none" stroke="#bfbfbf" points="816.115,-0.5 816.115,-18.5 896.051,-18.5 896.051,-0.5 816.115,-0.5"/>
<text text-anchor="middle" x="856.083" y="-6.5" font-family="Helvetica,sans-Serif" font-size="10.00">boost/predef.h</text>
</g>
<!-- Node10&#45;&gt;Node14 -->
<g id="edge14" class="edge"><title>Node10&#45;&gt;Node14</title>
<path fill="none" stroke="midnightblue" d="M856.083,-55.2188C856.083,-48.1769 856.083,-37.8083 856.083,-28.8277"/>
<polygon fill="midnightblue" stroke="midnightblue" points="859.583,-28.5495 856.083,-18.5496 852.583,-28.5496 859.583,-28.5495"/>
</g>
<!-- Node15&#45;&gt;Node1 -->
<g id="edge16" class="edge"><title>Node15&#45;&gt;Node1</title>
<path fill="none" stroke="midnightblue" d="M492.04,-168.619C423.445,-162.506 308.68,-150.393 201.322,-128.97"/>
<polygon fill="midnightblue" stroke="midnightblue" points="201.787,-125.493 191.291,-126.936 200.396,-132.353 201.787,-125.493"/>
</g>
<!-- Node15&#45;&gt;Node2 -->
<g id="edge17" class="edge"><title>Node15&#45;&gt;Node2</title>
<path fill="none" stroke="midnightblue" d="M495.377,-165.49C438.249,-157.302 348.375,-143.728 271.083,-129 269.987,-128.791 268.875,-128.574 267.753,-128.35"/>
<polygon fill="midnightblue" stroke="midnightblue" points="268.07,-124.841 257.565,-126.216 266.635,-131.692 268.07,-124.841"/>
</g>
<!-- Node15&#45;&gt;Node3 -->
<g id="edge19" class="edge"><title>Node15&#45;&gt;Node3</title>
<path fill="none" stroke="midnightblue" d="M492.12,-167.996C440.862,-162.104 366.218,-150.537 304.083,-129 291.825,-124.751 212.517,-80.1296 201.083,-74 168.465,-56.5149 130.819,-36.2399 106.99,-23.3943"/>
<polygon fill="midnightblue" stroke="midnightblue" points="108.44,-20.1998 97.9765,-18.5347 105.118,-26.3613 108.44,-20.1998"/>
</g>
<!-- Node15&#45;&gt;Node4 -->
<g id="edge20" class="edge"><title>Node15&#45;&gt;Node4</title>
<path fill="none" stroke="midnightblue" d="M589.434,-165.44C626.571,-157.153 686.16,-143.714 746.098,-129.443"/>
<polygon fill="midnightblue" stroke="midnightblue" points="747.194,-132.779 756.108,-127.052 745.568,-125.971 747.194,-132.779"/>
</g>
<!-- Node15&#45;&gt;Node5 -->
<g id="edge21" class="edge"><title>Node15&#45;&gt;Node5</title>
<path fill="none" stroke="midnightblue" d="M536.465,-165.437C514.092,-153.527 478.953,-130.436 496.083,-110 525.515,-74.8892 654.092,-82.6511 699.083,-74 700.328,-73.7606 701.593,-73.5145 702.871,-73.2635"/>
<polygon fill="midnightblue" stroke="midnightblue" points="703.642,-76.6786 712.758,-71.2796 702.265,-69.8154 703.642,-76.6786"/>
</g>
<!-- Node15&#45;&gt;Node6 -->
<g id="edge25" class="edge"><title>Node15&#45;&gt;Node6</title>
<path fill="none" stroke="midnightblue" d="M605.826,-165.454C657.033,-157.452 737.194,-144.426 815.608,-129.208"/>
<polygon fill="midnightblue" stroke="midnightblue" points="816.514,-132.597 825.657,-127.244 815.171,-125.727 816.514,-132.597"/>
</g>
<!-- Node16 -->
<g id="node17" class="node"><title>Node16</title>
<polygon fill="none" stroke="#bfbfbf" points="504.795,-110.5 504.795,-128.5 551.371,-128.5 551.371,-110.5 504.795,-110.5"/>
<text text-anchor="middle" x="528.083" y="-116.5" font-family="Helvetica,sans-Serif" font-size="10.00">chrono</text>
</g>
<!-- Node15&#45;&gt;Node16 -->
<g id="edge18" class="edge"><title>Node15&#45;&gt;Node16</title>
<path fill="none" stroke="midnightblue" d="M549.177,-165.219C545.707,-157.864 540.526,-146.88 536.167,-137.639"/>
<polygon fill="midnightblue" stroke="midnightblue" points="539.312,-136.101 531.88,-128.55 532.981,-139.087 539.312,-136.101"/>
</g>
<!-- Node17 -->
<g id="node18" class="node"><title>Node17</title>
<polygon fill="none" stroke="#bfbfbf" points="569.691,-110.5 569.691,-128.5 608.475,-128.5 608.475,-110.5 569.691,-110.5"/>
<text text-anchor="middle" x="589.083" y="-116.5" font-family="Helvetica,sans-Serif" font-size="10.00">utility</text>
</g>
<!-- Node15&#45;&gt;Node17 -->
<g id="edge22" class="edge"><title>Node15&#45;&gt;Node17</title>
<path fill="none" stroke="midnightblue" d="M558.708,-165.219C563.81,-157.707 571.483,-146.411 577.84,-137.052"/>
<polygon fill="midnightblue" stroke="midnightblue" points="580.892,-138.788 583.615,-128.55 575.101,-134.855 580.892,-138.788"/>
</g>
<!-- Node18 -->
<g id="node19" class="node"><title>Node18</title>
<polygon fill="none" stroke="#bfbfbf" points="626.467,-110.5 626.467,-128.5 669.699,-128.5 669.699,-110.5 626.467,-110.5"/>
<text text-anchor="middle" x="648.083" y="-116.5" font-family="Helvetica,sans-Serif" font-size="10.00">vector</text>
</g>
<!-- Node15&#45;&gt;Node18 -->
<g id="edge23" class="edge"><title>Node15&#45;&gt;Node18</title>
<path fill="none" stroke="midnightblue" d="M567.511,-165.45C582.577,-157.045 606.455,-143.724 624.312,-133.762"/>
<polygon fill="midnightblue" stroke="midnightblue" points="626.491,-136.554 633.519,-128.625 623.081,-130.441 626.491,-136.554"/>
</g>
<!-- Node19 -->
<g id="node20" class="node"><title>Node19</title>
<polygon fill="none" stroke="#bfbfbf" points="687.573,-110.5 687.573,-128.5 738.593,-128.5 738.593,-110.5 687.573,-110.5"/>
<text text-anchor="middle" x="713.083" y="-116.5" font-family="Helvetica,sans-Serif" font-size="10.00">iomanip</text>
</g>
<!-- Node15&#45;&gt;Node19 -->
<g id="edge24" class="edge"><title>Node15&#45;&gt;Node19</title>
<path fill="none" stroke="midnightblue" d="M577.383,-165.45C604.481,-156.475 648.503,-141.892 679.026,-131.781"/>
<polygon fill="midnightblue" stroke="midnightblue" points="680.424,-135.005 688.816,-128.538 678.223,-128.36 680.424,-135.005"/>
</g>
<!-- Node20 -->
<g id="node21" class="node"><title>Node20</title>
<g id="a_node21"><a xlink:href="cxxutil_8h.html" target="_top" xlink:title="Some C++ utilities, with a tad of C++11 tricks. ">
<polygon fill="none" stroke="black" points="313.332,-110.5 313.332,-128.5 448.834,-128.5 448.834,-110.5 313.332,-110.5"/>
<text text-anchor="middle" x="381.083" y="-116.5" font-family="Helvetica,sans-Serif" font-size="10.00">tomographer/tools/cxxutil.h</text>
</a>
</g>
</g>
<!-- Node15&#45;&gt;Node20 -->
<g id="edge26" class="edge"><title>Node15&#45;&gt;Node20</title>
<path fill="none" stroke="midnightblue" d="M526.96,-165.45C497.577,-156.396 449.682,-141.638 416.841,-131.519"/>
<polygon fill="midnightblue" stroke="midnightblue" points="417.757,-128.138 407.17,-128.538 415.695,-134.828 417.757,-128.138"/>
</g>
<!-- Node20&#45;&gt;Node5 -->
<g id="edge30" class="edge"><title>Node20&#45;&gt;Node5</title>
<path fill="none" stroke="midnightblue" d="M447.668,-110.469C512.144,-102.39 612.574,-89.0038 699.083,-74 700.332,-73.7834 701.601,-73.5568 702.882,-73.3227"/>
<polygon fill="midnightblue" stroke="midnightblue" points="703.624,-76.7442 712.783,-71.4189 702.302,-69.8701 703.624,-76.7442"/>
</g>
<!-- Node20&#45;&gt;Node7 -->
<g id="edge32" class="edge"><title>Node20&#45;&gt;Node7</title>
<path fill="none" stroke="midnightblue" d="M359.82,-110.45C336.487,-101.617 298.812,-87.3546 272.166,-77.267"/>
<polygon fill="midnightblue" stroke="midnightblue" points="273.137,-73.8926 262.546,-73.6253 270.659,-80.4392 273.137,-73.8926"/>
</g>
<!-- Node20&#45;&gt;Node10 -->
<g id="edge35" class="edge"><title>Node20&#45;&gt;Node10</title>
<path fill="none" stroke="midnightblue" d="M448.886,-110.935C534.866,-101.341 682.956,-84.8173 774.874,-74.5612"/>
<polygon fill="midnightblue" stroke="midnightblue" points="775.418,-78.0223 784.969,-73.4349 774.642,-71.0654 775.418,-78.0223"/>
</g>
<!-- Node20&#45;&gt;Node11 -->
<g id="edge27" class="edge"><title>Node20&#45;&gt;Node11</title>
<path fill="none" stroke="midnightblue" d="M448.844,-111.149C501.529,-104.168 569.081,-92.0375 590.083,-74 603.346,-62.6092 609.297,-43.0974 611.956,-28.7011"/>
<polygon fill="midnightblue" stroke="midnightblue" points="615.463,-28.909 613.46,-18.5052 608.538,-27.8873 615.463,-28.909"/>
</g>
<!-- Node20&#45;&gt;Node12 -->
<g id="edge28" class="edge"><title>Node20&#45;&gt;Node12</title>
<path fill="none" stroke="midnightblue" d="M448.889,-114.578C496.292,-109.682 559.999,-98.6859 611.083,-74 635.037,-62.4243 657.469,-41.1302 671.22,-26.4123"/>
<polygon fill="midnightblue" stroke="midnightblue" points="674.147,-28.394 678.259,-18.6297 668.955,-23.6984 674.147,-28.394"/>
</g>
<!-- Node20&#45;&gt;Node13 -->
<g id="edge29" class="edge"><title>Node20&#45;&gt;Node13</title>
<path fill="none" stroke="midnightblue" d="M448.934,-112.347C501.964,-106.233 577.005,-94.6865 640.083,-74 678.959,-61.2505 720.807,-38.3426 745.433,-23.8067"/>
<polygon fill="midnightblue" stroke="midnightblue" points="747.504,-26.6463 754.282,-18.5039 743.905,-20.6418 747.504,-26.6463"/>
</g>
<!-- Node21 -->
<g id="node22" class="node"><title>Node21</title>
<polygon fill="none" stroke="#bfbfbf" points="290.465,-55.5 290.465,-73.5 343.701,-73.5 343.701,-55.5 290.465,-55.5"/>
<text text-anchor="middle" x="317.083" y="-61.5" font-family="Helvetica,sans-Serif" font-size="10.00">complex</text>
</g>
<!-- Node20&#45;&gt;Node21 -->
<g id="edge31" class="edge"><title>Node20&#45;&gt;Node21</title>
<path fill="none" stroke="midnightblue" d="M371.363,-110.45C361.683,-102.434 346.604,-89.9471 334.793,-80.1663"/>
<polygon fill="midnightblue" stroke="midnightblue" points="336.829,-77.3078 326.895,-73.6253 332.364,-82.6992 336.829,-77.3078"/>
</g>
<!-- Node22 -->
<g id="node23" class="node"><title>Node22</title>
<polygon fill="none" stroke="#bfbfbf" points="361.679,-55.5 361.679,-73.5 420.487,-73.5 420.487,-55.5 361.679,-55.5"/>
<text text-anchor="middle" x="391.083" y="-61.5" font-family="Helvetica,sans-Serif" font-size="10.00">exception</text>
</g>
<!-- Node20&#45;&gt;Node22 -->
<g id="edge33" class="edge"><title>Node20&#45;&gt;Node22</title>
<path fill="none" stroke="midnightblue" d="M382.645,-110.219C383.989,-103.099 385.974,-92.5775 387.681,-83.5289"/>
<polygon fill="midnightblue" stroke="midnightblue" points="391.149,-84.0251 389.564,-73.5496 384.271,-82.7272 391.149,-84.0251"/>
</g>
<!-- Node23 -->
<g id="node24" class="node"><title>Node23</title>
<polygon fill="none" stroke="#bfbfbf" points="438.682,-55.5 438.682,-73.5 497.484,-73.5 497.484,-55.5 438.682,-55.5"/>
<text text-anchor="middle" x="468.083" y="-61.5" font-family="Helvetica,sans-Serif" font-size="10.00">stdexcept</text>
</g>
<!-- Node20&#45;&gt;Node23 -->
<g id="edge34" class="edge"><title>Node20&#45;&gt;Node23</title>
<path fill="none" stroke="midnightblue" d="M394.296,-110.45C407.966,-102.123 429.556,-88.9704 445.858,-79.0394"/>
<polygon fill="midnightblue" stroke="midnightblue" points="448.026,-81.817 454.745,-73.6253 444.384,-75.8389 448.026,-81.817"/>
</g>
<!-- Node20&#45;&gt;Node24 -->
<g id="edge36" class="edge"><title>Node20&#45;&gt;Node24</title>
<path fill="none" stroke="midnightblue" d="M335.823,-110.45C282.831,-101.026 195.086,-85.4199 138.182,-75.2994"/>
<polygon fill="midnightblue" stroke="midnightblue" points="138.738,-71.8435 128.279,-73.5383 137.512,-78.7354 138.738,-71.8435"/>
</g>
<!-- Node25 -->
<g id="node26" class="node"><title>Node25</title>
<polygon fill="none" stroke="#bfbfbf" points="515.068,-55.5 515.068,-73.5 581.098,-73.5 581.098,-55.5 515.068,-55.5"/>
<text text-anchor="middle" x="548.083" y="-61.5" font-family="Helvetica,sans-Serif" font-size="10.00">Eigen/Core</text>
</g>
<!-- Node20&#45;&gt;Node25 -->
<g id="edge38" class="edge"><title>Node20&#45;&gt;Node25</title>
<path fill="none" stroke="midnightblue" d="M406.447,-110.45C434.852,-101.436 481.077,-86.7653 512.951,-76.6496"/>
<polygon fill="midnightblue" stroke="midnightblue" points="514.282,-79.8994 522.755,-73.5383 512.164,-73.2273 514.282,-79.8994"/>
</g>
<!-- Node24&#45;&gt;Node3 -->
<g id="edge37" class="edge"><title>Node24&#45;&gt;Node3</title>
<path fill="none" stroke="midnightblue" d="M83.0829,-55.2188C83.0829,-48.1769 83.0829,-37.8083 83.0829,-28.8277"/>
<polygon fill="midnightblue" stroke="midnightblue" points="86.583,-28.5495 83.0829,-18.5496 79.583,-28.5496 86.583,-28.5495"/>
</g>
</g>
</svg>
