<?xml version="1.0" encoding="UTF-8" standalone="no"?>
<!DOCTYPE svg PUBLIC "-//W3C//DTD SVG 1.1//EN"
 "http://www.w3.org/Graphics/SVG/1.1/DTD/svg11.dtd">
<!-- Generated by graphviz version 2.38.0 (20140413.2041)
 -->
<!-- Title: tomographer/tools/loggers.h Pages: 1 -->
<svg width="2143pt" height="342pt"
 viewBox="0.00 0.00 2142.78 342.00" xmlns="http://www.w3.org/2000/svg" xmlns:xlink="http://www.w3.org/1999/xlink">
<g id="graph0" class="graph" transform="scale(1 1) rotate(0) translate(4 338)">
<title>tomographer/tools/loggers.h</title>
<!-- Node26 -->
<g id="node1" class="node"><title>Node26</title>
<polygon fill="#bfbfbf" stroke="black" points="1021.6,-315.5 1021.6,-333.5 1162.12,-333.5 1162.12,-315.5 1021.6,-315.5"/>
<text text-anchor="middle" x="1091.86" y="-321.5" font-family="Helvetica,sans-Serif" font-size="10.00">tomographer/tools/loggers.h</text>
</g>
<!-- Node27 -->
<g id="node2" class="node"><title>Node27</title>
<g id="a_node2"><a xlink:href="tspacellhwalker_8h.html" target="_top" xlink:title="Definitions for a Metropolis&#45;Hastings random walk on a quantum state space with dense matrix type...">
<polygon fill="none" stroke="black" points="371.55,-130.5 371.55,-158.5 488.166,-158.5 488.166,-130.5 371.55,-130.5"/>
<text text-anchor="start" x="379.55" y="-146.5" font-family="Helvetica,sans-Serif" font-size="10.00">tomographer/densedm</text>
<text text-anchor="middle" x="429.858" y="-136.5" font-family="Helvetica,sans-Serif" font-size="10.00">/tspacellhwalker.h</text>
</a>
</g>
</g>
<!-- Node26&#45;&gt;Node27 -->
<g id="edge1" class="edge"><title>Node26&#45;&gt;Node27</title>
<path fill="none" stroke="midnightblue" d="M1011.45,-318.193C944.166,-312.434 846.085,-300.95 762.858,-279 644.213,-247.709 510.974,-185.521 455.862,-158.518"/>
<polygon fill="midnightblue" stroke="midnightblue" points="1011.31,-321.693 1021.56,-319.036 1011.89,-314.718 1011.31,-321.693"/>
</g>
<!-- Node28 -->
<g id="node3" class="node"><title>Node28</title>
<g id="a_node3"><a xlink:href="random__unitary_8h.html" target="_top" xlink:title="Produce a random unitary according to the Haar measure. ">
<polygon fill="none" stroke="black" points="1399.44,-250.5 1399.44,-278.5 1518.27,-278.5 1518.27,-250.5 1399.44,-250.5"/>
<text text-anchor="start" x="1407.44" y="-266.5" font-family="Helvetica,sans-Serif" font-size="10.00">tomographer/mathtools</text>
<text text-anchor="middle" x="1458.86" y="-256.5" font-family="Helvetica,sans-Serif" font-size="10.00">/random_unitary.h</text>
</a>
</g>
</g>
<!-- Node26&#45;&gt;Node28 -->
<g id="edge2" class="edge"><title>Node26&#45;&gt;Node28</title>
<path fill="none" stroke="midnightblue" d="M1158.62,-314.028C1218.28,-305.414 1308.02,-292.085 1385.86,-279 1390.18,-278.274 1394.64,-277.502 1399.13,-276.71"/>
<polygon fill="midnightblue" stroke="midnightblue" points="1157.98,-310.585 1148.58,-315.475 1158.98,-317.513 1157.98,-310.585"/>
</g>
<!-- Node29 -->
<g id="node4" class="node"><title>Node29</title>
<g id="a_node4"><a xlink:href="simple__find__zero_8h.html" target="_top" xlink:title="A very simplistic tool for finding a relatively straightforward zero with few iterations. ">
<polygon fill="none" stroke="black" points="1536.44,-250.5 1536.44,-278.5 1655.27,-278.5 1655.27,-250.5 1536.44,-250.5"/>
<text text-anchor="start" x="1544.44" y="-266.5" font-family="Helvetica,sans-Serif" font-size="10.00">tomographer/mathtools</text>
<text text-anchor="middle" x="1595.86" y="-256.5" font-family="Helvetica,sans-Serif" font-size="10.00">/simple_find_zero.h</text>
</a>
</g>
</g>
<!-- Node26&#45;&gt;Node29 -->
<g id="edge3" class="edge"><title>Node26&#45;&gt;Node29</title>
<path fill="none" stroke="midnightblue" d="M1172.3,-317.483C1259.81,-310.422 1403.71,-297.308 1526.86,-279 1529.88,-278.551 1532.96,-278.061 1536.08,-277.543"/>
<polygon fill="midnightblue" stroke="midnightblue" points="1171.86,-314.007 1162.17,-318.293 1172.42,-320.984 1171.86,-314.007"/>
</g>
<!-- Node30 -->
<g id="node5" class="node"><title>Node30</title>
<g id="a_node5"><a xlink:href="mhrw_8h.html" target="_top" xlink:title="Routines for performing a Metropolis&#45;Hastings random walk. ">
<polygon fill="none" stroke="black" points="804.001,-195.5 804.001,-213.5 911.715,-213.5 911.715,-195.5 804.001,-195.5"/>
<text text-anchor="middle" x="857.858" y="-201.5" font-family="Helvetica,sans-Serif" font-size="10.00">tomographer/mhrw.h</text>
</a>
</g>
</g>
<!-- Node26&#45;&gt;Node30 -->
<g id="edge4" class="edge"><title>Node26&#45;&gt;Node30</title>
<path fill="none" stroke="midnightblue" d="M1067.08,-310.73C1038.42,-295.992 989.812,-271.078 947.858,-250 922.314,-237.167 892.562,-222.513 874.477,-213.639"/>
<polygon fill="midnightblue" stroke="midnightblue" points="1065.84,-314.031 1076.34,-315.495 1069.05,-307.807 1065.84,-314.031"/>
</g>
<!-- Node31 -->
<g id="node6" class="node"><title>Node31</title>
<g id="a_node6"><a xlink:href="mhrwacceptratiowalkerparamscontroller_8h.html" target="_top" xlink:title="Tools for automatically and dynamically adjusting the step size of the random walk. ">
<polygon fill="none" stroke="black" points="29.8584,-70.5 29.8584,-88.5 289.857,-88.5 289.857,-70.5 29.8584,-70.5"/>
<text text-anchor="middle" x="159.858" y="-76.5" font-family="Helvetica,sans-Serif" font-size="10.00">tomographer/mhrwacceptratiowalkerparamscontroller.h</text>
</a>
</g>
</g>
<!-- Node26&#45;&gt;Node31 -->
<g id="edge30" class="edge"><title>Node26&#45;&gt;Node31</title>
<path fill="none" stroke="midnightblue" d="M1011.22,-322.283C869.225,-319.363 580.552,-309.732 484.858,-279 346.37,-234.526 205.888,-119.894 169.115,-88.5337"/>
<polygon fill="midnightblue" stroke="midnightblue" points="1011.53,-325.79 1021.6,-322.49 1011.67,-318.791 1011.53,-325.79"/>
</g>
<!-- Node32 -->
<g id="node7" class="node"><title>Node32</title>
<g id="a_node7"><a xlink:href="mhrwstepsizecontroller_8h.html" target="_top" xlink:title="Tools for automatically and dynamically adjusting the step size of the random walk. ">
<polygon fill="none" stroke="black" points="249.095,-5.5 249.095,-23.5 434.621,-23.5 434.621,-5.5 249.095,-5.5"/>
<text text-anchor="middle" x="341.858" y="-11.5" font-family="Helvetica,sans-Serif" font-size="10.00">tomographer/mhrwstepsizecontroller.h</text>
</a>
</g>
</g>
<!-- Node26&#45;&gt;Node32 -->
<g id="edge32" class="edge"><title>Node26&#45;&gt;Node32</title>
<path fill="none" stroke="midnightblue" d="M1011.41,-323.221C759.394,-321.294 1.8579,-307.055 1.8579,-205.5 1.8579,-205.5 1.8579,-205.5 1.8579,-143.5 1.8579,-107.604 -5.57369,-89.2881 20.8579,-65 53.3475,-35.1451 166.078,-23.2933 248.801,-18.5903"/>
<polygon fill="midnightblue" stroke="midnightblue" points="1011.57,-326.722 1021.6,-323.294 1011.62,-319.722 1011.57,-326.722"/>
</g>
<!-- Node33 -->
<g id="node8" class="node"><title>Node33</title>
<g id="a_node8"><a xlink:href="mhrwstatscollectors_8h.html" target="_top" xlink:title="Definitions for MHRWStatsCollector Interface&#39;s. ">
<polygon fill="none" stroke="black" points="582.05,-135.5 582.05,-153.5 753.666,-153.5 753.666,-135.5 582.05,-135.5"/>
<text text-anchor="middle" x="667.858" y="-141.5" font-family="Helvetica,sans-Serif" font-size="10.00">tomographer/mhrwstatscollectors.h</text>
</a>
</g>
</g>
<!-- Node26&#45;&gt;Node33 -->
<g id="edge31" class="edge"><title>Node26&#45;&gt;Node33</title>
<path fill="none" stroke="midnightblue" d="M1011.23,-323.02C953.173,-319.806 874.391,-309.407 811.858,-279 747.169,-247.544 691.291,-177.25 673.646,-153.509"/>
<polygon fill="midnightblue" stroke="midnightblue" points="1011.29,-326.527 1021.45,-323.524 1011.64,-319.536 1011.29,-326.527"/>
</g>
<!-- Node34 -->
<g id="node9" class="node"><title>Node34</title>
<g id="a_node9"><a xlink:href="mhrw__valuehist__tools_8h.html" target="_top" xlink:title="Tools for collecting a histogram of values during a Metropolis&#45;Hastings random walk using the tools o...">
<polygon fill="none" stroke="black" points="635.383,-0.5 635.383,-28.5 780.333,-28.5 780.333,-0.5 635.383,-0.5"/>
<text text-anchor="start" x="643.383" y="-16.5" font-family="Helvetica,sans-Serif" font-size="10.00">tomographer/mhrw_valuehist</text>
<text text-anchor="middle" x="707.858" y="-6.5" font-family="Helvetica,sans-Serif" font-size="10.00">_tools.h</text>
</a>
</g>
</g>
<!-- Node26&#45;&gt;Node34 -->
<g id="edge29" class="edge"><title>Node26&#45;&gt;Node34</title>
<path fill="none" stroke="midnightblue" d="M1074.31,-308.831C1044.05,-283.889 979.652,-232.296 920.858,-195 868.646,-161.88 852.767,-158.426 797.858,-130 766.439,-113.734 748.815,-121.743 726.858,-94 711.716,-74.8686 708.38,-45.4789 707.797,-28.614"/>
<polygon fill="midnightblue" stroke="midnightblue" points="1072.3,-311.712 1082.23,-315.399 1076.76,-306.322 1072.3,-311.712"/>
</g>
<!-- Node38 -->
<g id="node13" class="node"><title>Node38</title>
<g id="a_node13"><a xlink:href="mhrwvalueerrorbinsconvergedcontroller_8h.html" target="_top" xlink:title="Tools for automatically stopping the random walk when enough samples have been taken to make all binn...">
<polygon fill="none" stroke="black" points="307.405,-70.5 307.405,-88.5 566.311,-88.5 566.311,-70.5 307.405,-70.5"/>
<text text-anchor="middle" x="436.858" y="-76.5" font-family="Helvetica,sans-Serif" font-size="10.00">tomographer/mhrwvalueerrorbinsconvergedcontroller.h</text>
</a>
</g>
</g>
<!-- Node26&#45;&gt;Node38 -->
<g id="edge33" class="edge"><title>Node26&#45;&gt;Node38</title>
<path fill="none" stroke="midnightblue" d="M1011.26,-321.279C925.907,-317.467 787.751,-307.114 671.858,-279 528.685,-244.268 446.067,-280.578 362.858,-159 355.578,-148.364 356.785,-141.369 362.858,-130 373.709,-109.686 396.997,-96.2505 414.569,-88.5676"/>
<polygon fill="midnightblue" stroke="midnightblue" points="1011.26,-324.782 1021.4,-321.712 1011.56,-317.789 1011.26,-324.782"/>
</g>
<!-- Node40 -->
<g id="node15" class="node"><title>Node40</title>
<g id="a_node15"><a xlink:href="mhrw__bin__err_8h.html" target="_top" xlink:title="Binning Analysis in a Metropolis&#45;Hastings random walk. ">
<polygon fill="none" stroke="black" points="820.444,-250.5 820.444,-278.5 939.271,-278.5 939.271,-250.5 820.444,-250.5"/>
<text text-anchor="start" x="828.444" y="-266.5" font-family="Helvetica,sans-Serif" font-size="10.00">tomographer/mhrw_bin</text>
<text text-anchor="middle" x="879.858" y="-256.5" font-family="Helvetica,sans-Serif" font-size="10.00">_err.h</text>
</a>
</g>
</g>
<!-- Node26&#45;&gt;Node40 -->
<g id="edge25" class="edge"><title>Node26&#45;&gt;Node40</title>
<path fill="none" stroke="midnightblue" d="M1052.42,-312.711C1017.05,-303.034 965.07,-288.813 927.41,-278.51"/>
<polygon fill="midnightblue" stroke="midnightblue" points="1051.81,-316.172 1062.38,-315.435 1053.66,-309.42 1051.81,-316.172"/>
</g>
<!-- Node41 -->
<g id="node16" class="node"><title>Node41</title>
<g id="a_node16"><a xlink:href="multiprocomp_8h.html" target="_top" xlink:title="Multiprocessing with OpenMP parallel multithreading. ">
<polygon fill="none" stroke="black" points="1672.94,-255.5 1672.94,-273.5 1816.78,-273.5 1816.78,-255.5 1672.94,-255.5"/>
<text text-anchor="middle" x="1744.86" y="-261.5" font-family="Helvetica,sans-Serif" font-size="10.00">tomographer/multiprocomp.h</text>
</a>
</g>
</g>
<!-- Node26&#45;&gt;Node41 -->
<g id="edge34" class="edge"><title>Node26&#45;&gt;Node41</title>
<path fill="none" stroke="midnightblue" d="M1172.62,-319.449C1283.6,-313.374 1489.36,-300.288 1663.86,-279 1675.89,-277.533 1688.86,-275.551 1700.82,-273.559"/>
<polygon fill="midnightblue" stroke="midnightblue" points="1172.3,-315.961 1162.5,-319.998 1172.68,-322.951 1172.3,-315.961"/>
</g>
<!-- Node42 -->
<g id="node17" class="node"><title>Node42</title>
<g id="a_node17"><a xlink:href="multiprocthreads_8h.html" target="_top" xlink:title="Multiprocessing with native C++11 threads. ">
<polygon fill="none" stroke="black" points="1834.99,-255.5 1834.99,-273.5 1992.73,-273.5 1992.73,-255.5 1834.99,-255.5"/>
<text text-anchor="middle" x="1913.86" y="-261.5" font-family="Helvetica,sans-Serif" font-size="10.00">tomographer/multiprocthreads.h</text>
</a>
</g>
</g>
<!-- Node26&#45;&gt;Node42 -->
<g id="edge35" class="edge"><title>Node26&#45;&gt;Node42</title>
<path fill="none" stroke="midnightblue" d="M1172.4,-321.033C1307.7,-316.347 1589.09,-304.285 1825.86,-279 1839.23,-277.572 1853.68,-275.556 1866.92,-273.515"/>
<polygon fill="midnightblue" stroke="midnightblue" points="1172,-317.544 1162.12,-321.384 1172.24,-324.54 1172,-317.544"/>
</g>
<!-- Node43 -->
<g id="node18" class="node"><title>Node43</title>
<g id="a_node18"><a xlink:href="boost__test__logger_8h.html" target="_top" xlink:title="Provide a logger class for when using the Boost Unit Test Framework (see Tomographer::Logger::BoostTe...">
<polygon fill="none" stroke="black" points="2010.94,-250.5 2010.94,-278.5 2134.78,-278.5 2134.78,-250.5 2010.94,-250.5"/>
<text text-anchor="start" x="2018.94" y="-266.5" font-family="Helvetica,sans-Serif" font-size="10.00">tomographer/tools/boost</text>
<text text-anchor="middle" x="2072.86" y="-256.5" font-family="Helvetica,sans-Serif" font-size="10.00">_test_logger.h</text>
</a>
</g>
</g>
<!-- Node26&#45;&gt;Node43 -->
<g id="edge36" class="edge"><title>Node26&#45;&gt;Node43</title>
<path fill="none" stroke="midnightblue" d="M1172.54,-323.311C1331.7,-322.109 1697.16,-315.239 2001.86,-279 2004.72,-278.659 2007.65,-278.271 2010.6,-277.846"/>
<polygon fill="midnightblue" stroke="midnightblue" points="1172.33,-319.812 1162.35,-323.382 1172.38,-326.812 1172.33,-319.812"/>
</g>
<!-- Node44 -->
<g id="node19" class="node"><title>Node44</title>
<g id="a_node19"><a xlink:href="common_8h_source.html" target="_top" xlink:title="py/cxx/tomographerpy\l/common.h">
<polygon fill="none" stroke="black" points="1191.67,-130.5 1191.67,-158.5 1306.05,-158.5 1306.05,-130.5 1191.67,-130.5"/>
<text text-anchor="start" x="1199.67" y="-146.5" font-family="Helvetica,sans-Serif" font-size="10.00">py/cxx/tomographerpy</text>
<text text-anchor="middle" x="1248.86" y="-136.5" font-family="Helvetica,sans-Serif" font-size="10.00">/common.h</text>
</a>
</g>
</g>
<!-- Node26&#45;&gt;Node44 -->
<g id="edge37" class="edge"><title>Node26&#45;&gt;Node44</title>
<path fill="none" stroke="midnightblue" d="M1105.84,-307.649C1136.44,-272.951 1208.89,-190.811 1237.22,-158.695"/>
<polygon fill="midnightblue" stroke="midnightblue" points="1103,-305.574 1099.01,-315.389 1108.25,-310.205 1103,-305.574"/>
</g>
<!-- Node47 -->
<g id="node22" class="node"><title>Node47</title>
<g id="a_node22"><a xlink:href="pygil_8h_source.html" target="_top" xlink:title="py/cxx/tomographerpy\l/pygil.h">
<polygon fill="none" stroke="black" points="1641.67,-0.5 1641.67,-28.5 1756.05,-28.5 1756.05,-0.5 1641.67,-0.5"/>
<text text-anchor="start" x="1649.67" y="-16.5" font-family="Helvetica,sans-Serif" font-size="10.00">py/cxx/tomographerpy</text>
<text text-anchor="middle" x="1698.86" y="-6.5" font-family="Helvetica,sans-Serif" font-size="10.00">/pygil.h</text>
</a>
</g>
</g>
<!-- Node26&#45;&gt;Node47 -->
<g id="edge49" class="edge"><title>Node26&#45;&gt;Node47</title>
<path fill="none" stroke="midnightblue" d="M1132.08,-312.741C1271.33,-275.108 1726.44,-148.696 1764.86,-94 1781.95,-69.6679 1748.66,-43.6757 1723.44,-28.5439"/>
<polygon fill="midnightblue" stroke="midnightblue" points="1130.98,-309.414 1122.23,-315.398 1132.8,-316.173 1130.98,-309.414"/>
</g>
<!-- Node49 -->
<g id="node24" class="node"><title>Node49</title>
<g id="a_node24"><a xlink:href="pylogger_8h_source.html" target="_top" xlink:title="py/cxx/tomographerpy\l/pylogger.h">
<polygon fill="none" stroke="black" points="1641.67,-65.5 1641.67,-93.5 1756.05,-93.5 1756.05,-65.5 1641.67,-65.5"/>
<text text-anchor="start" x="1649.67" y="-81.5" font-family="Helvetica,sans-Serif" font-size="10.00">py/cxx/tomographerpy</text>
<text text-anchor="middle" x="1698.86" y="-71.5" font-family="Helvetica,sans-Serif" font-size="10.00">/pylogger.h</text>
</a>
</g>
</g>
<!-- Node26&#45;&gt;Node49 -->
<g id="edge50" class="edge"><title>Node26&#45;&gt;Node49</title>
<path fill="none" stroke="midnightblue" d="M1121.44,-311.658C1223.36,-270.858 1559.48,-136.297 1666.1,-93.6132"/>
<polygon fill="midnightblue" stroke="midnightblue" points="1120.04,-308.449 1112.05,-315.415 1122.64,-314.948 1120.04,-308.449"/>
</g>
<!-- Node30&#45;&gt;Node27 -->
<g id="edge5" class="edge"><title>Node30&#45;&gt;Node27</title>
<path fill="none" stroke="midnightblue" d="M793.548,-196.656C722.124,-188.777 603.48,-174.863 501.858,-159 497.46,-158.313 492.919,-157.562 488.356,-156.777"/>
<polygon fill="midnightblue" stroke="midnightblue" points="793.413,-200.162 803.735,-197.774 794.177,-193.204 793.413,-200.162"/>
</g>
<!-- Node30&#45;&gt;Node31 -->
<g id="edge6" class="edge"><title>Node30&#45;&gt;Node31</title>
<path fill="none" stroke="midnightblue" d="M793.551,-199.197C711.732,-192.965 575.548,-179.839 529.858,-159 512.093,-150.898 514.578,-138.2 496.858,-130 473.043,-118.98 320.241,-99.4445 228.769,-88.5001"/>
<polygon fill="midnightblue" stroke="midnightblue" points="793.506,-202.703 803.739,-199.959 794.028,-195.723 793.506,-202.703"/>
</g>
<!-- Node30&#45;&gt;Node32 -->
<g id="edge17" class="edge"><title>Node30&#45;&gt;Node32</title>
<path fill="none" stroke="midnightblue" d="M841.068,-188.321C822.798,-172.347 792.254,-147.182 762.858,-130 730.788,-111.256 644.438,-75.67 608.858,-65 541.235,-44.7208 461.364,-31.2288 406.713,-23.5226"/>
<polygon fill="midnightblue" stroke="midnightblue" points="839.188,-191.332 848.991,-195.35 843.833,-186.095 839.188,-191.332"/>
</g>
<!-- Node30&#45;&gt;Node33 -->
<g id="edge8" class="edge"><title>Node30&#45;&gt;Node33</title>
<path fill="none" stroke="midnightblue" d="M821.513,-192.405C784.34,-181.058 727.484,-163.702 694.358,-153.589"/>
<polygon fill="midnightblue" stroke="midnightblue" points="820.853,-195.863 831.439,-195.435 822.897,-189.168 820.853,-195.863"/>
</g>
<!-- Node35 -->
<g id="node10" class="node"><title>Node35</title>
<g id="a_node10"><a xlink:href="mhrwtasks_8h.html" target="_top" xlink:title="Multiprocessing tasks interface (see Multiprocessing Task Interfaces) for parallel Metropolis&#45;Hasting...">
<polygon fill="none" stroke="black" points="736.058,-70.5 736.058,-88.5 867.658,-88.5 867.658,-70.5 736.058,-70.5"/>
<text text-anchor="middle" x="801.858" y="-76.5" font-family="Helvetica,sans-Serif" font-size="10.00">tomographer/mhrwtasks.h</text>
</a>
</g>
</g>
<!-- Node30&#45;&gt;Node35 -->
<g id="edge18" class="edge"><title>Node30&#45;&gt;Node35</title>
<path fill="none" stroke="midnightblue" d="M849.938,-186.103C837.695,-159.213 814.646,-108.589 805.619,-88.7614"/>
<polygon fill="midnightblue" stroke="midnightblue" points="846.855,-187.779 854.184,-195.43 853.225,-184.878 846.855,-187.779"/>
</g>
<!-- Node36 -->
<g id="node11" class="node"><title>Node36</title>
<g id="a_node11"><a xlink:href="pymhrwtasks_8h_source.html" target="_top" xlink:title="py/cxx/tomographerpy\l/pymhrwtasks.h">
<polygon fill="none" stroke="black" points="1041.67,-0.5 1041.67,-28.5 1156.05,-28.5 1156.05,-0.5 1041.67,-0.5"/>
<text text-anchor="start" x="1049.67" y="-16.5" font-family="Helvetica,sans-Serif" font-size="10.00">py/cxx/tomographerpy</text>
<text text-anchor="middle" x="1098.86" y="-6.5" font-family="Helvetica,sans-Serif" font-size="10.00">/pymhrwtasks.h</text>
</a>
</g>
</g>
<!-- Node30&#45;&gt;Node36 -->
<g id="edge23" class="edge"><title>Node30&#45;&gt;Node36</title>
<path fill="none" stroke="midnightblue" d="M871.769,-187.58C900.121,-155.379 964.165,-83.9643 990.858,-65 1012.55,-49.5901 1039.8,-37.1413 1061.51,-28.5824"/>
<polygon fill="midnightblue" stroke="midnightblue" points="869.04,-185.383 865.075,-195.208 874.302,-190 869.04,-185.383"/>
</g>
<!-- Node37 -->
<g id="node12" class="node"><title>Node37</title>
<g id="a_node12"><a xlink:href="pymultiproc_8h_source.html" target="_top" xlink:title="py/cxx/tomographerpy\l/pymultiproc.h">
<polygon fill="none" stroke="black" points="873.668,-0.5 873.668,-28.5 988.047,-28.5 988.047,-0.5 873.668,-0.5"/>
<text text-anchor="start" x="881.668" y="-16.5" font-family="Helvetica,sans-Serif" font-size="10.00">py/cxx/tomographerpy</text>
<text text-anchor="middle" x="930.858" y="-6.5" font-family="Helvetica,sans-Serif" font-size="10.00">/pymultiproc.h</text>
</a>
</g>
</g>
<!-- Node30&#45;&gt;Node37 -->
<g id="edge24" class="edge"><title>Node30&#45;&gt;Node37</title>
<path fill="none" stroke="midnightblue" d="M864.697,-185.887C879.214,-148.501 912.832,-61.9238 925.71,-28.7572"/>
<polygon fill="midnightblue" stroke="midnightblue" points="861.352,-184.833 860.995,-195.422 867.877,-187.367 861.352,-184.833"/>
</g>
<!-- Node30&#45;&gt;Node38 -->
<g id="edge19" class="edge"><title>Node30&#45;&gt;Node38</title>
<path fill="none" stroke="midnightblue" d="M793.456,-201.428C734.287,-197.69 645.086,-187.357 572.858,-159 551.401,-150.576 549.614,-141.876 529.858,-130 503.679,-114.263 472.079,-97.9933 453.271,-88.5825"/>
<polygon fill="midnightblue" stroke="midnightblue" points="793.591,-204.942 803.778,-202.033 794,-197.954 793.591,-204.942"/>
</g>
<!-- Node39 -->
<g id="node14" class="node"><title>Node39</title>
<g id="a_node14"><a xlink:href="pymhrw_8h_source.html" target="_top" xlink:title="py/cxx/tomographerpy\l/pymhrw.h">
<polygon fill="none" stroke="black" points="999.668,-65.5 999.668,-93.5 1114.05,-93.5 1114.05,-65.5 999.668,-65.5"/>
<text text-anchor="start" x="1007.67" y="-81.5" font-family="Helvetica,sans-Serif" font-size="10.00">py/cxx/tomographerpy</text>
<text text-anchor="middle" x="1056.86" y="-71.5" font-family="Helvetica,sans-Serif" font-size="10.00">/pymhrw.h</text>
</a>
</g>
</g>
<!-- Node30&#45;&gt;Node39 -->
<g id="edge20" class="edge"><title>Node30&#45;&gt;Node39</title>
<path fill="none" stroke="midnightblue" d="M885.657,-191.204C903.769,-182.844 927.695,-171.132 947.858,-159 982.227,-138.32 1019.62,-109.993 1040.45,-93.6293"/>
<polygon fill="midnightblue" stroke="midnightblue" points="883.904,-188.157 876.253,-195.486 886.804,-194.528 883.904,-188.157"/>
</g>
<!-- Node31&#45;&gt;Node32 -->
<g id="edge7" class="edge"><title>Node31&#45;&gt;Node32</title>
<path fill="none" stroke="midnightblue" d="M192.924,-67.0539C229.242,-54.4826 286.632,-34.6167 318.527,-23.5761"/>
<polygon fill="midnightblue" stroke="midnightblue" points="191.584,-63.8142 183.279,-70.3928 193.873,-70.4291 191.584,-63.8142"/>
</g>
<!-- Node33&#45;&gt;Node31 -->
<g id="edge10" class="edge"><title>Node33&#45;&gt;Node31</title>
<path fill="none" stroke="midnightblue" d="M593.267,-134.25C493.61,-121.891 318.671,-100.195 224.4,-88.5043"/>
<polygon fill="midnightblue" stroke="midnightblue" points="592.907,-137.732 603.262,-135.489 593.768,-130.785 592.907,-137.732"/>
</g>
<!-- Node33&#45;&gt;Node32 -->
<g id="edge11" class="edge"><title>Node33&#45;&gt;Node32</title>
<path fill="none" stroke="midnightblue" d="M652.007,-128.46C630.211,-108.079 591.77,-73.2779 574.858,-65 528.986,-42.5468 473.147,-30.2372 427.633,-23.5099"/>
<polygon fill="midnightblue" stroke="midnightblue" points="649.784,-131.175 659.465,-135.479 654.582,-126.077 649.784,-131.175"/>
</g>
<!-- Node33&#45;&gt;Node34 -->
<g id="edge9" class="edge"><title>Node33&#45;&gt;Node34</title>
<path fill="none" stroke="midnightblue" d="M673.381,-125.827C681.511,-99.8111 696.517,-51.7923 703.749,-28.6489"/>
<polygon fill="midnightblue" stroke="midnightblue" points="670.002,-124.904 670.36,-135.493 676.684,-126.992 670.002,-124.904"/>
</g>
<!-- Node33&#45;&gt;Node35 -->
<g id="edge12" class="edge"><title>Node33&#45;&gt;Node35</title>
<path fill="none" stroke="midnightblue" d="M694.29,-131.073C721.097,-118.47 761.799,-99.3337 784.68,-88.5761"/>
<polygon fill="midnightblue" stroke="midnightblue" points="692.662,-127.971 685.102,-135.393 695.641,-134.305 692.662,-127.971"/>
</g>
<!-- Node33&#45;&gt;Node38 -->
<g id="edge16" class="edge"><title>Node33&#45;&gt;Node38</title>
<path fill="none" stroke="midnightblue" d="M628.229,-132.692C582.294,-120.164 507.645,-99.8055 466.47,-88.5761"/>
<polygon fill="midnightblue" stroke="midnightblue" points="627.563,-136.138 638.132,-135.393 629.405,-129.385 627.563,-136.138"/>
</g>
<!-- Node35&#45;&gt;Node34 -->
<g id="edge13" class="edge"><title>Node35&#45;&gt;Node34</title>
<path fill="none" stroke="midnightblue" d="M780.914,-64.4632C764.9,-53.7305 742.986,-39.0433 727.345,-28.5608"/>
<polygon fill="midnightblue" stroke="midnightblue" points="779.314,-67.6038 789.569,-70.2639 783.211,-61.789 779.314,-67.6038"/>
</g>
<!-- Node35&#45;&gt;Node36 -->
<g id="edge14" class="edge"><title>Node35&#45;&gt;Node36</title>
<path fill="none" stroke="midnightblue" d="M849.802,-68.33C902.121,-57.232 985.846,-39.4723 1041.58,-27.6494"/>
<polygon fill="midnightblue" stroke="midnightblue" points="848.831,-64.9581 839.775,-70.457 850.283,-71.8057 848.831,-64.9581"/>
</g>
<!-- Node35&#45;&gt;Node37 -->
<g id="edge15" class="edge"><title>Node35&#45;&gt;Node37</title>
<path fill="none" stroke="midnightblue" d="M827.586,-65.9349C849.72,-55.1255 881.539,-39.5859 903.996,-28.6188"/>
<polygon fill="midnightblue" stroke="midnightblue" points="825.908,-62.8594 818.458,-70.3928 828.98,-69.1494 825.908,-62.8594"/>
</g>
<!-- Node39&#45;&gt;Node36 -->
<g id="edge21" class="edge"><title>Node39&#45;&gt;Node36</title>
<path fill="none" stroke="midnightblue" d="M1071.24,-56.93C1077.53,-47.4911 1084.71,-36.7272 1090.17,-28.5369"/>
<polygon fill="midnightblue" stroke="midnightblue" points="1068.2,-55.1844 1065.56,-65.4464 1074.02,-59.0673 1068.2,-55.1844"/>
</g>
<!-- Node39&#45;&gt;Node37 -->
<g id="edge22" class="edge"><title>Node39&#45;&gt;Node37</title>
<path fill="none" stroke="midnightblue" d="M1021.7,-60.9224C1001.16,-50.6518 975.676,-37.9093 956.932,-28.5369"/>
<polygon fill="midnightblue" stroke="midnightblue" points="1020.24,-64.1047 1030.75,-65.4464 1023.37,-57.8437 1020.24,-64.1047"/>
</g>
<!-- Node40&#45;&gt;Node30 -->
<g id="edge26" class="edge"><title>Node40&#45;&gt;Node30</title>
<path fill="none" stroke="midnightblue" d="M871.296,-240.927C867.674,-231.378 863.68,-220.849 860.995,-213.771"/>
<polygon fill="midnightblue" stroke="midnightblue" points="868.047,-242.23 874.866,-250.339 874.592,-239.748 868.047,-242.23"/>
</g>
<!-- Node40&#45;&gt;Node33 -->
<g id="edge27" class="edge"><title>Node40&#45;&gt;Node33</title>
<path fill="none" stroke="midnightblue" d="M847.535,-245.509C800.752,-219.469 716.081,-172.341 682.321,-153.55"/>
<polygon fill="midnightblue" stroke="midnightblue" points="845.92,-248.616 856.36,-250.421 849.325,-242.499 845.92,-248.616"/>
</g>
<!-- Node40&#45;&gt;Node36 -->
<g id="edge28" class="edge"><title>Node40&#45;&gt;Node36</title>
<path fill="none" stroke="midnightblue" d="M926.593,-246.625C984.805,-222.766 1081.61,-173.054 1122.86,-94 1134.13,-72.3941 1119.63,-44.627 1108.77,-28.5699"/>
<polygon fill="midnightblue" stroke="midnightblue" points="925.227,-243.402 917.246,-250.37 927.83,-249.9 925.227,-243.402"/>
</g>
<!-- Node44&#45;&gt;Node36 -->
<g id="edge47" class="edge"><title>Node44&#45;&gt;Node36</title>
<path fill="none" stroke="midnightblue" d="M1316.07,-130.654C1317.34,-130.432 1318.61,-130.214 1319.86,-130 1427.52,-111.594 1629.82,-146.276 1556.86,-65 1530.54,-35.6898 1273.51,-22.177 1156.43,-17.5053"/>
<polygon fill="midnightblue" stroke="midnightblue" points="1315.41,-127.216 1306.18,-132.412 1316.63,-134.108 1315.41,-127.216"/>
</g>
<!-- Node44&#45;&gt;Node37 -->
<g id="edge48" class="edge"><title>Node44&#45;&gt;Node37</title>
<path fill="none" stroke="midnightblue" d="M1181.59,-143.518C1126.55,-140.645 1048.65,-129.739 990.858,-94 965.035,-78.0302 946.238,-46.6173 937.096,-28.7505"/>
<polygon fill="midnightblue" stroke="midnightblue" points="1181.44,-147.015 1191.59,-143.965 1181.75,-140.022 1181.44,-147.015"/>
</g>
<!-- Node44&#45;&gt;Node39 -->
<g id="edge46" class="edge"><title>Node44&#45;&gt;Node39</title>
<path fill="none" stroke="midnightblue" d="M1199.47,-127.295C1167.51,-116.807 1126.44,-103.331 1096.59,-93.5369"/>
<polygon fill="midnightblue" stroke="midnightblue" points="1198.48,-130.654 1209.08,-130.446 1200.67,-124.003 1198.48,-130.654"/>
</g>
<!-- Node45 -->
<g id="node20" class="node"><title>Node45</title>
<g id="a_node20"><a xlink:href="exc_8h_source.html" target="_top" xlink:title="py/cxx/tomographerpy\l/exc.h">
<polygon fill="none" stroke="black" points="1301.67,-65.5 1301.67,-93.5 1416.05,-93.5 1416.05,-65.5 1301.67,-65.5"/>
<text text-anchor="start" x="1309.67" y="-81.5" font-family="Helvetica,sans-Serif" font-size="10.00">py/cxx/tomographerpy</text>
<text text-anchor="middle" x="1358.86" y="-71.5" font-family="Helvetica,sans-Serif" font-size="10.00">/exc.h</text>
</a>
</g>
</g>
<!-- Node44&#45;&gt;Node45 -->
<g id="edge38" class="edge"><title>Node44&#45;&gt;Node45</title>
<path fill="none" stroke="midnightblue" d="M1280.52,-125.365C1298.28,-115.194 1320.03,-102.74 1336.1,-93.5369"/>
<polygon fill="midnightblue" stroke="midnightblue" points="1278.59,-122.439 1271.65,-130.446 1282.07,-128.514 1278.59,-122.439"/>
</g>
<!-- Node46 -->
<g id="node21" class="node"><title>Node46</title>
<g id="a_node21"><a xlink:href="pydensedm_8h_source.html" target="_top" xlink:title="py/cxx/tomographerpy\l/pydensedm.h">
<polygon fill="none" stroke="black" points="1169.67,-65.5 1169.67,-93.5 1284.05,-93.5 1284.05,-65.5 1169.67,-65.5"/>
<text text-anchor="start" x="1177.67" y="-81.5" font-family="Helvetica,sans-Serif" font-size="10.00">py/cxx/tomographerpy</text>
<text text-anchor="middle" x="1226.86" y="-71.5" font-family="Helvetica,sans-Serif" font-size="10.00">/pydensedm.h</text>
</a>
</g>
</g>
<!-- Node44&#45;&gt;Node46 -->
<g id="edge39" class="edge"><title>Node44&#45;&gt;Node46</title>
<path fill="none" stroke="midnightblue" d="M1240.92,-120.756C1237.72,-111.608 1234.15,-101.389 1231.41,-93.5369"/>
<polygon fill="midnightblue" stroke="midnightblue" points="1237.7,-122.159 1244.3,-130.446 1244.31,-119.852 1237.7,-122.159"/>
</g>
<!-- Node44&#45;&gt;Node47 -->
<g id="edge40" class="edge"><title>Node44&#45;&gt;Node47</title>
<path fill="none" stroke="midnightblue" d="M1316.06,-130.633C1317.34,-130.418 1318.6,-130.206 1319.86,-130 1434.1,-111.181 1469.38,-134.468 1577.86,-94 1599.44,-85.9477 1652.51,-48.9174 1680.65,-28.7248"/>
<polygon fill="midnightblue" stroke="midnightblue" points="1315.42,-127.193 1306.17,-132.353 1316.62,-134.089 1315.42,-127.193"/>
</g>
<!-- Node48 -->
<g id="node23" class="node"><title>Node48</title>
<g id="a_node23"><a xlink:href="pyhistogram_8h_source.html" target="_top" xlink:title="py/cxx/tomographerpy\l/pyhistogram.h">
<polygon fill="none" stroke="black" points="1433.67,-65.5 1433.67,-93.5 1548.05,-93.5 1548.05,-65.5 1433.67,-65.5"/>
<text text-anchor="start" x="1441.67" y="-81.5" font-family="Helvetica,sans-Serif" font-size="10.00">py/cxx/tomographerpy</text>
<text text-anchor="middle" x="1490.86" y="-71.5" font-family="Helvetica,sans-Serif" font-size="10.00">/pyhistogram.h</text>
</a>
</g>
</g>
<!-- Node44&#45;&gt;Node48 -->
<g id="edge41" class="edge"><title>Node44&#45;&gt;Node48</title>
<path fill="none" stroke="midnightblue" d="M1308.78,-127.902C1349.38,-117.331 1402.43,-103.521 1440.78,-93.5369"/>
<polygon fill="midnightblue" stroke="midnightblue" points="1307.8,-124.54 1299,-130.446 1309.56,-131.314 1307.8,-124.54"/>
</g>
<!-- Node44&#45;&gt;Node49 -->
<g id="edge43" class="edge"><title>Node44&#45;&gt;Node49</title>
<path fill="none" stroke="midnightblue" d="M1316.47,-129.175C1448.88,-109.38 1485.95,-114.376 1618.86,-94 1626.18,-92.8782 1633.89,-91.5564 1641.54,-90.1864"/>
<polygon fill="midnightblue" stroke="midnightblue" points="1315.71,-125.75 1306.35,-130.708 1316.76,-132.671 1315.71,-125.75"/>
</g>
<!-- Node48&#45;&gt;Node36 -->
<g id="edge42" class="edge"><title>Node48&#45;&gt;Node36</title>
<path fill="none" stroke="midnightblue" d="M1423.71,-64.8494C1324,-47.2714 1219.24,-32.0844 1156.13,-23.293"/>
<polygon fill="midnightblue" stroke="midnightblue" points="1423.2,-68.3126 1433.65,-66.6132 1424.42,-61.4203 1423.2,-68.3126"/>
</g>
<!-- Node49&#45;&gt;Node44 -->
<g id="edge44" class="edge"><title>Node49&#45;&gt;Node44</title>
<path fill="none" stroke="midnightblue" d="M1631.24,-94.8254C1498.83,-114.62 1461.76,-109.624 1328.86,-130 1321.54,-131.122 1313.82,-132.444 1306.17,-133.814"/>
<polygon fill="midnightblue" stroke="midnightblue" points="1632,-98.2503 1641.37,-93.292 1630.95,-91.3292 1632,-98.2503"/>
</g>
<!-- Node49&#45;&gt;Node47 -->
<g id="edge45" class="edge"><title>Node49&#45;&gt;Node47</title>
<path fill="none" stroke="midnightblue" d="M1698.86,-55.1641C1698.86,-46.1693 1698.86,-36.2205 1698.86,-28.5369"/>
<polygon fill="midnightblue" stroke="midnightblue" points="1695.36,-55.4463 1698.86,-65.4464 1702.36,-55.4464 1695.36,-55.4463"/>
</g>
</g>
</svg>
