<?xml version="1.0" encoding="UTF-8" standalone="no"?>
<!DOCTYPE svg PUBLIC "-//W3C//DTD SVG 1.1//EN"
 "http://www.w3.org/Graphics/SVG/1.1/DTD/svg11.dtd">
<!-- Generated by graphviz version 2.38.0 (20140413.2041)
 -->
<!-- Title: tomographer/multiprocomp.h Pages: 1 -->
<!--zoomable 312 -->
<svg id="main" version="1.1" xmlns="http://www.w3.org/2000/svg" xmlns:xlink="http://www.w3.org/1999/xlink" xml:space="preserve" onload="init(evt)">
<style type="text/css"><![CDATA[
.edge:hover path { stroke: red; }
.edge:hover polygon { stroke: red; fill: red; }
]]></style>
<script type="text/javascript"><![CDATA[
var edges = document.getElementsByTagName('g');
if (edges && edges.length) {
  for (var i=0;i<edges.length;i++) {
    if (edges[i].id.substr(0,4)=='edge') {
      edges[i].setAttribute('class','edge');
    }
  }
}
]]></script>
        <defs>
                <circle id="rim" cx="0" cy="0" r="7"/>
                <circle id="rim2" cx="0" cy="0" r="3.5"/>
                <g id="zoomPlus">
                        <use xlink:href="#rim" fill="#404040">
                                <set attributeName="fill" to="#808080" begin="zoomplus.mouseover" end="zoomplus.mouseout"/>
                        </use>
                        <path d="M-4,0h8M0,-4v8" fill="none" stroke="white" stroke-width="1.5" pointer-events="none"/>
                </g>
                <g id="zoomMin">
                        <use xlink:href="#rim" fill="#404040">
                                <set attributeName="fill" to="#808080" begin="zoomminus.mouseover" end="zoomminus.mouseout"/>
                        </use>
                        <path d="M-4,0h8" fill="none" stroke="white" stroke-width="1.5" pointer-events="none"/>
                </g>
                <g id="dirArrow">
                        <path fill="none" stroke="white" stroke-width="1.5" d="M0,-3.0v7 M-2.5,-0.5L0,-3.0L2.5,-0.5"/>
                </g>
               <g id="resetDef">
                       <use xlink:href="#rim2" fill="#404040">
                               <set attributeName="fill" to="#808080" begin="reset.mouseover" end="reset.mouseout"/>
                       </use>
               </g>
        </defs>

<script type="text/javascript">
var viewWidth = 1275;
var viewHeight = 312;
var sectionId = 'dynsection-0';
</script>
<script xlink:href="svgpan.js"/>
<svg id="graph" class="graph">
<g id="viewport">
<title>tomographer/multiprocomp.h</title>
<!-- Node0 -->
<g id="node1" class="node"><title>Node0</title>
<polygon fill="#bfbfbf" stroke="black" points="428.395,-285.5 428.395,-303.5 572.232,-303.5 572.232,-285.5 428.395,-285.5"/>
<text text-anchor="middle" x="500.314" y="-291.5" font-family="Helvetica,sans-Serif" font-size="10.00">tomographer/multiprocomp.h</text>
</g>
<!-- Node1 -->
<g id="node2" class="node"><title>Node1</title>
<polygon fill="none" stroke="#bfbfbf" points="12.75,-165.5 12.75,-183.5 59.8779,-183.5 59.8779,-165.5 12.75,-165.5"/>
<text text-anchor="middle" x="36.3139" y="-171.5" font-family="Helvetica,sans-Serif" font-size="10.00">csignal</text>
</g>
<!-- Node0&#45;&gt;Node1 -->
<g id="edge1" class="edge"><title>Node0&#45;&gt;Node1</title>
<path fill="none" stroke="midnightblue" d="M428.217,-289.833C363.437,-285.017 266.324,-273.997 185.314,-249 137.522,-234.253 86.1136,-205.762 57.914,-188.912"/>
<polygon fill="midnightblue" stroke="midnightblue" points="59.6455,-185.869 49.2792,-183.681 56.0183,-191.856 59.6455,-185.869"/>
</g>
<!-- Node2 -->
<g id="node3" class="node"><title>Node2</title>
<polygon fill="none" stroke="#bfbfbf" points="52.0259,-110.5 52.0259,-128.5 98.602,-128.5 98.602,-110.5 52.0259,-110.5"/>
<text text-anchor="middle" x="75.3139" y="-116.5" font-family="Helvetica,sans-Serif" font-size="10.00">chrono</text>
</g>
<!-- Node0&#45;&gt;Node2 -->
<g id="edge2" class="edge"><title>Node0&#45;&gt;Node2</title>
<path fill="none" stroke="midnightblue" d="M428.328,-293.985C349.33,-292.523 219.729,-284.199 114.314,-249 60.0876,-230.893 31.7462,-233.598 3.31394,-184 -9.1992,-162.172 18.0824,-144.006 42.5768,-132.774"/>
<polygon fill="midnightblue" stroke="midnightblue" points="44.2869,-135.848 52.0843,-128.675 41.5156,-129.42 44.2869,-135.848"/>
</g>
<!-- Node3 -->
<g id="node4" class="node"><title>Node3</title>
<polygon fill="none" stroke="#bfbfbf" points="680.913,-55.5 680.913,-73.5 739.715,-73.5 739.715,-55.5 680.913,-55.5"/>
<text text-anchor="middle" x="710.314" y="-61.5" font-family="Helvetica,sans-Serif" font-size="10.00">stdexcept</text>
</g>
<!-- Node0&#45;&gt;Node3 -->
<g id="edge3" class="edge"><title>Node0&#45;&gt;Node3</title>
<path fill="none" stroke="midnightblue" d="M501.36,-285.178C505.404,-256.501 522.619,-160.768 577.314,-110 591.101,-97.2026 636.698,-83.6421 670.682,-74.9018"/>
<polygon fill="midnightblue" stroke="midnightblue" points="671.966,-78.1876 680.808,-72.3502 670.256,-71.3998 671.966,-78.1876"/>
</g>
<!-- Node4 -->
<g id="node5" class="node"><title>Node4</title>
<polygon fill="none" stroke="#bfbfbf" points="996.386,-220.5 996.386,-248.5 1130.24,-248.5 1130.24,-220.5 996.386,-220.5"/>
<text text-anchor="start" x="1004.39" y="-236.5" font-family="Helvetica,sans-Serif" font-size="10.00">boost/exception/diagnostic</text>
<text text-anchor="middle" x="1063.31" y="-226.5" font-family="Helvetica,sans-Serif" font-size="10.00">_information.hpp</text>
</g>
<!-- Node0&#45;&gt;Node4 -->
<g id="edge4" class="edge"><title>Node0&#45;&gt;Node4</title>
<path fill="none" stroke="midnightblue" d="M572.316,-288.835C665.499,-282.37 833.085,-269.291 986.164,-249.077"/>
<polygon fill="midnightblue" stroke="midnightblue" points="986.776,-252.526 996.225,-247.735 985.85,-245.587 986.776,-252.526"/>
</g>
<!-- Node5 -->
<g id="node6" class="node"><title>Node5</title>
<g id="a_node6"><a xlink:href="loggers_8h.html" target="_top" xlink:title="Utilities for logging messages. ">
<polygon fill="none" stroke="black" points="838.056,-225.5 838.056,-243.5 978.572,-243.5 978.572,-225.5 838.056,-225.5"/>
<text text-anchor="middle" x="908.314" y="-231.5" font-family="Helvetica,sans-Serif" font-size="10.00">tomographer/tools/loggers.h</text>
</a>
</g>
</g>
<!-- Node0&#45;&gt;Node5 -->
<g id="edge5" class="edge"><title>Node0&#45;&gt;Node5</title>
<path fill="none" stroke="midnightblue" d="M556.616,-285.496C631.095,-274.909 762.186,-256.273 841.565,-244.989"/>
<polygon fill="midnightblue" stroke="midnightblue" points="842.527,-248.387 851.935,-243.515 841.542,-241.457 842.527,-248.387"/>
</g>
<!-- Node24 -->
<g id="node25" class="node"><title>Node24</title>
<g id="a_node25"><a xlink:href="cxxutil_8h.html" target="_top" xlink:title="Some C++ utilities, with a tad of C++11 tricks. ">
<polygon fill="none" stroke="black" points="356.563,-110.5 356.563,-128.5 492.065,-128.5 492.065,-110.5 356.563,-110.5"/>
<text text-anchor="middle" x="424.314" y="-116.5" font-family="Helvetica,sans-Serif" font-size="10.00">tomographer/tools/cxxutil.h</text>
</a>
</g>
</g>
<!-- Node0&#45;&gt;Node24 -->
<g id="edge45" class="edge"><title>Node0&#45;&gt;Node24</title>
<path fill="none" stroke="midnightblue" d="M496.648,-285.156C484.936,-258.495 448.241,-174.967 432.084,-138.186"/>
<polygon fill="midnightblue" stroke="midnightblue" points="435.169,-136.508 427.943,-128.76 428.76,-139.324 435.169,-136.508"/>
</g>
<!-- Node29 -->
<g id="node30" class="node"><title>Node29</title>
<g id="a_node30"><a xlink:href="needownoperatornew_8h.html" target="_top" xlink:title="Managing the need for specific overrides to operator new() for some types (especially Eigen types) ...">
<polygon fill="none" stroke="black" points="154.637,-165.5 154.637,-183.5 357.991,-183.5 357.991,-165.5 154.637,-165.5"/>
<text text-anchor="middle" x="256.314" y="-171.5" font-family="Helvetica,sans-Serif" font-size="10.00">tomographer/tools/needownoperatornew.h</text>
</a>
</g>
</g>
<!-- Node0&#45;&gt;Node29 -->
<g id="edge46" class="edge"><title>Node0&#45;&gt;Node29</title>
<path fill="none" stroke="midnightblue" d="M483.543,-285.389C441.653,-265.131 332.218,-212.208 282.079,-187.96"/>
<polygon fill="midnightblue" stroke="midnightblue" points="283.406,-184.714 272.88,-183.511 280.358,-191.016 283.406,-184.714"/>
</g>
<!-- Node31 -->
<g id="node32" class="node"><title>Node31</title>
<g id="a_node32"><a xlink:href="multiproc_8h.html" target="_top" xlink:title="Some common definitions for multiprocessing interfaces. ">
<polygon fill="none" stroke="black" points="194.122,-225.5 194.122,-243.5 318.506,-243.5 318.506,-225.5 194.122,-225.5"/>
<text text-anchor="middle" x="256.314" y="-231.5" font-family="Helvetica,sans-Serif" font-size="10.00">tomographer/multiproc.h</text>
</a>
</g>
</g>
<!-- Node0&#45;&gt;Node31 -->
<g id="edge50" class="edge"><title>Node0&#45;&gt;Node31</title>
<path fill="none" stroke="midnightblue" d="M466.643,-285.496C423.192,-275.168 347.524,-257.181 299.775,-245.831"/>
<polygon fill="midnightblue" stroke="midnightblue" points="300.569,-242.422 290.031,-243.515 298.95,-249.232 300.569,-242.422"/>
</g>
<!-- Node32 -->
<g id="node33" class="node"><title>Node32</title>
<polygon fill="none" stroke="#bfbfbf" points="1148.14,-225.5 1148.14,-243.5 1192.49,-243.5 1192.49,-225.5 1148.14,-225.5"/>
<text text-anchor="middle" x="1170.31" y="-231.5" font-family="Helvetica,sans-Serif" font-size="10.00">thread</text>
</g>
<!-- Node0&#45;&gt;Node32 -->
<g id="edge57" class="edge"><title>Node0&#45;&gt;Node32</title>
<path fill="none" stroke="midnightblue" d="M572.269,-291.567C715.936,-287.203 1033.59,-274.885 1139.31,-249 1141.24,-248.529 1143.19,-247.947 1145.14,-247.293"/>
<polygon fill="midnightblue" stroke="midnightblue" points="1146.56,-250.496 1154.59,-243.583 1144,-243.98 1146.56,-250.496"/>
</g>
<!-- Node6 -->
<g id="node7" class="node"><title>Node6</title>
<polygon fill="none" stroke="#bfbfbf" points="849.252,-110.5 849.252,-128.5 891.375,-128.5 891.375,-110.5 849.252,-110.5"/>
<text text-anchor="middle" x="870.314" y="-116.5" font-family="Helvetica,sans-Serif" font-size="10.00">cstdio</text>
</g>
<!-- Node5&#45;&gt;Node6 -->
<g id="edge6" class="edge"><title>Node5&#45;&gt;Node6</title>
<path fill="none" stroke="midnightblue" d="M905.581,-225.373C899.474,-207.212 884.6,-162.982 876.251,-138.154"/>
<polygon fill="midnightblue" stroke="midnightblue" points="879.527,-136.916 873.022,-128.553 872.892,-139.147 879.527,-136.916"/>
</g>
<!-- Node7 -->
<g id="node8" class="node"><title>Node7</title>
<polygon fill="none" stroke="#bfbfbf" points="908.917,-110.5 908.917,-128.5 957.71,-128.5 957.71,-110.5 908.917,-110.5"/>
<text text-anchor="middle" x="933.314" y="-116.5" font-family="Helvetica,sans-Serif" font-size="10.00">cstdarg</text>
</g>
<!-- Node5&#45;&gt;Node7 -->
<g id="edge7" class="edge"><title>Node5&#45;&gt;Node7</title>
<path fill="none" stroke="midnightblue" d="M910.112,-225.373C914.112,-207.293 923.828,-163.379 929.334,-138.489"/>
<polygon fill="midnightblue" stroke="midnightblue" points="932.789,-139.073 931.532,-128.553 925.955,-137.561 932.789,-139.073"/>
</g>
<!-- Node8 -->
<g id="node9" class="node"><title>Node8</title>
<polygon fill="none" stroke="#bfbfbf" points="848.087,-0.5 848.087,-18.5 888.541,-18.5 888.541,-0.5 848.087,-0.5"/>
<text text-anchor="middle" x="868.314" y="-6.5" font-family="Helvetica,sans-Serif" font-size="10.00">string</text>
</g>
<!-- Node5&#45;&gt;Node8 -->
<g id="edge8" class="edge"><title>Node5&#45;&gt;Node8</title>
<path fill="none" stroke="midnightblue" d="M953.383,-225.478C964.464,-223.594 976.306,-221.655 987.314,-220 1048.7,-210.77 1223.35,-230.635 1264.31,-184 1269.89,-177.656 1265.51,-173.36 1264.31,-165 1260.72,-139.797 1266.56,-127.757 1248.31,-110 1197.69,-60.7216 980.084,-26.032 898.959,-14.5968"/>
<polygon fill="midnightblue" stroke="midnightblue" points="899.271,-11.1066 888.884,-13.1979 898.308,-18.0401 899.271,-11.1066"/>
</g>
<!-- Node9 -->
<g id="node10" class="node"><title>Node9</title>
<polygon fill="none" stroke="#bfbfbf" points="975.533,-110.5 975.533,-128.5 1027.09,-128.5 1027.09,-110.5 975.533,-110.5"/>
<text text-anchor="middle" x="1001.31" y="-116.5" font-family="Helvetica,sans-Serif" font-size="10.00">sstream</text>
</g>
<!-- Node5&#45;&gt;Node9 -->
<g id="edge9" class="edge"><title>Node5&#45;&gt;Node9</title>
<path fill="none" stroke="midnightblue" d="M915.002,-225.373C930.285,-206.804 967.994,-160.986 988.135,-136.513"/>
<polygon fill="midnightblue" stroke="midnightblue" points="991.034,-138.498 994.686,-128.553 985.629,-134.05 991.034,-138.498"/>
</g>
<!-- Node10 -->
<g id="node11" class="node"><title>Node10</title>
<polygon fill="none" stroke="#bfbfbf" points="811.142,-55.5 811.142,-73.5 865.486,-73.5 865.486,-55.5 811.142,-55.5"/>
<text text-anchor="middle" x="838.314" y="-61.5" font-family="Helvetica,sans-Serif" font-size="10.00">iostream</text>
</g>
<!-- Node5&#45;&gt;Node10 -->
<g id="edge10" class="edge"><title>Node5&#45;&gt;Node10</title>
<path fill="none" stroke="midnightblue" d="M925.466,-225.414C945.517,-215.868 979.615,-199.346 1008.31,-184 1023.24,-176.02 1026.43,-173.052 1041.31,-165 1072.43,-148.167 1093.8,-159.148 1112.31,-129 1116.73,-121.804 1117.82,-116.402 1112.31,-110 1079.2,-71.5059 941.829,-82.8031 875.748,-73.8508"/>
<polygon fill="midnightblue" stroke="midnightblue" points="876.214,-70.3806 865.781,-72.2294 875.09,-77.2898 876.214,-70.3806"/>
</g>
<!-- Node11 -->
<g id="node12" class="node"><title>Node11</title>
<polygon fill="none" stroke="#bfbfbf" points="1044.91,-110.5 1044.91,-128.5 1103.72,-128.5 1103.72,-110.5 1044.91,-110.5"/>
<text text-anchor="middle" x="1074.31" y="-116.5" font-family="Helvetica,sans-Serif" font-size="10.00">functional</text>
</g>
<!-- Node5&#45;&gt;Node11 -->
<g id="edge11" class="edge"><title>Node5&#45;&gt;Node11</title>
<path fill="none" stroke="midnightblue" d="M919.995,-225.457C938.64,-212.63 976.289,-186.764 1008.31,-165 1023.4,-154.749 1040.47,-143.241 1053.47,-134.497"/>
<polygon fill="midnightblue" stroke="midnightblue" points="1055.78,-137.158 1062.13,-128.675 1051.88,-131.349 1055.78,-137.158"/>
</g>
<!-- Node12 -->
<g id="node13" class="node"><title>Node12</title>
<polygon fill="none" stroke="#bfbfbf" points="133.248,-55.5 133.248,-73.5 195.38,-73.5 195.38,-55.5 133.248,-55.5"/>
<text text-anchor="middle" x="164.314" y="-61.5" font-family="Helvetica,sans-Serif" font-size="10.00">type_traits</text>
</g>
<!-- Node5&#45;&gt;Node12 -->
<g id="edge12" class="edge"><title>Node5&#45;&gt;Node12</title>
<path fill="none" stroke="midnightblue" d="M838.035,-231.302C749.991,-227.26 595.045,-215.875 466.314,-184 438.501,-177.113 264.085,-106.3 193.707,-77.5415"/>
<polygon fill="midnightblue" stroke="midnightblue" points="194.689,-74.1617 184.108,-73.6162 192.039,-80.6409 194.689,-74.1617"/>
</g>
<!-- Node13 -->
<g id="node14" class="node"><title>Node13</title>
<polygon fill="none" stroke="#bfbfbf" points="1050.59,-165.5 1050.59,-183.5 1086.04,-183.5 1086.04,-165.5 1050.59,-165.5"/>
<text text-anchor="middle" x="1068.31" y="-171.5" font-family="Helvetica,sans-Serif" font-size="10.00">map</text>
</g>
<!-- Node5&#45;&gt;Node13 -->
<g id="edge13" class="edge"><title>Node5&#45;&gt;Node13</title>
<path fill="none" stroke="midnightblue" d="M930.561,-225.435C959.384,-214.987 1009.62,-196.775 1040.81,-185.471"/>
<polygon fill="midnightblue" stroke="midnightblue" points="1042,-188.76 1050.21,-182.062 1039.62,-182.179 1042,-188.76"/>
</g>
<!-- Node14 -->
<g id="node15" class="node"><title>Node14</title>
<polygon fill="none" stroke="#bfbfbf" points="1103.78,-165.5 1103.78,-183.5 1234.85,-183.5 1234.85,-165.5 1103.78,-165.5"/>
<text text-anchor="middle" x="1169.31" y="-171.5" font-family="Helvetica,sans-Serif" font-size="10.00">boost/algorithm/string.hpp</text>
</g>
<!-- Node5&#45;&gt;Node14 -->
<g id="edge14" class="edge"><title>Node5&#45;&gt;Node14</title>
<path fill="none" stroke="midnightblue" d="M944.331,-225.496C991.003,-215.125 1072.43,-197.03 1123.46,-185.689"/>
<polygon fill="midnightblue" stroke="midnightblue" points="1124.25,-189.101 1133.25,-183.515 1122.73,-182.267 1124.25,-189.101"/>
</g>
<!-- Node15 -->
<g id="node16" class="node"><title>Node15</title>
<g id="a_node16"><a xlink:href="cxxdefs_8h.html" target="_top" xlink:title="Basic definitions, which may have to be defined before any Eigen headers or further utilities are inc...">
<polygon fill="none" stroke="black" points="251.504,-55.5 251.504,-73.5 393.124,-73.5 393.124,-55.5 251.504,-55.5"/>
<text text-anchor="middle" x="322.314" y="-61.5" font-family="Helvetica,sans-Serif" font-size="10.00">tomographer/tools/cxxdefs.h</text>
</a>
</g>
</g>
<!-- Node5&#45;&gt;Node15 -->
<g id="edge15" class="edge"><title>Node5&#45;&gt;Node15</title>
<path fill="none" stroke="midnightblue" d="M847.074,-225.49C709.652,-207.037 385.711,-160.687 347.314,-129 333.758,-117.813 327.518,-98.2689 324.667,-83.8093"/>
<polygon fill="midnightblue" stroke="midnightblue" points="328.064,-82.8837 323.032,-73.5599 321.151,-83.9864 328.064,-82.8837"/>
</g>
<!-- Node20 -->
<g id="node21" class="node"><title>Node20</title>
<g id="a_node21"><a xlink:href="fmt_8h.html" target="_top" xlink:title="Utilities for formatting strings. ">
<polygon fill="none" stroke="black" points="720.511,-165.5 720.511,-183.5 842.117,-183.5 842.117,-165.5 720.511,-165.5"/>
<text text-anchor="middle" x="781.314" y="-171.5" font-family="Helvetica,sans-Serif" font-size="10.00">tomographer/tools/fmt.h</text>
</a>
</g>
</g>
<!-- Node5&#45;&gt;Node20 -->
<g id="edge20" class="edge"><title>Node5&#45;&gt;Node20</title>
<path fill="none" stroke="midnightblue" d="M890.655,-225.435C869.355,-215.708 833.321,-199.251 808.475,-187.904"/>
<polygon fill="midnightblue" stroke="midnightblue" points="809.782,-184.654 799.232,-183.683 806.874,-191.021 809.782,-184.654"/>
</g>
<!-- Node27 -->
<g id="node28" class="node"><title>Node27</title>
<g id="a_node28"><a xlink:href="conststr_8h.html" target="_top" xlink:title="A constexpr string type, suitable for basic compile&#45;time string processing. ">
<polygon fill="none" stroke="black" points="883.223,-55.5 883.223,-73.5 1025.4,-73.5 1025.4,-55.5 883.223,-55.5"/>
<text text-anchor="middle" x="954.314" y="-61.5" font-family="Helvetica,sans-Serif" font-size="10.00">tomographer/tools/conststr.h</text>
</a>
</g>
</g>
<!-- Node5&#45;&gt;Node27 -->
<g id="edge44" class="edge"><title>Node5&#45;&gt;Node27</title>
<path fill="none" stroke="midnightblue" d="M953.811,-225.485C964.771,-223.62 976.452,-221.688 987.314,-220 1044.3,-211.142 1206.47,-227.515 1244.31,-184 1307.93,-110.847 1142.36,-82.1146 1035.92,-71.4092"/>
<polygon fill="midnightblue" stroke="midnightblue" points="1036.1,-67.9108 1025.81,-70.4286 1035.43,-74.8781 1036.1,-67.9108"/>
</g>
<!-- Node16 -->
<g id="node17" class="node"><title>Node16</title>
<polygon fill="none" stroke="#bfbfbf" points="522.198,-0.5 522.198,-18.5 570.43,-18.5 570.43,-0.5 522.198,-0.5"/>
<text text-anchor="middle" x="546.314" y="-6.5" font-family="Helvetica,sans-Serif" font-size="10.00">cassert</text>
</g>
<!-- Node15&#45;&gt;Node16 -->
<g id="edge16" class="edge"><title>Node15&#45;&gt;Node16</title>
<path fill="none" stroke="midnightblue" d="M356.335,-55.4504C398.509,-45.4718 469.968,-28.5641 512.189,-18.5741"/>
<polygon fill="midnightblue" stroke="midnightblue" points="513.079,-21.9604 522.004,-16.2519 511.467,-15.1485 513.079,-21.9604"/>
</g>
<!-- Node17 -->
<g id="node18" class="node"><title>Node17</title>
<polygon fill="none" stroke="#bfbfbf" points="208.193,-0.5 208.193,-18.5 256.435,-18.5 256.435,-0.5 208.193,-0.5"/>
<text text-anchor="middle" x="232.314" y="-6.5" font-family="Helvetica,sans-Serif" font-size="10.00">cstddef</text>
</g>
<!-- Node15&#45;&gt;Node17 -->
<g id="edge17" class="edge"><title>Node15&#45;&gt;Node17</title>
<path fill="none" stroke="midnightblue" d="M308.645,-55.4504C294.372,-47.0453 271.751,-33.7241 254.834,-23.7618"/>
<polygon fill="midnightblue" stroke="midnightblue" points="256.505,-20.6838 246.112,-18.6253 252.952,-26.7157 256.505,-20.6838"/>
</g>
<!-- Node18 -->
<g id="node19" class="node"><title>Node18</title>
<polygon fill="none" stroke="#bfbfbf" points="390.142,-0.5 390.142,-18.5 434.486,-18.5 434.486,-0.5 390.142,-0.5"/>
<text text-anchor="middle" x="412.314" y="-6.5" font-family="Helvetica,sans-Serif" font-size="10.00">cstdlib</text>
</g>
<!-- Node15&#45;&gt;Node18 -->
<g id="edge18" class="edge"><title>Node15&#45;&gt;Node18</title>
<path fill="none" stroke="midnightblue" d="M335.983,-55.4504C350.256,-47.0453 372.877,-33.7241 389.794,-23.7618"/>
<polygon fill="midnightblue" stroke="midnightblue" points="391.675,-26.7157 398.516,-18.6253 388.123,-20.6838 391.675,-26.7157"/>
</g>
<!-- Node19 -->
<g id="node20" class="node"><title>Node19</title>
<polygon fill="none" stroke="#bfbfbf" points="282.346,-0.5 282.346,-18.5 362.282,-18.5 362.282,-0.5 282.346,-0.5"/>
<text text-anchor="middle" x="322.314" y="-6.5" font-family="Helvetica,sans-Serif" font-size="10.00">boost/predef.h</text>
</g>
<!-- Node15&#45;&gt;Node19 -->
<g id="edge19" class="edge"><title>Node15&#45;&gt;Node19</title>
<path fill="none" stroke="midnightblue" d="M322.314,-55.2188C322.314,-48.1769 322.314,-37.8083 322.314,-28.8277"/>
<polygon fill="midnightblue" stroke="midnightblue" points="325.814,-28.5495 322.314,-18.5496 318.814,-28.5496 325.814,-28.5495"/>
</g>
<!-- Node20&#45;&gt;Node2 -->
<g id="edge23" class="edge"><title>Node20&#45;&gt;Node2</title>
<path fill="none" stroke="midnightblue" d="M720.186,-169.038C611.951,-161.117 379.501,-144.02 183.314,-129 158.448,-127.096 130.366,-124.884 109.072,-123.194"/>
<polygon fill="midnightblue" stroke="midnightblue" points="109.154,-119.69 98.908,-122.386 108.599,-126.668 109.154,-119.69"/>
</g>
<!-- Node20&#45;&gt;Node6 -->
<g id="edge21" class="edge"><title>Node20&#45;&gt;Node6</title>
<path fill="none" stroke="midnightblue" d="M794.831,-165.45C808.945,-157.045 831.315,-143.724 848.044,-133.762"/>
<polygon fill="midnightblue" stroke="midnightblue" points="849.868,-136.749 856.67,-128.625 846.287,-130.735 849.868,-136.749"/>
</g>
<!-- Node20&#45;&gt;Node7 -->
<g id="edge22" class="edge"><title>Node20&#45;&gt;Node7</title>
<path fill="none" stroke="midnightblue" d="M804.399,-165.45C829.955,-156.539 871.359,-142.103 900.329,-132.001"/>
<polygon fill="midnightblue" stroke="midnightblue" points="901.721,-135.223 910.011,-128.625 899.416,-128.613 901.721,-135.223"/>
</g>
<!-- Node20&#45;&gt;Node8 -->
<g id="edge24" class="edge"><title>Node20&#45;&gt;Node8</title>
<path fill="none" stroke="midnightblue" d="M780.686,-165.242C779.54,-144.766 779.081,-90.7343 802.314,-55 811.311,-41.1618 826.279,-30.5498 839.688,-23.1657"/>
<polygon fill="midnightblue" stroke="midnightblue" points="841.336,-26.2539 848.63,-18.5693 838.136,-20.0283 841.336,-26.2539"/>
</g>
<!-- Node20&#45;&gt;Node9 -->
<g id="edge25" class="edge"><title>Node20&#45;&gt;Node9</title>
<path fill="none" stroke="midnightblue" d="M814.74,-165.483C849.841,-157.059 906.911,-143.348 965.522,-129.187"/>
<polygon fill="midnightblue" stroke="midnightblue" points="966.424,-132.57 975.322,-126.819 964.779,-125.766 966.424,-132.57"/>
</g>
<!-- Node20&#45;&gt;Node10 -->
<g id="edge26" class="edge"><title>Node20&#45;&gt;Node10</title>
<path fill="none" stroke="midnightblue" d="M785.598,-165.382C794.841,-147.869 816.824,-106.218 829.287,-82.6045"/>
<polygon fill="midnightblue" stroke="midnightblue" points="832.408,-84.1893 833.98,-73.7118 826.217,-80.9219 832.408,-84.1893"/>
</g>
<!-- Node20&#45;&gt;Node11 -->
<g id="edge30" class="edge"><title>Node20&#45;&gt;Node11</title>
<path fill="none" stroke="midnightblue" d="M831.283,-165.497C880.575,-157.442 958.314,-144.31 1034.62,-129.265"/>
<polygon fill="midnightblue" stroke="midnightblue" points="1035.76,-132.607 1044.88,-127.227 1034.39,-125.741 1035.76,-132.607"/>
</g>
<!-- Node21 -->
<g id="node22" class="node"><title>Node21</title>
<polygon fill="none" stroke="#bfbfbf" points="585.922,-110.5 585.922,-128.5 624.706,-128.5 624.706,-110.5 585.922,-110.5"/>
<text text-anchor="middle" x="605.314" y="-116.5" font-family="Helvetica,sans-Serif" font-size="10.00">utility</text>
</g>
<!-- Node20&#45;&gt;Node21 -->
<g id="edge27" class="edge"><title>Node20&#45;&gt;Node21</title>
<path fill="none" stroke="midnightblue" d="M754.571,-165.482C726.836,-157.162 681.958,-143.685 634.692,-129.411"/>
<polygon fill="midnightblue" stroke="midnightblue" points="635.479,-125.993 624.894,-126.451 633.455,-132.694 635.479,-125.993"/>
</g>
<!-- Node22 -->
<g id="node23" class="node"><title>Node22</title>
<polygon fill="none" stroke="#bfbfbf" points="642.698,-110.5 642.698,-128.5 685.93,-128.5 685.93,-110.5 642.698,-110.5"/>
<text text-anchor="middle" x="664.314" y="-116.5" font-family="Helvetica,sans-Serif" font-size="10.00">vector</text>
</g>
<!-- Node20&#45;&gt;Node22 -->
<g id="edge28" class="edge"><title>Node20&#45;&gt;Node22</title>
<path fill="none" stroke="midnightblue" d="M763.544,-165.45C744.388,-156.773 713.665,-142.856 691.476,-132.804"/>
<polygon fill="midnightblue" stroke="midnightblue" points="692.804,-129.564 682.251,-128.625 689.916,-135.94 692.804,-129.564"/>
</g>
<!-- Node23 -->
<g id="node24" class="node"><title>Node23</title>
<polygon fill="none" stroke="#bfbfbf" points="703.804,-110.5 703.804,-128.5 754.824,-128.5 754.824,-110.5 703.804,-110.5"/>
<text text-anchor="middle" x="729.314" y="-116.5" font-family="Helvetica,sans-Serif" font-size="10.00">iomanip</text>
</g>
<!-- Node20&#45;&gt;Node23 -->
<g id="edge29" class="edge"><title>Node20&#45;&gt;Node23</title>
<path fill="none" stroke="midnightblue" d="M773.189,-165.219C765.512,-157.394 753.806,-145.463 744.416,-135.892"/>
<polygon fill="midnightblue" stroke="midnightblue" points="746.713,-133.236 737.212,-128.55 741.717,-138.139 746.713,-133.236"/>
</g>
<!-- Node20&#45;&gt;Node24 -->
<g id="edge31" class="edge"><title>Node20&#45;&gt;Node24</title>
<path fill="none" stroke="midnightblue" d="M727.093,-165.45C663.084,-155.948 556.748,-140.161 488.635,-130.049"/>
<polygon fill="midnightblue" stroke="midnightblue" points="488.864,-126.545 478.459,-128.538 487.836,-133.469 488.864,-126.545"/>
</g>
<!-- Node24&#45;&gt;Node3 -->
<g id="edge39" class="edge"><title>Node24&#45;&gt;Node3</title>
<path fill="none" stroke="midnightblue" d="M467.751,-110.45C522.981,-100.216 617.547,-82.6911 670.822,-72.8184"/>
<polygon fill="midnightblue" stroke="midnightblue" points="671.708,-76.2139 680.903,-70.9503 670.433,-69.3311 671.708,-76.2139"/>
</g>
<!-- Node24&#45;&gt;Node10 -->
<g id="edge35" class="edge"><title>Node24&#45;&gt;Node10</title>
<path fill="none" stroke="midnightblue" d="M487.192,-110.45C574.33,-99.295 729.112,-79.48 800.42,-70.3511"/>
<polygon fill="midnightblue" stroke="midnightblue" points="801.247,-73.7739 810.722,-69.0324 800.358,-66.8306 801.247,-73.7739"/>
</g>
<!-- Node24&#45;&gt;Node12 -->
<g id="edge37" class="edge"><title>Node24&#45;&gt;Node12</title>
<path fill="none" stroke="midnightblue" d="M384.826,-110.45C336.417,-100.583 254.768,-83.9387 205.568,-73.9094"/>
<polygon fill="midnightblue" stroke="midnightblue" points="206.083,-70.4425 195.585,-71.8745 204.685,-77.3014 206.083,-70.4425"/>
</g>
<!-- Node24&#45;&gt;Node15 -->
<g id="edge40" class="edge"><title>Node24&#45;&gt;Node15</title>
<path fill="none" stroke="midnightblue" d="M408.822,-110.45C392.422,-101.929 366.296,-88.3532 347.042,-78.3487"/>
<polygon fill="midnightblue" stroke="midnightblue" points="348.439,-75.1304 337.951,-73.6253 345.211,-81.3419 348.439,-75.1304"/>
</g>
<!-- Node24&#45;&gt;Node16 -->
<g id="edge32" class="edge"><title>Node24&#45;&gt;Node16</title>
<path fill="none" stroke="midnightblue" d="M486.466,-110.484C529.996,-103.445 582.719,-91.5602 596.314,-74 609.662,-56.7593 588.383,-37.0525 569.597,-24.2257"/>
<polygon fill="midnightblue" stroke="midnightblue" points="571.307,-21.1639 561.006,-18.6863 567.513,-27.047 571.307,-21.1639"/>
</g>
<!-- Node24&#45;&gt;Node17 -->
<g id="edge33" class="edge"><title>Node24&#45;&gt;Node17</title>
<path fill="none" stroke="midnightblue" d="M360.34,-110.447C314.546,-103.329 258.278,-91.3579 242.314,-74 231.226,-61.9442 229.565,-42.8407 230.166,-28.7329"/>
<polygon fill="midnightblue" stroke="midnightblue" points="233.658,-28.9749 230.996,-18.7198 226.682,-28.3964 233.658,-28.9749"/>
</g>
<!-- Node24&#45;&gt;Node18 -->
<g id="edge34" class="edge"><title>Node24&#45;&gt;Node18</title>
<path fill="none" stroke="midnightblue" d="M423.412,-110.382C421.501,-93.1822 417.003,-52.698 414.357,-28.8866"/>
<polygon fill="midnightblue" stroke="midnightblue" points="417.809,-28.264 413.226,-18.7118 410.852,-29.0371 417.809,-28.264"/>
</g>
<!-- Node25 -->
<g id="node26" class="node"><title>Node25</title>
<polygon fill="none" stroke="#bfbfbf" points="449.696,-55.5 449.696,-73.5 502.932,-73.5 502.932,-55.5 449.696,-55.5"/>
<text text-anchor="middle" x="476.314" y="-61.5" font-family="Helvetica,sans-Serif" font-size="10.00">complex</text>
</g>
<!-- Node24&#45;&gt;Node25 -->
<g id="edge36" class="edge"><title>Node24&#45;&gt;Node25</title>
<path fill="none" stroke="midnightblue" d="M432.439,-110.219C440.116,-102.394 451.822,-90.4631 461.212,-80.8921"/>
<polygon fill="midnightblue" stroke="midnightblue" points="463.911,-83.1389 468.416,-73.5496 458.914,-78.2365 463.911,-83.1389"/>
</g>
<!-- Node26 -->
<g id="node27" class="node"><title>Node26</title>
<polygon fill="none" stroke="#bfbfbf" points="56.9101,-55.5 56.9101,-73.5 115.718,-73.5 115.718,-55.5 56.9101,-55.5"/>
<text text-anchor="middle" x="86.3139" y="-61.5" font-family="Helvetica,sans-Serif" font-size="10.00">exception</text>
</g>
<!-- Node24&#45;&gt;Node26 -->
<g id="edge38" class="edge"><title>Node24&#45;&gt;Node26</title>
<path fill="none" stroke="midnightblue" d="M361.173,-110.494C302.569,-102.754 212.693,-90.1036 125.764,-74.1596"/>
<polygon fill="midnightblue" stroke="midnightblue" points="126.199,-70.6807 115.729,-72.3016 124.925,-77.5637 126.199,-70.6807"/>
</g>
<!-- Node24&#45;&gt;Node27 -->
<g id="edge41" class="edge"><title>Node24&#45;&gt;Node27</title>
<path fill="none" stroke="midnightblue" d="M492.18,-111.944C578.221,-103.598 731.424,-88.6204 873.041,-74.124"/>
<polygon fill="midnightblue" stroke="midnightblue" points="873.626,-77.5826 883.217,-73.0812 872.912,-70.6191 873.626,-77.5826"/>
</g>
<!-- Node28 -->
<g id="node29" class="node"><title>Node28</title>
<polygon fill="none" stroke="#bfbfbf" points="521.299,-55.5 521.299,-73.5 587.329,-73.5 587.329,-55.5 521.299,-55.5"/>
<text text-anchor="middle" x="554.314" y="-61.5" font-family="Helvetica,sans-Serif" font-size="10.00">Eigen/Core</text>
</g>
<!-- Node24&#45;&gt;Node28 -->
<g id="edge43" class="edge"><title>Node24&#45;&gt;Node28</title>
<path fill="none" stroke="midnightblue" d="M444.058,-110.45C465.629,-101.656 500.4,-87.4802 525.124,-77.4006"/>
<polygon fill="midnightblue" stroke="midnightblue" points="526.445,-80.6416 534.384,-73.6253 523.803,-74.1596 526.445,-80.6416"/>
</g>
<!-- Node27&#45;&gt;Node8 -->
<g id="edge42" class="edge"><title>Node27&#45;&gt;Node8</title>
<path fill="none" stroke="midnightblue" d="M941.252,-55.4504C927.74,-47.1232 906.398,-33.9704 890.284,-24.0394"/>
<polygon fill="midnightblue" stroke="midnightblue" points="891.848,-20.8922 881.498,-18.6253 888.175,-26.8515 891.848,-20.8922"/>
</g>
<!-- Node29&#45;&gt;Node12 -->
<g id="edge47" class="edge"><title>Node29&#45;&gt;Node12</title>
<path fill="none" stroke="midnightblue" d="M234.794,-165.416C218.432,-158.22 196.55,-146.159 183.314,-129 173.211,-115.902 168.463,-97.4919 166.242,-83.8649"/>
<polygon fill="midnightblue" stroke="midnightblue" points="169.687,-83.2208 164.908,-73.765 162.748,-84.1371 169.687,-83.2208"/>
</g>
<!-- Node29&#45;&gt;Node24 -->
<g id="edge49" class="edge"><title>Node29&#45;&gt;Node24</title>
<path fill="none" stroke="midnightblue" d="M281.83,-165.45C310.405,-156.436 356.907,-141.765 388.972,-131.65"/>
<polygon fill="midnightblue" stroke="midnightblue" points="390.35,-134.885 398.834,-128.538 388.244,-128.209 390.35,-134.885"/>
</g>
<!-- Node30 -->
<g id="node31" class="node"><title>Node30</title>
<polygon fill="none" stroke="#bfbfbf" points="192.349,-110.5 192.349,-128.5 262.279,-128.5 262.279,-110.5 192.349,-110.5"/>
<text text-anchor="middle" x="227.314" y="-116.5" font-family="Helvetica,sans-Serif" font-size="10.00">Eigen/Eigen</text>
</g>
<!-- Node29&#45;&gt;Node30 -->
<g id="edge48" class="edge"><title>Node29&#45;&gt;Node30</title>
<path fill="none" stroke="midnightblue" d="M251.783,-165.219C247.716,-157.786 241.62,-146.646 236.531,-137.345"/>
<polygon fill="midnightblue" stroke="midnightblue" points="239.589,-135.642 231.718,-128.55 233.448,-139.002 239.589,-135.642"/>
</g>
<!-- Node31&#45;&gt;Node1 -->
<g id="edge51" class="edge"><title>Node31&#45;&gt;Node1</title>
<path fill="none" stroke="midnightblue" d="M225.724,-225.435C184.712,-214.623 112.167,-195.498 69.7525,-184.316"/>
<polygon fill="midnightblue" stroke="midnightblue" points="70.4719,-180.886 59.91,-181.721 68.6873,-187.654 70.4719,-180.886"/>
</g>
<!-- Node31&#45;&gt;Node2 -->
<g id="edge53" class="edge"><title>Node31&#45;&gt;Node2</title>
<path fill="none" stroke="midnightblue" d="M206.675,-225.49C176.732,-218.604 139.29,-206.135 112.314,-184 97.6943,-172.004 87.6005,-152.612 81.6927,-138.41"/>
<polygon fill="midnightblue" stroke="midnightblue" points="84.8415,-136.847 77.9852,-128.77 78.308,-139.36 84.8415,-136.847"/>
</g>
<!-- Node31&#45;&gt;Node8 -->
<g id="edge52" class="edge"><title>Node31&#45;&gt;Node8</title>
<path fill="none" stroke="midnightblue" d="M275.389,-225.404C316.635,-207.89 417.19,-165.143 501.314,-129 577.4,-96.3107 593.599,-80.722 672.314,-55 729.614,-36.2758 798.837,-22.5577 837.796,-15.6161"/>
<polygon fill="midnightblue" stroke="midnightblue" points="838.7,-19.0112 847.947,-13.8394 837.493,-12.116 838.7,-19.0112"/>
</g>
<!-- Node31&#45;&gt;Node20 -->
<g id="edge55" class="edge"><title>Node31&#45;&gt;Node20</title>
<path fill="none" stroke="midnightblue" d="M318.6,-226.619C416.779,-215.772 606.955,-194.763 710.297,-183.346"/>
<polygon fill="midnightblue" stroke="midnightblue" points="710.771,-186.815 720.326,-182.238 710.002,-179.857 710.771,-186.815"/>
</g>
<!-- Node31&#45;&gt;Node26 -->
<g id="edge54" class="edge"><title>Node31&#45;&gt;Node26</title>
<path fill="none" stroke="midnightblue" d="M223.762,-225.439C199.629,-218.058 167.25,-205.024 145.314,-184 141.309,-180.162 109.777,-114.691 94.5234,-82.7502"/>
<polygon fill="midnightblue" stroke="midnightblue" points="97.6615,-81.1992 90.1987,-73.6787 91.3428,-84.2116 97.6615,-81.1992"/>
</g>
<!-- Node31&#45;&gt;Node29 -->
<g id="edge56" class="edge"><title>Node31&#45;&gt;Node29</title>
<path fill="none" stroke="midnightblue" d="M256.314,-225.435C256.314,-217.389 256.314,-204.739 256.314,-194.185"/>
<polygon fill="midnightblue" stroke="midnightblue" points="259.814,-193.872 256.314,-183.872 252.814,-193.872 259.814,-193.872"/>
</g>
</g>
</svg>
        <g id="navigator" transform="translate(0 0)" fill="#404254">
                <rect fill="#f2f5e9" fill-opacity="0.5" stroke="#606060" stroke-width=".5" x="0" y="0" width="60" height="60"/>
                <use id="zoomplus" xlink:href="#zoomPlus" x="17" y="9" onmousedown="handleZoom(evt,'in')"/>
                <use id="zoomminus" xlink:href="#zoomMin" x="42" y="9" onmousedown="handleZoom(evt,'out')"/>
                <use id="reset" xlink:href="#resetDef" x="30" y="36" onmousedown="handleReset()"/>
                <g id="arrowUp" xlink:href="#dirArrow" transform="translate(30 24)" onmousedown="handlePan(0,-1)">
                  <use xlink:href="#rim" fill="#404040">
                        <set attributeName="fill" to="#808080" begin="arrowUp.mouseover" end="arrowUp.mouseout"/>
                  </use>
                  <path fill="none" stroke="white" stroke-width="1.5" d="M0,-3.0v7 M-2.5,-0.5L0,-3.0L2.5,-0.5"/>
                </g>
                <g id="arrowRight" xlink:href="#dirArrow" transform="rotate(90) translate(36 -43)" onmousedown="handlePan(1,0)">
                  <use xlink:href="#rim" fill="#404040">
                        <set attributeName="fill" to="#808080" begin="arrowRight.mouseover" end="arrowRight.mouseout"/>
                  </use>
                  <path fill="none" stroke="white" stroke-width="1.5" d="M0,-3.0v7 M-2.5,-0.5L0,-3.0L2.5,-0.5"/>
                </g>
                <g id="arrowDown" xlink:href="#dirArrow" transform="rotate(180) translate(-30 -48)" onmousedown="handlePan(0,1)">
                  <use xlink:href="#rim" fill="#404040">
                        <set attributeName="fill" to="#808080" begin="arrowDown.mouseover" end="arrowDown.mouseout"/>
                  </use>
                  <path fill="none" stroke="white" stroke-width="1.5" d="M0,-3.0v7 M-2.5,-0.5L0,-3.0L2.5,-0.5"/>
                </g>
                <g id="arrowLeft" xlink:href="#dirArrow" transform="rotate(270) translate(-36 17)" onmousedown="handlePan(-1,0)">
                  <use xlink:href="#rim" fill="#404040">
                        <set attributeName="fill" to="#808080" begin="arrowLeft.mouseover" end="arrowLeft.mouseout"/>
                  </use>
                  <path fill="none" stroke="white" stroke-width="1.5" d="M0,-3.0v7 M-2.5,-0.5L0,-3.0L2.5,-0.5"/>
                </g>
        </g>
        <svg viewBox="0 0 15 15" width="100%" height="30px" preserveAspectRatio="xMaxYMin meet">
         <g id="arrow_out" transform="scale(0.3 0.3)">
          <a xlink:href="multiprocomp_8h__incl_org.svg" target="_base">
           <rect id="button" ry="5" rx="5" y="6" x="6" height="38" width="38"
                fill="#f2f5e9" fill-opacity="0.5" stroke="#606060" stroke-width="1.0"/>
           <path id="arrow"
             d="M 11.500037,31.436501 C 11.940474,20.09759 22.043105,11.32322 32.158766,21.979434 L 37.068811,17.246167 C 37.068811,17.246167 37.088388,32 37.088388,32 L 22.160133,31.978069 C 22.160133,31.978069 26.997745,27.140456 26.997745,27.140456 C 18.528582,18.264221 13.291696,25.230495 11.500037,31.436501 z"
             style="fill:#404040;"/>
          </a>
         </g>
        </svg>
</svg>
