<?xml version="1.0" encoding="UTF-8" standalone="no"?>
<!DOCTYPE svg PUBLIC "-//W3C//DTD SVG 1.1//EN"
 "http://www.w3.org/Graphics/SVG/1.1/DTD/svg11.dtd">
<!-- Generated by graphviz version 2.38.0 (20140413.2041)
 -->
<!-- Title: tomographer/multiproc.h Pages: 1 -->
<svg width="1255pt" height="247pt"
 viewBox="0.00 0.00 1254.63 247.00" xmlns="http://www.w3.org/2000/svg" xmlns:xlink="http://www.w3.org/1999/xlink">
<g id="graph0" class="graph" transform="scale(1 1) rotate(0) translate(4 243)">
<title>tomographer/multiproc.h</title>
<!-- Node0 -->
<g id="node1" class="node"><title>Node0</title>
<polygon fill="#bfbfbf" stroke="black" points="76.3721,-220.5 76.3721,-238.5 200.756,-238.5 200.756,-220.5 76.3721,-220.5"/>
<text text-anchor="middle" x="138.564" y="-226.5" font-family="Helvetica,sans-Serif" font-size="10.00">tomographer/multiproc.h</text>
</g>
<!-- Node1 -->
<g id="node2" class="node"><title>Node1</title>
<polygon fill="none" stroke="#bfbfbf" points="0,-165.5 0,-183.5 47.1279,-183.5 47.1279,-165.5 0,-165.5"/>
<text text-anchor="middle" x="23.564" y="-171.5" font-family="Helvetica,sans-Serif" font-size="10.00">csignal</text>
</g>
<!-- Node0&#45;&gt;Node1 -->
<g id="edge1" class="edge"><title>Node0&#45;&gt;Node1</title>
<path fill="none" stroke="midnightblue" d="M121.098,-220.45C102.354,-211.812 72.3419,-197.98 50.5555,-187.94"/>
<polygon fill="midnightblue" stroke="midnightblue" points="51.7412,-184.632 41.1944,-183.625 48.8113,-190.99 51.7412,-184.632"/>
</g>
<!-- Node2 -->
<g id="node3" class="node"><title>Node2</title>
<polygon fill="none" stroke="#bfbfbf" points="321.337,-0.5 321.337,-18.5 361.791,-18.5 361.791,-0.5 321.337,-0.5"/>
<text text-anchor="middle" x="341.564" y="-6.5" font-family="Helvetica,sans-Serif" font-size="10.00">string</text>
</g>
<!-- Node0&#45;&gt;Node2 -->
<g id="edge2" class="edge"><title>Node0&#45;&gt;Node2</title>
<path fill="none" stroke="midnightblue" d="M133.129,-220.406C127.707,-211.804 119.741,-197.595 116.564,-184 112.405,-166.204 111.968,-121.057 119.564,-110 164.127,-45.136 261.426,-21.9829 311.087,-14.1848"/>
<polygon fill="midnightblue" stroke="midnightblue" points="311.82,-17.6149 321.209,-12.7059 310.808,-10.6885 311.82,-17.6149"/>
</g>
<!-- Node3 -->
<g id="node4" class="node"><title>Node3</title>
<polygon fill="none" stroke="#bfbfbf" points="141.276,-110.5 141.276,-128.5 187.852,-128.5 187.852,-110.5 141.276,-110.5"/>
<text text-anchor="middle" x="164.564" y="-116.5" font-family="Helvetica,sans-Serif" font-size="10.00">chrono</text>
</g>
<!-- Node0&#45;&gt;Node3 -->
<g id="edge3" class="edge"><title>Node0&#45;&gt;Node3</title>
<path fill="none" stroke="midnightblue" d="M140.518,-220.382C144.678,-203.104 154.494,-162.329 160.215,-138.563"/>
<polygon fill="midnightblue" stroke="midnightblue" points="163.649,-139.253 162.587,-128.712 156.844,-137.615 163.649,-139.253"/>
</g>
<!-- Node4 -->
<g id="node5" class="node"><title>Node4</title>
<polygon fill="none" stroke="#bfbfbf" points="369.16,-55.5 369.16,-73.5 427.968,-73.5 427.968,-55.5 369.16,-55.5"/>
<text text-anchor="middle" x="398.564" y="-61.5" font-family="Helvetica,sans-Serif" font-size="10.00">exception</text>
</g>
<!-- Node0&#45;&gt;Node4 -->
<g id="edge4" class="edge"><title>Node0&#45;&gt;Node4</title>
<path fill="none" stroke="midnightblue" d="M134.829,-220.411C125.739,-199.382 105.145,-142.387 132.564,-110 161.066,-76.3335 291.709,-68.1187 358.699,-66.1276"/>
<polygon fill="midnightblue" stroke="midnightblue" points="358.974,-69.6216 368.878,-65.8585 358.789,-62.6241 358.974,-69.6216"/>
</g>
<!-- Node5 -->
<g id="node6" class="node"><title>Node5</title>
<g id="a_node6"><a xlink:href="fmt_8h.html" target="_top" xlink:title="Utilities for formatting strings. ">
<polygon fill="none" stroke="black" points="343.761,-165.5 343.761,-183.5 465.367,-183.5 465.367,-165.5 343.761,-165.5"/>
<text text-anchor="middle" x="404.564" y="-171.5" font-family="Helvetica,sans-Serif" font-size="10.00">tomographer/tools/fmt.h</text>
</a>
</g>
</g>
<!-- Node0&#45;&gt;Node5 -->
<g id="edge5" class="edge"><title>Node0&#45;&gt;Node5</title>
<path fill="none" stroke="midnightblue" d="M178.964,-220.45C225.873,-211.104 303.293,-195.678 354.114,-185.552"/>
<polygon fill="midnightblue" stroke="midnightblue" points="355.097,-188.925 364.221,-183.538 353.73,-182.06 355.097,-188.925"/>
</g>
<!-- Node25 -->
<g id="node26" class="node"><title>Node25</title>
<g id="a_node26"><a xlink:href="needownoperatornew_8h.html" target="_top" xlink:title="Managing the need for specific overrides to operator new() for some types (especially Eigen types) ...">
<polygon fill="none" stroke="black" points="767.887,-165.5 767.887,-183.5 971.241,-183.5 971.241,-165.5 767.887,-165.5"/>
<text text-anchor="middle" x="869.564" y="-171.5" font-family="Helvetica,sans-Serif" font-size="10.00">tomographer/tools/needownoperatornew.h</text>
</a>
</g>
</g>
<!-- Node0&#45;&gt;Node25 -->
<g id="edge33" class="edge"><title>Node0&#45;&gt;Node25</title>
<path fill="none" stroke="midnightblue" d="M200.889,-223.981C324.372,-215.028 601.618,-194.927 757.558,-183.621"/>
<polygon fill="midnightblue" stroke="midnightblue" points="757.931,-187.103 767.651,-182.889 757.424,-180.121 757.931,-187.103"/>
</g>
<!-- Node5&#45;&gt;Node2 -->
<g id="edge9" class="edge"><title>Node5&#45;&gt;Node2</title>
<path fill="none" stroke="midnightblue" d="M400.558,-165.388C392.364,-148.605 373.381,-108.731 360.564,-74 355.017,-58.9706 349.884,-41.5082 346.355,-28.7038"/>
<polygon fill="midnightblue" stroke="midnightblue" points="349.676,-27.5753 343.697,-18.8288 342.917,-29.3949 349.676,-27.5753"/>
</g>
<!-- Node5&#45;&gt;Node3 -->
<g id="edge8" class="edge"><title>Node5&#45;&gt;Node3</title>
<path fill="none" stroke="midnightblue" d="M364.169,-165.467C324.214,-157.386 261.102,-144.259 197.711,-129.189"/>
<polygon fill="midnightblue" stroke="midnightblue" points="198.489,-125.776 187.949,-126.853 196.86,-132.584 198.489,-125.776"/>
</g>
<!-- Node6 -->
<g id="node7" class="node"><title>Node6</title>
<polygon fill="none" stroke="#bfbfbf" points="614.502,-110.5 614.502,-128.5 656.625,-128.5 656.625,-110.5 614.502,-110.5"/>
<text text-anchor="middle" x="635.564" y="-116.5" font-family="Helvetica,sans-Serif" font-size="10.00">cstdio</text>
</g>
<!-- Node5&#45;&gt;Node6 -->
<g id="edge6" class="edge"><title>Node5&#45;&gt;Node6</title>
<path fill="none" stroke="midnightblue" d="M444.009,-165.476C482.588,-157.47 543.217,-144.473 604.467,-129.166"/>
<polygon fill="midnightblue" stroke="midnightblue" points="605.457,-132.526 614.3,-126.69 603.748,-125.738 605.457,-132.526"/>
</g>
<!-- Node7 -->
<g id="node8" class="node"><title>Node7</title>
<polygon fill="none" stroke="#bfbfbf" points="674.167,-110.5 674.167,-128.5 722.96,-128.5 722.96,-110.5 674.167,-110.5"/>
<text text-anchor="middle" x="698.564" y="-116.5" font-family="Helvetica,sans-Serif" font-size="10.00">cstdarg</text>
</g>
<!-- Node5&#45;&gt;Node7 -->
<g id="edge7" class="edge"><title>Node5&#45;&gt;Node7</title>
<path fill="none" stroke="midnightblue" d="M459.557,-165.485C510.274,-157.787 587.856,-145.239 663.881,-129.219"/>
<polygon fill="midnightblue" stroke="midnightblue" points="665.058,-132.547 674.109,-127.041 663.6,-125.701 665.058,-132.547"/>
</g>
<!-- Node8 -->
<g id="node9" class="node"><title>Node8</title>
<polygon fill="none" stroke="#bfbfbf" points="205.783,-110.5 205.783,-128.5 257.345,-128.5 257.345,-110.5 205.783,-110.5"/>
<text text-anchor="middle" x="231.564" y="-116.5" font-family="Helvetica,sans-Serif" font-size="10.00">sstream</text>
</g>
<!-- Node5&#45;&gt;Node8 -->
<g id="edge10" class="edge"><title>Node5&#45;&gt;Node8</title>
<path fill="none" stroke="midnightblue" d="M378.289,-165.45C348.65,-156.37 300.283,-141.553 267.243,-131.431"/>
<polygon fill="midnightblue" stroke="midnightblue" points="268.106,-128.034 257.519,-128.452 266.055,-134.727 268.106,-128.034"/>
</g>
<!-- Node9 -->
<g id="node10" class="node"><title>Node9</title>
<polygon fill="none" stroke="#bfbfbf" points="446.392,-55.5 446.392,-73.5 500.736,-73.5 500.736,-55.5 446.392,-55.5"/>
<text text-anchor="middle" x="473.564" y="-61.5" font-family="Helvetica,sans-Serif" font-size="10.00">iostream</text>
</g>
<!-- Node5&#45;&gt;Node9 -->
<g id="edge11" class="edge"><title>Node5&#45;&gt;Node9</title>
<path fill="none" stroke="midnightblue" d="M401.015,-165.458C395.992,-152.764 388.482,-127.706 398.564,-110 407.045,-95.1062 422.691,-84.6829 437.507,-77.6888"/>
<polygon fill="midnightblue" stroke="midnightblue" points="439.245,-80.7509 447.039,-73.5753 436.471,-74.3238 439.245,-80.7509"/>
</g>
<!-- Node10 -->
<g id="node11" class="node"><title>Node10</title>
<polygon fill="none" stroke="#bfbfbf" points="275.172,-110.5 275.172,-128.5 313.956,-128.5 313.956,-110.5 275.172,-110.5"/>
<text text-anchor="middle" x="294.564" y="-116.5" font-family="Helvetica,sans-Serif" font-size="10.00">utility</text>
</g>
<!-- Node5&#45;&gt;Node10 -->
<g id="edge12" class="edge"><title>Node5&#45;&gt;Node10</title>
<path fill="none" stroke="midnightblue" d="M387.857,-165.45C370.009,-156.851 341.48,-143.105 320.664,-133.075"/>
<polygon fill="midnightblue" stroke="midnightblue" points="321.956,-129.813 311.428,-128.625 318.917,-136.119 321.956,-129.813"/>
</g>
<!-- Node11 -->
<g id="node12" class="node"><title>Node11</title>
<polygon fill="none" stroke="#bfbfbf" points="407.948,-110.5 407.948,-128.5 451.18,-128.5 451.18,-110.5 407.948,-110.5"/>
<text text-anchor="middle" x="429.564" y="-116.5" font-family="Helvetica,sans-Serif" font-size="10.00">vector</text>
</g>
<!-- Node5&#45;&gt;Node11 -->
<g id="edge13" class="edge"><title>Node5&#45;&gt;Node11</title>
<path fill="none" stroke="midnightblue" d="M408.47,-165.219C411.939,-157.864 417.121,-146.88 421.48,-137.639"/>
<polygon fill="midnightblue" stroke="midnightblue" points="424.666,-139.087 425.767,-128.55 418.335,-136.101 424.666,-139.087"/>
</g>
<!-- Node12 -->
<g id="node13" class="node"><title>Node12</title>
<polygon fill="none" stroke="#bfbfbf" points="469.054,-110.5 469.054,-128.5 520.074,-128.5 520.074,-110.5 469.054,-110.5"/>
<text text-anchor="middle" x="494.564" y="-116.5" font-family="Helvetica,sans-Serif" font-size="10.00">iomanip</text>
</g>
<!-- Node5&#45;&gt;Node12 -->
<g id="edge14" class="edge"><title>Node5&#45;&gt;Node12</title>
<path fill="none" stroke="midnightblue" d="M418.233,-165.45C432.506,-157.045 455.127,-143.724 472.044,-133.762"/>
<polygon fill="midnightblue" stroke="midnightblue" points="473.925,-136.716 480.766,-128.625 470.373,-130.684 473.925,-136.716"/>
</g>
<!-- Node13 -->
<g id="node14" class="node"><title>Node13</title>
<polygon fill="none" stroke="#bfbfbf" points="538.16,-110.5 538.16,-128.5 596.968,-128.5 596.968,-110.5 538.16,-110.5"/>
<text text-anchor="middle" x="567.564" y="-116.5" font-family="Helvetica,sans-Serif" font-size="10.00">functional</text>
</g>
<!-- Node5&#45;&gt;Node13 -->
<g id="edge15" class="edge"><title>Node5&#45;&gt;Node13</title>
<path fill="none" stroke="midnightblue" d="M429.32,-165.45C457.045,-156.436 502.163,-141.765 533.274,-131.65"/>
<polygon fill="midnightblue" stroke="midnightblue" points="534.415,-134.959 542.842,-128.538 532.25,-128.302 534.415,-134.959"/>
</g>
<!-- Node14 -->
<g id="node15" class="node"><title>Node14</title>
<g id="a_node15"><a xlink:href="cxxutil_8h.html" target="_top" xlink:title="Some C++ utilities, with a tad of C++11 tricks. ">
<polygon fill="none" stroke="black" points="740.813,-110.5 740.813,-128.5 876.315,-128.5 876.315,-110.5 740.813,-110.5"/>
<text text-anchor="middle" x="808.564" y="-116.5" font-family="Helvetica,sans-Serif" font-size="10.00">tomographer/tools/cxxutil.h</text>
</a>
</g>
</g>
<!-- Node5&#45;&gt;Node14 -->
<g id="edge16" class="edge"><title>Node5&#45;&gt;Node14</title>
<path fill="none" stroke="midnightblue" d="M465.484,-165.508C538.371,-155.946 660.204,-139.963 737.364,-129.841"/>
<polygon fill="midnightblue" stroke="midnightblue" points="738.019,-133.285 747.479,-128.514 737.109,-126.344 738.019,-133.285"/>
</g>
<!-- Node14&#45;&gt;Node4 -->
<g id="edge23" class="edge"><title>Node14&#45;&gt;Node4</title>
<path fill="none" stroke="midnightblue" d="M740.783,-110.725C648.858,-100.129 490.935,-81.7331 438.364,-73.8827"/>
<polygon fill="midnightblue" stroke="midnightblue" points="438.742,-70.3991 428.318,-72.2904 437.647,-77.3128 438.742,-70.3991"/>
</g>
<!-- Node14&#45;&gt;Node9 -->
<g id="edge20" class="edge"><title>Node14&#45;&gt;Node9</title>
<path fill="none" stroke="midnightblue" d="M743.849,-110.467C685.362,-102.844 596.714,-90.3888 510.933,-74.1326"/>
<polygon fill="midnightblue" stroke="midnightblue" points="511.51,-70.6795 501.03,-72.2362 510.193,-77.5546 511.51,-70.6795"/>
</g>
<!-- Node15 -->
<g id="node16" class="node"><title>Node15</title>
<polygon fill="none" stroke="#bfbfbf" points="709.448,-0.5 709.448,-18.5 757.68,-18.5 757.68,-0.5 709.448,-0.5"/>
<text text-anchor="middle" x="733.564" y="-6.5" font-family="Helvetica,sans-Serif" font-size="10.00">cassert</text>
</g>
<!-- Node14&#45;&gt;Node15 -->
<g id="edge17" class="edge"><title>Node14&#45;&gt;Node15</title>
<path fill="none" stroke="midnightblue" d="M763.97,-110.474C743.102,-104.241 720.124,-93.2597 707.564,-74 697.849,-59.1029 708.308,-39.9844 718.715,-26.635"/>
<polygon fill="midnightblue" stroke="midnightblue" points="721.555,-28.6962 725.334,-18.7979 716.207,-24.1796 721.555,-28.6962"/>
</g>
<!-- Node16 -->
<g id="node17" class="node"><title>Node16</title>
<polygon fill="none" stroke="#bfbfbf" points="820.443,-0.5 820.443,-18.5 868.685,-18.5 868.685,-0.5 820.443,-0.5"/>
<text text-anchor="middle" x="844.564" y="-6.5" font-family="Helvetica,sans-Serif" font-size="10.00">cstddef</text>
</g>
<!-- Node14&#45;&gt;Node16 -->
<g id="edge18" class="edge"><title>Node14&#45;&gt;Node16</title>
<path fill="none" stroke="midnightblue" d="M808.676,-110.434C809.074,-98.1278 810.747,-74.0838 817.564,-55 821.103,-45.0913 827.009,-34.9903 832.396,-26.9218"/>
<polygon fill="midnightblue" stroke="midnightblue" points="835.417,-28.7098 838.308,-18.5171 829.692,-24.6821 835.417,-28.7098"/>
</g>
<!-- Node17 -->
<g id="node18" class="node"><title>Node17</title>
<polygon fill="none" stroke="#bfbfbf" points="1040.39,-0.5 1040.39,-18.5 1084.74,-18.5 1084.74,-0.5 1040.39,-0.5"/>
<text text-anchor="middle" x="1062.56" y="-6.5" font-family="Helvetica,sans-Serif" font-size="10.00">cstdlib</text>
</g>
<!-- Node14&#45;&gt;Node17 -->
<g id="edge19" class="edge"><title>Node14&#45;&gt;Node17</title>
<path fill="none" stroke="midnightblue" d="M875.052,-110.46C943.295,-101.579 1041.22,-86.8328 1053.56,-74 1064.89,-62.2223 1066.19,-43.078 1065.23,-28.8848"/>
<polygon fill="midnightblue" stroke="midnightblue" points="1068.7,-28.3601 1064.13,-18.7989 1061.74,-29.1196 1068.7,-28.3601"/>
</g>
<!-- Node18 -->
<g id="node19" class="node"><title>Node18</title>
<polygon fill="none" stroke="#bfbfbf" points="716.946,-55.5 716.946,-73.5 770.182,-73.5 770.182,-55.5 716.946,-55.5"/>
<text text-anchor="middle" x="743.564" y="-61.5" font-family="Helvetica,sans-Serif" font-size="10.00">complex</text>
</g>
<!-- Node14&#45;&gt;Node18 -->
<g id="edge21" class="edge"><title>Node14&#45;&gt;Node18</title>
<path fill="none" stroke="midnightblue" d="M798.692,-110.45C788.861,-102.434 773.546,-89.9471 761.551,-80.1663"/>
<polygon fill="midnightblue" stroke="midnightblue" points="763.491,-77.2322 753.529,-73.6253 759.067,-82.6573 763.491,-77.2322"/>
</g>
<!-- Node19 -->
<g id="node20" class="node"><title>Node19</title>
<polygon fill="none" stroke="#bfbfbf" points="1184.5,-55.5 1184.5,-73.5 1246.63,-73.5 1246.63,-55.5 1184.5,-55.5"/>
<text text-anchor="middle" x="1215.56" y="-61.5" font-family="Helvetica,sans-Serif" font-size="10.00">type_traits</text>
</g>
<!-- Node14&#45;&gt;Node19 -->
<g id="edge22" class="edge"><title>Node14&#45;&gt;Node19</title>
<path fill="none" stroke="midnightblue" d="M876.597,-110.983C962.025,-101.423 1104.88,-85.0081 1174.11,-74.0833"/>
<polygon fill="midnightblue" stroke="midnightblue" points="1174.86,-77.5067 1184.17,-72.4459 1173.74,-70.5975 1174.86,-77.5067"/>
</g>
<!-- Node20 -->
<g id="node21" class="node"><title>Node20</title>
<polygon fill="none" stroke="#bfbfbf" points="826.163,-55.5 826.163,-73.5 884.965,-73.5 884.965,-55.5 826.163,-55.5"/>
<text text-anchor="middle" x="855.564" y="-61.5" font-family="Helvetica,sans-Serif" font-size="10.00">stdexcept</text>
</g>
<!-- Node14&#45;&gt;Node20 -->
<g id="edge24" class="edge"><title>Node14&#45;&gt;Node20</title>
<path fill="none" stroke="midnightblue" d="M815.908,-110.219C822.777,-102.473 833.216,-90.7013 841.659,-81.1799"/>
<polygon fill="midnightblue" stroke="midnightblue" points="844.409,-83.3537 848.426,-73.5496 839.172,-78.7092 844.409,-83.3537"/>
</g>
<!-- Node21 -->
<g id="node22" class="node"><title>Node21</title>
<g id="a_node22"><a xlink:href="cxxdefs_8h.html" target="_top" xlink:title="Basic definitions, which may have to be defined before any Eigen headers or further utilities are inc...">
<polygon fill="none" stroke="black" points="902.754,-55.5 902.754,-73.5 1044.37,-73.5 1044.37,-55.5 902.754,-55.5"/>
<text text-anchor="middle" x="973.564" y="-61.5" font-family="Helvetica,sans-Serif" font-size="10.00">tomographer/tools/cxxdefs.h</text>
</a>
</g>
</g>
<!-- Node14&#45;&gt;Node21 -->
<g id="edge25" class="edge"><title>Node14&#45;&gt;Node21</title>
<path fill="none" stroke="midnightblue" d="M833.624,-110.45C861.689,-101.436 907.361,-86.7653 938.853,-76.6496"/>
<polygon fill="midnightblue" stroke="midnightblue" points="940.089,-79.9289 948.539,-73.5383 937.948,-73.2643 940.089,-79.9289"/>
</g>
<!-- Node23 -->
<g id="node24" class="node"><title>Node23</title>
<g id="a_node24"><a xlink:href="conststr_8h.html" target="_top" xlink:title="A constexpr string type, suitable for basic compile&#45;time string processing. ">
<polygon fill="none" stroke="black" points="518.473,-55.5 518.473,-73.5 660.655,-73.5 660.655,-55.5 518.473,-55.5"/>
<text text-anchor="middle" x="589.564" y="-61.5" font-family="Helvetica,sans-Serif" font-size="10.00">tomographer/tools/conststr.h</text>
</a>
</g>
</g>
<!-- Node14&#45;&gt;Node23 -->
<g id="edge30" class="edge"><title>Node14&#45;&gt;Node23</title>
<path fill="none" stroke="midnightblue" d="M775.303,-110.45C737.165,-101.221 674.534,-86.0635 632.682,-75.935"/>
<polygon fill="midnightblue" stroke="midnightblue" points="633.322,-72.4888 622.779,-73.5383 631.675,-79.2924 633.322,-72.4888"/>
</g>
<!-- Node24 -->
<g id="node25" class="node"><title>Node24</title>
<polygon fill="none" stroke="#bfbfbf" points="1100.55,-55.5 1100.55,-73.5 1166.58,-73.5 1166.58,-55.5 1100.55,-55.5"/>
<text text-anchor="middle" x="1133.56" y="-61.5" font-family="Helvetica,sans-Serif" font-size="10.00">Eigen/Core</text>
</g>
<!-- Node14&#45;&gt;Node24 -->
<g id="edge32" class="edge"><title>Node14&#45;&gt;Node24</title>
<path fill="none" stroke="midnightblue" d="M860.621,-110.488C916.516,-101.811 1007.9,-87.407 1086.56,-74 1087.83,-73.7845 1089.11,-73.564 1090.41,-73.3399"/>
<polygon fill="midnightblue" stroke="midnightblue" points="1091.21,-76.7522 1100.45,-71.5744 1090,-69.8578 1091.21,-76.7522"/>
</g>
<!-- Node21&#45;&gt;Node15 -->
<g id="edge26" class="edge"><title>Node21&#45;&gt;Node15</title>
<path fill="none" stroke="midnightblue" d="M937.113,-55.4504C891.128,-45.2953 812.645,-27.9638 767.755,-18.0505"/>
<polygon fill="midnightblue" stroke="midnightblue" points="768.427,-14.6147 757.908,-15.8759 766.918,-21.45 768.427,-14.6147"/>
</g>
<!-- Node21&#45;&gt;Node16 -->
<g id="edge27" class="edge"><title>Node21&#45;&gt;Node16</title>
<path fill="none" stroke="midnightblue" d="M953.972,-55.4504C932.662,-46.6951 898.368,-32.6055 873.856,-22.5346"/>
<polygon fill="midnightblue" stroke="midnightblue" points="874.921,-19.1882 864.341,-18.6253 872.26,-25.6631 874.921,-19.1882"/>
</g>
<!-- Node21&#45;&gt;Node17 -->
<g id="edge28" class="edge"><title>Node21&#45;&gt;Node17</title>
<path fill="none" stroke="midnightblue" d="M987.081,-55.4504C1001.2,-47.0453 1023.56,-33.7241 1040.29,-23.7618"/>
<polygon fill="midnightblue" stroke="midnightblue" points="1042.12,-26.7491 1048.92,-18.6253 1038.54,-20.7347 1042.12,-26.7491"/>
</g>
<!-- Node22 -->
<g id="node23" class="node"><title>Node22</title>
<polygon fill="none" stroke="#bfbfbf" points="933.596,-0.5 933.596,-18.5 1013.53,-18.5 1013.53,-0.5 933.596,-0.5"/>
<text text-anchor="middle" x="973.564" y="-6.5" font-family="Helvetica,sans-Serif" font-size="10.00">boost/predef.h</text>
</g>
<!-- Node21&#45;&gt;Node22 -->
<g id="edge29" class="edge"><title>Node21&#45;&gt;Node22</title>
<path fill="none" stroke="midnightblue" d="M973.564,-55.2188C973.564,-48.1769 973.564,-37.8083 973.564,-28.8277"/>
<polygon fill="midnightblue" stroke="midnightblue" points="977.064,-28.5495 973.564,-18.5496 970.064,-28.5496 977.064,-28.5495"/>
</g>
<!-- Node23&#45;&gt;Node2 -->
<g id="edge31" class="edge"><title>Node23&#45;&gt;Node2</title>
<path fill="none" stroke="midnightblue" d="M551.898,-55.4504C502.62,-44.9192 417.228,-26.6701 371.887,-16.9803"/>
<polygon fill="midnightblue" stroke="midnightblue" points="372.567,-13.5468 362.057,-14.8795 371.104,-20.3922 372.567,-13.5468"/>
</g>
<!-- Node25&#45;&gt;Node14 -->
<g id="edge36" class="edge"><title>Node25&#45;&gt;Node14</title>
<path fill="none" stroke="midnightblue" d="M860.299,-165.45C851.163,-157.512 836.98,-145.189 825.773,-135.452"/>
<polygon fill="midnightblue" stroke="midnightblue" points="827.76,-132.542 817.916,-128.625 823.169,-137.826 827.76,-132.542"/>
</g>
<!-- Node25&#45;&gt;Node19 -->
<g id="edge34" class="edge"><title>Node25&#45;&gt;Node19</title>
<path fill="none" stroke="midnightblue" d="M895.288,-165.471C956.34,-146.414 1110.09,-98.4227 1179.99,-76.6047"/>
<polygon fill="midnightblue" stroke="midnightblue" points="1181.17,-79.9029 1189.67,-73.5822 1179.08,-73.2208 1181.17,-79.9029"/>
</g>
<!-- Node26 -->
<g id="node27" class="node"><title>Node26</title>
<polygon fill="none" stroke="#bfbfbf" points="894.599,-110.5 894.599,-128.5 964.529,-128.5 964.529,-110.5 894.599,-110.5"/>
<text text-anchor="middle" x="929.564" y="-116.5" font-family="Helvetica,sans-Serif" font-size="10.00">Eigen/Eigen</text>
</g>
<!-- Node25&#45;&gt;Node26 -->
<g id="edge35" class="edge"><title>Node25&#45;&gt;Node26</title>
<path fill="none" stroke="midnightblue" d="M878.677,-165.45C887.663,-157.512 901.614,-145.189 912.637,-135.452"/>
<polygon fill="midnightblue" stroke="midnightblue" points="915.188,-137.869 920.365,-128.625 910.554,-132.623 915.188,-137.869"/>
</g>
</g>
</svg>
