<?xml version="1.0" encoding="UTF-8" standalone="no"?>
<!DOCTYPE svg PUBLIC "-//W3C//DTD SVG 1.1//EN"
 "http://www.w3.org/Graphics/SVG/1.1/DTD/svg11.dtd">
<!-- Generated by graphviz version 2.38.0 (20140413.2041)
 -->
<!-- Title: tomographer/tools/needownoperatornew.h Pages: 1 -->
<svg width="885pt" height="192pt"
 viewBox="0.00 0.00 885.16 192.00" xmlns="http://www.w3.org/2000/svg" xmlns:xlink="http://www.w3.org/1999/xlink">
<g id="graph0" class="graph" transform="scale(1 1) rotate(0) translate(4 188)">
<title>tomographer/tools/needownoperatornew.h</title>
<!-- Node0 -->
<g id="node1" class="node"><title>Node0</title>
<polygon fill="#bfbfbf" stroke="black" points="227.39,-165.5 227.39,-183.5 430.743,-183.5 430.743,-165.5 227.39,-165.5"/>
<text text-anchor="middle" x="329.066" y="-171.5" font-family="Helvetica,sans-Serif" font-size="10.00">tomographer/tools/needownoperatornew.h</text>
</g>
<!-- Node1 -->
<g id="node2" class="node"><title>Node1</title>
<polygon fill="none" stroke="#bfbfbf" points="0,-55.5 0,-73.5 62.1328,-73.5 62.1328,-55.5 0,-55.5"/>
<text text-anchor="middle" x="31.0664" y="-61.5" font-family="Helvetica,sans-Serif" font-size="10.00">type_traits</text>
</g>
<!-- Node0&#45;&gt;Node1 -->
<g id="edge1" class="edge"><title>Node0&#45;&gt;Node1</title>
<path fill="none" stroke="midnightblue" d="M306.668,-165.382C254.226,-146.377 123.341,-98.9418 62.7571,-76.9852"/>
<polygon fill="midnightblue" stroke="midnightblue" points="63.9124,-73.6812 53.3182,-73.5644 61.5273,-80.2624 63.9124,-73.6812"/>
</g>
<!-- Node2 -->
<g id="node3" class="node"><title>Node2</title>
<polygon fill="none" stroke="#bfbfbf" points="415.101,-110.5 415.101,-128.5 485.032,-128.5 485.032,-110.5 415.101,-110.5"/>
<text text-anchor="middle" x="450.066" y="-116.5" font-family="Helvetica,sans-Serif" font-size="10.00">Eigen/Eigen</text>
</g>
<!-- Node0&#45;&gt;Node2 -->
<g id="edge2" class="edge"><title>Node0&#45;&gt;Node2</title>
<path fill="none" stroke="midnightblue" d="M347.444,-165.45C367.343,-156.734 399.313,-142.731 422.284,-132.669"/>
<polygon fill="midnightblue" stroke="midnightblue" points="423.761,-135.843 431.516,-128.625 420.952,-129.432 423.761,-135.843"/>
</g>
<!-- Node3 -->
<g id="node4" class="node"><title>Node3</title>
<g id="a_node4"><a xlink:href="cxxutil_8h.html" target="_top" xlink:title="Some C++ utilities, with a tad of C++11 tricks. ">
<polygon fill="none" stroke="black" points="261.315,-110.5 261.315,-128.5 396.817,-128.5 396.817,-110.5 261.315,-110.5"/>
<text text-anchor="middle" x="329.066" y="-116.5" font-family="Helvetica,sans-Serif" font-size="10.00">tomographer/tools/cxxutil.h</text>
</a>
</g>
</g>
<!-- Node0&#45;&gt;Node3 -->
<g id="edge3" class="edge"><title>Node0&#45;&gt;Node3</title>
<path fill="none" stroke="midnightblue" d="M329.066,-165.219C329.066,-158.177 329.066,-147.808 329.066,-138.828"/>
<polygon fill="midnightblue" stroke="midnightblue" points="332.567,-138.55 329.066,-128.55 325.567,-138.55 332.567,-138.55"/>
</g>
<!-- Node3&#45;&gt;Node1 -->
<g id="edge9" class="edge"><title>Node3&#45;&gt;Node1</title>
<path fill="none" stroke="midnightblue" d="M282.405,-110.474C231.614,-101.695 148.02,-87.123 76.0664,-74 74.9714,-73.8003 73.8615,-73.597 72.7418,-73.3911"/>
<polygon fill="midnightblue" stroke="midnightblue" points="72.9992,-69.8792 62.5283,-71.495 71.7214,-76.7616 72.9992,-69.8792"/>
</g>
<!-- Node4 -->
<g id="node5" class="node"><title>Node4</title>
<polygon fill="none" stroke="#bfbfbf" points="222.951,-0.5 222.951,-18.5 271.182,-18.5 271.182,-0.5 222.951,-0.5"/>
<text text-anchor="middle" x="247.066" y="-6.5" font-family="Helvetica,sans-Serif" font-size="10.00">cassert</text>
</g>
<!-- Node3&#45;&gt;Node4 -->
<g id="edge4" class="edge"><title>Node3&#45;&gt;Node4</title>
<path fill="none" stroke="midnightblue" d="M261.169,-113.997C203.818,-108.611 128.064,-97.2251 109.066,-74 78.4339,-36.551 162.571,-20.1655 212.718,-13.8861"/>
<polygon fill="midnightblue" stroke="midnightblue" points="213.327,-17.3388 222.85,-12.6956 212.51,-10.3866 213.327,-17.3388"/>
</g>
<!-- Node5 -->
<g id="node6" class="node"><title>Node5</title>
<polygon fill="none" stroke="#bfbfbf" points="562.946,-0.5 562.946,-18.5 611.187,-18.5 611.187,-0.5 562.946,-0.5"/>
<text text-anchor="middle" x="587.066" y="-6.5" font-family="Helvetica,sans-Serif" font-size="10.00">cstddef</text>
</g>
<!-- Node3&#45;&gt;Node5 -->
<g id="edge5" class="edge"><title>Node3&#45;&gt;Node5</title>
<path fill="none" stroke="midnightblue" d="M394.886,-110.468C487.59,-99.0016 645.892,-78.7929 650.066,-74 666.184,-55.4944 638.398,-35.6394 614.769,-23.1522"/>
<polygon fill="midnightblue" stroke="midnightblue" points="616.198,-19.9533 605.691,-18.5893 613.054,-26.2076 616.198,-19.9533"/>
</g>
<!-- Node6 -->
<g id="node7" class="node"><title>Node6</title>
<polygon fill="none" stroke="#bfbfbf" points="665.894,-0.5 665.894,-18.5 710.239,-18.5 710.239,-0.5 665.894,-0.5"/>
<text text-anchor="middle" x="688.066" y="-6.5" font-family="Helvetica,sans-Serif" font-size="10.00">cstdlib</text>
</g>
<!-- Node3&#45;&gt;Node6 -->
<g id="edge6" class="edge"><title>Node3&#45;&gt;Node6</title>
<path fill="none" stroke="midnightblue" d="M396.967,-110.475C494.157,-98.8592 661.893,-78.2797 667.066,-74 680.338,-63.0203 685.28,-43.4432 687.09,-28.9192"/>
<polygon fill="midnightblue" stroke="midnightblue" points="690.606,-28.8768 687.969,-18.6155 683.631,-28.2818 690.606,-28.8768"/>
</g>
<!-- Node7 -->
<g id="node8" class="node"><title>Node7</title>
<polygon fill="none" stroke="#bfbfbf" points="117.894,-55.5 117.894,-73.5 172.239,-73.5 172.239,-55.5 117.894,-55.5"/>
<text text-anchor="middle" x="145.066" y="-61.5" font-family="Helvetica,sans-Serif" font-size="10.00">iostream</text>
</g>
<!-- Node3&#45;&gt;Node7 -->
<g id="edge7" class="edge"><title>Node3&#45;&gt;Node7</title>
<path fill="none" stroke="midnightblue" d="M301.121,-110.45C269.37,-101.305 217.411,-86.3385 182.256,-76.2123"/>
<polygon fill="midnightblue" stroke="midnightblue" points="182.951,-72.7701 172.373,-73.3654 181.013,-79.4966 182.951,-72.7701"/>
</g>
<!-- Node8 -->
<g id="node9" class="node"><title>Node8</title>
<polygon fill="none" stroke="#bfbfbf" points="190.448,-55.5 190.448,-73.5 243.685,-73.5 243.685,-55.5 190.448,-55.5"/>
<text text-anchor="middle" x="217.066" y="-61.5" font-family="Helvetica,sans-Serif" font-size="10.00">complex</text>
</g>
<!-- Node3&#45;&gt;Node8 -->
<g id="edge8" class="edge"><title>Node3&#45;&gt;Node8</title>
<path fill="none" stroke="midnightblue" d="M312.056,-110.45C293.801,-101.812 264.572,-87.9803 243.354,-77.9396"/>
<polygon fill="midnightblue" stroke="midnightblue" points="244.773,-74.7391 234.237,-73.6253 241.779,-81.0664 244.773,-74.7391"/>
</g>
<!-- Node9 -->
<g id="node10" class="node"><title>Node9</title>
<polygon fill="none" stroke="#bfbfbf" points="261.663,-55.5 261.663,-73.5 320.47,-73.5 320.47,-55.5 261.663,-55.5"/>
<text text-anchor="middle" x="291.066" y="-61.5" font-family="Helvetica,sans-Serif" font-size="10.00">exception</text>
</g>
<!-- Node3&#45;&gt;Node9 -->
<g id="edge10" class="edge"><title>Node3&#45;&gt;Node9</title>
<path fill="none" stroke="midnightblue" d="M323.129,-110.219C317.687,-102.629 309.475,-91.1753 302.724,-81.7597"/>
<polygon fill="midnightblue" stroke="midnightblue" points="305.509,-79.6371 296.838,-73.5496 299.82,-83.716 305.509,-79.6371"/>
</g>
<!-- Node10 -->
<g id="node11" class="node"><title>Node10</title>
<polygon fill="none" stroke="#bfbfbf" points="338.665,-55.5 338.665,-73.5 397.468,-73.5 397.468,-55.5 338.665,-55.5"/>
<text text-anchor="middle" x="368.066" y="-61.5" font-family="Helvetica,sans-Serif" font-size="10.00">stdexcept</text>
</g>
<!-- Node3&#45;&gt;Node10 -->
<g id="edge11" class="edge"><title>Node3&#45;&gt;Node10</title>
<path fill="none" stroke="midnightblue" d="M335.16,-110.219C340.745,-102.629 349.173,-91.1753 356.102,-81.7597"/>
<polygon fill="midnightblue" stroke="midnightblue" points="359.035,-83.6784 362.143,-73.5496 353.397,-79.5296 359.035,-83.6784"/>
</g>
<!-- Node11 -->
<g id="node12" class="node"><title>Node11</title>
<g id="a_node12"><a xlink:href="cxxdefs_8h.html" target="_top" xlink:title="Basic definitions, which may have to be defined before any Eigen headers or further utilities are inc...">
<polygon fill="none" stroke="black" points="415.256,-55.5 415.256,-73.5 556.876,-73.5 556.876,-55.5 415.256,-55.5"/>
<text text-anchor="middle" x="486.066" y="-61.5" font-family="Helvetica,sans-Serif" font-size="10.00">tomographer/tools/cxxdefs.h</text>
</a>
</g>
</g>
<!-- Node3&#45;&gt;Node11 -->
<g id="edge12" class="edge"><title>Node3&#45;&gt;Node11</title>
<path fill="none" stroke="midnightblue" d="M352.911,-110.45C379.5,-101.475 422.697,-86.8922 452.648,-76.7813"/>
<polygon fill="midnightblue" stroke="midnightblue" points="453.9,-80.053 462.255,-73.5383 451.661,-73.4207 453.9,-80.053"/>
</g>
<!-- Node13 -->
<g id="node14" class="node"><title>Node13</title>
<g id="a_node14"><a xlink:href="conststr_8h.html" target="_top" xlink:title="A constexpr string type, suitable for basic compile&#45;time string processing. ">
<polygon fill="none" stroke="black" points="734.976,-55.5 734.976,-73.5 877.157,-73.5 877.157,-55.5 734.976,-55.5"/>
<text text-anchor="middle" x="806.066" y="-61.5" font-family="Helvetica,sans-Serif" font-size="10.00">tomographer/tools/conststr.h</text>
</a>
</g>
</g>
<!-- Node3&#45;&gt;Node13 -->
<g id="edge17" class="edge"><title>Node3&#45;&gt;Node13</title>
<path fill="none" stroke="midnightblue" d="M396.902,-110.963C483.301,-101.363 632.448,-84.7909 724.82,-74.5273"/>
<polygon fill="midnightblue" stroke="midnightblue" points="725.411,-77.9834 734.963,-73.4004 724.638,-71.0262 725.411,-77.9834"/>
</g>
<!-- Node15 -->
<g id="node16" class="node"><title>Node15</title>
<polygon fill="none" stroke="#bfbfbf" points="575.052,-55.5 575.052,-73.5 641.081,-73.5 641.081,-55.5 575.052,-55.5"/>
<text text-anchor="middle" x="608.066" y="-61.5" font-family="Helvetica,sans-Serif" font-size="10.00">Eigen/Core</text>
</g>
<!-- Node3&#45;&gt;Node15 -->
<g id="edge19" class="edge"><title>Node3&#45;&gt;Node15</title>
<path fill="none" stroke="midnightblue" d="M372.783,-110.482C418.229,-102.105 491.704,-88.4419 564.361,-74.3126"/>
<polygon fill="midnightblue" stroke="midnightblue" points="565.458,-77.6646 574.604,-72.3163 564.119,-70.7938 565.458,-77.6646"/>
</g>
<!-- Node11&#45;&gt;Node4 -->
<g id="edge13" class="edge"><title>Node11&#45;&gt;Node4</title>
<path fill="none" stroke="midnightblue" d="M449.767,-55.4504C403.973,-45.2953 325.818,-27.9638 281.115,-18.0505"/>
<polygon fill="midnightblue" stroke="midnightblue" points="281.829,-14.624 271.309,-15.8759 280.314,-21.4579 281.829,-14.624"/>
</g>
<!-- Node11&#45;&gt;Node5 -->
<g id="edge14" class="edge"><title>Node11&#45;&gt;Node5</title>
<path fill="none" stroke="midnightblue" d="M501.406,-55.4504C517.646,-46.9286 543.516,-33.3532 562.581,-23.3487"/>
<polygon fill="midnightblue" stroke="midnightblue" points="564.354,-26.3712 571.582,-18.6253 561.101,-20.1728 564.354,-26.3712"/>
</g>
<!-- Node11&#45;&gt;Node6 -->
<g id="edge15" class="edge"><title>Node11&#45;&gt;Node6</title>
<path fill="none" stroke="midnightblue" d="M516.746,-55.4504C554.275,-45.6038 617.519,-29.0101 655.769,-18.974"/>
<polygon fill="midnightblue" stroke="midnightblue" points="657.069,-22.2516 665.853,-16.3283 655.292,-15.4808 657.069,-22.2516"/>
</g>
<!-- Node12 -->
<g id="node13" class="node"><title>Node12</title>
<polygon fill="none" stroke="#bfbfbf" points="446.099,-0.5 446.099,-18.5 526.034,-18.5 526.034,-0.5 446.099,-0.5"/>
<text text-anchor="middle" x="486.066" y="-6.5" font-family="Helvetica,sans-Serif" font-size="10.00">boost/predef.h</text>
</g>
<!-- Node11&#45;&gt;Node12 -->
<g id="edge16" class="edge"><title>Node11&#45;&gt;Node12</title>
<path fill="none" stroke="midnightblue" d="M486.066,-55.2188C486.066,-48.1769 486.066,-37.8083 486.066,-28.8277"/>
<polygon fill="midnightblue" stroke="midnightblue" points="489.567,-28.5495 486.066,-18.5496 482.567,-28.5496 489.567,-28.5495"/>
</g>
<!-- Node14 -->
<g id="node15" class="node"><title>Node14</title>
<polygon fill="none" stroke="#bfbfbf" points="785.84,-0.5 785.84,-18.5 826.293,-18.5 826.293,-0.5 785.84,-0.5"/>
<text text-anchor="middle" x="806.066" y="-6.5" font-family="Helvetica,sans-Serif" font-size="10.00">string</text>
</g>
<!-- Node13&#45;&gt;Node14 -->
<g id="edge18" class="edge"><title>Node13&#45;&gt;Node14</title>
<path fill="none" stroke="midnightblue" d="M806.066,-55.2188C806.066,-48.1769 806.066,-37.8083 806.066,-28.8277"/>
<polygon fill="midnightblue" stroke="midnightblue" points="809.567,-28.5495 806.066,-18.5496 802.567,-28.5496 809.567,-28.5495"/>
</g>
</g>
</svg>
