<?xml version="1.0" encoding="UTF-8" standalone="no"?>
<!DOCTYPE svg PUBLIC "-//W3C//DTD SVG 1.1//EN"
 "http://www.w3.org/Graphics/SVG/1.1/DTD/svg11.dtd">
<!-- Generated by graphviz version 2.38.0 (20140413.2041)
 -->
<!-- Title: tomographer/mathtools/pos_semidef_util.h Pages: 1 -->
<svg width="885pt" height="202pt"
 viewBox="0.00 0.00 885.11 202.00" xmlns="http://www.w3.org/2000/svg" xmlns:xlink="http://www.w3.org/1999/xlink">
<g id="graph0" class="graph" transform="scale(1 1) rotate(0) translate(4 198)">
<title>tomographer/mathtools/pos_semidef_util.h</title>
<!-- Node0 -->
<g id="node1" class="node"><title>Node0</title>
<polygon fill="#bfbfbf" stroke="black" points="276.599,-165.5 276.599,-193.5 395.431,-193.5 395.431,-165.5 276.599,-165.5"/>
<text text-anchor="start" x="284.599" y="-181.5" font-family="Helvetica,sans-Serif" font-size="10.00">tomographer/mathtools</text>
<text text-anchor="middle" x="336.015" y="-171.5" font-family="Helvetica,sans-Serif" font-size="10.00">/pos_semidef_util.h</text>
</g>
<!-- Node1 -->
<g id="node2" class="node"><title>Node1</title>
<polygon fill="none" stroke="#bfbfbf" points="0,-55.5 0,-73.5 66.0293,-73.5 66.0293,-55.5 0,-55.5"/>
<text text-anchor="middle" x="33.0146" y="-61.5" font-family="Helvetica,sans-Serif" font-size="10.00">Eigen/Core</text>
</g>
<!-- Node0&#45;&gt;Node1 -->
<g id="edge1" class="edge"><title>Node0&#45;&gt;Node1</title>
<path fill="none" stroke="midnightblue" d="M300.961,-165.427C241.297,-143.176 120.958,-98.2973 64.1074,-77.0956"/>
<polygon fill="midnightblue" stroke="midnightblue" points="65.1734,-73.7578 54.5807,-73.5428 62.7274,-80.3165 65.1734,-73.7578"/>
</g>
<!-- Node2 -->
<g id="node3" class="node"><title>Node2</title>
<polygon fill="none" stroke="#bfbfbf" points="421.596,-110.5 421.596,-128.5 520.433,-128.5 520.433,-110.5 421.596,-110.5"/>
<text text-anchor="middle" x="471.015" y="-116.5" font-family="Helvetica,sans-Serif" font-size="10.00">Eigen/Eigenvalues</text>
</g>
<!-- Node0&#45;&gt;Node2 -->
<g id="edge2" class="edge"><title>Node0&#45;&gt;Node2</title>
<path fill="none" stroke="midnightblue" d="M366.311,-165.484C389.2,-155.65 420.389,-142.25 442.762,-132.638"/>
<polygon fill="midnightblue" stroke="midnightblue" points="444.254,-135.807 452.06,-128.643 441.491,-129.375 444.254,-135.807"/>
</g>
<!-- Node3 -->
<g id="node4" class="node"><title>Node3</title>
<g id="a_node4"><a xlink:href="cxxutil_8h.html" target="_top" xlink:title="Some C++ utilities, with a tad of C++11 tricks. ">
<polygon fill="none" stroke="black" points="268.264,-110.5 268.264,-128.5 403.766,-128.5 403.766,-110.5 268.264,-110.5"/>
<text text-anchor="middle" x="336.015" y="-116.5" font-family="Helvetica,sans-Serif" font-size="10.00">tomographer/tools/cxxutil.h</text>
</a>
</g>
</g>
<!-- Node0&#45;&gt;Node3 -->
<g id="edge3" class="edge"><title>Node0&#45;&gt;Node3</title>
<path fill="none" stroke="midnightblue" d="M336.015,-165.339C336.015,-157.531 336.015,-147.512 336.015,-138.927"/>
<polygon fill="midnightblue" stroke="midnightblue" points="339.515,-138.771 336.015,-128.771 332.515,-138.772 339.515,-138.771"/>
</g>
<!-- Node3&#45;&gt;Node1 -->
<g id="edge19" class="edge"><title>Node3&#45;&gt;Node1</title>
<path fill="none" stroke="midnightblue" d="M289.284,-110.475C237.951,-101.637 153.082,-86.9576 80.0146,-74 78.7517,-73.776 77.4697,-73.5481 76.1757,-73.3175"/>
<polygon fill="midnightblue" stroke="midnightblue" points="76.5941,-69.8368 66.1336,-71.5188 75.3599,-76.7271 76.5941,-69.8368"/>
</g>
<!-- Node4 -->
<g id="node5" class="node"><title>Node4</title>
<polygon fill="none" stroke="#bfbfbf" points="261.899,-0.5 261.899,-18.5 310.13,-18.5 310.13,-0.5 261.899,-0.5"/>
<text text-anchor="middle" x="286.015" y="-6.5" font-family="Helvetica,sans-Serif" font-size="10.00">cassert</text>
</g>
<!-- Node3&#45;&gt;Node4 -->
<g id="edge4" class="edge"><title>Node3&#45;&gt;Node4</title>
<path fill="none" stroke="midnightblue" d="M268.049,-114.207C209.824,-108.944 132.386,-97.6188 113.015,-74 74.1604,-26.6263 190.245,-14.5951 251.205,-11.5399"/>
<polygon fill="midnightblue" stroke="midnightblue" points="251.709,-15.021 261.544,-11.0809 251.398,-8.02792 251.709,-15.021"/>
</g>
<!-- Node5 -->
<g id="node6" class="node"><title>Node5</title>
<polygon fill="none" stroke="#bfbfbf" points="618.894,-0.5 618.894,-18.5 667.135,-18.5 667.135,-0.5 618.894,-0.5"/>
<text text-anchor="middle" x="643.015" y="-6.5" font-family="Helvetica,sans-Serif" font-size="10.00">cstddef</text>
</g>
<!-- Node3&#45;&gt;Node5 -->
<g id="edge5" class="edge"><title>Node3&#45;&gt;Node5</title>
<path fill="none" stroke="midnightblue" d="M400.024,-110.491C490.655,-99.001 645.931,-78.7031 650.015,-74 660.792,-61.587 656.744,-42.2615 651.424,-28.1889"/>
<polygon fill="midnightblue" stroke="midnightblue" points="654.492,-26.4628 647.332,-18.6529 648.059,-29.2228 654.492,-26.4628"/>
</g>
<!-- Node6 -->
<g id="node7" class="node"><title>Node6</title>
<polygon fill="none" stroke="#bfbfbf" points="684.842,-0.5 684.842,-18.5 729.187,-18.5 729.187,-0.5 684.842,-0.5"/>
<text text-anchor="middle" x="707.015" y="-6.5" font-family="Helvetica,sans-Serif" font-size="10.00">cstdlib</text>
</g>
<!-- Node3&#45;&gt;Node6 -->
<g id="edge6" class="edge"><title>Node3&#45;&gt;Node6</title>
<path fill="none" stroke="midnightblue" d="M403.914,-110.904C497.809,-100.183 657.061,-81.1239 668.015,-74 684.422,-63.3293 695.057,-43.0951 701.012,-28.3267"/>
<polygon fill="midnightblue" stroke="midnightblue" points="704.366,-29.3474 704.537,-18.754 697.797,-26.9286 704.366,-29.3474"/>
</g>
<!-- Node7 -->
<g id="node8" class="node"><title>Node7</title>
<polygon fill="none" stroke="#bfbfbf" points="121.842,-55.5 121.842,-73.5 176.187,-73.5 176.187,-55.5 121.842,-55.5"/>
<text text-anchor="middle" x="149.015" y="-61.5" font-family="Helvetica,sans-Serif" font-size="10.00">iostream</text>
</g>
<!-- Node3&#45;&gt;Node7 -->
<g id="edge7" class="edge"><title>Node3&#45;&gt;Node7</title>
<path fill="none" stroke="midnightblue" d="M307.613,-110.45C275.252,-101.278 222.235,-86.2522 186.503,-76.1249"/>
<polygon fill="midnightblue" stroke="midnightblue" points="187.038,-72.6389 176.463,-73.2794 185.129,-79.3737 187.038,-72.6389"/>
</g>
<!-- Node8 -->
<g id="node9" class="node"><title>Node8</title>
<polygon fill="none" stroke="#bfbfbf" points="194.396,-55.5 194.396,-73.5 247.633,-73.5 247.633,-55.5 194.396,-55.5"/>
<text text-anchor="middle" x="221.015" y="-61.5" font-family="Helvetica,sans-Serif" font-size="10.00">complex</text>
</g>
<!-- Node3&#45;&gt;Node8 -->
<g id="edge8" class="edge"><title>Node3&#45;&gt;Node8</title>
<path fill="none" stroke="midnightblue" d="M318.549,-110.45C299.805,-101.812 269.793,-87.9803 248.006,-77.9396"/>
<polygon fill="midnightblue" stroke="midnightblue" points="249.192,-74.6323 238.645,-73.6253 246.262,-80.9896 249.192,-74.6323"/>
</g>
<!-- Node9 -->
<g id="node10" class="node"><title>Node9</title>
<polygon fill="none" stroke="#bfbfbf" points="265.948,-55.5 265.948,-73.5 328.081,-73.5 328.081,-55.5 265.948,-55.5"/>
<text text-anchor="middle" x="297.015" y="-61.5" font-family="Helvetica,sans-Serif" font-size="10.00">type_traits</text>
</g>
<!-- Node3&#45;&gt;Node9 -->
<g id="edge9" class="edge"><title>Node3&#45;&gt;Node9</title>
<path fill="none" stroke="midnightblue" d="M329.921,-110.219C324.336,-102.629 315.908,-91.1753 308.979,-81.7597"/>
<polygon fill="midnightblue" stroke="midnightblue" points="311.684,-79.5296 302.938,-73.5496 306.046,-83.6784 311.684,-79.5296"/>
</g>
<!-- Node10 -->
<g id="node11" class="node"><title>Node10</title>
<polygon fill="none" stroke="#bfbfbf" points="345.611,-55.5 345.611,-73.5 404.418,-73.5 404.418,-55.5 345.611,-55.5"/>
<text text-anchor="middle" x="375.015" y="-61.5" font-family="Helvetica,sans-Serif" font-size="10.00">exception</text>
</g>
<!-- Node3&#45;&gt;Node10 -->
<g id="edge10" class="edge"><title>Node3&#45;&gt;Node10</title>
<path fill="none" stroke="midnightblue" d="M342.108,-110.219C347.693,-102.629 356.122,-91.1753 363.05,-81.7597"/>
<polygon fill="midnightblue" stroke="midnightblue" points="365.984,-83.6784 369.091,-73.5496 360.346,-79.5296 365.984,-83.6784"/>
</g>
<!-- Node11 -->
<g id="node12" class="node"><title>Node11</title>
<polygon fill="none" stroke="#bfbfbf" points="422.613,-55.5 422.613,-73.5 481.416,-73.5 481.416,-55.5 422.613,-55.5"/>
<text text-anchor="middle" x="452.015" y="-61.5" font-family="Helvetica,sans-Serif" font-size="10.00">stdexcept</text>
</g>
<!-- Node3&#45;&gt;Node11 -->
<g id="edge11" class="edge"><title>Node3&#45;&gt;Node11</title>
<path fill="none" stroke="midnightblue" d="M353.633,-110.45C372.625,-101.773 403.085,-87.8556 425.085,-77.8041"/>
<polygon fill="midnightblue" stroke="midnightblue" points="426.59,-80.9646 434.231,-73.6253 423.681,-74.5977 426.59,-80.9646"/>
</g>
<!-- Node12 -->
<g id="node13" class="node"><title>Node12</title>
<g id="a_node13"><a xlink:href="cxxdefs_8h.html" target="_top" xlink:title="Basic definitions, which may have to be defined before any Eigen headers or further utilities are inc...">
<polygon fill="none" stroke="black" points="499.205,-55.5 499.205,-73.5 640.825,-73.5 640.825,-55.5 499.205,-55.5"/>
<text text-anchor="middle" x="570.015" y="-61.5" font-family="Helvetica,sans-Serif" font-size="10.00">tomographer/tools/cxxdefs.h</text>
</a>
</g>
</g>
<!-- Node3&#45;&gt;Node12 -->
<g id="edge12" class="edge"><title>Node3&#45;&gt;Node12</title>
<path fill="none" stroke="midnightblue" d="M371.554,-110.45C412.476,-101.182 479.791,-85.9352 524.509,-75.8068"/>
<polygon fill="midnightblue" stroke="midnightblue" points="525.545,-79.1609 534.525,-73.5383 523.999,-72.3339 525.545,-79.1609"/>
</g>
<!-- Node14 -->
<g id="node15" class="node"><title>Node14</title>
<g id="a_node15"><a xlink:href="conststr_8h.html" target="_top" xlink:title="A constexpr string type, suitable for basic compile&#45;time string processing. ">
<polygon fill="none" stroke="black" points="734.924,-55.5 734.924,-73.5 877.105,-73.5 877.105,-55.5 734.924,-55.5"/>
<text text-anchor="middle" x="806.015" y="-61.5" font-family="Helvetica,sans-Serif" font-size="10.00">tomographer/tools/conststr.h</text>
</a>
</g>
</g>
<!-- Node3&#45;&gt;Node14 -->
<g id="edge17" class="edge"><title>Node3&#45;&gt;Node14</title>
<path fill="none" stroke="midnightblue" d="M403.855,-110.85C488.757,-101.276 634.015,-84.8958 724.761,-74.6626"/>
<polygon fill="midnightblue" stroke="midnightblue" points="725.186,-78.137 734.731,-73.5384 724.402,-71.1811 725.186,-78.137"/>
</g>
<!-- Node12&#45;&gt;Node4 -->
<g id="edge13" class="edge"><title>Node12&#45;&gt;Node4</title>
<path fill="none" stroke="midnightblue" d="M526.881,-55.4504C470.265,-44.8847 372.021,-26.5504 320.231,-16.8854"/>
<polygon fill="midnightblue" stroke="midnightblue" points="320.689,-13.4106 310.217,-15.0166 319.405,-20.2918 320.689,-13.4106"/>
</g>
<!-- Node12&#45;&gt;Node5 -->
<g id="edge14" class="edge"><title>Node12&#45;&gt;Node5</title>
<path fill="none" stroke="midnightblue" d="M581.102,-55.4504C592.357,-47.2788 610.013,-34.4604 623.594,-24.5996"/>
<polygon fill="midnightblue" stroke="midnightblue" points="625.787,-27.3327 631.823,-18.6253 621.675,-21.6682 625.787,-27.3327"/>
</g>
<!-- Node12&#45;&gt;Node6 -->
<g id="edge15" class="edge"><title>Node12&#45;&gt;Node6</title>
<path fill="none" stroke="midnightblue" d="M590.822,-55.4504C613.655,-46.6173 650.523,-32.3546 676.598,-22.267"/>
<polygon fill="midnightblue" stroke="midnightblue" points="677.948,-25.4977 686.011,-18.6253 675.422,-18.9692 677.948,-25.4977"/>
</g>
<!-- Node13 -->
<g id="node14" class="node"><title>Node13</title>
<polygon fill="none" stroke="#bfbfbf" points="521.047,-0.5 521.047,-18.5 600.982,-18.5 600.982,-0.5 521.047,-0.5"/>
<text text-anchor="middle" x="561.015" y="-6.5" font-family="Helvetica,sans-Serif" font-size="10.00">boost/predef.h</text>
</g>
<!-- Node12&#45;&gt;Node13 -->
<g id="edge16" class="edge"><title>Node12&#45;&gt;Node13</title>
<path fill="none" stroke="midnightblue" d="M568.608,-55.2188C567.399,-48.0986 565.613,-37.5775 564.076,-28.5289"/>
<polygon fill="midnightblue" stroke="midnightblue" points="567.506,-27.8224 562.382,-18.5496 560.605,-28.9944 567.506,-27.8224"/>
</g>
<!-- Node15 -->
<g id="node16" class="node"><title>Node15</title>
<polygon fill="none" stroke="#bfbfbf" points="785.788,-0.5 785.788,-18.5 826.241,-18.5 826.241,-0.5 785.788,-0.5"/>
<text text-anchor="middle" x="806.015" y="-6.5" font-family="Helvetica,sans-Serif" font-size="10.00">string</text>
</g>
<!-- Node14&#45;&gt;Node15 -->
<g id="edge18" class="edge"><title>Node14&#45;&gt;Node15</title>
<path fill="none" stroke="midnightblue" d="M806.015,-55.2188C806.015,-48.1769 806.015,-37.8083 806.015,-28.8277"/>
<polygon fill="midnightblue" stroke="midnightblue" points="809.515,-28.5495 806.015,-18.5496 802.515,-28.5496 809.515,-28.5495"/>
</g>
</g>
</svg>
