<?xml version="1.0" encoding="UTF-8" standalone="no"?>
<!DOCTYPE svg PUBLIC "-//W3C//DTD SVG 1.1//EN"
 "http://www.w3.org/Graphics/SVG/1.1/DTD/svg11.dtd">
<!-- Generated by graphviz version 2.38.0 (20140413.2041)
 -->
<!-- Title: tomographer/mathtools/random_unitary.h Pages: 1 -->
<!--zoomable 312 -->
<svg id="main" version="1.1" xmlns="http://www.w3.org/2000/svg" xmlns:xlink="http://www.w3.org/1999/xlink" xml:space="preserve" onload="init(evt)">
<style type="text/css"><![CDATA[
.edge:hover path { stroke: red; }
.edge:hover polygon { stroke: red; fill: red; }
]]></style>
<script type="text/javascript"><![CDATA[
var edges = document.getElementsByTagName('g');
if (edges && edges.length) {
  for (var i=0;i<edges.length;i++) {
    if (edges[i].id.substr(0,4)=='edge') {
      edges[i].setAttribute('class','edge');
    }
  }
}
]]></script>
        <defs>
                <circle id="rim" cx="0" cy="0" r="7"/>
                <circle id="rim2" cx="0" cy="0" r="3.5"/>
                <g id="zoomPlus">
                        <use xlink:href="#rim" fill="#404040">
                                <set attributeName="fill" to="#808080" begin="zoomplus.mouseover" end="zoomplus.mouseout"/>
                        </use>
                        <path d="M-4,0h8M0,-4v8" fill="none" stroke="white" stroke-width="1.5" pointer-events="none"/>
                </g>
                <g id="zoomMin">
                        <use xlink:href="#rim" fill="#404040">
                                <set attributeName="fill" to="#808080" begin="zoomminus.mouseover" end="zoomminus.mouseout"/>
                        </use>
                        <path d="M-4,0h8" fill="none" stroke="white" stroke-width="1.5" pointer-events="none"/>
                </g>
                <g id="dirArrow">
                        <path fill="none" stroke="white" stroke-width="1.5" d="M0,-3.0v7 M-2.5,-0.5L0,-3.0L2.5,-0.5"/>
                </g>
               <g id="resetDef">
                       <use xlink:href="#rim2" fill="#404040">
                               <set attributeName="fill" to="#808080" begin="reset.mouseover" end="reset.mouseout"/>
                       </use>
               </g>
        </defs>

<script type="text/javascript">
var viewWidth = 1380;
var viewHeight = 312;
var sectionId = 'dynsection-0';
</script>
<script xlink:href="svgpan.js"/>
<svg id="graph" class="graph">
<g id="viewport">
<title>tomographer/mathtools/random_unitary.h</title>
<!-- Node0 -->
<g id="node1" class="node"><title>Node0</title>
<polygon fill="#bfbfbf" stroke="black" points="517.599,-275.5 517.599,-303.5 636.431,-303.5 636.431,-275.5 517.599,-275.5"/>
<text text-anchor="start" x="525.599" y="-291.5" font-family="Helvetica,sans-Serif" font-size="10.00">tomographer/mathtools</text>
<text text-anchor="middle" x="577.015" y="-281.5" font-family="Helvetica,sans-Serif" font-size="10.00">/random_unitary.h</text>
</g>
<!-- Node1 -->
<g id="node2" class="node"><title>Node1</title>
<polygon fill="none" stroke="#bfbfbf" points="1054.84,-55.5 1054.84,-73.5 1109.19,-73.5 1109.19,-55.5 1054.84,-55.5"/>
<text text-anchor="middle" x="1082.01" y="-61.5" font-family="Helvetica,sans-Serif" font-size="10.00">iostream</text>
</g>
<!-- Node0&#45;&gt;Node1 -->
<g id="edge1" class="edge"><title>Node0&#45;&gt;Node1</title>
<path fill="none" stroke="midnightblue" d="M636.543,-288.504C784.066,-287.116 1160.2,-274.583 1237.01,-184 1277.92,-135.766 1176.72,-94.8591 1118.93,-76.2461"/>
<polygon fill="midnightblue" stroke="midnightblue" points="1119.96,-72.9018 1109.38,-73.2425 1117.87,-79.5798 1119.96,-72.9018"/>
</g>
<!-- Node2 -->
<g id="node3" class="node"><title>Node2</title>
<polygon fill="none" stroke="#bfbfbf" points="1322.06,-220.5 1322.06,-238.5 1371.97,-238.5 1371.97,-220.5 1322.06,-220.5"/>
<text text-anchor="middle" x="1347.01" y="-226.5" font-family="Helvetica,sans-Serif" font-size="10.00">random</text>
</g>
<!-- Node0&#45;&gt;Node2 -->
<g id="edge2" class="edge"><title>Node0&#45;&gt;Node2</title>
<path fill="none" stroke="midnightblue" d="M636.543,-287.429C761.535,-284.53 1060.24,-274.196 1308.01,-239 1309.29,-238.819 1310.58,-238.62 1311.89,-238.406"/>
<polygon fill="midnightblue" stroke="midnightblue" points="1312.75,-241.805 1321.94,-236.533 1311.47,-234.924 1312.75,-241.805"/>
</g>
<!-- Node3 -->
<g id="node4" class="node"><title>Node3</title>
<polygon fill="none" stroke="#bfbfbf" points="0,-55.5 0,-73.5 66.0293,-73.5 66.0293,-55.5 0,-55.5"/>
<text text-anchor="middle" x="33.0146" y="-61.5" font-family="Helvetica,sans-Serif" font-size="10.00">Eigen/Core</text>
</g>
<!-- Node0&#45;&gt;Node3 -->
<g id="edge3" class="edge"><title>Node0&#45;&gt;Node3</title>
<path fill="none" stroke="midnightblue" d="M517.355,-281.289C405.241,-266.795 168.408,-231.418 102.015,-184 66.9254,-158.94 46.9485,-110.021 38.2645,-83.55"/>
<polygon fill="midnightblue" stroke="midnightblue" points="41.5212,-82.2341 35.2231,-73.7144 34.8336,-84.3021 41.5212,-82.2341"/>
</g>
<!-- Node4 -->
<g id="node5" class="node"><title>Node4</title>
<g id="a_node5"><a xlink:href="eigenutil_8h.html" target="_top" xlink:title="Basic utilities for dealing with Eigen matrices and other types. ">
<polygon fill="none" stroke="black" points="110.53,-165.5 110.53,-183.5 255.5,-183.5 255.5,-165.5 110.53,-165.5"/>
<text text-anchor="middle" x="183.015" y="-171.5" font-family="Helvetica,sans-Serif" font-size="10.00">tomographer/tools/eigenutil.h</text>
</a>
</g>
</g>
<!-- Node0&#45;&gt;Node4 -->
<g id="edge4" class="edge"><title>Node0&#45;&gt;Node4</title>
<path fill="none" stroke="midnightblue" d="M517.371,-281.754C463.531,-274.607 382.628,-261.223 315.015,-239 274.955,-225.833 231.411,-203.082 205.703,-188.687"/>
<polygon fill="midnightblue" stroke="midnightblue" points="207.192,-185.508 196.768,-183.616 203.737,-191.596 207.192,-185.508"/>
</g>
<!-- Node9 -->
<g id="node10" class="node"><title>Node9</title>
<g id="a_node10"><a xlink:href="loggers_8h.html" target="_top" xlink:title="Utilities for logging messages. ">
<polygon fill="none" stroke="black" points="755.756,-220.5 755.756,-238.5 896.273,-238.5 896.273,-220.5 755.756,-220.5"/>
<text text-anchor="middle" x="826.015" y="-226.5" font-family="Helvetica,sans-Serif" font-size="10.00">tomographer/tools/loggers.h</text>
</a>
</g>
</g>
<!-- Node0&#45;&gt;Node9 -->
<g id="edge10" class="edge"><title>Node0&#45;&gt;Node9</title>
<path fill="none" stroke="midnightblue" d="M632.895,-275.484C677.8,-265.024 740.026,-250.53 781.582,-240.85"/>
<polygon fill="midnightblue" stroke="midnightblue" points="782.473,-244.236 791.418,-238.559 780.885,-237.419 782.473,-244.236"/>
</g>
<!-- Node27 -->
<g id="node28" class="node"><title>Node27</title>
<g id="a_node28"><a xlink:href="cxxutil_8h.html" target="_top" xlink:title="Some C++ utilities, with a tad of C++11 tricks. ">
<polygon fill="none" stroke="black" points="395.264,-110.5 395.264,-128.5 530.766,-128.5 530.766,-110.5 395.264,-110.5"/>
<text text-anchor="middle" x="463.015" y="-116.5" font-family="Helvetica,sans-Serif" font-size="10.00">tomographer/tools/cxxutil.h</text>
</a>
</g>
</g>
<!-- Node0&#45;&gt;Node27 -->
<g id="edge50" class="edge"><title>Node0&#45;&gt;Node27</title>
<path fill="none" stroke="midnightblue" d="M525.415,-275.477C480.782,-261.181 418.998,-233.399 390.015,-184 377.126,-162.032 405.115,-143.81 430.08,-132.604"/>
<polygon fill="midnightblue" stroke="midnightblue" points="431.561,-135.778 439.408,-128.659 428.834,-129.33 431.561,-135.778"/>
</g>
<!-- Node4&#45;&gt;Node3 -->
<g id="edge7" class="edge"><title>Node4&#45;&gt;Node3</title>
<path fill="none" stroke="midnightblue" d="M156.056,-165.497C134.761,-158.28 105.061,-146.154 83.0146,-129 66.2787,-115.978 51.8777,-96.2013 42.8872,-82.1831"/>
<polygon fill="midnightblue" stroke="midnightblue" points="45.7929,-80.2269 37.5652,-73.5519 39.8345,-83.9009 45.7929,-80.2269"/>
</g>
<!-- Node5 -->
<g id="node6" class="node"><title>Node5</title>
<polygon fill="none" stroke="#bfbfbf" points="115.396,-55.5 115.396,-73.5 168.633,-73.5 168.633,-55.5 115.396,-55.5"/>
<text text-anchor="middle" x="142.015" y="-61.5" font-family="Helvetica,sans-Serif" font-size="10.00">complex</text>
</g>
<!-- Node4&#45;&gt;Node5 -->
<g id="edge5" class="edge"><title>Node4&#45;&gt;Node5</title>
<path fill="none" stroke="midnightblue" d="M144.726,-165.49C124.754,-159.159 102.037,-148.081 90.0146,-129 78.3422,-110.475 99.4182,-91.3102 118.134,-78.9482"/>
<polygon fill="midnightblue" stroke="midnightblue" points="120.065,-81.8691 126.709,-73.6163 116.368,-75.9246 120.065,-81.8691"/>
</g>
<!-- Node6 -->
<g id="node7" class="node"><title>Node6</title>
<polygon fill="none" stroke="#bfbfbf" points="295.399,-110.5 295.399,-128.5 338.63,-128.5 338.63,-110.5 295.399,-110.5"/>
<text text-anchor="middle" x="317.015" y="-116.5" font-family="Helvetica,sans-Serif" font-size="10.00">vector</text>
</g>
<!-- Node4&#45;&gt;Node6 -->
<g id="edge6" class="edge"><title>Node4&#45;&gt;Node6</title>
<path fill="none" stroke="midnightblue" d="M203.366,-165.45C225.601,-156.656 261.442,-142.48 286.926,-132.401"/>
<polygon fill="midnightblue" stroke="midnightblue" points="288.46,-135.558 296.471,-128.625 285.885,-129.049 288.46,-135.558"/>
</g>
<!-- Node7 -->
<g id="node8" class="node"><title>Node7</title>
<polygon fill="none" stroke="#bfbfbf" points="99.3843,-110.5 99.3843,-128.5 172.645,-128.5 172.645,-110.5 99.3843,-110.5"/>
<text text-anchor="middle" x="136.015" y="-116.5" font-family="Helvetica,sans-Serif" font-size="10.00">Eigen/Dense</text>
</g>
<!-- Node4&#45;&gt;Node7 -->
<g id="edge8" class="edge"><title>Node4&#45;&gt;Node7</title>
<path fill="none" stroke="midnightblue" d="M175.671,-165.219C168.802,-157.473 158.363,-145.701 149.919,-136.18"/>
<polygon fill="midnightblue" stroke="midnightblue" points="152.407,-133.709 143.153,-128.55 147.169,-138.354 152.407,-133.709"/>
</g>
<!-- Node8 -->
<g id="node9" class="node"><title>Node8</title>
<polygon fill="none" stroke="#bfbfbf" points="190.155,-110.5 190.155,-128.5 277.874,-128.5 277.874,-110.5 190.155,-110.5"/>
<text text-anchor="middle" x="234.015" y="-116.5" font-family="Helvetica,sans-Serif" font-size="10.00">Eigen/StdVector</text>
</g>
<!-- Node4&#45;&gt;Node8 -->
<g id="edge9" class="edge"><title>Node4&#45;&gt;Node8</title>
<path fill="none" stroke="midnightblue" d="M190.983,-165.219C198.512,-157.394 209.994,-145.463 219.203,-135.892"/>
<polygon fill="midnightblue" stroke="midnightblue" points="221.857,-138.182 226.269,-128.55 216.813,-133.328 221.857,-138.182"/>
</g>
<!-- Node9&#45;&gt;Node1 -->
<g id="edge15" class="edge"><title>Node9&#45;&gt;Node1</title>
<path fill="none" stroke="midnightblue" d="M896.473,-226.528C973.011,-222.926 1088.7,-212.749 1121.01,-184 1146.09,-161.693 1150.33,-140.35 1136.01,-110 1129.88,-96.9958 1117.88,-86.5041 1106.74,-78.9813"/>
<polygon fill="midnightblue" stroke="midnightblue" points="1108.46,-75.9282 1098.12,-73.5935 1104.75,-81.8632 1108.46,-75.9282"/>
</g>
<!-- Node10 -->
<g id="node11" class="node"><title>Node10</title>
<polygon fill="none" stroke="#bfbfbf" points="999.953,-110.5 999.953,-128.5 1042.08,-128.5 1042.08,-110.5 999.953,-110.5"/>
<text text-anchor="middle" x="1021.01" y="-116.5" font-family="Helvetica,sans-Serif" font-size="10.00">cstdio</text>
</g>
<!-- Node9&#45;&gt;Node10 -->
<g id="edge11" class="edge"><title>Node9&#45;&gt;Node10</title>
<path fill="none" stroke="midnightblue" d="M840.671,-220.382C874.209,-201.808 956.775,-156.079 997.51,-133.518"/>
<polygon fill="midnightblue" stroke="midnightblue" points="999.402,-136.471 1006.45,-128.564 996.01,-130.348 999.402,-136.471"/>
</g>
<!-- Node11 -->
<g id="node12" class="node"><title>Node11</title>
<polygon fill="none" stroke="#bfbfbf" points="1059.62,-110.5 1059.62,-128.5 1108.41,-128.5 1108.41,-110.5 1059.62,-110.5"/>
<text text-anchor="middle" x="1084.01" y="-116.5" font-family="Helvetica,sans-Serif" font-size="10.00">cstdarg</text>
</g>
<!-- Node9&#45;&gt;Node11 -->
<g id="edge12" class="edge"><title>Node9&#45;&gt;Node11</title>
<path fill="none" stroke="midnightblue" d="M846.737,-220.496C869.279,-211.736 906.333,-197.18 938.015,-184 979.745,-166.64 1027.73,-145.55 1056.96,-132.578"/>
<polygon fill="midnightblue" stroke="midnightblue" points="1058.4,-135.768 1066.11,-128.507 1055.55,-129.371 1058.4,-135.768"/>
</g>
<!-- Node12 -->
<g id="node13" class="node"><title>Node12</title>
<polygon fill="none" stroke="#bfbfbf" points="913.788,-0.5 913.788,-18.5 954.241,-18.5 954.241,-0.5 913.788,-0.5"/>
<text text-anchor="middle" x="934.015" y="-6.5" font-family="Helvetica,sans-Serif" font-size="10.00">string</text>
</g>
<!-- Node9&#45;&gt;Node12 -->
<g id="edge13" class="edge"><title>Node9&#45;&gt;Node12</title>
<path fill="none" stroke="midnightblue" d="M896.398,-225.909C1007.86,-221.074 1214.72,-208.836 1237.01,-184 1323.18,-88.0039 1056.73,-31.7173 964.35,-15.4539"/>
<polygon fill="midnightblue" stroke="midnightblue" points="964.924,-12.0013 954.475,-13.7519 963.735,-18.8996 964.924,-12.0013"/>
</g>
<!-- Node13 -->
<g id="node14" class="node"><title>Node13</title>
<polygon fill="none" stroke="#bfbfbf" points="587.234,-110.5 587.234,-128.5 638.795,-128.5 638.795,-110.5 587.234,-110.5"/>
<text text-anchor="middle" x="613.015" y="-116.5" font-family="Helvetica,sans-Serif" font-size="10.00">sstream</text>
</g>
<!-- Node9&#45;&gt;Node13 -->
<g id="edge14" class="edge"><title>Node9&#45;&gt;Node13</title>
<path fill="none" stroke="midnightblue" d="M807.804,-220.472C788.373,-211.809 756.77,-197.445 730.015,-184 696.982,-167.401 659.549,-146.753 636.112,-133.597"/>
<polygon fill="midnightblue" stroke="midnightblue" points="637.701,-130.475 627.27,-128.616 634.265,-136.573 637.701,-130.475"/>
</g>
<!-- Node14 -->
<g id="node15" class="node"><title>Node14</title>
<polygon fill="none" stroke="#bfbfbf" points="656.611,-110.5 656.611,-128.5 715.418,-128.5 715.418,-110.5 656.611,-110.5"/>
<text text-anchor="middle" x="686.015" y="-116.5" font-family="Helvetica,sans-Serif" font-size="10.00">functional</text>
</g>
<!-- Node9&#45;&gt;Node14 -->
<g id="edge16" class="edge"><title>Node9&#45;&gt;Node14</title>
<path fill="none" stroke="midnightblue" d="M811.866,-220.472C797.384,-212.035 774.451,-198.059 756.015,-184 736.165,-168.863 715.185,-149.29 701.429,-135.9"/>
<polygon fill="midnightblue" stroke="midnightblue" points="703.81,-133.332 694.228,-128.811 698.899,-138.321 703.81,-133.332"/>
</g>
<!-- Node15 -->
<g id="node16" class="node"><title>Node15</title>
<polygon fill="none" stroke="#bfbfbf" points="643.948,-55.5 643.948,-73.5 706.081,-73.5 706.081,-55.5 643.948,-55.5"/>
<text text-anchor="middle" x="675.015" y="-61.5" font-family="Helvetica,sans-Serif" font-size="10.00">type_traits</text>
</g>
<!-- Node9&#45;&gt;Node15 -->
<g id="edge17" class="edge"><title>Node9&#45;&gt;Node15</title>
<path fill="none" stroke="midnightblue" d="M755.577,-222.272C696.355,-212.81 615.529,-188.982 578.015,-129 561.452,-102.518 600.612,-84.8086 634.025,-74.9669"/>
<polygon fill="midnightblue" stroke="midnightblue" points="634.994,-78.3303 643.693,-72.2816 633.121,-71.5856 634.994,-78.3303"/>
</g>
<!-- Node16 -->
<g id="node17" class="node"><title>Node16</title>
<polygon fill="none" stroke="#bfbfbf" points="1192.29,-165.5 1192.29,-183.5 1227.74,-183.5 1227.74,-165.5 1192.29,-165.5"/>
<text text-anchor="middle" x="1210.01" y="-171.5" font-family="Helvetica,sans-Serif" font-size="10.00">map</text>
</g>
<!-- Node9&#45;&gt;Node16 -->
<g id="edge18" class="edge"><title>Node9&#45;&gt;Node16</title>
<path fill="none" stroke="midnightblue" d="M896.581,-222.382C967.966,-215.538 1081.28,-202.874 1178.01,-184 1179.46,-183.718 1180.94,-183.407 1182.42,-183.076"/>
<polygon fill="midnightblue" stroke="midnightblue" points="1183.29,-186.468 1192.17,-180.691 1181.63,-179.668 1183.29,-186.468"/>
</g>
<!-- Node17 -->
<g id="node18" class="node"><title>Node17</title>
<polygon fill="none" stroke="#bfbfbf" points="399.483,-165.5 399.483,-183.5 530.546,-183.5 530.546,-165.5 399.483,-165.5"/>
<text text-anchor="middle" x="465.015" y="-171.5" font-family="Helvetica,sans-Serif" font-size="10.00">boost/algorithm/string.hpp</text>
</g>
<!-- Node9&#45;&gt;Node17 -->
<g id="edge19" class="edge"><title>Node9&#45;&gt;Node17</title>
<path fill="none" stroke="midnightblue" d="M771.187,-220.45C706.46,-210.948 598.932,-195.161 530.057,-185.049"/>
<polygon fill="midnightblue" stroke="midnightblue" points="530.169,-181.528 519.766,-183.538 529.152,-188.454 530.169,-181.528"/>
</g>
<!-- Node18 -->
<g id="node19" class="node"><title>Node18</title>
<g id="a_node19"><a xlink:href="cxxdefs_8h.html" target="_top" xlink:title="Basic definitions, which may have to be defined before any Eigen headers or further utilities are inc...">
<polygon fill="none" stroke="black" points="255.205,-55.5 255.205,-73.5 396.825,-73.5 396.825,-55.5 255.205,-55.5"/>
<text text-anchor="middle" x="326.015" y="-61.5" font-family="Helvetica,sans-Serif" font-size="10.00">tomographer/tools/cxxdefs.h</text>
</a>
</g>
</g>
<!-- Node9&#45;&gt;Node18 -->
<g id="edge20" class="edge"><title>Node9&#45;&gt;Node18</title>
<path fill="none" stroke="midnightblue" d="M755.325,-229.142C647.458,-228.835 448.154,-222.815 390.015,-184 385.321,-180.866 351.294,-115.037 334.857,-82.8778"/>
<polygon fill="midnightblue" stroke="midnightblue" points="337.858,-81.0601 330.197,-73.7418 331.623,-84.2403 337.858,-81.0601"/>
</g>
<!-- Node23 -->
<g id="node24" class="node"><title>Node23</title>
<g id="a_node24"><a xlink:href="fmt_8h.html" target="_top" xlink:title="Utilities for formatting strings. ">
<polygon fill="none" stroke="black" points="765.212,-165.5 765.212,-183.5 886.817,-183.5 886.817,-165.5 765.212,-165.5"/>
<text text-anchor="middle" x="826.015" y="-171.5" font-family="Helvetica,sans-Serif" font-size="10.00">tomographer/tools/fmt.h</text>
</a>
</g>
</g>
<!-- Node9&#45;&gt;Node23 -->
<g id="edge25" class="edge"><title>Node9&#45;&gt;Node23</title>
<path fill="none" stroke="midnightblue" d="M826.015,-220.219C826.015,-213.177 826.015,-202.808 826.015,-193.828"/>
<polygon fill="midnightblue" stroke="midnightblue" points="829.515,-193.55 826.015,-183.55 822.515,-193.55 829.515,-193.55"/>
</g>
<!-- Node30 -->
<g id="node31" class="node"><title>Node30</title>
<g id="a_node31"><a xlink:href="conststr_8h.html" target="_top" xlink:title="A constexpr string type, suitable for basic compile&#45;time string processing. ">
<polygon fill="none" stroke="black" points="763.924,-55.5 763.924,-73.5 906.105,-73.5 906.105,-55.5 763.924,-55.5"/>
<text text-anchor="middle" x="835.015" y="-61.5" font-family="Helvetica,sans-Serif" font-size="10.00">tomographer/tools/conststr.h</text>
</a>
</g>
</g>
<!-- Node9&#45;&gt;Node30 -->
<g id="edge49" class="edge"><title>Node9&#45;&gt;Node30</title>
<path fill="none" stroke="midnightblue" d="M896.307,-223.876C1001.9,-214.364 1182.49,-186.615 1117.01,-110 1091.6,-80.2657 990.342,-70.2806 916.412,-66.9951"/>
<polygon fill="midnightblue" stroke="midnightblue" points="916.308,-63.488 906.172,-66.5746 916.02,-70.4821 916.308,-63.488"/>
</g>
<!-- Node19 -->
<g id="node20" class="node"><title>Node19</title>
<polygon fill="none" stroke="#bfbfbf" points="207.899,-0.5 207.899,-18.5 256.13,-18.5 256.13,-0.5 207.899,-0.5"/>
<text text-anchor="middle" x="232.015" y="-6.5" font-family="Helvetica,sans-Serif" font-size="10.00">cassert</text>
</g>
<!-- Node18&#45;&gt;Node19 -->
<g id="edge21" class="edge"><title>Node18&#45;&gt;Node19</title>
<path fill="none" stroke="midnightblue" d="M311.738,-55.4504C296.831,-47.0453 273.205,-33.7241 255.536,-23.7618"/>
<polygon fill="midnightblue" stroke="midnightblue" points="256.855,-20.488 246.426,-18.6253 253.417,-26.5856 256.855,-20.488"/>
</g>
<!-- Node20 -->
<g id="node21" class="node"><title>Node20</title>
<polygon fill="none" stroke="#bfbfbf" points="438.894,-0.5 438.894,-18.5 487.135,-18.5 487.135,-0.5 438.894,-0.5"/>
<text text-anchor="middle" x="463.015" y="-6.5" font-family="Helvetica,sans-Serif" font-size="10.00">cstddef</text>
</g>
<!-- Node18&#45;&gt;Node20 -->
<g id="edge22" class="edge"><title>Node18&#45;&gt;Node20</title>
<path fill="none" stroke="midnightblue" d="M346.822,-55.4504C369.655,-46.6173 406.523,-32.3546 432.598,-22.267"/>
<polygon fill="midnightblue" stroke="midnightblue" points="433.948,-25.4977 442.011,-18.6253 431.422,-18.9692 433.948,-25.4977"/>
</g>
<!-- Node21 -->
<g id="node22" class="node"><title>Node21</title>
<polygon fill="none" stroke="#bfbfbf" points="376.842,-0.5 376.842,-18.5 421.187,-18.5 421.187,-0.5 376.842,-0.5"/>
<text text-anchor="middle" x="399.015" y="-6.5" font-family="Helvetica,sans-Serif" font-size="10.00">cstdlib</text>
</g>
<!-- Node18&#45;&gt;Node21 -->
<g id="edge23" class="edge"><title>Node18&#45;&gt;Node21</title>
<path fill="none" stroke="midnightblue" d="M337.102,-55.4504C348.357,-47.2788 366.013,-34.4604 379.594,-24.5996"/>
<polygon fill="midnightblue" stroke="midnightblue" points="381.787,-27.3327 387.823,-18.6253 377.675,-21.6682 381.787,-27.3327"/>
</g>
<!-- Node22 -->
<g id="node23" class="node"><title>Node22</title>
<polygon fill="none" stroke="#bfbfbf" points="279.047,-0.5 279.047,-18.5 358.982,-18.5 358.982,-0.5 279.047,-0.5"/>
<text text-anchor="middle" x="319.015" y="-6.5" font-family="Helvetica,sans-Serif" font-size="10.00">boost/predef.h</text>
</g>
<!-- Node18&#45;&gt;Node22 -->
<g id="edge24" class="edge"><title>Node18&#45;&gt;Node22</title>
<path fill="none" stroke="midnightblue" d="M324.921,-55.2188C323.981,-48.0986 322.591,-37.5775 321.396,-28.5289"/>
<polygon fill="midnightblue" stroke="midnightblue" points="324.857,-28.0052 320.078,-18.5496 317.917,-28.9218 324.857,-28.0052"/>
</g>
<!-- Node23&#45;&gt;Node1 -->
<g id="edge31" class="edge"><title>Node23&#45;&gt;Node1</title>
<path fill="none" stroke="midnightblue" d="M850.113,-165.45C874.907,-156.996 914.527,-143.006 948.015,-129 986.724,-112.81 1030.46,-91.4961 1057.13,-78.1453"/>
<polygon fill="midnightblue" stroke="midnightblue" points="1058.78,-81.2317 1066.14,-73.611 1055.64,-74.9784 1058.78,-81.2317"/>
</g>
<!-- Node23&#45;&gt;Node6 -->
<g id="edge33" class="edge"><title>Node23&#45;&gt;Node6</title>
<path fill="none" stroke="midnightblue" d="M765.115,-167.764C680.154,-159.664 521.257,-144.167 386.015,-129 373.893,-127.641 360.588,-126.03 348.924,-124.578"/>
<polygon fill="midnightblue" stroke="midnightblue" points="349.112,-121.074 338.754,-123.301 348.24,-128.02 349.112,-121.074"/>
</g>
<!-- Node23&#45;&gt;Node10 -->
<g id="edge26" class="edge"><title>Node23&#45;&gt;Node10</title>
<path fill="none" stroke="midnightblue" d="M855.631,-165.45C891.957,-155.577 953.24,-138.921 990.134,-128.893"/>
<polygon fill="midnightblue" stroke="midnightblue" points="991.12,-132.252 999.852,-126.252 989.284,-125.497 991.12,-132.252"/>
</g>
<!-- Node23&#45;&gt;Node11 -->
<g id="edge27" class="edge"><title>Node23&#45;&gt;Node11</title>
<path fill="none" stroke="midnightblue" d="M870.572,-165.46C913.946,-157.462 981.949,-144.467 1049.57,-129.232"/>
<polygon fill="midnightblue" stroke="midnightblue" points="1050.57,-132.595 1059.54,-126.968 1049.02,-125.769 1050.57,-132.595"/>
</g>
<!-- Node23&#45;&gt;Node12 -->
<g id="edge29" class="edge"><title>Node23&#45;&gt;Node12</title>
<path fill="none" stroke="midnightblue" d="M858.495,-165.382C877.93,-158.811 901.422,-147.524 915.015,-129 936.83,-99.272 937.563,-54.0153 935.937,-28.9068"/>
<polygon fill="midnightblue" stroke="midnightblue" points="939.399,-28.3017 935.062,-18.6351 932.424,-28.8963 939.399,-28.3017"/>
</g>
<!-- Node23&#45;&gt;Node13 -->
<g id="edge30" class="edge"><title>Node23&#45;&gt;Node13</title>
<path fill="none" stroke="midnightblue" d="M793.665,-165.45C754.612,-155.733 689.152,-139.445 648.674,-129.373"/>
<polygon fill="midnightblue" stroke="midnightblue" points="649.502,-125.972 638.953,-126.954 647.812,-132.765 649.502,-125.972"/>
</g>
<!-- Node23&#45;&gt;Node14 -->
<g id="edge35" class="edge"><title>Node23&#45;&gt;Node14</title>
<path fill="none" stroke="midnightblue" d="M804.752,-165.45C781.419,-156.617 743.744,-142.355 717.097,-132.267"/>
<polygon fill="midnightblue" stroke="midnightblue" points="718.069,-128.893 707.478,-128.625 715.591,-135.439 718.069,-128.893"/>
</g>
<!-- Node24 -->
<g id="node25" class="node"><title>Node24</title>
<polygon fill="none" stroke="#bfbfbf" points="802.727,-110.5 802.727,-128.5 849.303,-128.5 849.303,-110.5 802.727,-110.5"/>
<text text-anchor="middle" x="826.015" y="-116.5" font-family="Helvetica,sans-Serif" font-size="10.00">chrono</text>
</g>
<!-- Node23&#45;&gt;Node24 -->
<g id="edge28" class="edge"><title>Node23&#45;&gt;Node24</title>
<path fill="none" stroke="midnightblue" d="M826.015,-165.219C826.015,-158.177 826.015,-147.808 826.015,-138.828"/>
<polygon fill="midnightblue" stroke="midnightblue" points="829.515,-138.55 826.015,-128.55 822.515,-138.55 829.515,-138.55"/>
</g>
<!-- Node25 -->
<g id="node26" class="node"><title>Node25</title>
<polygon fill="none" stroke="#bfbfbf" points="867.623,-110.5 867.623,-128.5 906.406,-128.5 906.406,-110.5 867.623,-110.5"/>
<text text-anchor="middle" x="887.015" y="-116.5" font-family="Helvetica,sans-Serif" font-size="10.00">utility</text>
</g>
<!-- Node23&#45;&gt;Node25 -->
<g id="edge32" class="edge"><title>Node23&#45;&gt;Node25</title>
<path fill="none" stroke="midnightblue" d="M835.279,-165.45C844.416,-157.512 858.599,-145.189 869.806,-135.452"/>
<polygon fill="midnightblue" stroke="midnightblue" points="872.41,-137.826 877.663,-128.625 867.819,-132.542 872.41,-137.826"/>
</g>
<!-- Node26 -->
<g id="node27" class="node"><title>Node26</title>
<polygon fill="none" stroke="#bfbfbf" points="733.505,-110.5 733.505,-128.5 784.524,-128.5 784.524,-110.5 733.505,-110.5"/>
<text text-anchor="middle" x="759.015" y="-116.5" font-family="Helvetica,sans-Serif" font-size="10.00">iomanip</text>
</g>
<!-- Node23&#45;&gt;Node26 -->
<g id="edge34" class="edge"><title>Node23&#45;&gt;Node26</title>
<path fill="none" stroke="midnightblue" d="M815.839,-165.45C805.607,-157.357 789.612,-144.704 777.196,-134.882"/>
<polygon fill="midnightblue" stroke="midnightblue" points="779.301,-132.084 769.286,-128.625 774.958,-137.574 779.301,-132.084"/>
</g>
<!-- Node23&#45;&gt;Node27 -->
<g id="edge36" class="edge"><title>Node23&#45;&gt;Node27</title>
<path fill="none" stroke="midnightblue" d="M770.883,-165.45C705.664,-155.928 597.23,-140.096 527.991,-129.987"/>
<polygon fill="midnightblue" stroke="midnightblue" points="528.47,-126.52 518.069,-128.538 527.459,-133.446 528.47,-126.52"/>
</g>
<!-- Node27&#45;&gt;Node1 -->
<g id="edge40" class="edge"><title>Node27&#45;&gt;Node1</title>
<path fill="none" stroke="midnightblue" d="M531.029,-112.676C661.46,-101.509 942.814,-77.4186 1044.44,-68.7176"/>
<polygon fill="midnightblue" stroke="midnightblue" points="1044.87,-72.1933 1054.54,-67.8529 1044.27,-65.2188 1044.87,-72.1933"/>
</g>
<!-- Node27&#45;&gt;Node3 -->
<g id="edge48" class="edge"><title>Node27&#45;&gt;Node3</title>
<path fill="none" stroke="midnightblue" d="M397.707,-110.45C308.736,-99.4843 151.872,-80.1499 76.217,-70.8249"/>
<polygon fill="midnightblue" stroke="midnightblue" points="76.4493,-67.3272 66.0962,-69.5775 75.5929,-74.2746 76.4493,-67.3272"/>
</g>
<!-- Node27&#45;&gt;Node5 -->
<g id="edge41" class="edge"><title>Node27&#45;&gt;Node5</title>
<path fill="none" stroke="midnightblue" d="M414.262,-110.45C349.703,-99.7912 237.258,-81.2256 179.148,-71.631"/>
<polygon fill="midnightblue" stroke="midnightblue" points="179.39,-68.1237 168.953,-69.9478 178.25,-75.0302 179.39,-68.1237"/>
</g>
<!-- Node27&#45;&gt;Node15 -->
<g id="edge42" class="edge"><title>Node27&#45;&gt;Node15</title>
<path fill="none" stroke="midnightblue" d="M495.213,-110.45C532.373,-101.16 593.558,-85.8643 634.07,-75.7362"/>
<polygon fill="midnightblue" stroke="midnightblue" points="635.044,-79.1003 643.897,-73.2794 633.347,-72.3093 635.044,-79.1003"/>
</g>
<!-- Node27&#45;&gt;Node18 -->
<g id="edge45" class="edge"><title>Node27&#45;&gt;Node18</title>
<path fill="none" stroke="midnightblue" d="M442.207,-110.45C419.374,-101.617 382.507,-87.3546 356.431,-77.267"/>
<polygon fill="midnightblue" stroke="midnightblue" points="357.607,-73.9692 347.018,-73.6253 355.081,-80.4977 357.607,-73.9692"/>
</g>
<!-- Node27&#45;&gt;Node19 -->
<g id="edge37" class="edge"><title>Node27&#45;&gt;Node19</title>
<path fill="none" stroke="midnightblue" d="M395.254,-112.622C339.67,-106.395 266.868,-94.5481 246.015,-74 234.213,-62.371 231.342,-43.2049 231.04,-28.966"/>
<polygon fill="midnightblue" stroke="midnightblue" points="234.542,-28.9043 231.228,-18.8411 227.543,-28.7746 234.542,-28.9043"/>
</g>
<!-- Node27&#45;&gt;Node20 -->
<g id="edge38" class="edge"><title>Node27&#45;&gt;Node20</title>
<path fill="none" stroke="midnightblue" d="M463.015,-110.382C463.015,-93.1822 463.015,-52.698 463.015,-28.8866"/>
<polygon fill="midnightblue" stroke="midnightblue" points="466.515,-28.7117 463.015,-18.7118 459.515,-28.7118 466.515,-28.7117"/>
</g>
<!-- Node27&#45;&gt;Node21 -->
<g id="edge39" class="edge"><title>Node27&#45;&gt;Node21</title>
<path fill="none" stroke="midnightblue" d="M458.204,-110.382C447.826,-92.8695 423.144,-51.2181 409.151,-27.6045"/>
<polygon fill="midnightblue" stroke="midnightblue" points="411.99,-25.5304 403.881,-18.7118 405.968,-29.099 411.99,-25.5304"/>
</g>
<!-- Node28 -->
<g id="node29" class="node"><title>Node28</title>
<polygon fill="none" stroke="#bfbfbf" points="490.611,-55.5 490.611,-73.5 549.418,-73.5 549.418,-55.5 490.611,-55.5"/>
<text text-anchor="middle" x="520.015" y="-61.5" font-family="Helvetica,sans-Serif" font-size="10.00">exception</text>
</g>
<!-- Node27&#45;&gt;Node28 -->
<g id="edge43" class="edge"><title>Node27&#45;&gt;Node28</title>
<path fill="none" stroke="midnightblue" d="M471.921,-110.219C480.42,-102.316 493.425,-90.2241 503.769,-80.6057"/>
<polygon fill="midnightblue" stroke="midnightblue" points="506.418,-82.9222 511.358,-73.5496 501.651,-77.7958 506.418,-82.9222"/>
</g>
<!-- Node29 -->
<g id="node30" class="node"><title>Node29</title>
<polygon fill="none" stroke="#bfbfbf" points="567.613,-55.5 567.613,-73.5 626.416,-73.5 626.416,-55.5 567.613,-55.5"/>
<text text-anchor="middle" x="597.015" y="-61.5" font-family="Helvetica,sans-Serif" font-size="10.00">stdexcept</text>
</g>
<!-- Node27&#45;&gt;Node29 -->
<g id="edge44" class="edge"><title>Node27&#45;&gt;Node29</title>
<path fill="none" stroke="midnightblue" d="M483.366,-110.45C505.601,-101.656 541.442,-87.4802 566.926,-77.4006"/>
<polygon fill="midnightblue" stroke="midnightblue" points="568.46,-80.558 576.471,-73.6253 565.885,-74.0487 568.46,-80.558"/>
</g>
<!-- Node27&#45;&gt;Node30 -->
<g id="edge46" class="edge"><title>Node27&#45;&gt;Node30</title>
<path fill="none" stroke="midnightblue" d="M519.513,-110.45C586.349,-100.928 697.472,-85.0962 768.427,-74.9869"/>
<polygon fill="midnightblue" stroke="midnightblue" points="769.188,-78.4139 778.595,-73.5383 768.201,-71.4839 769.188,-78.4139"/>
</g>
<!-- Node30&#45;&gt;Node12 -->
<g id="edge47" class="edge"><title>Node30&#45;&gt;Node12</title>
<path fill="none" stroke="midnightblue" d="M850.051,-55.4504C865.969,-46.9286 891.327,-33.3532 910.014,-23.3487"/>
<polygon fill="midnightblue" stroke="midnightblue" points="911.673,-26.4308 918.837,-18.6253 908.369,-20.2595 911.673,-26.4308"/>
</g>
</g>
</svg>
        <g id="navigator" transform="translate(0 0)" fill="#404254">
                <rect fill="#f2f5e9" fill-opacity="0.5" stroke="#606060" stroke-width=".5" x="0" y="0" width="60" height="60"/>
                <use id="zoomplus" xlink:href="#zoomPlus" x="17" y="9" onmousedown="handleZoom(evt,'in')"/>
                <use id="zoomminus" xlink:href="#zoomMin" x="42" y="9" onmousedown="handleZoom(evt,'out')"/>
                <use id="reset" xlink:href="#resetDef" x="30" y="36" onmousedown="handleReset()"/>
                <g id="arrowUp" xlink:href="#dirArrow" transform="translate(30 24)" onmousedown="handlePan(0,-1)">
                  <use xlink:href="#rim" fill="#404040">
                        <set attributeName="fill" to="#808080" begin="arrowUp.mouseover" end="arrowUp.mouseout"/>
                  </use>
                  <path fill="none" stroke="white" stroke-width="1.5" d="M0,-3.0v7 M-2.5,-0.5L0,-3.0L2.5,-0.5"/>
                </g>
                <g id="arrowRight" xlink:href="#dirArrow" transform="rotate(90) translate(36 -43)" onmousedown="handlePan(1,0)">
                  <use xlink:href="#rim" fill="#404040">
                        <set attributeName="fill" to="#808080" begin="arrowRight.mouseover" end="arrowRight.mouseout"/>
                  </use>
                  <path fill="none" stroke="white" stroke-width="1.5" d="M0,-3.0v7 M-2.5,-0.5L0,-3.0L2.5,-0.5"/>
                </g>
                <g id="arrowDown" xlink:href="#dirArrow" transform="rotate(180) translate(-30 -48)" onmousedown="handlePan(0,1)">
                  <use xlink:href="#rim" fill="#404040">
                        <set attributeName="fill" to="#808080" begin="arrowDown.mouseover" end="arrowDown.mouseout"/>
                  </use>
                  <path fill="none" stroke="white" stroke-width="1.5" d="M0,-3.0v7 M-2.5,-0.5L0,-3.0L2.5,-0.5"/>
                </g>
                <g id="arrowLeft" xlink:href="#dirArrow" transform="rotate(270) translate(-36 17)" onmousedown="handlePan(-1,0)">
                  <use xlink:href="#rim" fill="#404040">
                        <set attributeName="fill" to="#808080" begin="arrowLeft.mouseover" end="arrowLeft.mouseout"/>
                  </use>
                  <path fill="none" stroke="white" stroke-width="1.5" d="M0,-3.0v7 M-2.5,-0.5L0,-3.0L2.5,-0.5"/>
                </g>
        </g>
        <svg viewBox="0 0 15 15" width="100%" height="30px" preserveAspectRatio="xMaxYMin meet">
         <g id="arrow_out" transform="scale(0.3 0.3)">
          <a xlink:href="random__unitary_8h__incl_org.svg" target="_base">
           <rect id="button" ry="5" rx="5" y="6" x="6" height="38" width="38"
                fill="#f2f5e9" fill-opacity="0.5" stroke="#606060" stroke-width="1.0"/>
           <path id="arrow"
             d="M 11.500037,31.436501 C 11.940474,20.09759 22.043105,11.32322 32.158766,21.979434 L 37.068811,17.246167 C 37.068811,17.246167 37.088388,32 37.088388,32 L 22.160133,31.978069 C 22.160133,31.978069 26.997745,27.140456 26.997745,27.140456 C 18.528582,18.264221 13.291696,25.230495 11.500037,31.436501 z"
             style="fill:#404040;"/>
          </a>
         </g>
        </svg>
</svg>
