<?xml version="1.0" encoding="UTF-8" standalone="no"?>
<!DOCTYPE svg PUBLIC "-//W3C//DTD SVG 1.1//EN"
 "http://www.w3.org/Graphics/SVG/1.1/DTD/svg11.dtd">
<!-- Generated by graphviz version 2.38.0 (20140413.2041)
 -->
<!-- Title: tomographer/mathtools/simple_find_zero.h Pages: 1 -->
<!--zoomable 312 -->
<svg id="main" version="1.1" xmlns="http://www.w3.org/2000/svg" xmlns:xlink="http://www.w3.org/1999/xlink" xml:space="preserve" onload="init(evt)">
<style type="text/css"><![CDATA[
.edge:hover path { stroke: red; }
.edge:hover polygon { stroke: red; fill: red; }
]]></style>
<script type="text/javascript"><![CDATA[
var edges = document.getElementsByTagName('g');
if (edges && edges.length) {
  for (var i=0;i<edges.length;i++) {
    if (edges[i].id.substr(0,4)=='edge') {
      edges[i].setAttribute('class','edge');
    }
  }
}
]]></script>
        <defs>
                <circle id="rim" cx="0" cy="0" r="7"/>
                <circle id="rim2" cx="0" cy="0" r="3.5"/>
                <g id="zoomPlus">
                        <use xlink:href="#rim" fill="#404040">
                                <set attributeName="fill" to="#808080" begin="zoomplus.mouseover" end="zoomplus.mouseout"/>
                        </use>
                        <path d="M-4,0h8M0,-4v8" fill="none" stroke="white" stroke-width="1.5" pointer-events="none"/>
                </g>
                <g id="zoomMin">
                        <use xlink:href="#rim" fill="#404040">
                                <set attributeName="fill" to="#808080" begin="zoomminus.mouseover" end="zoomminus.mouseout"/>
                        </use>
                        <path d="M-4,0h8" fill="none" stroke="white" stroke-width="1.5" pointer-events="none"/>
                </g>
                <g id="dirArrow">
                        <path fill="none" stroke="white" stroke-width="1.5" d="M0,-3.0v7 M-2.5,-0.5L0,-3.0L2.5,-0.5"/>
                </g>
               <g id="resetDef">
                       <use xlink:href="#rim2" fill="#404040">
                               <set attributeName="fill" to="#808080" begin="reset.mouseover" end="reset.mouseout"/>
                       </use>
               </g>
        </defs>

<script type="text/javascript">
var viewWidth = 1026;
var viewHeight = 312;
var sectionId = 'dynsection-0';
</script>
<script xlink:href="svgpan.js"/>
<svg id="graph" class="graph">
<g id="viewport">
<title>tomographer/mathtools/simple_find_zero.h</title>
<!-- Node0 -->
<g id="node1" class="node"><title>Node0</title>
<polygon fill="#bfbfbf" stroke="black" points="542.65,-275.5 542.65,-303.5 661.482,-303.5 661.482,-275.5 542.65,-275.5"/>
<text text-anchor="start" x="550.65" y="-291.5" font-family="Helvetica,sans-Serif" font-size="10.00">tomographer/mathtools</text>
<text text-anchor="middle" x="602.066" y="-281.5" font-family="Helvetica,sans-Serif" font-size="10.00">/simple_find_zero.h</text>
</g>
<!-- Node1 -->
<g id="node2" class="node"><title>Node1</title>
<polygon fill="none" stroke="#bfbfbf" points="416.451,-220.5 416.451,-238.5 459.682,-238.5 459.682,-220.5 416.451,-220.5"/>
<text text-anchor="middle" x="438.066" y="-226.5" font-family="Helvetica,sans-Serif" font-size="10.00">cmath</text>
</g>
<!-- Node0&#45;&gt;Node1 -->
<g id="edge1" class="edge"><title>Node0&#45;&gt;Node1</title>
<path fill="none" stroke="midnightblue" d="M565.262,-275.484C536.496,-265.311 496.94,-251.321 469.612,-241.656"/>
<polygon fill="midnightblue" stroke="midnightblue" points="470.735,-238.341 460.14,-238.307 468.401,-244.941 470.735,-238.341"/>
</g>
<!-- Node2 -->
<g id="node3" class="node"><title>Node2</title>
<polygon fill="none" stroke="#bfbfbf" points="962.005,-110.5 962.005,-128.5 1004.13,-128.5 1004.13,-110.5 962.005,-110.5"/>
<text text-anchor="middle" x="983.066" y="-116.5" font-family="Helvetica,sans-Serif" font-size="10.00">cstdio</text>
</g>
<!-- Node0&#45;&gt;Node2 -->
<g id="edge2" class="edge"><title>Node0&#45;&gt;Node2</title>
<path fill="none" stroke="midnightblue" d="M661.642,-279.236C754.706,-263.553 928.28,-229.033 970.066,-184 981.3,-171.894 983.926,-152.797 984.122,-138.705"/>
<polygon fill="midnightblue" stroke="midnightblue" points="987.62,-138.616 983.875,-128.705 980.623,-138.789 987.62,-138.616"/>
</g>
<!-- Node3 -->
<g id="node4" class="node"><title>Node3</title>
<polygon fill="none" stroke="#bfbfbf" points="636.68,-220.5 636.68,-238.5 675.453,-238.5 675.453,-220.5 636.68,-220.5"/>
<text text-anchor="middle" x="656.066" y="-226.5" font-family="Helvetica,sans-Serif" font-size="10.00">limits</text>
</g>
<!-- Node0&#45;&gt;Node3 -->
<g id="edge3" class="edge"><title>Node0&#45;&gt;Node3</title>
<path fill="none" stroke="midnightblue" d="M614.32,-275.339C622.407,-266.653 633.039,-255.233 641.55,-246.092"/>
<polygon fill="midnightblue" stroke="midnightblue" points="644.113,-248.475 648.365,-238.771 638.99,-243.705 644.113,-248.475"/>
</g>
<!-- Node4 -->
<g id="node5" class="node"><title>Node4</title>
<g id="a_node5"><a xlink:href="loggers_8h.html" target="_top" xlink:title="Utilities for logging messages. ">
<polygon fill="none" stroke="black" points="477.808,-220.5 477.808,-238.5 618.325,-238.5 618.325,-220.5 477.808,-220.5"/>
<text text-anchor="middle" x="548.066" y="-226.5" font-family="Helvetica,sans-Serif" font-size="10.00">tomographer/tools/loggers.h</text>
</a>
</g>
</g>
<!-- Node0&#45;&gt;Node4 -->
<g id="edge4" class="edge"><title>Node0&#45;&gt;Node4</title>
<path fill="none" stroke="midnightblue" d="M589.813,-275.339C581.726,-266.653 571.094,-255.233 562.583,-246.092"/>
<polygon fill="midnightblue" stroke="midnightblue" points="565.143,-243.705 555.767,-238.771 560.02,-248.475 565.143,-243.705"/>
</g>
<!-- Node4&#45;&gt;Node2 -->
<g id="edge5" class="edge"><title>Node4&#45;&gt;Node2</title>
<path fill="none" stroke="midnightblue" d="M618.75,-220.841C733.148,-208.418 946.366,-185.136 948.066,-184 963.902,-173.422 973.244,-153.171 978.237,-138.373"/>
<polygon fill="midnightblue" stroke="midnightblue" points="981.594,-139.363 981.135,-128.778 974.893,-137.339 981.594,-139.363"/>
</g>
<!-- Node5 -->
<g id="node6" class="node"><title>Node5</title>
<polygon fill="none" stroke="#bfbfbf" points="192.67,-110.5 192.67,-128.5 241.463,-128.5 241.463,-110.5 192.67,-110.5"/>
<text text-anchor="middle" x="217.066" y="-116.5" font-family="Helvetica,sans-Serif" font-size="10.00">cstdarg</text>
</g>
<!-- Node4&#45;&gt;Node5 -->
<g id="edge6" class="edge"><title>Node4&#45;&gt;Node5</title>
<path fill="none" stroke="midnightblue" d="M486.496,-220.471C425.314,-211.923 336.117,-197.757 304.066,-184 276.557,-172.192 249.43,-150.319 232.966,-135.587"/>
<polygon fill="midnightblue" stroke="midnightblue" points="235.116,-132.81 225.383,-128.626 230.382,-137.967 235.116,-132.81"/>
</g>
<!-- Node6 -->
<g id="node7" class="node"><title>Node6</title>
<polygon fill="none" stroke="#bfbfbf" points="882.84,-0.5 882.84,-18.5 923.293,-18.5 923.293,-0.5 882.84,-0.5"/>
<text text-anchor="middle" x="903.066" y="-6.5" font-family="Helvetica,sans-Serif" font-size="10.00">string</text>
</g>
<!-- Node4&#45;&gt;Node6 -->
<g id="edge7" class="edge"><title>Node4&#45;&gt;Node6</title>
<path fill="none" stroke="midnightblue" d="M618.736,-220.988C621.889,-220.654 625.011,-220.323 628.066,-220 704.062,-211.963 903.225,-221.043 970.066,-184 1003.34,-165.562 1028.5,-144.767 1013.07,-110 995.591,-70.6288 953.987,-40.2268 927.248,-23.8828"/>
<polygon fill="midnightblue" stroke="midnightblue" points="928.864,-20.772 918.475,-18.6963 925.302,-26.798 928.864,-20.772"/>
</g>
<!-- Node7 -->
<g id="node8" class="node"><title>Node7</title>
<polygon fill="none" stroke="#bfbfbf" points="259.286,-110.5 259.286,-128.5 310.847,-128.5 310.847,-110.5 259.286,-110.5"/>
<text text-anchor="middle" x="285.066" y="-116.5" font-family="Helvetica,sans-Serif" font-size="10.00">sstream</text>
</g>
<!-- Node4&#45;&gt;Node7 -->
<g id="edge8" class="edge"><title>Node4&#45;&gt;Node7</title>
<path fill="none" stroke="midnightblue" d="M478.214,-220.5C422.707,-213.057 350.478,-200.617 326.066,-184 309.656,-172.829 298.323,-152.686 291.797,-138.076"/>
<polygon fill="midnightblue" stroke="midnightblue" points="294.945,-136.528 287.891,-128.622 288.475,-139.201 294.945,-136.528"/>
</g>
<!-- Node8 -->
<g id="node9" class="node"><title>Node8</title>
<polygon fill="none" stroke="#bfbfbf" points="820.894,-55.5 820.894,-73.5 875.239,-73.5 875.239,-55.5 820.894,-55.5"/>
<text text-anchor="middle" x="848.066" y="-61.5" font-family="Helvetica,sans-Serif" font-size="10.00">iostream</text>
</g>
<!-- Node4&#45;&gt;Node8 -->
<g id="edge9" class="edge"><title>Node4&#45;&gt;Node8</title>
<path fill="none" stroke="midnightblue" d="M618.712,-220.869C658.229,-214.648 707.539,-203.553 748.066,-184 783.075,-167.11 791.663,-159.255 816.066,-129 827.319,-115.049 836.101,-96.4979 841.595,-83.0516"/>
<polygon fill="midnightblue" stroke="midnightblue" points="844.928,-84.1368 845.281,-73.5478 838.402,-81.6057 844.928,-84.1368"/>
</g>
<!-- Node9 -->
<g id="node10" class="node"><title>Node9</title>
<polygon fill="none" stroke="#bfbfbf" points="328.663,-110.5 328.663,-128.5 387.47,-128.5 387.47,-110.5 328.663,-110.5"/>
<text text-anchor="middle" x="358.066" y="-116.5" font-family="Helvetica,sans-Serif" font-size="10.00">functional</text>
</g>
<!-- Node4&#45;&gt;Node9 -->
<g id="edge10" class="edge"><title>Node4&#45;&gt;Node9</title>
<path fill="none" stroke="midnightblue" d="M548.037,-220.186C547.521,-206.647 544.472,-179.859 529.066,-165 524.248,-160.353 446.474,-141.348 397.492,-129.73"/>
<polygon fill="midnightblue" stroke="midnightblue" points="398.05,-126.266 387.513,-127.371 396.439,-133.078 398.05,-126.266"/>
</g>
<!-- Node10 -->
<g id="node11" class="node"><title>Node10</title>
<polygon fill="none" stroke="#bfbfbf" points="0,-55.5 0,-73.5 62.1328,-73.5 62.1328,-55.5 0,-55.5"/>
<text text-anchor="middle" x="31.0664" y="-61.5" font-family="Helvetica,sans-Serif" font-size="10.00">type_traits</text>
</g>
<!-- Node4&#45;&gt;Node10 -->
<g id="edge11" class="edge"><title>Node4&#45;&gt;Node10</title>
<path fill="none" stroke="midnightblue" d="M477.675,-220.79C387.026,-210.603 238.214,-192.912 214.066,-184 146.843,-159.191 78.9675,-106.271 48.1661,-80.3839"/>
<polygon fill="midnightblue" stroke="midnightblue" points="50.0449,-77.3863 40.1648,-73.5609 45.503,-82.7127 50.0449,-77.3863"/>
</g>
<!-- Node11 -->
<g id="node12" class="node"><title>Node11</title>
<polygon fill="none" stroke="#bfbfbf" points="335.34,-165.5 335.34,-183.5 370.793,-183.5 370.793,-165.5 335.34,-165.5"/>
<text text-anchor="middle" x="353.066" y="-171.5" font-family="Helvetica,sans-Serif" font-size="10.00">map</text>
</g>
<!-- Node4&#45;&gt;Node11 -->
<g id="edge12" class="edge"><title>Node4&#45;&gt;Node11</title>
<path fill="none" stroke="midnightblue" d="M515.195,-220.45C483.027,-212.44 432.435,-199.489 380.613,-184.344"/>
<polygon fill="midnightblue" stroke="midnightblue" points="381.507,-180.959 370.926,-181.491 379.53,-187.673 381.507,-180.959"/>
</g>
<!-- Node12 -->
<g id="node13" class="node"><title>Node12</title>
<polygon fill="none" stroke="#bfbfbf" points="388.535,-165.5 388.535,-183.5 519.598,-183.5 519.598,-165.5 388.535,-165.5"/>
<text text-anchor="middle" x="454.066" y="-171.5" font-family="Helvetica,sans-Serif" font-size="10.00">boost/algorithm/string.hpp</text>
</g>
<!-- Node4&#45;&gt;Node12 -->
<g id="edge13" class="edge"><title>Node4&#45;&gt;Node12</title>
<path fill="none" stroke="midnightblue" d="M533.79,-220.45C518.883,-212.045 495.256,-198.724 477.587,-188.762"/>
<polygon fill="midnightblue" stroke="midnightblue" points="478.907,-185.488 468.477,-183.625 475.469,-191.586 478.907,-185.488"/>
</g>
<!-- Node13 -->
<g id="node14" class="node"><title>Node13</title>
<g id="a_node14"><a xlink:href="cxxdefs_8h.html" target="_top" xlink:title="Basic definitions, which may have to be defined before any Eigen headers or further utilities are inc...">
<polygon fill="none" stroke="black" points="118.256,-55.5 118.256,-73.5 259.876,-73.5 259.876,-55.5 118.256,-55.5"/>
<text text-anchor="middle" x="189.066" y="-61.5" font-family="Helvetica,sans-Serif" font-size="10.00">tomographer/tools/cxxdefs.h</text>
</a>
</g>
</g>
<!-- Node4&#45;&gt;Node13 -->
<g id="edge14" class="edge"><title>Node4&#45;&gt;Node13</title>
<path fill="none" stroke="midnightblue" d="M477.636,-220.814C407.291,-212.519 304.408,-198.532 267.066,-184 225.826,-167.951 205.002,-167.988 184.066,-129 176.628,-115.147 178.995,-97.0934 182.57,-83.7788"/>
<polygon fill="midnightblue" stroke="midnightblue" points="186.013,-84.4946 185.668,-73.9054 179.334,-82.3987 186.013,-84.4946"/>
</g>
<!-- Node18 -->
<g id="node19" class="node"><title>Node18</title>
<g id="a_node19"><a xlink:href="fmt_8h.html" target="_top" xlink:title="Utilities for formatting strings. ">
<polygon fill="none" stroke="black" points="576.264,-165.5 576.264,-183.5 697.869,-183.5 697.869,-165.5 576.264,-165.5"/>
<text text-anchor="middle" x="637.066" y="-171.5" font-family="Helvetica,sans-Serif" font-size="10.00">tomographer/tools/fmt.h</text>
</a>
</g>
</g>
<!-- Node4&#45;&gt;Node18 -->
<g id="edge19" class="edge"><title>Node4&#45;&gt;Node18</title>
<path fill="none" stroke="midnightblue" d="M561.584,-220.45C575.698,-212.045 598.067,-198.724 614.797,-188.762"/>
<polygon fill="midnightblue" stroke="midnightblue" points="616.621,-191.749 623.422,-183.625 613.039,-185.735 616.621,-191.749"/>
</g>
<!-- Node27 -->
<g id="node28" class="node"><title>Node27</title>
<g id="a_node28"><a xlink:href="conststr_8h.html" target="_top" xlink:title="A constexpr string type, suitable for basic compile&#45;time string processing. ">
<polygon fill="none" stroke="black" points="660.976,-55.5 660.976,-73.5 803.157,-73.5 803.157,-55.5 660.976,-55.5"/>
<text text-anchor="middle" x="732.066" y="-61.5" font-family="Helvetica,sans-Serif" font-size="10.00">tomographer/tools/conststr.h</text>
</a>
</g>
</g>
<!-- Node4&#45;&gt;Node27 -->
<g id="edge43" class="edge"><title>Node4&#45;&gt;Node27</title>
<path fill="none" stroke="midnightblue" d="M587.241,-220.491C620.016,-213.099 667.614,-200.733 707.066,-184 751.628,-165.1 776.986,-170.989 801.066,-129 813.364,-107.556 786.798,-89.2104 763.145,-77.8319"/>
<polygon fill="midnightblue" stroke="midnightblue" points="764.531,-74.6172 753.978,-73.678 761.642,-80.9932 764.531,-74.6172"/>
</g>
<!-- Node14 -->
<g id="node15" class="node"><title>Node14</title>
<polygon fill="none" stroke="#bfbfbf" points="290.951,-0.5 290.951,-18.5 339.182,-18.5 339.182,-0.5 290.951,-0.5"/>
<text text-anchor="middle" x="315.066" y="-6.5" font-family="Helvetica,sans-Serif" font-size="10.00">cassert</text>
</g>
<!-- Node13&#45;&gt;Node14 -->
<g id="edge15" class="edge"><title>Node13&#45;&gt;Node14</title>
<path fill="none" stroke="midnightblue" d="M208.203,-55.4504C229.018,-46.6951 262.514,-32.6055 286.456,-22.5346"/>
<polygon fill="midnightblue" stroke="midnightblue" points="287.889,-25.7289 295.75,-18.6253 285.175,-19.2765 287.889,-25.7289"/>
</g>
<!-- Node15 -->
<g id="node16" class="node"><title>Node15</title>
<polygon fill="none" stroke="#bfbfbf" points="74.9458,-0.5 74.9458,-18.5 123.187,-18.5 123.187,-0.5 74.9458,-0.5"/>
<text text-anchor="middle" x="99.0664" y="-6.5" font-family="Helvetica,sans-Serif" font-size="10.00">cstddef</text>
</g>
<!-- Node13&#45;&gt;Node15 -->
<g id="edge16" class="edge"><title>Node13&#45;&gt;Node15</title>
<path fill="none" stroke="midnightblue" d="M175.397,-55.4504C161.125,-47.0453 138.504,-33.7241 121.586,-23.7618"/>
<polygon fill="midnightblue" stroke="midnightblue" points="123.257,-20.6838 112.864,-18.6253 119.705,-26.7157 123.257,-20.6838"/>
</g>
<!-- Node16 -->
<g id="node17" class="node"><title>Node16</title>
<polygon fill="none" stroke="#bfbfbf" points="403.894,-0.5 403.894,-18.5 448.239,-18.5 448.239,-0.5 403.894,-0.5"/>
<text text-anchor="middle" x="426.066" y="-6.5" font-family="Helvetica,sans-Serif" font-size="10.00">cstdlib</text>
</g>
<!-- Node13&#45;&gt;Node16 -->
<g id="edge17" class="edge"><title>Node13&#45;&gt;Node16</title>
<path fill="none" stroke="midnightblue" d="M225.062,-55.4504C270.976,-45.1826 349.697,-27.5783 393.766,-17.7233"/>
<polygon fill="midnightblue" stroke="midnightblue" points="394.667,-21.1084 403.662,-15.5104 393.139,-14.2772 394.667,-21.1084"/>
</g>
<!-- Node17 -->
<g id="node18" class="node"><title>Node17</title>
<polygon fill="none" stroke="#bfbfbf" points="149.099,-0.5 149.099,-18.5 229.034,-18.5 229.034,-0.5 149.099,-0.5"/>
<text text-anchor="middle" x="189.066" y="-6.5" font-family="Helvetica,sans-Serif" font-size="10.00">boost/predef.h</text>
</g>
<!-- Node13&#45;&gt;Node17 -->
<g id="edge18" class="edge"><title>Node13&#45;&gt;Node17</title>
<path fill="none" stroke="midnightblue" d="M189.066,-55.2188C189.066,-48.1769 189.066,-37.8083 189.066,-28.8277"/>
<polygon fill="midnightblue" stroke="midnightblue" points="192.567,-28.5495 189.066,-18.5496 185.567,-28.5496 192.567,-28.5495"/>
</g>
<!-- Node18&#45;&gt;Node2 -->
<g id="edge20" class="edge"><title>Node18&#45;&gt;Node2</title>
<path fill="none" stroke="midnightblue" d="M689.616,-165.45C762.584,-154.273 892.306,-134.403 951.745,-125.298"/>
<polygon fill="midnightblue" stroke="midnightblue" points="952.641,-128.701 961.996,-123.728 951.581,-121.782 952.641,-128.701"/>
</g>
<!-- Node18&#45;&gt;Node5 -->
<g id="edge21" class="edge"><title>Node18&#45;&gt;Node5</title>
<path fill="none" stroke="midnightblue" d="M576.21,-167.536C487.63,-158.686 326.405,-141.906 251.475,-128.987"/>
<polygon fill="midnightblue" stroke="midnightblue" points="251.953,-125.516 241.491,-127.191 250.713,-132.406 251.953,-125.516"/>
</g>
<!-- Node18&#45;&gt;Node6 -->
<g id="edge23" class="edge"><title>Node18&#45;&gt;Node6</title>
<path fill="none" stroke="midnightblue" d="M697.937,-166.959C735.916,-161 784.858,-149.802 824.066,-129 856.023,-112.046 864.857,-104.654 884.066,-74 892.755,-60.1355 897.653,-42.0831 900.291,-28.7719"/>
<polygon fill="midnightblue" stroke="midnightblue" points="903.742,-29.3537 902.009,-18.9016 896.846,-28.1533 903.742,-29.3537"/>
</g>
<!-- Node18&#45;&gt;Node7 -->
<g id="edge24" class="edge"><title>Node18&#45;&gt;Node7</title>
<path fill="none" stroke="midnightblue" d="M576.002,-166.743C514.139,-159.489 415.522,-146.806 321.014,-129.008"/>
<polygon fill="midnightblue" stroke="midnightblue" points="321.476,-125.534 310.998,-127.1 320.166,-132.41 321.476,-125.534"/>
</g>
<!-- Node18&#45;&gt;Node8 -->
<g id="edge25" class="edge"><title>Node18&#45;&gt;Node8</title>
<path fill="none" stroke="midnightblue" d="M698.028,-166.808C730.801,-160.898 770.616,-149.801 801.066,-129 818.182,-117.308 831.469,-97.2914 839.483,-82.853"/>
<polygon fill="midnightblue" stroke="midnightblue" points="842.623,-84.4004 844.171,-73.9192 836.425,-81.1478 842.623,-84.4004"/>
</g>
<!-- Node18&#45;&gt;Node9 -->
<g id="edge29" class="edge"><title>Node18&#45;&gt;Node9</title>
<path fill="none" stroke="midnightblue" d="M590.765,-165.482C544.259,-157.309 470.298,-143.99 397.322,-129.199"/>
<polygon fill="midnightblue" stroke="midnightblue" points="397.999,-125.765 387.502,-127.198 396.602,-132.624 397.999,-125.765"/>
</g>
<!-- Node19 -->
<g id="node20" class="node"><title>Node19</title>
<polygon fill="none" stroke="#bfbfbf" points="745.778,-110.5 745.778,-128.5 792.354,-128.5 792.354,-110.5 745.778,-110.5"/>
<text text-anchor="middle" x="769.066" y="-116.5" font-family="Helvetica,sans-Serif" font-size="10.00">chrono</text>
</g>
<!-- Node18&#45;&gt;Node19 -->
<g id="edge22" class="edge"><title>Node18&#45;&gt;Node19</title>
<path fill="none" stroke="midnightblue" d="M657.114,-165.45C679.017,-156.656 714.323,-142.48 739.427,-132.401"/>
<polygon fill="midnightblue" stroke="midnightblue" points="740.854,-135.599 748.83,-128.625 738.246,-129.103 740.854,-135.599"/>
</g>
<!-- Node20 -->
<g id="node21" class="node"><title>Node20</title>
<polygon fill="none" stroke="#bfbfbf" points="558.675,-110.5 558.675,-128.5 597.458,-128.5 597.458,-110.5 558.675,-110.5"/>
<text text-anchor="middle" x="578.066" y="-116.5" font-family="Helvetica,sans-Serif" font-size="10.00">utility</text>
</g>
<!-- Node18&#45;&gt;Node20 -->
<g id="edge26" class="edge"><title>Node18&#45;&gt;Node20</title>
<path fill="none" stroke="midnightblue" d="M628.106,-165.45C619.269,-157.512 605.551,-145.189 594.711,-135.452"/>
<polygon fill="midnightblue" stroke="midnightblue" points="596.89,-132.704 587.112,-128.625 592.212,-137.912 596.89,-132.704"/>
</g>
<!-- Node21 -->
<g id="node22" class="node"><title>Node21</title>
<polygon fill="none" stroke="#bfbfbf" points="615.451,-110.5 615.451,-128.5 658.682,-128.5 658.682,-110.5 615.451,-110.5"/>
<text text-anchor="middle" x="637.066" y="-116.5" font-family="Helvetica,sans-Serif" font-size="10.00">vector</text>
</g>
<!-- Node18&#45;&gt;Node21 -->
<g id="edge27" class="edge"><title>Node18&#45;&gt;Node21</title>
<path fill="none" stroke="midnightblue" d="M637.066,-165.219C637.066,-158.177 637.066,-147.808 637.066,-138.828"/>
<polygon fill="midnightblue" stroke="midnightblue" points="640.567,-138.55 637.066,-128.55 633.567,-138.55 640.567,-138.55"/>
</g>
<!-- Node22 -->
<g id="node23" class="node"><title>Node22</title>
<polygon fill="none" stroke="#bfbfbf" points="676.557,-110.5 676.557,-128.5 727.576,-128.5 727.576,-110.5 676.557,-110.5"/>
<text text-anchor="middle" x="702.066" y="-116.5" font-family="Helvetica,sans-Serif" font-size="10.00">iomanip</text>
</g>
<!-- Node18&#45;&gt;Node22 -->
<g id="edge28" class="edge"><title>Node18&#45;&gt;Node22</title>
<path fill="none" stroke="midnightblue" d="M646.939,-165.45C656.769,-157.434 672.084,-144.947 684.079,-135.166"/>
<polygon fill="midnightblue" stroke="midnightblue" points="686.563,-137.657 692.101,-128.625 682.139,-132.232 686.563,-137.657"/>
</g>
<!-- Node23 -->
<g id="node24" class="node"><title>Node23</title>
<g id="a_node24"><a xlink:href="cxxutil_8h.html" target="_top" xlink:title="Some C++ utilities, with a tad of C++11 tricks. ">
<polygon fill="none" stroke="black" points="405.315,-110.5 405.315,-128.5 540.817,-128.5 540.817,-110.5 405.315,-110.5"/>
<text text-anchor="middle" x="473.066" y="-116.5" font-family="Helvetica,sans-Serif" font-size="10.00">tomographer/tools/cxxutil.h</text>
</a>
</g>
</g>
<!-- Node18&#45;&gt;Node23 -->
<g id="edge30" class="edge"><title>Node18&#45;&gt;Node23</title>
<path fill="none" stroke="midnightblue" d="M612.158,-165.45C584.263,-156.436 538.868,-141.765 507.567,-131.65"/>
<polygon fill="midnightblue" stroke="midnightblue" points="508.531,-128.283 497.94,-128.538 506.379,-134.944 508.531,-128.283"/>
</g>
<!-- Node23&#45;&gt;Node8 -->
<g id="edge34" class="edge"><title>Node23&#45;&gt;Node8</title>
<path fill="none" stroke="midnightblue" d="M540.575,-110.462C619.701,-100.903 747.149,-85.0506 810.623,-74.0718"/>
<polygon fill="midnightblue" stroke="midnightblue" points="811.382,-77.4916 820.609,-72.2854 810.149,-70.601 811.382,-77.4916"/>
</g>
<!-- Node23&#45;&gt;Node10 -->
<g id="edge36" class="edge"><title>Node23&#45;&gt;Node10</title>
<path fill="none" stroke="midnightblue" d="M405.176,-110.956C293.893,-98.5802 84.1144,-75.2094 76.0664,-74 74.9657,-73.8346 73.8508,-73.6618 72.7265,-73.4831"/>
<polygon fill="midnightblue" stroke="midnightblue" points="72.931,-69.9679 62.4865,-71.7462 71.7604,-76.8693 72.931,-69.9679"/>
</g>
<!-- Node23&#45;&gt;Node13 -->
<g id="edge39" class="edge"><title>Node23&#45;&gt;Node13</title>
<path fill="none" stroke="midnightblue" d="M429.933,-110.45C379.64,-101.065 296.499,-85.5491 242.252,-75.4254"/>
<polygon fill="midnightblue" stroke="midnightblue" points="242.612,-71.9323 232.14,-73.5383 241.328,-78.8135 242.612,-71.9323"/>
</g>
<!-- Node23&#45;&gt;Node14 -->
<g id="edge31" class="edge"><title>Node23&#45;&gt;Node14</title>
<path fill="none" stroke="midnightblue" d="M450.369,-110.479C430.331,-102.809 400.847,-90.0479 378.066,-74 358.721,-60.3724 340.086,-40.4707 328.168,-26.5917"/>
<polygon fill="midnightblue" stroke="midnightblue" points="330.776,-24.2543 321.67,-18.8384 325.411,-28.7507 330.776,-24.2543"/>
</g>
<!-- Node23&#45;&gt;Node15 -->
<g id="edge32" class="edge"><title>Node23&#45;&gt;Node15</title>
<path fill="none" stroke="midnightblue" d="M405.212,-110.72C300.627,-98.6578 111.714,-76.5573 109.066,-74 97.2862,-62.6199 95.7265,-43.4173 96.5402,-29.1019"/>
<polygon fill="midnightblue" stroke="midnightblue" points="100.047,-29.2088 97.5518,-18.9119 93.081,-28.5172 100.047,-29.2088"/>
</g>
<!-- Node23&#45;&gt;Node16 -->
<g id="edge33" class="edge"><title>Node23&#45;&gt;Node16</title>
<path fill="none" stroke="midnightblue" d="M471.392,-110.43C468.675,-98.1197 462.724,-74.0698 454.066,-55 449.625,-45.2173 443.349,-35.0232 437.864,-26.8641"/>
<polygon fill="midnightblue" stroke="midnightblue" points="440.731,-24.8571 432.147,-18.6472 434.985,-28.8549 440.731,-24.8571"/>
</g>
<!-- Node24 -->
<g id="node25" class="node"><title>Node24</title>
<polygon fill="none" stroke="#bfbfbf" points="277.448,-55.5 277.448,-73.5 330.685,-73.5 330.685,-55.5 277.448,-55.5"/>
<text text-anchor="middle" x="304.066" y="-61.5" font-family="Helvetica,sans-Serif" font-size="10.00">complex</text>
</g>
<!-- Node23&#45;&gt;Node24 -->
<g id="edge35" class="edge"><title>Node23&#45;&gt;Node24</title>
<path fill="none" stroke="midnightblue" d="M447.399,-110.45C418.653,-101.436 371.875,-86.7653 339.619,-76.6496"/>
<polygon fill="midnightblue" stroke="midnightblue" points="340.287,-73.1911 329.698,-73.5383 338.192,-79.8704 340.287,-73.1911"/>
</g>
<!-- Node25 -->
<g id="node26" class="node"><title>Node25</title>
<polygon fill="none" stroke="#bfbfbf" points="386.663,-55.5 386.663,-73.5 445.47,-73.5 445.47,-55.5 386.663,-55.5"/>
<text text-anchor="middle" x="416.066" y="-61.5" font-family="Helvetica,sans-Serif" font-size="10.00">exception</text>
</g>
<!-- Node23&#45;&gt;Node25 -->
<g id="edge37" class="edge"><title>Node23&#45;&gt;Node25</title>
<path fill="none" stroke="midnightblue" d="M464.16,-110.219C455.661,-102.316 442.656,-90.2241 432.312,-80.6057"/>
<polygon fill="midnightblue" stroke="midnightblue" points="434.43,-77.7958 424.723,-73.5496 429.664,-82.9222 434.43,-77.7958"/>
</g>
<!-- Node26 -->
<g id="node27" class="node"><title>Node26</title>
<polygon fill="none" stroke="#bfbfbf" points="500.665,-55.5 500.665,-73.5 559.468,-73.5 559.468,-55.5 500.665,-55.5"/>
<text text-anchor="middle" x="530.066" y="-61.5" font-family="Helvetica,sans-Serif" font-size="10.00">stdexcept</text>
</g>
<!-- Node23&#45;&gt;Node26 -->
<g id="edge38" class="edge"><title>Node23&#45;&gt;Node26</title>
<path fill="none" stroke="midnightblue" d="M481.973,-110.219C490.472,-102.316 503.476,-90.2241 513.821,-80.6057"/>
<polygon fill="midnightblue" stroke="midnightblue" points="516.469,-82.9222 521.409,-73.5496 511.703,-77.7958 516.469,-82.9222"/>
</g>
<!-- Node23&#45;&gt;Node27 -->
<g id="edge40" class="edge"><title>Node23&#45;&gt;Node27</title>
<path fill="none" stroke="midnightblue" d="M512.403,-110.45C558.078,-101.104 633.461,-85.678 682.944,-75.552"/>
<polygon fill="midnightblue" stroke="midnightblue" points="683.69,-78.9721 692.785,-73.5383 682.286,-72.1142 683.69,-78.9721"/>
</g>
<!-- Node28 -->
<g id="node29" class="node"><title>Node28</title>
<polygon fill="none" stroke="#bfbfbf" points="577.052,-55.5 577.052,-73.5 643.081,-73.5 643.081,-55.5 577.052,-55.5"/>
<text text-anchor="middle" x="610.066" y="-61.5" font-family="Helvetica,sans-Serif" font-size="10.00">Eigen/Core</text>
</g>
<!-- Node23&#45;&gt;Node28 -->
<g id="edge42" class="edge"><title>Node23&#45;&gt;Node28</title>
<path fill="none" stroke="midnightblue" d="M493.874,-110.45C516.707,-101.617 553.574,-87.3546 579.65,-77.267"/>
<polygon fill="midnightblue" stroke="midnightblue" points="581,-80.4977 589.063,-73.6253 578.474,-73.9692 581,-80.4977"/>
</g>
<!-- Node27&#45;&gt;Node6 -->
<g id="edge41" class="edge"><title>Node27&#45;&gt;Node6</title>
<path fill="none" stroke="midnightblue" d="M758.038,-55.4504C788.894,-45.8868 840.286,-29.9584 872.882,-19.8554"/>
<polygon fill="midnightblue" stroke="midnightblue" points="874.24,-23.0989 882.755,-16.7953 872.167,-16.4127 874.24,-23.0989"/>
</g>
</g>
</svg>
        <g id="navigator" transform="translate(0 0)" fill="#404254">
                <rect fill="#f2f5e9" fill-opacity="0.5" stroke="#606060" stroke-width=".5" x="0" y="0" width="60" height="60"/>
                <use id="zoomplus" xlink:href="#zoomPlus" x="17" y="9" onmousedown="handleZoom(evt,'in')"/>
                <use id="zoomminus" xlink:href="#zoomMin" x="42" y="9" onmousedown="handleZoom(evt,'out')"/>
                <use id="reset" xlink:href="#resetDef" x="30" y="36" onmousedown="handleReset()"/>
                <g id="arrowUp" xlink:href="#dirArrow" transform="translate(30 24)" onmousedown="handlePan(0,-1)">
                  <use xlink:href="#rim" fill="#404040">
                        <set attributeName="fill" to="#808080" begin="arrowUp.mouseover" end="arrowUp.mouseout"/>
                  </use>
                  <path fill="none" stroke="white" stroke-width="1.5" d="M0,-3.0v7 M-2.5,-0.5L0,-3.0L2.5,-0.5"/>
                </g>
                <g id="arrowRight" xlink:href="#dirArrow" transform="rotate(90) translate(36 -43)" onmousedown="handlePan(1,0)">
                  <use xlink:href="#rim" fill="#404040">
                        <set attributeName="fill" to="#808080" begin="arrowRight.mouseover" end="arrowRight.mouseout"/>
                  </use>
                  <path fill="none" stroke="white" stroke-width="1.5" d="M0,-3.0v7 M-2.5,-0.5L0,-3.0L2.5,-0.5"/>
                </g>
                <g id="arrowDown" xlink:href="#dirArrow" transform="rotate(180) translate(-30 -48)" onmousedown="handlePan(0,1)">
                  <use xlink:href="#rim" fill="#404040">
                        <set attributeName="fill" to="#808080" begin="arrowDown.mouseover" end="arrowDown.mouseout"/>
                  </use>
                  <path fill="none" stroke="white" stroke-width="1.5" d="M0,-3.0v7 M-2.5,-0.5L0,-3.0L2.5,-0.5"/>
                </g>
                <g id="arrowLeft" xlink:href="#dirArrow" transform="rotate(270) translate(-36 17)" onmousedown="handlePan(-1,0)">
                  <use xlink:href="#rim" fill="#404040">
                        <set attributeName="fill" to="#808080" begin="arrowLeft.mouseover" end="arrowLeft.mouseout"/>
                  </use>
                  <path fill="none" stroke="white" stroke-width="1.5" d="M0,-3.0v7 M-2.5,-0.5L0,-3.0L2.5,-0.5"/>
                </g>
        </g>
        <svg viewBox="0 0 15 15" width="100%" height="30px" preserveAspectRatio="xMaxYMin meet">
         <g id="arrow_out" transform="scale(0.3 0.3)">
          <a xlink:href="simple__find__zero_8h__incl_org.svg" target="_base">
           <rect id="button" ry="5" rx="5" y="6" x="6" height="38" width="38"
                fill="#f2f5e9" fill-opacity="0.5" stroke="#606060" stroke-width="1.0"/>
           <path id="arrow"
             d="M 11.500037,31.436501 C 11.940474,20.09759 22.043105,11.32322 32.158766,21.979434 L 37.068811,17.246167 C 37.068811,17.246167 37.088388,32 37.088388,32 L 22.160133,31.978069 C 22.160133,31.978069 26.997745,27.140456 26.997745,27.140456 C 18.528582,18.264221 13.291696,25.230495 11.500037,31.436501 z"
             style="fill:#404040;"/>
          </a>
         </g>
        </svg>
</svg>
