<?xml version="1.0" encoding="UTF-8" standalone="no"?>
<!DOCTYPE svg PUBLIC "-//W3C//DTD SVG 1.1//EN"
 "http://www.w3.org/Graphics/SVG/1.1/DTD/svg11.dtd">
<!-- Generated by graphviz version 2.38.0 (20140413.2041)
 -->
<!-- Title: Tomographer::MHRWTasks::CDataBase&lt; MHWalkerParams_, IterCountIntType_, RngSeedType_ &gt; Pages: 1 -->
<svg width="253pt" height="302pt"
 viewBox="0.00 0.00 252.99 302.00" xmlns="http://www.w3.org/2000/svg" xmlns:xlink="http://www.w3.org/1999/xlink">
<g id="graph0" class="graph" transform="scale(1 1) rotate(0) translate(4 298)">
<title>Tomographer::MHRWTasks::CDataBase&lt; MHWalkerParams_, IterCountIntType_, RngSeedType_ &gt;</title>
<!-- Node2 -->
<g id="node1" class="node"><title>Node2</title>
<polygon fill="#bfbfbf" stroke="black" points="11.2891,-0.5 11.2891,-38.5 201.024,-38.5 201.024,-0.5 11.2891,-0.5"/>
<text text-anchor="start" x="19.2891" y="-26.5" font-family="Helvetica,sans-Serif" font-size="10.00">Tomographer::MHRWTasks</text>
<text text-anchor="start" x="19.2891" y="-16.5" font-family="Helvetica,sans-Serif" font-size="10.00">::CDataBase&lt; MHWalkerParams</text>
<text text-anchor="middle" x="106.157" y="-6.5" font-family="Helvetica,sans-Serif" font-size="10.00">_, IterCountIntType_, RngSeedType_ &gt;</text>
</g>
<!-- Node3 -->
<g id="node2" class="node"><title>Node3</title>
<g id="a_node2"><a xlink:href="struct_tomographer_1_1_m_h_r_w_params.html" target="_top" xlink:title="Tomographer::MHRWParams\l\&lt; MHWalkerParams, IterCountInt\lType \&gt;">
<polygon fill="none" stroke="black" points="24.5679,-85.5 24.5679,-123.5 187.746,-123.5 187.746,-85.5 24.5679,-85.5"/>
<text text-anchor="start" x="32.5679" y="-111.5" font-family="Helvetica,sans-Serif" font-size="10.00">Tomographer::MHRWParams</text>
<text text-anchor="start" x="32.5679" y="-101.5" font-family="Helvetica,sans-Serif" font-size="10.00">&lt; MHWalkerParams, IterCountInt</text>
<text text-anchor="middle" x="106.157" y="-91.5" font-family="Helvetica,sans-Serif" font-size="10.00">Type &gt;</text>
</a>
</g>
</g>
<!-- Node3&#45;&gt;Node2 -->
<g id="edge1" class="edge"><title>Node3&#45;&gt;Node2</title>
<path fill="none" stroke="#9a32cd" stroke-dasharray="5,2" d="M106.157,-75.4137C106.157,-63.3112 106.157,-49.5034 106.157,-38.7612"/>
<polygon fill="#9a32cd" stroke="#9a32cd" points="102.657,-75.4902 106.157,-85.4902 109.657,-75.4903 102.657,-75.4902"/>
<text text-anchor="middle" x="139.221" y="-59" font-family="Helvetica,sans-Serif" font-size="10.00"> mhrw_params</text>
</g>
<!-- Node4 -->
<g id="node3" class="node"><title>Node4</title>
<g id="a_node3"><a xlink:href="struct_tomographer_1_1_m_h_r_w_params.html" target="_top" xlink:title="Specify the parameters of a Metropolis&#45;Hastings random walk. ">
<polygon fill="none" stroke="black" points="11.0791,-180.5 11.0791,-208.5 201.234,-208.5 201.234,-180.5 11.0791,-180.5"/>
<text text-anchor="start" x="19.0791" y="-196.5" font-family="Helvetica,sans-Serif" font-size="10.00">Tomographer::MHRWParams</text>
<text text-anchor="middle" x="106.157" y="-186.5" font-family="Helvetica,sans-Serif" font-size="10.00">&lt; MHWalkerParams_, CountIntType_ &gt;</text>
</a>
</g>
</g>
<!-- Node4&#45;&gt;Node3 -->
<g id="edge2" class="edge"><title>Node4&#45;&gt;Node3</title>
<path fill="none" stroke="orange" stroke-dasharray="5,2" d="M106.157,-169.898C106.157,-155.346 106.157,-136.972 106.157,-123.579"/>
<polygon fill="orange" stroke="orange" points="102.657,-170.135 106.157,-180.135 109.657,-170.135 102.657,-170.135"/>
<text text-anchor="start" x="106.157" y="-154" font-family="Helvetica,sans-Serif" font-size="10.00"> &lt; MHWalkerParams, IterCount</text>
<text text-anchor="middle" x="175.576" y="-144" font-family="Helvetica,sans-Serif" font-size="10.00">IntType &gt;</text>
</g>
<!-- Node5 -->
<g id="node4" class="node"><title>Node5</title>
<polygon fill="none" stroke="#bfbfbf" points="0,-275.5 0,-293.5 102.313,-293.5 102.313,-275.5 0,-275.5"/>
<text text-anchor="middle" x="51.1567" y="-281.5" font-family="Helvetica,sans-Serif" font-size="10.00">MHWalkerParams_</text>
</g>
<!-- Node5&#45;&gt;Node4 -->
<g id="edge3" class="edge"><title>Node5&#45;&gt;Node4</title>
<path fill="none" stroke="#9a32cd" stroke-dasharray="5,2" d="M48.1866,-265.155C47.2343,-253.433 47.8455,-238.357 54.6841,-227 59.3318,-219.281 66.6657,-213.194 74.3565,-208.512"/>
<polygon fill="#9a32cd" stroke="#9a32cd" points="44.7202,-265.643 49.4263,-275.135 51.6668,-264.78 44.7202,-265.643"/>
<text text-anchor="middle" x="97.3931" y="-239" font-family="Helvetica,sans-Serif" font-size="10.00"> mhwalker_params</text>
</g>
<!-- Node6 -->
<g id="node5" class="node"><title>Node6</title>
<polygon fill="none" stroke="#bfbfbf" points="120.632,-275.5 120.632,-293.5 201.681,-293.5 201.681,-275.5 120.632,-275.5"/>
<text text-anchor="middle" x="161.157" y="-281.5" font-family="Helvetica,sans-Serif" font-size="10.00">CountIntType_</text>
</g>
<!-- Node6&#45;&gt;Node4 -->
<g id="edge4" class="edge"><title>Node6&#45;&gt;Node4</title>
<path fill="none" stroke="#9a32cd" stroke-dasharray="5,2" d="M156.348,-265.451C152.739,-253.85 147.056,-238.799 139.157,-227 134.662,-220.287 128.51,-213.923 122.736,-208.695"/>
<polygon fill="#9a32cd" stroke="#9a32cd" points="153.052,-266.653 159.177,-275.297 159.779,-264.719 153.052,-266.653"/>
<text text-anchor="middle" x="174.171" y="-249" font-family="Helvetica,sans-Serif" font-size="10.00"> n_run</text>
<text text-anchor="middle" x="174.171" y="-239" font-family="Helvetica,sans-Serif" font-size="10.00">n_therm</text>
<text text-anchor="middle" x="174.171" y="-229" font-family="Helvetica,sans-Serif" font-size="10.00">n_sweep</text>
</g>
</g>
</svg>
