<?xml version="1.0" encoding="UTF-8" standalone="no"?>
<!DOCTYPE svg PUBLIC "-//W3C//DTD SVG 1.1//EN"
 "http://www.w3.org/Graphics/SVG/1.1/DTD/svg11.dtd">
<!-- Generated by graphviz version 2.38.0 (20140413.2041)
 -->
<!-- Title: Tomographer::MultiProc::FullStatusReport&lt; TaskStatusReportType, TaskCountIntType &gt; Pages: 1 -->
<svg width="902pt" height="94pt"
 viewBox="0.00 0.00 902.50 93.50" xmlns="http://www.w3.org/2000/svg" xmlns:xlink="http://www.w3.org/1999/xlink">
<g id="graph0" class="graph" transform="scale(1 1) rotate(0) translate(4 89.5)">
<title>Tomographer::MultiProc::FullStatusReport&lt; TaskStatusReportType, TaskCountIntType &gt;</title>
<!-- Node1 -->
<g id="node1" class="node"><title>Node1</title>
<polygon fill="#bfbfbf" stroke="black" points="732.75,-15.5 732.75,-53.5 894.497,-53.5 894.497,-15.5 732.75,-15.5"/>
<text text-anchor="start" x="740.75" y="-41.5" font-family="Helvetica,sans-Serif" font-size="10.00">Tomographer::MultiProc</text>
<text text-anchor="start" x="740.75" y="-31.5" font-family="Helvetica,sans-Serif" font-size="10.00">::FullStatusReport&lt; TaskStatus</text>
<text text-anchor="middle" x="813.624" y="-21.5" font-family="Helvetica,sans-Serif" font-size="10.00">ReportType, TaskCountIntType &gt;</text>
</g>
<!-- Node2 -->
<g id="node2" class="node"><title>Node2</title>
<g id="a_node2"><a doxygen="/Users/philippe/Research/projects/tomographer/doc/cppreference-doxygen-web.tag.xml:http://en.cppreference.com/w/" xlink:href="http://en.cppreference.com/w/cpp/container/vector.html" target="_top" xlink:title="std::vector\&lt; TaskStatusReport\lType, typename Tools::NeedOwnOperator\lNew\&lt; TaskStatusReportType \&gt;::AllocatorType \&gt;">
<polygon fill="none" stroke="black" points="391.604,-37.5 391.604,-75.5 620.046,-75.5 620.046,-37.5 391.604,-37.5"/>
<text text-anchor="start" x="399.604" y="-63.5" font-family="Helvetica,sans-Serif" font-size="10.00">std::vector&lt; TaskStatusReport</text>
<text text-anchor="start" x="399.604" y="-53.5" font-family="Helvetica,sans-Serif" font-size="10.00">Type, typename Tools::NeedOwnOperator</text>
<text text-anchor="middle" x="505.825" y="-43.5" font-family="Helvetica,sans-Serif" font-size="10.00">New&lt; TaskStatusReportType &gt;::AllocatorType &gt;</text>
</a>
</g>
</g>
<!-- Node2&#45;&gt;Node1 -->
<g id="edge1" class="edge"><title>Node2&#45;&gt;Node1</title>
<path fill="none" stroke="#9a32cd" stroke-dasharray="5,2" d="M630.366,-47.6121C664.723,-45.1404 701.135,-42.5208 732.306,-40.2783"/>
<polygon fill="#9a32cd" stroke="#9a32cd" points="629.982,-44.1306 620.259,-48.3393 630.484,-51.1126 629.982,-44.1306"/>
<text text-anchor="middle" x="676.398" y="-48.5" font-family="Helvetica,sans-Serif" font-size="10.00"> workers_reports</text>
</g>
<!-- Node3 -->
<g id="node3" class="node"><title>Node3</title>
<g id="a_node3"><a doxygen="/Users/philippe/Research/projects/tomographer/doc/cppreference-doxygen-web.tag.xml:http://en.cppreference.com/w/" xlink:href="http://en.cppreference.com/w/cpp/container/vector.html" target="_top" xlink:title="STL class. ">
<polygon fill="none" stroke="black" points="108.354,-19.5 108.354,-37.5 193.476,-37.5 193.476,-19.5 108.354,-19.5"/>
<text text-anchor="middle" x="150.915" y="-25.5" font-family="Helvetica,sans-Serif" font-size="10.00">std::vector&lt; T &gt;</text>
</a>
</g>
</g>
<!-- Node3&#45;&gt;Node2 -->
<g id="edge2" class="edge"><title>Node3&#45;&gt;Node2</title>
<path fill="none" stroke="orange" stroke-dasharray="5,2" d="M203.849,-32.6205C252.947,-36.5159 328.273,-42.4923 391.284,-47.4916"/>
<polygon fill="orange" stroke="orange" points="204.03,-29.1239 193.784,-31.8219 203.476,-36.102 204.03,-29.1239"/>
<text text-anchor="start" x="211.476" y="-77.5" font-family="Helvetica,sans-Serif" font-size="10.00"> &lt; TaskStatusReportType,</text>
<text text-anchor="start" x="211.476" y="-67.5" font-family="Helvetica,sans-Serif" font-size="10.00"> typename Tools::NeedOwnOperator</text>
<text text-anchor="start" x="211.476" y="-57.5" font-family="Helvetica,sans-Serif" font-size="10.00">New&lt; TaskStatusReportType &gt;</text>
<text text-anchor="middle" x="292.54" y="-47.5" font-family="Helvetica,sans-Serif" font-size="10.00">::AllocatorType &gt;</text>
</g>
<!-- Node5 -->
<g id="node5" class="node"><title>Node5</title>
<g id="a_node5"><a doxygen="/Users/philippe/Research/projects/tomographer/doc/cppreference-doxygen-web.tag.xml:http://en.cppreference.com/w/" xlink:href="http://en.cppreference.com/w/cpp/container/vector.html" target="_top" xlink:title="std::vector\&lt; bool \&gt;">
<polygon fill="none" stroke="black" points="456.69,-0.5 456.69,-18.5 554.96,-18.5 554.96,-0.5 456.69,-0.5"/>
<text text-anchor="middle" x="505.825" y="-6.5" font-family="Helvetica,sans-Serif" font-size="10.00">std::vector&lt; bool &gt;</text>
</a>
</g>
</g>
<!-- Node3&#45;&gt;Node5 -->
<g id="edge5" class="edge"><title>Node3&#45;&gt;Node5</title>
<path fill="none" stroke="orange" stroke-dasharray="5,2" d="M203.695,-21.2413C206.324,-20.9681 208.929,-20.7183 211.476,-20.5 297.545,-13.1232 398.241,-10.6926 456.463,-9.89227"/>
<polygon fill="orange" stroke="orange" points="203.056,-17.7913 193.513,-22.3945 203.844,-24.7468 203.056,-17.7913"/>
<text text-anchor="middle" x="292.54" y="-22.5" font-family="Helvetica,sans-Serif" font-size="10.00"> &lt; bool &gt;</text>
</g>
<!-- Node4 -->
<g id="node4" class="node"><title>Node4</title>
<polygon fill="none" stroke="#bfbfbf" points="0,-19.5 0,-37.5 29,-37.5 29,-19.5 0,-19.5"/>
<text text-anchor="middle" x="14.5" y="-25.5" font-family="Helvetica,sans-Serif" font-size="10.00">T</text>
</g>
<!-- Node4&#45;&gt;Node3 -->
<g id="edge3" class="edge"><title>Node4&#45;&gt;Node3</title>
<path fill="none" stroke="#9a32cd" stroke-dasharray="5,2" d="M39.5707,-28.5C58.612,-28.5 85.6537,-28.5 108.201,-28.5"/>
<polygon fill="#9a32cd" stroke="#9a32cd" points="39.3785,-25.0001 29.3785,-28.5 39.3785,-32.0001 39.3785,-25.0001"/>
<text text-anchor="middle" x="68.6772" y="-30.5" font-family="Helvetica,sans-Serif" font-size="10.00"> elements</text>
</g>
<!-- Node5&#45;&gt;Node1 -->
<g id="edge4" class="edge"><title>Node5&#45;&gt;Node1</title>
<path fill="none" stroke="#9a32cd" stroke-dasharray="5,2" d="M565.385,-14.2875C612.814,-18.1649 680.122,-23.6676 732.537,-27.9527"/>
<polygon fill="#9a32cd" stroke="#9a32cd" points="565.532,-10.7879 555.28,-13.4613 564.961,-17.7646 565.532,-10.7879"/>
<text text-anchor="middle" x="676.398" y="-28.5" font-family="Helvetica,sans-Serif" font-size="10.00"> workers_running</text>
</g>
</g>
</svg>
