<?xml version="1.0" encoding="UTF-8" standalone="no"?>
<!DOCTYPE svg PUBLIC "-//W3C//DTD SVG 1.1//EN"
 "http://www.w3.org/Graphics/SVG/1.1/DTD/svg11.dtd">
<!-- Generated by graphviz version 2.38.0 (20140413.2041)
 -->
<!-- Title: Tomographer::MHRWParams&lt; MHWalkerParams_, CountIntType_ &gt; Pages: 1 -->
<svg width="210pt" height="122pt"
 viewBox="0.00 0.00 209.68 122.00" xmlns="http://www.w3.org/2000/svg" xmlns:xlink="http://www.w3.org/1999/xlink">
<g id="graph0" class="graph" transform="scale(1 1) rotate(0) translate(4 118)">
<title>Tomographer::MHRWParams&lt; MHWalkerParams_, CountIntType_ &gt;</title>
<!-- Node2 -->
<g id="node1" class="node"><title>Node2</title>
<polygon fill="#bfbfbf" stroke="black" points="11.0791,-0.5 11.0791,-28.5 201.234,-28.5 201.234,-0.5 11.0791,-0.5"/>
<text text-anchor="start" x="19.0791" y="-16.5" font-family="Helvetica,sans-Serif" font-size="10.00">Tomographer::MHRWParams</text>
<text text-anchor="middle" x="106.157" y="-6.5" font-family="Helvetica,sans-Serif" font-size="10.00">&lt; MHWalkerParams_, CountIntType_ &gt;</text>
</g>
<!-- Node3 -->
<g id="node2" class="node"><title>Node3</title>
<polygon fill="none" stroke="#bfbfbf" points="0,-95.5 0,-113.5 102.313,-113.5 102.313,-95.5 0,-95.5"/>
<text text-anchor="middle" x="51.1567" y="-101.5" font-family="Helvetica,sans-Serif" font-size="10.00">MHWalkerParams_</text>
</g>
<!-- Node3&#45;&gt;Node2 -->
<g id="edge1" class="edge"><title>Node3&#45;&gt;Node2</title>
<path fill="none" stroke="#9a32cd" stroke-dasharray="5,2" d="M48.1866,-85.1545C47.2343,-73.4326 47.8455,-58.3573 54.6841,-47 59.3318,-39.2812 66.6657,-33.1936 74.3565,-28.5123"/>
<polygon fill="#9a32cd" stroke="#9a32cd" points="44.7202,-85.6425 49.4263,-95.1347 51.6668,-84.7795 44.7202,-85.6425"/>
<text text-anchor="middle" x="97.3931" y="-59" font-family="Helvetica,sans-Serif" font-size="10.00"> mhwalker_params</text>
</g>
<!-- Node4 -->
<g id="node3" class="node"><title>Node4</title>
<polygon fill="none" stroke="#bfbfbf" points="120.632,-95.5 120.632,-113.5 201.681,-113.5 201.681,-95.5 120.632,-95.5"/>
<text text-anchor="middle" x="161.157" y="-101.5" font-family="Helvetica,sans-Serif" font-size="10.00">CountIntType_</text>
</g>
<!-- Node4&#45;&gt;Node2 -->
<g id="edge2" class="edge"><title>Node4&#45;&gt;Node2</title>
<path fill="none" stroke="#9a32cd" stroke-dasharray="5,2" d="M156.348,-85.4509C152.739,-73.8503 147.056,-58.7988 139.157,-47 134.662,-40.287 128.51,-33.9228 122.736,-28.695"/>
<polygon fill="#9a32cd" stroke="#9a32cd" points="153.052,-86.6525 159.177,-95.297 159.779,-84.7193 153.052,-86.6525"/>
<text text-anchor="middle" x="174.171" y="-69" font-family="Helvetica,sans-Serif" font-size="10.00"> n_run</text>
<text text-anchor="middle" x="174.171" y="-59" font-family="Helvetica,sans-Serif" font-size="10.00">n_therm</text>
<text text-anchor="middle" x="174.171" y="-49" font-family="Helvetica,sans-Serif" font-size="10.00">n_sweep</text>
</g>
</g>
</svg>
