<?xml version="1.0" encoding="UTF-8" standalone="no"?>
<!DOCTYPE svg PUBLIC "-//W3C//DTD SVG 1.1//EN"
 "http://www.w3.org/Graphics/SVG/1.1/DTD/svg11.dtd">
<!-- Generated by graphviz version 2.38.0 (20140413.2041)
 -->
<!-- Title: tomographer/valuecalculator.h Pages: 1 -->
<!--zoomable 247 -->
<svg id="main" version="1.1" xmlns="http://www.w3.org/2000/svg" xmlns:xlink="http://www.w3.org/1999/xlink" xml:space="preserve" onload="init(evt)">
<style type="text/css"><![CDATA[
.edge:hover path { stroke: red; }
.edge:hover polygon { stroke: red; fill: red; }
]]></style>
<script type="text/javascript"><![CDATA[
var edges = document.getElementsByTagName('g');
if (edges && edges.length) {
  for (var i=0;i<edges.length;i++) {
    if (edges[i].id.substr(0,4)=='edge') {
      edges[i].setAttribute('class','edge');
    }
  }
}
]]></script>
        <defs>
                <circle id="rim" cx="0" cy="0" r="7"/>
                <circle id="rim2" cx="0" cy="0" r="3.5"/>
                <g id="zoomPlus">
                        <use xlink:href="#rim" fill="#404040">
                                <set attributeName="fill" to="#808080" begin="zoomplus.mouseover" end="zoomplus.mouseout"/>
                        </use>
                        <path d="M-4,0h8M0,-4v8" fill="none" stroke="white" stroke-width="1.5" pointer-events="none"/>
                </g>
                <g id="zoomMin">
                        <use xlink:href="#rim" fill="#404040">
                                <set attributeName="fill" to="#808080" begin="zoomminus.mouseover" end="zoomminus.mouseout"/>
                        </use>
                        <path d="M-4,0h8" fill="none" stroke="white" stroke-width="1.5" pointer-events="none"/>
                </g>
                <g id="dirArrow">
                        <path fill="none" stroke="white" stroke-width="1.5" d="M0,-3.0v7 M-2.5,-0.5L0,-3.0L2.5,-0.5"/>
                </g>
               <g id="resetDef">
                       <use xlink:href="#rim2" fill="#404040">
                               <set attributeName="fill" to="#808080" begin="reset.mouseover" end="reset.mouseout"/>
                       </use>
               </g>
        </defs>

<script type="text/javascript">
var viewWidth = 864;
var viewHeight = 247;
var sectionId = 'dynsection-0';
</script>
<script xlink:href="svgpan.js"/>
<svg id="graph" class="graph">
<g id="viewport">
<title>tomographer/valuecalculator.h</title>
<!-- Node0 -->
<g id="node1" class="node"><title>Node0</title>
<polygon fill="#bfbfbf" stroke="black" points="370.653,-220.5 370.653,-238.5 520.628,-238.5 520.628,-220.5 370.653,-220.5"/>
<text text-anchor="middle" x="445.641" y="-226.5" font-family="Helvetica,sans-Serif" font-size="10.00">tomographer/valuecalculator.h</text>
</g>
<!-- Node1 -->
<g id="node2" class="node"><title>Node1</title>
<polygon fill="none" stroke="#bfbfbf" points="379.798,-165.5 379.798,-183.5 417.483,-183.5 417.483,-165.5 379.798,-165.5"/>
<text text-anchor="middle" x="398.641" y="-171.5" font-family="Helvetica,sans-Serif" font-size="10.00">tuple</text>
</g>
<!-- Node0&#45;&gt;Node1 -->
<g id="edge1" class="edge"><title>Node0&#45;&gt;Node1</title>
<path fill="none" stroke="midnightblue" d="M438.297,-220.219C431.428,-212.473 420.989,-200.701 412.546,-191.18"/>
<polygon fill="midnightblue" stroke="midnightblue" points="415.033,-188.709 405.779,-183.55 409.795,-193.354 415.033,-188.709"/>
</g>
<!-- Node2 -->
<g id="node3" class="node"><title>Node2</title>
<g id="a_node3"><a xlink:href="cxxutil_8h.html" target="_top" xlink:title="Some C++ utilities, with a tad of C++11 tricks. ">
<polygon fill="none" stroke="black" points="377.89,-110.5 377.89,-128.5 513.392,-128.5 513.392,-110.5 377.89,-110.5"/>
<text text-anchor="middle" x="445.641" y="-116.5" font-family="Helvetica,sans-Serif" font-size="10.00">tomographer/tools/cxxutil.h</text>
</a>
</g>
</g>
<!-- Node0&#45;&gt;Node2 -->
<g id="edge2" class="edge"><title>Node0&#45;&gt;Node2</title>
<path fill="none" stroke="midnightblue" d="M445.641,-220.382C445.641,-203.182 445.641,-162.698 445.641,-138.887"/>
<polygon fill="midnightblue" stroke="midnightblue" points="449.141,-138.712 445.641,-128.712 442.141,-138.712 449.141,-138.712"/>
</g>
<!-- Node16 -->
<g id="node17" class="node"><title>Node16</title>
<g id="a_node17"><a xlink:href="needownoperatornew_8h.html" target="_top" xlink:title="Managing the need for specific overrides to operator new() for some types (especially Eigen types) ...">
<polygon fill="none" stroke="black" points="473.964,-165.5 473.964,-183.5 677.317,-183.5 677.317,-165.5 473.964,-165.5"/>
<text text-anchor="middle" x="575.641" y="-171.5" font-family="Helvetica,sans-Serif" font-size="10.00">tomographer/tools/needownoperatornew.h</text>
</a>
</g>
</g>
<!-- Node0&#45;&gt;Node16 -->
<g id="edge19" class="edge"><title>Node0&#45;&gt;Node16</title>
<path fill="none" stroke="midnightblue" d="M465.385,-220.45C486.956,-211.656 521.727,-197.48 546.451,-187.401"/>
<polygon fill="midnightblue" stroke="midnightblue" points="547.772,-190.642 555.711,-183.625 545.129,-184.16 547.772,-190.642"/>
</g>
<!-- Node3 -->
<g id="node4" class="node"><title>Node3</title>
<polygon fill="none" stroke="#bfbfbf" points="121.525,-0.5 121.525,-18.5 169.756,-18.5 169.756,-0.5 121.525,-0.5"/>
<text text-anchor="middle" x="145.641" y="-6.5" font-family="Helvetica,sans-Serif" font-size="10.00">cassert</text>
</g>
<!-- Node2&#45;&gt;Node3 -->
<g id="edge3" class="edge"><title>Node2&#45;&gt;Node3</title>
<path fill="none" stroke="midnightblue" d="M377.706,-116.507C260.856,-112.372 31.9487,-100.903 7.64072,-74 -24.8778,-38.0103 60.5557,-20.9578 111.245,-14.2081"/>
<polygon fill="midnightblue" stroke="midnightblue" points="111.994,-17.6416 121.479,-12.9211 111.121,-10.6963 111.994,-17.6416"/>
</g>
<!-- Node4 -->
<g id="node5" class="node"><title>Node4</title>
<polygon fill="none" stroke="#bfbfbf" points="461.52,-0.5 461.52,-18.5 509.761,-18.5 509.761,-0.5 461.52,-0.5"/>
<text text-anchor="middle" x="485.641" y="-6.5" font-family="Helvetica,sans-Serif" font-size="10.00">cstddef</text>
</g>
<!-- Node2&#45;&gt;Node4 -->
<g id="edge4" class="edge"><title>Node2&#45;&gt;Node4</title>
<path fill="none" stroke="midnightblue" d="M491.891,-110.472C512.951,-104.256 535.962,-93.2894 548.641,-74 561.835,-53.926 536.082,-34.9265 513.632,-23.0323"/>
<polygon fill="midnightblue" stroke="midnightblue" points="515.16,-19.8832 504.651,-18.5365 512.026,-26.1427 515.16,-19.8832"/>
</g>
<!-- Node5 -->
<g id="node6" class="node"><title>Node5</title>
<polygon fill="none" stroke="#bfbfbf" points="564.468,-0.5 564.468,-18.5 608.813,-18.5 608.813,-0.5 564.468,-0.5"/>
<text text-anchor="middle" x="586.641" y="-6.5" font-family="Helvetica,sans-Serif" font-size="10.00">cstdlib</text>
</g>
<!-- Node2&#45;&gt;Node5 -->
<g id="edge5" class="edge"><title>Node2&#45;&gt;Node5</title>
<path fill="none" stroke="midnightblue" d="M494.169,-110.439C518.167,-104.177 545.923,-93.1791 564.641,-74 576.601,-61.7455 582.078,-42.6711 584.575,-28.6243"/>
<polygon fill="midnightblue" stroke="midnightblue" points="588.048,-29.0593 586.005,-18.6633 581.119,-28.0643 588.048,-29.0593"/>
</g>
<!-- Node6 -->
<g id="node7" class="node"><title>Node6</title>
<polygon fill="none" stroke="#bfbfbf" points="16.4684,-55.5 16.4684,-73.5 70.8131,-73.5 70.8131,-55.5 16.4684,-55.5"/>
<text text-anchor="middle" x="43.6407" y="-61.5" font-family="Helvetica,sans-Serif" font-size="10.00">iostream</text>
</g>
<!-- Node2&#45;&gt;Node6 -->
<g id="edge6" class="edge"><title>Node2&#45;&gt;Node6</title>
<path fill="none" stroke="midnightblue" d="M377.85,-112.528C306.287,-105.711 190.044,-93.186 80.9496,-74.0623"/>
<polygon fill="midnightblue" stroke="midnightblue" points="81.5506,-70.6143 71.0928,-72.3127 80.3271,-77.5066 81.5506,-70.6143"/>
</g>
<!-- Node7 -->
<g id="node8" class="node"><title>Node7</title>
<polygon fill="none" stroke="#bfbfbf" points="89.0226,-55.5 89.0226,-73.5 142.259,-73.5 142.259,-55.5 89.0226,-55.5"/>
<text text-anchor="middle" x="115.641" y="-61.5" font-family="Helvetica,sans-Serif" font-size="10.00">complex</text>
</g>
<!-- Node2&#45;&gt;Node7 -->
<g id="edge7" class="edge"><title>Node2&#45;&gt;Node7</title>
<path fill="none" stroke="midnightblue" d="M382.586,-110.473C325.095,-102.809 237.621,-90.2884 152.191,-73.961"/>
<polygon fill="midnightblue" stroke="midnightblue" points="152.807,-70.5154 142.325,-72.0564 151.48,-77.3885 152.807,-70.5154"/>
</g>
<!-- Node8 -->
<g id="node9" class="node"><title>Node8</title>
<polygon fill="none" stroke="#bfbfbf" points="793.574,-55.5 793.574,-73.5 855.707,-73.5 855.707,-55.5 793.574,-55.5"/>
<text text-anchor="middle" x="824.641" y="-61.5" font-family="Helvetica,sans-Serif" font-size="10.00">type_traits</text>
</g>
<!-- Node2&#45;&gt;Node8 -->
<g id="edge8" class="edge"><title>Node2&#45;&gt;Node8</title>
<path fill="none" stroke="midnightblue" d="M513.412,-111.197C579.803,-103.681 684.05,-90.9194 783.342,-74.1092"/>
<polygon fill="midnightblue" stroke="midnightblue" points="783.976,-77.5517 793.243,-72.4165 782.796,-70.6518 783.976,-77.5517"/>
</g>
<!-- Node9 -->
<g id="node10" class="node"><title>Node9</title>
<polygon fill="none" stroke="#bfbfbf" points="160.237,-55.5 160.237,-73.5 219.045,-73.5 219.045,-55.5 160.237,-55.5"/>
<text text-anchor="middle" x="189.641" y="-61.5" font-family="Helvetica,sans-Serif" font-size="10.00">exception</text>
</g>
<!-- Node2&#45;&gt;Node9 -->
<g id="edge9" class="edge"><title>Node2&#45;&gt;Node9</title>
<path fill="none" stroke="midnightblue" d="M405.615,-110.446C364.091,-102.056 297.006,-88.406 229.416,-74.1432"/>
<polygon fill="midnightblue" stroke="midnightblue" points="229.951,-70.679 219.443,-72.035 228.503,-77.5276 229.951,-70.679"/>
</g>
<!-- Node10 -->
<g id="node11" class="node"><title>Node10</title>
<polygon fill="none" stroke="#bfbfbf" points="237.239,-55.5 237.239,-73.5 296.042,-73.5 296.042,-55.5 237.239,-55.5"/>
<text text-anchor="middle" x="266.641" y="-61.5" font-family="Helvetica,sans-Serif" font-size="10.00">stdexcept</text>
</g>
<!-- Node2&#45;&gt;Node10 -->
<g id="edge10" class="edge"><title>Node2&#45;&gt;Node10</title>
<path fill="none" stroke="midnightblue" d="M418.454,-110.45C387.744,-101.357 337.602,-86.5108 303.413,-76.3879"/>
<polygon fill="midnightblue" stroke="midnightblue" points="304.371,-73.0215 293.789,-73.5383 302.384,-79.7334 304.371,-73.0215"/>
</g>
<!-- Node11 -->
<g id="node12" class="node"><title>Node11</title>
<g id="a_node12"><a xlink:href="cxxdefs_8h.html" target="_top" xlink:title="Basic definitions, which may have to be defined before any Eigen headers or further utilities are inc...">
<polygon fill="none" stroke="black" points="313.831,-55.5 313.831,-73.5 455.451,-73.5 455.451,-55.5 313.831,-55.5"/>
<text text-anchor="middle" x="384.641" y="-61.5" font-family="Helvetica,sans-Serif" font-size="10.00">tomographer/tools/cxxdefs.h</text>
</a>
</g>
</g>
<!-- Node2&#45;&gt;Node11 -->
<g id="edge11" class="edge"><title>Node2&#45;&gt;Node11</title>
<path fill="none" stroke="midnightblue" d="M436.376,-110.45C427.24,-102.512 413.056,-90.1891 401.849,-80.4519"/>
<polygon fill="midnightblue" stroke="midnightblue" points="403.837,-77.542 393.992,-73.6253 399.246,-82.8261 403.837,-77.542"/>
</g>
<!-- Node13 -->
<g id="node14" class="node"><title>Node13</title>
<g id="a_node14"><a xlink:href="conststr_8h.html" target="_top" xlink:title="A constexpr string type, suitable for basic compile&#45;time string processing. ">
<polygon fill="none" stroke="black" points="633.55,-55.5 633.55,-73.5 775.732,-73.5 775.732,-55.5 633.55,-55.5"/>
<text text-anchor="middle" x="704.641" y="-61.5" font-family="Helvetica,sans-Serif" font-size="10.00">tomographer/tools/conststr.h</text>
</a>
</g>
</g>
<!-- Node2&#45;&gt;Node13 -->
<g id="edge16" class="edge"><title>Node2&#45;&gt;Node13</title>
<path fill="none" stroke="midnightblue" d="M484.977,-110.45C530.652,-101.104 606.035,-85.678 655.519,-75.552"/>
<polygon fill="midnightblue" stroke="midnightblue" points="656.264,-78.9721 665.359,-73.5383 654.86,-72.1142 656.264,-78.9721"/>
</g>
<!-- Node15 -->
<g id="node16" class="node"><title>Node15</title>
<polygon fill="none" stroke="#bfbfbf" points="473.626,-55.5 473.626,-73.5 539.655,-73.5 539.655,-55.5 473.626,-55.5"/>
<text text-anchor="middle" x="506.641" y="-61.5" font-family="Helvetica,sans-Serif" font-size="10.00">Eigen/Core</text>
</g>
<!-- Node2&#45;&gt;Node15 -->
<g id="edge18" class="edge"><title>Node2&#45;&gt;Node15</title>
<path fill="none" stroke="midnightblue" d="M454.905,-110.45C464.042,-102.512 478.225,-90.1891 489.432,-80.4519"/>
<polygon fill="midnightblue" stroke="midnightblue" points="492.036,-82.8261 497.289,-73.6253 487.445,-77.542 492.036,-82.8261"/>
</g>
<!-- Node11&#45;&gt;Node3 -->
<g id="edge12" class="edge"><title>Node11&#45;&gt;Node3</title>
<path fill="none" stroke="midnightblue" d="M348.342,-55.4504C302.548,-45.2953 224.392,-27.9638 179.689,-18.0505"/>
<polygon fill="midnightblue" stroke="midnightblue" points="180.404,-14.624 169.883,-15.8759 178.888,-21.4579 180.404,-14.624"/>
</g>
<!-- Node11&#45;&gt;Node4 -->
<g id="edge13" class="edge"><title>Node11&#45;&gt;Node4</title>
<path fill="none" stroke="midnightblue" d="M399.98,-55.4504C416.22,-46.9286 442.09,-33.3532 461.155,-23.3487"/>
<polygon fill="midnightblue" stroke="midnightblue" points="462.928,-26.3712 470.157,-18.6253 459.675,-20.1728 462.928,-26.3712"/>
</g>
<!-- Node11&#45;&gt;Node5 -->
<g id="edge14" class="edge"><title>Node11&#45;&gt;Node5</title>
<path fill="none" stroke="midnightblue" d="M415.32,-55.4504C452.849,-45.6038 516.093,-29.0101 554.343,-18.974"/>
<polygon fill="midnightblue" stroke="midnightblue" points="555.643,-22.2516 564.427,-16.3283 553.866,-15.4808 555.643,-22.2516"/>
</g>
<!-- Node12 -->
<g id="node13" class="node"><title>Node12</title>
<polygon fill="none" stroke="#bfbfbf" points="344.673,-0.5 344.673,-18.5 424.608,-18.5 424.608,-0.5 344.673,-0.5"/>
<text text-anchor="middle" x="384.641" y="-6.5" font-family="Helvetica,sans-Serif" font-size="10.00">boost/predef.h</text>
</g>
<!-- Node11&#45;&gt;Node12 -->
<g id="edge15" class="edge"><title>Node11&#45;&gt;Node12</title>
<path fill="none" stroke="midnightblue" d="M384.641,-55.2188C384.641,-48.1769 384.641,-37.8083 384.641,-28.8277"/>
<polygon fill="midnightblue" stroke="midnightblue" points="388.141,-28.5495 384.641,-18.5496 381.141,-28.5496 388.141,-28.5495"/>
</g>
<!-- Node14 -->
<g id="node15" class="node"><title>Node14</title>
<polygon fill="none" stroke="#bfbfbf" points="684.414,-0.5 684.414,-18.5 724.867,-18.5 724.867,-0.5 684.414,-0.5"/>
<text text-anchor="middle" x="704.641" y="-6.5" font-family="Helvetica,sans-Serif" font-size="10.00">string</text>
</g>
<!-- Node13&#45;&gt;Node14 -->
<g id="edge17" class="edge"><title>Node13&#45;&gt;Node14</title>
<path fill="none" stroke="midnightblue" d="M704.641,-55.2188C704.641,-48.1769 704.641,-37.8083 704.641,-28.8277"/>
<polygon fill="midnightblue" stroke="midnightblue" points="708.141,-28.5495 704.641,-18.5496 701.141,-28.5496 708.141,-28.5495"/>
</g>
<!-- Node16&#45;&gt;Node2 -->
<g id="edge22" class="edge"><title>Node16&#45;&gt;Node2</title>
<path fill="none" stroke="midnightblue" d="M555.897,-165.45C534.326,-156.656 499.554,-142.48 474.831,-132.401"/>
<polygon fill="midnightblue" stroke="midnightblue" points="476.152,-129.16 465.571,-128.625 473.509,-135.642 476.152,-129.16"/>
</g>
<!-- Node16&#45;&gt;Node8 -->
<g id="edge20" class="edge"><title>Node16&#45;&gt;Node8</title>
<path fill="none" stroke="midnightblue" d="M594.356,-165.382C637.723,-146.573 745.291,-99.9168 796.577,-77.6723"/>
<polygon fill="midnightblue" stroke="midnightblue" points="798.266,-80.7546 806.048,-73.5644 795.481,-74.3327 798.266,-80.7546"/>
</g>
<!-- Node17 -->
<g id="node18" class="node"><title>Node17</title>
<polygon fill="none" stroke="#bfbfbf" points="540.675,-110.5 540.675,-128.5 610.606,-128.5 610.606,-110.5 540.675,-110.5"/>
<text text-anchor="middle" x="575.641" y="-116.5" font-family="Helvetica,sans-Serif" font-size="10.00">Eigen/Eigen</text>
</g>
<!-- Node16&#45;&gt;Node17 -->
<g id="edge21" class="edge"><title>Node16&#45;&gt;Node17</title>
<path fill="none" stroke="midnightblue" d="M575.641,-165.219C575.641,-158.177 575.641,-147.808 575.641,-138.828"/>
<polygon fill="midnightblue" stroke="midnightblue" points="579.141,-138.55 575.641,-128.55 572.141,-138.55 579.141,-138.55"/>
</g>
</g>
</svg>
        <g id="navigator" transform="translate(0 0)" fill="#404254">
                <rect fill="#f2f5e9" fill-opacity="0.5" stroke="#606060" stroke-width=".5" x="0" y="0" width="60" height="60"/>
                <use id="zoomplus" xlink:href="#zoomPlus" x="17" y="9" onmousedown="handleZoom(evt,'in')"/>
                <use id="zoomminus" xlink:href="#zoomMin" x="42" y="9" onmousedown="handleZoom(evt,'out')"/>
                <use id="reset" xlink:href="#resetDef" x="30" y="36" onmousedown="handleReset()"/>
                <g id="arrowUp" xlink:href="#dirArrow" transform="translate(30 24)" onmousedown="handlePan(0,-1)">
                  <use xlink:href="#rim" fill="#404040">
                        <set attributeName="fill" to="#808080" begin="arrowUp.mouseover" end="arrowUp.mouseout"/>
                  </use>
                  <path fill="none" stroke="white" stroke-width="1.5" d="M0,-3.0v7 M-2.5,-0.5L0,-3.0L2.5,-0.5"/>
                </g>
                <g id="arrowRight" xlink:href="#dirArrow" transform="rotate(90) translate(36 -43)" onmousedown="handlePan(1,0)">
                  <use xlink:href="#rim" fill="#404040">
                        <set attributeName="fill" to="#808080" begin="arrowRight.mouseover" end="arrowRight.mouseout"/>
                  </use>
                  <path fill="none" stroke="white" stroke-width="1.5" d="M0,-3.0v7 M-2.5,-0.5L0,-3.0L2.5,-0.5"/>
                </g>
                <g id="arrowDown" xlink:href="#dirArrow" transform="rotate(180) translate(-30 -48)" onmousedown="handlePan(0,1)">
                  <use xlink:href="#rim" fill="#404040">
                        <set attributeName="fill" to="#808080" begin="arrowDown.mouseover" end="arrowDown.mouseout"/>
                  </use>
                  <path fill="none" stroke="white" stroke-width="1.5" d="M0,-3.0v7 M-2.5,-0.5L0,-3.0L2.5,-0.5"/>
                </g>
                <g id="arrowLeft" xlink:href="#dirArrow" transform="rotate(270) translate(-36 17)" onmousedown="handlePan(-1,0)">
                  <use xlink:href="#rim" fill="#404040">
                        <set attributeName="fill" to="#808080" begin="arrowLeft.mouseover" end="arrowLeft.mouseout"/>
                  </use>
                  <path fill="none" stroke="white" stroke-width="1.5" d="M0,-3.0v7 M-2.5,-0.5L0,-3.0L2.5,-0.5"/>
                </g>
        </g>
        <svg viewBox="0 0 15 15" width="100%" height="30px" preserveAspectRatio="xMaxYMin meet">
         <g id="arrow_out" transform="scale(0.3 0.3)">
          <a xlink:href="valuecalculator_8h__incl_org.svg" target="_base">
           <rect id="button" ry="5" rx="5" y="6" x="6" height="38" width="38"
                fill="#f2f5e9" fill-opacity="0.5" stroke="#606060" stroke-width="1.0"/>
           <path id="arrow"
             d="M 11.500037,31.436501 C 11.940474,20.09759 22.043105,11.32322 32.158766,21.979434 L 37.068811,17.246167 C 37.068811,17.246167 37.088388,32 37.088388,32 L 22.160133,31.978069 C 22.160133,31.978069 26.997745,27.140456 26.997745,27.140456 C 18.528582,18.264221 13.291696,25.230495 11.500037,31.436501 z"
             style="fill:#404040;"/>
          </a>
         </g>
        </svg>
</svg>
