<?xml version="1.0" encoding="UTF-8" standalone="no"?>
<!DOCTYPE svg PUBLIC "-//W3C//DTD SVG 1.1//EN"
 "http://www.w3.org/Graphics/SVG/1.1/DTD/svg11.dtd">
<!-- Generated by graphviz version 2.38.0 (20140413.2041)
 -->
<!-- Title: tomographer/densedm/dmtypes.h Pages: 1 -->
<svg width="530pt" height="102pt"
 viewBox="0.00 0.00 529.62 102.00" xmlns="http://www.w3.org/2000/svg" xmlns:xlink="http://www.w3.org/1999/xlink">
<g id="graph0" class="graph" transform="scale(1 1) rotate(0) translate(4 98)">
<title>tomographer/densedm/dmtypes.h</title>
<!-- Node15 -->
<g id="node1" class="node"><title>Node15</title>
<polygon fill="#bfbfbf" stroke="black" points="202,-65.5 202,-93.5 318.615,-93.5 318.615,-65.5 202,-65.5"/>
<text text-anchor="start" x="210" y="-81.5" font-family="Helvetica,sans-Serif" font-size="10.00">tomographer/densedm</text>
<text text-anchor="middle" x="260.308" y="-71.5" font-family="Helvetica,sans-Serif" font-size="10.00">/dmtypes.h</text>
</g>
<!-- Node16 -->
<g id="node2" class="node"><title>Node16</title>
<g id="a_node2"><a xlink:href="indepmeasllh_8h.html" target="_top" xlink:title="C++ types and functions for calculating the log&#45;likelihood for independent measurements. ">
<polygon fill="none" stroke="black" points="0,-0.5 0,-28.5 116.615,-28.5 116.615,-0.5 0,-0.5"/>
<text text-anchor="start" x="8" y="-16.5" font-family="Helvetica,sans-Serif" font-size="10.00">tomographer/densedm</text>
<text text-anchor="middle" x="58.3076" y="-6.5" font-family="Helvetica,sans-Serif" font-size="10.00">/indepmeasllh.h</text>
</a>
</g>
</g>
<!-- Node15&#45;&gt;Node16 -->
<g id="edge1" class="edge"><title>Node15&#45;&gt;Node16</title>
<path fill="none" stroke="midnightblue" d="M208.782,-62.4302C175.092,-51.9229 131.649,-38.3736 100.109,-28.5369"/>
<polygon fill="midnightblue" stroke="midnightblue" points="207.864,-65.8102 218.453,-65.4464 209.949,-59.1277 207.864,-65.8102"/>
</g>
<!-- Node17 -->
<g id="node3" class="node"><title>Node17</title>
<g id="a_node3"><a xlink:href="param__rho__a_8h.html" target="_top" xlink:title="Tools for parameterizing density matrices with the A Parameterization. ">
<polygon fill="none" stroke="black" points="135,-0.5 135,-28.5 251.615,-28.5 251.615,-0.5 135,-0.5"/>
<text text-anchor="start" x="143" y="-16.5" font-family="Helvetica,sans-Serif" font-size="10.00">tomographer/densedm</text>
<text text-anchor="middle" x="193.308" y="-6.5" font-family="Helvetica,sans-Serif" font-size="10.00">/param_rho_a.h</text>
</a>
</g>
</g>
<!-- Node15&#45;&gt;Node17 -->
<g id="edge2" class="edge"><title>Node15&#45;&gt;Node17</title>
<path fill="none" stroke="midnightblue" d="M238.909,-58.3785C228.517,-48.6076 216.332,-37.1493 207.172,-28.5369"/>
<polygon fill="midnightblue" stroke="midnightblue" points="236.742,-61.1459 246.425,-65.4464 241.538,-56.0462 236.742,-61.1459"/>
</g>
<!-- Node18 -->
<g id="node4" class="node"><title>Node18</title>
<g id="a_node4"><a xlink:href="tspacefigofmerit_8h.html" target="_top" xlink:title="Implement some standard figures of merit for when integrating in T space densely represented density ...">
<polygon fill="none" stroke="black" points="270,-0.5 270,-28.5 386.615,-28.5 386.615,-0.5 270,-0.5"/>
<text text-anchor="start" x="278" y="-16.5" font-family="Helvetica,sans-Serif" font-size="10.00">tomographer/densedm</text>
<text text-anchor="middle" x="328.308" y="-6.5" font-family="Helvetica,sans-Serif" font-size="10.00">/tspacefigofmerit.h</text>
</a>
</g>
</g>
<!-- Node15&#45;&gt;Node18 -->
<g id="edge3" class="edge"><title>Node15&#45;&gt;Node18</title>
<path fill="none" stroke="midnightblue" d="M282.026,-58.3785C292.572,-48.6076 304.94,-37.1493 314.236,-28.5369"/>
<polygon fill="midnightblue" stroke="midnightblue" points="279.354,-56.0826 274.397,-65.4464 284.112,-61.2176 279.354,-56.0826"/>
</g>
<!-- Node19 -->
<g id="node5" class="node"><title>Node19</title>
<g id="a_node5"><a xlink:href="tspacellhwalker_8h.html" target="_top" xlink:title="Definitions for a Metropolis&#45;Hastings random walk on a quantum state space with dense matrix type...">
<polygon fill="none" stroke="black" points="405,-0.5 405,-28.5 521.615,-28.5 521.615,-0.5 405,-0.5"/>
<text text-anchor="start" x="413" y="-16.5" font-family="Helvetica,sans-Serif" font-size="10.00">tomographer/densedm</text>
<text text-anchor="middle" x="463.308" y="-6.5" font-family="Helvetica,sans-Serif" font-size="10.00">/tspacellhwalker.h</text>
</a>
</g>
</g>
<!-- Node15&#45;&gt;Node19 -->
<g id="edge4" class="edge"><title>Node15&#45;&gt;Node19</title>
<path fill="none" stroke="midnightblue" d="M312.088,-62.4302C345.945,-51.9229 389.604,-38.3736 421.3,-28.5369"/>
<polygon fill="midnightblue" stroke="midnightblue" points="310.883,-59.1396 302.369,-65.4464 312.957,-65.825 310.883,-59.1396"/>
</g>
</g>
</svg>
