<?xml version="1.0" encoding="UTF-8" standalone="no"?>
<!DOCTYPE svg PUBLIC "-//W3C//DTD SVG 1.1//EN"
 "http://www.w3.org/Graphics/SVG/1.1/DTD/svg11.dtd">
<!-- Generated by graphviz version 2.38.0 (20140413.2041)
 -->
<!-- Title: tomographer/tools/eigenutil.h Pages: 1 -->
<svg width="705pt" height="277pt"
 viewBox="0.00 0.00 704.67 277.00" xmlns="http://www.w3.org/2000/svg" xmlns:xlink="http://www.w3.org/1999/xlink">
<g id="graph0" class="graph" transform="scale(1 1) rotate(0) translate(4 273)">
<title>tomographer/tools/eigenutil.h</title>
<!-- Node6 -->
<g id="node1" class="node"><title>Node6</title>
<polygon fill="#bfbfbf" stroke="black" points="266.823,-250.5 266.823,-268.5 411.792,-268.5 411.792,-250.5 266.823,-250.5"/>
<text text-anchor="middle" x="339.308" y="-256.5" font-family="Helvetica,sans-Serif" font-size="10.00">tomographer/tools/eigenutil.h</text>
</g>
<!-- Node7 -->
<g id="node2" class="node"><title>Node7</title>
<g id="a_node2"><a xlink:href="param__rho__a_8h.html" target="_top" xlink:title="Tools for parameterizing density matrices with the A Parameterization. ">
<polygon fill="none" stroke="black" points="0,-185.5 0,-213.5 116.615,-213.5 116.615,-185.5 0,-185.5"/>
<text text-anchor="start" x="8" y="-201.5" font-family="Helvetica,sans-Serif" font-size="10.00">tomographer/densedm</text>
<text text-anchor="middle" x="58.3076" y="-191.5" font-family="Helvetica,sans-Serif" font-size="10.00">/param_rho_a.h</text>
</a>
</g>
</g>
<!-- Node6&#45;&gt;Node7 -->
<g id="edge1" class="edge"><title>Node6&#45;&gt;Node7</title>
<path fill="none" stroke="midnightblue" d="M290.626,-248.452C242.296,-238.476 168.176,-223.178 116.704,-212.553"/>
<polygon fill="midnightblue" stroke="midnightblue" points="290.03,-251.902 300.531,-250.496 291.445,-245.047 290.03,-251.902"/>
</g>
<!-- Node8 -->
<g id="node3" class="node"><title>Node8</title>
<g id="a_node3"><a xlink:href="histogram_8h.html" target="_top" xlink:title="Definitions for Histogram Types. ">
<polygon fill="none" stroke="black" points="134.446,-190.5 134.446,-208.5 262.169,-208.5 262.169,-190.5 134.446,-190.5"/>
<text text-anchor="middle" x="198.308" y="-196.5" font-family="Helvetica,sans-Serif" font-size="10.00">tomographer/histogram.h</text>
</a>
</g>
</g>
<!-- Node6&#45;&gt;Node8 -->
<g id="edge2" class="edge"><title>Node6&#45;&gt;Node8</title>
<path fill="none" stroke="midnightblue" d="M310.214,-246.532C282.713,-235.22 242.192,-218.552 218.201,-208.683"/>
<polygon fill="midnightblue" stroke="midnightblue" points="309.123,-249.868 319.702,-250.435 311.786,-243.394 309.123,-249.868"/>
</g>
<!-- Node12 -->
<g id="node7" class="node"><title>Node12</title>
<g id="a_node7"><a xlink:href="random__unitary_8h.html" target="_top" xlink:title="Produce a random unitary according to the Haar measure. ">
<polygon fill="none" stroke="black" points="279.892,-185.5 279.892,-213.5 398.724,-213.5 398.724,-185.5 279.892,-185.5"/>
<text text-anchor="start" x="287.892" y="-201.5" font-family="Helvetica,sans-Serif" font-size="10.00">tomographer/mathtools</text>
<text text-anchor="middle" x="339.308" y="-191.5" font-family="Helvetica,sans-Serif" font-size="10.00">/random_unitary.h</text>
</a>
</g>
</g>
<!-- Node6&#45;&gt;Node12 -->
<g id="edge7" class="edge"><title>Node6&#45;&gt;Node12</title>
<path fill="none" stroke="midnightblue" d="M339.308,-240.321C339.308,-231.747 339.308,-221.7 339.308,-213.843"/>
<polygon fill="midnightblue" stroke="midnightblue" points="335.808,-240.435 339.308,-250.435 342.808,-240.435 335.808,-240.435"/>
</g>
<!-- Node13 -->
<g id="node8" class="node"><title>Node13</title>
<g id="a_node8"><a xlink:href="mhrw__bin__err_8h.html" target="_top" xlink:title="Binning Analysis in a Metropolis&#45;Hastings random walk. ">
<polygon fill="none" stroke="black" points="416.894,-185.5 416.894,-213.5 535.721,-213.5 535.721,-185.5 416.894,-185.5"/>
<text text-anchor="start" x="424.894" y="-201.5" font-family="Helvetica,sans-Serif" font-size="10.00">tomographer/mhrw_bin</text>
<text text-anchor="middle" x="476.308" y="-191.5" font-family="Helvetica,sans-Serif" font-size="10.00">_err.h</text>
</a>
</g>
</g>
<!-- Node6&#45;&gt;Node13 -->
<g id="edge8" class="edge"><title>Node6&#45;&gt;Node13</title>
<path fill="none" stroke="midnightblue" d="M367.794,-246.44C390.517,-236.82 422.286,-223.371 445.578,-213.51"/>
<polygon fill="midnightblue" stroke="midnightblue" points="366.201,-243.314 358.357,-250.435 368.93,-249.76 366.201,-243.314"/>
</g>
<!-- Node16 -->
<g id="node11" class="node"><title>Node16</title>
<g id="a_node11"><a xlink:href="ezmatio_8h.html" target="_top" xlink:title="Utilities for reading MATLAB &quot;*.mat&quot; data files. See Tomographer::MAT. ">
<polygon fill="none" stroke="black" points="553.941,-190.5 553.941,-208.5 696.674,-208.5 696.674,-190.5 553.941,-190.5"/>
<text text-anchor="middle" x="625.308" y="-196.5" font-family="Helvetica,sans-Serif" font-size="10.00">tomographer/tools/ezmatio.h</text>
</a>
</g>
</g>
<!-- Node6&#45;&gt;Node16 -->
<g id="edge13" class="edge"><title>Node6&#45;&gt;Node16</title>
<path fill="none" stroke="midnightblue" d="M388.793,-248.465C444.648,-237.137 534.404,-218.935 585.787,-208.515"/>
<polygon fill="midnightblue" stroke="midnightblue" points="387.879,-245.078 378.774,-250.496 389.271,-251.939 387.879,-245.078"/>
</g>
<!-- Node9 -->
<g id="node4" class="node"><title>Node9</title>
<g id="a_node4"><a xlink:href="mhrwstatscollectors_8h.html" target="_top" xlink:title="Definitions for MHRWStatsCollector Interface&#39;s. ">
<polygon fill="none" stroke="black" points="212.5,-130.5 212.5,-148.5 384.115,-148.5 384.115,-130.5 212.5,-130.5"/>
<text text-anchor="middle" x="298.308" y="-136.5" font-family="Helvetica,sans-Serif" font-size="10.00">tomographer/mhrwstatscollectors.h</text>
</a>
</g>
</g>
<!-- Node8&#45;&gt;Node9 -->
<g id="edge3" class="edge"><title>Node8&#45;&gt;Node9</title>
<path fill="none" stroke="midnightblue" d="M221.028,-185.322C240.448,-174.059 267.781,-158.205 284.199,-148.683"/>
<polygon fill="midnightblue" stroke="midnightblue" points="219.106,-182.391 212.212,-190.435 222.619,-188.446 219.106,-182.391"/>
</g>
<!-- Node10 -->
<g id="node5" class="node"><title>Node10</title>
<g id="a_node5"><a xlink:href="mhrw__valuehist__tasks_8h.html" target="_top" xlink:title="Tasks for collecting a histogram of values during a Metropolis&#45;Hastings random walk. ">
<polygon fill="none" stroke="black" points="253.833,-0.5 253.833,-28.5 398.783,-28.5 398.783,-0.5 253.833,-0.5"/>
<text text-anchor="start" x="261.833" y="-16.5" font-family="Helvetica,sans-Serif" font-size="10.00">tomographer/mhrw_valuehist</text>
<text text-anchor="middle" x="326.308" y="-6.5" font-family="Helvetica,sans-Serif" font-size="10.00">_tasks.h</text>
</a>
</g>
</g>
<!-- Node9&#45;&gt;Node10 -->
<g id="edge4" class="edge"><title>Node9&#45;&gt;Node10</title>
<path fill="none" stroke="midnightblue" d="M295.747,-120.111C294.254,-105.04 293.493,-83.2903 298.308,-65 301.826,-51.6327 309.87,-38.0818 316.438,-28.5459"/>
<polygon fill="midnightblue" stroke="midnightblue" points="292.287,-120.655 296.952,-130.167 299.238,-119.822 292.287,-120.655"/>
</g>
<!-- Node11 -->
<g id="node6" class="node"><title>Node11</title>
<g id="a_node6"><a xlink:href="mhrwtasks_8h.html" target="_top" xlink:title="Multiprocessing tasks interface (see Multiprocessing Task Interfaces) for parallel Metropolis&#45;Hasting...">
<polygon fill="none" stroke="black" points="307.507,-70.5 307.507,-88.5 439.108,-88.5 439.108,-70.5 307.507,-70.5"/>
<text text-anchor="middle" x="373.308" y="-76.5" font-family="Helvetica,sans-Serif" font-size="10.00">tomographer/mhrwtasks.h</text>
</a>
</g>
</g>
<!-- Node9&#45;&gt;Node11 -->
<g id="edge5" class="edge"><title>Node9&#45;&gt;Node11</title>
<path fill="none" stroke="midnightblue" d="M316.909,-124.115C331.249,-113.025 350.581,-98.0751 362.482,-88.8718"/>
<polygon fill="midnightblue" stroke="midnightblue" points="314.505,-121.549 308.736,-130.435 318.788,-127.087 314.505,-121.549"/>
</g>
<!-- Node11&#45;&gt;Node10 -->
<g id="edge6" class="edge"><title>Node11&#45;&gt;Node10</title>
<path fill="none" stroke="midnightblue" d="M361.036,-62.0506C353.308,-51.6916 343.462,-38.4937 336.228,-28.7981"/>
<polygon fill="midnightblue" stroke="midnightblue" points="358.378,-64.3415 367.163,-70.2639 363.989,-60.1557 358.378,-64.3415"/>
</g>
<!-- Node13&#45;&gt;Node9 -->
<g id="edge12" class="edge"><title>Node13&#45;&gt;Node9</title>
<path fill="none" stroke="midnightblue" d="M426.669,-182.326C392.924,-171.33 349.724,-157.254 323.039,-148.559"/>
<polygon fill="midnightblue" stroke="midnightblue" points="425.769,-185.713 436.361,-185.484 427.937,-179.058 425.769,-185.713"/>
</g>
<!-- Node14 -->
<g id="node9" class="node"><title>Node14</title>
<g id="a_node9"><a xlink:href="mhrw_8h.html" target="_top" xlink:title="Routines for performing a Metropolis&#45;Hastings random walk. ">
<polygon fill="none" stroke="black" points="422.451,-130.5 422.451,-148.5 530.165,-148.5 530.165,-130.5 422.451,-130.5"/>
<text text-anchor="middle" x="476.308" y="-136.5" font-family="Helvetica,sans-Serif" font-size="10.00">tomographer/mhrw.h</text>
</a>
</g>
</g>
<!-- Node13&#45;&gt;Node14 -->
<g id="edge9" class="edge"><title>Node13&#45;&gt;Node14</title>
<path fill="none" stroke="midnightblue" d="M476.308,-175.323C476.308,-165.936 476.308,-155.7 476.308,-148.771"/>
<polygon fill="midnightblue" stroke="midnightblue" points="472.808,-175.339 476.308,-185.339 479.808,-175.339 472.808,-175.339"/>
</g>
<!-- Node14&#45;&gt;Node11 -->
<g id="edge11" class="edge"><title>Node14&#45;&gt;Node11</title>
<path fill="none" stroke="midnightblue" d="M453.178,-125.476C433.159,-114.203 404.827,-98.2486 387.84,-88.6831"/>
<polygon fill="midnightblue" stroke="midnightblue" points="451.555,-128.578 461.986,-130.435 454.99,-122.479 451.555,-128.578"/>
</g>
<!-- Node15 -->
<g id="node10" class="node"><title>Node15</title>
<g id="a_node10"><a xlink:href="tspacellhwalker_8h.html" target="_top" xlink:title="Definitions for a Metropolis&#45;Hastings random walk on a quantum state space with dense matrix type...">
<polygon fill="none" stroke="black" points="457,-65.5 457,-93.5 573.615,-93.5 573.615,-65.5 457,-65.5"/>
<text text-anchor="start" x="465" y="-81.5" font-family="Helvetica,sans-Serif" font-size="10.00">tomographer/densedm</text>
<text text-anchor="middle" x="515.308" y="-71.5" font-family="Helvetica,sans-Serif" font-size="10.00">/tspacellhwalker.h</text>
</a>
</g>
</g>
<!-- Node14&#45;&gt;Node15 -->
<g id="edge10" class="edge"><title>Node14&#45;&gt;Node15</title>
<path fill="none" stroke="midnightblue" d="M487.38,-122.034C493.379,-113.112 500.696,-102.23 506.336,-93.8428"/>
<polygon fill="midnightblue" stroke="midnightblue" points="484.406,-120.184 481.73,-130.435 490.215,-124.09 484.406,-120.184"/>
</g>
</g>
</svg>
