<?xml version="1.0" encoding="UTF-8" standalone="no"?>
<!DOCTYPE svg PUBLIC "-//W3C//DTD SVG 1.1//EN"
 "http://www.w3.org/Graphics/SVG/1.1/DTD/svg11.dtd">
<!-- Generated by graphviz version 2.38.0 (20140413.2041)
 -->
<!-- Title: tomographer/mhrw_bin_err.h Pages: 1 -->
<svg width="1373pt" height="322pt"
 viewBox="0.00 0.00 1372.92 322.00" xmlns="http://www.w3.org/2000/svg" xmlns:xlink="http://www.w3.org/1999/xlink">
<g id="graph0" class="graph" transform="scale(1 1) rotate(0) translate(4 318)">
<title>tomographer/mhrw_bin_err.h</title>
<!-- Node0 -->
<g id="node1" class="node"><title>Node0</title>
<polygon fill="#bfbfbf" stroke="black" points="922.891,-285.5 922.891,-313.5 1041.72,-313.5 1041.72,-285.5 922.891,-285.5"/>
<text text-anchor="start" x="930.891" y="-301.5" font-family="Helvetica,sans-Serif" font-size="10.00">tomographer/mhrw_bin</text>
<text text-anchor="middle" x="982.305" y="-291.5" font-family="Helvetica,sans-Serif" font-size="10.00">_err.h</text>
</g>
<!-- Node1 -->
<g id="node2" class="node"><title>Node1</title>
<g id="a_node2"><a xlink:href="loggers_8h.html" target="_top" xlink:title="Utilities for logging messages. ">
<polygon fill="none" stroke="black" points="326.046,-225.5 326.046,-243.5 466.563,-243.5 466.563,-225.5 326.046,-225.5"/>
<text text-anchor="middle" x="396.305" y="-231.5" font-family="Helvetica,sans-Serif" font-size="10.00">tomographer/tools/loggers.h</text>
</a>
</g>
</g>
<!-- Node0&#45;&gt;Node1 -->
<g id="edge1" class="edge"><title>Node0&#45;&gt;Node1</title>
<path fill="none" stroke="midnightblue" d="M922.891,-292.113C817.149,-280.744 596.225,-256.993 476.9,-244.165"/>
<polygon fill="midnightblue" stroke="midnightblue" points="477.047,-240.66 466.73,-243.071 476.299,-247.62 477.047,-240.66"/>
</g>
<!-- Node14 -->
<g id="node15" class="node"><title>Node14</title>
<g id="a_node15"><a xlink:href="cxxutil_8h.html" target="_top" xlink:title="Some C++ utilities, with a tad of C++11 tricks. ">
<polygon fill="none" stroke="black" points="650.554,-110.5 650.554,-128.5 786.055,-128.5 786.055,-110.5 650.554,-110.5"/>
<text text-anchor="middle" x="718.305" y="-116.5" font-family="Helvetica,sans-Serif" font-size="10.00">tomographer/tools/cxxutil.h</text>
</a>
</g>
</g>
<!-- Node0&#45;&gt;Node14 -->
<g id="edge42" class="edge"><title>Node0&#45;&gt;Node14</title>
<path fill="none" stroke="midnightblue" d="M962.892,-285.411C914.353,-252.684 788.069,-167.539 738.601,-134.185"/>
<polygon fill="midnightblue" stroke="midnightblue" points="740.542,-131.272 730.294,-128.584 736.629,-137.076 740.542,-131.272"/>
</g>
<!-- Node24 -->
<g id="node25" class="node"><title>Node24</title>
<g id="a_node25"><a xlink:href="eigenutil_8h.html" target="_top" xlink:title="Basic utilities for dealing with Eigen matrices and other types. ">
<polygon fill="none" stroke="black" points="1064.82,-110.5 1064.82,-128.5 1209.79,-128.5 1209.79,-110.5 1064.82,-110.5"/>
<text text-anchor="middle" x="1137.3" y="-116.5" font-family="Helvetica,sans-Serif" font-size="10.00">tomographer/tools/eigenutil.h</text>
</a>
</g>
</g>
<!-- Node0&#45;&gt;Node24 -->
<g id="edge36" class="edge"><title>Node0&#45;&gt;Node24</title>
<path fill="none" stroke="midnightblue" d="M996.387,-285.427C1018.24,-264.833 1061.14,-223.143 1093.3,-184 1105.78,-168.825 1118.38,-150.23 1126.88,-137.095"/>
<polygon fill="midnightblue" stroke="midnightblue" points="1129.86,-138.936 1132.29,-128.623 1123.96,-135.171 1129.86,-138.936"/>
</g>
<!-- Node28 -->
<g id="node29" class="node"><title>Node28</title>
<g id="a_node29"><a xlink:href="needownoperatornew_8h.html" target="_top" xlink:title="Managing the need for specific overrides to operator new() for some types (especially Eigen types) ...">
<polygon fill="none" stroke="black" points="880.628,-165.5 880.628,-183.5 1083.98,-183.5 1083.98,-165.5 880.628,-165.5"/>
<text text-anchor="middle" x="982.305" y="-171.5" font-family="Helvetica,sans-Serif" font-size="10.00">tomographer/tools/needownoperatornew.h</text>
</a>
</g>
</g>
<!-- Node0&#45;&gt;Node28 -->
<g id="edge43" class="edge"><title>Node0&#45;&gt;Node28</title>
<path fill="none" stroke="midnightblue" d="M982.305,-285.337C982.305,-263.294 982.305,-218.873 982.305,-193.801"/>
<polygon fill="midnightblue" stroke="midnightblue" points="985.805,-193.511 982.305,-183.511 978.805,-193.511 985.805,-193.511"/>
</g>
<!-- Node30 -->
<g id="node31" class="node"><title>Node30</title>
<polygon fill="none" stroke="#bfbfbf" points="1140.78,-220.5 1140.78,-248.5 1251.83,-248.5 1251.83,-220.5 1140.78,-220.5"/>
<text text-anchor="start" x="1148.78" y="-236.5" font-family="Helvetica,sans-Serif" font-size="10.00">boost/math/constants</text>
<text text-anchor="middle" x="1196.3" y="-226.5" font-family="Helvetica,sans-Serif" font-size="10.00">/constants.hpp</text>
</g>
<!-- Node0&#45;&gt;Node30 -->
<g id="edge47" class="edge"><title>Node0&#45;&gt;Node30</title>
<path fill="none" stroke="midnightblue" d="M1026.65,-285.446C1060.22,-275.563 1106.49,-261.939 1142.24,-251.417"/>
<polygon fill="midnightblue" stroke="midnightblue" points="1143.42,-254.719 1152.02,-248.537 1141.44,-248.004 1143.42,-254.719"/>
</g>
<!-- Node2 -->
<g id="node3" class="node"><title>Node2</title>
<polygon fill="none" stroke="#bfbfbf" points="12.243,-110.5 12.243,-128.5 54.366,-128.5 54.366,-110.5 12.243,-110.5"/>
<text text-anchor="middle" x="33.3045" y="-116.5" font-family="Helvetica,sans-Serif" font-size="10.00">cstdio</text>
</g>
<!-- Node1&#45;&gt;Node2 -->
<g id="edge2" class="edge"><title>Node1&#45;&gt;Node2</title>
<path fill="none" stroke="midnightblue" d="M325.955,-230.597C241.101,-225.819 104.791,-213.663 64.3045,-184 49.4791,-173.138 41.3891,-153.242 37.2285,-138.606"/>
<polygon fill="midnightblue" stroke="midnightblue" points="40.5701,-137.539 34.7663,-128.676 33.7758,-139.224 40.5701,-137.539"/>
</g>
<!-- Node3 -->
<g id="node4" class="node"><title>Node3</title>
<polygon fill="none" stroke="#bfbfbf" points="273.908,-110.5 273.908,-128.5 322.701,-128.5 322.701,-110.5 273.908,-110.5"/>
<text text-anchor="middle" x="298.305" y="-116.5" font-family="Helvetica,sans-Serif" font-size="10.00">cstdarg</text>
</g>
<!-- Node1&#45;&gt;Node3 -->
<g id="edge3" class="edge"><title>Node1&#45;&gt;Node3</title>
<path fill="none" stroke="midnightblue" d="M375.846,-225.358C358.197,-217.338 333.257,-203.457 318.305,-184 308.181,-170.826 303.12,-152.425 300.629,-138.821"/>
<polygon fill="midnightblue" stroke="midnightblue" points="304.059,-138.097 299.086,-128.742 297.139,-139.156 304.059,-138.097"/>
</g>
<!-- Node4 -->
<g id="node5" class="node"><title>Node4</title>
<polygon fill="none" stroke="#bfbfbf" points="183.078,-0.5 183.078,-18.5 223.531,-18.5 223.531,-0.5 183.078,-0.5"/>
<text text-anchor="middle" x="203.305" y="-6.5" font-family="Helvetica,sans-Serif" font-size="10.00">string</text>
</g>
<!-- Node1&#45;&gt;Node4 -->
<g id="edge4" class="edge"><title>Node1&#45;&gt;Node4</title>
<path fill="none" stroke="midnightblue" d="M325.694,-229.966C236.929,-224.44 90.5596,-211.411 44.3045,-184 18.0751,-168.457 12.9038,-157.938 3.30451,-129 -21.8006,-53.3171 110.967,-23.8721 172.881,-14.3736"/>
<polygon fill="midnightblue" stroke="midnightblue" points="173.478,-17.8236 182.87,-12.9203 172.471,-10.8965 173.478,-17.8236"/>
</g>
<!-- Node5 -->
<g id="node6" class="node"><title>Node5</title>
<polygon fill="none" stroke="#bfbfbf" points="418.524,-110.5 418.524,-128.5 470.085,-128.5 470.085,-110.5 418.524,-110.5"/>
<text text-anchor="middle" x="444.305" y="-116.5" font-family="Helvetica,sans-Serif" font-size="10.00">sstream</text>
</g>
<!-- Node1&#45;&gt;Node5 -->
<g id="edge5" class="edge"><title>Node1&#45;&gt;Node5</title>
<path fill="none" stroke="midnightblue" d="M453.59,-225.459C478.761,-218.763 506.021,-206.491 521.305,-184 536.289,-161.95 505.448,-143.467 478.452,-132.229"/>
<polygon fill="midnightblue" stroke="midnightblue" points="479.732,-128.971 469.145,-128.562 477.166,-135.484 479.732,-128.971"/>
</g>
<!-- Node6 -->
<g id="node7" class="node"><title>Node6</title>
<polygon fill="none" stroke="#bfbfbf" points="231.132,-55.5 231.132,-73.5 285.477,-73.5 285.477,-55.5 231.132,-55.5"/>
<text text-anchor="middle" x="258.305" y="-61.5" font-family="Helvetica,sans-Serif" font-size="10.00">iostream</text>
</g>
<!-- Node1&#45;&gt;Node6 -->
<g id="edge6" class="edge"><title>Node1&#45;&gt;Node6</title>
<path fill="none" stroke="midnightblue" d="M466.644,-225.523C509.082,-217.086 552.297,-199.879 537.305,-165 493.007,-61.9462 411.65,-96.233 295.661,-74.1132"/>
<polygon fill="midnightblue" stroke="midnightblue" points="296.293,-70.6702 285.796,-72.1096 294.9,-77.5302 296.293,-70.6702"/>
</g>
<!-- Node7 -->
<g id="node8" class="node"><title>Node7</title>
<polygon fill="none" stroke="#bfbfbf" points="212.901,-165.5 212.901,-183.5 271.708,-183.5 271.708,-165.5 212.901,-165.5"/>
<text text-anchor="middle" x="242.305" y="-171.5" font-family="Helvetica,sans-Serif" font-size="10.00">functional</text>
</g>
<!-- Node1&#45;&gt;Node7 -->
<g id="edge7" class="edge"><title>Node1&#45;&gt;Node7</title>
<path fill="none" stroke="midnightblue" d="M374.891,-225.435C348.606,-215.536 303.815,-198.666 273.653,-187.306"/>
<polygon fill="midnightblue" stroke="midnightblue" points="274.624,-183.932 264.032,-183.683 272.157,-190.483 274.624,-183.932"/>
</g>
<!-- Node8 -->
<g id="node9" class="node"><title>Node8</title>
<polygon fill="none" stroke="#bfbfbf" points="890.238,-55.5 890.238,-73.5 952.371,-73.5 952.371,-55.5 890.238,-55.5"/>
<text text-anchor="middle" x="921.305" y="-61.5" font-family="Helvetica,sans-Serif" font-size="10.00">type_traits</text>
</g>
<!-- Node1&#45;&gt;Node8 -->
<g id="edge8" class="edge"><title>Node1&#45;&gt;Node8</title>
<path fill="none" stroke="midnightblue" d="M441.434,-225.455C516.601,-211.229 671.42,-178.393 795.305,-129 832.467,-114.183 873.495,-92.427 898.331,-78.6161"/>
<polygon fill="midnightblue" stroke="midnightblue" points="900.312,-81.5179 907.319,-73.5709 896.885,-75.4139 900.312,-81.5179"/>
</g>
<!-- Node9 -->
<g id="node10" class="node"><title>Node9</title>
<polygon fill="none" stroke="#bfbfbf" points="327.578,-165.5 327.578,-183.5 363.031,-183.5 363.031,-165.5 327.578,-165.5"/>
<text text-anchor="middle" x="345.305" y="-171.5" font-family="Helvetica,sans-Serif" font-size="10.00">map</text>
</g>
<!-- Node1&#45;&gt;Node9 -->
<g id="edge9" class="edge"><title>Node1&#45;&gt;Node9</title>
<path fill="none" stroke="midnightblue" d="M389.213,-225.435C381.536,-216.704 369.092,-202.552 359.408,-191.54"/>
<polygon fill="midnightblue" stroke="midnightblue" points="361.898,-189.07 352.666,-183.872 356.641,-193.693 361.898,-189.07"/>
</g>
<!-- Node10 -->
<g id="node11" class="node"><title>Node10</title>
<polygon fill="none" stroke="#bfbfbf" points="380.773,-165.5 380.773,-183.5 511.836,-183.5 511.836,-165.5 380.773,-165.5"/>
<text text-anchor="middle" x="446.305" y="-171.5" font-family="Helvetica,sans-Serif" font-size="10.00">boost/algorithm/string.hpp</text>
</g>
<!-- Node1&#45;&gt;Node10 -->
<g id="edge10" class="edge"><title>Node1&#45;&gt;Node10</title>
<path fill="none" stroke="midnightblue" d="M403.257,-225.435C410.784,-216.704 422.984,-202.552 432.477,-191.54"/>
<polygon fill="midnightblue" stroke="midnightblue" points="435.209,-193.731 439.087,-183.872 429.907,-189.161 435.209,-193.731"/>
</g>
<!-- Node11 -->
<g id="node12" class="node"><title>Node11</title>
<g id="a_node12"><a xlink:href="fmt_8h.html" target="_top" xlink:title="Utilities for formatting strings. ">
<polygon fill="none" stroke="black" points="73.5018,-165.5 73.5018,-183.5 195.107,-183.5 195.107,-165.5 73.5018,-165.5"/>
<text text-anchor="middle" x="134.305" y="-171.5" font-family="Helvetica,sans-Serif" font-size="10.00">tomographer/tools/fmt.h</text>
</a>
</g>
</g>
<!-- Node1&#45;&gt;Node11 -->
<g id="edge11" class="edge"><title>Node1&#45;&gt;Node11</title>
<path fill="none" stroke="midnightblue" d="M360.15,-225.496C313.298,-215.125 231.563,-197.03 180.329,-185.689"/>
<polygon fill="midnightblue" stroke="midnightblue" points="181.029,-182.259 170.509,-183.515 179.516,-189.093 181.029,-182.259"/>
</g>
<!-- Node22 -->
<g id="node23" class="node"><title>Node22</title>
<g id="a_node23"><a xlink:href="conststr_8h.html" target="_top" xlink:title="A constexpr string type, suitable for basic compile&#45;time string processing. ">
<polygon fill="none" stroke="black" points="303.214,-55.5 303.214,-73.5 445.395,-73.5 445.395,-55.5 303.214,-55.5"/>
<text text-anchor="middle" x="374.305" y="-61.5" font-family="Helvetica,sans-Serif" font-size="10.00">tomographer/tools/conststr.h</text>
</a>
</g>
</g>
<!-- Node1&#45;&gt;Node22 -->
<g id="edge35" class="edge"><title>Node1&#45;&gt;Node22</title>
<path fill="none" stroke="midnightblue" d="M462.747,-225.482C513.118,-217.878 576.319,-204.524 592.305,-184 612.514,-158.053 613.105,-135.476 592.305,-110 574.998,-88.8038 510.074,-77.439 455.541,-71.5158"/>
<polygon fill="midnightblue" stroke="midnightblue" points="455.802,-68.0241 445.494,-70.472 455.079,-74.9867 455.802,-68.0241"/>
</g>
<!-- Node11&#45;&gt;Node2 -->
<g id="edge12" class="edge"><title>Node11&#45;&gt;Node2</title>
<path fill="none" stroke="midnightblue" d="M118.965,-165.45C102.725,-156.929 76.8549,-143.353 57.7898,-133.349"/>
<polygon fill="midnightblue" stroke="midnightblue" points="59.2698,-130.173 48.7886,-128.625 56.0172,-136.371 59.2698,-130.173"/>
</g>
<!-- Node11&#45;&gt;Node3 -->
<g id="edge13" class="edge"><title>Node11&#45;&gt;Node3</title>
<path fill="none" stroke="midnightblue" d="M159.213,-165.45C187.189,-156.409 232.766,-141.68 264.076,-131.562"/>
<polygon fill="midnightblue" stroke="midnightblue" points="265.26,-134.857 273.699,-128.452 263.108,-128.196 265.26,-134.857"/>
</g>
<!-- Node11&#45;&gt;Node4 -->
<g id="edge15" class="edge"><title>Node11&#45;&gt;Node4</title>
<path fill="none" stroke="midnightblue" d="M147.697,-165.411C159.358,-157.61 175.705,-144.694 184.305,-129 201.857,-96.9661 204.28,-53.2337 204.063,-28.8484"/>
<polygon fill="midnightblue" stroke="midnightblue" points="207.555,-28.4746 203.799,-18.5676 200.557,-28.6541 207.555,-28.4746"/>
</g>
<!-- Node11&#45;&gt;Node5 -->
<g id="edge16" class="edge"><title>Node11&#45;&gt;Node5</title>
<path fill="none" stroke="midnightblue" d="M181.387,-165.45C243.604,-154.813 351.874,-136.303 408.094,-126.691"/>
<polygon fill="midnightblue" stroke="midnightblue" points="409.022,-130.083 418.289,-124.948 407.842,-123.183 409.022,-130.083"/>
</g>
<!-- Node11&#45;&gt;Node6 -->
<g id="edge17" class="edge"><title>Node11&#45;&gt;Node6</title>
<path fill="none" stroke="midnightblue" d="M155.936,-165.48C173.876,-158.045 199.273,-145.624 217.305,-129 231.451,-115.958 242.842,-97.0246 249.994,-83.227"/>
<polygon fill="midnightblue" stroke="midnightblue" points="253.33,-84.3765 254.612,-73.8596 247.051,-81.2813 253.33,-84.3765"/>
</g>
<!-- Node12 -->
<g id="node13" class="node"><title>Node12</title>
<polygon fill="none" stroke="#bfbfbf" points="129.016,-110.5 129.016,-128.5 175.593,-128.5 175.593,-110.5 129.016,-110.5"/>
<text text-anchor="middle" x="152.305" y="-116.5" font-family="Helvetica,sans-Serif" font-size="10.00">chrono</text>
</g>
<!-- Node11&#45;&gt;Node12 -->
<g id="edge14" class="edge"><title>Node11&#45;&gt;Node12</title>
<path fill="none" stroke="midnightblue" d="M137.117,-165.219C139.562,-158.02 143.187,-147.346 146.283,-138.231"/>
<polygon fill="midnightblue" stroke="midnightblue" points="149.669,-139.144 149.571,-128.55 143.041,-136.893 149.669,-139.144"/>
</g>
<!-- Node13 -->
<g id="node14" class="node"><title>Node13</title>
<polygon fill="none" stroke="#bfbfbf" points="71.9129,-110.5 71.9129,-128.5 110.696,-128.5 110.696,-110.5 71.9129,-110.5"/>
<text text-anchor="middle" x="91.3045" y="-116.5" font-family="Helvetica,sans-Serif" font-size="10.00">utility</text>
</g>
<!-- Node11&#45;&gt;Node13 -->
<g id="edge18" class="edge"><title>Node11&#45;&gt;Node13</title>
<path fill="none" stroke="midnightblue" d="M127.586,-165.219C121.365,-157.551 111.943,-145.939 104.261,-136.469"/>
<polygon fill="midnightblue" stroke="midnightblue" points="106.854,-134.11 97.8353,-128.55 101.418,-138.52 106.854,-134.11"/>
</g>
<!-- Node11&#45;&gt;Node14 -->
<g id="edge19" class="edge"><title>Node11&#45;&gt;Node14</title>
<path fill="none" stroke="midnightblue" d="M195.374,-165.959C198.393,-165.625 201.382,-165.304 204.305,-165 358.695,-148.948 539.602,-134.236 640.373,-126.406"/>
<polygon fill="midnightblue" stroke="midnightblue" points="640.768,-129.886 650.468,-125.624 640.228,-122.907 640.768,-129.886"/>
</g>
<!-- Node14&#45;&gt;Node6 -->
<g id="edge23" class="edge"><title>Node14&#45;&gt;Node6</title>
<path fill="none" stroke="midnightblue" d="M650.383,-114.049C568.481,-108.082 426.522,-95.8329 295.93,-74.0793"/>
<polygon fill="midnightblue" stroke="midnightblue" points="296.192,-70.5739 285.748,-72.3597 295.026,-77.4762 296.192,-70.5739"/>
</g>
<!-- Node14&#45;&gt;Node8 -->
<g id="edge25" class="edge"><title>Node14&#45;&gt;Node8</title>
<path fill="none" stroke="midnightblue" d="M749.136,-110.45C784.263,-101.279 841.807,-86.2555 880.596,-76.1283"/>
<polygon fill="midnightblue" stroke="midnightblue" points="881.725,-79.451 890.516,-73.5383 879.956,-72.6781 881.725,-79.451"/>
</g>
<!-- Node15 -->
<g id="node16" class="node"><title>Node15</title>
<polygon fill="none" stroke="#bfbfbf" points="604.189,-0.5 604.189,-18.5 652.42,-18.5 652.42,-0.5 604.189,-0.5"/>
<text text-anchor="middle" x="628.305" y="-6.5" font-family="Helvetica,sans-Serif" font-size="10.00">cassert</text>
</g>
<!-- Node14&#45;&gt;Node15 -->
<g id="edge20" class="edge"><title>Node14&#45;&gt;Node15</title>
<path fill="none" stroke="midnightblue" d="M747.212,-110.487C779.543,-100.078 824.966,-80.2168 805.305,-55 787.952,-32.7454 709.055,-19.9162 662.66,-14.1703"/>
<polygon fill="midnightblue" stroke="midnightblue" points="662.797,-10.662 652.454,-12.9554 661.97,-17.613 662.797,-10.662"/>
</g>
<!-- Node16 -->
<g id="node17" class="node"><title>Node16</title>
<polygon fill="none" stroke="#bfbfbf" points="782.184,-0.5 782.184,-18.5 830.425,-18.5 830.425,-0.5 782.184,-0.5"/>
<text text-anchor="middle" x="806.305" y="-6.5" font-family="Helvetica,sans-Serif" font-size="10.00">cstddef</text>
</g>
<!-- Node14&#45;&gt;Node16 -->
<g id="edge21" class="edge"><title>Node14&#45;&gt;Node16</title>
<path fill="none" stroke="midnightblue" d="M779.767,-110.484C801.968,-104.287 824.854,-93.3341 838.305,-74 849.031,-58.5824 835.706,-39.0624 823.128,-25.7616"/>
<polygon fill="midnightblue" stroke="midnightblue" points="825.574,-23.2577 815.997,-18.7269 820.658,-28.2412 825.574,-23.2577"/>
</g>
<!-- Node17 -->
<g id="node18" class="node"><title>Node17</title>
<polygon fill="none" stroke="#bfbfbf" points="496.132,-0.5 496.132,-18.5 540.477,-18.5 540.477,-0.5 496.132,-0.5"/>
<text text-anchor="middle" x="518.305" y="-6.5" font-family="Helvetica,sans-Serif" font-size="10.00">cstdlib</text>
</g>
<!-- Node14&#45;&gt;Node17 -->
<g id="edge22" class="edge"><title>Node14&#45;&gt;Node17</title>
<path fill="none" stroke="midnightblue" d="M657.195,-110.499C593.914,-101.589 502.797,-86.7605 492.305,-74 480.776,-59.9796 492.182,-40.1527 503.306,-26.3986"/>
<polygon fill="midnightblue" stroke="midnightblue" points="506.06,-28.5657 509.988,-18.7258 500.781,-23.9685 506.06,-28.5657"/>
</g>
<!-- Node18 -->
<g id="node19" class="node"><title>Node18</title>
<polygon fill="none" stroke="#bfbfbf" points="1054.69,-55.5 1054.69,-73.5 1107.92,-73.5 1107.92,-55.5 1054.69,-55.5"/>
<text text-anchor="middle" x="1081.3" y="-61.5" font-family="Helvetica,sans-Serif" font-size="10.00">complex</text>
</g>
<!-- Node14&#45;&gt;Node18 -->
<g id="edge24" class="edge"><title>Node14&#45;&gt;Node18</title>
<path fill="none" stroke="midnightblue" d="M786.247,-111.193C850.332,-103.861 949.255,-91.4111 1044.53,-73.9715"/>
<polygon fill="midnightblue" stroke="midnightblue" points="1045.43,-77.3637 1054.63,-72.1013 1044.16,-70.4807 1045.43,-77.3637"/>
</g>
<!-- Node19 -->
<g id="node20" class="node"><title>Node19</title>
<polygon fill="none" stroke="#bfbfbf" points="660.901,-55.5 660.901,-73.5 719.708,-73.5 719.708,-55.5 660.901,-55.5"/>
<text text-anchor="middle" x="690.305" y="-61.5" font-family="Helvetica,sans-Serif" font-size="10.00">exception</text>
</g>
<!-- Node14&#45;&gt;Node19 -->
<g id="edge26" class="edge"><title>Node14&#45;&gt;Node19</title>
<path fill="none" stroke="midnightblue" d="M713.93,-110.219C710.044,-102.864 704.241,-91.8801 699.359,-82.639"/>
<polygon fill="midnightblue" stroke="midnightblue" points="702.323,-80.7566 694.557,-73.5496 696.134,-84.0264 702.323,-80.7566"/>
</g>
<!-- Node20 -->
<g id="node21" class="node"><title>Node20</title>
<polygon fill="none" stroke="#bfbfbf" points="737.903,-55.5 737.903,-73.5 796.706,-73.5 796.706,-55.5 737.903,-55.5"/>
<text text-anchor="middle" x="767.305" y="-61.5" font-family="Helvetica,sans-Serif" font-size="10.00">stdexcept</text>
</g>
<!-- Node14&#45;&gt;Node20 -->
<g id="edge27" class="edge"><title>Node14&#45;&gt;Node20</title>
<path fill="none" stroke="midnightblue" d="M725.961,-110.219C733.122,-102.473 744.005,-90.7013 752.808,-81.1799"/>
<polygon fill="midnightblue" stroke="midnightblue" points="755.644,-83.2683 759.862,-73.5496 750.504,-78.5163 755.644,-83.2683"/>
</g>
<!-- Node21 -->
<g id="node22" class="node"><title>Node21</title>
<g id="a_node22"><a xlink:href="cxxdefs_8h.html" target="_top" xlink:title="Basic definitions, which may have to be defined before any Eigen headers or further utilities are inc...">
<polygon fill="none" stroke="black" points="501.494,-55.5 501.494,-73.5 643.115,-73.5 643.115,-55.5 501.494,-55.5"/>
<text text-anchor="middle" x="572.305" y="-61.5" font-family="Helvetica,sans-Serif" font-size="10.00">tomographer/tools/cxxdefs.h</text>
</a>
</g>
</g>
<!-- Node14&#45;&gt;Node21 -->
<g id="edge28" class="edge"><title>Node14&#45;&gt;Node21</title>
<path fill="none" stroke="midnightblue" d="M696.13,-110.45C671.69,-101.578 632.161,-87.2288 604.353,-77.134"/>
<polygon fill="midnightblue" stroke="midnightblue" points="605.282,-73.7477 594.687,-73.6253 602.893,-80.3276 605.282,-73.7477"/>
</g>
<!-- Node14&#45;&gt;Node22 -->
<g id="edge32" class="edge"><title>Node14&#45;&gt;Node22</title>
<path fill="none" stroke="midnightblue" d="M666.058,-110.45C604.507,-100.967 502.336,-85.2258 436.688,-75.1115"/>
<polygon fill="midnightblue" stroke="midnightblue" points="436.894,-71.6019 426.478,-73.5383 435.828,-78.5203 436.894,-71.6019"/>
</g>
<!-- Node23 -->
<g id="node24" class="node"><title>Node23</title>
<polygon fill="none" stroke="#bfbfbf" points="970.29,-55.5 970.29,-73.5 1036.32,-73.5 1036.32,-55.5 970.29,-55.5"/>
<text text-anchor="middle" x="1003.3" y="-61.5" font-family="Helvetica,sans-Serif" font-size="10.00">Eigen/Core</text>
</g>
<!-- Node14&#45;&gt;Node23 -->
<g id="edge34" class="edge"><title>Node14&#45;&gt;Node23</title>
<path fill="none" stroke="midnightblue" d="M763.585,-110.467C810.326,-102.117 885.629,-88.5042 959.856,-74.2528"/>
<polygon fill="midnightblue" stroke="midnightblue" points="960.687,-77.6572 969.845,-72.3298 959.364,-70.7835 960.687,-77.6572"/>
</g>
<!-- Node21&#45;&gt;Node15 -->
<g id="edge29" class="edge"><title>Node21&#45;&gt;Node15</title>
<path fill="none" stroke="midnightblue" d="M581.055,-55.2188C589.404,-47.3162 602.181,-35.2241 612.344,-25.6057"/>
<polygon fill="midnightblue" stroke="midnightblue" points="614.942,-27.9655 619.799,-18.5496 610.13,-22.8814 614.942,-27.9655"/>
</g>
<!-- Node21&#45;&gt;Node16 -->
<g id="edge30" class="edge"><title>Node21&#45;&gt;Node16</title>
<path fill="none" stroke="midnightblue" d="M607.844,-55.4504C652.349,-45.3703 728.072,-28.2194 771.993,-18.2714"/>
<polygon fill="midnightblue" stroke="midnightblue" points="772.931,-21.6477 781.911,-16.025 771.385,-14.8206 772.931,-21.6477"/>
</g>
<!-- Node21&#45;&gt;Node17 -->
<g id="edge31" class="edge"><title>Node21&#45;&gt;Node17</title>
<path fill="none" stroke="midnightblue" d="M563.867,-55.2188C555.815,-47.3162 543.495,-35.2241 533.695,-25.6057"/>
<polygon fill="midnightblue" stroke="midnightblue" points="536.094,-23.0564 526.506,-18.5496 531.191,-28.0522 536.094,-23.0564"/>
</g>
<!-- Node22&#45;&gt;Node4 -->
<g id="edge33" class="edge"><title>Node22&#45;&gt;Node4</title>
<path fill="none" stroke="midnightblue" d="M348.333,-55.4504C317.477,-45.8868 266.085,-29.9584 233.489,-19.8554"/>
<polygon fill="midnightblue" stroke="midnightblue" points="234.204,-16.4127 223.616,-16.7953 232.131,-23.0989 234.204,-16.4127"/>
</g>
<!-- Node24&#45;&gt;Node18 -->
<g id="edge37" class="edge"><title>Node24&#45;&gt;Node18</title>
<path fill="none" stroke="midnightblue" d="M1128.55,-110.219C1120.2,-102.316 1107.43,-90.2241 1097.27,-80.6057"/>
<polygon fill="midnightblue" stroke="midnightblue" points="1099.48,-77.8814 1089.81,-73.5496 1094.67,-82.9655 1099.48,-77.8814"/>
</g>
<!-- Node24&#45;&gt;Node23 -->
<g id="edge39" class="edge"><title>Node24&#45;&gt;Node23</title>
<path fill="none" stroke="midnightblue" d="M1116.95,-110.45C1094.72,-101.656 1058.88,-87.4802 1033.39,-77.4006"/>
<polygon fill="midnightblue" stroke="midnightblue" points="1034.43,-74.0487 1023.85,-73.6253 1031.86,-80.558 1034.43,-74.0487"/>
</g>
<!-- Node25 -->
<g id="node26" class="node"><title>Node25</title>
<polygon fill="none" stroke="#bfbfbf" points="1321.69,-55.5 1321.69,-73.5 1364.92,-73.5 1364.92,-55.5 1321.69,-55.5"/>
<text text-anchor="middle" x="1343.3" y="-61.5" font-family="Helvetica,sans-Serif" font-size="10.00">vector</text>
</g>
<!-- Node24&#45;&gt;Node25 -->
<g id="edge38" class="edge"><title>Node24&#45;&gt;Node25</title>
<path fill="none" stroke="midnightblue" d="M1170.14,-110.494C1203.54,-102.285 1257.03,-88.9594 1311.54,-74.4233"/>
<polygon fill="midnightblue" stroke="midnightblue" points="1312.61,-77.7599 1321.37,-71.7927 1310.8,-70.9981 1312.61,-77.7599"/>
</g>
<!-- Node26 -->
<g id="node27" class="node"><title>Node26</title>
<polygon fill="none" stroke="#bfbfbf" points="1125.67,-55.5 1125.67,-73.5 1198.93,-73.5 1198.93,-55.5 1125.67,-55.5"/>
<text text-anchor="middle" x="1162.3" y="-61.5" font-family="Helvetica,sans-Serif" font-size="10.00">Eigen/Dense</text>
</g>
<!-- Node24&#45;&gt;Node26 -->
<g id="edge40" class="edge"><title>Node24&#45;&gt;Node26</title>
<path fill="none" stroke="midnightblue" d="M1141.21,-110.219C1144.68,-102.864 1149.86,-91.8801 1154.22,-82.639"/>
<polygon fill="midnightblue" stroke="midnightblue" points="1157.41,-84.0871 1158.51,-73.5496 1151.08,-81.1007 1157.41,-84.0871"/>
</g>
<!-- Node27 -->
<g id="node28" class="node"><title>Node27</title>
<polygon fill="none" stroke="#bfbfbf" points="1216.45,-55.5 1216.45,-73.5 1304.16,-73.5 1304.16,-55.5 1216.45,-55.5"/>
<text text-anchor="middle" x="1260.3" y="-61.5" font-family="Helvetica,sans-Serif" font-size="10.00">Eigen/StdVector</text>
</g>
<!-- Node24&#45;&gt;Node27 -->
<g id="edge41" class="edge"><title>Node24&#45;&gt;Node27</title>
<path fill="none" stroke="midnightblue" d="M1155.99,-110.45C1176.21,-101.734 1208.71,-87.7306 1232.06,-77.6691"/>
<polygon fill="midnightblue" stroke="midnightblue" points="1233.65,-80.7969 1241.45,-73.6253 1230.88,-74.3683 1233.65,-80.7969"/>
</g>
<!-- Node28&#45;&gt;Node8 -->
<g id="edge44" class="edge"><title>Node28&#45;&gt;Node8</title>
<path fill="none" stroke="midnightblue" d="M972.242,-165.32C962.729,-157.08 948.697,-143.536 940.305,-129 932.205,-114.972 927.268,-97.1718 924.465,-83.989"/>
<polygon fill="midnightblue" stroke="midnightblue" points="927.834,-82.9721 922.524,-73.8037 920.958,-84.2821 927.834,-82.9721"/>
</g>
<!-- Node28&#45;&gt;Node14 -->
<g id="edge46" class="edge"><title>Node28&#45;&gt;Node14</title>
<path fill="none" stroke="midnightblue" d="M942.209,-165.45C895.652,-156.104 818.814,-140.678 768.375,-130.552"/>
<polygon fill="midnightblue" stroke="midnightblue" points="768.838,-127.075 758.344,-128.538 767.46,-133.938 768.838,-127.075"/>
</g>
<!-- Node29 -->
<g id="node30" class="node"><title>Node29</title>
<polygon fill="none" stroke="#bfbfbf" points="949.339,-110.5 949.339,-128.5 1019.27,-128.5 1019.27,-110.5 949.339,-110.5"/>
<text text-anchor="middle" x="984.305" y="-116.5" font-family="Helvetica,sans-Serif" font-size="10.00">Eigen/Eigen</text>
</g>
<!-- Node28&#45;&gt;Node29 -->
<g id="edge45" class="edge"><title>Node28&#45;&gt;Node29</title>
<path fill="none" stroke="midnightblue" d="M982.617,-165.219C982.883,-158.177 983.274,-147.808 983.613,-138.828"/>
<polygon fill="midnightblue" stroke="midnightblue" points="987.121,-138.674 984.001,-128.55 980.126,-138.41 987.121,-138.674"/>
</g>
</g>
</svg>
