<?xml version="1.0" encoding="UTF-8" standalone="no"?>
<!DOCTYPE svg PUBLIC "-//W3C//DTD SVG 1.1//EN"
 "http://www.w3.org/Graphics/SVG/1.1/DTD/svg11.dtd">
<!-- Generated by graphviz version 2.38.0 (20140413.2041)
 -->
<!-- Title: tomographer/mhrw.h Pages: 1 -->
<svg width="281pt" height="157pt"
 viewBox="0.00 0.00 280.78 157.00" xmlns="http://www.w3.org/2000/svg" xmlns:xlink="http://www.w3.org/1999/xlink">
<g id="graph0" class="graph" transform="scale(1 1) rotate(0) translate(4 153)">
<title>tomographer/mhrw.h</title>
<!-- Node35 -->
<g id="node1" class="node"><title>Node35</title>
<polygon fill="#bfbfbf" stroke="black" points="75.4507,-130.5 75.4507,-148.5 183.165,-148.5 183.165,-130.5 75.4507,-130.5"/>
<text text-anchor="middle" x="129.308" y="-136.5" font-family="Helvetica,sans-Serif" font-size="10.00">tomographer/mhrw.h</text>
</g>
<!-- Node36 -->
<g id="node2" class="node"><title>Node36</title>
<g id="a_node2"><a xlink:href="tspacellhwalker_8h.html" target="_top" xlink:title="Definitions for a Metropolis&#45;Hastings random walk on a quantum state space with dense matrix type...">
<polygon fill="none" stroke="black" points="0,-65.5 0,-93.5 116.615,-93.5 116.615,-65.5 0,-65.5"/>
<text text-anchor="start" x="8" y="-81.5" font-family="Helvetica,sans-Serif" font-size="10.00">tomographer/densedm</text>
<text text-anchor="middle" x="58.3076" y="-71.5" font-family="Helvetica,sans-Serif" font-size="10.00">/tspacellhwalker.h</text>
</a>
</g>
</g>
<!-- Node35&#45;&gt;Node36 -->
<g id="edge1" class="edge"><title>Node35&#45;&gt;Node36</title>
<path fill="none" stroke="midnightblue" d="M111.467,-123.926C100.066,-114.613 85.4054,-102.636 74.3687,-93.6203"/>
<polygon fill="midnightblue" stroke="midnightblue" points="109.477,-126.819 119.435,-130.435 113.905,-121.398 109.477,-126.819"/>
</g>
<!-- Node37 -->
<g id="node3" class="node"><title>Node37</title>
<g id="a_node3"><a xlink:href="mhrwtasks_8h.html" target="_top" xlink:title="Multiprocessing tasks interface (see Multiprocessing Task Interfaces) for parallel Metropolis&#45;Hasting...">
<polygon fill="none" stroke="black" points="134.507,-70.5 134.507,-88.5 266.108,-88.5 266.108,-70.5 134.507,-70.5"/>
<text text-anchor="middle" x="200.308" y="-76.5" font-family="Helvetica,sans-Serif" font-size="10.00">tomographer/mhrwtasks.h</text>
</a>
</g>
</g>
<!-- Node35&#45;&gt;Node37 -->
<g id="edge2" class="edge"><title>Node35&#45;&gt;Node37</title>
<path fill="none" stroke="midnightblue" d="M147.302,-123.8C160.837,-112.744 178.9,-97.9883 190.059,-88.8718"/>
<polygon fill="midnightblue" stroke="midnightblue" points="144.71,-121.398 139.18,-130.435 149.139,-126.819 144.71,-121.398"/>
</g>
<!-- Node38 -->
<g id="node4" class="node"><title>Node38</title>
<g id="a_node4"><a xlink:href="mhrw__valuehist__tasks_8h.html" target="_top" xlink:title="Tasks for collecting a histogram of values during a Metropolis&#45;Hastings random walk. ">
<polygon fill="none" stroke="black" points="127.833,-0.5 127.833,-28.5 272.783,-28.5 272.783,-0.5 127.833,-0.5"/>
<text text-anchor="start" x="135.833" y="-16.5" font-family="Helvetica,sans-Serif" font-size="10.00">tomographer/mhrw_valuehist</text>
<text text-anchor="middle" x="200.308" y="-6.5" font-family="Helvetica,sans-Serif" font-size="10.00">_tasks.h</text>
</a>
</g>
</g>
<!-- Node37&#45;&gt;Node38 -->
<g id="edge3" class="edge"><title>Node37&#45;&gt;Node38</title>
<path fill="none" stroke="midnightblue" d="M200.308,-60.1373C200.308,-50.1047 200.308,-37.906 200.308,-28.7981"/>
<polygon fill="midnightblue" stroke="midnightblue" points="196.808,-60.2638 200.308,-70.2639 203.808,-60.2639 196.808,-60.2638"/>
</g>
</g>
</svg>
