<?xml version="1.0" encoding="UTF-8" standalone="no"?>
<!DOCTYPE svg PUBLIC "-//W3C//DTD SVG 1.1//EN"
 "http://www.w3.org/Graphics/SVG/1.1/DTD/svg11.dtd">
<!-- Generated by graphviz version 2.38.0 (20140413.2041)
 -->
<!-- Title: tomographer/multiproc.h Pages: 1 -->
<svg width="628pt" height="157pt"
 viewBox="0.00 0.00 628.23 157.00" xmlns="http://www.w3.org/2000/svg" xmlns:xlink="http://www.w3.org/1999/xlink">
<g id="graph0" class="graph" transform="scale(1 1) rotate(0) translate(4 153)">
<title>tomographer/multiproc.h</title>
<!-- Node23 -->
<g id="node1" class="node"><title>Node23</title>
<polygon fill="#bfbfbf" stroke="black" points="250.283,-130.5 250.283,-148.5 374.667,-148.5 374.667,-130.5 250.283,-130.5"/>
<text text-anchor="middle" x="312.475" y="-136.5" font-family="Helvetica,sans-Serif" font-size="10.00">tomographer/multiproc.h</text>
</g>
<!-- Node24 -->
<g id="node2" class="node"><title>Node24</title>
<g id="a_node2"><a xlink:href="mhrwtasks_8h.html" target="_top" xlink:title="Multiprocessing tasks interface (see Multiprocessing Task Interfaces) for parallel Metropolis&#45;Hasting...">
<polygon fill="none" stroke="black" points="6.6748,-70.5 6.6748,-88.5 138.275,-88.5 138.275,-70.5 6.6748,-70.5"/>
<text text-anchor="middle" x="72.4751" y="-76.5" font-family="Helvetica,sans-Serif" font-size="10.00">tomographer/mhrwtasks.h</text>
</a>
</g>
</g>
<!-- Node23&#45;&gt;Node24 -->
<g id="edge1" class="edge"><title>Node23&#45;&gt;Node24</title>
<path fill="none" stroke="midnightblue" d="M269.482,-128.11C222.518,-116.76 148.31,-98.8269 105.639,-88.5147"/>
<polygon fill="midnightblue" stroke="midnightblue" points="268.814,-131.549 279.356,-130.496 270.458,-124.745 268.814,-131.549"/>
</g>
<!-- Node26 -->
<g id="node4" class="node"><title>Node26</title>
<g id="a_node4"><a xlink:href="multiprocomp_8h.html" target="_top" xlink:title="Multiprocessing with OpenMP parallel multithreading. ">
<polygon fill="none" stroke="black" points="156.557,-70.5 156.557,-88.5 300.394,-88.5 300.394,-70.5 156.557,-70.5"/>
<text text-anchor="middle" x="228.475" y="-76.5" font-family="Helvetica,sans-Serif" font-size="10.00">tomographer/multiprocomp.h</text>
</a>
</g>
</g>
<!-- Node23&#45;&gt;Node26 -->
<g id="edge3" class="edge"><title>Node23&#45;&gt;Node26</title>
<path fill="none" stroke="midnightblue" d="M292.494,-124.704C276.245,-113.484 253.866,-98.0322 240.327,-88.6831"/>
<polygon fill="midnightblue" stroke="midnightblue" points="290.578,-127.634 300.795,-130.435 294.555,-121.873 290.578,-127.634"/>
</g>
<!-- Node27 -->
<g id="node5" class="node"><title>Node27</title>
<g id="a_node5"><a xlink:href="multiprocthreads_8h.html" target="_top" xlink:title="Multiprocessing with native C++11 threads. ">
<polygon fill="none" stroke="black" points="318.606,-70.5 318.606,-88.5 476.344,-88.5 476.344,-70.5 318.606,-70.5"/>
<text text-anchor="middle" x="397.475" y="-76.5" font-family="Helvetica,sans-Serif" font-size="10.00">tomographer/multiprocthreads.h</text>
</a>
</g>
</g>
<!-- Node23&#45;&gt;Node27 -->
<g id="edge4" class="edge"><title>Node23&#45;&gt;Node27</title>
<path fill="none" stroke="midnightblue" d="M332.694,-124.704C349.136,-113.484 371.781,-98.0322 385.483,-88.6831"/>
<polygon fill="midnightblue" stroke="midnightblue" points="330.581,-121.908 324.294,-130.435 334.527,-127.69 330.581,-121.908"/>
</g>
<!-- Node28 -->
<g id="node6" class="node"><title>Node28</title>
<g id="a_node6"><a xlink:href="signal__status__report_8h.html" target="_top" xlink:title="Basic common code for intercepting a signal to print status information of a task manager...">
<polygon fill="none" stroke="black" points="494.722,-65.5 494.722,-93.5 620.229,-93.5 620.229,-65.5 494.722,-65.5"/>
<text text-anchor="start" x="502.722" y="-81.5" font-family="Helvetica,sans-Serif" font-size="10.00">tomographer/tools/signal</text>
<text text-anchor="middle" x="557.475" y="-71.5" font-family="Helvetica,sans-Serif" font-size="10.00">_status_report.h</text>
</a>
</g>
</g>
<!-- Node23&#45;&gt;Node28 -->
<g id="edge5" class="edge"><title>Node23&#45;&gt;Node28</title>
<path fill="none" stroke="midnightblue" d="M356.212,-128.146C397.071,-118.473 458.228,-103.995 502.399,-93.5385"/>
<polygon fill="midnightblue" stroke="midnightblue" points="355.209,-124.787 346.284,-130.496 356.821,-131.598 355.209,-124.787"/>
</g>
<!-- Node25 -->
<g id="node3" class="node"><title>Node25</title>
<g id="a_node3"><a xlink:href="mhrw__valuehist__tasks_8h.html" target="_top" xlink:title="Tasks for collecting a histogram of values during a Metropolis&#45;Hastings random walk. ">
<polygon fill="none" stroke="black" points="0,-0.5 0,-28.5 144.95,-28.5 144.95,-0.5 0,-0.5"/>
<text text-anchor="start" x="8" y="-16.5" font-family="Helvetica,sans-Serif" font-size="10.00">tomographer/mhrw_valuehist</text>
<text text-anchor="middle" x="72.4751" y="-6.5" font-family="Helvetica,sans-Serif" font-size="10.00">_tasks.h</text>
</a>
</g>
</g>
<!-- Node24&#45;&gt;Node25 -->
<g id="edge2" class="edge"><title>Node24&#45;&gt;Node25</title>
<path fill="none" stroke="midnightblue" d="M72.4751,-60.1373C72.4751,-50.1047 72.4751,-37.906 72.4751,-28.7981"/>
<polygon fill="midnightblue" stroke="midnightblue" points="68.9752,-60.2638 72.4751,-70.2639 75.9752,-60.2639 68.9752,-60.2638"/>
</g>
</g>
</svg>
