<?xml version="1.0" encoding="UTF-8" standalone="no"?>
<!DOCTYPE svg PUBLIC "-//W3C//DTD SVG 1.1//EN"
 "http://www.w3.org/Graphics/SVG/1.1/DTD/svg11.dtd">
<!-- Generated by graphviz version 2.38.0 (20140413.2041)
 -->
<!-- Title: tomographer/densedm/param_rho_a.h Pages: 1 -->
<!--zoomable 267 -->
<svg id="main" version="1.1" xmlns="http://www.w3.org/2000/svg" xmlns:xlink="http://www.w3.org/1999/xlink" xml:space="preserve" onload="init(evt)">
<style type="text/css"><![CDATA[
.edge:hover path { stroke: red; }
.edge:hover polygon { stroke: red; fill: red; }
]]></style>
<script type="text/javascript"><![CDATA[
var edges = document.getElementsByTagName('g');
if (edges && edges.length) {
  for (var i=0;i<edges.length;i++) {
    if (edges[i].id.substr(0,4)=='edge') {
      edges[i].setAttribute('class','edge');
    }
  }
}
]]></script>
        <defs>
                <circle id="rim" cx="0" cy="0" r="7"/>
                <circle id="rim2" cx="0" cy="0" r="3.5"/>
                <g id="zoomPlus">
                        <use xlink:href="#rim" fill="#404040">
                                <set attributeName="fill" to="#808080" begin="zoomplus.mouseover" end="zoomplus.mouseout"/>
                        </use>
                        <path d="M-4,0h8M0,-4v8" fill="none" stroke="white" stroke-width="1.5" pointer-events="none"/>
                </g>
                <g id="zoomMin">
                        <use xlink:href="#rim" fill="#404040">
                                <set attributeName="fill" to="#808080" begin="zoomminus.mouseover" end="zoomminus.mouseout"/>
                        </use>
                        <path d="M-4,0h8" fill="none" stroke="white" stroke-width="1.5" pointer-events="none"/>
                </g>
                <g id="dirArrow">
                        <path fill="none" stroke="white" stroke-width="1.5" d="M0,-3.0v7 M-2.5,-0.5L0,-3.0L2.5,-0.5"/>
                </g>
               <g id="resetDef">
                       <use xlink:href="#rim2" fill="#404040">
                               <set attributeName="fill" to="#808080" begin="reset.mouseover" end="reset.mouseout"/>
                       </use>
               </g>
        </defs>

<script type="text/javascript">
var viewWidth = 1228;
var viewHeight = 267;
var sectionId = 'dynsection-0';
</script>
<script xlink:href="svgpan.js"/>
<svg id="graph" class="graph">
<g id="viewport">
<title>tomographer/densedm/param_rho_a.h</title>
<!-- Node0 -->
<g id="node1" class="node"><title>Node0</title>
<polygon fill="#bfbfbf" stroke="black" points="866.658,-230.5 866.658,-258.5 983.273,-258.5 983.273,-230.5 866.658,-230.5"/>
<text text-anchor="start" x="874.658" y="-246.5" font-family="Helvetica,sans-Serif" font-size="10.00">tomographer/densedm</text>
<text text-anchor="middle" x="924.965" y="-236.5" font-family="Helvetica,sans-Serif" font-size="10.00">/param_rho_a.h</text>
</g>
<!-- Node1 -->
<g id="node2" class="node"><title>Node1</title>
<polygon fill="none" stroke="#bfbfbf" points="901.951,-55.5 901.951,-73.5 967.98,-73.5 967.98,-55.5 901.951,-55.5"/>
<text text-anchor="middle" x="934.965" y="-61.5" font-family="Helvetica,sans-Serif" font-size="10.00">Eigen/Core</text>
</g>
<!-- Node0&#45;&gt;Node1 -->
<g id="edge1" class="edge"><title>Node0&#45;&gt;Node1</title>
<path fill="none" stroke="midnightblue" d="M913.741,-230.217C906.535,-220.782 897.829,-207.449 893.965,-194 890.406,-181.612 891.462,-177.644 893.965,-165 899.962,-134.706 915.308,-102.051 925.43,-82.7131"/>
<polygon fill="midnightblue" stroke="midnightblue" points="928.64,-84.133 930.296,-73.6684 922.476,-80.8162 928.64,-84.133"/>
</g>
<!-- Node2 -->
<g id="node3" class="node"><title>Node2</title>
<polygon fill="none" stroke="#bfbfbf" points="1132.11,-110.5 1132.11,-128.5 1219.82,-128.5 1219.82,-110.5 1132.11,-110.5"/>
<text text-anchor="middle" x="1175.97" y="-116.5" font-family="Helvetica,sans-Serif" font-size="10.00">Eigen/StdVector</text>
</g>
<!-- Node0&#45;&gt;Node2 -->
<g id="edge2" class="edge"><title>Node0&#45;&gt;Node2</title>
<path fill="none" stroke="midnightblue" d="M968.845,-230.475C994.979,-221.86 1028.33,-209.335 1055.97,-194 1074.54,-183.692 1076.13,-176.546 1093.97,-165 1112.15,-153.227 1133.72,-141.609 1150.17,-133.197"/>
<polygon fill="midnightblue" stroke="midnightblue" points="1151.85,-136.27 1159.2,-128.638 1148.69,-130.021 1151.85,-136.27"/>
</g>
<!-- Node3 -->
<g id="node4" class="node"><title>Node3</title>
<g id="a_node4"><a xlink:href="dmtypes_8h.html" target="_top" xlink:title="C++ types for describing dense density matrices in various parameterizations. ">
<polygon fill="none" stroke="black" points="77.6577,-165.5 77.6577,-193.5 194.273,-193.5 194.273,-165.5 77.6577,-165.5"/>
<text text-anchor="start" x="85.6577" y="-181.5" font-family="Helvetica,sans-Serif" font-size="10.00">tomographer/densedm</text>
<text text-anchor="middle" x="135.965" y="-171.5" font-family="Helvetica,sans-Serif" font-size="10.00">/dmtypes.h</text>
</a>
</g>
</g>
<!-- Node0&#45;&gt;Node3 -->
<g id="edge3" class="edge"><title>Node0&#45;&gt;Node3</title>
<path fill="none" stroke="midnightblue" d="M866.628,-238.842C723.917,-227.447 357.725,-198.207 204.741,-185.992"/>
<polygon fill="midnightblue" stroke="midnightblue" points="204.785,-182.484 194.538,-185.177 204.228,-189.462 204.785,-182.484"/>
</g>
<!-- Node7 -->
<g id="node8" class="node"><title>Node7</title>
<g id="a_node8"><a xlink:href="cxxutil_8h.html" target="_top" xlink:title="Some C++ utilities, with a tad of C++11 tricks. ">
<polygon fill="none" stroke="black" points="490.214,-110.5 490.214,-128.5 625.716,-128.5 625.716,-110.5 490.214,-110.5"/>
<text text-anchor="middle" x="557.965" y="-116.5" font-family="Helvetica,sans-Serif" font-size="10.00">tomographer/tools/cxxutil.h</text>
</a>
</g>
</g>
<!-- Node0&#45;&gt;Node7 -->
<g id="edge23" class="edge"><title>Node0&#45;&gt;Node7</title>
<path fill="none" stroke="midnightblue" d="M886.037,-230.453C813.744,-206.224 659.922,-154.671 591.726,-131.815"/>
<polygon fill="midnightblue" stroke="midnightblue" points="592.517,-128.389 581.924,-128.53 590.293,-135.026 592.517,-128.389"/>
</g>
<!-- Node17 -->
<g id="node18" class="node"><title>Node17</title>
<g id="a_node18"><a xlink:href="eigenutil_8h.html" target="_top" xlink:title="Basic utilities for dealing with Eigen matrices and other types. ">
<polygon fill="none" stroke="black" points="902.48,-170.5 902.48,-188.5 1047.45,-188.5 1047.45,-170.5 902.48,-170.5"/>
<text text-anchor="middle" x="974.965" y="-176.5" font-family="Helvetica,sans-Serif" font-size="10.00">tomographer/tools/eigenutil.h</text>
</a>
</g>
</g>
<!-- Node0&#45;&gt;Node17 -->
<g id="edge24" class="edge"><title>Node0&#45;&gt;Node17</title>
<path fill="none" stroke="midnightblue" d="M935.325,-230.446C943.102,-220.648 953.797,-207.172 962.118,-196.687"/>
<polygon fill="midnightblue" stroke="midnightblue" points="964.958,-198.739 968.434,-188.73 959.475,-194.387 964.958,-198.739"/>
</g>
<!-- Node20 -->
<g id="node21" class="node"><title>Node20</title>
<polygon fill="none" stroke="#bfbfbf" points="1103.44,-165.5 1103.44,-193.5 1214.49,-193.5 1214.49,-165.5 1103.44,-165.5"/>
<text text-anchor="start" x="1111.44" y="-181.5" font-family="Helvetica,sans-Serif" font-size="10.00">boost/math/constants</text>
<text text-anchor="middle" x="1158.97" y="-171.5" font-family="Helvetica,sans-Serif" font-size="10.00">/constants.hpp</text>
</g>
<!-- Node0&#45;&gt;Node20 -->
<g id="edge30" class="edge"><title>Node0&#45;&gt;Node20</title>
<path fill="none" stroke="midnightblue" d="M973.45,-230.446C1010.47,-220.479 1061.63,-206.706 1100.85,-196.148"/>
<polygon fill="midnightblue" stroke="midnightblue" points="1101.8,-199.516 1110.54,-193.537 1099.98,-192.757 1101.8,-199.516"/>
</g>
<!-- Node4 -->
<g id="node5" class="node"><title>Node4</title>
<polygon fill="none" stroke="#bfbfbf" points="149.845,-0.5 149.845,-18.5 198.086,-18.5 198.086,-0.5 149.845,-0.5"/>
<text text-anchor="middle" x="173.965" y="-6.5" font-family="Helvetica,sans-Serif" font-size="10.00">cstddef</text>
</g>
<!-- Node3&#45;&gt;Node4 -->
<g id="edge4" class="edge"><title>Node3&#45;&gt;Node4</title>
<path fill="none" stroke="midnightblue" d="M130.086,-165.162C120.668,-141.706 104.909,-92.0451 121.965,-55 127.789,-42.3517 139.177,-31.9584 149.815,-24.406"/>
<polygon fill="midnightblue" stroke="midnightblue" points="152,-27.1587 158.436,-18.7431 148.157,-21.308 152,-27.1587"/>
</g>
<!-- Node5 -->
<g id="node6" class="node"><title>Node5</title>
<polygon fill="none" stroke="#bfbfbf" points="324.85,-0.5 324.85,-18.5 373.081,-18.5 373.081,-0.5 324.85,-0.5"/>
<text text-anchor="middle" x="348.965" y="-6.5" font-family="Helvetica,sans-Serif" font-size="10.00">cassert</text>
</g>
<!-- Node3&#45;&gt;Node5 -->
<g id="edge5" class="edge"><title>Node3&#45;&gt;Node5</title>
<path fill="none" stroke="midnightblue" d="M138.333,-165.129C143.529,-139.784 158.347,-84.6433 192.965,-55 227.377,-25.5336 280.137,-15.528 314.6,-12.1608"/>
<polygon fill="midnightblue" stroke="midnightblue" points="314.995,-15.64 324.667,-11.3148 314.409,-8.66458 314.995,-15.64"/>
</g>
<!-- Node6 -->
<g id="node7" class="node"><title>Node6</title>
<polygon fill="none" stroke="#bfbfbf" points="0,-110.5 0,-128.5 69.9307,-128.5 69.9307,-110.5 0,-110.5"/>
<text text-anchor="middle" x="34.9653" y="-116.5" font-family="Helvetica,sans-Serif" font-size="10.00">Eigen/Eigen</text>
</g>
<!-- Node3&#45;&gt;Node6 -->
<g id="edge6" class="edge"><title>Node3&#45;&gt;Node6</title>
<path fill="none" stroke="midnightblue" d="M113.299,-165.484C96.8659,-156.047 74.7144,-143.326 58.1605,-133.82"/>
<polygon fill="midnightblue" stroke="midnightblue" points="59.5609,-130.588 49.1461,-128.643 56.075,-136.658 59.5609,-130.588"/>
</g>
<!-- Node3&#45;&gt;Node7 -->
<g id="edge7" class="edge"><title>Node3&#45;&gt;Node7</title>
<path fill="none" stroke="midnightblue" d="M194.643,-170.435C271.93,-159.813 407.601,-141.166 489.49,-129.911"/>
<polygon fill="midnightblue" stroke="midnightblue" points="490.017,-133.372 499.447,-128.543 489.064,-126.437 490.017,-133.372"/>
</g>
<!-- Node7&#45;&gt;Node1 -->
<g id="edge22" class="edge"><title>Node7&#45;&gt;Node1</title>
<path fill="none" stroke="midnightblue" d="M625.858,-110.847C691.425,-103.145 793.744,-90.3144 891.481,-74.1549"/>
<polygon fill="midnightblue" stroke="midnightblue" points="892.245,-77.5759 901.533,-72.4783 891.093,-70.6713 892.245,-77.5759"/>
</g>
<!-- Node7&#45;&gt;Node4 -->
<g id="edge9" class="edge"><title>Node7&#45;&gt;Node4</title>
<path fill="none" stroke="midnightblue" d="M489.839,-118.834C396.79,-117.876 236.517,-110.734 192.965,-74 179.917,-62.994 175.611,-43.4211 174.297,-28.9053"/>
<polygon fill="midnightblue" stroke="midnightblue" points="177.777,-28.4183 173.775,-18.6085 170.786,-28.7729 177.777,-28.4183"/>
</g>
<!-- Node7&#45;&gt;Node5 -->
<g id="edge8" class="edge"><title>Node7&#45;&gt;Node5</title>
<path fill="none" stroke="midnightblue" d="M541.096,-110.492C522.754,-101.73 492.624,-87.1713 466.965,-74 433.859,-57.0056 396.054,-36.4564 372.349,-23.4301"/>
<polygon fill="midnightblue" stroke="midnightblue" points="373.85,-20.2614 363.402,-18.5032 370.473,-26.3931 373.85,-20.2614"/>
</g>
<!-- Node8 -->
<g id="node9" class="node"><title>Node8</title>
<polygon fill="none" stroke="#bfbfbf" points="463.793,-0.5 463.793,-18.5 508.138,-18.5 508.138,-0.5 463.793,-0.5"/>
<text text-anchor="middle" x="485.965" y="-6.5" font-family="Helvetica,sans-Serif" font-size="10.00">cstdlib</text>
</g>
<!-- Node7&#45;&gt;Node8 -->
<g id="edge10" class="edge"><title>Node7&#45;&gt;Node8</title>
<path fill="none" stroke="midnightblue" d="M557.062,-110.455C555.323,-97.7563 550.596,-72.6927 538.965,-55 531.025,-42.9211 518.842,-32.3668 508.158,-24.572"/>
<polygon fill="midnightblue" stroke="midnightblue" points="509.878,-21.5065 499.662,-18.7005 505.898,-27.2652 509.878,-21.5065"/>
</g>
<!-- Node9 -->
<g id="node10" class="node"><title>Node9</title>
<polygon fill="none" stroke="#bfbfbf" points="475.793,-55.5 475.793,-73.5 530.138,-73.5 530.138,-55.5 475.793,-55.5"/>
<text text-anchor="middle" x="502.965" y="-61.5" font-family="Helvetica,sans-Serif" font-size="10.00">iostream</text>
</g>
<!-- Node7&#45;&gt;Node9 -->
<g id="edge11" class="edge"><title>Node7&#45;&gt;Node9</title>
<path fill="none" stroke="midnightblue" d="M549.372,-110.219C541.171,-102.316 528.622,-90.2241 518.641,-80.6057"/>
<polygon fill="midnightblue" stroke="midnightblue" points="520.948,-77.9682 511.319,-73.5496 516.091,-83.0088 520.948,-77.9682"/>
</g>
<!-- Node10 -->
<g id="node11" class="node"><title>Node10</title>
<polygon fill="none" stroke="#bfbfbf" points="986.347,-55.5 986.347,-73.5 1039.58,-73.5 1039.58,-55.5 986.347,-55.5"/>
<text text-anchor="middle" x="1012.97" y="-61.5" font-family="Helvetica,sans-Serif" font-size="10.00">complex</text>
</g>
<!-- Node7&#45;&gt;Node10 -->
<g id="edge12" class="edge"><title>Node7&#45;&gt;Node10</title>
<path fill="none" stroke="midnightblue" d="M625.815,-113.938C706.868,-107.896 846.689,-95.6029 976.205,-73.9048"/>
<polygon fill="midnightblue" stroke="midnightblue" points="977.033,-77.3145 986.306,-72.1898 975.861,-70.4133 977.033,-77.3145"/>
</g>
<!-- Node11 -->
<g id="node12" class="node"><title>Node11</title>
<polygon fill="none" stroke="#bfbfbf" points="745.899,-55.5 745.899,-73.5 808.032,-73.5 808.032,-55.5 745.899,-55.5"/>
<text text-anchor="middle" x="776.965" y="-61.5" font-family="Helvetica,sans-Serif" font-size="10.00">type_traits</text>
</g>
<!-- Node7&#45;&gt;Node11 -->
<g id="edge13" class="edge"><title>Node7&#45;&gt;Node11</title>
<path fill="none" stroke="midnightblue" d="M591.227,-110.45C630.027,-101.06 694.181,-85.5345 736.012,-75.4111"/>
<polygon fill="midnightblue" stroke="midnightblue" points="736.981,-78.7778 745.877,-73.0237 735.334,-71.9742 736.981,-78.7778"/>
</g>
<!-- Node12 -->
<g id="node13" class="node"><title>Node12</title>
<polygon fill="none" stroke="#bfbfbf" points="825.562,-55.5 825.562,-73.5 884.369,-73.5 884.369,-55.5 825.562,-55.5"/>
<text text-anchor="middle" x="854.965" y="-61.5" font-family="Helvetica,sans-Serif" font-size="10.00">exception</text>
</g>
<!-- Node7&#45;&gt;Node12 -->
<g id="edge14" class="edge"><title>Node7&#45;&gt;Node12</title>
<path fill="none" stroke="midnightblue" d="M609.212,-110.469C659.416,-102.428 738.325,-89.3265 815.63,-74.1881"/>
<polygon fill="midnightblue" stroke="midnightblue" points="816.403,-77.603 825.538,-72.2347 815.049,-70.7352 816.403,-77.603"/>
</g>
<!-- Node13 -->
<g id="node14" class="node"><title>Node13</title>
<polygon fill="none" stroke="#bfbfbf" points="201.564,-55.5 201.564,-73.5 260.367,-73.5 260.367,-55.5 201.564,-55.5"/>
<text text-anchor="middle" x="230.965" y="-61.5" font-family="Helvetica,sans-Serif" font-size="10.00">stdexcept</text>
</g>
<!-- Node7&#45;&gt;Node13 -->
<g id="edge15" class="edge"><title>Node7&#45;&gt;Node13</title>
<path fill="none" stroke="midnightblue" d="M497.988,-110.465C441.629,-102.643 354.715,-89.8841 270.386,-74.1663"/>
<polygon fill="midnightblue" stroke="midnightblue" points="270.858,-70.6938 260.383,-72.2855 269.564,-77.5732 270.858,-70.6938"/>
</g>
<!-- Node14 -->
<g id="node15" class="node"><title>Node14</title>
<g id="a_node15"><a xlink:href="cxxdefs_8h.html" target="_top" xlink:title="Basic definitions, which may have to be defined before any Eigen headers or further utilities are inc...">
<polygon fill="none" stroke="black" points="278.155,-55.5 278.155,-73.5 419.775,-73.5 419.775,-55.5 278.155,-55.5"/>
<text text-anchor="middle" x="348.965" y="-61.5" font-family="Helvetica,sans-Serif" font-size="10.00">tomographer/tools/cxxdefs.h</text>
</a>
</g>
</g>
<!-- Node7&#45;&gt;Node14 -->
<g id="edge16" class="edge"><title>Node7&#45;&gt;Node14</title>
<path fill="none" stroke="midnightblue" d="M526.223,-110.45C489.904,-101.24 430.308,-86.1276 390.368,-75.9993"/>
<polygon fill="midnightblue" stroke="midnightblue" points="391.217,-72.6038 380.664,-73.5383 389.496,-79.3891 391.217,-72.6038"/>
</g>
<!-- Node15 -->
<g id="node16" class="node"><title>Node15</title>
<g id="a_node16"><a xlink:href="conststr_8h.html" target="_top" xlink:title="A constexpr string type, suitable for basic compile&#45;time string processing. ">
<polygon fill="none" stroke="black" points="585.875,-55.5 585.875,-73.5 728.056,-73.5 728.056,-55.5 585.875,-55.5"/>
<text text-anchor="middle" x="656.965" y="-61.5" font-family="Helvetica,sans-Serif" font-size="10.00">tomographer/tools/conststr.h</text>
</a>
</g>
</g>
<!-- Node7&#45;&gt;Node15 -->
<g id="edge20" class="edge"><title>Node7&#45;&gt;Node15</title>
<path fill="none" stroke="midnightblue" d="M573.001,-110.45C588.919,-101.929 614.277,-88.3532 632.965,-78.3487"/>
<polygon fill="midnightblue" stroke="midnightblue" points="634.624,-81.4308 641.788,-73.6253 631.32,-75.2595 634.624,-81.4308"/>
</g>
<!-- Node14&#45;&gt;Node4 -->
<g id="edge18" class="edge"><title>Node14&#45;&gt;Node4</title>
<path fill="none" stroke="midnightblue" d="M322.387,-55.4504C291.798,-46.1865 241.491,-30.9506 208.048,-20.8222"/>
<polygon fill="midnightblue" stroke="midnightblue" points="208.836,-17.4039 198.251,-17.8551 206.807,-24.1034 208.836,-17.4039"/>
</g>
<!-- Node14&#45;&gt;Node5 -->
<g id="edge17" class="edge"><title>Node14&#45;&gt;Node5</title>
<path fill="none" stroke="midnightblue" d="M348.965,-55.2188C348.965,-48.1769 348.965,-37.8083 348.965,-28.8277"/>
<polygon fill="midnightblue" stroke="midnightblue" points="352.465,-28.5495 348.965,-18.5496 345.465,-28.5496 352.465,-28.5495"/>
</g>
<!-- Node14&#45;&gt;Node8 -->
<g id="edge19" class="edge"><title>Node14&#45;&gt;Node8</title>
<path fill="none" stroke="midnightblue" d="M369.773,-55.4504C392.606,-46.6173 429.473,-32.3546 455.549,-22.267"/>
<polygon fill="midnightblue" stroke="midnightblue" points="456.899,-25.4977 464.962,-18.6253 454.373,-18.9692 456.899,-25.4977"/>
</g>
<!-- Node16 -->
<g id="node17" class="node"><title>Node16</title>
<polygon fill="none" stroke="#bfbfbf" points="636.739,-0.5 636.739,-18.5 677.192,-18.5 677.192,-0.5 636.739,-0.5"/>
<text text-anchor="middle" x="656.965" y="-6.5" font-family="Helvetica,sans-Serif" font-size="10.00">string</text>
</g>
<!-- Node15&#45;&gt;Node16 -->
<g id="edge21" class="edge"><title>Node15&#45;&gt;Node16</title>
<path fill="none" stroke="midnightblue" d="M656.965,-55.2188C656.965,-48.1769 656.965,-37.8083 656.965,-28.8277"/>
<polygon fill="midnightblue" stroke="midnightblue" points="660.465,-28.5495 656.965,-18.5496 653.465,-28.5496 660.465,-28.5495"/>
</g>
<!-- Node17&#45;&gt;Node1 -->
<g id="edge27" class="edge"><title>Node17&#45;&gt;Node1</title>
<path fill="none" stroke="midnightblue" d="M964.441,-170.367C953.925,-161.508 938.421,-146.274 931.965,-129 926.527,-114.447 927.977,-96.6992 930.383,-83.6699"/>
<polygon fill="midnightblue" stroke="midnightblue" points="933.861,-84.1526 932.596,-73.6336 927.025,-82.6457 933.861,-84.1526"/>
</g>
<!-- Node17&#45;&gt;Node2 -->
<g id="edge29" class="edge"><title>Node17&#45;&gt;Node2</title>
<path fill="none" stroke="midnightblue" d="M1002.91,-170.435C1038.14,-160.27 1098.83,-142.757 1138.17,-131.405"/>
<polygon fill="midnightblue" stroke="midnightblue" points="1139.29,-134.725 1147.93,-128.589 1137.35,-127.999 1139.29,-134.725"/>
</g>
<!-- Node17&#45;&gt;Node10 -->
<g id="edge25" class="edge"><title>Node17&#45;&gt;Node10</title>
<path fill="none" stroke="midnightblue" d="M978.388,-170.163C982.351,-160.381 988.974,-143.637 993.965,-129 999.136,-113.837 1004.3,-96.3863 1007.94,-83.6204"/>
<polygon fill="midnightblue" stroke="midnightblue" points="1011.37,-84.3572 1010.7,-73.7832 1004.63,-82.4633 1011.37,-84.3572"/>
</g>
<!-- Node18 -->
<g id="node19" class="node"><title>Node18</title>
<polygon fill="none" stroke="#bfbfbf" points="941.35,-110.5 941.35,-128.5 984.581,-128.5 984.581,-110.5 941.35,-110.5"/>
<text text-anchor="middle" x="962.965" y="-116.5" font-family="Helvetica,sans-Serif" font-size="10.00">vector</text>
</g>
<!-- Node17&#45;&gt;Node18 -->
<g id="edge26" class="edge"><title>Node17&#45;&gt;Node18</title>
<path fill="none" stroke="midnightblue" d="M973.297,-170.435C971.614,-162.304 968.959,-149.469 966.762,-138.848"/>
<polygon fill="midnightblue" stroke="midnightblue" points="970.151,-137.955 964.697,-128.872 963.296,-139.374 970.151,-137.955"/>
</g>
<!-- Node19 -->
<g id="node20" class="node"><title>Node19</title>
<polygon fill="none" stroke="#bfbfbf" points="1041.33,-110.5 1041.33,-128.5 1114.6,-128.5 1114.6,-110.5 1041.33,-110.5"/>
<text text-anchor="middle" x="1077.97" y="-116.5" font-family="Helvetica,sans-Serif" font-size="10.00">Eigen/Dense</text>
</g>
<!-- Node17&#45;&gt;Node19 -->
<g id="edge28" class="edge"><title>Node17&#45;&gt;Node19</title>
<path fill="none" stroke="midnightblue" d="M989.287,-170.435C1006.18,-160.923 1034.5,-144.976 1054.59,-133.665"/>
<polygon fill="midnightblue" stroke="midnightblue" points="1056.44,-136.64 1063.43,-128.683 1053,-130.54 1056.44,-136.64"/>
</g>
</g>
</svg>
        <g id="navigator" transform="translate(0 0)" fill="#404254">
                <rect fill="#f2f5e9" fill-opacity="0.5" stroke="#606060" stroke-width=".5" x="0" y="0" width="60" height="60"/>
                <use id="zoomplus" xlink:href="#zoomPlus" x="17" y="9" onmousedown="handleZoom(evt,'in')"/>
                <use id="zoomminus" xlink:href="#zoomMin" x="42" y="9" onmousedown="handleZoom(evt,'out')"/>
                <use id="reset" xlink:href="#resetDef" x="30" y="36" onmousedown="handleReset()"/>
                <g id="arrowUp" xlink:href="#dirArrow" transform="translate(30 24)" onmousedown="handlePan(0,-1)">
                  <use xlink:href="#rim" fill="#404040">
                        <set attributeName="fill" to="#808080" begin="arrowUp.mouseover" end="arrowUp.mouseout"/>
                  </use>
                  <path fill="none" stroke="white" stroke-width="1.5" d="M0,-3.0v7 M-2.5,-0.5L0,-3.0L2.5,-0.5"/>
                </g>
                <g id="arrowRight" xlink:href="#dirArrow" transform="rotate(90) translate(36 -43)" onmousedown="handlePan(1,0)">
                  <use xlink:href="#rim" fill="#404040">
                        <set attributeName="fill" to="#808080" begin="arrowRight.mouseover" end="arrowRight.mouseout"/>
                  </use>
                  <path fill="none" stroke="white" stroke-width="1.5" d="M0,-3.0v7 M-2.5,-0.5L0,-3.0L2.5,-0.5"/>
                </g>
                <g id="arrowDown" xlink:href="#dirArrow" transform="rotate(180) translate(-30 -48)" onmousedown="handlePan(0,1)">
                  <use xlink:href="#rim" fill="#404040">
                        <set attributeName="fill" to="#808080" begin="arrowDown.mouseover" end="arrowDown.mouseout"/>
                  </use>
                  <path fill="none" stroke="white" stroke-width="1.5" d="M0,-3.0v7 M-2.5,-0.5L0,-3.0L2.5,-0.5"/>
                </g>
                <g id="arrowLeft" xlink:href="#dirArrow" transform="rotate(270) translate(-36 17)" onmousedown="handlePan(-1,0)">
                  <use xlink:href="#rim" fill="#404040">
                        <set attributeName="fill" to="#808080" begin="arrowLeft.mouseover" end="arrowLeft.mouseout"/>
                  </use>
                  <path fill="none" stroke="white" stroke-width="1.5" d="M0,-3.0v7 M-2.5,-0.5L0,-3.0L2.5,-0.5"/>
                </g>
        </g>
        <svg viewBox="0 0 15 15" width="100%" height="30px" preserveAspectRatio="xMaxYMin meet">
         <g id="arrow_out" transform="scale(0.3 0.3)">
          <a xlink:href="param__rho__a_8h__incl_org.svg" target="_base">
           <rect id="button" ry="5" rx="5" y="6" x="6" height="38" width="38"
                fill="#f2f5e9" fill-opacity="0.5" stroke="#606060" stroke-width="1.0"/>
           <path id="arrow"
             d="M 11.500037,31.436501 C 11.940474,20.09759 22.043105,11.32322 32.158766,21.979434 L 37.068811,17.246167 C 37.068811,17.246167 37.088388,32 37.088388,32 L 22.160133,31.978069 C 22.160133,31.978069 26.997745,27.140456 26.997745,27.140456 C 18.528582,18.264221 13.291696,25.230495 11.500037,31.436501 z"
             style="fill:#404040;"/>
          </a>
         </g>
        </svg>
</svg>
