<?xml version="1.0" encoding="UTF-8" standalone="no"?>
<!DOCTYPE svg PUBLIC "-//W3C//DTD SVG 1.1//EN"
 "http://www.w3.org/Graphics/SVG/1.1/DTD/svg11.dtd">
<!-- Generated by graphviz version 2.38.0 (20140413.2041)
 -->
<!-- Title: tomographer/mathtools/pos_semidef_util.h Pages: 1 -->
<!--zoomable 202 -->
<svg id="main" version="1.1" xmlns="http://www.w3.org/2000/svg" xmlns:xlink="http://www.w3.org/1999/xlink" xml:space="preserve" onload="init(evt)">
<style type="text/css"><![CDATA[
.edge:hover path { stroke: red; }
.edge:hover polygon { stroke: red; fill: red; }
]]></style>
<script type="text/javascript"><![CDATA[
var edges = document.getElementsByTagName('g');
if (edges && edges.length) {
  for (var i=0;i<edges.length;i++) {
    if (edges[i].id.substr(0,4)=='edge') {
      edges[i].setAttribute('class','edge');
    }
  }
}
]]></script>
        <defs>
                <circle id="rim" cx="0" cy="0" r="7"/>
                <circle id="rim2" cx="0" cy="0" r="3.5"/>
                <g id="zoomPlus">
                        <use xlink:href="#rim" fill="#404040">
                                <set attributeName="fill" to="#808080" begin="zoomplus.mouseover" end="zoomplus.mouseout"/>
                        </use>
                        <path d="M-4,0h8M0,-4v8" fill="none" stroke="white" stroke-width="1.5" pointer-events="none"/>
                </g>
                <g id="zoomMin">
                        <use xlink:href="#rim" fill="#404040">
                                <set attributeName="fill" to="#808080" begin="zoomminus.mouseover" end="zoomminus.mouseout"/>
                        </use>
                        <path d="M-4,0h8" fill="none" stroke="white" stroke-width="1.5" pointer-events="none"/>
                </g>
                <g id="dirArrow">
                        <path fill="none" stroke="white" stroke-width="1.5" d="M0,-3.0v7 M-2.5,-0.5L0,-3.0L2.5,-0.5"/>
                </g>
               <g id="resetDef">
                       <use xlink:href="#rim2" fill="#404040">
                               <set attributeName="fill" to="#808080" begin="reset.mouseover" end="reset.mouseout"/>
                       </use>
               </g>
        </defs>

<script type="text/javascript">
var viewWidth = 885;
var viewHeight = 202;
var sectionId = 'dynsection-0';
</script>
<script xlink:href="svgpan.js"/>
<svg id="graph" class="graph">
<g id="viewport">
<title>tomographer/mathtools/pos_semidef_util.h</title>
<!-- Node0 -->
<g id="node1" class="node"><title>Node0</title>
<polygon fill="#bfbfbf" stroke="black" points="276.599,-165.5 276.599,-193.5 395.431,-193.5 395.431,-165.5 276.599,-165.5"/>
<text text-anchor="start" x="284.599" y="-181.5" font-family="Helvetica,sans-Serif" font-size="10.00">tomographer/mathtools</text>
<text text-anchor="middle" x="336.015" y="-171.5" font-family="Helvetica,sans-Serif" font-size="10.00">/pos_semidef_util.h</text>
</g>
<!-- Node1 -->
<g id="node2" class="node"><title>Node1</title>
<polygon fill="none" stroke="#bfbfbf" points="0,-55.5 0,-73.5 66.0293,-73.5 66.0293,-55.5 0,-55.5"/>
<text text-anchor="middle" x="33.0146" y="-61.5" font-family="Helvetica,sans-Serif" font-size="10.00">Eigen/Core</text>
</g>
<!-- Node0&#45;&gt;Node1 -->
<g id="edge1" class="edge"><title>Node0&#45;&gt;Node1</title>
<path fill="none" stroke="midnightblue" d="M300.961,-165.427C241.297,-143.176 120.958,-98.2973 64.1074,-77.0956"/>
<polygon fill="midnightblue" stroke="midnightblue" points="65.1734,-73.7578 54.5807,-73.5428 62.7274,-80.3165 65.1734,-73.7578"/>
</g>
<!-- Node2 -->
<g id="node3" class="node"><title>Node2</title>
<polygon fill="none" stroke="#bfbfbf" points="421.596,-110.5 421.596,-128.5 520.433,-128.5 520.433,-110.5 421.596,-110.5"/>
<text text-anchor="middle" x="471.015" y="-116.5" font-family="Helvetica,sans-Serif" font-size="10.00">Eigen/Eigenvalues</text>
</g>
<!-- Node0&#45;&gt;Node2 -->
<g id="edge2" class="edge"><title>Node0&#45;&gt;Node2</title>
<path fill="none" stroke="midnightblue" d="M366.311,-165.484C389.2,-155.65 420.389,-142.25 442.762,-132.638"/>
<polygon fill="midnightblue" stroke="midnightblue" points="444.254,-135.807 452.06,-128.643 441.491,-129.375 444.254,-135.807"/>
</g>
<!-- Node3 -->
<g id="node4" class="node"><title>Node3</title>
<g id="a_node4"><a xlink:href="cxxutil_8h.html" target="_top" xlink:title="Some C++ utilities, with a tad of C++11 tricks. ">
<polygon fill="none" stroke="black" points="268.264,-110.5 268.264,-128.5 403.766,-128.5 403.766,-110.5 268.264,-110.5"/>
<text text-anchor="middle" x="336.015" y="-116.5" font-family="Helvetica,sans-Serif" font-size="10.00">tomographer/tools/cxxutil.h</text>
</a>
</g>
</g>
<!-- Node0&#45;&gt;Node3 -->
<g id="edge3" class="edge"><title>Node0&#45;&gt;Node3</title>
<path fill="none" stroke="midnightblue" d="M336.015,-165.339C336.015,-157.531 336.015,-147.512 336.015,-138.927"/>
<polygon fill="midnightblue" stroke="midnightblue" points="339.515,-138.771 336.015,-128.771 332.515,-138.772 339.515,-138.771"/>
</g>
<!-- Node3&#45;&gt;Node1 -->
<g id="edge18" class="edge"><title>Node3&#45;&gt;Node1</title>
<path fill="none" stroke="midnightblue" d="M289.284,-110.475C237.951,-101.637 153.082,-86.9576 80.0146,-74 78.7517,-73.776 77.4697,-73.5481 76.1757,-73.3175"/>
<polygon fill="midnightblue" stroke="midnightblue" points="76.5941,-69.8368 66.1336,-71.5188 75.3599,-76.7271 76.5941,-69.8368"/>
</g>
<!-- Node4 -->
<g id="node5" class="node"><title>Node4</title>
<polygon fill="none" stroke="#bfbfbf" points="243.899,-0.5 243.899,-18.5 292.13,-18.5 292.13,-0.5 243.899,-0.5"/>
<text text-anchor="middle" x="268.015" y="-6.5" font-family="Helvetica,sans-Serif" font-size="10.00">cassert</text>
</g>
<!-- Node3&#45;&gt;Node4 -->
<g id="edge4" class="edge"><title>Node3&#45;&gt;Node4</title>
<path fill="none" stroke="midnightblue" d="M268.049,-114.207C209.824,-108.944 132.386,-97.6188 113.015,-74 78.3648,-31.7526 178.073,-17.3138 233.58,-12.6213"/>
<polygon fill="midnightblue" stroke="midnightblue" points="234.016,-16.098 243.714,-11.8307 233.472,-9.11923 234.016,-16.098"/>
</g>
<!-- Node5 -->
<g id="node6" class="node"><title>Node5</title>
<polygon fill="none" stroke="#bfbfbf" points="501.894,-0.5 501.894,-18.5 550.135,-18.5 550.135,-0.5 501.894,-0.5"/>
<text text-anchor="middle" x="526.015" y="-6.5" font-family="Helvetica,sans-Serif" font-size="10.00">cstddef</text>
</g>
<!-- Node3&#45;&gt;Node5 -->
<g id="edge5" class="edge"><title>Node3&#45;&gt;Node5</title>
<path fill="none" stroke="midnightblue" d="M403.766,-110.513C432.722,-104.34 465.439,-93.3974 490.015,-74 504.759,-62.3627 514.498,-42.9146 520.085,-28.6014"/>
<polygon fill="midnightblue" stroke="midnightblue" points="523.492,-29.4658 523.562,-18.8712 516.901,-27.1101 523.492,-29.4658"/>
</g>
<!-- Node6 -->
<g id="node7" class="node"><title>Node6</title>
<polygon fill="none" stroke="#bfbfbf" points="634.842,-0.5 634.842,-18.5 679.187,-18.5 679.187,-0.5 634.842,-0.5"/>
<text text-anchor="middle" x="657.015" y="-6.5" font-family="Helvetica,sans-Serif" font-size="10.00">cstdlib</text>
</g>
<!-- Node3&#45;&gt;Node6 -->
<g id="edge6" class="edge"><title>Node3&#45;&gt;Node6</title>
<path fill="none" stroke="midnightblue" d="M404.157,-110.452C505.835,-98.3648 685.679,-76.6497 688.015,-74 700.493,-59.8452 686.785,-39.7764 673.854,-26.01"/>
<polygon fill="midnightblue" stroke="midnightblue" points="676.091,-23.2982 666.534,-18.7252 671.153,-28.26 676.091,-23.2982"/>
</g>
<!-- Node7 -->
<g id="node8" class="node"><title>Node7</title>
<polygon fill="none" stroke="#bfbfbf" points="121.842,-55.5 121.842,-73.5 176.187,-73.5 176.187,-55.5 121.842,-55.5"/>
<text text-anchor="middle" x="149.015" y="-61.5" font-family="Helvetica,sans-Serif" font-size="10.00">iostream</text>
</g>
<!-- Node3&#45;&gt;Node7 -->
<g id="edge7" class="edge"><title>Node3&#45;&gt;Node7</title>
<path fill="none" stroke="midnightblue" d="M307.613,-110.45C275.252,-101.278 222.235,-86.2522 186.503,-76.1249"/>
<polygon fill="midnightblue" stroke="midnightblue" points="187.038,-72.6389 176.463,-73.2794 185.129,-79.3737 187.038,-72.6389"/>
</g>
<!-- Node8 -->
<g id="node9" class="node"><title>Node8</title>
<polygon fill="none" stroke="#bfbfbf" points="194.396,-55.5 194.396,-73.5 247.633,-73.5 247.633,-55.5 194.396,-55.5"/>
<text text-anchor="middle" x="221.015" y="-61.5" font-family="Helvetica,sans-Serif" font-size="10.00">complex</text>
</g>
<!-- Node3&#45;&gt;Node8 -->
<g id="edge8" class="edge"><title>Node3&#45;&gt;Node8</title>
<path fill="none" stroke="midnightblue" d="M318.549,-110.45C299.805,-101.812 269.793,-87.9803 248.006,-77.9396"/>
<polygon fill="midnightblue" stroke="midnightblue" points="249.192,-74.6323 238.645,-73.6253 246.262,-80.9896 249.192,-74.6323"/>
</g>
<!-- Node9 -->
<g id="node10" class="node"><title>Node9</title>
<polygon fill="none" stroke="#bfbfbf" points="265.948,-55.5 265.948,-73.5 328.081,-73.5 328.081,-55.5 265.948,-55.5"/>
<text text-anchor="middle" x="297.015" y="-61.5" font-family="Helvetica,sans-Serif" font-size="10.00">type_traits</text>
</g>
<!-- Node3&#45;&gt;Node9 -->
<g id="edge9" class="edge"><title>Node3&#45;&gt;Node9</title>
<path fill="none" stroke="midnightblue" d="M329.921,-110.219C324.336,-102.629 315.908,-91.1753 308.979,-81.7597"/>
<polygon fill="midnightblue" stroke="midnightblue" points="311.684,-79.5296 302.938,-73.5496 306.046,-83.6784 311.684,-79.5296"/>
</g>
<!-- Node10 -->
<g id="node11" class="node"><title>Node10</title>
<polygon fill="none" stroke="#bfbfbf" points="345.611,-55.5 345.611,-73.5 404.418,-73.5 404.418,-55.5 345.611,-55.5"/>
<text text-anchor="middle" x="375.015" y="-61.5" font-family="Helvetica,sans-Serif" font-size="10.00">exception</text>
</g>
<!-- Node3&#45;&gt;Node10 -->
<g id="edge10" class="edge"><title>Node3&#45;&gt;Node10</title>
<path fill="none" stroke="midnightblue" d="M342.108,-110.219C347.693,-102.629 356.122,-91.1753 363.05,-81.7597"/>
<polygon fill="midnightblue" stroke="midnightblue" points="365.984,-83.6784 369.091,-73.5496 360.346,-79.5296 365.984,-83.6784"/>
</g>
<!-- Node11 -->
<g id="node12" class="node"><title>Node11</title>
<polygon fill="none" stroke="#bfbfbf" points="422.613,-55.5 422.613,-73.5 481.416,-73.5 481.416,-55.5 422.613,-55.5"/>
<text text-anchor="middle" x="452.015" y="-61.5" font-family="Helvetica,sans-Serif" font-size="10.00">stdexcept</text>
</g>
<!-- Node3&#45;&gt;Node11 -->
<g id="edge11" class="edge"><title>Node3&#45;&gt;Node11</title>
<path fill="none" stroke="midnightblue" d="M353.633,-110.45C372.625,-101.773 403.085,-87.8556 425.085,-77.8041"/>
<polygon fill="midnightblue" stroke="midnightblue" points="426.59,-80.9646 434.231,-73.6253 423.681,-74.5977 426.59,-80.9646"/>
</g>
<!-- Node12 -->
<g id="node13" class="node"><title>Node12</title>
<g id="a_node13"><a xlink:href="cxxdefs_8h.html" target="_top" xlink:title="Basic definitions, which may have to be defined before any Eigen headers or further utilities are inc...">
<polygon fill="none" stroke="black" points="537.205,-55.5 537.205,-73.5 678.825,-73.5 678.825,-55.5 537.205,-55.5"/>
<text text-anchor="middle" x="608.015" y="-61.5" font-family="Helvetica,sans-Serif" font-size="10.00">tomographer/tools/cxxdefs.h</text>
</a>
</g>
</g>
<!-- Node3&#45;&gt;Node12 -->
<g id="edge12" class="edge"><title>Node3&#45;&gt;Node12</title>
<path fill="none" stroke="midnightblue" d="M377.326,-110.45C425.393,-101.084 504.79,-85.6136 556.752,-75.4886"/>
<polygon fill="midnightblue" stroke="midnightblue" points="557.615,-78.8863 566.761,-73.5383 556.277,-72.0156 557.615,-78.8863"/>
</g>
<!-- Node13 -->
<g id="node14" class="node"><title>Node13</title>
<g id="a_node14"><a xlink:href="conststr_8h.html" target="_top" xlink:title="A constexpr string type, suitable for basic compile&#45;time string processing. ">
<polygon fill="none" stroke="black" points="734.924,-55.5 734.924,-73.5 877.105,-73.5 877.105,-55.5 734.924,-55.5"/>
<text text-anchor="middle" x="806.015" y="-61.5" font-family="Helvetica,sans-Serif" font-size="10.00">tomographer/tools/conststr.h</text>
</a>
</g>
</g>
<!-- Node3&#45;&gt;Node13 -->
<g id="edge16" class="edge"><title>Node3&#45;&gt;Node13</title>
<path fill="none" stroke="midnightblue" d="M403.855,-110.85C488.757,-101.276 634.015,-84.8958 724.761,-74.6626"/>
<polygon fill="midnightblue" stroke="midnightblue" points="725.186,-78.137 734.731,-73.5384 724.402,-71.1811 725.186,-78.137"/>
</g>
<!-- Node12&#45;&gt;Node4 -->
<g id="edge13" class="edge"><title>Node12&#45;&gt;Node4</title>
<path fill="none" stroke="midnightblue" d="M556.376,-55.4504C486.102,-44.4959 362.258,-25.1908 302.365,-15.8546"/>
<polygon fill="midnightblue" stroke="midnightblue" points="302.714,-12.3668 292.294,-14.2847 301.636,-19.2833 302.714,-12.3668"/>
</g>
<!-- Node12&#45;&gt;Node5 -->
<g id="edge14" class="edge"><title>Node12&#45;&gt;Node5</title>
<path fill="none" stroke="midnightblue" d="M595.561,-55.4504C582.797,-47.201 562.707,-34.2158 547.395,-24.3187"/>
<polygon fill="midnightblue" stroke="midnightblue" points="548.884,-21.1142 538.586,-18.6253 545.084,-26.9931 548.884,-21.1142"/>
</g>
<!-- Node12&#45;&gt;Node6 -->
<g id="edge15" class="edge"><title>Node12&#45;&gt;Node6</title>
<path fill="none" stroke="midnightblue" d="M615.671,-55.2188C622.832,-47.4727 633.715,-35.7013 642.518,-26.1799"/>
<polygon fill="midnightblue" stroke="midnightblue" points="645.354,-28.2683 649.573,-18.5496 640.214,-23.5163 645.354,-28.2683"/>
</g>
<!-- Node14 -->
<g id="node15" class="node"><title>Node14</title>
<polygon fill="none" stroke="#bfbfbf" points="785.788,-0.5 785.788,-18.5 826.241,-18.5 826.241,-0.5 785.788,-0.5"/>
<text text-anchor="middle" x="806.015" y="-6.5" font-family="Helvetica,sans-Serif" font-size="10.00">string</text>
</g>
<!-- Node13&#45;&gt;Node14 -->
<g id="edge17" class="edge"><title>Node13&#45;&gt;Node14</title>
<path fill="none" stroke="midnightblue" d="M806.015,-55.2188C806.015,-48.1769 806.015,-37.8083 806.015,-28.8277"/>
<polygon fill="midnightblue" stroke="midnightblue" points="809.515,-28.5495 806.015,-18.5496 802.515,-28.5496 809.515,-28.5495"/>
</g>
</g>
</svg>
        <g id="navigator" transform="translate(0 0)" fill="#404254">
                <rect fill="#f2f5e9" fill-opacity="0.5" stroke="#606060" stroke-width=".5" x="0" y="0" width="60" height="60"/>
                <use id="zoomplus" xlink:href="#zoomPlus" x="17" y="9" onmousedown="handleZoom(evt,'in')"/>
                <use id="zoomminus" xlink:href="#zoomMin" x="42" y="9" onmousedown="handleZoom(evt,'out')"/>
                <use id="reset" xlink:href="#resetDef" x="30" y="36" onmousedown="handleReset()"/>
                <g id="arrowUp" xlink:href="#dirArrow" transform="translate(30 24)" onmousedown="handlePan(0,-1)">
                  <use xlink:href="#rim" fill="#404040">
                        <set attributeName="fill" to="#808080" begin="arrowUp.mouseover" end="arrowUp.mouseout"/>
                  </use>
                  <path fill="none" stroke="white" stroke-width="1.5" d="M0,-3.0v7 M-2.5,-0.5L0,-3.0L2.5,-0.5"/>
                </g>
                <g id="arrowRight" xlink:href="#dirArrow" transform="rotate(90) translate(36 -43)" onmousedown="handlePan(1,0)">
                  <use xlink:href="#rim" fill="#404040">
                        <set attributeName="fill" to="#808080" begin="arrowRight.mouseover" end="arrowRight.mouseout"/>
                  </use>
                  <path fill="none" stroke="white" stroke-width="1.5" d="M0,-3.0v7 M-2.5,-0.5L0,-3.0L2.5,-0.5"/>
                </g>
                <g id="arrowDown" xlink:href="#dirArrow" transform="rotate(180) translate(-30 -48)" onmousedown="handlePan(0,1)">
                  <use xlink:href="#rim" fill="#404040">
                        <set attributeName="fill" to="#808080" begin="arrowDown.mouseover" end="arrowDown.mouseout"/>
                  </use>
                  <path fill="none" stroke="white" stroke-width="1.5" d="M0,-3.0v7 M-2.5,-0.5L0,-3.0L2.5,-0.5"/>
                </g>
                <g id="arrowLeft" xlink:href="#dirArrow" transform="rotate(270) translate(-36 17)" onmousedown="handlePan(-1,0)">
                  <use xlink:href="#rim" fill="#404040">
                        <set attributeName="fill" to="#808080" begin="arrowLeft.mouseover" end="arrowLeft.mouseout"/>
                  </use>
                  <path fill="none" stroke="white" stroke-width="1.5" d="M0,-3.0v7 M-2.5,-0.5L0,-3.0L2.5,-0.5"/>
                </g>
        </g>
        <svg viewBox="0 0 15 15" width="100%" height="30px" preserveAspectRatio="xMaxYMin meet">
         <g id="arrow_out" transform="scale(0.3 0.3)">
          <a xlink:href="pos__semidef__util_8h__incl_org.svg" target="_base">
           <rect id="button" ry="5" rx="5" y="6" x="6" height="38" width="38"
                fill="#f2f5e9" fill-opacity="0.5" stroke="#606060" stroke-width="1.0"/>
           <path id="arrow"
             d="M 11.500037,31.436501 C 11.940474,20.09759 22.043105,11.32322 32.158766,21.979434 L 37.068811,17.246167 C 37.068811,17.246167 37.088388,32 37.088388,32 L 22.160133,31.978069 C 22.160133,31.978069 26.997745,27.140456 26.997745,27.140456 C 18.528582,18.264221 13.291696,25.230495 11.500037,31.436501 z"
             style="fill:#404040;"/>
          </a>
         </g>
        </svg>
</svg>
