<?xml version="1.0" encoding="UTF-8" standalone="no"?>
<!DOCTYPE svg PUBLIC "-//W3C//DTD SVG 1.1//EN"
 "http://www.w3.org/Graphics/SVG/1.1/DTD/svg11.dtd">
<!-- Generated by graphviz version 2.38.0 (20140413.2041)
 -->
<!-- Title: tomographer/mathtools/simple_find_zero.h Pages: 1 -->
<svg width="1075pt" height="312pt"
 viewBox="0.00 0.00 1074.71 312.00" xmlns="http://www.w3.org/2000/svg" xmlns:xlink="http://www.w3.org/1999/xlink">
<g id="graph0" class="graph" transform="scale(1 1) rotate(0) translate(4 308)">
<title>tomographer/mathtools/simple_find_zero.h</title>
<!-- Node0 -->
<g id="node1" class="node"><title>Node0</title>
<polygon fill="#bfbfbf" stroke="black" points="35.1997,-275.5 35.1997,-303.5 154.032,-303.5 154.032,-275.5 35.1997,-275.5"/>
<text text-anchor="start" x="43.1997" y="-291.5" font-family="Helvetica,sans-Serif" font-size="10.00">tomographer/mathtools</text>
<text text-anchor="middle" x="94.6157" y="-281.5" font-family="Helvetica,sans-Serif" font-size="10.00">/simple_find_zero.h</text>
</g>
<!-- Node1 -->
<g id="node2" class="node"><title>Node1</title>
<polygon fill="none" stroke="#bfbfbf" points="0,-220.5 0,-238.5 43.2314,-238.5 43.2314,-220.5 0,-220.5"/>
<text text-anchor="middle" x="21.6157" y="-226.5" font-family="Helvetica,sans-Serif" font-size="10.00">cmath</text>
</g>
<!-- Node0&#45;&gt;Node1 -->
<g id="edge1" class="edge"><title>Node0&#45;&gt;Node1</title>
<path fill="none" stroke="midnightblue" d="M78.0509,-275.339C66.6772,-266.302 51.5781,-254.306 39.8599,-244.995"/>
<polygon fill="midnightblue" stroke="midnightblue" points="42.0332,-242.252 32.0264,-238.771 37.6787,-247.733 42.0332,-242.252"/>
</g>
<!-- Node2 -->
<g id="node3" class="node"><title>Node2</title>
<polygon fill="none" stroke="#bfbfbf" points="88.5542,-110.5 88.5542,-128.5 130.677,-128.5 130.677,-110.5 88.5542,-110.5"/>
<text text-anchor="middle" x="109.616" y="-116.5" font-family="Helvetica,sans-Serif" font-size="10.00">cstdio</text>
</g>
<!-- Node0&#45;&gt;Node2 -->
<g id="edge2" class="edge"><title>Node0&#45;&gt;Node2</title>
<path fill="none" stroke="midnightblue" d="M93.2761,-275.49C92.3192,-265.517 91.1161,-251.405 90.6157,-239 90.2754,-230.562 89.8202,-228.407 90.6157,-220 93.3428,-191.18 100.418,-158.284 105.123,-138.469"/>
<polygon fill="midnightblue" stroke="midnightblue" points="108.541,-139.224 107.509,-128.68 101.74,-137.567 108.541,-139.224"/>
</g>
<!-- Node3 -->
<g id="node4" class="node"><title>Node3</title>
<polygon fill="none" stroke="#bfbfbf" points="99.229,-220.5 99.229,-238.5 138.002,-238.5 138.002,-220.5 99.229,-220.5"/>
<text text-anchor="middle" x="118.616" y="-226.5" font-family="Helvetica,sans-Serif" font-size="10.00">limits</text>
</g>
<!-- Node0&#45;&gt;Node3 -->
<g id="edge3" class="edge"><title>Node0&#45;&gt;Node3</title>
<path fill="none" stroke="midnightblue" d="M100.062,-275.339C103.402,-267.267 107.719,-256.834 111.348,-248.063"/>
<polygon fill="midnightblue" stroke="midnightblue" points="114.604,-249.35 115.193,-238.771 108.135,-246.673 114.604,-249.35"/>
</g>
<!-- Node4 -->
<g id="node5" class="node"><title>Node4</title>
<g id="a_node5"><a xlink:href="loggers_8h.html" target="_top" xlink:title="Utilities for logging messages. ">
<polygon fill="none" stroke="black" points="329.357,-220.5 329.357,-238.5 469.874,-238.5 469.874,-220.5 329.357,-220.5"/>
<text text-anchor="middle" x="399.616" y="-226.5" font-family="Helvetica,sans-Serif" font-size="10.00">tomographer/tools/loggers.h</text>
</a>
</g>
</g>
<!-- Node0&#45;&gt;Node4 -->
<g id="edge4" class="edge"><title>Node0&#45;&gt;Node4</title>
<path fill="none" stroke="midnightblue" d="M154.147,-277.179C210.335,-266.494 293.752,-250.632 347.408,-240.428"/>
<polygon fill="midnightblue" stroke="midnightblue" points="348.226,-243.835 357.396,-238.529 346.918,-236.959 348.226,-243.835"/>
</g>
<!-- Node4&#45;&gt;Node2 -->
<g id="edge5" class="edge"><title>Node4&#45;&gt;Node2</title>
<path fill="none" stroke="midnightblue" d="M329.219,-223.67C284.692,-218.375 226.996,-207.273 180.616,-184 157.387,-172.344 135.921,-151.068 122.807,-136.376"/>
<polygon fill="midnightblue" stroke="midnightblue" points="125.286,-133.891 116.101,-128.609 119.987,-138.466 125.286,-133.891"/>
</g>
<!-- Node5 -->
<g id="node6" class="node"><title>Node5</title>
<polygon fill="none" stroke="#bfbfbf" points="150.219,-110.5 150.219,-128.5 199.012,-128.5 199.012,-110.5 150.219,-110.5"/>
<text text-anchor="middle" x="174.616" y="-116.5" font-family="Helvetica,sans-Serif" font-size="10.00">cstdarg</text>
</g>
<!-- Node4&#45;&gt;Node5 -->
<g id="edge6" class="edge"><title>Node4&#45;&gt;Node5</title>
<path fill="none" stroke="midnightblue" d="M329.507,-220.494C278.913,-213.386 216.202,-201.406 196.616,-184 183.816,-172.625 178.462,-153.422 176.223,-139.105"/>
<polygon fill="midnightblue" stroke="midnightblue" points="179.668,-138.431 175.012,-128.913 172.716,-139.256 179.668,-138.431"/>
</g>
<!-- Node6 -->
<g id="node7" class="node"><title>Node6</title>
<polygon fill="none" stroke="#bfbfbf" points="876.389,-0.5 876.389,-18.5 916.842,-18.5 916.842,-0.5 876.389,-0.5"/>
<text text-anchor="middle" x="896.616" y="-6.5" font-family="Helvetica,sans-Serif" font-size="10.00">string</text>
</g>
<!-- Node4&#45;&gt;Node6 -->
<g id="edge7" class="edge"><title>Node4&#45;&gt;Node6</title>
<path fill="none" stroke="midnightblue" d="M470.079,-223.916C526.028,-218.641 605.557,-207.458 671.616,-184 764.292,-151.09 795.515,-144.952 863.616,-74 876.107,-60.9863 885.044,-42.3092 890.44,-28.5784"/>
<polygon fill="midnightblue" stroke="midnightblue" points="893.858,-29.4234 894.01,-18.8297 887.285,-27.0167 893.858,-29.4234"/>
</g>
<!-- Node7 -->
<g id="node8" class="node"><title>Node7</title>
<polygon fill="none" stroke="#bfbfbf" points="217.835,-110.5 217.835,-128.5 269.396,-128.5 269.396,-110.5 217.835,-110.5"/>
<text text-anchor="middle" x="243.616" y="-116.5" font-family="Helvetica,sans-Serif" font-size="10.00">sstream</text>
</g>
<!-- Node4&#45;&gt;Node7 -->
<g id="edge8" class="edge"><title>Node4&#45;&gt;Node7</title>
<path fill="none" stroke="midnightblue" d="M329.253,-221.624C279.955,-215.184 220.204,-203.547 204.616,-184 192.16,-168.382 208.918,-148.503 224.18,-135.185"/>
<polygon fill="midnightblue" stroke="midnightblue" points="226.789,-137.573 232.31,-128.53 222.355,-132.156 226.789,-137.573"/>
</g>
<!-- Node8 -->
<g id="node9" class="node"><title>Node8</title>
<polygon fill="none" stroke="#bfbfbf" points="114.443,-55.5 114.443,-73.5 168.788,-73.5 168.788,-55.5 114.443,-55.5"/>
<text text-anchor="middle" x="141.616" y="-61.5" font-family="Helvetica,sans-Serif" font-size="10.00">iostream</text>
</g>
<!-- Node4&#45;&gt;Node8 -->
<g id="edge9" class="edge"><title>Node4&#45;&gt;Node8</title>
<path fill="none" stroke="midnightblue" d="M469.874,-224.071C528.118,-218.76 604.371,-207.444 623.616,-184 628.974,-177.473 628.665,-171.769 623.616,-165 597.971,-130.622 480.533,-119.078 438.616,-110 327.719,-85.9825 295.124,-94.5715 179.031,-73.8977"/>
<polygon fill="midnightblue" stroke="midnightblue" points="179.503,-70.4263 169.039,-72.0834 178.253,-77.3136 179.503,-70.4263"/>
</g>
<!-- Node9 -->
<g id="node10" class="node"><title>Node9</title>
<polygon fill="none" stroke="#bfbfbf" points="213.212,-165.5 213.212,-183.5 272.02,-183.5 272.02,-165.5 213.212,-165.5"/>
<text text-anchor="middle" x="242.616" y="-171.5" font-family="Helvetica,sans-Serif" font-size="10.00">functional</text>
</g>
<!-- Node4&#45;&gt;Node9 -->
<g id="edge10" class="edge"><title>Node4&#45;&gt;Node9</title>
<path fill="none" stroke="midnightblue" d="M375.771,-220.45C349.182,-211.475 305.985,-196.892 276.034,-186.781"/>
<polygon fill="midnightblue" stroke="midnightblue" points="277.022,-183.421 266.427,-183.538 274.783,-190.053 277.022,-183.421"/>
</g>
<!-- Node10 -->
<g id="node11" class="node"><title>Node10</title>
<polygon fill="none" stroke="#bfbfbf" points="768.549,-55.5 768.549,-73.5 830.682,-73.5 830.682,-55.5 768.549,-55.5"/>
<text text-anchor="middle" x="799.616" y="-61.5" font-family="Helvetica,sans-Serif" font-size="10.00">type_traits</text>
</g>
<!-- Node4&#45;&gt;Node10 -->
<g id="edge11" class="edge"><title>Node4&#45;&gt;Node10</title>
<path fill="none" stroke="midnightblue" d="M469.899,-222.781C518.63,-217.064 584.274,-205.825 638.616,-184 699.324,-159.619 757.921,-106.894 784.601,-80.7857"/>
<polygon fill="midnightblue" stroke="midnightblue" points="787.204,-83.1331 791.823,-73.5983 782.266,-78.1713 787.204,-83.1331"/>
</g>
<!-- Node11 -->
<g id="node12" class="node"><title>Node11</title>
<polygon fill="none" stroke="#bfbfbf" points="429.889,-165.5 429.889,-183.5 465.342,-183.5 465.342,-165.5 429.889,-165.5"/>
<text text-anchor="middle" x="447.616" y="-171.5" font-family="Helvetica,sans-Serif" font-size="10.00">map</text>
</g>
<!-- Node4&#45;&gt;Node11 -->
<g id="edge12" class="edge"><title>Node4&#45;&gt;Node11</title>
<path fill="none" stroke="midnightblue" d="M407.116,-220.219C414.131,-212.473 424.792,-200.701 433.415,-191.18"/>
<polygon fill="midnightblue" stroke="midnightblue" points="436.207,-193.311 440.326,-183.55 431.019,-188.612 436.207,-193.311"/>
</g>
<!-- Node12 -->
<g id="node13" class="node"><title>Node12</title>
<polygon fill="none" stroke="#bfbfbf" points="483.084,-165.5 483.084,-183.5 614.147,-183.5 614.147,-165.5 483.084,-165.5"/>
<text text-anchor="middle" x="548.616" y="-171.5" font-family="Helvetica,sans-Serif" font-size="10.00">boost/algorithm/string.hpp</text>
</g>
<!-- Node4&#45;&gt;Node12 -->
<g id="edge13" class="edge"><title>Node4&#45;&gt;Node12</title>
<path fill="none" stroke="midnightblue" d="M422.246,-220.45C447.297,-211.539 487.883,-197.103 516.282,-187.001"/>
<polygon fill="midnightblue" stroke="midnightblue" points="517.524,-190.274 525.773,-183.625 515.178,-183.679 517.524,-190.274"/>
</g>
<!-- Node13 -->
<g id="node14" class="node"><title>Node13</title>
<g id="a_node14"><a xlink:href="fmt_8h.html" target="_top" xlink:title="Utilities for formatting strings. ">
<polygon fill="none" stroke="black" points="289.813,-165.5 289.813,-183.5 411.418,-183.5 411.418,-165.5 289.813,-165.5"/>
<text text-anchor="middle" x="350.616" y="-171.5" font-family="Helvetica,sans-Serif" font-size="10.00">tomographer/tools/fmt.h</text>
</a>
</g>
</g>
<!-- Node4&#45;&gt;Node13 -->
<g id="edge14" class="edge"><title>Node4&#45;&gt;Node13</title>
<path fill="none" stroke="midnightblue" d="M391.959,-220.219C384.798,-212.473 373.915,-200.701 365.112,-191.18"/>
<polygon fill="midnightblue" stroke="midnightblue" points="367.416,-188.516 358.058,-183.55 362.276,-193.268 367.416,-188.516"/>
</g>
<!-- Node24 -->
<g id="node25" class="node"><title>Node24</title>
<g id="a_node25"><a xlink:href="conststr_8h.html" target="_top" xlink:title="A constexpr string type, suitable for basic compile&#45;time string processing. ">
<polygon fill="none" stroke="black" points="924.525,-55.5 924.525,-73.5 1066.71,-73.5 1066.71,-55.5 924.525,-55.5"/>
<text text-anchor="middle" x="995.616" y="-61.5" font-family="Helvetica,sans-Serif" font-size="10.00">tomographer/tools/conststr.h</text>
</a>
</g>
</g>
<!-- Node4&#45;&gt;Node24 -->
<g id="edge38" class="edge"><title>Node4&#45;&gt;Node24</title>
<path fill="none" stroke="midnightblue" d="M469.932,-225.627C601.096,-219.796 873.231,-205.292 910.616,-184 951.014,-160.992 977.19,-110.023 988.762,-83.042"/>
<polygon fill="midnightblue" stroke="midnightblue" points="992.043,-84.2674 992.598,-73.6871 985.566,-81.6119 992.043,-84.2674"/>
</g>
<!-- Node13&#45;&gt;Node2 -->
<g id="edge15" class="edge"><title>Node13&#45;&gt;Node2</title>
<path fill="none" stroke="midnightblue" d="M310.024,-165.481C267.814,-156.997 199.886,-142.933 141.616,-129 141.291,-128.922 140.964,-128.844 140.636,-128.764"/>
<polygon fill="midnightblue" stroke="midnightblue" points="141.474,-125.366 130.922,-126.318 139.765,-132.154 141.474,-125.366"/>
</g>
<!-- Node13&#45;&gt;Node5 -->
<g id="edge16" class="edge"><title>Node13&#45;&gt;Node5</title>
<path fill="none" stroke="midnightblue" d="M323.885,-165.45C293.122,-156.187 242.527,-140.951 208.893,-130.822"/>
<polygon fill="midnightblue" stroke="midnightblue" points="209.625,-127.387 199.04,-127.855 207.606,-134.09 209.625,-127.387"/>
</g>
<!-- Node13&#45;&gt;Node6 -->
<g id="edge18" class="edge"><title>Node13&#45;&gt;Node6</title>
<path fill="none" stroke="midnightblue" d="M411.698,-166.075C414.713,-165.711 417.699,-165.351 420.616,-165 554.82,-148.853 592.672,-166.231 722.616,-129 777.852,-113.174 793.506,-108.285 839.616,-74 857.559,-60.658 874.159,-40.9745 884.761,-27.0655"/>
<polygon fill="midnightblue" stroke="midnightblue" points="887.681,-29.004 890.816,-18.8838 882.054,-24.8397 887.681,-29.004"/>
</g>
<!-- Node13&#45;&gt;Node7 -->
<g id="edge19" class="edge"><title>Node13&#45;&gt;Node7</title>
<path fill="none" stroke="midnightblue" d="M334.365,-165.45C317.003,-156.851 289.252,-143.105 269.004,-133.075"/>
<polygon fill="midnightblue" stroke="midnightblue" points="270.534,-129.928 260.02,-128.625 267.427,-136.2 270.534,-129.928"/>
</g>
<!-- Node13&#45;&gt;Node8 -->
<g id="edge20" class="edge"><title>Node13&#45;&gt;Node8</title>
<path fill="none" stroke="midnightblue" d="M343.45,-165.299C331.35,-151.922 305.543,-125.361 278.616,-110 261.415,-100.188 213.067,-85.486 178.691,-75.6991"/>
<polygon fill="midnightblue" stroke="midnightblue" points="179.537,-72.3014 168.963,-72.954 177.636,-79.0383 179.537,-72.3014"/>
</g>
<!-- Node14 -->
<g id="node15" class="node"><title>Node14</title>
<polygon fill="none" stroke="#bfbfbf" points="326.328,-110.5 326.328,-128.5 372.904,-128.5 372.904,-110.5 326.328,-110.5"/>
<text text-anchor="middle" x="349.616" y="-116.5" font-family="Helvetica,sans-Serif" font-size="10.00">chrono</text>
</g>
<!-- Node13&#45;&gt;Node14 -->
<g id="edge17" class="edge"><title>Node13&#45;&gt;Node14</title>
<path fill="none" stroke="midnightblue" d="M350.459,-165.219C350.327,-158.177 350.131,-147.808 349.962,-138.828"/>
<polygon fill="midnightblue" stroke="midnightblue" points="353.456,-138.482 349.768,-128.55 346.457,-138.614 353.456,-138.482"/>
</g>
<!-- Node15 -->
<g id="node16" class="node"><title>Node15</title>
<polygon fill="none" stroke="#bfbfbf" points="391.224,-110.5 391.224,-128.5 430.007,-128.5 430.007,-110.5 391.224,-110.5"/>
<text text-anchor="middle" x="410.616" y="-116.5" font-family="Helvetica,sans-Serif" font-size="10.00">utility</text>
</g>
<!-- Node13&#45;&gt;Node15 -->
<g id="edge21" class="edge"><title>Node13&#45;&gt;Node15</title>
<path fill="none" stroke="midnightblue" d="M359.728,-165.45C368.715,-157.512 382.666,-145.189 393.689,-135.452"/>
<polygon fill="midnightblue" stroke="midnightblue" points="396.24,-137.869 401.417,-128.625 391.605,-132.623 396.24,-137.869"/>
</g>
<!-- Node16 -->
<g id="node17" class="node"><title>Node16</title>
<g id="a_node17"><a xlink:href="cxxutil_8h.html" target="_top" xlink:title="Some C++ utilities, with a tad of C++11 tricks. ">
<polygon fill="none" stroke="black" points="577.865,-110.5 577.865,-128.5 713.367,-128.5 713.367,-110.5 577.865,-110.5"/>
<text text-anchor="middle" x="645.616" y="-116.5" font-family="Helvetica,sans-Serif" font-size="10.00">tomographer/tools/cxxutil.h</text>
</a>
</g>
</g>
<!-- Node13&#45;&gt;Node16 -->
<g id="edge22" class="edge"><title>Node13&#45;&gt;Node16</title>
<path fill="none" stroke="midnightblue" d="M395.42,-165.45C447.769,-156.045 534.381,-140.485 590.722,-130.362"/>
<polygon fill="midnightblue" stroke="midnightblue" points="591.651,-133.752 600.874,-128.538 590.413,-126.862 591.651,-133.752"/>
</g>
<!-- Node16&#45;&gt;Node8 -->
<g id="edge26" class="edge"><title>Node16&#45;&gt;Node8</title>
<path fill="none" stroke="midnightblue" d="M577.608,-111.397C572.873,-110.919 568.174,-110.449 563.616,-110 395.844,-93.4611 350.024,-100.998 179.112,-73.8415"/>
<polygon fill="midnightblue" stroke="midnightblue" points="179.444,-70.35 169.015,-72.2203 178.334,-77.2615 179.444,-70.35"/>
</g>
<!-- Node16&#45;&gt;Node10 -->
<g id="edge28" class="edge"><title>Node16&#45;&gt;Node10</title>
<path fill="none" stroke="midnightblue" d="M669.005,-110.45C694.973,-101.514 737.089,-87.0189 766.452,-76.9134"/>
<polygon fill="midnightblue" stroke="midnightblue" points="767.942,-80.1021 776.259,-73.5383 765.664,-73.4831 767.942,-80.1021"/>
</g>
<!-- Node17 -->
<g id="node18" class="node"><title>Node17</title>
<polygon fill="none" stroke="#bfbfbf" points="349.5,-0.5 349.5,-18.5 397.731,-18.5 397.731,-0.5 349.5,-0.5"/>
<text text-anchor="middle" x="373.616" y="-6.5" font-family="Helvetica,sans-Serif" font-size="10.00">cassert</text>
</g>
<!-- Node16&#45;&gt;Node17 -->
<g id="edge23" class="edge"><title>Node16&#45;&gt;Node17</title>
<path fill="none" stroke="midnightblue" d="M585.253,-110.458C508.086,-99.8962 383.537,-81.7808 376.616,-74 365.85,-61.8977 366.442,-42.801 368.908,-28.7075"/>
<polygon fill="midnightblue" stroke="midnightblue" points="372.377,-29.2248 371.106,-18.7066 365.541,-27.7223 372.377,-29.2248"/>
</g>
<!-- Node18 -->
<g id="node19" class="node"><title>Node18</title>
<polygon fill="none" stroke="#bfbfbf" points="487.495,-0.5 487.495,-18.5 535.736,-18.5 535.736,-0.5 487.495,-0.5"/>
<text text-anchor="middle" x="511.616" y="-6.5" font-family="Helvetica,sans-Serif" font-size="10.00">cstddef</text>
</g>
<!-- Node16&#45;&gt;Node18 -->
<g id="edge24" class="edge"><title>Node16&#45;&gt;Node18</title>
<path fill="none" stroke="midnightblue" d="M656.634,-110.489C672.406,-98.051 698.009,-73.5906 683.616,-55 666.886,-33.3915 590.91,-20.3765 545.72,-14.4113"/>
<polygon fill="midnightblue" stroke="midnightblue" points="546.125,-10.9347 535.763,-13.145 545.241,-17.8787 546.125,-10.9347"/>
</g>
<!-- Node19 -->
<g id="node20" class="node"><title>Node19</title>
<polygon fill="none" stroke="#bfbfbf" points="663.443,-0.5 663.443,-18.5 707.788,-18.5 707.788,-0.5 663.443,-0.5"/>
<text text-anchor="middle" x="685.616" y="-6.5" font-family="Helvetica,sans-Serif" font-size="10.00">cstdlib</text>
</g>
<!-- Node16&#45;&gt;Node19 -->
<g id="edge25" class="edge"><title>Node16&#45;&gt;Node19</title>
<path fill="none" stroke="midnightblue" d="M669.713,-110.493C686.154,-103.624 706.684,-91.9468 716.616,-74 725.47,-58 713.503,-39.1035 701.96,-26.1083"/>
<polygon fill="midnightblue" stroke="midnightblue" points="704.461,-23.6601 695.017,-18.8582 699.406,-28.5015 704.461,-23.6601"/>
</g>
<!-- Node20 -->
<g id="node21" class="node"><title>Node20</title>
<polygon fill="none" stroke="#bfbfbf" points="544.998,-55.5 544.998,-73.5 598.234,-73.5 598.234,-55.5 544.998,-55.5"/>
<text text-anchor="middle" x="571.616" y="-61.5" font-family="Helvetica,sans-Serif" font-size="10.00">complex</text>
</g>
<!-- Node16&#45;&gt;Node20 -->
<g id="edge27" class="edge"><title>Node16&#45;&gt;Node20</title>
<path fill="none" stroke="midnightblue" d="M634.377,-110.45C622.967,-102.279 605.07,-89.4604 591.302,-79.5996"/>
<polygon fill="midnightblue" stroke="midnightblue" points="593.128,-76.6027 582.96,-73.6253 589.052,-82.2936 593.128,-76.6027"/>
</g>
<!-- Node21 -->
<g id="node22" class="node"><title>Node21</title>
<polygon fill="none" stroke="#bfbfbf" points="616.212,-55.5 616.212,-73.5 675.02,-73.5 675.02,-55.5 616.212,-55.5"/>
<text text-anchor="middle" x="645.616" y="-61.5" font-family="Helvetica,sans-Serif" font-size="10.00">exception</text>
</g>
<!-- Node16&#45;&gt;Node21 -->
<g id="edge29" class="edge"><title>Node16&#45;&gt;Node21</title>
<path fill="none" stroke="midnightblue" d="M645.616,-110.219C645.616,-103.177 645.616,-92.8083 645.616,-83.8277"/>
<polygon fill="midnightblue" stroke="midnightblue" points="649.116,-83.5495 645.616,-73.5496 642.116,-83.5496 649.116,-83.5495"/>
</g>
<!-- Node22 -->
<g id="node23" class="node"><title>Node22</title>
<polygon fill="none" stroke="#bfbfbf" points="187.214,-55.5 187.214,-73.5 246.017,-73.5 246.017,-55.5 187.214,-55.5"/>
<text text-anchor="middle" x="216.616" y="-61.5" font-family="Helvetica,sans-Serif" font-size="10.00">stdexcept</text>
</g>
<!-- Node16&#45;&gt;Node22 -->
<g id="edge30" class="edge"><title>Node16&#45;&gt;Node22</title>
<path fill="none" stroke="midnightblue" d="M577.581,-111.157C481.118,-100.69 310.973,-82.0013 256.48,-74.0528"/>
<polygon fill="midnightblue" stroke="midnightblue" points="256.847,-70.5678 246.427,-72.4841 255.768,-77.4841 256.847,-70.5678"/>
</g>
<!-- Node23 -->
<g id="node24" class="node"><title>Node23</title>
<g id="a_node24"><a xlink:href="cxxdefs_8h.html" target="_top" xlink:title="Basic definitions, which may have to be defined before any Eigen headers or further utilities are inc...">
<polygon fill="none" stroke="black" points="385.806,-55.5 385.806,-73.5 527.426,-73.5 527.426,-55.5 385.806,-55.5"/>
<text text-anchor="middle" x="456.616" y="-61.5" font-family="Helvetica,sans-Serif" font-size="10.00">tomographer/tools/cxxdefs.h</text>
</a>
</g>
</g>
<!-- Node16&#45;&gt;Node23 -->
<g id="edge31" class="edge"><title>Node16&#45;&gt;Node23</title>
<path fill="none" stroke="midnightblue" d="M616.911,-110.45C584.346,-101.318 531.086,-86.3833 494.979,-76.2578"/>
<polygon fill="midnightblue" stroke="midnightblue" points="495.854,-72.8685 485.281,-73.5383 493.964,-79.6085 495.854,-72.8685"/>
</g>
<!-- Node16&#45;&gt;Node24 -->
<g id="edge35" class="edge"><title>Node16&#45;&gt;Node24</title>
<path fill="none" stroke="midnightblue" d="M698.773,-110.45C761.527,-100.948 865.779,-85.161 932.556,-75.0491"/>
<polygon fill="midnightblue" stroke="midnightblue" points="933.169,-78.4962 942.533,-73.5383 932.121,-71.5751 933.169,-78.4962"/>
</g>
<!-- Node25 -->
<g id="node26" class="node"><title>Node25</title>
<polygon fill="none" stroke="#bfbfbf" points="263.601,-55.5 263.601,-73.5 329.63,-73.5 329.63,-55.5 263.601,-55.5"/>
<text text-anchor="middle" x="296.616" y="-61.5" font-family="Helvetica,sans-Serif" font-size="10.00">Eigen/Core</text>
</g>
<!-- Node16&#45;&gt;Node25 -->
<g id="edge37" class="edge"><title>Node16&#45;&gt;Node25</title>
<path fill="none" stroke="midnightblue" d="M587.351,-110.489C526.466,-101.984 428.207,-87.8777 343.616,-74 342.35,-73.7923 341.066,-73.5787 339.769,-73.3607"/>
<polygon fill="midnightblue" stroke="midnightblue" points="340.166,-69.8775 329.716,-71.6261 338.976,-76.7755 340.166,-69.8775"/>
</g>
<!-- Node23&#45;&gt;Node17 -->
<g id="edge32" class="edge"><title>Node23&#45;&gt;Node17</title>
<path fill="none" stroke="midnightblue" d="M444.01,-55.4504C430.969,-47.1232 410.371,-33.9704 394.819,-24.0394"/>
<polygon fill="midnightblue" stroke="midnightblue" points="396.652,-21.0574 386.34,-18.6253 392.885,-26.9571 396.652,-21.0574"/>
</g>
<!-- Node23&#45;&gt;Node18 -->
<g id="edge33" class="edge"><title>Node23&#45;&gt;Node18</title>
<path fill="none" stroke="midnightblue" d="M465.209,-55.2188C473.41,-47.3162 485.959,-35.2241 495.94,-25.6057"/>
<polygon fill="midnightblue" stroke="midnightblue" points="498.49,-28.0088 503.262,-18.5496 493.633,-22.9682 498.49,-28.0088"/>
</g>
<!-- Node23&#45;&gt;Node19 -->
<g id="edge34" class="edge"><title>Node23&#45;&gt;Node19</title>
<path fill="none" stroke="midnightblue" d="M491.396,-55.4504C535.436,-45.2578 610.713,-27.8357 653.465,-17.941"/>
<polygon fill="midnightblue" stroke="midnightblue" points="654.388,-21.3201 663.341,-15.6553 652.809,-14.5003 654.388,-21.3201"/>
</g>
<!-- Node24&#45;&gt;Node6 -->
<g id="edge36" class="edge"><title>Node24&#45;&gt;Node6</title>
<path fill="none" stroke="midnightblue" d="M980.58,-55.4504C964.662,-46.9286 939.304,-33.3532 920.616,-23.3487"/>
<polygon fill="midnightblue" stroke="midnightblue" points="922.261,-20.2595 911.793,-18.6253 918.957,-26.4308 922.261,-20.2595"/>
</g>
</g>
</svg>
