<?xml version="1.0" encoding="UTF-8" standalone="no"?>
<!DOCTYPE svg PUBLIC "-//W3C//DTD SVG 1.1//EN"
 "http://www.w3.org/Graphics/SVG/1.1/DTD/svg11.dtd">
<!-- Generated by graphviz version 2.38.0 (20140413.2041)
 -->
<!-- Title: Tomographer::MHRWTasks::MHRandomWalkTask&lt; MHRandomWalkTaskCData, Rng &gt;::StatusReport Pages: 1 -->
<svg width="1081pt" height="117pt"
 viewBox="0.00 0.00 1081.32 117.00" xmlns="http://www.w3.org/2000/svg" xmlns:xlink="http://www.w3.org/1999/xlink">
<g id="graph0" class="graph" transform="scale(1 1) rotate(0) translate(4 113)">
<title>Tomographer::MHRWTasks::MHRandomWalkTask&lt; MHRandomWalkTaskCData, Rng &gt;::StatusReport</title>
<!-- Node2 -->
<g id="node1" class="node"><title>Node2</title>
<polygon fill="#bfbfbf" stroke="black" points="890.114,-52.5 890.114,-90.5 1073.32,-90.5 1073.32,-52.5 890.114,-52.5"/>
<text text-anchor="start" x="898.114" y="-78.5" font-family="Helvetica,sans-Serif" font-size="10.00">Tomographer::MHRWTasks</text>
<text text-anchor="start" x="898.114" y="-68.5" font-family="Helvetica,sans-Serif" font-size="10.00">::MHRandomWalkTask&lt; MHRandom</text>
<text text-anchor="middle" x="981.715" y="-58.5" font-family="Helvetica,sans-Serif" font-size="10.00">WalkTaskCData, Rng &gt;::StatusReport</text>
</g>
<!-- Node3 -->
<g id="node2" class="node"><title>Node3</title>
<g id="a_node2"><a xlink:href="struct_tomographer_1_1_multi_proc_1_1_task_status_report.html" target="_top" xlink:title="Basic status report class. ">
<polygon fill="none" stroke="black" points="653.427,-80.5 653.427,-108.5 775.579,-108.5 775.579,-80.5 653.427,-80.5"/>
<text text-anchor="start" x="661.427" y="-96.5" font-family="Helvetica,sans-Serif" font-size="10.00">Tomographer::MultiProc</text>
<text text-anchor="middle" x="714.503" y="-86.5" font-family="Helvetica,sans-Serif" font-size="10.00">::TaskStatusReport</text>
</a>
</g>
</g>
<!-- Node3&#45;&gt;Node2 -->
<g id="edge1" class="edge"><title>Node3&#45;&gt;Node2</title>
<path fill="none" stroke="midnightblue" d="M785.824,-88.4015C817.774,-85.6308 855.965,-82.3187 890.038,-79.3638"/>
<polygon fill="midnightblue" stroke="midnightblue" points="785.344,-84.93 775.684,-89.2809 785.949,-91.9038 785.344,-84.93"/>
</g>
<!-- Node4 -->
<g id="node3" class="node"><title>Node4</title>
<g id="a_node3"><a doxygen="/Users/philippe/Research/projects/tomographer/doc/cppreference-doxygen-web.tag.xml:http://en.cppreference.com/w/" xlink:href="http://en.cppreference.com/w/cpp/string/basic_string.html" target="_top" xlink:title="STL class. ">
<polygon fill="none" stroke="black" points="401.122,-85.5 401.122,-103.5 460.471,-103.5 460.471,-85.5 401.122,-85.5"/>
<text text-anchor="middle" x="430.796" y="-91.5" font-family="Helvetica,sans-Serif" font-size="10.00">std::string</text>
</a>
</g>
</g>
<!-- Node4&#45;&gt;Node3 -->
<g id="edge2" class="edge"><title>Node4&#45;&gt;Node3</title>
<path fill="none" stroke="#9a32cd" stroke-dasharray="5,2" d="M470.744,-94.5C517.961,-94.5 598.054,-94.5 653.253,-94.5"/>
<polygon fill="#9a32cd" stroke="#9a32cd" points="470.62,-91.0001 460.62,-94.5 470.62,-98.0001 470.62,-91.0001"/>
<text text-anchor="middle" x="578.964" y="-96.5" font-family="Helvetica,sans-Serif" font-size="10.00"> msg</text>
</g>
<!-- Node5 -->
<g id="node4" class="node"><title>Node5</title>
<g id="a_node4"><a doxygen="/Users/philippe/Research/projects/tomographer/doc/cppreference-doxygen-web.tag.xml:http://en.cppreference.com/w/" xlink:href="http://en.cppreference.com/w/cpp/string/basic_string.html" target="_top" xlink:title="std::basic_string\&lt;\l char \&gt;">
<polygon fill="none" stroke="black" points="169.563,-80.5 169.563,-108.5 263.659,-108.5 263.659,-80.5 169.563,-80.5"/>
<text text-anchor="start" x="177.563" y="-96.5" font-family="Helvetica,sans-Serif" font-size="10.00">std::basic_string&lt;</text>
<text text-anchor="middle" x="216.611" y="-86.5" font-family="Helvetica,sans-Serif" font-size="10.00"> char &gt;</text>
</a>
</g>
</g>
<!-- Node5&#45;&gt;Node4 -->
<g id="edge3" class="edge"><title>Node5&#45;&gt;Node4</title>
<path fill="none" stroke="midnightblue" d="M274.003,-94.5C314.842,-94.5 368.375,-94.5 400.87,-94.5"/>
<polygon fill="midnightblue" stroke="midnightblue" points="273.914,-91.0001 263.914,-94.5 273.914,-98.0001 273.914,-91.0001"/>
</g>
<!-- Node6 -->
<g id="node5" class="node"><title>Node6</title>
<g id="a_node5"><a doxygen="/Users/philippe/Research/projects/tomographer/doc/cppreference-doxygen-web.tag.xml:http://en.cppreference.com/w/" xlink:href="http://en.cppreference.com/w/cpp/string/basic_string.html" target="_top" xlink:title="STL class. ">
<polygon fill="none" stroke="black" points="0,-80.5 0,-108.5 94.0957,-108.5 94.0957,-80.5 0,-80.5"/>
<text text-anchor="start" x="8" y="-96.5" font-family="Helvetica,sans-Serif" font-size="10.00">std::basic_string&lt;</text>
<text text-anchor="middle" x="47.0479" y="-86.5" font-family="Helvetica,sans-Serif" font-size="10.00"> Char &gt;</text>
</a>
</g>
</g>
<!-- Node6&#45;&gt;Node5 -->
<g id="edge4" class="edge"><title>Node6&#45;&gt;Node5</title>
<path fill="none" stroke="orange" stroke-dasharray="5,2" d="M104.435,-94.5C125.608,-94.5 149.403,-94.5 169.531,-94.5"/>
<polygon fill="orange" stroke="orange" points="104.279,-91.0001 94.2789,-94.5 104.279,-98.0001 104.279,-91.0001"/>
<text text-anchor="middle" x="131.83" y="-96.5" font-family="Helvetica,sans-Serif" font-size="10.00"> &lt; char &gt;</text>
</g>
<!-- Node7 -->
<g id="node6" class="node"><title>Node7</title>
<g id="a_node6"><a xlink:href="struct_tomographer_1_1_m_h_r_w_params.html" target="_top" xlink:title="Tomographer::MHRWParams\l\&lt; IterCountIntType, StepReal\lType \&gt;">
<polygon fill="none" stroke="black" points="641.02,-23.5 641.02,-61.5 787.986,-61.5 787.986,-23.5 641.02,-23.5"/>
<text text-anchor="start" x="649.02" y="-49.5" font-family="Helvetica,sans-Serif" font-size="10.00">Tomographer::MHRWParams</text>
<text text-anchor="start" x="649.02" y="-39.5" font-family="Helvetica,sans-Serif" font-size="10.00">&lt; IterCountIntType, StepReal</text>
<text text-anchor="middle" x="714.503" y="-29.5" font-family="Helvetica,sans-Serif" font-size="10.00">Type &gt;</text>
</a>
</g>
</g>
<!-- Node7&#45;&gt;Node2 -->
<g id="edge5" class="edge"><title>Node7&#45;&gt;Node2</title>
<path fill="none" stroke="#9a32cd" stroke-dasharray="5,2" d="M798.449,-51.5698C827.544,-54.7512 860.367,-58.3403 890.061,-61.5873"/>
<polygon fill="#9a32cd" stroke="#9a32cd" points="798.645,-48.0705 788.324,-50.4627 797.884,-55.0291 798.645,-48.0705"/>
<text text-anchor="middle" x="839.05" y="-62.5" font-family="Helvetica,sans-Serif" font-size="10.00"> mhrw_params</text>
</g>
<!-- Node8 -->
<g id="node7" class="node"><title>Node8</title>
<g id="a_node7"><a xlink:href="struct_tomographer_1_1_m_h_r_w_params.html" target="_top" xlink:title="Specify the parameters of a Metropolis&#45;Hastings random walk. ">
<polygon fill="none" stroke="black" points="344.684,-28.5 344.684,-56.5 516.909,-56.5 516.909,-28.5 344.684,-28.5"/>
<text text-anchor="start" x="352.684" y="-44.5" font-family="Helvetica,sans-Serif" font-size="10.00">Tomographer::MHRWParams</text>
<text text-anchor="middle" x="430.796" y="-34.5" font-family="Helvetica,sans-Serif" font-size="10.00">&lt; CountIntType_, StepRealType_ &gt;</text>
</a>
</g>
</g>
<!-- Node8&#45;&gt;Node7 -->
<g id="edge6" class="edge"><title>Node8&#45;&gt;Node7</title>
<path fill="none" stroke="orange" stroke-dasharray="5,2" d="M527.413,-42.5C564.517,-42.5 606.307,-42.5 640.871,-42.5"/>
<polygon fill="orange" stroke="orange" points="527.082,-39.0001 517.082,-42.5 527.082,-46.0001 527.082,-39.0001"/>
<text text-anchor="start" x="534.909" y="-54.5" font-family="Helvetica,sans-Serif" font-size="10.00"> &lt; IterCountIntType,</text>
<text text-anchor="middle" x="578.964" y="-44.5" font-family="Helvetica,sans-Serif" font-size="10.00"> StepRealType &gt;</text>
</g>
<!-- Node9 -->
<g id="node8" class="node"><title>Node9</title>
<polygon fill="none" stroke="#bfbfbf" points="176.087,-37.5 176.087,-55.5 257.136,-55.5 257.136,-37.5 176.087,-37.5"/>
<text text-anchor="middle" x="216.611" y="-43.5" font-family="Helvetica,sans-Serif" font-size="10.00">CountIntType_</text>
</g>
<!-- Node9&#45;&gt;Node8 -->
<g id="edge7" class="edge"><title>Node9&#45;&gt;Node8</title>
<path fill="none" stroke="#9a32cd" stroke-dasharray="5,2" d="M267.67,-45.5563C290.557,-45.1249 318.323,-44.6014 344.362,-44.1106"/>
<polygon fill="#9a32cd" stroke="#9a32cd" points="267.454,-42.0597 257.522,-45.7476 267.586,-49.0584 267.454,-42.0597"/>
<text text-anchor="middle" x="304.171" y="-67.5" font-family="Helvetica,sans-Serif" font-size="10.00"> n_run</text>
<text text-anchor="middle" x="304.171" y="-57.5" font-family="Helvetica,sans-Serif" font-size="10.00">n_therm</text>
<text text-anchor="middle" x="304.171" y="-47.5" font-family="Helvetica,sans-Serif" font-size="10.00">n_sweep</text>
</g>
<!-- Node10 -->
<g id="node9" class="node"><title>Node10</title>
<polygon fill="none" stroke="#bfbfbf" points="174.419,-0.5 174.419,-18.5 258.803,-18.5 258.803,-0.5 174.419,-0.5"/>
<text text-anchor="middle" x="216.611" y="-6.5" font-family="Helvetica,sans-Serif" font-size="10.00">StepRealType_</text>
</g>
<!-- Node10&#45;&gt;Node8 -->
<g id="edge8" class="edge"><title>Node10&#45;&gt;Node8</title>
<path fill="none" stroke="#9a32cd" stroke-dasharray="5,2" d="M269.1,-17.5078C291.775,-21.0342 319.024,-25.2722 344.589,-29.2481"/>
<polygon fill="#9a32cd" stroke="#9a32cd" points="269.446,-14.0195 259.026,-15.9411 268.37,-20.9364 269.446,-14.0195"/>
<text text-anchor="middle" x="304.171" y="-28.5" font-family="Helvetica,sans-Serif" font-size="10.00"> step_size</text>
</g>
</g>
</svg>
